%TF.GenerationSoftware,KiCad,Pcbnew,7.0.8*%
%TF.CreationDate,2023-11-08T20:54:03+10:00*%
%TF.ProjectId,ControllerBoard,436f6e74-726f-46c6-9c65-72426f617264,rev?*%
%TF.SameCoordinates,Original*%
%TF.FileFunction,Copper,L3,Inr*%
%TF.FilePolarity,Positive*%
%FSLAX46Y46*%
G04 Gerber Fmt 4.6, Leading zero omitted, Abs format (unit mm)*
G04 Created by KiCad (PCBNEW 7.0.8) date 2023-11-08 20:54:03*
%MOMM*%
%LPD*%
G01*
G04 APERTURE LIST*
%TA.AperFunction,ViaPad*%
%ADD10C,0.450000*%
%TD*%
G04 APERTURE END LIST*
D10*
%TO.N,GND*%
X14225000Y-7250000D03*
X14225000Y-8750000D03*
X21750000Y-4750000D03*
X18500000Y-4500000D03*
X18750000Y-7750000D03*
X14197000Y-9988548D03*
X12750000Y-12500000D03*
X21250000Y-12500000D03*
X24500000Y-10500000D03*
X20250000Y-1500000D03*
X15500000Y-500000D03*
X17000000Y-2500000D03*
X10250000Y-500000D03*
X10250000Y-4000000D03*
X3000000Y-750000D03*
%TO.N,VCC*%
X1250000Y-5500000D03*
X2500000Y-2500000D03*
X1250000Y-3500000D03*
X15775000Y-8750000D03*
X15250000Y-2750000D03*
X1250000Y-4500000D03*
X25500000Y-9250000D03*
X8000000Y-2775000D03*
%TO.N,GND*%
X19000000Y-6750000D03*
X22750000Y-1500000D03*
X30000000Y-3750000D03*
X1250000Y-8500000D03*
X1250000Y-7500000D03*
X24000000Y-1500000D03*
X12500000Y-4000000D03*
X2500000Y-9500000D03*
X20500000Y-6750000D03*
X8000000Y-1225000D03*
X1250000Y-6500000D03*
X26750000Y-3750000D03*
X21800000Y-1650000D03*
X25250000Y-1500000D03*
X16750000Y-9000000D03*
X17500000Y-10000000D03*
%TO.N,/Microcontroller/DEC3*%
X19250000Y-2500000D03*
%TO.N,/Connectors/ROW0*%
X33250000Y-3750000D03*
%TO.N,/Connectors/COL9*%
X24750000Y-2500000D03*
%TO.N,/Connectors/ROW1*%
X32750000Y-4250000D03*
%TO.N,/Connectors/COL10*%
X24875000Y-3375000D03*
%TO.N,/Accelerometer/SDA*%
X12750000Y-2250000D03*
%TO.N,/Accelerometer/SCL*%
X12750000Y-3000000D03*
%TO.N,/Connectors/ROW2*%
X33250000Y-4750000D03*
%TO.N,/Connectors/COL0*%
X19250000Y-10250000D03*
%TO.N,/Connectors/ROW3*%
X32750000Y-5250000D03*
%TO.N,/Connectors/COL1*%
X19750000Y-10750000D03*
%TO.N,/Connectors/ROW4*%
X33250000Y-5750000D03*
%TO.N,/Connectors/COL2*%
X20250000Y-11250000D03*
%TO.N,/Connectors/ROW5*%
X32750000Y-6250000D03*
%TO.N,/Connectors/COL3*%
X21000000Y-11500000D03*
%TO.N,/Connectors/ROW6*%
X33250000Y-6750000D03*
%TO.N,/Connectors/COL4*%
X21250000Y-10750000D03*
%TO.N,/Connectors/ROW7*%
X32750000Y-7250000D03*
%TO.N,/Connectors/COL5*%
X21750000Y-11250000D03*
%TO.N,/Connectors/ROW8*%
X33250000Y-7750000D03*
%TO.N,/Connectors/COL6*%
X22250000Y-10750000D03*
%TO.N,/Connectors/ROW9*%
X32750000Y-8250000D03*
%TO.N,/Connectors/COL7*%
X22750000Y-10250000D03*
%TO.N,/Connectors/COL8*%
X23250000Y-9500000D03*
%TO.N,/Connectors/SWDCLK*%
X23250000Y-3500000D03*
%TO.N,/Connectors/SWDIO*%
X23750000Y-3000000D03*
%TO.N,/Accelerometer/INT1*%
X10750000Y-4750000D03*
X21220714Y-2308572D03*
%TO.N,/Connectors/LED0*%
X6750000Y-7250000D03*
%TO.N,/Connectors/LED1*%
X7250000Y-7750000D03*
%TO.N,/Connectors/LED2*%
X6750000Y-8250000D03*
%TO.N,/Connectors/LED3*%
X7250000Y-8750000D03*
%TO.N,/Connectors/BUTTON*%
X7250000Y-6750000D03*
%TO.N,/Microcontroller/RESET*%
X24250000Y-3750000D03*
X7750000Y-6250000D03*
%TD*%
%TA.AperFunction,Conductor*%
%TO.N,VCC*%
G36*
X2787037Y-219407D02*
G01*
X2823001Y-268907D01*
X2823001Y-330093D01*
X2787037Y-379593D01*
X2773798Y-387705D01*
X2746780Y-401472D01*
X2651470Y-496782D01*
X2590282Y-616870D01*
X2590281Y-616872D01*
X2569196Y-749999D01*
X2569196Y-750000D01*
X2590281Y-883127D01*
X2590282Y-883129D01*
X2651470Y-1003217D01*
X2651472Y-1003220D01*
X2746780Y-1098528D01*
X2866874Y-1159719D01*
X3000000Y-1180804D01*
X3133126Y-1159719D01*
X3253220Y-1098528D01*
X3348528Y-1003220D01*
X3409719Y-883126D01*
X3430804Y-750000D01*
X3409719Y-616874D01*
X3348528Y-496780D01*
X3253220Y-401472D01*
X3226207Y-387708D01*
X3182944Y-344445D01*
X3173373Y-284013D01*
X3201151Y-229496D01*
X3255667Y-201719D01*
X3271154Y-200500D01*
X9763499Y-200500D01*
X9821690Y-219407D01*
X9857654Y-268907D01*
X9857654Y-330093D01*
X9851709Y-344444D01*
X9840281Y-366872D01*
X9819196Y-499999D01*
X9819196Y-500000D01*
X9840281Y-633127D01*
X9840282Y-633129D01*
X9899831Y-750000D01*
X9901472Y-753220D01*
X9996780Y-848528D01*
X10116874Y-909719D01*
X10250000Y-930804D01*
X10383126Y-909719D01*
X10503220Y-848528D01*
X10598528Y-753220D01*
X10659719Y-633126D01*
X10680804Y-500000D01*
X10659719Y-366874D01*
X10659718Y-366872D01*
X10648291Y-344444D01*
X10638720Y-284012D01*
X10666498Y-229496D01*
X10721015Y-201719D01*
X10736501Y-200500D01*
X15013499Y-200500D01*
X15071690Y-219407D01*
X15107654Y-268907D01*
X15107654Y-330093D01*
X15101709Y-344444D01*
X15090281Y-366872D01*
X15069196Y-499999D01*
X15069196Y-500000D01*
X15090281Y-633127D01*
X15090282Y-633129D01*
X15149831Y-750000D01*
X15151472Y-753220D01*
X15246780Y-848528D01*
X15366874Y-909719D01*
X15500000Y-930804D01*
X15633126Y-909719D01*
X15753220Y-848528D01*
X15848528Y-753220D01*
X15909719Y-633126D01*
X15930804Y-500000D01*
X15909719Y-366874D01*
X15909718Y-366872D01*
X15898291Y-344444D01*
X15888720Y-284012D01*
X15916498Y-229496D01*
X15971015Y-201719D01*
X15986501Y-200500D01*
X31625943Y-200500D01*
X31684134Y-219407D01*
X31695947Y-229496D01*
X33770504Y-2304053D01*
X33798281Y-2358570D01*
X33799500Y-2374057D01*
X33799500Y-3478845D01*
X33780593Y-3537036D01*
X33731093Y-3573000D01*
X33669907Y-3573000D01*
X33620407Y-3537036D01*
X33612291Y-3523791D01*
X33606326Y-3512084D01*
X33598528Y-3496780D01*
X33503220Y-3401472D01*
X33503217Y-3401470D01*
X33383129Y-3340282D01*
X33383127Y-3340281D01*
X33250000Y-3319196D01*
X33116872Y-3340281D01*
X33116870Y-3340282D01*
X32996782Y-3401470D01*
X32901470Y-3496782D01*
X32840282Y-3616870D01*
X32840281Y-3616872D01*
X32820986Y-3738693D01*
X32793208Y-3793209D01*
X32738693Y-3820986D01*
X32616872Y-3840281D01*
X32616870Y-3840282D01*
X32496782Y-3901470D01*
X32401470Y-3996782D01*
X32340282Y-4116870D01*
X32340281Y-4116872D01*
X32319196Y-4249999D01*
X32319196Y-4250000D01*
X32340281Y-4383127D01*
X32340282Y-4383129D01*
X32399831Y-4500000D01*
X32401472Y-4503220D01*
X32496780Y-4598528D01*
X32532778Y-4616870D01*
X32620939Y-4661791D01*
X32664203Y-4705056D01*
X32673774Y-4765488D01*
X32645996Y-4820004D01*
X32620939Y-4838209D01*
X32496781Y-4901471D01*
X32401470Y-4996782D01*
X32340282Y-5116870D01*
X32340281Y-5116872D01*
X32319196Y-5249999D01*
X32319196Y-5250000D01*
X32340281Y-5383127D01*
X32340282Y-5383129D01*
X32398191Y-5496781D01*
X32401472Y-5503220D01*
X32496780Y-5598528D01*
X32532786Y-5616874D01*
X32620939Y-5661791D01*
X32664203Y-5705056D01*
X32673774Y-5765488D01*
X32645996Y-5820004D01*
X32620939Y-5838209D01*
X32496781Y-5901471D01*
X32401470Y-5996782D01*
X32340282Y-6116870D01*
X32340281Y-6116872D01*
X32319196Y-6249999D01*
X32319196Y-6250000D01*
X32340281Y-6383127D01*
X32340282Y-6383129D01*
X32399831Y-6500000D01*
X32401472Y-6503220D01*
X32496780Y-6598528D01*
X32532778Y-6616870D01*
X32620939Y-6661791D01*
X32664203Y-6705056D01*
X32673774Y-6765488D01*
X32645996Y-6820004D01*
X32620939Y-6838209D01*
X32496781Y-6901471D01*
X32401470Y-6996782D01*
X32340282Y-7116870D01*
X32340281Y-7116872D01*
X32319196Y-7249999D01*
X32319196Y-7250000D01*
X32340281Y-7383127D01*
X32340282Y-7383129D01*
X32399831Y-7500000D01*
X32401472Y-7503220D01*
X32496780Y-7598528D01*
X32532778Y-7616870D01*
X32620939Y-7661791D01*
X32664203Y-7705056D01*
X32673774Y-7765488D01*
X32645996Y-7820004D01*
X32620939Y-7838209D01*
X32496781Y-7901471D01*
X32401470Y-7996782D01*
X32340282Y-8116870D01*
X32340281Y-8116872D01*
X32319196Y-8249999D01*
X32319196Y-8250000D01*
X32340281Y-8383127D01*
X32340282Y-8383129D01*
X32399831Y-8500000D01*
X32401472Y-8503220D01*
X32496780Y-8598528D01*
X32616874Y-8659719D01*
X32750000Y-8680804D01*
X32883126Y-8659719D01*
X33003220Y-8598528D01*
X33098528Y-8503220D01*
X33159719Y-8383126D01*
X33179013Y-8261306D01*
X33206790Y-8206791D01*
X33261306Y-8179013D01*
X33383126Y-8159719D01*
X33503220Y-8098528D01*
X33598528Y-8003220D01*
X33612291Y-7976207D01*
X33655555Y-7932944D01*
X33715987Y-7923373D01*
X33770504Y-7951151D01*
X33798281Y-8005667D01*
X33799500Y-8021154D01*
X33799500Y-12700500D01*
X33780593Y-12758691D01*
X33731093Y-12794655D01*
X33700500Y-12799500D01*
X21736501Y-12799500D01*
X21678310Y-12780593D01*
X21642346Y-12731093D01*
X21642346Y-12669907D01*
X21648291Y-12655556D01*
X21659718Y-12633127D01*
X21659719Y-12633126D01*
X21680804Y-12500000D01*
X21659719Y-12366874D01*
X21598528Y-12246780D01*
X21503220Y-12151472D01*
X21503217Y-12151470D01*
X21383129Y-12090282D01*
X21383127Y-12090281D01*
X21250000Y-12069196D01*
X21243602Y-12070209D01*
X21183170Y-12060635D01*
X21139907Y-12017368D01*
X21130339Y-11956936D01*
X21158119Y-11902420D01*
X21183168Y-11884221D01*
X21253220Y-11848528D01*
X21348528Y-11753220D01*
X21396714Y-11658648D01*
X21439977Y-11615387D01*
X21500409Y-11605815D01*
X21529866Y-11615386D01*
X21616874Y-11659719D01*
X21750000Y-11680804D01*
X21883126Y-11659719D01*
X22003220Y-11598528D01*
X22098528Y-11503220D01*
X22159719Y-11383126D01*
X22179013Y-11261306D01*
X22206790Y-11206791D01*
X22261306Y-11179013D01*
X22383126Y-11159719D01*
X22503220Y-11098528D01*
X22598528Y-11003220D01*
X22659719Y-10883126D01*
X22679013Y-10761306D01*
X22706790Y-10706791D01*
X22761306Y-10679013D01*
X22883126Y-10659719D01*
X23003220Y-10598528D01*
X23098528Y-10503220D01*
X23100169Y-10500000D01*
X24069196Y-10500000D01*
X24090281Y-10633127D01*
X24090282Y-10633129D01*
X24149831Y-10750000D01*
X24151472Y-10753220D01*
X24246780Y-10848528D01*
X24366874Y-10909719D01*
X24500000Y-10930804D01*
X24633126Y-10909719D01*
X24753220Y-10848528D01*
X24848528Y-10753220D01*
X24909719Y-10633126D01*
X24930804Y-10500000D01*
X24909719Y-10366874D01*
X24848528Y-10246780D01*
X24753220Y-10151472D01*
X24753217Y-10151470D01*
X24633129Y-10090282D01*
X24633127Y-10090281D01*
X24500000Y-10069196D01*
X24366872Y-10090281D01*
X24366870Y-10090282D01*
X24246782Y-10151470D01*
X24151470Y-10246782D01*
X24090282Y-10366870D01*
X24090281Y-10366872D01*
X24069196Y-10499999D01*
X24069196Y-10500000D01*
X23100169Y-10500000D01*
X23159719Y-10383126D01*
X23180804Y-10250000D01*
X23159719Y-10116874D01*
X23136872Y-10072035D01*
X23127301Y-10011605D01*
X23155078Y-9957088D01*
X23209594Y-9929310D01*
X23240567Y-9929310D01*
X23250000Y-9930804D01*
X23383126Y-9909719D01*
X23503220Y-9848528D01*
X23598528Y-9753220D01*
X23659719Y-9633126D01*
X23680804Y-9500000D01*
X23659719Y-9366874D01*
X23598528Y-9246780D01*
X23503220Y-9151472D01*
X23503217Y-9151470D01*
X23383129Y-9090282D01*
X23383127Y-9090281D01*
X23250000Y-9069196D01*
X23116872Y-9090281D01*
X23116870Y-9090282D01*
X22996782Y-9151470D01*
X22901470Y-9246782D01*
X22840282Y-9366870D01*
X22840281Y-9366872D01*
X22819196Y-9499999D01*
X22819196Y-9500000D01*
X22840281Y-9633127D01*
X22840282Y-9633129D01*
X22863126Y-9677963D01*
X22872698Y-9738395D01*
X22844921Y-9792911D01*
X22790404Y-9820689D01*
X22759433Y-9820690D01*
X22759426Y-9820689D01*
X22757755Y-9820424D01*
X22750000Y-9819196D01*
X22749999Y-9819196D01*
X22616872Y-9840281D01*
X22616870Y-9840282D01*
X22496782Y-9901470D01*
X22401470Y-9996782D01*
X22340282Y-10116870D01*
X22340281Y-10116872D01*
X22320986Y-10238693D01*
X22293208Y-10293209D01*
X22238693Y-10320986D01*
X22116872Y-10340281D01*
X22116870Y-10340282D01*
X21996782Y-10401470D01*
X21901471Y-10496781D01*
X21838209Y-10620939D01*
X21794944Y-10664203D01*
X21734512Y-10673774D01*
X21679996Y-10645996D01*
X21661791Y-10620939D01*
X21601809Y-10503220D01*
X21598528Y-10496780D01*
X21503220Y-10401472D01*
X21503217Y-10401470D01*
X21383129Y-10340282D01*
X21383127Y-10340281D01*
X21250000Y-10319196D01*
X21116872Y-10340281D01*
X21116870Y-10340282D01*
X20996782Y-10401470D01*
X20901470Y-10496782D01*
X20840282Y-10616870D01*
X20840281Y-10616872D01*
X20820987Y-10738692D01*
X20819196Y-10750000D01*
X20840281Y-10883126D01*
X20884613Y-10970132D01*
X20894184Y-11030564D01*
X20866407Y-11085081D01*
X20841348Y-11103287D01*
X20779867Y-11134613D01*
X20719435Y-11144184D01*
X20664918Y-11116406D01*
X20646714Y-11091351D01*
X20598528Y-10996780D01*
X20503220Y-10901472D01*
X20503217Y-10901470D01*
X20383129Y-10840282D01*
X20383127Y-10840281D01*
X20261306Y-10820986D01*
X20206790Y-10793208D01*
X20179013Y-10738692D01*
X20169844Y-10680804D01*
X20159719Y-10616874D01*
X20098528Y-10496780D01*
X20003220Y-10401472D01*
X20003217Y-10401470D01*
X19883129Y-10340282D01*
X19883127Y-10340281D01*
X19761306Y-10320986D01*
X19706790Y-10293208D01*
X19679013Y-10238692D01*
X19678904Y-10238007D01*
X19659719Y-10116874D01*
X19598528Y-9996780D01*
X19503220Y-9901472D01*
X19503217Y-9901470D01*
X19383129Y-9840282D01*
X19383127Y-9840281D01*
X19250000Y-9819196D01*
X19116872Y-9840281D01*
X19116870Y-9840282D01*
X18996782Y-9901470D01*
X18901470Y-9996782D01*
X18840282Y-10116870D01*
X18840281Y-10116872D01*
X18819196Y-10249999D01*
X18819196Y-10250000D01*
X18840281Y-10383127D01*
X18840282Y-10383129D01*
X18899831Y-10500000D01*
X18901472Y-10503220D01*
X18996780Y-10598528D01*
X19116874Y-10659719D01*
X19238007Y-10678904D01*
X19238692Y-10679013D01*
X19293209Y-10706790D01*
X19320986Y-10761306D01*
X19340281Y-10883127D01*
X19340282Y-10883129D01*
X19401470Y-11003217D01*
X19401472Y-11003220D01*
X19496780Y-11098528D01*
X19616874Y-11159719D01*
X19738007Y-11178904D01*
X19738692Y-11179013D01*
X19793209Y-11206790D01*
X19820986Y-11261306D01*
X19840281Y-11383127D01*
X19840282Y-11383129D01*
X19901470Y-11503217D01*
X19901472Y-11503220D01*
X19996780Y-11598528D01*
X20116874Y-11659719D01*
X20250000Y-11680804D01*
X20383126Y-11659719D01*
X20470132Y-11615386D01*
X20530563Y-11605815D01*
X20585080Y-11633592D01*
X20603286Y-11658651D01*
X20614574Y-11680804D01*
X20651472Y-11753220D01*
X20746780Y-11848528D01*
X20866874Y-11909719D01*
X21000000Y-11930804D01*
X21006392Y-11929791D01*
X21066822Y-11939361D01*
X21110088Y-11982624D01*
X21119662Y-12043055D01*
X21091886Y-12097573D01*
X21066826Y-12115781D01*
X20996781Y-12151471D01*
X20901470Y-12246782D01*
X20840282Y-12366870D01*
X20840281Y-12366872D01*
X20819196Y-12499999D01*
X20819196Y-12500000D01*
X20840281Y-12633127D01*
X20851709Y-12655556D01*
X20861280Y-12715988D01*
X20833502Y-12770504D01*
X20778985Y-12798281D01*
X20763499Y-12799500D01*
X13236501Y-12799500D01*
X13178310Y-12780593D01*
X13142346Y-12731093D01*
X13142346Y-12669907D01*
X13148291Y-12655556D01*
X13159718Y-12633127D01*
X13159719Y-12633126D01*
X13180804Y-12500000D01*
X13159719Y-12366874D01*
X13098528Y-12246780D01*
X13003220Y-12151472D01*
X13003217Y-12151470D01*
X12883129Y-12090282D01*
X12883127Y-12090281D01*
X12750000Y-12069196D01*
X12616872Y-12090281D01*
X12616870Y-12090282D01*
X12496782Y-12151470D01*
X12401470Y-12246782D01*
X12340282Y-12366870D01*
X12340281Y-12366872D01*
X12319196Y-12499999D01*
X12319196Y-12500000D01*
X12340281Y-12633127D01*
X12351709Y-12655556D01*
X12361280Y-12715988D01*
X12333502Y-12770504D01*
X12278985Y-12798281D01*
X12263499Y-12799500D01*
X299500Y-12799500D01*
X241309Y-12780593D01*
X205345Y-12731093D01*
X200500Y-12700500D01*
X200500Y-9988548D01*
X13766196Y-9988548D01*
X13787281Y-10121675D01*
X13787282Y-10121677D01*
X13846905Y-10238693D01*
X13848472Y-10241768D01*
X13943780Y-10337076D01*
X14063874Y-10398267D01*
X14197000Y-10419352D01*
X14330126Y-10398267D01*
X14450220Y-10337076D01*
X14545528Y-10241768D01*
X14606719Y-10121674D01*
X14625990Y-10000000D01*
X17069196Y-10000000D01*
X17090281Y-10133127D01*
X17090282Y-10133129D01*
X17149831Y-10250000D01*
X17151472Y-10253220D01*
X17246780Y-10348528D01*
X17366874Y-10409719D01*
X17500000Y-10430804D01*
X17633126Y-10409719D01*
X17753220Y-10348528D01*
X17848528Y-10253220D01*
X17909719Y-10133126D01*
X17930804Y-10000000D01*
X17909719Y-9866874D01*
X17848528Y-9746780D01*
X17753220Y-9651472D01*
X17753217Y-9651470D01*
X17633129Y-9590282D01*
X17633127Y-9590281D01*
X17500000Y-9569196D01*
X17366872Y-9590281D01*
X17366870Y-9590282D01*
X17246782Y-9651470D01*
X17151470Y-9746782D01*
X17090282Y-9866870D01*
X17090281Y-9866872D01*
X17069196Y-9999999D01*
X17069196Y-10000000D01*
X14625990Y-10000000D01*
X14627804Y-9988548D01*
X14606719Y-9855422D01*
X14545528Y-9735328D01*
X14450220Y-9640020D01*
X14450217Y-9640018D01*
X14330129Y-9578830D01*
X14330127Y-9578829D01*
X14197000Y-9557744D01*
X14063872Y-9578829D01*
X14063870Y-9578830D01*
X13943782Y-9640018D01*
X13848470Y-9735330D01*
X13787282Y-9855418D01*
X13787281Y-9855420D01*
X13766196Y-9988547D01*
X13766196Y-9988548D01*
X200500Y-9988548D01*
X200500Y-9500000D01*
X2069196Y-9500000D01*
X2090281Y-9633127D01*
X2090282Y-9633129D01*
X2151470Y-9753217D01*
X2151472Y-9753220D01*
X2246780Y-9848528D01*
X2366874Y-9909719D01*
X2500000Y-9930804D01*
X2633126Y-9909719D01*
X2753220Y-9848528D01*
X2848528Y-9753220D01*
X2909719Y-9633126D01*
X2930804Y-9500000D01*
X2909719Y-9366874D01*
X2848528Y-9246780D01*
X2753220Y-9151472D01*
X2753217Y-9151470D01*
X2633129Y-9090282D01*
X2633127Y-9090281D01*
X2500000Y-9069196D01*
X2366872Y-9090281D01*
X2366870Y-9090282D01*
X2246782Y-9151470D01*
X2151470Y-9246782D01*
X2090282Y-9366870D01*
X2090281Y-9366872D01*
X2069196Y-9499999D01*
X2069196Y-9500000D01*
X200500Y-9500000D01*
X200500Y-8500000D01*
X819196Y-8500000D01*
X840281Y-8633127D01*
X840282Y-8633129D01*
X899831Y-8750000D01*
X901472Y-8753220D01*
X996780Y-8848528D01*
X1116874Y-8909719D01*
X1250000Y-8930804D01*
X1383126Y-8909719D01*
X1503220Y-8848528D01*
X1598528Y-8753220D01*
X1659719Y-8633126D01*
X1680804Y-8500000D01*
X1659719Y-8366874D01*
X1600169Y-8250000D01*
X6319196Y-8250000D01*
X6340281Y-8383127D01*
X6340282Y-8383129D01*
X6399831Y-8500000D01*
X6401472Y-8503220D01*
X6496780Y-8598528D01*
X6616874Y-8659719D01*
X6738007Y-8678904D01*
X6738692Y-8679013D01*
X6793209Y-8706790D01*
X6820986Y-8761306D01*
X6840281Y-8883127D01*
X6840282Y-8883129D01*
X6899831Y-9000000D01*
X6901472Y-9003220D01*
X6996780Y-9098528D01*
X7116874Y-9159719D01*
X7250000Y-9180804D01*
X7383126Y-9159719D01*
X7503220Y-9098528D01*
X7598528Y-9003220D01*
X7659719Y-8883126D01*
X7680804Y-8750000D01*
X13794196Y-8750000D01*
X13815281Y-8883127D01*
X13815282Y-8883129D01*
X13874831Y-9000000D01*
X13876472Y-9003220D01*
X13971780Y-9098528D01*
X14091874Y-9159719D01*
X14225000Y-9180804D01*
X14358126Y-9159719D01*
X14478220Y-9098528D01*
X14573528Y-9003220D01*
X14575169Y-9000000D01*
X16319196Y-9000000D01*
X16340281Y-9133127D01*
X16340282Y-9133129D01*
X16401470Y-9253217D01*
X16401472Y-9253220D01*
X16496780Y-9348528D01*
X16616874Y-9409719D01*
X16750000Y-9430804D01*
X16883126Y-9409719D01*
X17003220Y-9348528D01*
X17098528Y-9253220D01*
X17159719Y-9133126D01*
X17180804Y-9000000D01*
X17159719Y-8866874D01*
X17098528Y-8746780D01*
X17003220Y-8651472D01*
X17003217Y-8651470D01*
X16883129Y-8590282D01*
X16883127Y-8590281D01*
X16750000Y-8569196D01*
X16616872Y-8590281D01*
X16616870Y-8590282D01*
X16496782Y-8651470D01*
X16401470Y-8746782D01*
X16340282Y-8866870D01*
X16340281Y-8866872D01*
X16319196Y-8999999D01*
X16319196Y-9000000D01*
X14575169Y-9000000D01*
X14634719Y-8883126D01*
X14655804Y-8750000D01*
X14634719Y-8616874D01*
X14573528Y-8496780D01*
X14478220Y-8401472D01*
X14478217Y-8401470D01*
X14358129Y-8340282D01*
X14358127Y-8340281D01*
X14225000Y-8319196D01*
X14091872Y-8340281D01*
X14091870Y-8340282D01*
X13971782Y-8401470D01*
X13876470Y-8496782D01*
X13815282Y-8616870D01*
X13815281Y-8616872D01*
X13794196Y-8749999D01*
X13794196Y-8750000D01*
X7680804Y-8750000D01*
X7659719Y-8616874D01*
X7598528Y-8496780D01*
X7503220Y-8401472D01*
X7503217Y-8401470D01*
X7379061Y-8338209D01*
X7335796Y-8294945D01*
X7326225Y-8234513D01*
X7354003Y-8179996D01*
X7379061Y-8161791D01*
X7467222Y-8116870D01*
X7503220Y-8098528D01*
X7598528Y-8003220D01*
X7659719Y-7883126D01*
X7680804Y-7750000D01*
X18319196Y-7750000D01*
X18340281Y-7883127D01*
X18340282Y-7883129D01*
X18401470Y-8003217D01*
X18401472Y-8003220D01*
X18496780Y-8098528D01*
X18616874Y-8159719D01*
X18750000Y-8180804D01*
X18883126Y-8159719D01*
X19003220Y-8098528D01*
X19098528Y-8003220D01*
X19159719Y-7883126D01*
X19180804Y-7750000D01*
X19159719Y-7616874D01*
X19098528Y-7496780D01*
X19003220Y-7401472D01*
X18933173Y-7365781D01*
X18889909Y-7322516D01*
X18880338Y-7262084D01*
X18908116Y-7207568D01*
X18962633Y-7179791D01*
X18993604Y-7179791D01*
X19000000Y-7180804D01*
X19133126Y-7159719D01*
X19253220Y-7098528D01*
X19348528Y-7003220D01*
X19409719Y-6883126D01*
X19430804Y-6750000D01*
X20069196Y-6750000D01*
X20090281Y-6883127D01*
X20090282Y-6883129D01*
X20151470Y-7003217D01*
X20151472Y-7003220D01*
X20246780Y-7098528D01*
X20366874Y-7159719D01*
X20500000Y-7180804D01*
X20633126Y-7159719D01*
X20753220Y-7098528D01*
X20848528Y-7003220D01*
X20909719Y-6883126D01*
X20930804Y-6750000D01*
X20909719Y-6616874D01*
X20848528Y-6496780D01*
X20753220Y-6401472D01*
X20753217Y-6401470D01*
X20633129Y-6340282D01*
X20633127Y-6340281D01*
X20500000Y-6319196D01*
X20366872Y-6340281D01*
X20366870Y-6340282D01*
X20246782Y-6401470D01*
X20151470Y-6496782D01*
X20090282Y-6616870D01*
X20090281Y-6616872D01*
X20069196Y-6749999D01*
X20069196Y-6750000D01*
X19430804Y-6750000D01*
X19409719Y-6616874D01*
X19348528Y-6496780D01*
X19253220Y-6401472D01*
X19253217Y-6401470D01*
X19133129Y-6340282D01*
X19133127Y-6340281D01*
X19000000Y-6319196D01*
X18866872Y-6340281D01*
X18866870Y-6340282D01*
X18746782Y-6401470D01*
X18651470Y-6496782D01*
X18590282Y-6616870D01*
X18590281Y-6616872D01*
X18569196Y-6749999D01*
X18569196Y-6750000D01*
X18590281Y-6883127D01*
X18590282Y-6883129D01*
X18651470Y-7003217D01*
X18651472Y-7003220D01*
X18746780Y-7098528D01*
X18816826Y-7134218D01*
X18860090Y-7177482D01*
X18869661Y-7237914D01*
X18841883Y-7292431D01*
X18787367Y-7320208D01*
X18756396Y-7320209D01*
X18750000Y-7319196D01*
X18749999Y-7319196D01*
X18616872Y-7340281D01*
X18616870Y-7340282D01*
X18496782Y-7401470D01*
X18401470Y-7496782D01*
X18340282Y-7616870D01*
X18340281Y-7616872D01*
X18319196Y-7749999D01*
X18319196Y-7750000D01*
X7680804Y-7750000D01*
X7659719Y-7616874D01*
X7598528Y-7496780D01*
X7503220Y-7401472D01*
X7503217Y-7401470D01*
X7379061Y-7338209D01*
X7335796Y-7294945D01*
X7328678Y-7250000D01*
X13794196Y-7250000D01*
X13815281Y-7383127D01*
X13815282Y-7383129D01*
X13874831Y-7500000D01*
X13876472Y-7503220D01*
X13971780Y-7598528D01*
X14091874Y-7659719D01*
X14225000Y-7680804D01*
X14358126Y-7659719D01*
X14478220Y-7598528D01*
X14573528Y-7503220D01*
X14634719Y-7383126D01*
X14655804Y-7250000D01*
X14634719Y-7116874D01*
X14573528Y-6996780D01*
X14478220Y-6901472D01*
X14478217Y-6901470D01*
X14358129Y-6840282D01*
X14358127Y-6840281D01*
X14225000Y-6819196D01*
X14091872Y-6840281D01*
X14091870Y-6840282D01*
X13971782Y-6901470D01*
X13876470Y-6996782D01*
X13815282Y-7116870D01*
X13815281Y-7116872D01*
X13794196Y-7249999D01*
X13794196Y-7250000D01*
X7328678Y-7250000D01*
X7326225Y-7234513D01*
X7354003Y-7179996D01*
X7379061Y-7161791D01*
X7467222Y-7116870D01*
X7503220Y-7098528D01*
X7598528Y-7003220D01*
X7659719Y-6883126D01*
X7679013Y-6761306D01*
X7706790Y-6706791D01*
X7761306Y-6679013D01*
X7883126Y-6659719D01*
X8003220Y-6598528D01*
X8098528Y-6503220D01*
X8159719Y-6383126D01*
X8180804Y-6250000D01*
X8159719Y-6116874D01*
X8098528Y-5996780D01*
X8003220Y-5901472D01*
X8003217Y-5901470D01*
X7883129Y-5840282D01*
X7883127Y-5840281D01*
X7750000Y-5819196D01*
X7616872Y-5840281D01*
X7616870Y-5840282D01*
X7496782Y-5901470D01*
X7401470Y-5996782D01*
X7340282Y-6116870D01*
X7340281Y-6116872D01*
X7320986Y-6238693D01*
X7293208Y-6293209D01*
X7238693Y-6320986D01*
X7116872Y-6340281D01*
X7116870Y-6340282D01*
X6996782Y-6401470D01*
X6901470Y-6496782D01*
X6840282Y-6616870D01*
X6840281Y-6616872D01*
X6820986Y-6738693D01*
X6793208Y-6793209D01*
X6738693Y-6820986D01*
X6616872Y-6840281D01*
X6616870Y-6840282D01*
X6496782Y-6901470D01*
X6401470Y-6996782D01*
X6340282Y-7116870D01*
X6340281Y-7116872D01*
X6319196Y-7249999D01*
X6319196Y-7250000D01*
X6340281Y-7383127D01*
X6340282Y-7383129D01*
X6399831Y-7500000D01*
X6401472Y-7503220D01*
X6496780Y-7598528D01*
X6532778Y-7616870D01*
X6620939Y-7661791D01*
X6664203Y-7705056D01*
X6673774Y-7765488D01*
X6645996Y-7820004D01*
X6620939Y-7838209D01*
X6496781Y-7901471D01*
X6401470Y-7996782D01*
X6340282Y-8116870D01*
X6340281Y-8116872D01*
X6319196Y-8249999D01*
X6319196Y-8250000D01*
X1600169Y-8250000D01*
X1598528Y-8246780D01*
X1503220Y-8151472D01*
X1503217Y-8151470D01*
X1379061Y-8088209D01*
X1335796Y-8044945D01*
X1326225Y-7984513D01*
X1354003Y-7929996D01*
X1379061Y-7911791D01*
X1452963Y-7874134D01*
X1503220Y-7848528D01*
X1598528Y-7753220D01*
X1659719Y-7633126D01*
X1680804Y-7500000D01*
X1659719Y-7366874D01*
X1598528Y-7246780D01*
X1503220Y-7151472D01*
X1503217Y-7151470D01*
X1379061Y-7088209D01*
X1335796Y-7044945D01*
X1326225Y-6984513D01*
X1354003Y-6929996D01*
X1379061Y-6911791D01*
X1452963Y-6874134D01*
X1503220Y-6848528D01*
X1598528Y-6753220D01*
X1659719Y-6633126D01*
X1680804Y-6500000D01*
X1659719Y-6366874D01*
X1598528Y-6246780D01*
X1503220Y-6151472D01*
X1503217Y-6151470D01*
X1383129Y-6090282D01*
X1383127Y-6090281D01*
X1250000Y-6069196D01*
X1116872Y-6090281D01*
X1116870Y-6090282D01*
X996782Y-6151470D01*
X901470Y-6246782D01*
X840282Y-6366870D01*
X840281Y-6366872D01*
X819196Y-6499999D01*
X819196Y-6500000D01*
X840281Y-6633127D01*
X840282Y-6633129D01*
X899831Y-6750000D01*
X901472Y-6753220D01*
X996780Y-6848528D01*
X1045940Y-6873576D01*
X1120939Y-6911791D01*
X1164203Y-6955056D01*
X1173774Y-7015488D01*
X1145996Y-7070004D01*
X1120939Y-7088209D01*
X996781Y-7151471D01*
X901470Y-7246782D01*
X840282Y-7366870D01*
X840281Y-7366872D01*
X819196Y-7499999D01*
X819196Y-7500000D01*
X840281Y-7633127D01*
X840282Y-7633129D01*
X899831Y-7750000D01*
X901472Y-7753220D01*
X996780Y-7848528D01*
X1045940Y-7873576D01*
X1120939Y-7911791D01*
X1164203Y-7955056D01*
X1173774Y-8015488D01*
X1145996Y-8070004D01*
X1120939Y-8088209D01*
X996781Y-8151471D01*
X901470Y-8246782D01*
X840282Y-8366870D01*
X840281Y-8366872D01*
X819196Y-8499999D01*
X819196Y-8500000D01*
X200500Y-8500000D01*
X200500Y-4000000D01*
X9819196Y-4000000D01*
X9840281Y-4133127D01*
X9840282Y-4133129D01*
X9899831Y-4250000D01*
X9901472Y-4253220D01*
X9996780Y-4348528D01*
X10116874Y-4409719D01*
X10250000Y-4430804D01*
X10259429Y-4429310D01*
X10319860Y-4438880D01*
X10363125Y-4482143D01*
X10372699Y-4542575D01*
X10363127Y-4572036D01*
X10340281Y-4616874D01*
X10319196Y-4749999D01*
X10319196Y-4750000D01*
X10340281Y-4883127D01*
X10340282Y-4883129D01*
X10401470Y-5003217D01*
X10401472Y-5003220D01*
X10496780Y-5098528D01*
X10616874Y-5159719D01*
X10750000Y-5180804D01*
X10883126Y-5159719D01*
X11003220Y-5098528D01*
X11098528Y-5003220D01*
X11159719Y-4883126D01*
X11180804Y-4750000D01*
X11159719Y-4616874D01*
X11100169Y-4500000D01*
X18069196Y-4500000D01*
X18090281Y-4633127D01*
X18090282Y-4633129D01*
X18149831Y-4750000D01*
X18151472Y-4753220D01*
X18246780Y-4848528D01*
X18366874Y-4909719D01*
X18500000Y-4930804D01*
X18633126Y-4909719D01*
X18753220Y-4848528D01*
X18848528Y-4753220D01*
X18850169Y-4750000D01*
X21319196Y-4750000D01*
X21340281Y-4883127D01*
X21340282Y-4883129D01*
X21401470Y-5003217D01*
X21401472Y-5003220D01*
X21496780Y-5098528D01*
X21616874Y-5159719D01*
X21750000Y-5180804D01*
X21883126Y-5159719D01*
X22003220Y-5098528D01*
X22098528Y-5003220D01*
X22159719Y-4883126D01*
X22180804Y-4750000D01*
X22159719Y-4616874D01*
X22098528Y-4496780D01*
X22003220Y-4401472D01*
X22003217Y-4401470D01*
X21883129Y-4340282D01*
X21883127Y-4340281D01*
X21750000Y-4319196D01*
X21616872Y-4340281D01*
X21616870Y-4340282D01*
X21496782Y-4401470D01*
X21401470Y-4496782D01*
X21340282Y-4616870D01*
X21340281Y-4616872D01*
X21319196Y-4749999D01*
X21319196Y-4750000D01*
X18850169Y-4750000D01*
X18909719Y-4633126D01*
X18930804Y-4500000D01*
X18909719Y-4366874D01*
X18848528Y-4246780D01*
X18753220Y-4151472D01*
X18753217Y-4151470D01*
X18633129Y-4090282D01*
X18633127Y-4090281D01*
X18500000Y-4069196D01*
X18366872Y-4090281D01*
X18366870Y-4090282D01*
X18246782Y-4151470D01*
X18151470Y-4246782D01*
X18090282Y-4366870D01*
X18090281Y-4366872D01*
X18069196Y-4499999D01*
X18069196Y-4500000D01*
X11100169Y-4500000D01*
X11098528Y-4496780D01*
X11003220Y-4401472D01*
X11003217Y-4401470D01*
X10883129Y-4340282D01*
X10883127Y-4340281D01*
X10750000Y-4319196D01*
X10740565Y-4320690D01*
X10680134Y-4311116D01*
X10636871Y-4267850D01*
X10627301Y-4207417D01*
X10636870Y-4177968D01*
X10659719Y-4133126D01*
X10680804Y-4000000D01*
X12069196Y-4000000D01*
X12090281Y-4133127D01*
X12090282Y-4133129D01*
X12149831Y-4250000D01*
X12151472Y-4253220D01*
X12246780Y-4348528D01*
X12366874Y-4409719D01*
X12500000Y-4430804D01*
X12633126Y-4409719D01*
X12753220Y-4348528D01*
X12848528Y-4253220D01*
X12909719Y-4133126D01*
X12930804Y-4000000D01*
X12909719Y-3866874D01*
X12848528Y-3746780D01*
X12753220Y-3651472D01*
X12711742Y-3630338D01*
X12683173Y-3615781D01*
X12639909Y-3572516D01*
X12630338Y-3512084D01*
X12636495Y-3500000D01*
X22819196Y-3500000D01*
X22840281Y-3633127D01*
X22840282Y-3633129D01*
X22899831Y-3750000D01*
X22901472Y-3753220D01*
X22996780Y-3848528D01*
X23116874Y-3909719D01*
X23250000Y-3930804D01*
X23383126Y-3909719D01*
X23503220Y-3848528D01*
X23598528Y-3753220D01*
X23634219Y-3683171D01*
X23677482Y-3639910D01*
X23737914Y-3630338D01*
X23792430Y-3658115D01*
X23820208Y-3712632D01*
X23820209Y-3743602D01*
X23819196Y-3749999D01*
X23819196Y-3750000D01*
X23840281Y-3883127D01*
X23840282Y-3883129D01*
X23899831Y-4000000D01*
X23901472Y-4003220D01*
X23996780Y-4098528D01*
X24116874Y-4159719D01*
X24250000Y-4180804D01*
X24383126Y-4159719D01*
X24503220Y-4098528D01*
X24598528Y-4003220D01*
X24659719Y-3883126D01*
X24661447Y-3872214D01*
X24689220Y-3817701D01*
X24743735Y-3789921D01*
X24774711Y-3789920D01*
X24875000Y-3805804D01*
X25008126Y-3784719D01*
X25076266Y-3750000D01*
X26319196Y-3750000D01*
X26340281Y-3883127D01*
X26340282Y-3883129D01*
X26399831Y-4000000D01*
X26401472Y-4003220D01*
X26496780Y-4098528D01*
X26616874Y-4159719D01*
X26750000Y-4180804D01*
X26883126Y-4159719D01*
X27003220Y-4098528D01*
X27098528Y-4003220D01*
X27159719Y-3883126D01*
X27180804Y-3750000D01*
X29569196Y-3750000D01*
X29590281Y-3883127D01*
X29590282Y-3883129D01*
X29649831Y-4000000D01*
X29651472Y-4003220D01*
X29746780Y-4098528D01*
X29866874Y-4159719D01*
X30000000Y-4180804D01*
X30133126Y-4159719D01*
X30253220Y-4098528D01*
X30348528Y-4003220D01*
X30409719Y-3883126D01*
X30430804Y-3750000D01*
X30409719Y-3616874D01*
X30348528Y-3496780D01*
X30253220Y-3401472D01*
X30253217Y-3401470D01*
X30133129Y-3340282D01*
X30133127Y-3340281D01*
X30000000Y-3319196D01*
X29866872Y-3340281D01*
X29866870Y-3340282D01*
X29746782Y-3401470D01*
X29651470Y-3496782D01*
X29590282Y-3616870D01*
X29590281Y-3616872D01*
X29569196Y-3749999D01*
X29569196Y-3750000D01*
X27180804Y-3750000D01*
X27159719Y-3616874D01*
X27098528Y-3496780D01*
X27003220Y-3401472D01*
X27003217Y-3401470D01*
X26883129Y-3340282D01*
X26883127Y-3340281D01*
X26750000Y-3319196D01*
X26616872Y-3340281D01*
X26616870Y-3340282D01*
X26496782Y-3401470D01*
X26401470Y-3496782D01*
X26340282Y-3616870D01*
X26340281Y-3616872D01*
X26319196Y-3749999D01*
X26319196Y-3750000D01*
X25076266Y-3750000D01*
X25128220Y-3723528D01*
X25223528Y-3628220D01*
X25284719Y-3508126D01*
X25305804Y-3375000D01*
X25284719Y-3241874D01*
X25223528Y-3121780D01*
X25128220Y-3026472D01*
X25048939Y-2986076D01*
X25005676Y-2942813D01*
X24996105Y-2882381D01*
X25023881Y-2827866D01*
X25098528Y-2753220D01*
X25159719Y-2633126D01*
X25180804Y-2500000D01*
X25159719Y-2366874D01*
X25098528Y-2246780D01*
X25003220Y-2151472D01*
X25003217Y-2151470D01*
X24883129Y-2090282D01*
X24883127Y-2090281D01*
X24750000Y-2069196D01*
X24616872Y-2090281D01*
X24616870Y-2090282D01*
X24496782Y-2151470D01*
X24401470Y-2246782D01*
X24340282Y-2366870D01*
X24340281Y-2366872D01*
X24319196Y-2499999D01*
X24319196Y-2500000D01*
X24340281Y-2633127D01*
X24340282Y-2633129D01*
X24401470Y-2753217D01*
X24401472Y-2753220D01*
X24496780Y-2848528D01*
X24576060Y-2888923D01*
X24619323Y-2932186D01*
X24628894Y-2992618D01*
X24601117Y-3047134D01*
X24526473Y-3121778D01*
X24526470Y-3121782D01*
X24465282Y-3241870D01*
X24465280Y-3241876D01*
X24463551Y-3252790D01*
X24435771Y-3307305D01*
X24381253Y-3335080D01*
X24350284Y-3335079D01*
X24250001Y-3319196D01*
X24250000Y-3319196D01*
X24240565Y-3320690D01*
X24180134Y-3311116D01*
X24136871Y-3267850D01*
X24127301Y-3207417D01*
X24136870Y-3177968D01*
X24159719Y-3133126D01*
X24180804Y-3000000D01*
X24159719Y-2866874D01*
X24098528Y-2746780D01*
X24003220Y-2651472D01*
X24003217Y-2651470D01*
X23883129Y-2590282D01*
X23883127Y-2590281D01*
X23750000Y-2569196D01*
X23616872Y-2590281D01*
X23616870Y-2590282D01*
X23496782Y-2651470D01*
X23401470Y-2746782D01*
X23340282Y-2866870D01*
X23340281Y-2866872D01*
X23320986Y-2988693D01*
X23293208Y-3043209D01*
X23238693Y-3070986D01*
X23116872Y-3090281D01*
X23116870Y-3090282D01*
X22996782Y-3151470D01*
X22901470Y-3246782D01*
X22840282Y-3366870D01*
X22840281Y-3366872D01*
X22819196Y-3499999D01*
X22819196Y-3500000D01*
X12636495Y-3500000D01*
X12658116Y-3457568D01*
X12712633Y-3429791D01*
X12743604Y-3429791D01*
X12750000Y-3430804D01*
X12883126Y-3409719D01*
X13003220Y-3348528D01*
X13098528Y-3253220D01*
X13159719Y-3133126D01*
X13180804Y-3000000D01*
X13159719Y-2866874D01*
X13098528Y-2746780D01*
X13046749Y-2695001D01*
X13018974Y-2640487D01*
X13028545Y-2580055D01*
X13046748Y-2554999D01*
X13098528Y-2503220D01*
X13100169Y-2500000D01*
X16569196Y-2500000D01*
X16590281Y-2633127D01*
X16590282Y-2633129D01*
X16651470Y-2753217D01*
X16651472Y-2753220D01*
X16746780Y-2848528D01*
X16866874Y-2909719D01*
X17000000Y-2930804D01*
X17133126Y-2909719D01*
X17253220Y-2848528D01*
X17348528Y-2753220D01*
X17409719Y-2633126D01*
X17430804Y-2500000D01*
X18819196Y-2500000D01*
X18840281Y-2633127D01*
X18840282Y-2633129D01*
X18901470Y-2753217D01*
X18901472Y-2753220D01*
X18996780Y-2848528D01*
X19116874Y-2909719D01*
X19250000Y-2930804D01*
X19383126Y-2909719D01*
X19503220Y-2848528D01*
X19598528Y-2753220D01*
X19659719Y-2633126D01*
X19680804Y-2500000D01*
X19659719Y-2366874D01*
X19630013Y-2308572D01*
X20789910Y-2308572D01*
X20810995Y-2441699D01*
X20810996Y-2441701D01*
X20842342Y-2503220D01*
X20872186Y-2561792D01*
X20967494Y-2657100D01*
X21087588Y-2718291D01*
X21220714Y-2739376D01*
X21353840Y-2718291D01*
X21473934Y-2657100D01*
X21569242Y-2561792D01*
X21630433Y-2441698D01*
X21651518Y-2308572D01*
X21632010Y-2185403D01*
X21641581Y-2124972D01*
X21684846Y-2081707D01*
X21745275Y-2072136D01*
X21800000Y-2080804D01*
X21933126Y-2059719D01*
X22053220Y-1998528D01*
X22148528Y-1903220D01*
X22209719Y-1783126D01*
X22211139Y-1774156D01*
X22238914Y-1719642D01*
X22293429Y-1691862D01*
X22353862Y-1701432D01*
X22397128Y-1744695D01*
X22401472Y-1753220D01*
X22496780Y-1848528D01*
X22616874Y-1909719D01*
X22750000Y-1930804D01*
X22883126Y-1909719D01*
X23003220Y-1848528D01*
X23098528Y-1753220D01*
X23159719Y-1633126D01*
X23180804Y-1500000D01*
X23569196Y-1500000D01*
X23590281Y-1633127D01*
X23590282Y-1633129D01*
X23634363Y-1719642D01*
X23651472Y-1753220D01*
X23746780Y-1848528D01*
X23866874Y-1909719D01*
X24000000Y-1930804D01*
X24133126Y-1909719D01*
X24253220Y-1848528D01*
X24348528Y-1753220D01*
X24409719Y-1633126D01*
X24430804Y-1500000D01*
X24819196Y-1500000D01*
X24840281Y-1633127D01*
X24840282Y-1633129D01*
X24884363Y-1719642D01*
X24901472Y-1753220D01*
X24996780Y-1848528D01*
X25116874Y-1909719D01*
X25250000Y-1930804D01*
X25383126Y-1909719D01*
X25503220Y-1848528D01*
X25598528Y-1753220D01*
X25659719Y-1633126D01*
X25680804Y-1500000D01*
X25659719Y-1366874D01*
X25659718Y-1366872D01*
X25659717Y-1366870D01*
X25598529Y-1246782D01*
X25598528Y-1246780D01*
X25503220Y-1151472D01*
X25503217Y-1151470D01*
X25383129Y-1090282D01*
X25383127Y-1090281D01*
X25250000Y-1069196D01*
X25116872Y-1090281D01*
X25116870Y-1090282D01*
X24996782Y-1151470D01*
X24901470Y-1246782D01*
X24840282Y-1366870D01*
X24840281Y-1366872D01*
X24819196Y-1499999D01*
X24819196Y-1500000D01*
X24430804Y-1500000D01*
X24409719Y-1366874D01*
X24409718Y-1366872D01*
X24409717Y-1366870D01*
X24348529Y-1246782D01*
X24348528Y-1246780D01*
X24253220Y-1151472D01*
X24253217Y-1151470D01*
X24133129Y-1090282D01*
X24133127Y-1090281D01*
X24000000Y-1069196D01*
X23866872Y-1090281D01*
X23866870Y-1090282D01*
X23746782Y-1151470D01*
X23651470Y-1246782D01*
X23590282Y-1366870D01*
X23590281Y-1366872D01*
X23569196Y-1499999D01*
X23569196Y-1500000D01*
X23180804Y-1500000D01*
X23159719Y-1366874D01*
X23159718Y-1366872D01*
X23159717Y-1366870D01*
X23098529Y-1246782D01*
X23098528Y-1246780D01*
X23003220Y-1151472D01*
X23003217Y-1151470D01*
X22883129Y-1090282D01*
X22883127Y-1090281D01*
X22750000Y-1069196D01*
X22616872Y-1090281D01*
X22616870Y-1090282D01*
X22496782Y-1151470D01*
X22401470Y-1246782D01*
X22340282Y-1366870D01*
X22340281Y-1366871D01*
X22338860Y-1375846D01*
X22311080Y-1430362D01*
X22256563Y-1458138D01*
X22196131Y-1448564D01*
X22152870Y-1405302D01*
X22148529Y-1396782D01*
X22148528Y-1396780D01*
X22053220Y-1301472D01*
X22053217Y-1301470D01*
X21933129Y-1240282D01*
X21933127Y-1240281D01*
X21800000Y-1219196D01*
X21666872Y-1240281D01*
X21666870Y-1240282D01*
X21546782Y-1301470D01*
X21451470Y-1396782D01*
X21390282Y-1516870D01*
X21390281Y-1516872D01*
X21369196Y-1649999D01*
X21369196Y-1650000D01*
X21388703Y-1773167D01*
X21379131Y-1833599D01*
X21335867Y-1876864D01*
X21275435Y-1886434D01*
X21220714Y-1877768D01*
X21087586Y-1898853D01*
X21087584Y-1898854D01*
X20967496Y-1960042D01*
X20872184Y-2055354D01*
X20810996Y-2175442D01*
X20810995Y-2175444D01*
X20789910Y-2308571D01*
X20789910Y-2308572D01*
X19630013Y-2308572D01*
X19598528Y-2246780D01*
X19503220Y-2151472D01*
X19503217Y-2151470D01*
X19383129Y-2090282D01*
X19383127Y-2090281D01*
X19250000Y-2069196D01*
X19116872Y-2090281D01*
X19116870Y-2090282D01*
X18996782Y-2151470D01*
X18901470Y-2246782D01*
X18840282Y-2366870D01*
X18840281Y-2366872D01*
X18819196Y-2499999D01*
X18819196Y-2500000D01*
X17430804Y-2500000D01*
X17409719Y-2366874D01*
X17348528Y-2246780D01*
X17253220Y-2151472D01*
X17253217Y-2151470D01*
X17133129Y-2090282D01*
X17133127Y-2090281D01*
X17000000Y-2069196D01*
X16866872Y-2090281D01*
X16866870Y-2090282D01*
X16746782Y-2151470D01*
X16651470Y-2246782D01*
X16590282Y-2366870D01*
X16590281Y-2366872D01*
X16569196Y-2499999D01*
X16569196Y-2500000D01*
X13100169Y-2500000D01*
X13159719Y-2383126D01*
X13180804Y-2250000D01*
X13179020Y-2238739D01*
X13168996Y-2175446D01*
X13159719Y-2116874D01*
X13159369Y-2116188D01*
X13098529Y-1996782D01*
X13098528Y-1996780D01*
X13003220Y-1901472D01*
X13003217Y-1901470D01*
X12883129Y-1840282D01*
X12883127Y-1840281D01*
X12750000Y-1819196D01*
X12616872Y-1840281D01*
X12616870Y-1840282D01*
X12496782Y-1901470D01*
X12401470Y-1996782D01*
X12340282Y-2116870D01*
X12340281Y-2116872D01*
X12319196Y-2249999D01*
X12319196Y-2250000D01*
X12340281Y-2383127D01*
X12340282Y-2383129D01*
X12399831Y-2500000D01*
X12401472Y-2503220D01*
X12453250Y-2554998D01*
X12481026Y-2609513D01*
X12471455Y-2669945D01*
X12453251Y-2695000D01*
X12408876Y-2739376D01*
X12401470Y-2746782D01*
X12340282Y-2866870D01*
X12340281Y-2866872D01*
X12319196Y-2999999D01*
X12319196Y-3000000D01*
X12340281Y-3133127D01*
X12340282Y-3133129D01*
X12401470Y-3253217D01*
X12401472Y-3253220D01*
X12496780Y-3348528D01*
X12566826Y-3384218D01*
X12610090Y-3427482D01*
X12619661Y-3487914D01*
X12591883Y-3542431D01*
X12537367Y-3570208D01*
X12506396Y-3570209D01*
X12500000Y-3569196D01*
X12499999Y-3569196D01*
X12366872Y-3590281D01*
X12366870Y-3590282D01*
X12246782Y-3651470D01*
X12151470Y-3746782D01*
X12090282Y-3866870D01*
X12090281Y-3866872D01*
X12069196Y-3999999D01*
X12069196Y-4000000D01*
X10680804Y-4000000D01*
X10659719Y-3866874D01*
X10598528Y-3746780D01*
X10503220Y-3651472D01*
X10503217Y-3651470D01*
X10383129Y-3590282D01*
X10383127Y-3590281D01*
X10250000Y-3569196D01*
X10116872Y-3590281D01*
X10116870Y-3590282D01*
X9996782Y-3651470D01*
X9901470Y-3746782D01*
X9840282Y-3866870D01*
X9840281Y-3866872D01*
X9819196Y-3999999D01*
X9819196Y-4000000D01*
X200500Y-4000000D01*
X200500Y-2374057D01*
X219407Y-2315866D01*
X229496Y-2304053D01*
X1308550Y-1225000D01*
X7569196Y-1225000D01*
X7590281Y-1358127D01*
X7590282Y-1358129D01*
X7651470Y-1478217D01*
X7651472Y-1478220D01*
X7746780Y-1573528D01*
X7746782Y-1573529D01*
X7863749Y-1633127D01*
X7866874Y-1634719D01*
X8000000Y-1655804D01*
X8133126Y-1634719D01*
X8253220Y-1573528D01*
X8326748Y-1500000D01*
X19819196Y-1500000D01*
X19840281Y-1633127D01*
X19840282Y-1633129D01*
X19884363Y-1719642D01*
X19901472Y-1753220D01*
X19996780Y-1848528D01*
X20116874Y-1909719D01*
X20250000Y-1930804D01*
X20383126Y-1909719D01*
X20503220Y-1848528D01*
X20598528Y-1753220D01*
X20659719Y-1633126D01*
X20680804Y-1500000D01*
X20659719Y-1366874D01*
X20659718Y-1366872D01*
X20659717Y-1366870D01*
X20598529Y-1246782D01*
X20598528Y-1246780D01*
X20503220Y-1151472D01*
X20503217Y-1151470D01*
X20383129Y-1090282D01*
X20383127Y-1090281D01*
X20250000Y-1069196D01*
X20116872Y-1090281D01*
X20116870Y-1090282D01*
X19996782Y-1151470D01*
X19901470Y-1246782D01*
X19840282Y-1366870D01*
X19840281Y-1366872D01*
X19819196Y-1499999D01*
X19819196Y-1500000D01*
X8326748Y-1500000D01*
X8348528Y-1478220D01*
X8409719Y-1358126D01*
X8430804Y-1225000D01*
X8409719Y-1091874D01*
X8348528Y-971780D01*
X8253220Y-876472D01*
X8253217Y-876470D01*
X8133129Y-815282D01*
X8133127Y-815281D01*
X8000000Y-794196D01*
X7866872Y-815281D01*
X7866870Y-815282D01*
X7746782Y-876470D01*
X7651470Y-971782D01*
X7590282Y-1091870D01*
X7590281Y-1091872D01*
X7569196Y-1224999D01*
X7569196Y-1225000D01*
X1308550Y-1225000D01*
X2304054Y-229496D01*
X2358571Y-201719D01*
X2374058Y-200500D01*
X2728846Y-200500D01*
X2787037Y-219407D01*
G37*
%TD.AperFunction*%
%TD*%
M02*
