%TF.GenerationSoftware,KiCad,Pcbnew,7.0.8*%
%TF.CreationDate,2023-11-11T12:07:02+10:00*%
%TF.ProjectId,ControllerBoard,436f6e74-726f-46c6-9c65-72426f617264,rev?*%
%TF.SameCoordinates,Original*%
%TF.FileFunction,Copper,L3,Inr*%
%TF.FilePolarity,Positive*%
%FSLAX46Y46*%
G04 Gerber Fmt 4.6, Leading zero omitted, Abs format (unit mm)*
G04 Created by KiCad (PCBNEW 7.0.8) date 2023-11-11 12:07:02*
%MOMM*%
%LPD*%
G01*
G04 APERTURE LIST*
%TA.AperFunction,ViaPad*%
%ADD10C,0.450000*%
%TD*%
G04 APERTURE END LIST*
D10*
%TO.N,/Connectors/ROW1*%
X24250000Y-3250000D03*
%TO.N,GND*%
X32250000Y-10500000D03*
X14500000Y-11500000D03*
X3750000Y-8000000D03*
X3750000Y-9000000D03*
X8500000Y-4750000D03*
X23750000Y-11000000D03*
%TO.N,/Connectors/COL10*%
X31500000Y-10000000D03*
%TO.N,GND*%
X30000000Y-11000000D03*
%TO.N,/Microcontroller/COL10_R*%
X28000000Y-10250000D03*
%TO.N,VCC*%
X15925000Y-8750000D03*
%TO.N,GND*%
X19250000Y-11750000D03*
X20000000Y-4250000D03*
X18750000Y-6750000D03*
X20250000Y-6750000D03*
X4250000Y-4250000D03*
%TO.N,/Microcontroller/COL10_R*%
X23750000Y-9750000D03*
%TO.N,GND*%
X33500000Y-3750000D03*
X25750000Y-3750000D03*
X25250000Y-3250000D03*
X25250000Y-2500000D03*
%TO.N,VCC*%
X1250000Y-6000000D03*
X2500000Y-3000000D03*
X1250000Y-4000000D03*
X15250000Y-2750000D03*
X1250000Y-5000000D03*
X25750000Y-9250000D03*
X7000000Y-2775000D03*
%TO.N,GND*%
X12750000Y-12500000D03*
X13250000Y-7750000D03*
X22750000Y-1500000D03*
X30000000Y-3750000D03*
X1250000Y-9000000D03*
X1250000Y-8000000D03*
X24000000Y-1500000D03*
X21250000Y-12500000D03*
X20250000Y-7750000D03*
X20250000Y-1500000D03*
X12500000Y-4000000D03*
X17000000Y-2500000D03*
X2500000Y-10000000D03*
X7000000Y-1225000D03*
X14197000Y-9988548D03*
X10250000Y-4000000D03*
X1250000Y-7000000D03*
X13250000Y-8750000D03*
X26750000Y-3750000D03*
X18750000Y-7750000D03*
X21800000Y-1650000D03*
X3000000Y-750000D03*
X25250000Y-9750000D03*
X10250000Y-500000D03*
X21750000Y-4750000D03*
X21750000Y-6750000D03*
X25250000Y-1500000D03*
X17000000Y-9000000D03*
X17500000Y-10000000D03*
X15500000Y-500000D03*
X18500000Y-4500000D03*
%TO.N,/Microcontroller/DEC3*%
X19250000Y-2500000D03*
%TO.N,/Connectors/COL0*%
X33000000Y-4500000D03*
%TO.N,/Connectors/ROW0*%
X24500000Y-2500000D03*
%TO.N,/Connectors/COL1*%
X33500000Y-5000000D03*
%TO.N,/Accelerometer/SDA*%
X12750000Y-2250000D03*
%TO.N,/Accelerometer/SCL*%
X12750000Y-3000000D03*
%TO.N,/Connectors/COL2*%
X33000000Y-5500000D03*
%TO.N,/Connectors/ROW2*%
X19750000Y-11000000D03*
%TO.N,/Connectors/COL3*%
X33500000Y-6000000D03*
%TO.N,/Connectors/ROW3*%
X20250000Y-11500000D03*
%TO.N,/Connectors/COL4*%
X33000000Y-6500000D03*
%TO.N,/Connectors/ROW4*%
X20750000Y-11000000D03*
%TO.N,/Connectors/COL5*%
X33500000Y-7000000D03*
%TO.N,/Connectors/ROW5*%
X21250000Y-11500000D03*
%TO.N,/Connectors/COL6*%
X33500000Y-7750000D03*
%TO.N,/Connectors/ROW6*%
X21750000Y-11000000D03*
%TO.N,/Connectors/COL7*%
X33500000Y-8500000D03*
%TO.N,/Connectors/ROW7*%
X22250000Y-11500000D03*
%TO.N,/Connectors/COL8*%
X33000000Y-9000000D03*
%TO.N,/Connectors/ROW8*%
X22750000Y-10970714D03*
%TO.N,/Connectors/COL9*%
X32500000Y-9750000D03*
%TO.N,/Connectors/ROW9*%
X23250000Y-11500000D03*
%TO.N,/Connectors/SWDCLK*%
X23000000Y-3500000D03*
%TO.N,/Connectors/SWDIO*%
X23500000Y-3000000D03*
%TO.N,/Accelerometer/INT1*%
X10750000Y-4750000D03*
X21220714Y-2308572D03*
%TO.N,/Connectors/LED1*%
X6750000Y-7750000D03*
%TO.N,/Connectors/LED2*%
X7250000Y-8250000D03*
%TO.N,/Connectors/LED3*%
X6750000Y-8750000D03*
%TO.N,/Connectors/BUTTON*%
X7250000Y-9250000D03*
%TO.N,/Connectors/LED0*%
X7250000Y-7250000D03*
%TO.N,/Microcontroller/RESET*%
X23750000Y-3750000D03*
X4250000Y-7000000D03*
%TD*%
%TA.AperFunction,Conductor*%
%TO.N,VCC*%
G36*
X2787037Y-219407D02*
G01*
X2823001Y-268907D01*
X2823001Y-330093D01*
X2787037Y-379593D01*
X2773798Y-387705D01*
X2746780Y-401472D01*
X2651470Y-496782D01*
X2590282Y-616870D01*
X2590281Y-616872D01*
X2569196Y-749999D01*
X2569196Y-750000D01*
X2590281Y-883127D01*
X2590282Y-883129D01*
X2651470Y-1003217D01*
X2651472Y-1003220D01*
X2746780Y-1098528D01*
X2866874Y-1159719D01*
X3000000Y-1180804D01*
X3133126Y-1159719D01*
X3253220Y-1098528D01*
X3348528Y-1003220D01*
X3409719Y-883126D01*
X3430804Y-750000D01*
X3409719Y-616874D01*
X3348528Y-496780D01*
X3253220Y-401472D01*
X3226207Y-387708D01*
X3182944Y-344445D01*
X3173373Y-284013D01*
X3201151Y-229496D01*
X3255667Y-201719D01*
X3271154Y-200500D01*
X9763499Y-200500D01*
X9821690Y-219407D01*
X9857654Y-268907D01*
X9857654Y-330093D01*
X9851709Y-344444D01*
X9840281Y-366872D01*
X9819196Y-499999D01*
X9819196Y-500000D01*
X9840281Y-633127D01*
X9840282Y-633129D01*
X9899831Y-750000D01*
X9901472Y-753220D01*
X9996780Y-848528D01*
X10116874Y-909719D01*
X10250000Y-930804D01*
X10383126Y-909719D01*
X10503220Y-848528D01*
X10598528Y-753220D01*
X10659719Y-633126D01*
X10680804Y-500000D01*
X10659719Y-366874D01*
X10659718Y-366872D01*
X10648291Y-344444D01*
X10638720Y-284012D01*
X10666498Y-229496D01*
X10721015Y-201719D01*
X10736501Y-200500D01*
X15013499Y-200500D01*
X15071690Y-219407D01*
X15107654Y-268907D01*
X15107654Y-330093D01*
X15101709Y-344444D01*
X15090281Y-366872D01*
X15069196Y-499999D01*
X15069196Y-500000D01*
X15090281Y-633127D01*
X15090282Y-633129D01*
X15149831Y-750000D01*
X15151472Y-753220D01*
X15246780Y-848528D01*
X15366874Y-909719D01*
X15500000Y-930804D01*
X15633126Y-909719D01*
X15753220Y-848528D01*
X15848528Y-753220D01*
X15909719Y-633126D01*
X15930804Y-500000D01*
X15909719Y-366874D01*
X15909718Y-366872D01*
X15898291Y-344444D01*
X15888720Y-284012D01*
X15916498Y-229496D01*
X15971015Y-201719D01*
X15986501Y-200500D01*
X31625943Y-200500D01*
X31684134Y-219407D01*
X31695947Y-229496D01*
X33770504Y-2304053D01*
X33798281Y-2358570D01*
X33799500Y-2374057D01*
X33799500Y-3263499D01*
X33780593Y-3321690D01*
X33731093Y-3357654D01*
X33669907Y-3357654D01*
X33655556Y-3351709D01*
X33633127Y-3340281D01*
X33500000Y-3319196D01*
X33366872Y-3340281D01*
X33366870Y-3340282D01*
X33246782Y-3401470D01*
X33151470Y-3496782D01*
X33090282Y-3616870D01*
X33090281Y-3616872D01*
X33069196Y-3749999D01*
X33069196Y-3750000D01*
X33090281Y-3883127D01*
X33090282Y-3883129D01*
X33113126Y-3927963D01*
X33122698Y-3988395D01*
X33094921Y-4042911D01*
X33040404Y-4070689D01*
X33009433Y-4070690D01*
X33009426Y-4070689D01*
X33007755Y-4070424D01*
X33000000Y-4069196D01*
X32999999Y-4069196D01*
X32866872Y-4090281D01*
X32866870Y-4090282D01*
X32746782Y-4151470D01*
X32651470Y-4246782D01*
X32590282Y-4366870D01*
X32590281Y-4366872D01*
X32569196Y-4499999D01*
X32569196Y-4500000D01*
X32590281Y-4633127D01*
X32590282Y-4633129D01*
X32649831Y-4750000D01*
X32651472Y-4753220D01*
X32746780Y-4848528D01*
X32795940Y-4873576D01*
X32870939Y-4911791D01*
X32914203Y-4955056D01*
X32923774Y-5015488D01*
X32895996Y-5070004D01*
X32870939Y-5088209D01*
X32746781Y-5151471D01*
X32651470Y-5246782D01*
X32590282Y-5366870D01*
X32590281Y-5366872D01*
X32569196Y-5499999D01*
X32569196Y-5500000D01*
X32590281Y-5633127D01*
X32590282Y-5633129D01*
X32651470Y-5753217D01*
X32651472Y-5753220D01*
X32746780Y-5848528D01*
X32795940Y-5873576D01*
X32870939Y-5911791D01*
X32914203Y-5955056D01*
X32923774Y-6015488D01*
X32895996Y-6070004D01*
X32870939Y-6088209D01*
X32746781Y-6151471D01*
X32651470Y-6246782D01*
X32590282Y-6366870D01*
X32590281Y-6366872D01*
X32569196Y-6499999D01*
X32569196Y-6500000D01*
X32590281Y-6633127D01*
X32590282Y-6633129D01*
X32649831Y-6750000D01*
X32651472Y-6753220D01*
X32746780Y-6848528D01*
X32866874Y-6909719D01*
X32988007Y-6928904D01*
X32988692Y-6929013D01*
X33043209Y-6956790D01*
X33070986Y-7011306D01*
X33090281Y-7133127D01*
X33090282Y-7133129D01*
X33149831Y-7250000D01*
X33151472Y-7253220D01*
X33203250Y-7304998D01*
X33231026Y-7359513D01*
X33221455Y-7419945D01*
X33203251Y-7445000D01*
X33163739Y-7484513D01*
X33151470Y-7496782D01*
X33090282Y-7616870D01*
X33090281Y-7616872D01*
X33069196Y-7749999D01*
X33069196Y-7750000D01*
X33090281Y-7883127D01*
X33090282Y-7883129D01*
X33149831Y-8000000D01*
X33151472Y-8003220D01*
X33203250Y-8054998D01*
X33231026Y-8109513D01*
X33221455Y-8169945D01*
X33203251Y-8195000D01*
X33163739Y-8234513D01*
X33151470Y-8246782D01*
X33090282Y-8366870D01*
X33090281Y-8366872D01*
X33070986Y-8488693D01*
X33043208Y-8543209D01*
X32988693Y-8570986D01*
X32866872Y-8590281D01*
X32866870Y-8590282D01*
X32746782Y-8651470D01*
X32651470Y-8746782D01*
X32590282Y-8866870D01*
X32590281Y-8866872D01*
X32569196Y-8999999D01*
X32569196Y-9000000D01*
X32590281Y-9133127D01*
X32590282Y-9133129D01*
X32613126Y-9177963D01*
X32622698Y-9238395D01*
X32594921Y-9292911D01*
X32540404Y-9320689D01*
X32509433Y-9320690D01*
X32509426Y-9320689D01*
X32507755Y-9320424D01*
X32500000Y-9319196D01*
X32499999Y-9319196D01*
X32366872Y-9340281D01*
X32366870Y-9340282D01*
X32246782Y-9401470D01*
X32151470Y-9496782D01*
X32090282Y-9616870D01*
X32090281Y-9616872D01*
X32069196Y-9749999D01*
X32070209Y-9756396D01*
X32060635Y-9816828D01*
X32017369Y-9860091D01*
X31956937Y-9869661D01*
X31902421Y-9841881D01*
X31884219Y-9816828D01*
X31848528Y-9746780D01*
X31753220Y-9651472D01*
X31753217Y-9651470D01*
X31633129Y-9590282D01*
X31633127Y-9590281D01*
X31500000Y-9569196D01*
X31366872Y-9590281D01*
X31366870Y-9590282D01*
X31246782Y-9651470D01*
X31151470Y-9746782D01*
X31090282Y-9866870D01*
X31090281Y-9866872D01*
X31069196Y-9999999D01*
X31069196Y-10000000D01*
X31090281Y-10133127D01*
X31090282Y-10133129D01*
X31149831Y-10250000D01*
X31151472Y-10253220D01*
X31246780Y-10348528D01*
X31366874Y-10409719D01*
X31500000Y-10430804D01*
X31633126Y-10409719D01*
X31677965Y-10386872D01*
X31738393Y-10377301D01*
X31792910Y-10405077D01*
X31820689Y-10459593D01*
X31820690Y-10490565D01*
X31819196Y-10500000D01*
X31840281Y-10633127D01*
X31840282Y-10633129D01*
X31901470Y-10753217D01*
X31901472Y-10753220D01*
X31996780Y-10848528D01*
X32116874Y-10909719D01*
X32250000Y-10930804D01*
X32383126Y-10909719D01*
X32503220Y-10848528D01*
X32598528Y-10753220D01*
X32659719Y-10633126D01*
X32680804Y-10500000D01*
X32659719Y-10366874D01*
X32615386Y-10279867D01*
X32605815Y-10219435D01*
X32633592Y-10164919D01*
X32658644Y-10146716D01*
X32753220Y-10098528D01*
X32848528Y-10003220D01*
X32909719Y-9883126D01*
X32930804Y-9750000D01*
X32909719Y-9616874D01*
X32886872Y-9572035D01*
X32877301Y-9511605D01*
X32905078Y-9457088D01*
X32959594Y-9429310D01*
X32990567Y-9429310D01*
X33000000Y-9430804D01*
X33133126Y-9409719D01*
X33253220Y-9348528D01*
X33348528Y-9253220D01*
X33409719Y-9133126D01*
X33429013Y-9011306D01*
X33456790Y-8956791D01*
X33511306Y-8929013D01*
X33633126Y-8909719D01*
X33655555Y-8898290D01*
X33715985Y-8888719D01*
X33770502Y-8916495D01*
X33798281Y-8971011D01*
X33799500Y-8986500D01*
X33799500Y-12700500D01*
X33780593Y-12758691D01*
X33731093Y-12794655D01*
X33700500Y-12799500D01*
X21736501Y-12799500D01*
X21678310Y-12780593D01*
X21642346Y-12731093D01*
X21642346Y-12669907D01*
X21648291Y-12655556D01*
X21659718Y-12633127D01*
X21659719Y-12633126D01*
X21680804Y-12500000D01*
X21659719Y-12366874D01*
X21598528Y-12246780D01*
X21503220Y-12151472D01*
X21503217Y-12151470D01*
X21379061Y-12088209D01*
X21335796Y-12044945D01*
X21326225Y-11984513D01*
X21354003Y-11929996D01*
X21379061Y-11911791D01*
X21452963Y-11874134D01*
X21503220Y-11848528D01*
X21598528Y-11753220D01*
X21646987Y-11658114D01*
X21661791Y-11629061D01*
X21705055Y-11585796D01*
X21765487Y-11576225D01*
X21820004Y-11604003D01*
X21838209Y-11629061D01*
X21901470Y-11753217D01*
X21901472Y-11753220D01*
X21996780Y-11848528D01*
X22116874Y-11909719D01*
X22250000Y-11930804D01*
X22383126Y-11909719D01*
X22503220Y-11848528D01*
X22598528Y-11753220D01*
X22646987Y-11658114D01*
X22661791Y-11629061D01*
X22705055Y-11585796D01*
X22765487Y-11576225D01*
X22820004Y-11604003D01*
X22838209Y-11629061D01*
X22901470Y-11753217D01*
X22901472Y-11753220D01*
X22996780Y-11848528D01*
X23116874Y-11909719D01*
X23250000Y-11930804D01*
X23383126Y-11909719D01*
X23503220Y-11848528D01*
X23598528Y-11753220D01*
X23659719Y-11633126D01*
X23679013Y-11511306D01*
X23706790Y-11456791D01*
X23761306Y-11429013D01*
X23883126Y-11409719D01*
X24003220Y-11348528D01*
X24098528Y-11253220D01*
X24159719Y-11133126D01*
X24180804Y-11000000D01*
X29569196Y-11000000D01*
X29590281Y-11133127D01*
X29590282Y-11133129D01*
X29651470Y-11253217D01*
X29651472Y-11253220D01*
X29746780Y-11348528D01*
X29866874Y-11409719D01*
X30000000Y-11430804D01*
X30133126Y-11409719D01*
X30253220Y-11348528D01*
X30348528Y-11253220D01*
X30409719Y-11133126D01*
X30430804Y-11000000D01*
X30409719Y-10866874D01*
X30394795Y-10837585D01*
X30348529Y-10746782D01*
X30348528Y-10746780D01*
X30253220Y-10651472D01*
X30253217Y-10651470D01*
X30133129Y-10590282D01*
X30133127Y-10590281D01*
X30000000Y-10569196D01*
X29866872Y-10590281D01*
X29866870Y-10590282D01*
X29746782Y-10651470D01*
X29651470Y-10746782D01*
X29590282Y-10866870D01*
X29590281Y-10866872D01*
X29569196Y-10999999D01*
X29569196Y-11000000D01*
X24180804Y-11000000D01*
X24159719Y-10866874D01*
X24144795Y-10837585D01*
X24098529Y-10746782D01*
X24098528Y-10746780D01*
X24003220Y-10651472D01*
X24003217Y-10651470D01*
X23883129Y-10590282D01*
X23883127Y-10590281D01*
X23750000Y-10569196D01*
X23616872Y-10590281D01*
X23616870Y-10590282D01*
X23496782Y-10651470D01*
X23401471Y-10746781D01*
X23344343Y-10858900D01*
X23301078Y-10902164D01*
X23240646Y-10911735D01*
X23186130Y-10883957D01*
X23161978Y-10844542D01*
X23159717Y-10837582D01*
X23098529Y-10717496D01*
X23098528Y-10717494D01*
X23003220Y-10622186D01*
X23003217Y-10622184D01*
X22883129Y-10560996D01*
X22883127Y-10560995D01*
X22750000Y-10539910D01*
X22616872Y-10560995D01*
X22616870Y-10560996D01*
X22496782Y-10622184D01*
X22401470Y-10717496D01*
X22340281Y-10837585D01*
X22338019Y-10844548D01*
X22302055Y-10894048D01*
X22243864Y-10912954D01*
X22185673Y-10894046D01*
X22155656Y-10858900D01*
X22098528Y-10746780D01*
X22003220Y-10651472D01*
X22003217Y-10651470D01*
X21883129Y-10590282D01*
X21883127Y-10590281D01*
X21750000Y-10569196D01*
X21616872Y-10590281D01*
X21616870Y-10590282D01*
X21496782Y-10651470D01*
X21401471Y-10746781D01*
X21338209Y-10870939D01*
X21294944Y-10914203D01*
X21234512Y-10923774D01*
X21179996Y-10895996D01*
X21161791Y-10870939D01*
X21101809Y-10753220D01*
X21098528Y-10746780D01*
X21003220Y-10651472D01*
X21003217Y-10651470D01*
X20883129Y-10590282D01*
X20883127Y-10590281D01*
X20750000Y-10569196D01*
X20616872Y-10590281D01*
X20616870Y-10590282D01*
X20496782Y-10651470D01*
X20401471Y-10746781D01*
X20338209Y-10870939D01*
X20294944Y-10914203D01*
X20234512Y-10923774D01*
X20179996Y-10895996D01*
X20161791Y-10870939D01*
X20101809Y-10753220D01*
X20098528Y-10746780D01*
X20003220Y-10651472D01*
X20003217Y-10651470D01*
X19883129Y-10590282D01*
X19883127Y-10590281D01*
X19750000Y-10569196D01*
X19616872Y-10590281D01*
X19616870Y-10590282D01*
X19496782Y-10651470D01*
X19401470Y-10746782D01*
X19340282Y-10866870D01*
X19340281Y-10866872D01*
X19319196Y-10999999D01*
X19319196Y-11000000D01*
X19340281Y-11133127D01*
X19340282Y-11133129D01*
X19363126Y-11177963D01*
X19372698Y-11238395D01*
X19344921Y-11292911D01*
X19290404Y-11320689D01*
X19259433Y-11320690D01*
X19259426Y-11320689D01*
X19257755Y-11320424D01*
X19250000Y-11319196D01*
X19249999Y-11319196D01*
X19116872Y-11340281D01*
X19116870Y-11340282D01*
X18996782Y-11401470D01*
X18901470Y-11496782D01*
X18840282Y-11616870D01*
X18840281Y-11616872D01*
X18819196Y-11749999D01*
X18819196Y-11750000D01*
X18840281Y-11883127D01*
X18840282Y-11883129D01*
X18864162Y-11929996D01*
X18901472Y-12003220D01*
X18996780Y-12098528D01*
X19116874Y-12159719D01*
X19250000Y-12180804D01*
X19383126Y-12159719D01*
X19503220Y-12098528D01*
X19598528Y-12003220D01*
X19659719Y-11883126D01*
X19680804Y-11750000D01*
X19679791Y-11743606D01*
X19689361Y-11683176D01*
X19732625Y-11639910D01*
X19793057Y-11630337D01*
X19847574Y-11658114D01*
X19865781Y-11683173D01*
X19901472Y-11753220D01*
X19996780Y-11848528D01*
X20116874Y-11909719D01*
X20250000Y-11930804D01*
X20383126Y-11909719D01*
X20503220Y-11848528D01*
X20598528Y-11753220D01*
X20646987Y-11658114D01*
X20661791Y-11629061D01*
X20705055Y-11585796D01*
X20765487Y-11576225D01*
X20820004Y-11604003D01*
X20838209Y-11629061D01*
X20901470Y-11753217D01*
X20901472Y-11753220D01*
X20996780Y-11848528D01*
X21045940Y-11873576D01*
X21120939Y-11911791D01*
X21164203Y-11955056D01*
X21173774Y-12015488D01*
X21145996Y-12070004D01*
X21120939Y-12088209D01*
X20996781Y-12151471D01*
X20901470Y-12246782D01*
X20840282Y-12366870D01*
X20840281Y-12366872D01*
X20819196Y-12499999D01*
X20819196Y-12500000D01*
X20840281Y-12633127D01*
X20851709Y-12655556D01*
X20861280Y-12715988D01*
X20833502Y-12770504D01*
X20778985Y-12798281D01*
X20763499Y-12799500D01*
X13236501Y-12799500D01*
X13178310Y-12780593D01*
X13142346Y-12731093D01*
X13142346Y-12669907D01*
X13148291Y-12655556D01*
X13159718Y-12633127D01*
X13159719Y-12633126D01*
X13180804Y-12500000D01*
X13159719Y-12366874D01*
X13098528Y-12246780D01*
X13003220Y-12151472D01*
X13003217Y-12151470D01*
X12883129Y-12090282D01*
X12883127Y-12090281D01*
X12750000Y-12069196D01*
X12616872Y-12090281D01*
X12616870Y-12090282D01*
X12496782Y-12151470D01*
X12401470Y-12246782D01*
X12340282Y-12366870D01*
X12340281Y-12366872D01*
X12319196Y-12499999D01*
X12319196Y-12500000D01*
X12340281Y-12633127D01*
X12351709Y-12655556D01*
X12361280Y-12715988D01*
X12333502Y-12770504D01*
X12278985Y-12798281D01*
X12263499Y-12799500D01*
X299500Y-12799500D01*
X241309Y-12780593D01*
X205345Y-12731093D01*
X200500Y-12700500D01*
X200500Y-11500000D01*
X14069196Y-11500000D01*
X14090281Y-11633127D01*
X14090282Y-11633129D01*
X14151470Y-11753217D01*
X14151472Y-11753220D01*
X14246780Y-11848528D01*
X14366874Y-11909719D01*
X14500000Y-11930804D01*
X14633126Y-11909719D01*
X14753220Y-11848528D01*
X14848528Y-11753220D01*
X14909719Y-11633126D01*
X14930804Y-11500000D01*
X14909719Y-11366874D01*
X14848528Y-11246780D01*
X14753220Y-11151472D01*
X14753217Y-11151470D01*
X14633129Y-11090282D01*
X14633127Y-11090281D01*
X14500000Y-11069196D01*
X14366872Y-11090281D01*
X14366870Y-11090282D01*
X14246782Y-11151470D01*
X14151470Y-11246782D01*
X14090282Y-11366870D01*
X14090281Y-11366872D01*
X14069196Y-11499999D01*
X14069196Y-11500000D01*
X200500Y-11500000D01*
X200500Y-10000000D01*
X2069196Y-10000000D01*
X2090281Y-10133127D01*
X2090282Y-10133129D01*
X2149831Y-10250000D01*
X2151472Y-10253220D01*
X2246780Y-10348528D01*
X2366874Y-10409719D01*
X2500000Y-10430804D01*
X2633126Y-10409719D01*
X2753220Y-10348528D01*
X2848528Y-10253220D01*
X2909719Y-10133126D01*
X2930804Y-10000000D01*
X2928990Y-9988548D01*
X13766196Y-9988548D01*
X13787281Y-10121675D01*
X13787282Y-10121677D01*
X13848470Y-10241765D01*
X13848472Y-10241768D01*
X13943780Y-10337076D01*
X14063874Y-10398267D01*
X14197000Y-10419352D01*
X14330126Y-10398267D01*
X14450220Y-10337076D01*
X14545528Y-10241768D01*
X14606719Y-10121674D01*
X14625990Y-10000000D01*
X17069196Y-10000000D01*
X17090281Y-10133127D01*
X17090282Y-10133129D01*
X17149831Y-10250000D01*
X17151472Y-10253220D01*
X17246780Y-10348528D01*
X17366874Y-10409719D01*
X17500000Y-10430804D01*
X17633126Y-10409719D01*
X17753220Y-10348528D01*
X17848528Y-10253220D01*
X17850169Y-10250000D01*
X27569196Y-10250000D01*
X27590281Y-10383127D01*
X27590282Y-10383129D01*
X27649831Y-10500000D01*
X27651472Y-10503220D01*
X27746780Y-10598528D01*
X27866874Y-10659719D01*
X28000000Y-10680804D01*
X28133126Y-10659719D01*
X28253220Y-10598528D01*
X28348528Y-10503220D01*
X28409719Y-10383126D01*
X28430804Y-10250000D01*
X28409719Y-10116874D01*
X28348528Y-9996780D01*
X28253220Y-9901472D01*
X28253217Y-9901470D01*
X28133129Y-9840282D01*
X28133127Y-9840281D01*
X28000000Y-9819196D01*
X27866872Y-9840281D01*
X27866870Y-9840282D01*
X27746782Y-9901470D01*
X27651470Y-9996782D01*
X27590282Y-10116870D01*
X27590281Y-10116872D01*
X27569196Y-10249999D01*
X27569196Y-10250000D01*
X17850169Y-10250000D01*
X17909719Y-10133126D01*
X17930804Y-10000000D01*
X17909719Y-9866874D01*
X17850169Y-9750000D01*
X23319196Y-9750000D01*
X23340281Y-9883127D01*
X23340282Y-9883129D01*
X23399831Y-10000000D01*
X23401472Y-10003220D01*
X23496780Y-10098528D01*
X23616874Y-10159719D01*
X23750000Y-10180804D01*
X23883126Y-10159719D01*
X24003220Y-10098528D01*
X24098528Y-10003220D01*
X24159719Y-9883126D01*
X24180804Y-9750000D01*
X24819196Y-9750000D01*
X24840281Y-9883127D01*
X24840282Y-9883129D01*
X24899831Y-10000000D01*
X24901472Y-10003220D01*
X24996780Y-10098528D01*
X25116874Y-10159719D01*
X25250000Y-10180804D01*
X25383126Y-10159719D01*
X25503220Y-10098528D01*
X25598528Y-10003220D01*
X25659719Y-9883126D01*
X25680804Y-9750000D01*
X25659719Y-9616874D01*
X25598528Y-9496780D01*
X25503220Y-9401472D01*
X25503217Y-9401470D01*
X25383129Y-9340282D01*
X25383127Y-9340281D01*
X25250000Y-9319196D01*
X25116872Y-9340281D01*
X25116870Y-9340282D01*
X24996782Y-9401470D01*
X24901470Y-9496782D01*
X24840282Y-9616870D01*
X24840281Y-9616872D01*
X24819196Y-9749999D01*
X24819196Y-9750000D01*
X24180804Y-9750000D01*
X24159719Y-9616874D01*
X24098528Y-9496780D01*
X24003220Y-9401472D01*
X24003217Y-9401470D01*
X23883129Y-9340282D01*
X23883127Y-9340281D01*
X23750000Y-9319196D01*
X23616872Y-9340281D01*
X23616870Y-9340282D01*
X23496782Y-9401470D01*
X23401470Y-9496782D01*
X23340282Y-9616870D01*
X23340281Y-9616872D01*
X23319196Y-9749999D01*
X23319196Y-9750000D01*
X17850169Y-9750000D01*
X17848528Y-9746780D01*
X17753220Y-9651472D01*
X17753217Y-9651470D01*
X17633129Y-9590282D01*
X17633127Y-9590281D01*
X17500000Y-9569196D01*
X17366872Y-9590281D01*
X17366870Y-9590282D01*
X17246782Y-9651470D01*
X17151470Y-9746782D01*
X17090282Y-9866870D01*
X17090281Y-9866872D01*
X17069196Y-9999999D01*
X17069196Y-10000000D01*
X14625990Y-10000000D01*
X14627804Y-9988548D01*
X14606719Y-9855422D01*
X14545528Y-9735328D01*
X14450220Y-9640020D01*
X14450217Y-9640018D01*
X14330129Y-9578830D01*
X14330127Y-9578829D01*
X14197000Y-9557744D01*
X14063872Y-9578829D01*
X14063870Y-9578830D01*
X13943782Y-9640018D01*
X13848470Y-9735330D01*
X13787282Y-9855418D01*
X13787281Y-9855420D01*
X13766196Y-9988547D01*
X13766196Y-9988548D01*
X2928990Y-9988548D01*
X2909719Y-9866874D01*
X2848528Y-9746780D01*
X2753220Y-9651472D01*
X2753217Y-9651470D01*
X2633129Y-9590282D01*
X2633127Y-9590281D01*
X2500000Y-9569196D01*
X2366872Y-9590281D01*
X2366870Y-9590282D01*
X2246782Y-9651470D01*
X2151470Y-9746782D01*
X2090282Y-9866870D01*
X2090281Y-9866872D01*
X2069196Y-9999999D01*
X2069196Y-10000000D01*
X200500Y-10000000D01*
X200500Y-9000000D01*
X819196Y-9000000D01*
X840281Y-9133127D01*
X840282Y-9133129D01*
X899831Y-9250000D01*
X901472Y-9253220D01*
X996780Y-9348528D01*
X1116874Y-9409719D01*
X1250000Y-9430804D01*
X1383126Y-9409719D01*
X1503220Y-9348528D01*
X1598528Y-9253220D01*
X1659719Y-9133126D01*
X1680804Y-9000000D01*
X3319196Y-9000000D01*
X3340281Y-9133127D01*
X3340282Y-9133129D01*
X3399831Y-9250000D01*
X3401472Y-9253220D01*
X3496780Y-9348528D01*
X3616874Y-9409719D01*
X3750000Y-9430804D01*
X3883126Y-9409719D01*
X4003220Y-9348528D01*
X4098528Y-9253220D01*
X4159719Y-9133126D01*
X4180804Y-9000000D01*
X4159719Y-8866874D01*
X4100169Y-8750000D01*
X6319196Y-8750000D01*
X6340281Y-8883127D01*
X6340282Y-8883129D01*
X6399831Y-9000000D01*
X6401472Y-9003220D01*
X6496780Y-9098528D01*
X6616874Y-9159719D01*
X6732063Y-9177963D01*
X6738692Y-9179013D01*
X6793209Y-9206790D01*
X6820986Y-9261306D01*
X6840281Y-9383127D01*
X6840282Y-9383129D01*
X6901470Y-9503217D01*
X6901472Y-9503220D01*
X6996780Y-9598528D01*
X7116874Y-9659719D01*
X7250000Y-9680804D01*
X7383126Y-9659719D01*
X7503220Y-9598528D01*
X7598528Y-9503220D01*
X7659719Y-9383126D01*
X7680804Y-9250000D01*
X7659719Y-9116874D01*
X7598528Y-8996780D01*
X7503220Y-8901472D01*
X7503217Y-8901470D01*
X7379061Y-8838209D01*
X7335796Y-8794945D01*
X7328678Y-8750000D01*
X12819196Y-8750000D01*
X12840281Y-8883127D01*
X12840282Y-8883129D01*
X12899831Y-9000000D01*
X12901472Y-9003220D01*
X12996780Y-9098528D01*
X13116874Y-9159719D01*
X13250000Y-9180804D01*
X13383126Y-9159719D01*
X13503220Y-9098528D01*
X13598528Y-9003220D01*
X13600169Y-9000000D01*
X16569196Y-9000000D01*
X16590281Y-9133127D01*
X16590282Y-9133129D01*
X16649831Y-9250000D01*
X16651472Y-9253220D01*
X16746780Y-9348528D01*
X16866874Y-9409719D01*
X17000000Y-9430804D01*
X17133126Y-9409719D01*
X17253220Y-9348528D01*
X17348528Y-9253220D01*
X17409719Y-9133126D01*
X17430804Y-9000000D01*
X17409719Y-8866874D01*
X17348528Y-8746780D01*
X17253220Y-8651472D01*
X17253217Y-8651470D01*
X17133129Y-8590282D01*
X17133127Y-8590281D01*
X17000000Y-8569196D01*
X16866872Y-8590281D01*
X16866870Y-8590282D01*
X16746782Y-8651470D01*
X16651470Y-8746782D01*
X16590282Y-8866870D01*
X16590281Y-8866872D01*
X16569196Y-8999999D01*
X16569196Y-9000000D01*
X13600169Y-9000000D01*
X13659719Y-8883126D01*
X13680804Y-8750000D01*
X13659719Y-8616874D01*
X13598528Y-8496780D01*
X13503220Y-8401472D01*
X13503217Y-8401470D01*
X13379061Y-8338209D01*
X13335796Y-8294945D01*
X13326225Y-8234513D01*
X13354003Y-8179996D01*
X13379061Y-8161791D01*
X13467222Y-8116870D01*
X13503220Y-8098528D01*
X13598528Y-8003220D01*
X13659719Y-7883126D01*
X13680804Y-7750000D01*
X18319196Y-7750000D01*
X18340281Y-7883127D01*
X18340282Y-7883129D01*
X18399831Y-8000000D01*
X18401472Y-8003220D01*
X18496780Y-8098528D01*
X18616874Y-8159719D01*
X18750000Y-8180804D01*
X18883126Y-8159719D01*
X19003220Y-8098528D01*
X19098528Y-8003220D01*
X19159719Y-7883126D01*
X19180804Y-7750000D01*
X19819196Y-7750000D01*
X19840281Y-7883127D01*
X19840282Y-7883129D01*
X19899831Y-8000000D01*
X19901472Y-8003220D01*
X19996780Y-8098528D01*
X20116874Y-8159719D01*
X20250000Y-8180804D01*
X20383126Y-8159719D01*
X20503220Y-8098528D01*
X20598528Y-8003220D01*
X20659719Y-7883126D01*
X20680804Y-7750000D01*
X20659719Y-7616874D01*
X20598528Y-7496780D01*
X20503220Y-7401472D01*
X20503217Y-7401470D01*
X20379061Y-7338209D01*
X20335796Y-7294945D01*
X20326225Y-7234513D01*
X20354003Y-7179996D01*
X20379061Y-7161791D01*
X20467222Y-7116870D01*
X20503220Y-7098528D01*
X20598528Y-7003220D01*
X20659719Y-6883126D01*
X20680804Y-6750000D01*
X21319196Y-6750000D01*
X21340281Y-6883127D01*
X21340282Y-6883129D01*
X21399831Y-7000000D01*
X21401472Y-7003220D01*
X21496780Y-7098528D01*
X21616874Y-7159719D01*
X21750000Y-7180804D01*
X21883126Y-7159719D01*
X22003220Y-7098528D01*
X22098528Y-7003220D01*
X22159719Y-6883126D01*
X22180804Y-6750000D01*
X22159719Y-6616874D01*
X22098528Y-6496780D01*
X22003220Y-6401472D01*
X22003217Y-6401470D01*
X21883129Y-6340282D01*
X21883127Y-6340281D01*
X21750000Y-6319196D01*
X21616872Y-6340281D01*
X21616870Y-6340282D01*
X21496782Y-6401470D01*
X21401470Y-6496782D01*
X21340282Y-6616870D01*
X21340281Y-6616872D01*
X21319196Y-6749999D01*
X21319196Y-6750000D01*
X20680804Y-6750000D01*
X20659719Y-6616874D01*
X20598528Y-6496780D01*
X20503220Y-6401472D01*
X20503217Y-6401470D01*
X20383129Y-6340282D01*
X20383127Y-6340281D01*
X20250000Y-6319196D01*
X20116872Y-6340281D01*
X20116870Y-6340282D01*
X19996782Y-6401470D01*
X19901470Y-6496782D01*
X19840282Y-6616870D01*
X19840281Y-6616872D01*
X19819196Y-6749999D01*
X19819196Y-6750000D01*
X19840281Y-6883127D01*
X19840282Y-6883129D01*
X19899831Y-7000000D01*
X19901472Y-7003220D01*
X19996780Y-7098528D01*
X20032778Y-7116870D01*
X20120939Y-7161791D01*
X20164203Y-7205056D01*
X20173774Y-7265488D01*
X20145996Y-7320004D01*
X20120939Y-7338209D01*
X19996781Y-7401471D01*
X19901470Y-7496782D01*
X19840282Y-7616870D01*
X19840281Y-7616872D01*
X19819196Y-7749999D01*
X19819196Y-7750000D01*
X19180804Y-7750000D01*
X19159719Y-7616874D01*
X19098528Y-7496780D01*
X19003220Y-7401472D01*
X19003217Y-7401470D01*
X18879061Y-7338209D01*
X18835796Y-7294945D01*
X18826225Y-7234513D01*
X18854003Y-7179996D01*
X18879061Y-7161791D01*
X18967222Y-7116870D01*
X19003220Y-7098528D01*
X19098528Y-7003220D01*
X19159719Y-6883126D01*
X19180804Y-6750000D01*
X19159719Y-6616874D01*
X19098528Y-6496780D01*
X19003220Y-6401472D01*
X19003217Y-6401470D01*
X18883129Y-6340282D01*
X18883127Y-6340281D01*
X18750000Y-6319196D01*
X18616872Y-6340281D01*
X18616870Y-6340282D01*
X18496782Y-6401470D01*
X18401470Y-6496782D01*
X18340282Y-6616870D01*
X18340281Y-6616872D01*
X18319196Y-6749999D01*
X18319196Y-6750000D01*
X18340281Y-6883127D01*
X18340282Y-6883129D01*
X18399831Y-7000000D01*
X18401472Y-7003220D01*
X18496780Y-7098528D01*
X18532778Y-7116870D01*
X18620939Y-7161791D01*
X18664203Y-7205056D01*
X18673774Y-7265488D01*
X18645996Y-7320004D01*
X18620939Y-7338209D01*
X18496781Y-7401471D01*
X18401470Y-7496782D01*
X18340282Y-7616870D01*
X18340281Y-7616872D01*
X18319196Y-7749999D01*
X18319196Y-7750000D01*
X13680804Y-7750000D01*
X13659719Y-7616874D01*
X13598528Y-7496780D01*
X13503220Y-7401472D01*
X13503217Y-7401470D01*
X13383129Y-7340282D01*
X13383127Y-7340281D01*
X13250000Y-7319196D01*
X13116872Y-7340281D01*
X13116870Y-7340282D01*
X12996782Y-7401470D01*
X12901470Y-7496782D01*
X12840282Y-7616870D01*
X12840281Y-7616872D01*
X12819196Y-7749999D01*
X12819196Y-7750000D01*
X12840281Y-7883127D01*
X12840282Y-7883129D01*
X12899831Y-8000000D01*
X12901472Y-8003220D01*
X12996780Y-8098528D01*
X13032778Y-8116870D01*
X13120939Y-8161791D01*
X13164203Y-8205056D01*
X13173774Y-8265488D01*
X13145996Y-8320004D01*
X13120939Y-8338209D01*
X12996781Y-8401471D01*
X12901470Y-8496782D01*
X12840282Y-8616870D01*
X12840281Y-8616872D01*
X12819196Y-8749999D01*
X12819196Y-8750000D01*
X7328678Y-8750000D01*
X7326225Y-8734513D01*
X7354003Y-8679996D01*
X7379061Y-8661791D01*
X7467222Y-8616870D01*
X7503220Y-8598528D01*
X7598528Y-8503220D01*
X7659719Y-8383126D01*
X7680804Y-8250000D01*
X7659719Y-8116874D01*
X7598528Y-7996780D01*
X7503220Y-7901472D01*
X7503217Y-7901470D01*
X7379061Y-7838209D01*
X7335796Y-7794945D01*
X7326225Y-7734513D01*
X7354003Y-7679996D01*
X7379061Y-7661791D01*
X7467222Y-7616870D01*
X7503220Y-7598528D01*
X7598528Y-7503220D01*
X7659719Y-7383126D01*
X7680804Y-7250000D01*
X7659719Y-7116874D01*
X7598528Y-6996780D01*
X7503220Y-6901472D01*
X7503217Y-6901470D01*
X7383129Y-6840282D01*
X7383127Y-6840281D01*
X7250000Y-6819196D01*
X7116872Y-6840281D01*
X7116870Y-6840282D01*
X6996782Y-6901470D01*
X6901470Y-6996782D01*
X6840282Y-7116870D01*
X6840281Y-7116872D01*
X6820986Y-7238693D01*
X6793208Y-7293209D01*
X6738693Y-7320986D01*
X6616872Y-7340281D01*
X6616870Y-7340282D01*
X6496782Y-7401470D01*
X6401470Y-7496782D01*
X6340282Y-7616870D01*
X6340281Y-7616872D01*
X6319196Y-7749999D01*
X6319196Y-7750000D01*
X6340281Y-7883127D01*
X6340282Y-7883129D01*
X6399831Y-8000000D01*
X6401472Y-8003220D01*
X6496780Y-8098528D01*
X6532778Y-8116870D01*
X6620939Y-8161791D01*
X6664203Y-8205056D01*
X6673774Y-8265488D01*
X6645996Y-8320004D01*
X6620939Y-8338209D01*
X6496781Y-8401471D01*
X6401470Y-8496782D01*
X6340282Y-8616870D01*
X6340281Y-8616872D01*
X6319196Y-8749999D01*
X6319196Y-8750000D01*
X4100169Y-8750000D01*
X4098528Y-8746780D01*
X4003220Y-8651472D01*
X4003217Y-8651470D01*
X3879061Y-8588209D01*
X3835796Y-8544945D01*
X3826225Y-8484513D01*
X3854003Y-8429996D01*
X3879061Y-8411791D01*
X3967222Y-8366870D01*
X4003220Y-8348528D01*
X4098528Y-8253220D01*
X4159719Y-8133126D01*
X4180804Y-8000000D01*
X4159719Y-7866874D01*
X4098528Y-7746780D01*
X4003220Y-7651472D01*
X4003217Y-7651470D01*
X3883129Y-7590282D01*
X3883127Y-7590281D01*
X3750000Y-7569196D01*
X3616872Y-7590281D01*
X3616870Y-7590282D01*
X3496782Y-7651470D01*
X3401470Y-7746782D01*
X3340282Y-7866870D01*
X3340281Y-7866872D01*
X3319196Y-7999999D01*
X3319196Y-8000000D01*
X3340281Y-8133127D01*
X3340282Y-8133129D01*
X3399831Y-8250000D01*
X3401472Y-8253220D01*
X3496780Y-8348528D01*
X3532778Y-8366870D01*
X3620939Y-8411791D01*
X3664203Y-8455056D01*
X3673774Y-8515488D01*
X3645996Y-8570004D01*
X3620939Y-8588209D01*
X3496781Y-8651471D01*
X3401470Y-8746782D01*
X3340282Y-8866870D01*
X3340281Y-8866872D01*
X3319196Y-8999999D01*
X3319196Y-9000000D01*
X1680804Y-9000000D01*
X1659719Y-8866874D01*
X1598528Y-8746780D01*
X1503220Y-8651472D01*
X1503217Y-8651470D01*
X1379061Y-8588209D01*
X1335796Y-8544945D01*
X1326225Y-8484513D01*
X1354003Y-8429996D01*
X1379061Y-8411791D01*
X1467222Y-8366870D01*
X1503220Y-8348528D01*
X1598528Y-8253220D01*
X1659719Y-8133126D01*
X1680804Y-8000000D01*
X1659719Y-7866874D01*
X1598528Y-7746780D01*
X1503220Y-7651472D01*
X1503217Y-7651470D01*
X1379061Y-7588209D01*
X1335796Y-7544945D01*
X1326225Y-7484513D01*
X1354003Y-7429996D01*
X1379061Y-7411791D01*
X1452963Y-7374134D01*
X1503220Y-7348528D01*
X1598528Y-7253220D01*
X1659719Y-7133126D01*
X1680804Y-7000000D01*
X3819196Y-7000000D01*
X3840281Y-7133127D01*
X3840282Y-7133129D01*
X3899831Y-7250000D01*
X3901472Y-7253220D01*
X3996780Y-7348528D01*
X4116874Y-7409719D01*
X4250000Y-7430804D01*
X4383126Y-7409719D01*
X4503220Y-7348528D01*
X4598528Y-7253220D01*
X4659719Y-7133126D01*
X4680804Y-7000000D01*
X4659719Y-6866874D01*
X4598528Y-6746780D01*
X4503220Y-6651472D01*
X4503217Y-6651470D01*
X4383129Y-6590282D01*
X4383127Y-6590281D01*
X4250000Y-6569196D01*
X4116872Y-6590281D01*
X4116870Y-6590282D01*
X3996782Y-6651470D01*
X3901470Y-6746782D01*
X3840282Y-6866870D01*
X3840281Y-6866872D01*
X3819196Y-6999999D01*
X3819196Y-7000000D01*
X1680804Y-7000000D01*
X1659719Y-6866874D01*
X1598528Y-6746780D01*
X1503220Y-6651472D01*
X1503217Y-6651470D01*
X1383129Y-6590282D01*
X1383127Y-6590281D01*
X1250000Y-6569196D01*
X1116872Y-6590281D01*
X1116870Y-6590282D01*
X996782Y-6651470D01*
X901470Y-6746782D01*
X840282Y-6866870D01*
X840281Y-6866872D01*
X819196Y-6999999D01*
X819196Y-7000000D01*
X840281Y-7133127D01*
X840282Y-7133129D01*
X899831Y-7250000D01*
X901472Y-7253220D01*
X996780Y-7348528D01*
X1045940Y-7373576D01*
X1120939Y-7411791D01*
X1164203Y-7455056D01*
X1173774Y-7515488D01*
X1145996Y-7570004D01*
X1120939Y-7588209D01*
X996781Y-7651471D01*
X901470Y-7746782D01*
X840282Y-7866870D01*
X840281Y-7866872D01*
X819196Y-7999999D01*
X819196Y-8000000D01*
X840281Y-8133127D01*
X840282Y-8133129D01*
X899831Y-8250000D01*
X901472Y-8253220D01*
X996780Y-8348528D01*
X1032778Y-8366870D01*
X1120939Y-8411791D01*
X1164203Y-8455056D01*
X1173774Y-8515488D01*
X1145996Y-8570004D01*
X1120939Y-8588209D01*
X996781Y-8651471D01*
X901470Y-8746782D01*
X840282Y-8866870D01*
X840281Y-8866872D01*
X819196Y-8999999D01*
X819196Y-9000000D01*
X200500Y-9000000D01*
X200500Y-4750000D01*
X8069196Y-4750000D01*
X8090281Y-4883127D01*
X8090282Y-4883129D01*
X8107939Y-4917782D01*
X8151472Y-5003220D01*
X8246780Y-5098528D01*
X8366874Y-5159719D01*
X8500000Y-5180804D01*
X8633126Y-5159719D01*
X8753220Y-5098528D01*
X8848528Y-5003220D01*
X8909719Y-4883126D01*
X8930804Y-4750000D01*
X8909719Y-4616874D01*
X8848528Y-4496780D01*
X8753220Y-4401472D01*
X8753217Y-4401470D01*
X8633129Y-4340282D01*
X8633127Y-4340281D01*
X8500000Y-4319196D01*
X8366872Y-4340281D01*
X8366870Y-4340282D01*
X8246782Y-4401470D01*
X8151470Y-4496782D01*
X8090282Y-4616870D01*
X8090281Y-4616872D01*
X8069196Y-4749999D01*
X8069196Y-4750000D01*
X200500Y-4750000D01*
X200500Y-4250000D01*
X3819196Y-4250000D01*
X3840281Y-4383127D01*
X3840282Y-4383129D01*
X3899831Y-4500000D01*
X3901472Y-4503220D01*
X3996780Y-4598528D01*
X4116874Y-4659719D01*
X4250000Y-4680804D01*
X4383126Y-4659719D01*
X4503220Y-4598528D01*
X4598528Y-4503220D01*
X4659719Y-4383126D01*
X4680804Y-4250000D01*
X4659719Y-4116874D01*
X4600169Y-4000000D01*
X9819196Y-4000000D01*
X9840281Y-4133127D01*
X9840282Y-4133129D01*
X9899831Y-4250000D01*
X9901472Y-4253220D01*
X9996780Y-4348528D01*
X10116874Y-4409719D01*
X10250000Y-4430804D01*
X10259429Y-4429310D01*
X10319860Y-4438880D01*
X10363125Y-4482143D01*
X10372699Y-4542575D01*
X10363127Y-4572036D01*
X10340281Y-4616874D01*
X10319196Y-4749999D01*
X10319196Y-4750000D01*
X10340281Y-4883127D01*
X10340282Y-4883129D01*
X10357939Y-4917782D01*
X10401472Y-5003220D01*
X10496780Y-5098528D01*
X10616874Y-5159719D01*
X10750000Y-5180804D01*
X10883126Y-5159719D01*
X11003220Y-5098528D01*
X11098528Y-5003220D01*
X11159719Y-4883126D01*
X11180804Y-4750000D01*
X11159719Y-4616874D01*
X11100169Y-4500000D01*
X18069196Y-4500000D01*
X18090281Y-4633127D01*
X18090282Y-4633129D01*
X18149831Y-4750000D01*
X18151472Y-4753220D01*
X18246780Y-4848528D01*
X18366874Y-4909719D01*
X18500000Y-4930804D01*
X18633126Y-4909719D01*
X18753220Y-4848528D01*
X18848528Y-4753220D01*
X18850169Y-4750000D01*
X21319196Y-4750000D01*
X21340281Y-4883127D01*
X21340282Y-4883129D01*
X21357939Y-4917782D01*
X21401472Y-5003220D01*
X21496780Y-5098528D01*
X21616874Y-5159719D01*
X21750000Y-5180804D01*
X21883126Y-5159719D01*
X22003220Y-5098528D01*
X22098528Y-5003220D01*
X22159719Y-4883126D01*
X22180804Y-4750000D01*
X22159719Y-4616874D01*
X22098528Y-4496780D01*
X22003220Y-4401472D01*
X22003217Y-4401470D01*
X21883129Y-4340282D01*
X21883127Y-4340281D01*
X21750000Y-4319196D01*
X21616872Y-4340281D01*
X21616870Y-4340282D01*
X21496782Y-4401470D01*
X21401470Y-4496782D01*
X21340282Y-4616870D01*
X21340281Y-4616872D01*
X21319196Y-4749999D01*
X21319196Y-4750000D01*
X18850169Y-4750000D01*
X18909719Y-4633126D01*
X18930804Y-4500000D01*
X18909719Y-4366874D01*
X18850169Y-4250000D01*
X19569196Y-4250000D01*
X19590281Y-4383127D01*
X19590282Y-4383129D01*
X19649831Y-4500000D01*
X19651472Y-4503220D01*
X19746780Y-4598528D01*
X19866874Y-4659719D01*
X20000000Y-4680804D01*
X20133126Y-4659719D01*
X20253220Y-4598528D01*
X20348528Y-4503220D01*
X20409719Y-4383126D01*
X20430804Y-4250000D01*
X20409719Y-4116874D01*
X20348528Y-3996780D01*
X20253220Y-3901472D01*
X20253217Y-3901470D01*
X20133129Y-3840282D01*
X20133127Y-3840281D01*
X20000000Y-3819196D01*
X19866872Y-3840281D01*
X19866870Y-3840282D01*
X19746782Y-3901470D01*
X19651470Y-3996782D01*
X19590282Y-4116870D01*
X19590281Y-4116872D01*
X19569196Y-4249999D01*
X19569196Y-4250000D01*
X18850169Y-4250000D01*
X18848528Y-4246780D01*
X18753220Y-4151472D01*
X18753217Y-4151470D01*
X18633129Y-4090282D01*
X18633127Y-4090281D01*
X18500000Y-4069196D01*
X18366872Y-4090281D01*
X18366870Y-4090282D01*
X18246782Y-4151470D01*
X18151470Y-4246782D01*
X18090282Y-4366870D01*
X18090281Y-4366872D01*
X18069196Y-4499999D01*
X18069196Y-4500000D01*
X11100169Y-4500000D01*
X11098528Y-4496780D01*
X11003220Y-4401472D01*
X11003217Y-4401470D01*
X10883129Y-4340282D01*
X10883127Y-4340281D01*
X10750000Y-4319196D01*
X10740565Y-4320690D01*
X10680134Y-4311116D01*
X10636871Y-4267850D01*
X10627301Y-4207417D01*
X10636870Y-4177968D01*
X10659719Y-4133126D01*
X10680804Y-4000000D01*
X12069196Y-4000000D01*
X12090281Y-4133127D01*
X12090282Y-4133129D01*
X12149831Y-4250000D01*
X12151472Y-4253220D01*
X12246780Y-4348528D01*
X12366874Y-4409719D01*
X12500000Y-4430804D01*
X12633126Y-4409719D01*
X12753220Y-4348528D01*
X12848528Y-4253220D01*
X12909719Y-4133126D01*
X12930804Y-4000000D01*
X12909719Y-3866874D01*
X12848528Y-3746780D01*
X12753220Y-3651472D01*
X12683173Y-3615781D01*
X12639909Y-3572516D01*
X12630338Y-3512084D01*
X12636495Y-3500000D01*
X22569196Y-3500000D01*
X22590281Y-3633127D01*
X22590282Y-3633129D01*
X22649831Y-3750000D01*
X22651472Y-3753220D01*
X22746780Y-3848528D01*
X22866874Y-3909719D01*
X23000000Y-3930804D01*
X23133126Y-3909719D01*
X23220132Y-3865386D01*
X23280563Y-3855815D01*
X23335080Y-3883592D01*
X23353286Y-3908651D01*
X23399831Y-4000000D01*
X23401472Y-4003220D01*
X23496780Y-4098528D01*
X23616874Y-4159719D01*
X23750000Y-4180804D01*
X23883126Y-4159719D01*
X24003220Y-4098528D01*
X24098528Y-4003220D01*
X24159719Y-3883126D01*
X24179013Y-3761306D01*
X24206790Y-3706791D01*
X24261306Y-3679013D01*
X24383126Y-3659719D01*
X24503220Y-3598528D01*
X24598528Y-3503220D01*
X24635426Y-3430804D01*
X24661791Y-3379061D01*
X24705055Y-3335796D01*
X24765487Y-3326225D01*
X24820004Y-3354003D01*
X24838209Y-3379061D01*
X24899831Y-3500000D01*
X24901472Y-3503220D01*
X24996780Y-3598528D01*
X25116874Y-3659719D01*
X25238007Y-3678904D01*
X25238692Y-3679013D01*
X25293209Y-3706790D01*
X25320986Y-3761306D01*
X25340281Y-3883127D01*
X25340282Y-3883129D01*
X25399831Y-4000000D01*
X25401472Y-4003220D01*
X25496780Y-4098528D01*
X25616874Y-4159719D01*
X25750000Y-4180804D01*
X25883126Y-4159719D01*
X26003220Y-4098528D01*
X26098528Y-4003220D01*
X26135426Y-3930804D01*
X26161791Y-3879061D01*
X26205055Y-3835796D01*
X26265487Y-3826225D01*
X26320004Y-3854003D01*
X26338209Y-3879061D01*
X26399831Y-4000000D01*
X26401472Y-4003220D01*
X26496780Y-4098528D01*
X26616874Y-4159719D01*
X26750000Y-4180804D01*
X26883126Y-4159719D01*
X27003220Y-4098528D01*
X27098528Y-4003220D01*
X27159719Y-3883126D01*
X27180804Y-3750000D01*
X29569196Y-3750000D01*
X29590281Y-3883127D01*
X29590282Y-3883129D01*
X29649831Y-4000000D01*
X29651472Y-4003220D01*
X29746780Y-4098528D01*
X29866874Y-4159719D01*
X30000000Y-4180804D01*
X30133126Y-4159719D01*
X30253220Y-4098528D01*
X30348528Y-4003220D01*
X30409719Y-3883126D01*
X30430804Y-3750000D01*
X30409719Y-3616874D01*
X30348528Y-3496780D01*
X30253220Y-3401472D01*
X30253217Y-3401470D01*
X30133129Y-3340282D01*
X30133127Y-3340281D01*
X30000000Y-3319196D01*
X29866872Y-3340281D01*
X29866870Y-3340282D01*
X29746782Y-3401470D01*
X29651470Y-3496782D01*
X29590282Y-3616870D01*
X29590281Y-3616872D01*
X29569196Y-3749999D01*
X29569196Y-3750000D01*
X27180804Y-3750000D01*
X27159719Y-3616874D01*
X27098528Y-3496780D01*
X27003220Y-3401472D01*
X27003217Y-3401470D01*
X26883129Y-3340282D01*
X26883127Y-3340281D01*
X26750000Y-3319196D01*
X26616872Y-3340281D01*
X26616870Y-3340282D01*
X26496782Y-3401470D01*
X26401471Y-3496781D01*
X26338209Y-3620939D01*
X26294944Y-3664203D01*
X26234512Y-3673774D01*
X26179996Y-3645996D01*
X26161791Y-3620939D01*
X26121788Y-3542431D01*
X26098528Y-3496780D01*
X26003220Y-3401472D01*
X26003217Y-3401470D01*
X25883129Y-3340282D01*
X25883127Y-3340281D01*
X25761306Y-3320986D01*
X25706790Y-3293208D01*
X25679013Y-3238692D01*
X25667215Y-3164203D01*
X25659719Y-3116874D01*
X25598528Y-2996780D01*
X25546749Y-2945001D01*
X25518974Y-2890487D01*
X25528545Y-2830055D01*
X25546748Y-2804999D01*
X25598528Y-2753220D01*
X25659719Y-2633126D01*
X25680804Y-2500000D01*
X25659719Y-2366874D01*
X25598528Y-2246780D01*
X25503220Y-2151472D01*
X25503217Y-2151470D01*
X25379061Y-2088209D01*
X25335796Y-2044945D01*
X25326225Y-1984513D01*
X25354003Y-1929996D01*
X25379061Y-1911791D01*
X25452963Y-1874134D01*
X25503220Y-1848528D01*
X25598528Y-1753220D01*
X25659719Y-1633126D01*
X25680804Y-1500000D01*
X25659719Y-1366874D01*
X25659718Y-1366872D01*
X25659717Y-1366870D01*
X25598529Y-1246782D01*
X25598528Y-1246780D01*
X25503220Y-1151472D01*
X25503217Y-1151470D01*
X25383129Y-1090282D01*
X25383127Y-1090281D01*
X25250000Y-1069196D01*
X25116872Y-1090281D01*
X25116870Y-1090282D01*
X24996782Y-1151470D01*
X24901470Y-1246782D01*
X24840282Y-1366870D01*
X24840281Y-1366872D01*
X24819196Y-1499999D01*
X24819196Y-1500000D01*
X24840281Y-1633127D01*
X24840282Y-1633129D01*
X24884363Y-1719642D01*
X24901472Y-1753220D01*
X24996780Y-1848528D01*
X25045940Y-1873576D01*
X25120939Y-1911791D01*
X25164203Y-1955056D01*
X25173774Y-2015488D01*
X25145996Y-2070004D01*
X25120939Y-2088209D01*
X24996781Y-2151471D01*
X24996780Y-2151471D01*
X24996780Y-2151472D01*
X24945001Y-2203250D01*
X24890487Y-2231026D01*
X24830055Y-2221455D01*
X24804999Y-2203251D01*
X24753220Y-2151472D01*
X24753217Y-2151470D01*
X24633129Y-2090282D01*
X24633127Y-2090281D01*
X24500000Y-2069196D01*
X24366872Y-2090281D01*
X24366870Y-2090282D01*
X24246782Y-2151470D01*
X24151470Y-2246782D01*
X24090282Y-2366870D01*
X24090281Y-2366872D01*
X24069196Y-2499999D01*
X24069196Y-2500000D01*
X24090281Y-2633126D01*
X24125000Y-2701265D01*
X24134613Y-2720132D01*
X24144184Y-2780564D01*
X24116407Y-2835081D01*
X24091348Y-2853287D01*
X24029867Y-2884613D01*
X23969435Y-2894184D01*
X23914918Y-2866406D01*
X23896714Y-2841351D01*
X23848528Y-2746780D01*
X23753220Y-2651472D01*
X23753217Y-2651470D01*
X23633129Y-2590282D01*
X23633127Y-2590281D01*
X23500000Y-2569196D01*
X23366872Y-2590281D01*
X23366870Y-2590282D01*
X23246782Y-2651470D01*
X23151470Y-2746782D01*
X23090282Y-2866870D01*
X23090281Y-2866872D01*
X23070986Y-2988693D01*
X23043208Y-3043209D01*
X22988693Y-3070986D01*
X22866872Y-3090281D01*
X22866870Y-3090282D01*
X22746782Y-3151470D01*
X22651470Y-3246782D01*
X22590282Y-3366870D01*
X22590281Y-3366872D01*
X22569196Y-3499999D01*
X22569196Y-3500000D01*
X12636495Y-3500000D01*
X12658116Y-3457568D01*
X12712633Y-3429791D01*
X12743604Y-3429791D01*
X12750000Y-3430804D01*
X12883126Y-3409719D01*
X13003220Y-3348528D01*
X13098528Y-3253220D01*
X13159719Y-3133126D01*
X13180804Y-3000000D01*
X13159719Y-2866874D01*
X13098528Y-2746780D01*
X13046749Y-2695001D01*
X13018974Y-2640487D01*
X13028545Y-2580055D01*
X13046748Y-2554999D01*
X13098528Y-2503220D01*
X13100169Y-2500000D01*
X16569196Y-2500000D01*
X16590281Y-2633127D01*
X16590282Y-2633129D01*
X16651470Y-2753217D01*
X16651472Y-2753220D01*
X16746780Y-2848528D01*
X16866874Y-2909719D01*
X17000000Y-2930804D01*
X17133126Y-2909719D01*
X17253220Y-2848528D01*
X17348528Y-2753220D01*
X17409719Y-2633126D01*
X17430804Y-2500000D01*
X18819196Y-2500000D01*
X18840281Y-2633127D01*
X18840282Y-2633129D01*
X18901470Y-2753217D01*
X18901472Y-2753220D01*
X18996780Y-2848528D01*
X19116874Y-2909719D01*
X19250000Y-2930804D01*
X19383126Y-2909719D01*
X19503220Y-2848528D01*
X19598528Y-2753220D01*
X19659719Y-2633126D01*
X19680804Y-2500000D01*
X19659719Y-2366874D01*
X19630013Y-2308572D01*
X20789910Y-2308572D01*
X20810995Y-2441699D01*
X20810996Y-2441701D01*
X20842342Y-2503220D01*
X20872186Y-2561792D01*
X20967494Y-2657100D01*
X21087588Y-2718291D01*
X21220714Y-2739376D01*
X21353840Y-2718291D01*
X21473934Y-2657100D01*
X21569242Y-2561792D01*
X21630433Y-2441698D01*
X21651518Y-2308572D01*
X21632010Y-2185403D01*
X21641581Y-2124972D01*
X21684846Y-2081707D01*
X21745275Y-2072136D01*
X21800000Y-2080804D01*
X21933126Y-2059719D01*
X22053220Y-1998528D01*
X22148528Y-1903220D01*
X22209719Y-1783126D01*
X22211139Y-1774156D01*
X22238914Y-1719642D01*
X22293429Y-1691862D01*
X22353862Y-1701432D01*
X22397128Y-1744695D01*
X22401472Y-1753220D01*
X22496780Y-1848528D01*
X22616874Y-1909719D01*
X22750000Y-1930804D01*
X22883126Y-1909719D01*
X23003220Y-1848528D01*
X23098528Y-1753220D01*
X23159719Y-1633126D01*
X23180804Y-1500000D01*
X23569196Y-1500000D01*
X23590281Y-1633127D01*
X23590282Y-1633129D01*
X23634363Y-1719642D01*
X23651472Y-1753220D01*
X23746780Y-1848528D01*
X23866874Y-1909719D01*
X24000000Y-1930804D01*
X24133126Y-1909719D01*
X24253220Y-1848528D01*
X24348528Y-1753220D01*
X24409719Y-1633126D01*
X24430804Y-1500000D01*
X24409719Y-1366874D01*
X24409718Y-1366872D01*
X24409717Y-1366870D01*
X24348529Y-1246782D01*
X24348528Y-1246780D01*
X24253220Y-1151472D01*
X24253217Y-1151470D01*
X24133129Y-1090282D01*
X24133127Y-1090281D01*
X24000000Y-1069196D01*
X23866872Y-1090281D01*
X23866870Y-1090282D01*
X23746782Y-1151470D01*
X23651470Y-1246782D01*
X23590282Y-1366870D01*
X23590281Y-1366872D01*
X23569196Y-1499999D01*
X23569196Y-1500000D01*
X23180804Y-1500000D01*
X23159719Y-1366874D01*
X23159718Y-1366872D01*
X23159717Y-1366870D01*
X23098529Y-1246782D01*
X23098528Y-1246780D01*
X23003220Y-1151472D01*
X23003217Y-1151470D01*
X22883129Y-1090282D01*
X22883127Y-1090281D01*
X22750000Y-1069196D01*
X22616872Y-1090281D01*
X22616870Y-1090282D01*
X22496782Y-1151470D01*
X22401470Y-1246782D01*
X22340282Y-1366870D01*
X22340281Y-1366871D01*
X22338860Y-1375846D01*
X22311080Y-1430362D01*
X22256563Y-1458138D01*
X22196131Y-1448564D01*
X22152870Y-1405302D01*
X22148529Y-1396782D01*
X22148528Y-1396780D01*
X22053220Y-1301472D01*
X22053217Y-1301470D01*
X21933129Y-1240282D01*
X21933127Y-1240281D01*
X21800000Y-1219196D01*
X21666872Y-1240281D01*
X21666870Y-1240282D01*
X21546782Y-1301470D01*
X21451470Y-1396782D01*
X21390282Y-1516870D01*
X21390281Y-1516872D01*
X21369196Y-1649999D01*
X21369196Y-1650000D01*
X21388703Y-1773167D01*
X21379131Y-1833599D01*
X21335867Y-1876864D01*
X21275435Y-1886434D01*
X21220714Y-1877768D01*
X21087586Y-1898853D01*
X21087584Y-1898854D01*
X20967496Y-1960042D01*
X20872184Y-2055354D01*
X20810996Y-2175442D01*
X20810995Y-2175444D01*
X20789910Y-2308571D01*
X20789910Y-2308572D01*
X19630013Y-2308572D01*
X19598528Y-2246780D01*
X19503220Y-2151472D01*
X19503217Y-2151470D01*
X19383129Y-2090282D01*
X19383127Y-2090281D01*
X19250000Y-2069196D01*
X19116872Y-2090281D01*
X19116870Y-2090282D01*
X18996782Y-2151470D01*
X18901470Y-2246782D01*
X18840282Y-2366870D01*
X18840281Y-2366872D01*
X18819196Y-2499999D01*
X18819196Y-2500000D01*
X17430804Y-2500000D01*
X17409719Y-2366874D01*
X17348528Y-2246780D01*
X17253220Y-2151472D01*
X17253217Y-2151470D01*
X17133129Y-2090282D01*
X17133127Y-2090281D01*
X17000000Y-2069196D01*
X16866872Y-2090281D01*
X16866870Y-2090282D01*
X16746782Y-2151470D01*
X16651470Y-2246782D01*
X16590282Y-2366870D01*
X16590281Y-2366872D01*
X16569196Y-2499999D01*
X16569196Y-2500000D01*
X13100169Y-2500000D01*
X13159719Y-2383126D01*
X13180804Y-2250000D01*
X13179020Y-2238739D01*
X13168996Y-2175446D01*
X13159719Y-2116874D01*
X13159369Y-2116188D01*
X13098529Y-1996782D01*
X13098528Y-1996780D01*
X13003220Y-1901472D01*
X13003217Y-1901470D01*
X12883129Y-1840282D01*
X12883127Y-1840281D01*
X12750000Y-1819196D01*
X12616872Y-1840281D01*
X12616870Y-1840282D01*
X12496782Y-1901470D01*
X12401470Y-1996782D01*
X12340282Y-2116870D01*
X12340281Y-2116872D01*
X12319196Y-2249999D01*
X12319196Y-2250000D01*
X12340281Y-2383127D01*
X12340282Y-2383129D01*
X12399831Y-2500000D01*
X12401472Y-2503220D01*
X12453250Y-2554998D01*
X12481026Y-2609513D01*
X12471455Y-2669945D01*
X12453251Y-2695000D01*
X12408876Y-2739376D01*
X12401470Y-2746782D01*
X12340282Y-2866870D01*
X12340281Y-2866872D01*
X12319196Y-2999999D01*
X12319196Y-3000000D01*
X12340281Y-3133127D01*
X12340282Y-3133129D01*
X12399831Y-3250000D01*
X12401472Y-3253220D01*
X12496780Y-3348528D01*
X12566826Y-3384218D01*
X12610090Y-3427482D01*
X12619661Y-3487914D01*
X12591883Y-3542431D01*
X12537367Y-3570208D01*
X12506396Y-3570209D01*
X12500000Y-3569196D01*
X12499999Y-3569196D01*
X12366872Y-3590281D01*
X12366870Y-3590282D01*
X12246782Y-3651470D01*
X12151470Y-3746782D01*
X12090282Y-3866870D01*
X12090281Y-3866872D01*
X12069196Y-3999999D01*
X12069196Y-4000000D01*
X10680804Y-4000000D01*
X10659719Y-3866874D01*
X10598528Y-3746780D01*
X10503220Y-3651472D01*
X10503217Y-3651470D01*
X10383129Y-3590282D01*
X10383127Y-3590281D01*
X10250000Y-3569196D01*
X10116872Y-3590281D01*
X10116870Y-3590282D01*
X9996782Y-3651470D01*
X9901470Y-3746782D01*
X9840282Y-3866870D01*
X9840281Y-3866872D01*
X9819196Y-3999999D01*
X9819196Y-4000000D01*
X4600169Y-4000000D01*
X4598528Y-3996780D01*
X4503220Y-3901472D01*
X4503217Y-3901470D01*
X4383129Y-3840282D01*
X4383127Y-3840281D01*
X4250000Y-3819196D01*
X4116872Y-3840281D01*
X4116870Y-3840282D01*
X3996782Y-3901470D01*
X3901470Y-3996782D01*
X3840282Y-4116870D01*
X3840281Y-4116872D01*
X3819196Y-4249999D01*
X3819196Y-4250000D01*
X200500Y-4250000D01*
X200500Y-2374057D01*
X219407Y-2315866D01*
X229496Y-2304053D01*
X1308550Y-1225000D01*
X6569196Y-1225000D01*
X6590281Y-1358127D01*
X6590282Y-1358129D01*
X6651470Y-1478217D01*
X6651472Y-1478220D01*
X6746780Y-1573528D01*
X6746782Y-1573529D01*
X6863749Y-1633127D01*
X6866874Y-1634719D01*
X7000000Y-1655804D01*
X7133126Y-1634719D01*
X7253220Y-1573528D01*
X7326748Y-1500000D01*
X19819196Y-1500000D01*
X19840281Y-1633127D01*
X19840282Y-1633129D01*
X19884363Y-1719642D01*
X19901472Y-1753220D01*
X19996780Y-1848528D01*
X20116874Y-1909719D01*
X20250000Y-1930804D01*
X20383126Y-1909719D01*
X20503220Y-1848528D01*
X20598528Y-1753220D01*
X20659719Y-1633126D01*
X20680804Y-1500000D01*
X20659719Y-1366874D01*
X20659718Y-1366872D01*
X20659717Y-1366870D01*
X20598529Y-1246782D01*
X20598528Y-1246780D01*
X20503220Y-1151472D01*
X20503217Y-1151470D01*
X20383129Y-1090282D01*
X20383127Y-1090281D01*
X20250000Y-1069196D01*
X20116872Y-1090281D01*
X20116870Y-1090282D01*
X19996782Y-1151470D01*
X19901470Y-1246782D01*
X19840282Y-1366870D01*
X19840281Y-1366872D01*
X19819196Y-1499999D01*
X19819196Y-1500000D01*
X7326748Y-1500000D01*
X7348528Y-1478220D01*
X7409719Y-1358126D01*
X7430804Y-1225000D01*
X7409719Y-1091874D01*
X7348528Y-971780D01*
X7253220Y-876472D01*
X7253217Y-876470D01*
X7133129Y-815282D01*
X7133127Y-815281D01*
X7000000Y-794196D01*
X6866872Y-815281D01*
X6866870Y-815282D01*
X6746782Y-876470D01*
X6651470Y-971782D01*
X6590282Y-1091870D01*
X6590281Y-1091872D01*
X6569196Y-1224999D01*
X6569196Y-1225000D01*
X1308550Y-1225000D01*
X2304054Y-229496D01*
X2358571Y-201719D01*
X2374058Y-200500D01*
X2728846Y-200500D01*
X2787037Y-219407D01*
G37*
%TD.AperFunction*%
%TD*%
M02*
