%TF.GenerationSoftware,KiCad,Pcbnew,7.0.8*%
%TF.CreationDate,2023-11-11T12:19:38+10:00*%
%TF.ProjectId,ControllerBoard,436f6e74-726f-46c6-9c65-72426f617264,rev?*%
%TF.SameCoordinates,Original*%
%TF.FileFunction,Copper,L2,Inr*%
%TF.FilePolarity,Positive*%
%FSLAX46Y46*%
G04 Gerber Fmt 4.6, Leading zero omitted, Abs format (unit mm)*
G04 Created by KiCad (PCBNEW 7.0.8) date 2023-11-11 12:19:38*
%MOMM*%
%LPD*%
G01*
G04 APERTURE LIST*
%TA.AperFunction,ViaPad*%
%ADD10C,0.450000*%
%TD*%
G04 APERTURE END LIST*
D10*
%TO.N,VCC*%
X1250000Y-6000000D03*
X2500000Y-3000000D03*
X1250000Y-4000000D03*
X15925000Y-8750000D03*
X15250000Y-2750000D03*
X1250000Y-5000000D03*
X25750000Y-9250000D03*
X7000000Y-2775000D03*
%TO.N,GND*%
X12750000Y-12500000D03*
X13250000Y-7750000D03*
X22750000Y-1500000D03*
X30000000Y-11000000D03*
X30000000Y-3750000D03*
X1250000Y-9000000D03*
X19250000Y-11750000D03*
X1250000Y-8000000D03*
X24000000Y-1500000D03*
X21250000Y-12500000D03*
X4250000Y-4250000D03*
X20250000Y-7750000D03*
X20250000Y-1500000D03*
X12500000Y-4000000D03*
X17000000Y-2500000D03*
X8500000Y-4750000D03*
X2500000Y-10000000D03*
X25250000Y-2500000D03*
X3750000Y-8000000D03*
X25250000Y-3250000D03*
X7000000Y-1225000D03*
X32250000Y-10500000D03*
X14500000Y-11500000D03*
X14197000Y-9988548D03*
X33500000Y-3750000D03*
X20250000Y-6750000D03*
X3750000Y-9000000D03*
X10250000Y-4000000D03*
X1250000Y-7000000D03*
X13250000Y-8750000D03*
X26750000Y-3750000D03*
X25750000Y-3750000D03*
X18750000Y-7750000D03*
X23750000Y-11000000D03*
X21800000Y-1650000D03*
X18750000Y-6750000D03*
X3000000Y-750000D03*
X25250000Y-9750000D03*
X10250000Y-500000D03*
X21750000Y-4750000D03*
X20000000Y-4250000D03*
X21750000Y-6750000D03*
X25250000Y-1500000D03*
X17000000Y-9000000D03*
X17500000Y-10000000D03*
X15500000Y-500000D03*
X18500000Y-4500000D03*
%TO.N,/Microcontroller/DEC3*%
X19250000Y-2500000D03*
%TO.N,/Connectors/ROW0*%
X24500000Y-2500000D03*
%TO.N,/Connectors/COL9*%
X32500000Y-9750000D03*
%TO.N,/Connectors/ROW1*%
X24250000Y-3250000D03*
%TO.N,/Connectors/COL10*%
X31500000Y-10000000D03*
%TO.N,/Accelerometer/SDA*%
X12750000Y-2250000D03*
%TO.N,/Accelerometer/SCL*%
X12750000Y-3000000D03*
%TO.N,/Connectors/ROW2*%
X19750000Y-11000000D03*
%TO.N,/Connectors/COL0*%
X33000000Y-4500000D03*
%TO.N,/Connectors/ROW3*%
X20250000Y-11500000D03*
%TO.N,/Connectors/COL1*%
X33500000Y-5000000D03*
%TO.N,/Connectors/ROW4*%
X20750000Y-11000000D03*
%TO.N,/Connectors/COL2*%
X33000000Y-5500000D03*
%TO.N,/Connectors/ROW5*%
X21250000Y-11500000D03*
%TO.N,/Connectors/COL3*%
X33500000Y-6000000D03*
%TO.N,/Connectors/ROW6*%
X21750000Y-11000000D03*
%TO.N,/Connectors/COL4*%
X33000000Y-6500000D03*
%TO.N,/Connectors/ROW7*%
X22250000Y-11500000D03*
%TO.N,/Connectors/COL5*%
X33500000Y-7000000D03*
%TO.N,/Connectors/ROW8*%
X22750000Y-10970714D03*
%TO.N,/Connectors/COL6*%
X33500000Y-7750000D03*
%TO.N,/Connectors/ROW9*%
X23250000Y-11500000D03*
%TO.N,/Connectors/COL7*%
X33500000Y-8500000D03*
%TO.N,/Connectors/COL8*%
X33000000Y-9000000D03*
%TO.N,/Connectors/SWDCLK*%
X23000000Y-3500000D03*
%TO.N,/Connectors/SWDIO*%
X23500000Y-3000000D03*
%TO.N,/Accelerometer/INT1*%
X10750000Y-4750000D03*
X21220714Y-2308572D03*
%TO.N,/Connectors/LED0*%
X7250000Y-7250000D03*
%TO.N,/Connectors/LED1*%
X6750000Y-7750000D03*
%TO.N,/Connectors/LED2*%
X7250000Y-8250000D03*
%TO.N,/Connectors/LED3*%
X6750000Y-8750000D03*
%TO.N,/Connectors/BUTTON*%
X7250000Y-9250000D03*
%TO.N,/Microcontroller/COL10_R*%
X23750000Y-9750000D03*
X28000000Y-10250000D03*
%TO.N,/Microcontroller/RESET*%
X23750000Y-3750000D03*
X4250000Y-7000000D03*
%TD*%
%TA.AperFunction,Conductor*%
%TO.N,GND*%
G36*
X31684134Y-219407D02*
G01*
X31695947Y-229496D01*
X33770504Y-2304053D01*
X33798281Y-2358570D01*
X33799500Y-2374057D01*
X33799500Y-4513499D01*
X33780593Y-4571690D01*
X33731093Y-4607654D01*
X33669907Y-4607654D01*
X33655556Y-4601709D01*
X33633127Y-4590281D01*
X33511306Y-4570986D01*
X33456790Y-4543208D01*
X33429013Y-4488692D01*
X33428351Y-4484513D01*
X33409719Y-4366874D01*
X33348528Y-4246780D01*
X33253220Y-4151472D01*
X33253217Y-4151470D01*
X33133129Y-4090282D01*
X33133127Y-4090281D01*
X33000000Y-4069196D01*
X32866872Y-4090281D01*
X32866870Y-4090282D01*
X32746782Y-4151470D01*
X32651470Y-4246782D01*
X32590282Y-4366870D01*
X32590281Y-4366872D01*
X32569196Y-4499999D01*
X32569196Y-4500000D01*
X32590281Y-4633127D01*
X32590282Y-4633129D01*
X32649831Y-4750000D01*
X32651472Y-4753220D01*
X32746780Y-4848528D01*
X32782778Y-4866870D01*
X32870939Y-4911791D01*
X32914203Y-4955056D01*
X32923774Y-5015488D01*
X32895996Y-5070004D01*
X32870939Y-5088209D01*
X32746781Y-5151471D01*
X32651470Y-5246782D01*
X32590282Y-5366870D01*
X32590281Y-5366872D01*
X32569196Y-5499999D01*
X32569196Y-5500000D01*
X32590281Y-5633127D01*
X32590282Y-5633129D01*
X32651470Y-5753217D01*
X32651472Y-5753220D01*
X32746780Y-5848528D01*
X32782778Y-5866870D01*
X32870939Y-5911791D01*
X32914203Y-5955056D01*
X32923774Y-6015488D01*
X32895996Y-6070004D01*
X32870939Y-6088209D01*
X32746781Y-6151471D01*
X32651470Y-6246782D01*
X32590282Y-6366870D01*
X32590281Y-6366872D01*
X32569196Y-6499999D01*
X32569196Y-6500000D01*
X32590281Y-6633127D01*
X32590282Y-6633129D01*
X32651470Y-6753217D01*
X32651472Y-6753220D01*
X32746780Y-6848528D01*
X32866874Y-6909719D01*
X32988007Y-6928904D01*
X32988692Y-6929013D01*
X33043209Y-6956790D01*
X33070986Y-7011306D01*
X33090281Y-7133127D01*
X33090282Y-7133129D01*
X33149831Y-7250000D01*
X33151472Y-7253220D01*
X33203250Y-7304998D01*
X33231026Y-7359513D01*
X33221455Y-7419945D01*
X33203251Y-7445000D01*
X33151472Y-7496780D01*
X33151470Y-7496782D01*
X33090282Y-7616870D01*
X33090281Y-7616872D01*
X33069196Y-7749999D01*
X33069196Y-7750000D01*
X33090281Y-7883127D01*
X33090282Y-7883129D01*
X33151470Y-8003217D01*
X33151472Y-8003220D01*
X33203250Y-8054998D01*
X33231026Y-8109513D01*
X33221455Y-8169945D01*
X33203251Y-8195000D01*
X33151472Y-8246780D01*
X33151470Y-8246782D01*
X33090282Y-8366870D01*
X33090281Y-8366872D01*
X33070986Y-8488693D01*
X33043208Y-8543209D01*
X32988693Y-8570986D01*
X32866872Y-8590281D01*
X32866870Y-8590282D01*
X32746782Y-8651470D01*
X32651470Y-8746782D01*
X32590282Y-8866870D01*
X32590281Y-8866872D01*
X32569196Y-8999999D01*
X32569196Y-9000000D01*
X32590281Y-9133127D01*
X32590282Y-9133129D01*
X32613126Y-9177963D01*
X32622698Y-9238395D01*
X32594921Y-9292911D01*
X32540404Y-9320689D01*
X32509433Y-9320690D01*
X32509426Y-9320689D01*
X32507755Y-9320424D01*
X32500000Y-9319196D01*
X32499999Y-9319196D01*
X32366872Y-9340281D01*
X32366870Y-9340282D01*
X32246782Y-9401470D01*
X32151470Y-9496782D01*
X32090282Y-9616870D01*
X32090281Y-9616872D01*
X32069196Y-9749999D01*
X32070209Y-9756396D01*
X32060635Y-9816828D01*
X32017369Y-9860091D01*
X31956937Y-9869661D01*
X31902421Y-9841881D01*
X31884219Y-9816828D01*
X31848528Y-9746780D01*
X31753220Y-9651472D01*
X31753217Y-9651470D01*
X31633129Y-9590282D01*
X31633127Y-9590281D01*
X31500000Y-9569196D01*
X31366872Y-9590281D01*
X31366870Y-9590282D01*
X31246782Y-9651470D01*
X31151470Y-9746782D01*
X31090282Y-9866870D01*
X31090281Y-9866872D01*
X31069196Y-9999999D01*
X31069196Y-10000000D01*
X31090281Y-10133127D01*
X31090282Y-10133129D01*
X31149831Y-10250000D01*
X31151472Y-10253220D01*
X31246780Y-10348528D01*
X31366874Y-10409719D01*
X31500000Y-10430804D01*
X31633126Y-10409719D01*
X31753220Y-10348528D01*
X31848528Y-10253220D01*
X31909719Y-10133126D01*
X31930804Y-10000000D01*
X31929791Y-9993606D01*
X31939361Y-9933176D01*
X31982625Y-9889910D01*
X32043057Y-9880337D01*
X32097574Y-9908114D01*
X32115781Y-9933173D01*
X32151472Y-10003220D01*
X32246780Y-10098528D01*
X32366874Y-10159719D01*
X32500000Y-10180804D01*
X32633126Y-10159719D01*
X32753220Y-10098528D01*
X32848528Y-10003220D01*
X32909719Y-9883126D01*
X32930804Y-9750000D01*
X32909719Y-9616874D01*
X32886872Y-9572035D01*
X32877301Y-9511605D01*
X32905078Y-9457088D01*
X32959594Y-9429310D01*
X32990567Y-9429310D01*
X33000000Y-9430804D01*
X33133126Y-9409719D01*
X33253220Y-9348528D01*
X33348528Y-9253220D01*
X33409719Y-9133126D01*
X33429013Y-9011306D01*
X33456790Y-8956791D01*
X33511306Y-8929013D01*
X33633126Y-8909719D01*
X33655555Y-8898290D01*
X33715985Y-8888719D01*
X33770502Y-8916495D01*
X33798281Y-8971011D01*
X33799500Y-8986500D01*
X33799500Y-12700500D01*
X33780593Y-12758691D01*
X33731093Y-12794655D01*
X33700500Y-12799500D01*
X299500Y-12799500D01*
X241309Y-12780593D01*
X205345Y-12731093D01*
X200500Y-12700500D01*
X200500Y-11000000D01*
X19319196Y-11000000D01*
X19340281Y-11133127D01*
X19340282Y-11133129D01*
X19401470Y-11253217D01*
X19401472Y-11253220D01*
X19496780Y-11348528D01*
X19616874Y-11409719D01*
X19738007Y-11428904D01*
X19738692Y-11429013D01*
X19793209Y-11456790D01*
X19820986Y-11511306D01*
X19840281Y-11633127D01*
X19840282Y-11633129D01*
X19901470Y-11753217D01*
X19901472Y-11753220D01*
X19996780Y-11848528D01*
X20116874Y-11909719D01*
X20250000Y-11930804D01*
X20383126Y-11909719D01*
X20503220Y-11848528D01*
X20598528Y-11753220D01*
X20624134Y-11702963D01*
X20661791Y-11629061D01*
X20705055Y-11585796D01*
X20765487Y-11576225D01*
X20820004Y-11604003D01*
X20838209Y-11629061D01*
X20901470Y-11753217D01*
X20901472Y-11753220D01*
X20996780Y-11848528D01*
X21116874Y-11909719D01*
X21250000Y-11930804D01*
X21383126Y-11909719D01*
X21503220Y-11848528D01*
X21598528Y-11753220D01*
X21624134Y-11702963D01*
X21661791Y-11629061D01*
X21705055Y-11585796D01*
X21765487Y-11576225D01*
X21820004Y-11604003D01*
X21838209Y-11629061D01*
X21901470Y-11753217D01*
X21901472Y-11753220D01*
X21996780Y-11848528D01*
X22116874Y-11909719D01*
X22250000Y-11930804D01*
X22383126Y-11909719D01*
X22503220Y-11848528D01*
X22598528Y-11753220D01*
X22624134Y-11702963D01*
X22661791Y-11629061D01*
X22705055Y-11585796D01*
X22765487Y-11576225D01*
X22820004Y-11604003D01*
X22838209Y-11629061D01*
X22901470Y-11753217D01*
X22901472Y-11753220D01*
X22996780Y-11848528D01*
X23116874Y-11909719D01*
X23250000Y-11930804D01*
X23383126Y-11909719D01*
X23503220Y-11848528D01*
X23598528Y-11753220D01*
X23659719Y-11633126D01*
X23680804Y-11500000D01*
X23659719Y-11366874D01*
X23598528Y-11246780D01*
X23503220Y-11151472D01*
X23503217Y-11151470D01*
X23383129Y-11090282D01*
X23383127Y-11090281D01*
X23264317Y-11071463D01*
X23209800Y-11043685D01*
X23182023Y-10989169D01*
X23180804Y-10973682D01*
X23180804Y-10970713D01*
X23173369Y-10923774D01*
X23159719Y-10837588D01*
X23159718Y-10837586D01*
X23159717Y-10837584D01*
X23098529Y-10717496D01*
X23098528Y-10717494D01*
X23003220Y-10622186D01*
X23003217Y-10622184D01*
X22883129Y-10560996D01*
X22883127Y-10560995D01*
X22750000Y-10539910D01*
X22616872Y-10560995D01*
X22616870Y-10560996D01*
X22496782Y-10622184D01*
X22401470Y-10717496D01*
X22340281Y-10837585D01*
X22338019Y-10844548D01*
X22302055Y-10894048D01*
X22243864Y-10912954D01*
X22185673Y-10894046D01*
X22155656Y-10858900D01*
X22098528Y-10746780D01*
X22003220Y-10651472D01*
X22003217Y-10651470D01*
X21883129Y-10590282D01*
X21883127Y-10590281D01*
X21750000Y-10569196D01*
X21616872Y-10590281D01*
X21616870Y-10590282D01*
X21496782Y-10651470D01*
X21401471Y-10746781D01*
X21338209Y-10870939D01*
X21294944Y-10914203D01*
X21234512Y-10923774D01*
X21179996Y-10895996D01*
X21161791Y-10870939D01*
X21098529Y-10746782D01*
X21098528Y-10746780D01*
X21003220Y-10651472D01*
X21003217Y-10651470D01*
X20883129Y-10590282D01*
X20883127Y-10590281D01*
X20750000Y-10569196D01*
X20616872Y-10590281D01*
X20616870Y-10590282D01*
X20496782Y-10651470D01*
X20401471Y-10746781D01*
X20338209Y-10870939D01*
X20294944Y-10914203D01*
X20234512Y-10923774D01*
X20179996Y-10895996D01*
X20161791Y-10870939D01*
X20098529Y-10746782D01*
X20098528Y-10746780D01*
X20003220Y-10651472D01*
X20003217Y-10651470D01*
X19883129Y-10590282D01*
X19883127Y-10590281D01*
X19750000Y-10569196D01*
X19616872Y-10590281D01*
X19616870Y-10590282D01*
X19496782Y-10651470D01*
X19401470Y-10746782D01*
X19340282Y-10866870D01*
X19340281Y-10866872D01*
X19319196Y-10999999D01*
X19319196Y-11000000D01*
X200500Y-11000000D01*
X200500Y-10250000D01*
X27569196Y-10250000D01*
X27590281Y-10383127D01*
X27590282Y-10383129D01*
X27614574Y-10430804D01*
X27651472Y-10503220D01*
X27746780Y-10598528D01*
X27866874Y-10659719D01*
X28000000Y-10680804D01*
X28133126Y-10659719D01*
X28253220Y-10598528D01*
X28348528Y-10503220D01*
X28409719Y-10383126D01*
X28430804Y-10250000D01*
X28409719Y-10116874D01*
X28348528Y-9996780D01*
X28253220Y-9901472D01*
X28253217Y-9901470D01*
X28133129Y-9840282D01*
X28133127Y-9840281D01*
X28000000Y-9819196D01*
X27866872Y-9840281D01*
X27866870Y-9840282D01*
X27746782Y-9901470D01*
X27651470Y-9996782D01*
X27590282Y-10116870D01*
X27590281Y-10116872D01*
X27569196Y-10249999D01*
X27569196Y-10250000D01*
X200500Y-10250000D01*
X200500Y-9750000D01*
X23319196Y-9750000D01*
X23340281Y-9883127D01*
X23340282Y-9883129D01*
X23401470Y-10003217D01*
X23401472Y-10003220D01*
X23496780Y-10098528D01*
X23616874Y-10159719D01*
X23750000Y-10180804D01*
X23883126Y-10159719D01*
X24003220Y-10098528D01*
X24098528Y-10003220D01*
X24159719Y-9883126D01*
X24180804Y-9750000D01*
X24159719Y-9616874D01*
X24098528Y-9496780D01*
X24003220Y-9401472D01*
X24003217Y-9401470D01*
X23883129Y-9340282D01*
X23883127Y-9340281D01*
X23750000Y-9319196D01*
X23616872Y-9340281D01*
X23616870Y-9340282D01*
X23496782Y-9401470D01*
X23401470Y-9496782D01*
X23340282Y-9616870D01*
X23340281Y-9616872D01*
X23319196Y-9749999D01*
X23319196Y-9750000D01*
X200500Y-9750000D01*
X200500Y-8750000D01*
X6319196Y-8750000D01*
X6340281Y-8883127D01*
X6340282Y-8883129D01*
X6399831Y-9000000D01*
X6401472Y-9003220D01*
X6496780Y-9098528D01*
X6616874Y-9159719D01*
X6732063Y-9177963D01*
X6738692Y-9179013D01*
X6793209Y-9206790D01*
X6820986Y-9261306D01*
X6840281Y-9383127D01*
X6840282Y-9383129D01*
X6901470Y-9503217D01*
X6901472Y-9503220D01*
X6996780Y-9598528D01*
X7116874Y-9659719D01*
X7250000Y-9680804D01*
X7383126Y-9659719D01*
X7503220Y-9598528D01*
X7598528Y-9503220D01*
X7659719Y-9383126D01*
X7680804Y-9250000D01*
X25319196Y-9250000D01*
X25340281Y-9383127D01*
X25340282Y-9383129D01*
X25401470Y-9503217D01*
X25401472Y-9503220D01*
X25496780Y-9598528D01*
X25616874Y-9659719D01*
X25750000Y-9680804D01*
X25883126Y-9659719D01*
X26003220Y-9598528D01*
X26098528Y-9503220D01*
X26159719Y-9383126D01*
X26180804Y-9250000D01*
X26159719Y-9116874D01*
X26098528Y-8996780D01*
X26003220Y-8901472D01*
X26003217Y-8901470D01*
X25883129Y-8840282D01*
X25883127Y-8840281D01*
X25750000Y-8819196D01*
X25616872Y-8840281D01*
X25616870Y-8840282D01*
X25496782Y-8901470D01*
X25401470Y-8996782D01*
X25340282Y-9116870D01*
X25340281Y-9116872D01*
X25319196Y-9249999D01*
X25319196Y-9250000D01*
X7680804Y-9250000D01*
X7659719Y-9116874D01*
X7598528Y-8996780D01*
X7503220Y-8901472D01*
X7503217Y-8901470D01*
X7379061Y-8838209D01*
X7335796Y-8794945D01*
X7328678Y-8750000D01*
X15494196Y-8750000D01*
X15515281Y-8883127D01*
X15515282Y-8883129D01*
X15574831Y-9000000D01*
X15576472Y-9003220D01*
X15671780Y-9098528D01*
X15791874Y-9159719D01*
X15925000Y-9180804D01*
X16058126Y-9159719D01*
X16178220Y-9098528D01*
X16273528Y-9003220D01*
X16334719Y-8883126D01*
X16355804Y-8750000D01*
X16334719Y-8616874D01*
X16273528Y-8496780D01*
X16178220Y-8401472D01*
X16178217Y-8401470D01*
X16058129Y-8340282D01*
X16058127Y-8340281D01*
X15925000Y-8319196D01*
X15791872Y-8340281D01*
X15791870Y-8340282D01*
X15671782Y-8401470D01*
X15576470Y-8496782D01*
X15515282Y-8616870D01*
X15515281Y-8616872D01*
X15494196Y-8749999D01*
X15494196Y-8750000D01*
X7328678Y-8750000D01*
X7326225Y-8734513D01*
X7354003Y-8679996D01*
X7379061Y-8661791D01*
X7467222Y-8616870D01*
X7503220Y-8598528D01*
X7598528Y-8503220D01*
X7659719Y-8383126D01*
X7680804Y-8250000D01*
X7659719Y-8116874D01*
X7598528Y-7996780D01*
X7503220Y-7901472D01*
X7503217Y-7901470D01*
X7379061Y-7838209D01*
X7335796Y-7794945D01*
X7326225Y-7734513D01*
X7354003Y-7679996D01*
X7379061Y-7661791D01*
X7467222Y-7616870D01*
X7503220Y-7598528D01*
X7598528Y-7503220D01*
X7659719Y-7383126D01*
X7680804Y-7250000D01*
X7659719Y-7116874D01*
X7598528Y-6996780D01*
X7503220Y-6901472D01*
X7503217Y-6901470D01*
X7383129Y-6840282D01*
X7383127Y-6840281D01*
X7250000Y-6819196D01*
X7116872Y-6840281D01*
X7116870Y-6840282D01*
X6996782Y-6901470D01*
X6901470Y-6996782D01*
X6840282Y-7116870D01*
X6840281Y-7116872D01*
X6820986Y-7238693D01*
X6793208Y-7293209D01*
X6738693Y-7320986D01*
X6616872Y-7340281D01*
X6616870Y-7340282D01*
X6496782Y-7401470D01*
X6401470Y-7496782D01*
X6340282Y-7616870D01*
X6340281Y-7616872D01*
X6319196Y-7749999D01*
X6319196Y-7750000D01*
X6340281Y-7883127D01*
X6340282Y-7883129D01*
X6401470Y-8003217D01*
X6401472Y-8003220D01*
X6496780Y-8098528D01*
X6532778Y-8116870D01*
X6620939Y-8161791D01*
X6664203Y-8205056D01*
X6673774Y-8265488D01*
X6645996Y-8320004D01*
X6620939Y-8338209D01*
X6496781Y-8401471D01*
X6401470Y-8496782D01*
X6340282Y-8616870D01*
X6340281Y-8616872D01*
X6319196Y-8749999D01*
X6319196Y-8750000D01*
X200500Y-8750000D01*
X200500Y-7000000D01*
X3819196Y-7000000D01*
X3840281Y-7133127D01*
X3840282Y-7133129D01*
X3899831Y-7250000D01*
X3901472Y-7253220D01*
X3996780Y-7348528D01*
X4116874Y-7409719D01*
X4250000Y-7430804D01*
X4383126Y-7409719D01*
X4503220Y-7348528D01*
X4598528Y-7253220D01*
X4659719Y-7133126D01*
X4680804Y-7000000D01*
X4659719Y-6866874D01*
X4598528Y-6746780D01*
X4503220Y-6651472D01*
X4503217Y-6651470D01*
X4383129Y-6590282D01*
X4383127Y-6590281D01*
X4250000Y-6569196D01*
X4116872Y-6590281D01*
X4116870Y-6590282D01*
X3996782Y-6651470D01*
X3901470Y-6746782D01*
X3840282Y-6866870D01*
X3840281Y-6866872D01*
X3819196Y-6999999D01*
X3819196Y-7000000D01*
X200500Y-7000000D01*
X200500Y-6000000D01*
X819196Y-6000000D01*
X840281Y-6133127D01*
X840282Y-6133129D01*
X901470Y-6253217D01*
X901472Y-6253220D01*
X996780Y-6348528D01*
X1116874Y-6409719D01*
X1250000Y-6430804D01*
X1383126Y-6409719D01*
X1503220Y-6348528D01*
X1598528Y-6253220D01*
X1659719Y-6133126D01*
X1680804Y-6000000D01*
X1659719Y-5866874D01*
X1598528Y-5746780D01*
X1503220Y-5651472D01*
X1503217Y-5651470D01*
X1379061Y-5588209D01*
X1335796Y-5544945D01*
X1326225Y-5484513D01*
X1354003Y-5429996D01*
X1379061Y-5411791D01*
X1467222Y-5366870D01*
X1503220Y-5348528D01*
X1598528Y-5253220D01*
X1659719Y-5133126D01*
X1680804Y-5000000D01*
X1659719Y-4866874D01*
X1600169Y-4750000D01*
X10319196Y-4750000D01*
X10340281Y-4883127D01*
X10340282Y-4883129D01*
X10399831Y-5000000D01*
X10401472Y-5003220D01*
X10496780Y-5098528D01*
X10616874Y-5159719D01*
X10750000Y-5180804D01*
X10883126Y-5159719D01*
X11003220Y-5098528D01*
X11098528Y-5003220D01*
X11159719Y-4883126D01*
X11180804Y-4750000D01*
X11159719Y-4616874D01*
X11098528Y-4496780D01*
X11003220Y-4401472D01*
X11003217Y-4401470D01*
X10883129Y-4340282D01*
X10883127Y-4340281D01*
X10750000Y-4319196D01*
X10616872Y-4340281D01*
X10616870Y-4340282D01*
X10496782Y-4401470D01*
X10401470Y-4496782D01*
X10340282Y-4616870D01*
X10340281Y-4616872D01*
X10319196Y-4749999D01*
X10319196Y-4750000D01*
X1600169Y-4750000D01*
X1598528Y-4746780D01*
X1503220Y-4651472D01*
X1503217Y-4651470D01*
X1379061Y-4588209D01*
X1335796Y-4544945D01*
X1326225Y-4484513D01*
X1354003Y-4429996D01*
X1379061Y-4411791D01*
X1467222Y-4366870D01*
X1503220Y-4348528D01*
X1598528Y-4253220D01*
X1659719Y-4133126D01*
X1680804Y-4000000D01*
X1659719Y-3866874D01*
X1598528Y-3746780D01*
X1503220Y-3651472D01*
X1503217Y-3651470D01*
X1383129Y-3590282D01*
X1383127Y-3590281D01*
X1250000Y-3569196D01*
X1116872Y-3590281D01*
X1116870Y-3590282D01*
X996782Y-3651470D01*
X901470Y-3746782D01*
X840282Y-3866870D01*
X840281Y-3866872D01*
X819196Y-3999999D01*
X819196Y-4000000D01*
X840281Y-4133127D01*
X840282Y-4133129D01*
X901470Y-4253217D01*
X901472Y-4253220D01*
X996780Y-4348528D01*
X1032778Y-4366870D01*
X1120939Y-4411791D01*
X1164203Y-4455056D01*
X1173774Y-4515488D01*
X1145996Y-4570004D01*
X1120939Y-4588209D01*
X996781Y-4651471D01*
X901470Y-4746782D01*
X840282Y-4866870D01*
X840281Y-4866872D01*
X819196Y-4999999D01*
X819196Y-5000000D01*
X840281Y-5133127D01*
X840282Y-5133129D01*
X901470Y-5253217D01*
X901472Y-5253220D01*
X996780Y-5348528D01*
X1032778Y-5366870D01*
X1120939Y-5411791D01*
X1164203Y-5455056D01*
X1173774Y-5515488D01*
X1145996Y-5570004D01*
X1120939Y-5588209D01*
X996781Y-5651471D01*
X901470Y-5746782D01*
X840282Y-5866870D01*
X840281Y-5866872D01*
X819196Y-5999999D01*
X819196Y-6000000D01*
X200500Y-6000000D01*
X200500Y-3500000D01*
X22569196Y-3500000D01*
X22590281Y-3633127D01*
X22590282Y-3633129D01*
X22649831Y-3750000D01*
X22651472Y-3753220D01*
X22746780Y-3848528D01*
X22866874Y-3909719D01*
X23000000Y-3930804D01*
X23133126Y-3909719D01*
X23220132Y-3865386D01*
X23280563Y-3855815D01*
X23335080Y-3883592D01*
X23353286Y-3908651D01*
X23399831Y-4000000D01*
X23401472Y-4003220D01*
X23496780Y-4098528D01*
X23616874Y-4159719D01*
X23750000Y-4180804D01*
X23883126Y-4159719D01*
X24003220Y-4098528D01*
X24098528Y-4003220D01*
X24159719Y-3883126D01*
X24179013Y-3761306D01*
X24206790Y-3706791D01*
X24261306Y-3679013D01*
X24383126Y-3659719D01*
X24503220Y-3598528D01*
X24598528Y-3503220D01*
X24659719Y-3383126D01*
X24680804Y-3250000D01*
X24659719Y-3116874D01*
X24615386Y-3029867D01*
X24605815Y-2969435D01*
X24633592Y-2914919D01*
X24658644Y-2896716D01*
X24753220Y-2848528D01*
X24848528Y-2753220D01*
X24909719Y-2633126D01*
X24930804Y-2500000D01*
X24909719Y-2366874D01*
X24848528Y-2246780D01*
X24753220Y-2151472D01*
X24753217Y-2151470D01*
X24633129Y-2090282D01*
X24633127Y-2090281D01*
X24500000Y-2069196D01*
X24366872Y-2090281D01*
X24366870Y-2090282D01*
X24246782Y-2151470D01*
X24151470Y-2246782D01*
X24090282Y-2366870D01*
X24090281Y-2366872D01*
X24069706Y-2496780D01*
X24069196Y-2500000D01*
X24090281Y-2633126D01*
X24133674Y-2718289D01*
X24134613Y-2720132D01*
X24144184Y-2780564D01*
X24116407Y-2835081D01*
X24091348Y-2853287D01*
X24029867Y-2884613D01*
X23969435Y-2894184D01*
X23914918Y-2866406D01*
X23896714Y-2841351D01*
X23848528Y-2746780D01*
X23753220Y-2651472D01*
X23753217Y-2651470D01*
X23633129Y-2590282D01*
X23633127Y-2590281D01*
X23500000Y-2569196D01*
X23366872Y-2590281D01*
X23366870Y-2590282D01*
X23246782Y-2651470D01*
X23151470Y-2746782D01*
X23090282Y-2866870D01*
X23090281Y-2866872D01*
X23070986Y-2988693D01*
X23043208Y-3043209D01*
X22988693Y-3070986D01*
X22866872Y-3090281D01*
X22866870Y-3090282D01*
X22746782Y-3151470D01*
X22651470Y-3246782D01*
X22590282Y-3366870D01*
X22590281Y-3366872D01*
X22569196Y-3499999D01*
X22569196Y-3500000D01*
X200500Y-3500000D01*
X200500Y-3000000D01*
X2069196Y-3000000D01*
X2090281Y-3133127D01*
X2090282Y-3133129D01*
X2149831Y-3250000D01*
X2151472Y-3253220D01*
X2246780Y-3348528D01*
X2366874Y-3409719D01*
X2500000Y-3430804D01*
X2633126Y-3409719D01*
X2753220Y-3348528D01*
X2848528Y-3253220D01*
X2909719Y-3133126D01*
X2930804Y-3000000D01*
X2909719Y-2866874D01*
X2862907Y-2775000D01*
X6569196Y-2775000D01*
X6590281Y-2908127D01*
X6590282Y-2908129D01*
X6651470Y-3028217D01*
X6651472Y-3028220D01*
X6746780Y-3123528D01*
X6866874Y-3184719D01*
X7000000Y-3205804D01*
X7133126Y-3184719D01*
X7253220Y-3123528D01*
X7348528Y-3028220D01*
X7362907Y-3000000D01*
X12319196Y-3000000D01*
X12340281Y-3133127D01*
X12340282Y-3133129D01*
X12399831Y-3250000D01*
X12401472Y-3253220D01*
X12496780Y-3348528D01*
X12616874Y-3409719D01*
X12750000Y-3430804D01*
X12883126Y-3409719D01*
X13003220Y-3348528D01*
X13098528Y-3253220D01*
X13159719Y-3133126D01*
X13180804Y-3000000D01*
X13159719Y-2866874D01*
X13100169Y-2750000D01*
X14819196Y-2750000D01*
X14840281Y-2883127D01*
X14840282Y-2883129D01*
X14899831Y-3000000D01*
X14901472Y-3003220D01*
X14996780Y-3098528D01*
X15116874Y-3159719D01*
X15250000Y-3180804D01*
X15383126Y-3159719D01*
X15503220Y-3098528D01*
X15598528Y-3003220D01*
X15659719Y-2883126D01*
X15680804Y-2750000D01*
X15659719Y-2616874D01*
X15600169Y-2500000D01*
X18819196Y-2500000D01*
X18840281Y-2633127D01*
X18840282Y-2633129D01*
X18899831Y-2750000D01*
X18901472Y-2753220D01*
X18996780Y-2848528D01*
X18996782Y-2848529D01*
X19113749Y-2908127D01*
X19116874Y-2909719D01*
X19250000Y-2930804D01*
X19383126Y-2909719D01*
X19503220Y-2848528D01*
X19598528Y-2753220D01*
X19659719Y-2633126D01*
X19680804Y-2500000D01*
X19659719Y-2366874D01*
X19630013Y-2308572D01*
X20789910Y-2308572D01*
X20810995Y-2441699D01*
X20810996Y-2441701D01*
X20868723Y-2554996D01*
X20872186Y-2561792D01*
X20967494Y-2657100D01*
X21087588Y-2718291D01*
X21220714Y-2739376D01*
X21353840Y-2718291D01*
X21473934Y-2657100D01*
X21569242Y-2561792D01*
X21630433Y-2441698D01*
X21651518Y-2308572D01*
X21630433Y-2175446D01*
X21569242Y-2055352D01*
X21473934Y-1960044D01*
X21473931Y-1960042D01*
X21353843Y-1898854D01*
X21353841Y-1898853D01*
X21220714Y-1877768D01*
X21087586Y-1898853D01*
X21087584Y-1898854D01*
X20967496Y-1960042D01*
X20872184Y-2055354D01*
X20810996Y-2175442D01*
X20810995Y-2175444D01*
X20789910Y-2308571D01*
X20789910Y-2308572D01*
X19630013Y-2308572D01*
X19598528Y-2246780D01*
X19503220Y-2151472D01*
X19503217Y-2151470D01*
X19383129Y-2090282D01*
X19383127Y-2090281D01*
X19250000Y-2069196D01*
X19116872Y-2090281D01*
X19116870Y-2090282D01*
X18996782Y-2151470D01*
X18901470Y-2246782D01*
X18840282Y-2366870D01*
X18840281Y-2366872D01*
X18819196Y-2499999D01*
X18819196Y-2500000D01*
X15600169Y-2500000D01*
X15598528Y-2496780D01*
X15503220Y-2401472D01*
X15503217Y-2401470D01*
X15383129Y-2340282D01*
X15383127Y-2340281D01*
X15250000Y-2319196D01*
X15116872Y-2340281D01*
X15116870Y-2340282D01*
X14996782Y-2401470D01*
X14901470Y-2496782D01*
X14840282Y-2616870D01*
X14840281Y-2616872D01*
X14819196Y-2749999D01*
X14819196Y-2750000D01*
X13100169Y-2750000D01*
X13098528Y-2746780D01*
X13046749Y-2695001D01*
X13018974Y-2640487D01*
X13028545Y-2580055D01*
X13046748Y-2554999D01*
X13098528Y-2503220D01*
X13159719Y-2383126D01*
X13180804Y-2250000D01*
X13179020Y-2238739D01*
X13168996Y-2175446D01*
X13159719Y-2116874D01*
X13159369Y-2116188D01*
X13098529Y-1996782D01*
X13098528Y-1996780D01*
X13003220Y-1901472D01*
X13003217Y-1901470D01*
X12883129Y-1840282D01*
X12883127Y-1840281D01*
X12750000Y-1819196D01*
X12616872Y-1840281D01*
X12616870Y-1840282D01*
X12496782Y-1901470D01*
X12401470Y-1996782D01*
X12340282Y-2116870D01*
X12340281Y-2116872D01*
X12319196Y-2249999D01*
X12319196Y-2250000D01*
X12340281Y-2383127D01*
X12340282Y-2383129D01*
X12399831Y-2500000D01*
X12401472Y-2503220D01*
X12453250Y-2554998D01*
X12481026Y-2609513D01*
X12471455Y-2669945D01*
X12453251Y-2695000D01*
X12408876Y-2739376D01*
X12401470Y-2746782D01*
X12340282Y-2866870D01*
X12340281Y-2866872D01*
X12319196Y-2999999D01*
X12319196Y-3000000D01*
X7362907Y-3000000D01*
X7409719Y-2908126D01*
X7430804Y-2775000D01*
X7409719Y-2641874D01*
X7348528Y-2521780D01*
X7253220Y-2426472D01*
X7253217Y-2426470D01*
X7133129Y-2365282D01*
X7133127Y-2365281D01*
X7000000Y-2344196D01*
X6866872Y-2365281D01*
X6866870Y-2365282D01*
X6746782Y-2426470D01*
X6651470Y-2521782D01*
X6590282Y-2641870D01*
X6590281Y-2641872D01*
X6569196Y-2774999D01*
X6569196Y-2775000D01*
X2862907Y-2775000D01*
X2848528Y-2746780D01*
X2753220Y-2651472D01*
X2753217Y-2651470D01*
X2633129Y-2590282D01*
X2633127Y-2590281D01*
X2500000Y-2569196D01*
X2366872Y-2590281D01*
X2366870Y-2590282D01*
X2246782Y-2651470D01*
X2151470Y-2746782D01*
X2090282Y-2866870D01*
X2090281Y-2866872D01*
X2069196Y-2999999D01*
X2069196Y-3000000D01*
X200500Y-3000000D01*
X200500Y-2374057D01*
X219407Y-2315866D01*
X229496Y-2304053D01*
X2304054Y-229496D01*
X2358571Y-201719D01*
X2374058Y-200500D01*
X31625943Y-200500D01*
X31684134Y-219407D01*
G37*
%TD.AperFunction*%
%TD*%
M02*
