%TF.GenerationSoftware,KiCad,Pcbnew,7.0.8*%
%TF.CreationDate,2023-11-08T19:53:20+10:00*%
%TF.ProjectId,ControllerBoard,436f6e74-726f-46c6-9c65-72426f617264,rev?*%
%TF.SameCoordinates,Original*%
%TF.FileFunction,Soldermask,Bot*%
%TF.FilePolarity,Negative*%
%FSLAX46Y46*%
G04 Gerber Fmt 4.6, Leading zero omitted, Abs format (unit mm)*
G04 Created by KiCad (PCBNEW 7.0.8) date 2023-11-08 19:53:20*
%MOMM*%
%LPD*%
G01*
G04 APERTURE LIST*
G04 Aperture macros list*
%AMRoundRect*
0 Rectangle with rounded corners*
0 $1 Rounding radius*
0 $2 $3 $4 $5 $6 $7 $8 $9 X,Y pos of 4 corners*
0 Add a 4 corners polygon primitive as box body*
4,1,4,$2,$3,$4,$5,$6,$7,$8,$9,$2,$3,0*
0 Add four circle primitives for the rounded corners*
1,1,$1+$1,$2,$3*
1,1,$1+$1,$4,$5*
1,1,$1+$1,$6,$7*
1,1,$1+$1,$8,$9*
0 Add four rect primitives between the rounded corners*
20,1,$1+$1,$2,$3,$4,$5,0*
20,1,$1+$1,$4,$5,$6,$7,0*
20,1,$1+$1,$6,$7,$8,$9,0*
20,1,$1+$1,$8,$9,$2,$3,0*%
G04 Aperture macros list end*
%ADD10RoundRect,0.062500X0.612500X0.062500X-0.612500X0.062500X-0.612500X-0.062500X0.612500X-0.062500X0*%
%ADD11RoundRect,0.140000X-0.170000X0.140000X-0.170000X-0.140000X0.170000X-0.140000X0.170000X0.140000X0*%
%ADD12RoundRect,0.135000X-0.135000X-0.185000X0.135000X-0.185000X0.135000X0.185000X-0.135000X0.185000X0*%
%ADD13RoundRect,0.135000X0.135000X0.185000X-0.135000X0.185000X-0.135000X-0.185000X0.135000X-0.185000X0*%
G04 APERTURE END LIST*
D10*
%TO.C,J2*%
X5475000Y-3250000D03*
X2525000Y-3250000D03*
X5475000Y-3750000D03*
X2525000Y-3750000D03*
X5475000Y-4250000D03*
X2525000Y-4250000D03*
X5475000Y-4750000D03*
X2525000Y-4750000D03*
X5475000Y-5250000D03*
X2525000Y-5250000D03*
X5475000Y-5750000D03*
X2525000Y-5750000D03*
X5475000Y-6250000D03*
X2525000Y-6250000D03*
X5475000Y-6750000D03*
X2525000Y-6750000D03*
X5475000Y-7250000D03*
X2525000Y-7250000D03*
X5475000Y-7750000D03*
X2525000Y-7750000D03*
X5475000Y-8250000D03*
X2525000Y-8250000D03*
X5475000Y-8750000D03*
X2525000Y-8750000D03*
%TD*%
D11*
%TO.C,C11*%
X19250000Y-3020000D03*
X19250000Y-3980000D03*
%TD*%
D12*
%TO.C,R1*%
X12740000Y-1500000D03*
X13760000Y-1500000D03*
%TD*%
D10*
%TO.C,J1*%
X31475000Y-3250000D03*
X28525000Y-3250000D03*
X31475000Y-3750000D03*
X28525000Y-3750000D03*
X31475000Y-4250000D03*
X28525000Y-4250000D03*
X31475000Y-4750000D03*
X28525000Y-4750000D03*
X31475000Y-5250000D03*
X28525000Y-5250000D03*
X31475000Y-5750000D03*
X28525000Y-5750000D03*
X31475000Y-6250000D03*
X28525000Y-6250000D03*
X31475000Y-6750000D03*
X28525000Y-6750000D03*
X31475000Y-7250000D03*
X28525000Y-7250000D03*
X31475000Y-7750000D03*
X28525000Y-7750000D03*
X31475000Y-8250000D03*
X28525000Y-8250000D03*
X31475000Y-8750000D03*
X28525000Y-8750000D03*
%TD*%
D13*
%TO.C,R2*%
X12740000Y-3000000D03*
X13760000Y-3000000D03*
%TD*%
M02*
