%TF.GenerationSoftware,KiCad,Pcbnew,7.0.7*%
%TF.CreationDate,2023-11-05T15:44:54+10:00*%
%TF.ProjectId,ControllerBoard,436f6e74-726f-46c6-9c65-72426f617264,rev?*%
%TF.SameCoordinates,Original*%
%TF.FileFunction,Copper,L2,Inr*%
%TF.FilePolarity,Positive*%
%FSLAX46Y46*%
G04 Gerber Fmt 4.6, Leading zero omitted, Abs format (unit mm)*
G04 Created by KiCad (PCBNEW 7.0.7) date 2023-11-05 15:44:54*
%MOMM*%
%LPD*%
G01*
G04 APERTURE LIST*
%TA.AperFunction,ViaPad*%
%ADD10C,0.400000*%
%TD*%
G04 APERTURE END LIST*
D10*
%TO.N,VCC*%
X1250000Y-4500000D03*
X6500000Y-9500000D03*
X15000000Y-7520000D03*
X16500000Y-7750000D03*
X20000000Y-9270000D03*
X30000000Y-6730000D03*
X1250000Y-5500000D03*
X6500000Y-2500000D03*
%TO.N,GND*%
X11230000Y-1750000D03*
X10000000Y-5500000D03*
X15000000Y-8480000D03*
X22000000Y-3750000D03*
X20000000Y-3750000D03*
X7750000Y-10270000D03*
X7500000Y-2520000D03*
X8000000Y-9300000D03*
X15250000Y-500000D03*
X29000000Y-2500000D03*
X7500000Y-500000D03*
X18000000Y-3750000D03*
X31000000Y-10500000D03*
X5250000Y-2500000D03*
X24250000Y-1750000D03*
X13250000Y-500000D03*
X11250000Y-5500000D03*
X24250000Y-2750000D03*
X20250000Y-8000000D03*
X1250000Y-6500000D03*
X24250000Y-3750000D03*
X14750000Y-11500000D03*
X31000000Y-2500000D03*
X17775000Y-7750000D03*
X4000000Y-7500000D03*
X32000000Y-2500000D03*
X5500000Y-9500000D03*
X4000000Y-5000000D03*
X1250000Y-7500000D03*
X17000000Y-3750000D03*
X30000000Y-5770000D03*
X32000000Y-10500000D03*
X16000000Y-3750000D03*
X15250000Y-2210000D03*
X21750000Y-11500000D03*
X23750000Y-6000000D03*
X22500000Y-7000000D03*
X2750000Y-9500000D03*
X19000000Y-3770000D03*
X26000000Y-11500000D03*
X1250000Y-8500000D03*
X14250000Y-500000D03*
X22500000Y-6000000D03*
X1250000Y-3500000D03*
X20000000Y-10230000D03*
X12750000Y-10270000D03*
X2750000Y-2500000D03*
X4000000Y-6500000D03*
X19250000Y-11500000D03*
X23000000Y-3750000D03*
X27250000Y-10500000D03*
X4250000Y-11500000D03*
X12500000Y-5500000D03*
X14250000Y-2000000D03*
X28000000Y-2500000D03*
X24250000Y-750000D03*
X21000000Y-3750000D03*
%TO.N,/Microcontroller/DEC3*%
X10500000Y-2250000D03*
%TO.N,/Connectors/VSENSE*%
X7250000Y-5750000D03*
%TO.N,/Connectors/ROW0*%
X33000000Y-3750000D03*
%TO.N,/Connectors/COL9*%
X25750000Y-3750000D03*
%TO.N,/Connectors/ROW1*%
X33500000Y-4250000D03*
%TO.N,/Connectors/COL10*%
X25000000Y-3750000D03*
%TO.N,/Accelerometer/SDA*%
X15500000Y-6250000D03*
X18500000Y-6250000D03*
X18500000Y-11500000D03*
%TO.N,/Accelerometer/SCL*%
X16000000Y-5750000D03*
X15500000Y-11512500D03*
%TO.N,/Connectors/ROW2*%
X33000000Y-4750000D03*
%TO.N,/Connectors/COL0*%
X21250000Y-9750000D03*
%TO.N,/Connectors/ROW3*%
X33500000Y-5250000D03*
%TO.N,/Connectors/COL1*%
X21750000Y-10500000D03*
%TO.N,/Connectors/ROW4*%
X33000000Y-5750000D03*
%TO.N,/Connectors/COL2*%
X22250000Y-11000000D03*
%TO.N,/Connectors/ROW5*%
X33500000Y-6250000D03*
%TO.N,/Connectors/COL3*%
X22786212Y-11500000D03*
%TO.N,/Connectors/ROW6*%
X33000000Y-6750000D03*
%TO.N,/Connectors/COL4*%
X23500000Y-11500000D03*
%TO.N,/Connectors/ROW7*%
X33500000Y-7250000D03*
%TO.N,/Connectors/COL5*%
X24250000Y-11500000D03*
%TO.N,/Connectors/ROW8*%
X33000000Y-7750000D03*
%TO.N,/Connectors/COL6*%
X25000000Y-11500000D03*
%TO.N,/Connectors/ROW9*%
X33500000Y-8250000D03*
%TO.N,/Connectors/COL7*%
X25500000Y-11000000D03*
%TO.N,/Connectors/COL8*%
X26250000Y-10500000D03*
%TO.N,/Connectors/RESET*%
X15000000Y-3750000D03*
%TO.N,/Connectors/SWDCLK*%
X13500000Y-2750000D03*
%TO.N,/Connectors/TX*%
X15500000Y-4250000D03*
%TO.N,/Connectors/SWDIO*%
X13000000Y-2250000D03*
%TO.N,/Accelerometer/INT2*%
X14500000Y-10000000D03*
%TO.N,/Accelerometer/INT1*%
X14500000Y-10750000D03*
%TO.N,/Connectors/RX*%
X15000000Y-4750000D03*
%TO.N,/Connectors/LED0*%
X7250000Y-4750000D03*
%TO.N,/Connectors/LED1*%
X7750000Y-5250000D03*
%TO.N,/Connectors/LED2*%
X12000000Y-8750000D03*
%TO.N,/Connectors/LED3*%
X11500000Y-9250000D03*
%TO.N,/Connectors/BUTTON*%
X11000000Y-8750000D03*
%TO.N,/Connectors/LED_EN*%
X15000000Y-6750000D03*
%TD*%
%TA.AperFunction,Conductor*%
%TO.N,GND*%
G36*
X31684134Y-219407D02*
G01*
X31695947Y-229496D01*
X33770504Y-2304053D01*
X33798281Y-2358570D01*
X33799500Y-2374057D01*
X33799500Y-3791558D01*
X33780593Y-3849749D01*
X33731093Y-3885713D01*
X33669907Y-3885713D01*
X33655555Y-3879767D01*
X33625310Y-3864356D01*
X33625305Y-3864354D01*
X33625304Y-3864354D01*
X33500000Y-3844508D01*
X33492304Y-3843289D01*
X33492716Y-3840682D01*
X33446301Y-3825601D01*
X33410337Y-3776101D01*
X33407404Y-3757586D01*
X33406711Y-3757696D01*
X33405045Y-3747178D01*
X33385646Y-3624696D01*
X33328050Y-3511658D01*
X33238342Y-3421950D01*
X33234406Y-3419944D01*
X33125307Y-3364355D01*
X33125304Y-3364354D01*
X33000000Y-3344508D01*
X32874696Y-3364354D01*
X32874692Y-3364355D01*
X32761659Y-3421949D01*
X32671949Y-3511659D01*
X32614355Y-3624692D01*
X32614354Y-3624696D01*
X32594508Y-3750000D01*
X32609476Y-3844508D01*
X32614354Y-3875303D01*
X32614355Y-3875307D01*
X32638121Y-3921949D01*
X32671950Y-3988342D01*
X32761658Y-4078050D01*
X32874696Y-4135646D01*
X32966547Y-4150193D01*
X32979334Y-4152219D01*
X33033851Y-4179997D01*
X33061628Y-4234513D01*
X33052057Y-4294945D01*
X33008792Y-4338210D01*
X32979334Y-4347781D01*
X32874696Y-4364354D01*
X32874692Y-4364355D01*
X32761659Y-4421949D01*
X32671949Y-4511659D01*
X32614355Y-4624692D01*
X32614354Y-4624696D01*
X32601627Y-4705055D01*
X32594508Y-4750000D01*
X32609476Y-4844508D01*
X32614354Y-4875303D01*
X32614355Y-4875307D01*
X32638121Y-4921949D01*
X32671950Y-4988342D01*
X32761658Y-5078050D01*
X32874696Y-5135646D01*
X32966547Y-5150193D01*
X32979334Y-5152219D01*
X33033851Y-5179997D01*
X33061628Y-5234513D01*
X33052057Y-5294945D01*
X33008792Y-5338210D01*
X32979334Y-5347781D01*
X32874696Y-5364354D01*
X32874692Y-5364355D01*
X32761659Y-5421949D01*
X32671949Y-5511659D01*
X32614355Y-5624692D01*
X32614354Y-5624696D01*
X32601627Y-5705055D01*
X32594508Y-5750000D01*
X32609476Y-5844508D01*
X32614354Y-5875303D01*
X32614355Y-5875307D01*
X32638121Y-5921949D01*
X32671950Y-5988342D01*
X32761658Y-6078050D01*
X32874696Y-6135646D01*
X32966547Y-6150193D01*
X32979334Y-6152219D01*
X33033851Y-6179997D01*
X33061628Y-6234513D01*
X33052057Y-6294945D01*
X33008792Y-6338210D01*
X32979334Y-6347781D01*
X32874696Y-6364354D01*
X32874692Y-6364355D01*
X32761659Y-6421949D01*
X32671949Y-6511659D01*
X32614355Y-6624692D01*
X32614354Y-6624696D01*
X32601627Y-6705055D01*
X32594508Y-6750000D01*
X32609476Y-6844508D01*
X32614354Y-6875303D01*
X32614355Y-6875307D01*
X32638121Y-6921950D01*
X32671950Y-6988342D01*
X32761658Y-7078050D01*
X32874696Y-7135646D01*
X32966547Y-7150193D01*
X32979334Y-7152219D01*
X33033851Y-7179997D01*
X33061628Y-7234513D01*
X33052057Y-7294945D01*
X33008792Y-7338210D01*
X32979334Y-7347781D01*
X32874696Y-7364354D01*
X32874692Y-7364355D01*
X32761659Y-7421949D01*
X32671949Y-7511659D01*
X32614355Y-7624692D01*
X32614354Y-7624696D01*
X32601627Y-7705055D01*
X32594508Y-7750000D01*
X32610037Y-7848050D01*
X32614354Y-7875303D01*
X32614355Y-7875307D01*
X32629814Y-7905646D01*
X32671950Y-7988342D01*
X32761658Y-8078050D01*
X32874696Y-8135646D01*
X33000000Y-8155492D01*
X33007696Y-8156711D01*
X33007283Y-8159317D01*
X33053699Y-8174399D01*
X33089663Y-8223899D01*
X33092595Y-8242413D01*
X33093289Y-8242304D01*
X33094507Y-8250000D01*
X33094508Y-8250000D01*
X33109476Y-8344508D01*
X33114354Y-8375303D01*
X33114355Y-8375307D01*
X33138121Y-8421949D01*
X33171950Y-8488342D01*
X33261658Y-8578050D01*
X33374696Y-8635646D01*
X33500000Y-8655492D01*
X33625304Y-8635646D01*
X33655553Y-8620232D01*
X33715984Y-8610659D01*
X33770502Y-8638436D01*
X33798281Y-8692951D01*
X33799500Y-8708441D01*
X33799500Y-11700500D01*
X33780593Y-11758691D01*
X33731093Y-11794655D01*
X33700500Y-11799500D01*
X25458442Y-11799500D01*
X25400251Y-11780593D01*
X25364287Y-11731093D01*
X25364287Y-11669907D01*
X25370233Y-11655555D01*
X25385643Y-11625310D01*
X25385643Y-11625309D01*
X25385646Y-11625304D01*
X25405492Y-11500000D01*
X25405492Y-11499999D01*
X25406711Y-11492304D01*
X25409317Y-11492716D01*
X25424399Y-11446301D01*
X25473899Y-11410337D01*
X25492413Y-11407404D01*
X25492304Y-11406711D01*
X25500000Y-11405492D01*
X25625304Y-11385646D01*
X25738342Y-11328050D01*
X25828050Y-11238342D01*
X25885646Y-11125304D01*
X25905492Y-11000000D01*
X25896942Y-10946017D01*
X25906513Y-10885586D01*
X25949778Y-10842321D01*
X26010210Y-10832750D01*
X26039666Y-10842321D01*
X26124696Y-10885646D01*
X26250000Y-10905492D01*
X26375304Y-10885646D01*
X26488342Y-10828050D01*
X26578050Y-10738342D01*
X26635646Y-10625304D01*
X26655492Y-10500000D01*
X26635646Y-10374696D01*
X26578050Y-10261658D01*
X26488342Y-10171950D01*
X26484406Y-10169944D01*
X26375307Y-10114355D01*
X26375304Y-10114354D01*
X26250000Y-10094508D01*
X26124696Y-10114354D01*
X26124692Y-10114355D01*
X26011659Y-10171949D01*
X25921949Y-10261659D01*
X25864355Y-10374692D01*
X25864354Y-10374696D01*
X25844508Y-10499999D01*
X25844508Y-10500001D01*
X25853057Y-10553982D01*
X25843485Y-10614414D01*
X25800220Y-10657678D01*
X25739788Y-10667249D01*
X25710331Y-10657677D01*
X25625310Y-10614356D01*
X25625305Y-10614354D01*
X25625304Y-10614354D01*
X25500000Y-10594508D01*
X25374696Y-10614354D01*
X25374692Y-10614355D01*
X25261659Y-10671949D01*
X25171949Y-10761659D01*
X25114355Y-10874692D01*
X25114354Y-10874696D01*
X25093289Y-11007696D01*
X25090682Y-11007283D01*
X25075601Y-11053699D01*
X25026101Y-11089663D01*
X25007586Y-11092595D01*
X25007696Y-11093289D01*
X24874696Y-11114354D01*
X24874692Y-11114355D01*
X24761659Y-11171949D01*
X24761658Y-11171949D01*
X24761658Y-11171950D01*
X24695001Y-11238606D01*
X24640487Y-11266382D01*
X24580055Y-11256811D01*
X24554999Y-11238607D01*
X24488342Y-11171950D01*
X24417088Y-11135644D01*
X24375307Y-11114355D01*
X24375304Y-11114354D01*
X24250000Y-11094508D01*
X24124696Y-11114354D01*
X24124692Y-11114355D01*
X24011659Y-11171949D01*
X24011658Y-11171949D01*
X24011658Y-11171950D01*
X23945001Y-11238606D01*
X23890487Y-11266382D01*
X23830055Y-11256811D01*
X23804999Y-11238607D01*
X23738342Y-11171950D01*
X23667088Y-11135644D01*
X23625307Y-11114355D01*
X23625304Y-11114354D01*
X23500000Y-11094508D01*
X23374696Y-11114354D01*
X23374692Y-11114355D01*
X23261658Y-11171950D01*
X23261656Y-11171951D01*
X23213108Y-11220499D01*
X23158591Y-11248276D01*
X23098159Y-11238704D01*
X23073104Y-11220500D01*
X23024554Y-11171950D01*
X22953300Y-11135644D01*
X22911519Y-11114355D01*
X22911516Y-11114354D01*
X22786212Y-11094508D01*
X22769975Y-11097079D01*
X22709543Y-11087505D01*
X22666281Y-11044239D01*
X22657479Y-11007574D01*
X22656711Y-11007696D01*
X22641129Y-10909317D01*
X22635646Y-10874696D01*
X22578050Y-10761658D01*
X22488342Y-10671950D01*
X22460330Y-10657677D01*
X22375307Y-10614355D01*
X22375304Y-10614354D01*
X22250000Y-10594508D01*
X22242304Y-10593289D01*
X22242716Y-10590682D01*
X22196301Y-10575601D01*
X22160337Y-10526101D01*
X22157404Y-10507586D01*
X22156711Y-10507696D01*
X22155045Y-10497178D01*
X22135646Y-10374696D01*
X22078050Y-10261658D01*
X21988342Y-10171950D01*
X21984406Y-10169944D01*
X21875307Y-10114355D01*
X21875304Y-10114354D01*
X21750000Y-10094508D01*
X21749998Y-10094508D01*
X21696017Y-10103057D01*
X21635585Y-10093485D01*
X21592321Y-10050220D01*
X21582750Y-9989788D01*
X21592320Y-9960334D01*
X21635646Y-9875304D01*
X21655492Y-9750000D01*
X21635646Y-9624696D01*
X21578050Y-9511658D01*
X21488342Y-9421950D01*
X21484406Y-9419944D01*
X21375307Y-9364355D01*
X21375304Y-9364354D01*
X21250000Y-9344508D01*
X21124696Y-9364354D01*
X21124692Y-9364355D01*
X21011659Y-9421949D01*
X20921949Y-9511659D01*
X20864355Y-9624692D01*
X20864354Y-9624696D01*
X20844508Y-9749999D01*
X20844508Y-9750000D01*
X20864354Y-9875303D01*
X20864355Y-9875307D01*
X20907677Y-9960330D01*
X20921950Y-9988342D01*
X21011658Y-10078050D01*
X21124696Y-10135646D01*
X21250000Y-10155492D01*
X21303981Y-10146942D01*
X21364413Y-10156513D01*
X21407677Y-10199777D01*
X21417249Y-10260210D01*
X21407678Y-10289668D01*
X21364354Y-10374694D01*
X21364354Y-10374696D01*
X21344508Y-10500000D01*
X21359476Y-10594508D01*
X21364354Y-10625303D01*
X21364355Y-10625307D01*
X21380849Y-10657677D01*
X21421950Y-10738342D01*
X21511658Y-10828050D01*
X21624696Y-10885646D01*
X21750000Y-10905492D01*
X21757696Y-10906711D01*
X21757283Y-10909317D01*
X21803699Y-10924399D01*
X21839663Y-10973899D01*
X21842595Y-10992413D01*
X21843289Y-10992304D01*
X21845708Y-11007574D01*
X21859476Y-11094508D01*
X21864354Y-11125303D01*
X21864355Y-11125307D01*
X21912858Y-11220498D01*
X21921950Y-11238342D01*
X22011658Y-11328050D01*
X22124696Y-11385646D01*
X22232866Y-11402778D01*
X22249999Y-11405492D01*
X22249999Y-11405491D01*
X22250000Y-11405492D01*
X22266233Y-11402921D01*
X22326665Y-11412492D01*
X22369930Y-11455757D01*
X22378733Y-11492425D01*
X22379501Y-11492304D01*
X22400566Y-11625303D01*
X22400568Y-11625310D01*
X22415979Y-11655555D01*
X22425551Y-11715987D01*
X22397774Y-11770503D01*
X22343257Y-11798281D01*
X22327770Y-11799500D01*
X18958442Y-11799500D01*
X18900251Y-11780593D01*
X18864287Y-11731093D01*
X18864287Y-11669907D01*
X18870233Y-11655555D01*
X18885643Y-11625310D01*
X18885643Y-11625309D01*
X18885646Y-11625304D01*
X18905492Y-11500000D01*
X18885646Y-11374696D01*
X18828050Y-11261658D01*
X18738342Y-11171950D01*
X18667088Y-11135644D01*
X18625307Y-11114355D01*
X18625304Y-11114354D01*
X18500000Y-11094508D01*
X18374696Y-11114354D01*
X18374692Y-11114355D01*
X18261659Y-11171949D01*
X18171949Y-11261659D01*
X18114355Y-11374692D01*
X18114354Y-11374696D01*
X18094508Y-11499999D01*
X18094508Y-11500000D01*
X18114354Y-11625303D01*
X18114356Y-11625310D01*
X18129767Y-11655555D01*
X18139339Y-11715987D01*
X18111562Y-11770503D01*
X18057045Y-11798281D01*
X18041558Y-11799500D01*
X15964811Y-11799500D01*
X15906620Y-11780593D01*
X15870656Y-11731093D01*
X15870656Y-11669907D01*
X15876602Y-11655554D01*
X15878411Y-11652003D01*
X15885646Y-11637804D01*
X15905492Y-11512500D01*
X15885646Y-11387196D01*
X15828050Y-11274158D01*
X15738342Y-11184450D01*
X15734406Y-11182444D01*
X15625307Y-11126855D01*
X15625304Y-11126854D01*
X15500000Y-11107008D01*
X15374696Y-11126854D01*
X15374692Y-11126855D01*
X15261659Y-11184449D01*
X15171949Y-11274159D01*
X15114355Y-11387192D01*
X15114354Y-11387196D01*
X15094508Y-11512499D01*
X15094508Y-11512500D01*
X15114354Y-11637803D01*
X15114355Y-11637807D01*
X15123398Y-11655554D01*
X15132970Y-11715986D01*
X15105193Y-11770503D01*
X15050677Y-11798281D01*
X15035189Y-11799500D01*
X299500Y-11799500D01*
X241309Y-11780593D01*
X205345Y-11731093D01*
X200500Y-11700500D01*
X200500Y-10750000D01*
X14094508Y-10750000D01*
X14114354Y-10875303D01*
X14114355Y-10875307D01*
X14139369Y-10924399D01*
X14171950Y-10988342D01*
X14261658Y-11078050D01*
X14374696Y-11135646D01*
X14500000Y-11155492D01*
X14625304Y-11135646D01*
X14738342Y-11078050D01*
X14828050Y-10988342D01*
X14885646Y-10875304D01*
X14905492Y-10750000D01*
X14885646Y-10624696D01*
X14828050Y-10511658D01*
X14761393Y-10445001D01*
X14733618Y-10390487D01*
X14743189Y-10330055D01*
X14761392Y-10304999D01*
X14828050Y-10238342D01*
X14885646Y-10125304D01*
X14905492Y-10000000D01*
X14885646Y-9874696D01*
X14828050Y-9761658D01*
X14738342Y-9671950D01*
X14667088Y-9635644D01*
X14625307Y-9614355D01*
X14625304Y-9614354D01*
X14500000Y-9594508D01*
X14374696Y-9614354D01*
X14374692Y-9614355D01*
X14261659Y-9671949D01*
X14171949Y-9761659D01*
X14114355Y-9874692D01*
X14114354Y-9874696D01*
X14094508Y-10000000D01*
X14110830Y-10103057D01*
X14114354Y-10125303D01*
X14114355Y-10125307D01*
X14138121Y-10171949D01*
X14171950Y-10238342D01*
X14238606Y-10304998D01*
X14266382Y-10359513D01*
X14256811Y-10419945D01*
X14238607Y-10445000D01*
X14183609Y-10499999D01*
X14171949Y-10511659D01*
X14114355Y-10624692D01*
X14114354Y-10624696D01*
X14094508Y-10749999D01*
X14094508Y-10750000D01*
X200500Y-10750000D01*
X200500Y-9500000D01*
X6094508Y-9500000D01*
X6110037Y-9598050D01*
X6114354Y-9625303D01*
X6114355Y-9625307D01*
X6129814Y-9655646D01*
X6171950Y-9738342D01*
X6261658Y-9828050D01*
X6374696Y-9885646D01*
X6500000Y-9905492D01*
X6625304Y-9885646D01*
X6738342Y-9828050D01*
X6828050Y-9738342D01*
X6885646Y-9625304D01*
X6905492Y-9500000D01*
X6885646Y-9374696D01*
X6828050Y-9261658D01*
X6738342Y-9171950D01*
X6715550Y-9160337D01*
X6625307Y-9114355D01*
X6625304Y-9114354D01*
X6500000Y-9094508D01*
X6374696Y-9114354D01*
X6374692Y-9114355D01*
X6261659Y-9171949D01*
X6171949Y-9261659D01*
X6114355Y-9374692D01*
X6114354Y-9374696D01*
X6094508Y-9500000D01*
X200500Y-9500000D01*
X200500Y-8750000D01*
X10594508Y-8750000D01*
X10609476Y-8844508D01*
X10614354Y-8875303D01*
X10614355Y-8875307D01*
X10648311Y-8941949D01*
X10671950Y-8988342D01*
X10761658Y-9078050D01*
X10874696Y-9135646D01*
X11000000Y-9155492D01*
X11007696Y-9156711D01*
X11007283Y-9159317D01*
X11053699Y-9174399D01*
X11089663Y-9223899D01*
X11092595Y-9242413D01*
X11093289Y-9242304D01*
X11094507Y-9250000D01*
X11094508Y-9250000D01*
X11109476Y-9344508D01*
X11114354Y-9375303D01*
X11114355Y-9375307D01*
X11124546Y-9395307D01*
X11171950Y-9488342D01*
X11261658Y-9578050D01*
X11374696Y-9635646D01*
X11500000Y-9655492D01*
X11625304Y-9635646D01*
X11738342Y-9578050D01*
X11828050Y-9488342D01*
X11885646Y-9375304D01*
X11902324Y-9270000D01*
X19594508Y-9270000D01*
X19611089Y-9374692D01*
X19614354Y-9395303D01*
X19614355Y-9395307D01*
X19669944Y-9504406D01*
X19671950Y-9508342D01*
X19761658Y-9598050D01*
X19874696Y-9655646D01*
X20000000Y-9675492D01*
X20125304Y-9655646D01*
X20238342Y-9598050D01*
X20328050Y-9508342D01*
X20385646Y-9395304D01*
X20405492Y-9270000D01*
X20385646Y-9144696D01*
X20328050Y-9031658D01*
X20238342Y-8941950D01*
X20234406Y-8939944D01*
X20125307Y-8884355D01*
X20125304Y-8884354D01*
X20000000Y-8864508D01*
X19874696Y-8884354D01*
X19874692Y-8884355D01*
X19761659Y-8941949D01*
X19671949Y-9031659D01*
X19614355Y-9144692D01*
X19614354Y-9144696D01*
X19598895Y-9242304D01*
X19594508Y-9270000D01*
X11902324Y-9270000D01*
X11905492Y-9250000D01*
X11906711Y-9242304D01*
X11909317Y-9242716D01*
X11924399Y-9196301D01*
X11973899Y-9160337D01*
X11992413Y-9157404D01*
X11992304Y-9156711D01*
X12000000Y-9155492D01*
X12125304Y-9135646D01*
X12238342Y-9078050D01*
X12328050Y-8988342D01*
X12385646Y-8875304D01*
X12405492Y-8750000D01*
X12385646Y-8624696D01*
X12328050Y-8511658D01*
X12238342Y-8421950D01*
X12234406Y-8419944D01*
X12125307Y-8364355D01*
X12125304Y-8364354D01*
X12000000Y-8344508D01*
X11874696Y-8364354D01*
X11874692Y-8364355D01*
X11761659Y-8421949D01*
X11671949Y-8511659D01*
X11614355Y-8624692D01*
X11614354Y-8624696D01*
X11597781Y-8729334D01*
X11570003Y-8783851D01*
X11515487Y-8811628D01*
X11455055Y-8802057D01*
X11411790Y-8758792D01*
X11402219Y-8729334D01*
X11396456Y-8692951D01*
X11385646Y-8624696D01*
X11328050Y-8511658D01*
X11238342Y-8421950D01*
X11234406Y-8419944D01*
X11125307Y-8364355D01*
X11125304Y-8364354D01*
X11000000Y-8344508D01*
X10874696Y-8364354D01*
X10874692Y-8364355D01*
X10761659Y-8421949D01*
X10671949Y-8511659D01*
X10614355Y-8624692D01*
X10614354Y-8624696D01*
X10603544Y-8692951D01*
X10594508Y-8750000D01*
X200500Y-8750000D01*
X200500Y-7520000D01*
X14594508Y-7520000D01*
X14611089Y-7624692D01*
X14614354Y-7645303D01*
X14614355Y-7645307D01*
X14669944Y-7754406D01*
X14671950Y-7758342D01*
X14761658Y-7848050D01*
X14874696Y-7905646D01*
X15000000Y-7925492D01*
X15125304Y-7905646D01*
X15238342Y-7848050D01*
X15328050Y-7758342D01*
X15332300Y-7750000D01*
X16094508Y-7750000D01*
X16110037Y-7848050D01*
X16114354Y-7875303D01*
X16114355Y-7875307D01*
X16129814Y-7905646D01*
X16171950Y-7988342D01*
X16261658Y-8078050D01*
X16374696Y-8135646D01*
X16500000Y-8155492D01*
X16625304Y-8135646D01*
X16738342Y-8078050D01*
X16828050Y-7988342D01*
X16885646Y-7875304D01*
X16905492Y-7750000D01*
X16885646Y-7624696D01*
X16828050Y-7511658D01*
X16738342Y-7421950D01*
X16734406Y-7419944D01*
X16625307Y-7364355D01*
X16625304Y-7364354D01*
X16500000Y-7344508D01*
X16374696Y-7364354D01*
X16374692Y-7364355D01*
X16261659Y-7421949D01*
X16171949Y-7511659D01*
X16114355Y-7624692D01*
X16114354Y-7624696D01*
X16101627Y-7705055D01*
X16094508Y-7750000D01*
X15332300Y-7750000D01*
X15385646Y-7645304D01*
X15405492Y-7520000D01*
X15385646Y-7394696D01*
X15328050Y-7281658D01*
X15296392Y-7250000D01*
X15251395Y-7205002D01*
X15223618Y-7150485D01*
X15233190Y-7090053D01*
X15251393Y-7064998D01*
X15328050Y-6988342D01*
X15385646Y-6875304D01*
X15405492Y-6750000D01*
X15405492Y-6749999D01*
X15406711Y-6742304D01*
X15409317Y-6742716D01*
X15413449Y-6730000D01*
X29594508Y-6730000D01*
X29613162Y-6847781D01*
X29614354Y-6855303D01*
X29614355Y-6855307D01*
X29629848Y-6885713D01*
X29671950Y-6968342D01*
X29761658Y-7058050D01*
X29874696Y-7115646D01*
X30000000Y-7135492D01*
X30125304Y-7115646D01*
X30238342Y-7058050D01*
X30328050Y-6968342D01*
X30385646Y-6855304D01*
X30405492Y-6730000D01*
X30385646Y-6604696D01*
X30328050Y-6491658D01*
X30238342Y-6401950D01*
X30234406Y-6399944D01*
X30125307Y-6344355D01*
X30125304Y-6344354D01*
X30000000Y-6324508D01*
X29874696Y-6344354D01*
X29874692Y-6344355D01*
X29761659Y-6401949D01*
X29671949Y-6491659D01*
X29614355Y-6604692D01*
X29614354Y-6604696D01*
X29609453Y-6635643D01*
X29594508Y-6730000D01*
X15413449Y-6730000D01*
X15424399Y-6696301D01*
X15473899Y-6660337D01*
X15492413Y-6657404D01*
X15492304Y-6656711D01*
X15500000Y-6655492D01*
X15625304Y-6635646D01*
X15738342Y-6578050D01*
X15828050Y-6488342D01*
X15885646Y-6375304D01*
X15905492Y-6250000D01*
X18094508Y-6250000D01*
X18109476Y-6344508D01*
X18114354Y-6375303D01*
X18114355Y-6375307D01*
X18138121Y-6421949D01*
X18171950Y-6488342D01*
X18261658Y-6578050D01*
X18374696Y-6635646D01*
X18500000Y-6655492D01*
X18625304Y-6635646D01*
X18738342Y-6578050D01*
X18828050Y-6488342D01*
X18885646Y-6375304D01*
X18905492Y-6250000D01*
X18885646Y-6124696D01*
X18828050Y-6011658D01*
X18738342Y-5921950D01*
X18706042Y-5905492D01*
X18625307Y-5864355D01*
X18625304Y-5864354D01*
X18500000Y-5844508D01*
X18374696Y-5864354D01*
X18374692Y-5864355D01*
X18261659Y-5921949D01*
X18171949Y-6011659D01*
X18114355Y-6124692D01*
X18114354Y-6124696D01*
X18094508Y-6250000D01*
X15905492Y-6250000D01*
X15905492Y-6249999D01*
X15906711Y-6242304D01*
X15909317Y-6242716D01*
X15924399Y-6196301D01*
X15973899Y-6160337D01*
X15992413Y-6157404D01*
X15992304Y-6156711D01*
X16000000Y-6155492D01*
X16125304Y-6135646D01*
X16238342Y-6078050D01*
X16328050Y-5988342D01*
X16385646Y-5875304D01*
X16405492Y-5750000D01*
X16385646Y-5624696D01*
X16328050Y-5511658D01*
X16238342Y-5421950D01*
X16234406Y-5419944D01*
X16125307Y-5364355D01*
X16125304Y-5364354D01*
X16000000Y-5344508D01*
X15874696Y-5364354D01*
X15874692Y-5364355D01*
X15761659Y-5421949D01*
X15671949Y-5511659D01*
X15614355Y-5624692D01*
X15614354Y-5624696D01*
X15593289Y-5757696D01*
X15590682Y-5757283D01*
X15575601Y-5803699D01*
X15526101Y-5839663D01*
X15507586Y-5842595D01*
X15507696Y-5843289D01*
X15374696Y-5864354D01*
X15374692Y-5864355D01*
X15261659Y-5921949D01*
X15171949Y-6011659D01*
X15114355Y-6124692D01*
X15114354Y-6124696D01*
X15093289Y-6257696D01*
X15090682Y-6257283D01*
X15075601Y-6303699D01*
X15026101Y-6339663D01*
X15007586Y-6342595D01*
X15007696Y-6343289D01*
X14874696Y-6364354D01*
X14874692Y-6364355D01*
X14761659Y-6421949D01*
X14671949Y-6511659D01*
X14614355Y-6624692D01*
X14614354Y-6624696D01*
X14601627Y-6705055D01*
X14594508Y-6750000D01*
X14609476Y-6844508D01*
X14614354Y-6875303D01*
X14614355Y-6875307D01*
X14638121Y-6921950D01*
X14671950Y-6988342D01*
X14748606Y-7064998D01*
X14776382Y-7119513D01*
X14766811Y-7179945D01*
X14748607Y-7205000D01*
X14703608Y-7250000D01*
X14671949Y-7281659D01*
X14614355Y-7394692D01*
X14614354Y-7394696D01*
X14594508Y-7520000D01*
X200500Y-7520000D01*
X200500Y-5500000D01*
X844508Y-5500000D01*
X864354Y-5625303D01*
X864355Y-5625307D01*
X898824Y-5692955D01*
X921950Y-5738342D01*
X1011658Y-5828050D01*
X1124696Y-5885646D01*
X1232866Y-5902778D01*
X1249999Y-5905492D01*
X1249999Y-5905491D01*
X1250000Y-5905492D01*
X1375304Y-5885646D01*
X1488342Y-5828050D01*
X1566392Y-5750000D01*
X6844508Y-5750000D01*
X6859476Y-5844508D01*
X6864354Y-5875303D01*
X6864355Y-5875307D01*
X6888121Y-5921949D01*
X6921950Y-5988342D01*
X7011658Y-6078050D01*
X7124696Y-6135646D01*
X7250000Y-6155492D01*
X7375304Y-6135646D01*
X7488342Y-6078050D01*
X7578050Y-5988342D01*
X7635646Y-5875304D01*
X7655492Y-5750000D01*
X7655492Y-5749999D01*
X7656711Y-5742304D01*
X7659317Y-5742716D01*
X7674399Y-5696301D01*
X7723899Y-5660337D01*
X7742413Y-5657404D01*
X7742304Y-5656711D01*
X7750000Y-5655492D01*
X7875304Y-5635646D01*
X7988342Y-5578050D01*
X8078050Y-5488342D01*
X8135646Y-5375304D01*
X8155492Y-5250000D01*
X8135646Y-5124696D01*
X8078050Y-5011658D01*
X7988342Y-4921950D01*
X7949618Y-4902219D01*
X7875307Y-4864355D01*
X7875304Y-4864354D01*
X7750000Y-4844508D01*
X7742304Y-4843289D01*
X7742716Y-4840682D01*
X7696301Y-4825601D01*
X7660337Y-4776101D01*
X7657404Y-4757586D01*
X7656711Y-4757696D01*
X7655492Y-4750000D01*
X14594508Y-4750000D01*
X14609476Y-4844508D01*
X14614354Y-4875303D01*
X14614355Y-4875307D01*
X14638121Y-4921949D01*
X14671950Y-4988342D01*
X14761658Y-5078050D01*
X14874696Y-5135646D01*
X14979335Y-5152219D01*
X14999999Y-5155492D01*
X14999999Y-5155491D01*
X15000000Y-5155492D01*
X15125304Y-5135646D01*
X15238342Y-5078050D01*
X15328050Y-4988342D01*
X15385646Y-4875304D01*
X15405492Y-4750000D01*
X15405492Y-4749999D01*
X15406711Y-4742304D01*
X15409317Y-4742716D01*
X15424399Y-4696301D01*
X15473899Y-4660337D01*
X15492413Y-4657404D01*
X15492304Y-4656711D01*
X15500000Y-4655492D01*
X15625304Y-4635646D01*
X15738342Y-4578050D01*
X15828050Y-4488342D01*
X15885646Y-4375304D01*
X15905492Y-4250000D01*
X15885646Y-4124696D01*
X15828050Y-4011658D01*
X15738342Y-3921950D01*
X15734406Y-3919944D01*
X15625307Y-3864355D01*
X15625304Y-3864354D01*
X15500000Y-3844508D01*
X15492304Y-3843289D01*
X15492716Y-3840682D01*
X15446301Y-3825601D01*
X15410337Y-3776101D01*
X15407404Y-3757586D01*
X15406711Y-3757696D01*
X15405492Y-3750000D01*
X24594508Y-3750000D01*
X24609476Y-3844508D01*
X24614354Y-3875303D01*
X24614355Y-3875307D01*
X24638121Y-3921949D01*
X24671950Y-3988342D01*
X24761658Y-4078050D01*
X24874696Y-4135646D01*
X25000000Y-4155492D01*
X25125304Y-4135646D01*
X25238342Y-4078050D01*
X25304998Y-4011393D01*
X25359513Y-3983618D01*
X25419945Y-3993189D01*
X25445000Y-4011392D01*
X25511658Y-4078050D01*
X25624696Y-4135646D01*
X25750000Y-4155492D01*
X25875304Y-4135646D01*
X25988342Y-4078050D01*
X26078050Y-3988342D01*
X26135646Y-3875304D01*
X26155492Y-3750000D01*
X26135646Y-3624696D01*
X26078050Y-3511658D01*
X25988342Y-3421950D01*
X25984406Y-3419944D01*
X25875307Y-3364355D01*
X25875304Y-3364354D01*
X25750000Y-3344508D01*
X25624696Y-3364354D01*
X25624692Y-3364355D01*
X25511658Y-3421950D01*
X25511656Y-3421951D01*
X25445003Y-3488604D01*
X25390486Y-3516381D01*
X25330054Y-3506809D01*
X25304997Y-3488604D01*
X25238343Y-3421951D01*
X25238342Y-3421950D01*
X25182861Y-3393681D01*
X25125307Y-3364355D01*
X25125304Y-3364354D01*
X25000000Y-3344508D01*
X24874696Y-3364354D01*
X24874692Y-3364355D01*
X24761659Y-3421949D01*
X24671949Y-3511659D01*
X24614355Y-3624692D01*
X24614354Y-3624696D01*
X24594508Y-3750000D01*
X15405492Y-3750000D01*
X15405045Y-3747178D01*
X15385646Y-3624696D01*
X15328050Y-3511658D01*
X15238342Y-3421950D01*
X15234406Y-3419944D01*
X15125307Y-3364355D01*
X15125304Y-3364354D01*
X15000000Y-3344508D01*
X14874696Y-3364354D01*
X14874692Y-3364355D01*
X14761659Y-3421949D01*
X14671949Y-3511659D01*
X14614355Y-3624692D01*
X14614354Y-3624696D01*
X14594508Y-3750000D01*
X14609476Y-3844508D01*
X14614354Y-3875303D01*
X14614355Y-3875307D01*
X14638121Y-3921949D01*
X14671950Y-3988342D01*
X14761658Y-4078050D01*
X14874696Y-4135646D01*
X14966547Y-4150193D01*
X14979334Y-4152219D01*
X15033851Y-4179997D01*
X15061628Y-4234513D01*
X15052057Y-4294945D01*
X15008792Y-4338210D01*
X14979334Y-4347781D01*
X14874696Y-4364354D01*
X14874692Y-4364355D01*
X14761659Y-4421949D01*
X14671949Y-4511659D01*
X14614355Y-4624692D01*
X14614354Y-4624696D01*
X14601627Y-4705055D01*
X14594508Y-4750000D01*
X7655492Y-4750000D01*
X7646457Y-4692955D01*
X7635646Y-4624696D01*
X7578050Y-4511658D01*
X7488342Y-4421950D01*
X7484406Y-4419944D01*
X7375307Y-4364355D01*
X7375304Y-4364354D01*
X7250000Y-4344508D01*
X7124696Y-4364354D01*
X7124692Y-4364355D01*
X7011659Y-4421949D01*
X6921949Y-4511659D01*
X6864355Y-4624692D01*
X6864354Y-4624696D01*
X6851627Y-4705055D01*
X6844508Y-4750000D01*
X6859476Y-4844508D01*
X6864354Y-4875303D01*
X6864355Y-4875307D01*
X6888121Y-4921949D01*
X6921950Y-4988342D01*
X7011658Y-5078050D01*
X7124696Y-5135646D01*
X7216547Y-5150193D01*
X7229334Y-5152219D01*
X7283851Y-5179997D01*
X7311628Y-5234513D01*
X7302057Y-5294945D01*
X7258792Y-5338210D01*
X7229334Y-5347781D01*
X7124696Y-5364354D01*
X7124692Y-5364355D01*
X7011659Y-5421949D01*
X6921949Y-5511659D01*
X6864355Y-5624692D01*
X6864354Y-5624696D01*
X6851627Y-5705055D01*
X6844508Y-5750000D01*
X1566392Y-5750000D01*
X1578050Y-5738342D01*
X1635646Y-5625304D01*
X1655492Y-5500000D01*
X1635646Y-5374696D01*
X1578050Y-5261658D01*
X1488342Y-5171950D01*
X1417088Y-5135644D01*
X1375307Y-5114355D01*
X1375304Y-5114354D01*
X1270664Y-5097780D01*
X1254571Y-5089581D01*
X1229334Y-5097781D01*
X1124696Y-5114354D01*
X1124692Y-5114355D01*
X1011659Y-5171949D01*
X921949Y-5261659D01*
X864355Y-5374692D01*
X864354Y-5374696D01*
X844508Y-5499999D01*
X844508Y-5500000D01*
X200500Y-5500000D01*
X200500Y-4500000D01*
X844508Y-4500000D01*
X864354Y-4625303D01*
X864355Y-4625307D01*
X898824Y-4692955D01*
X921950Y-4738342D01*
X1011658Y-4828050D01*
X1124696Y-4885646D01*
X1216547Y-4900193D01*
X1229334Y-4902219D01*
X1245427Y-4910418D01*
X1270665Y-4902219D01*
X1375304Y-4885646D01*
X1488342Y-4828050D01*
X1578050Y-4738342D01*
X1635646Y-4625304D01*
X1655492Y-4500000D01*
X1635646Y-4374696D01*
X1578050Y-4261658D01*
X1488342Y-4171950D01*
X1417088Y-4135644D01*
X1375307Y-4114355D01*
X1375304Y-4114354D01*
X1250000Y-4094508D01*
X1124696Y-4114354D01*
X1124692Y-4114355D01*
X1011659Y-4171949D01*
X921949Y-4261659D01*
X864355Y-4374692D01*
X864354Y-4374696D01*
X844508Y-4499999D01*
X844508Y-4500000D01*
X200500Y-4500000D01*
X200500Y-2500000D01*
X6094508Y-2500000D01*
X6114354Y-2625303D01*
X6114355Y-2625307D01*
X6139369Y-2674399D01*
X6171950Y-2738342D01*
X6261658Y-2828050D01*
X6374696Y-2885646D01*
X6500000Y-2905492D01*
X6625304Y-2885646D01*
X6738342Y-2828050D01*
X6828050Y-2738342D01*
X6885646Y-2625304D01*
X6905492Y-2500000D01*
X6885646Y-2374696D01*
X6828050Y-2261658D01*
X6816392Y-2250000D01*
X10094508Y-2250000D01*
X10114156Y-2374057D01*
X10114354Y-2375303D01*
X10114355Y-2375307D01*
X10138121Y-2421949D01*
X10171950Y-2488342D01*
X10261658Y-2578050D01*
X10374696Y-2635646D01*
X10500000Y-2655492D01*
X10625304Y-2635646D01*
X10738342Y-2578050D01*
X10828050Y-2488342D01*
X10885646Y-2375304D01*
X10905492Y-2250000D01*
X12594508Y-2250000D01*
X12614156Y-2374057D01*
X12614354Y-2375303D01*
X12614355Y-2375307D01*
X12638121Y-2421949D01*
X12671950Y-2488342D01*
X12761658Y-2578050D01*
X12874696Y-2635646D01*
X13000000Y-2655492D01*
X13007696Y-2656711D01*
X13007283Y-2659317D01*
X13053699Y-2674399D01*
X13089663Y-2723899D01*
X13092595Y-2742413D01*
X13093289Y-2742304D01*
X13114354Y-2875303D01*
X13114355Y-2875307D01*
X13169944Y-2984406D01*
X13171950Y-2988342D01*
X13261658Y-3078050D01*
X13374696Y-3135646D01*
X13482866Y-3152778D01*
X13499999Y-3155492D01*
X13499999Y-3155491D01*
X13500000Y-3155492D01*
X13625304Y-3135646D01*
X13738342Y-3078050D01*
X13828050Y-2988342D01*
X13885646Y-2875304D01*
X13905492Y-2750000D01*
X13885646Y-2624696D01*
X13828050Y-2511658D01*
X13738342Y-2421950D01*
X13734406Y-2419944D01*
X13625307Y-2364355D01*
X13625304Y-2364354D01*
X13500000Y-2344508D01*
X13492304Y-2343289D01*
X13492716Y-2340682D01*
X13446301Y-2325601D01*
X13410337Y-2276101D01*
X13407404Y-2257586D01*
X13406711Y-2257696D01*
X13400164Y-2216362D01*
X13385646Y-2124696D01*
X13328050Y-2011658D01*
X13238342Y-1921950D01*
X13234406Y-1919944D01*
X13125307Y-1864355D01*
X13125304Y-1864354D01*
X13000000Y-1844508D01*
X12874696Y-1864354D01*
X12874692Y-1864355D01*
X12761659Y-1921949D01*
X12671949Y-2011659D01*
X12614355Y-2124692D01*
X12614354Y-2124696D01*
X12596292Y-2238739D01*
X12594508Y-2250000D01*
X10905492Y-2250000D01*
X10903708Y-2238739D01*
X10893130Y-2171950D01*
X10885646Y-2124696D01*
X10828050Y-2011658D01*
X10738342Y-1921950D01*
X10734406Y-1919944D01*
X10625307Y-1864355D01*
X10625304Y-1864354D01*
X10500000Y-1844508D01*
X10374696Y-1864354D01*
X10374692Y-1864355D01*
X10261659Y-1921949D01*
X10171949Y-2011659D01*
X10114355Y-2124692D01*
X10114354Y-2124696D01*
X10096292Y-2238739D01*
X10094508Y-2250000D01*
X6816392Y-2250000D01*
X6738342Y-2171950D01*
X6716398Y-2160769D01*
X6625307Y-2114355D01*
X6625304Y-2114354D01*
X6500000Y-2094508D01*
X6374696Y-2114354D01*
X6374692Y-2114355D01*
X6261659Y-2171949D01*
X6171949Y-2261659D01*
X6114355Y-2374692D01*
X6114354Y-2374696D01*
X6094508Y-2499999D01*
X6094508Y-2500000D01*
X200500Y-2500000D01*
X200500Y-2374057D01*
X219407Y-2315866D01*
X229496Y-2304053D01*
X2304054Y-229496D01*
X2358571Y-201719D01*
X2374058Y-200500D01*
X31625943Y-200500D01*
X31684134Y-219407D01*
G37*
%TD.AperFunction*%
%TD*%
M02*
