%TF.GenerationSoftware,KiCad,Pcbnew,7.0.8*%
%TF.CreationDate,2023-11-11T12:07:02+10:00*%
%TF.ProjectId,ControllerBoard,436f6e74-726f-46c6-9c65-72426f617264,rev?*%
%TF.SameCoordinates,Original*%
%TF.FileFunction,Copper,L4,Bot*%
%TF.FilePolarity,Positive*%
%FSLAX46Y46*%
G04 Gerber Fmt 4.6, Leading zero omitted, Abs format (unit mm)*
G04 Created by KiCad (PCBNEW 7.0.8) date 2023-11-11 12:07:02*
%MOMM*%
%LPD*%
G01*
G04 APERTURE LIST*
G04 Aperture macros list*
%AMRoundRect*
0 Rectangle with rounded corners*
0 $1 Rounding radius*
0 $2 $3 $4 $5 $6 $7 $8 $9 X,Y pos of 4 corners*
0 Add a 4 corners polygon primitive as box body*
4,1,4,$2,$3,$4,$5,$6,$7,$8,$9,$2,$3,0*
0 Add four circle primitives for the rounded corners*
1,1,$1+$1,$2,$3*
1,1,$1+$1,$4,$5*
1,1,$1+$1,$6,$7*
1,1,$1+$1,$8,$9*
0 Add four rect primitives between the rounded corners*
20,1,$1+$1,$2,$3,$4,$5,0*
20,1,$1+$1,$4,$5,$6,$7,0*
20,1,$1+$1,$6,$7,$8,$9,0*
20,1,$1+$1,$8,$9,$2,$3,0*%
G04 Aperture macros list end*
%TA.AperFunction,SMDPad,CuDef*%
%ADD10RoundRect,0.062500X0.612500X0.062500X-0.612500X0.062500X-0.612500X-0.062500X0.612500X-0.062500X0*%
%TD*%
%TA.AperFunction,SMDPad,CuDef*%
%ADD11RoundRect,0.140000X-0.170000X0.140000X-0.170000X-0.140000X0.170000X-0.140000X0.170000X0.140000X0*%
%TD*%
%TA.AperFunction,SMDPad,CuDef*%
%ADD12RoundRect,0.135000X-0.135000X-0.185000X0.135000X-0.185000X0.135000X0.185000X-0.135000X0.185000X0*%
%TD*%
%TA.AperFunction,SMDPad,CuDef*%
%ADD13RoundRect,0.135000X0.135000X0.185000X-0.135000X0.185000X-0.135000X-0.185000X0.135000X-0.185000X0*%
%TD*%
%TA.AperFunction,ViaPad*%
%ADD14C,0.450000*%
%TD*%
%TA.AperFunction,Conductor*%
%ADD15C,0.125000*%
%TD*%
G04 APERTURE END LIST*
D10*
%TO.P,J2,1,Pin_1*%
%TO.N,/Accelerometer/SDA*%
X5475000Y-3750000D03*
%TO.P,J2,2,Pin_2*%
%TO.N,VCC*%
X2525000Y-3750000D03*
%TO.P,J2,3,Pin_3*%
%TO.N,/Accelerometer/SCL*%
X5475000Y-4250000D03*
%TO.P,J2,4,Pin_4*%
%TO.N,VCC*%
X2525000Y-4250000D03*
%TO.P,J2,5,Pin_5*%
%TO.N,GND*%
X5475000Y-4750000D03*
%TO.P,J2,6,Pin_6*%
%TO.N,VCC*%
X2525000Y-4750000D03*
%TO.P,J2,7,Pin_7*%
%TO.N,/Accelerometer/INT1*%
X5475000Y-5250000D03*
%TO.P,J2,8,Pin_8*%
%TO.N,VCC*%
X2525000Y-5250000D03*
%TO.P,J2,9,Pin_9*%
%TO.N,/Connectors/SWDIO*%
X5475000Y-5750000D03*
%TO.P,J2,10,Pin_10*%
%TO.N,VCC*%
X2525000Y-5750000D03*
%TO.P,J2,11,Pin_11*%
%TO.N,/Connectors/SWDCLK*%
X5475000Y-6250000D03*
%TO.P,J2,12,Pin_12*%
%TO.N,VCC*%
X2525000Y-6250000D03*
%TO.P,J2,13,Pin_13*%
%TO.N,/Microcontroller/RESET*%
X5475000Y-6750000D03*
%TO.P,J2,14,Pin_14*%
%TO.N,GND*%
X2525000Y-6750000D03*
%TO.P,J2,15,Pin_15*%
%TO.N,/Connectors/LED0*%
X5475000Y-7250000D03*
%TO.P,J2,16,Pin_16*%
%TO.N,GND*%
X2525000Y-7250000D03*
%TO.P,J2,17,Pin_17*%
%TO.N,/Connectors/LED1*%
X5475000Y-7750000D03*
%TO.P,J2,18,Pin_18*%
%TO.N,GND*%
X2525000Y-7750000D03*
%TO.P,J2,19,Pin_19*%
%TO.N,/Connectors/LED2*%
X5475000Y-8250000D03*
%TO.P,J2,20,Pin_20*%
%TO.N,GND*%
X2525000Y-8250000D03*
%TO.P,J2,21,Pin_21*%
%TO.N,/Connectors/LED3*%
X5475000Y-8750000D03*
%TO.P,J2,22,Pin_22*%
%TO.N,GND*%
X2525000Y-8750000D03*
%TO.P,J2,23,Pin_23*%
%TO.N,/Connectors/BUTTON*%
X5475000Y-9250000D03*
%TO.P,J2,24,Pin_24*%
%TO.N,GND*%
X2525000Y-9250000D03*
%TD*%
D11*
%TO.P,C11,1*%
%TO.N,/Microcontroller/DEC3*%
X19250000Y-3270000D03*
%TO.P,C11,2*%
%TO.N,GND*%
X19250000Y-4230000D03*
%TD*%
D12*
%TO.P,R1,1*%
%TO.N,/Accelerometer/SDA*%
X13490000Y-2250000D03*
%TO.P,R1,2*%
%TO.N,VCC*%
X14510000Y-2250000D03*
%TD*%
D10*
%TO.P,J1,1,Pin_1*%
%TO.N,GND*%
X31475000Y-3750000D03*
%TO.P,J1,2,Pin_2*%
X28525000Y-3750000D03*
%TO.P,J1,3,Pin_3*%
%TO.N,/Connectors/COL0*%
X31475000Y-4250000D03*
%TO.P,J1,4,Pin_4*%
%TO.N,/Connectors/ROW0*%
X28525000Y-4250000D03*
%TO.P,J1,5,Pin_5*%
%TO.N,/Connectors/COL1*%
X31475000Y-4750000D03*
%TO.P,J1,6,Pin_6*%
%TO.N,/Connectors/ROW1*%
X28525000Y-4750000D03*
%TO.P,J1,7,Pin_7*%
%TO.N,/Connectors/COL2*%
X31475000Y-5250000D03*
%TO.P,J1,8,Pin_8*%
%TO.N,/Connectors/ROW2*%
X28525000Y-5250000D03*
%TO.P,J1,9,Pin_9*%
%TO.N,/Connectors/COL3*%
X31475000Y-5750000D03*
%TO.P,J1,10,Pin_10*%
%TO.N,/Connectors/ROW3*%
X28525000Y-5750000D03*
%TO.P,J1,11,Pin_11*%
%TO.N,/Connectors/COL4*%
X31475000Y-6250000D03*
%TO.P,J1,12,Pin_12*%
%TO.N,/Connectors/ROW4*%
X28525000Y-6250000D03*
%TO.P,J1,13,Pin_13*%
%TO.N,/Connectors/COL5*%
X31475000Y-6750000D03*
%TO.P,J1,14,Pin_14*%
%TO.N,/Connectors/ROW5*%
X28525000Y-6750000D03*
%TO.P,J1,15,Pin_15*%
%TO.N,/Connectors/COL6*%
X31475000Y-7250000D03*
%TO.P,J1,16,Pin_16*%
%TO.N,/Connectors/ROW6*%
X28525000Y-7250000D03*
%TO.P,J1,17,Pin_17*%
%TO.N,/Connectors/COL7*%
X31475000Y-7750000D03*
%TO.P,J1,18,Pin_18*%
%TO.N,/Connectors/ROW7*%
X28525000Y-7750000D03*
%TO.P,J1,19,Pin_19*%
%TO.N,/Connectors/COL8*%
X31475000Y-8250000D03*
%TO.P,J1,20,Pin_20*%
%TO.N,/Connectors/ROW8*%
X28525000Y-8250000D03*
%TO.P,J1,21,Pin_21*%
%TO.N,/Connectors/COL9*%
X31475000Y-8750000D03*
%TO.P,J1,22,Pin_22*%
%TO.N,/Connectors/ROW9*%
X28525000Y-8750000D03*
%TO.P,J1,23,Pin_23*%
%TO.N,/Connectors/COL10*%
X31475000Y-9250000D03*
%TO.P,J1,24,Pin_24*%
%TO.N,GND*%
X28525000Y-9250000D03*
%TD*%
D13*
%TO.P,R2,1*%
%TO.N,VCC*%
X14510000Y-3250000D03*
%TO.P,R2,2*%
%TO.N,/Accelerometer/SCL*%
X13490000Y-3250000D03*
%TD*%
D14*
%TO.N,/Connectors/ROW1*%
X24250000Y-3250000D03*
%TO.N,GND*%
X32250000Y-10500000D03*
X14500000Y-11500000D03*
X3750000Y-8000000D03*
X3750000Y-9000000D03*
X8500000Y-4750000D03*
X23750000Y-11000000D03*
%TO.N,/Connectors/COL10*%
X31500000Y-10000000D03*
%TO.N,GND*%
X30000000Y-11000000D03*
%TO.N,/Microcontroller/COL10_R*%
X28000000Y-10250000D03*
%TO.N,VCC*%
X15925000Y-8750000D03*
%TO.N,GND*%
X19250000Y-11750000D03*
X20000000Y-4250000D03*
X18750000Y-6750000D03*
X20250000Y-6750000D03*
X4250000Y-4250000D03*
%TO.N,/Microcontroller/COL10_R*%
X23750000Y-9750000D03*
%TO.N,GND*%
X33500000Y-3750000D03*
X25750000Y-3750000D03*
X25250000Y-3250000D03*
X25250000Y-2500000D03*
%TO.N,VCC*%
X1250000Y-6000000D03*
X2500000Y-3000000D03*
X1250000Y-4000000D03*
X15250000Y-2750000D03*
X1250000Y-5000000D03*
X25750000Y-9250000D03*
X7000000Y-2775000D03*
%TO.N,GND*%
X12750000Y-12500000D03*
X13250000Y-7750000D03*
X22750000Y-1500000D03*
X30000000Y-3750000D03*
X1250000Y-9000000D03*
X1250000Y-8000000D03*
X24000000Y-1500000D03*
X21250000Y-12500000D03*
X20250000Y-7750000D03*
X20250000Y-1500000D03*
X12500000Y-4000000D03*
X17000000Y-2500000D03*
X2500000Y-10000000D03*
X7000000Y-1225000D03*
X14197000Y-9988548D03*
X10250000Y-4000000D03*
X1250000Y-7000000D03*
X13250000Y-8750000D03*
X26750000Y-3750000D03*
X18750000Y-7750000D03*
X21800000Y-1650000D03*
X3000000Y-750000D03*
X25250000Y-9750000D03*
X10250000Y-500000D03*
X21750000Y-4750000D03*
X21750000Y-6750000D03*
X25250000Y-1500000D03*
X17000000Y-9000000D03*
X17500000Y-10000000D03*
X15500000Y-500000D03*
X18500000Y-4500000D03*
%TO.N,/Microcontroller/DEC3*%
X19250000Y-2500000D03*
%TO.N,/Connectors/COL0*%
X33000000Y-4500000D03*
%TO.N,/Connectors/ROW0*%
X24500000Y-2500000D03*
%TO.N,/Connectors/COL1*%
X33500000Y-5000000D03*
%TO.N,/Accelerometer/SDA*%
X12750000Y-2250000D03*
%TO.N,/Accelerometer/SCL*%
X12750000Y-3000000D03*
%TO.N,/Connectors/COL2*%
X33000000Y-5500000D03*
%TO.N,/Connectors/ROW2*%
X19750000Y-11000000D03*
%TO.N,/Connectors/COL3*%
X33500000Y-6000000D03*
%TO.N,/Connectors/ROW3*%
X20250000Y-11500000D03*
%TO.N,/Connectors/COL4*%
X33000000Y-6500000D03*
%TO.N,/Connectors/ROW4*%
X20750000Y-11000000D03*
%TO.N,/Connectors/COL5*%
X33500000Y-7000000D03*
%TO.N,/Connectors/ROW5*%
X21250000Y-11500000D03*
%TO.N,/Connectors/COL6*%
X33500000Y-7750000D03*
%TO.N,/Connectors/ROW6*%
X21750000Y-11000000D03*
%TO.N,/Connectors/COL7*%
X33500000Y-8500000D03*
%TO.N,/Connectors/ROW7*%
X22250000Y-11500000D03*
%TO.N,/Connectors/COL8*%
X33000000Y-9000000D03*
%TO.N,/Connectors/ROW8*%
X22750000Y-10970714D03*
%TO.N,/Connectors/COL9*%
X32500000Y-9750000D03*
%TO.N,/Connectors/ROW9*%
X23250000Y-11500000D03*
%TO.N,/Connectors/SWDCLK*%
X23000000Y-3500000D03*
%TO.N,/Connectors/SWDIO*%
X23500000Y-3000000D03*
%TO.N,/Accelerometer/INT1*%
X10750000Y-4750000D03*
X21220714Y-2308572D03*
%TO.N,/Connectors/LED1*%
X6750000Y-7750000D03*
%TO.N,/Connectors/LED2*%
X7250000Y-8250000D03*
%TO.N,/Connectors/LED3*%
X6750000Y-8750000D03*
%TO.N,/Connectors/BUTTON*%
X7250000Y-9250000D03*
%TO.N,/Connectors/LED0*%
X7250000Y-7250000D03*
%TO.N,/Microcontroller/RESET*%
X23750000Y-3750000D03*
X4250000Y-7000000D03*
%TD*%
D15*
%TO.N,/Connectors/COL9*%
X32500000Y-9246446D02*
X32003554Y-8750000D01*
X32500000Y-9750000D02*
X32500000Y-9246446D01*
X32003554Y-8750000D02*
X31475000Y-8750000D01*
%TO.N,/Connectors/ROW0*%
X24750000Y-3962500D02*
X25037500Y-4250000D01*
X24750000Y-2750000D02*
X24750000Y-3962500D01*
X24500000Y-2500000D02*
X24750000Y-2750000D01*
X25037500Y-4250000D02*
X28525000Y-4250000D01*
%TO.N,/Connectors/ROW1*%
X24250000Y-4000000D02*
X25000000Y-4750000D01*
X25000000Y-4750000D02*
X28525000Y-4750000D01*
X24250000Y-3250000D02*
X24250000Y-4000000D01*
%TO.N,/Microcontroller/RESET*%
X10250000Y-6750000D02*
X5475000Y-6750000D01*
X10750000Y-6250000D02*
X10250000Y-6750000D01*
X21000000Y-6250000D02*
X10750000Y-6250000D01*
X23250000Y-4250000D02*
X23000000Y-4250000D01*
X23000000Y-4250000D02*
X21000000Y-6250000D01*
X23750000Y-3750000D02*
X23250000Y-4250000D01*
%TO.N,/Connectors/SWDIO*%
X10250000Y-5750000D02*
X5475000Y-5750000D01*
X10750000Y-5250000D02*
X10250000Y-5750000D01*
X19750000Y-5250000D02*
X10750000Y-5250000D01*
X22000000Y-3000000D02*
X19750000Y-5250000D01*
X23500000Y-3000000D02*
X22000000Y-3000000D01*
%TO.N,/Connectors/ROW2*%
X24000000Y-5250000D02*
X28525000Y-5250000D01*
X19750000Y-9500000D02*
X24000000Y-5250000D01*
X19750000Y-11000000D02*
X19750000Y-9500000D01*
%TO.N,/Connectors/ROW3*%
X24000000Y-5750000D02*
X28525000Y-5750000D01*
X20250000Y-9500000D02*
X24000000Y-5750000D01*
X20250000Y-11500000D02*
X20250000Y-9500000D01*
%TO.N,/Connectors/ROW4*%
X24000000Y-6250000D02*
X28525000Y-6250000D01*
X20750000Y-9500000D02*
X24000000Y-6250000D01*
X20750000Y-11000000D02*
X20750000Y-9500000D01*
%TO.N,/Connectors/ROW5*%
X24000000Y-6750000D02*
X28525000Y-6750000D01*
X21250000Y-9500000D02*
X24000000Y-6750000D01*
X21250000Y-11500000D02*
X21250000Y-9500000D01*
%TO.N,/Connectors/ROW6*%
X24000000Y-7250000D02*
X28525000Y-7250000D01*
X21750000Y-9500000D02*
X24000000Y-7250000D01*
X21750000Y-11000000D02*
X21750000Y-9500000D01*
%TO.N,/Connectors/ROW7*%
X22250000Y-9500000D02*
X24000000Y-7750000D01*
X22250000Y-11500000D02*
X22250000Y-9500000D01*
X24000000Y-7750000D02*
X28525000Y-7750000D01*
%TO.N,/Connectors/ROW8*%
X22750000Y-9500000D02*
X24000000Y-8250000D01*
X24000000Y-8250000D02*
X28525000Y-8250000D01*
X22750000Y-10970714D02*
X22750000Y-9500000D01*
%TO.N,/Connectors/ROW9*%
X23250000Y-9500000D02*
X24000000Y-8750000D01*
X23250000Y-11500000D02*
X23250000Y-9500000D01*
X24000000Y-8750000D02*
X28525000Y-8750000D01*
%TO.N,/Connectors/COL0*%
X32750000Y-4250000D02*
X33000000Y-4500000D01*
X31475000Y-4250000D02*
X32750000Y-4250000D01*
%TO.N,/Connectors/COL1*%
X32753554Y-5000000D02*
X33500000Y-5000000D01*
X32503554Y-4750000D02*
X32753554Y-5000000D01*
X31475000Y-4750000D02*
X32503554Y-4750000D01*
%TO.N,/Connectors/COL2*%
X32753554Y-5500000D02*
X33000000Y-5500000D01*
X32503554Y-5250000D02*
X32753554Y-5500000D01*
X31475000Y-5250000D02*
X32503554Y-5250000D01*
%TO.N,/Connectors/COL3*%
X32750000Y-6000000D02*
X32500000Y-5750000D01*
X33500000Y-6000000D02*
X32750000Y-6000000D01*
X32500000Y-5750000D02*
X31475000Y-5750000D01*
%TO.N,/Connectors/COL4*%
X32503554Y-6250000D02*
X31475000Y-6250000D01*
X32753554Y-6500000D02*
X32503554Y-6250000D01*
X33000000Y-6500000D02*
X32753554Y-6500000D01*
%TO.N,/Connectors/COL5*%
X32753554Y-7000000D02*
X32503554Y-6750000D01*
X33500000Y-7000000D02*
X32753554Y-7000000D01*
X32503554Y-6750000D02*
X31475000Y-6750000D01*
%TO.N,/Connectors/COL6*%
X32503554Y-7250000D02*
X31475000Y-7250000D01*
X33003554Y-7750000D02*
X32503554Y-7250000D01*
X33500000Y-7750000D02*
X33003554Y-7750000D01*
%TO.N,/Connectors/COL7*%
X32503554Y-7750000D02*
X31475000Y-7750000D01*
X33253554Y-8500000D02*
X32503554Y-7750000D01*
X33500000Y-8500000D02*
X33253554Y-8500000D01*
%TO.N,/Connectors/COL8*%
X32250000Y-8250000D02*
X31475000Y-8250000D01*
X33000000Y-9000000D02*
X32250000Y-8250000D01*
%TO.N,/Connectors/COL10*%
X31500000Y-9275000D02*
X31475000Y-9250000D01*
X31500000Y-10000000D02*
X31500000Y-9275000D01*
%TO.N,/Connectors/COL9*%
X31500000Y-8775000D02*
X31475000Y-8750000D01*
%TO.N,/Connectors/BUTTON*%
X7250000Y-9250000D02*
X5475000Y-9250000D01*
%TO.N,/Connectors/LED3*%
X6750000Y-8750000D02*
X5475000Y-8750000D01*
%TO.N,/Connectors/LED2*%
X7250000Y-8250000D02*
X5475000Y-8250000D01*
%TO.N,/Microcontroller/COL10_R*%
X24250000Y-10250000D02*
X28000000Y-10250000D01*
X23750000Y-9750000D02*
X24250000Y-10250000D01*
%TO.N,/Connectors/SWDCLK*%
X20000000Y-5750000D02*
X10750000Y-5750000D01*
X22250000Y-3500000D02*
X20000000Y-5750000D01*
X23000000Y-3500000D02*
X22250000Y-3500000D01*
X10750000Y-5750000D02*
X10250000Y-6250000D01*
X10250000Y-6250000D02*
X5475000Y-6250000D01*
%TO.N,/Accelerometer/INT1*%
X10250000Y-5250000D02*
X5475000Y-5250000D01*
X10750000Y-4750000D02*
X10250000Y-5250000D01*
%TO.N,/Accelerometer/SDA*%
X9482268Y-2250000D02*
X7982268Y-3750000D01*
X7982268Y-3750000D02*
X5475000Y-3750000D01*
X12750000Y-2250000D02*
X9482268Y-2250000D01*
%TO.N,/Accelerometer/SCL*%
X8167911Y-4250000D02*
X5475000Y-4250000D01*
X12750000Y-3000000D02*
X9417911Y-3000000D01*
X9417911Y-3000000D02*
X8167911Y-4250000D01*
%TO.N,/Microcontroller/RESET*%
X4500000Y-6750000D02*
X5475000Y-6750000D01*
X4250000Y-7000000D02*
X4500000Y-6750000D01*
%TO.N,/Connectors/LED1*%
X6750000Y-7750000D02*
X5475000Y-7750000D01*
%TO.N,/Connectors/LED0*%
X7250000Y-7250000D02*
X5475000Y-7250000D01*
%TO.N,VCC*%
X14510000Y-2250000D02*
X14750000Y-2250000D01*
X14750000Y-2250000D02*
X15250000Y-2750000D01*
X14510000Y-3250000D02*
X14750000Y-3250000D01*
X14750000Y-3250000D02*
X15250000Y-2750000D01*
%TO.N,/Microcontroller/DEC3*%
X19250000Y-3270000D02*
X19250000Y-2500000D01*
%TO.N,/Accelerometer/SDA*%
X12750000Y-2250000D02*
X13490000Y-2250000D01*
%TO.N,/Accelerometer/SCL*%
X12750000Y-3000000D02*
X13240000Y-3000000D01*
X13240000Y-3000000D02*
X13490000Y-3250000D01*
%TO.N,/Accelerometer/INT1*%
X20912142Y-2000000D02*
X21220714Y-2308572D01*
X18500000Y-2000000D02*
X20912142Y-2000000D01*
X10750000Y-4750000D02*
X15750000Y-4750000D01*
X15750000Y-4750000D02*
X18500000Y-2000000D01*
%TD*%
%TA.AperFunction,Conductor*%
%TO.N,GND*%
G36*
X22678435Y-3781907D02*
G01*
X22690247Y-3791996D01*
X22746778Y-3848526D01*
X22746777Y-3848526D01*
X22746779Y-3848527D01*
X22746780Y-3848528D01*
X22812261Y-3881892D01*
X22855525Y-3925156D01*
X22865096Y-3985588D01*
X22837318Y-4040105D01*
X22822320Y-4052414D01*
X22810392Y-4060384D01*
X22810384Y-4060392D01*
X22801132Y-4074238D01*
X22788824Y-4089236D01*
X20920058Y-5958004D01*
X20865541Y-5985781D01*
X20850054Y-5987000D01*
X20373945Y-5987000D01*
X20315754Y-5968093D01*
X20279790Y-5918593D01*
X20279790Y-5857407D01*
X20303941Y-5817996D01*
X21283528Y-4838410D01*
X22329942Y-3791996D01*
X22384459Y-3764219D01*
X22399946Y-3763000D01*
X22620244Y-3763000D01*
X22678435Y-3781907D01*
G37*
%TD.AperFunction*%
%TA.AperFunction,Conductor*%
G36*
X31684134Y-219407D02*
G01*
X31695947Y-229496D01*
X33770504Y-2304053D01*
X33798281Y-2358570D01*
X33799500Y-2374057D01*
X33799500Y-4513499D01*
X33780593Y-4571690D01*
X33731093Y-4607654D01*
X33669907Y-4607654D01*
X33655556Y-4601709D01*
X33633127Y-4590281D01*
X33511306Y-4570986D01*
X33456790Y-4543208D01*
X33429013Y-4488692D01*
X33425750Y-4468093D01*
X33409719Y-4366874D01*
X33348528Y-4246780D01*
X33253220Y-4151472D01*
X33253217Y-4151470D01*
X33133129Y-4090282D01*
X33133127Y-4090281D01*
X33000001Y-4069196D01*
X32992209Y-4069196D01*
X32992209Y-4067928D01*
X32939672Y-4059604D01*
X32929622Y-4053713D01*
X32887998Y-4025901D01*
X32852619Y-4002261D01*
X32852618Y-4002260D01*
X32852617Y-4002260D01*
X32782944Y-3988401D01*
X32775901Y-3987000D01*
X32750000Y-3981848D01*
X32733660Y-3985098D01*
X32714347Y-3987000D01*
X32290849Y-3987000D01*
X32235848Y-3970316D01*
X32190119Y-3939761D01*
X32190117Y-3939760D01*
X32190114Y-3939759D01*
X32190113Y-3939759D01*
X32113411Y-3924501D01*
X32113402Y-3924500D01*
X32113401Y-3924500D01*
X32113399Y-3924500D01*
X30836602Y-3924500D01*
X30836595Y-3924501D01*
X30759883Y-3939759D01*
X30759881Y-3939760D01*
X30672890Y-3997886D01*
X30672886Y-3997890D01*
X30614762Y-4084879D01*
X30614759Y-4084886D01*
X30599501Y-4161589D01*
X30599500Y-4161599D01*
X30599500Y-4338397D01*
X30599501Y-4338404D01*
X30614759Y-4415115D01*
X30614759Y-4415116D01*
X30614760Y-4415117D01*
X30634726Y-4444999D01*
X30651334Y-4503887D01*
X30634727Y-4554999D01*
X30614761Y-4584880D01*
X30614759Y-4584886D01*
X30599501Y-4661589D01*
X30599500Y-4661599D01*
X30599500Y-4838397D01*
X30599501Y-4838404D01*
X30614759Y-4915115D01*
X30614759Y-4915116D01*
X30614760Y-4915117D01*
X30634726Y-4944999D01*
X30651334Y-5003887D01*
X30634727Y-5054999D01*
X30614761Y-5084880D01*
X30614759Y-5084886D01*
X30599501Y-5161589D01*
X30599500Y-5161599D01*
X30599500Y-5338397D01*
X30599501Y-5338404D01*
X30614759Y-5415115D01*
X30614759Y-5415116D01*
X30614760Y-5415117D01*
X30634726Y-5444999D01*
X30651334Y-5503887D01*
X30634727Y-5554999D01*
X30614761Y-5584880D01*
X30614759Y-5584886D01*
X30599501Y-5661589D01*
X30599500Y-5661599D01*
X30599500Y-5838397D01*
X30599501Y-5838404D01*
X30614759Y-5915115D01*
X30614759Y-5915116D01*
X30614760Y-5915117D01*
X30634726Y-5944999D01*
X30651334Y-6003887D01*
X30634727Y-6054999D01*
X30614761Y-6084880D01*
X30614759Y-6084886D01*
X30599501Y-6161589D01*
X30599500Y-6161599D01*
X30599500Y-6338397D01*
X30599501Y-6338404D01*
X30614759Y-6415115D01*
X30614759Y-6415116D01*
X30614760Y-6415117D01*
X30634726Y-6444999D01*
X30651334Y-6503887D01*
X30634727Y-6554999D01*
X30614761Y-6584880D01*
X30614759Y-6584886D01*
X30599501Y-6661589D01*
X30599500Y-6661599D01*
X30599500Y-6838397D01*
X30599501Y-6838404D01*
X30614759Y-6915115D01*
X30614759Y-6915116D01*
X30614760Y-6915117D01*
X30634726Y-6944999D01*
X30651334Y-7003887D01*
X30634727Y-7054999D01*
X30614761Y-7084880D01*
X30614759Y-7084886D01*
X30599501Y-7161589D01*
X30599500Y-7161599D01*
X30599500Y-7338397D01*
X30599501Y-7338404D01*
X30614759Y-7415115D01*
X30614759Y-7415116D01*
X30614760Y-7415117D01*
X30634726Y-7444999D01*
X30651334Y-7503887D01*
X30634727Y-7554999D01*
X30614761Y-7584880D01*
X30614759Y-7584886D01*
X30599501Y-7661589D01*
X30599500Y-7661599D01*
X30599500Y-7838397D01*
X30599501Y-7838404D01*
X30614759Y-7915115D01*
X30614759Y-7915116D01*
X30614760Y-7915117D01*
X30634726Y-7944999D01*
X30651334Y-8003887D01*
X30634727Y-8054999D01*
X30614761Y-8084880D01*
X30614759Y-8084886D01*
X30599501Y-8161589D01*
X30599500Y-8161599D01*
X30599500Y-8338397D01*
X30599501Y-8338404D01*
X30614759Y-8415115D01*
X30614759Y-8415116D01*
X30614760Y-8415117D01*
X30634726Y-8444999D01*
X30651334Y-8503887D01*
X30634727Y-8554999D01*
X30614761Y-8584880D01*
X30614759Y-8584886D01*
X30599501Y-8661589D01*
X30599500Y-8661599D01*
X30599500Y-8838397D01*
X30599501Y-8838404D01*
X30614759Y-8915115D01*
X30614759Y-8915116D01*
X30614760Y-8915117D01*
X30634726Y-8944999D01*
X30651334Y-9003887D01*
X30634727Y-9054999D01*
X30614761Y-9084880D01*
X30614759Y-9084886D01*
X30599501Y-9161589D01*
X30599500Y-9161599D01*
X30599500Y-9338397D01*
X30599501Y-9338404D01*
X30614759Y-9415116D01*
X30614760Y-9415118D01*
X30642804Y-9457088D01*
X30672888Y-9502112D01*
X30759883Y-9560240D01*
X30836599Y-9575500D01*
X31083746Y-9575499D01*
X31141935Y-9594406D01*
X31177899Y-9643906D01*
X31177900Y-9705091D01*
X31153753Y-9744498D01*
X31151475Y-9746775D01*
X31151470Y-9746782D01*
X31090282Y-9866870D01*
X31090281Y-9866872D01*
X31069196Y-9999999D01*
X31069196Y-10000000D01*
X31090281Y-10133127D01*
X31090282Y-10133129D01*
X31149831Y-10250000D01*
X31151472Y-10253220D01*
X31246780Y-10348528D01*
X31366874Y-10409719D01*
X31500000Y-10430804D01*
X31633126Y-10409719D01*
X31753220Y-10348528D01*
X31848528Y-10253220D01*
X31909719Y-10133126D01*
X31930804Y-10000000D01*
X31929791Y-9993606D01*
X31939361Y-9933176D01*
X31982625Y-9889910D01*
X32043057Y-9880337D01*
X32097574Y-9908114D01*
X32115781Y-9933173D01*
X32151472Y-10003220D01*
X32246780Y-10098528D01*
X32366874Y-10159719D01*
X32500000Y-10180804D01*
X32633126Y-10159719D01*
X32753220Y-10098528D01*
X32848528Y-10003220D01*
X32909719Y-9883126D01*
X32930804Y-9750000D01*
X32930803Y-9749996D01*
X32919844Y-9680804D01*
X32909719Y-9616874D01*
X32886872Y-9572035D01*
X32877301Y-9511605D01*
X32905078Y-9457088D01*
X32959594Y-9429310D01*
X32990567Y-9429310D01*
X33000000Y-9430804D01*
X33133126Y-9409719D01*
X33253220Y-9348528D01*
X33348528Y-9253220D01*
X33409719Y-9133126D01*
X33429013Y-9011306D01*
X33456790Y-8956791D01*
X33511306Y-8929013D01*
X33633126Y-8909719D01*
X33655555Y-8898290D01*
X33715985Y-8888719D01*
X33770502Y-8916495D01*
X33798281Y-8971011D01*
X33799500Y-8986500D01*
X33799500Y-12700500D01*
X33780593Y-12758691D01*
X33731093Y-12794655D01*
X33700500Y-12799500D01*
X299500Y-12799500D01*
X241309Y-12780593D01*
X205345Y-12731093D01*
X200500Y-12700500D01*
X200500Y-7000000D01*
X3819196Y-7000000D01*
X3840281Y-7133127D01*
X3840282Y-7133129D01*
X3899831Y-7250000D01*
X3901472Y-7253220D01*
X3996780Y-7348528D01*
X4116874Y-7409719D01*
X4250000Y-7430804D01*
X4383126Y-7409719D01*
X4477121Y-7361825D01*
X4537552Y-7352254D01*
X4592069Y-7380031D01*
X4613528Y-7412144D01*
X4614758Y-7415113D01*
X4614759Y-7415115D01*
X4614760Y-7415117D01*
X4634726Y-7444999D01*
X4651334Y-7503887D01*
X4634727Y-7554999D01*
X4614761Y-7584880D01*
X4614759Y-7584886D01*
X4599501Y-7661589D01*
X4599500Y-7661599D01*
X4599500Y-7838397D01*
X4599501Y-7838404D01*
X4614759Y-7915115D01*
X4614759Y-7915116D01*
X4614760Y-7915117D01*
X4634726Y-7944999D01*
X4651334Y-8003887D01*
X4634727Y-8054999D01*
X4614761Y-8084880D01*
X4614759Y-8084886D01*
X4599501Y-8161589D01*
X4599500Y-8161599D01*
X4599500Y-8338397D01*
X4599501Y-8338404D01*
X4614759Y-8415115D01*
X4614759Y-8415116D01*
X4614760Y-8415117D01*
X4634726Y-8444999D01*
X4651334Y-8503887D01*
X4634727Y-8554999D01*
X4614761Y-8584880D01*
X4614759Y-8584886D01*
X4599501Y-8661589D01*
X4599500Y-8661599D01*
X4599500Y-8838397D01*
X4599501Y-8838404D01*
X4614759Y-8915115D01*
X4614759Y-8915116D01*
X4614760Y-8915117D01*
X4634726Y-8944999D01*
X4651334Y-9003887D01*
X4634727Y-9054999D01*
X4614761Y-9084880D01*
X4614759Y-9084886D01*
X4599501Y-9161589D01*
X4599500Y-9161599D01*
X4599500Y-9338397D01*
X4599501Y-9338404D01*
X4614759Y-9415116D01*
X4614760Y-9415118D01*
X4642804Y-9457088D01*
X4672888Y-9502112D01*
X4759883Y-9560240D01*
X4818207Y-9571841D01*
X4836588Y-9575498D01*
X4836589Y-9575498D01*
X4836599Y-9575500D01*
X6113400Y-9575499D01*
X6190117Y-9560240D01*
X6235848Y-9529684D01*
X6290849Y-9513000D01*
X6870244Y-9513000D01*
X6928435Y-9531907D01*
X6940247Y-9541996D01*
X6970289Y-9572037D01*
X6996780Y-9598528D01*
X7116874Y-9659719D01*
X7250000Y-9680804D01*
X7383126Y-9659719D01*
X7503220Y-9598528D01*
X7598528Y-9503220D01*
X7659719Y-9383126D01*
X7680804Y-9250000D01*
X7659719Y-9116874D01*
X7630861Y-9060238D01*
X7607414Y-9014219D01*
X7598528Y-8996780D01*
X7503220Y-8901472D01*
X7503217Y-8901470D01*
X7379061Y-8838209D01*
X7335796Y-8794945D01*
X7328678Y-8750000D01*
X15494196Y-8750000D01*
X15515281Y-8883127D01*
X15515282Y-8883129D01*
X15576470Y-9003217D01*
X15576472Y-9003220D01*
X15671780Y-9098528D01*
X15791874Y-9159719D01*
X15925000Y-9180804D01*
X16058126Y-9159719D01*
X16178220Y-9098528D01*
X16273528Y-9003220D01*
X16334719Y-8883126D01*
X16355804Y-8750000D01*
X16334719Y-8616874D01*
X16314526Y-8577244D01*
X16273529Y-8496782D01*
X16273528Y-8496780D01*
X16178220Y-8401472D01*
X16178217Y-8401470D01*
X16058129Y-8340282D01*
X16058127Y-8340281D01*
X15925000Y-8319196D01*
X15791872Y-8340281D01*
X15791870Y-8340282D01*
X15671782Y-8401470D01*
X15576470Y-8496782D01*
X15515282Y-8616870D01*
X15515281Y-8616872D01*
X15494196Y-8749999D01*
X15494196Y-8750000D01*
X7328678Y-8750000D01*
X7326225Y-8734513D01*
X7354003Y-8679996D01*
X7379061Y-8661791D01*
X7467222Y-8616870D01*
X7503220Y-8598528D01*
X7598528Y-8503220D01*
X7659719Y-8383126D01*
X7680804Y-8250000D01*
X7659719Y-8116874D01*
X7598528Y-7996780D01*
X7503220Y-7901472D01*
X7503217Y-7901470D01*
X7379061Y-7838209D01*
X7335796Y-7794945D01*
X7326225Y-7734513D01*
X7354003Y-7679996D01*
X7379061Y-7661791D01*
X7452963Y-7624134D01*
X7503220Y-7598528D01*
X7598528Y-7503220D01*
X7659719Y-7383126D01*
X7680804Y-7250000D01*
X7661400Y-7127487D01*
X7670971Y-7067055D01*
X7714236Y-7023790D01*
X7759181Y-7013000D01*
X10214347Y-7013000D01*
X10233660Y-7014902D01*
X10237049Y-7015575D01*
X10250000Y-7018152D01*
X10282648Y-7011658D01*
X10352617Y-6997740D01*
X10439612Y-6939612D01*
X10448870Y-6925754D01*
X10461174Y-6910762D01*
X10829942Y-6541996D01*
X10884458Y-6514219D01*
X10899945Y-6513000D01*
X20964347Y-6513000D01*
X20983660Y-6514902D01*
X20987879Y-6515741D01*
X21000000Y-6518152D01*
X21102617Y-6497740D01*
X21167654Y-6454284D01*
X21167654Y-6454283D01*
X21188273Y-6440507D01*
X21188274Y-6440505D01*
X21189612Y-6439612D01*
X21198864Y-6425764D01*
X21211171Y-6410765D01*
X23079942Y-4541996D01*
X23134459Y-4514219D01*
X23149946Y-4513000D01*
X23214347Y-4513000D01*
X23233660Y-4514902D01*
X23237049Y-4515575D01*
X23250000Y-4518152D01*
X23282648Y-4511658D01*
X23352617Y-4497740D01*
X23439612Y-4439612D01*
X23448868Y-4425757D01*
X23461171Y-4410765D01*
X23663515Y-4208421D01*
X23718030Y-4180646D01*
X23749008Y-4180646D01*
X23750000Y-4180804D01*
X23883126Y-4159719D01*
X23922079Y-4139870D01*
X23982511Y-4130299D01*
X24037028Y-4158075D01*
X24049340Y-4173078D01*
X24054502Y-4180804D01*
X24060388Y-4189612D01*
X24074235Y-4198864D01*
X24089238Y-4211176D01*
X24696058Y-4817996D01*
X24723835Y-4872513D01*
X24714264Y-4932945D01*
X24670999Y-4976210D01*
X24626054Y-4987000D01*
X24035653Y-4987000D01*
X24016340Y-4985098D01*
X24000000Y-4981848D01*
X23974099Y-4987000D01*
X23897383Y-5002260D01*
X23897381Y-5002260D01*
X23897381Y-5002261D01*
X23897380Y-5002261D01*
X23810390Y-5060386D01*
X23810384Y-5060392D01*
X23801132Y-5074238D01*
X23788824Y-5089236D01*
X19589236Y-9288824D01*
X19574238Y-9301132D01*
X19560392Y-9310384D01*
X19560385Y-9310391D01*
X19537559Y-9344552D01*
X19524329Y-9364353D01*
X19502259Y-9397383D01*
X19491649Y-9450730D01*
X19481848Y-9500000D01*
X19485098Y-9516338D01*
X19487000Y-9535652D01*
X19487000Y-10620244D01*
X19468093Y-10678435D01*
X19458004Y-10690247D01*
X19401473Y-10746778D01*
X19401470Y-10746782D01*
X19340282Y-10866870D01*
X19340281Y-10866872D01*
X19319196Y-10999999D01*
X19319196Y-11000000D01*
X19340281Y-11133127D01*
X19340282Y-11133129D01*
X19401470Y-11253217D01*
X19401472Y-11253220D01*
X19496780Y-11348528D01*
X19616874Y-11409719D01*
X19738007Y-11428904D01*
X19738692Y-11429013D01*
X19793209Y-11456790D01*
X19820986Y-11511306D01*
X19840281Y-11633127D01*
X19840282Y-11633129D01*
X19901470Y-11753217D01*
X19901472Y-11753220D01*
X19996780Y-11848528D01*
X20116874Y-11909719D01*
X20250000Y-11930804D01*
X20383126Y-11909719D01*
X20503220Y-11848528D01*
X20598528Y-11753220D01*
X20624134Y-11702963D01*
X20661791Y-11629061D01*
X20705055Y-11585796D01*
X20765487Y-11576225D01*
X20820004Y-11604003D01*
X20838209Y-11629061D01*
X20901470Y-11753217D01*
X20901472Y-11753220D01*
X20996780Y-11848528D01*
X21116874Y-11909719D01*
X21250000Y-11930804D01*
X21383126Y-11909719D01*
X21503220Y-11848528D01*
X21598528Y-11753220D01*
X21624134Y-11702963D01*
X21661791Y-11629061D01*
X21705055Y-11585796D01*
X21765487Y-11576225D01*
X21820004Y-11604003D01*
X21838209Y-11629061D01*
X21901470Y-11753217D01*
X21901472Y-11753220D01*
X21996780Y-11848528D01*
X22116874Y-11909719D01*
X22250000Y-11930804D01*
X22383126Y-11909719D01*
X22503220Y-11848528D01*
X22598528Y-11753220D01*
X22624134Y-11702963D01*
X22661791Y-11629061D01*
X22705055Y-11585796D01*
X22765487Y-11576225D01*
X22820004Y-11604003D01*
X22838209Y-11629061D01*
X22901470Y-11753217D01*
X22901472Y-11753220D01*
X22996780Y-11848528D01*
X23116874Y-11909719D01*
X23250000Y-11930804D01*
X23383126Y-11909719D01*
X23503220Y-11848528D01*
X23598528Y-11753220D01*
X23659719Y-11633126D01*
X23680804Y-11500000D01*
X23659719Y-11366874D01*
X23598528Y-11246780D01*
X23598526Y-11246778D01*
X23541996Y-11190247D01*
X23514219Y-11135730D01*
X23513000Y-11120244D01*
X23513000Y-10259180D01*
X23531907Y-10200989D01*
X23581407Y-10165025D01*
X23627483Y-10161399D01*
X23750000Y-10180804D01*
X23750988Y-10180647D01*
X23751977Y-10180804D01*
X23757792Y-10180804D01*
X23757792Y-10181724D01*
X23811418Y-10190213D01*
X23836485Y-10208423D01*
X24038823Y-10410761D01*
X24051132Y-10425759D01*
X24060388Y-10439612D01*
X24147383Y-10497740D01*
X24174932Y-10503220D01*
X24250000Y-10518152D01*
X24263508Y-10515465D01*
X24266340Y-10514902D01*
X24285653Y-10513000D01*
X27620244Y-10513000D01*
X27678435Y-10531907D01*
X27690247Y-10541996D01*
X27746778Y-10598526D01*
X27746780Y-10598528D01*
X27866874Y-10659719D01*
X28000000Y-10680804D01*
X28133126Y-10659719D01*
X28253220Y-10598528D01*
X28348528Y-10503220D01*
X28409719Y-10383126D01*
X28430804Y-10250000D01*
X28409719Y-10116874D01*
X28348528Y-9996780D01*
X28253220Y-9901472D01*
X28253217Y-9901470D01*
X28133129Y-9840282D01*
X28133127Y-9840281D01*
X28000000Y-9819196D01*
X27866872Y-9840281D01*
X27866870Y-9840282D01*
X27746782Y-9901470D01*
X27746778Y-9901473D01*
X27690247Y-9958004D01*
X27635730Y-9985781D01*
X27620244Y-9987000D01*
X24399946Y-9987000D01*
X24341755Y-9968093D01*
X24329942Y-9958004D01*
X24208423Y-9836485D01*
X24180646Y-9781968D01*
X24180646Y-9750991D01*
X24180804Y-9750000D01*
X24159719Y-9616874D01*
X24098528Y-9496780D01*
X24003220Y-9401472D01*
X23995195Y-9397383D01*
X23937315Y-9367891D01*
X23894051Y-9324626D01*
X23884480Y-9264194D01*
X23912256Y-9209680D01*
X24079942Y-9041996D01*
X24134459Y-9014219D01*
X24149945Y-9013000D01*
X25240819Y-9013000D01*
X25299010Y-9031907D01*
X25334974Y-9081407D01*
X25338600Y-9127487D01*
X25319196Y-9249999D01*
X25319196Y-9250000D01*
X25340281Y-9383127D01*
X25340282Y-9383129D01*
X25401470Y-9503217D01*
X25401472Y-9503220D01*
X25496780Y-9598528D01*
X25616874Y-9659719D01*
X25750000Y-9680804D01*
X25883126Y-9659719D01*
X26003220Y-9598528D01*
X26098528Y-9503220D01*
X26159719Y-9383126D01*
X26180804Y-9250000D01*
X26169844Y-9180804D01*
X26161400Y-9127487D01*
X26170971Y-9067055D01*
X26214236Y-9023790D01*
X26259181Y-9013000D01*
X27709151Y-9013000D01*
X27764152Y-9029684D01*
X27802039Y-9054999D01*
X27809883Y-9060240D01*
X27868207Y-9071841D01*
X27886588Y-9075498D01*
X27886589Y-9075498D01*
X27886599Y-9075500D01*
X29163400Y-9075499D01*
X29240117Y-9060240D01*
X29327112Y-9002112D01*
X29385240Y-8915117D01*
X29400500Y-8838401D01*
X29400499Y-8661600D01*
X29385240Y-8584883D01*
X29365273Y-8555001D01*
X29348665Y-8496114D01*
X29365274Y-8444998D01*
X29385238Y-8415120D01*
X29385238Y-8415119D01*
X29385240Y-8415117D01*
X29400500Y-8338401D01*
X29400499Y-8161600D01*
X29385240Y-8084883D01*
X29365273Y-8055001D01*
X29348665Y-7996114D01*
X29365274Y-7944998D01*
X29385238Y-7915120D01*
X29385238Y-7915119D01*
X29385240Y-7915117D01*
X29400500Y-7838401D01*
X29400499Y-7661600D01*
X29385240Y-7584883D01*
X29365273Y-7555001D01*
X29348665Y-7496114D01*
X29365274Y-7444998D01*
X29385238Y-7415120D01*
X29385238Y-7415119D01*
X29385240Y-7415117D01*
X29400500Y-7338401D01*
X29400499Y-7161600D01*
X29385240Y-7084883D01*
X29365273Y-7055001D01*
X29348665Y-6996114D01*
X29365274Y-6944998D01*
X29385238Y-6915120D01*
X29385238Y-6915119D01*
X29385240Y-6915117D01*
X29400500Y-6838401D01*
X29400499Y-6661600D01*
X29385240Y-6584883D01*
X29365273Y-6555001D01*
X29348665Y-6496114D01*
X29365274Y-6444998D01*
X29385238Y-6415120D01*
X29385238Y-6415119D01*
X29385240Y-6415117D01*
X29400500Y-6338401D01*
X29400499Y-6161600D01*
X29385240Y-6084883D01*
X29365273Y-6055001D01*
X29348665Y-5996114D01*
X29365274Y-5944998D01*
X29385238Y-5915120D01*
X29385238Y-5915119D01*
X29385240Y-5915117D01*
X29400500Y-5838401D01*
X29400499Y-5661600D01*
X29385240Y-5584883D01*
X29365273Y-5555001D01*
X29348665Y-5496114D01*
X29365274Y-5444998D01*
X29385238Y-5415120D01*
X29385238Y-5415119D01*
X29385240Y-5415117D01*
X29400500Y-5338401D01*
X29400499Y-5161600D01*
X29385240Y-5084883D01*
X29385237Y-5084879D01*
X29365274Y-5055002D01*
X29348665Y-4996114D01*
X29365274Y-4944998D01*
X29385238Y-4915120D01*
X29385238Y-4915119D01*
X29385240Y-4915117D01*
X29400500Y-4838401D01*
X29400499Y-4661600D01*
X29385240Y-4584883D01*
X29378970Y-4575500D01*
X29365274Y-4555002D01*
X29348665Y-4496114D01*
X29365274Y-4444998D01*
X29385238Y-4415120D01*
X29385239Y-4415118D01*
X29385240Y-4415117D01*
X29400500Y-4338401D01*
X29400499Y-4161600D01*
X29385240Y-4084883D01*
X29385237Y-4084879D01*
X29327113Y-3997890D01*
X29327112Y-3997888D01*
X29240117Y-3939760D01*
X29240113Y-3939759D01*
X29163411Y-3924501D01*
X29163402Y-3924500D01*
X29163401Y-3924500D01*
X29163399Y-3924500D01*
X27886602Y-3924500D01*
X27886595Y-3924501D01*
X27809883Y-3939759D01*
X27809882Y-3939760D01*
X27764152Y-3970316D01*
X27709151Y-3987000D01*
X25187447Y-3987000D01*
X25129256Y-3968093D01*
X25117443Y-3958004D01*
X25041996Y-3882557D01*
X25014219Y-3828040D01*
X25013000Y-3812553D01*
X25013000Y-2785652D01*
X25014902Y-2766338D01*
X25017511Y-2753220D01*
X25018152Y-2750000D01*
X24997740Y-2647382D01*
X24954284Y-2582345D01*
X24954283Y-2582344D01*
X24952328Y-2579418D01*
X24946290Y-2570382D01*
X24929678Y-2511495D01*
X24930804Y-2500069D01*
X24930804Y-2499999D01*
X24919158Y-2426470D01*
X24909719Y-2366874D01*
X24889526Y-2327244D01*
X24857414Y-2264219D01*
X24848528Y-2246780D01*
X24753220Y-2151472D01*
X24753217Y-2151470D01*
X24633129Y-2090282D01*
X24633127Y-2090281D01*
X24500000Y-2069196D01*
X24366872Y-2090281D01*
X24366870Y-2090282D01*
X24246782Y-2151470D01*
X24151470Y-2246782D01*
X24090282Y-2366870D01*
X24090281Y-2366872D01*
X24073264Y-2474316D01*
X24069196Y-2500000D01*
X24090281Y-2633126D01*
X24131522Y-2714065D01*
X24134613Y-2720132D01*
X24144184Y-2780564D01*
X24116407Y-2835081D01*
X24091348Y-2853287D01*
X24029867Y-2884613D01*
X23969435Y-2894184D01*
X23914918Y-2866406D01*
X23896714Y-2841351D01*
X23848528Y-2746780D01*
X23753220Y-2651472D01*
X23753217Y-2651470D01*
X23633129Y-2590282D01*
X23633127Y-2590281D01*
X23500000Y-2569196D01*
X23366872Y-2590281D01*
X23366870Y-2590282D01*
X23246782Y-2651470D01*
X23246778Y-2651473D01*
X23190247Y-2708004D01*
X23135730Y-2735781D01*
X23120244Y-2737000D01*
X22035653Y-2737000D01*
X22016340Y-2735098D01*
X22000000Y-2731848D01*
X21974099Y-2737000D01*
X21908745Y-2750000D01*
X21897382Y-2752259D01*
X21841648Y-2789501D01*
X21810390Y-2810386D01*
X21810384Y-2810392D01*
X21801132Y-2824238D01*
X21788824Y-2839236D01*
X19670058Y-4958004D01*
X19615541Y-4985781D01*
X19600054Y-4987000D01*
X16123945Y-4987000D01*
X16065754Y-4968093D01*
X16029790Y-4918593D01*
X16029790Y-4857407D01*
X16053941Y-4817996D01*
X16625156Y-4246782D01*
X18579943Y-2291996D01*
X18634460Y-2264219D01*
X18649947Y-2263000D01*
X18740819Y-2263000D01*
X18799010Y-2281907D01*
X18834974Y-2331407D01*
X18838600Y-2377487D01*
X18827493Y-2447617D01*
X18819196Y-2500000D01*
X18840281Y-2633126D01*
X18876931Y-2705055D01*
X18893717Y-2738000D01*
X18903288Y-2798432D01*
X18875511Y-2852948D01*
X18796776Y-2931683D01*
X18796774Y-2931686D01*
X18746029Y-3040510D01*
X18746028Y-3040511D01*
X18746028Y-3040513D01*
X18741344Y-3076096D01*
X18739500Y-3090100D01*
X18739500Y-3449895D01*
X18739501Y-3449907D01*
X18746027Y-3499486D01*
X18746027Y-3499488D01*
X18796774Y-3608313D01*
X18796775Y-3608314D01*
X18796776Y-3608316D01*
X18881684Y-3693224D01*
X18990513Y-3743972D01*
X19040099Y-3750500D01*
X19459900Y-3750499D01*
X19509487Y-3743972D01*
X19509488Y-3743972D01*
X19573620Y-3714066D01*
X19618316Y-3693224D01*
X19703224Y-3608316D01*
X19753972Y-3499487D01*
X19760500Y-3449901D01*
X19760499Y-3090100D01*
X19753972Y-3040513D01*
X19753972Y-3040511D01*
X19703225Y-2931686D01*
X19703224Y-2931685D01*
X19703224Y-2931684D01*
X19624486Y-2852946D01*
X19596711Y-2798432D01*
X19606281Y-2738002D01*
X19659719Y-2633126D01*
X19680804Y-2500000D01*
X19672507Y-2447617D01*
X19661400Y-2377487D01*
X19670971Y-2317055D01*
X19714236Y-2273790D01*
X19759181Y-2263000D01*
X20698138Y-2263000D01*
X20756329Y-2281907D01*
X20792293Y-2331407D01*
X20795919Y-2346513D01*
X20810995Y-2441699D01*
X20810996Y-2441701D01*
X20871610Y-2560662D01*
X20872186Y-2561792D01*
X20967494Y-2657100D01*
X21087588Y-2718291D01*
X21220714Y-2739376D01*
X21353840Y-2718291D01*
X21473934Y-2657100D01*
X21569242Y-2561792D01*
X21630433Y-2441698D01*
X21651518Y-2308572D01*
X21630433Y-2175446D01*
X21569242Y-2055352D01*
X21473934Y-1960044D01*
X21473931Y-1960042D01*
X21353843Y-1898854D01*
X21353841Y-1898853D01*
X21220715Y-1877768D01*
X21220710Y-1877768D01*
X21219712Y-1877926D01*
X21218715Y-1877768D01*
X21212924Y-1877768D01*
X21212924Y-1876850D01*
X21159280Y-1868350D01*
X21134228Y-1850148D01*
X21123318Y-1839238D01*
X21111005Y-1824233D01*
X21101755Y-1810389D01*
X21101751Y-1810385D01*
X21065157Y-1785935D01*
X21014761Y-1752261D01*
X21014760Y-1752260D01*
X21014759Y-1752260D01*
X20912142Y-1731848D01*
X20912140Y-1731848D01*
X20895802Y-1735098D01*
X20876489Y-1737000D01*
X18535653Y-1737000D01*
X18516340Y-1735098D01*
X18500000Y-1731848D01*
X18397381Y-1752259D01*
X18332387Y-1795688D01*
X18310389Y-1810387D01*
X18310384Y-1810392D01*
X18301134Y-1824235D01*
X18288826Y-1839233D01*
X15670058Y-4458004D01*
X15615541Y-4485781D01*
X15600054Y-4487000D01*
X11129756Y-4487000D01*
X11071565Y-4468093D01*
X11059753Y-4458004D01*
X11003221Y-4401473D01*
X11003217Y-4401470D01*
X10883129Y-4340282D01*
X10883127Y-4340281D01*
X10750000Y-4319196D01*
X10616872Y-4340281D01*
X10616870Y-4340282D01*
X10496782Y-4401470D01*
X10401470Y-4496782D01*
X10340282Y-4616870D01*
X10340281Y-4616872D01*
X10319196Y-4749998D01*
X10319196Y-4750000D01*
X10319354Y-4750998D01*
X10319196Y-4751995D01*
X10319196Y-4757791D01*
X10318278Y-4757791D01*
X10309780Y-4811430D01*
X10291576Y-4836484D01*
X10170059Y-4958003D01*
X10115543Y-4985781D01*
X10100055Y-4987000D01*
X6290849Y-4987000D01*
X6235848Y-4970316D01*
X6190119Y-4939761D01*
X6190117Y-4939760D01*
X6190114Y-4939759D01*
X6190113Y-4939759D01*
X6113411Y-4924501D01*
X6113402Y-4924500D01*
X6113401Y-4924500D01*
X6113399Y-4924500D01*
X4836602Y-4924500D01*
X4836595Y-4924501D01*
X4759883Y-4939759D01*
X4759881Y-4939760D01*
X4672890Y-4997886D01*
X4672886Y-4997890D01*
X4614762Y-5084879D01*
X4614759Y-5084886D01*
X4599501Y-5161589D01*
X4599500Y-5161599D01*
X4599500Y-5338397D01*
X4599501Y-5338404D01*
X4614759Y-5415115D01*
X4614759Y-5415116D01*
X4614760Y-5415117D01*
X4634726Y-5444999D01*
X4651334Y-5503887D01*
X4634727Y-5554999D01*
X4614761Y-5584880D01*
X4614759Y-5584886D01*
X4599501Y-5661589D01*
X4599500Y-5661599D01*
X4599500Y-5838397D01*
X4599501Y-5838404D01*
X4614759Y-5915115D01*
X4614759Y-5915116D01*
X4614760Y-5915117D01*
X4634726Y-5944999D01*
X4651334Y-6003887D01*
X4634727Y-6054999D01*
X4614761Y-6084880D01*
X4614759Y-6084886D01*
X4599501Y-6161589D01*
X4599500Y-6161599D01*
X4599500Y-6338397D01*
X4599501Y-6338407D01*
X4604500Y-6363536D01*
X4597308Y-6424297D01*
X4555774Y-6469226D01*
X4507402Y-6481848D01*
X4500001Y-6481848D01*
X4500000Y-6481848D01*
X4485398Y-6484752D01*
X4397381Y-6502259D01*
X4329807Y-6547412D01*
X4329800Y-6547415D01*
X4320374Y-6553714D01*
X4261485Y-6570321D01*
X4250063Y-6569196D01*
X4250000Y-6569196D01*
X4116872Y-6590281D01*
X4116870Y-6590282D01*
X3996782Y-6651470D01*
X3901470Y-6746782D01*
X3840282Y-6866870D01*
X3840281Y-6866872D01*
X3819196Y-6999999D01*
X3819196Y-7000000D01*
X200500Y-7000000D01*
X200500Y-6401000D01*
X544500Y-6401000D01*
X546846Y-6430804D01*
X547030Y-6433142D01*
X547030Y-6433143D01*
X551875Y-6463738D01*
X552647Y-6468284D01*
X552647Y-6468286D01*
X588591Y-6552382D01*
X590495Y-6555002D01*
X624556Y-6601883D01*
X648797Y-6629628D01*
X727307Y-6676536D01*
X785498Y-6695443D01*
X793126Y-6696651D01*
X848996Y-6705500D01*
X849000Y-6705500D01*
X1689695Y-6705500D01*
X1749347Y-6696652D01*
X1804348Y-6679968D01*
X1858866Y-6654183D01*
X1870086Y-6646686D01*
X1925089Y-6630000D01*
X3124910Y-6630000D01*
X3179909Y-6646683D01*
X3191138Y-6654186D01*
X3191141Y-6654187D01*
X3191142Y-6654188D01*
X3245652Y-6679968D01*
X3300649Y-6696651D01*
X3300650Y-6696651D01*
X3300653Y-6696652D01*
X3360305Y-6705500D01*
X3400996Y-6705500D01*
X3401000Y-6705500D01*
X3433144Y-6702970D01*
X3448440Y-6700547D01*
X3463738Y-6698125D01*
X3464874Y-6697931D01*
X3468287Y-6697352D01*
X3552383Y-6661408D01*
X3601883Y-6625444D01*
X3629628Y-6601203D01*
X3676536Y-6522693D01*
X3695443Y-6464502D01*
X3701578Y-6425767D01*
X3705500Y-6401003D01*
X3705500Y-4338397D01*
X4599500Y-4338397D01*
X4599501Y-4338404D01*
X4614759Y-4415116D01*
X4614760Y-4415118D01*
X4663921Y-4488692D01*
X4672888Y-4502112D01*
X4759883Y-4560240D01*
X4813906Y-4570986D01*
X4836588Y-4575498D01*
X4836589Y-4575498D01*
X4836599Y-4575500D01*
X6113400Y-4575499D01*
X6190117Y-4560240D01*
X6235848Y-4529684D01*
X6290849Y-4513000D01*
X8132258Y-4513000D01*
X8151571Y-4514902D01*
X8154960Y-4515575D01*
X8167911Y-4518152D01*
X8200559Y-4511658D01*
X8270528Y-4497740D01*
X8357523Y-4439612D01*
X8366779Y-4425757D01*
X8379082Y-4410765D01*
X9497853Y-3291996D01*
X9552370Y-3264219D01*
X9567857Y-3263000D01*
X12370244Y-3263000D01*
X12428435Y-3281907D01*
X12440247Y-3291996D01*
X12471898Y-3323646D01*
X12496780Y-3348528D01*
X12616874Y-3409719D01*
X12750000Y-3430804D01*
X12883126Y-3409719D01*
X12883129Y-3409717D01*
X12890538Y-3407311D01*
X12891461Y-3410154D01*
X12938542Y-3402681D01*
X12993068Y-3430440D01*
X13020864Y-3484947D01*
X13021241Y-3487543D01*
X13025932Y-3523174D01*
X13025932Y-3523175D01*
X13075933Y-3630401D01*
X13075934Y-3630402D01*
X13075935Y-3630404D01*
X13159596Y-3714065D01*
X13159597Y-3714065D01*
X13159598Y-3714066D01*
X13266824Y-3764067D01*
X13266825Y-3764067D01*
X13266827Y-3764068D01*
X13315684Y-3770500D01*
X13315685Y-3770500D01*
X13664314Y-3770500D01*
X13664316Y-3770500D01*
X13713173Y-3764068D01*
X13820404Y-3714065D01*
X13904065Y-3630404D01*
X13910275Y-3617085D01*
X13952003Y-3572337D01*
X14012064Y-3560662D01*
X14067517Y-3586519D01*
X14089724Y-3617084D01*
X14095935Y-3630404D01*
X14179596Y-3714065D01*
X14179597Y-3714065D01*
X14179598Y-3714066D01*
X14286824Y-3764067D01*
X14286825Y-3764067D01*
X14286827Y-3764068D01*
X14335684Y-3770500D01*
X14335685Y-3770500D01*
X14684314Y-3770500D01*
X14684316Y-3770500D01*
X14733173Y-3764068D01*
X14840404Y-3714065D01*
X14924065Y-3630404D01*
X14974068Y-3523173D01*
X14980500Y-3474316D01*
X14980500Y-3432444D01*
X14999407Y-3374253D01*
X15009490Y-3362446D01*
X15163514Y-3208422D01*
X15218029Y-3180646D01*
X15249002Y-3180646D01*
X15250000Y-3180804D01*
X15383126Y-3159719D01*
X15503220Y-3098528D01*
X15598528Y-3003220D01*
X15659719Y-2883126D01*
X15680804Y-2750000D01*
X15659719Y-2616874D01*
X15598528Y-2496780D01*
X15503220Y-2401472D01*
X15503217Y-2401470D01*
X15383129Y-2340282D01*
X15383127Y-2340281D01*
X15250001Y-2319196D01*
X15249996Y-2319196D01*
X15248998Y-2319354D01*
X15248001Y-2319196D01*
X15242210Y-2319196D01*
X15242210Y-2318278D01*
X15188566Y-2309778D01*
X15163514Y-2291576D01*
X15009496Y-2137558D01*
X14981719Y-2083041D01*
X14980500Y-2067554D01*
X14980500Y-2025685D01*
X14975407Y-1987000D01*
X14974068Y-1976827D01*
X14951142Y-1927663D01*
X14924066Y-1869598D01*
X14924065Y-1869597D01*
X14924065Y-1869596D01*
X14840404Y-1785935D01*
X14840402Y-1785934D01*
X14840401Y-1785933D01*
X14733175Y-1735932D01*
X14700601Y-1731644D01*
X14684316Y-1729500D01*
X14335684Y-1729500D01*
X14319398Y-1731644D01*
X14286825Y-1735932D01*
X14286824Y-1735932D01*
X14179598Y-1785933D01*
X14095933Y-1869598D01*
X14089724Y-1882915D01*
X14047995Y-1927663D01*
X13987934Y-1939337D01*
X13932482Y-1913478D01*
X13910276Y-1882915D01*
X13904066Y-1869598D01*
X13904065Y-1869597D01*
X13904065Y-1869596D01*
X13820404Y-1785935D01*
X13820402Y-1785934D01*
X13820401Y-1785933D01*
X13713175Y-1735932D01*
X13680601Y-1731644D01*
X13664316Y-1729500D01*
X13315684Y-1729500D01*
X13299398Y-1731644D01*
X13266825Y-1735932D01*
X13266824Y-1735932D01*
X13159598Y-1785933D01*
X13159595Y-1785935D01*
X13081134Y-1864396D01*
X13026617Y-1892173D01*
X12966186Y-1882602D01*
X12930454Y-1864396D01*
X12883126Y-1840281D01*
X12750000Y-1819196D01*
X12616872Y-1840281D01*
X12616870Y-1840282D01*
X12496782Y-1901470D01*
X12496778Y-1901473D01*
X12440247Y-1958004D01*
X12385730Y-1985781D01*
X12370244Y-1987000D01*
X9517921Y-1987000D01*
X9498608Y-1985098D01*
X9482268Y-1981848D01*
X9379649Y-2002259D01*
X9314655Y-2045688D01*
X9292657Y-2060387D01*
X9292652Y-2060392D01*
X9283402Y-2074235D01*
X9271094Y-2089232D01*
X7902326Y-3458003D01*
X7847809Y-3485781D01*
X7832322Y-3487000D01*
X6290849Y-3487000D01*
X6235848Y-3470316D01*
X6190119Y-3439761D01*
X6190117Y-3439760D01*
X6190114Y-3439759D01*
X6190113Y-3439759D01*
X6113411Y-3424501D01*
X6113402Y-3424500D01*
X6113401Y-3424500D01*
X6113399Y-3424500D01*
X4836602Y-3424500D01*
X4836595Y-3424501D01*
X4759883Y-3439759D01*
X4759881Y-3439760D01*
X4672890Y-3497886D01*
X4672886Y-3497890D01*
X4614762Y-3584879D01*
X4614759Y-3584886D01*
X4599501Y-3661589D01*
X4599500Y-3661599D01*
X4599500Y-3838397D01*
X4599501Y-3838404D01*
X4614759Y-3915115D01*
X4614759Y-3915116D01*
X4614760Y-3915117D01*
X4634726Y-3944999D01*
X4651334Y-4003887D01*
X4634727Y-4054999D01*
X4614761Y-4084880D01*
X4614759Y-4084886D01*
X4599501Y-4161589D01*
X4599500Y-4161599D01*
X4599500Y-4338397D01*
X3705500Y-4338397D01*
X3705500Y-2775000D01*
X6569196Y-2775000D01*
X6590281Y-2908127D01*
X6590282Y-2908129D01*
X6651470Y-3028217D01*
X6651472Y-3028220D01*
X6746780Y-3123528D01*
X6866874Y-3184719D01*
X7000000Y-3205804D01*
X7133126Y-3184719D01*
X7253220Y-3123528D01*
X7348528Y-3028220D01*
X7409719Y-2908126D01*
X7430804Y-2775000D01*
X7409719Y-2641874D01*
X7348528Y-2521780D01*
X7253220Y-2426472D01*
X7253217Y-2426470D01*
X7133129Y-2365282D01*
X7133127Y-2365281D01*
X7000000Y-2344196D01*
X6866872Y-2365281D01*
X6866870Y-2365282D01*
X6746782Y-2426470D01*
X6651470Y-2521782D01*
X6590282Y-2641870D01*
X6590281Y-2641872D01*
X6569196Y-2774999D01*
X6569196Y-2775000D01*
X3705500Y-2775000D01*
X3705500Y-2599004D01*
X3704813Y-2590281D01*
X3702970Y-2566856D01*
X3698125Y-2536263D01*
X3697352Y-2531713D01*
X3661408Y-2447617D01*
X3625444Y-2398117D01*
X3601203Y-2370372D01*
X3522693Y-2323464D01*
X3522691Y-2323463D01*
X3522689Y-2323462D01*
X3464499Y-2304556D01*
X3464500Y-2304556D01*
X3401003Y-2294500D01*
X3401000Y-2294500D01*
X1782248Y-2294500D01*
X1782231Y-2294500D01*
X1779995Y-2294516D01*
X1779992Y-2294517D01*
X1715034Y-2305555D01*
X1715031Y-2305556D01*
X1657135Y-2325345D01*
X1600302Y-2355398D01*
X686816Y-3040513D01*
X666300Y-3055900D01*
X643193Y-3076095D01*
X643192Y-3076096D01*
X622500Y-3097104D01*
X620375Y-3099293D01*
X620369Y-3099301D01*
X573466Y-3177803D01*
X573462Y-3177810D01*
X554556Y-3235999D01*
X544500Y-3299496D01*
X544500Y-3299500D01*
X544500Y-6401000D01*
X200500Y-6401000D01*
X200500Y-2374057D01*
X219407Y-2315866D01*
X229496Y-2304053D01*
X2304054Y-229496D01*
X2358571Y-201719D01*
X2374058Y-200500D01*
X31625943Y-200500D01*
X31684134Y-219407D01*
G37*
%TD.AperFunction*%
%TD*%
%TA.AperFunction,Conductor*%
%TO.N,VCC*%
G36*
X3459191Y-2518907D02*
G01*
X3495155Y-2568407D01*
X3500000Y-2599000D01*
X3500000Y-6401000D01*
X3481093Y-6459191D01*
X3431593Y-6495155D01*
X3401000Y-6500000D01*
X3360305Y-6500000D01*
X3305304Y-6483316D01*
X3240119Y-6439761D01*
X3240117Y-6439760D01*
X3240114Y-6439759D01*
X3240113Y-6439759D01*
X3163411Y-6424501D01*
X3163402Y-6424500D01*
X3163401Y-6424500D01*
X3163399Y-6424500D01*
X1886602Y-6424500D01*
X1886595Y-6424501D01*
X1809883Y-6439759D01*
X1809882Y-6439760D01*
X1744696Y-6483316D01*
X1689695Y-6500000D01*
X849000Y-6500000D01*
X790809Y-6481093D01*
X754845Y-6431593D01*
X750000Y-6401000D01*
X750000Y-3299500D01*
X768907Y-3241309D01*
X789600Y-3220300D01*
X1723600Y-2519800D01*
X1781497Y-2500011D01*
X1783000Y-2500000D01*
X3401000Y-2500000D01*
X3459191Y-2518907D01*
G37*
%TD.AperFunction*%
%TD*%
M02*
