M48
; DRILL file {KiCad 7.0.8} date Wed Nov  8 19:53:20 2023
; FORMAT={-:-/ absolute / inch / decimal}
; #@! TF.CreationDate,2023-11-08T19:53:20+10:00
; #@! TF.GenerationSoftware,Kicad,Pcbnew,7.0.8
; #@! TF.FileFunction,Plated,1,4,PTH
FMAT,2
INCH
; #@! TA.AperFunction,Plated,PTH,ViaDrill
T1C0.0118
%
G90
G05
T1
X0.0492Y-0.1378
X0.0492Y-0.1772
X0.0492Y-0.2165
X0.0492Y-0.2559
X0.0492Y-0.2953
X0.0492Y-0.3346
X0.0984Y-0.0984
X0.0984Y-0.374
X0.2067Y-0.0453
X0.2657Y-0.2854
X0.2657Y-0.3248
X0.2854Y-0.2657
X0.2854Y-0.3051
X0.2854Y-0.3445
X0.3051Y-0.2461
X0.315Y-0.0482
X0.315Y-0.1093
X0.3642Y-0.05
X0.3642Y-0.1665
X0.4232Y-0.0197
X0.4232Y-0.187
X0.4921Y-0.1575
X0.502Y-0.0594
X0.502Y-0.1177
X0.5323Y-0.4921
X0.5417Y-0.0591
X0.5417Y-0.1181
X0.56Y-0.2854
X0.56Y-0.3445
X0.5913Y-0.3937
X0.6211Y-0.3445
X0.6299Y-0.0992
X0.6299Y-0.137
X0.6398Y-0.0205
X0.6594Y-0.3543
X0.689Y-0.3937
X0.7185Y-0.1673
X0.7185Y-0.2657
X0.7185Y-0.3248
X0.7579Y-0.0984
X0.7579Y-0.2657
X0.7579Y-0.3051
X0.7579Y-0.4035
X0.7677Y-0.0583
X0.7776Y-0.4232
X0.7972Y-0.4429
X0.8063Y-0.4921
X0.8071Y-0.2657
X0.8079Y-0.0295
X0.8169Y-0.2264
X0.8268Y-0.4528
X0.8355Y-0.0909
X0.8366Y-0.4232
X0.8465Y-0.1969
X0.8563Y-0.4429
X0.8583Y-0.065
X0.876Y-0.1673
X0.876Y-0.4232
X0.8957Y-0.0591
X0.8957Y-0.4035
X0.9154Y-0.1378
X0.9154Y-0.374
X0.935Y-0.1181
X0.9449Y-0.0591
X0.9547Y-0.1476
X0.9646Y-0.3831
X0.9744Y-0.0984
X0.9793Y-0.1329
X0.9941Y-0.0591
X1.0039Y-0.3642
X1.0531Y-0.1476
X1.1811Y-0.1476
X1.2894Y-0.1673
X1.2894Y-0.2067
X1.2894Y-0.2461
X1.2894Y-0.2854
X1.2894Y-0.3248
X1.3091Y-0.1476
X1.3091Y-0.187
X1.3091Y-0.2264
X1.3091Y-0.2657
X1.3091Y-0.3051
T0
M30
