M48
; DRILL file {KiCad 7.0.8} date Sat Nov 11 12:07:02 2023
; FORMAT={-:-/ absolute / inch / decimal}
; #@! TF.CreationDate,2023-11-11T12:07:02+10:00
; #@! TF.GenerationSoftware,Kicad,Pcbnew,7.0.8
; #@! TF.FileFunction,Plated,1,4,PTH
FMAT,2
INCH
; #@! TA.AperFunction,Plated,PTH,ViaDrill
T1C0.0118
%
G90
G05
T1
X0.0492Y-0.1575
X0.0492Y-0.1969
X0.0492Y-0.2362
X0.0492Y-0.2756
X0.0492Y-0.315
X0.0492Y-0.3543
X0.0984Y-0.1181
X0.0984Y-0.3937
X0.1181Y-0.0295
X0.1476Y-0.315
X0.1476Y-0.3543
X0.1673Y-0.1673
X0.1673Y-0.2756
X0.2657Y-0.3051
X0.2657Y-0.3445
X0.2756Y-0.0482
X0.2756Y-0.1093
X0.2854Y-0.2854
X0.2854Y-0.3248
X0.2854Y-0.3642
X0.3346Y-0.187
X0.4035Y-0.0197
X0.4035Y-0.1575
X0.4232Y-0.187
X0.4921Y-0.1575
X0.502Y-0.0886
X0.502Y-0.1181
X0.502Y-0.4921
X0.5217Y-0.3051
X0.5217Y-0.3445
X0.5589Y-0.3932
X0.5709Y-0.4528
X0.6004Y-0.1083
X0.6102Y-0.0197
X0.627Y-0.3445
X0.6693Y-0.0984
X0.6693Y-0.3543
X0.689Y-0.3937
X0.7283Y-0.1772
X0.7382Y-0.2657
X0.7382Y-0.3051
X0.7579Y-0.0984
X0.7579Y-0.4626
X0.7776Y-0.4331
X0.7874Y-0.1673
X0.7972Y-0.0591
X0.7972Y-0.2657
X0.7972Y-0.3051
X0.7972Y-0.4528
X0.8169Y-0.4331
X0.8355Y-0.0909
X0.8366Y-0.4528
X0.8366Y-0.4921
X0.8563Y-0.187
X0.8563Y-0.2657
X0.8563Y-0.4331
X0.8583Y-0.065
X0.876Y-0.4528
X0.8957Y-0.0591
X0.8957Y-0.4319
X0.9055Y-0.1378
X0.9154Y-0.4528
X0.9252Y-0.1181
X0.935Y-0.1476
X0.935Y-0.3839
X0.935Y-0.4331
X0.9449Y-0.0591
X0.9547Y-0.128
X0.9646Y-0.0984
X0.9941Y-0.0591
X0.9941Y-0.0984
X0.9941Y-0.128
X0.9941Y-0.3839
X1.0138Y-0.1476
X1.0138Y-0.3642
X1.0531Y-0.1476
X1.1024Y-0.4035
X1.1811Y-0.1476
X1.1811Y-0.4331
X1.2402Y-0.3937
X1.2697Y-0.4134
X1.2795Y-0.3839
X1.2992Y-0.1772
X1.2992Y-0.2165
X1.2992Y-0.2559
X1.2992Y-0.3543
X1.3189Y-0.1476
X1.3189Y-0.1969
X1.3189Y-0.2362
X1.3189Y-0.2756
X1.3189Y-0.3051
X1.3189Y-0.3346
T0
M30
