%TF.GenerationSoftware,KiCad,Pcbnew,7.0.8*%
%TF.CreationDate,2023-11-08T19:53:20+10:00*%
%TF.ProjectId,ControllerBoard,436f6e74-726f-46c6-9c65-72426f617264,rev?*%
%TF.SameCoordinates,Original*%
%TF.FileFunction,Copper,L1,Top*%
%TF.FilePolarity,Positive*%
%FSLAX46Y46*%
G04 Gerber Fmt 4.6, Leading zero omitted, Abs format (unit mm)*
G04 Created by KiCad (PCBNEW 7.0.8) date 2023-11-08 19:53:20*
%MOMM*%
%LPD*%
G01*
G04 APERTURE LIST*
G04 Aperture macros list*
%AMRoundRect*
0 Rectangle with rounded corners*
0 $1 Rounding radius*
0 $2 $3 $4 $5 $6 $7 $8 $9 X,Y pos of 4 corners*
0 Add a 4 corners polygon primitive as box body*
4,1,4,$2,$3,$4,$5,$6,$7,$8,$9,$2,$3,0*
0 Add four circle primitives for the rounded corners*
1,1,$1+$1,$2,$3*
1,1,$1+$1,$4,$5*
1,1,$1+$1,$6,$7*
1,1,$1+$1,$8,$9*
0 Add four rect primitives between the rounded corners*
20,1,$1+$1,$2,$3,$4,$5,0*
20,1,$1+$1,$4,$5,$6,$7,0*
20,1,$1+$1,$6,$7,$8,$9,0*
20,1,$1+$1,$8,$9,$2,$3,0*%
G04 Aperture macros list end*
%TA.AperFunction,SMDPad,CuDef*%
%ADD10R,1.000000X1.800000*%
%TD*%
%TA.AperFunction,SMDPad,CuDef*%
%ADD11RoundRect,0.050000X0.050000X-0.350000X0.050000X0.350000X-0.050000X0.350000X-0.050000X-0.350000X0*%
%TD*%
%TA.AperFunction,SMDPad,CuDef*%
%ADD12RoundRect,0.050000X0.350000X-0.050000X0.350000X0.050000X-0.350000X0.050000X-0.350000X-0.050000X0*%
%TD*%
%TA.AperFunction,SMDPad,CuDef*%
%ADD13R,4.600000X4.600000*%
%TD*%
%TA.AperFunction,SMDPad,CuDef*%
%ADD14RoundRect,0.140000X0.170000X-0.140000X0.170000X0.140000X-0.170000X0.140000X-0.170000X-0.140000X0*%
%TD*%
%TA.AperFunction,SMDPad,CuDef*%
%ADD15RoundRect,0.225000X0.225000X0.250000X-0.225000X0.250000X-0.225000X-0.250000X0.225000X-0.250000X0*%
%TD*%
%TA.AperFunction,SMDPad,CuDef*%
%ADD16R,0.375000X0.350000*%
%TD*%
%TA.AperFunction,SMDPad,CuDef*%
%ADD17R,0.350000X0.375000*%
%TD*%
%TA.AperFunction,SMDPad,CuDef*%
%ADD18R,0.500000X0.320000*%
%TD*%
%TA.AperFunction,SMDPad,CuDef*%
%ADD19RoundRect,0.225000X0.250000X-0.225000X0.250000X0.225000X-0.250000X0.225000X-0.250000X-0.225000X0*%
%TD*%
%TA.AperFunction,SMDPad,CuDef*%
%ADD20RoundRect,0.140000X0.140000X0.170000X-0.140000X0.170000X-0.140000X-0.170000X0.140000X-0.170000X0*%
%TD*%
%TA.AperFunction,SMDPad,CuDef*%
%ADD21R,0.600000X0.500000*%
%TD*%
%TA.AperFunction,SMDPad,CuDef*%
%ADD22RoundRect,0.147500X0.147500X0.172500X-0.147500X0.172500X-0.147500X-0.172500X0.147500X-0.172500X0*%
%TD*%
%TA.AperFunction,SMDPad,CuDef*%
%ADD23RoundRect,0.250000X-0.312500X-0.625000X0.312500X-0.625000X0.312500X0.625000X-0.312500X0.625000X0*%
%TD*%
%TA.AperFunction,SMDPad,CuDef*%
%ADD24RoundRect,0.140000X-0.170000X0.140000X-0.170000X-0.140000X0.170000X-0.140000X0.170000X0.140000X0*%
%TD*%
%TA.AperFunction,SMDPad,CuDef*%
%ADD25RoundRect,0.135000X0.185000X-0.135000X0.185000X0.135000X-0.185000X0.135000X-0.185000X-0.135000X0*%
%TD*%
%TA.AperFunction,SMDPad,CuDef*%
%ADD26RoundRect,0.140000X-0.140000X-0.170000X0.140000X-0.170000X0.140000X0.170000X-0.140000X0.170000X0*%
%TD*%
%TA.AperFunction,SMDPad,CuDef*%
%ADD27RoundRect,0.200000X-0.800000X0.200000X-0.800000X-0.200000X0.800000X-0.200000X0.800000X0.200000X0*%
%TD*%
%TA.AperFunction,ViaPad*%
%ADD28C,0.450000*%
%TD*%
%TA.AperFunction,Conductor*%
%ADD29C,0.125000*%
%TD*%
%TA.AperFunction,Conductor*%
%ADD30C,0.550000*%
%TD*%
%TA.AperFunction,Conductor*%
%ADD31C,0.590000*%
%TD*%
%TA.AperFunction,Conductor*%
%ADD32C,0.200000*%
%TD*%
G04 APERTURE END LIST*
D10*
%TO.P,Y1,1,1*%
%TO.N,/Microcontroller/XL2*%
X18250000Y-11750000D03*
%TO.P,Y1,2,2*%
%TO.N,/Microcontroller/XL1*%
X15750000Y-11750000D03*
%TD*%
D11*
%TO.P,U3,1,DEC1*%
%TO.N,/Microcontroller/DEC1*%
X18050000Y-9200000D03*
%TO.P,U3,2,P0.00/XL1*%
%TO.N,/Microcontroller/XL1*%
X18450000Y-9200000D03*
%TO.P,U3,3,P0.01/XL2*%
%TO.N,/Microcontroller/XL2*%
X18850000Y-9200000D03*
%TO.P,U3,4,P0.02/AIN0*%
%TO.N,/Connectors/COL0*%
X19250000Y-9200000D03*
%TO.P,U3,5,P0.03/AIN1*%
%TO.N,/Connectors/COL1*%
X19650000Y-9200000D03*
%TO.P,U3,6,P0.04/AIN2*%
%TO.N,/Connectors/COL2*%
X20050000Y-9200000D03*
%TO.P,U3,7,P0.05/AIN3*%
%TO.N,/Connectors/COL3*%
X20450000Y-9200000D03*
%TO.P,U3,8,P0.06*%
%TO.N,/Connectors/COL4*%
X20850000Y-9200000D03*
%TO.P,U3,9,P0.07*%
%TO.N,/Connectors/COL5*%
X21250000Y-9200000D03*
%TO.P,U3,10,P0.08*%
%TO.N,/Connectors/COL6*%
X21650000Y-9200000D03*
%TO.P,U3,11,P0.09*%
%TO.N,/Connectors/COL7*%
X22050000Y-9200000D03*
%TO.P,U3,12,P0.10*%
%TO.N,/Connectors/COL8*%
X22450000Y-9200000D03*
D12*
%TO.P,U3,13,VDD*%
%TO.N,VCC*%
X23200000Y-8450000D03*
%TO.P,U3,14,P0.11*%
%TO.N,/Microcontroller/ROW9_R*%
X23200000Y-8050000D03*
%TO.P,U3,15,P0.12*%
%TO.N,/Microcontroller/ROW8_R*%
X23200000Y-7650000D03*
%TO.P,U3,16,P0.13*%
%TO.N,/Microcontroller/ROW7_R*%
X23200000Y-7250000D03*
%TO.P,U3,17,P0.14*%
%TO.N,/Microcontroller/ROW6_R*%
X23200000Y-6850000D03*
%TO.P,U3,18,P0.15*%
%TO.N,/Microcontroller/ROW5_R*%
X23200000Y-6450000D03*
%TO.P,U3,19,P0.16*%
%TO.N,/Microcontroller/ROW4_R*%
X23200000Y-6050000D03*
%TO.P,U3,20,P0.17*%
%TO.N,/Microcontroller/ROW3_R*%
X23200000Y-5650000D03*
%TO.P,U3,21,P0.18*%
%TO.N,/Microcontroller/ROW2_R*%
X23200000Y-5250000D03*
%TO.P,U3,22,P0.19*%
%TO.N,/Microcontroller/ROW1_R*%
X23200000Y-4850000D03*
%TO.P,U3,23,P0.20*%
%TO.N,/Microcontroller/ROW0_R*%
X23200000Y-4450000D03*
%TO.P,U3,24,P0.21/~{RESET}*%
%TO.N,/Microcontroller/RESET*%
X23200000Y-4050000D03*
D11*
%TO.P,U3,25,SWDCLK*%
%TO.N,/Connectors/SWDCLK*%
X22450000Y-3300000D03*
%TO.P,U3,26,SWDIO*%
%TO.N,/Connectors/SWDIO*%
X22050000Y-3300000D03*
%TO.P,U3,27,P0.22*%
%TO.N,/Connectors/COL10*%
X21650000Y-3300000D03*
%TO.P,U3,28,P0.23*%
%TO.N,/Connectors/COL9*%
X21250000Y-3300000D03*
%TO.P,U3,29,P0.24*%
%TO.N,/Accelerometer/INT1*%
X20850000Y-3300000D03*
%TO.P,U3,30,ANT*%
%TO.N,/Microcontroller/ANT1*%
X20450000Y-3300000D03*
%TO.P,U3,31,VSS*%
%TO.N,GND*%
X20050000Y-3300000D03*
%TO.P,U3,32,DEC2*%
%TO.N,unconnected-(U3-DEC2-Pad32)*%
X19650000Y-3300000D03*
%TO.P,U3,33,DEC3*%
%TO.N,/Microcontroller/DEC3*%
X19250000Y-3300000D03*
%TO.P,U3,34,XC1*%
%TO.N,/Microcontroller/XC1*%
X18850000Y-3300000D03*
%TO.P,U3,35,XC2*%
%TO.N,/Microcontroller/XC2*%
X18450000Y-3300000D03*
%TO.P,U3,36,VDD*%
%TO.N,VCC*%
X18050000Y-3300000D03*
D12*
%TO.P,U3,37,P0.25*%
%TO.N,/Accelerometer/SDA*%
X17300000Y-4050000D03*
%TO.P,U3,38,P0.26*%
%TO.N,/Accelerometer/SCL*%
X17300000Y-4450000D03*
%TO.P,U3,39,P0.27*%
%TO.N,/Connectors/BUTTON*%
X17300000Y-4850000D03*
%TO.P,U3,40,P0.28/AIN4*%
%TO.N,/Microcontroller/LED0_R*%
X17300000Y-5250000D03*
%TO.P,U3,41,P0.29/AIN5*%
%TO.N,/Microcontroller/LED1_R*%
X17300000Y-5650000D03*
%TO.P,U3,42,P0.30/AIN6*%
%TO.N,/Microcontroller/LED2_R*%
X17300000Y-6050000D03*
%TO.P,U3,43,P0.31/AIN7*%
%TO.N,/Microcontroller/LED3_R*%
X17300000Y-6450000D03*
%TO.P,U3,44,NC*%
%TO.N,unconnected-(U3-NC-Pad44)*%
X17300000Y-6850000D03*
%TO.P,U3,45,VSS*%
%TO.N,GND*%
X17300000Y-7250000D03*
%TO.P,U3,46,DEC4*%
%TO.N,/Microcontroller/DEC4*%
X17300000Y-7650000D03*
%TO.P,U3,47,DCC*%
%TO.N,unconnected-(U3-DCC-Pad47)*%
X17300000Y-8050000D03*
%TO.P,U3,48,VDD*%
%TO.N,VCC*%
X17300000Y-8450000D03*
D13*
%TO.P,U3,49,VSS*%
%TO.N,GND*%
X20250000Y-6250000D03*
%TD*%
D14*
%TO.P,C4,1*%
%TO.N,VCC*%
X9250000Y-2230000D03*
%TO.P,C4,2*%
%TO.N,GND*%
X9250000Y-1270000D03*
%TD*%
D15*
%TO.P,C8,1*%
%TO.N,VCC*%
X15775000Y-8750000D03*
%TO.P,C8,2*%
%TO.N,GND*%
X14225000Y-8750000D03*
%TD*%
D14*
%TO.P,C15,1*%
%TO.N,GND*%
X19500000Y-1480000D03*
%TO.P,C15,2*%
%TO.N,/Microcontroller/XC1*%
X19500000Y-520000D03*
%TD*%
D16*
%TO.P,U2,1,SCL/SPC*%
%TO.N,/Accelerometer/SCL*%
X11762500Y-3000000D03*
%TO.P,U2,2,~{CS}*%
%TO.N,VCC*%
X11762500Y-2500000D03*
%TO.P,U2,3,SA0/SDO*%
X11762500Y-2000000D03*
%TO.P,U2,4,SDA/SDI*%
%TO.N,/Accelerometer/SDA*%
X11762500Y-1500000D03*
D17*
%TO.P,U2,5,RES*%
%TO.N,GND*%
X11250000Y-1487500D03*
%TO.P,U2,6,GND*%
X10750000Y-1487500D03*
D16*
%TO.P,U2,7,GND*%
X10237500Y-1500000D03*
%TO.P,U2,8,GND*%
X10237500Y-2000000D03*
%TO.P,U2,9,Vdd*%
%TO.N,VCC*%
X10237500Y-2500000D03*
%TO.P,U2,10,Vdd_IO*%
X10237500Y-3000000D03*
D17*
%TO.P,U2,11,INT2*%
%TO.N,unconnected-(U2-INT2-Pad11)*%
X10750000Y-3012500D03*
%TO.P,U2,12,INT1*%
%TO.N,/Accelerometer/INT1*%
X11250000Y-3012500D03*
%TD*%
D18*
%TO.P,RN1,1,R1.1*%
%TO.N,/Microcontroller/ROW8_R*%
X28000000Y-9750000D03*
%TO.P,RN1,2,R2.1*%
%TO.N,/Microcontroller/ROW9_R*%
X28000000Y-10250000D03*
%TO.P,RN1,3,R3.1*%
%TO.N,unconnected-(RN1-R3.1-Pad3)*%
X28000000Y-10750000D03*
%TO.P,RN1,4,R4.1*%
%TO.N,unconnected-(RN1-R4.1-Pad4)*%
X28000000Y-11250000D03*
%TO.P,RN1,5,R4.2*%
%TO.N,unconnected-(RN1-R4.2-Pad5)*%
X29000000Y-11250000D03*
%TO.P,RN1,6,R3.2*%
%TO.N,unconnected-(RN1-R3.2-Pad6)*%
X29000000Y-10750000D03*
%TO.P,RN1,7,R2.2*%
%TO.N,/Connectors/ROW9*%
X29000000Y-10250000D03*
%TO.P,RN1,8,R1.2*%
%TO.N,/Connectors/ROW8*%
X29000000Y-9750000D03*
%TD*%
%TO.P,RN3,1,R1.1*%
%TO.N,/Microcontroller/ROW0_R*%
X28000000Y-4750000D03*
%TO.P,RN3,2,R2.1*%
%TO.N,/Microcontroller/ROW1_R*%
X28000000Y-5250000D03*
%TO.P,RN3,3,R3.1*%
%TO.N,/Microcontroller/ROW2_R*%
X28000000Y-5750000D03*
%TO.P,RN3,4,R4.1*%
%TO.N,/Microcontroller/ROW3_R*%
X28000000Y-6250000D03*
%TO.P,RN3,5,R4.2*%
%TO.N,/Connectors/ROW3*%
X29000000Y-6250000D03*
%TO.P,RN3,6,R3.2*%
%TO.N,/Connectors/ROW2*%
X29000000Y-5750000D03*
%TO.P,RN3,7,R2.2*%
%TO.N,/Connectors/ROW1*%
X29000000Y-5250000D03*
%TO.P,RN3,8,R1.2*%
%TO.N,/Connectors/ROW0*%
X29000000Y-4750000D03*
%TD*%
D19*
%TO.P,C5,1*%
%TO.N,VCC*%
X8000000Y-2775000D03*
%TO.P,C5,2*%
%TO.N,GND*%
X8000000Y-1225000D03*
%TD*%
D20*
%TO.P,C13,1*%
%TO.N,/Microcontroller/DEC1*%
X15980000Y-10000000D03*
%TO.P,C13,2*%
%TO.N,GND*%
X15020000Y-10000000D03*
%TD*%
D14*
%TO.P,C9,1*%
%TO.N,VCC*%
X16000000Y-3480000D03*
%TO.P,C9,2*%
%TO.N,GND*%
X16000000Y-2520000D03*
%TD*%
D21*
%TO.P,Y2,1,1*%
%TO.N,/Microcontroller/XC1*%
X18425000Y-600000D03*
%TO.P,Y2,2,2*%
%TO.N,GND*%
X17325000Y-600000D03*
%TO.P,Y2,3,3*%
%TO.N,/Microcontroller/XC2*%
X17325000Y-1400000D03*
%TO.P,Y2,4,4*%
%TO.N,GND*%
X18425000Y-1400000D03*
%TD*%
D22*
%TO.P,L1,1*%
%TO.N,/Microcontroller/ANT2*%
X23485000Y-750000D03*
%TO.P,L1,2*%
%TO.N,/Microcontroller/ANT1*%
X22515000Y-750000D03*
%TD*%
D23*
%TO.P,AE1,1,FEED*%
%TO.N,/Microcontroller/ANT2*%
X28287500Y-1250000D03*
%TO.P,AE1,2,PCB_Trace*%
%TO.N,unconnected-(AE1-PCB_Trace-Pad2)*%
X31212500Y-1250000D03*
%TD*%
D24*
%TO.P,C10,1*%
%TO.N,VCC*%
X24500000Y-8770000D03*
%TO.P,C10,2*%
%TO.N,GND*%
X24500000Y-9730000D03*
%TD*%
D20*
%TO.P,C14,1*%
%TO.N,/Microcontroller/ANT1*%
X21480000Y-750000D03*
%TO.P,C14,2*%
%TO.N,GND*%
X20520000Y-750000D03*
%TD*%
D25*
%TO.P,R3,1*%
%TO.N,/Microcontroller/RESET*%
X2750000Y-5260000D03*
%TO.P,R3,2*%
%TO.N,VCC*%
X2750000Y-4240000D03*
%TD*%
D24*
%TO.P,C1,1*%
%TO.N,VCC*%
X9250000Y-3270000D03*
%TO.P,C1,2*%
%TO.N,GND*%
X9250000Y-4230000D03*
%TD*%
D18*
%TO.P,RN4,1,R1.1*%
%TO.N,/Connectors/LED0*%
X8250000Y-7250000D03*
%TO.P,RN4,2,R2.1*%
%TO.N,/Connectors/LED1*%
X8250000Y-7750000D03*
%TO.P,RN4,3,R3.1*%
%TO.N,/Connectors/LED2*%
X8250000Y-8250000D03*
%TO.P,RN4,4,R4.1*%
%TO.N,/Connectors/LED3*%
X8250000Y-8750000D03*
%TO.P,RN4,5,R4.2*%
%TO.N,/Microcontroller/LED3_R*%
X9250000Y-8750000D03*
%TO.P,RN4,6,R3.2*%
%TO.N,/Microcontroller/LED2_R*%
X9250000Y-8250000D03*
%TO.P,RN4,7,R2.2*%
%TO.N,/Microcontroller/LED1_R*%
X9250000Y-7750000D03*
%TO.P,RN4,8,R1.2*%
%TO.N,/Microcontroller/LED0_R*%
X9250000Y-7250000D03*
%TD*%
D15*
%TO.P,C6,1*%
%TO.N,/Microcontroller/DEC4*%
X15775000Y-7250000D03*
%TO.P,C6,2*%
%TO.N,GND*%
X14225000Y-7250000D03*
%TD*%
D24*
%TO.P,C16,1*%
%TO.N,GND*%
X16250000Y-520000D03*
%TO.P,C16,2*%
%TO.N,/Microcontroller/XC2*%
X16250000Y-1480000D03*
%TD*%
D26*
%TO.P,C12,1*%
%TO.N,/Microcontroller/XL2*%
X19520000Y-12500000D03*
%TO.P,C12,2*%
%TO.N,GND*%
X20480000Y-12500000D03*
%TD*%
D20*
%TO.P,C7,1*%
%TO.N,/Microcontroller/XL1*%
X14480000Y-12500000D03*
%TO.P,C7,2*%
%TO.N,GND*%
X13520000Y-12500000D03*
%TD*%
D27*
%TO.P,SW1,1,1*%
%TO.N,GND*%
X5250000Y-1150000D03*
%TO.P,SW1,2,2*%
%TO.N,/Microcontroller/RESET*%
X5250000Y-5350000D03*
%TD*%
D18*
%TO.P,RN2,1,R1.1*%
%TO.N,/Microcontroller/ROW4_R*%
X28000000Y-7250000D03*
%TO.P,RN2,2,R2.1*%
%TO.N,/Microcontroller/ROW5_R*%
X28000000Y-7750000D03*
%TO.P,RN2,3,R3.1*%
%TO.N,/Microcontroller/ROW6_R*%
X28000000Y-8250000D03*
%TO.P,RN2,4,R4.1*%
%TO.N,/Microcontroller/ROW7_R*%
X28000000Y-8750000D03*
%TO.P,RN2,5,R4.2*%
%TO.N,/Connectors/ROW7*%
X29000000Y-8750000D03*
%TO.P,RN2,6,R3.2*%
%TO.N,/Connectors/ROW6*%
X29000000Y-8250000D03*
%TO.P,RN2,7,R2.2*%
%TO.N,/Connectors/ROW5*%
X29000000Y-7750000D03*
%TO.P,RN2,8,R1.2*%
%TO.N,/Connectors/ROW4*%
X29000000Y-7250000D03*
%TD*%
D28*
%TO.N,GND*%
X12500000Y-4000000D03*
X9250000Y-1270000D03*
X10750000Y-500000D03*
%TO.N,VCC*%
X13760000Y-3000000D03*
X1250000Y-5500000D03*
X2500000Y-2500000D03*
X1250000Y-3500000D03*
X15775000Y-8750000D03*
X13760000Y-1500000D03*
X16000000Y-3480000D03*
X1250000Y-4500000D03*
X25500000Y-9250000D03*
X8000000Y-2775000D03*
%TO.N,GND*%
X19250000Y-6750000D03*
X16250000Y-520000D03*
X15020000Y-10000000D03*
X18250000Y-4250000D03*
X22750000Y-1500000D03*
X30000000Y-3750000D03*
X1250000Y-8500000D03*
X19250000Y-7750000D03*
X20750000Y-5750000D03*
X1250000Y-7500000D03*
X24000000Y-1500000D03*
X18250000Y-8250000D03*
X16000000Y-2520000D03*
X22250000Y-4250000D03*
X14225000Y-8750000D03*
X2500000Y-9500000D03*
X20520000Y-750000D03*
X20500000Y-6750000D03*
X8000000Y-1225000D03*
X19500000Y-1480000D03*
X1250000Y-6500000D03*
X24500000Y-9730000D03*
X26750000Y-3750000D03*
X18250000Y-6750000D03*
X21500000Y-5000000D03*
X14225000Y-7250000D03*
X21800000Y-1650000D03*
X20480000Y-12500000D03*
X13520000Y-12500000D03*
X25250000Y-1500000D03*
X16750000Y-9000000D03*
X17500000Y-10000000D03*
X5250000Y-1150000D03*
X9250000Y-4230000D03*
%TO.N,/Microcontroller/DEC3*%
X19250000Y-2500000D03*
%TO.N,/Connectors/ROW0*%
X33250000Y-3750000D03*
%TO.N,/Connectors/COL9*%
X24750000Y-2500000D03*
%TO.N,/Connectors/ROW1*%
X32750000Y-4250000D03*
%TO.N,/Connectors/COL10*%
X24875000Y-3375000D03*
%TO.N,/Accelerometer/SDA*%
X12750000Y-1510000D03*
%TO.N,/Accelerometer/SCL*%
X12750000Y-2990000D03*
%TO.N,/Connectors/ROW2*%
X33250000Y-4750000D03*
%TO.N,/Connectors/COL0*%
X19250000Y-10250000D03*
%TO.N,/Connectors/ROW3*%
X32750000Y-5250000D03*
%TO.N,/Connectors/COL1*%
X19750000Y-10750000D03*
%TO.N,/Connectors/ROW4*%
X33250000Y-5750000D03*
%TO.N,/Connectors/COL2*%
X20250000Y-11250000D03*
%TO.N,/Connectors/ROW5*%
X32750000Y-6250000D03*
%TO.N,/Connectors/COL3*%
X21000000Y-11500000D03*
%TO.N,/Connectors/ROW6*%
X33250000Y-6750000D03*
%TO.N,/Connectors/COL4*%
X21250000Y-10750000D03*
%TO.N,/Connectors/ROW7*%
X32750000Y-7250000D03*
%TO.N,/Connectors/COL5*%
X21750000Y-11250000D03*
%TO.N,/Connectors/ROW8*%
X33250000Y-7750000D03*
%TO.N,/Connectors/COL6*%
X22250000Y-10750000D03*
%TO.N,/Connectors/ROW9*%
X32750000Y-8250000D03*
%TO.N,/Connectors/COL7*%
X22750000Y-10250000D03*
%TO.N,/Connectors/COL8*%
X23250000Y-9500000D03*
%TO.N,/Connectors/SWDCLK*%
X23250000Y-3500000D03*
%TO.N,/Connectors/SWDIO*%
X23750000Y-3000000D03*
%TO.N,/Accelerometer/INT1*%
X10750000Y-4750000D03*
X21220714Y-2308572D03*
%TO.N,/Connectors/LED0*%
X6750000Y-7250000D03*
%TO.N,/Connectors/LED1*%
X7250000Y-7750000D03*
%TO.N,/Connectors/LED2*%
X6750000Y-8250000D03*
%TO.N,/Connectors/LED3*%
X7250000Y-8750000D03*
%TO.N,/Connectors/BUTTON*%
X7250000Y-6750000D03*
%TO.N,/Microcontroller/RESET*%
X24250000Y-3750000D03*
X7750000Y-6250000D03*
%TD*%
D29*
%TO.N,/Accelerometer/INT1*%
X11250000Y-4250000D02*
X11250000Y-3012500D01*
X10750000Y-4750000D02*
X11250000Y-4250000D01*
%TO.N,/Accelerometer/SDA*%
X17300000Y-4050000D02*
X15550000Y-4050000D01*
X15550000Y-4050000D02*
X13750000Y-2250000D01*
X13750000Y-2250000D02*
X13490000Y-2250000D01*
X13490000Y-2250000D02*
X12750000Y-1510000D01*
D30*
%TO.N,/Microcontroller/ANT2*%
X28287500Y-750000D02*
X28287500Y-1250000D01*
D31*
X23485000Y-750000D02*
X28287500Y-750000D01*
D29*
%TO.N,VCC*%
X10237500Y-2500000D02*
X11762500Y-2500000D01*
X9520000Y-2500000D02*
X10237500Y-2500000D01*
D32*
X9250000Y-3270000D02*
X8495000Y-3270000D01*
D29*
X17300000Y-8450000D02*
X16075000Y-8450000D01*
X24180000Y-8450000D02*
X23200000Y-8450000D01*
D32*
X25020000Y-8770000D02*
X25500000Y-9250000D01*
D29*
X9250000Y-2230000D02*
X9520000Y-2500000D01*
D32*
X24500000Y-8770000D02*
X25020000Y-8770000D01*
D29*
X16180000Y-3300000D02*
X16000000Y-3480000D01*
D32*
X8545000Y-2230000D02*
X8000000Y-2775000D01*
D29*
X9250000Y-3270000D02*
X9520000Y-3000000D01*
X24500000Y-8770000D02*
X24180000Y-8450000D01*
X16075000Y-8450000D02*
X15775000Y-8750000D01*
D32*
X8495000Y-3270000D02*
X8000000Y-2775000D01*
D29*
X11762500Y-2000000D02*
X11762500Y-2500000D01*
X18050000Y-3300000D02*
X16180000Y-3300000D01*
X2750000Y-4240000D02*
X1510000Y-4240000D01*
X9520000Y-3000000D02*
X10237500Y-3000000D01*
D32*
X9250000Y-2230000D02*
X8545000Y-2230000D01*
D29*
X1510000Y-4240000D02*
X1250000Y-4500000D01*
%TO.N,/Microcontroller/DEC4*%
X16175000Y-7650000D02*
X15775000Y-7250000D01*
X17300000Y-7650000D02*
X16175000Y-7650000D01*
%TO.N,/Microcontroller/DEC3*%
X19250000Y-2500000D02*
X19250000Y-3300000D01*
%TO.N,/Microcontroller/XL1*%
X16000000Y-11000000D02*
X16000000Y-11750000D01*
X18450000Y-9200000D02*
X18450000Y-9800000D01*
X17750000Y-10500000D02*
X16500000Y-10500000D01*
X18450000Y-9800000D02*
X17750000Y-10500000D01*
X15750000Y-12500000D02*
X15750000Y-11750000D01*
X14480000Y-12500000D02*
X15750000Y-12500000D01*
X16500000Y-10500000D02*
X16000000Y-11000000D01*
%TO.N,/Microcontroller/XL2*%
X18250000Y-11750000D02*
X18250000Y-10595926D01*
X18250000Y-11500000D02*
X18250000Y-11750000D01*
X19520000Y-12500000D02*
X18250000Y-12500000D01*
X18250000Y-10595926D02*
X18850000Y-9995926D01*
X18850000Y-9995926D02*
X18850000Y-9200000D01*
X18250000Y-12500000D02*
X18250000Y-11750000D01*
%TO.N,/Microcontroller/DEC1*%
X16750000Y-10000000D02*
X15980000Y-10000000D01*
X17550000Y-9200000D02*
X16750000Y-10000000D01*
X18050000Y-9200000D02*
X17550000Y-9200000D01*
D31*
%TO.N,/Microcontroller/ANT1*%
X21480000Y-750000D02*
X22515000Y-750000D01*
D29*
%TO.N,/Microcontroller/XC1*%
X18425000Y-600000D02*
X18300000Y-600000D01*
X18300000Y-600000D02*
X17900000Y-1000000D01*
X19500000Y-520000D02*
X18505000Y-520000D01*
X17900000Y-1812370D02*
X18850000Y-2762370D01*
X18850000Y-2762370D02*
X18850000Y-3300000D01*
X17900000Y-1000000D02*
X17900000Y-1812370D01*
X18505000Y-520000D02*
X18425000Y-600000D01*
%TO.N,/Microcontroller/XC2*%
X17325000Y-1775000D02*
X17325000Y-1400000D01*
X17325000Y-1400000D02*
X16330000Y-1400000D01*
X16330000Y-1400000D02*
X16250000Y-1480000D01*
X18450000Y-3300000D02*
X18450000Y-2900000D01*
X18450000Y-2900000D02*
X17325000Y-1775000D01*
%TO.N,/Connectors/ROW0*%
X31250000Y-4750000D02*
X29000000Y-4750000D01*
X32250000Y-3750000D02*
X31250000Y-4750000D01*
X33250000Y-3750000D02*
X32250000Y-3750000D01*
%TO.N,/Connectors/COL9*%
X22011980Y-2237500D02*
X21250000Y-2999480D01*
X24750000Y-2500000D02*
X24487500Y-2237500D01*
X21250000Y-2999480D02*
X21250000Y-3300000D01*
X24487500Y-2237500D02*
X22011980Y-2237500D01*
%TO.N,/Connectors/ROW1*%
X32750000Y-4250000D02*
X32250000Y-4250000D01*
X31250000Y-5250000D02*
X29000000Y-5250000D01*
X32250000Y-4250000D02*
X31250000Y-5250000D01*
%TO.N,/Connectors/COL10*%
X24875000Y-3375000D02*
X23987500Y-2487500D01*
X22161980Y-2487500D02*
X21650000Y-2999480D01*
X21650000Y-2999480D02*
X21650000Y-3300000D01*
X23987500Y-2487500D02*
X22161980Y-2487500D01*
%TO.N,/Accelerometer/SDA*%
X12750000Y-1500000D02*
X11762500Y-1500000D01*
%TO.N,/Accelerometer/SCL*%
X17300000Y-4450000D02*
X14210000Y-4450000D01*
X12750000Y-2990000D02*
X11762500Y-3000000D01*
X14210000Y-4450000D02*
X12750000Y-2990000D01*
%TO.N,/Connectors/ROW2*%
X32250000Y-4750000D02*
X31250000Y-5750000D01*
X33250000Y-4750000D02*
X32250000Y-4750000D01*
X31250000Y-5750000D02*
X29000000Y-5750000D01*
%TO.N,/Connectors/COL0*%
X19250000Y-9200000D02*
X19250000Y-10250000D01*
%TO.N,/Connectors/ROW3*%
X32250000Y-5250000D02*
X31250000Y-6250000D01*
X31250000Y-6250000D02*
X29000000Y-6250000D01*
X32750000Y-5250000D02*
X32250000Y-5250000D01*
%TO.N,/Connectors/COL1*%
X19650000Y-9745926D02*
X19650000Y-9200000D01*
X19750000Y-9845926D02*
X19650000Y-9745926D01*
X19750000Y-10750000D02*
X19750000Y-9845926D01*
%TO.N,/Connectors/ROW4*%
X32250000Y-5750000D02*
X30750000Y-7250000D01*
X30750000Y-7250000D02*
X29000000Y-7250000D01*
X33250000Y-5750000D02*
X32250000Y-5750000D01*
%TO.N,/Connectors/COL2*%
X20212500Y-11212500D02*
X20212500Y-10412500D01*
X20050000Y-10250000D02*
X20050000Y-9200000D01*
X20212500Y-10412500D02*
X20050000Y-10250000D01*
X20250000Y-11250000D02*
X20212500Y-11212500D01*
%TO.N,/Connectors/ROW5*%
X32250000Y-6250000D02*
X30750000Y-7750000D01*
X32750000Y-6250000D02*
X32250000Y-6250000D01*
X30750000Y-7750000D02*
X29000000Y-7750000D01*
%TO.N,/Connectors/COL3*%
X20787500Y-11287500D02*
X20787500Y-10533686D01*
X21000000Y-11500000D02*
X20787500Y-11287500D01*
X20450000Y-10196186D02*
X20450000Y-9200000D01*
X20787500Y-10533686D02*
X20450000Y-10196186D01*
%TO.N,/Connectors/ROW6*%
X30750000Y-8250000D02*
X29000000Y-8250000D01*
X33250000Y-6750000D02*
X32250000Y-6750000D01*
X32250000Y-6750000D02*
X30750000Y-8250000D01*
%TO.N,/Connectors/COL4*%
X21250000Y-10500000D02*
X20850000Y-10100000D01*
X20850000Y-10100000D02*
X20850000Y-9200000D01*
X21250000Y-10750000D02*
X21250000Y-10500000D01*
%TO.N,/Connectors/ROW7*%
X32750000Y-7250000D02*
X32250000Y-7250000D01*
X32250000Y-7250000D02*
X30750000Y-8750000D01*
X30750000Y-8750000D02*
X29000000Y-8750000D01*
%TO.N,/Connectors/COL5*%
X21250000Y-10000000D02*
X21250000Y-9200000D01*
X21750000Y-11250000D02*
X21750000Y-10500000D01*
X21750000Y-10500000D02*
X21250000Y-10000000D01*
%TO.N,/Connectors/ROW8*%
X33250000Y-7750000D02*
X32595926Y-7750000D01*
X32287500Y-8058426D02*
X32287500Y-8087500D01*
X32287500Y-8087500D02*
X30625000Y-9750000D01*
X30625000Y-9750000D02*
X29000000Y-9750000D01*
X32595926Y-7750000D02*
X32287500Y-8058426D01*
%TO.N,/Connectors/COL6*%
X22250000Y-10595926D02*
X21650000Y-9995926D01*
X21650000Y-9995926D02*
X21650000Y-9200000D01*
X22250000Y-10750000D02*
X22250000Y-10595926D01*
%TO.N,/Connectors/ROW9*%
X32750000Y-8250000D02*
X30750000Y-10250000D01*
X30750000Y-10250000D02*
X29000000Y-10250000D01*
%TO.N,/Connectors/COL7*%
X22050000Y-9200000D02*
X22050000Y-9550000D01*
X22050000Y-9550000D02*
X22750000Y-10250000D01*
%TO.N,/Connectors/COL8*%
X23250000Y-9500000D02*
X22450000Y-9500000D01*
X22450000Y-9500000D02*
X22450000Y-9200000D01*
%TO.N,/Connectors/SWDCLK*%
X23050000Y-3300000D02*
X22450000Y-3300000D01*
X23250000Y-3500000D02*
X23050000Y-3300000D01*
%TO.N,/Connectors/SWDIO*%
X23750000Y-3000000D02*
X23487500Y-2737500D01*
X23487500Y-2737500D02*
X22311979Y-2737500D01*
X22050000Y-2999480D02*
X22050000Y-3300000D01*
X22311979Y-2737500D02*
X22050000Y-2999480D01*
%TO.N,/Accelerometer/INT1*%
X21220714Y-2308572D02*
X20850000Y-2679286D01*
X20850000Y-2679286D02*
X20850000Y-3300000D01*
%TO.N,/Connectors/LED0*%
X8250000Y-7250000D02*
X6750000Y-7250000D01*
%TO.N,/Connectors/LED1*%
X8250000Y-7750000D02*
X7250000Y-7750000D01*
%TO.N,/Connectors/LED2*%
X8250000Y-8250000D02*
X6750000Y-8250000D01*
%TO.N,/Connectors/LED3*%
X8250000Y-8750000D02*
X7250000Y-8750000D01*
%TO.N,/Connectors/BUTTON*%
X17300000Y-4850000D02*
X12150000Y-4850000D01*
X10250000Y-6750000D02*
X7250000Y-6750000D01*
X12150000Y-4850000D02*
X10250000Y-6750000D01*
%TO.N,/Microcontroller/ROW9_R*%
X27500000Y-10250000D02*
X25300000Y-8050000D01*
X28000000Y-10250000D02*
X27500000Y-10250000D01*
X25300000Y-8050000D02*
X23200000Y-8050000D01*
%TO.N,/Microcontroller/ROW8_R*%
X28000000Y-9750000D02*
X27500000Y-9750000D01*
X25400000Y-7650000D02*
X23200000Y-7650000D01*
X27500000Y-9750000D02*
X25400000Y-7650000D01*
%TO.N,/Microcontroller/ROW7_R*%
X26000000Y-7250000D02*
X27500000Y-8750000D01*
X27500000Y-8750000D02*
X28000000Y-8750000D01*
X23200000Y-7250000D02*
X26000000Y-7250000D01*
%TO.N,/Microcontroller/ROW6_R*%
X27500000Y-8250000D02*
X28000000Y-8250000D01*
X23200000Y-6850000D02*
X26100000Y-6850000D01*
X26100000Y-6850000D02*
X27500000Y-8250000D01*
%TO.N,/Microcontroller/ROW5_R*%
X26200000Y-6450000D02*
X27500000Y-7750000D01*
X23200000Y-6450000D02*
X26200000Y-6450000D01*
X27500000Y-7750000D02*
X28000000Y-7750000D01*
%TO.N,/Microcontroller/ROW4_R*%
X27500000Y-7250000D02*
X28000000Y-7250000D01*
X23200000Y-6050000D02*
X26300000Y-6050000D01*
X26300000Y-6050000D02*
X27500000Y-7250000D01*
%TO.N,/Microcontroller/ROW3_R*%
X27500000Y-6250000D02*
X28000000Y-6250000D01*
X26900000Y-5650000D02*
X27500000Y-6250000D01*
X23200000Y-5650000D02*
X26900000Y-5650000D01*
%TO.N,/Microcontroller/ROW2_R*%
X27000000Y-5250000D02*
X27500000Y-5750000D01*
X27500000Y-5750000D02*
X28000000Y-5750000D01*
X23200000Y-5250000D02*
X27000000Y-5250000D01*
%TO.N,/Microcontroller/ROW1_R*%
X27500000Y-5250000D02*
X28000000Y-5250000D01*
X23200000Y-4850000D02*
X27100000Y-4850000D01*
X27100000Y-4850000D02*
X27500000Y-5250000D01*
%TO.N,/Microcontroller/ROW0_R*%
X27500000Y-4750000D02*
X28000000Y-4750000D01*
X23200000Y-4450000D02*
X27200000Y-4450000D01*
X27200000Y-4450000D02*
X27500000Y-4750000D01*
%TO.N,/Microcontroller/LED0_R*%
X12250000Y-5250000D02*
X10250000Y-7250000D01*
X10250000Y-7250000D02*
X9250000Y-7250000D01*
X17300000Y-5250000D02*
X12250000Y-5250000D01*
%TO.N,/Microcontroller/LED1_R*%
X12350000Y-5650000D02*
X10250000Y-7750000D01*
X10250000Y-7750000D02*
X9250000Y-7750000D01*
X17300000Y-5650000D02*
X12350000Y-5650000D01*
%TO.N,/Microcontroller/LED2_R*%
X17300000Y-6050000D02*
X12450000Y-6050000D01*
X12450000Y-6050000D02*
X10250000Y-8250000D01*
X10250000Y-8250000D02*
X9250000Y-8250000D01*
%TO.N,/Microcontroller/LED3_R*%
X10250000Y-8750000D02*
X9250000Y-8750000D01*
X12550000Y-6450000D02*
X10250000Y-8750000D01*
X17300000Y-6450000D02*
X12550000Y-6450000D01*
%TO.N,/Microcontroller/RESET*%
X23950000Y-4050000D02*
X24250000Y-3750000D01*
X23200000Y-4050000D02*
X23950000Y-4050000D01*
X6850000Y-5350000D02*
X5250000Y-5350000D01*
X7750000Y-6250000D02*
X6850000Y-5350000D01*
X5160000Y-5260000D02*
X5250000Y-5350000D01*
X2750000Y-5260000D02*
X5160000Y-5260000D01*
%TD*%
%TA.AperFunction,Conductor*%
%TO.N,/Microcontroller/ANT1*%
G36*
X21659191Y-518907D02*
G01*
X21695155Y-568407D01*
X21700000Y-599000D01*
X21700000Y-964950D01*
X21681093Y-1023141D01*
X21677947Y-1027241D01*
X20850001Y-2049997D01*
X20850000Y-2049999D01*
X20550000Y-2650000D01*
X20550000Y-2917813D01*
X20549762Y-2922666D01*
X20549500Y-2925327D01*
X20549500Y-3551000D01*
X20530593Y-3609191D01*
X20481093Y-3645155D01*
X20450500Y-3650000D01*
X20449500Y-3650000D01*
X20391309Y-3631093D01*
X20355345Y-3581593D01*
X20350500Y-3551000D01*
X20350500Y-2925327D01*
X20350238Y-2922666D01*
X20350000Y-2917813D01*
X20350000Y-2557036D01*
X20350995Y-2543035D01*
X20447471Y-1867699D01*
X20458561Y-1834304D01*
X20749297Y-1301289D01*
X20750777Y-1298757D01*
X20775271Y-1259566D01*
X20817381Y-1222312D01*
X20858316Y-1203224D01*
X20943224Y-1118316D01*
X20993972Y-1009487D01*
X21000500Y-959901D01*
X21000499Y-927591D01*
X21015545Y-875127D01*
X21220919Y-546530D01*
X21267794Y-507205D01*
X21304871Y-500000D01*
X21601000Y-500000D01*
X21659191Y-518907D01*
G37*
%TD.AperFunction*%
%TD*%
%TA.AperFunction,Conductor*%
%TO.N,GND*%
G36*
X17887868Y-219407D02*
G01*
X17923832Y-268907D01*
X17926775Y-318814D01*
X17924500Y-330249D01*
X17924500Y-562553D01*
X17905593Y-620744D01*
X17895503Y-632557D01*
X17739235Y-788824D01*
X17724238Y-801132D01*
X17710392Y-810384D01*
X17710385Y-810391D01*
X17687558Y-844553D01*
X17646843Y-905489D01*
X17643727Y-903407D01*
X17613356Y-936617D01*
X17564522Y-949500D01*
X17005252Y-949500D01*
X17005251Y-949500D01*
X17005241Y-949501D01*
X16946772Y-961132D01*
X16946766Y-961134D01*
X16880451Y-1005445D01*
X16880445Y-1005451D01*
X16836133Y-1071767D01*
X16834428Y-1075886D01*
X16794691Y-1122411D01*
X16742964Y-1137000D01*
X16739548Y-1137000D01*
X16681357Y-1118093D01*
X16669545Y-1108004D01*
X16618316Y-1056776D01*
X16618313Y-1056774D01*
X16509489Y-1006029D01*
X16509488Y-1006028D01*
X16492958Y-1003852D01*
X16459901Y-999500D01*
X16459899Y-999500D01*
X16040103Y-999500D01*
X16040092Y-999501D01*
X15990513Y-1006027D01*
X15990511Y-1006027D01*
X15881686Y-1056774D01*
X15796774Y-1141686D01*
X15746029Y-1250510D01*
X15746028Y-1250511D01*
X15739500Y-1300100D01*
X15739500Y-1659895D01*
X15739501Y-1659907D01*
X15746027Y-1709486D01*
X15746027Y-1709488D01*
X15796774Y-1818313D01*
X15796775Y-1818314D01*
X15796776Y-1818316D01*
X15881684Y-1903224D01*
X15990513Y-1953972D01*
X16040099Y-1960500D01*
X16459900Y-1960499D01*
X16509487Y-1953972D01*
X16509488Y-1953972D01*
X16568137Y-1926622D01*
X16618316Y-1903224D01*
X16703224Y-1818316D01*
X16708266Y-1807502D01*
X16749989Y-1762756D01*
X16810050Y-1751078D01*
X16865504Y-1776934D01*
X16880302Y-1794334D01*
X16880448Y-1794552D01*
X16946769Y-1838867D01*
X16991231Y-1847711D01*
X17005241Y-1850498D01*
X17005246Y-1850498D01*
X17005252Y-1850500D01*
X17006225Y-1850500D01*
X17006647Y-1850637D01*
X17010088Y-1850976D01*
X17010013Y-1851730D01*
X17064416Y-1869407D01*
X17088537Y-1894495D01*
X17111770Y-1929266D01*
X17122242Y-1944938D01*
X17133451Y-1961714D01*
X17135388Y-1964612D01*
X17149235Y-1973864D01*
X17164238Y-1986176D01*
X17813426Y-2635364D01*
X17841203Y-2689881D01*
X17831632Y-2750313D01*
X17824035Y-2760769D01*
X17824816Y-2761291D01*
X17764035Y-2852257D01*
X17764033Y-2852263D01*
X17749501Y-2925315D01*
X17749500Y-2925327D01*
X17749500Y-2938000D01*
X17730593Y-2996191D01*
X17681093Y-3032155D01*
X17650500Y-3037000D01*
X16347854Y-3037000D01*
X16306016Y-3027725D01*
X16259487Y-3006028D01*
X16209901Y-2999500D01*
X16209899Y-2999500D01*
X15790103Y-2999500D01*
X15790092Y-2999501D01*
X15740513Y-3006027D01*
X15740511Y-3006027D01*
X15631686Y-3056774D01*
X15546774Y-3141686D01*
X15496029Y-3250510D01*
X15496028Y-3250511D01*
X15489500Y-3300100D01*
X15489500Y-3378554D01*
X15470593Y-3436745D01*
X15421093Y-3472709D01*
X15359907Y-3472709D01*
X15320496Y-3448558D01*
X13961176Y-2089238D01*
X13948863Y-2074233D01*
X13939613Y-2060388D01*
X13932009Y-2055308D01*
X13894129Y-2007258D01*
X13891727Y-1946120D01*
X13925719Y-1895246D01*
X13942054Y-1884788D01*
X14013220Y-1848528D01*
X14108528Y-1753220D01*
X14169719Y-1633126D01*
X14190804Y-1500000D01*
X14169719Y-1366874D01*
X14108528Y-1246780D01*
X14013220Y-1151472D01*
X14013217Y-1151470D01*
X13893129Y-1090282D01*
X13893127Y-1090281D01*
X13760000Y-1069196D01*
X13626872Y-1090281D01*
X13626870Y-1090282D01*
X13506782Y-1151470D01*
X13411470Y-1246782D01*
X13350282Y-1366870D01*
X13347874Y-1374282D01*
X13344819Y-1373289D01*
X13323452Y-1415161D01*
X13268917Y-1442903D01*
X13208491Y-1433293D01*
X13165255Y-1390000D01*
X13160272Y-1377958D01*
X13098529Y-1256782D01*
X13098528Y-1256780D01*
X13003220Y-1161472D01*
X13003217Y-1161470D01*
X12883129Y-1100282D01*
X12883127Y-1100281D01*
X12750000Y-1079196D01*
X12616872Y-1100281D01*
X12616870Y-1100282D01*
X12496782Y-1161470D01*
X12496778Y-1161473D01*
X12450247Y-1208004D01*
X12395730Y-1235781D01*
X12380244Y-1237000D01*
X12185255Y-1237000D01*
X12127064Y-1218093D01*
X12102941Y-1193003D01*
X12094552Y-1180448D01*
X12094548Y-1180445D01*
X12028233Y-1136134D01*
X12028231Y-1136133D01*
X12028228Y-1136132D01*
X12028227Y-1136132D01*
X11969758Y-1124501D01*
X11969748Y-1124500D01*
X11555252Y-1124500D01*
X11555251Y-1124500D01*
X11555241Y-1124501D01*
X11496772Y-1136132D01*
X11496766Y-1136134D01*
X11430451Y-1180445D01*
X11430445Y-1180451D01*
X11386134Y-1246766D01*
X11386132Y-1246772D01*
X11374501Y-1305241D01*
X11374500Y-1305253D01*
X11374500Y-1694752D01*
X11381648Y-1730687D01*
X11381648Y-1769313D01*
X11374500Y-1805247D01*
X11374500Y-2138000D01*
X11355593Y-2196191D01*
X11306093Y-2232155D01*
X11275500Y-2237000D01*
X10660255Y-2237000D01*
X10602064Y-2218093D01*
X10577941Y-2193003D01*
X10569552Y-2180448D01*
X10569548Y-2180445D01*
X10503233Y-2136134D01*
X10503231Y-2136133D01*
X10503228Y-2136132D01*
X10503227Y-2136132D01*
X10444758Y-2124501D01*
X10444748Y-2124500D01*
X10030252Y-2124500D01*
X10030251Y-2124500D01*
X10030241Y-2124501D01*
X9971772Y-2136132D01*
X9971767Y-2136134D01*
X9914500Y-2174399D01*
X9855612Y-2191007D01*
X9798209Y-2169829D01*
X9764216Y-2118955D01*
X9760499Y-2092083D01*
X9760499Y-2050104D01*
X9760498Y-2050092D01*
X9753972Y-2000513D01*
X9753972Y-2000511D01*
X9703225Y-1891686D01*
X9703224Y-1891685D01*
X9703224Y-1891684D01*
X9618316Y-1806776D01*
X9618314Y-1806775D01*
X9618313Y-1806774D01*
X9509489Y-1756029D01*
X9509488Y-1756028D01*
X9492958Y-1753852D01*
X9459901Y-1749500D01*
X9459899Y-1749500D01*
X9040103Y-1749500D01*
X9040092Y-1749501D01*
X8990513Y-1756027D01*
X8990511Y-1756027D01*
X8881686Y-1806774D01*
X8881684Y-1806775D01*
X8881684Y-1806776D01*
X8796776Y-1891684D01*
X8796775Y-1891685D01*
X8790652Y-1897809D01*
X8788605Y-1895762D01*
X8750994Y-1924106D01*
X8718761Y-1929500D01*
X8610164Y-1929500D01*
X8596488Y-1927267D01*
X8596317Y-1928494D01*
X8587233Y-1927226D01*
X8546886Y-1929092D01*
X8539206Y-1929447D01*
X8536930Y-1929500D01*
X8517153Y-1929500D01*
X8513658Y-1930153D01*
X8506845Y-1930943D01*
X8475009Y-1932414D01*
X8466005Y-1936389D01*
X8444226Y-1943132D01*
X8434568Y-1944937D01*
X8434566Y-1944938D01*
X8407471Y-1961714D01*
X8401403Y-1964913D01*
X8372234Y-1977793D01*
X8365280Y-1984747D01*
X8347403Y-1998907D01*
X8339048Y-2004080D01*
X8319839Y-2029515D01*
X8315335Y-2034691D01*
X8254526Y-2095502D01*
X8200010Y-2123281D01*
X8184521Y-2124500D01*
X7716510Y-2124500D01*
X7616874Y-2140281D01*
X7616867Y-2140283D01*
X7496782Y-2201470D01*
X7401470Y-2296782D01*
X7340283Y-2416867D01*
X7340281Y-2416874D01*
X7324500Y-2516510D01*
X7324500Y-3033489D01*
X7340281Y-3133125D01*
X7340283Y-3133132D01*
X7401470Y-3253217D01*
X7401472Y-3253220D01*
X7496780Y-3348528D01*
X7496782Y-3348529D01*
X7616867Y-3409716D01*
X7616869Y-3409716D01*
X7616874Y-3409719D01*
X7692541Y-3421703D01*
X7716510Y-3425500D01*
X7716512Y-3425500D01*
X8181176Y-3425500D01*
X8239367Y-3444407D01*
X8247872Y-3451338D01*
X8286569Y-3486616D01*
X8288223Y-3488195D01*
X8296809Y-3496780D01*
X8302203Y-3502174D01*
X8305128Y-3504178D01*
X8310505Y-3508437D01*
X8334063Y-3529913D01*
X8334064Y-3529913D01*
X8334067Y-3529916D01*
X8343233Y-3533467D01*
X8363412Y-3544103D01*
X8371520Y-3549657D01*
X8402558Y-3556957D01*
X8409096Y-3558982D01*
X8438827Y-3570500D01*
X8448652Y-3570500D01*
X8471316Y-3573129D01*
X8480881Y-3575379D01*
X8505494Y-3571945D01*
X8512453Y-3570975D01*
X8519299Y-3570500D01*
X8718761Y-3570500D01*
X8776952Y-3589407D01*
X8790078Y-3602764D01*
X8790652Y-3602191D01*
X8796775Y-3608314D01*
X8796776Y-3608316D01*
X8881684Y-3693224D01*
X8990513Y-3743972D01*
X9040099Y-3750500D01*
X9459900Y-3750499D01*
X9509487Y-3743972D01*
X9509488Y-3743972D01*
X9583440Y-3709487D01*
X9618316Y-3693224D01*
X9703224Y-3608316D01*
X9753972Y-3499487D01*
X9760500Y-3449901D01*
X9760499Y-3407915D01*
X9779405Y-3349727D01*
X9828904Y-3313762D01*
X9890090Y-3313761D01*
X9914500Y-3325600D01*
X9971769Y-3363867D01*
X10016231Y-3372711D01*
X10030241Y-3375498D01*
X10030246Y-3375498D01*
X10030252Y-3375500D01*
X10030253Y-3375500D01*
X10446733Y-3375500D01*
X10486723Y-3387632D01*
X10487758Y-3385134D01*
X10496764Y-3388863D01*
X10496769Y-3388867D01*
X10541231Y-3397711D01*
X10555241Y-3400498D01*
X10555246Y-3400498D01*
X10555252Y-3400500D01*
X10555253Y-3400500D01*
X10888000Y-3400500D01*
X10946191Y-3419407D01*
X10982155Y-3468907D01*
X10987000Y-3499500D01*
X10987000Y-4100054D01*
X10968093Y-4158245D01*
X10958003Y-4170058D01*
X10836484Y-4291576D01*
X10781968Y-4319353D01*
X10750998Y-4319354D01*
X10750000Y-4319196D01*
X10749999Y-4319196D01*
X10616872Y-4340281D01*
X10616870Y-4340282D01*
X10496782Y-4401470D01*
X10401470Y-4496782D01*
X10340282Y-4616870D01*
X10340281Y-4616872D01*
X10319196Y-4749999D01*
X10319196Y-4750000D01*
X10340281Y-4883127D01*
X10340282Y-4883129D01*
X10399831Y-5000000D01*
X10401472Y-5003220D01*
X10496780Y-5098528D01*
X10616874Y-5159719D01*
X10750000Y-5180804D01*
X10883126Y-5159719D01*
X11003220Y-5098528D01*
X11098528Y-5003220D01*
X11159719Y-4883126D01*
X11180804Y-4750000D01*
X11180647Y-4749008D01*
X11180804Y-4748017D01*
X11180804Y-4742208D01*
X11181724Y-4742208D01*
X11190215Y-4688577D01*
X11208420Y-4663516D01*
X11410765Y-4461171D01*
X11425757Y-4448868D01*
X11439612Y-4439612D01*
X11467829Y-4397383D01*
X11497740Y-4352617D01*
X11518152Y-4250000D01*
X11515741Y-4237879D01*
X11514902Y-4233660D01*
X11513000Y-4214347D01*
X11513000Y-3474500D01*
X11531907Y-3416309D01*
X11581407Y-3380345D01*
X11612000Y-3375500D01*
X11969747Y-3375500D01*
X11969748Y-3375500D01*
X12028231Y-3363867D01*
X12094552Y-3319552D01*
X12105807Y-3302707D01*
X12153855Y-3264827D01*
X12187116Y-3258712D01*
X12373067Y-3256830D01*
X12431446Y-3275147D01*
X12444072Y-3285821D01*
X12472013Y-3313761D01*
X12496780Y-3338528D01*
X12616874Y-3399719D01*
X12750000Y-3420804D01*
X12750988Y-3420647D01*
X12751977Y-3420804D01*
X12757792Y-3420804D01*
X12757792Y-3421724D01*
X12811418Y-3430213D01*
X12836485Y-3448423D01*
X13806058Y-4417996D01*
X13833835Y-4472513D01*
X13824264Y-4532945D01*
X13780999Y-4576210D01*
X13736054Y-4587000D01*
X12185653Y-4587000D01*
X12166340Y-4585098D01*
X12150001Y-4581848D01*
X12150000Y-4581848D01*
X12047383Y-4602260D01*
X12047381Y-4602260D01*
X12047381Y-4602261D01*
X12047379Y-4602261D01*
X11991482Y-4639612D01*
X11960390Y-4660386D01*
X11960384Y-4660392D01*
X11951132Y-4674238D01*
X11938824Y-4689236D01*
X10170058Y-6458004D01*
X10115541Y-6485781D01*
X10100054Y-6487000D01*
X8259181Y-6487000D01*
X8200990Y-6468093D01*
X8165026Y-6418593D01*
X8161400Y-6372513D01*
X8180804Y-6250000D01*
X8180804Y-6249999D01*
X8169844Y-6180804D01*
X8159719Y-6116874D01*
X8098528Y-5996780D01*
X8003220Y-5901472D01*
X8003217Y-5901470D01*
X7883129Y-5840282D01*
X7883127Y-5840281D01*
X7750001Y-5819196D01*
X7749996Y-5819196D01*
X7748998Y-5819354D01*
X7748001Y-5819196D01*
X7742210Y-5819196D01*
X7742210Y-5818278D01*
X7688566Y-5809778D01*
X7663514Y-5791576D01*
X7061176Y-5189238D01*
X7048863Y-5174233D01*
X7039613Y-5160389D01*
X7038610Y-5159719D01*
X6974488Y-5116874D01*
X6952618Y-5102260D01*
X6875901Y-5087000D01*
X6850000Y-5081848D01*
X6833660Y-5085098D01*
X6814347Y-5087000D01*
X6527818Y-5087000D01*
X6469627Y-5068093D01*
X6442067Y-5030169D01*
X6439184Y-5031639D01*
X6411900Y-4978093D01*
X6378050Y-4911658D01*
X6288342Y-4821950D01*
X6175304Y-4764354D01*
X6175305Y-4764354D01*
X6081521Y-4749500D01*
X4418478Y-4749500D01*
X4418476Y-4749501D01*
X4324700Y-4764352D01*
X4324695Y-4764354D01*
X4211659Y-4821949D01*
X4121949Y-4911659D01*
X4106008Y-4942946D01*
X4062743Y-4986210D01*
X4017799Y-4997000D01*
X3308566Y-4997000D01*
X3250375Y-4978093D01*
X3218842Y-4939840D01*
X3214066Y-4929598D01*
X3214065Y-4929597D01*
X3214065Y-4929596D01*
X3130404Y-4845935D01*
X3117085Y-4839724D01*
X3072337Y-4797997D01*
X3060662Y-4737936D01*
X3086519Y-4682483D01*
X3117084Y-4660275D01*
X3130404Y-4654065D01*
X3214065Y-4570404D01*
X3264068Y-4463173D01*
X3270500Y-4414316D01*
X3270500Y-4065684D01*
X3264068Y-4016827D01*
X3257722Y-4003219D01*
X3214066Y-3909598D01*
X3214065Y-3909597D01*
X3214065Y-3909596D01*
X3130404Y-3825935D01*
X3130402Y-3825934D01*
X3130401Y-3825933D01*
X3023175Y-3775932D01*
X2980514Y-3770316D01*
X2974316Y-3769500D01*
X2525684Y-3769500D01*
X2519486Y-3770316D01*
X2476825Y-3775932D01*
X2476824Y-3775932D01*
X2369598Y-3825933D01*
X2285933Y-3909598D01*
X2281158Y-3919840D01*
X2239430Y-3964588D01*
X2191434Y-3977000D01*
X1613755Y-3977000D01*
X1555564Y-3958093D01*
X1519600Y-3908593D01*
X1519600Y-3847407D01*
X1543749Y-3807998D01*
X1598528Y-3753220D01*
X1659719Y-3633126D01*
X1680804Y-3500000D01*
X1659719Y-3366874D01*
X1645276Y-3338529D01*
X1607723Y-3264827D01*
X1598528Y-3246780D01*
X1503220Y-3151472D01*
X1503217Y-3151470D01*
X1383129Y-3090282D01*
X1383127Y-3090281D01*
X1250000Y-3069196D01*
X1116872Y-3090281D01*
X1116870Y-3090282D01*
X996782Y-3151470D01*
X901470Y-3246782D01*
X840282Y-3366870D01*
X840281Y-3366872D01*
X819196Y-3499999D01*
X819196Y-3500000D01*
X840281Y-3633127D01*
X840282Y-3633129D01*
X900086Y-3750500D01*
X901472Y-3753220D01*
X996780Y-3848528D01*
X1041255Y-3871189D01*
X1120939Y-3911791D01*
X1164203Y-3955056D01*
X1173774Y-4015488D01*
X1145996Y-4070004D01*
X1120939Y-4088209D01*
X996781Y-4151471D01*
X901470Y-4246782D01*
X840282Y-4366870D01*
X840281Y-4366872D01*
X819196Y-4499999D01*
X819196Y-4500000D01*
X840281Y-4633127D01*
X840282Y-4633129D01*
X899831Y-4750000D01*
X901472Y-4753220D01*
X996780Y-4848528D01*
X1045940Y-4873576D01*
X1120939Y-4911791D01*
X1164203Y-4955056D01*
X1173774Y-5015488D01*
X1145996Y-5070004D01*
X1120939Y-5088209D01*
X996781Y-5151471D01*
X901470Y-5246782D01*
X840282Y-5366870D01*
X840281Y-5366872D01*
X819196Y-5499999D01*
X819196Y-5500000D01*
X840281Y-5633127D01*
X840282Y-5633129D01*
X899831Y-5750000D01*
X901472Y-5753220D01*
X996780Y-5848528D01*
X1116874Y-5909719D01*
X1250000Y-5930804D01*
X1383126Y-5909719D01*
X1503220Y-5848528D01*
X1598528Y-5753220D01*
X1659719Y-5633126D01*
X1680804Y-5500000D01*
X1659719Y-5366874D01*
X1598528Y-5246780D01*
X1503220Y-5151472D01*
X1503217Y-5151470D01*
X1379061Y-5088209D01*
X1335796Y-5044945D01*
X1326225Y-4984513D01*
X1354003Y-4929996D01*
X1379061Y-4911791D01*
X1452963Y-4874134D01*
X1503220Y-4848528D01*
X1598528Y-4753220D01*
X1659719Y-4633126D01*
X1667102Y-4586512D01*
X1694880Y-4531996D01*
X1749397Y-4504219D01*
X1764883Y-4503000D01*
X2191434Y-4503000D01*
X2249625Y-4521907D01*
X2281158Y-4560160D01*
X2285933Y-4570401D01*
X2285934Y-4570402D01*
X2285935Y-4570404D01*
X2369596Y-4654065D01*
X2369597Y-4654065D01*
X2369598Y-4654066D01*
X2382915Y-4660276D01*
X2427663Y-4702005D01*
X2439337Y-4762066D01*
X2413478Y-4817518D01*
X2382915Y-4839724D01*
X2369598Y-4845933D01*
X2285933Y-4929598D01*
X2235932Y-5036824D01*
X2235932Y-5036825D01*
X2229500Y-5085685D01*
X2229500Y-5434314D01*
X2235932Y-5483174D01*
X2235932Y-5483175D01*
X2285933Y-5590401D01*
X2285934Y-5590402D01*
X2285935Y-5590404D01*
X2369596Y-5674065D01*
X2369597Y-5674065D01*
X2369598Y-5674066D01*
X2476824Y-5724067D01*
X2476825Y-5724067D01*
X2476827Y-5724068D01*
X2525684Y-5730500D01*
X2525685Y-5730500D01*
X2974314Y-5730500D01*
X2974316Y-5730500D01*
X3023173Y-5724068D01*
X3130404Y-5674065D01*
X3214065Y-5590404D01*
X3218842Y-5580160D01*
X3260570Y-5535412D01*
X3308566Y-5523000D01*
X3955678Y-5523000D01*
X4013869Y-5541907D01*
X4049833Y-5591407D01*
X4053459Y-5606514D01*
X4064352Y-5675300D01*
X4064354Y-5675304D01*
X4121950Y-5788342D01*
X4211658Y-5878050D01*
X4324696Y-5935646D01*
X4418481Y-5950500D01*
X6081518Y-5950499D01*
X6081521Y-5950499D01*
X6081522Y-5950498D01*
X6128411Y-5943072D01*
X6175299Y-5935647D01*
X6175299Y-5935646D01*
X6175304Y-5935646D01*
X6288342Y-5878050D01*
X6378050Y-5788342D01*
X6435646Y-5675304D01*
X6435645Y-5675304D01*
X6439184Y-5668361D01*
X6442069Y-5669831D01*
X6469646Y-5631894D01*
X6527818Y-5613000D01*
X6700054Y-5613000D01*
X6758245Y-5631907D01*
X6770058Y-5641996D01*
X7282897Y-6154835D01*
X7310674Y-6209352D01*
X7301103Y-6269784D01*
X7257838Y-6313049D01*
X7228380Y-6322620D01*
X7116872Y-6340281D01*
X7116870Y-6340282D01*
X6996782Y-6401470D01*
X6901470Y-6496782D01*
X6840282Y-6616870D01*
X6840281Y-6616872D01*
X6820986Y-6738693D01*
X6793208Y-6793209D01*
X6738693Y-6820986D01*
X6616872Y-6840281D01*
X6616870Y-6840282D01*
X6496782Y-6901470D01*
X6401470Y-6996782D01*
X6340282Y-7116870D01*
X6340281Y-7116872D01*
X6319196Y-7249999D01*
X6319196Y-7250000D01*
X6340281Y-7383127D01*
X6340282Y-7383129D01*
X6400984Y-7502263D01*
X6401472Y-7503220D01*
X6496780Y-7598528D01*
X6532786Y-7616874D01*
X6620939Y-7661791D01*
X6664203Y-7705056D01*
X6673774Y-7765488D01*
X6645996Y-7820004D01*
X6620939Y-7838209D01*
X6496781Y-7901471D01*
X6401470Y-7996782D01*
X6340282Y-8116870D01*
X6340281Y-8116872D01*
X6319196Y-8249999D01*
X6319196Y-8250000D01*
X6340281Y-8383127D01*
X6340282Y-8383129D01*
X6394911Y-8490344D01*
X6401472Y-8503220D01*
X6496780Y-8598528D01*
X6616874Y-8659719D01*
X6738007Y-8678904D01*
X6738692Y-8679013D01*
X6793209Y-8706790D01*
X6820986Y-8761306D01*
X6840281Y-8883127D01*
X6840282Y-8883129D01*
X6899570Y-8999488D01*
X6901472Y-9003220D01*
X6996780Y-9098528D01*
X7116874Y-9159719D01*
X7250000Y-9180804D01*
X7383126Y-9159719D01*
X7503220Y-9098528D01*
X7532552Y-9069196D01*
X7559753Y-9041996D01*
X7614270Y-9014219D01*
X7629756Y-9013000D01*
X7774767Y-9013000D01*
X7832958Y-9031907D01*
X7848323Y-9047887D01*
X7848554Y-9047657D01*
X7855445Y-9054548D01*
X7855448Y-9054552D01*
X7921769Y-9098867D01*
X7966231Y-9107711D01*
X7980241Y-9110498D01*
X7980246Y-9110498D01*
X7980252Y-9110500D01*
X7980253Y-9110500D01*
X8519747Y-9110500D01*
X8519748Y-9110500D01*
X8578231Y-9098867D01*
X8644552Y-9054552D01*
X8667685Y-9019930D01*
X8715735Y-8982052D01*
X8776873Y-8979650D01*
X8827746Y-9013643D01*
X8832310Y-9019924D01*
X8855448Y-9054552D01*
X8921769Y-9098867D01*
X8966231Y-9107711D01*
X8980241Y-9110498D01*
X8980246Y-9110498D01*
X8980252Y-9110500D01*
X8980253Y-9110500D01*
X9519747Y-9110500D01*
X9519748Y-9110500D01*
X9578231Y-9098867D01*
X9644552Y-9054552D01*
X9644556Y-9054545D01*
X9651446Y-9047657D01*
X9652909Y-9049120D01*
X9690972Y-9019117D01*
X9725233Y-9013000D01*
X10214347Y-9013000D01*
X10233660Y-9014902D01*
X10237049Y-9015575D01*
X10250000Y-9018152D01*
X10282648Y-9011658D01*
X10352617Y-8997740D01*
X10439612Y-8939612D01*
X10448868Y-8925757D01*
X10461171Y-8910765D01*
X12629942Y-6741996D01*
X12684459Y-6714219D01*
X12699946Y-6713000D01*
X15057130Y-6713000D01*
X15115321Y-6731907D01*
X15151285Y-6781407D01*
X15151285Y-6842593D01*
X15145340Y-6856944D01*
X15140282Y-6866869D01*
X15140281Y-6866874D01*
X15124500Y-6966510D01*
X15124500Y-7533489D01*
X15140281Y-7633125D01*
X15140283Y-7633132D01*
X15186932Y-7724684D01*
X15201472Y-7753220D01*
X15296780Y-7848528D01*
X15345940Y-7873576D01*
X15420939Y-7911791D01*
X15464203Y-7955056D01*
X15473774Y-8015488D01*
X15445996Y-8070004D01*
X15420939Y-8088209D01*
X15296781Y-8151471D01*
X15201470Y-8246782D01*
X15140283Y-8366867D01*
X15140281Y-8366874D01*
X15124500Y-8466510D01*
X15124500Y-9033489D01*
X15130156Y-9069196D01*
X15136697Y-9110500D01*
X15140281Y-9133125D01*
X15140283Y-9133132D01*
X15200086Y-9250500D01*
X15201472Y-9253220D01*
X15296780Y-9348528D01*
X15296782Y-9348529D01*
X15416867Y-9409716D01*
X15416869Y-9409716D01*
X15416874Y-9409719D01*
X15492541Y-9421703D01*
X15516510Y-9425500D01*
X15523953Y-9425500D01*
X15582144Y-9444407D01*
X15618108Y-9493907D01*
X15618108Y-9555093D01*
X15593958Y-9594501D01*
X15556776Y-9631684D01*
X15556774Y-9631686D01*
X15506029Y-9740510D01*
X15506028Y-9740511D01*
X15504355Y-9753220D01*
X15499660Y-9788888D01*
X15499500Y-9790100D01*
X15499500Y-10209896D01*
X15499501Y-10209907D01*
X15506027Y-10259486D01*
X15506027Y-10259488D01*
X15556774Y-10368313D01*
X15556775Y-10368314D01*
X15556776Y-10368316D01*
X15641684Y-10453224D01*
X15641685Y-10453224D01*
X15641686Y-10453225D01*
X15657879Y-10460776D01*
X15702627Y-10502504D01*
X15714301Y-10562565D01*
X15688443Y-10618018D01*
X15634929Y-10647681D01*
X15616039Y-10649500D01*
X15230252Y-10649500D01*
X15230251Y-10649500D01*
X15230241Y-10649501D01*
X15171772Y-10661132D01*
X15171766Y-10661134D01*
X15105451Y-10705445D01*
X15105445Y-10705451D01*
X15061134Y-10771766D01*
X15061132Y-10771772D01*
X15049501Y-10830241D01*
X15049500Y-10830253D01*
X15049500Y-12038953D01*
X15030593Y-12097144D01*
X14981093Y-12133108D01*
X14919907Y-12133108D01*
X14880498Y-12108958D01*
X14818316Y-12046776D01*
X14818314Y-12046775D01*
X14818313Y-12046774D01*
X14709489Y-11996029D01*
X14709488Y-11996028D01*
X14692958Y-11993852D01*
X14659901Y-11989500D01*
X14659899Y-11989500D01*
X14300104Y-11989500D01*
X14300092Y-11989501D01*
X14250513Y-11996027D01*
X14250511Y-11996027D01*
X14141686Y-12046774D01*
X14056774Y-12131686D01*
X14006029Y-12240510D01*
X14006028Y-12240511D01*
X13999500Y-12290100D01*
X13999501Y-12700500D01*
X13980594Y-12758691D01*
X13931094Y-12794655D01*
X13900501Y-12799500D01*
X299500Y-12799500D01*
X241309Y-12780593D01*
X205345Y-12731093D01*
X200500Y-12700500D01*
X200500Y-2500000D01*
X2069196Y-2500000D01*
X2090281Y-2633127D01*
X2090282Y-2633129D01*
X2151470Y-2753217D01*
X2151472Y-2753220D01*
X2246780Y-2848528D01*
X2246782Y-2848529D01*
X2352044Y-2902163D01*
X2366874Y-2909719D01*
X2500000Y-2930804D01*
X2633126Y-2909719D01*
X2753220Y-2848528D01*
X2848528Y-2753220D01*
X2909719Y-2633126D01*
X2930804Y-2500000D01*
X2909719Y-2366874D01*
X2848528Y-2246780D01*
X2753220Y-2151472D01*
X2753217Y-2151470D01*
X2633129Y-2090282D01*
X2633127Y-2090281D01*
X2500000Y-2069196D01*
X2366872Y-2090281D01*
X2366870Y-2090282D01*
X2246782Y-2151470D01*
X2151470Y-2246782D01*
X2090282Y-2366870D01*
X2090281Y-2366872D01*
X2069196Y-2499999D01*
X2069196Y-2500000D01*
X200500Y-2500000D01*
X200500Y-2374057D01*
X219407Y-2315866D01*
X229496Y-2304053D01*
X2304054Y-229496D01*
X2358571Y-201719D01*
X2374058Y-200500D01*
X17829677Y-200500D01*
X17887868Y-219407D01*
G37*
%TD.AperFunction*%
%TA.AperFunction,Conductor*%
G36*
X33770504Y-7951151D02*
G01*
X33798281Y-8005667D01*
X33799500Y-8021154D01*
X33799500Y-12700500D01*
X33780593Y-12758691D01*
X33731093Y-12794655D01*
X33700500Y-12799500D01*
X20099500Y-12799500D01*
X20041309Y-12780593D01*
X20005345Y-12731093D01*
X20000500Y-12700500D01*
X20000499Y-12290103D01*
X20000498Y-12290092D01*
X19993972Y-12240513D01*
X19993972Y-12240511D01*
X19943225Y-12131686D01*
X19943224Y-12131685D01*
X19943224Y-12131684D01*
X19858316Y-12046776D01*
X19858314Y-12046775D01*
X19858313Y-12046774D01*
X19749489Y-11996029D01*
X19749488Y-11996028D01*
X19732958Y-11993852D01*
X19699901Y-11989500D01*
X19699899Y-11989500D01*
X19340104Y-11989500D01*
X19340092Y-11989501D01*
X19290513Y-11996027D01*
X19290511Y-11996027D01*
X19181686Y-12046774D01*
X19181684Y-12046775D01*
X19181684Y-12046776D01*
X19119501Y-12108958D01*
X19064987Y-12136734D01*
X19004555Y-12127163D01*
X18961290Y-12083898D01*
X18950500Y-12038953D01*
X18950500Y-10830253D01*
X18950498Y-10830241D01*
X18942890Y-10791996D01*
X18938867Y-10771769D01*
X18938863Y-10771764D01*
X18935134Y-10762758D01*
X18938932Y-10761184D01*
X18927651Y-10720467D01*
X18949093Y-10663161D01*
X19000122Y-10629403D01*
X19061249Y-10632087D01*
X19071484Y-10636591D01*
X19116870Y-10659717D01*
X19116874Y-10659719D01*
X19238692Y-10679013D01*
X19293209Y-10706790D01*
X19320986Y-10761306D01*
X19340281Y-10883127D01*
X19340282Y-10883129D01*
X19399831Y-11000000D01*
X19401472Y-11003220D01*
X19496780Y-11098528D01*
X19616874Y-11159719D01*
X19738007Y-11178904D01*
X19738692Y-11179013D01*
X19793209Y-11206790D01*
X19820986Y-11261306D01*
X19840281Y-11383127D01*
X19840282Y-11383129D01*
X19901470Y-11503217D01*
X19901472Y-11503220D01*
X19996780Y-11598528D01*
X20116874Y-11659719D01*
X20250000Y-11680804D01*
X20383126Y-11659719D01*
X20470132Y-11615386D01*
X20530563Y-11605815D01*
X20585080Y-11633592D01*
X20603286Y-11658651D01*
X20614574Y-11680804D01*
X20651472Y-11753220D01*
X20746780Y-11848528D01*
X20866874Y-11909719D01*
X21000000Y-11930804D01*
X21133126Y-11909719D01*
X21253220Y-11848528D01*
X21348528Y-11753220D01*
X21396714Y-11658648D01*
X21439977Y-11615387D01*
X21500409Y-11605815D01*
X21529866Y-11615386D01*
X21616874Y-11659719D01*
X21750000Y-11680804D01*
X21883126Y-11659719D01*
X22003220Y-11598528D01*
X22098528Y-11503220D01*
X22159719Y-11383126D01*
X22179013Y-11261306D01*
X22206790Y-11206791D01*
X22261306Y-11179013D01*
X22383126Y-11159719D01*
X22503220Y-11098528D01*
X22598528Y-11003220D01*
X22659719Y-10883126D01*
X22679013Y-10761306D01*
X22706790Y-10706791D01*
X22761306Y-10679013D01*
X22883126Y-10659719D01*
X23003220Y-10598528D01*
X23098528Y-10503220D01*
X23159719Y-10383126D01*
X23180804Y-10250000D01*
X23159719Y-10116874D01*
X23136872Y-10072035D01*
X23127301Y-10011605D01*
X23155078Y-9957088D01*
X23209594Y-9929310D01*
X23240567Y-9929310D01*
X23250000Y-9930804D01*
X23383126Y-9909719D01*
X23503220Y-9848528D01*
X23598528Y-9753220D01*
X23659719Y-9633126D01*
X23680804Y-9500000D01*
X23659719Y-9366874D01*
X23598528Y-9246780D01*
X23503220Y-9151472D01*
X23503217Y-9151470D01*
X23383129Y-9090282D01*
X23383127Y-9090281D01*
X23250000Y-9069196D01*
X23116872Y-9090281D01*
X23116870Y-9090282D01*
X22996782Y-9151470D01*
X22996778Y-9151473D01*
X22940247Y-9208004D01*
X22885730Y-9235781D01*
X22870244Y-9237000D01*
X22849500Y-9237000D01*
X22791309Y-9218093D01*
X22755345Y-9168593D01*
X22750500Y-9138000D01*
X22750500Y-8849500D01*
X22769407Y-8791309D01*
X22818907Y-8755345D01*
X22849500Y-8750500D01*
X23574673Y-8750500D01*
X23574674Y-8750500D01*
X23647740Y-8735966D01*
X23657142Y-8729683D01*
X23712142Y-8713000D01*
X23890500Y-8713000D01*
X23948691Y-8731907D01*
X23984655Y-8781407D01*
X23989500Y-8811999D01*
X23989500Y-8949895D01*
X23989501Y-8949907D01*
X23996027Y-8999486D01*
X23996027Y-8999488D01*
X24046774Y-9108313D01*
X24046775Y-9108314D01*
X24046776Y-9108316D01*
X24131684Y-9193224D01*
X24240513Y-9243972D01*
X24290099Y-9250500D01*
X24709900Y-9250499D01*
X24759487Y-9243972D01*
X24759488Y-9243972D01*
X24856152Y-9198896D01*
X24868316Y-9193224D01*
X24873278Y-9188261D01*
X24927793Y-9160482D01*
X24988225Y-9170050D01*
X25013286Y-9188258D01*
X25033032Y-9208004D01*
X25045353Y-9220325D01*
X25073129Y-9274839D01*
X25090281Y-9383127D01*
X25090282Y-9383129D01*
X25149831Y-9500000D01*
X25151472Y-9503220D01*
X25246780Y-9598528D01*
X25366874Y-9659719D01*
X25500000Y-9680804D01*
X25633126Y-9659719D01*
X25753220Y-9598528D01*
X25848528Y-9503220D01*
X25909719Y-9383126D01*
X25927380Y-9271617D01*
X25955156Y-9217103D01*
X26009672Y-9189325D01*
X26070104Y-9198896D01*
X26095164Y-9217102D01*
X27288823Y-10410761D01*
X27301132Y-10425759D01*
X27310388Y-10439612D01*
X27310391Y-10439614D01*
X27310392Y-10439615D01*
X27328298Y-10451579D01*
X27328302Y-10451582D01*
X27395945Y-10496780D01*
X27397381Y-10497739D01*
X27397383Y-10497740D01*
X27428713Y-10503972D01*
X27467892Y-10511766D01*
X27468849Y-10511955D01*
X27469779Y-10512140D01*
X27523173Y-10542017D01*
X27548809Y-10597573D01*
X27549500Y-10609245D01*
X27549500Y-10929750D01*
X27559632Y-10980686D01*
X27559632Y-11019314D01*
X27549500Y-11070249D01*
X27549500Y-11429746D01*
X27549501Y-11429758D01*
X27561132Y-11488227D01*
X27561134Y-11488233D01*
X27605445Y-11554548D01*
X27605448Y-11554552D01*
X27671769Y-11598867D01*
X27716231Y-11607711D01*
X27730241Y-11610498D01*
X27730246Y-11610498D01*
X27730252Y-11610500D01*
X27730253Y-11610500D01*
X28269747Y-11610500D01*
X28269748Y-11610500D01*
X28328231Y-11598867D01*
X28394552Y-11554552D01*
X28417685Y-11519930D01*
X28465735Y-11482052D01*
X28526873Y-11479650D01*
X28577746Y-11513643D01*
X28582310Y-11519924D01*
X28605448Y-11554552D01*
X28671769Y-11598867D01*
X28716231Y-11607711D01*
X28730241Y-11610498D01*
X28730246Y-11610498D01*
X28730252Y-11610500D01*
X28730253Y-11610500D01*
X29269747Y-11610500D01*
X29269748Y-11610500D01*
X29328231Y-11598867D01*
X29394552Y-11554552D01*
X29438867Y-11488231D01*
X29450500Y-11429748D01*
X29450500Y-11070252D01*
X29450499Y-11070250D01*
X29450499Y-11070243D01*
X29440368Y-11019316D01*
X29440368Y-10980684D01*
X29450499Y-10929756D01*
X29450500Y-10929746D01*
X29450500Y-10612000D01*
X29469407Y-10553809D01*
X29518907Y-10517845D01*
X29549500Y-10513000D01*
X30714347Y-10513000D01*
X30733660Y-10514902D01*
X30737049Y-10515575D01*
X30750000Y-10518152D01*
X30782090Y-10511769D01*
X30852617Y-10497740D01*
X30854054Y-10496780D01*
X30917654Y-10454284D01*
X30917654Y-10454283D01*
X30939612Y-10439612D01*
X30948866Y-10425762D01*
X30961171Y-10410765D01*
X32663515Y-8708421D01*
X32718030Y-8680646D01*
X32749008Y-8680646D01*
X32750000Y-8680804D01*
X32883126Y-8659719D01*
X33003220Y-8598528D01*
X33098528Y-8503220D01*
X33159719Y-8383126D01*
X33179013Y-8261306D01*
X33206790Y-8206791D01*
X33261306Y-8179013D01*
X33383126Y-8159719D01*
X33503220Y-8098528D01*
X33598528Y-8003220D01*
X33612291Y-7976207D01*
X33655555Y-7932944D01*
X33715987Y-7923373D01*
X33770504Y-7951151D01*
G37*
%TD.AperFunction*%
%TA.AperFunction,Conductor*%
G36*
X17699927Y-9518752D02*
G01*
X17743192Y-9562017D01*
X17752079Y-9587646D01*
X17764033Y-9647737D01*
X17764035Y-9647742D01*
X17819397Y-9730599D01*
X17819400Y-9730602D01*
X17910367Y-9791383D01*
X17909228Y-9793086D01*
X17946128Y-9824595D01*
X17960418Y-9884089D01*
X17937009Y-9940619D01*
X17931726Y-9946334D01*
X17670059Y-10208003D01*
X17615542Y-10235781D01*
X17600055Y-10237000D01*
X17123945Y-10237000D01*
X17065754Y-10218093D01*
X17029790Y-10168593D01*
X17029790Y-10107407D01*
X17053941Y-10067996D01*
X17302741Y-9819196D01*
X17584981Y-9536956D01*
X17639495Y-9509181D01*
X17699927Y-9518752D01*
G37*
%TD.AperFunction*%
%TA.AperFunction,Conductor*%
G36*
X16842857Y-8729683D02*
G01*
X16852260Y-8735966D01*
X16907808Y-8747015D01*
X16925315Y-8750498D01*
X16925320Y-8750498D01*
X16925326Y-8750500D01*
X16925327Y-8750500D01*
X17456536Y-8750500D01*
X17514727Y-8769407D01*
X17550691Y-8818907D01*
X17550691Y-8880093D01*
X17514727Y-8929593D01*
X17475854Y-8946596D01*
X17447383Y-8952260D01*
X17447381Y-8952260D01*
X17447381Y-8952261D01*
X17447380Y-8952261D01*
X17360390Y-9010386D01*
X17360386Y-9010390D01*
X17351134Y-9024237D01*
X17338823Y-9039237D01*
X16994933Y-9383129D01*
X16670058Y-9708004D01*
X16615541Y-9735781D01*
X16600054Y-9737000D01*
X16515403Y-9737000D01*
X16457212Y-9718093D01*
X16425679Y-9679840D01*
X16403224Y-9631684D01*
X16318316Y-9546776D01*
X16318314Y-9546775D01*
X16318313Y-9546774D01*
X16264790Y-9521816D01*
X16220042Y-9480088D01*
X16208368Y-9420026D01*
X16234226Y-9364574D01*
X16248449Y-9351992D01*
X16253209Y-9348533D01*
X16253220Y-9348528D01*
X16348528Y-9253220D01*
X16409719Y-9133126D01*
X16423601Y-9045473D01*
X16425500Y-9033489D01*
X16425500Y-8812000D01*
X16444407Y-8753809D01*
X16493907Y-8717845D01*
X16524500Y-8713000D01*
X16787858Y-8713000D01*
X16842857Y-8729683D01*
G37*
%TD.AperFunction*%
%TA.AperFunction,Conductor*%
G36*
X20129593Y-3538866D02*
G01*
X20147281Y-3581571D01*
X20148281Y-3587885D01*
X20149500Y-3603371D01*
X20149500Y-3674672D01*
X20149501Y-3674684D01*
X20164033Y-3747736D01*
X20164035Y-3747742D01*
X20219397Y-3830599D01*
X20219400Y-3830602D01*
X20280144Y-3871189D01*
X20302260Y-3885966D01*
X20357808Y-3897015D01*
X20375315Y-3900498D01*
X20375320Y-3900498D01*
X20375326Y-3900500D01*
X20375327Y-3900500D01*
X20524673Y-3900500D01*
X20524674Y-3900500D01*
X20597740Y-3885966D01*
X20597746Y-3885961D01*
X20606752Y-3882233D01*
X20607586Y-3884248D01*
X20653880Y-3871189D01*
X20692610Y-3883773D01*
X20693248Y-3882233D01*
X20702255Y-3885962D01*
X20702260Y-3885966D01*
X20757808Y-3897015D01*
X20775315Y-3900498D01*
X20775320Y-3900498D01*
X20775326Y-3900500D01*
X20775327Y-3900500D01*
X20924673Y-3900500D01*
X20924674Y-3900500D01*
X20997740Y-3885966D01*
X20997746Y-3885961D01*
X21006752Y-3882233D01*
X21007586Y-3884248D01*
X21053880Y-3871189D01*
X21092610Y-3883773D01*
X21093248Y-3882233D01*
X21102255Y-3885962D01*
X21102260Y-3885966D01*
X21157808Y-3897015D01*
X21175315Y-3900498D01*
X21175320Y-3900498D01*
X21175326Y-3900500D01*
X21175327Y-3900500D01*
X21324673Y-3900500D01*
X21324674Y-3900500D01*
X21397740Y-3885966D01*
X21397746Y-3885961D01*
X21406752Y-3882233D01*
X21407586Y-3884248D01*
X21453880Y-3871189D01*
X21492610Y-3883773D01*
X21493248Y-3882233D01*
X21502255Y-3885962D01*
X21502260Y-3885966D01*
X21557808Y-3897015D01*
X21575315Y-3900498D01*
X21575320Y-3900498D01*
X21575326Y-3900500D01*
X21575327Y-3900500D01*
X21724673Y-3900500D01*
X21724674Y-3900500D01*
X21797740Y-3885966D01*
X21797746Y-3885961D01*
X21806752Y-3882233D01*
X21807586Y-3884248D01*
X21853880Y-3871189D01*
X21892610Y-3883773D01*
X21893248Y-3882233D01*
X21902255Y-3885962D01*
X21902260Y-3885966D01*
X21957808Y-3897015D01*
X21975315Y-3900498D01*
X21975320Y-3900498D01*
X21975326Y-3900500D01*
X21975327Y-3900500D01*
X22124673Y-3900500D01*
X22124674Y-3900500D01*
X22197740Y-3885966D01*
X22197746Y-3885961D01*
X22206752Y-3882233D01*
X22207586Y-3884248D01*
X22253880Y-3871189D01*
X22292610Y-3883773D01*
X22293248Y-3882233D01*
X22302255Y-3885962D01*
X22302260Y-3885966D01*
X22357808Y-3897015D01*
X22375315Y-3900498D01*
X22375320Y-3900498D01*
X22375326Y-3900500D01*
X22375327Y-3900500D01*
X22500500Y-3900500D01*
X22558691Y-3919407D01*
X22594655Y-3968907D01*
X22599500Y-3999500D01*
X22599500Y-4124672D01*
X22599501Y-4124684D01*
X22614033Y-4197736D01*
X22614034Y-4197740D01*
X22614035Y-4197742D01*
X22617766Y-4206749D01*
X22615751Y-4207583D01*
X22628811Y-4253888D01*
X22616227Y-4292613D01*
X22617766Y-4293251D01*
X22614033Y-4302263D01*
X22599501Y-4375315D01*
X22599500Y-4375327D01*
X22599500Y-4524672D01*
X22599501Y-4524684D01*
X22614033Y-4597736D01*
X22614034Y-4597740D01*
X22614035Y-4597742D01*
X22617766Y-4606749D01*
X22615751Y-4607583D01*
X22628811Y-4653888D01*
X22616227Y-4692613D01*
X22617766Y-4693251D01*
X22614033Y-4702263D01*
X22599501Y-4775315D01*
X22599500Y-4775327D01*
X22599500Y-4924672D01*
X22599501Y-4924684D01*
X22613887Y-4997000D01*
X22614034Y-4997740D01*
X22614035Y-4997742D01*
X22617766Y-5006749D01*
X22615751Y-5007583D01*
X22628811Y-5053888D01*
X22616227Y-5092613D01*
X22617766Y-5093251D01*
X22614033Y-5102263D01*
X22599501Y-5175315D01*
X22599500Y-5175327D01*
X22599500Y-5324672D01*
X22599501Y-5324684D01*
X22607894Y-5366874D01*
X22614034Y-5397740D01*
X22614035Y-5397742D01*
X22617766Y-5406749D01*
X22615751Y-5407583D01*
X22628811Y-5453888D01*
X22616227Y-5492613D01*
X22617766Y-5493251D01*
X22614033Y-5502263D01*
X22599501Y-5575315D01*
X22599500Y-5575327D01*
X22599500Y-5724672D01*
X22599501Y-5724684D01*
X22612808Y-5791576D01*
X22614034Y-5797740D01*
X22614035Y-5797742D01*
X22617766Y-5806749D01*
X22615751Y-5807583D01*
X22628811Y-5853888D01*
X22616227Y-5892613D01*
X22617766Y-5893251D01*
X22614033Y-5902263D01*
X22599501Y-5975315D01*
X22599500Y-5975327D01*
X22599500Y-6124672D01*
X22599501Y-6124684D01*
X22610504Y-6179996D01*
X22614034Y-6197740D01*
X22614035Y-6197742D01*
X22617766Y-6206749D01*
X22615751Y-6207583D01*
X22628811Y-6253888D01*
X22616227Y-6292613D01*
X22617766Y-6293251D01*
X22614033Y-6302263D01*
X22599501Y-6375315D01*
X22599500Y-6375327D01*
X22599500Y-6524672D01*
X22599501Y-6524684D01*
X22610785Y-6581407D01*
X22614034Y-6597740D01*
X22614035Y-6597742D01*
X22617766Y-6606749D01*
X22615751Y-6607583D01*
X22628811Y-6653888D01*
X22616227Y-6692613D01*
X22617766Y-6693251D01*
X22614033Y-6702263D01*
X22599501Y-6775315D01*
X22599500Y-6775327D01*
X22599500Y-6924672D01*
X22599501Y-6924684D01*
X22613843Y-6996780D01*
X22614034Y-6997740D01*
X22614035Y-6997742D01*
X22617766Y-7006749D01*
X22615751Y-7007583D01*
X22628811Y-7053888D01*
X22616227Y-7092613D01*
X22617766Y-7093251D01*
X22614033Y-7102263D01*
X22599501Y-7175315D01*
X22599500Y-7175327D01*
X22599500Y-7324672D01*
X22599501Y-7324684D01*
X22614033Y-7397736D01*
X22614034Y-7397740D01*
X22614035Y-7397742D01*
X22617766Y-7406749D01*
X22615751Y-7407583D01*
X22628811Y-7453888D01*
X22616227Y-7492613D01*
X22617766Y-7493251D01*
X22614033Y-7502263D01*
X22599501Y-7575315D01*
X22599500Y-7575327D01*
X22599500Y-7724672D01*
X22599501Y-7724684D01*
X22614033Y-7797736D01*
X22614034Y-7797740D01*
X22614035Y-7797742D01*
X22617766Y-7806749D01*
X22615751Y-7807583D01*
X22628811Y-7853888D01*
X22616227Y-7892613D01*
X22617766Y-7893251D01*
X22614033Y-7902263D01*
X22599501Y-7975315D01*
X22599500Y-7975327D01*
X22599500Y-8124672D01*
X22599501Y-8124684D01*
X22614033Y-8197736D01*
X22614034Y-8197740D01*
X22614035Y-8197742D01*
X22617766Y-8206749D01*
X22615751Y-8207583D01*
X22628811Y-8253888D01*
X22616227Y-8292613D01*
X22617766Y-8293251D01*
X22614033Y-8302263D01*
X22599501Y-8375315D01*
X22599500Y-8375327D01*
X22599500Y-8500500D01*
X22580593Y-8558691D01*
X22531093Y-8594655D01*
X22500500Y-8599500D01*
X22375326Y-8599500D01*
X22375325Y-8599500D01*
X22375315Y-8599501D01*
X22302263Y-8614033D01*
X22302261Y-8614033D01*
X22302260Y-8614034D01*
X22302259Y-8614034D01*
X22293251Y-8617766D01*
X22292416Y-8615751D01*
X22246112Y-8628811D01*
X22207386Y-8616227D01*
X22206749Y-8617766D01*
X22197742Y-8614035D01*
X22197740Y-8614034D01*
X22197736Y-8614033D01*
X22124684Y-8599501D01*
X22124674Y-8599500D01*
X21975326Y-8599500D01*
X21975325Y-8599500D01*
X21975315Y-8599501D01*
X21902263Y-8614033D01*
X21902261Y-8614033D01*
X21902260Y-8614034D01*
X21902259Y-8614034D01*
X21893251Y-8617766D01*
X21892416Y-8615751D01*
X21846112Y-8628811D01*
X21807386Y-8616227D01*
X21806749Y-8617766D01*
X21797742Y-8614035D01*
X21797740Y-8614034D01*
X21797736Y-8614033D01*
X21724684Y-8599501D01*
X21724674Y-8599500D01*
X21575326Y-8599500D01*
X21575325Y-8599500D01*
X21575315Y-8599501D01*
X21502263Y-8614033D01*
X21502261Y-8614033D01*
X21502260Y-8614034D01*
X21502259Y-8614034D01*
X21493251Y-8617766D01*
X21492416Y-8615751D01*
X21446112Y-8628811D01*
X21407386Y-8616227D01*
X21406749Y-8617766D01*
X21397742Y-8614035D01*
X21397740Y-8614034D01*
X21397736Y-8614033D01*
X21324684Y-8599501D01*
X21324674Y-8599500D01*
X21175326Y-8599500D01*
X21175325Y-8599500D01*
X21175315Y-8599501D01*
X21102263Y-8614033D01*
X21102261Y-8614033D01*
X21102260Y-8614034D01*
X21102259Y-8614034D01*
X21093251Y-8617766D01*
X21092416Y-8615751D01*
X21046112Y-8628811D01*
X21007386Y-8616227D01*
X21006749Y-8617766D01*
X20997742Y-8614035D01*
X20997740Y-8614034D01*
X20997736Y-8614033D01*
X20924684Y-8599501D01*
X20924674Y-8599500D01*
X20775326Y-8599500D01*
X20775325Y-8599500D01*
X20775315Y-8599501D01*
X20702263Y-8614033D01*
X20702261Y-8614033D01*
X20702260Y-8614034D01*
X20702259Y-8614034D01*
X20693251Y-8617766D01*
X20692416Y-8615751D01*
X20646112Y-8628811D01*
X20607386Y-8616227D01*
X20606749Y-8617766D01*
X20597742Y-8614035D01*
X20597740Y-8614034D01*
X20597736Y-8614033D01*
X20524684Y-8599501D01*
X20524674Y-8599500D01*
X20375326Y-8599500D01*
X20375325Y-8599500D01*
X20375315Y-8599501D01*
X20302263Y-8614033D01*
X20302261Y-8614033D01*
X20302260Y-8614034D01*
X20302259Y-8614034D01*
X20293251Y-8617766D01*
X20292416Y-8615751D01*
X20246112Y-8628811D01*
X20207386Y-8616227D01*
X20206749Y-8617766D01*
X20197742Y-8614035D01*
X20197740Y-8614034D01*
X20197736Y-8614033D01*
X20124684Y-8599501D01*
X20124674Y-8599500D01*
X19975326Y-8599500D01*
X19975325Y-8599500D01*
X19975315Y-8599501D01*
X19902263Y-8614033D01*
X19902261Y-8614033D01*
X19902260Y-8614034D01*
X19902259Y-8614034D01*
X19893251Y-8617766D01*
X19892416Y-8615751D01*
X19846112Y-8628811D01*
X19807386Y-8616227D01*
X19806749Y-8617766D01*
X19797742Y-8614035D01*
X19797740Y-8614034D01*
X19797736Y-8614033D01*
X19724684Y-8599501D01*
X19724674Y-8599500D01*
X19575326Y-8599500D01*
X19575325Y-8599500D01*
X19575315Y-8599501D01*
X19502263Y-8614033D01*
X19502261Y-8614033D01*
X19502260Y-8614034D01*
X19502259Y-8614034D01*
X19493251Y-8617766D01*
X19492416Y-8615751D01*
X19446112Y-8628811D01*
X19407386Y-8616227D01*
X19406749Y-8617766D01*
X19397742Y-8614035D01*
X19397740Y-8614034D01*
X19397736Y-8614033D01*
X19324684Y-8599501D01*
X19324674Y-8599500D01*
X19175326Y-8599500D01*
X19175325Y-8599500D01*
X19175315Y-8599501D01*
X19102263Y-8614033D01*
X19102261Y-8614033D01*
X19102260Y-8614034D01*
X19102259Y-8614034D01*
X19093251Y-8617766D01*
X19092416Y-8615751D01*
X19046112Y-8628811D01*
X19007386Y-8616227D01*
X19006749Y-8617766D01*
X18997742Y-8614035D01*
X18997740Y-8614034D01*
X18997736Y-8614033D01*
X18924684Y-8599501D01*
X18924674Y-8599500D01*
X18775326Y-8599500D01*
X18775325Y-8599500D01*
X18775315Y-8599501D01*
X18702263Y-8614033D01*
X18702261Y-8614033D01*
X18702260Y-8614034D01*
X18702259Y-8614034D01*
X18693251Y-8617766D01*
X18692416Y-8615751D01*
X18646112Y-8628811D01*
X18607386Y-8616227D01*
X18606749Y-8617766D01*
X18597742Y-8614035D01*
X18597740Y-8614034D01*
X18597736Y-8614033D01*
X18524684Y-8599501D01*
X18524674Y-8599500D01*
X18375326Y-8599500D01*
X18375325Y-8599500D01*
X18375315Y-8599501D01*
X18302263Y-8614033D01*
X18302261Y-8614033D01*
X18302260Y-8614034D01*
X18302259Y-8614034D01*
X18293251Y-8617766D01*
X18292416Y-8615751D01*
X18246112Y-8628811D01*
X18207386Y-8616227D01*
X18206749Y-8617766D01*
X18197742Y-8614035D01*
X18197740Y-8614034D01*
X18197736Y-8614033D01*
X18124684Y-8599501D01*
X18124674Y-8599500D01*
X17999500Y-8599500D01*
X17941309Y-8580593D01*
X17905345Y-8531093D01*
X17900500Y-8500500D01*
X17900500Y-8375327D01*
X17900498Y-8375315D01*
X17888102Y-8313000D01*
X17885966Y-8302260D01*
X17885962Y-8302255D01*
X17882233Y-8293248D01*
X17884248Y-8292413D01*
X17871189Y-8246120D01*
X17883773Y-8207389D01*
X17882233Y-8206752D01*
X17885961Y-8197746D01*
X17885966Y-8197740D01*
X17900500Y-8124674D01*
X17900500Y-7975326D01*
X17885966Y-7902260D01*
X17885962Y-7902255D01*
X17882233Y-7893248D01*
X17884248Y-7892413D01*
X17871189Y-7846120D01*
X17883773Y-7807389D01*
X17882233Y-7806752D01*
X17885961Y-7797746D01*
X17885966Y-7797740D01*
X17900500Y-7724674D01*
X17900500Y-7575326D01*
X17885966Y-7502260D01*
X17882304Y-7496780D01*
X17830602Y-7419400D01*
X17830599Y-7419397D01*
X17747742Y-7364035D01*
X17747740Y-7364034D01*
X17747737Y-7364033D01*
X17747736Y-7364033D01*
X17674684Y-7349501D01*
X17674674Y-7349500D01*
X16925326Y-7349500D01*
X16925325Y-7349500D01*
X16925315Y-7349501D01*
X16852263Y-7364033D01*
X16852259Y-7364034D01*
X16847408Y-7367275D01*
X16842857Y-7370316D01*
X16787858Y-7387000D01*
X16524500Y-7387000D01*
X16466309Y-7368093D01*
X16430345Y-7318593D01*
X16425500Y-7288000D01*
X16425500Y-6966510D01*
X16420183Y-6932944D01*
X16409719Y-6866874D01*
X16409717Y-6866870D01*
X16409717Y-6866869D01*
X16404660Y-6856944D01*
X16395089Y-6796512D01*
X16422867Y-6741996D01*
X16477384Y-6714219D01*
X16492870Y-6713000D01*
X16600500Y-6713000D01*
X16658691Y-6731907D01*
X16694655Y-6781407D01*
X16699500Y-6812000D01*
X16699500Y-6924672D01*
X16699501Y-6924684D01*
X16714033Y-6997736D01*
X16714035Y-6997742D01*
X16769397Y-7080599D01*
X16769400Y-7080602D01*
X16801819Y-7102263D01*
X16852260Y-7135966D01*
X16907808Y-7147015D01*
X16925315Y-7150498D01*
X16925320Y-7150498D01*
X16925326Y-7150500D01*
X16925327Y-7150500D01*
X17674673Y-7150500D01*
X17674674Y-7150500D01*
X17747740Y-7135966D01*
X17830601Y-7080601D01*
X17885966Y-6997740D01*
X17900500Y-6924674D01*
X17900500Y-6775326D01*
X17885966Y-6702260D01*
X17885962Y-6702255D01*
X17882233Y-6693248D01*
X17884248Y-6692413D01*
X17871189Y-6646120D01*
X17883773Y-6607389D01*
X17882233Y-6606752D01*
X17885961Y-6597746D01*
X17885966Y-6597740D01*
X17900500Y-6524674D01*
X17900500Y-6375326D01*
X17899940Y-6372513D01*
X17890016Y-6322620D01*
X17885966Y-6302260D01*
X17885962Y-6302255D01*
X17882233Y-6293248D01*
X17884248Y-6292413D01*
X17871189Y-6246120D01*
X17883773Y-6207389D01*
X17882233Y-6206752D01*
X17885961Y-6197746D01*
X17885966Y-6197740D01*
X17900500Y-6124674D01*
X17900500Y-5975326D01*
X17885966Y-5902260D01*
X17885962Y-5902255D01*
X17882233Y-5893248D01*
X17884248Y-5892413D01*
X17871189Y-5846120D01*
X17883773Y-5807389D01*
X17882233Y-5806752D01*
X17885961Y-5797746D01*
X17885966Y-5797740D01*
X17900500Y-5724674D01*
X17900500Y-5575326D01*
X17885966Y-5502260D01*
X17885962Y-5502255D01*
X17882233Y-5493248D01*
X17884248Y-5492413D01*
X17871189Y-5446120D01*
X17883773Y-5407389D01*
X17882233Y-5406752D01*
X17885961Y-5397746D01*
X17885966Y-5397740D01*
X17900500Y-5324674D01*
X17900500Y-5175326D01*
X17885966Y-5102260D01*
X17885962Y-5102255D01*
X17882233Y-5093248D01*
X17884248Y-5092413D01*
X17871189Y-5046120D01*
X17883773Y-5007389D01*
X17882233Y-5006752D01*
X17885961Y-4997746D01*
X17885966Y-4997740D01*
X17900500Y-4924674D01*
X17900500Y-4775326D01*
X17898317Y-4764354D01*
X17893912Y-4742208D01*
X17885966Y-4702260D01*
X17885962Y-4702255D01*
X17882233Y-4693248D01*
X17884248Y-4692413D01*
X17871189Y-4646120D01*
X17883773Y-4607389D01*
X17882233Y-4606752D01*
X17885961Y-4597746D01*
X17885966Y-4597740D01*
X17900500Y-4524674D01*
X17900500Y-4375326D01*
X17885966Y-4302260D01*
X17885962Y-4302255D01*
X17882233Y-4293248D01*
X17884248Y-4292413D01*
X17871189Y-4246120D01*
X17883773Y-4207389D01*
X17882233Y-4206752D01*
X17885961Y-4197746D01*
X17885966Y-4197740D01*
X17900500Y-4124674D01*
X17900500Y-3999500D01*
X17919407Y-3941309D01*
X17968907Y-3905345D01*
X17999500Y-3900500D01*
X18124673Y-3900500D01*
X18124674Y-3900500D01*
X18197740Y-3885966D01*
X18197746Y-3885961D01*
X18206752Y-3882233D01*
X18207586Y-3884248D01*
X18253880Y-3871189D01*
X18292610Y-3883773D01*
X18293248Y-3882233D01*
X18302255Y-3885962D01*
X18302260Y-3885966D01*
X18357808Y-3897015D01*
X18375315Y-3900498D01*
X18375320Y-3900498D01*
X18375326Y-3900500D01*
X18375327Y-3900500D01*
X18524673Y-3900500D01*
X18524674Y-3900500D01*
X18597740Y-3885966D01*
X18597746Y-3885961D01*
X18606752Y-3882233D01*
X18607586Y-3884248D01*
X18653880Y-3871189D01*
X18692610Y-3883773D01*
X18693248Y-3882233D01*
X18702255Y-3885962D01*
X18702260Y-3885966D01*
X18757808Y-3897015D01*
X18775315Y-3900498D01*
X18775320Y-3900498D01*
X18775326Y-3900500D01*
X18775327Y-3900500D01*
X18924673Y-3900500D01*
X18924674Y-3900500D01*
X18997740Y-3885966D01*
X18997746Y-3885961D01*
X19006752Y-3882233D01*
X19007586Y-3884248D01*
X19053880Y-3871189D01*
X19092610Y-3883773D01*
X19093248Y-3882233D01*
X19102255Y-3885962D01*
X19102260Y-3885966D01*
X19157808Y-3897015D01*
X19175315Y-3900498D01*
X19175320Y-3900498D01*
X19175326Y-3900500D01*
X19175327Y-3900500D01*
X19324673Y-3900500D01*
X19324674Y-3900500D01*
X19397740Y-3885966D01*
X19397746Y-3885961D01*
X19406752Y-3882233D01*
X19407586Y-3884248D01*
X19453880Y-3871189D01*
X19492610Y-3883773D01*
X19493248Y-3882233D01*
X19502255Y-3885962D01*
X19502260Y-3885966D01*
X19557808Y-3897015D01*
X19575315Y-3900498D01*
X19575320Y-3900498D01*
X19575326Y-3900500D01*
X19575327Y-3900500D01*
X19724673Y-3900500D01*
X19724674Y-3900500D01*
X19797740Y-3885966D01*
X19880601Y-3830601D01*
X19935966Y-3747740D01*
X19950500Y-3674674D01*
X19950500Y-3597057D01*
X19969407Y-3538866D01*
X20018907Y-3502902D01*
X20080093Y-3502902D01*
X20129593Y-3538866D01*
G37*
%TD.AperFunction*%
%TA.AperFunction,Conductor*%
G36*
X23044945Y-1128944D02*
G01*
X23070000Y-1147147D01*
X23132489Y-1209636D01*
X23236830Y-1260645D01*
X23304472Y-1270500D01*
X23304475Y-1270500D01*
X23665524Y-1270500D01*
X23665528Y-1270500D01*
X23733170Y-1260645D01*
X23734145Y-1260168D01*
X23743573Y-1255560D01*
X23787054Y-1245500D01*
X25401000Y-1245500D01*
X25459191Y-1264407D01*
X25495155Y-1313907D01*
X25500000Y-1344500D01*
X25500000Y-3343191D01*
X25491216Y-3370222D01*
X25500000Y-3406808D01*
X25500000Y-3500000D01*
X31889053Y-3500000D01*
X31947244Y-3518907D01*
X31983208Y-3568407D01*
X31983208Y-3629593D01*
X31959057Y-3669004D01*
X31170058Y-4458004D01*
X31115541Y-4485781D01*
X31100054Y-4487000D01*
X29475233Y-4487000D01*
X29417042Y-4468093D01*
X29401676Y-4452112D01*
X29401446Y-4452343D01*
X29394554Y-4445451D01*
X29394552Y-4445448D01*
X29385818Y-4439612D01*
X29328233Y-4401134D01*
X29328231Y-4401133D01*
X29328228Y-4401132D01*
X29328227Y-4401132D01*
X29269758Y-4389501D01*
X29269748Y-4389500D01*
X28730252Y-4389500D01*
X28730251Y-4389500D01*
X28730241Y-4389501D01*
X28671772Y-4401132D01*
X28671766Y-4401134D01*
X28605451Y-4445445D01*
X28605445Y-4445451D01*
X28582315Y-4480068D01*
X28534264Y-4517947D01*
X28473126Y-4520349D01*
X28422253Y-4486355D01*
X28417685Y-4480068D01*
X28394554Y-4445451D01*
X28394552Y-4445448D01*
X28385818Y-4439612D01*
X28328233Y-4401134D01*
X28328231Y-4401133D01*
X28328228Y-4401132D01*
X28328227Y-4401132D01*
X28269758Y-4389501D01*
X28269748Y-4389500D01*
X27730252Y-4389500D01*
X27730251Y-4389500D01*
X27730241Y-4389501D01*
X27671772Y-4401132D01*
X27671764Y-4401135D01*
X27650183Y-4415555D01*
X27591294Y-4432162D01*
X27533891Y-4410983D01*
X27525180Y-4403242D01*
X27411176Y-4289238D01*
X27398863Y-4274233D01*
X27389613Y-4260389D01*
X27389609Y-4260385D01*
X27358518Y-4239612D01*
X27302619Y-4202261D01*
X27302618Y-4202260D01*
X27302617Y-4202260D01*
X27200000Y-4181848D01*
X27199998Y-4181848D01*
X27183660Y-4185098D01*
X27164347Y-4187000D01*
X24653755Y-4187000D01*
X24595564Y-4168093D01*
X24559600Y-4118593D01*
X24559600Y-4057407D01*
X24583749Y-4017998D01*
X24598528Y-4003220D01*
X24659719Y-3883126D01*
X24661447Y-3872214D01*
X24689220Y-3817701D01*
X24743735Y-3789921D01*
X24774711Y-3789920D01*
X24875000Y-3805804D01*
X25008126Y-3784719D01*
X25128220Y-3723528D01*
X25223528Y-3628220D01*
X25284719Y-3508126D01*
X25303219Y-3391320D01*
X25310676Y-3376683D01*
X25303219Y-3358678D01*
X25297021Y-3319549D01*
X25284719Y-3241874D01*
X25223528Y-3121780D01*
X25128220Y-3026472D01*
X25048939Y-2986076D01*
X25005676Y-2942813D01*
X24996105Y-2882381D01*
X25023881Y-2827866D01*
X25098528Y-2753220D01*
X25159719Y-2633126D01*
X25180804Y-2500000D01*
X25159719Y-2366874D01*
X25098528Y-2246780D01*
X25003220Y-2151472D01*
X25003217Y-2151470D01*
X24883129Y-2090282D01*
X24883127Y-2090281D01*
X24750001Y-2069196D01*
X24742210Y-2069196D01*
X24742210Y-2066342D01*
X24694666Y-2058796D01*
X24684640Y-2052918D01*
X24590119Y-1989761D01*
X24590118Y-1989760D01*
X24590117Y-1989760D01*
X24513401Y-1974500D01*
X24487500Y-1969348D01*
X24471160Y-1972598D01*
X24451847Y-1974500D01*
X22047629Y-1974500D01*
X22028313Y-1972597D01*
X22021834Y-1971308D01*
X22011981Y-1969348D01*
X22011976Y-1969348D01*
X21990857Y-1973548D01*
X21990849Y-1973551D01*
X21909362Y-1989760D01*
X21905040Y-1992070D01*
X21901250Y-1995180D01*
X21845495Y-2032433D01*
X21845487Y-2032439D01*
X21822370Y-2047886D01*
X21822365Y-2047891D01*
X21813111Y-2061740D01*
X21800803Y-2076737D01*
X21750973Y-2126567D01*
X21696456Y-2154344D01*
X21636024Y-2144773D01*
X21592760Y-2101508D01*
X21569243Y-2055354D01*
X21569242Y-2055352D01*
X21473934Y-1960044D01*
X21444285Y-1944937D01*
X21379854Y-1912107D01*
X21336590Y-1868842D01*
X21327019Y-1808410D01*
X21347851Y-1761610D01*
X21735939Y-1282208D01*
X21787248Y-1248877D01*
X21812886Y-1245500D01*
X22212946Y-1245500D01*
X22256427Y-1255560D01*
X22266823Y-1260642D01*
X22266827Y-1260643D01*
X22266830Y-1260645D01*
X22334472Y-1270500D01*
X22334475Y-1270500D01*
X22695524Y-1270500D01*
X22695528Y-1270500D01*
X22763170Y-1260645D01*
X22867511Y-1209636D01*
X22929998Y-1147148D01*
X22984513Y-1119373D01*
X23044945Y-1128944D01*
G37*
%TD.AperFunction*%
%TA.AperFunction,Conductor*%
G36*
X21057144Y-219407D02*
G01*
X21093108Y-268907D01*
X21093108Y-330093D01*
X21068958Y-369501D01*
X21056776Y-381684D01*
X21056774Y-381686D01*
X21006028Y-490510D01*
X21003910Y-497779D01*
X21002238Y-497291D01*
X20992615Y-524078D01*
X20882726Y-699901D01*
X20841282Y-766212D01*
X20825732Y-801132D01*
X20818006Y-818480D01*
X20802961Y-870940D01*
X20794999Y-927592D01*
X20794999Y-927983D01*
X20794959Y-928162D01*
X20794758Y-931041D01*
X20794327Y-931010D01*
X20785722Y-969824D01*
X20779668Y-982806D01*
X20759949Y-1010969D01*
X20750048Y-1020870D01*
X20733186Y-1033613D01*
X20733513Y-1034111D01*
X20681226Y-1068390D01*
X20681215Y-1068398D01*
X20639109Y-1105648D01*
X20639098Y-1105660D01*
X20601008Y-1150650D01*
X20594246Y-1161470D01*
X20574899Y-1192426D01*
X20570347Y-1200214D01*
X20513053Y-1305253D01*
X20278154Y-1735898D01*
X20263532Y-1769540D01*
X20252475Y-1802836D01*
X20252444Y-1802933D01*
X20244036Y-1838637D01*
X20204386Y-2116188D01*
X20147700Y-2513000D01*
X20147045Y-2517582D01*
X20146270Y-2524831D01*
X20145419Y-2536816D01*
X20144759Y-2546107D01*
X20144500Y-2553392D01*
X20144500Y-2895464D01*
X20125593Y-2953655D01*
X20076093Y-2989619D01*
X20014907Y-2989619D01*
X19965407Y-2953655D01*
X19948403Y-2914779D01*
X19937286Y-2858898D01*
X19935966Y-2852260D01*
X19898394Y-2796028D01*
X19880602Y-2769400D01*
X19880599Y-2769397D01*
X19797742Y-2714035D01*
X19797740Y-2714034D01*
X19797737Y-2714033D01*
X19797736Y-2714033D01*
X19744867Y-2703516D01*
X19691483Y-2673619D01*
X19665868Y-2618054D01*
X19666400Y-2590938D01*
X19680804Y-2500000D01*
X19659719Y-2366874D01*
X19598528Y-2246780D01*
X19503220Y-2151472D01*
X19503217Y-2151470D01*
X19383129Y-2090282D01*
X19383127Y-2090281D01*
X19250000Y-2069196D01*
X19116872Y-2090281D01*
X19116870Y-2090282D01*
X18996782Y-2151470D01*
X18901471Y-2246781D01*
X18897470Y-2254634D01*
X18854204Y-2297897D01*
X18793772Y-2307467D01*
X18739258Y-2279690D01*
X18191996Y-1732428D01*
X18164219Y-1677911D01*
X18163000Y-1662424D01*
X18163000Y-1149946D01*
X18181907Y-1091755D01*
X18191996Y-1079942D01*
X18192442Y-1079496D01*
X18246959Y-1051719D01*
X18262446Y-1050500D01*
X18744747Y-1050500D01*
X18744748Y-1050500D01*
X18803231Y-1038867D01*
X18869552Y-994552D01*
X18913867Y-928231D01*
X18913868Y-928223D01*
X18916570Y-921703D01*
X18956303Y-875175D01*
X19015797Y-860888D01*
X19072327Y-884299D01*
X19078026Y-889566D01*
X19131684Y-943224D01*
X19240513Y-993972D01*
X19290099Y-1000500D01*
X19709900Y-1000499D01*
X19759487Y-993972D01*
X19759488Y-993972D01*
X19850984Y-951306D01*
X19868316Y-943224D01*
X19953224Y-858316D01*
X20003972Y-749487D01*
X20010500Y-699901D01*
X20010499Y-340100D01*
X20006855Y-312417D01*
X20018008Y-252258D01*
X20062392Y-210143D01*
X20105009Y-200500D01*
X20998953Y-200500D01*
X21057144Y-219407D01*
G37*
%TD.AperFunction*%
%TD*%
M02*
