%TF.GenerationSoftware,KiCad,Pcbnew,7.0.7*%
%TF.CreationDate,2023-11-05T15:44:54+10:00*%
%TF.ProjectId,ControllerBoard,436f6e74-726f-46c6-9c65-72426f617264,rev?*%
%TF.SameCoordinates,Original*%
%TF.FileFunction,Copper,L4,Bot*%
%TF.FilePolarity,Positive*%
%FSLAX46Y46*%
G04 Gerber Fmt 4.6, Leading zero omitted, Abs format (unit mm)*
G04 Created by KiCad (PCBNEW 7.0.7) date 2023-11-05 15:44:54*
%MOMM*%
%LPD*%
G01*
G04 APERTURE LIST*
G04 Aperture macros list*
%AMRoundRect*
0 Rectangle with rounded corners*
0 $1 Rounding radius*
0 $2 $3 $4 $5 $6 $7 $8 $9 X,Y pos of 4 corners*
0 Add a 4 corners polygon primitive as box body*
4,1,4,$2,$3,$4,$5,$6,$7,$8,$9,$2,$3,0*
0 Add four circle primitives for the rounded corners*
1,1,$1+$1,$2,$3*
1,1,$1+$1,$4,$5*
1,1,$1+$1,$6,$7*
1,1,$1+$1,$8,$9*
0 Add four rect primitives between the rounded corners*
20,1,$1+$1,$2,$3,$4,$5,0*
20,1,$1+$1,$4,$5,$6,$7,0*
20,1,$1+$1,$6,$7,$8,$9,0*
20,1,$1+$1,$8,$9,$2,$3,0*%
G04 Aperture macros list end*
%TA.AperFunction,SMDPad,CuDef*%
%ADD10RoundRect,0.062500X0.612500X0.062500X-0.612500X0.062500X-0.612500X-0.062500X0.612500X-0.062500X0*%
%TD*%
%TA.AperFunction,SMDPad,CuDef*%
%ADD11RoundRect,0.140000X-0.140000X-0.170000X0.140000X-0.170000X0.140000X0.170000X-0.140000X0.170000X0*%
%TD*%
%TA.AperFunction,SMDPad,CuDef*%
%ADD12RoundRect,0.135000X-0.185000X0.135000X-0.185000X-0.135000X0.185000X-0.135000X0.185000X0.135000X0*%
%TD*%
%TA.AperFunction,SMDPad,CuDef*%
%ADD13RoundRect,0.135000X0.185000X-0.135000X0.185000X0.135000X-0.185000X0.135000X-0.185000X-0.135000X0*%
%TD*%
%TA.AperFunction,ViaPad*%
%ADD14C,0.400000*%
%TD*%
%TA.AperFunction,Conductor*%
%ADD15C,0.200000*%
%TD*%
G04 APERTURE END LIST*
D10*
%TO.P,J2,1,Pin_1*%
%TO.N,/Connectors/RESET*%
X5475000Y-3250000D03*
%TO.P,J2,2,Pin_2*%
%TO.N,/Connectors/SWDCLK*%
X2525000Y-3250000D03*
%TO.P,J2,3,Pin_3*%
%TO.N,/Connectors/TX*%
X5475000Y-3750000D03*
%TO.P,J2,4,Pin_4*%
%TO.N,/Connectors/SWDIO*%
X2525000Y-3750000D03*
%TO.P,J2,5,Pin_5*%
%TO.N,/Connectors/RX*%
X5475000Y-4250000D03*
%TO.P,J2,6,Pin_6*%
%TO.N,VCC*%
X2525000Y-4250000D03*
%TO.P,J2,7,Pin_7*%
%TO.N,/Connectors/LED0*%
X5475000Y-4750000D03*
%TO.P,J2,8,Pin_8*%
%TO.N,VCC*%
X2525000Y-4750000D03*
%TO.P,J2,9,Pin_9*%
%TO.N,/Connectors/LED1*%
X5475000Y-5250000D03*
%TO.P,J2,10,Pin_10*%
%TO.N,VCC*%
X2525000Y-5250000D03*
%TO.P,J2,11,Pin_11*%
%TO.N,/Connectors/VSENSE*%
X5475000Y-5750000D03*
%TO.P,J2,12,Pin_12*%
%TO.N,VCC*%
X2525000Y-5750000D03*
%TO.P,J2,13,Pin_13*%
%TO.N,/Accelerometer/SCL*%
X5475000Y-6250000D03*
%TO.P,J2,14,Pin_14*%
%TO.N,GND*%
X2525000Y-6250000D03*
%TO.P,J2,15,Pin_15*%
%TO.N,/Accelerometer/SDA*%
X5475000Y-6750000D03*
%TO.P,J2,16,Pin_16*%
%TO.N,GND*%
X2525000Y-6750000D03*
%TO.P,J2,17,Pin_17*%
%TO.N,/Connectors/LED_EN*%
X5475000Y-7250000D03*
%TO.P,J2,18,Pin_18*%
%TO.N,GND*%
X2525000Y-7250000D03*
%TO.P,J2,19,Pin_19*%
%TO.N,/Connectors/LED2*%
X5475000Y-7750000D03*
%TO.P,J2,20,Pin_20*%
%TO.N,GND*%
X2525000Y-7750000D03*
%TO.P,J2,21,Pin_21*%
%TO.N,/Connectors/LED3*%
X5475000Y-8250000D03*
%TO.P,J2,22,Pin_22*%
%TO.N,/Accelerometer/INT2*%
X2525000Y-8250000D03*
%TO.P,J2,23,Pin_23*%
%TO.N,/Connectors/BUTTON*%
X5475000Y-8750000D03*
%TO.P,J2,24,Pin_24*%
%TO.N,/Accelerometer/INT1*%
X2525000Y-8750000D03*
%TD*%
%TO.P,J1,1,Pin_1*%
%TO.N,GND*%
X31475000Y-3250000D03*
%TO.P,J1,2,Pin_2*%
X28525000Y-3250000D03*
%TO.P,J1,3,Pin_3*%
%TO.N,/Connectors/ROW0*%
X31475000Y-3750000D03*
%TO.P,J1,4,Pin_4*%
%TO.N,/Connectors/COL9*%
X28525000Y-3750000D03*
%TO.P,J1,5,Pin_5*%
%TO.N,/Connectors/ROW1*%
X31475000Y-4250000D03*
%TO.P,J1,6,Pin_6*%
%TO.N,/Connectors/COL10*%
X28525000Y-4250000D03*
%TO.P,J1,7,Pin_7*%
%TO.N,/Connectors/ROW2*%
X31475000Y-4750000D03*
%TO.P,J1,8,Pin_8*%
%TO.N,/Connectors/COL0*%
X28525000Y-4750000D03*
%TO.P,J1,9,Pin_9*%
%TO.N,/Connectors/ROW3*%
X31475000Y-5250000D03*
%TO.P,J1,10,Pin_10*%
%TO.N,/Connectors/COL1*%
X28525000Y-5250000D03*
%TO.P,J1,11,Pin_11*%
%TO.N,/Connectors/ROW4*%
X31475000Y-5750000D03*
%TO.P,J1,12,Pin_12*%
%TO.N,/Connectors/COL2*%
X28525000Y-5750000D03*
%TO.P,J1,13,Pin_13*%
%TO.N,/Connectors/ROW5*%
X31475000Y-6250000D03*
%TO.P,J1,14,Pin_14*%
%TO.N,/Connectors/COL3*%
X28525000Y-6250000D03*
%TO.P,J1,15,Pin_15*%
%TO.N,/Connectors/ROW6*%
X31475000Y-6750000D03*
%TO.P,J1,16,Pin_16*%
%TO.N,/Connectors/COL4*%
X28525000Y-6750000D03*
%TO.P,J1,17,Pin_17*%
%TO.N,/Connectors/ROW7*%
X31475000Y-7250000D03*
%TO.P,J1,18,Pin_18*%
%TO.N,/Connectors/COL5*%
X28525000Y-7250000D03*
%TO.P,J1,19,Pin_19*%
%TO.N,/Connectors/ROW8*%
X31475000Y-7750000D03*
%TO.P,J1,20,Pin_20*%
%TO.N,/Connectors/COL6*%
X28525000Y-7750000D03*
%TO.P,J1,21,Pin_21*%
%TO.N,/Connectors/ROW9*%
X31475000Y-8250000D03*
%TO.P,J1,22,Pin_22*%
%TO.N,/Connectors/COL7*%
X28525000Y-8250000D03*
%TO.P,J1,23,Pin_23*%
%TO.N,GND*%
X31475000Y-8750000D03*
%TO.P,J1,24,Pin_24*%
%TO.N,/Connectors/COL8*%
X28525000Y-8750000D03*
%TD*%
D11*
%TO.P,C7,1*%
%TO.N,/Microcontroller/DEC3*%
X10270000Y-1750000D03*
%TO.P,C7,2*%
%TO.N,GND*%
X11230000Y-1750000D03*
%TD*%
D12*
%TO.P,R2,1*%
%TO.N,VCC*%
X16500000Y-10490000D03*
%TO.P,R2,2*%
%TO.N,/Accelerometer/SCL*%
X16500000Y-11510000D03*
%TD*%
D11*
%TO.P,C18,1*%
%TO.N,/Connectors/VSENSE*%
X8770000Y-5500000D03*
%TO.P,C18,2*%
%TO.N,GND*%
X9730000Y-5500000D03*
%TD*%
D13*
%TO.P,R1,1*%
%TO.N,/Accelerometer/SDA*%
X17500000Y-11510000D03*
%TO.P,R1,2*%
%TO.N,VCC*%
X17500000Y-10490000D03*
%TD*%
D14*
%TO.N,VCC*%
X1250000Y-4500000D03*
X6500000Y-9500000D03*
X15000000Y-7520000D03*
X16500000Y-7750000D03*
X20000000Y-9270000D03*
X30000000Y-6730000D03*
X1250000Y-5500000D03*
X6500000Y-2500000D03*
%TO.N,GND*%
X11230000Y-1750000D03*
X10000000Y-5500000D03*
X15000000Y-8480000D03*
X22000000Y-3750000D03*
X20000000Y-3750000D03*
X7750000Y-10270000D03*
X7500000Y-2520000D03*
X8000000Y-9300000D03*
X15250000Y-500000D03*
X29000000Y-2500000D03*
X7500000Y-500000D03*
X18000000Y-3750000D03*
X31000000Y-10500000D03*
X5250000Y-2500000D03*
X24250000Y-1750000D03*
X13250000Y-500000D03*
X11250000Y-5500000D03*
X24250000Y-2750000D03*
X20250000Y-8000000D03*
X1250000Y-6500000D03*
X24250000Y-3750000D03*
X14750000Y-11500000D03*
X31000000Y-2500000D03*
X17775000Y-7750000D03*
X4000000Y-7500000D03*
X32000000Y-2500000D03*
X5500000Y-9500000D03*
X4000000Y-5000000D03*
X1250000Y-7500000D03*
X17000000Y-3750000D03*
X30000000Y-5770000D03*
X32000000Y-10500000D03*
X16000000Y-3750000D03*
X15250000Y-2210000D03*
X21750000Y-11500000D03*
X23750000Y-6000000D03*
X22500000Y-7000000D03*
X2750000Y-9500000D03*
X19000000Y-3770000D03*
X26000000Y-11500000D03*
X1250000Y-8500000D03*
X14250000Y-500000D03*
X22500000Y-6000000D03*
X1250000Y-3500000D03*
X20000000Y-10230000D03*
X12750000Y-10270000D03*
X2750000Y-2500000D03*
X4000000Y-6500000D03*
X19250000Y-11500000D03*
X23000000Y-3750000D03*
X27250000Y-10500000D03*
X4250000Y-11500000D03*
X12500000Y-5500000D03*
X14250000Y-2000000D03*
X28000000Y-2500000D03*
X24250000Y-750000D03*
X21000000Y-3750000D03*
%TO.N,/Microcontroller/DEC3*%
X10500000Y-2250000D03*
%TO.N,/Connectors/VSENSE*%
X7250000Y-5750000D03*
%TO.N,/Connectors/ROW0*%
X33000000Y-3750000D03*
%TO.N,/Connectors/COL9*%
X25750000Y-3750000D03*
%TO.N,/Connectors/ROW1*%
X33500000Y-4250000D03*
%TO.N,/Connectors/COL10*%
X25000000Y-3750000D03*
%TO.N,/Accelerometer/SDA*%
X15500000Y-6250000D03*
X18500000Y-6250000D03*
X18500000Y-11500000D03*
%TO.N,/Accelerometer/SCL*%
X16000000Y-5750000D03*
X15500000Y-11512500D03*
%TO.N,/Connectors/ROW2*%
X33000000Y-4750000D03*
%TO.N,/Connectors/COL0*%
X21250000Y-9750000D03*
%TO.N,/Connectors/ROW3*%
X33500000Y-5250000D03*
%TO.N,/Connectors/COL1*%
X21750000Y-10500000D03*
%TO.N,/Connectors/ROW4*%
X33000000Y-5750000D03*
%TO.N,/Connectors/COL2*%
X22250000Y-11000000D03*
%TO.N,/Connectors/ROW5*%
X33500000Y-6250000D03*
%TO.N,/Connectors/COL3*%
X22786212Y-11500000D03*
%TO.N,/Connectors/ROW6*%
X33000000Y-6750000D03*
%TO.N,/Connectors/COL4*%
X23500000Y-11500000D03*
%TO.N,/Connectors/ROW7*%
X33500000Y-7250000D03*
%TO.N,/Connectors/COL5*%
X24250000Y-11500000D03*
%TO.N,/Connectors/ROW8*%
X33000000Y-7750000D03*
%TO.N,/Connectors/COL6*%
X25000000Y-11500000D03*
%TO.N,/Connectors/ROW9*%
X33500000Y-8250000D03*
%TO.N,/Connectors/COL7*%
X25500000Y-11000000D03*
%TO.N,/Connectors/COL8*%
X26250000Y-10500000D03*
%TO.N,/Connectors/RESET*%
X15000000Y-3750000D03*
%TO.N,/Connectors/SWDCLK*%
X13500000Y-2750000D03*
%TO.N,/Connectors/TX*%
X15500000Y-4250000D03*
%TO.N,/Connectors/SWDIO*%
X13000000Y-2250000D03*
%TO.N,/Accelerometer/INT2*%
X14500000Y-10000000D03*
%TO.N,/Accelerometer/INT1*%
X14500000Y-10750000D03*
%TO.N,/Connectors/RX*%
X15000000Y-4750000D03*
%TO.N,/Connectors/LED0*%
X7250000Y-4750000D03*
%TO.N,/Connectors/LED1*%
X7750000Y-5250000D03*
%TO.N,/Connectors/LED2*%
X12000000Y-8750000D03*
%TO.N,/Connectors/LED3*%
X11500000Y-9250000D03*
%TO.N,/Connectors/BUTTON*%
X11000000Y-8750000D03*
%TO.N,/Connectors/LED_EN*%
X15000000Y-6750000D03*
%TD*%
D15*
%TO.N,VCC*%
X17500000Y-10490000D02*
X16500000Y-10490000D01*
X16500000Y-10490000D02*
X16500000Y-7750000D01*
%TO.N,/Microcontroller/DEC3*%
X10270000Y-1750000D02*
X10309081Y-1789081D01*
X10500011Y-2250000D02*
G75*
G03*
X10309081Y-1789081I-651811J0D01*
G01*
%TO.N,/Connectors/VSENSE*%
X7250000Y-5750000D02*
X5475000Y-5750000D01*
X8520000Y-5750000D02*
X8770000Y-5500000D01*
X7250000Y-5750000D02*
X8520000Y-5750000D01*
%TO.N,/Connectors/ROW0*%
X31475000Y-3750000D02*
X33000000Y-3750000D01*
%TO.N,/Connectors/COL9*%
X28525000Y-3750000D02*
X25750000Y-3750000D01*
%TO.N,/Connectors/ROW1*%
X31475000Y-4250000D02*
X33500000Y-4250000D01*
%TO.N,/Connectors/COL10*%
X25000000Y-3750000D02*
X24981894Y-3750000D01*
X25500000Y-4250000D02*
X28525000Y-4250000D01*
X25000000Y-3750000D02*
X25500000Y-4250000D01*
%TO.N,/Accelerometer/SDA*%
X18500000Y-11500000D02*
X17524142Y-11500000D01*
X15500000Y-6250000D02*
X13500000Y-6250000D01*
X18500000Y-11500000D02*
X18500000Y-6250000D01*
X13500000Y-6250000D02*
X13000000Y-6750000D01*
X13000000Y-6750000D02*
X5475000Y-6750000D01*
X17524142Y-11500018D02*
G75*
G03*
X17500000Y-11510000I-42J-34082D01*
G01*
%TO.N,/Accelerometer/SCL*%
X13250000Y-5750000D02*
X12750000Y-6250000D01*
X16000000Y-5750000D02*
X16000000Y-6500000D01*
X16000000Y-6500000D02*
X15500000Y-7000000D01*
X15500000Y-7000000D02*
X15500000Y-11512500D01*
X15500000Y-11512500D02*
X16493965Y-11512500D01*
X16000000Y-5750000D02*
X13250000Y-5750000D01*
X12750000Y-6250000D02*
X5475000Y-6250000D01*
X16493965Y-11512485D02*
G75*
G03*
X16500000Y-11510000I35J8485D01*
G01*
%TO.N,/Connectors/ROW2*%
X33000000Y-4750000D02*
X31475000Y-4750000D01*
%TO.N,/Connectors/COL0*%
X21250000Y-9750000D02*
X21250000Y-9500000D01*
X26000000Y-4750000D02*
X28525000Y-4750000D01*
X21250000Y-9500000D02*
X26000000Y-4750000D01*
%TO.N,/Connectors/ROW3*%
X31475000Y-5250000D02*
X33500000Y-5250000D01*
%TO.N,/Connectors/COL1*%
X26250000Y-5250000D02*
X28525000Y-5250000D01*
X21750000Y-10500000D02*
X21750000Y-9750000D01*
X21750000Y-9750000D02*
X26250000Y-5250000D01*
%TO.N,/Connectors/ROW4*%
X31475000Y-5750000D02*
X33000000Y-5750000D01*
%TO.N,/Connectors/COL2*%
X22250000Y-11000000D02*
X22250000Y-10000000D01*
X22250000Y-10000000D02*
X26500000Y-5750000D01*
X26500000Y-5750000D02*
X28525000Y-5750000D01*
%TO.N,/Connectors/ROW5*%
X31475000Y-6250000D02*
X33500000Y-6250000D01*
%TO.N,/Connectors/COL3*%
X22786212Y-11500000D02*
X22786212Y-10213788D01*
X26750000Y-6250000D02*
X28525000Y-6250000D01*
X22786212Y-10213788D02*
X26750000Y-6250000D01*
%TO.N,/Connectors/ROW6*%
X31475000Y-6750000D02*
X33000000Y-6750000D01*
%TO.N,/Connectors/COL4*%
X23500000Y-11500000D02*
X23500000Y-10250000D01*
X27000000Y-6750000D02*
X28525000Y-6750000D01*
X23500000Y-10250000D02*
X27000000Y-6750000D01*
%TO.N,/Connectors/ROW7*%
X31475000Y-7250000D02*
X33500000Y-7250000D01*
%TO.N,/Connectors/COL5*%
X24250000Y-11500000D02*
X24250000Y-10250000D01*
X27250000Y-7250000D02*
X28525000Y-7250000D01*
X24250000Y-10250000D02*
X27250000Y-7250000D01*
%TO.N,/Connectors/ROW8*%
X31475000Y-7750000D02*
X33000000Y-7750000D01*
%TO.N,/Connectors/COL6*%
X27500000Y-7750000D02*
X28525000Y-7750000D01*
X25000000Y-10250000D02*
X27500000Y-7750000D01*
X25000000Y-11500000D02*
X25000000Y-10250000D01*
%TO.N,/Connectors/ROW9*%
X31475000Y-8250000D02*
X33500000Y-8250000D01*
%TO.N,/Connectors/COL7*%
X27750000Y-8250000D02*
X28525000Y-8250000D01*
X25500000Y-11000000D02*
X25500000Y-10500000D01*
X25500000Y-10500000D02*
X27750000Y-8250000D01*
%TO.N,/Connectors/COL8*%
X26250000Y-10500000D02*
X28000000Y-8750000D01*
X28000000Y-8750000D02*
X28525000Y-8750000D01*
%TO.N,/Connectors/RESET*%
X15000000Y-3750000D02*
X9000000Y-3750000D01*
X8500000Y-3250000D02*
X5475000Y-3250000D01*
X9000000Y-3750000D02*
X8500000Y-3250000D01*
%TO.N,/Connectors/SWDCLK*%
X13500000Y-2750000D02*
X13500000Y-2000000D01*
X9210000Y-500000D02*
X8710000Y-1000000D01*
X3250000Y-3250000D02*
X2525000Y-3250000D01*
X12000000Y-500000D02*
X9210000Y-500000D01*
X13500000Y-2000000D02*
X12000000Y-500000D01*
X3500000Y-2000000D02*
X3500000Y-3000000D01*
X3500000Y-3000000D02*
X3250000Y-3250000D01*
X4500000Y-1000000D02*
X3500000Y-2000000D01*
X8710000Y-1000000D02*
X4500000Y-1000000D01*
%TO.N,/Connectors/TX*%
X8750000Y-4250000D02*
X8250000Y-3750000D01*
X8250000Y-3750000D02*
X5475000Y-3750000D01*
X15500000Y-4250000D02*
X8750000Y-4250000D01*
%TO.N,/Connectors/SWDIO*%
X13000000Y-2250000D02*
X11750000Y-1000000D01*
X3500000Y-3750000D02*
X2525000Y-3750000D01*
X9500000Y-1000000D02*
X9000000Y-1500000D01*
X9000000Y-1500000D02*
X4716690Y-1500000D01*
X4000000Y-3250000D02*
X3500000Y-3750000D01*
X11750000Y-1000000D02*
X9500000Y-1000000D01*
X4716690Y-1500000D02*
X4000000Y-2216690D01*
X4000000Y-2216690D02*
X4000000Y-3250000D01*
%TO.N,/Accelerometer/INT2*%
X4000000Y-8750000D02*
X3500000Y-8250000D01*
X4000000Y-9500000D02*
X4000000Y-8750000D01*
X13500000Y-11000000D02*
X5500000Y-11000000D01*
X3500000Y-8250000D02*
X2525000Y-8250000D01*
X14500000Y-10000000D02*
X13500000Y-11000000D01*
X5500000Y-11000000D02*
X4000000Y-9500000D01*
%TO.N,/Accelerometer/INT1*%
X5250000Y-11500000D02*
X3500000Y-9750000D01*
X13750000Y-11500000D02*
X5250000Y-11500000D01*
X3500000Y-9000000D02*
X3250000Y-8750000D01*
X3500000Y-9750000D02*
X3500000Y-9000000D01*
X14500000Y-10750000D02*
X13750000Y-11500000D01*
X3250000Y-8750000D02*
X2525000Y-8750000D01*
%TO.N,/Connectors/RX*%
X15000000Y-4750000D02*
X8500000Y-4750000D01*
X8000000Y-4250000D02*
X5475000Y-4250000D01*
X8500000Y-4750000D02*
X8000000Y-4250000D01*
%TO.N,/Connectors/LED0*%
X7250000Y-4750000D02*
X5475000Y-4750000D01*
%TO.N,/Connectors/LED1*%
X7750000Y-5250000D02*
X5475000Y-5250000D01*
%TO.N,/Connectors/LED2*%
X12000000Y-8250000D02*
X11500000Y-7750000D01*
X11500000Y-7750000D02*
X5475000Y-7750000D01*
X12000000Y-8750000D02*
X12000000Y-8250000D01*
%TO.N,/Connectors/LED3*%
X11500000Y-8500000D02*
X11250000Y-8250000D01*
X11500000Y-9250000D02*
X11500000Y-8500000D01*
X11250000Y-8250000D02*
X5475000Y-8250000D01*
%TO.N,/Connectors/BUTTON*%
X11000000Y-8750000D02*
X5475000Y-8750000D01*
%TO.N,/Connectors/LED_EN*%
X15000000Y-6750000D02*
X13750000Y-6750000D01*
X13250000Y-7250000D02*
X5475000Y-7250000D01*
X13750000Y-6750000D02*
X13250000Y-7250000D01*
%TD*%
%TA.AperFunction,Conductor*%
%TO.N,GND*%
G36*
X8903712Y-219407D02*
G01*
X8939676Y-268907D01*
X8939676Y-330093D01*
X8915525Y-369503D01*
X8614526Y-670503D01*
X8560009Y-698281D01*
X8544522Y-699500D01*
X4565168Y-699500D01*
X4551489Y-697267D01*
X4551319Y-698493D01*
X4542235Y-697225D01*
X4500981Y-699133D01*
X4494196Y-699447D01*
X4491917Y-699500D01*
X4472156Y-699500D01*
X4472151Y-699500D01*
X4472149Y-699501D01*
X4468651Y-700154D01*
X4461850Y-700942D01*
X4430008Y-702415D01*
X4421014Y-706386D01*
X4399228Y-713132D01*
X4389572Y-714937D01*
X4389565Y-714940D01*
X4362465Y-731718D01*
X4356396Y-734917D01*
X4327238Y-747792D01*
X4327231Y-747796D01*
X4320286Y-754742D01*
X4302406Y-768905D01*
X4294048Y-774080D01*
X4274839Y-799515D01*
X4270335Y-804692D01*
X3333590Y-1741437D01*
X3322361Y-1749550D01*
X3323090Y-1750515D01*
X3315771Y-1756041D01*
X3283372Y-1791580D01*
X3281796Y-1793231D01*
X3267830Y-1807198D01*
X3267817Y-1807213D01*
X3265813Y-1810138D01*
X3261561Y-1815504D01*
X3240084Y-1839065D01*
X3240083Y-1839067D01*
X3236529Y-1848240D01*
X3225896Y-1868412D01*
X3220346Y-1876515D01*
X3220342Y-1876524D01*
X3213045Y-1907545D01*
X3211016Y-1914098D01*
X3199500Y-1943824D01*
X3199500Y-1953651D01*
X3196870Y-1976318D01*
X3194621Y-1985879D01*
X3199025Y-2017452D01*
X3199500Y-2024298D01*
X3199500Y-2825500D01*
X3180593Y-2883691D01*
X3131093Y-2919655D01*
X3100500Y-2924500D01*
X1886602Y-2924500D01*
X1886595Y-2924501D01*
X1809883Y-2939759D01*
X1809881Y-2939760D01*
X1722890Y-2997886D01*
X1722886Y-2997890D01*
X1664762Y-3084879D01*
X1664759Y-3084886D01*
X1649501Y-3161589D01*
X1649500Y-3161599D01*
X1649500Y-3338397D01*
X1649501Y-3338404D01*
X1664759Y-3415115D01*
X1664759Y-3415116D01*
X1664760Y-3415117D01*
X1684726Y-3444999D01*
X1701334Y-3503887D01*
X1684727Y-3554999D01*
X1664761Y-3584880D01*
X1664759Y-3584886D01*
X1649501Y-3661589D01*
X1649500Y-3661599D01*
X1649500Y-3695500D01*
X1630593Y-3753691D01*
X1581093Y-3789655D01*
X1550500Y-3794500D01*
X849000Y-3794500D01*
X816856Y-3797030D01*
X801559Y-3799452D01*
X786262Y-3801875D01*
X781715Y-3802647D01*
X781713Y-3802647D01*
X697617Y-3838591D01*
X648118Y-3874555D01*
X620372Y-3898797D01*
X573464Y-3977307D01*
X573462Y-3977310D01*
X554556Y-4035499D01*
X544500Y-4098996D01*
X544500Y-4098999D01*
X544500Y-4099000D01*
X544500Y-5901000D01*
X547030Y-5933144D01*
X549254Y-5947189D01*
X551875Y-5963738D01*
X552647Y-5968284D01*
X552647Y-5968286D01*
X588591Y-6052382D01*
X590493Y-6055000D01*
X624556Y-6101883D01*
X648797Y-6129628D01*
X727307Y-6176536D01*
X785498Y-6195443D01*
X793126Y-6196651D01*
X848996Y-6205500D01*
X849000Y-6205500D01*
X1689695Y-6205500D01*
X1749347Y-6196652D01*
X1804348Y-6179968D01*
X1858866Y-6154183D01*
X1870085Y-6146686D01*
X1925089Y-6130000D01*
X3150996Y-6130000D01*
X3151000Y-6130000D01*
X3183144Y-6127470D01*
X3200685Y-6124692D01*
X3213738Y-6122625D01*
X3214874Y-6122431D01*
X3218287Y-6121852D01*
X3302383Y-6085908D01*
X3351883Y-6049944D01*
X3379628Y-6025703D01*
X3426536Y-5947193D01*
X3445443Y-5889002D01*
X3452490Y-5844508D01*
X3455500Y-5825503D01*
X3455500Y-4174503D01*
X3455500Y-4174499D01*
X3453985Y-4155256D01*
X3468268Y-4095763D01*
X3514794Y-4056026D01*
X3548106Y-4048596D01*
X3569992Y-4047585D01*
X3578976Y-4043617D01*
X3600777Y-4036865D01*
X3610433Y-4035061D01*
X3637543Y-4018274D01*
X3643589Y-4015088D01*
X3672765Y-4002206D01*
X3679709Y-3995260D01*
X3697601Y-3981089D01*
X3705952Y-3975919D01*
X3725165Y-3950474D01*
X3729662Y-3945308D01*
X3924971Y-3749999D01*
X4166405Y-3508564D01*
X4177664Y-3500493D01*
X4176905Y-3499487D01*
X4184221Y-3493961D01*
X4184228Y-3493958D01*
X4216632Y-3458411D01*
X4218186Y-3456783D01*
X4232174Y-3442797D01*
X4234181Y-3439865D01*
X4238440Y-3434490D01*
X4245696Y-3426531D01*
X4259916Y-3410933D01*
X4263466Y-3401767D01*
X4274107Y-3381581D01*
X4279657Y-3373480D01*
X4286956Y-3342443D01*
X4288980Y-3335908D01*
X4300500Y-3306173D01*
X4300499Y-3296348D01*
X4303129Y-3273682D01*
X4305379Y-3264119D01*
X4300975Y-3232545D01*
X4300500Y-3225699D01*
X4300500Y-2382169D01*
X4319407Y-2323978D01*
X4329496Y-2312165D01*
X4812165Y-1829496D01*
X4866682Y-1801719D01*
X4882169Y-1800500D01*
X8934836Y-1800500D01*
X8948511Y-1802732D01*
X8948683Y-1801506D01*
X8957764Y-1802772D01*
X8957765Y-1802773D01*
X8957765Y-1802772D01*
X8957766Y-1802773D01*
X8966507Y-1802368D01*
X9005793Y-1800552D01*
X9008070Y-1800500D01*
X9027841Y-1800500D01*
X9027844Y-1800500D01*
X9031337Y-1799846D01*
X9038141Y-1799056D01*
X9069992Y-1797585D01*
X9078976Y-1793617D01*
X9100777Y-1786865D01*
X9110433Y-1785061D01*
X9137543Y-1768274D01*
X9143589Y-1765088D01*
X9172765Y-1752206D01*
X9179709Y-1745260D01*
X9197601Y-1731089D01*
X9205952Y-1725919D01*
X9225168Y-1700470D01*
X9229658Y-1695311D01*
X9595474Y-1329496D01*
X9649991Y-1301719D01*
X9665478Y-1300500D01*
X9729234Y-1300500D01*
X9787425Y-1319407D01*
X9823389Y-1368907D01*
X9823389Y-1430093D01*
X9818958Y-1441339D01*
X9796028Y-1490510D01*
X9796028Y-1490511D01*
X9789500Y-1540100D01*
X9789500Y-1959896D01*
X9789501Y-1959907D01*
X9796027Y-2009486D01*
X9796027Y-2009488D01*
X9846774Y-2118313D01*
X9846775Y-2118314D01*
X9846776Y-2118316D01*
X9931684Y-2203224D01*
X9931685Y-2203224D01*
X9931686Y-2203225D01*
X10047377Y-2257173D01*
X10046442Y-2259176D01*
X10088090Y-2287526D01*
X10107599Y-2332656D01*
X10108946Y-2341161D01*
X10114156Y-2374057D01*
X10114354Y-2375303D01*
X10114355Y-2375307D01*
X10148898Y-2443100D01*
X10171950Y-2488342D01*
X10261658Y-2578050D01*
X10374696Y-2635646D01*
X10500000Y-2655492D01*
X10625304Y-2635646D01*
X10738342Y-2578050D01*
X10828050Y-2488342D01*
X10885646Y-2375304D01*
X10905492Y-2250000D01*
X10903708Y-2238739D01*
X10900164Y-2216362D01*
X10885646Y-2124696D01*
X10828050Y-2011658D01*
X10808320Y-1991928D01*
X10779495Y-1963102D01*
X10751718Y-1908585D01*
X10750499Y-1893099D01*
X10750499Y-1540103D01*
X10750498Y-1540092D01*
X10743972Y-1490514D01*
X10743970Y-1490510D01*
X10721041Y-1441339D01*
X10713585Y-1380611D01*
X10743248Y-1327097D01*
X10798700Y-1301238D01*
X10810766Y-1300500D01*
X11584521Y-1300500D01*
X11642712Y-1319407D01*
X11654525Y-1329496D01*
X12575428Y-2250399D01*
X12603205Y-2304915D01*
X12614354Y-2375305D01*
X12648898Y-2443100D01*
X12671950Y-2488342D01*
X12761658Y-2578050D01*
X12874696Y-2635646D01*
X13000000Y-2655492D01*
X13007696Y-2656711D01*
X13007283Y-2659317D01*
X13053699Y-2674399D01*
X13089663Y-2723899D01*
X13092595Y-2742413D01*
X13093289Y-2742304D01*
X13114354Y-2875303D01*
X13114355Y-2875307D01*
X13162780Y-2970345D01*
X13171950Y-2988342D01*
X13261658Y-3078050D01*
X13374696Y-3135646D01*
X13482866Y-3152778D01*
X13499999Y-3155492D01*
X13499999Y-3155491D01*
X13500000Y-3155492D01*
X13625304Y-3135646D01*
X13738342Y-3078050D01*
X13828050Y-2988342D01*
X13885646Y-2875304D01*
X13905492Y-2750000D01*
X13885646Y-2624696D01*
X13828050Y-2511658D01*
X13828046Y-2511654D01*
X13823469Y-2505353D01*
X13824983Y-2504252D01*
X13801717Y-2458575D01*
X13800500Y-2443100D01*
X13800500Y-2065168D01*
X13802731Y-2051495D01*
X13801505Y-2051324D01*
X13802773Y-2042232D01*
X13801627Y-2017452D01*
X13800552Y-1994207D01*
X13800500Y-1991928D01*
X13800500Y-1972160D01*
X13800500Y-1972156D01*
X13799846Y-1968664D01*
X13799056Y-1961859D01*
X13797585Y-1930008D01*
X13793614Y-1921016D01*
X13786864Y-1899214D01*
X13785061Y-1889568D01*
X13785061Y-1889567D01*
X13768276Y-1862458D01*
X13765088Y-1856410D01*
X13752206Y-1827234D01*
X13752205Y-1827233D01*
X13752204Y-1827231D01*
X13745254Y-1820281D01*
X13731088Y-1802395D01*
X13725921Y-1794050D01*
X13725919Y-1794048D01*
X13700487Y-1774842D01*
X13695310Y-1770337D01*
X12294475Y-369504D01*
X12266698Y-314987D01*
X12276269Y-254555D01*
X12319534Y-211290D01*
X12364479Y-200500D01*
X31625943Y-200500D01*
X31684134Y-219407D01*
X31695947Y-229496D01*
X33770504Y-2304053D01*
X33798281Y-2358570D01*
X33799500Y-2374057D01*
X33799500Y-3791558D01*
X33780593Y-3849749D01*
X33731093Y-3885713D01*
X33669907Y-3885713D01*
X33655555Y-3879767D01*
X33625310Y-3864356D01*
X33625305Y-3864354D01*
X33625304Y-3864354D01*
X33500000Y-3844508D01*
X33492304Y-3843289D01*
X33492716Y-3840682D01*
X33446301Y-3825601D01*
X33410337Y-3776101D01*
X33407404Y-3757586D01*
X33406711Y-3757696D01*
X33391491Y-3661602D01*
X33385646Y-3624696D01*
X33328050Y-3511658D01*
X33238342Y-3421950D01*
X33198745Y-3401774D01*
X33125307Y-3364355D01*
X33125304Y-3364354D01*
X33000000Y-3344508D01*
X32874696Y-3364354D01*
X32874692Y-3364355D01*
X32761658Y-3421950D01*
X32755353Y-3426531D01*
X32754251Y-3425014D01*
X32708588Y-3448281D01*
X32693101Y-3449500D01*
X32233324Y-3449500D01*
X32195442Y-3441966D01*
X32190119Y-3439761D01*
X32190117Y-3439760D01*
X32190113Y-3439759D01*
X32113411Y-3424501D01*
X32113402Y-3424500D01*
X32113401Y-3424500D01*
X32113399Y-3424500D01*
X30836602Y-3424500D01*
X30836595Y-3424501D01*
X30759883Y-3439759D01*
X30759881Y-3439760D01*
X30672890Y-3497886D01*
X30672886Y-3497890D01*
X30614762Y-3584879D01*
X30614759Y-3584886D01*
X30599501Y-3661589D01*
X30599500Y-3661599D01*
X30599500Y-3838397D01*
X30599501Y-3838404D01*
X30614759Y-3915115D01*
X30614759Y-3915116D01*
X30614760Y-3915117D01*
X30634726Y-3944999D01*
X30651334Y-4003887D01*
X30634727Y-4054999D01*
X30614761Y-4084880D01*
X30614759Y-4084886D01*
X30599501Y-4161589D01*
X30599500Y-4161599D01*
X30599500Y-4338397D01*
X30599501Y-4338404D01*
X30614759Y-4415115D01*
X30614759Y-4415116D01*
X30614760Y-4415117D01*
X30634726Y-4444999D01*
X30651334Y-4503887D01*
X30634727Y-4554999D01*
X30614761Y-4584880D01*
X30614759Y-4584886D01*
X30599501Y-4661589D01*
X30599500Y-4661599D01*
X30599500Y-4838397D01*
X30599501Y-4838404D01*
X30614759Y-4915115D01*
X30614759Y-4915116D01*
X30614760Y-4915117D01*
X30634726Y-4944999D01*
X30651334Y-5003887D01*
X30634727Y-5054999D01*
X30614761Y-5084880D01*
X30614759Y-5084886D01*
X30599501Y-5161589D01*
X30599500Y-5161599D01*
X30599500Y-5338397D01*
X30599501Y-5338404D01*
X30614759Y-5415115D01*
X30614759Y-5415116D01*
X30614760Y-5415117D01*
X30634726Y-5444999D01*
X30651334Y-5503887D01*
X30634727Y-5554999D01*
X30614761Y-5584880D01*
X30614759Y-5584886D01*
X30599501Y-5661589D01*
X30599500Y-5661599D01*
X30599500Y-5838397D01*
X30599501Y-5838404D01*
X30614759Y-5915115D01*
X30614759Y-5915116D01*
X30614760Y-5915117D01*
X30634726Y-5944999D01*
X30651334Y-6003887D01*
X30634727Y-6054999D01*
X30614761Y-6084880D01*
X30614759Y-6084886D01*
X30599501Y-6161589D01*
X30599500Y-6161599D01*
X30599500Y-6338397D01*
X30599501Y-6338404D01*
X30614759Y-6415115D01*
X30614759Y-6415116D01*
X30614760Y-6415117D01*
X30634726Y-6444999D01*
X30651334Y-6503887D01*
X30634727Y-6554999D01*
X30614761Y-6584880D01*
X30614759Y-6584886D01*
X30599501Y-6661589D01*
X30599500Y-6661599D01*
X30599500Y-6697005D01*
X30590389Y-6725044D01*
X30599500Y-6762990D01*
X30599500Y-6838396D01*
X30599501Y-6838404D01*
X30614759Y-6915115D01*
X30614759Y-6915116D01*
X30614760Y-6915117D01*
X30634726Y-6944999D01*
X30651334Y-7003887D01*
X30634727Y-7054999D01*
X30614761Y-7084880D01*
X30614759Y-7084886D01*
X30599501Y-7161589D01*
X30599500Y-7161599D01*
X30599500Y-7338397D01*
X30599501Y-7338404D01*
X30614759Y-7415115D01*
X30614759Y-7415116D01*
X30614760Y-7415117D01*
X30634726Y-7444999D01*
X30651334Y-7503887D01*
X30634727Y-7554999D01*
X30614761Y-7584880D01*
X30614759Y-7584886D01*
X30599501Y-7661589D01*
X30599500Y-7661599D01*
X30599500Y-7838397D01*
X30599501Y-7838404D01*
X30614759Y-7915115D01*
X30614759Y-7915116D01*
X30614760Y-7915117D01*
X30634726Y-7944999D01*
X30651334Y-8003887D01*
X30634727Y-8054999D01*
X30614761Y-8084880D01*
X30614759Y-8084886D01*
X30599501Y-8161589D01*
X30599500Y-8161599D01*
X30599500Y-8338397D01*
X30599501Y-8338404D01*
X30614759Y-8415116D01*
X30614760Y-8415118D01*
X30660858Y-8484108D01*
X30672888Y-8502112D01*
X30759883Y-8560240D01*
X30810387Y-8570286D01*
X30836588Y-8575498D01*
X30836589Y-8575498D01*
X30836599Y-8575500D01*
X32113400Y-8575499D01*
X32190117Y-8560240D01*
X32190119Y-8560238D01*
X32195439Y-8558036D01*
X32233324Y-8550500D01*
X33193101Y-8550500D01*
X33251292Y-8569407D01*
X33260007Y-8576850D01*
X33261654Y-8578046D01*
X33261658Y-8578050D01*
X33374696Y-8635646D01*
X33500000Y-8655492D01*
X33625304Y-8635646D01*
X33655553Y-8620232D01*
X33715984Y-8610659D01*
X33770502Y-8638436D01*
X33798281Y-8692951D01*
X33799500Y-8708441D01*
X33799500Y-11700500D01*
X33780593Y-11758691D01*
X33731093Y-11794655D01*
X33700500Y-11799500D01*
X25458442Y-11799500D01*
X25400251Y-11780593D01*
X25364287Y-11731093D01*
X25364287Y-11669907D01*
X25370233Y-11655555D01*
X25385643Y-11625310D01*
X25385643Y-11625309D01*
X25385646Y-11625304D01*
X25405492Y-11500000D01*
X25405492Y-11499999D01*
X25406711Y-11492304D01*
X25409317Y-11492716D01*
X25424399Y-11446301D01*
X25473899Y-11410337D01*
X25492413Y-11407404D01*
X25492304Y-11406711D01*
X25500000Y-11405492D01*
X25625304Y-11385646D01*
X25738342Y-11328050D01*
X25828050Y-11238342D01*
X25885646Y-11125304D01*
X25905492Y-11000000D01*
X25896942Y-10946017D01*
X25906513Y-10885586D01*
X25949778Y-10842321D01*
X26010210Y-10832750D01*
X26039666Y-10842321D01*
X26124696Y-10885646D01*
X26250000Y-10905492D01*
X26375304Y-10885646D01*
X26488342Y-10828050D01*
X26578050Y-10738342D01*
X26635646Y-10625304D01*
X26646794Y-10554914D01*
X26674567Y-10500402D01*
X28070474Y-9104495D01*
X28124992Y-9076718D01*
X28140479Y-9075499D01*
X29163398Y-9075499D01*
X29163400Y-9075499D01*
X29240117Y-9060240D01*
X29327112Y-9002112D01*
X29385240Y-8915117D01*
X29400500Y-8838401D01*
X29400499Y-8661600D01*
X29385240Y-8584883D01*
X29380674Y-8578050D01*
X29365274Y-8555002D01*
X29348665Y-8496114D01*
X29365274Y-8444998D01*
X29385238Y-8415120D01*
X29385239Y-8415118D01*
X29385240Y-8415117D01*
X29400500Y-8338401D01*
X29400499Y-8161600D01*
X29385240Y-8084883D01*
X29365273Y-8055000D01*
X29348665Y-7996112D01*
X29365275Y-7944996D01*
X29368775Y-7939759D01*
X29385240Y-7915117D01*
X29400500Y-7838401D01*
X29400499Y-7661600D01*
X29385240Y-7584883D01*
X29380674Y-7578050D01*
X29365274Y-7555002D01*
X29348665Y-7496114D01*
X29365274Y-7444998D01*
X29385238Y-7415120D01*
X29385239Y-7415118D01*
X29385240Y-7415117D01*
X29400500Y-7338401D01*
X29400499Y-7161600D01*
X29385240Y-7084883D01*
X29380674Y-7078050D01*
X29365274Y-7055002D01*
X29348665Y-6996114D01*
X29365274Y-6944998D01*
X29385238Y-6915120D01*
X29385239Y-6915118D01*
X29385240Y-6915117D01*
X29400500Y-6838401D01*
X29400500Y-6762990D01*
X29409608Y-6734955D01*
X29407985Y-6728194D01*
X29589281Y-6728194D01*
X29597280Y-6747505D01*
X29604258Y-6791558D01*
X29613162Y-6847781D01*
X29614354Y-6855302D01*
X29614355Y-6855307D01*
X29660056Y-6944999D01*
X29671950Y-6968342D01*
X29761658Y-7058050D01*
X29874696Y-7115646D01*
X30000000Y-7135492D01*
X30125304Y-7115646D01*
X30238342Y-7058050D01*
X30328050Y-6968342D01*
X30385646Y-6855304D01*
X30402719Y-6747502D01*
X30410718Y-6731804D01*
X30402719Y-6712492D01*
X30400266Y-6697005D01*
X30385646Y-6604696D01*
X30328050Y-6491658D01*
X30238342Y-6401950D01*
X30234406Y-6399944D01*
X30125307Y-6344355D01*
X30125304Y-6344354D01*
X30000000Y-6324508D01*
X29874696Y-6344354D01*
X29874692Y-6344355D01*
X29761659Y-6401949D01*
X29671949Y-6491659D01*
X29614355Y-6604692D01*
X29614354Y-6604696D01*
X29597280Y-6712496D01*
X29589281Y-6728194D01*
X29407985Y-6728194D01*
X29400499Y-6697009D01*
X29400499Y-6661602D01*
X29400498Y-6661595D01*
X29385240Y-6584883D01*
X29385239Y-6584881D01*
X29366542Y-6556899D01*
X29365273Y-6555000D01*
X29348665Y-6496114D01*
X29365274Y-6444998D01*
X29385238Y-6415120D01*
X29385239Y-6415118D01*
X29385240Y-6415117D01*
X29400500Y-6338401D01*
X29400499Y-6161600D01*
X29385240Y-6084883D01*
X29365273Y-6055000D01*
X29348665Y-5996112D01*
X29365275Y-5944996D01*
X29373195Y-5933144D01*
X29385240Y-5915117D01*
X29400500Y-5838401D01*
X29400499Y-5661600D01*
X29385240Y-5584883D01*
X29380674Y-5578050D01*
X29365274Y-5555002D01*
X29348665Y-5496114D01*
X29365274Y-5444998D01*
X29385238Y-5415120D01*
X29385239Y-5415118D01*
X29385240Y-5415117D01*
X29400500Y-5338401D01*
X29400499Y-5161600D01*
X29385240Y-5084883D01*
X29380674Y-5078050D01*
X29365274Y-5055002D01*
X29348665Y-4996114D01*
X29365274Y-4944998D01*
X29385238Y-4915120D01*
X29385239Y-4915118D01*
X29385240Y-4915117D01*
X29400500Y-4838401D01*
X29400499Y-4661600D01*
X29385240Y-4584883D01*
X29380674Y-4578050D01*
X29365274Y-4555002D01*
X29348665Y-4496114D01*
X29365274Y-4444998D01*
X29385238Y-4415120D01*
X29385239Y-4415118D01*
X29385240Y-4415117D01*
X29400500Y-4338401D01*
X29400499Y-4161600D01*
X29385240Y-4084883D01*
X29372286Y-4065496D01*
X29365273Y-4055000D01*
X29348665Y-3996112D01*
X29365275Y-3944996D01*
X29385237Y-3915121D01*
X29385240Y-3915117D01*
X29400500Y-3838401D01*
X29400499Y-3661600D01*
X29385240Y-3584883D01*
X29385237Y-3584879D01*
X29356175Y-3541385D01*
X29327112Y-3497888D01*
X29240117Y-3439760D01*
X29240113Y-3439759D01*
X29163411Y-3424501D01*
X29163402Y-3424500D01*
X29163401Y-3424500D01*
X29163399Y-3424500D01*
X27886602Y-3424500D01*
X27886595Y-3424501D01*
X27809881Y-3439760D01*
X27804561Y-3441964D01*
X27766676Y-3449500D01*
X26056899Y-3449500D01*
X25998708Y-3430593D01*
X25989992Y-3423149D01*
X25988344Y-3421952D01*
X25988342Y-3421950D01*
X25893211Y-3373478D01*
X25875307Y-3364355D01*
X25875304Y-3364354D01*
X25750000Y-3344508D01*
X25624696Y-3364354D01*
X25624692Y-3364355D01*
X25511658Y-3421950D01*
X25511656Y-3421951D01*
X25445003Y-3488604D01*
X25390486Y-3516381D01*
X25330054Y-3506809D01*
X25304997Y-3488604D01*
X25238343Y-3421951D01*
X25238342Y-3421950D01*
X25143211Y-3373478D01*
X25125307Y-3364355D01*
X25125304Y-3364354D01*
X25000000Y-3344508D01*
X24874696Y-3364354D01*
X24874692Y-3364355D01*
X24761659Y-3421949D01*
X24671949Y-3511659D01*
X24614355Y-3624692D01*
X24614354Y-3624696D01*
X24594508Y-3750000D01*
X24614235Y-3874555D01*
X24614354Y-3875303D01*
X24614355Y-3875307D01*
X24652662Y-3950487D01*
X24671950Y-3988342D01*
X24761658Y-4078050D01*
X24874696Y-4135646D01*
X24945082Y-4146793D01*
X24999598Y-4174570D01*
X24999599Y-4174570D01*
X25241436Y-4416407D01*
X25249537Y-4427647D01*
X25250516Y-4426909D01*
X25256044Y-4434230D01*
X25291569Y-4466616D01*
X25293223Y-4468195D01*
X25307201Y-4482172D01*
X25307203Y-4482174D01*
X25310128Y-4484178D01*
X25315505Y-4488437D01*
X25339063Y-4509913D01*
X25339064Y-4509913D01*
X25339067Y-4509916D01*
X25348233Y-4513467D01*
X25368412Y-4524103D01*
X25376520Y-4529657D01*
X25407558Y-4536957D01*
X25414096Y-4538982D01*
X25443827Y-4550500D01*
X25453652Y-4550500D01*
X25476316Y-4553129D01*
X25485881Y-4555379D01*
X25510494Y-4551945D01*
X25517453Y-4550975D01*
X25524299Y-4550500D01*
X25535519Y-4550500D01*
X25593710Y-4569407D01*
X25629674Y-4618907D01*
X25629674Y-4680093D01*
X25605523Y-4719504D01*
X21083590Y-9241437D01*
X21072361Y-9249550D01*
X21073090Y-9250515D01*
X21065771Y-9256041D01*
X21033372Y-9291580D01*
X21031796Y-9293231D01*
X21017830Y-9307198D01*
X21017817Y-9307213D01*
X21015813Y-9310138D01*
X21011561Y-9315504D01*
X20990084Y-9339065D01*
X20990083Y-9339067D01*
X20986529Y-9348240D01*
X20975896Y-9368412D01*
X20970346Y-9376515D01*
X20970342Y-9376524D01*
X20963045Y-9407545D01*
X20961016Y-9414098D01*
X20949500Y-9443824D01*
X20947815Y-9452844D01*
X20946418Y-9452583D01*
X20930593Y-9501291D01*
X20923150Y-9510005D01*
X20921949Y-9511658D01*
X20864354Y-9624694D01*
X20864354Y-9624696D01*
X20844508Y-9750000D01*
X20864257Y-9874694D01*
X20864354Y-9875303D01*
X20864355Y-9875307D01*
X20892076Y-9929712D01*
X20921950Y-9988342D01*
X21011658Y-10078050D01*
X21124696Y-10135646D01*
X21250000Y-10155492D01*
X21303981Y-10146942D01*
X21364413Y-10156513D01*
X21407677Y-10199777D01*
X21417249Y-10260210D01*
X21407678Y-10289668D01*
X21364354Y-10374694D01*
X21364354Y-10374696D01*
X21344508Y-10500000D01*
X21355509Y-10569461D01*
X21364354Y-10625303D01*
X21364355Y-10625307D01*
X21392525Y-10680593D01*
X21421950Y-10738342D01*
X21511658Y-10828050D01*
X21624696Y-10885646D01*
X21750000Y-10905492D01*
X21757696Y-10906711D01*
X21757283Y-10909317D01*
X21803699Y-10924399D01*
X21839663Y-10973899D01*
X21842595Y-10992413D01*
X21843289Y-10992304D01*
X21844508Y-10999999D01*
X21844508Y-11000000D01*
X21860425Y-11100500D01*
X21864354Y-11125303D01*
X21864355Y-11125307D01*
X21888812Y-11173305D01*
X21921950Y-11238342D01*
X22011658Y-11328050D01*
X22124696Y-11385646D01*
X22232866Y-11402778D01*
X22249999Y-11405492D01*
X22249999Y-11405491D01*
X22250000Y-11405492D01*
X22266233Y-11402921D01*
X22326665Y-11412492D01*
X22369930Y-11455757D01*
X22378733Y-11492425D01*
X22379501Y-11492304D01*
X22400566Y-11625303D01*
X22400568Y-11625310D01*
X22415979Y-11655555D01*
X22425551Y-11715987D01*
X22397774Y-11770503D01*
X22343257Y-11798281D01*
X22327770Y-11799500D01*
X18958442Y-11799500D01*
X18900251Y-11780593D01*
X18864287Y-11731093D01*
X18864287Y-11669907D01*
X18870233Y-11655555D01*
X18885643Y-11625310D01*
X18885643Y-11625309D01*
X18885646Y-11625304D01*
X18905492Y-11500000D01*
X18885646Y-11374696D01*
X18828050Y-11261658D01*
X18828046Y-11261654D01*
X18823469Y-11255353D01*
X18824983Y-11254252D01*
X18801717Y-11208575D01*
X18800500Y-11193100D01*
X18800500Y-9270000D01*
X19594508Y-9270000D01*
X19611089Y-9374692D01*
X19614354Y-9395303D01*
X19614355Y-9395307D01*
X19668357Y-9501291D01*
X19671950Y-9508342D01*
X19761658Y-9598050D01*
X19874696Y-9655646D01*
X20000000Y-9675492D01*
X20125304Y-9655646D01*
X20238342Y-9598050D01*
X20328050Y-9508342D01*
X20385646Y-9395304D01*
X20405492Y-9270000D01*
X20385646Y-9144696D01*
X20385243Y-9143906D01*
X20360022Y-9094406D01*
X20328050Y-9031658D01*
X20238342Y-8941950D01*
X20234406Y-8939944D01*
X20125307Y-8884355D01*
X20125304Y-8884354D01*
X20000000Y-8864508D01*
X19874696Y-8884354D01*
X19874692Y-8884355D01*
X19761659Y-8941949D01*
X19671949Y-9031659D01*
X19614355Y-9144692D01*
X19614354Y-9144696D01*
X19598895Y-9242304D01*
X19594508Y-9270000D01*
X18800500Y-9270000D01*
X18800500Y-6556899D01*
X18819407Y-6498708D01*
X18826850Y-6489992D01*
X18828043Y-6488348D01*
X18828050Y-6488342D01*
X18885646Y-6375304D01*
X18905492Y-6250000D01*
X18885646Y-6124696D01*
X18828050Y-6011658D01*
X18738342Y-5921950D01*
X18724924Y-5915113D01*
X18625307Y-5864355D01*
X18625304Y-5864354D01*
X18500000Y-5844508D01*
X18374696Y-5864354D01*
X18374692Y-5864355D01*
X18261659Y-5921949D01*
X18171949Y-6011659D01*
X18114355Y-6124692D01*
X18114354Y-6124696D01*
X18094508Y-6249999D01*
X18094508Y-6250000D01*
X18114354Y-6375303D01*
X18114355Y-6375307D01*
X18127930Y-6401949D01*
X18171950Y-6488342D01*
X18171952Y-6488344D01*
X18176531Y-6494647D01*
X18175014Y-6495748D01*
X18198281Y-6541412D01*
X18199500Y-6556899D01*
X18199500Y-10217927D01*
X18180593Y-10276118D01*
X18131093Y-10312082D01*
X18069907Y-10312082D01*
X18020407Y-10276118D01*
X18010776Y-10259767D01*
X17964066Y-10159598D01*
X17964065Y-10159597D01*
X17964065Y-10159596D01*
X17880404Y-10075935D01*
X17880402Y-10075934D01*
X17880401Y-10075933D01*
X17773175Y-10025932D01*
X17740601Y-10021644D01*
X17724316Y-10019500D01*
X17275684Y-10019500D01*
X17259398Y-10021644D01*
X17226825Y-10025932D01*
X17226824Y-10025932D01*
X17119598Y-10075933D01*
X17119596Y-10075934D01*
X17119596Y-10075935D01*
X17070001Y-10125529D01*
X17015487Y-10153305D01*
X16955055Y-10143734D01*
X16929999Y-10125530D01*
X16880404Y-10075935D01*
X16880402Y-10075934D01*
X16880401Y-10075933D01*
X16857659Y-10065328D01*
X16812912Y-10023598D01*
X16800500Y-9975604D01*
X16800500Y-8056899D01*
X16819407Y-7998708D01*
X16826850Y-7989992D01*
X16828043Y-7988348D01*
X16828050Y-7988342D01*
X16885646Y-7875304D01*
X16905492Y-7750000D01*
X16885646Y-7624696D01*
X16828050Y-7511658D01*
X16738342Y-7421950D01*
X16734406Y-7419944D01*
X16625307Y-7364355D01*
X16625304Y-7364354D01*
X16500000Y-7344508D01*
X16374696Y-7364354D01*
X16374692Y-7364355D01*
X16261659Y-7421949D01*
X16171949Y-7511659D01*
X16114355Y-7624692D01*
X16114354Y-7624696D01*
X16101627Y-7705055D01*
X16094508Y-7750000D01*
X16110037Y-7848050D01*
X16114354Y-7875303D01*
X16114355Y-7875307D01*
X16129814Y-7905646D01*
X16171950Y-7988342D01*
X16171952Y-7988344D01*
X16176531Y-7994647D01*
X16175014Y-7995748D01*
X16198281Y-8041412D01*
X16199500Y-8056899D01*
X16199500Y-9975604D01*
X16180593Y-10033795D01*
X16142341Y-10065328D01*
X16119598Y-10075933D01*
X16035933Y-10159598D01*
X15989224Y-10259767D01*
X15947496Y-10304515D01*
X15887435Y-10316189D01*
X15831982Y-10290331D01*
X15802319Y-10236817D01*
X15800500Y-10217927D01*
X15800500Y-7165477D01*
X15819407Y-7107286D01*
X15829490Y-7095480D01*
X16166403Y-6758566D01*
X16177664Y-6750493D01*
X16176905Y-6749487D01*
X16184221Y-6743961D01*
X16184228Y-6743958D01*
X16216632Y-6708411D01*
X16218186Y-6706783D01*
X16232174Y-6692797D01*
X16234181Y-6689865D01*
X16238440Y-6684490D01*
X16242043Y-6680538D01*
X16259916Y-6660933D01*
X16263466Y-6651767D01*
X16274107Y-6631581D01*
X16279657Y-6623480D01*
X16286956Y-6592443D01*
X16288980Y-6585908D01*
X16300500Y-6556173D01*
X16300500Y-6546348D01*
X16303129Y-6523683D01*
X16305379Y-6514119D01*
X16300975Y-6482546D01*
X16300500Y-6475699D01*
X16300500Y-6056898D01*
X16319407Y-5998707D01*
X16326847Y-5989997D01*
X16328049Y-5988343D01*
X16338269Y-5968287D01*
X16385646Y-5875304D01*
X16405492Y-5750000D01*
X16385646Y-5624696D01*
X16328050Y-5511658D01*
X16238342Y-5421950D01*
X16234406Y-5419944D01*
X16125307Y-5364355D01*
X16125304Y-5364354D01*
X16000000Y-5344508D01*
X15874696Y-5364354D01*
X15874692Y-5364355D01*
X15761658Y-5421950D01*
X15755353Y-5426531D01*
X15754251Y-5425014D01*
X15708588Y-5448281D01*
X15693101Y-5449500D01*
X13315165Y-5449500D01*
X13301489Y-5447267D01*
X13301318Y-5448494D01*
X13292234Y-5447226D01*
X13251887Y-5449092D01*
X13244207Y-5449447D01*
X13241931Y-5449500D01*
X13222153Y-5449500D01*
X13218658Y-5450153D01*
X13211845Y-5450943D01*
X13180011Y-5452414D01*
X13180007Y-5452415D01*
X13171013Y-5456386D01*
X13149228Y-5463132D01*
X13139571Y-5464937D01*
X13139565Y-5464940D01*
X13112465Y-5481718D01*
X13106396Y-5484917D01*
X13077238Y-5497792D01*
X13077231Y-5497796D01*
X13070286Y-5504742D01*
X13052406Y-5518905D01*
X13044048Y-5524080D01*
X13024836Y-5549519D01*
X13020332Y-5554695D01*
X12654526Y-5920503D01*
X12600009Y-5948281D01*
X12584522Y-5949500D01*
X9310766Y-5949500D01*
X9252575Y-5930593D01*
X9216611Y-5881093D01*
X9216611Y-5819907D01*
X9221042Y-5808661D01*
X9243971Y-5759489D01*
X9243972Y-5759487D01*
X9250500Y-5709901D01*
X9250499Y-5290100D01*
X9243972Y-5240513D01*
X9221041Y-5191339D01*
X9213585Y-5130611D01*
X9243248Y-5077097D01*
X9298700Y-5051238D01*
X9310766Y-5050500D01*
X14693101Y-5050500D01*
X14751292Y-5069407D01*
X14760007Y-5076850D01*
X14761654Y-5078046D01*
X14761658Y-5078050D01*
X14874696Y-5135646D01*
X14974549Y-5151461D01*
X14999999Y-5155492D01*
X14999999Y-5155491D01*
X15000000Y-5155492D01*
X15125304Y-5135646D01*
X15238342Y-5078050D01*
X15328050Y-4988342D01*
X15385646Y-4875304D01*
X15405492Y-4750000D01*
X15406711Y-4742304D01*
X15409317Y-4742716D01*
X15424399Y-4696301D01*
X15473899Y-4660337D01*
X15492413Y-4657404D01*
X15492304Y-4656711D01*
X15500000Y-4655492D01*
X15625304Y-4635646D01*
X15738342Y-4578050D01*
X15828050Y-4488342D01*
X15885646Y-4375304D01*
X15905492Y-4250000D01*
X15885646Y-4124696D01*
X15828050Y-4011658D01*
X15738342Y-3921950D01*
X15692902Y-3898797D01*
X15625307Y-3864355D01*
X15625304Y-3864354D01*
X15500000Y-3844508D01*
X15492304Y-3843289D01*
X15492716Y-3840682D01*
X15446301Y-3825601D01*
X15410337Y-3776101D01*
X15407404Y-3757586D01*
X15406711Y-3757696D01*
X15391491Y-3661602D01*
X15385646Y-3624696D01*
X15328050Y-3511658D01*
X15238342Y-3421950D01*
X15198745Y-3401774D01*
X15125307Y-3364355D01*
X15125304Y-3364354D01*
X15000000Y-3344508D01*
X14874696Y-3364354D01*
X14874692Y-3364355D01*
X14761658Y-3421950D01*
X14755353Y-3426531D01*
X14754251Y-3425014D01*
X14708588Y-3448281D01*
X14693101Y-3449500D01*
X9165479Y-3449500D01*
X9107288Y-3430593D01*
X9095475Y-3420504D01*
X8758565Y-3083594D01*
X8750479Y-3072344D01*
X8749487Y-3073094D01*
X8743958Y-3065772D01*
X8708428Y-3033382D01*
X8706775Y-3031804D01*
X8692797Y-3017826D01*
X8689859Y-3015813D01*
X8684496Y-3011564D01*
X8660933Y-2990084D01*
X8651762Y-2986531D01*
X8631586Y-2975895D01*
X8623484Y-2970345D01*
X8623479Y-2970343D01*
X8592457Y-2963046D01*
X8585902Y-2961016D01*
X8556177Y-2949501D01*
X8556174Y-2949500D01*
X8556173Y-2949500D01*
X8556172Y-2949500D01*
X8546348Y-2949500D01*
X8523683Y-2946870D01*
X8514119Y-2944621D01*
X8514118Y-2944621D01*
X8482547Y-2949025D01*
X8475701Y-2949500D01*
X6855899Y-2949500D01*
X6797708Y-2930593D01*
X6761744Y-2881093D01*
X6761744Y-2819907D01*
X6785893Y-2780498D01*
X6828050Y-2738342D01*
X6885646Y-2625304D01*
X6905492Y-2500000D01*
X6885646Y-2374696D01*
X6828050Y-2261658D01*
X6738342Y-2171950D01*
X6716398Y-2160769D01*
X6625307Y-2114355D01*
X6625304Y-2114354D01*
X6500000Y-2094508D01*
X6374696Y-2114354D01*
X6374692Y-2114355D01*
X6261659Y-2171949D01*
X6171949Y-2261659D01*
X6114355Y-2374692D01*
X6114354Y-2374696D01*
X6094508Y-2499999D01*
X6094508Y-2500000D01*
X6114354Y-2625303D01*
X6114355Y-2625307D01*
X6139369Y-2674399D01*
X6171950Y-2738342D01*
X6189197Y-2755589D01*
X6216973Y-2810104D01*
X6207402Y-2870536D01*
X6164137Y-2913801D01*
X6118264Y-2922465D01*
X6118265Y-2924500D01*
X4836602Y-2924500D01*
X4836595Y-2924501D01*
X4759883Y-2939759D01*
X4759881Y-2939760D01*
X4672890Y-2997886D01*
X4672886Y-2997890D01*
X4614762Y-3084879D01*
X4614759Y-3084886D01*
X4599501Y-3161589D01*
X4599500Y-3161599D01*
X4599500Y-3338397D01*
X4599501Y-3338404D01*
X4614759Y-3415116D01*
X4614760Y-3415118D01*
X4634726Y-3444999D01*
X4651334Y-3503888D01*
X4634727Y-3555000D01*
X4614760Y-3584883D01*
X4614759Y-3584886D01*
X4599501Y-3661589D01*
X4599500Y-3661599D01*
X4599500Y-3838397D01*
X4599501Y-3838404D01*
X4614759Y-3915116D01*
X4614760Y-3915118D01*
X4634726Y-3944999D01*
X4651334Y-4003888D01*
X4634727Y-4055000D01*
X4614760Y-4084883D01*
X4614759Y-4084886D01*
X4599501Y-4161589D01*
X4599500Y-4161599D01*
X4599500Y-4338397D01*
X4599501Y-4338404D01*
X4614759Y-4415116D01*
X4614760Y-4415118D01*
X4634726Y-4444999D01*
X4651334Y-4503888D01*
X4634727Y-4554998D01*
X4619326Y-4578050D01*
X4614760Y-4584883D01*
X4614759Y-4584886D01*
X4599501Y-4661589D01*
X4599500Y-4661599D01*
X4599500Y-4838397D01*
X4599501Y-4838404D01*
X4614759Y-4915116D01*
X4614760Y-4915118D01*
X4634726Y-4944999D01*
X4651334Y-5003888D01*
X4634727Y-5054998D01*
X4620127Y-5076850D01*
X4614760Y-5084883D01*
X4614759Y-5084886D01*
X4599501Y-5161589D01*
X4599500Y-5161599D01*
X4599500Y-5338397D01*
X4599501Y-5338404D01*
X4614759Y-5415116D01*
X4614760Y-5415118D01*
X4634726Y-5444999D01*
X4651334Y-5503888D01*
X4634727Y-5554998D01*
X4619326Y-5578050D01*
X4614760Y-5584883D01*
X4614759Y-5584886D01*
X4599501Y-5661589D01*
X4599500Y-5661599D01*
X4599500Y-5838397D01*
X4599501Y-5838404D01*
X4614759Y-5915116D01*
X4614760Y-5915118D01*
X4634726Y-5944999D01*
X4651334Y-6003888D01*
X4634727Y-6054998D01*
X4614762Y-6084880D01*
X4614760Y-6084883D01*
X4614759Y-6084886D01*
X4599501Y-6161589D01*
X4599500Y-6161599D01*
X4599500Y-6338397D01*
X4599501Y-6338404D01*
X4614759Y-6415116D01*
X4614760Y-6415118D01*
X4634726Y-6444999D01*
X4651334Y-6503888D01*
X4634727Y-6554998D01*
X4633943Y-6556173D01*
X4614760Y-6584883D01*
X4614759Y-6584886D01*
X4599501Y-6661589D01*
X4599500Y-6661599D01*
X4599500Y-6838397D01*
X4599501Y-6838404D01*
X4614759Y-6915116D01*
X4614760Y-6915118D01*
X4634726Y-6944999D01*
X4651334Y-7003888D01*
X4634727Y-7054998D01*
X4619326Y-7078050D01*
X4614760Y-7084883D01*
X4614759Y-7084886D01*
X4599501Y-7161589D01*
X4599500Y-7161599D01*
X4599500Y-7338397D01*
X4599501Y-7338404D01*
X4614759Y-7415116D01*
X4614760Y-7415118D01*
X4634726Y-7444999D01*
X4651334Y-7503888D01*
X4634727Y-7554998D01*
X4630524Y-7561290D01*
X4614760Y-7584883D01*
X4614759Y-7584886D01*
X4599501Y-7661589D01*
X4599500Y-7661599D01*
X4599500Y-7838397D01*
X4599501Y-7838404D01*
X4614759Y-7915116D01*
X4614760Y-7915118D01*
X4634726Y-7944999D01*
X4651334Y-8003888D01*
X4634727Y-8054998D01*
X4615621Y-8083594D01*
X4614760Y-8084883D01*
X4614759Y-8084886D01*
X4599501Y-8161589D01*
X4599500Y-8161599D01*
X4599500Y-8338397D01*
X4599501Y-8338404D01*
X4614759Y-8415116D01*
X4614760Y-8415118D01*
X4634726Y-8444999D01*
X4651334Y-8503888D01*
X4634727Y-8554998D01*
X4619326Y-8578049D01*
X4614760Y-8584883D01*
X4614759Y-8584886D01*
X4599501Y-8661589D01*
X4599500Y-8661599D01*
X4599500Y-8838397D01*
X4599501Y-8838404D01*
X4614759Y-8915116D01*
X4614760Y-8915118D01*
X4632689Y-8941950D01*
X4672888Y-9002112D01*
X4759883Y-9060240D01*
X4818207Y-9071841D01*
X4836588Y-9075498D01*
X4836589Y-9075498D01*
X4836599Y-9075500D01*
X6113400Y-9075499D01*
X6118263Y-9075499D01*
X6118263Y-9077818D01*
X6169216Y-9088975D01*
X6209879Y-9134694D01*
X6215902Y-9195582D01*
X6189198Y-9244409D01*
X6171952Y-9261655D01*
X6171950Y-9261658D01*
X6114355Y-9374692D01*
X6114354Y-9374696D01*
X6096313Y-9488606D01*
X6094508Y-9500000D01*
X6114257Y-9624694D01*
X6114354Y-9625303D01*
X6114355Y-9625307D01*
X6156370Y-9707765D01*
X6171950Y-9738342D01*
X6261658Y-9828050D01*
X6374696Y-9885646D01*
X6500000Y-9905492D01*
X6625304Y-9885646D01*
X6738342Y-9828050D01*
X6828050Y-9738342D01*
X6885646Y-9625304D01*
X6905492Y-9500000D01*
X6885646Y-9374696D01*
X6828050Y-9261658D01*
X6785893Y-9219501D01*
X6758118Y-9164987D01*
X6767689Y-9104555D01*
X6810954Y-9061290D01*
X6855899Y-9050500D01*
X10693101Y-9050500D01*
X10751292Y-9069407D01*
X10760007Y-9076850D01*
X10761654Y-9078046D01*
X10761658Y-9078050D01*
X10874696Y-9135646D01*
X11000000Y-9155492D01*
X11007696Y-9156711D01*
X11007283Y-9159317D01*
X11053699Y-9174399D01*
X11089663Y-9223899D01*
X11092595Y-9242413D01*
X11093289Y-9242304D01*
X11094960Y-9252853D01*
X11113262Y-9368412D01*
X11114354Y-9375303D01*
X11114355Y-9375307D01*
X11149267Y-9443824D01*
X11171950Y-9488342D01*
X11261658Y-9578050D01*
X11374696Y-9635646D01*
X11500000Y-9655492D01*
X11625304Y-9635646D01*
X11738342Y-9578050D01*
X11828050Y-9488342D01*
X11885646Y-9375304D01*
X11905492Y-9250000D01*
X11906711Y-9242304D01*
X11909317Y-9242716D01*
X11924399Y-9196301D01*
X11973899Y-9160337D01*
X11992413Y-9157404D01*
X11992304Y-9156711D01*
X12000000Y-9155492D01*
X12125304Y-9135646D01*
X12238342Y-9078050D01*
X12328050Y-8988342D01*
X12385646Y-8875304D01*
X12405492Y-8750000D01*
X12385646Y-8624696D01*
X12328050Y-8511658D01*
X12328046Y-8511654D01*
X12323469Y-8505353D01*
X12324983Y-8504252D01*
X12301717Y-8458575D01*
X12300500Y-8443100D01*
X12300500Y-8315169D01*
X12302731Y-8301496D01*
X12301505Y-8301325D01*
X12302773Y-8292233D01*
X12300553Y-8244216D01*
X12300500Y-8241929D01*
X12300500Y-8222160D01*
X12300500Y-8222156D01*
X12299846Y-8218664D01*
X12299056Y-8211859D01*
X12297585Y-8180009D01*
X12293613Y-8171014D01*
X12286865Y-8149220D01*
X12285061Y-8139567D01*
X12268278Y-8112462D01*
X12265085Y-8106406D01*
X12255014Y-8083594D01*
X12252207Y-8077236D01*
X12245257Y-8070286D01*
X12231088Y-8052396D01*
X12225920Y-8044049D01*
X12225919Y-8044048D01*
X12200483Y-8024839D01*
X12195306Y-8020334D01*
X11894475Y-7719504D01*
X11866698Y-7664987D01*
X11876269Y-7604555D01*
X11919534Y-7561290D01*
X11964479Y-7550500D01*
X13184836Y-7550500D01*
X13198511Y-7552732D01*
X13198683Y-7551506D01*
X13207764Y-7552772D01*
X13207765Y-7552773D01*
X13207765Y-7552772D01*
X13207766Y-7552773D01*
X13216507Y-7552368D01*
X13255793Y-7550552D01*
X13258070Y-7550500D01*
X13277841Y-7550500D01*
X13277844Y-7550500D01*
X13281337Y-7549846D01*
X13288141Y-7549056D01*
X13319992Y-7547585D01*
X13328976Y-7543617D01*
X13350777Y-7536865D01*
X13360433Y-7535061D01*
X13387543Y-7518274D01*
X13393589Y-7515088D01*
X13422765Y-7502206D01*
X13429709Y-7495260D01*
X13447601Y-7481089D01*
X13455952Y-7475919D01*
X13475168Y-7450470D01*
X13479658Y-7445311D01*
X13845474Y-7079496D01*
X13899991Y-7051719D01*
X13915478Y-7050500D01*
X14664101Y-7050500D01*
X14722292Y-7069407D01*
X14758256Y-7118907D01*
X14758256Y-7180093D01*
X14734106Y-7219501D01*
X14671950Y-7281658D01*
X14671949Y-7281659D01*
X14614355Y-7394692D01*
X14614354Y-7394696D01*
X14594780Y-7518285D01*
X14594508Y-7520000D01*
X14611089Y-7624692D01*
X14614354Y-7645303D01*
X14614355Y-7645307D01*
X14669944Y-7754406D01*
X14671950Y-7758342D01*
X14761658Y-7848050D01*
X14874696Y-7905646D01*
X14982866Y-7922778D01*
X14999999Y-7925492D01*
X14999999Y-7925491D01*
X15000000Y-7925492D01*
X15085014Y-7912027D01*
X15145445Y-7921598D01*
X15188709Y-7964863D01*
X15199500Y-8009808D01*
X15199500Y-11205600D01*
X15180593Y-11263791D01*
X15173153Y-11272502D01*
X15171950Y-11274158D01*
X15114355Y-11387192D01*
X15114354Y-11387196D01*
X15094508Y-11512499D01*
X15094508Y-11512500D01*
X15114354Y-11637803D01*
X15114355Y-11637807D01*
X15123398Y-11655554D01*
X15132970Y-11715986D01*
X15105193Y-11770503D01*
X15050677Y-11798281D01*
X15035189Y-11799500D01*
X14114478Y-11799500D01*
X14056287Y-11780593D01*
X14020323Y-11731093D01*
X14020323Y-11669907D01*
X14044474Y-11630497D01*
X14500399Y-11174571D01*
X14554913Y-11146794D01*
X14625304Y-11135646D01*
X14738342Y-11078050D01*
X14828050Y-10988342D01*
X14885646Y-10875304D01*
X14905492Y-10750000D01*
X14885646Y-10624696D01*
X14828050Y-10511658D01*
X14761393Y-10445001D01*
X14733618Y-10390487D01*
X14743189Y-10330055D01*
X14761392Y-10304999D01*
X14828050Y-10238342D01*
X14885646Y-10125304D01*
X14905492Y-10000000D01*
X14885646Y-9874696D01*
X14828050Y-9761658D01*
X14738342Y-9671950D01*
X14667088Y-9635644D01*
X14625307Y-9614355D01*
X14625304Y-9614354D01*
X14500000Y-9594508D01*
X14374696Y-9614354D01*
X14374692Y-9614355D01*
X14261659Y-9671949D01*
X14171949Y-9761659D01*
X14114354Y-9874694D01*
X14103205Y-9945083D01*
X14075428Y-9999598D01*
X13404525Y-10670503D01*
X13350008Y-10698281D01*
X13334521Y-10699500D01*
X5665480Y-10699500D01*
X5607289Y-10680593D01*
X5595476Y-10670504D01*
X4329495Y-9404523D01*
X4301718Y-9350006D01*
X4300500Y-9334531D01*
X4300500Y-8815168D01*
X4302731Y-8801496D01*
X4301505Y-8801325D01*
X4302773Y-8792233D01*
X4301747Y-8770048D01*
X4300552Y-8744208D01*
X4300500Y-8741929D01*
X4300500Y-8722160D01*
X4300500Y-8722156D01*
X4299846Y-8718664D01*
X4299056Y-8711859D01*
X4297585Y-8680009D01*
X4293613Y-8671014D01*
X4286865Y-8649220D01*
X4285061Y-8639567D01*
X4268278Y-8612462D01*
X4265085Y-8606406D01*
X4252566Y-8578050D01*
X4252207Y-8577236D01*
X4245257Y-8570286D01*
X4231088Y-8552396D01*
X4225920Y-8544049D01*
X4225919Y-8544048D01*
X4200483Y-8524839D01*
X4195306Y-8520334D01*
X3758565Y-8083594D01*
X3750479Y-8072344D01*
X3749487Y-8073094D01*
X3743958Y-8065772D01*
X3720128Y-8044048D01*
X3708423Y-8033377D01*
X3706775Y-8031804D01*
X3692797Y-8017826D01*
X3689859Y-8015813D01*
X3684496Y-8011564D01*
X3660933Y-7990084D01*
X3651762Y-7986531D01*
X3631586Y-7975895D01*
X3623484Y-7970345D01*
X3623479Y-7970343D01*
X3592457Y-7963046D01*
X3585902Y-7961016D01*
X3556177Y-7949501D01*
X3556174Y-7949500D01*
X3556173Y-7949500D01*
X3556172Y-7949500D01*
X3546348Y-7949500D01*
X3523683Y-7946870D01*
X3514119Y-7944621D01*
X3514118Y-7944621D01*
X3482547Y-7949025D01*
X3475701Y-7949500D01*
X3283324Y-7949500D01*
X3245442Y-7941966D01*
X3240119Y-7939761D01*
X3240117Y-7939760D01*
X3240113Y-7939759D01*
X3163411Y-7924501D01*
X3163402Y-7924500D01*
X3163401Y-7924500D01*
X3163399Y-7924500D01*
X1886602Y-7924500D01*
X1886595Y-7924501D01*
X1809883Y-7939759D01*
X1809881Y-7939760D01*
X1722890Y-7997886D01*
X1722886Y-7997890D01*
X1664762Y-8084879D01*
X1664759Y-8084886D01*
X1649501Y-8161589D01*
X1649500Y-8161599D01*
X1649500Y-8338397D01*
X1649501Y-8338404D01*
X1664759Y-8415115D01*
X1664759Y-8415116D01*
X1664760Y-8415117D01*
X1684726Y-8444999D01*
X1701334Y-8503887D01*
X1684727Y-8554999D01*
X1664761Y-8584880D01*
X1664759Y-8584886D01*
X1649501Y-8661589D01*
X1649500Y-8661599D01*
X1649500Y-8838397D01*
X1649501Y-8838404D01*
X1664759Y-8915116D01*
X1664760Y-8915118D01*
X1682689Y-8941950D01*
X1722888Y-9002112D01*
X1809883Y-9060240D01*
X1868207Y-9071841D01*
X1886588Y-9075498D01*
X1886589Y-9075498D01*
X1886599Y-9075500D01*
X3100500Y-9075499D01*
X3158691Y-9094406D01*
X3194655Y-9143906D01*
X3199500Y-9174499D01*
X3199500Y-9684835D01*
X3197280Y-9698513D01*
X3198494Y-9698683D01*
X3197226Y-9707766D01*
X3199077Y-9747794D01*
X3199179Y-9750000D01*
X3199447Y-9755783D01*
X3199500Y-9758069D01*
X3199500Y-9777842D01*
X3200152Y-9781332D01*
X3200943Y-9788149D01*
X3202414Y-9819987D01*
X3202415Y-9819994D01*
X3206384Y-9828982D01*
X3213133Y-9850773D01*
X3214939Y-9860433D01*
X3231717Y-9887533D01*
X3234915Y-9893600D01*
X3247793Y-9922763D01*
X3247794Y-9922765D01*
X3254745Y-9929716D01*
X3268907Y-9947596D01*
X3274081Y-9955952D01*
X3299511Y-9975156D01*
X3304690Y-9979662D01*
X4955525Y-11630496D01*
X4983302Y-11685013D01*
X4973731Y-11745445D01*
X4930466Y-11788710D01*
X4885521Y-11799500D01*
X299500Y-11799500D01*
X241309Y-11780593D01*
X205345Y-11731093D01*
X200500Y-11700500D01*
X200500Y-2374057D01*
X219407Y-2315866D01*
X229496Y-2304053D01*
X2304054Y-229496D01*
X2358571Y-201719D01*
X2374058Y-200500D01*
X8845521Y-200500D01*
X8903712Y-219407D01*
G37*
%TD.AperFunction*%
%TD*%
%TA.AperFunction,Conductor*%
%TO.N,VCC*%
G36*
X1744696Y-4016684D02*
G01*
X1778059Y-4038976D01*
X1809883Y-4060240D01*
X1868207Y-4071841D01*
X1886588Y-4075498D01*
X1886589Y-4075498D01*
X1886599Y-4075500D01*
X3151000Y-4075499D01*
X3209191Y-4094406D01*
X3245155Y-4143906D01*
X3250000Y-4174499D01*
X3250000Y-5825500D01*
X3231093Y-5883691D01*
X3181593Y-5919655D01*
X3151000Y-5924500D01*
X1886602Y-5924500D01*
X1886595Y-5924501D01*
X1809883Y-5939759D01*
X1809882Y-5939760D01*
X1744696Y-5983316D01*
X1689695Y-6000000D01*
X849000Y-6000000D01*
X790809Y-5981093D01*
X754845Y-5931593D01*
X750000Y-5901000D01*
X750000Y-4099000D01*
X768907Y-4040809D01*
X818407Y-4004845D01*
X849000Y-4000000D01*
X1689695Y-4000000D01*
X1744696Y-4016684D01*
G37*
%TD.AperFunction*%
%TD*%
M02*
