%TF.GenerationSoftware,KiCad,Pcbnew,7.0.8*%
%TF.CreationDate,2023-11-08T19:53:20+10:00*%
%TF.ProjectId,ControllerBoard,436f6e74-726f-46c6-9c65-72426f617264,rev?*%
%TF.SameCoordinates,Original*%
%TF.FileFunction,Legend,Bot*%
%TF.FilePolarity,Positive*%
%FSLAX46Y46*%
G04 Gerber Fmt 4.6, Leading zero omitted, Abs format (unit mm)*
G04 Created by KiCad (PCBNEW 7.0.8) date 2023-11-08 19:53:20*
%MOMM*%
%LPD*%
G01*
G04 APERTURE LIST*
G04 Aperture macros list*
%AMRoundRect*
0 Rectangle with rounded corners*
0 $1 Rounding radius*
0 $2 $3 $4 $5 $6 $7 $8 $9 X,Y pos of 4 corners*
0 Add a 4 corners polygon primitive as box body*
4,1,4,$2,$3,$4,$5,$6,$7,$8,$9,$2,$3,0*
0 Add four circle primitives for the rounded corners*
1,1,$1+$1,$2,$3*
1,1,$1+$1,$4,$5*
1,1,$1+$1,$6,$7*
1,1,$1+$1,$8,$9*
0 Add four rect primitives between the rounded corners*
20,1,$1+$1,$2,$3,$4,$5,0*
20,1,$1+$1,$4,$5,$6,$7,0*
20,1,$1+$1,$6,$7,$8,$9,0*
20,1,$1+$1,$8,$9,$2,$3,0*%
G04 Aperture macros list end*
%ADD10C,0.100000*%
%ADD11C,0.250000*%
%ADD12C,0.120000*%
%ADD13RoundRect,0.062500X0.612500X0.062500X-0.612500X0.062500X-0.612500X-0.062500X0.612500X-0.062500X0*%
%ADD14RoundRect,0.140000X-0.170000X0.140000X-0.170000X-0.140000X0.170000X-0.140000X0.170000X0.140000X0*%
%ADD15RoundRect,0.135000X-0.135000X-0.185000X0.135000X-0.185000X0.135000X0.185000X-0.135000X0.185000X0*%
%ADD16RoundRect,0.135000X0.135000X0.185000X-0.135000X0.185000X-0.135000X-0.185000X0.135000X-0.185000X0*%
G04 APERTURE END LIST*
D10*
X19734419Y-5780514D02*
X19555847Y-6530514D01*
X19555847Y-6530514D02*
X19412990Y-5994800D01*
X19412990Y-5994800D02*
X19270133Y-6530514D01*
X19270133Y-6530514D02*
X19091562Y-5780514D01*
X18698704Y-6530514D02*
X18770133Y-6494800D01*
X18770133Y-6494800D02*
X18805847Y-6459085D01*
X18805847Y-6459085D02*
X18841561Y-6387657D01*
X18841561Y-6387657D02*
X18841561Y-6173371D01*
X18841561Y-6173371D02*
X18805847Y-6101942D01*
X18805847Y-6101942D02*
X18770133Y-6066228D01*
X18770133Y-6066228D02*
X18698704Y-6030514D01*
X18698704Y-6030514D02*
X18591561Y-6030514D01*
X18591561Y-6030514D02*
X18520133Y-6066228D01*
X18520133Y-6066228D02*
X18484419Y-6101942D01*
X18484419Y-6101942D02*
X18448704Y-6173371D01*
X18448704Y-6173371D02*
X18448704Y-6387657D01*
X18448704Y-6387657D02*
X18484419Y-6459085D01*
X18484419Y-6459085D02*
X18520133Y-6494800D01*
X18520133Y-6494800D02*
X18591561Y-6530514D01*
X18591561Y-6530514D02*
X18698704Y-6530514D01*
X18127276Y-6530514D02*
X18127276Y-6030514D01*
X18127276Y-6173371D02*
X18091562Y-6101942D01*
X18091562Y-6101942D02*
X18055848Y-6066228D01*
X18055848Y-6066228D02*
X17984419Y-6030514D01*
X17984419Y-6030514D02*
X17912990Y-6030514D01*
X17341562Y-6530514D02*
X17341562Y-5780514D01*
X17341562Y-6494800D02*
X17412990Y-6530514D01*
X17412990Y-6530514D02*
X17555847Y-6530514D01*
X17555847Y-6530514D02*
X17627276Y-6494800D01*
X17627276Y-6494800D02*
X17662990Y-6459085D01*
X17662990Y-6459085D02*
X17698704Y-6387657D01*
X17698704Y-6387657D02*
X17698704Y-6173371D01*
X17698704Y-6173371D02*
X17662990Y-6101942D01*
X17662990Y-6101942D02*
X17627276Y-6066228D01*
X17627276Y-6066228D02*
X17555847Y-6030514D01*
X17555847Y-6030514D02*
X17412990Y-6030514D01*
X17412990Y-6030514D02*
X17341562Y-6066228D01*
X17055848Y-5780514D02*
X16877276Y-6530514D01*
X16877276Y-6530514D02*
X16734419Y-5994800D01*
X16734419Y-5994800D02*
X16591562Y-6530514D01*
X16591562Y-6530514D02*
X16412991Y-5780514D01*
X15805848Y-6530514D02*
X15805848Y-6137657D01*
X15805848Y-6137657D02*
X15841562Y-6066228D01*
X15841562Y-6066228D02*
X15912990Y-6030514D01*
X15912990Y-6030514D02*
X16055848Y-6030514D01*
X16055848Y-6030514D02*
X16127276Y-6066228D01*
X15805848Y-6494800D02*
X15877276Y-6530514D01*
X15877276Y-6530514D02*
X16055848Y-6530514D01*
X16055848Y-6530514D02*
X16127276Y-6494800D01*
X16127276Y-6494800D02*
X16162990Y-6423371D01*
X16162990Y-6423371D02*
X16162990Y-6351942D01*
X16162990Y-6351942D02*
X16127276Y-6280514D01*
X16127276Y-6280514D02*
X16055848Y-6244800D01*
X16055848Y-6244800D02*
X15877276Y-6244800D01*
X15877276Y-6244800D02*
X15805848Y-6209085D01*
X15555848Y-6030514D02*
X15270134Y-6030514D01*
X15448705Y-5780514D02*
X15448705Y-6423371D01*
X15448705Y-6423371D02*
X15412991Y-6494800D01*
X15412991Y-6494800D02*
X15341562Y-6530514D01*
X15341562Y-6530514D02*
X15270134Y-6530514D01*
X14698706Y-6494800D02*
X14770134Y-6530514D01*
X14770134Y-6530514D02*
X14912991Y-6530514D01*
X14912991Y-6530514D02*
X14984420Y-6494800D01*
X14984420Y-6494800D02*
X15020134Y-6459085D01*
X15020134Y-6459085D02*
X15055848Y-6387657D01*
X15055848Y-6387657D02*
X15055848Y-6173371D01*
X15055848Y-6173371D02*
X15020134Y-6101942D01*
X15020134Y-6101942D02*
X14984420Y-6066228D01*
X14984420Y-6066228D02*
X14912991Y-6030514D01*
X14912991Y-6030514D02*
X14770134Y-6030514D01*
X14770134Y-6030514D02*
X14698706Y-6066228D01*
X14377277Y-6530514D02*
X14377277Y-5780514D01*
X14055849Y-6530514D02*
X14055849Y-6137657D01*
X14055849Y-6137657D02*
X14091563Y-6066228D01*
X14091563Y-6066228D02*
X14162991Y-6030514D01*
X14162991Y-6030514D02*
X14270134Y-6030514D01*
X14270134Y-6030514D02*
X14341563Y-6066228D01*
X14341563Y-6066228D02*
X14377277Y-6101942D01*
X20198704Y-7666585D02*
X20234418Y-7702300D01*
X20234418Y-7702300D02*
X20341561Y-7738014D01*
X20341561Y-7738014D02*
X20412989Y-7738014D01*
X20412989Y-7738014D02*
X20520132Y-7702300D01*
X20520132Y-7702300D02*
X20591561Y-7630871D01*
X20591561Y-7630871D02*
X20627275Y-7559442D01*
X20627275Y-7559442D02*
X20662989Y-7416585D01*
X20662989Y-7416585D02*
X20662989Y-7309442D01*
X20662989Y-7309442D02*
X20627275Y-7166585D01*
X20627275Y-7166585D02*
X20591561Y-7095157D01*
X20591561Y-7095157D02*
X20520132Y-7023728D01*
X20520132Y-7023728D02*
X20412989Y-6988014D01*
X20412989Y-6988014D02*
X20341561Y-6988014D01*
X20341561Y-6988014D02*
X20234418Y-7023728D01*
X20234418Y-7023728D02*
X20198704Y-7059442D01*
X19770132Y-7738014D02*
X19841561Y-7702300D01*
X19841561Y-7702300D02*
X19877275Y-7666585D01*
X19877275Y-7666585D02*
X19912989Y-7595157D01*
X19912989Y-7595157D02*
X19912989Y-7380871D01*
X19912989Y-7380871D02*
X19877275Y-7309442D01*
X19877275Y-7309442D02*
X19841561Y-7273728D01*
X19841561Y-7273728D02*
X19770132Y-7238014D01*
X19770132Y-7238014D02*
X19662989Y-7238014D01*
X19662989Y-7238014D02*
X19591561Y-7273728D01*
X19591561Y-7273728D02*
X19555847Y-7309442D01*
X19555847Y-7309442D02*
X19520132Y-7380871D01*
X19520132Y-7380871D02*
X19520132Y-7595157D01*
X19520132Y-7595157D02*
X19555847Y-7666585D01*
X19555847Y-7666585D02*
X19591561Y-7702300D01*
X19591561Y-7702300D02*
X19662989Y-7738014D01*
X19662989Y-7738014D02*
X19770132Y-7738014D01*
X19198704Y-7238014D02*
X19198704Y-7738014D01*
X19198704Y-7309442D02*
X19162990Y-7273728D01*
X19162990Y-7273728D02*
X19091561Y-7238014D01*
X19091561Y-7238014D02*
X18984418Y-7238014D01*
X18984418Y-7238014D02*
X18912990Y-7273728D01*
X18912990Y-7273728D02*
X18877276Y-7345157D01*
X18877276Y-7345157D02*
X18877276Y-7738014D01*
X18627276Y-7238014D02*
X18341562Y-7238014D01*
X18520133Y-6988014D02*
X18520133Y-7630871D01*
X18520133Y-7630871D02*
X18484419Y-7702300D01*
X18484419Y-7702300D02*
X18412990Y-7738014D01*
X18412990Y-7738014D02*
X18341562Y-7738014D01*
X18091562Y-7738014D02*
X18091562Y-7238014D01*
X18091562Y-7380871D02*
X18055848Y-7309442D01*
X18055848Y-7309442D02*
X18020134Y-7273728D01*
X18020134Y-7273728D02*
X17948705Y-7238014D01*
X17948705Y-7238014D02*
X17877276Y-7238014D01*
X17520133Y-7738014D02*
X17591562Y-7702300D01*
X17591562Y-7702300D02*
X17627276Y-7666585D01*
X17627276Y-7666585D02*
X17662990Y-7595157D01*
X17662990Y-7595157D02*
X17662990Y-7380871D01*
X17662990Y-7380871D02*
X17627276Y-7309442D01*
X17627276Y-7309442D02*
X17591562Y-7273728D01*
X17591562Y-7273728D02*
X17520133Y-7238014D01*
X17520133Y-7238014D02*
X17412990Y-7238014D01*
X17412990Y-7238014D02*
X17341562Y-7273728D01*
X17341562Y-7273728D02*
X17305848Y-7309442D01*
X17305848Y-7309442D02*
X17270133Y-7380871D01*
X17270133Y-7380871D02*
X17270133Y-7595157D01*
X17270133Y-7595157D02*
X17305848Y-7666585D01*
X17305848Y-7666585D02*
X17341562Y-7702300D01*
X17341562Y-7702300D02*
X17412990Y-7738014D01*
X17412990Y-7738014D02*
X17520133Y-7738014D01*
X16841562Y-7738014D02*
X16912991Y-7702300D01*
X16912991Y-7702300D02*
X16948705Y-7630871D01*
X16948705Y-7630871D02*
X16948705Y-6988014D01*
X15734419Y-7345157D02*
X15627276Y-7380871D01*
X15627276Y-7380871D02*
X15591562Y-7416585D01*
X15591562Y-7416585D02*
X15555848Y-7488014D01*
X15555848Y-7488014D02*
X15555848Y-7595157D01*
X15555848Y-7595157D02*
X15591562Y-7666585D01*
X15591562Y-7666585D02*
X15627276Y-7702300D01*
X15627276Y-7702300D02*
X15698705Y-7738014D01*
X15698705Y-7738014D02*
X15984419Y-7738014D01*
X15984419Y-7738014D02*
X15984419Y-6988014D01*
X15984419Y-6988014D02*
X15734419Y-6988014D01*
X15734419Y-6988014D02*
X15662991Y-7023728D01*
X15662991Y-7023728D02*
X15627276Y-7059442D01*
X15627276Y-7059442D02*
X15591562Y-7130871D01*
X15591562Y-7130871D02*
X15591562Y-7202300D01*
X15591562Y-7202300D02*
X15627276Y-7273728D01*
X15627276Y-7273728D02*
X15662991Y-7309442D01*
X15662991Y-7309442D02*
X15734419Y-7345157D01*
X15734419Y-7345157D02*
X15984419Y-7345157D01*
X15127276Y-7738014D02*
X15198705Y-7702300D01*
X15198705Y-7702300D02*
X15234419Y-7666585D01*
X15234419Y-7666585D02*
X15270133Y-7595157D01*
X15270133Y-7595157D02*
X15270133Y-7380871D01*
X15270133Y-7380871D02*
X15234419Y-7309442D01*
X15234419Y-7309442D02*
X15198705Y-7273728D01*
X15198705Y-7273728D02*
X15127276Y-7238014D01*
X15127276Y-7238014D02*
X15020133Y-7238014D01*
X15020133Y-7238014D02*
X14948705Y-7273728D01*
X14948705Y-7273728D02*
X14912991Y-7309442D01*
X14912991Y-7309442D02*
X14877276Y-7380871D01*
X14877276Y-7380871D02*
X14877276Y-7595157D01*
X14877276Y-7595157D02*
X14912991Y-7666585D01*
X14912991Y-7666585D02*
X14948705Y-7702300D01*
X14948705Y-7702300D02*
X15020133Y-7738014D01*
X15020133Y-7738014D02*
X15127276Y-7738014D01*
X14234420Y-7738014D02*
X14234420Y-7345157D01*
X14234420Y-7345157D02*
X14270134Y-7273728D01*
X14270134Y-7273728D02*
X14341562Y-7238014D01*
X14341562Y-7238014D02*
X14484420Y-7238014D01*
X14484420Y-7238014D02*
X14555848Y-7273728D01*
X14234420Y-7702300D02*
X14305848Y-7738014D01*
X14305848Y-7738014D02*
X14484420Y-7738014D01*
X14484420Y-7738014D02*
X14555848Y-7702300D01*
X14555848Y-7702300D02*
X14591562Y-7630871D01*
X14591562Y-7630871D02*
X14591562Y-7559442D01*
X14591562Y-7559442D02*
X14555848Y-7488014D01*
X14555848Y-7488014D02*
X14484420Y-7452300D01*
X14484420Y-7452300D02*
X14305848Y-7452300D01*
X14305848Y-7452300D02*
X14234420Y-7416585D01*
X13877277Y-7738014D02*
X13877277Y-7238014D01*
X13877277Y-7380871D02*
X13841563Y-7309442D01*
X13841563Y-7309442D02*
X13805849Y-7273728D01*
X13805849Y-7273728D02*
X13734420Y-7238014D01*
X13734420Y-7238014D02*
X13662991Y-7238014D01*
X13091563Y-7738014D02*
X13091563Y-6988014D01*
X13091563Y-7702300D02*
X13162991Y-7738014D01*
X13162991Y-7738014D02*
X13305848Y-7738014D01*
X13305848Y-7738014D02*
X13377277Y-7702300D01*
X13377277Y-7702300D02*
X13412991Y-7666585D01*
X13412991Y-7666585D02*
X13448705Y-7595157D01*
X13448705Y-7595157D02*
X13448705Y-7380871D01*
X13448705Y-7380871D02*
X13412991Y-7309442D01*
X13412991Y-7309442D02*
X13377277Y-7273728D01*
X13377277Y-7273728D02*
X13305848Y-7238014D01*
X13305848Y-7238014D02*
X13162991Y-7238014D01*
X13162991Y-7238014D02*
X13091563Y-7273728D01*
X20323706Y-8445514D02*
X20145134Y-8945514D01*
X20145134Y-8945514D02*
X19966563Y-8445514D01*
X19287991Y-8945514D02*
X19716562Y-8945514D01*
X19502277Y-8945514D02*
X19502277Y-8195514D01*
X19502277Y-8195514D02*
X19573705Y-8302657D01*
X19573705Y-8302657D02*
X19645134Y-8374085D01*
X19645134Y-8374085D02*
X19716562Y-8409800D01*
X18966562Y-8874085D02*
X18930848Y-8909800D01*
X18930848Y-8909800D02*
X18966562Y-8945514D01*
X18966562Y-8945514D02*
X19002276Y-8909800D01*
X19002276Y-8909800D02*
X18966562Y-8874085D01*
X18966562Y-8874085D02*
X18966562Y-8945514D01*
X18466562Y-8195514D02*
X18395133Y-8195514D01*
X18395133Y-8195514D02*
X18323705Y-8231228D01*
X18323705Y-8231228D02*
X18287991Y-8266942D01*
X18287991Y-8266942D02*
X18252276Y-8338371D01*
X18252276Y-8338371D02*
X18216562Y-8481228D01*
X18216562Y-8481228D02*
X18216562Y-8659800D01*
X18216562Y-8659800D02*
X18252276Y-8802657D01*
X18252276Y-8802657D02*
X18287991Y-8874085D01*
X18287991Y-8874085D02*
X18323705Y-8909800D01*
X18323705Y-8909800D02*
X18395133Y-8945514D01*
X18395133Y-8945514D02*
X18466562Y-8945514D01*
X18466562Y-8945514D02*
X18537991Y-8909800D01*
X18537991Y-8909800D02*
X18573705Y-8874085D01*
X18573705Y-8874085D02*
X18609419Y-8802657D01*
X18609419Y-8802657D02*
X18645133Y-8659800D01*
X18645133Y-8659800D02*
X18645133Y-8481228D01*
X18645133Y-8481228D02*
X18609419Y-8338371D01*
X18609419Y-8338371D02*
X18573705Y-8266942D01*
X18573705Y-8266942D02*
X18537991Y-8231228D01*
X18537991Y-8231228D02*
X18466562Y-8195514D01*
X17180847Y-8195514D02*
X17037990Y-8195514D01*
X17037990Y-8195514D02*
X16966561Y-8231228D01*
X16966561Y-8231228D02*
X16895133Y-8302657D01*
X16895133Y-8302657D02*
X16859418Y-8445514D01*
X16859418Y-8445514D02*
X16859418Y-8695514D01*
X16859418Y-8695514D02*
X16895133Y-8838371D01*
X16895133Y-8838371D02*
X16966561Y-8909800D01*
X16966561Y-8909800D02*
X17037990Y-8945514D01*
X17037990Y-8945514D02*
X17180847Y-8945514D01*
X17180847Y-8945514D02*
X17252276Y-8909800D01*
X17252276Y-8909800D02*
X17323704Y-8838371D01*
X17323704Y-8838371D02*
X17359418Y-8695514D01*
X17359418Y-8695514D02*
X17359418Y-8445514D01*
X17359418Y-8445514D02*
X17323704Y-8302657D01*
X17323704Y-8302657D02*
X17252276Y-8231228D01*
X17252276Y-8231228D02*
X17180847Y-8195514D01*
X16216562Y-8909800D02*
X16287990Y-8945514D01*
X16287990Y-8945514D02*
X16430847Y-8945514D01*
X16430847Y-8945514D02*
X16502276Y-8909800D01*
X16502276Y-8909800D02*
X16537990Y-8874085D01*
X16537990Y-8874085D02*
X16573704Y-8802657D01*
X16573704Y-8802657D02*
X16573704Y-8588371D01*
X16573704Y-8588371D02*
X16537990Y-8516942D01*
X16537990Y-8516942D02*
X16502276Y-8481228D01*
X16502276Y-8481228D02*
X16430847Y-8445514D01*
X16430847Y-8445514D02*
X16287990Y-8445514D01*
X16287990Y-8445514D02*
X16216562Y-8481228D01*
X16002276Y-8445514D02*
X15716562Y-8445514D01*
X15895133Y-8195514D02*
X15895133Y-8838371D01*
X15895133Y-8838371D02*
X15859419Y-8909800D01*
X15859419Y-8909800D02*
X15787990Y-8945514D01*
X15787990Y-8945514D02*
X15716562Y-8945514D01*
X15466562Y-8659800D02*
X14895134Y-8659800D01*
X14573705Y-8266942D02*
X14537991Y-8231228D01*
X14537991Y-8231228D02*
X14466563Y-8195514D01*
X14466563Y-8195514D02*
X14287991Y-8195514D01*
X14287991Y-8195514D02*
X14216563Y-8231228D01*
X14216563Y-8231228D02*
X14180848Y-8266942D01*
X14180848Y-8266942D02*
X14145134Y-8338371D01*
X14145134Y-8338371D02*
X14145134Y-8409800D01*
X14145134Y-8409800D02*
X14180848Y-8516942D01*
X14180848Y-8516942D02*
X14609420Y-8945514D01*
X14609420Y-8945514D02*
X14145134Y-8945514D01*
X13895134Y-8195514D02*
X13430848Y-8195514D01*
X13430848Y-8195514D02*
X13680848Y-8481228D01*
X13680848Y-8481228D02*
X13573705Y-8481228D01*
X13573705Y-8481228D02*
X13502277Y-8516942D01*
X13502277Y-8516942D02*
X13466562Y-8552657D01*
X13466562Y-8552657D02*
X13430848Y-8624085D01*
X13430848Y-8624085D02*
X13430848Y-8802657D01*
X13430848Y-8802657D02*
X13466562Y-8874085D01*
X13466562Y-8874085D02*
X13502277Y-8909800D01*
X13502277Y-8909800D02*
X13573705Y-8945514D01*
X13573705Y-8945514D02*
X13787991Y-8945514D01*
X13787991Y-8945514D02*
X13859419Y-8909800D01*
X13859419Y-8909800D02*
X13895134Y-8874085D01*
X20805847Y-10438728D02*
X20841562Y-10403014D01*
X20841562Y-10403014D02*
X20912990Y-10295871D01*
X20912990Y-10295871D02*
X20948705Y-10224442D01*
X20948705Y-10224442D02*
X20984419Y-10117300D01*
X20984419Y-10117300D02*
X21020133Y-9938728D01*
X21020133Y-9938728D02*
X21020133Y-9795871D01*
X21020133Y-9795871D02*
X20984419Y-9617300D01*
X20984419Y-9617300D02*
X20948705Y-9510157D01*
X20948705Y-9510157D02*
X20912990Y-9438728D01*
X20912990Y-9438728D02*
X20841562Y-9331585D01*
X20841562Y-9331585D02*
X20805847Y-9295871D01*
X20198705Y-10117300D02*
X20270133Y-10153014D01*
X20270133Y-10153014D02*
X20412990Y-10153014D01*
X20412990Y-10153014D02*
X20484419Y-10117300D01*
X20484419Y-10117300D02*
X20520133Y-10081585D01*
X20520133Y-10081585D02*
X20555847Y-10010157D01*
X20555847Y-10010157D02*
X20555847Y-9795871D01*
X20555847Y-9795871D02*
X20520133Y-9724442D01*
X20520133Y-9724442D02*
X20484419Y-9688728D01*
X20484419Y-9688728D02*
X20412990Y-9653014D01*
X20412990Y-9653014D02*
X20270133Y-9653014D01*
X20270133Y-9653014D02*
X20198705Y-9688728D01*
X19948705Y-10438728D02*
X19912990Y-10403014D01*
X19912990Y-10403014D02*
X19841562Y-10295871D01*
X19841562Y-10295871D02*
X19805848Y-10224442D01*
X19805848Y-10224442D02*
X19770133Y-10117300D01*
X19770133Y-10117300D02*
X19734419Y-9938728D01*
X19734419Y-9938728D02*
X19734419Y-9795871D01*
X19734419Y-9795871D02*
X19770133Y-9617300D01*
X19770133Y-9617300D02*
X19805848Y-9510157D01*
X19805848Y-9510157D02*
X19841562Y-9438728D01*
X19841562Y-9438728D02*
X19912990Y-9331585D01*
X19912990Y-9331585D02*
X19948705Y-9295871D01*
X18520133Y-10117300D02*
X18591561Y-10153014D01*
X18591561Y-10153014D02*
X18734419Y-10153014D01*
X18734419Y-10153014D02*
X18805847Y-10117300D01*
X18805847Y-10117300D02*
X18841561Y-10045871D01*
X18841561Y-10045871D02*
X18841561Y-9760157D01*
X18841561Y-9760157D02*
X18805847Y-9688728D01*
X18805847Y-9688728D02*
X18734419Y-9653014D01*
X18734419Y-9653014D02*
X18591561Y-9653014D01*
X18591561Y-9653014D02*
X18520133Y-9688728D01*
X18520133Y-9688728D02*
X18484419Y-9760157D01*
X18484419Y-9760157D02*
X18484419Y-9831585D01*
X18484419Y-9831585D02*
X18841561Y-9903014D01*
X17841562Y-9653014D02*
X17841562Y-10260157D01*
X17841562Y-10260157D02*
X17877276Y-10331585D01*
X17877276Y-10331585D02*
X17912990Y-10367300D01*
X17912990Y-10367300D02*
X17984419Y-10403014D01*
X17984419Y-10403014D02*
X18091562Y-10403014D01*
X18091562Y-10403014D02*
X18162990Y-10367300D01*
X17841562Y-10117300D02*
X17912990Y-10153014D01*
X17912990Y-10153014D02*
X18055847Y-10153014D01*
X18055847Y-10153014D02*
X18127276Y-10117300D01*
X18127276Y-10117300D02*
X18162990Y-10081585D01*
X18162990Y-10081585D02*
X18198704Y-10010157D01*
X18198704Y-10010157D02*
X18198704Y-9795871D01*
X18198704Y-9795871D02*
X18162990Y-9724442D01*
X18162990Y-9724442D02*
X18127276Y-9688728D01*
X18127276Y-9688728D02*
X18055847Y-9653014D01*
X18055847Y-9653014D02*
X17912990Y-9653014D01*
X17912990Y-9653014D02*
X17841562Y-9688728D01*
X17162991Y-9653014D02*
X17162991Y-10260157D01*
X17162991Y-10260157D02*
X17198705Y-10331585D01*
X17198705Y-10331585D02*
X17234419Y-10367300D01*
X17234419Y-10367300D02*
X17305848Y-10403014D01*
X17305848Y-10403014D02*
X17412991Y-10403014D01*
X17412991Y-10403014D02*
X17484419Y-10367300D01*
X17162991Y-10117300D02*
X17234419Y-10153014D01*
X17234419Y-10153014D02*
X17377276Y-10153014D01*
X17377276Y-10153014D02*
X17448705Y-10117300D01*
X17448705Y-10117300D02*
X17484419Y-10081585D01*
X17484419Y-10081585D02*
X17520133Y-10010157D01*
X17520133Y-10010157D02*
X17520133Y-9795871D01*
X17520133Y-9795871D02*
X17484419Y-9724442D01*
X17484419Y-9724442D02*
X17448705Y-9688728D01*
X17448705Y-9688728D02*
X17377276Y-9653014D01*
X17377276Y-9653014D02*
X17234419Y-9653014D01*
X17234419Y-9653014D02*
X17162991Y-9688728D01*
X16841562Y-10117300D02*
X16770134Y-10153014D01*
X16770134Y-10153014D02*
X16627277Y-10153014D01*
X16627277Y-10153014D02*
X16555848Y-10117300D01*
X16555848Y-10117300D02*
X16520134Y-10045871D01*
X16520134Y-10045871D02*
X16520134Y-10010157D01*
X16520134Y-10010157D02*
X16555848Y-9938728D01*
X16555848Y-9938728D02*
X16627277Y-9903014D01*
X16627277Y-9903014D02*
X16734420Y-9903014D01*
X16734420Y-9903014D02*
X16805848Y-9867300D01*
X16805848Y-9867300D02*
X16841562Y-9795871D01*
X16841562Y-9795871D02*
X16841562Y-9760157D01*
X16841562Y-9760157D02*
X16805848Y-9688728D01*
X16805848Y-9688728D02*
X16734420Y-9653014D01*
X16734420Y-9653014D02*
X16627277Y-9653014D01*
X16627277Y-9653014D02*
X16555848Y-9688728D01*
X15877277Y-10153014D02*
X15877277Y-9760157D01*
X15877277Y-9760157D02*
X15912991Y-9688728D01*
X15912991Y-9688728D02*
X15984419Y-9653014D01*
X15984419Y-9653014D02*
X16127277Y-9653014D01*
X16127277Y-9653014D02*
X16198705Y-9688728D01*
X15877277Y-10117300D02*
X15948705Y-10153014D01*
X15948705Y-10153014D02*
X16127277Y-10153014D01*
X16127277Y-10153014D02*
X16198705Y-10117300D01*
X16198705Y-10117300D02*
X16234419Y-10045871D01*
X16234419Y-10045871D02*
X16234419Y-9974442D01*
X16234419Y-9974442D02*
X16198705Y-9903014D01*
X16198705Y-9903014D02*
X16127277Y-9867300D01*
X16127277Y-9867300D02*
X15948705Y-9867300D01*
X15948705Y-9867300D02*
X15877277Y-9831585D01*
X15520134Y-10153014D02*
X15520134Y-9653014D01*
X15520134Y-9724442D02*
X15484420Y-9688728D01*
X15484420Y-9688728D02*
X15412991Y-9653014D01*
X15412991Y-9653014D02*
X15305848Y-9653014D01*
X15305848Y-9653014D02*
X15234420Y-9688728D01*
X15234420Y-9688728D02*
X15198706Y-9760157D01*
X15198706Y-9760157D02*
X15198706Y-10153014D01*
X15198706Y-9760157D02*
X15162991Y-9688728D01*
X15162991Y-9688728D02*
X15091563Y-9653014D01*
X15091563Y-9653014D02*
X14984420Y-9653014D01*
X14984420Y-9653014D02*
X14912991Y-9688728D01*
X14912991Y-9688728D02*
X14877277Y-9760157D01*
X14877277Y-9760157D02*
X14877277Y-10153014D01*
X14520134Y-9653014D02*
X14520134Y-10403014D01*
X14520134Y-9688728D02*
X14448706Y-9653014D01*
X14448706Y-9653014D02*
X14305848Y-9653014D01*
X14305848Y-9653014D02*
X14234420Y-9688728D01*
X14234420Y-9688728D02*
X14198706Y-9724442D01*
X14198706Y-9724442D02*
X14162991Y-9795871D01*
X14162991Y-9795871D02*
X14162991Y-10010157D01*
X14162991Y-10010157D02*
X14198706Y-10081585D01*
X14198706Y-10081585D02*
X14234420Y-10117300D01*
X14234420Y-10117300D02*
X14305848Y-10153014D01*
X14305848Y-10153014D02*
X14448706Y-10153014D01*
X14448706Y-10153014D02*
X14520134Y-10117300D01*
X13734420Y-10153014D02*
X13805849Y-10117300D01*
X13805849Y-10117300D02*
X13841563Y-10045871D01*
X13841563Y-10045871D02*
X13841563Y-9403014D01*
X13162992Y-10117300D02*
X13234420Y-10153014D01*
X13234420Y-10153014D02*
X13377278Y-10153014D01*
X13377278Y-10153014D02*
X13448706Y-10117300D01*
X13448706Y-10117300D02*
X13484420Y-10045871D01*
X13484420Y-10045871D02*
X13484420Y-9760157D01*
X13484420Y-9760157D02*
X13448706Y-9688728D01*
X13448706Y-9688728D02*
X13377278Y-9653014D01*
X13377278Y-9653014D02*
X13234420Y-9653014D01*
X13234420Y-9653014D02*
X13162992Y-9688728D01*
X13162992Y-9688728D02*
X13127278Y-9760157D01*
X13127278Y-9760157D02*
X13127278Y-9831585D01*
X13127278Y-9831585D02*
X13484420Y-9903014D01*
X12805849Y-10153014D02*
X12805849Y-9653014D01*
X12805849Y-9795871D02*
X12770135Y-9724442D01*
X12770135Y-9724442D02*
X12734421Y-9688728D01*
X12734421Y-9688728D02*
X12662992Y-9653014D01*
X12662992Y-9653014D02*
X12591563Y-9653014D01*
%TO.C,J2*%
X5250000Y-1450000D02*
X2750000Y-1450000D01*
X5250000Y-2750000D02*
X5250000Y-1450000D01*
X5250000Y-9250000D02*
X5250000Y-10550000D01*
X2750000Y-2750000D02*
X2750000Y-1450000D01*
X2750000Y-9250000D02*
X2750000Y-10550000D01*
X2750000Y-10550000D02*
X5250000Y-10550000D01*
D11*
X5875000Y-2500000D02*
G75*
G03*
X5875000Y-2500000I-125000J0D01*
G01*
D12*
%TO.C,C11*%
X19610000Y-3392164D02*
X19610000Y-3607836D01*
X18890000Y-3392164D02*
X18890000Y-3607836D01*
%TO.C,R1*%
X13096359Y-1880000D02*
X13403641Y-1880000D01*
X13096359Y-1120000D02*
X13403641Y-1120000D01*
D10*
%TO.C,J1*%
X31250000Y-1450000D02*
X28750000Y-1450000D01*
X31250000Y-2750000D02*
X31250000Y-1450000D01*
X31250000Y-9250000D02*
X31250000Y-10550000D01*
X28750000Y-2750000D02*
X28750000Y-1450000D01*
X28750000Y-9250000D02*
X28750000Y-10550000D01*
X28750000Y-10550000D02*
X31250000Y-10550000D01*
D11*
X31875000Y-2500000D02*
G75*
G03*
X31875000Y-2500000I-125000J0D01*
G01*
D12*
%TO.C,R2*%
X13403641Y-3380000D02*
X13096359Y-3380000D01*
X13403641Y-2620000D02*
X13096359Y-2620000D01*
%TD*%
%LPC*%
D13*
%TO.C,J2*%
X5475000Y-3250000D03*
X2525000Y-3250000D03*
X5475000Y-3750000D03*
X2525000Y-3750000D03*
X5475000Y-4250000D03*
X2525000Y-4250000D03*
X5475000Y-4750000D03*
X2525000Y-4750000D03*
X5475000Y-5250000D03*
X2525000Y-5250000D03*
X5475000Y-5750000D03*
X2525000Y-5750000D03*
X5475000Y-6250000D03*
X2525000Y-6250000D03*
X5475000Y-6750000D03*
X2525000Y-6750000D03*
X5475000Y-7250000D03*
X2525000Y-7250000D03*
X5475000Y-7750000D03*
X2525000Y-7750000D03*
X5475000Y-8250000D03*
X2525000Y-8250000D03*
X5475000Y-8750000D03*
X2525000Y-8750000D03*
%TD*%
D14*
%TO.C,C11*%
X19250000Y-3020000D03*
X19250000Y-3980000D03*
%TD*%
D15*
%TO.C,R1*%
X12740000Y-1500000D03*
X13760000Y-1500000D03*
%TD*%
D13*
%TO.C,J1*%
X31475000Y-3250000D03*
X28525000Y-3250000D03*
X31475000Y-3750000D03*
X28525000Y-3750000D03*
X31475000Y-4250000D03*
X28525000Y-4250000D03*
X31475000Y-4750000D03*
X28525000Y-4750000D03*
X31475000Y-5250000D03*
X28525000Y-5250000D03*
X31475000Y-5750000D03*
X28525000Y-5750000D03*
X31475000Y-6250000D03*
X28525000Y-6250000D03*
X31475000Y-6750000D03*
X28525000Y-6750000D03*
X31475000Y-7250000D03*
X28525000Y-7250000D03*
X31475000Y-7750000D03*
X28525000Y-7750000D03*
X31475000Y-8250000D03*
X28525000Y-8250000D03*
X31475000Y-8750000D03*
X28525000Y-8750000D03*
%TD*%
D16*
%TO.C,R2*%
X12740000Y-3000000D03*
X13760000Y-3000000D03*
%TD*%
%LPD*%
M02*
