%TF.GenerationSoftware,KiCad,Pcbnew,7.0.7*%
%TF.CreationDate,2023-11-05T15:44:54+10:00*%
%TF.ProjectId,ControllerBoard,436f6e74-726f-46c6-9c65-72426f617264,rev?*%
%TF.SameCoordinates,Original*%
%TF.FileFunction,Paste,Top*%
%TF.FilePolarity,Positive*%
%FSLAX46Y46*%
G04 Gerber Fmt 4.6, Leading zero omitted, Abs format (unit mm)*
G04 Created by KiCad (PCBNEW 7.0.7) date 2023-11-05 15:44:54*
%MOMM*%
%LPD*%
G01*
G04 APERTURE LIST*
G04 Aperture macros list*
%AMRoundRect*
0 Rectangle with rounded corners*
0 $1 Rounding radius*
0 $2 $3 $4 $5 $6 $7 $8 $9 X,Y pos of 4 corners*
0 Add a 4 corners polygon primitive as box body*
4,1,4,$2,$3,$4,$5,$6,$7,$8,$9,$2,$3,0*
0 Add four circle primitives for the rounded corners*
1,1,$1+$1,$2,$3*
1,1,$1+$1,$4,$5*
1,1,$1+$1,$6,$7*
1,1,$1+$1,$8,$9*
0 Add four rect primitives between the rounded corners*
20,1,$1+$1,$2,$3,$4,$5,0*
20,1,$1+$1,$4,$5,$6,$7,0*
20,1,$1+$1,$6,$7,$8,$9,0*
20,1,$1+$1,$8,$9,$2,$3,0*%
G04 Aperture macros list end*
%ADD10RoundRect,0.225000X0.225000X0.250000X-0.225000X0.250000X-0.225000X-0.250000X0.225000X-0.250000X0*%
%ADD11RoundRect,0.242500X0.242500X-0.242500X0.242500X0.242500X-0.242500X0.242500X-0.242500X-0.242500X0*%
%ADD12RoundRect,0.062500X0.062500X-0.337500X0.062500X0.337500X-0.062500X0.337500X-0.062500X-0.337500X0*%
%ADD13RoundRect,0.062500X0.337500X-0.062500X0.337500X0.062500X-0.337500X0.062500X-0.337500X-0.062500X0*%
%ADD14R,1.000000X1.800000*%
%ADD15RoundRect,0.147500X0.147500X0.172500X-0.147500X0.172500X-0.147500X-0.172500X0.147500X-0.172500X0*%
%ADD16RoundRect,0.140000X0.140000X0.170000X-0.140000X0.170000X-0.140000X-0.170000X0.140000X-0.170000X0*%
%ADD17RoundRect,0.140000X-0.140000X-0.170000X0.140000X-0.170000X0.140000X0.170000X-0.140000X0.170000X0*%
%ADD18RoundRect,0.140000X-0.170000X0.140000X-0.170000X-0.140000X0.170000X-0.140000X0.170000X0.140000X0*%
%ADD19R,0.350000X0.375000*%
%ADD20R,0.375000X0.350000*%
%ADD21RoundRect,0.062500X0.062500X-0.350000X0.062500X0.350000X-0.062500X0.350000X-0.062500X-0.350000X0*%
%ADD22RoundRect,0.062500X0.350000X-0.062500X0.350000X0.062500X-0.350000X0.062500X-0.350000X-0.062500X0*%
%ADD23RoundRect,0.225000X-0.225000X-0.250000X0.225000X-0.250000X0.225000X0.250000X-0.225000X0.250000X0*%
%ADD24R,0.600000X0.500000*%
%ADD25RoundRect,0.218750X-0.218750X-0.256250X0.218750X-0.256250X0.218750X0.256250X-0.218750X0.256250X0*%
%ADD26RoundRect,0.250000X-0.312500X-0.625000X0.312500X-0.625000X0.312500X0.625000X-0.312500X0.625000X0*%
%ADD27RoundRect,0.140000X0.170000X-0.140000X0.170000X0.140000X-0.170000X0.140000X-0.170000X-0.140000X0*%
G04 APERTURE END LIST*
D10*
%TO.C,C9*%
X6775000Y-8750000D03*
X5225000Y-8750000D03*
%TD*%
D11*
%TO.C,U3*%
X10050000Y-6700000D03*
X11250000Y-6700000D03*
X12450000Y-6700000D03*
X10050000Y-5500000D03*
X11250000Y-5500000D03*
X12450000Y-5500000D03*
X10050000Y-4300000D03*
X11250000Y-4300000D03*
X12450000Y-4300000D03*
D12*
X9500000Y-7950000D03*
X10000000Y-7950000D03*
X10500000Y-7950000D03*
X11000000Y-7950000D03*
X11500000Y-7950000D03*
X12000000Y-7950000D03*
X12500000Y-7950000D03*
X13000000Y-7950000D03*
D13*
X13700000Y-7250000D03*
X13700000Y-6750000D03*
X13700000Y-6250000D03*
X13700000Y-5750000D03*
X13700000Y-5250000D03*
X13700000Y-4750000D03*
X13700000Y-4250000D03*
X13700000Y-3750000D03*
D12*
X13000000Y-3050000D03*
X12500000Y-3050000D03*
X12000000Y-3050000D03*
X11500000Y-3050000D03*
X11000000Y-3050000D03*
X10500000Y-3050000D03*
X10000000Y-3050000D03*
X9500000Y-3050000D03*
D13*
X8800000Y-3750000D03*
X8800000Y-4250000D03*
X8800000Y-4750000D03*
X8800000Y-5250000D03*
X8800000Y-5750000D03*
X8800000Y-6250000D03*
X8800000Y-6750000D03*
X8800000Y-7250000D03*
%TD*%
D14*
%TO.C,Y1*%
X11500000Y-10750000D03*
X9000000Y-10750000D03*
%TD*%
D15*
%TO.C,L1*%
X6485000Y-6000000D03*
X5515000Y-6000000D03*
%TD*%
D16*
%TO.C,C16*%
X11730000Y-550000D03*
X10770000Y-550000D03*
%TD*%
%TO.C,C13*%
X8980000Y-9100000D03*
X8020000Y-9100000D03*
%TD*%
D17*
%TO.C,C4*%
X16520000Y-9000000D03*
X17480000Y-9000000D03*
%TD*%
D18*
%TO.C,C8*%
X7750000Y-10270000D03*
X7750000Y-11230000D03*
%TD*%
D19*
%TO.C,U2*%
X16250000Y-11512500D03*
X16750000Y-11512500D03*
X17250000Y-11512500D03*
X17750000Y-11512500D03*
D20*
X17762500Y-11000000D03*
X17762500Y-10500000D03*
D19*
X17750000Y-9987500D03*
X17250000Y-9987500D03*
X16750000Y-9987500D03*
X16250000Y-9987500D03*
D20*
X16237500Y-10500000D03*
X16237500Y-11000000D03*
%TD*%
D11*
%TO.C,U1*%
X22550000Y-8450000D03*
X23750000Y-8450000D03*
X24950000Y-8450000D03*
X22550000Y-7250000D03*
X23750000Y-7250000D03*
X24950000Y-7250000D03*
X22550000Y-6050000D03*
X23750000Y-6050000D03*
X24950000Y-6050000D03*
D21*
X21950000Y-9687500D03*
X22350000Y-9687500D03*
X22750000Y-9687500D03*
X23150000Y-9687500D03*
X23550000Y-9687500D03*
X23950000Y-9687500D03*
X24350000Y-9687500D03*
X24750000Y-9687500D03*
X25150000Y-9687500D03*
X25550000Y-9687500D03*
D22*
X26187500Y-9050000D03*
X26187500Y-8650000D03*
X26187500Y-8250000D03*
X26187500Y-7850000D03*
X26187500Y-7450000D03*
X26187500Y-7050000D03*
X26187500Y-6650000D03*
X26187500Y-6250000D03*
X26187500Y-5850000D03*
X26187500Y-5450000D03*
D21*
X25550000Y-4812500D03*
X25150000Y-4812500D03*
X24750000Y-4812500D03*
X24350000Y-4812500D03*
X23950000Y-4812500D03*
X23550000Y-4812500D03*
X23150000Y-4812500D03*
X22750000Y-4812500D03*
X22350000Y-4812500D03*
X21950000Y-4812500D03*
D22*
X21312500Y-5450000D03*
X21312500Y-5850000D03*
X21312500Y-6250000D03*
X21312500Y-6650000D03*
X21312500Y-7050000D03*
X21312500Y-7450000D03*
X21312500Y-7850000D03*
X21312500Y-8250000D03*
X21312500Y-8650000D03*
X21312500Y-9050000D03*
%TD*%
D18*
%TO.C,C14*%
X15250000Y-1250000D03*
X15250000Y-2210000D03*
%TD*%
D16*
%TO.C,C6*%
X6480000Y-5000000D03*
X5520000Y-5000000D03*
%TD*%
D23*
%TO.C,C5*%
X16225000Y-7750000D03*
X17775000Y-7750000D03*
%TD*%
D16*
%TO.C,C15*%
X12230000Y-1750000D03*
X11270000Y-1750000D03*
%TD*%
D24*
%TO.C,Y2*%
X9700000Y-600000D03*
X8600000Y-600000D03*
X8600000Y-1400000D03*
X9700000Y-1400000D03*
%TD*%
D18*
%TO.C,C12*%
X12750000Y-10270000D03*
X12750000Y-11230000D03*
%TD*%
D25*
%TO.C,L2*%
X5212500Y-7250000D03*
X6787500Y-7250000D03*
%TD*%
D18*
%TO.C,C17*%
X7500000Y-520000D03*
X7500000Y-1480000D03*
%TD*%
D26*
%TO.C,AE1*%
X18287500Y-1250000D03*
X21212500Y-1250000D03*
%TD*%
D15*
%TO.C,L3*%
X14235000Y-1250000D03*
X13265000Y-1250000D03*
%TD*%
D27*
%TO.C,C1*%
X30000000Y-6730000D03*
X30000000Y-5770000D03*
%TD*%
%TO.C,C3*%
X20000000Y-4730000D03*
X20000000Y-3770000D03*
%TD*%
%TO.C,C10*%
X7500000Y-3480000D03*
X7500000Y-2520000D03*
%TD*%
D18*
%TO.C,C11*%
X15000000Y-7520000D03*
X15000000Y-8480000D03*
%TD*%
%TO.C,C2*%
X20000000Y-9270000D03*
X20000000Y-10230000D03*
%TD*%
M02*
