%TF.GenerationSoftware,KiCad,Pcbnew,7.0.8*%
%TF.CreationDate,2023-11-08T20:54:03+10:00*%
%TF.ProjectId,ControllerBoard,436f6e74-726f-46c6-9c65-72426f617264,rev?*%
%TF.SameCoordinates,Original*%
%TF.FileFunction,Paste,Top*%
%TF.FilePolarity,Positive*%
%FSLAX46Y46*%
G04 Gerber Fmt 4.6, Leading zero omitted, Abs format (unit mm)*
G04 Created by KiCad (PCBNEW 7.0.8) date 2023-11-08 20:54:03*
%MOMM*%
%LPD*%
G01*
G04 APERTURE LIST*
G04 Aperture macros list*
%AMRoundRect*
0 Rectangle with rounded corners*
0 $1 Rounding radius*
0 $2 $3 $4 $5 $6 $7 $8 $9 X,Y pos of 4 corners*
0 Add a 4 corners polygon primitive as box body*
4,1,4,$2,$3,$4,$5,$6,$7,$8,$9,$2,$3,0*
0 Add four circle primitives for the rounded corners*
1,1,$1+$1,$2,$3*
1,1,$1+$1,$4,$5*
1,1,$1+$1,$6,$7*
1,1,$1+$1,$8,$9*
0 Add four rect primitives between the rounded corners*
20,1,$1+$1,$2,$3,$4,$5,0*
20,1,$1+$1,$4,$5,$6,$7,0*
20,1,$1+$1,$6,$7,$8,$9,0*
20,1,$1+$1,$8,$9,$2,$3,0*%
G04 Aperture macros list end*
%ADD10R,1.000000X1.800000*%
%ADD11RoundRect,0.250000X0.370000X-0.370000X0.370000X0.370000X-0.370000X0.370000X-0.370000X-0.370000X0*%
%ADD12RoundRect,0.050000X0.050000X-0.350000X0.050000X0.350000X-0.050000X0.350000X-0.050000X-0.350000X0*%
%ADD13RoundRect,0.050000X0.350000X-0.050000X0.350000X0.050000X-0.350000X0.050000X-0.350000X-0.050000X0*%
%ADD14RoundRect,0.140000X0.170000X-0.140000X0.170000X0.140000X-0.170000X0.140000X-0.170000X-0.140000X0*%
%ADD15RoundRect,0.225000X0.225000X0.250000X-0.225000X0.250000X-0.225000X-0.250000X0.225000X-0.250000X0*%
%ADD16R,0.375000X0.350000*%
%ADD17R,0.350000X0.375000*%
%ADD18R,0.500000X0.320000*%
%ADD19RoundRect,0.225000X0.250000X-0.225000X0.250000X0.225000X-0.250000X0.225000X-0.250000X-0.225000X0*%
%ADD20RoundRect,0.140000X0.140000X0.170000X-0.140000X0.170000X-0.140000X-0.170000X0.140000X-0.170000X0*%
%ADD21R,0.600000X0.500000*%
%ADD22RoundRect,0.147500X0.147500X0.172500X-0.147500X0.172500X-0.147500X-0.172500X0.147500X-0.172500X0*%
%ADD23RoundRect,0.250000X-0.312500X-0.625000X0.312500X-0.625000X0.312500X0.625000X-0.312500X0.625000X0*%
%ADD24RoundRect,0.140000X-0.170000X0.140000X-0.170000X-0.140000X0.170000X-0.140000X0.170000X0.140000X0*%
%ADD25RoundRect,0.135000X0.185000X-0.135000X0.185000X0.135000X-0.185000X0.135000X-0.185000X-0.135000X0*%
%ADD26RoundRect,0.140000X-0.140000X-0.170000X0.140000X-0.170000X0.140000X0.170000X-0.140000X0.170000X0*%
%ADD27RoundRect,0.200000X-0.800000X0.200000X-0.800000X-0.200000X0.800000X-0.200000X0.800000X0.200000X0*%
G04 APERTURE END LIST*
D10*
%TO.C,Y1*%
X18250000Y-11750000D03*
X15750000Y-11750000D03*
%TD*%
D11*
%TO.C,U3*%
X18720000Y-7780000D03*
X20250000Y-7780000D03*
X21780000Y-7780000D03*
X18720000Y-6250000D03*
X20250000Y-6250000D03*
X21780000Y-6250000D03*
X18720000Y-4720000D03*
X20250000Y-4720000D03*
X21780000Y-4720000D03*
D12*
X18050000Y-9200000D03*
X18450000Y-9200000D03*
X18850000Y-9200000D03*
X19250000Y-9200000D03*
X19650000Y-9200000D03*
X20050000Y-9200000D03*
X20450000Y-9200000D03*
X20850000Y-9200000D03*
X21250000Y-9200000D03*
X21650000Y-9200000D03*
X22050000Y-9200000D03*
X22450000Y-9200000D03*
D13*
X23200000Y-8450000D03*
X23200000Y-8050000D03*
X23200000Y-7650000D03*
X23200000Y-7250000D03*
X23200000Y-6850000D03*
X23200000Y-6450000D03*
X23200000Y-6050000D03*
X23200000Y-5650000D03*
X23200000Y-5250000D03*
X23200000Y-4850000D03*
X23200000Y-4450000D03*
X23200000Y-4050000D03*
D12*
X22450000Y-3300000D03*
X22050000Y-3300000D03*
X21650000Y-3300000D03*
X21250000Y-3300000D03*
X20850000Y-3300000D03*
X20450000Y-3300000D03*
X20050000Y-3300000D03*
X19650000Y-3300000D03*
X19250000Y-3300000D03*
X18850000Y-3300000D03*
X18450000Y-3300000D03*
X18050000Y-3300000D03*
D13*
X17300000Y-4050000D03*
X17300000Y-4450000D03*
X17300000Y-4850000D03*
X17300000Y-5250000D03*
X17300000Y-5650000D03*
X17300000Y-6050000D03*
X17300000Y-6450000D03*
X17300000Y-6850000D03*
X17300000Y-7250000D03*
X17300000Y-7650000D03*
X17300000Y-8050000D03*
X17300000Y-8450000D03*
%TD*%
D14*
%TO.C,C4*%
X9250000Y-2230000D03*
X9250000Y-1270000D03*
%TD*%
D15*
%TO.C,C8*%
X15775000Y-8750000D03*
X14225000Y-8750000D03*
%TD*%
D14*
%TO.C,C15*%
X19500000Y-1480000D03*
X19500000Y-520000D03*
%TD*%
D16*
%TO.C,U2*%
X11762500Y-3000000D03*
X11762500Y-2500000D03*
X11762500Y-2000000D03*
X11762500Y-1500000D03*
D17*
X11250000Y-1487500D03*
X10750000Y-1487500D03*
D16*
X10237500Y-1500000D03*
X10237500Y-2000000D03*
X10237500Y-2500000D03*
X10237500Y-3000000D03*
D17*
X10750000Y-3012500D03*
X11250000Y-3012500D03*
%TD*%
D18*
%TO.C,RN1*%
X28000000Y-9750000D03*
X28000000Y-10250000D03*
X28000000Y-10750000D03*
X28000000Y-11250000D03*
X29000000Y-11250000D03*
X29000000Y-10750000D03*
X29000000Y-10250000D03*
X29000000Y-9750000D03*
%TD*%
%TO.C,RN3*%
X28000000Y-4750000D03*
X28000000Y-5250000D03*
X28000000Y-5750000D03*
X28000000Y-6250000D03*
X29000000Y-6250000D03*
X29000000Y-5750000D03*
X29000000Y-5250000D03*
X29000000Y-4750000D03*
%TD*%
D19*
%TO.C,C5*%
X8000000Y-2775000D03*
X8000000Y-1225000D03*
%TD*%
D20*
%TO.C,C13*%
X15980000Y-10000000D03*
X15020000Y-10000000D03*
%TD*%
D14*
%TO.C,C9*%
X16000000Y-3480000D03*
X16000000Y-2520000D03*
%TD*%
D21*
%TO.C,Y2*%
X18425000Y-600000D03*
X17325000Y-600000D03*
X17325000Y-1400000D03*
X18425000Y-1400000D03*
%TD*%
D22*
%TO.C,L1*%
X23485000Y-750000D03*
X22515000Y-750000D03*
%TD*%
D23*
%TO.C,AE1*%
X28287500Y-1250000D03*
X31212500Y-1250000D03*
%TD*%
D24*
%TO.C,C10*%
X24500000Y-8770000D03*
X24500000Y-9730000D03*
%TD*%
D20*
%TO.C,C14*%
X21480000Y-750000D03*
X20520000Y-750000D03*
%TD*%
D25*
%TO.C,R3*%
X2750000Y-5260000D03*
X2750000Y-4240000D03*
%TD*%
D24*
%TO.C,C1*%
X9250000Y-3270000D03*
X9250000Y-4230000D03*
%TD*%
D18*
%TO.C,RN4*%
X8250000Y-7250000D03*
X8250000Y-7750000D03*
X8250000Y-8250000D03*
X8250000Y-8750000D03*
X9250000Y-8750000D03*
X9250000Y-8250000D03*
X9250000Y-7750000D03*
X9250000Y-7250000D03*
%TD*%
D15*
%TO.C,C6*%
X15775000Y-7250000D03*
X14225000Y-7250000D03*
%TD*%
D24*
%TO.C,C16*%
X16250000Y-520000D03*
X16250000Y-1480000D03*
%TD*%
D26*
%TO.C,C12*%
X19520000Y-12500000D03*
X20480000Y-12500000D03*
%TD*%
D20*
%TO.C,C7*%
X14480000Y-12500000D03*
X13520000Y-12500000D03*
%TD*%
D27*
%TO.C,SW1*%
X5250000Y-1150000D03*
X5250000Y-5350000D03*
%TD*%
D18*
%TO.C,RN2*%
X28000000Y-7250000D03*
X28000000Y-7750000D03*
X28000000Y-8250000D03*
X28000000Y-8750000D03*
X29000000Y-8750000D03*
X29000000Y-8250000D03*
X29000000Y-7750000D03*
X29000000Y-7250000D03*
%TD*%
M02*
