M48
; DRILL file {KiCad 7.0.7} date Sun Nov  5 15:44:54 2023
; FORMAT={-:-/ absolute / inch / decimal}
; #@! TF.CreationDate,2023-11-05T15:44:54+10:00
; #@! TF.GenerationSoftware,Kicad,Pcbnew,7.0.7
; #@! TF.FileFunction,Plated,1,4,PTH
FMAT,2
INCH
; #@! TA.AperFunction,Plated,PTH,ViaDrill
T1C0.0118
%
G90
G05
T1
X0.0492Y-0.1378
X0.0492Y-0.1772
X0.0492Y-0.2165
X0.0492Y-0.2559
X0.0492Y-0.2953
X0.0492Y-0.3346
X0.1083Y-0.0984
X0.1083Y-0.374
X0.1575Y-0.1969
X0.1575Y-0.2559
X0.1575Y-0.2953
X0.1673Y-0.4528
X0.2067Y-0.0984
X0.2165Y-0.374
X0.2559Y-0.0984
X0.2559Y-0.374
X0.2854Y-0.187
X0.2854Y-0.2264
X0.2953Y-0.0197
X0.2953Y-0.0992
X0.3051Y-0.2067
X0.3051Y-0.4043
X0.315Y-0.3661
X0.3937Y-0.2165
X0.4134Y-0.0886
X0.4331Y-0.3445
X0.4421Y-0.0689
X0.4429Y-0.2165
X0.4528Y-0.3642
X0.4724Y-0.3445
X0.4921Y-0.2165
X0.502Y-0.4043
X0.5118Y-0.0886
X0.5217Y-0.0197
X0.5315Y-0.1083
X0.561Y-0.0197
X0.561Y-0.0787
X0.5709Y-0.3937
X0.5709Y-0.4232
X0.5807Y-0.4528
X0.5906Y-0.1476
X0.5906Y-0.187
X0.5906Y-0.2657
X0.5906Y-0.2961
X0.5906Y-0.3339
X0.6004Y-0.0197
X0.6004Y-0.087
X0.6102Y-0.1673
X0.6102Y-0.2461
X0.6102Y-0.4532
X0.6299Y-0.1476
X0.6299Y-0.2264
X0.6496Y-0.3051
X0.6693Y-0.1476
X0.6998Y-0.3051
X0.7087Y-0.1476
X0.7283Y-0.2461
X0.7283Y-0.4528
X0.748Y-0.1484
X0.7579Y-0.4528
X0.7874Y-0.1476
X0.7874Y-0.365
X0.7874Y-0.4028
X0.7972Y-0.315
X0.8268Y-0.1476
X0.8366Y-0.3839
X0.8563Y-0.4134
X0.8563Y-0.4528
X0.8661Y-0.1476
X0.876Y-0.4331
X0.8858Y-0.2362
X0.8858Y-0.2756
X0.8971Y-0.4528
X0.9055Y-0.1476
X0.9252Y-0.4528
X0.935Y-0.2362
X0.9547Y-0.0295
X0.9547Y-0.0689
X0.9547Y-0.1083
X0.9547Y-0.1476
X0.9547Y-0.4528
X0.9843Y-0.1476
X0.9843Y-0.4528
X1.0039Y-0.4331
X1.0138Y-0.1476
X1.0236Y-0.4528
X1.0335Y-0.4134
X1.0728Y-0.4134
X1.1024Y-0.0984
X1.1417Y-0.0984
X1.1811Y-0.2272
X1.1811Y-0.265
X1.2205Y-0.0984
X1.2205Y-0.4134
X1.2598Y-0.0984
X1.2598Y-0.4134
X1.2992Y-0.1476
X1.2992Y-0.187
X1.2992Y-0.2264
X1.2992Y-0.2657
X1.2992Y-0.3051
X1.3189Y-0.1673
X1.3189Y-0.2067
X1.3189Y-0.2461
X1.3189Y-0.2854
X1.3189Y-0.3248
T0
M30
