%TF.GenerationSoftware,KiCad,Pcbnew,7.0.7*%
%TF.CreationDate,2023-11-05T15:44:53+10:00*%
%TF.ProjectId,ControllerBoard,436f6e74-726f-46c6-9c65-72426f617264,rev?*%
%TF.SameCoordinates,Original*%
%TF.FileFunction,Legend,Top*%
%TF.FilePolarity,Positive*%
%FSLAX46Y46*%
G04 Gerber Fmt 4.6, Leading zero omitted, Abs format (unit mm)*
G04 Created by KiCad (PCBNEW 7.0.7) date 2023-11-05 15:44:53*
%MOMM*%
%LPD*%
G01*
G04 APERTURE LIST*
G04 Aperture macros list*
%AMRoundRect*
0 Rectangle with rounded corners*
0 $1 Rounding radius*
0 $2 $3 $4 $5 $6 $7 $8 $9 X,Y pos of 4 corners*
0 Add a 4 corners polygon primitive as box body*
4,1,4,$2,$3,$4,$5,$6,$7,$8,$9,$2,$3,0*
0 Add four circle primitives for the rounded corners*
1,1,$1+$1,$2,$3*
1,1,$1+$1,$4,$5*
1,1,$1+$1,$6,$7*
1,1,$1+$1,$8,$9*
0 Add four rect primitives between the rounded corners*
20,1,$1+$1,$2,$3,$4,$5,0*
20,1,$1+$1,$4,$5,$6,$7,0*
20,1,$1+$1,$6,$7,$8,$9,0*
20,1,$1+$1,$8,$9,$2,$3,0*%
G04 Aperture macros list end*
%ADD10C,0.100000*%
%ADD11C,0.120000*%
%ADD12RoundRect,0.225000X0.225000X0.250000X-0.225000X0.250000X-0.225000X-0.250000X0.225000X-0.250000X0*%
%ADD13RoundRect,0.062500X0.062500X-0.337500X0.062500X0.337500X-0.062500X0.337500X-0.062500X-0.337500X0*%
%ADD14RoundRect,0.062500X0.337500X-0.062500X0.337500X0.062500X-0.337500X0.062500X-0.337500X-0.062500X0*%
%ADD15R,3.600000X3.600000*%
%ADD16R,1.000000X1.800000*%
%ADD17RoundRect,0.147500X0.147500X0.172500X-0.147500X0.172500X-0.147500X-0.172500X0.147500X-0.172500X0*%
%ADD18RoundRect,0.140000X0.140000X0.170000X-0.140000X0.170000X-0.140000X-0.170000X0.140000X-0.170000X0*%
%ADD19RoundRect,0.140000X-0.140000X-0.170000X0.140000X-0.170000X0.140000X0.170000X-0.140000X0.170000X0*%
%ADD20RoundRect,0.140000X-0.170000X0.140000X-0.170000X-0.140000X0.170000X-0.140000X0.170000X0.140000X0*%
%ADD21R,0.350000X0.375000*%
%ADD22R,0.375000X0.350000*%
%ADD23RoundRect,0.062500X0.062500X-0.350000X0.062500X0.350000X-0.062500X0.350000X-0.062500X-0.350000X0*%
%ADD24RoundRect,0.062500X0.350000X-0.062500X0.350000X0.062500X-0.350000X0.062500X-0.350000X-0.062500X0*%
%ADD25RoundRect,0.225000X-0.225000X-0.250000X0.225000X-0.250000X0.225000X0.250000X-0.225000X0.250000X0*%
%ADD26R,0.600000X0.500000*%
%ADD27RoundRect,0.218750X-0.218750X-0.256250X0.218750X-0.256250X0.218750X0.256250X-0.218750X0.256250X0*%
%ADD28RoundRect,0.250000X-0.312500X-0.625000X0.312500X-0.625000X0.312500X0.625000X-0.312500X0.625000X0*%
%ADD29RoundRect,0.140000X0.170000X-0.140000X0.170000X0.140000X-0.170000X0.140000X-0.170000X-0.140000X0*%
G04 APERTURE END LIST*
D10*
X27827069Y-2195514D02*
X28005641Y-2945514D01*
X28005641Y-2945514D02*
X28148498Y-2409800D01*
X28148498Y-2409800D02*
X28291355Y-2945514D01*
X28291355Y-2945514D02*
X28469927Y-2195514D01*
X28862784Y-2945514D02*
X28791355Y-2909800D01*
X28791355Y-2909800D02*
X28755641Y-2874085D01*
X28755641Y-2874085D02*
X28719927Y-2802657D01*
X28719927Y-2802657D02*
X28719927Y-2588371D01*
X28719927Y-2588371D02*
X28755641Y-2516942D01*
X28755641Y-2516942D02*
X28791355Y-2481228D01*
X28791355Y-2481228D02*
X28862784Y-2445514D01*
X28862784Y-2445514D02*
X28969927Y-2445514D01*
X28969927Y-2445514D02*
X29041355Y-2481228D01*
X29041355Y-2481228D02*
X29077070Y-2516942D01*
X29077070Y-2516942D02*
X29112784Y-2588371D01*
X29112784Y-2588371D02*
X29112784Y-2802657D01*
X29112784Y-2802657D02*
X29077070Y-2874085D01*
X29077070Y-2874085D02*
X29041355Y-2909800D01*
X29041355Y-2909800D02*
X28969927Y-2945514D01*
X28969927Y-2945514D02*
X28862784Y-2945514D01*
X29434212Y-2945514D02*
X29434212Y-2445514D01*
X29434212Y-2588371D02*
X29469926Y-2516942D01*
X29469926Y-2516942D02*
X29505641Y-2481228D01*
X29505641Y-2481228D02*
X29577069Y-2445514D01*
X29577069Y-2445514D02*
X29648498Y-2445514D01*
X30219927Y-2945514D02*
X30219927Y-2195514D01*
X30219927Y-2909800D02*
X30148498Y-2945514D01*
X30148498Y-2945514D02*
X30005641Y-2945514D01*
X30005641Y-2945514D02*
X29934212Y-2909800D01*
X29934212Y-2909800D02*
X29898498Y-2874085D01*
X29898498Y-2874085D02*
X29862784Y-2802657D01*
X29862784Y-2802657D02*
X29862784Y-2588371D01*
X29862784Y-2588371D02*
X29898498Y-2516942D01*
X29898498Y-2516942D02*
X29934212Y-2481228D01*
X29934212Y-2481228D02*
X30005641Y-2445514D01*
X30005641Y-2445514D02*
X30148498Y-2445514D01*
X30148498Y-2445514D02*
X30219927Y-2481228D01*
X30505640Y-2195514D02*
X30684212Y-2945514D01*
X30684212Y-2945514D02*
X30827069Y-2409800D01*
X30827069Y-2409800D02*
X30969926Y-2945514D01*
X30969926Y-2945514D02*
X31148498Y-2195514D01*
X31755641Y-2945514D02*
X31755641Y-2552657D01*
X31755641Y-2552657D02*
X31719926Y-2481228D01*
X31719926Y-2481228D02*
X31648498Y-2445514D01*
X31648498Y-2445514D02*
X31505641Y-2445514D01*
X31505641Y-2445514D02*
X31434212Y-2481228D01*
X31755641Y-2909800D02*
X31684212Y-2945514D01*
X31684212Y-2945514D02*
X31505641Y-2945514D01*
X31505641Y-2945514D02*
X31434212Y-2909800D01*
X31434212Y-2909800D02*
X31398498Y-2838371D01*
X31398498Y-2838371D02*
X31398498Y-2766942D01*
X31398498Y-2766942D02*
X31434212Y-2695514D01*
X31434212Y-2695514D02*
X31505641Y-2659800D01*
X31505641Y-2659800D02*
X31684212Y-2659800D01*
X31684212Y-2659800D02*
X31755641Y-2624085D01*
X32005640Y-2445514D02*
X32291354Y-2445514D01*
X32112783Y-2195514D02*
X32112783Y-2838371D01*
X32112783Y-2838371D02*
X32148497Y-2909800D01*
X32148497Y-2909800D02*
X32219926Y-2945514D01*
X32219926Y-2945514D02*
X32291354Y-2945514D01*
X32862783Y-2909800D02*
X32791354Y-2945514D01*
X32791354Y-2945514D02*
X32648497Y-2945514D01*
X32648497Y-2945514D02*
X32577068Y-2909800D01*
X32577068Y-2909800D02*
X32541354Y-2874085D01*
X32541354Y-2874085D02*
X32505640Y-2802657D01*
X32505640Y-2802657D02*
X32505640Y-2588371D01*
X32505640Y-2588371D02*
X32541354Y-2516942D01*
X32541354Y-2516942D02*
X32577068Y-2481228D01*
X32577068Y-2481228D02*
X32648497Y-2445514D01*
X32648497Y-2445514D02*
X32791354Y-2445514D01*
X32791354Y-2445514D02*
X32862783Y-2481228D01*
X33184211Y-2945514D02*
X33184211Y-2195514D01*
X33505640Y-2945514D02*
X33505640Y-2552657D01*
X33505640Y-2552657D02*
X33469925Y-2481228D01*
X33469925Y-2481228D02*
X33398497Y-2445514D01*
X33398497Y-2445514D02*
X33291354Y-2445514D01*
X33291354Y-2445514D02*
X33219925Y-2481228D01*
X33219925Y-2481228D02*
X33184211Y-2516942D01*
X26398498Y-4081585D02*
X26362784Y-4117300D01*
X26362784Y-4117300D02*
X26255641Y-4153014D01*
X26255641Y-4153014D02*
X26184213Y-4153014D01*
X26184213Y-4153014D02*
X26077070Y-4117300D01*
X26077070Y-4117300D02*
X26005641Y-4045871D01*
X26005641Y-4045871D02*
X25969927Y-3974442D01*
X25969927Y-3974442D02*
X25934213Y-3831585D01*
X25934213Y-3831585D02*
X25934213Y-3724442D01*
X25934213Y-3724442D02*
X25969927Y-3581585D01*
X25969927Y-3581585D02*
X26005641Y-3510157D01*
X26005641Y-3510157D02*
X26077070Y-3438728D01*
X26077070Y-3438728D02*
X26184213Y-3403014D01*
X26184213Y-3403014D02*
X26255641Y-3403014D01*
X26255641Y-3403014D02*
X26362784Y-3438728D01*
X26362784Y-3438728D02*
X26398498Y-3474442D01*
X26827070Y-4153014D02*
X26755641Y-4117300D01*
X26755641Y-4117300D02*
X26719927Y-4081585D01*
X26719927Y-4081585D02*
X26684213Y-4010157D01*
X26684213Y-4010157D02*
X26684213Y-3795871D01*
X26684213Y-3795871D02*
X26719927Y-3724442D01*
X26719927Y-3724442D02*
X26755641Y-3688728D01*
X26755641Y-3688728D02*
X26827070Y-3653014D01*
X26827070Y-3653014D02*
X26934213Y-3653014D01*
X26934213Y-3653014D02*
X27005641Y-3688728D01*
X27005641Y-3688728D02*
X27041356Y-3724442D01*
X27041356Y-3724442D02*
X27077070Y-3795871D01*
X27077070Y-3795871D02*
X27077070Y-4010157D01*
X27077070Y-4010157D02*
X27041356Y-4081585D01*
X27041356Y-4081585D02*
X27005641Y-4117300D01*
X27005641Y-4117300D02*
X26934213Y-4153014D01*
X26934213Y-4153014D02*
X26827070Y-4153014D01*
X27398498Y-3653014D02*
X27398498Y-4153014D01*
X27398498Y-3724442D02*
X27434212Y-3688728D01*
X27434212Y-3688728D02*
X27505641Y-3653014D01*
X27505641Y-3653014D02*
X27612784Y-3653014D01*
X27612784Y-3653014D02*
X27684212Y-3688728D01*
X27684212Y-3688728D02*
X27719927Y-3760157D01*
X27719927Y-3760157D02*
X27719927Y-4153014D01*
X27969926Y-3653014D02*
X28255640Y-3653014D01*
X28077069Y-3403014D02*
X28077069Y-4045871D01*
X28077069Y-4045871D02*
X28112783Y-4117300D01*
X28112783Y-4117300D02*
X28184212Y-4153014D01*
X28184212Y-4153014D02*
X28255640Y-4153014D01*
X28505640Y-4153014D02*
X28505640Y-3653014D01*
X28505640Y-3795871D02*
X28541354Y-3724442D01*
X28541354Y-3724442D02*
X28577069Y-3688728D01*
X28577069Y-3688728D02*
X28648497Y-3653014D01*
X28648497Y-3653014D02*
X28719926Y-3653014D01*
X29077069Y-4153014D02*
X29005640Y-4117300D01*
X29005640Y-4117300D02*
X28969926Y-4081585D01*
X28969926Y-4081585D02*
X28934212Y-4010157D01*
X28934212Y-4010157D02*
X28934212Y-3795871D01*
X28934212Y-3795871D02*
X28969926Y-3724442D01*
X28969926Y-3724442D02*
X29005640Y-3688728D01*
X29005640Y-3688728D02*
X29077069Y-3653014D01*
X29077069Y-3653014D02*
X29184212Y-3653014D01*
X29184212Y-3653014D02*
X29255640Y-3688728D01*
X29255640Y-3688728D02*
X29291355Y-3724442D01*
X29291355Y-3724442D02*
X29327069Y-3795871D01*
X29327069Y-3795871D02*
X29327069Y-4010157D01*
X29327069Y-4010157D02*
X29291355Y-4081585D01*
X29291355Y-4081585D02*
X29255640Y-4117300D01*
X29255640Y-4117300D02*
X29184212Y-4153014D01*
X29184212Y-4153014D02*
X29077069Y-4153014D01*
X29755640Y-4153014D02*
X29684211Y-4117300D01*
X29684211Y-4117300D02*
X29648497Y-4045871D01*
X29648497Y-4045871D02*
X29648497Y-3403014D01*
X30862783Y-3760157D02*
X30969926Y-3795871D01*
X30969926Y-3795871D02*
X31005640Y-3831585D01*
X31005640Y-3831585D02*
X31041354Y-3903014D01*
X31041354Y-3903014D02*
X31041354Y-4010157D01*
X31041354Y-4010157D02*
X31005640Y-4081585D01*
X31005640Y-4081585D02*
X30969926Y-4117300D01*
X30969926Y-4117300D02*
X30898497Y-4153014D01*
X30898497Y-4153014D02*
X30612783Y-4153014D01*
X30612783Y-4153014D02*
X30612783Y-3403014D01*
X30612783Y-3403014D02*
X30862783Y-3403014D01*
X30862783Y-3403014D02*
X30934212Y-3438728D01*
X30934212Y-3438728D02*
X30969926Y-3474442D01*
X30969926Y-3474442D02*
X31005640Y-3545871D01*
X31005640Y-3545871D02*
X31005640Y-3617300D01*
X31005640Y-3617300D02*
X30969926Y-3688728D01*
X30969926Y-3688728D02*
X30934212Y-3724442D01*
X30934212Y-3724442D02*
X30862783Y-3760157D01*
X30862783Y-3760157D02*
X30612783Y-3760157D01*
X31469926Y-4153014D02*
X31398497Y-4117300D01*
X31398497Y-4117300D02*
X31362783Y-4081585D01*
X31362783Y-4081585D02*
X31327069Y-4010157D01*
X31327069Y-4010157D02*
X31327069Y-3795871D01*
X31327069Y-3795871D02*
X31362783Y-3724442D01*
X31362783Y-3724442D02*
X31398497Y-3688728D01*
X31398497Y-3688728D02*
X31469926Y-3653014D01*
X31469926Y-3653014D02*
X31577069Y-3653014D01*
X31577069Y-3653014D02*
X31648497Y-3688728D01*
X31648497Y-3688728D02*
X31684212Y-3724442D01*
X31684212Y-3724442D02*
X31719926Y-3795871D01*
X31719926Y-3795871D02*
X31719926Y-4010157D01*
X31719926Y-4010157D02*
X31684212Y-4081585D01*
X31684212Y-4081585D02*
X31648497Y-4117300D01*
X31648497Y-4117300D02*
X31577069Y-4153014D01*
X31577069Y-4153014D02*
X31469926Y-4153014D01*
X32362783Y-4153014D02*
X32362783Y-3760157D01*
X32362783Y-3760157D02*
X32327068Y-3688728D01*
X32327068Y-3688728D02*
X32255640Y-3653014D01*
X32255640Y-3653014D02*
X32112783Y-3653014D01*
X32112783Y-3653014D02*
X32041354Y-3688728D01*
X32362783Y-4117300D02*
X32291354Y-4153014D01*
X32291354Y-4153014D02*
X32112783Y-4153014D01*
X32112783Y-4153014D02*
X32041354Y-4117300D01*
X32041354Y-4117300D02*
X32005640Y-4045871D01*
X32005640Y-4045871D02*
X32005640Y-3974442D01*
X32005640Y-3974442D02*
X32041354Y-3903014D01*
X32041354Y-3903014D02*
X32112783Y-3867300D01*
X32112783Y-3867300D02*
X32291354Y-3867300D01*
X32291354Y-3867300D02*
X32362783Y-3831585D01*
X32719925Y-4153014D02*
X32719925Y-3653014D01*
X32719925Y-3795871D02*
X32755639Y-3724442D01*
X32755639Y-3724442D02*
X32791354Y-3688728D01*
X32791354Y-3688728D02*
X32862782Y-3653014D01*
X32862782Y-3653014D02*
X32934211Y-3653014D01*
X33505640Y-4153014D02*
X33505640Y-3403014D01*
X33505640Y-4117300D02*
X33434211Y-4153014D01*
X33434211Y-4153014D02*
X33291354Y-4153014D01*
X33291354Y-4153014D02*
X33219925Y-4117300D01*
X33219925Y-4117300D02*
X33184211Y-4081585D01*
X33184211Y-4081585D02*
X33148497Y-4010157D01*
X33148497Y-4010157D02*
X33148497Y-3795871D01*
X33148497Y-3795871D02*
X33184211Y-3724442D01*
X33184211Y-3724442D02*
X33219925Y-3688728D01*
X33219925Y-3688728D02*
X33291354Y-3653014D01*
X33291354Y-3653014D02*
X33434211Y-3653014D01*
X33434211Y-3653014D02*
X33505640Y-3688728D01*
X26648495Y-9695514D02*
X26827067Y-10195514D01*
X26827067Y-10195514D02*
X27005638Y-9695514D01*
X27684210Y-10195514D02*
X27255639Y-10195514D01*
X27469924Y-10195514D02*
X27469924Y-9445514D01*
X27469924Y-9445514D02*
X27398496Y-9552657D01*
X27398496Y-9552657D02*
X27327067Y-9624085D01*
X27327067Y-9624085D02*
X27255639Y-9659800D01*
X28005639Y-10124085D02*
X28041353Y-10159800D01*
X28041353Y-10159800D02*
X28005639Y-10195514D01*
X28005639Y-10195514D02*
X27969925Y-10159800D01*
X27969925Y-10159800D02*
X28005639Y-10124085D01*
X28005639Y-10124085D02*
X28005639Y-10195514D01*
X28505639Y-9445514D02*
X28577068Y-9445514D01*
X28577068Y-9445514D02*
X28648496Y-9481228D01*
X28648496Y-9481228D02*
X28684211Y-9516942D01*
X28684211Y-9516942D02*
X28719925Y-9588371D01*
X28719925Y-9588371D02*
X28755639Y-9731228D01*
X28755639Y-9731228D02*
X28755639Y-9909800D01*
X28755639Y-9909800D02*
X28719925Y-10052657D01*
X28719925Y-10052657D02*
X28684211Y-10124085D01*
X28684211Y-10124085D02*
X28648496Y-10159800D01*
X28648496Y-10159800D02*
X28577068Y-10195514D01*
X28577068Y-10195514D02*
X28505639Y-10195514D01*
X28505639Y-10195514D02*
X28434211Y-10159800D01*
X28434211Y-10159800D02*
X28398496Y-10124085D01*
X28398496Y-10124085D02*
X28362782Y-10052657D01*
X28362782Y-10052657D02*
X28327068Y-9909800D01*
X28327068Y-9909800D02*
X28327068Y-9731228D01*
X28327068Y-9731228D02*
X28362782Y-9588371D01*
X28362782Y-9588371D02*
X28398496Y-9516942D01*
X28398496Y-9516942D02*
X28434211Y-9481228D01*
X28434211Y-9481228D02*
X28505639Y-9445514D01*
X29791354Y-9445514D02*
X29934211Y-9445514D01*
X29934211Y-9445514D02*
X30005640Y-9481228D01*
X30005640Y-9481228D02*
X30077068Y-9552657D01*
X30077068Y-9552657D02*
X30112783Y-9695514D01*
X30112783Y-9695514D02*
X30112783Y-9945514D01*
X30112783Y-9945514D02*
X30077068Y-10088371D01*
X30077068Y-10088371D02*
X30005640Y-10159800D01*
X30005640Y-10159800D02*
X29934211Y-10195514D01*
X29934211Y-10195514D02*
X29791354Y-10195514D01*
X29791354Y-10195514D02*
X29719926Y-10159800D01*
X29719926Y-10159800D02*
X29648497Y-10088371D01*
X29648497Y-10088371D02*
X29612783Y-9945514D01*
X29612783Y-9945514D02*
X29612783Y-9695514D01*
X29612783Y-9695514D02*
X29648497Y-9552657D01*
X29648497Y-9552657D02*
X29719926Y-9481228D01*
X29719926Y-9481228D02*
X29791354Y-9445514D01*
X30755640Y-10159800D02*
X30684211Y-10195514D01*
X30684211Y-10195514D02*
X30541354Y-10195514D01*
X30541354Y-10195514D02*
X30469925Y-10159800D01*
X30469925Y-10159800D02*
X30434211Y-10124085D01*
X30434211Y-10124085D02*
X30398497Y-10052657D01*
X30398497Y-10052657D02*
X30398497Y-9838371D01*
X30398497Y-9838371D02*
X30434211Y-9766942D01*
X30434211Y-9766942D02*
X30469925Y-9731228D01*
X30469925Y-9731228D02*
X30541354Y-9695514D01*
X30541354Y-9695514D02*
X30684211Y-9695514D01*
X30684211Y-9695514D02*
X30755640Y-9731228D01*
X30969925Y-9695514D02*
X31255639Y-9695514D01*
X31077068Y-9445514D02*
X31077068Y-10088371D01*
X31077068Y-10088371D02*
X31112782Y-10159800D01*
X31112782Y-10159800D02*
X31184211Y-10195514D01*
X31184211Y-10195514D02*
X31255639Y-10195514D01*
X31505639Y-9909800D02*
X32077068Y-9909800D01*
X32398496Y-9516942D02*
X32434210Y-9481228D01*
X32434210Y-9481228D02*
X32505639Y-9445514D01*
X32505639Y-9445514D02*
X32684210Y-9445514D01*
X32684210Y-9445514D02*
X32755639Y-9481228D01*
X32755639Y-9481228D02*
X32791353Y-9516942D01*
X32791353Y-9516942D02*
X32827067Y-9588371D01*
X32827067Y-9588371D02*
X32827067Y-9659800D01*
X32827067Y-9659800D02*
X32791353Y-9766942D01*
X32791353Y-9766942D02*
X32362781Y-10195514D01*
X32362781Y-10195514D02*
X32827067Y-10195514D01*
X33077067Y-9445514D02*
X33541353Y-9445514D01*
X33541353Y-9445514D02*
X33291353Y-9731228D01*
X33291353Y-9731228D02*
X33398496Y-9731228D01*
X33398496Y-9731228D02*
X33469925Y-9766942D01*
X33469925Y-9766942D02*
X33505639Y-9802657D01*
X33505639Y-9802657D02*
X33541353Y-9874085D01*
X33541353Y-9874085D02*
X33541353Y-10052657D01*
X33541353Y-10052657D02*
X33505639Y-10124085D01*
X33505639Y-10124085D02*
X33469925Y-10159800D01*
X33469925Y-10159800D02*
X33398496Y-10195514D01*
X33398496Y-10195514D02*
X33184210Y-10195514D01*
X33184210Y-10195514D02*
X33112782Y-10159800D01*
X33112782Y-10159800D02*
X33077067Y-10124085D01*
X25398498Y-11688728D02*
X25362783Y-11653014D01*
X25362783Y-11653014D02*
X25291355Y-11545871D01*
X25291355Y-11545871D02*
X25255641Y-11474442D01*
X25255641Y-11474442D02*
X25219926Y-11367300D01*
X25219926Y-11367300D02*
X25184212Y-11188728D01*
X25184212Y-11188728D02*
X25184212Y-11045871D01*
X25184212Y-11045871D02*
X25219926Y-10867300D01*
X25219926Y-10867300D02*
X25255641Y-10760157D01*
X25255641Y-10760157D02*
X25291355Y-10688728D01*
X25291355Y-10688728D02*
X25362783Y-10581585D01*
X25362783Y-10581585D02*
X25398498Y-10545871D01*
X26005641Y-11367300D02*
X25934212Y-11403014D01*
X25934212Y-11403014D02*
X25791355Y-11403014D01*
X25791355Y-11403014D02*
X25719926Y-11367300D01*
X25719926Y-11367300D02*
X25684212Y-11331585D01*
X25684212Y-11331585D02*
X25648498Y-11260157D01*
X25648498Y-11260157D02*
X25648498Y-11045871D01*
X25648498Y-11045871D02*
X25684212Y-10974442D01*
X25684212Y-10974442D02*
X25719926Y-10938728D01*
X25719926Y-10938728D02*
X25791355Y-10903014D01*
X25791355Y-10903014D02*
X25934212Y-10903014D01*
X25934212Y-10903014D02*
X26005641Y-10938728D01*
X26255640Y-11688728D02*
X26291355Y-11653014D01*
X26291355Y-11653014D02*
X26362783Y-11545871D01*
X26362783Y-11545871D02*
X26398498Y-11474442D01*
X26398498Y-11474442D02*
X26434212Y-11367300D01*
X26434212Y-11367300D02*
X26469926Y-11188728D01*
X26469926Y-11188728D02*
X26469926Y-11045871D01*
X26469926Y-11045871D02*
X26434212Y-10867300D01*
X26434212Y-10867300D02*
X26398498Y-10760157D01*
X26398498Y-10760157D02*
X26362783Y-10688728D01*
X26362783Y-10688728D02*
X26291355Y-10581585D01*
X26291355Y-10581585D02*
X26255640Y-10545871D01*
X27684212Y-11367300D02*
X27612784Y-11403014D01*
X27612784Y-11403014D02*
X27469927Y-11403014D01*
X27469927Y-11403014D02*
X27398498Y-11367300D01*
X27398498Y-11367300D02*
X27362784Y-11295871D01*
X27362784Y-11295871D02*
X27362784Y-11010157D01*
X27362784Y-11010157D02*
X27398498Y-10938728D01*
X27398498Y-10938728D02*
X27469927Y-10903014D01*
X27469927Y-10903014D02*
X27612784Y-10903014D01*
X27612784Y-10903014D02*
X27684212Y-10938728D01*
X27684212Y-10938728D02*
X27719927Y-11010157D01*
X27719927Y-11010157D02*
X27719927Y-11081585D01*
X27719927Y-11081585D02*
X27362784Y-11153014D01*
X28362784Y-10903014D02*
X28362784Y-11510157D01*
X28362784Y-11510157D02*
X28327069Y-11581585D01*
X28327069Y-11581585D02*
X28291355Y-11617300D01*
X28291355Y-11617300D02*
X28219926Y-11653014D01*
X28219926Y-11653014D02*
X28112784Y-11653014D01*
X28112784Y-11653014D02*
X28041355Y-11617300D01*
X28362784Y-11367300D02*
X28291355Y-11403014D01*
X28291355Y-11403014D02*
X28148498Y-11403014D01*
X28148498Y-11403014D02*
X28077069Y-11367300D01*
X28077069Y-11367300D02*
X28041355Y-11331585D01*
X28041355Y-11331585D02*
X28005641Y-11260157D01*
X28005641Y-11260157D02*
X28005641Y-11045871D01*
X28005641Y-11045871D02*
X28041355Y-10974442D01*
X28041355Y-10974442D02*
X28077069Y-10938728D01*
X28077069Y-10938728D02*
X28148498Y-10903014D01*
X28148498Y-10903014D02*
X28291355Y-10903014D01*
X28291355Y-10903014D02*
X28362784Y-10938728D01*
X29041355Y-10903014D02*
X29041355Y-11510157D01*
X29041355Y-11510157D02*
X29005640Y-11581585D01*
X29005640Y-11581585D02*
X28969926Y-11617300D01*
X28969926Y-11617300D02*
X28898497Y-11653014D01*
X28898497Y-11653014D02*
X28791355Y-11653014D01*
X28791355Y-11653014D02*
X28719926Y-11617300D01*
X29041355Y-11367300D02*
X28969926Y-11403014D01*
X28969926Y-11403014D02*
X28827069Y-11403014D01*
X28827069Y-11403014D02*
X28755640Y-11367300D01*
X28755640Y-11367300D02*
X28719926Y-11331585D01*
X28719926Y-11331585D02*
X28684212Y-11260157D01*
X28684212Y-11260157D02*
X28684212Y-11045871D01*
X28684212Y-11045871D02*
X28719926Y-10974442D01*
X28719926Y-10974442D02*
X28755640Y-10938728D01*
X28755640Y-10938728D02*
X28827069Y-10903014D01*
X28827069Y-10903014D02*
X28969926Y-10903014D01*
X28969926Y-10903014D02*
X29041355Y-10938728D01*
X29362783Y-11367300D02*
X29434211Y-11403014D01*
X29434211Y-11403014D02*
X29577068Y-11403014D01*
X29577068Y-11403014D02*
X29648497Y-11367300D01*
X29648497Y-11367300D02*
X29684211Y-11295871D01*
X29684211Y-11295871D02*
X29684211Y-11260157D01*
X29684211Y-11260157D02*
X29648497Y-11188728D01*
X29648497Y-11188728D02*
X29577068Y-11153014D01*
X29577068Y-11153014D02*
X29469926Y-11153014D01*
X29469926Y-11153014D02*
X29398497Y-11117300D01*
X29398497Y-11117300D02*
X29362783Y-11045871D01*
X29362783Y-11045871D02*
X29362783Y-11010157D01*
X29362783Y-11010157D02*
X29398497Y-10938728D01*
X29398497Y-10938728D02*
X29469926Y-10903014D01*
X29469926Y-10903014D02*
X29577068Y-10903014D01*
X29577068Y-10903014D02*
X29648497Y-10938728D01*
X30327069Y-11403014D02*
X30327069Y-11010157D01*
X30327069Y-11010157D02*
X30291354Y-10938728D01*
X30291354Y-10938728D02*
X30219926Y-10903014D01*
X30219926Y-10903014D02*
X30077069Y-10903014D01*
X30077069Y-10903014D02*
X30005640Y-10938728D01*
X30327069Y-11367300D02*
X30255640Y-11403014D01*
X30255640Y-11403014D02*
X30077069Y-11403014D01*
X30077069Y-11403014D02*
X30005640Y-11367300D01*
X30005640Y-11367300D02*
X29969926Y-11295871D01*
X29969926Y-11295871D02*
X29969926Y-11224442D01*
X29969926Y-11224442D02*
X30005640Y-11153014D01*
X30005640Y-11153014D02*
X30077069Y-11117300D01*
X30077069Y-11117300D02*
X30255640Y-11117300D01*
X30255640Y-11117300D02*
X30327069Y-11081585D01*
X30684211Y-11403014D02*
X30684211Y-10903014D01*
X30684211Y-10974442D02*
X30719925Y-10938728D01*
X30719925Y-10938728D02*
X30791354Y-10903014D01*
X30791354Y-10903014D02*
X30898497Y-10903014D01*
X30898497Y-10903014D02*
X30969925Y-10938728D01*
X30969925Y-10938728D02*
X31005640Y-11010157D01*
X31005640Y-11010157D02*
X31005640Y-11403014D01*
X31005640Y-11010157D02*
X31041354Y-10938728D01*
X31041354Y-10938728D02*
X31112782Y-10903014D01*
X31112782Y-10903014D02*
X31219925Y-10903014D01*
X31219925Y-10903014D02*
X31291354Y-10938728D01*
X31291354Y-10938728D02*
X31327068Y-11010157D01*
X31327068Y-11010157D02*
X31327068Y-11403014D01*
X31684211Y-10903014D02*
X31684211Y-11653014D01*
X31684211Y-10938728D02*
X31755640Y-10903014D01*
X31755640Y-10903014D02*
X31898497Y-10903014D01*
X31898497Y-10903014D02*
X31969925Y-10938728D01*
X31969925Y-10938728D02*
X32005640Y-10974442D01*
X32005640Y-10974442D02*
X32041354Y-11045871D01*
X32041354Y-11045871D02*
X32041354Y-11260157D01*
X32041354Y-11260157D02*
X32005640Y-11331585D01*
X32005640Y-11331585D02*
X31969925Y-11367300D01*
X31969925Y-11367300D02*
X31898497Y-11403014D01*
X31898497Y-11403014D02*
X31755640Y-11403014D01*
X31755640Y-11403014D02*
X31684211Y-11367300D01*
X32469925Y-11403014D02*
X32398496Y-11367300D01*
X32398496Y-11367300D02*
X32362782Y-11295871D01*
X32362782Y-11295871D02*
X32362782Y-10653014D01*
X33041353Y-11367300D02*
X32969925Y-11403014D01*
X32969925Y-11403014D02*
X32827068Y-11403014D01*
X32827068Y-11403014D02*
X32755639Y-11367300D01*
X32755639Y-11367300D02*
X32719925Y-11295871D01*
X32719925Y-11295871D02*
X32719925Y-11010157D01*
X32719925Y-11010157D02*
X32755639Y-10938728D01*
X32755639Y-10938728D02*
X32827068Y-10903014D01*
X32827068Y-10903014D02*
X32969925Y-10903014D01*
X32969925Y-10903014D02*
X33041353Y-10938728D01*
X33041353Y-10938728D02*
X33077068Y-11010157D01*
X33077068Y-11010157D02*
X33077068Y-11081585D01*
X33077068Y-11081585D02*
X32719925Y-11153014D01*
X33398496Y-11403014D02*
X33398496Y-10903014D01*
X33398496Y-11045871D02*
X33434210Y-10974442D01*
X33434210Y-10974442D02*
X33469925Y-10938728D01*
X33469925Y-10938728D02*
X33541353Y-10903014D01*
X33541353Y-10903014D02*
X33612782Y-10903014D01*
D11*
%TO.C,C9*%
X6140580Y-9260000D02*
X5859420Y-9260000D01*
X6140580Y-8240000D02*
X5859420Y-8240000D01*
%TO.C,U3*%
X13860000Y-8110000D02*
X13385000Y-8110000D01*
X8640000Y-7635000D02*
X8640000Y-8110000D01*
X13860000Y-7635000D02*
X13860000Y-8110000D01*
X8640000Y-3365000D02*
X8640000Y-2890000D01*
X13860000Y-3365000D02*
X13860000Y-2890000D01*
X8640000Y-2890000D02*
X9115000Y-2890000D01*
X13860000Y-2890000D02*
X13385000Y-2890000D01*
%TO.C,Y1*%
X9575000Y-9875000D02*
X10925000Y-9875000D01*
X9575000Y-11625000D02*
X10925000Y-11625000D01*
%TO.C,C16*%
X11357836Y-910000D02*
X11142164Y-910000D01*
X11357836Y-190000D02*
X11142164Y-190000D01*
%TO.C,C13*%
X8607836Y-9460000D02*
X8392164Y-9460000D01*
X8607836Y-8740000D02*
X8392164Y-8740000D01*
%TO.C,C4*%
X16892164Y-8640000D02*
X17107836Y-8640000D01*
X16892164Y-9360000D02*
X17107836Y-9360000D01*
%TO.C,C8*%
X8110000Y-10642164D02*
X8110000Y-10857836D01*
X7390000Y-10642164D02*
X7390000Y-10857836D01*
%TO.C,U2*%
X15900000Y-11850000D02*
X15900000Y-11850000D01*
X17600000Y-11850000D02*
X17600000Y-11850000D01*
X18100000Y-11850000D02*
X17600000Y-11850000D01*
X15900000Y-11350000D02*
X15900000Y-11850000D01*
X18100000Y-11350000D02*
X18100000Y-11850000D01*
X15900000Y-10150000D02*
X15900000Y-9650000D01*
X18100000Y-10150000D02*
X18100000Y-10150000D01*
X15900000Y-9650000D02*
X16400000Y-9650000D01*
X16400000Y-9650000D02*
X16400000Y-9650000D01*
X17600000Y-9650000D02*
X18100000Y-9650000D01*
X18100000Y-9650000D02*
X18100000Y-10150000D01*
%TO.C,U1*%
X26360000Y-9860000D02*
X25935000Y-9860000D01*
X21140000Y-9435000D02*
X21140000Y-9860000D01*
X26360000Y-9435000D02*
X26360000Y-9860000D01*
X21140000Y-5065000D02*
X21140000Y-4640000D01*
X26360000Y-5065000D02*
X26360000Y-4640000D01*
X21140000Y-4640000D02*
X21565000Y-4640000D01*
X26360000Y-4640000D02*
X25935000Y-4640000D01*
%TO.C,C14*%
X15610000Y-1622164D02*
X15610000Y-1837836D01*
X14890000Y-1622164D02*
X14890000Y-1837836D01*
%TO.C,C6*%
X6107836Y-5360000D02*
X5892164Y-5360000D01*
X6107836Y-4640000D02*
X5892164Y-4640000D01*
%TO.C,C5*%
X16859420Y-7240000D02*
X17140580Y-7240000D01*
X16859420Y-8260000D02*
X17140580Y-8260000D01*
%TO.C,C15*%
X11857836Y-2110000D02*
X11642164Y-2110000D01*
X11857836Y-1390000D02*
X11642164Y-1390000D01*
%TO.C,Y2*%
X10150000Y-200000D02*
X8300000Y-200000D01*
X10150000Y-1650000D02*
X10150000Y-200000D01*
%TO.C,C12*%
X13110000Y-10642164D02*
X13110000Y-10857836D01*
X12390000Y-10642164D02*
X12390000Y-10857836D01*
%TO.C,L2*%
X5837221Y-6740000D02*
X6162779Y-6740000D01*
X5837221Y-7760000D02*
X6162779Y-7760000D01*
%TO.C,C17*%
X7860000Y-892164D02*
X7860000Y-1107836D01*
X7140000Y-892164D02*
X7140000Y-1107836D01*
%TO.C,AE1*%
X19022936Y-340000D02*
X20477064Y-340000D01*
X19022936Y-2160000D02*
X20477064Y-2160000D01*
%TO.C,C1*%
X29640000Y-6357836D02*
X29640000Y-6142164D01*
X30360000Y-6357836D02*
X30360000Y-6142164D01*
%TO.C,C3*%
X19640000Y-4357836D02*
X19640000Y-4142164D01*
X20360000Y-4357836D02*
X20360000Y-4142164D01*
%TO.C,C10*%
X7140000Y-3107836D02*
X7140000Y-2892164D01*
X7860000Y-3107836D02*
X7860000Y-2892164D01*
%TO.C,C11*%
X15360000Y-7892164D02*
X15360000Y-8107836D01*
X14640000Y-7892164D02*
X14640000Y-8107836D01*
%TO.C,C2*%
X20360000Y-9642164D02*
X20360000Y-9857836D01*
X19640000Y-9642164D02*
X19640000Y-9857836D01*
%TD*%
%LPC*%
D12*
%TO.C,C9*%
X6775000Y-8750000D03*
X5225000Y-8750000D03*
%TD*%
D13*
%TO.C,U3*%
X9500000Y-7950000D03*
X10000000Y-7950000D03*
X10500000Y-7950000D03*
X11000000Y-7950000D03*
X11500000Y-7950000D03*
X12000000Y-7950000D03*
X12500000Y-7950000D03*
X13000000Y-7950000D03*
D14*
X13700000Y-7250000D03*
X13700000Y-6750000D03*
X13700000Y-6250000D03*
X13700000Y-5750000D03*
X13700000Y-5250000D03*
X13700000Y-4750000D03*
X13700000Y-4250000D03*
X13700000Y-3750000D03*
D13*
X13000000Y-3050000D03*
X12500000Y-3050000D03*
X12000000Y-3050000D03*
X11500000Y-3050000D03*
X11000000Y-3050000D03*
X10500000Y-3050000D03*
X10000000Y-3050000D03*
X9500000Y-3050000D03*
D14*
X8800000Y-3750000D03*
X8800000Y-4250000D03*
X8800000Y-4750000D03*
X8800000Y-5250000D03*
X8800000Y-5750000D03*
X8800000Y-6250000D03*
X8800000Y-6750000D03*
X8800000Y-7250000D03*
D15*
X11250000Y-5500000D03*
%TD*%
D16*
%TO.C,Y1*%
X11500000Y-10750000D03*
X9000000Y-10750000D03*
%TD*%
D17*
%TO.C,L1*%
X6485000Y-6000000D03*
X5515000Y-6000000D03*
%TD*%
D18*
%TO.C,C16*%
X11730000Y-550000D03*
X10770000Y-550000D03*
%TD*%
%TO.C,C13*%
X8980000Y-9100000D03*
X8020000Y-9100000D03*
%TD*%
D19*
%TO.C,C4*%
X16520000Y-9000000D03*
X17480000Y-9000000D03*
%TD*%
D20*
%TO.C,C8*%
X7750000Y-10270000D03*
X7750000Y-11230000D03*
%TD*%
D21*
%TO.C,U2*%
X16250000Y-11512500D03*
X16750000Y-11512500D03*
X17250000Y-11512500D03*
X17750000Y-11512500D03*
D22*
X17762500Y-11000000D03*
X17762500Y-10500000D03*
D21*
X17750000Y-9987500D03*
X17250000Y-9987500D03*
X16750000Y-9987500D03*
X16250000Y-9987500D03*
D22*
X16237500Y-10500000D03*
X16237500Y-11000000D03*
%TD*%
D23*
%TO.C,U1*%
X21950000Y-9687500D03*
X22350000Y-9687500D03*
X22750000Y-9687500D03*
X23150000Y-9687500D03*
X23550000Y-9687500D03*
X23950000Y-9687500D03*
X24350000Y-9687500D03*
X24750000Y-9687500D03*
X25150000Y-9687500D03*
X25550000Y-9687500D03*
D24*
X26187500Y-9050000D03*
X26187500Y-8650000D03*
X26187500Y-8250000D03*
X26187500Y-7850000D03*
X26187500Y-7450000D03*
X26187500Y-7050000D03*
X26187500Y-6650000D03*
X26187500Y-6250000D03*
X26187500Y-5850000D03*
X26187500Y-5450000D03*
D23*
X25550000Y-4812500D03*
X25150000Y-4812500D03*
X24750000Y-4812500D03*
X24350000Y-4812500D03*
X23950000Y-4812500D03*
X23550000Y-4812500D03*
X23150000Y-4812500D03*
X22750000Y-4812500D03*
X22350000Y-4812500D03*
X21950000Y-4812500D03*
D24*
X21312500Y-5450000D03*
X21312500Y-5850000D03*
X21312500Y-6250000D03*
X21312500Y-6650000D03*
X21312500Y-7050000D03*
X21312500Y-7450000D03*
X21312500Y-7850000D03*
X21312500Y-8250000D03*
X21312500Y-8650000D03*
X21312500Y-9050000D03*
D15*
X23750000Y-7250000D03*
%TD*%
D20*
%TO.C,C14*%
X15250000Y-1250000D03*
X15250000Y-2210000D03*
%TD*%
D18*
%TO.C,C6*%
X6480000Y-5000000D03*
X5520000Y-5000000D03*
%TD*%
D25*
%TO.C,C5*%
X16225000Y-7750000D03*
X17775000Y-7750000D03*
%TD*%
D18*
%TO.C,C15*%
X12230000Y-1750000D03*
X11270000Y-1750000D03*
%TD*%
D26*
%TO.C,Y2*%
X9700000Y-600000D03*
X8600000Y-600000D03*
X8600000Y-1400000D03*
X9700000Y-1400000D03*
%TD*%
D20*
%TO.C,C12*%
X12750000Y-10270000D03*
X12750000Y-11230000D03*
%TD*%
D27*
%TO.C,L2*%
X5212500Y-7250000D03*
X6787500Y-7250000D03*
%TD*%
D20*
%TO.C,C17*%
X7500000Y-520000D03*
X7500000Y-1480000D03*
%TD*%
D28*
%TO.C,AE1*%
X18287500Y-1250000D03*
X21212500Y-1250000D03*
%TD*%
D17*
%TO.C,L3*%
X14235000Y-1250000D03*
X13265000Y-1250000D03*
%TD*%
D29*
%TO.C,C1*%
X30000000Y-6730000D03*
X30000000Y-5770000D03*
%TD*%
%TO.C,C3*%
X20000000Y-4730000D03*
X20000000Y-3770000D03*
%TD*%
%TO.C,C10*%
X7500000Y-3480000D03*
X7500000Y-2520000D03*
%TD*%
D20*
%TO.C,C11*%
X15000000Y-7520000D03*
X15000000Y-8480000D03*
%TD*%
%TO.C,C2*%
X20000000Y-9270000D03*
X20000000Y-10230000D03*
%TD*%
%LPD*%
M02*
