%TF.GenerationSoftware,KiCad,Pcbnew,7.0.8*%
%TF.CreationDate,2023-11-08T20:54:03+10:00*%
%TF.ProjectId,ControllerBoard,436f6e74-726f-46c6-9c65-72426f617264,rev?*%
%TF.SameCoordinates,Original*%
%TF.FileFunction,Copper,L2,Inr*%
%TF.FilePolarity,Positive*%
%FSLAX46Y46*%
G04 Gerber Fmt 4.6, Leading zero omitted, Abs format (unit mm)*
G04 Created by KiCad (PCBNEW 7.0.8) date 2023-11-08 20:54:03*
%MOMM*%
%LPD*%
G01*
G04 APERTURE LIST*
%TA.AperFunction,ViaPad*%
%ADD10C,0.450000*%
%TD*%
G04 APERTURE END LIST*
D10*
%TO.N,GND*%
X14225000Y-7250000D03*
X14225000Y-8750000D03*
X21750000Y-4750000D03*
X18500000Y-4500000D03*
X18750000Y-7750000D03*
X14197000Y-9988548D03*
X12750000Y-12500000D03*
X21250000Y-12500000D03*
X24500000Y-10500000D03*
X20250000Y-1500000D03*
X15500000Y-500000D03*
X17000000Y-2500000D03*
X10250000Y-500000D03*
X10250000Y-4000000D03*
X3000000Y-750000D03*
%TO.N,VCC*%
X1250000Y-5500000D03*
X2500000Y-2500000D03*
X1250000Y-3500000D03*
X15775000Y-8750000D03*
X15250000Y-2750000D03*
X1250000Y-4500000D03*
X25500000Y-9250000D03*
X8000000Y-2775000D03*
%TO.N,GND*%
X19000000Y-6750000D03*
X22750000Y-1500000D03*
X30000000Y-3750000D03*
X1250000Y-8500000D03*
X1250000Y-7500000D03*
X24000000Y-1500000D03*
X12500000Y-4000000D03*
X2500000Y-9500000D03*
X20500000Y-6750000D03*
X8000000Y-1225000D03*
X1250000Y-6500000D03*
X26750000Y-3750000D03*
X21800000Y-1650000D03*
X25250000Y-1500000D03*
X16750000Y-9000000D03*
X17500000Y-10000000D03*
%TO.N,/Microcontroller/DEC3*%
X19250000Y-2500000D03*
%TO.N,/Connectors/ROW0*%
X33250000Y-3750000D03*
%TO.N,/Connectors/COL9*%
X24750000Y-2500000D03*
%TO.N,/Connectors/ROW1*%
X32750000Y-4250000D03*
%TO.N,/Connectors/COL10*%
X24875000Y-3375000D03*
%TO.N,/Accelerometer/SDA*%
X12750000Y-2250000D03*
%TO.N,/Accelerometer/SCL*%
X12750000Y-3000000D03*
%TO.N,/Connectors/ROW2*%
X33250000Y-4750000D03*
%TO.N,/Connectors/COL0*%
X19250000Y-10250000D03*
%TO.N,/Connectors/ROW3*%
X32750000Y-5250000D03*
%TO.N,/Connectors/COL1*%
X19750000Y-10750000D03*
%TO.N,/Connectors/ROW4*%
X33250000Y-5750000D03*
%TO.N,/Connectors/COL2*%
X20250000Y-11250000D03*
%TO.N,/Connectors/ROW5*%
X32750000Y-6250000D03*
%TO.N,/Connectors/COL3*%
X21000000Y-11500000D03*
%TO.N,/Connectors/ROW6*%
X33250000Y-6750000D03*
%TO.N,/Connectors/COL4*%
X21250000Y-10750000D03*
%TO.N,/Connectors/ROW7*%
X32750000Y-7250000D03*
%TO.N,/Connectors/COL5*%
X21750000Y-11250000D03*
%TO.N,/Connectors/ROW8*%
X33250000Y-7750000D03*
%TO.N,/Connectors/COL6*%
X22250000Y-10750000D03*
%TO.N,/Connectors/ROW9*%
X32750000Y-8250000D03*
%TO.N,/Connectors/COL7*%
X22750000Y-10250000D03*
%TO.N,/Connectors/COL8*%
X23250000Y-9500000D03*
%TO.N,/Connectors/SWDCLK*%
X23250000Y-3500000D03*
%TO.N,/Connectors/SWDIO*%
X23750000Y-3000000D03*
%TO.N,/Accelerometer/INT1*%
X10750000Y-4750000D03*
X21220714Y-2308572D03*
%TO.N,/Connectors/LED0*%
X6750000Y-7250000D03*
%TO.N,/Connectors/LED1*%
X7250000Y-7750000D03*
%TO.N,/Connectors/LED2*%
X6750000Y-8250000D03*
%TO.N,/Connectors/LED3*%
X7250000Y-8750000D03*
%TO.N,/Connectors/BUTTON*%
X7250000Y-6750000D03*
%TO.N,/Microcontroller/RESET*%
X24250000Y-3750000D03*
X7750000Y-6250000D03*
%TD*%
%TA.AperFunction,Conductor*%
%TO.N,GND*%
G36*
X31684134Y-219407D02*
G01*
X31695947Y-229496D01*
X33770504Y-2304053D01*
X33798281Y-2358570D01*
X33799500Y-2374057D01*
X33799500Y-3478845D01*
X33780593Y-3537036D01*
X33731093Y-3573000D01*
X33669907Y-3573000D01*
X33620407Y-3537036D01*
X33612291Y-3523791D01*
X33608457Y-3516268D01*
X33598528Y-3496780D01*
X33503220Y-3401472D01*
X33503217Y-3401470D01*
X33383129Y-3340282D01*
X33383127Y-3340281D01*
X33250000Y-3319196D01*
X33116872Y-3340281D01*
X33116870Y-3340282D01*
X32996782Y-3401470D01*
X32901470Y-3496782D01*
X32840282Y-3616870D01*
X32840281Y-3616872D01*
X32820986Y-3738693D01*
X32793208Y-3793209D01*
X32738693Y-3820986D01*
X32616872Y-3840281D01*
X32616870Y-3840282D01*
X32496782Y-3901470D01*
X32401470Y-3996782D01*
X32340282Y-4116870D01*
X32340281Y-4116872D01*
X32319196Y-4249999D01*
X32319196Y-4250000D01*
X32340281Y-4383127D01*
X32340282Y-4383129D01*
X32399831Y-4500000D01*
X32401472Y-4503220D01*
X32496780Y-4598528D01*
X32532778Y-4616870D01*
X32620939Y-4661791D01*
X32664203Y-4705056D01*
X32673774Y-4765488D01*
X32645996Y-4820004D01*
X32620939Y-4838209D01*
X32496781Y-4901471D01*
X32401470Y-4996782D01*
X32340282Y-5116870D01*
X32340281Y-5116872D01*
X32319196Y-5249999D01*
X32319196Y-5250000D01*
X32340281Y-5383127D01*
X32340282Y-5383129D01*
X32399831Y-5500000D01*
X32401472Y-5503220D01*
X32496780Y-5598528D01*
X32532786Y-5616874D01*
X32620939Y-5661791D01*
X32664203Y-5705056D01*
X32673774Y-5765488D01*
X32645996Y-5820004D01*
X32620939Y-5838209D01*
X32496781Y-5901471D01*
X32401470Y-5996782D01*
X32340282Y-6116870D01*
X32340281Y-6116872D01*
X32319196Y-6249999D01*
X32319196Y-6250000D01*
X32340281Y-6383127D01*
X32340282Y-6383129D01*
X32401470Y-6503217D01*
X32401472Y-6503220D01*
X32496780Y-6598528D01*
X32532778Y-6616870D01*
X32620939Y-6661791D01*
X32664203Y-6705056D01*
X32673774Y-6765488D01*
X32645996Y-6820004D01*
X32620939Y-6838209D01*
X32496781Y-6901471D01*
X32401470Y-6996782D01*
X32340282Y-7116870D01*
X32340281Y-7116872D01*
X32319196Y-7249999D01*
X32319196Y-7250000D01*
X32340281Y-7383127D01*
X32340282Y-7383129D01*
X32401470Y-7503217D01*
X32401472Y-7503220D01*
X32496780Y-7598528D01*
X32532778Y-7616870D01*
X32620939Y-7661791D01*
X32664203Y-7705056D01*
X32673774Y-7765488D01*
X32645996Y-7820004D01*
X32620939Y-7838209D01*
X32496781Y-7901471D01*
X32401470Y-7996782D01*
X32340282Y-8116870D01*
X32340281Y-8116872D01*
X32319196Y-8249999D01*
X32319196Y-8250000D01*
X32340281Y-8383127D01*
X32340282Y-8383129D01*
X32401470Y-8503217D01*
X32401472Y-8503220D01*
X32496780Y-8598528D01*
X32616874Y-8659719D01*
X32750000Y-8680804D01*
X32883126Y-8659719D01*
X33003220Y-8598528D01*
X33098528Y-8503220D01*
X33159719Y-8383126D01*
X33179013Y-8261306D01*
X33206790Y-8206791D01*
X33261306Y-8179013D01*
X33383126Y-8159719D01*
X33503220Y-8098528D01*
X33598528Y-8003220D01*
X33612291Y-7976207D01*
X33655555Y-7932944D01*
X33715987Y-7923373D01*
X33770504Y-7951151D01*
X33798281Y-8005667D01*
X33799500Y-8021154D01*
X33799500Y-12700500D01*
X33780593Y-12758691D01*
X33731093Y-12794655D01*
X33700500Y-12799500D01*
X299500Y-12799500D01*
X241309Y-12780593D01*
X205345Y-12731093D01*
X200500Y-12700500D01*
X200500Y-10250000D01*
X18819196Y-10250000D01*
X18840281Y-10383127D01*
X18840282Y-10383129D01*
X18901470Y-10503217D01*
X18901472Y-10503220D01*
X18996780Y-10598528D01*
X19116874Y-10659719D01*
X19238007Y-10678904D01*
X19238692Y-10679013D01*
X19293209Y-10706790D01*
X19320986Y-10761306D01*
X19340281Y-10883127D01*
X19340282Y-10883129D01*
X19401470Y-11003217D01*
X19401472Y-11003220D01*
X19496780Y-11098528D01*
X19616874Y-11159719D01*
X19738007Y-11178904D01*
X19738692Y-11179013D01*
X19793209Y-11206790D01*
X19820986Y-11261306D01*
X19840281Y-11383127D01*
X19840282Y-11383129D01*
X19901470Y-11503217D01*
X19901472Y-11503220D01*
X19996780Y-11598528D01*
X20116874Y-11659719D01*
X20250000Y-11680804D01*
X20383126Y-11659719D01*
X20470132Y-11615386D01*
X20530563Y-11605815D01*
X20585080Y-11633592D01*
X20603286Y-11658651D01*
X20614574Y-11680804D01*
X20651472Y-11753220D01*
X20746780Y-11848528D01*
X20866874Y-11909719D01*
X21000000Y-11930804D01*
X21133126Y-11909719D01*
X21253220Y-11848528D01*
X21348528Y-11753220D01*
X21396714Y-11658648D01*
X21439977Y-11615387D01*
X21500409Y-11605815D01*
X21529866Y-11615386D01*
X21616874Y-11659719D01*
X21750000Y-11680804D01*
X21883126Y-11659719D01*
X22003220Y-11598528D01*
X22098528Y-11503220D01*
X22159719Y-11383126D01*
X22179013Y-11261306D01*
X22206790Y-11206791D01*
X22261306Y-11179013D01*
X22383126Y-11159719D01*
X22503220Y-11098528D01*
X22598528Y-11003220D01*
X22659719Y-10883126D01*
X22679013Y-10761306D01*
X22706790Y-10706791D01*
X22761306Y-10679013D01*
X22883126Y-10659719D01*
X23003220Y-10598528D01*
X23098528Y-10503220D01*
X23159719Y-10383126D01*
X23180804Y-10250000D01*
X23159719Y-10116874D01*
X23136872Y-10072035D01*
X23127301Y-10011605D01*
X23155078Y-9957088D01*
X23209594Y-9929310D01*
X23240567Y-9929310D01*
X23250000Y-9930804D01*
X23383126Y-9909719D01*
X23503220Y-9848528D01*
X23598528Y-9753220D01*
X23659719Y-9633126D01*
X23680804Y-9500000D01*
X23659719Y-9366874D01*
X23600169Y-9250000D01*
X25069196Y-9250000D01*
X25090281Y-9383127D01*
X25090282Y-9383129D01*
X25149831Y-9500000D01*
X25151472Y-9503220D01*
X25246780Y-9598528D01*
X25366874Y-9659719D01*
X25500000Y-9680804D01*
X25633126Y-9659719D01*
X25753220Y-9598528D01*
X25848528Y-9503220D01*
X25909719Y-9383126D01*
X25930804Y-9250000D01*
X25909719Y-9116874D01*
X25848528Y-8996780D01*
X25753220Y-8901472D01*
X25753217Y-8901470D01*
X25633129Y-8840282D01*
X25633127Y-8840281D01*
X25500000Y-8819196D01*
X25366872Y-8840281D01*
X25366870Y-8840282D01*
X25246782Y-8901470D01*
X25151470Y-8996782D01*
X25090282Y-9116870D01*
X25090281Y-9116872D01*
X25069196Y-9249999D01*
X25069196Y-9250000D01*
X23600169Y-9250000D01*
X23598528Y-9246780D01*
X23503220Y-9151472D01*
X23503217Y-9151470D01*
X23383129Y-9090282D01*
X23383127Y-9090281D01*
X23250000Y-9069196D01*
X23116872Y-9090281D01*
X23116870Y-9090282D01*
X22996782Y-9151470D01*
X22901470Y-9246782D01*
X22840282Y-9366870D01*
X22840281Y-9366872D01*
X22819196Y-9499999D01*
X22819196Y-9500000D01*
X22840281Y-9633127D01*
X22840282Y-9633129D01*
X22863126Y-9677963D01*
X22872698Y-9738395D01*
X22844921Y-9792911D01*
X22790404Y-9820689D01*
X22759433Y-9820690D01*
X22759426Y-9820689D01*
X22757755Y-9820424D01*
X22750000Y-9819196D01*
X22749999Y-9819196D01*
X22616872Y-9840281D01*
X22616870Y-9840282D01*
X22496782Y-9901470D01*
X22401470Y-9996782D01*
X22340282Y-10116870D01*
X22340281Y-10116872D01*
X22320986Y-10238693D01*
X22293208Y-10293209D01*
X22238693Y-10320986D01*
X22116872Y-10340281D01*
X22116870Y-10340282D01*
X21996782Y-10401470D01*
X21901471Y-10496781D01*
X21838209Y-10620939D01*
X21794944Y-10664203D01*
X21734512Y-10673774D01*
X21679996Y-10645996D01*
X21661791Y-10620939D01*
X21601809Y-10503220D01*
X21598528Y-10496780D01*
X21503220Y-10401472D01*
X21503217Y-10401470D01*
X21383129Y-10340282D01*
X21383127Y-10340281D01*
X21250000Y-10319196D01*
X21116872Y-10340281D01*
X21116870Y-10340282D01*
X20996782Y-10401470D01*
X20901470Y-10496782D01*
X20840282Y-10616870D01*
X20840281Y-10616872D01*
X20820987Y-10738692D01*
X20819196Y-10750000D01*
X20840281Y-10883126D01*
X20840282Y-10883127D01*
X20884613Y-10970132D01*
X20894184Y-11030564D01*
X20866407Y-11085081D01*
X20841348Y-11103287D01*
X20779867Y-11134613D01*
X20719435Y-11144184D01*
X20664918Y-11116406D01*
X20646714Y-11091351D01*
X20598528Y-10996780D01*
X20503220Y-10901472D01*
X20503217Y-10901470D01*
X20383129Y-10840282D01*
X20383127Y-10840281D01*
X20261306Y-10820986D01*
X20206790Y-10793208D01*
X20179013Y-10738692D01*
X20169844Y-10680804D01*
X20159719Y-10616874D01*
X20098528Y-10496780D01*
X20003220Y-10401472D01*
X20003217Y-10401470D01*
X19883129Y-10340282D01*
X19883127Y-10340281D01*
X19761306Y-10320986D01*
X19706790Y-10293208D01*
X19679013Y-10238692D01*
X19678904Y-10238007D01*
X19659719Y-10116874D01*
X19598528Y-9996780D01*
X19503220Y-9901472D01*
X19503217Y-9901470D01*
X19383129Y-9840282D01*
X19383127Y-9840281D01*
X19250000Y-9819196D01*
X19116872Y-9840281D01*
X19116870Y-9840282D01*
X18996782Y-9901470D01*
X18901470Y-9996782D01*
X18840282Y-10116870D01*
X18840281Y-10116872D01*
X18819196Y-10249999D01*
X18819196Y-10250000D01*
X200500Y-10250000D01*
X200500Y-8250000D01*
X6319196Y-8250000D01*
X6340281Y-8383127D01*
X6340282Y-8383129D01*
X6401470Y-8503217D01*
X6401472Y-8503220D01*
X6496780Y-8598528D01*
X6616874Y-8659719D01*
X6738007Y-8678904D01*
X6738692Y-8679013D01*
X6793209Y-8706790D01*
X6820986Y-8761306D01*
X6840281Y-8883127D01*
X6840282Y-8883129D01*
X6901470Y-9003217D01*
X6901472Y-9003220D01*
X6996780Y-9098528D01*
X7116874Y-9159719D01*
X7250000Y-9180804D01*
X7383126Y-9159719D01*
X7503220Y-9098528D01*
X7598528Y-9003220D01*
X7659719Y-8883126D01*
X7680804Y-8750000D01*
X15344196Y-8750000D01*
X15365281Y-8883127D01*
X15365282Y-8883129D01*
X15426470Y-9003217D01*
X15426472Y-9003220D01*
X15521780Y-9098528D01*
X15641874Y-9159719D01*
X15775000Y-9180804D01*
X15908126Y-9159719D01*
X16028220Y-9098528D01*
X16123528Y-9003220D01*
X16184719Y-8883126D01*
X16205804Y-8750000D01*
X16184719Y-8616874D01*
X16123528Y-8496780D01*
X16028220Y-8401472D01*
X16028217Y-8401470D01*
X15908129Y-8340282D01*
X15908127Y-8340281D01*
X15775000Y-8319196D01*
X15641872Y-8340281D01*
X15641870Y-8340282D01*
X15521782Y-8401470D01*
X15426470Y-8496782D01*
X15365282Y-8616870D01*
X15365281Y-8616872D01*
X15344196Y-8749999D01*
X15344196Y-8750000D01*
X7680804Y-8750000D01*
X7659719Y-8616874D01*
X7598528Y-8496780D01*
X7503220Y-8401472D01*
X7503217Y-8401470D01*
X7379061Y-8338209D01*
X7335796Y-8294945D01*
X7326225Y-8234513D01*
X7354003Y-8179996D01*
X7379061Y-8161791D01*
X7467222Y-8116870D01*
X7503220Y-8098528D01*
X7598528Y-8003220D01*
X7659719Y-7883126D01*
X7680804Y-7750000D01*
X7659719Y-7616874D01*
X7598528Y-7496780D01*
X7503220Y-7401472D01*
X7503217Y-7401470D01*
X7379061Y-7338209D01*
X7335796Y-7294945D01*
X7326225Y-7234513D01*
X7354003Y-7179996D01*
X7379061Y-7161791D01*
X7467222Y-7116870D01*
X7503220Y-7098528D01*
X7598528Y-7003220D01*
X7659719Y-6883126D01*
X7679013Y-6761306D01*
X7706790Y-6706791D01*
X7761306Y-6679013D01*
X7883126Y-6659719D01*
X8003220Y-6598528D01*
X8098528Y-6503220D01*
X8159719Y-6383126D01*
X8180804Y-6250000D01*
X8159719Y-6116874D01*
X8098528Y-5996780D01*
X8003220Y-5901472D01*
X8003217Y-5901470D01*
X7883129Y-5840282D01*
X7883127Y-5840281D01*
X7750000Y-5819196D01*
X7616872Y-5840281D01*
X7616870Y-5840282D01*
X7496782Y-5901470D01*
X7401470Y-5996782D01*
X7340282Y-6116870D01*
X7340281Y-6116872D01*
X7320986Y-6238693D01*
X7293208Y-6293209D01*
X7238693Y-6320986D01*
X7116872Y-6340281D01*
X7116870Y-6340282D01*
X6996782Y-6401470D01*
X6901470Y-6496782D01*
X6840282Y-6616870D01*
X6840281Y-6616872D01*
X6820986Y-6738693D01*
X6793208Y-6793209D01*
X6738693Y-6820986D01*
X6616872Y-6840281D01*
X6616870Y-6840282D01*
X6496782Y-6901470D01*
X6401470Y-6996782D01*
X6340282Y-7116870D01*
X6340281Y-7116872D01*
X6319196Y-7249999D01*
X6319196Y-7250000D01*
X6340281Y-7383127D01*
X6340282Y-7383129D01*
X6401470Y-7503217D01*
X6401472Y-7503220D01*
X6496780Y-7598528D01*
X6532778Y-7616870D01*
X6620939Y-7661791D01*
X6664203Y-7705056D01*
X6673774Y-7765488D01*
X6645996Y-7820004D01*
X6620939Y-7838209D01*
X6496781Y-7901471D01*
X6401470Y-7996782D01*
X6340282Y-8116870D01*
X6340281Y-8116872D01*
X6319196Y-8249999D01*
X6319196Y-8250000D01*
X200500Y-8250000D01*
X200500Y-5500000D01*
X819196Y-5500000D01*
X840281Y-5633127D01*
X840282Y-5633129D01*
X857939Y-5667782D01*
X901472Y-5753220D01*
X996780Y-5848528D01*
X1116874Y-5909719D01*
X1250000Y-5930804D01*
X1383126Y-5909719D01*
X1503220Y-5848528D01*
X1598528Y-5753220D01*
X1659719Y-5633126D01*
X1680804Y-5500000D01*
X1659719Y-5366874D01*
X1598528Y-5246780D01*
X1503220Y-5151472D01*
X1503217Y-5151470D01*
X1379061Y-5088209D01*
X1335796Y-5044945D01*
X1326225Y-4984513D01*
X1354003Y-4929996D01*
X1379061Y-4911791D01*
X1452963Y-4874134D01*
X1503220Y-4848528D01*
X1598528Y-4753220D01*
X1600169Y-4750000D01*
X10319196Y-4750000D01*
X10340281Y-4883127D01*
X10340282Y-4883129D01*
X10401470Y-5003217D01*
X10401472Y-5003220D01*
X10496780Y-5098528D01*
X10616874Y-5159719D01*
X10750000Y-5180804D01*
X10883126Y-5159719D01*
X11003220Y-5098528D01*
X11098528Y-5003220D01*
X11159719Y-4883126D01*
X11180804Y-4750000D01*
X11159719Y-4616874D01*
X11098528Y-4496780D01*
X11003220Y-4401472D01*
X11003217Y-4401470D01*
X10883129Y-4340282D01*
X10883127Y-4340281D01*
X10750000Y-4319196D01*
X10616872Y-4340281D01*
X10616870Y-4340282D01*
X10496782Y-4401470D01*
X10401470Y-4496782D01*
X10340282Y-4616870D01*
X10340281Y-4616872D01*
X10319196Y-4749999D01*
X10319196Y-4750000D01*
X1600169Y-4750000D01*
X1659719Y-4633126D01*
X1680804Y-4500000D01*
X1659719Y-4366874D01*
X1598528Y-4246780D01*
X1503220Y-4151472D01*
X1503217Y-4151470D01*
X1379061Y-4088209D01*
X1335796Y-4044945D01*
X1326225Y-3984513D01*
X1354003Y-3929996D01*
X1379061Y-3911791D01*
X1456724Y-3872219D01*
X1503220Y-3848528D01*
X1598528Y-3753220D01*
X1659719Y-3633126D01*
X1680804Y-3500000D01*
X22819196Y-3500000D01*
X22840281Y-3633127D01*
X22840282Y-3633129D01*
X22899831Y-3750000D01*
X22901472Y-3753220D01*
X22996780Y-3848528D01*
X23116874Y-3909719D01*
X23250000Y-3930804D01*
X23383126Y-3909719D01*
X23503220Y-3848528D01*
X23598528Y-3753220D01*
X23634219Y-3683171D01*
X23677482Y-3639910D01*
X23737914Y-3630338D01*
X23792430Y-3658115D01*
X23820208Y-3712632D01*
X23820209Y-3743602D01*
X23819196Y-3749999D01*
X23819196Y-3750000D01*
X23840281Y-3883127D01*
X23840282Y-3883129D01*
X23901470Y-4003217D01*
X23901472Y-4003220D01*
X23996780Y-4098528D01*
X24116874Y-4159719D01*
X24250000Y-4180804D01*
X24383126Y-4159719D01*
X24503220Y-4098528D01*
X24598528Y-4003220D01*
X24659719Y-3883126D01*
X24661447Y-3872214D01*
X24689220Y-3817701D01*
X24743735Y-3789921D01*
X24774711Y-3789920D01*
X24875000Y-3805804D01*
X25008126Y-3784719D01*
X25128220Y-3723528D01*
X25223528Y-3628220D01*
X25284719Y-3508126D01*
X25305804Y-3375000D01*
X25284719Y-3241874D01*
X25223528Y-3121780D01*
X25128220Y-3026472D01*
X25048939Y-2986076D01*
X25005676Y-2942813D01*
X24996105Y-2882381D01*
X25023881Y-2827866D01*
X25098528Y-2753220D01*
X25159719Y-2633126D01*
X25180804Y-2500000D01*
X25159719Y-2366874D01*
X25098528Y-2246780D01*
X25003220Y-2151472D01*
X25003217Y-2151470D01*
X24883129Y-2090282D01*
X24883127Y-2090281D01*
X24750000Y-2069196D01*
X24616872Y-2090281D01*
X24616870Y-2090282D01*
X24496782Y-2151470D01*
X24401470Y-2246782D01*
X24340282Y-2366870D01*
X24340281Y-2366872D01*
X24319196Y-2499999D01*
X24319196Y-2500000D01*
X24340281Y-2633127D01*
X24340282Y-2633129D01*
X24399831Y-2750000D01*
X24401472Y-2753220D01*
X24496780Y-2848528D01*
X24576060Y-2888923D01*
X24619323Y-2932186D01*
X24628894Y-2992618D01*
X24601117Y-3047134D01*
X24526473Y-3121778D01*
X24526470Y-3121782D01*
X24465282Y-3241870D01*
X24465280Y-3241876D01*
X24463551Y-3252790D01*
X24435771Y-3307305D01*
X24381253Y-3335080D01*
X24350284Y-3335079D01*
X24250001Y-3319196D01*
X24250000Y-3319196D01*
X24240565Y-3320690D01*
X24180134Y-3311116D01*
X24136871Y-3267850D01*
X24127301Y-3207417D01*
X24136870Y-3177968D01*
X24159719Y-3133126D01*
X24180804Y-3000000D01*
X24159719Y-2866874D01*
X24098528Y-2746780D01*
X24003220Y-2651472D01*
X24003217Y-2651470D01*
X23883129Y-2590282D01*
X23883127Y-2590281D01*
X23750000Y-2569196D01*
X23616872Y-2590281D01*
X23616870Y-2590282D01*
X23496782Y-2651470D01*
X23401470Y-2746782D01*
X23340282Y-2866870D01*
X23340281Y-2866872D01*
X23320986Y-2988693D01*
X23293208Y-3043209D01*
X23238693Y-3070986D01*
X23116872Y-3090281D01*
X23116870Y-3090282D01*
X22996782Y-3151470D01*
X22901470Y-3246782D01*
X22840282Y-3366870D01*
X22840281Y-3366872D01*
X22819196Y-3499999D01*
X22819196Y-3500000D01*
X1680804Y-3500000D01*
X1659719Y-3366874D01*
X1598528Y-3246780D01*
X1503220Y-3151472D01*
X1503217Y-3151470D01*
X1383129Y-3090282D01*
X1383127Y-3090281D01*
X1250000Y-3069196D01*
X1116872Y-3090281D01*
X1116870Y-3090282D01*
X996782Y-3151470D01*
X901470Y-3246782D01*
X840282Y-3366870D01*
X840281Y-3366872D01*
X819196Y-3499999D01*
X819196Y-3500000D01*
X840281Y-3633127D01*
X840282Y-3633129D01*
X899831Y-3750000D01*
X901472Y-3753220D01*
X996780Y-3848528D01*
X1043276Y-3872219D01*
X1120939Y-3911791D01*
X1164203Y-3955056D01*
X1173774Y-4015488D01*
X1145996Y-4070004D01*
X1120939Y-4088209D01*
X996781Y-4151471D01*
X901470Y-4246782D01*
X840282Y-4366870D01*
X840281Y-4366872D01*
X819196Y-4499999D01*
X819196Y-4500000D01*
X840281Y-4633127D01*
X840282Y-4633129D01*
X899831Y-4750000D01*
X901472Y-4753220D01*
X996780Y-4848528D01*
X1045940Y-4873576D01*
X1120939Y-4911791D01*
X1164203Y-4955056D01*
X1173774Y-5015488D01*
X1145996Y-5070004D01*
X1120939Y-5088209D01*
X996781Y-5151471D01*
X901470Y-5246782D01*
X840282Y-5366870D01*
X840281Y-5366872D01*
X819196Y-5499999D01*
X819196Y-5500000D01*
X200500Y-5500000D01*
X200500Y-2500000D01*
X2069196Y-2500000D01*
X2090281Y-2633127D01*
X2090282Y-2633129D01*
X2149831Y-2750000D01*
X2151472Y-2753220D01*
X2246780Y-2848528D01*
X2246782Y-2848529D01*
X2363749Y-2908127D01*
X2366874Y-2909719D01*
X2500000Y-2930804D01*
X2633126Y-2909719D01*
X2753220Y-2848528D01*
X2826748Y-2775000D01*
X7569196Y-2775000D01*
X7590281Y-2908127D01*
X7590282Y-2908129D01*
X7650581Y-3026472D01*
X7651472Y-3028220D01*
X7746780Y-3123528D01*
X7866874Y-3184719D01*
X8000000Y-3205804D01*
X8133126Y-3184719D01*
X8253220Y-3123528D01*
X8348528Y-3028220D01*
X8362907Y-3000000D01*
X12319196Y-3000000D01*
X12340281Y-3133127D01*
X12340282Y-3133129D01*
X12401470Y-3253217D01*
X12401472Y-3253220D01*
X12496780Y-3348528D01*
X12616874Y-3409719D01*
X12750000Y-3430804D01*
X12883126Y-3409719D01*
X13003220Y-3348528D01*
X13098528Y-3253220D01*
X13159719Y-3133126D01*
X13180804Y-3000000D01*
X13159719Y-2866874D01*
X13100169Y-2750000D01*
X14819196Y-2750000D01*
X14840281Y-2883127D01*
X14840282Y-2883129D01*
X14899831Y-3000000D01*
X14901472Y-3003220D01*
X14996780Y-3098528D01*
X15116874Y-3159719D01*
X15250000Y-3180804D01*
X15383126Y-3159719D01*
X15503220Y-3098528D01*
X15598528Y-3003220D01*
X15659719Y-2883126D01*
X15680804Y-2750000D01*
X15659719Y-2616874D01*
X15600169Y-2500000D01*
X18819196Y-2500000D01*
X18840281Y-2633127D01*
X18840282Y-2633129D01*
X18899831Y-2750000D01*
X18901472Y-2753220D01*
X18996780Y-2848528D01*
X18996782Y-2848529D01*
X19113749Y-2908127D01*
X19116874Y-2909719D01*
X19250000Y-2930804D01*
X19383126Y-2909719D01*
X19503220Y-2848528D01*
X19598528Y-2753220D01*
X19659719Y-2633126D01*
X19680804Y-2500000D01*
X19659719Y-2366874D01*
X19630013Y-2308572D01*
X20789910Y-2308572D01*
X20810995Y-2441699D01*
X20810996Y-2441701D01*
X20868723Y-2554996D01*
X20872186Y-2561792D01*
X20967494Y-2657100D01*
X21087588Y-2718291D01*
X21220714Y-2739376D01*
X21353840Y-2718291D01*
X21473934Y-2657100D01*
X21569242Y-2561792D01*
X21630433Y-2441698D01*
X21651518Y-2308572D01*
X21630433Y-2175446D01*
X21569242Y-2055352D01*
X21473934Y-1960044D01*
X21473931Y-1960042D01*
X21353843Y-1898854D01*
X21353841Y-1898853D01*
X21220714Y-1877768D01*
X21087586Y-1898853D01*
X21087584Y-1898854D01*
X20967496Y-1960042D01*
X20872184Y-2055354D01*
X20810996Y-2175442D01*
X20810995Y-2175444D01*
X20789910Y-2308571D01*
X20789910Y-2308572D01*
X19630013Y-2308572D01*
X19598528Y-2246780D01*
X19503220Y-2151472D01*
X19503217Y-2151470D01*
X19383129Y-2090282D01*
X19383127Y-2090281D01*
X19250000Y-2069196D01*
X19116872Y-2090281D01*
X19116870Y-2090282D01*
X18996782Y-2151470D01*
X18901470Y-2246782D01*
X18840282Y-2366870D01*
X18840281Y-2366872D01*
X18819196Y-2499999D01*
X18819196Y-2500000D01*
X15600169Y-2500000D01*
X15598528Y-2496780D01*
X15503220Y-2401472D01*
X15503217Y-2401470D01*
X15383129Y-2340282D01*
X15383127Y-2340281D01*
X15250000Y-2319196D01*
X15116872Y-2340281D01*
X15116870Y-2340282D01*
X14996782Y-2401470D01*
X14901470Y-2496782D01*
X14840282Y-2616870D01*
X14840281Y-2616872D01*
X14819196Y-2749999D01*
X14819196Y-2750000D01*
X13100169Y-2750000D01*
X13098528Y-2746780D01*
X13046749Y-2695001D01*
X13018974Y-2640487D01*
X13028545Y-2580055D01*
X13046748Y-2554999D01*
X13098528Y-2503220D01*
X13159719Y-2383126D01*
X13180804Y-2250000D01*
X13179020Y-2238739D01*
X13168996Y-2175446D01*
X13159719Y-2116874D01*
X13159369Y-2116188D01*
X13098529Y-1996782D01*
X13098528Y-1996780D01*
X13003220Y-1901472D01*
X13003217Y-1901470D01*
X12883129Y-1840282D01*
X12883127Y-1840281D01*
X12750000Y-1819196D01*
X12616872Y-1840281D01*
X12616870Y-1840282D01*
X12496782Y-1901470D01*
X12401470Y-1996782D01*
X12340282Y-2116870D01*
X12340281Y-2116872D01*
X12319196Y-2249999D01*
X12319196Y-2250000D01*
X12340281Y-2383127D01*
X12340282Y-2383129D01*
X12399831Y-2500000D01*
X12401472Y-2503220D01*
X12453250Y-2554998D01*
X12481026Y-2609513D01*
X12471455Y-2669945D01*
X12453251Y-2695000D01*
X12408876Y-2739376D01*
X12401470Y-2746782D01*
X12340282Y-2866870D01*
X12340281Y-2866872D01*
X12319196Y-2999999D01*
X12319196Y-3000000D01*
X8362907Y-3000000D01*
X8409719Y-2908126D01*
X8430804Y-2775000D01*
X8409719Y-2641874D01*
X8348528Y-2521780D01*
X8253220Y-2426472D01*
X8253217Y-2426470D01*
X8133129Y-2365282D01*
X8133127Y-2365281D01*
X8000000Y-2344196D01*
X7866872Y-2365281D01*
X7866870Y-2365282D01*
X7746782Y-2426470D01*
X7651470Y-2521782D01*
X7590282Y-2641870D01*
X7590281Y-2641872D01*
X7569196Y-2774999D01*
X7569196Y-2775000D01*
X2826748Y-2775000D01*
X2848528Y-2753220D01*
X2909719Y-2633126D01*
X2930804Y-2500000D01*
X2909719Y-2366874D01*
X2848528Y-2246780D01*
X2753220Y-2151472D01*
X2753217Y-2151470D01*
X2633129Y-2090282D01*
X2633127Y-2090281D01*
X2500000Y-2069196D01*
X2366872Y-2090281D01*
X2366870Y-2090282D01*
X2246782Y-2151470D01*
X2151470Y-2246782D01*
X2090282Y-2366870D01*
X2090281Y-2366872D01*
X2069196Y-2499999D01*
X2069196Y-2500000D01*
X200500Y-2500000D01*
X200500Y-2374057D01*
X219407Y-2315866D01*
X229496Y-2304053D01*
X2304054Y-229496D01*
X2358571Y-201719D01*
X2374058Y-200500D01*
X31625943Y-200500D01*
X31684134Y-219407D01*
G37*
%TD.AperFunction*%
%TD*%
M02*
