%TF.GenerationSoftware,KiCad,Pcbnew,7.0.8*%
%TF.CreationDate,2023-11-08T19:53:20+10:00*%
%TF.ProjectId,ControllerBoard,436f6e74-726f-46c6-9c65-72426f617264,rev?*%
%TF.SameCoordinates,Original*%
%TF.FileFunction,Copper,L4,Bot*%
%TF.FilePolarity,Positive*%
%FSLAX46Y46*%
G04 Gerber Fmt 4.6, Leading zero omitted, Abs format (unit mm)*
G04 Created by KiCad (PCBNEW 7.0.8) date 2023-11-08 19:53:20*
%MOMM*%
%LPD*%
G01*
G04 APERTURE LIST*
G04 Aperture macros list*
%AMRoundRect*
0 Rectangle with rounded corners*
0 $1 Rounding radius*
0 $2 $3 $4 $5 $6 $7 $8 $9 X,Y pos of 4 corners*
0 Add a 4 corners polygon primitive as box body*
4,1,4,$2,$3,$4,$5,$6,$7,$8,$9,$2,$3,0*
0 Add four circle primitives for the rounded corners*
1,1,$1+$1,$2,$3*
1,1,$1+$1,$4,$5*
1,1,$1+$1,$6,$7*
1,1,$1+$1,$8,$9*
0 Add four rect primitives between the rounded corners*
20,1,$1+$1,$2,$3,$4,$5,0*
20,1,$1+$1,$4,$5,$6,$7,0*
20,1,$1+$1,$6,$7,$8,$9,0*
20,1,$1+$1,$8,$9,$2,$3,0*%
G04 Aperture macros list end*
%TA.AperFunction,SMDPad,CuDef*%
%ADD10RoundRect,0.062500X0.612500X0.062500X-0.612500X0.062500X-0.612500X-0.062500X0.612500X-0.062500X0*%
%TD*%
%TA.AperFunction,SMDPad,CuDef*%
%ADD11RoundRect,0.140000X-0.170000X0.140000X-0.170000X-0.140000X0.170000X-0.140000X0.170000X0.140000X0*%
%TD*%
%TA.AperFunction,SMDPad,CuDef*%
%ADD12RoundRect,0.135000X-0.135000X-0.185000X0.135000X-0.185000X0.135000X0.185000X-0.135000X0.185000X0*%
%TD*%
%TA.AperFunction,SMDPad,CuDef*%
%ADD13RoundRect,0.135000X0.135000X0.185000X-0.135000X0.185000X-0.135000X-0.185000X0.135000X-0.185000X0*%
%TD*%
%TA.AperFunction,ViaPad*%
%ADD14C,0.450000*%
%TD*%
%TA.AperFunction,Conductor*%
%ADD15C,0.125000*%
%TD*%
G04 APERTURE END LIST*
D10*
%TO.P,J2,1,Pin_1*%
%TO.N,/Accelerometer/SDA*%
X5475000Y-3250000D03*
%TO.P,J2,2,Pin_2*%
%TO.N,VCC*%
X2525000Y-3250000D03*
%TO.P,J2,3,Pin_3*%
%TO.N,/Accelerometer/SCL*%
X5475000Y-3750000D03*
%TO.P,J2,4,Pin_4*%
%TO.N,VCC*%
X2525000Y-3750000D03*
%TO.P,J2,5,Pin_5*%
%TO.N,GND*%
X5475000Y-4250000D03*
%TO.P,J2,6,Pin_6*%
%TO.N,VCC*%
X2525000Y-4250000D03*
%TO.P,J2,7,Pin_7*%
%TO.N,/Accelerometer/INT1*%
X5475000Y-4750000D03*
%TO.P,J2,8,Pin_8*%
%TO.N,VCC*%
X2525000Y-4750000D03*
%TO.P,J2,9,Pin_9*%
%TO.N,/Connectors/SWDIO*%
X5475000Y-5250000D03*
%TO.P,J2,10,Pin_10*%
%TO.N,VCC*%
X2525000Y-5250000D03*
%TO.P,J2,11,Pin_11*%
%TO.N,/Connectors/SWDCLK*%
X5475000Y-5750000D03*
%TO.P,J2,12,Pin_12*%
%TO.N,VCC*%
X2525000Y-5750000D03*
%TO.P,J2,13,Pin_13*%
%TO.N,/Microcontroller/RESET*%
X5475000Y-6250000D03*
%TO.P,J2,14,Pin_14*%
%TO.N,GND*%
X2525000Y-6250000D03*
%TO.P,J2,15,Pin_15*%
%TO.N,/Connectors/BUTTON*%
X5475000Y-6750000D03*
%TO.P,J2,16,Pin_16*%
%TO.N,GND*%
X2525000Y-6750000D03*
%TO.P,J2,17,Pin_17*%
%TO.N,/Connectors/LED0*%
X5475000Y-7250000D03*
%TO.P,J2,18,Pin_18*%
%TO.N,GND*%
X2525000Y-7250000D03*
%TO.P,J2,19,Pin_19*%
%TO.N,/Connectors/LED1*%
X5475000Y-7750000D03*
%TO.P,J2,20,Pin_20*%
%TO.N,GND*%
X2525000Y-7750000D03*
%TO.P,J2,21,Pin_21*%
%TO.N,/Connectors/LED2*%
X5475000Y-8250000D03*
%TO.P,J2,22,Pin_22*%
%TO.N,GND*%
X2525000Y-8250000D03*
%TO.P,J2,23,Pin_23*%
%TO.N,/Connectors/LED3*%
X5475000Y-8750000D03*
%TO.P,J2,24,Pin_24*%
%TO.N,GND*%
X2525000Y-8750000D03*
%TD*%
D11*
%TO.P,C11,1*%
%TO.N,/Microcontroller/DEC3*%
X19250000Y-3020000D03*
%TO.P,C11,2*%
%TO.N,GND*%
X19250000Y-3980000D03*
%TD*%
D12*
%TO.P,R1,1*%
%TO.N,/Accelerometer/SDA*%
X12740000Y-1500000D03*
%TO.P,R1,2*%
%TO.N,VCC*%
X13760000Y-1500000D03*
%TD*%
D10*
%TO.P,J1,1,Pin_1*%
%TO.N,GND*%
X31475000Y-3250000D03*
%TO.P,J1,2,Pin_2*%
X28525000Y-3250000D03*
%TO.P,J1,3,Pin_3*%
%TO.N,/Connectors/ROW0*%
X31475000Y-3750000D03*
%TO.P,J1,4,Pin_4*%
%TO.N,/Connectors/COL9*%
X28525000Y-3750000D03*
%TO.P,J1,5,Pin_5*%
%TO.N,/Connectors/ROW1*%
X31475000Y-4250000D03*
%TO.P,J1,6,Pin_6*%
%TO.N,/Connectors/COL10*%
X28525000Y-4250000D03*
%TO.P,J1,7,Pin_7*%
%TO.N,/Connectors/ROW2*%
X31475000Y-4750000D03*
%TO.P,J1,8,Pin_8*%
%TO.N,/Connectors/COL0*%
X28525000Y-4750000D03*
%TO.P,J1,9,Pin_9*%
%TO.N,/Connectors/ROW3*%
X31475000Y-5250000D03*
%TO.P,J1,10,Pin_10*%
%TO.N,/Connectors/COL1*%
X28525000Y-5250000D03*
%TO.P,J1,11,Pin_11*%
%TO.N,/Connectors/ROW4*%
X31475000Y-5750000D03*
%TO.P,J1,12,Pin_12*%
%TO.N,/Connectors/COL2*%
X28525000Y-5750000D03*
%TO.P,J1,13,Pin_13*%
%TO.N,/Connectors/ROW5*%
X31475000Y-6250000D03*
%TO.P,J1,14,Pin_14*%
%TO.N,/Connectors/COL3*%
X28525000Y-6250000D03*
%TO.P,J1,15,Pin_15*%
%TO.N,/Connectors/ROW6*%
X31475000Y-6750000D03*
%TO.P,J1,16,Pin_16*%
%TO.N,/Connectors/COL4*%
X28525000Y-6750000D03*
%TO.P,J1,17,Pin_17*%
%TO.N,/Connectors/ROW7*%
X31475000Y-7250000D03*
%TO.P,J1,18,Pin_18*%
%TO.N,/Connectors/COL5*%
X28525000Y-7250000D03*
%TO.P,J1,19,Pin_19*%
%TO.N,/Connectors/ROW8*%
X31475000Y-7750000D03*
%TO.P,J1,20,Pin_20*%
%TO.N,/Connectors/COL6*%
X28525000Y-7750000D03*
%TO.P,J1,21,Pin_21*%
%TO.N,/Connectors/ROW9*%
X31475000Y-8250000D03*
%TO.P,J1,22,Pin_22*%
%TO.N,/Connectors/COL7*%
X28525000Y-8250000D03*
%TO.P,J1,23,Pin_23*%
%TO.N,GND*%
X31475000Y-8750000D03*
%TO.P,J1,24,Pin_24*%
%TO.N,/Connectors/COL8*%
X28525000Y-8750000D03*
%TD*%
D13*
%TO.P,R2,2*%
%TO.N,/Accelerometer/SCL*%
X12740000Y-3000000D03*
%TO.P,R2,1*%
%TO.N,VCC*%
X13760000Y-3000000D03*
%TD*%
D14*
%TO.N,GND*%
X12500000Y-4000000D03*
X9250000Y-1270000D03*
X10750000Y-500000D03*
%TO.N,VCC*%
X13760000Y-3000000D03*
X1250000Y-5500000D03*
X2500000Y-2500000D03*
X1250000Y-3500000D03*
X15775000Y-8750000D03*
X13760000Y-1500000D03*
X16000000Y-3480000D03*
X1250000Y-4500000D03*
X25500000Y-9250000D03*
X8000000Y-2775000D03*
%TO.N,GND*%
X19250000Y-6750000D03*
X16250000Y-520000D03*
X15020000Y-10000000D03*
X18250000Y-4250000D03*
X22750000Y-1500000D03*
X30000000Y-3750000D03*
X1250000Y-8500000D03*
X19250000Y-7750000D03*
X20750000Y-5750000D03*
X1250000Y-7500000D03*
X24000000Y-1500000D03*
X18250000Y-8250000D03*
X16000000Y-2520000D03*
X22250000Y-4250000D03*
X14225000Y-8750000D03*
X2500000Y-9500000D03*
X20520000Y-750000D03*
X20500000Y-6750000D03*
X8000000Y-1225000D03*
X19500000Y-1480000D03*
X1250000Y-6500000D03*
X24500000Y-9730000D03*
X26750000Y-3750000D03*
X18250000Y-6750000D03*
X21500000Y-5000000D03*
X14225000Y-7250000D03*
X21800000Y-1650000D03*
X20480000Y-12500000D03*
X13520000Y-12500000D03*
X25250000Y-1500000D03*
X16750000Y-9000000D03*
X17500000Y-10000000D03*
X5250000Y-1150000D03*
X9250000Y-4230000D03*
%TO.N,/Microcontroller/DEC3*%
X19250000Y-2500000D03*
%TO.N,/Connectors/ROW0*%
X33250000Y-3750000D03*
%TO.N,/Connectors/COL9*%
X24750000Y-2500000D03*
%TO.N,/Connectors/ROW1*%
X32750000Y-4250000D03*
%TO.N,/Connectors/COL10*%
X24875000Y-3375000D03*
%TO.N,/Accelerometer/SDA*%
X12750000Y-1510000D03*
%TO.N,/Accelerometer/SCL*%
X12750000Y-2990000D03*
%TO.N,/Connectors/ROW2*%
X33250000Y-4750000D03*
%TO.N,/Connectors/COL0*%
X19250000Y-10250000D03*
%TO.N,/Connectors/ROW3*%
X32750000Y-5250000D03*
%TO.N,/Connectors/COL1*%
X19750000Y-10750000D03*
%TO.N,/Connectors/ROW4*%
X33250000Y-5750000D03*
%TO.N,/Connectors/COL2*%
X20250000Y-11250000D03*
%TO.N,/Connectors/ROW5*%
X32750000Y-6250000D03*
%TO.N,/Connectors/COL3*%
X21000000Y-11500000D03*
%TO.N,/Connectors/ROW6*%
X33250000Y-6750000D03*
%TO.N,/Connectors/COL4*%
X21250000Y-10750000D03*
%TO.N,/Connectors/ROW7*%
X32750000Y-7250000D03*
%TO.N,/Connectors/COL5*%
X21750000Y-11250000D03*
%TO.N,/Connectors/ROW8*%
X33250000Y-7750000D03*
%TO.N,/Connectors/COL6*%
X22250000Y-10750000D03*
%TO.N,/Connectors/ROW9*%
X32750000Y-8250000D03*
%TO.N,/Connectors/COL7*%
X22750000Y-10250000D03*
%TO.N,/Connectors/COL8*%
X23250000Y-9500000D03*
%TO.N,/Connectors/SWDCLK*%
X23250000Y-3500000D03*
%TO.N,/Connectors/SWDIO*%
X23750000Y-3000000D03*
%TO.N,/Accelerometer/INT1*%
X10750000Y-4750000D03*
X21220714Y-2308572D03*
%TO.N,/Connectors/LED0*%
X6750000Y-7250000D03*
%TO.N,/Connectors/LED1*%
X7250000Y-7750000D03*
%TO.N,/Connectors/LED2*%
X6750000Y-8250000D03*
%TO.N,/Connectors/LED3*%
X7250000Y-8750000D03*
%TO.N,/Connectors/BUTTON*%
X7250000Y-6750000D03*
%TO.N,/Microcontroller/RESET*%
X24250000Y-3750000D03*
X7750000Y-6250000D03*
%TD*%
D15*
%TO.N,/Accelerometer/SCL*%
X8667911Y-3750000D02*
X5475000Y-3750000D01*
X9180411Y-3237500D02*
X8667911Y-3750000D01*
X12750000Y-2990000D02*
X12502500Y-3237500D01*
X12502500Y-3237500D02*
X9180411Y-3237500D01*
%TO.N,/Accelerometer/SDA*%
X8482268Y-3250000D02*
X5475000Y-3250000D01*
X10222268Y-1510000D02*
X8482268Y-3250000D01*
X12750000Y-1510000D02*
X10222268Y-1510000D01*
%TO.N,/Accelerometer/INT1*%
X10750000Y-4750000D02*
X5475000Y-4750000D01*
X18500000Y-2000000D02*
X20912142Y-2000000D01*
X10750000Y-4750000D02*
X15750000Y-4750000D01*
X15750000Y-4750000D02*
X18500000Y-2000000D01*
X20912142Y-2000000D02*
X21220714Y-2308572D01*
%TO.N,GND*%
X18520000Y-3980000D02*
X18250000Y-4250000D01*
X19250000Y-3980000D02*
X18520000Y-3980000D01*
%TO.N,/Microcontroller/DEC3*%
X19250000Y-3020000D02*
X19250000Y-2500000D01*
%TO.N,/Connectors/ROW0*%
X31475000Y-3750000D02*
X33250000Y-3750000D01*
%TO.N,/Connectors/COL9*%
X26937500Y-4250000D02*
X27437500Y-3750000D01*
X27437500Y-3750000D02*
X28525000Y-3750000D01*
X26500000Y-4250000D02*
X26937500Y-4250000D01*
X24750000Y-2500000D02*
X26500000Y-4250000D01*
%TO.N,/Connectors/ROW1*%
X31475000Y-4250000D02*
X32750000Y-4250000D01*
%TO.N,/Connectors/COL10*%
X27500000Y-4250000D02*
X28525000Y-4250000D01*
X24875000Y-3375000D02*
X26000000Y-4500000D01*
X26000000Y-4500000D02*
X27250000Y-4500000D01*
X27250000Y-4500000D02*
X27500000Y-4250000D01*
%TO.N,/Connectors/ROW2*%
X31475000Y-4750000D02*
X33250000Y-4750000D01*
%TO.N,/Connectors/COL0*%
X19250000Y-8750000D02*
X23250000Y-4750000D01*
X23250000Y-4750000D02*
X28525000Y-4750000D01*
X19250000Y-10250000D02*
X19250000Y-8750000D01*
%TO.N,/Connectors/ROW3*%
X31475000Y-5250000D02*
X32750000Y-5250000D01*
%TO.N,/Connectors/COL1*%
X19750000Y-10750000D02*
X19750000Y-8750000D01*
X23250000Y-5250000D02*
X28525000Y-5250000D01*
X19750000Y-8750000D02*
X23250000Y-5250000D01*
%TO.N,/Connectors/ROW4*%
X31475000Y-5750000D02*
X33250000Y-5750000D01*
%TO.N,/Connectors/COL2*%
X20250000Y-11250000D02*
X20250000Y-8750000D01*
X20250000Y-8750000D02*
X23250000Y-5750000D01*
X23250000Y-5750000D02*
X28525000Y-5750000D01*
%TO.N,/Connectors/ROW5*%
X31475000Y-6250000D02*
X32750000Y-6250000D01*
%TO.N,/Connectors/COL3*%
X23250000Y-6250000D02*
X28525000Y-6250000D01*
X20787500Y-11287500D02*
X20787500Y-8712500D01*
X20787500Y-8712500D02*
X23250000Y-6250000D01*
X21000000Y-11500000D02*
X20787500Y-11287500D01*
%TO.N,/Connectors/ROW6*%
X31475000Y-6750000D02*
X33250000Y-6750000D01*
%TO.N,/Connectors/COL4*%
X21250000Y-10750000D02*
X21250000Y-8750000D01*
X21250000Y-8750000D02*
X23250000Y-6750000D01*
X23250000Y-6750000D02*
X28525000Y-6750000D01*
%TO.N,/Connectors/ROW7*%
X31475000Y-7250000D02*
X32750000Y-7250000D01*
%TO.N,/Connectors/COL5*%
X21750000Y-11250000D02*
X21750000Y-8750000D01*
X21750000Y-8750000D02*
X23250000Y-7250000D01*
X23250000Y-7250000D02*
X28525000Y-7250000D01*
%TO.N,/Connectors/ROW8*%
X31475000Y-7750000D02*
X33250000Y-7750000D01*
%TO.N,/Connectors/COL6*%
X22250000Y-10750000D02*
X22250000Y-8750000D01*
X22250000Y-8750000D02*
X23250000Y-7750000D01*
X23250000Y-7750000D02*
X28525000Y-7750000D01*
%TO.N,/Connectors/ROW9*%
X31475000Y-8250000D02*
X32750000Y-8250000D01*
%TO.N,/Connectors/COL7*%
X22750000Y-9095926D02*
X23595926Y-8250000D01*
X23595926Y-8250000D02*
X28525000Y-8250000D01*
X22750000Y-10250000D02*
X22750000Y-9095926D01*
%TO.N,/Connectors/COL8*%
X24000000Y-8750000D02*
X28525000Y-8750000D01*
X23250000Y-9500000D02*
X24000000Y-8750000D01*
%TO.N,/Connectors/SWDCLK*%
X23250000Y-3500000D02*
X22250000Y-3500000D01*
X22250000Y-3500000D02*
X20000000Y-5750000D01*
X20000000Y-5750000D02*
X5475000Y-5750000D01*
%TO.N,/Connectors/SWDIO*%
X22000000Y-3000000D02*
X19750000Y-5250000D01*
X23750000Y-3000000D02*
X22000000Y-3000000D01*
X19750000Y-5250000D02*
X5475000Y-5250000D01*
%TO.N,/Connectors/LED0*%
X5475000Y-7250000D02*
X6750000Y-7250000D01*
%TO.N,/Connectors/LED1*%
X5475000Y-7750000D02*
X7250000Y-7750000D01*
%TO.N,/Connectors/LED2*%
X5475000Y-8250000D02*
X6750000Y-8250000D01*
%TO.N,/Connectors/LED3*%
X5475000Y-8750000D02*
X7250000Y-8750000D01*
%TO.N,/Connectors/BUTTON*%
X5475000Y-6750000D02*
X7250000Y-6750000D01*
%TO.N,/Microcontroller/RESET*%
X23000000Y-4250000D02*
X21000000Y-6250000D01*
X7750000Y-6250000D02*
X5475000Y-6250000D01*
X24250000Y-3750000D02*
X23750000Y-4250000D01*
X23750000Y-4250000D02*
X23000000Y-4250000D01*
X21000000Y-6250000D02*
X7750000Y-6250000D01*
%TD*%
%TA.AperFunction,Conductor*%
%TO.N,GND*%
G36*
X22928435Y-3781907D02*
G01*
X22940247Y-3791995D01*
X22977548Y-3829296D01*
X23005325Y-3883811D01*
X22995754Y-3944243D01*
X22952490Y-3987508D01*
X22926860Y-3996396D01*
X22897384Y-4002259D01*
X22897378Y-4002261D01*
X22832346Y-4045716D01*
X22810390Y-4060386D01*
X22810384Y-4060392D01*
X22801132Y-4074238D01*
X22788824Y-4089236D01*
X20920058Y-5958004D01*
X20865541Y-5985781D01*
X20850054Y-5987000D01*
X20373945Y-5987000D01*
X20315754Y-5968093D01*
X20279790Y-5918593D01*
X20279790Y-5857407D01*
X20303941Y-5817996D01*
X21283528Y-4838410D01*
X22329942Y-3791996D01*
X22384459Y-3764219D01*
X22399946Y-3763000D01*
X22870244Y-3763000D01*
X22928435Y-3781907D01*
G37*
%TD.AperFunction*%
%TA.AperFunction,Conductor*%
G36*
X31684134Y-219407D02*
G01*
X31695947Y-229496D01*
X33770504Y-2304053D01*
X33798281Y-2358570D01*
X33799500Y-2374057D01*
X33799500Y-3478845D01*
X33780593Y-3537036D01*
X33731093Y-3573000D01*
X33669907Y-3573000D01*
X33620407Y-3537036D01*
X33612291Y-3523791D01*
X33602768Y-3505102D01*
X33598528Y-3496780D01*
X33503220Y-3401472D01*
X33503217Y-3401470D01*
X33383129Y-3340282D01*
X33383127Y-3340281D01*
X33250000Y-3319196D01*
X33116872Y-3340281D01*
X33116870Y-3340282D01*
X32996782Y-3401470D01*
X32996778Y-3401473D01*
X32940247Y-3458004D01*
X32885730Y-3485781D01*
X32870244Y-3487000D01*
X32290849Y-3487000D01*
X32235848Y-3470316D01*
X32190119Y-3439761D01*
X32190117Y-3439760D01*
X32190114Y-3439759D01*
X32190113Y-3439759D01*
X32113411Y-3424501D01*
X32113402Y-3424500D01*
X32113401Y-3424500D01*
X32113399Y-3424500D01*
X30836602Y-3424500D01*
X30836595Y-3424501D01*
X30759883Y-3439759D01*
X30759881Y-3439760D01*
X30672890Y-3497886D01*
X30672886Y-3497890D01*
X30614762Y-3584879D01*
X30614759Y-3584886D01*
X30599501Y-3661589D01*
X30599500Y-3661599D01*
X30599500Y-3838397D01*
X30599501Y-3838404D01*
X30614759Y-3915115D01*
X30614759Y-3915116D01*
X30614760Y-3915117D01*
X30634726Y-3944999D01*
X30651334Y-4003887D01*
X30634727Y-4054999D01*
X30614761Y-4084880D01*
X30614759Y-4084886D01*
X30599501Y-4161589D01*
X30599500Y-4161599D01*
X30599500Y-4338397D01*
X30599501Y-4338404D01*
X30614759Y-4415115D01*
X30614759Y-4415116D01*
X30614760Y-4415117D01*
X30634726Y-4444999D01*
X30651334Y-4503887D01*
X30634727Y-4554999D01*
X30614761Y-4584880D01*
X30614759Y-4584886D01*
X30599501Y-4661589D01*
X30599500Y-4661599D01*
X30599500Y-4838397D01*
X30599501Y-4838404D01*
X30614759Y-4915115D01*
X30614759Y-4915116D01*
X30614760Y-4915117D01*
X30634726Y-4944999D01*
X30651334Y-5003887D01*
X30634727Y-5054999D01*
X30614761Y-5084880D01*
X30614759Y-5084886D01*
X30599501Y-5161589D01*
X30599500Y-5161599D01*
X30599500Y-5338397D01*
X30599501Y-5338404D01*
X30614759Y-5415115D01*
X30614759Y-5415116D01*
X30614760Y-5415117D01*
X30634726Y-5444999D01*
X30651334Y-5503887D01*
X30634727Y-5554999D01*
X30614761Y-5584880D01*
X30614759Y-5584886D01*
X30599501Y-5661589D01*
X30599500Y-5661599D01*
X30599500Y-5838397D01*
X30599501Y-5838404D01*
X30614759Y-5915115D01*
X30614759Y-5915116D01*
X30614760Y-5915117D01*
X30634726Y-5944999D01*
X30651334Y-6003887D01*
X30634727Y-6054999D01*
X30614761Y-6084880D01*
X30614759Y-6084886D01*
X30599501Y-6161589D01*
X30599500Y-6161599D01*
X30599500Y-6338397D01*
X30599501Y-6338404D01*
X30614759Y-6415115D01*
X30614759Y-6415116D01*
X30614760Y-6415117D01*
X30634726Y-6444999D01*
X30651334Y-6503887D01*
X30634727Y-6554999D01*
X30614761Y-6584880D01*
X30614759Y-6584886D01*
X30599501Y-6661589D01*
X30599500Y-6661599D01*
X30599500Y-6838397D01*
X30599501Y-6838404D01*
X30614759Y-6915115D01*
X30614759Y-6915116D01*
X30614760Y-6915117D01*
X30634726Y-6944999D01*
X30651334Y-7003887D01*
X30634727Y-7054999D01*
X30614761Y-7084880D01*
X30614759Y-7084886D01*
X30599501Y-7161589D01*
X30599500Y-7161599D01*
X30599500Y-7338397D01*
X30599501Y-7338404D01*
X30614759Y-7415115D01*
X30614759Y-7415116D01*
X30614760Y-7415117D01*
X30634726Y-7444999D01*
X30651334Y-7503887D01*
X30634727Y-7554999D01*
X30614761Y-7584880D01*
X30614759Y-7584886D01*
X30599501Y-7661589D01*
X30599500Y-7661599D01*
X30599500Y-7838397D01*
X30599501Y-7838404D01*
X30614759Y-7915115D01*
X30614759Y-7915116D01*
X30614760Y-7915117D01*
X30634726Y-7944999D01*
X30651334Y-8003887D01*
X30634727Y-8054999D01*
X30614761Y-8084880D01*
X30614759Y-8084886D01*
X30599501Y-8161589D01*
X30599500Y-8161599D01*
X30599500Y-8338397D01*
X30599501Y-8338404D01*
X30614759Y-8415116D01*
X30614760Y-8415118D01*
X30668880Y-8496114D01*
X30672888Y-8502112D01*
X30759883Y-8560240D01*
X30818207Y-8571841D01*
X30836588Y-8575498D01*
X30836589Y-8575498D01*
X30836599Y-8575500D01*
X32113400Y-8575499D01*
X32190117Y-8560240D01*
X32235848Y-8529684D01*
X32290849Y-8513000D01*
X32370244Y-8513000D01*
X32428435Y-8531907D01*
X32440247Y-8541996D01*
X32473750Y-8575498D01*
X32496780Y-8598528D01*
X32616874Y-8659719D01*
X32750000Y-8680804D01*
X32883126Y-8659719D01*
X33003220Y-8598528D01*
X33098528Y-8503220D01*
X33159719Y-8383126D01*
X33179013Y-8261306D01*
X33206790Y-8206791D01*
X33261306Y-8179013D01*
X33383126Y-8159719D01*
X33503220Y-8098528D01*
X33598528Y-8003220D01*
X33612291Y-7976207D01*
X33655555Y-7932944D01*
X33715987Y-7923373D01*
X33770504Y-7951151D01*
X33798281Y-8005667D01*
X33799500Y-8021154D01*
X33799500Y-12700500D01*
X33780593Y-12758691D01*
X33731093Y-12794655D01*
X33700500Y-12799500D01*
X299500Y-12799500D01*
X241309Y-12780593D01*
X205345Y-12731093D01*
X200500Y-12700500D01*
X200500Y-8838397D01*
X4599500Y-8838397D01*
X4599501Y-8838404D01*
X4614759Y-8915116D01*
X4614760Y-8915118D01*
X4656266Y-8977235D01*
X4672888Y-9002112D01*
X4759883Y-9060240D01*
X4818207Y-9071841D01*
X4836588Y-9075498D01*
X4836589Y-9075498D01*
X4836599Y-9075500D01*
X6113400Y-9075499D01*
X6190117Y-9060240D01*
X6235848Y-9029684D01*
X6290849Y-9013000D01*
X6870244Y-9013000D01*
X6928435Y-9031907D01*
X6940247Y-9041996D01*
X6973750Y-9075498D01*
X6996780Y-9098528D01*
X7116874Y-9159719D01*
X7250000Y-9180804D01*
X7383126Y-9159719D01*
X7503220Y-9098528D01*
X7598528Y-9003220D01*
X7659719Y-8883126D01*
X7680804Y-8750000D01*
X15344196Y-8750000D01*
X15365281Y-8883127D01*
X15365282Y-8883129D01*
X15426470Y-9003217D01*
X15426472Y-9003220D01*
X15521780Y-9098528D01*
X15641874Y-9159719D01*
X15775000Y-9180804D01*
X15908126Y-9159719D01*
X16028220Y-9098528D01*
X16123528Y-9003220D01*
X16184719Y-8883126D01*
X16205804Y-8750000D01*
X16184719Y-8616874D01*
X16123528Y-8496780D01*
X16028220Y-8401472D01*
X16028217Y-8401470D01*
X15908129Y-8340282D01*
X15908127Y-8340281D01*
X15775000Y-8319196D01*
X15641872Y-8340281D01*
X15641870Y-8340282D01*
X15521782Y-8401470D01*
X15426470Y-8496782D01*
X15365282Y-8616870D01*
X15365281Y-8616872D01*
X15344196Y-8749999D01*
X15344196Y-8750000D01*
X7680804Y-8750000D01*
X7659719Y-8616874D01*
X7598528Y-8496780D01*
X7503220Y-8401472D01*
X7503217Y-8401470D01*
X7379061Y-8338209D01*
X7335796Y-8294945D01*
X7326225Y-8234513D01*
X7354003Y-8179996D01*
X7379061Y-8161791D01*
X7452963Y-8124134D01*
X7503220Y-8098528D01*
X7598528Y-8003220D01*
X7659719Y-7883126D01*
X7680804Y-7750000D01*
X7659719Y-7616874D01*
X7598528Y-7496780D01*
X7503220Y-7401472D01*
X7503217Y-7401470D01*
X7379061Y-7338209D01*
X7335796Y-7294945D01*
X7326225Y-7234513D01*
X7354003Y-7179996D01*
X7379061Y-7161791D01*
X7452963Y-7124134D01*
X7503220Y-7098528D01*
X7598528Y-7003220D01*
X7659719Y-6883126D01*
X7679013Y-6761306D01*
X7706790Y-6706791D01*
X7761306Y-6679013D01*
X7883126Y-6659719D01*
X8003220Y-6598528D01*
X8031487Y-6570261D01*
X8059753Y-6541996D01*
X8114270Y-6514219D01*
X8129756Y-6513000D01*
X20876053Y-6513000D01*
X20934244Y-6531907D01*
X20970208Y-6581407D01*
X20970208Y-6642593D01*
X20946057Y-6682004D01*
X19089236Y-8538824D01*
X19074238Y-8551132D01*
X19060392Y-8560384D01*
X19060385Y-8560391D01*
X19037558Y-8594553D01*
X19002262Y-8647377D01*
X19002260Y-8647381D01*
X19002260Y-8647383D01*
X18999432Y-8661602D01*
X18981848Y-8750000D01*
X18985098Y-8766338D01*
X18987000Y-8785652D01*
X18987000Y-9870244D01*
X18968093Y-9928435D01*
X18958004Y-9940247D01*
X18901473Y-9996778D01*
X18901470Y-9996782D01*
X18840282Y-10116870D01*
X18840281Y-10116872D01*
X18819196Y-10249999D01*
X18819196Y-10250000D01*
X18840281Y-10383127D01*
X18840282Y-10383129D01*
X18901470Y-10503217D01*
X18901472Y-10503220D01*
X18996780Y-10598528D01*
X19116874Y-10659719D01*
X19238007Y-10678904D01*
X19238692Y-10679013D01*
X19293209Y-10706790D01*
X19320986Y-10761306D01*
X19340281Y-10883127D01*
X19340282Y-10883129D01*
X19360471Y-10922752D01*
X19401472Y-11003220D01*
X19496780Y-11098528D01*
X19616874Y-11159719D01*
X19738007Y-11178904D01*
X19738692Y-11179013D01*
X19793209Y-11206790D01*
X19820986Y-11261306D01*
X19840281Y-11383127D01*
X19840282Y-11383129D01*
X19901470Y-11503217D01*
X19901472Y-11503220D01*
X19996780Y-11598528D01*
X20116874Y-11659719D01*
X20250000Y-11680804D01*
X20383126Y-11659719D01*
X20470132Y-11615386D01*
X20530563Y-11605815D01*
X20585080Y-11633592D01*
X20603286Y-11658651D01*
X20614574Y-11680804D01*
X20651472Y-11753220D01*
X20746780Y-11848528D01*
X20866874Y-11909719D01*
X21000000Y-11930804D01*
X21133126Y-11909719D01*
X21253220Y-11848528D01*
X21348528Y-11753220D01*
X21396714Y-11658648D01*
X21439977Y-11615387D01*
X21500409Y-11605815D01*
X21529866Y-11615386D01*
X21616874Y-11659719D01*
X21750000Y-11680804D01*
X21883126Y-11659719D01*
X22003220Y-11598528D01*
X22098528Y-11503220D01*
X22159719Y-11383126D01*
X22179013Y-11261306D01*
X22206790Y-11206791D01*
X22261306Y-11179013D01*
X22383126Y-11159719D01*
X22503220Y-11098528D01*
X22598528Y-11003220D01*
X22659719Y-10883126D01*
X22679013Y-10761306D01*
X22706790Y-10706791D01*
X22761306Y-10679013D01*
X22883126Y-10659719D01*
X23003220Y-10598528D01*
X23098528Y-10503220D01*
X23159719Y-10383126D01*
X23180804Y-10250000D01*
X23159719Y-10116874D01*
X23136872Y-10072035D01*
X23127301Y-10011605D01*
X23155078Y-9957088D01*
X23209594Y-9929310D01*
X23240567Y-9929310D01*
X23250000Y-9930804D01*
X23383126Y-9909719D01*
X23503220Y-9848528D01*
X23598528Y-9753220D01*
X23659719Y-9633126D01*
X23680804Y-9500000D01*
X23680646Y-9499004D01*
X23680804Y-9498009D01*
X23680804Y-9492208D01*
X23681723Y-9492208D01*
X23690216Y-9438574D01*
X23708421Y-9413515D01*
X24079942Y-9041996D01*
X24134458Y-9014219D01*
X24149945Y-9013000D01*
X24990819Y-9013000D01*
X25049010Y-9031907D01*
X25084974Y-9081407D01*
X25088600Y-9127487D01*
X25069196Y-9249999D01*
X25069196Y-9250000D01*
X25090281Y-9383127D01*
X25090282Y-9383129D01*
X25149325Y-9499007D01*
X25151472Y-9503220D01*
X25246780Y-9598528D01*
X25366874Y-9659719D01*
X25500000Y-9680804D01*
X25633126Y-9659719D01*
X25753220Y-9598528D01*
X25848528Y-9503220D01*
X25909719Y-9383126D01*
X25930804Y-9250000D01*
X25919844Y-9180804D01*
X25911400Y-9127487D01*
X25920971Y-9067055D01*
X25964236Y-9023790D01*
X26009181Y-9013000D01*
X27709151Y-9013000D01*
X27764152Y-9029684D01*
X27809879Y-9060237D01*
X27809883Y-9060240D01*
X27868207Y-9071841D01*
X27886588Y-9075498D01*
X27886589Y-9075498D01*
X27886599Y-9075500D01*
X29163400Y-9075499D01*
X29240117Y-9060240D01*
X29327112Y-9002112D01*
X29385240Y-8915117D01*
X29400500Y-8838401D01*
X29400499Y-8661600D01*
X29385240Y-8584883D01*
X29378970Y-8575500D01*
X29365274Y-8555002D01*
X29348665Y-8496114D01*
X29365274Y-8444998D01*
X29385238Y-8415120D01*
X29385239Y-8415118D01*
X29385240Y-8415117D01*
X29400500Y-8338401D01*
X29400499Y-8161600D01*
X29385240Y-8084883D01*
X29365273Y-8055001D01*
X29348665Y-7996114D01*
X29365274Y-7944998D01*
X29379724Y-7923373D01*
X29385240Y-7915117D01*
X29400500Y-7838401D01*
X29400499Y-7661600D01*
X29385240Y-7584883D01*
X29365273Y-7555001D01*
X29348665Y-7496114D01*
X29365274Y-7444998D01*
X29385238Y-7415120D01*
X29385238Y-7415119D01*
X29385240Y-7415117D01*
X29400500Y-7338401D01*
X29400499Y-7161600D01*
X29385240Y-7084883D01*
X29365273Y-7055001D01*
X29348665Y-6996114D01*
X29365274Y-6944998D01*
X29379724Y-6923373D01*
X29385240Y-6915117D01*
X29400500Y-6838401D01*
X29400499Y-6661600D01*
X29385240Y-6584883D01*
X29382917Y-6581407D01*
X29365274Y-6555002D01*
X29348665Y-6496114D01*
X29365274Y-6444998D01*
X29385238Y-6415120D01*
X29385238Y-6415119D01*
X29385240Y-6415117D01*
X29400500Y-6338401D01*
X29400499Y-6161600D01*
X29385240Y-6084883D01*
X29365273Y-6055001D01*
X29348665Y-5996114D01*
X29365274Y-5944998D01*
X29379724Y-5923373D01*
X29385240Y-5915117D01*
X29400500Y-5838401D01*
X29400499Y-5661600D01*
X29385240Y-5584883D01*
X29365273Y-5555001D01*
X29348665Y-5496114D01*
X29365274Y-5444998D01*
X29385238Y-5415120D01*
X29385238Y-5415119D01*
X29385240Y-5415117D01*
X29400500Y-5338401D01*
X29400499Y-5161600D01*
X29385240Y-5084883D01*
X29365273Y-5055001D01*
X29348665Y-4996114D01*
X29365274Y-4944998D01*
X29379724Y-4923373D01*
X29385240Y-4915117D01*
X29400500Y-4838401D01*
X29400499Y-4661600D01*
X29385240Y-4584883D01*
X29385237Y-4584879D01*
X29365274Y-4555002D01*
X29348665Y-4496114D01*
X29365274Y-4444998D01*
X29385238Y-4415120D01*
X29385238Y-4415119D01*
X29385240Y-4415117D01*
X29400500Y-4338401D01*
X29400499Y-4161600D01*
X29385240Y-4084883D01*
X29378970Y-4075500D01*
X29365274Y-4055002D01*
X29348665Y-3996114D01*
X29365274Y-3944998D01*
X29365779Y-3944243D01*
X29385240Y-3915117D01*
X29400500Y-3838401D01*
X29400499Y-3661600D01*
X29385240Y-3584883D01*
X29385237Y-3584879D01*
X29337922Y-3514066D01*
X29327112Y-3497888D01*
X29240117Y-3439760D01*
X29240113Y-3439759D01*
X29163411Y-3424501D01*
X29163402Y-3424500D01*
X29163401Y-3424500D01*
X29163399Y-3424500D01*
X27886602Y-3424500D01*
X27886595Y-3424501D01*
X27809883Y-3439759D01*
X27809882Y-3439760D01*
X27764152Y-3470316D01*
X27709151Y-3487000D01*
X27473153Y-3487000D01*
X27453840Y-3485098D01*
X27437500Y-3481848D01*
X27411599Y-3487000D01*
X27334883Y-3502260D01*
X27334881Y-3502260D01*
X27334881Y-3502261D01*
X27334880Y-3502261D01*
X27247890Y-3560386D01*
X27247885Y-3560391D01*
X27238629Y-3574243D01*
X27226321Y-3589239D01*
X26857559Y-3958003D01*
X26803042Y-3985781D01*
X26787555Y-3987000D01*
X26649946Y-3987000D01*
X26591755Y-3968093D01*
X26579942Y-3958004D01*
X25208423Y-2586485D01*
X25180646Y-2531968D01*
X25180646Y-2500991D01*
X25180804Y-2500000D01*
X25159719Y-2366874D01*
X25098528Y-2246780D01*
X25003220Y-2151472D01*
X25003217Y-2151470D01*
X24883129Y-2090282D01*
X24883127Y-2090281D01*
X24750000Y-2069196D01*
X24616872Y-2090281D01*
X24616870Y-2090282D01*
X24496782Y-2151470D01*
X24401470Y-2246782D01*
X24340282Y-2366870D01*
X24340281Y-2366872D01*
X24319196Y-2499999D01*
X24319196Y-2500000D01*
X24340281Y-2633127D01*
X24340282Y-2633129D01*
X24400983Y-2752261D01*
X24401472Y-2753220D01*
X24496780Y-2848528D01*
X24576060Y-2888923D01*
X24619323Y-2932186D01*
X24628894Y-2992618D01*
X24601117Y-3047134D01*
X24526473Y-3121778D01*
X24526470Y-3121782D01*
X24465282Y-3241870D01*
X24465280Y-3241876D01*
X24463551Y-3252790D01*
X24435771Y-3307305D01*
X24381253Y-3335080D01*
X24350284Y-3335079D01*
X24250001Y-3319196D01*
X24250000Y-3319196D01*
X24240565Y-3320690D01*
X24180134Y-3311116D01*
X24136871Y-3267850D01*
X24127301Y-3207417D01*
X24136870Y-3177968D01*
X24159719Y-3133126D01*
X24180804Y-3000000D01*
X24180469Y-2997888D01*
X24171263Y-2939759D01*
X24159719Y-2866874D01*
X24098528Y-2746780D01*
X24003220Y-2651472D01*
X24003217Y-2651470D01*
X23883129Y-2590282D01*
X23883127Y-2590281D01*
X23750000Y-2569196D01*
X23616872Y-2590281D01*
X23616870Y-2590282D01*
X23496782Y-2651470D01*
X23496778Y-2651473D01*
X23440247Y-2708004D01*
X23385730Y-2735781D01*
X23370244Y-2737000D01*
X22035653Y-2737000D01*
X22016340Y-2735098D01*
X22000000Y-2731848D01*
X21974099Y-2737000D01*
X21897383Y-2752260D01*
X21897381Y-2752260D01*
X21897381Y-2752261D01*
X21897380Y-2752261D01*
X21810390Y-2810386D01*
X21810384Y-2810392D01*
X21801132Y-2824238D01*
X21788824Y-2839236D01*
X19670058Y-4958004D01*
X19615541Y-4985781D01*
X19600054Y-4987000D01*
X16123945Y-4987000D01*
X16065754Y-4968093D01*
X16029790Y-4918593D01*
X16029790Y-4857407D01*
X16053941Y-4817996D01*
X16621938Y-4250000D01*
X18579943Y-2291996D01*
X18634460Y-2264219D01*
X18649947Y-2263000D01*
X18740819Y-2263000D01*
X18799010Y-2281907D01*
X18834974Y-2331407D01*
X18838600Y-2377487D01*
X18819196Y-2499999D01*
X18819196Y-2500001D01*
X18833080Y-2587667D01*
X18823508Y-2648099D01*
X18805305Y-2673154D01*
X18796777Y-2681682D01*
X18796774Y-2681686D01*
X18746029Y-2790510D01*
X18746028Y-2790511D01*
X18739500Y-2840100D01*
X18739500Y-3199895D01*
X18739501Y-3199907D01*
X18746027Y-3249486D01*
X18746027Y-3249488D01*
X18796774Y-3358313D01*
X18796775Y-3358314D01*
X18796776Y-3358316D01*
X18881684Y-3443224D01*
X18990513Y-3493972D01*
X19040099Y-3500500D01*
X19459900Y-3500499D01*
X19509487Y-3493972D01*
X19509488Y-3493972D01*
X19573620Y-3464066D01*
X19618316Y-3443224D01*
X19703224Y-3358316D01*
X19753972Y-3249487D01*
X19760500Y-3199901D01*
X19760499Y-2840100D01*
X19753972Y-2790513D01*
X19753972Y-2790511D01*
X19703225Y-2681686D01*
X19703224Y-2681685D01*
X19703224Y-2681684D01*
X19694694Y-2673154D01*
X19666919Y-2618640D01*
X19666919Y-2587666D01*
X19671951Y-2555899D01*
X19680804Y-2500000D01*
X19680803Y-2499996D01*
X19661400Y-2377487D01*
X19670971Y-2317055D01*
X19714236Y-2273790D01*
X19759181Y-2263000D01*
X20698138Y-2263000D01*
X20756329Y-2281907D01*
X20792293Y-2331407D01*
X20795919Y-2346513D01*
X20810995Y-2441699D01*
X20810996Y-2441701D01*
X20872184Y-2561789D01*
X20872186Y-2561792D01*
X20967494Y-2657100D01*
X21087588Y-2718291D01*
X21220714Y-2739376D01*
X21353840Y-2718291D01*
X21473934Y-2657100D01*
X21569242Y-2561792D01*
X21630433Y-2441698D01*
X21651518Y-2308572D01*
X21630433Y-2175446D01*
X21569242Y-2055352D01*
X21473934Y-1960044D01*
X21473931Y-1960042D01*
X21353843Y-1898854D01*
X21353841Y-1898853D01*
X21220715Y-1877768D01*
X21220710Y-1877768D01*
X21219712Y-1877926D01*
X21218715Y-1877768D01*
X21212924Y-1877768D01*
X21212924Y-1876850D01*
X21159280Y-1868350D01*
X21134228Y-1850148D01*
X21123318Y-1839238D01*
X21111005Y-1824233D01*
X21101755Y-1810389D01*
X21101751Y-1810385D01*
X21078001Y-1794517D01*
X21014762Y-1752262D01*
X21014761Y-1752261D01*
X21014759Y-1752260D01*
X21014757Y-1752259D01*
X21014756Y-1752259D01*
X20995061Y-1748341D01*
X20938043Y-1737000D01*
X20912142Y-1731848D01*
X20895802Y-1735098D01*
X20876489Y-1737000D01*
X18535653Y-1737000D01*
X18516340Y-1735098D01*
X18500000Y-1731848D01*
X18397381Y-1752259D01*
X18332387Y-1795688D01*
X18310389Y-1810387D01*
X18310384Y-1810392D01*
X18301134Y-1824235D01*
X18288826Y-1839233D01*
X16597899Y-3530161D01*
X16543382Y-3557938D01*
X16482950Y-3548367D01*
X16439685Y-3505102D01*
X16430114Y-3475644D01*
X16424431Y-3439761D01*
X16409719Y-3346874D01*
X16348528Y-3226780D01*
X16253220Y-3131472D01*
X16253217Y-3131470D01*
X16133129Y-3070282D01*
X16133127Y-3070281D01*
X16000000Y-3049196D01*
X15866872Y-3070281D01*
X15866870Y-3070282D01*
X15746782Y-3131470D01*
X15651470Y-3226782D01*
X15590282Y-3346870D01*
X15590281Y-3346872D01*
X15569196Y-3479999D01*
X15569196Y-3480000D01*
X15590281Y-3613127D01*
X15590282Y-3613129D01*
X15651470Y-3733217D01*
X15651472Y-3733220D01*
X15746780Y-3828528D01*
X15746782Y-3828529D01*
X15853934Y-3883126D01*
X15866874Y-3889719D01*
X15995645Y-3910114D01*
X16050161Y-3937891D01*
X16077939Y-3992408D01*
X16068368Y-4052840D01*
X16050162Y-4077898D01*
X15670058Y-4458003D01*
X15615541Y-4485781D01*
X15600054Y-4487000D01*
X11129756Y-4487000D01*
X11071565Y-4468093D01*
X11059753Y-4458004D01*
X11003221Y-4401473D01*
X11003217Y-4401470D01*
X10883129Y-4340282D01*
X10883127Y-4340281D01*
X10750000Y-4319196D01*
X10616872Y-4340281D01*
X10616870Y-4340282D01*
X10496782Y-4401470D01*
X10496778Y-4401473D01*
X10440247Y-4458004D01*
X10385730Y-4485781D01*
X10370244Y-4487000D01*
X6290849Y-4487000D01*
X6235848Y-4470316D01*
X6190119Y-4439761D01*
X6190117Y-4439760D01*
X6190114Y-4439759D01*
X6190113Y-4439759D01*
X6113411Y-4424501D01*
X6113402Y-4424500D01*
X6113401Y-4424500D01*
X6113399Y-4424500D01*
X4836602Y-4424500D01*
X4836595Y-4424501D01*
X4759883Y-4439759D01*
X4759881Y-4439760D01*
X4672890Y-4497886D01*
X4672886Y-4497890D01*
X4614762Y-4584879D01*
X4614759Y-4584886D01*
X4599501Y-4661589D01*
X4599500Y-4661599D01*
X4599500Y-4838397D01*
X4599501Y-4838404D01*
X4614759Y-4915115D01*
X4614759Y-4915116D01*
X4614760Y-4915117D01*
X4634726Y-4944999D01*
X4651334Y-5003887D01*
X4634727Y-5054999D01*
X4614761Y-5084880D01*
X4614759Y-5084886D01*
X4599501Y-5161589D01*
X4599500Y-5161599D01*
X4599500Y-5338397D01*
X4599501Y-5338404D01*
X4614759Y-5415115D01*
X4614759Y-5415116D01*
X4614760Y-5415117D01*
X4634726Y-5444999D01*
X4651334Y-5503887D01*
X4634727Y-5554999D01*
X4614761Y-5584880D01*
X4614759Y-5584886D01*
X4599501Y-5661589D01*
X4599500Y-5661599D01*
X4599500Y-5838397D01*
X4599501Y-5838404D01*
X4614759Y-5915115D01*
X4614759Y-5915116D01*
X4614760Y-5915117D01*
X4634726Y-5944999D01*
X4651334Y-6003887D01*
X4634727Y-6054999D01*
X4614761Y-6084880D01*
X4614759Y-6084886D01*
X4599501Y-6161589D01*
X4599500Y-6161599D01*
X4599500Y-6338397D01*
X4599501Y-6338404D01*
X4614759Y-6415115D01*
X4614759Y-6415116D01*
X4614760Y-6415117D01*
X4634726Y-6444999D01*
X4651334Y-6503887D01*
X4634727Y-6554999D01*
X4614761Y-6584880D01*
X4614759Y-6584886D01*
X4599501Y-6661589D01*
X4599500Y-6661599D01*
X4599500Y-6838397D01*
X4599501Y-6838404D01*
X4614759Y-6915115D01*
X4614759Y-6915116D01*
X4614760Y-6915117D01*
X4634726Y-6944999D01*
X4651334Y-7003887D01*
X4634727Y-7054999D01*
X4614761Y-7084880D01*
X4614759Y-7084886D01*
X4599501Y-7161589D01*
X4599500Y-7161599D01*
X4599500Y-7338397D01*
X4599501Y-7338404D01*
X4614759Y-7415115D01*
X4614759Y-7415116D01*
X4614760Y-7415117D01*
X4634726Y-7444999D01*
X4651334Y-7503887D01*
X4634727Y-7554999D01*
X4614761Y-7584880D01*
X4614759Y-7584886D01*
X4599501Y-7661589D01*
X4599500Y-7661599D01*
X4599500Y-7838397D01*
X4599501Y-7838404D01*
X4614759Y-7915115D01*
X4614759Y-7915116D01*
X4614760Y-7915117D01*
X4634726Y-7944999D01*
X4651334Y-8003887D01*
X4634727Y-8054999D01*
X4614761Y-8084880D01*
X4614759Y-8084886D01*
X4599501Y-8161589D01*
X4599500Y-8161599D01*
X4599500Y-8338397D01*
X4599501Y-8338404D01*
X4614759Y-8415115D01*
X4614759Y-8415116D01*
X4614760Y-8415117D01*
X4634726Y-8444999D01*
X4651334Y-8503887D01*
X4634727Y-8554999D01*
X4614761Y-8584880D01*
X4614759Y-8584886D01*
X4599501Y-8661589D01*
X4599500Y-8661599D01*
X4599500Y-8838397D01*
X200500Y-8838397D01*
X200500Y-5901000D01*
X544500Y-5901000D01*
X545811Y-5917654D01*
X547030Y-5933142D01*
X547030Y-5933143D01*
X551875Y-5963738D01*
X552647Y-5968284D01*
X552647Y-5968286D01*
X588591Y-6052382D01*
X590495Y-6055002D01*
X624556Y-6101883D01*
X648797Y-6129628D01*
X727307Y-6176536D01*
X785498Y-6195443D01*
X793126Y-6196651D01*
X848996Y-6205500D01*
X849000Y-6205500D01*
X1689695Y-6205500D01*
X1749347Y-6196652D01*
X1804348Y-6179968D01*
X1858866Y-6154183D01*
X1870086Y-6146686D01*
X1925089Y-6130000D01*
X3124910Y-6130000D01*
X3179909Y-6146683D01*
X3191138Y-6154186D01*
X3191141Y-6154187D01*
X3191142Y-6154188D01*
X3245652Y-6179968D01*
X3300649Y-6196651D01*
X3300650Y-6196651D01*
X3300653Y-6196652D01*
X3360305Y-6205500D01*
X3400996Y-6205500D01*
X3401000Y-6205500D01*
X3433144Y-6202970D01*
X3448440Y-6200547D01*
X3463738Y-6198125D01*
X3464874Y-6197931D01*
X3468287Y-6197352D01*
X3552383Y-6161408D01*
X3601883Y-6125444D01*
X3629628Y-6101203D01*
X3676536Y-6022693D01*
X3695443Y-5964502D01*
X3702714Y-5918593D01*
X3705500Y-5901003D01*
X3705500Y-3838397D01*
X4599500Y-3838397D01*
X4599501Y-3838404D01*
X4614759Y-3915116D01*
X4614760Y-3915118D01*
X4663130Y-3987508D01*
X4672888Y-4002112D01*
X4759883Y-4060240D01*
X4818207Y-4071841D01*
X4836588Y-4075498D01*
X4836589Y-4075498D01*
X4836599Y-4075500D01*
X6113400Y-4075499D01*
X6190117Y-4060240D01*
X6235848Y-4029684D01*
X6290849Y-4013000D01*
X8632258Y-4013000D01*
X8651571Y-4014902D01*
X8654960Y-4015575D01*
X8667911Y-4018152D01*
X8700559Y-4011658D01*
X8770528Y-3997740D01*
X8857523Y-3939612D01*
X8866781Y-3925754D01*
X8879085Y-3910762D01*
X9260354Y-3529496D01*
X9314870Y-3501719D01*
X9330357Y-3500500D01*
X12465782Y-3500500D01*
X12507620Y-3509774D01*
X12516827Y-3514068D01*
X12565684Y-3520500D01*
X12565685Y-3520500D01*
X12914314Y-3520500D01*
X12914316Y-3520500D01*
X12963173Y-3514068D01*
X13070404Y-3464065D01*
X13154065Y-3380404D01*
X13160275Y-3367085D01*
X13202003Y-3322337D01*
X13262064Y-3310662D01*
X13317517Y-3336519D01*
X13339724Y-3367084D01*
X13345935Y-3380404D01*
X13429596Y-3464065D01*
X13429597Y-3464065D01*
X13429598Y-3464066D01*
X13536824Y-3514067D01*
X13536825Y-3514067D01*
X13536827Y-3514068D01*
X13585684Y-3520500D01*
X13585685Y-3520500D01*
X13934314Y-3520500D01*
X13934316Y-3520500D01*
X13983173Y-3514068D01*
X14090404Y-3464065D01*
X14174065Y-3380404D01*
X14224068Y-3273173D01*
X14230500Y-3224316D01*
X14230500Y-2775684D01*
X14224068Y-2726827D01*
X14203018Y-2681686D01*
X14174066Y-2619598D01*
X14174065Y-2619597D01*
X14174065Y-2619596D01*
X14090404Y-2535935D01*
X14090402Y-2535934D01*
X14090401Y-2535933D01*
X13983175Y-2485932D01*
X13950601Y-2481644D01*
X13934316Y-2479500D01*
X13585684Y-2479500D01*
X13569398Y-2481644D01*
X13536825Y-2485932D01*
X13536824Y-2485932D01*
X13429598Y-2535933D01*
X13345933Y-2619598D01*
X13339724Y-2632915D01*
X13297995Y-2677663D01*
X13237934Y-2689337D01*
X13182482Y-2663478D01*
X13160276Y-2632915D01*
X13154066Y-2619598D01*
X13154065Y-2619597D01*
X13154065Y-2619596D01*
X13070404Y-2535935D01*
X13070402Y-2535934D01*
X13070401Y-2535933D01*
X12963175Y-2485932D01*
X12930601Y-2481644D01*
X12914316Y-2479500D01*
X12565684Y-2479500D01*
X12549398Y-2481644D01*
X12516825Y-2485932D01*
X12516824Y-2485932D01*
X12409598Y-2535933D01*
X12325933Y-2619598D01*
X12275932Y-2726824D01*
X12275932Y-2726825D01*
X12269500Y-2775685D01*
X12269500Y-2875500D01*
X12250593Y-2933691D01*
X12201093Y-2969655D01*
X12170500Y-2974500D01*
X9368713Y-2974500D01*
X9310522Y-2955593D01*
X9274558Y-2906093D01*
X9274558Y-2844907D01*
X9298709Y-2805496D01*
X9730149Y-2374057D01*
X10302210Y-1801996D01*
X10356727Y-1774219D01*
X10372214Y-1773000D01*
X12212781Y-1773000D01*
X12270972Y-1791907D01*
X12302505Y-1830160D01*
X12325933Y-1880401D01*
X12325934Y-1880402D01*
X12325935Y-1880404D01*
X12409596Y-1964065D01*
X12409597Y-1964065D01*
X12409598Y-1964066D01*
X12516824Y-2014067D01*
X12516825Y-2014067D01*
X12516827Y-2014068D01*
X12565684Y-2020500D01*
X12565685Y-2020500D01*
X12914314Y-2020500D01*
X12914316Y-2020500D01*
X12963173Y-2014068D01*
X13070404Y-1964065D01*
X13154065Y-1880404D01*
X13160275Y-1867085D01*
X13202003Y-1822337D01*
X13262064Y-1810662D01*
X13317517Y-1836519D01*
X13339724Y-1867084D01*
X13345935Y-1880404D01*
X13429596Y-1964065D01*
X13429597Y-1964065D01*
X13429598Y-1964066D01*
X13536824Y-2014067D01*
X13536825Y-2014067D01*
X13536827Y-2014068D01*
X13585684Y-2020500D01*
X13585685Y-2020500D01*
X13934314Y-2020500D01*
X13934316Y-2020500D01*
X13983173Y-2014068D01*
X14090404Y-1964065D01*
X14174065Y-1880404D01*
X14224068Y-1773173D01*
X14230500Y-1724316D01*
X14230500Y-1275684D01*
X14224068Y-1226827D01*
X14201142Y-1177663D01*
X14174066Y-1119598D01*
X14174065Y-1119597D01*
X14174065Y-1119596D01*
X14090404Y-1035935D01*
X14090402Y-1035934D01*
X14090401Y-1035933D01*
X13983175Y-985932D01*
X13950601Y-981644D01*
X13934316Y-979500D01*
X13585684Y-979500D01*
X13569398Y-981644D01*
X13536825Y-985932D01*
X13536824Y-985932D01*
X13429598Y-1035933D01*
X13345933Y-1119598D01*
X13339724Y-1132915D01*
X13297995Y-1177663D01*
X13237934Y-1189337D01*
X13182482Y-1163478D01*
X13160276Y-1132915D01*
X13154066Y-1119598D01*
X13154065Y-1119597D01*
X13154065Y-1119596D01*
X13070404Y-1035935D01*
X13070402Y-1035934D01*
X13070401Y-1035933D01*
X12963175Y-985932D01*
X12930601Y-981644D01*
X12914316Y-979500D01*
X12565684Y-979500D01*
X12549398Y-981644D01*
X12516825Y-985932D01*
X12516824Y-985932D01*
X12409598Y-1035933D01*
X12409596Y-1035935D01*
X12325935Y-1119596D01*
X12293178Y-1189841D01*
X12251452Y-1234587D01*
X12203456Y-1247000D01*
X10257921Y-1247000D01*
X10238608Y-1245098D01*
X10222268Y-1241848D01*
X10196367Y-1247000D01*
X10119651Y-1262260D01*
X10119649Y-1262260D01*
X10119649Y-1262261D01*
X10119648Y-1262261D01*
X10032658Y-1320386D01*
X10032652Y-1320392D01*
X10023400Y-1334238D01*
X10011092Y-1349236D01*
X8589322Y-2771007D01*
X8534805Y-2798784D01*
X8474373Y-2789213D01*
X8431108Y-2745948D01*
X8421537Y-2716490D01*
X8417236Y-2689337D01*
X8409719Y-2641874D01*
X8348528Y-2521780D01*
X8253220Y-2426472D01*
X8253217Y-2426470D01*
X8133129Y-2365282D01*
X8133127Y-2365281D01*
X8000000Y-2344196D01*
X7866872Y-2365281D01*
X7866870Y-2365282D01*
X7746782Y-2426470D01*
X7651470Y-2521782D01*
X7590282Y-2641870D01*
X7590281Y-2641872D01*
X7569828Y-2771007D01*
X7569196Y-2775000D01*
X7584640Y-2872514D01*
X7575070Y-2932945D01*
X7531805Y-2976209D01*
X7486860Y-2987000D01*
X6290849Y-2987000D01*
X6235848Y-2970316D01*
X6190119Y-2939761D01*
X6190117Y-2939760D01*
X6190114Y-2939759D01*
X6190113Y-2939759D01*
X6113411Y-2924501D01*
X6113402Y-2924500D01*
X6113401Y-2924500D01*
X6113399Y-2924500D01*
X4836602Y-2924500D01*
X4836595Y-2924501D01*
X4759883Y-2939759D01*
X4759881Y-2939760D01*
X4672890Y-2997886D01*
X4672886Y-2997890D01*
X4614762Y-3084879D01*
X4614759Y-3084886D01*
X4599501Y-3161589D01*
X4599500Y-3161599D01*
X4599500Y-3338397D01*
X4599501Y-3338404D01*
X4614759Y-3415115D01*
X4614759Y-3415116D01*
X4614760Y-3415117D01*
X4634726Y-3444999D01*
X4651334Y-3503887D01*
X4634727Y-3554999D01*
X4614761Y-3584880D01*
X4614759Y-3584886D01*
X4599501Y-3661589D01*
X4599500Y-3661599D01*
X4599500Y-3838397D01*
X3705500Y-3838397D01*
X3705500Y-2099004D01*
X3704813Y-2090281D01*
X3702970Y-2066856D01*
X3698125Y-2036263D01*
X3697352Y-2031713D01*
X3661408Y-1947617D01*
X3625444Y-1898117D01*
X3601203Y-1870372D01*
X3522693Y-1823464D01*
X3522691Y-1823463D01*
X3522689Y-1823462D01*
X3464499Y-1804556D01*
X3464500Y-1804556D01*
X3401003Y-1794500D01*
X3401000Y-1794500D01*
X1782248Y-1794500D01*
X1782231Y-1794500D01*
X1779995Y-1794516D01*
X1779992Y-1794517D01*
X1715034Y-1805555D01*
X1715031Y-1805556D01*
X1657135Y-1825345D01*
X1600302Y-1855398D01*
X692920Y-2535935D01*
X666300Y-2555900D01*
X651087Y-2569196D01*
X643192Y-2576096D01*
X622500Y-2597104D01*
X620375Y-2599293D01*
X620369Y-2599301D01*
X573466Y-2677803D01*
X573462Y-2677810D01*
X554556Y-2735999D01*
X544500Y-2799496D01*
X544500Y-2799500D01*
X544500Y-5901000D01*
X200500Y-5901000D01*
X200500Y-2374057D01*
X219407Y-2315866D01*
X229496Y-2304053D01*
X2304054Y-229496D01*
X2358571Y-201719D01*
X2374058Y-200500D01*
X31625943Y-200500D01*
X31684134Y-219407D01*
G37*
%TD.AperFunction*%
%TD*%
%TA.AperFunction,Conductor*%
%TO.N,VCC*%
G36*
X3459191Y-2018907D02*
G01*
X3495155Y-2068407D01*
X3500000Y-2099000D01*
X3500000Y-5901000D01*
X3481093Y-5959191D01*
X3431593Y-5995155D01*
X3401000Y-6000000D01*
X3360305Y-6000000D01*
X3305304Y-5983316D01*
X3240119Y-5939761D01*
X3240117Y-5939760D01*
X3240114Y-5939759D01*
X3240113Y-5939759D01*
X3163411Y-5924501D01*
X3163402Y-5924500D01*
X3163401Y-5924500D01*
X3163399Y-5924500D01*
X1886602Y-5924500D01*
X1886595Y-5924501D01*
X1809883Y-5939759D01*
X1809882Y-5939760D01*
X1744696Y-5983316D01*
X1689695Y-6000000D01*
X849000Y-6000000D01*
X790809Y-5981093D01*
X754845Y-5931593D01*
X750000Y-5901000D01*
X750000Y-2799500D01*
X768907Y-2741309D01*
X789600Y-2720300D01*
X1723600Y-2019800D01*
X1781497Y-2000011D01*
X1783000Y-2000000D01*
X3401000Y-2000000D01*
X3459191Y-2018907D01*
G37*
%TD.AperFunction*%
%TD*%
M02*
