M48
; DRILL file {KiCad 7.0.8} date Sat Nov 11 12:05:03 2023
; FORMAT={-:-/ absolute / inch / decimal}
; #@! TF.CreationDate,2023-11-11T12:05:03+10:00
; #@! TF.GenerationSoftware,Kicad,Pcbnew,7.0.8
; #@! TF.FileFunction,Plated,1,4,PTH
FMAT,2
INCH
; #@! TA.AperFunction,Plated,PTH,ViaDrill
T1C0.0118
; #@! TA.AperFunction,Plated,PTH,ComponentDrill
T2C0.0394
%
G90
G05
T1
X0.1476Y-0.1476
X0.1476Y-0.187
X0.1476Y-0.2264
X0.1476Y-0.2657
X0.1476Y-0.3051
X0.1476Y-0.3445
X0.1673Y-0.1673
X0.1673Y-0.2067
X0.1673Y-0.2461
X0.1673Y-0.2854
X0.1673Y-0.3248
X0.1673Y-0.3642
X0.3248Y-0.1476
X0.3248Y-0.187
X0.3248Y-0.2264
X0.3248Y-0.2657
X0.3248Y-0.3051
X0.3248Y-0.3445
X0.3445Y-0.1673
X0.3445Y-0.2067
X0.3445Y-0.2461
X0.3445Y-0.2854
X0.3445Y-0.3248
X0.3445Y-0.3642
X1.0039Y-0.1673
X1.0039Y-0.2067
X1.0039Y-0.2461
X1.0039Y-0.2854
X1.0039Y-0.3248
X1.0039Y-0.3642
X1.0236Y-0.1476
X1.0236Y-0.187
X1.0236Y-0.2264
X1.0236Y-0.2657
X1.0236Y-0.3051
X1.0236Y-0.3445
X1.1713Y-0.1673
X1.1713Y-0.2067
X1.1713Y-0.2461
X1.1713Y-0.2854
X1.1713Y-0.3248
X1.1713Y-0.3642
X1.1909Y-0.1476
X1.1909Y-0.187
X1.1909Y-0.2264
X1.1909Y-0.2657
X1.1909Y-0.3051
X1.1909Y-0.3445
T2
X0.5118Y0.9969
X0.5118Y0.8969
X0.5118Y0.7969
X0.5118Y0.6969
X0.5118Y0.5969
X0.5118Y0.4969
X0.5118Y0.3969
X0.5118Y0.2969
X0.5118Y0.1969
X0.7382Y0.6969
X0.7382Y0.5969
X0.7382Y0.4969
X0.7382Y0.3969
X0.7382Y0.2969
X0.7382Y0.1969
T0
M30
