%TF.GenerationSoftware,KiCad,Pcbnew,7.0.8*%
%TF.CreationDate,2023-11-11T12:05:03+10:00*%
%TF.ProjectId,ProgrammingBoard,50726f67-7261-46d6-9d69-6e67426f6172,rev?*%
%TF.SameCoordinates,Original*%
%TF.FileFunction,Copper,L3,Inr*%
%TF.FilePolarity,Positive*%
%FSLAX46Y46*%
G04 Gerber Fmt 4.6, Leading zero omitted, Abs format (unit mm)*
G04 Created by KiCad (PCBNEW 7.0.8) date 2023-11-11 12:05:03*
%MOMM*%
%LPD*%
G01*
G04 APERTURE LIST*
%TA.AperFunction,ComponentPad*%
%ADD10R,1.700000X1.700000*%
%TD*%
%TA.AperFunction,ComponentPad*%
%ADD11O,1.700000X1.700000*%
%TD*%
%TA.AperFunction,ViaPad*%
%ADD12C,0.450000*%
%TD*%
G04 APERTURE END LIST*
D10*
%TO.N,VCC*%
%TO.C,J6*%
X13000000Y25320000D03*
D11*
%TO.N,/Connectors/SDA*%
X13000000Y22780000D03*
%TO.N,/Connectors/SCL*%
X13000000Y20240000D03*
%TO.N,/Connectors/INT1*%
X13000000Y17700000D03*
%TO.N,/Connectors/SWDIO*%
X13000000Y15160000D03*
%TO.N,/Connectors/SWDCLK*%
X13000000Y12620000D03*
%TO.N,/Connectors/RESET*%
X13000000Y10080000D03*
%TO.N,/Connectors/BUTTON*%
X13000000Y7540000D03*
%TO.N,GND*%
X13000000Y5000000D03*
%TD*%
D10*
%TO.N,VCC*%
%TO.C,J5*%
X18750000Y17700000D03*
D11*
%TO.N,/Connectors/LED0*%
X18750000Y15160000D03*
%TO.N,/Connectors/LED1*%
X18750000Y12620000D03*
%TO.N,/Connectors/LED2*%
X18750000Y10080000D03*
%TO.N,/Connectors/LED3*%
X18750000Y7540000D03*
%TO.N,GND*%
X18750000Y5000000D03*
%TD*%
D12*
%TO.N,GND*%
X4250000Y-9250000D03*
X30250000Y-3750000D03*
X3750000Y-8750000D03*
X3750000Y-6750000D03*
X3750000Y-7750000D03*
X25500000Y-9250000D03*
X4250000Y-7250000D03*
X8250000Y-4750000D03*
X4250000Y-8250000D03*
X26000000Y-3750000D03*
%TO.N,/Connectors/ROW0*%
X25500000Y-4250000D03*
%TO.N,/Connectors/COL9*%
X30250000Y-8750000D03*
%TO.N,/Connectors/ROW1*%
X26000000Y-4750000D03*
%TO.N,/Connectors/COL10*%
X29750000Y-9250000D03*
%TO.N,/Connectors/ROW2*%
X25500000Y-5250000D03*
%TO.N,/Connectors/COL0*%
X29750000Y-4250000D03*
%TO.N,/Connectors/ROW3*%
X26000000Y-5750000D03*
%TO.N,/Connectors/COL1*%
X30250000Y-4750000D03*
%TO.N,/Connectors/ROW4*%
X25500000Y-6250000D03*
%TO.N,/Connectors/COL2*%
X29750000Y-5250000D03*
%TO.N,/Connectors/ROW5*%
X26000000Y-6750000D03*
%TO.N,/Connectors/COL3*%
X30250000Y-5750000D03*
%TO.N,/Connectors/ROW6*%
X25500000Y-7250000D03*
%TO.N,/Connectors/COL4*%
X29750000Y-6250000D03*
%TO.N,/Connectors/ROW7*%
X26000000Y-7750000D03*
%TO.N,/Connectors/COL5*%
X30250000Y-6750000D03*
%TO.N,/Connectors/ROW8*%
X25500000Y-8250000D03*
%TO.N,/Connectors/COL6*%
X29750000Y-7250000D03*
%TO.N,/Connectors/ROW9*%
X26000000Y-8750000D03*
%TO.N,/Connectors/COL7*%
X30250000Y-7750000D03*
%TO.N,/Connectors/COL8*%
X29750000Y-8250000D03*
%TO.N,/Connectors/RESET*%
X8250000Y-6750000D03*
%TO.N,VCC*%
X4250000Y-4250000D03*
X4250000Y-5250000D03*
X3750000Y-5750000D03*
X3750000Y-3750000D03*
X3750000Y-4750000D03*
X4250000Y-6250000D03*
%TO.N,/Connectors/SWDCLK*%
X8750000Y-6250000D03*
%TO.N,/Connectors/SWDIO*%
X8250000Y-5750000D03*
%TO.N,/Connectors/LED0*%
X8750000Y-7250000D03*
%TO.N,/Connectors/LED1*%
X8250000Y-7750000D03*
%TO.N,/Connectors/SDA*%
X8250000Y-3750000D03*
%TO.N,/Connectors/SCL*%
X8750000Y-4250000D03*
%TO.N,/Connectors/LED2*%
X8750000Y-8250000D03*
%TO.N,/Connectors/LED3*%
X8250000Y-8750000D03*
%TO.N,/Connectors/BUTTON*%
X8750000Y-9250000D03*
%TO.N,/Connectors/INT1*%
X8750000Y-5250000D03*
%TD*%
%TA.AperFunction,Conductor*%
%TO.N,VCC*%
G36*
X31508691Y28280593D02*
G01*
X31544655Y28231093D01*
X31549500Y28200500D01*
X31549500Y50884D01*
X31546654Y34138D01*
X31546887Y34111D01*
X31545638Y23027D01*
X31549189Y-8494D01*
X31549500Y-14039D01*
X31549500Y-22589D01*
X31551402Y-30924D01*
X31552332Y-36398D01*
X31555884Y-67926D01*
X31559568Y-78454D01*
X31559348Y-78530D01*
X31559660Y-79284D01*
X31559871Y-79183D01*
X31564710Y-89233D01*
X31584490Y-114036D01*
X31587702Y-118562D01*
X31592250Y-125799D01*
X31592254Y-125804D01*
X31598299Y-131850D01*
X31601998Y-135989D01*
X31621774Y-160786D01*
X31621776Y-160788D01*
X31621777Y-160788D01*
X31630496Y-167741D01*
X31630349Y-167924D01*
X31644205Y-177754D01*
X33770504Y-2304053D01*
X33798281Y-2358570D01*
X33799500Y-2374057D01*
X33799500Y-12700500D01*
X33780593Y-12758691D01*
X33731093Y-12794655D01*
X33700500Y-12799500D01*
X299500Y-12799500D01*
X241309Y-12780593D01*
X205345Y-12731093D01*
X200500Y-12700500D01*
X200500Y-8750000D01*
X3319196Y-8750000D01*
X3340281Y-8883127D01*
X3340282Y-8883129D01*
X3401470Y-9003217D01*
X3401472Y-9003220D01*
X3496780Y-9098528D01*
X3616874Y-9159719D01*
X3738007Y-9178904D01*
X3738692Y-9179013D01*
X3793209Y-9206790D01*
X3820986Y-9261306D01*
X3840281Y-9383127D01*
X3840282Y-9383129D01*
X3901470Y-9503217D01*
X3901472Y-9503220D01*
X3996780Y-9598528D01*
X4116874Y-9659719D01*
X4250000Y-9680804D01*
X4383126Y-9659719D01*
X4503220Y-9598528D01*
X4598528Y-9503220D01*
X4659719Y-9383126D01*
X4680804Y-9250000D01*
X4659719Y-9116874D01*
X4598528Y-8996780D01*
X4503220Y-8901472D01*
X4503217Y-8901470D01*
X4379061Y-8838209D01*
X4335796Y-8794945D01*
X4328678Y-8750000D01*
X7819196Y-8750000D01*
X7840281Y-8883127D01*
X7840282Y-8883129D01*
X7901470Y-9003217D01*
X7901472Y-9003220D01*
X7996780Y-9098528D01*
X8116874Y-9159719D01*
X8238007Y-9178904D01*
X8238692Y-9179013D01*
X8293209Y-9206790D01*
X8320986Y-9261306D01*
X8340281Y-9383127D01*
X8340282Y-9383129D01*
X8401470Y-9503217D01*
X8401472Y-9503220D01*
X8496780Y-9598528D01*
X8616874Y-9659719D01*
X8750000Y-9680804D01*
X8883126Y-9659719D01*
X9003220Y-9598528D01*
X9098528Y-9503220D01*
X9159719Y-9383126D01*
X9180804Y-9250000D01*
X25069196Y-9250000D01*
X25090281Y-9383127D01*
X25090282Y-9383129D01*
X25151470Y-9503217D01*
X25151472Y-9503220D01*
X25246780Y-9598528D01*
X25366874Y-9659719D01*
X25500000Y-9680804D01*
X25633126Y-9659719D01*
X25753220Y-9598528D01*
X25848528Y-9503220D01*
X25909719Y-9383126D01*
X25929013Y-9261306D01*
X25934774Y-9250000D01*
X29319196Y-9250000D01*
X29340281Y-9383127D01*
X29340282Y-9383129D01*
X29401470Y-9503217D01*
X29401472Y-9503220D01*
X29496780Y-9598528D01*
X29616874Y-9659719D01*
X29750000Y-9680804D01*
X29883126Y-9659719D01*
X30003220Y-9598528D01*
X30098528Y-9503220D01*
X30159719Y-9383126D01*
X30179013Y-9261306D01*
X30206790Y-9206791D01*
X30261306Y-9179013D01*
X30383126Y-9159719D01*
X30503220Y-9098528D01*
X30598528Y-9003220D01*
X30659719Y-8883126D01*
X30680804Y-8750000D01*
X30659719Y-8616874D01*
X30598528Y-8496780D01*
X30503220Y-8401472D01*
X30503217Y-8401470D01*
X30379061Y-8338209D01*
X30335796Y-8294945D01*
X30326225Y-8234513D01*
X30354003Y-8179996D01*
X30379061Y-8161791D01*
X30467222Y-8116870D01*
X30503220Y-8098528D01*
X30598528Y-8003220D01*
X30659719Y-7883126D01*
X30680804Y-7750000D01*
X30659719Y-7616874D01*
X30598528Y-7496780D01*
X30503220Y-7401472D01*
X30503217Y-7401470D01*
X30379061Y-7338209D01*
X30335796Y-7294945D01*
X30326225Y-7234513D01*
X30354003Y-7179996D01*
X30379061Y-7161791D01*
X30467222Y-7116870D01*
X30503220Y-7098528D01*
X30598528Y-7003220D01*
X30659719Y-6883126D01*
X30680804Y-6750000D01*
X30659719Y-6616874D01*
X30598528Y-6496780D01*
X30503220Y-6401472D01*
X30503217Y-6401470D01*
X30379061Y-6338209D01*
X30335796Y-6294945D01*
X30326225Y-6234513D01*
X30354003Y-6179996D01*
X30379061Y-6161791D01*
X30467222Y-6116870D01*
X30503220Y-6098528D01*
X30598528Y-6003220D01*
X30659719Y-5883126D01*
X30680804Y-5750000D01*
X30659719Y-5616874D01*
X30598528Y-5496780D01*
X30503220Y-5401472D01*
X30503217Y-5401470D01*
X30379061Y-5338209D01*
X30335796Y-5294945D01*
X30326225Y-5234513D01*
X30354003Y-5179996D01*
X30379061Y-5161791D01*
X30467222Y-5116870D01*
X30503220Y-5098528D01*
X30598528Y-5003220D01*
X30659719Y-4883126D01*
X30680804Y-4750000D01*
X30659719Y-4616874D01*
X30598528Y-4496780D01*
X30503220Y-4401472D01*
X30503217Y-4401470D01*
X30379061Y-4338209D01*
X30335796Y-4294945D01*
X30326225Y-4234513D01*
X30354003Y-4179996D01*
X30379061Y-4161791D01*
X30467222Y-4116870D01*
X30503220Y-4098528D01*
X30598528Y-4003220D01*
X30659719Y-3883126D01*
X30680804Y-3750000D01*
X30659719Y-3616874D01*
X30598528Y-3496780D01*
X30503220Y-3401472D01*
X30503217Y-3401470D01*
X30383129Y-3340282D01*
X30383127Y-3340281D01*
X30250000Y-3319196D01*
X30116872Y-3340281D01*
X30116870Y-3340282D01*
X29996782Y-3401470D01*
X29901470Y-3496782D01*
X29840282Y-3616870D01*
X29840281Y-3616872D01*
X29820986Y-3738693D01*
X29793208Y-3793209D01*
X29738693Y-3820986D01*
X29616872Y-3840281D01*
X29616870Y-3840282D01*
X29496782Y-3901470D01*
X29401470Y-3996782D01*
X29340282Y-4116870D01*
X29340281Y-4116872D01*
X29319196Y-4249999D01*
X29319196Y-4250000D01*
X29340281Y-4383127D01*
X29340282Y-4383129D01*
X29401470Y-4503217D01*
X29401472Y-4503220D01*
X29496780Y-4598528D01*
X29532778Y-4616870D01*
X29620939Y-4661791D01*
X29664203Y-4705056D01*
X29673774Y-4765488D01*
X29645996Y-4820004D01*
X29620939Y-4838209D01*
X29496781Y-4901471D01*
X29401470Y-4996782D01*
X29340282Y-5116870D01*
X29340281Y-5116872D01*
X29319196Y-5249999D01*
X29319196Y-5250000D01*
X29340281Y-5383127D01*
X29340282Y-5383129D01*
X29401470Y-5503217D01*
X29401472Y-5503220D01*
X29496780Y-5598528D01*
X29532778Y-5616870D01*
X29620939Y-5661791D01*
X29664203Y-5705056D01*
X29673774Y-5765488D01*
X29645996Y-5820004D01*
X29620939Y-5838209D01*
X29496781Y-5901471D01*
X29401470Y-5996782D01*
X29340282Y-6116870D01*
X29340281Y-6116872D01*
X29319196Y-6249999D01*
X29319196Y-6250000D01*
X29340281Y-6383127D01*
X29340282Y-6383129D01*
X29401470Y-6503217D01*
X29401472Y-6503220D01*
X29496780Y-6598528D01*
X29532778Y-6616870D01*
X29620939Y-6661791D01*
X29664203Y-6705056D01*
X29673774Y-6765488D01*
X29645996Y-6820004D01*
X29620939Y-6838209D01*
X29496781Y-6901471D01*
X29401470Y-6996782D01*
X29340282Y-7116870D01*
X29340281Y-7116872D01*
X29319196Y-7249999D01*
X29319196Y-7250000D01*
X29340281Y-7383127D01*
X29340282Y-7383129D01*
X29401470Y-7503217D01*
X29401472Y-7503220D01*
X29496780Y-7598528D01*
X29532778Y-7616870D01*
X29620939Y-7661791D01*
X29664203Y-7705056D01*
X29673774Y-7765488D01*
X29645996Y-7820004D01*
X29620939Y-7838209D01*
X29496781Y-7901471D01*
X29401470Y-7996782D01*
X29340282Y-8116870D01*
X29340281Y-8116872D01*
X29319196Y-8249999D01*
X29319196Y-8250000D01*
X29340281Y-8383127D01*
X29340282Y-8383129D01*
X29401470Y-8503217D01*
X29401472Y-8503220D01*
X29496780Y-8598528D01*
X29532778Y-8616870D01*
X29620939Y-8661791D01*
X29664203Y-8705056D01*
X29673774Y-8765488D01*
X29645996Y-8820004D01*
X29620939Y-8838209D01*
X29496781Y-8901471D01*
X29401470Y-8996782D01*
X29340282Y-9116870D01*
X29340281Y-9116872D01*
X29319196Y-9249999D01*
X29319196Y-9250000D01*
X25934774Y-9250000D01*
X25956790Y-9206791D01*
X26011306Y-9179013D01*
X26133126Y-9159719D01*
X26253220Y-9098528D01*
X26348528Y-9003220D01*
X26409719Y-8883126D01*
X26430804Y-8750000D01*
X26409719Y-8616874D01*
X26348528Y-8496780D01*
X26253220Y-8401472D01*
X26253217Y-8401470D01*
X26129061Y-8338209D01*
X26085796Y-8294945D01*
X26076225Y-8234513D01*
X26104003Y-8179996D01*
X26129061Y-8161791D01*
X26217222Y-8116870D01*
X26253220Y-8098528D01*
X26348528Y-8003220D01*
X26409719Y-7883126D01*
X26430804Y-7750000D01*
X26409719Y-7616874D01*
X26348528Y-7496780D01*
X26253220Y-7401472D01*
X26253217Y-7401470D01*
X26129061Y-7338209D01*
X26085796Y-7294945D01*
X26076225Y-7234513D01*
X26104003Y-7179996D01*
X26129061Y-7161791D01*
X26217222Y-7116870D01*
X26253220Y-7098528D01*
X26348528Y-7003220D01*
X26409719Y-6883126D01*
X26430804Y-6750000D01*
X26409719Y-6616874D01*
X26348528Y-6496780D01*
X26253220Y-6401472D01*
X26253217Y-6401470D01*
X26129061Y-6338209D01*
X26085796Y-6294945D01*
X26076225Y-6234513D01*
X26104003Y-6179996D01*
X26129061Y-6161791D01*
X26217222Y-6116870D01*
X26253220Y-6098528D01*
X26348528Y-6003220D01*
X26409719Y-5883126D01*
X26430804Y-5750000D01*
X26409719Y-5616874D01*
X26348528Y-5496780D01*
X26253220Y-5401472D01*
X26253217Y-5401470D01*
X26129061Y-5338209D01*
X26085796Y-5294945D01*
X26076225Y-5234513D01*
X26104003Y-5179996D01*
X26129061Y-5161791D01*
X26217222Y-5116870D01*
X26253220Y-5098528D01*
X26348528Y-5003220D01*
X26409719Y-4883126D01*
X26430804Y-4750000D01*
X26409719Y-4616874D01*
X26348528Y-4496780D01*
X26253220Y-4401472D01*
X26253217Y-4401470D01*
X26129061Y-4338209D01*
X26085796Y-4294945D01*
X26076225Y-4234513D01*
X26104003Y-4179996D01*
X26129061Y-4161791D01*
X26217222Y-4116870D01*
X26253220Y-4098528D01*
X26348528Y-4003220D01*
X26409719Y-3883126D01*
X26430804Y-3750000D01*
X26409719Y-3616874D01*
X26348528Y-3496780D01*
X26253220Y-3401472D01*
X26253217Y-3401470D01*
X26133129Y-3340282D01*
X26133127Y-3340281D01*
X26000000Y-3319196D01*
X25866872Y-3340281D01*
X25866870Y-3340282D01*
X25746782Y-3401470D01*
X25651470Y-3496782D01*
X25590282Y-3616870D01*
X25590281Y-3616872D01*
X25570986Y-3738693D01*
X25543208Y-3793209D01*
X25488693Y-3820986D01*
X25366872Y-3840281D01*
X25366870Y-3840282D01*
X25246782Y-3901470D01*
X25151470Y-3996782D01*
X25090282Y-4116870D01*
X25090281Y-4116872D01*
X25069196Y-4249999D01*
X25069196Y-4250000D01*
X25090281Y-4383127D01*
X25090282Y-4383129D01*
X25151470Y-4503217D01*
X25151472Y-4503220D01*
X25246780Y-4598528D01*
X25282778Y-4616870D01*
X25370939Y-4661791D01*
X25414203Y-4705056D01*
X25423774Y-4765488D01*
X25395996Y-4820004D01*
X25370939Y-4838209D01*
X25246781Y-4901471D01*
X25151470Y-4996782D01*
X25090282Y-5116870D01*
X25090281Y-5116872D01*
X25069196Y-5249999D01*
X25069196Y-5250000D01*
X25090281Y-5383127D01*
X25090282Y-5383129D01*
X25151470Y-5503217D01*
X25151472Y-5503220D01*
X25246780Y-5598528D01*
X25282778Y-5616870D01*
X25370939Y-5661791D01*
X25414203Y-5705056D01*
X25423774Y-5765488D01*
X25395996Y-5820004D01*
X25370939Y-5838209D01*
X25246781Y-5901471D01*
X25151470Y-5996782D01*
X25090282Y-6116870D01*
X25090281Y-6116872D01*
X25069196Y-6249999D01*
X25069196Y-6250000D01*
X25090281Y-6383127D01*
X25090282Y-6383129D01*
X25151470Y-6503217D01*
X25151472Y-6503220D01*
X25246780Y-6598528D01*
X25282778Y-6616870D01*
X25370939Y-6661791D01*
X25414203Y-6705056D01*
X25423774Y-6765488D01*
X25395996Y-6820004D01*
X25370939Y-6838209D01*
X25246781Y-6901471D01*
X25151470Y-6996782D01*
X25090282Y-7116870D01*
X25090281Y-7116872D01*
X25069196Y-7249999D01*
X25069196Y-7250000D01*
X25090281Y-7383127D01*
X25090282Y-7383129D01*
X25151470Y-7503217D01*
X25151472Y-7503220D01*
X25246780Y-7598528D01*
X25282778Y-7616870D01*
X25370939Y-7661791D01*
X25414203Y-7705056D01*
X25423774Y-7765488D01*
X25395996Y-7820004D01*
X25370939Y-7838209D01*
X25246781Y-7901471D01*
X25151470Y-7996782D01*
X25090282Y-8116870D01*
X25090281Y-8116872D01*
X25069196Y-8249999D01*
X25069196Y-8250000D01*
X25090281Y-8383127D01*
X25090282Y-8383129D01*
X25151470Y-8503217D01*
X25151472Y-8503220D01*
X25246780Y-8598528D01*
X25282778Y-8616870D01*
X25370939Y-8661791D01*
X25414203Y-8705056D01*
X25423774Y-8765488D01*
X25395996Y-8820004D01*
X25370939Y-8838209D01*
X25246781Y-8901471D01*
X25151470Y-8996782D01*
X25090282Y-9116870D01*
X25090281Y-9116872D01*
X25069196Y-9249999D01*
X25069196Y-9250000D01*
X9180804Y-9250000D01*
X9159719Y-9116874D01*
X9098528Y-8996780D01*
X9003220Y-8901472D01*
X9003217Y-8901470D01*
X8879061Y-8838209D01*
X8835796Y-8794945D01*
X8826225Y-8734513D01*
X8854003Y-8679996D01*
X8879061Y-8661791D01*
X8967222Y-8616870D01*
X9003220Y-8598528D01*
X9098528Y-8503220D01*
X9159719Y-8383126D01*
X9180804Y-8250000D01*
X9159719Y-8116874D01*
X9098528Y-7996780D01*
X9003220Y-7901472D01*
X9003217Y-7901470D01*
X8879061Y-7838209D01*
X8835796Y-7794945D01*
X8826225Y-7734513D01*
X8854003Y-7679996D01*
X8879061Y-7661791D01*
X8967222Y-7616870D01*
X9003220Y-7598528D01*
X9098528Y-7503220D01*
X9159719Y-7383126D01*
X9180804Y-7250000D01*
X9159719Y-7116874D01*
X9098528Y-6996780D01*
X9003220Y-6901472D01*
X9003217Y-6901470D01*
X8879061Y-6838209D01*
X8835796Y-6794945D01*
X8826225Y-6734513D01*
X8854003Y-6679996D01*
X8879061Y-6661791D01*
X8967222Y-6616870D01*
X9003220Y-6598528D01*
X9098528Y-6503220D01*
X9159719Y-6383126D01*
X9180804Y-6250000D01*
X9159719Y-6116874D01*
X9098528Y-5996780D01*
X9003220Y-5901472D01*
X9003217Y-5901470D01*
X8879061Y-5838209D01*
X8835796Y-5794945D01*
X8826225Y-5734513D01*
X8854003Y-5679996D01*
X8879061Y-5661791D01*
X8967222Y-5616870D01*
X9003220Y-5598528D01*
X9098528Y-5503220D01*
X9159719Y-5383126D01*
X9180804Y-5250000D01*
X9159719Y-5116874D01*
X9098528Y-4996780D01*
X9003220Y-4901472D01*
X9003217Y-4901470D01*
X8879061Y-4838209D01*
X8835796Y-4794945D01*
X8826225Y-4734513D01*
X8854003Y-4679996D01*
X8879061Y-4661791D01*
X8967222Y-4616870D01*
X9003220Y-4598528D01*
X9098528Y-4503220D01*
X9159719Y-4383126D01*
X9180804Y-4250000D01*
X9159719Y-4116874D01*
X9098528Y-3996780D01*
X9003220Y-3901472D01*
X9003217Y-3901470D01*
X8883129Y-3840282D01*
X8883127Y-3840281D01*
X8761306Y-3820986D01*
X8706790Y-3793208D01*
X8679013Y-3738692D01*
X8678904Y-3738007D01*
X8659719Y-3616874D01*
X8598528Y-3496780D01*
X8503220Y-3401472D01*
X8503217Y-3401470D01*
X8383129Y-3340282D01*
X8383127Y-3340281D01*
X8250000Y-3319196D01*
X8116872Y-3340281D01*
X8116870Y-3340282D01*
X7996782Y-3401470D01*
X7901470Y-3496782D01*
X7840282Y-3616870D01*
X7840281Y-3616872D01*
X7819196Y-3749999D01*
X7819196Y-3750000D01*
X7840281Y-3883127D01*
X7840282Y-3883129D01*
X7901470Y-4003217D01*
X7901472Y-4003220D01*
X7996780Y-4098528D01*
X8032778Y-4116870D01*
X8120939Y-4161791D01*
X8164203Y-4205056D01*
X8173774Y-4265488D01*
X8145996Y-4320004D01*
X8120939Y-4338209D01*
X7996781Y-4401471D01*
X7901470Y-4496782D01*
X7840282Y-4616870D01*
X7840281Y-4616872D01*
X7819196Y-4749999D01*
X7819196Y-4750000D01*
X7840281Y-4883127D01*
X7840282Y-4883129D01*
X7901470Y-5003217D01*
X7901472Y-5003220D01*
X7996780Y-5098528D01*
X8032778Y-5116870D01*
X8120939Y-5161791D01*
X8164203Y-5205056D01*
X8173774Y-5265488D01*
X8145996Y-5320004D01*
X8120939Y-5338209D01*
X7996781Y-5401471D01*
X7901470Y-5496782D01*
X7840282Y-5616870D01*
X7840281Y-5616872D01*
X7819196Y-5749999D01*
X7819196Y-5750000D01*
X7840281Y-5883127D01*
X7840282Y-5883129D01*
X7901470Y-6003217D01*
X7901472Y-6003220D01*
X7996780Y-6098528D01*
X8032778Y-6116870D01*
X8120939Y-6161791D01*
X8164203Y-6205056D01*
X8173774Y-6265488D01*
X8145996Y-6320004D01*
X8120939Y-6338209D01*
X7996781Y-6401471D01*
X7901470Y-6496782D01*
X7840282Y-6616870D01*
X7840281Y-6616872D01*
X7819196Y-6749999D01*
X7819196Y-6750000D01*
X7840281Y-6883127D01*
X7840282Y-6883129D01*
X7901470Y-7003217D01*
X7901472Y-7003220D01*
X7996780Y-7098528D01*
X8032778Y-7116870D01*
X8120939Y-7161791D01*
X8164203Y-7205056D01*
X8173774Y-7265488D01*
X8145996Y-7320004D01*
X8120939Y-7338209D01*
X7996781Y-7401471D01*
X7901470Y-7496782D01*
X7840282Y-7616870D01*
X7840281Y-7616872D01*
X7819196Y-7749999D01*
X7819196Y-7750000D01*
X7840281Y-7883127D01*
X7840282Y-7883129D01*
X7901470Y-8003217D01*
X7901472Y-8003220D01*
X7996780Y-8098528D01*
X8032778Y-8116870D01*
X8120939Y-8161791D01*
X8164203Y-8205056D01*
X8173774Y-8265488D01*
X8145996Y-8320004D01*
X8120939Y-8338209D01*
X7996781Y-8401471D01*
X7901470Y-8496782D01*
X7840282Y-8616870D01*
X7840281Y-8616872D01*
X7819196Y-8749999D01*
X7819196Y-8750000D01*
X4328678Y-8750000D01*
X4326225Y-8734513D01*
X4354003Y-8679996D01*
X4379061Y-8661791D01*
X4467222Y-8616870D01*
X4503220Y-8598528D01*
X4598528Y-8503220D01*
X4659719Y-8383126D01*
X4680804Y-8250000D01*
X4659719Y-8116874D01*
X4598528Y-7996780D01*
X4503220Y-7901472D01*
X4503217Y-7901470D01*
X4379061Y-7838209D01*
X4335796Y-7794945D01*
X4326225Y-7734513D01*
X4354003Y-7679996D01*
X4379061Y-7661791D01*
X4467222Y-7616870D01*
X4503220Y-7598528D01*
X4598528Y-7503220D01*
X4659719Y-7383126D01*
X4680804Y-7250000D01*
X4659719Y-7116874D01*
X4598528Y-6996780D01*
X4503220Y-6901472D01*
X4503217Y-6901470D01*
X4383129Y-6840282D01*
X4383127Y-6840281D01*
X4261306Y-6820986D01*
X4206790Y-6793208D01*
X4179013Y-6738692D01*
X4178351Y-6734513D01*
X4159719Y-6616874D01*
X4098528Y-6496780D01*
X4003220Y-6401472D01*
X4003217Y-6401470D01*
X3883129Y-6340282D01*
X3883127Y-6340281D01*
X3750000Y-6319196D01*
X3616872Y-6340281D01*
X3616870Y-6340282D01*
X3496782Y-6401470D01*
X3401470Y-6496782D01*
X3340282Y-6616870D01*
X3340281Y-6616872D01*
X3319196Y-6749999D01*
X3319196Y-6750000D01*
X3340281Y-6883127D01*
X3340282Y-6883129D01*
X3401470Y-7003217D01*
X3401472Y-7003220D01*
X3496780Y-7098528D01*
X3532778Y-7116870D01*
X3620939Y-7161791D01*
X3664203Y-7205056D01*
X3673774Y-7265488D01*
X3645996Y-7320004D01*
X3620939Y-7338209D01*
X3496781Y-7401471D01*
X3401470Y-7496782D01*
X3340282Y-7616870D01*
X3340281Y-7616872D01*
X3319196Y-7749999D01*
X3319196Y-7750000D01*
X3340281Y-7883127D01*
X3340282Y-7883129D01*
X3401470Y-8003217D01*
X3401472Y-8003220D01*
X3496780Y-8098528D01*
X3532778Y-8116870D01*
X3620939Y-8161791D01*
X3664203Y-8205056D01*
X3673774Y-8265488D01*
X3645996Y-8320004D01*
X3620939Y-8338209D01*
X3496781Y-8401471D01*
X3401470Y-8496782D01*
X3340282Y-8616870D01*
X3340281Y-8616872D01*
X3319196Y-8749999D01*
X3319196Y-8750000D01*
X200500Y-8750000D01*
X200500Y-2374057D01*
X219407Y-2315866D01*
X229496Y-2304053D01*
X449412Y-2084137D01*
X2355794Y-177754D01*
X2369644Y-167928D01*
X2369499Y-167746D01*
X2378222Y-160789D01*
X2378222Y-160788D01*
X2378224Y-160788D01*
X2398002Y-135986D01*
X2401699Y-131850D01*
X2407749Y-125801D01*
X2412304Y-118551D01*
X2415499Y-114046D01*
X2435290Y-89231D01*
X2435290Y-89227D01*
X2440131Y-79178D01*
X2440343Y-79280D01*
X2440652Y-78532D01*
X2440431Y-78455D01*
X2444115Y-67925D01*
X2444114Y-67925D01*
X2444116Y-67924D01*
X2447670Y-36372D01*
X2448596Y-30929D01*
X2450500Y-22590D01*
X2450500Y-14039D01*
X2450811Y-8499D01*
X2450812Y-8494D01*
X2454363Y23027D01*
X2454361Y23031D01*
X2453114Y34112D01*
X2453345Y34139D01*
X2450500Y50888D01*
X2450500Y4999997D01*
X11944417Y4999997D01*
X11964698Y4794071D01*
X11964699Y4794066D01*
X12024768Y4596046D01*
X12122316Y4413548D01*
X12253585Y4253596D01*
X12253590Y4253590D01*
X12253595Y4253586D01*
X12413547Y4122317D01*
X12413548Y4122317D01*
X12413550Y4122315D01*
X12596046Y4024768D01*
X12733997Y3982922D01*
X12794065Y3964700D01*
X12794070Y3964699D01*
X12999997Y3944417D01*
X13000000Y3944417D01*
X13000003Y3944417D01*
X13205929Y3964699D01*
X13205934Y3964700D01*
X13403954Y4024768D01*
X13586450Y4122315D01*
X13746410Y4253590D01*
X13877685Y4413550D01*
X13975232Y4596046D01*
X14035300Y4794066D01*
X14035301Y4794071D01*
X14055583Y4999997D01*
X17694417Y4999997D01*
X17714698Y4794071D01*
X17714699Y4794066D01*
X17774768Y4596046D01*
X17872316Y4413548D01*
X18003585Y4253596D01*
X18003590Y4253590D01*
X18003595Y4253586D01*
X18163547Y4122317D01*
X18163548Y4122317D01*
X18163550Y4122315D01*
X18346046Y4024768D01*
X18483997Y3982922D01*
X18544065Y3964700D01*
X18544070Y3964699D01*
X18749997Y3944417D01*
X18750000Y3944417D01*
X18750003Y3944417D01*
X18955929Y3964699D01*
X18955934Y3964700D01*
X19153954Y4024768D01*
X19336450Y4122315D01*
X19496410Y4253590D01*
X19627685Y4413550D01*
X19725232Y4596046D01*
X19785300Y4794066D01*
X19785301Y4794071D01*
X19805583Y4999997D01*
X19805583Y5000004D01*
X19785301Y5205930D01*
X19785300Y5205935D01*
X19767078Y5266003D01*
X19725232Y5403954D01*
X19627685Y5586450D01*
X19496410Y5746410D01*
X19496404Y5746415D01*
X19336452Y5877684D01*
X19153954Y5975232D01*
X18955934Y6035301D01*
X18955929Y6035302D01*
X18750003Y6055583D01*
X18749997Y6055583D01*
X18544070Y6035302D01*
X18544065Y6035301D01*
X18346045Y5975232D01*
X18163547Y5877684D01*
X18003595Y5746415D01*
X18003585Y5746405D01*
X17872316Y5586453D01*
X17774768Y5403955D01*
X17714699Y5205935D01*
X17714698Y5205930D01*
X17694417Y5000004D01*
X17694417Y4999997D01*
X14055583Y4999997D01*
X14055583Y5000004D01*
X14035301Y5205930D01*
X14035300Y5205935D01*
X14017078Y5266003D01*
X13975232Y5403954D01*
X13877685Y5586450D01*
X13746410Y5746410D01*
X13746404Y5746415D01*
X13586452Y5877684D01*
X13403954Y5975232D01*
X13205934Y6035301D01*
X13205929Y6035302D01*
X13000003Y6055583D01*
X12999997Y6055583D01*
X12794070Y6035302D01*
X12794065Y6035301D01*
X12596045Y5975232D01*
X12413547Y5877684D01*
X12253595Y5746415D01*
X12253585Y5746405D01*
X12122316Y5586453D01*
X12024768Y5403955D01*
X11964699Y5205935D01*
X11964698Y5205930D01*
X11944417Y5000004D01*
X11944417Y4999997D01*
X2450500Y4999997D01*
X2450500Y7539997D01*
X11944417Y7539997D01*
X11964698Y7334071D01*
X11964699Y7334066D01*
X12024768Y7136046D01*
X12122316Y6953548D01*
X12253585Y6793596D01*
X12253590Y6793590D01*
X12253595Y6793586D01*
X12413547Y6662317D01*
X12413548Y6662317D01*
X12413550Y6662315D01*
X12596046Y6564768D01*
X12733997Y6522922D01*
X12794065Y6504700D01*
X12794070Y6504699D01*
X12999997Y6484417D01*
X13000000Y6484417D01*
X13000003Y6484417D01*
X13205929Y6504699D01*
X13205934Y6504700D01*
X13403954Y6564768D01*
X13586450Y6662315D01*
X13746410Y6793590D01*
X13877685Y6953550D01*
X13975232Y7136046D01*
X14035300Y7334066D01*
X14035301Y7334071D01*
X14055583Y7539997D01*
X17694417Y7539997D01*
X17714698Y7334071D01*
X17714699Y7334066D01*
X17774768Y7136046D01*
X17872316Y6953548D01*
X18003585Y6793596D01*
X18003590Y6793590D01*
X18003595Y6793586D01*
X18163547Y6662317D01*
X18163548Y6662317D01*
X18163550Y6662315D01*
X18346046Y6564768D01*
X18483997Y6522922D01*
X18544065Y6504700D01*
X18544070Y6504699D01*
X18749997Y6484417D01*
X18750000Y6484417D01*
X18750003Y6484417D01*
X18955929Y6504699D01*
X18955934Y6504700D01*
X19153954Y6564768D01*
X19336450Y6662315D01*
X19496410Y6793590D01*
X19627685Y6953550D01*
X19725232Y7136046D01*
X19785300Y7334066D01*
X19785301Y7334071D01*
X19805583Y7539997D01*
X19805583Y7540004D01*
X19785301Y7745930D01*
X19785300Y7745935D01*
X19767078Y7806003D01*
X19725232Y7943954D01*
X19627685Y8126450D01*
X19496410Y8286410D01*
X19496404Y8286415D01*
X19336452Y8417684D01*
X19153954Y8515232D01*
X18955934Y8575301D01*
X18955929Y8575302D01*
X18750003Y8595583D01*
X18749997Y8595583D01*
X18544070Y8575302D01*
X18544065Y8575301D01*
X18346045Y8515232D01*
X18163547Y8417684D01*
X18003595Y8286415D01*
X18003585Y8286405D01*
X17872316Y8126453D01*
X17774768Y7943955D01*
X17714699Y7745935D01*
X17714698Y7745930D01*
X17694417Y7540004D01*
X17694417Y7539997D01*
X14055583Y7539997D01*
X14055583Y7540004D01*
X14035301Y7745930D01*
X14035300Y7745935D01*
X14017078Y7806003D01*
X13975232Y7943954D01*
X13877685Y8126450D01*
X13746410Y8286410D01*
X13746404Y8286415D01*
X13586452Y8417684D01*
X13403954Y8515232D01*
X13205934Y8575301D01*
X13205929Y8575302D01*
X13000003Y8595583D01*
X12999997Y8595583D01*
X12794070Y8575302D01*
X12794065Y8575301D01*
X12596045Y8515232D01*
X12413547Y8417684D01*
X12253595Y8286415D01*
X12253585Y8286405D01*
X12122316Y8126453D01*
X12024768Y7943955D01*
X11964699Y7745935D01*
X11964698Y7745930D01*
X11944417Y7540004D01*
X11944417Y7539997D01*
X2450500Y7539997D01*
X2450500Y10079997D01*
X11944417Y10079997D01*
X11964698Y9874071D01*
X11964699Y9874066D01*
X12024768Y9676046D01*
X12122316Y9493548D01*
X12253585Y9333596D01*
X12253590Y9333590D01*
X12253595Y9333586D01*
X12413547Y9202317D01*
X12413548Y9202317D01*
X12413550Y9202315D01*
X12596046Y9104768D01*
X12733997Y9062922D01*
X12794065Y9044700D01*
X12794070Y9044699D01*
X12999997Y9024417D01*
X13000000Y9024417D01*
X13000003Y9024417D01*
X13205929Y9044699D01*
X13205934Y9044700D01*
X13403954Y9104768D01*
X13586450Y9202315D01*
X13746410Y9333590D01*
X13877685Y9493550D01*
X13975232Y9676046D01*
X14035300Y9874066D01*
X14035301Y9874071D01*
X14055583Y10079997D01*
X17694417Y10079997D01*
X17714698Y9874071D01*
X17714699Y9874066D01*
X17774768Y9676046D01*
X17872316Y9493548D01*
X18003585Y9333596D01*
X18003590Y9333590D01*
X18003595Y9333586D01*
X18163547Y9202317D01*
X18163548Y9202317D01*
X18163550Y9202315D01*
X18346046Y9104768D01*
X18483997Y9062922D01*
X18544065Y9044700D01*
X18544070Y9044699D01*
X18749997Y9024417D01*
X18750000Y9024417D01*
X18750003Y9024417D01*
X18955929Y9044699D01*
X18955934Y9044700D01*
X19153954Y9104768D01*
X19336450Y9202315D01*
X19496410Y9333590D01*
X19627685Y9493550D01*
X19725232Y9676046D01*
X19785300Y9874066D01*
X19785301Y9874071D01*
X19805583Y10079997D01*
X19805583Y10080004D01*
X19785301Y10285930D01*
X19785300Y10285935D01*
X19767078Y10346003D01*
X19725232Y10483954D01*
X19627685Y10666450D01*
X19496410Y10826410D01*
X19496404Y10826415D01*
X19336452Y10957684D01*
X19153954Y11055232D01*
X18955934Y11115301D01*
X18955929Y11115302D01*
X18750003Y11135583D01*
X18749997Y11135583D01*
X18544070Y11115302D01*
X18544065Y11115301D01*
X18346045Y11055232D01*
X18163547Y10957684D01*
X18003595Y10826415D01*
X18003585Y10826405D01*
X17872316Y10666453D01*
X17774768Y10483955D01*
X17714699Y10285935D01*
X17714698Y10285930D01*
X17694417Y10080004D01*
X17694417Y10079997D01*
X14055583Y10079997D01*
X14055583Y10080004D01*
X14035301Y10285930D01*
X14035300Y10285935D01*
X14017078Y10346003D01*
X13975232Y10483954D01*
X13877685Y10666450D01*
X13746410Y10826410D01*
X13746404Y10826415D01*
X13586452Y10957684D01*
X13403954Y11055232D01*
X13205934Y11115301D01*
X13205929Y11115302D01*
X13000003Y11135583D01*
X12999997Y11135583D01*
X12794070Y11115302D01*
X12794065Y11115301D01*
X12596045Y11055232D01*
X12413547Y10957684D01*
X12253595Y10826415D01*
X12253585Y10826405D01*
X12122316Y10666453D01*
X12024768Y10483955D01*
X11964699Y10285935D01*
X11964698Y10285930D01*
X11944417Y10080004D01*
X11944417Y10079997D01*
X2450500Y10079997D01*
X2450500Y12619997D01*
X11944417Y12619997D01*
X11964698Y12414071D01*
X11964699Y12414066D01*
X12024768Y12216046D01*
X12122316Y12033548D01*
X12253585Y11873596D01*
X12253590Y11873590D01*
X12253595Y11873586D01*
X12413547Y11742317D01*
X12413548Y11742317D01*
X12413550Y11742315D01*
X12596046Y11644768D01*
X12733997Y11602922D01*
X12794065Y11584700D01*
X12794070Y11584699D01*
X12999997Y11564417D01*
X13000000Y11564417D01*
X13000003Y11564417D01*
X13205929Y11584699D01*
X13205934Y11584700D01*
X13403954Y11644768D01*
X13586450Y11742315D01*
X13746410Y11873590D01*
X13877685Y12033550D01*
X13975232Y12216046D01*
X14035300Y12414066D01*
X14035301Y12414071D01*
X14055583Y12619997D01*
X17694417Y12619997D01*
X17714698Y12414071D01*
X17714699Y12414066D01*
X17774768Y12216046D01*
X17872316Y12033548D01*
X18003585Y11873596D01*
X18003590Y11873590D01*
X18003595Y11873586D01*
X18163547Y11742317D01*
X18163548Y11742317D01*
X18163550Y11742315D01*
X18346046Y11644768D01*
X18483997Y11602922D01*
X18544065Y11584700D01*
X18544070Y11584699D01*
X18749997Y11564417D01*
X18750000Y11564417D01*
X18750003Y11564417D01*
X18955929Y11584699D01*
X18955934Y11584700D01*
X19153954Y11644768D01*
X19336450Y11742315D01*
X19496410Y11873590D01*
X19627685Y12033550D01*
X19725232Y12216046D01*
X19785300Y12414066D01*
X19785301Y12414071D01*
X19805583Y12619997D01*
X19805583Y12620004D01*
X19785301Y12825930D01*
X19785300Y12825935D01*
X19767078Y12886003D01*
X19725232Y13023954D01*
X19627685Y13206450D01*
X19496410Y13366410D01*
X19496404Y13366415D01*
X19336452Y13497684D01*
X19153954Y13595232D01*
X18955934Y13655301D01*
X18955929Y13655302D01*
X18750003Y13675583D01*
X18749997Y13675583D01*
X18544070Y13655302D01*
X18544065Y13655301D01*
X18346045Y13595232D01*
X18163547Y13497684D01*
X18003595Y13366415D01*
X18003585Y13366405D01*
X17872316Y13206453D01*
X17774768Y13023955D01*
X17714699Y12825935D01*
X17714698Y12825930D01*
X17694417Y12620004D01*
X17694417Y12619997D01*
X14055583Y12619997D01*
X14055583Y12620004D01*
X14035301Y12825930D01*
X14035300Y12825935D01*
X14017078Y12886003D01*
X13975232Y13023954D01*
X13877685Y13206450D01*
X13746410Y13366410D01*
X13746404Y13366415D01*
X13586452Y13497684D01*
X13403954Y13595232D01*
X13205934Y13655301D01*
X13205929Y13655302D01*
X13000003Y13675583D01*
X12999997Y13675583D01*
X12794070Y13655302D01*
X12794065Y13655301D01*
X12596045Y13595232D01*
X12413547Y13497684D01*
X12253595Y13366415D01*
X12253585Y13366405D01*
X12122316Y13206453D01*
X12024768Y13023955D01*
X11964699Y12825935D01*
X11964698Y12825930D01*
X11944417Y12620004D01*
X11944417Y12619997D01*
X2450500Y12619997D01*
X2450500Y15159997D01*
X11944417Y15159997D01*
X11964698Y14954071D01*
X11964699Y14954066D01*
X12024768Y14756046D01*
X12122316Y14573548D01*
X12253585Y14413596D01*
X12253590Y14413590D01*
X12253595Y14413586D01*
X12413547Y14282317D01*
X12413548Y14282317D01*
X12413550Y14282315D01*
X12596046Y14184768D01*
X12733997Y14142922D01*
X12794065Y14124700D01*
X12794070Y14124699D01*
X12999997Y14104417D01*
X13000000Y14104417D01*
X13000003Y14104417D01*
X13205929Y14124699D01*
X13205934Y14124700D01*
X13403954Y14184768D01*
X13586450Y14282315D01*
X13746410Y14413590D01*
X13877685Y14573550D01*
X13975232Y14756046D01*
X14035300Y14954066D01*
X14035301Y14954071D01*
X14055583Y15159997D01*
X17694417Y15159997D01*
X17714698Y14954071D01*
X17714699Y14954066D01*
X17774768Y14756046D01*
X17872316Y14573548D01*
X18003585Y14413596D01*
X18003590Y14413590D01*
X18003595Y14413586D01*
X18163547Y14282317D01*
X18163548Y14282317D01*
X18163550Y14282315D01*
X18346046Y14184768D01*
X18483997Y14142922D01*
X18544065Y14124700D01*
X18544070Y14124699D01*
X18749997Y14104417D01*
X18750000Y14104417D01*
X18750003Y14104417D01*
X18955929Y14124699D01*
X18955934Y14124700D01*
X19153954Y14184768D01*
X19336450Y14282315D01*
X19496410Y14413590D01*
X19627685Y14573550D01*
X19725232Y14756046D01*
X19785300Y14954066D01*
X19785301Y14954071D01*
X19805583Y15159997D01*
X19805583Y15160004D01*
X19785301Y15365930D01*
X19785300Y15365935D01*
X19767078Y15426003D01*
X19725232Y15563954D01*
X19627685Y15746450D01*
X19496410Y15906410D01*
X19496404Y15906415D01*
X19336452Y16037684D01*
X19153954Y16135232D01*
X18955934Y16195301D01*
X18955929Y16195302D01*
X18750003Y16215583D01*
X18749997Y16215583D01*
X18544070Y16195302D01*
X18544065Y16195301D01*
X18346045Y16135232D01*
X18163547Y16037684D01*
X18003595Y15906415D01*
X18003585Y15906405D01*
X17872316Y15746453D01*
X17774768Y15563955D01*
X17714699Y15365935D01*
X17714698Y15365930D01*
X17694417Y15160004D01*
X17694417Y15159997D01*
X14055583Y15159997D01*
X14055583Y15160004D01*
X14035301Y15365930D01*
X14035300Y15365935D01*
X14017078Y15426003D01*
X13975232Y15563954D01*
X13877685Y15746450D01*
X13746410Y15906410D01*
X13746404Y15906415D01*
X13586452Y16037684D01*
X13403954Y16135232D01*
X13205934Y16195301D01*
X13205929Y16195302D01*
X13000003Y16215583D01*
X12999997Y16215583D01*
X12794070Y16195302D01*
X12794065Y16195301D01*
X12596045Y16135232D01*
X12413547Y16037684D01*
X12253595Y15906415D01*
X12253585Y15906405D01*
X12122316Y15746453D01*
X12024768Y15563955D01*
X11964699Y15365935D01*
X11964698Y15365930D01*
X11944417Y15160004D01*
X11944417Y15159997D01*
X2450500Y15159997D01*
X2450500Y17699997D01*
X11944417Y17699997D01*
X11964698Y17494071D01*
X11964699Y17494066D01*
X12024768Y17296046D01*
X12122316Y17113548D01*
X12253585Y16953596D01*
X12253590Y16953590D01*
X12253595Y16953586D01*
X12413547Y16822317D01*
X12413548Y16822317D01*
X12413550Y16822315D01*
X12596046Y16724768D01*
X12733997Y16682922D01*
X12794065Y16664700D01*
X12794070Y16664699D01*
X12999997Y16644417D01*
X13000000Y16644417D01*
X13000003Y16644417D01*
X13205929Y16664699D01*
X13205934Y16664700D01*
X13248206Y16677523D01*
X13403954Y16724768D01*
X13586450Y16822315D01*
X13746410Y16953590D01*
X13877685Y17113550D01*
X13975232Y17296046D01*
X14035300Y17494066D01*
X14035301Y17494071D01*
X14055583Y17699997D01*
X14055583Y17700004D01*
X14040810Y17850001D01*
X17600000Y17850001D01*
X17600001Y17850000D01*
X18272935Y17850000D01*
X18250000Y17771889D01*
X18250000Y17628111D01*
X18272935Y17550000D01*
X17600002Y17550000D01*
X17600001Y17549999D01*
X17600001Y16805209D01*
X17602909Y16780126D01*
X17648213Y16677523D01*
X17727522Y16598214D01*
X17830127Y16552910D01*
X17855203Y16550001D01*
X18599998Y16550001D01*
X18600000Y16550002D01*
X18600000Y17218830D01*
X18607685Y17215320D01*
X18714237Y17200000D01*
X18785763Y17200000D01*
X18892315Y17215320D01*
X18900000Y17218830D01*
X18900000Y16550002D01*
X18900001Y16550001D01*
X19644790Y16550001D01*
X19644791Y16550002D01*
X19669874Y16552910D01*
X19772477Y16598214D01*
X19851786Y16677523D01*
X19897090Y16780128D01*
X19899999Y16805203D01*
X19900000Y16805205D01*
X19900000Y17549999D01*
X19899999Y17550000D01*
X19227065Y17550000D01*
X19250000Y17628111D01*
X19250000Y17771889D01*
X19227065Y17850000D01*
X19899998Y17850000D01*
X19899999Y17850001D01*
X19899999Y18594790D01*
X19899998Y18594792D01*
X19897090Y18619875D01*
X19851786Y18722478D01*
X19772477Y18801787D01*
X19669872Y18847091D01*
X19644797Y18850000D01*
X18900001Y18850000D01*
X18900000Y18849999D01*
X18900000Y18181171D01*
X18892315Y18184680D01*
X18785763Y18200000D01*
X18714237Y18200000D01*
X18607685Y18184680D01*
X18600000Y18181171D01*
X18600000Y18849999D01*
X18599999Y18850000D01*
X17855210Y18850000D01*
X17855207Y18849999D01*
X17830125Y18847091D01*
X17727522Y18801787D01*
X17648213Y18722478D01*
X17602909Y18619873D01*
X17600000Y18594798D01*
X17600000Y17850001D01*
X14040810Y17850001D01*
X14035301Y17905930D01*
X14035300Y17905935D01*
X13997423Y18030798D01*
X13975232Y18103954D01*
X13877685Y18286450D01*
X13746410Y18446410D01*
X13746404Y18446415D01*
X13586452Y18577684D01*
X13403954Y18675232D01*
X13205934Y18735301D01*
X13205929Y18735302D01*
X13000003Y18755583D01*
X12999997Y18755583D01*
X12794070Y18735302D01*
X12794065Y18735301D01*
X12596045Y18675232D01*
X12413547Y18577684D01*
X12253595Y18446415D01*
X12253585Y18446405D01*
X12122316Y18286453D01*
X12024768Y18103955D01*
X11964699Y17905935D01*
X11964698Y17905930D01*
X11944417Y17700004D01*
X11944417Y17699997D01*
X2450500Y17699997D01*
X2450500Y20239997D01*
X11944417Y20239997D01*
X11964698Y20034071D01*
X11964699Y20034066D01*
X12024768Y19836046D01*
X12122316Y19653548D01*
X12253585Y19493596D01*
X12253590Y19493590D01*
X12253595Y19493586D01*
X12413547Y19362317D01*
X12413548Y19362317D01*
X12413550Y19362315D01*
X12596046Y19264768D01*
X12733997Y19222922D01*
X12794065Y19204700D01*
X12794070Y19204699D01*
X12999997Y19184417D01*
X13000000Y19184417D01*
X13000003Y19184417D01*
X13205929Y19204699D01*
X13205934Y19204700D01*
X13403954Y19264768D01*
X13586450Y19362315D01*
X13746410Y19493590D01*
X13877685Y19653550D01*
X13975232Y19836046D01*
X14035300Y20034066D01*
X14035301Y20034071D01*
X14055583Y20239997D01*
X14055583Y20240004D01*
X14035301Y20445930D01*
X14035300Y20445935D01*
X14017078Y20506003D01*
X13975232Y20643954D01*
X13877685Y20826450D01*
X13746410Y20986410D01*
X13746404Y20986415D01*
X13586452Y21117684D01*
X13403954Y21215232D01*
X13205934Y21275301D01*
X13205929Y21275302D01*
X13000003Y21295583D01*
X12999997Y21295583D01*
X12794070Y21275302D01*
X12794065Y21275301D01*
X12596045Y21215232D01*
X12413547Y21117684D01*
X12253595Y20986415D01*
X12253585Y20986405D01*
X12122316Y20826453D01*
X12024768Y20643955D01*
X11964699Y20445935D01*
X11964698Y20445930D01*
X11944417Y20240004D01*
X11944417Y20239997D01*
X2450500Y20239997D01*
X2450500Y22779997D01*
X11944417Y22779997D01*
X11964698Y22574071D01*
X11964699Y22574066D01*
X12024768Y22376046D01*
X12122316Y22193548D01*
X12253585Y22033596D01*
X12253590Y22033590D01*
X12253595Y22033586D01*
X12413547Y21902317D01*
X12413548Y21902317D01*
X12413550Y21902315D01*
X12596046Y21804768D01*
X12733997Y21762922D01*
X12794065Y21744700D01*
X12794070Y21744699D01*
X12999997Y21724417D01*
X13000000Y21724417D01*
X13000003Y21724417D01*
X13205929Y21744699D01*
X13205934Y21744700D01*
X13403954Y21804768D01*
X13586450Y21902315D01*
X13746410Y22033590D01*
X13877685Y22193550D01*
X13975232Y22376046D01*
X14035300Y22574066D01*
X14035301Y22574071D01*
X14055583Y22779997D01*
X14055583Y22780004D01*
X14035301Y22985930D01*
X14035300Y22985935D01*
X14017078Y23046003D01*
X13975232Y23183954D01*
X13877685Y23366450D01*
X13746410Y23526410D01*
X13746404Y23526415D01*
X13586452Y23657684D01*
X13403954Y23755232D01*
X13205934Y23815301D01*
X13205929Y23815302D01*
X13000003Y23835583D01*
X12999997Y23835583D01*
X12794070Y23815302D01*
X12794065Y23815301D01*
X12596045Y23755232D01*
X12413547Y23657684D01*
X12253595Y23526415D01*
X12253585Y23526405D01*
X12122316Y23366453D01*
X12024768Y23183955D01*
X11964699Y22985935D01*
X11964698Y22985930D01*
X11944417Y22780004D01*
X11944417Y22779997D01*
X2450500Y22779997D01*
X2450500Y25470001D01*
X11850000Y25470001D01*
X11850001Y25470000D01*
X12522935Y25470000D01*
X12500000Y25391889D01*
X12500000Y25248111D01*
X12522935Y25170000D01*
X11850002Y25170000D01*
X11850001Y25169999D01*
X11850001Y24425209D01*
X11852909Y24400126D01*
X11898213Y24297523D01*
X11977522Y24218214D01*
X12080127Y24172910D01*
X12105203Y24170001D01*
X12849998Y24170001D01*
X12850000Y24170002D01*
X12850000Y24838830D01*
X12857685Y24835320D01*
X12964237Y24820000D01*
X13035763Y24820000D01*
X13142315Y24835320D01*
X13150000Y24838830D01*
X13150000Y24170002D01*
X13150001Y24170001D01*
X13894790Y24170001D01*
X13894791Y24170002D01*
X13919874Y24172910D01*
X14022477Y24218214D01*
X14101786Y24297523D01*
X14147090Y24400128D01*
X14149999Y24425203D01*
X14150000Y24425205D01*
X14150000Y25169999D01*
X14149999Y25170000D01*
X13477065Y25170000D01*
X13500000Y25248111D01*
X13500000Y25391889D01*
X13477065Y25470000D01*
X14149998Y25470000D01*
X14149999Y25470001D01*
X14149999Y26214790D01*
X14149998Y26214792D01*
X14147090Y26239875D01*
X14101786Y26342478D01*
X14022477Y26421787D01*
X13919872Y26467091D01*
X13894797Y26470000D01*
X13150001Y26470000D01*
X13150000Y26469999D01*
X13150000Y25801171D01*
X13142315Y25804680D01*
X13035763Y25820000D01*
X12964237Y25820000D01*
X12857685Y25804680D01*
X12850000Y25801171D01*
X12850000Y26469999D01*
X12849999Y26470000D01*
X12105210Y26470000D01*
X12105207Y26469999D01*
X12080125Y26467091D01*
X11977522Y26421787D01*
X11898213Y26342478D01*
X11852909Y26239873D01*
X11850000Y26214798D01*
X11850000Y25470001D01*
X2450500Y25470001D01*
X2450500Y28200500D01*
X2469407Y28258691D01*
X2518907Y28294655D01*
X2549500Y28299500D01*
X31450500Y28299500D01*
X31508691Y28280593D01*
G37*
%TD.AperFunction*%
%TD*%
M02*
