%TF.GenerationSoftware,KiCad,Pcbnew,7.0.7*%
%TF.CreationDate,2023-10-20T16:04:56+10:00*%
%TF.ProjectId,ProgrammingBoard,50726f67-7261-46d6-9d69-6e67426f6172,rev?*%
%TF.SameCoordinates,Original*%
%TF.FileFunction,Legend,Bot*%
%TF.FilePolarity,Positive*%
%FSLAX46Y46*%
G04 Gerber Fmt 4.6, Leading zero omitted, Abs format (unit mm)*
G04 Created by KiCad (PCBNEW 7.0.7) date 2023-10-20 16:04:56*
%MOMM*%
%LPD*%
G01*
G04 APERTURE LIST*
G04 Aperture macros list*
%AMRoundRect*
0 Rectangle with rounded corners*
0 $1 Rounding radius*
0 $2 $3 $4 $5 $6 $7 $8 $9 X,Y pos of 4 corners*
0 Add a 4 corners polygon primitive as box body*
4,1,4,$2,$3,$4,$5,$6,$7,$8,$9,$2,$3,0*
0 Add four circle primitives for the rounded corners*
1,1,$1+$1,$2,$3*
1,1,$1+$1,$4,$5*
1,1,$1+$1,$6,$7*
1,1,$1+$1,$8,$9*
0 Add four rect primitives between the rounded corners*
20,1,$1+$1,$2,$3,$4,$5,0*
20,1,$1+$1,$4,$5,$6,$7,0*
20,1,$1+$1,$6,$7,$8,$9,0*
20,1,$1+$1,$8,$9,$2,$3,0*%
G04 Aperture macros list end*
%ADD10C,0.150000*%
%ADD11C,0.100000*%
%ADD12C,0.250000*%
%ADD13R,1.700000X1.700000*%
%ADD14O,1.700000X1.700000*%
%ADD15RoundRect,0.062500X0.612500X0.062500X-0.612500X0.062500X-0.612500X-0.062500X0.612500X-0.062500X0*%
G04 APERTURE END LIST*
D10*
X23508458Y44545181D02*
X22889411Y44545181D01*
X22889411Y44545181D02*
X23222744Y44164229D01*
X23222744Y44164229D02*
X23079887Y44164229D01*
X23079887Y44164229D02*
X22984649Y44116610D01*
X22984649Y44116610D02*
X22937030Y44068991D01*
X22937030Y44068991D02*
X22889411Y43973753D01*
X22889411Y43973753D02*
X22889411Y43735658D01*
X22889411Y43735658D02*
X22937030Y43640420D01*
X22937030Y43640420D02*
X22984649Y43592800D01*
X22984649Y43592800D02*
X23079887Y43545181D01*
X23079887Y43545181D02*
X23365601Y43545181D01*
X23365601Y43545181D02*
X23460839Y43592800D01*
X23460839Y43592800D02*
X23508458Y43640420D01*
X22460839Y43640420D02*
X22413220Y43592800D01*
X22413220Y43592800D02*
X22460839Y43545181D01*
X22460839Y43545181D02*
X22508458Y43592800D01*
X22508458Y43592800D02*
X22460839Y43640420D01*
X22460839Y43640420D02*
X22460839Y43545181D01*
X22079887Y44545181D02*
X21460840Y44545181D01*
X21460840Y44545181D02*
X21794173Y44164229D01*
X21794173Y44164229D02*
X21651316Y44164229D01*
X21651316Y44164229D02*
X21556078Y44116610D01*
X21556078Y44116610D02*
X21508459Y44068991D01*
X21508459Y44068991D02*
X21460840Y43973753D01*
X21460840Y43973753D02*
X21460840Y43735658D01*
X21460840Y43735658D02*
X21508459Y43640420D01*
X21508459Y43640420D02*
X21556078Y43592800D01*
X21556078Y43592800D02*
X21651316Y43545181D01*
X21651316Y43545181D02*
X21937030Y43545181D01*
X21937030Y43545181D02*
X22032268Y43592800D01*
X22032268Y43592800D02*
X22079887Y43640420D01*
X21175125Y44545181D02*
X20841792Y43545181D01*
X20841792Y43545181D02*
X20508459Y44545181D01*
X23556077Y39545181D02*
X23222744Y38545181D01*
X23222744Y38545181D02*
X22889411Y39545181D01*
X22603696Y38592800D02*
X22460839Y38545181D01*
X22460839Y38545181D02*
X22222744Y38545181D01*
X22222744Y38545181D02*
X22127506Y38592800D01*
X22127506Y38592800D02*
X22079887Y38640420D01*
X22079887Y38640420D02*
X22032268Y38735658D01*
X22032268Y38735658D02*
X22032268Y38830896D01*
X22032268Y38830896D02*
X22079887Y38926134D01*
X22079887Y38926134D02*
X22127506Y38973753D01*
X22127506Y38973753D02*
X22222744Y39021372D01*
X22222744Y39021372D02*
X22413220Y39068991D01*
X22413220Y39068991D02*
X22508458Y39116610D01*
X22508458Y39116610D02*
X22556077Y39164229D01*
X22556077Y39164229D02*
X22603696Y39259467D01*
X22603696Y39259467D02*
X22603696Y39354705D01*
X22603696Y39354705D02*
X22556077Y39449943D01*
X22556077Y39449943D02*
X22508458Y39497562D01*
X22508458Y39497562D02*
X22413220Y39545181D01*
X22413220Y39545181D02*
X22175125Y39545181D01*
X22175125Y39545181D02*
X22032268Y39497562D01*
X21603696Y39068991D02*
X21270363Y39068991D01*
X21127506Y38545181D02*
X21603696Y38545181D01*
X21603696Y38545181D02*
X21603696Y39545181D01*
X21603696Y39545181D02*
X21127506Y39545181D01*
X20698934Y38545181D02*
X20698934Y39545181D01*
X20698934Y39545181D02*
X20127506Y38545181D01*
X20127506Y38545181D02*
X20127506Y39545181D01*
X19698934Y38592800D02*
X19556077Y38545181D01*
X19556077Y38545181D02*
X19317982Y38545181D01*
X19317982Y38545181D02*
X19222744Y38592800D01*
X19222744Y38592800D02*
X19175125Y38640420D01*
X19175125Y38640420D02*
X19127506Y38735658D01*
X19127506Y38735658D02*
X19127506Y38830896D01*
X19127506Y38830896D02*
X19175125Y38926134D01*
X19175125Y38926134D02*
X19222744Y38973753D01*
X19222744Y38973753D02*
X19317982Y39021372D01*
X19317982Y39021372D02*
X19508458Y39068991D01*
X19508458Y39068991D02*
X19603696Y39116610D01*
X19603696Y39116610D02*
X19651315Y39164229D01*
X19651315Y39164229D02*
X19698934Y39259467D01*
X19698934Y39259467D02*
X19698934Y39354705D01*
X19698934Y39354705D02*
X19651315Y39449943D01*
X19651315Y39449943D02*
X19603696Y39497562D01*
X19603696Y39497562D02*
X19508458Y39545181D01*
X19508458Y39545181D02*
X19270363Y39545181D01*
X19270363Y39545181D02*
X19127506Y39497562D01*
X18698934Y39068991D02*
X18365601Y39068991D01*
X18222744Y38545181D02*
X18698934Y38545181D01*
X18698934Y38545181D02*
X18698934Y39545181D01*
X18698934Y39545181D02*
X18222744Y39545181D01*
X13301065Y30795181D02*
X13777255Y30795181D01*
X13777255Y30795181D02*
X13777255Y31795181D01*
X12967731Y31318991D02*
X12634398Y31318991D01*
X12491541Y30795181D02*
X12967731Y30795181D01*
X12967731Y30795181D02*
X12967731Y31795181D01*
X12967731Y31795181D02*
X12491541Y31795181D01*
X12062969Y30795181D02*
X12062969Y31795181D01*
X12062969Y31795181D02*
X11824874Y31795181D01*
X11824874Y31795181D02*
X11682017Y31747562D01*
X11682017Y31747562D02*
X11586779Y31652324D01*
X11586779Y31652324D02*
X11539160Y31557086D01*
X11539160Y31557086D02*
X11491541Y31366610D01*
X11491541Y31366610D02*
X11491541Y31223753D01*
X11491541Y31223753D02*
X11539160Y31033277D01*
X11539160Y31033277D02*
X11586779Y30938039D01*
X11586779Y30938039D02*
X11682017Y30842800D01*
X11682017Y30842800D02*
X11824874Y30795181D01*
X11824874Y30795181D02*
X12062969Y30795181D01*
X11110588Y31699943D02*
X11062969Y31747562D01*
X11062969Y31747562D02*
X10967731Y31795181D01*
X10967731Y31795181D02*
X10729636Y31795181D01*
X10729636Y31795181D02*
X10634398Y31747562D01*
X10634398Y31747562D02*
X10586779Y31699943D01*
X10586779Y31699943D02*
X10539160Y31604705D01*
X10539160Y31604705D02*
X10539160Y31509467D01*
X10539160Y31509467D02*
X10586779Y31366610D01*
X10586779Y31366610D02*
X11158207Y30795181D01*
X11158207Y30795181D02*
X10539160Y30795181D01*
X22889411Y49497562D02*
X22984649Y49545181D01*
X22984649Y49545181D02*
X23127506Y49545181D01*
X23127506Y49545181D02*
X23270363Y49497562D01*
X23270363Y49497562D02*
X23365601Y49402324D01*
X23365601Y49402324D02*
X23413220Y49307086D01*
X23413220Y49307086D02*
X23460839Y49116610D01*
X23460839Y49116610D02*
X23460839Y48973753D01*
X23460839Y48973753D02*
X23413220Y48783277D01*
X23413220Y48783277D02*
X23365601Y48688039D01*
X23365601Y48688039D02*
X23270363Y48592800D01*
X23270363Y48592800D02*
X23127506Y48545181D01*
X23127506Y48545181D02*
X23032268Y48545181D01*
X23032268Y48545181D02*
X22889411Y48592800D01*
X22889411Y48592800D02*
X22841792Y48640420D01*
X22841792Y48640420D02*
X22841792Y48973753D01*
X22841792Y48973753D02*
X23032268Y48973753D01*
X22413220Y48545181D02*
X22413220Y49545181D01*
X22413220Y49545181D02*
X21841792Y48545181D01*
X21841792Y48545181D02*
X21841792Y49545181D01*
X21365601Y48545181D02*
X21365601Y49545181D01*
X21365601Y49545181D02*
X21127506Y49545181D01*
X21127506Y49545181D02*
X20984649Y49497562D01*
X20984649Y49497562D02*
X20889411Y49402324D01*
X20889411Y49402324D02*
X20841792Y49307086D01*
X20841792Y49307086D02*
X20794173Y49116610D01*
X20794173Y49116610D02*
X20794173Y48973753D01*
X20794173Y48973753D02*
X20841792Y48783277D01*
X20841792Y48783277D02*
X20889411Y48688039D01*
X20889411Y48688039D02*
X20984649Y48592800D01*
X20984649Y48592800D02*
X21127506Y48545181D01*
X21127506Y48545181D02*
X21365601Y48545181D01*
X11967731Y39545181D02*
X11396303Y39545181D01*
X11682017Y38545181D02*
X11682017Y39545181D01*
X11158207Y39545181D02*
X10491541Y38545181D01*
X10491541Y39545181D02*
X11158207Y38545181D01*
X23163220Y8568991D02*
X22829887Y8568991D01*
X22687030Y8045181D02*
X23163220Y8045181D01*
X23163220Y8045181D02*
X23163220Y9045181D01*
X23163220Y9045181D02*
X22687030Y9045181D01*
X22258458Y8045181D02*
X22258458Y9045181D01*
X22258458Y9045181D02*
X21687030Y8045181D01*
X21687030Y8045181D02*
X21687030Y9045181D01*
X23210839Y18342800D02*
X23067982Y18295181D01*
X23067982Y18295181D02*
X22829887Y18295181D01*
X22829887Y18295181D02*
X22734649Y18342800D01*
X22734649Y18342800D02*
X22687030Y18390420D01*
X22687030Y18390420D02*
X22639411Y18485658D01*
X22639411Y18485658D02*
X22639411Y18580896D01*
X22639411Y18580896D02*
X22687030Y18676134D01*
X22687030Y18676134D02*
X22734649Y18723753D01*
X22734649Y18723753D02*
X22829887Y18771372D01*
X22829887Y18771372D02*
X23020363Y18818991D01*
X23020363Y18818991D02*
X23115601Y18866610D01*
X23115601Y18866610D02*
X23163220Y18914229D01*
X23163220Y18914229D02*
X23210839Y19009467D01*
X23210839Y19009467D02*
X23210839Y19104705D01*
X23210839Y19104705D02*
X23163220Y19199943D01*
X23163220Y19199943D02*
X23115601Y19247562D01*
X23115601Y19247562D02*
X23020363Y19295181D01*
X23020363Y19295181D02*
X22782268Y19295181D01*
X22782268Y19295181D02*
X22639411Y19247562D01*
X22210839Y18295181D02*
X22210839Y19295181D01*
X22210839Y19295181D02*
X21972744Y19295181D01*
X21972744Y19295181D02*
X21829887Y19247562D01*
X21829887Y19247562D02*
X21734649Y19152324D01*
X21734649Y19152324D02*
X21687030Y19057086D01*
X21687030Y19057086D02*
X21639411Y18866610D01*
X21639411Y18866610D02*
X21639411Y18723753D01*
X21639411Y18723753D02*
X21687030Y18533277D01*
X21687030Y18533277D02*
X21734649Y18438039D01*
X21734649Y18438039D02*
X21829887Y18342800D01*
X21829887Y18342800D02*
X21972744Y18295181D01*
X21972744Y18295181D02*
X22210839Y18295181D01*
X21258458Y18580896D02*
X20782268Y18580896D01*
X21353696Y18295181D02*
X21020363Y19295181D01*
X21020363Y19295181D02*
X20687030Y18295181D01*
X13301065Y28295181D02*
X13777255Y28295181D01*
X13777255Y28295181D02*
X13777255Y29295181D01*
X12967731Y28818991D02*
X12634398Y28818991D01*
X12491541Y28295181D02*
X12967731Y28295181D01*
X12967731Y28295181D02*
X12967731Y29295181D01*
X12967731Y29295181D02*
X12491541Y29295181D01*
X12062969Y28295181D02*
X12062969Y29295181D01*
X12062969Y29295181D02*
X11824874Y29295181D01*
X11824874Y29295181D02*
X11682017Y29247562D01*
X11682017Y29247562D02*
X11586779Y29152324D01*
X11586779Y29152324D02*
X11539160Y29057086D01*
X11539160Y29057086D02*
X11491541Y28866610D01*
X11491541Y28866610D02*
X11491541Y28723753D01*
X11491541Y28723753D02*
X11539160Y28533277D01*
X11539160Y28533277D02*
X11586779Y28438039D01*
X11586779Y28438039D02*
X11682017Y28342800D01*
X11682017Y28342800D02*
X11824874Y28295181D01*
X11824874Y28295181D02*
X12062969Y28295181D01*
X10539160Y28295181D02*
X11110588Y28295181D01*
X10824874Y28295181D02*
X10824874Y29295181D01*
X10824874Y29295181D02*
X10920112Y29152324D01*
X10920112Y29152324D02*
X11015350Y29057086D01*
X11015350Y29057086D02*
X11110588Y29009467D01*
X12634398Y49497562D02*
X12729636Y49545181D01*
X12729636Y49545181D02*
X12872493Y49545181D01*
X12872493Y49545181D02*
X13015350Y49497562D01*
X13015350Y49497562D02*
X13110588Y49402324D01*
X13110588Y49402324D02*
X13158207Y49307086D01*
X13158207Y49307086D02*
X13205826Y49116610D01*
X13205826Y49116610D02*
X13205826Y48973753D01*
X13205826Y48973753D02*
X13158207Y48783277D01*
X13158207Y48783277D02*
X13110588Y48688039D01*
X13110588Y48688039D02*
X13015350Y48592800D01*
X13015350Y48592800D02*
X12872493Y48545181D01*
X12872493Y48545181D02*
X12777255Y48545181D01*
X12777255Y48545181D02*
X12634398Y48592800D01*
X12634398Y48592800D02*
X12586779Y48640420D01*
X12586779Y48640420D02*
X12586779Y48973753D01*
X12586779Y48973753D02*
X12777255Y48973753D01*
X12158207Y48545181D02*
X12158207Y49545181D01*
X12158207Y49545181D02*
X11586779Y48545181D01*
X11586779Y48545181D02*
X11586779Y49545181D01*
X11110588Y48545181D02*
X11110588Y49545181D01*
X11110588Y49545181D02*
X10872493Y49545181D01*
X10872493Y49545181D02*
X10729636Y49497562D01*
X10729636Y49497562D02*
X10634398Y49402324D01*
X10634398Y49402324D02*
X10586779Y49307086D01*
X10586779Y49307086D02*
X10539160Y49116610D01*
X10539160Y49116610D02*
X10539160Y48973753D01*
X10539160Y48973753D02*
X10586779Y48783277D01*
X10586779Y48783277D02*
X10634398Y48688039D01*
X10634398Y48688039D02*
X10729636Y48592800D01*
X10729636Y48592800D02*
X10872493Y48545181D01*
X10872493Y48545181D02*
X11110588Y48545181D01*
X11491541Y41045181D02*
X11824874Y41521372D01*
X12062969Y41045181D02*
X12062969Y42045181D01*
X12062969Y42045181D02*
X11682017Y42045181D01*
X11682017Y42045181D02*
X11586779Y41997562D01*
X11586779Y41997562D02*
X11539160Y41949943D01*
X11539160Y41949943D02*
X11491541Y41854705D01*
X11491541Y41854705D02*
X11491541Y41711848D01*
X11491541Y41711848D02*
X11539160Y41616610D01*
X11539160Y41616610D02*
X11586779Y41568991D01*
X11586779Y41568991D02*
X11682017Y41521372D01*
X11682017Y41521372D02*
X12062969Y41521372D01*
X11158207Y42045181D02*
X10491541Y41045181D01*
X10491541Y42045181D02*
X11158207Y41045181D01*
X13348683Y15795181D02*
X13348683Y16795181D01*
X12872493Y15795181D02*
X12872493Y16795181D01*
X12872493Y16795181D02*
X12301065Y15795181D01*
X12301065Y15795181D02*
X12301065Y16795181D01*
X11967731Y16795181D02*
X11396303Y16795181D01*
X11682017Y15795181D02*
X11682017Y16795181D01*
X11110588Y16699943D02*
X11062969Y16747562D01*
X11062969Y16747562D02*
X10967731Y16795181D01*
X10967731Y16795181D02*
X10729636Y16795181D01*
X10729636Y16795181D02*
X10634398Y16747562D01*
X10634398Y16747562D02*
X10586779Y16699943D01*
X10586779Y16699943D02*
X10539160Y16604705D01*
X10539160Y16604705D02*
X10539160Y16509467D01*
X10539160Y16509467D02*
X10586779Y16366610D01*
X10586779Y16366610D02*
X11158207Y15795181D01*
X11158207Y15795181D02*
X10539160Y15795181D01*
X22591792Y20890420D02*
X22639411Y20842800D01*
X22639411Y20842800D02*
X22782268Y20795181D01*
X22782268Y20795181D02*
X22877506Y20795181D01*
X22877506Y20795181D02*
X23020363Y20842800D01*
X23020363Y20842800D02*
X23115601Y20938039D01*
X23115601Y20938039D02*
X23163220Y21033277D01*
X23163220Y21033277D02*
X23210839Y21223753D01*
X23210839Y21223753D02*
X23210839Y21366610D01*
X23210839Y21366610D02*
X23163220Y21557086D01*
X23163220Y21557086D02*
X23115601Y21652324D01*
X23115601Y21652324D02*
X23020363Y21747562D01*
X23020363Y21747562D02*
X22877506Y21795181D01*
X22877506Y21795181D02*
X22782268Y21795181D01*
X22782268Y21795181D02*
X22639411Y21747562D01*
X22639411Y21747562D02*
X22591792Y21699943D01*
X21687030Y20795181D02*
X22163220Y20795181D01*
X22163220Y20795181D02*
X22163220Y21795181D01*
X21353696Y20795181D02*
X21353696Y21795181D01*
X20782268Y20795181D02*
X21210839Y21366610D01*
X20782268Y21795181D02*
X21353696Y21223753D01*
X12229636Y3406848D02*
X11991541Y2740181D01*
X11991541Y2740181D02*
X11753446Y3406848D01*
X10848684Y2740181D02*
X11420112Y2740181D01*
X11134398Y2740181D02*
X11134398Y3740181D01*
X11134398Y3740181D02*
X11229636Y3597324D01*
X11229636Y3597324D02*
X11324874Y3502086D01*
X11324874Y3502086D02*
X11420112Y3454467D01*
X10420112Y2835420D02*
X10372493Y2787800D01*
X10372493Y2787800D02*
X10420112Y2740181D01*
X10420112Y2740181D02*
X10467731Y2787800D01*
X10467731Y2787800D02*
X10420112Y2835420D01*
X10420112Y2835420D02*
X10420112Y2740181D01*
X9753446Y3740181D02*
X9658208Y3740181D01*
X9658208Y3740181D02*
X9562970Y3692562D01*
X9562970Y3692562D02*
X9515351Y3644943D01*
X9515351Y3644943D02*
X9467732Y3549705D01*
X9467732Y3549705D02*
X9420113Y3359229D01*
X9420113Y3359229D02*
X9420113Y3121134D01*
X9420113Y3121134D02*
X9467732Y2930658D01*
X9467732Y2930658D02*
X9515351Y2835420D01*
X9515351Y2835420D02*
X9562970Y2787800D01*
X9562970Y2787800D02*
X9658208Y2740181D01*
X9658208Y2740181D02*
X9753446Y2740181D01*
X9753446Y2740181D02*
X9848684Y2787800D01*
X9848684Y2787800D02*
X9896303Y2835420D01*
X9896303Y2835420D02*
X9943922Y2930658D01*
X9943922Y2930658D02*
X9991541Y3121134D01*
X9991541Y3121134D02*
X9991541Y3359229D01*
X9991541Y3359229D02*
X9943922Y3549705D01*
X9943922Y3549705D02*
X9896303Y3644943D01*
X9896303Y3644943D02*
X9848684Y3692562D01*
X9848684Y3692562D02*
X9753446Y3740181D01*
X8039160Y3740181D02*
X7848684Y3740181D01*
X7848684Y3740181D02*
X7753446Y3692562D01*
X7753446Y3692562D02*
X7658208Y3597324D01*
X7658208Y3597324D02*
X7610589Y3406848D01*
X7610589Y3406848D02*
X7610589Y3073515D01*
X7610589Y3073515D02*
X7658208Y2883039D01*
X7658208Y2883039D02*
X7753446Y2787800D01*
X7753446Y2787800D02*
X7848684Y2740181D01*
X7848684Y2740181D02*
X8039160Y2740181D01*
X8039160Y2740181D02*
X8134398Y2787800D01*
X8134398Y2787800D02*
X8229636Y2883039D01*
X8229636Y2883039D02*
X8277255Y3073515D01*
X8277255Y3073515D02*
X8277255Y3406848D01*
X8277255Y3406848D02*
X8229636Y3597324D01*
X8229636Y3597324D02*
X8134398Y3692562D01*
X8134398Y3692562D02*
X8039160Y3740181D01*
X6753446Y2787800D02*
X6848684Y2740181D01*
X6848684Y2740181D02*
X7039160Y2740181D01*
X7039160Y2740181D02*
X7134398Y2787800D01*
X7134398Y2787800D02*
X7182017Y2835420D01*
X7182017Y2835420D02*
X7229636Y2930658D01*
X7229636Y2930658D02*
X7229636Y3216372D01*
X7229636Y3216372D02*
X7182017Y3311610D01*
X7182017Y3311610D02*
X7134398Y3359229D01*
X7134398Y3359229D02*
X7039160Y3406848D01*
X7039160Y3406848D02*
X6848684Y3406848D01*
X6848684Y3406848D02*
X6753446Y3359229D01*
X6467731Y3406848D02*
X6086779Y3406848D01*
X6324874Y3740181D02*
X6324874Y2883039D01*
X6324874Y2883039D02*
X6277255Y2787800D01*
X6277255Y2787800D02*
X6182017Y2740181D01*
X6182017Y2740181D02*
X6086779Y2740181D01*
X5753445Y3121134D02*
X4991541Y3121134D01*
X4562969Y3644943D02*
X4515350Y3692562D01*
X4515350Y3692562D02*
X4420112Y3740181D01*
X4420112Y3740181D02*
X4182017Y3740181D01*
X4182017Y3740181D02*
X4086779Y3692562D01*
X4086779Y3692562D02*
X4039160Y3644943D01*
X4039160Y3644943D02*
X3991541Y3549705D01*
X3991541Y3549705D02*
X3991541Y3454467D01*
X3991541Y3454467D02*
X4039160Y3311610D01*
X4039160Y3311610D02*
X4610588Y2740181D01*
X4610588Y2740181D02*
X3991541Y2740181D01*
X3658207Y3740181D02*
X3039160Y3740181D01*
X3039160Y3740181D02*
X3372493Y3359229D01*
X3372493Y3359229D02*
X3229636Y3359229D01*
X3229636Y3359229D02*
X3134398Y3311610D01*
X3134398Y3311610D02*
X3086779Y3263991D01*
X3086779Y3263991D02*
X3039160Y3168753D01*
X3039160Y3168753D02*
X3039160Y2930658D01*
X3039160Y2930658D02*
X3086779Y2835420D01*
X3086779Y2835420D02*
X3134398Y2787800D01*
X3134398Y2787800D02*
X3229636Y2740181D01*
X3229636Y2740181D02*
X3515350Y2740181D01*
X3515350Y2740181D02*
X3610588Y2787800D01*
X3610588Y2787800D02*
X3658207Y2835420D01*
X13896305Y749229D02*
X13943924Y796848D01*
X13943924Y796848D02*
X14039162Y939705D01*
X14039162Y939705D02*
X14086781Y1034943D01*
X14086781Y1034943D02*
X14134400Y1177800D01*
X14134400Y1177800D02*
X14182019Y1415896D01*
X14182019Y1415896D02*
X14182019Y1606372D01*
X14182019Y1606372D02*
X14134400Y1844467D01*
X14134400Y1844467D02*
X14086781Y1987324D01*
X14086781Y1987324D02*
X14039162Y2082562D01*
X14039162Y2082562D02*
X13943924Y2225420D01*
X13943924Y2225420D02*
X13896305Y2273039D01*
X13086781Y1177800D02*
X13182019Y1130181D01*
X13182019Y1130181D02*
X13372495Y1130181D01*
X13372495Y1130181D02*
X13467733Y1177800D01*
X13467733Y1177800D02*
X13515352Y1225420D01*
X13515352Y1225420D02*
X13562971Y1320658D01*
X13562971Y1320658D02*
X13562971Y1606372D01*
X13562971Y1606372D02*
X13515352Y1701610D01*
X13515352Y1701610D02*
X13467733Y1749229D01*
X13467733Y1749229D02*
X13372495Y1796848D01*
X13372495Y1796848D02*
X13182019Y1796848D01*
X13182019Y1796848D02*
X13086781Y1749229D01*
X12753447Y749229D02*
X12705828Y796848D01*
X12705828Y796848D02*
X12610590Y939705D01*
X12610590Y939705D02*
X12562971Y1034943D01*
X12562971Y1034943D02*
X12515352Y1177800D01*
X12515352Y1177800D02*
X12467733Y1415896D01*
X12467733Y1415896D02*
X12467733Y1606372D01*
X12467733Y1606372D02*
X12515352Y1844467D01*
X12515352Y1844467D02*
X12562971Y1987324D01*
X12562971Y1987324D02*
X12610590Y2082562D01*
X12610590Y2082562D02*
X12705828Y2225420D01*
X12705828Y2225420D02*
X12753447Y2273039D01*
X10848685Y1177800D02*
X10943923Y1130181D01*
X10943923Y1130181D02*
X11134399Y1130181D01*
X11134399Y1130181D02*
X11229637Y1177800D01*
X11229637Y1177800D02*
X11277256Y1273039D01*
X11277256Y1273039D02*
X11277256Y1653991D01*
X11277256Y1653991D02*
X11229637Y1749229D01*
X11229637Y1749229D02*
X11134399Y1796848D01*
X11134399Y1796848D02*
X10943923Y1796848D01*
X10943923Y1796848D02*
X10848685Y1749229D01*
X10848685Y1749229D02*
X10801066Y1653991D01*
X10801066Y1653991D02*
X10801066Y1558753D01*
X10801066Y1558753D02*
X11277256Y1463515D01*
X9943923Y1796848D02*
X9943923Y987324D01*
X9943923Y987324D02*
X9991542Y892086D01*
X9991542Y892086D02*
X10039161Y844467D01*
X10039161Y844467D02*
X10134399Y796848D01*
X10134399Y796848D02*
X10277256Y796848D01*
X10277256Y796848D02*
X10372494Y844467D01*
X9943923Y1177800D02*
X10039161Y1130181D01*
X10039161Y1130181D02*
X10229637Y1130181D01*
X10229637Y1130181D02*
X10324875Y1177800D01*
X10324875Y1177800D02*
X10372494Y1225420D01*
X10372494Y1225420D02*
X10420113Y1320658D01*
X10420113Y1320658D02*
X10420113Y1606372D01*
X10420113Y1606372D02*
X10372494Y1701610D01*
X10372494Y1701610D02*
X10324875Y1749229D01*
X10324875Y1749229D02*
X10229637Y1796848D01*
X10229637Y1796848D02*
X10039161Y1796848D01*
X10039161Y1796848D02*
X9943923Y1749229D01*
X9039161Y1796848D02*
X9039161Y987324D01*
X9039161Y987324D02*
X9086780Y892086D01*
X9086780Y892086D02*
X9134399Y844467D01*
X9134399Y844467D02*
X9229637Y796848D01*
X9229637Y796848D02*
X9372494Y796848D01*
X9372494Y796848D02*
X9467732Y844467D01*
X9039161Y1177800D02*
X9134399Y1130181D01*
X9134399Y1130181D02*
X9324875Y1130181D01*
X9324875Y1130181D02*
X9420113Y1177800D01*
X9420113Y1177800D02*
X9467732Y1225420D01*
X9467732Y1225420D02*
X9515351Y1320658D01*
X9515351Y1320658D02*
X9515351Y1606372D01*
X9515351Y1606372D02*
X9467732Y1701610D01*
X9467732Y1701610D02*
X9420113Y1749229D01*
X9420113Y1749229D02*
X9324875Y1796848D01*
X9324875Y1796848D02*
X9134399Y1796848D01*
X9134399Y1796848D02*
X9039161Y1749229D01*
X8610589Y1177800D02*
X8515351Y1130181D01*
X8515351Y1130181D02*
X8324875Y1130181D01*
X8324875Y1130181D02*
X8229637Y1177800D01*
X8229637Y1177800D02*
X8182018Y1273039D01*
X8182018Y1273039D02*
X8182018Y1320658D01*
X8182018Y1320658D02*
X8229637Y1415896D01*
X8229637Y1415896D02*
X8324875Y1463515D01*
X8324875Y1463515D02*
X8467732Y1463515D01*
X8467732Y1463515D02*
X8562970Y1511134D01*
X8562970Y1511134D02*
X8610589Y1606372D01*
X8610589Y1606372D02*
X8610589Y1653991D01*
X8610589Y1653991D02*
X8562970Y1749229D01*
X8562970Y1749229D02*
X8467732Y1796848D01*
X8467732Y1796848D02*
X8324875Y1796848D01*
X8324875Y1796848D02*
X8229637Y1749229D01*
X7324875Y1130181D02*
X7324875Y1653991D01*
X7324875Y1653991D02*
X7372494Y1749229D01*
X7372494Y1749229D02*
X7467732Y1796848D01*
X7467732Y1796848D02*
X7658208Y1796848D01*
X7658208Y1796848D02*
X7753446Y1749229D01*
X7324875Y1177800D02*
X7420113Y1130181D01*
X7420113Y1130181D02*
X7658208Y1130181D01*
X7658208Y1130181D02*
X7753446Y1177800D01*
X7753446Y1177800D02*
X7801065Y1273039D01*
X7801065Y1273039D02*
X7801065Y1368277D01*
X7801065Y1368277D02*
X7753446Y1463515D01*
X7753446Y1463515D02*
X7658208Y1511134D01*
X7658208Y1511134D02*
X7420113Y1511134D01*
X7420113Y1511134D02*
X7324875Y1558753D01*
X6848684Y1130181D02*
X6848684Y1796848D01*
X6848684Y1701610D02*
X6801065Y1749229D01*
X6801065Y1749229D02*
X6705827Y1796848D01*
X6705827Y1796848D02*
X6562970Y1796848D01*
X6562970Y1796848D02*
X6467732Y1749229D01*
X6467732Y1749229D02*
X6420113Y1653991D01*
X6420113Y1653991D02*
X6420113Y1130181D01*
X6420113Y1653991D02*
X6372494Y1749229D01*
X6372494Y1749229D02*
X6277256Y1796848D01*
X6277256Y1796848D02*
X6134399Y1796848D01*
X6134399Y1796848D02*
X6039160Y1749229D01*
X6039160Y1749229D02*
X5991541Y1653991D01*
X5991541Y1653991D02*
X5991541Y1130181D01*
X5515351Y1796848D02*
X5515351Y796848D01*
X5515351Y1749229D02*
X5420113Y1796848D01*
X5420113Y1796848D02*
X5229637Y1796848D01*
X5229637Y1796848D02*
X5134399Y1749229D01*
X5134399Y1749229D02*
X5086780Y1701610D01*
X5086780Y1701610D02*
X5039161Y1606372D01*
X5039161Y1606372D02*
X5039161Y1320658D01*
X5039161Y1320658D02*
X5086780Y1225420D01*
X5086780Y1225420D02*
X5134399Y1177800D01*
X5134399Y1177800D02*
X5229637Y1130181D01*
X5229637Y1130181D02*
X5420113Y1130181D01*
X5420113Y1130181D02*
X5515351Y1177800D01*
X4467732Y1130181D02*
X4562970Y1177800D01*
X4562970Y1177800D02*
X4610589Y1273039D01*
X4610589Y1273039D02*
X4610589Y2130181D01*
X3705827Y1177800D02*
X3801065Y1130181D01*
X3801065Y1130181D02*
X3991541Y1130181D01*
X3991541Y1130181D02*
X4086779Y1177800D01*
X4086779Y1177800D02*
X4134398Y1273039D01*
X4134398Y1273039D02*
X4134398Y1653991D01*
X4134398Y1653991D02*
X4086779Y1749229D01*
X4086779Y1749229D02*
X3991541Y1796848D01*
X3991541Y1796848D02*
X3801065Y1796848D01*
X3801065Y1796848D02*
X3705827Y1749229D01*
X3705827Y1749229D02*
X3658208Y1653991D01*
X3658208Y1653991D02*
X3658208Y1558753D01*
X3658208Y1558753D02*
X4134398Y1463515D01*
X3229636Y1130181D02*
X3229636Y1796848D01*
X3229636Y1606372D02*
X3182017Y1701610D01*
X3182017Y1701610D02*
X3134398Y1749229D01*
X3134398Y1749229D02*
X3039160Y1796848D01*
X3039160Y1796848D02*
X2943922Y1796848D01*
X12634398Y36997562D02*
X12729636Y37045181D01*
X12729636Y37045181D02*
X12872493Y37045181D01*
X12872493Y37045181D02*
X13015350Y36997562D01*
X13015350Y36997562D02*
X13110588Y36902324D01*
X13110588Y36902324D02*
X13158207Y36807086D01*
X13158207Y36807086D02*
X13205826Y36616610D01*
X13205826Y36616610D02*
X13205826Y36473753D01*
X13205826Y36473753D02*
X13158207Y36283277D01*
X13158207Y36283277D02*
X13110588Y36188039D01*
X13110588Y36188039D02*
X13015350Y36092800D01*
X13015350Y36092800D02*
X12872493Y36045181D01*
X12872493Y36045181D02*
X12777255Y36045181D01*
X12777255Y36045181D02*
X12634398Y36092800D01*
X12634398Y36092800D02*
X12586779Y36140420D01*
X12586779Y36140420D02*
X12586779Y36473753D01*
X12586779Y36473753D02*
X12777255Y36473753D01*
X12158207Y36045181D02*
X12158207Y37045181D01*
X12158207Y37045181D02*
X11586779Y36045181D01*
X11586779Y36045181D02*
X11586779Y37045181D01*
X11110588Y36045181D02*
X11110588Y37045181D01*
X11110588Y37045181D02*
X10872493Y37045181D01*
X10872493Y37045181D02*
X10729636Y36997562D01*
X10729636Y36997562D02*
X10634398Y36902324D01*
X10634398Y36902324D02*
X10586779Y36807086D01*
X10586779Y36807086D02*
X10539160Y36616610D01*
X10539160Y36616610D02*
X10539160Y36473753D01*
X10539160Y36473753D02*
X10586779Y36283277D01*
X10586779Y36283277D02*
X10634398Y36188039D01*
X10634398Y36188039D02*
X10729636Y36092800D01*
X10729636Y36092800D02*
X10872493Y36045181D01*
X10872493Y36045181D02*
X11110588Y36045181D01*
X12634398Y24247562D02*
X12729636Y24295181D01*
X12729636Y24295181D02*
X12872493Y24295181D01*
X12872493Y24295181D02*
X13015350Y24247562D01*
X13015350Y24247562D02*
X13110588Y24152324D01*
X13110588Y24152324D02*
X13158207Y24057086D01*
X13158207Y24057086D02*
X13205826Y23866610D01*
X13205826Y23866610D02*
X13205826Y23723753D01*
X13205826Y23723753D02*
X13158207Y23533277D01*
X13158207Y23533277D02*
X13110588Y23438039D01*
X13110588Y23438039D02*
X13015350Y23342800D01*
X13015350Y23342800D02*
X12872493Y23295181D01*
X12872493Y23295181D02*
X12777255Y23295181D01*
X12777255Y23295181D02*
X12634398Y23342800D01*
X12634398Y23342800D02*
X12586779Y23390420D01*
X12586779Y23390420D02*
X12586779Y23723753D01*
X12586779Y23723753D02*
X12777255Y23723753D01*
X12158207Y23295181D02*
X12158207Y24295181D01*
X12158207Y24295181D02*
X11586779Y23295181D01*
X11586779Y23295181D02*
X11586779Y24295181D01*
X11110588Y23295181D02*
X11110588Y24295181D01*
X11110588Y24295181D02*
X10872493Y24295181D01*
X10872493Y24295181D02*
X10729636Y24247562D01*
X10729636Y24247562D02*
X10634398Y24152324D01*
X10634398Y24152324D02*
X10586779Y24057086D01*
X10586779Y24057086D02*
X10539160Y23866610D01*
X10539160Y23866610D02*
X10539160Y23723753D01*
X10539160Y23723753D02*
X10586779Y23533277D01*
X10586779Y23533277D02*
X10634398Y23438039D01*
X10634398Y23438039D02*
X10729636Y23342800D01*
X10729636Y23342800D02*
X10872493Y23295181D01*
X10872493Y23295181D02*
X11110588Y23295181D01*
X13348683Y13045181D02*
X13348683Y14045181D01*
X12872493Y13045181D02*
X12872493Y14045181D01*
X12872493Y14045181D02*
X12301065Y13045181D01*
X12301065Y13045181D02*
X12301065Y14045181D01*
X11967731Y14045181D02*
X11396303Y14045181D01*
X11682017Y13045181D02*
X11682017Y14045181D01*
X10539160Y13045181D02*
X11110588Y13045181D01*
X10824874Y13045181D02*
X10824874Y14045181D01*
X10824874Y14045181D02*
X10920112Y13902324D01*
X10920112Y13902324D02*
X11015350Y13807086D01*
X11015350Y13807086D02*
X11110588Y13759467D01*
X14777254Y43842800D02*
X14634397Y43795181D01*
X14634397Y43795181D02*
X14396302Y43795181D01*
X14396302Y43795181D02*
X14301064Y43842800D01*
X14301064Y43842800D02*
X14253445Y43890420D01*
X14253445Y43890420D02*
X14205826Y43985658D01*
X14205826Y43985658D02*
X14205826Y44080896D01*
X14205826Y44080896D02*
X14253445Y44176134D01*
X14253445Y44176134D02*
X14301064Y44223753D01*
X14301064Y44223753D02*
X14396302Y44271372D01*
X14396302Y44271372D02*
X14586778Y44318991D01*
X14586778Y44318991D02*
X14682016Y44366610D01*
X14682016Y44366610D02*
X14729635Y44414229D01*
X14729635Y44414229D02*
X14777254Y44509467D01*
X14777254Y44509467D02*
X14777254Y44604705D01*
X14777254Y44604705D02*
X14729635Y44699943D01*
X14729635Y44699943D02*
X14682016Y44747562D01*
X14682016Y44747562D02*
X14586778Y44795181D01*
X14586778Y44795181D02*
X14348683Y44795181D01*
X14348683Y44795181D02*
X14205826Y44747562D01*
X13872492Y44795181D02*
X13634397Y43795181D01*
X13634397Y43795181D02*
X13443921Y44509467D01*
X13443921Y44509467D02*
X13253445Y43795181D01*
X13253445Y43795181D02*
X13015350Y44795181D01*
X12634397Y43795181D02*
X12634397Y44795181D01*
X12634397Y44795181D02*
X12396302Y44795181D01*
X12396302Y44795181D02*
X12253445Y44747562D01*
X12253445Y44747562D02*
X12158207Y44652324D01*
X12158207Y44652324D02*
X12110588Y44557086D01*
X12110588Y44557086D02*
X12062969Y44366610D01*
X12062969Y44366610D02*
X12062969Y44223753D01*
X12062969Y44223753D02*
X12110588Y44033277D01*
X12110588Y44033277D02*
X12158207Y43938039D01*
X12158207Y43938039D02*
X12253445Y43842800D01*
X12253445Y43842800D02*
X12396302Y43795181D01*
X12396302Y43795181D02*
X12634397Y43795181D01*
X11634397Y43795181D02*
X11634397Y44795181D01*
X10967731Y44795181D02*
X10777255Y44795181D01*
X10777255Y44795181D02*
X10682017Y44747562D01*
X10682017Y44747562D02*
X10586779Y44652324D01*
X10586779Y44652324D02*
X10539160Y44461848D01*
X10539160Y44461848D02*
X10539160Y44128515D01*
X10539160Y44128515D02*
X10586779Y43938039D01*
X10586779Y43938039D02*
X10682017Y43842800D01*
X10682017Y43842800D02*
X10777255Y43795181D01*
X10777255Y43795181D02*
X10967731Y43795181D01*
X10967731Y43795181D02*
X11062969Y43842800D01*
X11062969Y43842800D02*
X11158207Y43938039D01*
X11158207Y43938039D02*
X11205826Y44128515D01*
X11205826Y44128515D02*
X11205826Y44461848D01*
X11205826Y44461848D02*
X11158207Y44652324D01*
X11158207Y44652324D02*
X11062969Y44747562D01*
X11062969Y44747562D02*
X10967731Y44795181D01*
X12634398Y11497562D02*
X12729636Y11545181D01*
X12729636Y11545181D02*
X12872493Y11545181D01*
X12872493Y11545181D02*
X13015350Y11497562D01*
X13015350Y11497562D02*
X13110588Y11402324D01*
X13110588Y11402324D02*
X13158207Y11307086D01*
X13158207Y11307086D02*
X13205826Y11116610D01*
X13205826Y11116610D02*
X13205826Y10973753D01*
X13205826Y10973753D02*
X13158207Y10783277D01*
X13158207Y10783277D02*
X13110588Y10688039D01*
X13110588Y10688039D02*
X13015350Y10592800D01*
X13015350Y10592800D02*
X12872493Y10545181D01*
X12872493Y10545181D02*
X12777255Y10545181D01*
X12777255Y10545181D02*
X12634398Y10592800D01*
X12634398Y10592800D02*
X12586779Y10640420D01*
X12586779Y10640420D02*
X12586779Y10973753D01*
X12586779Y10973753D02*
X12777255Y10973753D01*
X12158207Y10545181D02*
X12158207Y11545181D01*
X12158207Y11545181D02*
X11586779Y10545181D01*
X11586779Y10545181D02*
X11586779Y11545181D01*
X11110588Y10545181D02*
X11110588Y11545181D01*
X11110588Y11545181D02*
X10872493Y11545181D01*
X10872493Y11545181D02*
X10729636Y11497562D01*
X10729636Y11497562D02*
X10634398Y11402324D01*
X10634398Y11402324D02*
X10586779Y11307086D01*
X10586779Y11307086D02*
X10539160Y11116610D01*
X10539160Y11116610D02*
X10539160Y10973753D01*
X10539160Y10973753D02*
X10586779Y10783277D01*
X10586779Y10783277D02*
X10634398Y10688039D01*
X10634398Y10688039D02*
X10729636Y10592800D01*
X10729636Y10592800D02*
X10872493Y10545181D01*
X10872493Y10545181D02*
X11110588Y10545181D01*
X13301065Y33295181D02*
X13777255Y33295181D01*
X13777255Y33295181D02*
X13777255Y34295181D01*
X12967731Y33818991D02*
X12634398Y33818991D01*
X12491541Y33295181D02*
X12967731Y33295181D01*
X12967731Y33295181D02*
X12967731Y34295181D01*
X12967731Y34295181D02*
X12491541Y34295181D01*
X12062969Y33295181D02*
X12062969Y34295181D01*
X12062969Y34295181D02*
X11824874Y34295181D01*
X11824874Y34295181D02*
X11682017Y34247562D01*
X11682017Y34247562D02*
X11586779Y34152324D01*
X11586779Y34152324D02*
X11539160Y34057086D01*
X11539160Y34057086D02*
X11491541Y33866610D01*
X11491541Y33866610D02*
X11491541Y33723753D01*
X11491541Y33723753D02*
X11539160Y33533277D01*
X11539160Y33533277D02*
X11586779Y33438039D01*
X11586779Y33438039D02*
X11682017Y33342800D01*
X11682017Y33342800D02*
X11824874Y33295181D01*
X11824874Y33295181D02*
X12062969Y33295181D01*
X11158207Y34295181D02*
X10539160Y34295181D01*
X10539160Y34295181D02*
X10872493Y33914229D01*
X10872493Y33914229D02*
X10729636Y33914229D01*
X10729636Y33914229D02*
X10634398Y33866610D01*
X10634398Y33866610D02*
X10586779Y33818991D01*
X10586779Y33818991D02*
X10539160Y33723753D01*
X10539160Y33723753D02*
X10539160Y33485658D01*
X10539160Y33485658D02*
X10586779Y33390420D01*
X10586779Y33390420D02*
X10634398Y33342800D01*
X10634398Y33342800D02*
X10729636Y33295181D01*
X10729636Y33295181D02*
X11015350Y33295181D01*
X11015350Y33295181D02*
X11110588Y33342800D01*
X11110588Y33342800D02*
X11158207Y33390420D01*
X31008458Y3740181D02*
X30770363Y2740181D01*
X30770363Y2740181D02*
X30579887Y3454467D01*
X30579887Y3454467D02*
X30389411Y2740181D01*
X30389411Y2740181D02*
X30151316Y3740181D01*
X29627506Y2740181D02*
X29722744Y2787800D01*
X29722744Y2787800D02*
X29770363Y2835420D01*
X29770363Y2835420D02*
X29817982Y2930658D01*
X29817982Y2930658D02*
X29817982Y3216372D01*
X29817982Y3216372D02*
X29770363Y3311610D01*
X29770363Y3311610D02*
X29722744Y3359229D01*
X29722744Y3359229D02*
X29627506Y3406848D01*
X29627506Y3406848D02*
X29484649Y3406848D01*
X29484649Y3406848D02*
X29389411Y3359229D01*
X29389411Y3359229D02*
X29341792Y3311610D01*
X29341792Y3311610D02*
X29294173Y3216372D01*
X29294173Y3216372D02*
X29294173Y2930658D01*
X29294173Y2930658D02*
X29341792Y2835420D01*
X29341792Y2835420D02*
X29389411Y2787800D01*
X29389411Y2787800D02*
X29484649Y2740181D01*
X29484649Y2740181D02*
X29627506Y2740181D01*
X28865601Y2740181D02*
X28865601Y3406848D01*
X28865601Y3216372D02*
X28817982Y3311610D01*
X28817982Y3311610D02*
X28770363Y3359229D01*
X28770363Y3359229D02*
X28675125Y3406848D01*
X28675125Y3406848D02*
X28579887Y3406848D01*
X27817982Y2740181D02*
X27817982Y3740181D01*
X27817982Y2787800D02*
X27913220Y2740181D01*
X27913220Y2740181D02*
X28103696Y2740181D01*
X28103696Y2740181D02*
X28198934Y2787800D01*
X28198934Y2787800D02*
X28246553Y2835420D01*
X28246553Y2835420D02*
X28294172Y2930658D01*
X28294172Y2930658D02*
X28294172Y3216372D01*
X28294172Y3216372D02*
X28246553Y3311610D01*
X28246553Y3311610D02*
X28198934Y3359229D01*
X28198934Y3359229D02*
X28103696Y3406848D01*
X28103696Y3406848D02*
X27913220Y3406848D01*
X27913220Y3406848D02*
X27817982Y3359229D01*
X27437029Y3740181D02*
X27198934Y2740181D01*
X27198934Y2740181D02*
X27008458Y3454467D01*
X27008458Y3454467D02*
X26817982Y2740181D01*
X26817982Y2740181D02*
X26579887Y3740181D01*
X25770363Y2740181D02*
X25770363Y3263991D01*
X25770363Y3263991D02*
X25817982Y3359229D01*
X25817982Y3359229D02*
X25913220Y3406848D01*
X25913220Y3406848D02*
X26103696Y3406848D01*
X26103696Y3406848D02*
X26198934Y3359229D01*
X25770363Y2787800D02*
X25865601Y2740181D01*
X25865601Y2740181D02*
X26103696Y2740181D01*
X26103696Y2740181D02*
X26198934Y2787800D01*
X26198934Y2787800D02*
X26246553Y2883039D01*
X26246553Y2883039D02*
X26246553Y2978277D01*
X26246553Y2978277D02*
X26198934Y3073515D01*
X26198934Y3073515D02*
X26103696Y3121134D01*
X26103696Y3121134D02*
X25865601Y3121134D01*
X25865601Y3121134D02*
X25770363Y3168753D01*
X25437029Y3406848D02*
X25056077Y3406848D01*
X25294172Y3740181D02*
X25294172Y2883039D01*
X25294172Y2883039D02*
X25246553Y2787800D01*
X25246553Y2787800D02*
X25151315Y2740181D01*
X25151315Y2740181D02*
X25056077Y2740181D01*
X24294172Y2787800D02*
X24389410Y2740181D01*
X24389410Y2740181D02*
X24579886Y2740181D01*
X24579886Y2740181D02*
X24675124Y2787800D01*
X24675124Y2787800D02*
X24722743Y2835420D01*
X24722743Y2835420D02*
X24770362Y2930658D01*
X24770362Y2930658D02*
X24770362Y3216372D01*
X24770362Y3216372D02*
X24722743Y3311610D01*
X24722743Y3311610D02*
X24675124Y3359229D01*
X24675124Y3359229D02*
X24579886Y3406848D01*
X24579886Y3406848D02*
X24389410Y3406848D01*
X24389410Y3406848D02*
X24294172Y3359229D01*
X23865600Y2740181D02*
X23865600Y3740181D01*
X23437029Y2740181D02*
X23437029Y3263991D01*
X23437029Y3263991D02*
X23484648Y3359229D01*
X23484648Y3359229D02*
X23579886Y3406848D01*
X23579886Y3406848D02*
X23722743Y3406848D01*
X23722743Y3406848D02*
X23817981Y3359229D01*
X23817981Y3359229D02*
X23865600Y3311610D01*
X30913220Y1130181D02*
X30913220Y2130181D01*
X30913220Y2130181D02*
X30532268Y2130181D01*
X30532268Y2130181D02*
X30437030Y2082562D01*
X30437030Y2082562D02*
X30389411Y2034943D01*
X30389411Y2034943D02*
X30341792Y1939705D01*
X30341792Y1939705D02*
X30341792Y1796848D01*
X30341792Y1796848D02*
X30389411Y1701610D01*
X30389411Y1701610D02*
X30437030Y1653991D01*
X30437030Y1653991D02*
X30532268Y1606372D01*
X30532268Y1606372D02*
X30913220Y1606372D01*
X29913220Y1130181D02*
X29913220Y1796848D01*
X29913220Y1606372D02*
X29865601Y1701610D01*
X29865601Y1701610D02*
X29817982Y1749229D01*
X29817982Y1749229D02*
X29722744Y1796848D01*
X29722744Y1796848D02*
X29627506Y1796848D01*
X29151315Y1130181D02*
X29246553Y1177800D01*
X29246553Y1177800D02*
X29294172Y1225420D01*
X29294172Y1225420D02*
X29341791Y1320658D01*
X29341791Y1320658D02*
X29341791Y1606372D01*
X29341791Y1606372D02*
X29294172Y1701610D01*
X29294172Y1701610D02*
X29246553Y1749229D01*
X29246553Y1749229D02*
X29151315Y1796848D01*
X29151315Y1796848D02*
X29008458Y1796848D01*
X29008458Y1796848D02*
X28913220Y1749229D01*
X28913220Y1749229D02*
X28865601Y1701610D01*
X28865601Y1701610D02*
X28817982Y1606372D01*
X28817982Y1606372D02*
X28817982Y1320658D01*
X28817982Y1320658D02*
X28865601Y1225420D01*
X28865601Y1225420D02*
X28913220Y1177800D01*
X28913220Y1177800D02*
X29008458Y1130181D01*
X29008458Y1130181D02*
X29151315Y1130181D01*
X27960839Y1796848D02*
X27960839Y987324D01*
X27960839Y987324D02*
X28008458Y892086D01*
X28008458Y892086D02*
X28056077Y844467D01*
X28056077Y844467D02*
X28151315Y796848D01*
X28151315Y796848D02*
X28294172Y796848D01*
X28294172Y796848D02*
X28389410Y844467D01*
X27960839Y1177800D02*
X28056077Y1130181D01*
X28056077Y1130181D02*
X28246553Y1130181D01*
X28246553Y1130181D02*
X28341791Y1177800D01*
X28341791Y1177800D02*
X28389410Y1225420D01*
X28389410Y1225420D02*
X28437029Y1320658D01*
X28437029Y1320658D02*
X28437029Y1606372D01*
X28437029Y1606372D02*
X28389410Y1701610D01*
X28389410Y1701610D02*
X28341791Y1749229D01*
X28341791Y1749229D02*
X28246553Y1796848D01*
X28246553Y1796848D02*
X28056077Y1796848D01*
X28056077Y1796848D02*
X27960839Y1749229D01*
X27484648Y1130181D02*
X27484648Y1796848D01*
X27484648Y1606372D02*
X27437029Y1701610D01*
X27437029Y1701610D02*
X27389410Y1749229D01*
X27389410Y1749229D02*
X27294172Y1796848D01*
X27294172Y1796848D02*
X27198934Y1796848D01*
X26437029Y1130181D02*
X26437029Y1653991D01*
X26437029Y1653991D02*
X26484648Y1749229D01*
X26484648Y1749229D02*
X26579886Y1796848D01*
X26579886Y1796848D02*
X26770362Y1796848D01*
X26770362Y1796848D02*
X26865600Y1749229D01*
X26437029Y1177800D02*
X26532267Y1130181D01*
X26532267Y1130181D02*
X26770362Y1130181D01*
X26770362Y1130181D02*
X26865600Y1177800D01*
X26865600Y1177800D02*
X26913219Y1273039D01*
X26913219Y1273039D02*
X26913219Y1368277D01*
X26913219Y1368277D02*
X26865600Y1463515D01*
X26865600Y1463515D02*
X26770362Y1511134D01*
X26770362Y1511134D02*
X26532267Y1511134D01*
X26532267Y1511134D02*
X26437029Y1558753D01*
X25960838Y1130181D02*
X25960838Y1796848D01*
X25960838Y1701610D02*
X25913219Y1749229D01*
X25913219Y1749229D02*
X25817981Y1796848D01*
X25817981Y1796848D02*
X25675124Y1796848D01*
X25675124Y1796848D02*
X25579886Y1749229D01*
X25579886Y1749229D02*
X25532267Y1653991D01*
X25532267Y1653991D02*
X25532267Y1130181D01*
X25532267Y1653991D02*
X25484648Y1749229D01*
X25484648Y1749229D02*
X25389410Y1796848D01*
X25389410Y1796848D02*
X25246553Y1796848D01*
X25246553Y1796848D02*
X25151314Y1749229D01*
X25151314Y1749229D02*
X25103695Y1653991D01*
X25103695Y1653991D02*
X25103695Y1130181D01*
X24627505Y1130181D02*
X24627505Y1796848D01*
X24627505Y1701610D02*
X24579886Y1749229D01*
X24579886Y1749229D02*
X24484648Y1796848D01*
X24484648Y1796848D02*
X24341791Y1796848D01*
X24341791Y1796848D02*
X24246553Y1749229D01*
X24246553Y1749229D02*
X24198934Y1653991D01*
X24198934Y1653991D02*
X24198934Y1130181D01*
X24198934Y1653991D02*
X24151315Y1749229D01*
X24151315Y1749229D02*
X24056077Y1796848D01*
X24056077Y1796848D02*
X23913220Y1796848D01*
X23913220Y1796848D02*
X23817981Y1749229D01*
X23817981Y1749229D02*
X23770362Y1653991D01*
X23770362Y1653991D02*
X23770362Y1130181D01*
X23294172Y1130181D02*
X23294172Y1796848D01*
X23294172Y2130181D02*
X23341791Y2082562D01*
X23341791Y2082562D02*
X23294172Y2034943D01*
X23294172Y2034943D02*
X23246553Y2082562D01*
X23246553Y2082562D02*
X23294172Y2130181D01*
X23294172Y2130181D02*
X23294172Y2034943D01*
X22817982Y1796848D02*
X22817982Y1130181D01*
X22817982Y1701610D02*
X22770363Y1749229D01*
X22770363Y1749229D02*
X22675125Y1796848D01*
X22675125Y1796848D02*
X22532268Y1796848D01*
X22532268Y1796848D02*
X22437030Y1749229D01*
X22437030Y1749229D02*
X22389411Y1653991D01*
X22389411Y1653991D02*
X22389411Y1130181D01*
X21484649Y1796848D02*
X21484649Y987324D01*
X21484649Y987324D02*
X21532268Y892086D01*
X21532268Y892086D02*
X21579887Y844467D01*
X21579887Y844467D02*
X21675125Y796848D01*
X21675125Y796848D02*
X21817982Y796848D01*
X21817982Y796848D02*
X21913220Y844467D01*
X21484649Y1177800D02*
X21579887Y1130181D01*
X21579887Y1130181D02*
X21770363Y1130181D01*
X21770363Y1130181D02*
X21865601Y1177800D01*
X21865601Y1177800D02*
X21913220Y1225420D01*
X21913220Y1225420D02*
X21960839Y1320658D01*
X21960839Y1320658D02*
X21960839Y1606372D01*
X21960839Y1606372D02*
X21913220Y1701610D01*
X21913220Y1701610D02*
X21865601Y1749229D01*
X21865601Y1749229D02*
X21770363Y1796848D01*
X21770363Y1796848D02*
X21579887Y1796848D01*
X21579887Y1796848D02*
X21484649Y1749229D01*
X19913220Y1653991D02*
X19770363Y1606372D01*
X19770363Y1606372D02*
X19722744Y1558753D01*
X19722744Y1558753D02*
X19675125Y1463515D01*
X19675125Y1463515D02*
X19675125Y1320658D01*
X19675125Y1320658D02*
X19722744Y1225420D01*
X19722744Y1225420D02*
X19770363Y1177800D01*
X19770363Y1177800D02*
X19865601Y1130181D01*
X19865601Y1130181D02*
X20246553Y1130181D01*
X20246553Y1130181D02*
X20246553Y2130181D01*
X20246553Y2130181D02*
X19913220Y2130181D01*
X19913220Y2130181D02*
X19817982Y2082562D01*
X19817982Y2082562D02*
X19770363Y2034943D01*
X19770363Y2034943D02*
X19722744Y1939705D01*
X19722744Y1939705D02*
X19722744Y1844467D01*
X19722744Y1844467D02*
X19770363Y1749229D01*
X19770363Y1749229D02*
X19817982Y1701610D01*
X19817982Y1701610D02*
X19913220Y1653991D01*
X19913220Y1653991D02*
X20246553Y1653991D01*
X19103696Y1130181D02*
X19198934Y1177800D01*
X19198934Y1177800D02*
X19246553Y1225420D01*
X19246553Y1225420D02*
X19294172Y1320658D01*
X19294172Y1320658D02*
X19294172Y1606372D01*
X19294172Y1606372D02*
X19246553Y1701610D01*
X19246553Y1701610D02*
X19198934Y1749229D01*
X19198934Y1749229D02*
X19103696Y1796848D01*
X19103696Y1796848D02*
X18960839Y1796848D01*
X18960839Y1796848D02*
X18865601Y1749229D01*
X18865601Y1749229D02*
X18817982Y1701610D01*
X18817982Y1701610D02*
X18770363Y1606372D01*
X18770363Y1606372D02*
X18770363Y1320658D01*
X18770363Y1320658D02*
X18817982Y1225420D01*
X18817982Y1225420D02*
X18865601Y1177800D01*
X18865601Y1177800D02*
X18960839Y1130181D01*
X18960839Y1130181D02*
X19103696Y1130181D01*
X17913220Y1130181D02*
X17913220Y1653991D01*
X17913220Y1653991D02*
X17960839Y1749229D01*
X17960839Y1749229D02*
X18056077Y1796848D01*
X18056077Y1796848D02*
X18246553Y1796848D01*
X18246553Y1796848D02*
X18341791Y1749229D01*
X17913220Y1177800D02*
X18008458Y1130181D01*
X18008458Y1130181D02*
X18246553Y1130181D01*
X18246553Y1130181D02*
X18341791Y1177800D01*
X18341791Y1177800D02*
X18389410Y1273039D01*
X18389410Y1273039D02*
X18389410Y1368277D01*
X18389410Y1368277D02*
X18341791Y1463515D01*
X18341791Y1463515D02*
X18246553Y1511134D01*
X18246553Y1511134D02*
X18008458Y1511134D01*
X18008458Y1511134D02*
X17913220Y1558753D01*
X17437029Y1130181D02*
X17437029Y1796848D01*
X17437029Y1606372D02*
X17389410Y1701610D01*
X17389410Y1701610D02*
X17341791Y1749229D01*
X17341791Y1749229D02*
X17246553Y1796848D01*
X17246553Y1796848D02*
X17151315Y1796848D01*
X16389410Y1130181D02*
X16389410Y2130181D01*
X16389410Y1177800D02*
X16484648Y1130181D01*
X16484648Y1130181D02*
X16675124Y1130181D01*
X16675124Y1130181D02*
X16770362Y1177800D01*
X16770362Y1177800D02*
X16817981Y1225420D01*
X16817981Y1225420D02*
X16865600Y1320658D01*
X16865600Y1320658D02*
X16865600Y1606372D01*
X16865600Y1606372D02*
X16817981Y1701610D01*
X16817981Y1701610D02*
X16770362Y1749229D01*
X16770362Y1749229D02*
X16675124Y1796848D01*
X16675124Y1796848D02*
X16484648Y1796848D01*
X16484648Y1796848D02*
X16389410Y1749229D01*
X16062969Y46342800D02*
X15920112Y46295181D01*
X15920112Y46295181D02*
X15682017Y46295181D01*
X15682017Y46295181D02*
X15586779Y46342800D01*
X15586779Y46342800D02*
X15539160Y46390420D01*
X15539160Y46390420D02*
X15491541Y46485658D01*
X15491541Y46485658D02*
X15491541Y46580896D01*
X15491541Y46580896D02*
X15539160Y46676134D01*
X15539160Y46676134D02*
X15586779Y46723753D01*
X15586779Y46723753D02*
X15682017Y46771372D01*
X15682017Y46771372D02*
X15872493Y46818991D01*
X15872493Y46818991D02*
X15967731Y46866610D01*
X15967731Y46866610D02*
X16015350Y46914229D01*
X16015350Y46914229D02*
X16062969Y47009467D01*
X16062969Y47009467D02*
X16062969Y47104705D01*
X16062969Y47104705D02*
X16015350Y47199943D01*
X16015350Y47199943D02*
X15967731Y47247562D01*
X15967731Y47247562D02*
X15872493Y47295181D01*
X15872493Y47295181D02*
X15634398Y47295181D01*
X15634398Y47295181D02*
X15491541Y47247562D01*
X15158207Y47295181D02*
X14920112Y46295181D01*
X14920112Y46295181D02*
X14729636Y47009467D01*
X14729636Y47009467D02*
X14539160Y46295181D01*
X14539160Y46295181D02*
X14301065Y47295181D01*
X13920112Y46295181D02*
X13920112Y47295181D01*
X13920112Y47295181D02*
X13682017Y47295181D01*
X13682017Y47295181D02*
X13539160Y47247562D01*
X13539160Y47247562D02*
X13443922Y47152324D01*
X13443922Y47152324D02*
X13396303Y47057086D01*
X13396303Y47057086D02*
X13348684Y46866610D01*
X13348684Y46866610D02*
X13348684Y46723753D01*
X13348684Y46723753D02*
X13396303Y46533277D01*
X13396303Y46533277D02*
X13443922Y46438039D01*
X13443922Y46438039D02*
X13539160Y46342800D01*
X13539160Y46342800D02*
X13682017Y46295181D01*
X13682017Y46295181D02*
X13920112Y46295181D01*
X12348684Y46390420D02*
X12396303Y46342800D01*
X12396303Y46342800D02*
X12539160Y46295181D01*
X12539160Y46295181D02*
X12634398Y46295181D01*
X12634398Y46295181D02*
X12777255Y46342800D01*
X12777255Y46342800D02*
X12872493Y46438039D01*
X12872493Y46438039D02*
X12920112Y46533277D01*
X12920112Y46533277D02*
X12967731Y46723753D01*
X12967731Y46723753D02*
X12967731Y46866610D01*
X12967731Y46866610D02*
X12920112Y47057086D01*
X12920112Y47057086D02*
X12872493Y47152324D01*
X12872493Y47152324D02*
X12777255Y47247562D01*
X12777255Y47247562D02*
X12634398Y47295181D01*
X12634398Y47295181D02*
X12539160Y47295181D01*
X12539160Y47295181D02*
X12396303Y47247562D01*
X12396303Y47247562D02*
X12348684Y47199943D01*
X11443922Y46295181D02*
X11920112Y46295181D01*
X11920112Y46295181D02*
X11920112Y47295181D01*
X11110588Y46295181D02*
X11110588Y47295181D01*
X10539160Y46295181D02*
X10967731Y46866610D01*
X10539160Y47295181D02*
X11110588Y46723753D01*
X13301065Y25795181D02*
X13777255Y25795181D01*
X13777255Y25795181D02*
X13777255Y26795181D01*
X12967731Y26318991D02*
X12634398Y26318991D01*
X12491541Y25795181D02*
X12967731Y25795181D01*
X12967731Y25795181D02*
X12967731Y26795181D01*
X12967731Y26795181D02*
X12491541Y26795181D01*
X12062969Y25795181D02*
X12062969Y26795181D01*
X12062969Y26795181D02*
X11824874Y26795181D01*
X11824874Y26795181D02*
X11682017Y26747562D01*
X11682017Y26747562D02*
X11586779Y26652324D01*
X11586779Y26652324D02*
X11539160Y26557086D01*
X11539160Y26557086D02*
X11491541Y26366610D01*
X11491541Y26366610D02*
X11491541Y26223753D01*
X11491541Y26223753D02*
X11539160Y26033277D01*
X11539160Y26033277D02*
X11586779Y25938039D01*
X11586779Y25938039D02*
X11682017Y25842800D01*
X11682017Y25842800D02*
X11824874Y25795181D01*
X11824874Y25795181D02*
X12062969Y25795181D01*
X10872493Y26795181D02*
X10777255Y26795181D01*
X10777255Y26795181D02*
X10682017Y26747562D01*
X10682017Y26747562D02*
X10634398Y26699943D01*
X10634398Y26699943D02*
X10586779Y26604705D01*
X10586779Y26604705D02*
X10539160Y26414229D01*
X10539160Y26414229D02*
X10539160Y26176134D01*
X10539160Y26176134D02*
X10586779Y25985658D01*
X10586779Y25985658D02*
X10634398Y25890420D01*
X10634398Y25890420D02*
X10682017Y25842800D01*
X10682017Y25842800D02*
X10777255Y25795181D01*
X10777255Y25795181D02*
X10872493Y25795181D01*
X10872493Y25795181D02*
X10967731Y25842800D01*
X10967731Y25842800D02*
X11015350Y25890420D01*
X11015350Y25890420D02*
X11062969Y25985658D01*
X11062969Y25985658D02*
X11110588Y26176134D01*
X11110588Y26176134D02*
X11110588Y26414229D01*
X11110588Y26414229D02*
X11062969Y26604705D01*
X11062969Y26604705D02*
X11015350Y26699943D01*
X11015350Y26699943D02*
X10967731Y26747562D01*
X10967731Y26747562D02*
X10872493Y26795181D01*
X22639411Y36997562D02*
X22734649Y37045181D01*
X22734649Y37045181D02*
X22877506Y37045181D01*
X22877506Y37045181D02*
X23020363Y36997562D01*
X23020363Y36997562D02*
X23115601Y36902324D01*
X23115601Y36902324D02*
X23163220Y36807086D01*
X23163220Y36807086D02*
X23210839Y36616610D01*
X23210839Y36616610D02*
X23210839Y36473753D01*
X23210839Y36473753D02*
X23163220Y36283277D01*
X23163220Y36283277D02*
X23115601Y36188039D01*
X23115601Y36188039D02*
X23020363Y36092800D01*
X23020363Y36092800D02*
X22877506Y36045181D01*
X22877506Y36045181D02*
X22782268Y36045181D01*
X22782268Y36045181D02*
X22639411Y36092800D01*
X22639411Y36092800D02*
X22591792Y36140420D01*
X22591792Y36140420D02*
X22591792Y36473753D01*
X22591792Y36473753D02*
X22782268Y36473753D01*
X22163220Y36045181D02*
X22163220Y37045181D01*
X22163220Y37045181D02*
X21591792Y36045181D01*
X21591792Y36045181D02*
X21591792Y37045181D01*
X21115601Y36045181D02*
X21115601Y37045181D01*
X21115601Y37045181D02*
X20877506Y37045181D01*
X20877506Y37045181D02*
X20734649Y36997562D01*
X20734649Y36997562D02*
X20639411Y36902324D01*
X20639411Y36902324D02*
X20591792Y36807086D01*
X20591792Y36807086D02*
X20544173Y36616610D01*
X20544173Y36616610D02*
X20544173Y36473753D01*
X20544173Y36473753D02*
X20591792Y36283277D01*
X20591792Y36283277D02*
X20639411Y36188039D01*
X20639411Y36188039D02*
X20734649Y36092800D01*
X20734649Y36092800D02*
X20877506Y36045181D01*
X20877506Y36045181D02*
X21115601Y36045181D01*
X14062970Y5545181D02*
X14396303Y6021372D01*
X14634398Y5545181D02*
X14634398Y6545181D01*
X14634398Y6545181D02*
X14253446Y6545181D01*
X14253446Y6545181D02*
X14158208Y6497562D01*
X14158208Y6497562D02*
X14110589Y6449943D01*
X14110589Y6449943D02*
X14062970Y6354705D01*
X14062970Y6354705D02*
X14062970Y6211848D01*
X14062970Y6211848D02*
X14110589Y6116610D01*
X14110589Y6116610D02*
X14158208Y6068991D01*
X14158208Y6068991D02*
X14253446Y6021372D01*
X14253446Y6021372D02*
X14634398Y6021372D01*
X13634398Y6068991D02*
X13301065Y6068991D01*
X13158208Y5545181D02*
X13634398Y5545181D01*
X13634398Y5545181D02*
X13634398Y6545181D01*
X13634398Y6545181D02*
X13158208Y6545181D01*
X12777255Y5592800D02*
X12634398Y5545181D01*
X12634398Y5545181D02*
X12396303Y5545181D01*
X12396303Y5545181D02*
X12301065Y5592800D01*
X12301065Y5592800D02*
X12253446Y5640420D01*
X12253446Y5640420D02*
X12205827Y5735658D01*
X12205827Y5735658D02*
X12205827Y5830896D01*
X12205827Y5830896D02*
X12253446Y5926134D01*
X12253446Y5926134D02*
X12301065Y5973753D01*
X12301065Y5973753D02*
X12396303Y6021372D01*
X12396303Y6021372D02*
X12586779Y6068991D01*
X12586779Y6068991D02*
X12682017Y6116610D01*
X12682017Y6116610D02*
X12729636Y6164229D01*
X12729636Y6164229D02*
X12777255Y6259467D01*
X12777255Y6259467D02*
X12777255Y6354705D01*
X12777255Y6354705D02*
X12729636Y6449943D01*
X12729636Y6449943D02*
X12682017Y6497562D01*
X12682017Y6497562D02*
X12586779Y6545181D01*
X12586779Y6545181D02*
X12348684Y6545181D01*
X12348684Y6545181D02*
X12205827Y6497562D01*
X11777255Y6068991D02*
X11443922Y6068991D01*
X11301065Y5545181D02*
X11777255Y5545181D01*
X11777255Y5545181D02*
X11777255Y6545181D01*
X11777255Y6545181D02*
X11301065Y6545181D01*
X11015350Y6545181D02*
X10443922Y6545181D01*
X10729636Y5545181D02*
X10729636Y6545181D01*
X22829887Y6068991D02*
X22687030Y6021372D01*
X22687030Y6021372D02*
X22639411Y5973753D01*
X22639411Y5973753D02*
X22591792Y5878515D01*
X22591792Y5878515D02*
X22591792Y5735658D01*
X22591792Y5735658D02*
X22639411Y5640420D01*
X22639411Y5640420D02*
X22687030Y5592800D01*
X22687030Y5592800D02*
X22782268Y5545181D01*
X22782268Y5545181D02*
X23163220Y5545181D01*
X23163220Y5545181D02*
X23163220Y6545181D01*
X23163220Y6545181D02*
X22829887Y6545181D01*
X22829887Y6545181D02*
X22734649Y6497562D01*
X22734649Y6497562D02*
X22687030Y6449943D01*
X22687030Y6449943D02*
X22639411Y6354705D01*
X22639411Y6354705D02*
X22639411Y6259467D01*
X22639411Y6259467D02*
X22687030Y6164229D01*
X22687030Y6164229D02*
X22734649Y6116610D01*
X22734649Y6116610D02*
X22829887Y6068991D01*
X22829887Y6068991D02*
X23163220Y6068991D01*
X22163220Y6545181D02*
X22163220Y5735658D01*
X22163220Y5735658D02*
X22115601Y5640420D01*
X22115601Y5640420D02*
X22067982Y5592800D01*
X22067982Y5592800D02*
X21972744Y5545181D01*
X21972744Y5545181D02*
X21782268Y5545181D01*
X21782268Y5545181D02*
X21687030Y5592800D01*
X21687030Y5592800D02*
X21639411Y5640420D01*
X21639411Y5640420D02*
X21591792Y5735658D01*
X21591792Y5735658D02*
X21591792Y6545181D01*
X21258458Y6545181D02*
X20687030Y6545181D01*
X20972744Y5545181D02*
X20972744Y6545181D01*
X20496553Y6545181D02*
X19925125Y6545181D01*
X20210839Y5545181D02*
X20210839Y6545181D01*
X19401315Y6545181D02*
X19210839Y6545181D01*
X19210839Y6545181D02*
X19115601Y6497562D01*
X19115601Y6497562D02*
X19020363Y6402324D01*
X19020363Y6402324D02*
X18972744Y6211848D01*
X18972744Y6211848D02*
X18972744Y5878515D01*
X18972744Y5878515D02*
X19020363Y5688039D01*
X19020363Y5688039D02*
X19115601Y5592800D01*
X19115601Y5592800D02*
X19210839Y5545181D01*
X19210839Y5545181D02*
X19401315Y5545181D01*
X19401315Y5545181D02*
X19496553Y5592800D01*
X19496553Y5592800D02*
X19591791Y5688039D01*
X19591791Y5688039D02*
X19639410Y5878515D01*
X19639410Y5878515D02*
X19639410Y6211848D01*
X19639410Y6211848D02*
X19591791Y6402324D01*
X19591791Y6402324D02*
X19496553Y6497562D01*
X19496553Y6497562D02*
X19401315Y6545181D01*
X18544172Y5545181D02*
X18544172Y6545181D01*
X18544172Y6545181D02*
X17972744Y5545181D01*
X17972744Y5545181D02*
X17972744Y6545181D01*
D11*
%TO.C,J1*%
X31250000Y-9250000D02*
X31250000Y-10550000D01*
X31250000Y-2750000D02*
X31250000Y-1450000D01*
X31250000Y-1450000D02*
X28750000Y-1450000D01*
X28750000Y-10550000D02*
X31250000Y-10550000D01*
X28750000Y-9250000D02*
X28750000Y-10550000D01*
X28750000Y-2750000D02*
X28750000Y-1450000D01*
D12*
X31875000Y-2500000D02*
G75*
G03*
X31875000Y-2500000I-125000J0D01*
G01*
D11*
%TO.C,J3*%
X5250000Y-9250000D02*
X5250000Y-10550000D01*
X5250000Y-2750000D02*
X5250000Y-1450000D01*
X5250000Y-1450000D02*
X2750000Y-1450000D01*
X2750000Y-10550000D02*
X5250000Y-10550000D01*
X2750000Y-9250000D02*
X2750000Y-10550000D01*
X2750000Y-2750000D02*
X2750000Y-1450000D01*
D12*
X5875000Y-2500000D02*
G75*
G03*
X5875000Y-2500000I-125000J0D01*
G01*
%TD*%
%LPC*%
D13*
%TO.C,J6*%
X25890000Y54250000D03*
D14*
X25890000Y51710000D03*
X25890000Y49170000D03*
X25890000Y46630000D03*
X25890000Y44090000D03*
X25890000Y41550000D03*
X25890000Y39010000D03*
X25890000Y36470000D03*
X25890000Y33930000D03*
X25890000Y31390000D03*
X25890000Y28850000D03*
X25890000Y26310000D03*
X25890000Y23770000D03*
X25890000Y21230000D03*
X25890000Y18690000D03*
X25890000Y16150000D03*
X25890000Y13610000D03*
X25890000Y11070000D03*
X25890000Y8530000D03*
X25890000Y5990000D03*
%TD*%
D13*
%TO.C,J5*%
X8110000Y54250000D03*
D14*
X8110000Y51710000D03*
X8110000Y49170000D03*
X8110000Y46630000D03*
X8110000Y44090000D03*
X8110000Y41550000D03*
X8110000Y39010000D03*
X8110000Y36470000D03*
X8110000Y33930000D03*
X8110000Y31390000D03*
X8110000Y28850000D03*
X8110000Y26310000D03*
X8110000Y23770000D03*
X8110000Y21230000D03*
X8110000Y18690000D03*
X8110000Y16150000D03*
X8110000Y13610000D03*
X8110000Y11070000D03*
X8110000Y8530000D03*
X8110000Y5990000D03*
%TD*%
D15*
%TO.C,J1*%
X31475000Y-3250000D03*
X28525000Y-3250000D03*
X31475000Y-3750000D03*
X28525000Y-3750000D03*
X31475000Y-4250000D03*
X28525000Y-4250000D03*
X31475000Y-4750000D03*
X28525000Y-4750000D03*
X31475000Y-5250000D03*
X28525000Y-5250000D03*
X31475000Y-5750000D03*
X28525000Y-5750000D03*
X31475000Y-6250000D03*
X28525000Y-6250000D03*
X31475000Y-6750000D03*
X28525000Y-6750000D03*
X31475000Y-7250000D03*
X28525000Y-7250000D03*
X31475000Y-7750000D03*
X28525000Y-7750000D03*
X31475000Y-8250000D03*
X28525000Y-8250000D03*
X31475000Y-8750000D03*
X28525000Y-8750000D03*
%TD*%
%TO.C,J3*%
X5475000Y-3250000D03*
X2525000Y-3250000D03*
X5475000Y-3750000D03*
X2525000Y-3750000D03*
X5475000Y-4250000D03*
X2525000Y-4250000D03*
X5475000Y-4750000D03*
X2525000Y-4750000D03*
X5475000Y-5250000D03*
X2525000Y-5250000D03*
X5475000Y-5750000D03*
X2525000Y-5750000D03*
X5475000Y-6250000D03*
X2525000Y-6250000D03*
X5475000Y-6750000D03*
X2525000Y-6750000D03*
X5475000Y-7250000D03*
X2525000Y-7250000D03*
X5475000Y-7750000D03*
X2525000Y-7750000D03*
X5475000Y-8250000D03*
X2525000Y-8250000D03*
X5475000Y-8750000D03*
X2525000Y-8750000D03*
%TD*%
%LPD*%
M02*
