%TF.GenerationSoftware,KiCad,Pcbnew,7.0.8*%
%TF.CreationDate,2023-11-11T12:05:03+10:00*%
%TF.ProjectId,ProgrammingBoard,50726f67-7261-46d6-9d69-6e67426f6172,rev?*%
%TF.SameCoordinates,Original*%
%TF.FileFunction,Legend,Bot*%
%TF.FilePolarity,Positive*%
%FSLAX46Y46*%
G04 Gerber Fmt 4.6, Leading zero omitted, Abs format (unit mm)*
G04 Created by KiCad (PCBNEW 7.0.8) date 2023-11-11 12:05:03*
%MOMM*%
%LPD*%
G01*
G04 APERTURE LIST*
G04 Aperture macros list*
%AMRoundRect*
0 Rectangle with rounded corners*
0 $1 Rounding radius*
0 $2 $3 $4 $5 $6 $7 $8 $9 X,Y pos of 4 corners*
0 Add a 4 corners polygon primitive as box body*
4,1,4,$2,$3,$4,$5,$6,$7,$8,$9,$2,$3,0*
0 Add four circle primitives for the rounded corners*
1,1,$1+$1,$2,$3*
1,1,$1+$1,$4,$5*
1,1,$1+$1,$6,$7*
1,1,$1+$1,$8,$9*
0 Add four rect primitives between the rounded corners*
20,1,$1+$1,$2,$3,$4,$5,0*
20,1,$1+$1,$4,$5,$6,$7,0*
20,1,$1+$1,$6,$7,$8,$9,0*
20,1,$1+$1,$8,$9,$2,$3,0*%
G04 Aperture macros list end*
%ADD10C,0.150000*%
%ADD11C,0.100000*%
%ADD12C,0.250000*%
%ADD13R,1.700000X1.700000*%
%ADD14O,1.700000X1.700000*%
%ADD15RoundRect,0.062500X0.612500X0.062500X-0.612500X0.062500X-0.612500X-0.062500X0.612500X-0.062500X0*%
G04 APERTURE END LIST*
D10*
X23139411Y5497562D02*
X23234649Y5545181D01*
X23234649Y5545181D02*
X23377506Y5545181D01*
X23377506Y5545181D02*
X23520363Y5497562D01*
X23520363Y5497562D02*
X23615601Y5402324D01*
X23615601Y5402324D02*
X23663220Y5307086D01*
X23663220Y5307086D02*
X23710839Y5116610D01*
X23710839Y5116610D02*
X23710839Y4973753D01*
X23710839Y4973753D02*
X23663220Y4783277D01*
X23663220Y4783277D02*
X23615601Y4688039D01*
X23615601Y4688039D02*
X23520363Y4592800D01*
X23520363Y4592800D02*
X23377506Y4545181D01*
X23377506Y4545181D02*
X23282268Y4545181D01*
X23282268Y4545181D02*
X23139411Y4592800D01*
X23139411Y4592800D02*
X23091792Y4640420D01*
X23091792Y4640420D02*
X23091792Y4973753D01*
X23091792Y4973753D02*
X23282268Y4973753D01*
X22663220Y4545181D02*
X22663220Y5545181D01*
X22663220Y5545181D02*
X22091792Y4545181D01*
X22091792Y4545181D02*
X22091792Y5545181D01*
X21615601Y4545181D02*
X21615601Y5545181D01*
X21615601Y5545181D02*
X21377506Y5545181D01*
X21377506Y5545181D02*
X21234649Y5497562D01*
X21234649Y5497562D02*
X21139411Y5402324D01*
X21139411Y5402324D02*
X21091792Y5307086D01*
X21091792Y5307086D02*
X21044173Y5116610D01*
X21044173Y5116610D02*
X21044173Y4973753D01*
X21044173Y4973753D02*
X21091792Y4783277D01*
X21091792Y4783277D02*
X21139411Y4688039D01*
X21139411Y4688039D02*
X21234649Y4592800D01*
X21234649Y4592800D02*
X21377506Y4545181D01*
X21377506Y4545181D02*
X21615601Y4545181D01*
X10389411Y5497562D02*
X10484649Y5545181D01*
X10484649Y5545181D02*
X10627506Y5545181D01*
X10627506Y5545181D02*
X10770363Y5497562D01*
X10770363Y5497562D02*
X10865601Y5402324D01*
X10865601Y5402324D02*
X10913220Y5307086D01*
X10913220Y5307086D02*
X10960839Y5116610D01*
X10960839Y5116610D02*
X10960839Y4973753D01*
X10960839Y4973753D02*
X10913220Y4783277D01*
X10913220Y4783277D02*
X10865601Y4688039D01*
X10865601Y4688039D02*
X10770363Y4592800D01*
X10770363Y4592800D02*
X10627506Y4545181D01*
X10627506Y4545181D02*
X10532268Y4545181D01*
X10532268Y4545181D02*
X10389411Y4592800D01*
X10389411Y4592800D02*
X10341792Y4640420D01*
X10341792Y4640420D02*
X10341792Y4973753D01*
X10341792Y4973753D02*
X10532268Y4973753D01*
X9913220Y4545181D02*
X9913220Y5545181D01*
X9913220Y5545181D02*
X9341792Y4545181D01*
X9341792Y4545181D02*
X9341792Y5545181D01*
X8865601Y4545181D02*
X8865601Y5545181D01*
X8865601Y5545181D02*
X8627506Y5545181D01*
X8627506Y5545181D02*
X8484649Y5497562D01*
X8484649Y5497562D02*
X8389411Y5402324D01*
X8389411Y5402324D02*
X8341792Y5307086D01*
X8341792Y5307086D02*
X8294173Y5116610D01*
X8294173Y5116610D02*
X8294173Y4973753D01*
X8294173Y4973753D02*
X8341792Y4783277D01*
X8341792Y4783277D02*
X8389411Y4688039D01*
X8389411Y4688039D02*
X8484649Y4592800D01*
X8484649Y4592800D02*
X8627506Y4545181D01*
X8627506Y4545181D02*
X8865601Y4545181D01*
X10710839Y22342800D02*
X10567982Y22295181D01*
X10567982Y22295181D02*
X10329887Y22295181D01*
X10329887Y22295181D02*
X10234649Y22342800D01*
X10234649Y22342800D02*
X10187030Y22390420D01*
X10187030Y22390420D02*
X10139411Y22485658D01*
X10139411Y22485658D02*
X10139411Y22580896D01*
X10139411Y22580896D02*
X10187030Y22676134D01*
X10187030Y22676134D02*
X10234649Y22723753D01*
X10234649Y22723753D02*
X10329887Y22771372D01*
X10329887Y22771372D02*
X10520363Y22818991D01*
X10520363Y22818991D02*
X10615601Y22866610D01*
X10615601Y22866610D02*
X10663220Y22914229D01*
X10663220Y22914229D02*
X10710839Y23009467D01*
X10710839Y23009467D02*
X10710839Y23104705D01*
X10710839Y23104705D02*
X10663220Y23199943D01*
X10663220Y23199943D02*
X10615601Y23247562D01*
X10615601Y23247562D02*
X10520363Y23295181D01*
X10520363Y23295181D02*
X10282268Y23295181D01*
X10282268Y23295181D02*
X10139411Y23247562D01*
X9710839Y22295181D02*
X9710839Y23295181D01*
X9710839Y23295181D02*
X9472744Y23295181D01*
X9472744Y23295181D02*
X9329887Y23247562D01*
X9329887Y23247562D02*
X9234649Y23152324D01*
X9234649Y23152324D02*
X9187030Y23057086D01*
X9187030Y23057086D02*
X9139411Y22866610D01*
X9139411Y22866610D02*
X9139411Y22723753D01*
X9139411Y22723753D02*
X9187030Y22533277D01*
X9187030Y22533277D02*
X9234649Y22438039D01*
X9234649Y22438039D02*
X9329887Y22342800D01*
X9329887Y22342800D02*
X9472744Y22295181D01*
X9472744Y22295181D02*
X9710839Y22295181D01*
X8758458Y22580896D02*
X8282268Y22580896D01*
X8853696Y22295181D02*
X8520363Y23295181D01*
X8520363Y23295181D02*
X8187030Y22295181D01*
X23801065Y9545181D02*
X24277255Y9545181D01*
X24277255Y9545181D02*
X24277255Y10545181D01*
X23467731Y10068991D02*
X23134398Y10068991D01*
X22991541Y9545181D02*
X23467731Y9545181D01*
X23467731Y9545181D02*
X23467731Y10545181D01*
X23467731Y10545181D02*
X22991541Y10545181D01*
X22562969Y9545181D02*
X22562969Y10545181D01*
X22562969Y10545181D02*
X22324874Y10545181D01*
X22324874Y10545181D02*
X22182017Y10497562D01*
X22182017Y10497562D02*
X22086779Y10402324D01*
X22086779Y10402324D02*
X22039160Y10307086D01*
X22039160Y10307086D02*
X21991541Y10116610D01*
X21991541Y10116610D02*
X21991541Y9973753D01*
X21991541Y9973753D02*
X22039160Y9783277D01*
X22039160Y9783277D02*
X22086779Y9688039D01*
X22086779Y9688039D02*
X22182017Y9592800D01*
X22182017Y9592800D02*
X22324874Y9545181D01*
X22324874Y9545181D02*
X22562969Y9545181D01*
X21610588Y10449943D02*
X21562969Y10497562D01*
X21562969Y10497562D02*
X21467731Y10545181D01*
X21467731Y10545181D02*
X21229636Y10545181D01*
X21229636Y10545181D02*
X21134398Y10497562D01*
X21134398Y10497562D02*
X21086779Y10449943D01*
X21086779Y10449943D02*
X21039160Y10354705D01*
X21039160Y10354705D02*
X21039160Y10259467D01*
X21039160Y10259467D02*
X21086779Y10116610D01*
X21086779Y10116610D02*
X21658207Y9545181D01*
X21658207Y9545181D02*
X21039160Y9545181D01*
X11027254Y14592800D02*
X10884397Y14545181D01*
X10884397Y14545181D02*
X10646302Y14545181D01*
X10646302Y14545181D02*
X10551064Y14592800D01*
X10551064Y14592800D02*
X10503445Y14640420D01*
X10503445Y14640420D02*
X10455826Y14735658D01*
X10455826Y14735658D02*
X10455826Y14830896D01*
X10455826Y14830896D02*
X10503445Y14926134D01*
X10503445Y14926134D02*
X10551064Y14973753D01*
X10551064Y14973753D02*
X10646302Y15021372D01*
X10646302Y15021372D02*
X10836778Y15068991D01*
X10836778Y15068991D02*
X10932016Y15116610D01*
X10932016Y15116610D02*
X10979635Y15164229D01*
X10979635Y15164229D02*
X11027254Y15259467D01*
X11027254Y15259467D02*
X11027254Y15354705D01*
X11027254Y15354705D02*
X10979635Y15449943D01*
X10979635Y15449943D02*
X10932016Y15497562D01*
X10932016Y15497562D02*
X10836778Y15545181D01*
X10836778Y15545181D02*
X10598683Y15545181D01*
X10598683Y15545181D02*
X10455826Y15497562D01*
X10122492Y15545181D02*
X9884397Y14545181D01*
X9884397Y14545181D02*
X9693921Y15259467D01*
X9693921Y15259467D02*
X9503445Y14545181D01*
X9503445Y14545181D02*
X9265350Y15545181D01*
X8884397Y14545181D02*
X8884397Y15545181D01*
X8884397Y15545181D02*
X8646302Y15545181D01*
X8646302Y15545181D02*
X8503445Y15497562D01*
X8503445Y15497562D02*
X8408207Y15402324D01*
X8408207Y15402324D02*
X8360588Y15307086D01*
X8360588Y15307086D02*
X8312969Y15116610D01*
X8312969Y15116610D02*
X8312969Y14973753D01*
X8312969Y14973753D02*
X8360588Y14783277D01*
X8360588Y14783277D02*
X8408207Y14688039D01*
X8408207Y14688039D02*
X8503445Y14592800D01*
X8503445Y14592800D02*
X8646302Y14545181D01*
X8646302Y14545181D02*
X8884397Y14545181D01*
X7884397Y14545181D02*
X7884397Y15545181D01*
X7217731Y15545181D02*
X7027255Y15545181D01*
X7027255Y15545181D02*
X6932017Y15497562D01*
X6932017Y15497562D02*
X6836779Y15402324D01*
X6836779Y15402324D02*
X6789160Y15211848D01*
X6789160Y15211848D02*
X6789160Y14878515D01*
X6789160Y14878515D02*
X6836779Y14688039D01*
X6836779Y14688039D02*
X6932017Y14592800D01*
X6932017Y14592800D02*
X7027255Y14545181D01*
X7027255Y14545181D02*
X7217731Y14545181D01*
X7217731Y14545181D02*
X7312969Y14592800D01*
X7312969Y14592800D02*
X7408207Y14688039D01*
X7408207Y14688039D02*
X7455826Y14878515D01*
X7455826Y14878515D02*
X7455826Y15211848D01*
X7455826Y15211848D02*
X7408207Y15402324D01*
X7408207Y15402324D02*
X7312969Y15497562D01*
X7312969Y15497562D02*
X7217731Y15545181D01*
X23801065Y12045181D02*
X24277255Y12045181D01*
X24277255Y12045181D02*
X24277255Y13045181D01*
X23467731Y12568991D02*
X23134398Y12568991D01*
X22991541Y12045181D02*
X23467731Y12045181D01*
X23467731Y12045181D02*
X23467731Y13045181D01*
X23467731Y13045181D02*
X22991541Y13045181D01*
X22562969Y12045181D02*
X22562969Y13045181D01*
X22562969Y13045181D02*
X22324874Y13045181D01*
X22324874Y13045181D02*
X22182017Y12997562D01*
X22182017Y12997562D02*
X22086779Y12902324D01*
X22086779Y12902324D02*
X22039160Y12807086D01*
X22039160Y12807086D02*
X21991541Y12616610D01*
X21991541Y12616610D02*
X21991541Y12473753D01*
X21991541Y12473753D02*
X22039160Y12283277D01*
X22039160Y12283277D02*
X22086779Y12188039D01*
X22086779Y12188039D02*
X22182017Y12092800D01*
X22182017Y12092800D02*
X22324874Y12045181D01*
X22324874Y12045181D02*
X22562969Y12045181D01*
X21039160Y12045181D02*
X21610588Y12045181D01*
X21324874Y12045181D02*
X21324874Y13045181D01*
X21324874Y13045181D02*
X21420112Y12902324D01*
X21420112Y12902324D02*
X21515350Y12807086D01*
X21515350Y12807086D02*
X21610588Y12759467D01*
X12467731Y2906848D02*
X12229636Y2240181D01*
X12229636Y2240181D02*
X11991541Y2906848D01*
X11086779Y2240181D02*
X11658207Y2240181D01*
X11372493Y2240181D02*
X11372493Y3240181D01*
X11372493Y3240181D02*
X11467731Y3097324D01*
X11467731Y3097324D02*
X11562969Y3002086D01*
X11562969Y3002086D02*
X11658207Y2954467D01*
X10658207Y2335420D02*
X10610588Y2287800D01*
X10610588Y2287800D02*
X10658207Y2240181D01*
X10658207Y2240181D02*
X10705826Y2287800D01*
X10705826Y2287800D02*
X10658207Y2335420D01*
X10658207Y2335420D02*
X10658207Y2240181D01*
X9991541Y3240181D02*
X9896303Y3240181D01*
X9896303Y3240181D02*
X9801065Y3192562D01*
X9801065Y3192562D02*
X9753446Y3144943D01*
X9753446Y3144943D02*
X9705827Y3049705D01*
X9705827Y3049705D02*
X9658208Y2859229D01*
X9658208Y2859229D02*
X9658208Y2621134D01*
X9658208Y2621134D02*
X9705827Y2430658D01*
X9705827Y2430658D02*
X9753446Y2335420D01*
X9753446Y2335420D02*
X9801065Y2287800D01*
X9801065Y2287800D02*
X9896303Y2240181D01*
X9896303Y2240181D02*
X9991541Y2240181D01*
X9991541Y2240181D02*
X10086779Y2287800D01*
X10086779Y2287800D02*
X10134398Y2335420D01*
X10134398Y2335420D02*
X10182017Y2430658D01*
X10182017Y2430658D02*
X10229636Y2621134D01*
X10229636Y2621134D02*
X10229636Y2859229D01*
X10229636Y2859229D02*
X10182017Y3049705D01*
X10182017Y3049705D02*
X10134398Y3144943D01*
X10134398Y3144943D02*
X10086779Y3192562D01*
X10086779Y3192562D02*
X9991541Y3240181D01*
X8467731Y2240181D02*
X8467731Y3240181D01*
X8467731Y3240181D02*
X7896303Y2240181D01*
X7896303Y2240181D02*
X7896303Y3240181D01*
X7277255Y2240181D02*
X7372493Y2287800D01*
X7372493Y2287800D02*
X7420112Y2335420D01*
X7420112Y2335420D02*
X7467731Y2430658D01*
X7467731Y2430658D02*
X7467731Y2716372D01*
X7467731Y2716372D02*
X7420112Y2811610D01*
X7420112Y2811610D02*
X7372493Y2859229D01*
X7372493Y2859229D02*
X7277255Y2906848D01*
X7277255Y2906848D02*
X7134398Y2906848D01*
X7134398Y2906848D02*
X7039160Y2859229D01*
X7039160Y2859229D02*
X6991541Y2811610D01*
X6991541Y2811610D02*
X6943922Y2716372D01*
X6943922Y2716372D02*
X6943922Y2430658D01*
X6943922Y2430658D02*
X6991541Y2335420D01*
X6991541Y2335420D02*
X7039160Y2287800D01*
X7039160Y2287800D02*
X7134398Y2240181D01*
X7134398Y2240181D02*
X7277255Y2240181D01*
X6610588Y2906848D02*
X6372493Y2240181D01*
X6372493Y2240181D02*
X6134398Y2906848D01*
X5753445Y2621134D02*
X4991541Y2621134D01*
X4562969Y3144943D02*
X4515350Y3192562D01*
X4515350Y3192562D02*
X4420112Y3240181D01*
X4420112Y3240181D02*
X4182017Y3240181D01*
X4182017Y3240181D02*
X4086779Y3192562D01*
X4086779Y3192562D02*
X4039160Y3144943D01*
X4039160Y3144943D02*
X3991541Y3049705D01*
X3991541Y3049705D02*
X3991541Y2954467D01*
X3991541Y2954467D02*
X4039160Y2811610D01*
X4039160Y2811610D02*
X4610588Y2240181D01*
X4610588Y2240181D02*
X3991541Y2240181D01*
X3658207Y3240181D02*
X3039160Y3240181D01*
X3039160Y3240181D02*
X3372493Y2859229D01*
X3372493Y2859229D02*
X3229636Y2859229D01*
X3229636Y2859229D02*
X3134398Y2811610D01*
X3134398Y2811610D02*
X3086779Y2763991D01*
X3086779Y2763991D02*
X3039160Y2668753D01*
X3039160Y2668753D02*
X3039160Y2430658D01*
X3039160Y2430658D02*
X3086779Y2335420D01*
X3086779Y2335420D02*
X3134398Y2287800D01*
X3134398Y2287800D02*
X3229636Y2240181D01*
X3229636Y2240181D02*
X3515350Y2240181D01*
X3515350Y2240181D02*
X3610588Y2287800D01*
X3610588Y2287800D02*
X3658207Y2335420D01*
X13896305Y249229D02*
X13943924Y296848D01*
X13943924Y296848D02*
X14039162Y439705D01*
X14039162Y439705D02*
X14086781Y534943D01*
X14086781Y534943D02*
X14134400Y677800D01*
X14134400Y677800D02*
X14182019Y915896D01*
X14182019Y915896D02*
X14182019Y1106372D01*
X14182019Y1106372D02*
X14134400Y1344467D01*
X14134400Y1344467D02*
X14086781Y1487324D01*
X14086781Y1487324D02*
X14039162Y1582562D01*
X14039162Y1582562D02*
X13943924Y1725420D01*
X13943924Y1725420D02*
X13896305Y1773039D01*
X13086781Y677800D02*
X13182019Y630181D01*
X13182019Y630181D02*
X13372495Y630181D01*
X13372495Y630181D02*
X13467733Y677800D01*
X13467733Y677800D02*
X13515352Y725420D01*
X13515352Y725420D02*
X13562971Y820658D01*
X13562971Y820658D02*
X13562971Y1106372D01*
X13562971Y1106372D02*
X13515352Y1201610D01*
X13515352Y1201610D02*
X13467733Y1249229D01*
X13467733Y1249229D02*
X13372495Y1296848D01*
X13372495Y1296848D02*
X13182019Y1296848D01*
X13182019Y1296848D02*
X13086781Y1249229D01*
X12753447Y249229D02*
X12705828Y296848D01*
X12705828Y296848D02*
X12610590Y439705D01*
X12610590Y439705D02*
X12562971Y534943D01*
X12562971Y534943D02*
X12515352Y677800D01*
X12515352Y677800D02*
X12467733Y915896D01*
X12467733Y915896D02*
X12467733Y1106372D01*
X12467733Y1106372D02*
X12515352Y1344467D01*
X12515352Y1344467D02*
X12562971Y1487324D01*
X12562971Y1487324D02*
X12610590Y1582562D01*
X12610590Y1582562D02*
X12705828Y1725420D01*
X12705828Y1725420D02*
X12753447Y1773039D01*
X10848685Y677800D02*
X10943923Y630181D01*
X10943923Y630181D02*
X11134399Y630181D01*
X11134399Y630181D02*
X11229637Y677800D01*
X11229637Y677800D02*
X11277256Y773039D01*
X11277256Y773039D02*
X11277256Y1153991D01*
X11277256Y1153991D02*
X11229637Y1249229D01*
X11229637Y1249229D02*
X11134399Y1296848D01*
X11134399Y1296848D02*
X10943923Y1296848D01*
X10943923Y1296848D02*
X10848685Y1249229D01*
X10848685Y1249229D02*
X10801066Y1153991D01*
X10801066Y1153991D02*
X10801066Y1058753D01*
X10801066Y1058753D02*
X11277256Y963515D01*
X9943923Y1296848D02*
X9943923Y487324D01*
X9943923Y487324D02*
X9991542Y392086D01*
X9991542Y392086D02*
X10039161Y344467D01*
X10039161Y344467D02*
X10134399Y296848D01*
X10134399Y296848D02*
X10277256Y296848D01*
X10277256Y296848D02*
X10372494Y344467D01*
X9943923Y677800D02*
X10039161Y630181D01*
X10039161Y630181D02*
X10229637Y630181D01*
X10229637Y630181D02*
X10324875Y677800D01*
X10324875Y677800D02*
X10372494Y725420D01*
X10372494Y725420D02*
X10420113Y820658D01*
X10420113Y820658D02*
X10420113Y1106372D01*
X10420113Y1106372D02*
X10372494Y1201610D01*
X10372494Y1201610D02*
X10324875Y1249229D01*
X10324875Y1249229D02*
X10229637Y1296848D01*
X10229637Y1296848D02*
X10039161Y1296848D01*
X10039161Y1296848D02*
X9943923Y1249229D01*
X9039161Y1296848D02*
X9039161Y487324D01*
X9039161Y487324D02*
X9086780Y392086D01*
X9086780Y392086D02*
X9134399Y344467D01*
X9134399Y344467D02*
X9229637Y296848D01*
X9229637Y296848D02*
X9372494Y296848D01*
X9372494Y296848D02*
X9467732Y344467D01*
X9039161Y677800D02*
X9134399Y630181D01*
X9134399Y630181D02*
X9324875Y630181D01*
X9324875Y630181D02*
X9420113Y677800D01*
X9420113Y677800D02*
X9467732Y725420D01*
X9467732Y725420D02*
X9515351Y820658D01*
X9515351Y820658D02*
X9515351Y1106372D01*
X9515351Y1106372D02*
X9467732Y1201610D01*
X9467732Y1201610D02*
X9420113Y1249229D01*
X9420113Y1249229D02*
X9324875Y1296848D01*
X9324875Y1296848D02*
X9134399Y1296848D01*
X9134399Y1296848D02*
X9039161Y1249229D01*
X8610589Y677800D02*
X8515351Y630181D01*
X8515351Y630181D02*
X8324875Y630181D01*
X8324875Y630181D02*
X8229637Y677800D01*
X8229637Y677800D02*
X8182018Y773039D01*
X8182018Y773039D02*
X8182018Y820658D01*
X8182018Y820658D02*
X8229637Y915896D01*
X8229637Y915896D02*
X8324875Y963515D01*
X8324875Y963515D02*
X8467732Y963515D01*
X8467732Y963515D02*
X8562970Y1011134D01*
X8562970Y1011134D02*
X8610589Y1106372D01*
X8610589Y1106372D02*
X8610589Y1153991D01*
X8610589Y1153991D02*
X8562970Y1249229D01*
X8562970Y1249229D02*
X8467732Y1296848D01*
X8467732Y1296848D02*
X8324875Y1296848D01*
X8324875Y1296848D02*
X8229637Y1249229D01*
X7324875Y630181D02*
X7324875Y1153991D01*
X7324875Y1153991D02*
X7372494Y1249229D01*
X7372494Y1249229D02*
X7467732Y1296848D01*
X7467732Y1296848D02*
X7658208Y1296848D01*
X7658208Y1296848D02*
X7753446Y1249229D01*
X7324875Y677800D02*
X7420113Y630181D01*
X7420113Y630181D02*
X7658208Y630181D01*
X7658208Y630181D02*
X7753446Y677800D01*
X7753446Y677800D02*
X7801065Y773039D01*
X7801065Y773039D02*
X7801065Y868277D01*
X7801065Y868277D02*
X7753446Y963515D01*
X7753446Y963515D02*
X7658208Y1011134D01*
X7658208Y1011134D02*
X7420113Y1011134D01*
X7420113Y1011134D02*
X7324875Y1058753D01*
X6848684Y630181D02*
X6848684Y1296848D01*
X6848684Y1201610D02*
X6801065Y1249229D01*
X6801065Y1249229D02*
X6705827Y1296848D01*
X6705827Y1296848D02*
X6562970Y1296848D01*
X6562970Y1296848D02*
X6467732Y1249229D01*
X6467732Y1249229D02*
X6420113Y1153991D01*
X6420113Y1153991D02*
X6420113Y630181D01*
X6420113Y1153991D02*
X6372494Y1249229D01*
X6372494Y1249229D02*
X6277256Y1296848D01*
X6277256Y1296848D02*
X6134399Y1296848D01*
X6134399Y1296848D02*
X6039160Y1249229D01*
X6039160Y1249229D02*
X5991541Y1153991D01*
X5991541Y1153991D02*
X5991541Y630181D01*
X5515351Y1296848D02*
X5515351Y296848D01*
X5515351Y1249229D02*
X5420113Y1296848D01*
X5420113Y1296848D02*
X5229637Y1296848D01*
X5229637Y1296848D02*
X5134399Y1249229D01*
X5134399Y1249229D02*
X5086780Y1201610D01*
X5086780Y1201610D02*
X5039161Y1106372D01*
X5039161Y1106372D02*
X5039161Y820658D01*
X5039161Y820658D02*
X5086780Y725420D01*
X5086780Y725420D02*
X5134399Y677800D01*
X5134399Y677800D02*
X5229637Y630181D01*
X5229637Y630181D02*
X5420113Y630181D01*
X5420113Y630181D02*
X5515351Y677800D01*
X4467732Y630181D02*
X4562970Y677800D01*
X4562970Y677800D02*
X4610589Y773039D01*
X4610589Y773039D02*
X4610589Y1630181D01*
X3705827Y677800D02*
X3801065Y630181D01*
X3801065Y630181D02*
X3991541Y630181D01*
X3991541Y630181D02*
X4086779Y677800D01*
X4086779Y677800D02*
X4134398Y773039D01*
X4134398Y773039D02*
X4134398Y1153991D01*
X4134398Y1153991D02*
X4086779Y1249229D01*
X4086779Y1249229D02*
X3991541Y1296848D01*
X3991541Y1296848D02*
X3801065Y1296848D01*
X3801065Y1296848D02*
X3705827Y1249229D01*
X3705827Y1249229D02*
X3658208Y1153991D01*
X3658208Y1153991D02*
X3658208Y1058753D01*
X3658208Y1058753D02*
X4134398Y963515D01*
X3229636Y630181D02*
X3229636Y1296848D01*
X3229636Y1106372D02*
X3182017Y1201610D01*
X3182017Y1201610D02*
X3134398Y1249229D01*
X3134398Y1249229D02*
X3039160Y1296848D01*
X3039160Y1296848D02*
X2943922Y1296848D01*
X10848683Y17545181D02*
X10848683Y18545181D01*
X10372493Y17545181D02*
X10372493Y18545181D01*
X10372493Y18545181D02*
X9801065Y17545181D01*
X9801065Y17545181D02*
X9801065Y18545181D01*
X9467731Y18545181D02*
X8896303Y18545181D01*
X9182017Y17545181D02*
X9182017Y18545181D01*
X8039160Y17545181D02*
X8610588Y17545181D01*
X8324874Y17545181D02*
X8324874Y18545181D01*
X8324874Y18545181D02*
X8420112Y18402324D01*
X8420112Y18402324D02*
X8515350Y18307086D01*
X8515350Y18307086D02*
X8610588Y18259467D01*
X23801065Y7045181D02*
X24277255Y7045181D01*
X24277255Y7045181D02*
X24277255Y8045181D01*
X23467731Y7568991D02*
X23134398Y7568991D01*
X22991541Y7045181D02*
X23467731Y7045181D01*
X23467731Y7045181D02*
X23467731Y8045181D01*
X23467731Y8045181D02*
X22991541Y8045181D01*
X22562969Y7045181D02*
X22562969Y8045181D01*
X22562969Y8045181D02*
X22324874Y8045181D01*
X22324874Y8045181D02*
X22182017Y7997562D01*
X22182017Y7997562D02*
X22086779Y7902324D01*
X22086779Y7902324D02*
X22039160Y7807086D01*
X22039160Y7807086D02*
X21991541Y7616610D01*
X21991541Y7616610D02*
X21991541Y7473753D01*
X21991541Y7473753D02*
X22039160Y7283277D01*
X22039160Y7283277D02*
X22086779Y7188039D01*
X22086779Y7188039D02*
X22182017Y7092800D01*
X22182017Y7092800D02*
X22324874Y7045181D01*
X22324874Y7045181D02*
X22562969Y7045181D01*
X21658207Y8045181D02*
X21039160Y8045181D01*
X21039160Y8045181D02*
X21372493Y7664229D01*
X21372493Y7664229D02*
X21229636Y7664229D01*
X21229636Y7664229D02*
X21134398Y7616610D01*
X21134398Y7616610D02*
X21086779Y7568991D01*
X21086779Y7568991D02*
X21039160Y7473753D01*
X21039160Y7473753D02*
X21039160Y7235658D01*
X21039160Y7235658D02*
X21086779Y7140420D01*
X21086779Y7140420D02*
X21134398Y7092800D01*
X21134398Y7092800D02*
X21229636Y7045181D01*
X21229636Y7045181D02*
X21515350Y7045181D01*
X21515350Y7045181D02*
X21610588Y7092800D01*
X21610588Y7092800D02*
X21658207Y7140420D01*
X10758458Y25795181D02*
X10139411Y25795181D01*
X10139411Y25795181D02*
X10472744Y25414229D01*
X10472744Y25414229D02*
X10329887Y25414229D01*
X10329887Y25414229D02*
X10234649Y25366610D01*
X10234649Y25366610D02*
X10187030Y25318991D01*
X10187030Y25318991D02*
X10139411Y25223753D01*
X10139411Y25223753D02*
X10139411Y24985658D01*
X10139411Y24985658D02*
X10187030Y24890420D01*
X10187030Y24890420D02*
X10234649Y24842800D01*
X10234649Y24842800D02*
X10329887Y24795181D01*
X10329887Y24795181D02*
X10615601Y24795181D01*
X10615601Y24795181D02*
X10710839Y24842800D01*
X10710839Y24842800D02*
X10758458Y24890420D01*
X9710839Y24890420D02*
X9663220Y24842800D01*
X9663220Y24842800D02*
X9710839Y24795181D01*
X9710839Y24795181D02*
X9758458Y24842800D01*
X9758458Y24842800D02*
X9710839Y24890420D01*
X9710839Y24890420D02*
X9710839Y24795181D01*
X9329887Y25795181D02*
X8710840Y25795181D01*
X8710840Y25795181D02*
X9044173Y25414229D01*
X9044173Y25414229D02*
X8901316Y25414229D01*
X8901316Y25414229D02*
X8806078Y25366610D01*
X8806078Y25366610D02*
X8758459Y25318991D01*
X8758459Y25318991D02*
X8710840Y25223753D01*
X8710840Y25223753D02*
X8710840Y24985658D01*
X8710840Y24985658D02*
X8758459Y24890420D01*
X8758459Y24890420D02*
X8806078Y24842800D01*
X8806078Y24842800D02*
X8901316Y24795181D01*
X8901316Y24795181D02*
X9187030Y24795181D01*
X9187030Y24795181D02*
X9282268Y24842800D01*
X9282268Y24842800D02*
X9329887Y24890420D01*
X8425125Y25795181D02*
X8091792Y24795181D01*
X8091792Y24795181D02*
X7758459Y25795181D01*
X10091792Y19890420D02*
X10139411Y19842800D01*
X10139411Y19842800D02*
X10282268Y19795181D01*
X10282268Y19795181D02*
X10377506Y19795181D01*
X10377506Y19795181D02*
X10520363Y19842800D01*
X10520363Y19842800D02*
X10615601Y19938039D01*
X10615601Y19938039D02*
X10663220Y20033277D01*
X10663220Y20033277D02*
X10710839Y20223753D01*
X10710839Y20223753D02*
X10710839Y20366610D01*
X10710839Y20366610D02*
X10663220Y20557086D01*
X10663220Y20557086D02*
X10615601Y20652324D01*
X10615601Y20652324D02*
X10520363Y20747562D01*
X10520363Y20747562D02*
X10377506Y20795181D01*
X10377506Y20795181D02*
X10282268Y20795181D01*
X10282268Y20795181D02*
X10139411Y20747562D01*
X10139411Y20747562D02*
X10091792Y20699943D01*
X9187030Y19795181D02*
X9663220Y19795181D01*
X9663220Y19795181D02*
X9663220Y20795181D01*
X8853696Y19795181D02*
X8853696Y20795181D01*
X8282268Y19795181D02*
X8710839Y20366610D01*
X8282268Y20795181D02*
X8853696Y20223753D01*
X31008458Y3240181D02*
X30770363Y2240181D01*
X30770363Y2240181D02*
X30579887Y2954467D01*
X30579887Y2954467D02*
X30389411Y2240181D01*
X30389411Y2240181D02*
X30151316Y3240181D01*
X29627506Y2240181D02*
X29722744Y2287800D01*
X29722744Y2287800D02*
X29770363Y2335420D01*
X29770363Y2335420D02*
X29817982Y2430658D01*
X29817982Y2430658D02*
X29817982Y2716372D01*
X29817982Y2716372D02*
X29770363Y2811610D01*
X29770363Y2811610D02*
X29722744Y2859229D01*
X29722744Y2859229D02*
X29627506Y2906848D01*
X29627506Y2906848D02*
X29484649Y2906848D01*
X29484649Y2906848D02*
X29389411Y2859229D01*
X29389411Y2859229D02*
X29341792Y2811610D01*
X29341792Y2811610D02*
X29294173Y2716372D01*
X29294173Y2716372D02*
X29294173Y2430658D01*
X29294173Y2430658D02*
X29341792Y2335420D01*
X29341792Y2335420D02*
X29389411Y2287800D01*
X29389411Y2287800D02*
X29484649Y2240181D01*
X29484649Y2240181D02*
X29627506Y2240181D01*
X28865601Y2240181D02*
X28865601Y2906848D01*
X28865601Y2716372D02*
X28817982Y2811610D01*
X28817982Y2811610D02*
X28770363Y2859229D01*
X28770363Y2859229D02*
X28675125Y2906848D01*
X28675125Y2906848D02*
X28579887Y2906848D01*
X27817982Y2240181D02*
X27817982Y3240181D01*
X27817982Y2287800D02*
X27913220Y2240181D01*
X27913220Y2240181D02*
X28103696Y2240181D01*
X28103696Y2240181D02*
X28198934Y2287800D01*
X28198934Y2287800D02*
X28246553Y2335420D01*
X28246553Y2335420D02*
X28294172Y2430658D01*
X28294172Y2430658D02*
X28294172Y2716372D01*
X28294172Y2716372D02*
X28246553Y2811610D01*
X28246553Y2811610D02*
X28198934Y2859229D01*
X28198934Y2859229D02*
X28103696Y2906848D01*
X28103696Y2906848D02*
X27913220Y2906848D01*
X27913220Y2906848D02*
X27817982Y2859229D01*
X27437029Y3240181D02*
X27198934Y2240181D01*
X27198934Y2240181D02*
X27008458Y2954467D01*
X27008458Y2954467D02*
X26817982Y2240181D01*
X26817982Y2240181D02*
X26579887Y3240181D01*
X25770363Y2240181D02*
X25770363Y2763991D01*
X25770363Y2763991D02*
X25817982Y2859229D01*
X25817982Y2859229D02*
X25913220Y2906848D01*
X25913220Y2906848D02*
X26103696Y2906848D01*
X26103696Y2906848D02*
X26198934Y2859229D01*
X25770363Y2287800D02*
X25865601Y2240181D01*
X25865601Y2240181D02*
X26103696Y2240181D01*
X26103696Y2240181D02*
X26198934Y2287800D01*
X26198934Y2287800D02*
X26246553Y2383039D01*
X26246553Y2383039D02*
X26246553Y2478277D01*
X26246553Y2478277D02*
X26198934Y2573515D01*
X26198934Y2573515D02*
X26103696Y2621134D01*
X26103696Y2621134D02*
X25865601Y2621134D01*
X25865601Y2621134D02*
X25770363Y2668753D01*
X25437029Y2906848D02*
X25056077Y2906848D01*
X25294172Y3240181D02*
X25294172Y2383039D01*
X25294172Y2383039D02*
X25246553Y2287800D01*
X25246553Y2287800D02*
X25151315Y2240181D01*
X25151315Y2240181D02*
X25056077Y2240181D01*
X24294172Y2287800D02*
X24389410Y2240181D01*
X24389410Y2240181D02*
X24579886Y2240181D01*
X24579886Y2240181D02*
X24675124Y2287800D01*
X24675124Y2287800D02*
X24722743Y2335420D01*
X24722743Y2335420D02*
X24770362Y2430658D01*
X24770362Y2430658D02*
X24770362Y2716372D01*
X24770362Y2716372D02*
X24722743Y2811610D01*
X24722743Y2811610D02*
X24675124Y2859229D01*
X24675124Y2859229D02*
X24579886Y2906848D01*
X24579886Y2906848D02*
X24389410Y2906848D01*
X24389410Y2906848D02*
X24294172Y2859229D01*
X23865600Y2240181D02*
X23865600Y3240181D01*
X23437029Y2240181D02*
X23437029Y2763991D01*
X23437029Y2763991D02*
X23484648Y2859229D01*
X23484648Y2859229D02*
X23579886Y2906848D01*
X23579886Y2906848D02*
X23722743Y2906848D01*
X23722743Y2906848D02*
X23817981Y2859229D01*
X23817981Y2859229D02*
X23865600Y2811610D01*
X30913220Y630181D02*
X30913220Y1630181D01*
X30913220Y1630181D02*
X30532268Y1630181D01*
X30532268Y1630181D02*
X30437030Y1582562D01*
X30437030Y1582562D02*
X30389411Y1534943D01*
X30389411Y1534943D02*
X30341792Y1439705D01*
X30341792Y1439705D02*
X30341792Y1296848D01*
X30341792Y1296848D02*
X30389411Y1201610D01*
X30389411Y1201610D02*
X30437030Y1153991D01*
X30437030Y1153991D02*
X30532268Y1106372D01*
X30532268Y1106372D02*
X30913220Y1106372D01*
X29913220Y630181D02*
X29913220Y1296848D01*
X29913220Y1106372D02*
X29865601Y1201610D01*
X29865601Y1201610D02*
X29817982Y1249229D01*
X29817982Y1249229D02*
X29722744Y1296848D01*
X29722744Y1296848D02*
X29627506Y1296848D01*
X29151315Y630181D02*
X29246553Y677800D01*
X29246553Y677800D02*
X29294172Y725420D01*
X29294172Y725420D02*
X29341791Y820658D01*
X29341791Y820658D02*
X29341791Y1106372D01*
X29341791Y1106372D02*
X29294172Y1201610D01*
X29294172Y1201610D02*
X29246553Y1249229D01*
X29246553Y1249229D02*
X29151315Y1296848D01*
X29151315Y1296848D02*
X29008458Y1296848D01*
X29008458Y1296848D02*
X28913220Y1249229D01*
X28913220Y1249229D02*
X28865601Y1201610D01*
X28865601Y1201610D02*
X28817982Y1106372D01*
X28817982Y1106372D02*
X28817982Y820658D01*
X28817982Y820658D02*
X28865601Y725420D01*
X28865601Y725420D02*
X28913220Y677800D01*
X28913220Y677800D02*
X29008458Y630181D01*
X29008458Y630181D02*
X29151315Y630181D01*
X27960839Y1296848D02*
X27960839Y487324D01*
X27960839Y487324D02*
X28008458Y392086D01*
X28008458Y392086D02*
X28056077Y344467D01*
X28056077Y344467D02*
X28151315Y296848D01*
X28151315Y296848D02*
X28294172Y296848D01*
X28294172Y296848D02*
X28389410Y344467D01*
X27960839Y677800D02*
X28056077Y630181D01*
X28056077Y630181D02*
X28246553Y630181D01*
X28246553Y630181D02*
X28341791Y677800D01*
X28341791Y677800D02*
X28389410Y725420D01*
X28389410Y725420D02*
X28437029Y820658D01*
X28437029Y820658D02*
X28437029Y1106372D01*
X28437029Y1106372D02*
X28389410Y1201610D01*
X28389410Y1201610D02*
X28341791Y1249229D01*
X28341791Y1249229D02*
X28246553Y1296848D01*
X28246553Y1296848D02*
X28056077Y1296848D01*
X28056077Y1296848D02*
X27960839Y1249229D01*
X27484648Y630181D02*
X27484648Y1296848D01*
X27484648Y1106372D02*
X27437029Y1201610D01*
X27437029Y1201610D02*
X27389410Y1249229D01*
X27389410Y1249229D02*
X27294172Y1296848D01*
X27294172Y1296848D02*
X27198934Y1296848D01*
X26437029Y630181D02*
X26437029Y1153991D01*
X26437029Y1153991D02*
X26484648Y1249229D01*
X26484648Y1249229D02*
X26579886Y1296848D01*
X26579886Y1296848D02*
X26770362Y1296848D01*
X26770362Y1296848D02*
X26865600Y1249229D01*
X26437029Y677800D02*
X26532267Y630181D01*
X26532267Y630181D02*
X26770362Y630181D01*
X26770362Y630181D02*
X26865600Y677800D01*
X26865600Y677800D02*
X26913219Y773039D01*
X26913219Y773039D02*
X26913219Y868277D01*
X26913219Y868277D02*
X26865600Y963515D01*
X26865600Y963515D02*
X26770362Y1011134D01*
X26770362Y1011134D02*
X26532267Y1011134D01*
X26532267Y1011134D02*
X26437029Y1058753D01*
X25960838Y630181D02*
X25960838Y1296848D01*
X25960838Y1201610D02*
X25913219Y1249229D01*
X25913219Y1249229D02*
X25817981Y1296848D01*
X25817981Y1296848D02*
X25675124Y1296848D01*
X25675124Y1296848D02*
X25579886Y1249229D01*
X25579886Y1249229D02*
X25532267Y1153991D01*
X25532267Y1153991D02*
X25532267Y630181D01*
X25532267Y1153991D02*
X25484648Y1249229D01*
X25484648Y1249229D02*
X25389410Y1296848D01*
X25389410Y1296848D02*
X25246553Y1296848D01*
X25246553Y1296848D02*
X25151314Y1249229D01*
X25151314Y1249229D02*
X25103695Y1153991D01*
X25103695Y1153991D02*
X25103695Y630181D01*
X24627505Y630181D02*
X24627505Y1296848D01*
X24627505Y1201610D02*
X24579886Y1249229D01*
X24579886Y1249229D02*
X24484648Y1296848D01*
X24484648Y1296848D02*
X24341791Y1296848D01*
X24341791Y1296848D02*
X24246553Y1249229D01*
X24246553Y1249229D02*
X24198934Y1153991D01*
X24198934Y1153991D02*
X24198934Y630181D01*
X24198934Y1153991D02*
X24151315Y1249229D01*
X24151315Y1249229D02*
X24056077Y1296848D01*
X24056077Y1296848D02*
X23913220Y1296848D01*
X23913220Y1296848D02*
X23817981Y1249229D01*
X23817981Y1249229D02*
X23770362Y1153991D01*
X23770362Y1153991D02*
X23770362Y630181D01*
X23294172Y630181D02*
X23294172Y1296848D01*
X23294172Y1630181D02*
X23341791Y1582562D01*
X23341791Y1582562D02*
X23294172Y1534943D01*
X23294172Y1534943D02*
X23246553Y1582562D01*
X23246553Y1582562D02*
X23294172Y1630181D01*
X23294172Y1630181D02*
X23294172Y1534943D01*
X22817982Y1296848D02*
X22817982Y630181D01*
X22817982Y1201610D02*
X22770363Y1249229D01*
X22770363Y1249229D02*
X22675125Y1296848D01*
X22675125Y1296848D02*
X22532268Y1296848D01*
X22532268Y1296848D02*
X22437030Y1249229D01*
X22437030Y1249229D02*
X22389411Y1153991D01*
X22389411Y1153991D02*
X22389411Y630181D01*
X21484649Y1296848D02*
X21484649Y487324D01*
X21484649Y487324D02*
X21532268Y392086D01*
X21532268Y392086D02*
X21579887Y344467D01*
X21579887Y344467D02*
X21675125Y296848D01*
X21675125Y296848D02*
X21817982Y296848D01*
X21817982Y296848D02*
X21913220Y344467D01*
X21484649Y677800D02*
X21579887Y630181D01*
X21579887Y630181D02*
X21770363Y630181D01*
X21770363Y630181D02*
X21865601Y677800D01*
X21865601Y677800D02*
X21913220Y725420D01*
X21913220Y725420D02*
X21960839Y820658D01*
X21960839Y820658D02*
X21960839Y1106372D01*
X21960839Y1106372D02*
X21913220Y1201610D01*
X21913220Y1201610D02*
X21865601Y1249229D01*
X21865601Y1249229D02*
X21770363Y1296848D01*
X21770363Y1296848D02*
X21579887Y1296848D01*
X21579887Y1296848D02*
X21484649Y1249229D01*
X19913220Y1153991D02*
X19770363Y1106372D01*
X19770363Y1106372D02*
X19722744Y1058753D01*
X19722744Y1058753D02*
X19675125Y963515D01*
X19675125Y963515D02*
X19675125Y820658D01*
X19675125Y820658D02*
X19722744Y725420D01*
X19722744Y725420D02*
X19770363Y677800D01*
X19770363Y677800D02*
X19865601Y630181D01*
X19865601Y630181D02*
X20246553Y630181D01*
X20246553Y630181D02*
X20246553Y1630181D01*
X20246553Y1630181D02*
X19913220Y1630181D01*
X19913220Y1630181D02*
X19817982Y1582562D01*
X19817982Y1582562D02*
X19770363Y1534943D01*
X19770363Y1534943D02*
X19722744Y1439705D01*
X19722744Y1439705D02*
X19722744Y1344467D01*
X19722744Y1344467D02*
X19770363Y1249229D01*
X19770363Y1249229D02*
X19817982Y1201610D01*
X19817982Y1201610D02*
X19913220Y1153991D01*
X19913220Y1153991D02*
X20246553Y1153991D01*
X19103696Y630181D02*
X19198934Y677800D01*
X19198934Y677800D02*
X19246553Y725420D01*
X19246553Y725420D02*
X19294172Y820658D01*
X19294172Y820658D02*
X19294172Y1106372D01*
X19294172Y1106372D02*
X19246553Y1201610D01*
X19246553Y1201610D02*
X19198934Y1249229D01*
X19198934Y1249229D02*
X19103696Y1296848D01*
X19103696Y1296848D02*
X18960839Y1296848D01*
X18960839Y1296848D02*
X18865601Y1249229D01*
X18865601Y1249229D02*
X18817982Y1201610D01*
X18817982Y1201610D02*
X18770363Y1106372D01*
X18770363Y1106372D02*
X18770363Y820658D01*
X18770363Y820658D02*
X18817982Y725420D01*
X18817982Y725420D02*
X18865601Y677800D01*
X18865601Y677800D02*
X18960839Y630181D01*
X18960839Y630181D02*
X19103696Y630181D01*
X17913220Y630181D02*
X17913220Y1153991D01*
X17913220Y1153991D02*
X17960839Y1249229D01*
X17960839Y1249229D02*
X18056077Y1296848D01*
X18056077Y1296848D02*
X18246553Y1296848D01*
X18246553Y1296848D02*
X18341791Y1249229D01*
X17913220Y677800D02*
X18008458Y630181D01*
X18008458Y630181D02*
X18246553Y630181D01*
X18246553Y630181D02*
X18341791Y677800D01*
X18341791Y677800D02*
X18389410Y773039D01*
X18389410Y773039D02*
X18389410Y868277D01*
X18389410Y868277D02*
X18341791Y963515D01*
X18341791Y963515D02*
X18246553Y1011134D01*
X18246553Y1011134D02*
X18008458Y1011134D01*
X18008458Y1011134D02*
X17913220Y1058753D01*
X17437029Y630181D02*
X17437029Y1296848D01*
X17437029Y1106372D02*
X17389410Y1201610D01*
X17389410Y1201610D02*
X17341791Y1249229D01*
X17341791Y1249229D02*
X17246553Y1296848D01*
X17246553Y1296848D02*
X17151315Y1296848D01*
X16389410Y630181D02*
X16389410Y1630181D01*
X16389410Y677800D02*
X16484648Y630181D01*
X16484648Y630181D02*
X16675124Y630181D01*
X16675124Y630181D02*
X16770362Y677800D01*
X16770362Y677800D02*
X16817981Y725420D01*
X16817981Y725420D02*
X16865600Y820658D01*
X16865600Y820658D02*
X16865600Y1106372D01*
X16865600Y1106372D02*
X16817981Y1201610D01*
X16817981Y1201610D02*
X16770362Y1249229D01*
X16770362Y1249229D02*
X16675124Y1296848D01*
X16675124Y1296848D02*
X16484648Y1296848D01*
X16484648Y1296848D02*
X16389410Y1249229D01*
X11062969Y12092800D02*
X10920112Y12045181D01*
X10920112Y12045181D02*
X10682017Y12045181D01*
X10682017Y12045181D02*
X10586779Y12092800D01*
X10586779Y12092800D02*
X10539160Y12140420D01*
X10539160Y12140420D02*
X10491541Y12235658D01*
X10491541Y12235658D02*
X10491541Y12330896D01*
X10491541Y12330896D02*
X10539160Y12426134D01*
X10539160Y12426134D02*
X10586779Y12473753D01*
X10586779Y12473753D02*
X10682017Y12521372D01*
X10682017Y12521372D02*
X10872493Y12568991D01*
X10872493Y12568991D02*
X10967731Y12616610D01*
X10967731Y12616610D02*
X11015350Y12664229D01*
X11015350Y12664229D02*
X11062969Y12759467D01*
X11062969Y12759467D02*
X11062969Y12854705D01*
X11062969Y12854705D02*
X11015350Y12949943D01*
X11015350Y12949943D02*
X10967731Y12997562D01*
X10967731Y12997562D02*
X10872493Y13045181D01*
X10872493Y13045181D02*
X10634398Y13045181D01*
X10634398Y13045181D02*
X10491541Y12997562D01*
X10158207Y13045181D02*
X9920112Y12045181D01*
X9920112Y12045181D02*
X9729636Y12759467D01*
X9729636Y12759467D02*
X9539160Y12045181D01*
X9539160Y12045181D02*
X9301065Y13045181D01*
X8920112Y12045181D02*
X8920112Y13045181D01*
X8920112Y13045181D02*
X8682017Y13045181D01*
X8682017Y13045181D02*
X8539160Y12997562D01*
X8539160Y12997562D02*
X8443922Y12902324D01*
X8443922Y12902324D02*
X8396303Y12807086D01*
X8396303Y12807086D02*
X8348684Y12616610D01*
X8348684Y12616610D02*
X8348684Y12473753D01*
X8348684Y12473753D02*
X8396303Y12283277D01*
X8396303Y12283277D02*
X8443922Y12188039D01*
X8443922Y12188039D02*
X8539160Y12092800D01*
X8539160Y12092800D02*
X8682017Y12045181D01*
X8682017Y12045181D02*
X8920112Y12045181D01*
X7348684Y12140420D02*
X7396303Y12092800D01*
X7396303Y12092800D02*
X7539160Y12045181D01*
X7539160Y12045181D02*
X7634398Y12045181D01*
X7634398Y12045181D02*
X7777255Y12092800D01*
X7777255Y12092800D02*
X7872493Y12188039D01*
X7872493Y12188039D02*
X7920112Y12283277D01*
X7920112Y12283277D02*
X7967731Y12473753D01*
X7967731Y12473753D02*
X7967731Y12616610D01*
X7967731Y12616610D02*
X7920112Y12807086D01*
X7920112Y12807086D02*
X7872493Y12902324D01*
X7872493Y12902324D02*
X7777255Y12997562D01*
X7777255Y12997562D02*
X7634398Y13045181D01*
X7634398Y13045181D02*
X7539160Y13045181D01*
X7539160Y13045181D02*
X7396303Y12997562D01*
X7396303Y12997562D02*
X7348684Y12949943D01*
X6443922Y12045181D02*
X6920112Y12045181D01*
X6920112Y12045181D02*
X6920112Y13045181D01*
X6110588Y12045181D02*
X6110588Y13045181D01*
X5539160Y12045181D02*
X5967731Y12616610D01*
X5539160Y13045181D02*
X6110588Y12473753D01*
X23801065Y14795181D02*
X24277255Y14795181D01*
X24277255Y14795181D02*
X24277255Y15795181D01*
X23467731Y15318991D02*
X23134398Y15318991D01*
X22991541Y14795181D02*
X23467731Y14795181D01*
X23467731Y14795181D02*
X23467731Y15795181D01*
X23467731Y15795181D02*
X22991541Y15795181D01*
X22562969Y14795181D02*
X22562969Y15795181D01*
X22562969Y15795181D02*
X22324874Y15795181D01*
X22324874Y15795181D02*
X22182017Y15747562D01*
X22182017Y15747562D02*
X22086779Y15652324D01*
X22086779Y15652324D02*
X22039160Y15557086D01*
X22039160Y15557086D02*
X21991541Y15366610D01*
X21991541Y15366610D02*
X21991541Y15223753D01*
X21991541Y15223753D02*
X22039160Y15033277D01*
X22039160Y15033277D02*
X22086779Y14938039D01*
X22086779Y14938039D02*
X22182017Y14842800D01*
X22182017Y14842800D02*
X22324874Y14795181D01*
X22324874Y14795181D02*
X22562969Y14795181D01*
X21372493Y15795181D02*
X21277255Y15795181D01*
X21277255Y15795181D02*
X21182017Y15747562D01*
X21182017Y15747562D02*
X21134398Y15699943D01*
X21134398Y15699943D02*
X21086779Y15604705D01*
X21086779Y15604705D02*
X21039160Y15414229D01*
X21039160Y15414229D02*
X21039160Y15176134D01*
X21039160Y15176134D02*
X21086779Y14985658D01*
X21086779Y14985658D02*
X21134398Y14890420D01*
X21134398Y14890420D02*
X21182017Y14842800D01*
X21182017Y14842800D02*
X21277255Y14795181D01*
X21277255Y14795181D02*
X21372493Y14795181D01*
X21372493Y14795181D02*
X21467731Y14842800D01*
X21467731Y14842800D02*
X21515350Y14890420D01*
X21515350Y14890420D02*
X21562969Y14985658D01*
X21562969Y14985658D02*
X21610588Y15176134D01*
X21610588Y15176134D02*
X21610588Y15414229D01*
X21610588Y15414229D02*
X21562969Y15604705D01*
X21562969Y15604705D02*
X21515350Y15699943D01*
X21515350Y15699943D02*
X21467731Y15747562D01*
X21467731Y15747562D02*
X21372493Y15795181D01*
X24008458Y18295181D02*
X23389411Y18295181D01*
X23389411Y18295181D02*
X23722744Y17914229D01*
X23722744Y17914229D02*
X23579887Y17914229D01*
X23579887Y17914229D02*
X23484649Y17866610D01*
X23484649Y17866610D02*
X23437030Y17818991D01*
X23437030Y17818991D02*
X23389411Y17723753D01*
X23389411Y17723753D02*
X23389411Y17485658D01*
X23389411Y17485658D02*
X23437030Y17390420D01*
X23437030Y17390420D02*
X23484649Y17342800D01*
X23484649Y17342800D02*
X23579887Y17295181D01*
X23579887Y17295181D02*
X23865601Y17295181D01*
X23865601Y17295181D02*
X23960839Y17342800D01*
X23960839Y17342800D02*
X24008458Y17390420D01*
X22960839Y17390420D02*
X22913220Y17342800D01*
X22913220Y17342800D02*
X22960839Y17295181D01*
X22960839Y17295181D02*
X23008458Y17342800D01*
X23008458Y17342800D02*
X22960839Y17390420D01*
X22960839Y17390420D02*
X22960839Y17295181D01*
X22579887Y18295181D02*
X21960840Y18295181D01*
X21960840Y18295181D02*
X22294173Y17914229D01*
X22294173Y17914229D02*
X22151316Y17914229D01*
X22151316Y17914229D02*
X22056078Y17866610D01*
X22056078Y17866610D02*
X22008459Y17818991D01*
X22008459Y17818991D02*
X21960840Y17723753D01*
X21960840Y17723753D02*
X21960840Y17485658D01*
X21960840Y17485658D02*
X22008459Y17390420D01*
X22008459Y17390420D02*
X22056078Y17342800D01*
X22056078Y17342800D02*
X22151316Y17295181D01*
X22151316Y17295181D02*
X22437030Y17295181D01*
X22437030Y17295181D02*
X22532268Y17342800D01*
X22532268Y17342800D02*
X22579887Y17390420D01*
X21675125Y18295181D02*
X21341792Y17295181D01*
X21341792Y17295181D02*
X21008459Y18295181D01*
X10312970Y9545181D02*
X10646303Y10021372D01*
X10884398Y9545181D02*
X10884398Y10545181D01*
X10884398Y10545181D02*
X10503446Y10545181D01*
X10503446Y10545181D02*
X10408208Y10497562D01*
X10408208Y10497562D02*
X10360589Y10449943D01*
X10360589Y10449943D02*
X10312970Y10354705D01*
X10312970Y10354705D02*
X10312970Y10211848D01*
X10312970Y10211848D02*
X10360589Y10116610D01*
X10360589Y10116610D02*
X10408208Y10068991D01*
X10408208Y10068991D02*
X10503446Y10021372D01*
X10503446Y10021372D02*
X10884398Y10021372D01*
X9884398Y10068991D02*
X9551065Y10068991D01*
X9408208Y9545181D02*
X9884398Y9545181D01*
X9884398Y9545181D02*
X9884398Y10545181D01*
X9884398Y10545181D02*
X9408208Y10545181D01*
X9027255Y9592800D02*
X8884398Y9545181D01*
X8884398Y9545181D02*
X8646303Y9545181D01*
X8646303Y9545181D02*
X8551065Y9592800D01*
X8551065Y9592800D02*
X8503446Y9640420D01*
X8503446Y9640420D02*
X8455827Y9735658D01*
X8455827Y9735658D02*
X8455827Y9830896D01*
X8455827Y9830896D02*
X8503446Y9926134D01*
X8503446Y9926134D02*
X8551065Y9973753D01*
X8551065Y9973753D02*
X8646303Y10021372D01*
X8646303Y10021372D02*
X8836779Y10068991D01*
X8836779Y10068991D02*
X8932017Y10116610D01*
X8932017Y10116610D02*
X8979636Y10164229D01*
X8979636Y10164229D02*
X9027255Y10259467D01*
X9027255Y10259467D02*
X9027255Y10354705D01*
X9027255Y10354705D02*
X8979636Y10449943D01*
X8979636Y10449943D02*
X8932017Y10497562D01*
X8932017Y10497562D02*
X8836779Y10545181D01*
X8836779Y10545181D02*
X8598684Y10545181D01*
X8598684Y10545181D02*
X8455827Y10497562D01*
X8027255Y10068991D02*
X7693922Y10068991D01*
X7551065Y9545181D02*
X8027255Y9545181D01*
X8027255Y9545181D02*
X8027255Y10545181D01*
X8027255Y10545181D02*
X7551065Y10545181D01*
X7265350Y10545181D02*
X6693922Y10545181D01*
X6979636Y9545181D02*
X6979636Y10545181D01*
X10579887Y7568991D02*
X10437030Y7521372D01*
X10437030Y7521372D02*
X10389411Y7473753D01*
X10389411Y7473753D02*
X10341792Y7378515D01*
X10341792Y7378515D02*
X10341792Y7235658D01*
X10341792Y7235658D02*
X10389411Y7140420D01*
X10389411Y7140420D02*
X10437030Y7092800D01*
X10437030Y7092800D02*
X10532268Y7045181D01*
X10532268Y7045181D02*
X10913220Y7045181D01*
X10913220Y7045181D02*
X10913220Y8045181D01*
X10913220Y8045181D02*
X10579887Y8045181D01*
X10579887Y8045181D02*
X10484649Y7997562D01*
X10484649Y7997562D02*
X10437030Y7949943D01*
X10437030Y7949943D02*
X10389411Y7854705D01*
X10389411Y7854705D02*
X10389411Y7759467D01*
X10389411Y7759467D02*
X10437030Y7664229D01*
X10437030Y7664229D02*
X10484649Y7616610D01*
X10484649Y7616610D02*
X10579887Y7568991D01*
X10579887Y7568991D02*
X10913220Y7568991D01*
X9913220Y8045181D02*
X9913220Y7235658D01*
X9913220Y7235658D02*
X9865601Y7140420D01*
X9865601Y7140420D02*
X9817982Y7092800D01*
X9817982Y7092800D02*
X9722744Y7045181D01*
X9722744Y7045181D02*
X9532268Y7045181D01*
X9532268Y7045181D02*
X9437030Y7092800D01*
X9437030Y7092800D02*
X9389411Y7140420D01*
X9389411Y7140420D02*
X9341792Y7235658D01*
X9341792Y7235658D02*
X9341792Y8045181D01*
X9008458Y8045181D02*
X8437030Y8045181D01*
X8722744Y7045181D02*
X8722744Y8045181D01*
X8246553Y8045181D02*
X7675125Y8045181D01*
X7960839Y7045181D02*
X7960839Y8045181D01*
X7151315Y8045181D02*
X6960839Y8045181D01*
X6960839Y8045181D02*
X6865601Y7997562D01*
X6865601Y7997562D02*
X6770363Y7902324D01*
X6770363Y7902324D02*
X6722744Y7711848D01*
X6722744Y7711848D02*
X6722744Y7378515D01*
X6722744Y7378515D02*
X6770363Y7188039D01*
X6770363Y7188039D02*
X6865601Y7092800D01*
X6865601Y7092800D02*
X6960839Y7045181D01*
X6960839Y7045181D02*
X7151315Y7045181D01*
X7151315Y7045181D02*
X7246553Y7092800D01*
X7246553Y7092800D02*
X7341791Y7188039D01*
X7341791Y7188039D02*
X7389410Y7378515D01*
X7389410Y7378515D02*
X7389410Y7711848D01*
X7389410Y7711848D02*
X7341791Y7902324D01*
X7341791Y7902324D02*
X7246553Y7997562D01*
X7246553Y7997562D02*
X7151315Y8045181D01*
X6294172Y7045181D02*
X6294172Y8045181D01*
X6294172Y8045181D02*
X5722744Y7045181D01*
X5722744Y7045181D02*
X5722744Y8045181D01*
D11*
%TO.C,J1*%
X31250000Y-9750000D02*
X31250000Y-11050000D01*
X31250000Y-3250000D02*
X31250000Y-1950000D01*
X31250000Y-1950000D02*
X28750000Y-1950000D01*
X28750000Y-11050000D02*
X31250000Y-11050000D01*
X28750000Y-9750000D02*
X28750000Y-11050000D01*
X28750000Y-3250000D02*
X28750000Y-1950000D01*
D12*
X31875000Y-3000000D02*
G75*
G03*
X31875000Y-3000000I-125000J0D01*
G01*
D11*
%TO.C,J3*%
X5250000Y-9750000D02*
X5250000Y-11050000D01*
X5250000Y-3250000D02*
X5250000Y-1950000D01*
X5250000Y-1950000D02*
X2750000Y-1950000D01*
X2750000Y-11050000D02*
X5250000Y-11050000D01*
X2750000Y-9750000D02*
X2750000Y-11050000D01*
X2750000Y-3250000D02*
X2750000Y-1950000D01*
D12*
X5875000Y-3000000D02*
G75*
G03*
X5875000Y-3000000I-125000J0D01*
G01*
%TD*%
%LPC*%
D13*
%TO.C,J6*%
X13000000Y25320000D03*
D14*
X13000000Y22780000D03*
X13000000Y20240000D03*
X13000000Y17700000D03*
X13000000Y15160000D03*
X13000000Y12620000D03*
X13000000Y10080000D03*
X13000000Y7540000D03*
X13000000Y5000000D03*
%TD*%
D13*
%TO.C,J5*%
X18750000Y17700000D03*
D14*
X18750000Y15160000D03*
X18750000Y12620000D03*
X18750000Y10080000D03*
X18750000Y7540000D03*
X18750000Y5000000D03*
%TD*%
D15*
%TO.C,J1*%
X31475000Y-3750000D03*
X28525000Y-3750000D03*
X31475000Y-4250000D03*
X28525000Y-4250000D03*
X31475000Y-4750000D03*
X28525000Y-4750000D03*
X31475000Y-5250000D03*
X28525000Y-5250000D03*
X31475000Y-5750000D03*
X28525000Y-5750000D03*
X31475000Y-6250000D03*
X28525000Y-6250000D03*
X31475000Y-6750000D03*
X28525000Y-6750000D03*
X31475000Y-7250000D03*
X28525000Y-7250000D03*
X31475000Y-7750000D03*
X28525000Y-7750000D03*
X31475000Y-8250000D03*
X28525000Y-8250000D03*
X31475000Y-8750000D03*
X28525000Y-8750000D03*
X31475000Y-9250000D03*
X28525000Y-9250000D03*
%TD*%
%TO.C,J3*%
X5475000Y-3750000D03*
X2525000Y-3750000D03*
X5475000Y-4250000D03*
X2525000Y-4250000D03*
X5475000Y-4750000D03*
X2525000Y-4750000D03*
X5475000Y-5250000D03*
X2525000Y-5250000D03*
X5475000Y-5750000D03*
X2525000Y-5750000D03*
X5475000Y-6250000D03*
X2525000Y-6250000D03*
X5475000Y-6750000D03*
X2525000Y-6750000D03*
X5475000Y-7250000D03*
X2525000Y-7250000D03*
X5475000Y-7750000D03*
X2525000Y-7750000D03*
X5475000Y-8250000D03*
X2525000Y-8250000D03*
X5475000Y-8750000D03*
X2525000Y-8750000D03*
X5475000Y-9250000D03*
X2525000Y-9250000D03*
%TD*%
%LPD*%
M02*
