%TF.GenerationSoftware,KiCad,Pcbnew,7.0.8*%
%TF.CreationDate,2023-11-11T12:14:01+10:00*%
%TF.ProjectId,ProgrammingBoard,50726f67-7261-46d6-9d69-6e67426f6172,rev?*%
%TF.SameCoordinates,Original*%
%TF.FileFunction,Copper,L4,Bot*%
%TF.FilePolarity,Positive*%
%FSLAX46Y46*%
G04 Gerber Fmt 4.6, Leading zero omitted, Abs format (unit mm)*
G04 Created by KiCad (PCBNEW 7.0.8) date 2023-11-11 12:14:01*
%MOMM*%
%LPD*%
G01*
G04 APERTURE LIST*
G04 Aperture macros list*
%AMRoundRect*
0 Rectangle with rounded corners*
0 $1 Rounding radius*
0 $2 $3 $4 $5 $6 $7 $8 $9 X,Y pos of 4 corners*
0 Add a 4 corners polygon primitive as box body*
4,1,4,$2,$3,$4,$5,$6,$7,$8,$9,$2,$3,0*
0 Add four circle primitives for the rounded corners*
1,1,$1+$1,$2,$3*
1,1,$1+$1,$4,$5*
1,1,$1+$1,$6,$7*
1,1,$1+$1,$8,$9*
0 Add four rect primitives between the rounded corners*
20,1,$1+$1,$2,$3,$4,$5,0*
20,1,$1+$1,$4,$5,$6,$7,0*
20,1,$1+$1,$6,$7,$8,$9,0*
20,1,$1+$1,$8,$9,$2,$3,0*%
G04 Aperture macros list end*
%TA.AperFunction,ComponentPad*%
%ADD10R,1.700000X1.700000*%
%TD*%
%TA.AperFunction,ComponentPad*%
%ADD11O,1.700000X1.700000*%
%TD*%
%TA.AperFunction,SMDPad,CuDef*%
%ADD12RoundRect,0.062500X0.612500X0.062500X-0.612500X0.062500X-0.612500X-0.062500X0.612500X-0.062500X0*%
%TD*%
%TA.AperFunction,ViaPad*%
%ADD13C,0.450000*%
%TD*%
%TA.AperFunction,Conductor*%
%ADD14C,0.200000*%
%TD*%
G04 APERTURE END LIST*
D10*
%TO.P,J6,1,Pin_1*%
%TO.N,VCC*%
X13000000Y25320000D03*
D11*
%TO.P,J6,2,Pin_2*%
%TO.N,/Connectors/SDA*%
X13000000Y22780000D03*
%TO.P,J6,3,Pin_3*%
%TO.N,/Connectors/SCL*%
X13000000Y20240000D03*
%TO.P,J6,4,Pin_4*%
%TO.N,/Connectors/INT1*%
X13000000Y17700000D03*
%TO.P,J6,5,Pin_5*%
%TO.N,/Connectors/SWDIO*%
X13000000Y15160000D03*
%TO.P,J6,6,Pin_6*%
%TO.N,/Connectors/SWDCLK*%
X13000000Y12620000D03*
%TO.P,J6,7,Pin_7*%
%TO.N,/Connectors/RESET*%
X13000000Y10080000D03*
%TO.P,J6,8,Pin_8*%
%TO.N,/Connectors/BUTTON*%
X13000000Y7540000D03*
%TO.P,J6,9,Pin_9*%
%TO.N,GND*%
X13000000Y5000000D03*
%TD*%
D10*
%TO.P,J5,1,Pin_1*%
%TO.N,VCC*%
X18750000Y17700000D03*
D11*
%TO.P,J5,2,Pin_2*%
%TO.N,/Connectors/LED0*%
X18750000Y15160000D03*
%TO.P,J5,3,Pin_3*%
%TO.N,/Connectors/LED1*%
X18750000Y12620000D03*
%TO.P,J5,4,Pin_4*%
%TO.N,/Connectors/LED2*%
X18750000Y10080000D03*
%TO.P,J5,5,Pin_5*%
%TO.N,/Connectors/LED3*%
X18750000Y7540000D03*
%TO.P,J5,6,Pin_6*%
%TO.N,GND*%
X18750000Y5000000D03*
%TD*%
D12*
%TO.P,J1,1,Pin_1*%
%TO.N,GND*%
X31475000Y-3750000D03*
%TO.P,J1,2,Pin_2*%
X28525000Y-3750000D03*
%TO.P,J1,3,Pin_3*%
%TO.N,/Connectors/COL0*%
X31475000Y-4250000D03*
%TO.P,J1,4,Pin_4*%
%TO.N,/Connectors/ROW0*%
X28525000Y-4250000D03*
%TO.P,J1,5,Pin_5*%
%TO.N,/Connectors/COL1*%
X31475000Y-4750000D03*
%TO.P,J1,6,Pin_6*%
%TO.N,/Connectors/ROW1*%
X28525000Y-4750000D03*
%TO.P,J1,7,Pin_7*%
%TO.N,/Connectors/COL2*%
X31475000Y-5250000D03*
%TO.P,J1,8,Pin_8*%
%TO.N,/Connectors/ROW2*%
X28525000Y-5250000D03*
%TO.P,J1,9,Pin_9*%
%TO.N,/Connectors/COL3*%
X31475000Y-5750000D03*
%TO.P,J1,10,Pin_10*%
%TO.N,/Connectors/ROW3*%
X28525000Y-5750000D03*
%TO.P,J1,11,Pin_11*%
%TO.N,/Connectors/COL4*%
X31475000Y-6250000D03*
%TO.P,J1,12,Pin_12*%
%TO.N,/Connectors/ROW4*%
X28525000Y-6250000D03*
%TO.P,J1,13,Pin_13*%
%TO.N,/Connectors/COL5*%
X31475000Y-6750000D03*
%TO.P,J1,14,Pin_14*%
%TO.N,/Connectors/ROW5*%
X28525000Y-6750000D03*
%TO.P,J1,15,Pin_15*%
%TO.N,/Connectors/COL6*%
X31475000Y-7250000D03*
%TO.P,J1,16,Pin_16*%
%TO.N,/Connectors/ROW6*%
X28525000Y-7250000D03*
%TO.P,J1,17,Pin_17*%
%TO.N,/Connectors/COL7*%
X31475000Y-7750000D03*
%TO.P,J1,18,Pin_18*%
%TO.N,/Connectors/ROW7*%
X28525000Y-7750000D03*
%TO.P,J1,19,Pin_19*%
%TO.N,/Connectors/COL8*%
X31475000Y-8250000D03*
%TO.P,J1,20,Pin_20*%
%TO.N,/Connectors/ROW8*%
X28525000Y-8250000D03*
%TO.P,J1,21,Pin_21*%
%TO.N,/Connectors/COL9*%
X31475000Y-8750000D03*
%TO.P,J1,22,Pin_22*%
%TO.N,/Connectors/ROW9*%
X28525000Y-8750000D03*
%TO.P,J1,23,Pin_23*%
%TO.N,/Connectors/COL10*%
X31475000Y-9250000D03*
%TO.P,J1,24,Pin_24*%
%TO.N,GND*%
X28525000Y-9250000D03*
%TD*%
%TO.P,J3,1,Pin_1*%
%TO.N,/Connectors/SDA*%
X5475000Y-3750000D03*
%TO.P,J3,2,Pin_2*%
%TO.N,VCC*%
X2525000Y-3750000D03*
%TO.P,J3,3,Pin_3*%
%TO.N,/Connectors/SCL*%
X5475000Y-4250000D03*
%TO.P,J3,4,Pin_4*%
%TO.N,VCC*%
X2525000Y-4250000D03*
%TO.P,J3,5,Pin_5*%
%TO.N,GND*%
X5475000Y-4750000D03*
%TO.P,J3,6,Pin_6*%
%TO.N,VCC*%
X2525000Y-4750000D03*
%TO.P,J3,7,Pin_7*%
%TO.N,/Connectors/INT1*%
X5475000Y-5250000D03*
%TO.P,J3,8,Pin_8*%
%TO.N,VCC*%
X2525000Y-5250000D03*
%TO.P,J3,9,Pin_9*%
%TO.N,/Connectors/SWDIO*%
X5475000Y-5750000D03*
%TO.P,J3,10,Pin_10*%
%TO.N,VCC*%
X2525000Y-5750000D03*
%TO.P,J3,11,Pin_11*%
%TO.N,/Connectors/SWDCLK*%
X5475000Y-6250000D03*
%TO.P,J3,12,Pin_12*%
%TO.N,VCC*%
X2525000Y-6250000D03*
%TO.P,J3,13,Pin_13*%
%TO.N,/Connectors/RESET*%
X5475000Y-6750000D03*
%TO.P,J3,14,Pin_14*%
%TO.N,GND*%
X2525000Y-6750000D03*
%TO.P,J3,15,Pin_15*%
%TO.N,/Connectors/LED0*%
X5475000Y-7250000D03*
%TO.P,J3,16,Pin_16*%
%TO.N,GND*%
X2525000Y-7250000D03*
%TO.P,J3,17,Pin_17*%
%TO.N,/Connectors/LED1*%
X5475000Y-7750000D03*
%TO.P,J3,18,Pin_18*%
%TO.N,GND*%
X2525000Y-7750000D03*
%TO.P,J3,19,Pin_19*%
%TO.N,/Connectors/LED2*%
X5475000Y-8250000D03*
%TO.P,J3,20,Pin_20*%
%TO.N,GND*%
X2525000Y-8250000D03*
%TO.P,J3,21,Pin_21*%
%TO.N,/Connectors/LED3*%
X5475000Y-8750000D03*
%TO.P,J3,22,Pin_22*%
%TO.N,GND*%
X2525000Y-8750000D03*
%TO.P,J3,23,Pin_23*%
%TO.N,/Connectors/BUTTON*%
X5475000Y-9250000D03*
%TO.P,J3,24,Pin_24*%
%TO.N,GND*%
X2525000Y-9250000D03*
%TD*%
D13*
%TO.N,GND*%
X4250000Y-9250000D03*
X30250000Y-3750000D03*
X3750000Y-8750000D03*
X3750000Y-6750000D03*
X3750000Y-7750000D03*
X25500000Y-9250000D03*
X4250000Y-7250000D03*
X8250000Y-4750000D03*
X4250000Y-8250000D03*
X26000000Y-3750000D03*
%TO.N,/Connectors/ROW0*%
X25500000Y-4250000D03*
%TO.N,/Connectors/COL9*%
X30250000Y-8750000D03*
%TO.N,/Connectors/ROW1*%
X26000000Y-4750000D03*
%TO.N,/Connectors/COL10*%
X29750000Y-9250000D03*
%TO.N,/Connectors/ROW2*%
X25500000Y-5250000D03*
%TO.N,/Connectors/COL0*%
X29750000Y-4250000D03*
%TO.N,/Connectors/ROW3*%
X26000000Y-5750000D03*
%TO.N,/Connectors/COL1*%
X30250000Y-4750000D03*
%TO.N,/Connectors/ROW4*%
X25500000Y-6250000D03*
%TO.N,/Connectors/COL2*%
X29750000Y-5250000D03*
%TO.N,/Connectors/ROW5*%
X26000000Y-6750000D03*
%TO.N,/Connectors/COL3*%
X30250000Y-5750000D03*
%TO.N,/Connectors/ROW6*%
X25500000Y-7250000D03*
%TO.N,/Connectors/COL4*%
X29750000Y-6250000D03*
%TO.N,/Connectors/ROW7*%
X26000000Y-7750000D03*
%TO.N,/Connectors/COL5*%
X30250000Y-6750000D03*
%TO.N,/Connectors/ROW8*%
X25500000Y-8250000D03*
%TO.N,/Connectors/COL6*%
X29750000Y-7250000D03*
%TO.N,/Connectors/ROW9*%
X26000000Y-8750000D03*
%TO.N,/Connectors/COL7*%
X30250000Y-7750000D03*
%TO.N,/Connectors/COL8*%
X29750000Y-8250000D03*
%TO.N,/Connectors/RESET*%
X8250000Y-6750000D03*
%TO.N,VCC*%
X4250000Y-4250000D03*
X4250000Y-5250000D03*
X3750000Y-5750000D03*
X3750000Y-3750000D03*
X3750000Y-4750000D03*
X4250000Y-6250000D03*
%TO.N,/Connectors/SWDCLK*%
X8750000Y-6250000D03*
%TO.N,/Connectors/SWDIO*%
X8250000Y-5750000D03*
%TO.N,/Connectors/LED0*%
X8750000Y-7250000D03*
%TO.N,/Connectors/LED1*%
X8250000Y-7750000D03*
%TO.N,/Connectors/SDA*%
X8250000Y-3750000D03*
%TO.N,/Connectors/SCL*%
X8750000Y-4250000D03*
%TO.N,/Connectors/LED2*%
X8750000Y-8250000D03*
%TO.N,/Connectors/LED3*%
X8250000Y-8750000D03*
%TO.N,/Connectors/BUTTON*%
X8750000Y-9250000D03*
%TO.N,/Connectors/INT1*%
X8750000Y-5250000D03*
%TD*%
D14*
%TO.N,GND*%
X8250000Y-4750000D02*
X5475000Y-4750000D01*
X2525000Y-8750000D02*
X3750000Y-8750000D01*
X2525000Y-8250000D02*
X4250000Y-8250000D01*
X2525000Y-7750000D02*
X3750000Y-7750000D01*
X2525000Y-7250000D02*
X4250000Y-7250000D01*
X2525000Y-9250000D02*
X4250000Y-9250000D01*
X31475000Y-3750000D02*
X30250000Y-3750000D01*
X2525000Y-6750000D02*
X3750000Y-6750000D01*
X28525000Y-9250000D02*
X25500000Y-9250000D01*
X28525000Y-3750000D02*
X26000000Y-3750000D01*
%TO.N,/Connectors/ROW0*%
X28525000Y-4250000D02*
X25500000Y-4250000D01*
%TO.N,/Connectors/COL9*%
X31475000Y-8750000D02*
X30250000Y-8750000D01*
%TO.N,/Connectors/ROW1*%
X28525000Y-4750000D02*
X26000000Y-4750000D01*
%TO.N,/Connectors/COL10*%
X31475000Y-9250000D02*
X29750000Y-9250000D01*
%TO.N,/Connectors/ROW2*%
X28525000Y-5250000D02*
X25500000Y-5250000D01*
%TO.N,/Connectors/COL0*%
X31475000Y-4250000D02*
X29750000Y-4250000D01*
%TO.N,/Connectors/ROW3*%
X28525000Y-5750000D02*
X26000000Y-5750000D01*
%TO.N,/Connectors/COL1*%
X31475000Y-4750000D02*
X30250000Y-4750000D01*
%TO.N,/Connectors/ROW4*%
X28525000Y-6250000D02*
X25500000Y-6250000D01*
%TO.N,/Connectors/COL2*%
X31475000Y-5250000D02*
X29750000Y-5250000D01*
%TO.N,/Connectors/ROW5*%
X28525000Y-6750000D02*
X26000000Y-6750000D01*
%TO.N,/Connectors/COL3*%
X31475000Y-5750000D02*
X30250000Y-5750000D01*
%TO.N,/Connectors/ROW6*%
X28525000Y-7250000D02*
X25500000Y-7250000D01*
%TO.N,/Connectors/COL4*%
X31475000Y-6250000D02*
X29750000Y-6250000D01*
%TO.N,/Connectors/ROW7*%
X28525000Y-7750000D02*
X26000000Y-7750000D01*
%TO.N,/Connectors/COL5*%
X31475000Y-6750000D02*
X30250000Y-6750000D01*
%TO.N,/Connectors/ROW8*%
X28525000Y-8250000D02*
X25500000Y-8250000D01*
%TO.N,/Connectors/COL6*%
X31475000Y-7250000D02*
X29750000Y-7250000D01*
%TO.N,/Connectors/ROW9*%
X28525000Y-8750000D02*
X26000000Y-8750000D01*
%TO.N,/Connectors/COL7*%
X31475000Y-7750000D02*
X30250000Y-7750000D01*
%TO.N,/Connectors/COL8*%
X31475000Y-8250000D02*
X29750000Y-8250000D01*
%TO.N,/Connectors/RESET*%
X8250000Y-6750000D02*
X5475000Y-6750000D01*
%TO.N,VCC*%
X2525000Y-5750000D02*
X3750000Y-5750000D01*
X2525000Y-4750000D02*
X3750000Y-4750000D01*
X2525000Y-4250000D02*
X4250000Y-4250000D01*
X2525000Y-6250000D02*
X4250000Y-6250000D01*
X2525000Y-5250000D02*
X4250000Y-5250000D01*
X2525000Y-3750000D02*
X3750000Y-3750000D01*
%TO.N,/Connectors/SWDCLK*%
X8750000Y-6250000D02*
X5475000Y-6250000D01*
%TO.N,/Connectors/SWDIO*%
X8250000Y-5750000D02*
X5475000Y-5750000D01*
%TO.N,/Connectors/LED0*%
X8750000Y-7250000D02*
X5475000Y-7250000D01*
%TO.N,/Connectors/LED1*%
X8250000Y-7750000D02*
X5475000Y-7750000D01*
%TO.N,/Connectors/SDA*%
X5475000Y-3750000D02*
X8250000Y-3750000D01*
%TO.N,/Connectors/SCL*%
X5475000Y-4250000D02*
X8750000Y-4250000D01*
%TO.N,/Connectors/LED2*%
X8750000Y-8250000D02*
X5475000Y-8250000D01*
%TO.N,/Connectors/LED3*%
X8250000Y-8750000D02*
X5475000Y-8750000D01*
%TO.N,/Connectors/BUTTON*%
X11250000Y-6750000D02*
X11250000Y5790000D01*
X8750000Y-9250000D02*
X5475000Y-9250000D01*
X8750000Y-9250000D02*
X11250000Y-6750000D01*
X11250000Y5790000D02*
X13000000Y7540000D01*
%TO.N,/Connectors/INT1*%
X8750000Y-5250000D02*
X5475000Y-5250000D01*
%TD*%
%TA.AperFunction,Conductor*%
%TO.N,GND*%
G36*
X4686473Y-4512015D02*
G01*
X4696529Y-4517908D01*
X4759883Y-4560240D01*
X4818207Y-4571841D01*
X4836588Y-4575498D01*
X4836589Y-4575498D01*
X4836599Y-4575500D01*
X6113400Y-4575499D01*
X6190117Y-4560240D01*
X6190119Y-4560238D01*
X6195439Y-4558036D01*
X6233324Y-4550500D01*
X8407745Y-4550500D01*
X8465936Y-4569407D01*
X8477742Y-4579490D01*
X8496780Y-4598528D01*
X8545940Y-4623576D01*
X8620939Y-4661791D01*
X8664203Y-4705056D01*
X8673774Y-4765488D01*
X8645996Y-4820004D01*
X8620939Y-4838209D01*
X8496781Y-4901471D01*
X8496780Y-4901471D01*
X8496780Y-4901472D01*
X8477746Y-4920505D01*
X8423232Y-4948281D01*
X8407745Y-4949500D01*
X6233324Y-4949500D01*
X6195442Y-4941966D01*
X6190119Y-4939761D01*
X6190117Y-4939760D01*
X6190113Y-4939759D01*
X6113411Y-4924501D01*
X6113402Y-4924500D01*
X6113401Y-4924500D01*
X6113399Y-4924500D01*
X4836602Y-4924500D01*
X4836595Y-4924501D01*
X4759883Y-4939759D01*
X4759881Y-4939760D01*
X4696530Y-4982090D01*
X4637641Y-4998698D01*
X4580238Y-4977520D01*
X4571533Y-4969785D01*
X4503220Y-4901472D01*
X4503217Y-4901470D01*
X4379061Y-4838209D01*
X4335796Y-4794945D01*
X4326225Y-4734513D01*
X4354003Y-4679996D01*
X4379061Y-4661791D01*
X4452963Y-4624134D01*
X4503220Y-4598528D01*
X4571527Y-4530220D01*
X4626041Y-4502444D01*
X4686473Y-4512015D01*
G37*
%TD.AperFunction*%
%TA.AperFunction,Conductor*%
G36*
X31508691Y28280593D02*
G01*
X31544655Y28231093D01*
X31549500Y28200500D01*
X31549500Y50884D01*
X31546654Y34138D01*
X31546887Y34111D01*
X31545638Y23027D01*
X31549189Y-8494D01*
X31549500Y-14039D01*
X31549500Y-22589D01*
X31551402Y-30924D01*
X31552332Y-36398D01*
X31555884Y-67926D01*
X31559568Y-78454D01*
X31559348Y-78530D01*
X31559660Y-79284D01*
X31559871Y-79183D01*
X31564710Y-89233D01*
X31584490Y-114036D01*
X31587702Y-118562D01*
X31592250Y-125799D01*
X31592254Y-125804D01*
X31598299Y-131850D01*
X31601998Y-135989D01*
X31621774Y-160786D01*
X31621776Y-160788D01*
X31621777Y-160788D01*
X31630496Y-167741D01*
X31630349Y-167924D01*
X31644205Y-177754D01*
X33770504Y-2304053D01*
X33798281Y-2358570D01*
X33799500Y-2374057D01*
X33799500Y-12700500D01*
X33780593Y-12758691D01*
X33731093Y-12794655D01*
X33700500Y-12799500D01*
X299500Y-12799500D01*
X241309Y-12780593D01*
X205345Y-12731093D01*
X200500Y-12700500D01*
X200500Y-6338397D01*
X1649500Y-6338397D01*
X1649501Y-6338404D01*
X1664759Y-6415116D01*
X1664760Y-6415118D01*
X1718880Y-6496114D01*
X1722888Y-6502112D01*
X1809883Y-6560240D01*
X1868207Y-6571841D01*
X1886588Y-6575498D01*
X1886589Y-6575498D01*
X1886599Y-6575500D01*
X3163400Y-6575499D01*
X3240117Y-6560240D01*
X3240119Y-6560238D01*
X3245439Y-6558036D01*
X3283324Y-6550500D01*
X3907745Y-6550500D01*
X3965936Y-6569407D01*
X3977742Y-6579490D01*
X3996780Y-6598528D01*
X4116874Y-6659719D01*
X4250000Y-6680804D01*
X4383126Y-6659719D01*
X4455557Y-6622813D01*
X4515986Y-6613242D01*
X4570503Y-6641018D01*
X4598281Y-6695535D01*
X4599500Y-6711022D01*
X4599500Y-6838397D01*
X4599501Y-6838404D01*
X4614759Y-6915115D01*
X4614759Y-6915116D01*
X4614760Y-6915117D01*
X4634726Y-6944999D01*
X4651334Y-7003887D01*
X4634727Y-7054999D01*
X4614761Y-7084880D01*
X4614759Y-7084886D01*
X4599501Y-7161589D01*
X4599500Y-7161599D01*
X4599500Y-7338397D01*
X4599501Y-7338404D01*
X4614759Y-7415115D01*
X4614759Y-7415116D01*
X4614760Y-7415117D01*
X4634726Y-7444999D01*
X4651334Y-7503887D01*
X4634727Y-7554999D01*
X4614761Y-7584880D01*
X4614759Y-7584886D01*
X4599501Y-7661589D01*
X4599500Y-7661599D01*
X4599500Y-7838397D01*
X4599501Y-7838404D01*
X4614759Y-7915115D01*
X4614759Y-7915116D01*
X4614760Y-7915117D01*
X4634726Y-7944999D01*
X4651334Y-8003887D01*
X4634727Y-8054999D01*
X4614761Y-8084880D01*
X4614759Y-8084886D01*
X4599501Y-8161589D01*
X4599500Y-8161599D01*
X4599500Y-8338397D01*
X4599501Y-8338404D01*
X4614759Y-8415115D01*
X4614759Y-8415116D01*
X4614760Y-8415117D01*
X4634726Y-8444999D01*
X4651334Y-8503887D01*
X4634727Y-8554999D01*
X4614761Y-8584880D01*
X4614759Y-8584886D01*
X4599501Y-8661589D01*
X4599500Y-8661599D01*
X4599500Y-8838397D01*
X4599501Y-8838404D01*
X4614759Y-8915115D01*
X4614759Y-8915116D01*
X4614760Y-8915117D01*
X4634726Y-8944999D01*
X4651334Y-9003887D01*
X4634727Y-9054999D01*
X4614761Y-9084880D01*
X4614759Y-9084886D01*
X4599501Y-9161589D01*
X4599500Y-9161599D01*
X4599500Y-9338397D01*
X4599501Y-9338404D01*
X4614759Y-9415116D01*
X4614760Y-9415118D01*
X4672494Y-9501523D01*
X4672888Y-9502112D01*
X4759883Y-9560240D01*
X4818207Y-9571841D01*
X4836588Y-9575498D01*
X4836589Y-9575498D01*
X4836599Y-9575500D01*
X6113400Y-9575499D01*
X6190117Y-9560240D01*
X6190119Y-9560238D01*
X6195439Y-9558036D01*
X6233324Y-9550500D01*
X8407745Y-9550500D01*
X8465936Y-9569407D01*
X8477742Y-9579490D01*
X8496780Y-9598528D01*
X8616874Y-9659719D01*
X8750000Y-9680804D01*
X8883126Y-9659719D01*
X9003220Y-9598528D01*
X9098528Y-9503220D01*
X9159719Y-9383126D01*
X9176869Y-9274839D01*
X9204646Y-9220324D01*
X10174970Y-8250000D01*
X25069196Y-8250000D01*
X25090281Y-8383127D01*
X25090282Y-8383129D01*
X25118980Y-8439451D01*
X25151472Y-8503220D01*
X25246780Y-8598528D01*
X25366874Y-8659719D01*
X25488007Y-8678904D01*
X25488692Y-8679013D01*
X25543209Y-8706790D01*
X25570986Y-8761306D01*
X25590281Y-8883127D01*
X25590282Y-8883129D01*
X25649831Y-9000000D01*
X25651472Y-9003220D01*
X25746780Y-9098528D01*
X25866874Y-9159719D01*
X26000000Y-9180804D01*
X26133126Y-9159719D01*
X26253220Y-9098528D01*
X26272253Y-9079494D01*
X26326768Y-9051719D01*
X26342255Y-9050500D01*
X27766676Y-9050500D01*
X27804558Y-9058034D01*
X27809878Y-9060236D01*
X27809883Y-9060240D01*
X27868207Y-9071841D01*
X27886588Y-9075498D01*
X27886589Y-9075498D01*
X27886599Y-9075500D01*
X29163400Y-9075499D01*
X29213488Y-9065536D01*
X29274246Y-9072727D01*
X29319176Y-9114260D01*
X29331113Y-9174269D01*
X29330580Y-9178120D01*
X29319196Y-9249998D01*
X29319196Y-9250000D01*
X29340281Y-9383127D01*
X29340282Y-9383129D01*
X29401470Y-9503217D01*
X29401472Y-9503220D01*
X29496780Y-9598528D01*
X29616874Y-9659719D01*
X29750000Y-9680804D01*
X29883126Y-9659719D01*
X30003220Y-9598528D01*
X30022253Y-9579494D01*
X30076768Y-9551719D01*
X30092255Y-9550500D01*
X30716676Y-9550500D01*
X30754558Y-9558034D01*
X30759878Y-9560236D01*
X30759883Y-9560240D01*
X30818207Y-9571841D01*
X30836588Y-9575498D01*
X30836589Y-9575498D01*
X30836599Y-9575500D01*
X32113400Y-9575499D01*
X32190117Y-9560240D01*
X32277112Y-9502112D01*
X32335240Y-9415117D01*
X32350500Y-9338401D01*
X32350499Y-9161600D01*
X32335240Y-9084883D01*
X32328970Y-9075500D01*
X32315274Y-9055002D01*
X32298665Y-8996114D01*
X32315274Y-8944998D01*
X32335238Y-8915120D01*
X32335238Y-8915119D01*
X32335240Y-8915117D01*
X32350500Y-8838401D01*
X32350499Y-8661600D01*
X32335240Y-8584883D01*
X32315273Y-8555001D01*
X32298665Y-8496114D01*
X32315274Y-8444998D01*
X32318981Y-8439451D01*
X32335240Y-8415117D01*
X32350500Y-8338401D01*
X32350499Y-8161600D01*
X32335240Y-8084883D01*
X32315273Y-8055001D01*
X32298665Y-7996114D01*
X32315274Y-7944998D01*
X32335238Y-7915120D01*
X32335238Y-7915119D01*
X32335240Y-7915117D01*
X32350500Y-7838401D01*
X32350499Y-7661600D01*
X32335240Y-7584883D01*
X32315273Y-7555001D01*
X32298665Y-7496114D01*
X32315274Y-7444998D01*
X32318981Y-7439451D01*
X32335240Y-7415117D01*
X32350500Y-7338401D01*
X32350499Y-7161600D01*
X32335240Y-7084883D01*
X32315273Y-7055001D01*
X32298665Y-6996114D01*
X32315274Y-6944998D01*
X32318699Y-6939873D01*
X32335240Y-6915117D01*
X32350500Y-6838401D01*
X32350499Y-6661600D01*
X32335240Y-6584883D01*
X32334997Y-6584520D01*
X32315274Y-6555002D01*
X32298665Y-6496114D01*
X32315274Y-6444998D01*
X32318981Y-6439451D01*
X32335240Y-6415117D01*
X32350500Y-6338401D01*
X32350499Y-6161600D01*
X32335240Y-6084883D01*
X32315273Y-6055001D01*
X32298665Y-5996114D01*
X32315274Y-5944998D01*
X32335238Y-5915120D01*
X32335238Y-5915119D01*
X32335240Y-5915117D01*
X32350500Y-5838401D01*
X32350499Y-5661600D01*
X32335240Y-5584883D01*
X32315273Y-5555001D01*
X32298665Y-5496114D01*
X32315274Y-5444998D01*
X32318981Y-5439451D01*
X32335240Y-5415117D01*
X32350500Y-5338401D01*
X32350499Y-5161600D01*
X32335240Y-5084883D01*
X32315273Y-5055001D01*
X32298665Y-4996114D01*
X32315274Y-4944998D01*
X32331641Y-4920504D01*
X32335240Y-4915117D01*
X32350500Y-4838401D01*
X32350499Y-4661600D01*
X32335240Y-4584883D01*
X32328970Y-4575500D01*
X32315274Y-4555002D01*
X32298665Y-4496114D01*
X32315274Y-4444998D01*
X32318981Y-4439451D01*
X32335240Y-4415117D01*
X32350500Y-4338401D01*
X32350499Y-4161600D01*
X32335240Y-4084883D01*
X32277112Y-3997888D01*
X32190117Y-3939760D01*
X32190113Y-3939759D01*
X32113411Y-3924501D01*
X32113402Y-3924500D01*
X32113401Y-3924500D01*
X32113399Y-3924500D01*
X30836602Y-3924500D01*
X30836595Y-3924501D01*
X30759881Y-3939760D01*
X30754561Y-3941964D01*
X30716676Y-3949500D01*
X30092255Y-3949500D01*
X30034064Y-3930593D01*
X30022257Y-3920509D01*
X30003220Y-3901472D01*
X30003217Y-3901470D01*
X29883129Y-3840282D01*
X29883127Y-3840281D01*
X29750000Y-3819196D01*
X29616872Y-3840281D01*
X29616870Y-3840282D01*
X29496782Y-3901470D01*
X29496778Y-3901473D01*
X29428473Y-3969778D01*
X29373956Y-3997555D01*
X29313524Y-3987983D01*
X29303469Y-3982090D01*
X29240119Y-3939761D01*
X29240117Y-3939760D01*
X29240114Y-3939759D01*
X29240113Y-3939759D01*
X29163411Y-3924501D01*
X29163402Y-3924500D01*
X29163401Y-3924500D01*
X29163399Y-3924500D01*
X27886602Y-3924500D01*
X27886595Y-3924501D01*
X27809881Y-3939760D01*
X27804561Y-3941964D01*
X27766676Y-3949500D01*
X25842255Y-3949500D01*
X25784064Y-3930593D01*
X25772257Y-3920509D01*
X25753220Y-3901472D01*
X25753217Y-3901470D01*
X25633129Y-3840282D01*
X25633127Y-3840281D01*
X25500000Y-3819196D01*
X25366872Y-3840281D01*
X25366870Y-3840282D01*
X25246782Y-3901470D01*
X25151470Y-3996782D01*
X25090282Y-4116870D01*
X25090281Y-4116872D01*
X25069196Y-4249999D01*
X25069196Y-4250000D01*
X25090281Y-4383127D01*
X25090282Y-4383129D01*
X25151470Y-4503217D01*
X25151472Y-4503220D01*
X25246780Y-4598528D01*
X25295940Y-4623576D01*
X25370939Y-4661791D01*
X25414203Y-4705056D01*
X25423774Y-4765488D01*
X25395996Y-4820004D01*
X25370939Y-4838209D01*
X25246781Y-4901471D01*
X25151470Y-4996782D01*
X25090282Y-5116870D01*
X25090281Y-5116872D01*
X25069196Y-5249999D01*
X25069196Y-5250000D01*
X25090281Y-5383127D01*
X25090282Y-5383129D01*
X25118980Y-5439451D01*
X25151472Y-5503220D01*
X25246780Y-5598528D01*
X25295940Y-5623576D01*
X25370939Y-5661791D01*
X25414203Y-5705056D01*
X25423774Y-5765488D01*
X25395996Y-5820004D01*
X25370939Y-5838209D01*
X25246781Y-5901471D01*
X25151470Y-5996782D01*
X25090282Y-6116870D01*
X25090281Y-6116872D01*
X25069196Y-6249999D01*
X25069196Y-6250000D01*
X25090281Y-6383127D01*
X25090282Y-6383129D01*
X25151470Y-6503217D01*
X25151472Y-6503220D01*
X25246780Y-6598528D01*
X25275658Y-6613242D01*
X25370939Y-6661791D01*
X25414203Y-6705056D01*
X25423774Y-6765488D01*
X25395996Y-6820004D01*
X25370939Y-6838209D01*
X25246781Y-6901471D01*
X25151470Y-6996782D01*
X25090282Y-7116870D01*
X25090281Y-7116872D01*
X25069196Y-7249999D01*
X25069196Y-7250000D01*
X25090281Y-7383127D01*
X25090282Y-7383129D01*
X25118980Y-7439451D01*
X25151472Y-7503220D01*
X25246780Y-7598528D01*
X25295940Y-7623576D01*
X25370939Y-7661791D01*
X25414203Y-7705056D01*
X25423774Y-7765488D01*
X25395996Y-7820004D01*
X25370939Y-7838209D01*
X25246781Y-7901471D01*
X25151470Y-7996782D01*
X25090282Y-8116870D01*
X25090281Y-8116872D01*
X25069196Y-8249999D01*
X25069196Y-8250000D01*
X10174970Y-8250000D01*
X11416405Y-7008564D01*
X11427664Y-7000493D01*
X11426905Y-6999487D01*
X11434221Y-6993961D01*
X11434228Y-6993958D01*
X11466632Y-6958411D01*
X11468186Y-6956783D01*
X11482174Y-6942797D01*
X11484181Y-6939865D01*
X11488440Y-6934490D01*
X11509916Y-6910933D01*
X11513464Y-6901771D01*
X11524111Y-6881576D01*
X11529657Y-6873481D01*
X11536957Y-6842440D01*
X11538981Y-6835904D01*
X11550500Y-6806173D01*
X11550500Y-6796348D01*
X11553130Y-6773679D01*
X11555379Y-6764119D01*
X11550975Y-6732546D01*
X11550500Y-6725699D01*
X11550500Y4850000D01*
X11858973Y4850000D01*
X11864738Y4787784D01*
X11923064Y4582790D01*
X12018057Y4392017D01*
X12018062Y4392008D01*
X12146496Y4221936D01*
X12146506Y4221925D01*
X12303995Y4078353D01*
X12303994Y4078353D01*
X12485206Y3966153D01*
X12683941Y3889162D01*
X12849999Y3858120D01*
X12850000Y3858120D01*
X12850000Y4518830D01*
X12857685Y4515320D01*
X12964237Y4500000D01*
X13035763Y4500000D01*
X13142315Y4515320D01*
X13150000Y4518830D01*
X13150000Y3858120D01*
X13316058Y3889162D01*
X13514793Y3966153D01*
X13696004Y4078353D01*
X13853493Y4221925D01*
X13853503Y4221936D01*
X13981937Y4392008D01*
X13981942Y4392017D01*
X14076935Y4582790D01*
X14135261Y4787784D01*
X14141027Y4850000D01*
X17608973Y4850000D01*
X17614738Y4787784D01*
X17673064Y4582790D01*
X17768057Y4392017D01*
X17768062Y4392008D01*
X17896496Y4221936D01*
X17896506Y4221925D01*
X18053995Y4078353D01*
X18053994Y4078353D01*
X18235206Y3966153D01*
X18433941Y3889162D01*
X18599999Y3858120D01*
X18600000Y3858120D01*
X18600000Y4518830D01*
X18607685Y4515320D01*
X18714237Y4500000D01*
X18785763Y4500000D01*
X18892315Y4515320D01*
X18900000Y4518830D01*
X18900000Y3858120D01*
X19066058Y3889162D01*
X19264793Y3966153D01*
X19446004Y4078353D01*
X19603493Y4221925D01*
X19603503Y4221936D01*
X19731937Y4392008D01*
X19731942Y4392017D01*
X19826935Y4582790D01*
X19885261Y4787784D01*
X19891027Y4850000D01*
X19227065Y4850000D01*
X19250000Y4928111D01*
X19250000Y5071889D01*
X19227065Y5150000D01*
X19891026Y5150000D01*
X19885261Y5212217D01*
X19826935Y5417211D01*
X19731942Y5607984D01*
X19731937Y5607993D01*
X19603503Y5778065D01*
X19603493Y5778076D01*
X19446004Y5921648D01*
X19446005Y5921648D01*
X19264793Y6033848D01*
X19066061Y6110838D01*
X19066055Y6110840D01*
X18900000Y6141882D01*
X18900000Y5481171D01*
X18892315Y5484680D01*
X18785763Y5500000D01*
X18714237Y5500000D01*
X18607685Y5484680D01*
X18600000Y5481171D01*
X18600000Y6141881D01*
X18599999Y6141882D01*
X18433944Y6110840D01*
X18433938Y6110838D01*
X18235206Y6033848D01*
X18053995Y5921648D01*
X17896506Y5778076D01*
X17896496Y5778065D01*
X17768062Y5607993D01*
X17768057Y5607984D01*
X17673064Y5417211D01*
X17614738Y5212217D01*
X17608973Y5150000D01*
X18272935Y5150000D01*
X18250000Y5071889D01*
X18250000Y4928111D01*
X18272935Y4850000D01*
X17608973Y4850000D01*
X14141027Y4850000D01*
X13477065Y4850000D01*
X13500000Y4928111D01*
X13500000Y5071889D01*
X13477065Y5150000D01*
X14141026Y5150000D01*
X14135261Y5212217D01*
X14076935Y5417211D01*
X13981942Y5607984D01*
X13981937Y5607993D01*
X13853503Y5778065D01*
X13853493Y5778076D01*
X13696004Y5921648D01*
X13696005Y5921648D01*
X13514793Y6033848D01*
X13316061Y6110838D01*
X13316055Y6110840D01*
X13150000Y6141882D01*
X13150000Y5481171D01*
X13142315Y5484680D01*
X13035763Y5500000D01*
X12964237Y5500000D01*
X12857685Y5484680D01*
X12850000Y5481171D01*
X12850000Y6141881D01*
X12849999Y6141882D01*
X12683944Y6110840D01*
X12683938Y6110838D01*
X12485206Y6033848D01*
X12303995Y5921648D01*
X12146506Y5778076D01*
X12146496Y5778065D01*
X12018062Y5607993D01*
X12018057Y5607984D01*
X11923064Y5417211D01*
X11864738Y5212217D01*
X11858973Y5150000D01*
X12522935Y5150000D01*
X12500000Y5071889D01*
X12500000Y4928111D01*
X12522935Y4850000D01*
X11858973Y4850000D01*
X11550500Y4850000D01*
X11550500Y5624522D01*
X11569407Y5682713D01*
X11579490Y5694520D01*
X12448784Y6563815D01*
X12503299Y6591590D01*
X12563731Y6582019D01*
X12565454Y6581119D01*
X12596040Y6564771D01*
X12596046Y6564768D01*
X12733997Y6522922D01*
X12794065Y6504700D01*
X12794070Y6504699D01*
X12999997Y6484417D01*
X13000000Y6484417D01*
X13000003Y6484417D01*
X13205929Y6504699D01*
X13205934Y6504700D01*
X13403954Y6564768D01*
X13586450Y6662315D01*
X13746410Y6793590D01*
X13877685Y6953550D01*
X13975232Y7136046D01*
X14035300Y7334066D01*
X14035301Y7334071D01*
X14055583Y7539997D01*
X17694417Y7539997D01*
X17714698Y7334071D01*
X17714699Y7334066D01*
X17774768Y7136046D01*
X17872316Y6953548D01*
X18003585Y6793596D01*
X18003590Y6793590D01*
X18003595Y6793586D01*
X18163547Y6662317D01*
X18163548Y6662317D01*
X18163550Y6662315D01*
X18346046Y6564768D01*
X18483997Y6522922D01*
X18544065Y6504700D01*
X18544070Y6504699D01*
X18749997Y6484417D01*
X18750000Y6484417D01*
X18750003Y6484417D01*
X18955929Y6504699D01*
X18955934Y6504700D01*
X19153954Y6564768D01*
X19336450Y6662315D01*
X19496410Y6793590D01*
X19627685Y6953550D01*
X19725232Y7136046D01*
X19785300Y7334066D01*
X19785301Y7334071D01*
X19805583Y7539997D01*
X19805583Y7540004D01*
X19785301Y7745930D01*
X19785300Y7745935D01*
X19767078Y7806003D01*
X19725232Y7943954D01*
X19627685Y8126450D01*
X19496410Y8286410D01*
X19496404Y8286415D01*
X19336452Y8417684D01*
X19153954Y8515232D01*
X18955934Y8575301D01*
X18955929Y8575302D01*
X18750003Y8595583D01*
X18749997Y8595583D01*
X18544070Y8575302D01*
X18544065Y8575301D01*
X18346045Y8515232D01*
X18163547Y8417684D01*
X18003595Y8286415D01*
X18003585Y8286405D01*
X17872316Y8126453D01*
X17774768Y7943955D01*
X17714699Y7745935D01*
X17714698Y7745930D01*
X17694417Y7540004D01*
X17694417Y7539997D01*
X14055583Y7539997D01*
X14055583Y7540004D01*
X14035301Y7745930D01*
X14035300Y7745935D01*
X14017078Y7806003D01*
X13975232Y7943954D01*
X13877685Y8126450D01*
X13746410Y8286410D01*
X13746404Y8286415D01*
X13586452Y8417684D01*
X13403954Y8515232D01*
X13205934Y8575301D01*
X13205929Y8575302D01*
X13000003Y8595583D01*
X12999997Y8595583D01*
X12794070Y8575302D01*
X12794065Y8575301D01*
X12596045Y8515232D01*
X12413547Y8417684D01*
X12253595Y8286415D01*
X12253585Y8286405D01*
X12122316Y8126453D01*
X12024768Y7943955D01*
X11964699Y7745935D01*
X11964698Y7745930D01*
X11944417Y7540004D01*
X11944417Y7539997D01*
X11964698Y7334071D01*
X11964699Y7334066D01*
X12024768Y7136046D01*
X12041118Y7105457D01*
X12051874Y7045225D01*
X12025173Y6990174D01*
X12023812Y6988785D01*
X11083590Y6048563D01*
X11072361Y6040450D01*
X11073090Y6039485D01*
X11065771Y6033959D01*
X11033372Y5998420D01*
X11031796Y5996769D01*
X11017830Y5982802D01*
X11017817Y5982787D01*
X11015813Y5979862D01*
X11011561Y5974496D01*
X10990084Y5950935D01*
X10990083Y5950933D01*
X10986529Y5941760D01*
X10975896Y5921588D01*
X10970346Y5913485D01*
X10970342Y5913476D01*
X10963045Y5882455D01*
X10961016Y5875902D01*
X10949500Y5846176D01*
X10949500Y5836349D01*
X10946870Y5813682D01*
X10944621Y5804121D01*
X10949025Y5772548D01*
X10949500Y5765702D01*
X10949500Y-6584520D01*
X10930593Y-6642711D01*
X10920504Y-6654524D01*
X9337913Y-8237114D01*
X9283396Y-8264891D01*
X9222964Y-8255320D01*
X9179699Y-8212055D01*
X9170128Y-8182596D01*
X9166803Y-8161602D01*
X9159719Y-8116874D01*
X9098528Y-7996780D01*
X9003220Y-7901472D01*
X9003217Y-7901470D01*
X8879061Y-7838209D01*
X8835796Y-7794945D01*
X8826225Y-7734513D01*
X8854003Y-7679996D01*
X8879061Y-7661791D01*
X8952963Y-7624134D01*
X9003220Y-7598528D01*
X9098528Y-7503220D01*
X9159719Y-7383126D01*
X9180804Y-7250000D01*
X9159719Y-7116874D01*
X9098528Y-6996780D01*
X9003220Y-6901472D01*
X9003217Y-6901470D01*
X8879061Y-6838209D01*
X8835796Y-6794945D01*
X8826225Y-6734513D01*
X8854003Y-6679996D01*
X8879061Y-6661791D01*
X8974342Y-6613242D01*
X9003220Y-6598528D01*
X9098528Y-6503220D01*
X9159719Y-6383126D01*
X9180804Y-6250000D01*
X9159719Y-6116874D01*
X9098528Y-5996780D01*
X9003220Y-5901472D01*
X9003217Y-5901470D01*
X8879061Y-5838209D01*
X8835796Y-5794945D01*
X8826225Y-5734513D01*
X8854003Y-5679996D01*
X8879061Y-5661791D01*
X8952963Y-5624134D01*
X9003220Y-5598528D01*
X9098528Y-5503220D01*
X9159719Y-5383126D01*
X9180804Y-5250000D01*
X9159719Y-5116874D01*
X9098528Y-4996780D01*
X9003220Y-4901472D01*
X9003217Y-4901470D01*
X8879061Y-4838209D01*
X8835796Y-4794945D01*
X8826225Y-4734513D01*
X8854003Y-4679996D01*
X8879061Y-4661791D01*
X8952963Y-4624134D01*
X9003220Y-4598528D01*
X9098528Y-4503220D01*
X9159719Y-4383126D01*
X9180804Y-4250000D01*
X9159719Y-4116874D01*
X9098528Y-3996780D01*
X9003220Y-3901472D01*
X9003217Y-3901470D01*
X8883129Y-3840282D01*
X8883127Y-3840281D01*
X8761306Y-3820986D01*
X8706790Y-3793208D01*
X8679013Y-3738692D01*
X8678904Y-3738007D01*
X8659719Y-3616874D01*
X8598528Y-3496780D01*
X8503220Y-3401472D01*
X8503217Y-3401470D01*
X8383129Y-3340282D01*
X8383127Y-3340281D01*
X8250000Y-3319196D01*
X8116872Y-3340281D01*
X8116870Y-3340282D01*
X7996782Y-3401470D01*
X7996780Y-3401471D01*
X7996780Y-3401472D01*
X7977746Y-3420505D01*
X7923232Y-3448281D01*
X7907745Y-3449500D01*
X6233324Y-3449500D01*
X6195442Y-3441966D01*
X6190119Y-3439761D01*
X6190117Y-3439760D01*
X6190113Y-3439759D01*
X6113411Y-3424501D01*
X6113402Y-3424500D01*
X6113401Y-3424500D01*
X6113399Y-3424500D01*
X4836602Y-3424500D01*
X4836595Y-3424501D01*
X4759883Y-3439759D01*
X4759881Y-3439760D01*
X4672890Y-3497886D01*
X4672886Y-3497890D01*
X4614762Y-3584879D01*
X4614759Y-3584886D01*
X4599501Y-3661589D01*
X4599500Y-3661599D01*
X4599500Y-3788976D01*
X4580593Y-3847167D01*
X4531093Y-3883131D01*
X4469907Y-3883131D01*
X4455555Y-3877185D01*
X4383129Y-3840282D01*
X4383127Y-3840281D01*
X4261306Y-3820986D01*
X4206790Y-3793208D01*
X4179013Y-3738692D01*
X4178904Y-3738007D01*
X4159719Y-3616874D01*
X4098528Y-3496780D01*
X4003220Y-3401472D01*
X4003217Y-3401470D01*
X3883129Y-3340282D01*
X3883127Y-3340281D01*
X3750000Y-3319196D01*
X3616872Y-3340281D01*
X3616870Y-3340282D01*
X3496782Y-3401470D01*
X3496780Y-3401471D01*
X3496780Y-3401472D01*
X3477746Y-3420505D01*
X3423232Y-3448281D01*
X3407745Y-3449500D01*
X3283324Y-3449500D01*
X3245442Y-3441966D01*
X3240119Y-3439761D01*
X3240117Y-3439760D01*
X3240113Y-3439759D01*
X3163411Y-3424501D01*
X3163402Y-3424500D01*
X3163401Y-3424500D01*
X3163399Y-3424500D01*
X1886602Y-3424500D01*
X1886595Y-3424501D01*
X1809883Y-3439759D01*
X1809881Y-3439760D01*
X1722890Y-3497886D01*
X1722886Y-3497890D01*
X1664762Y-3584879D01*
X1664759Y-3584886D01*
X1649501Y-3661589D01*
X1649500Y-3661599D01*
X1649500Y-3838397D01*
X1649501Y-3838404D01*
X1664759Y-3915115D01*
X1664759Y-3915116D01*
X1664760Y-3915117D01*
X1684726Y-3944999D01*
X1701334Y-4003887D01*
X1684727Y-4054999D01*
X1664761Y-4084880D01*
X1664759Y-4084886D01*
X1649501Y-4161589D01*
X1649500Y-4161599D01*
X1649500Y-4338397D01*
X1649501Y-4338404D01*
X1664759Y-4415115D01*
X1664759Y-4415116D01*
X1664760Y-4415117D01*
X1684726Y-4444999D01*
X1701334Y-4503887D01*
X1684727Y-4554999D01*
X1664761Y-4584880D01*
X1664759Y-4584886D01*
X1649501Y-4661589D01*
X1649500Y-4661599D01*
X1649500Y-4838397D01*
X1649501Y-4838404D01*
X1664759Y-4915115D01*
X1664759Y-4915116D01*
X1664760Y-4915117D01*
X1684726Y-4944999D01*
X1701334Y-5003887D01*
X1684727Y-5054999D01*
X1664761Y-5084880D01*
X1664759Y-5084886D01*
X1649501Y-5161589D01*
X1649500Y-5161599D01*
X1649500Y-5338397D01*
X1649501Y-5338404D01*
X1664759Y-5415115D01*
X1664759Y-5415116D01*
X1664760Y-5415117D01*
X1684726Y-5444999D01*
X1701334Y-5503887D01*
X1684727Y-5554999D01*
X1664761Y-5584880D01*
X1664759Y-5584886D01*
X1649501Y-5661589D01*
X1649500Y-5661599D01*
X1649500Y-5838397D01*
X1649501Y-5838404D01*
X1664759Y-5915115D01*
X1664759Y-5915116D01*
X1664760Y-5915117D01*
X1684726Y-5944999D01*
X1701334Y-6003887D01*
X1684727Y-6054999D01*
X1664761Y-6084880D01*
X1664759Y-6084886D01*
X1649501Y-6161589D01*
X1649500Y-6161599D01*
X1649500Y-6338397D01*
X200500Y-6338397D01*
X200500Y-2374057D01*
X219407Y-2315866D01*
X229496Y-2304053D01*
X449412Y-2084137D01*
X2355794Y-177754D01*
X2369644Y-167928D01*
X2369499Y-167746D01*
X2378222Y-160789D01*
X2378222Y-160788D01*
X2378224Y-160788D01*
X2398002Y-135986D01*
X2401699Y-131850D01*
X2407749Y-125801D01*
X2412304Y-118551D01*
X2415499Y-114046D01*
X2435290Y-89231D01*
X2435290Y-89227D01*
X2440131Y-79178D01*
X2440343Y-79280D01*
X2440652Y-78532D01*
X2440431Y-78455D01*
X2444115Y-67925D01*
X2444114Y-67925D01*
X2444116Y-67924D01*
X2447670Y-36372D01*
X2448596Y-30929D01*
X2450500Y-22590D01*
X2450500Y-14039D01*
X2450811Y-8499D01*
X2450812Y-8494D01*
X2454363Y23027D01*
X2454361Y23031D01*
X2453114Y34112D01*
X2453345Y34139D01*
X2450500Y50888D01*
X2450500Y10079997D01*
X11944417Y10079997D01*
X11964698Y9874071D01*
X11964699Y9874066D01*
X12024768Y9676046D01*
X12122316Y9493548D01*
X12253585Y9333596D01*
X12253590Y9333590D01*
X12253595Y9333586D01*
X12413547Y9202317D01*
X12413548Y9202317D01*
X12413550Y9202315D01*
X12596046Y9104768D01*
X12733997Y9062922D01*
X12794065Y9044700D01*
X12794070Y9044699D01*
X12999997Y9024417D01*
X13000000Y9024417D01*
X13000003Y9024417D01*
X13205929Y9044699D01*
X13205934Y9044700D01*
X13403954Y9104768D01*
X13586450Y9202315D01*
X13746410Y9333590D01*
X13877685Y9493550D01*
X13975232Y9676046D01*
X14035300Y9874066D01*
X14035301Y9874071D01*
X14055583Y10079997D01*
X17694417Y10079997D01*
X17714698Y9874071D01*
X17714699Y9874066D01*
X17774768Y9676046D01*
X17872316Y9493548D01*
X18003585Y9333596D01*
X18003590Y9333590D01*
X18003595Y9333586D01*
X18163547Y9202317D01*
X18163548Y9202317D01*
X18163550Y9202315D01*
X18346046Y9104768D01*
X18483997Y9062922D01*
X18544065Y9044700D01*
X18544070Y9044699D01*
X18749997Y9024417D01*
X18750000Y9024417D01*
X18750003Y9024417D01*
X18955929Y9044699D01*
X18955934Y9044700D01*
X19153954Y9104768D01*
X19336450Y9202315D01*
X19496410Y9333590D01*
X19627685Y9493550D01*
X19725232Y9676046D01*
X19785300Y9874066D01*
X19785301Y9874071D01*
X19805583Y10079997D01*
X19805583Y10080004D01*
X19785301Y10285930D01*
X19785300Y10285935D01*
X19767078Y10346003D01*
X19725232Y10483954D01*
X19627685Y10666450D01*
X19496410Y10826410D01*
X19496404Y10826415D01*
X19336452Y10957684D01*
X19153954Y11055232D01*
X18955934Y11115301D01*
X18955929Y11115302D01*
X18750003Y11135583D01*
X18749997Y11135583D01*
X18544070Y11115302D01*
X18544065Y11115301D01*
X18346045Y11055232D01*
X18163547Y10957684D01*
X18003595Y10826415D01*
X18003585Y10826405D01*
X17872316Y10666453D01*
X17774768Y10483955D01*
X17714699Y10285935D01*
X17714698Y10285930D01*
X17694417Y10080004D01*
X17694417Y10079997D01*
X14055583Y10079997D01*
X14055583Y10080004D01*
X14035301Y10285930D01*
X14035300Y10285935D01*
X14017078Y10346003D01*
X13975232Y10483954D01*
X13877685Y10666450D01*
X13746410Y10826410D01*
X13746404Y10826415D01*
X13586452Y10957684D01*
X13403954Y11055232D01*
X13205934Y11115301D01*
X13205929Y11115302D01*
X13000003Y11135583D01*
X12999997Y11135583D01*
X12794070Y11115302D01*
X12794065Y11115301D01*
X12596045Y11055232D01*
X12413547Y10957684D01*
X12253595Y10826415D01*
X12253585Y10826405D01*
X12122316Y10666453D01*
X12024768Y10483955D01*
X11964699Y10285935D01*
X11964698Y10285930D01*
X11944417Y10080004D01*
X11944417Y10079997D01*
X2450500Y10079997D01*
X2450500Y12619997D01*
X11944417Y12619997D01*
X11964698Y12414071D01*
X11964699Y12414066D01*
X12024768Y12216046D01*
X12122316Y12033548D01*
X12253585Y11873596D01*
X12253590Y11873590D01*
X12253595Y11873586D01*
X12413547Y11742317D01*
X12413548Y11742317D01*
X12413550Y11742315D01*
X12596046Y11644768D01*
X12733997Y11602922D01*
X12794065Y11584700D01*
X12794070Y11584699D01*
X12999997Y11564417D01*
X13000000Y11564417D01*
X13000003Y11564417D01*
X13205929Y11584699D01*
X13205934Y11584700D01*
X13403954Y11644768D01*
X13586450Y11742315D01*
X13746410Y11873590D01*
X13877685Y12033550D01*
X13975232Y12216046D01*
X14035300Y12414066D01*
X14035301Y12414071D01*
X14055583Y12619997D01*
X17694417Y12619997D01*
X17714698Y12414071D01*
X17714699Y12414066D01*
X17774768Y12216046D01*
X17872316Y12033548D01*
X18003585Y11873596D01*
X18003590Y11873590D01*
X18003595Y11873586D01*
X18163547Y11742317D01*
X18163548Y11742317D01*
X18163550Y11742315D01*
X18346046Y11644768D01*
X18483997Y11602922D01*
X18544065Y11584700D01*
X18544070Y11584699D01*
X18749997Y11564417D01*
X18750000Y11564417D01*
X18750003Y11564417D01*
X18955929Y11584699D01*
X18955934Y11584700D01*
X19153954Y11644768D01*
X19336450Y11742315D01*
X19496410Y11873590D01*
X19627685Y12033550D01*
X19725232Y12216046D01*
X19785300Y12414066D01*
X19785301Y12414071D01*
X19805583Y12619997D01*
X19805583Y12620004D01*
X19785301Y12825930D01*
X19785300Y12825935D01*
X19767078Y12886003D01*
X19725232Y13023954D01*
X19627685Y13206450D01*
X19496410Y13366410D01*
X19496404Y13366415D01*
X19336452Y13497684D01*
X19153954Y13595232D01*
X18955934Y13655301D01*
X18955929Y13655302D01*
X18750003Y13675583D01*
X18749997Y13675583D01*
X18544070Y13655302D01*
X18544065Y13655301D01*
X18346045Y13595232D01*
X18163547Y13497684D01*
X18003595Y13366415D01*
X18003585Y13366405D01*
X17872316Y13206453D01*
X17774768Y13023955D01*
X17714699Y12825935D01*
X17714698Y12825930D01*
X17694417Y12620004D01*
X17694417Y12619997D01*
X14055583Y12619997D01*
X14055583Y12620004D01*
X14035301Y12825930D01*
X14035300Y12825935D01*
X14017078Y12886003D01*
X13975232Y13023954D01*
X13877685Y13206450D01*
X13746410Y13366410D01*
X13746404Y13366415D01*
X13586452Y13497684D01*
X13403954Y13595232D01*
X13205934Y13655301D01*
X13205929Y13655302D01*
X13000003Y13675583D01*
X12999997Y13675583D01*
X12794070Y13655302D01*
X12794065Y13655301D01*
X12596045Y13595232D01*
X12413547Y13497684D01*
X12253595Y13366415D01*
X12253585Y13366405D01*
X12122316Y13206453D01*
X12024768Y13023955D01*
X11964699Y12825935D01*
X11964698Y12825930D01*
X11944417Y12620004D01*
X11944417Y12619997D01*
X2450500Y12619997D01*
X2450500Y15159997D01*
X11944417Y15159997D01*
X11964698Y14954071D01*
X11964699Y14954066D01*
X12024768Y14756046D01*
X12122316Y14573548D01*
X12253585Y14413596D01*
X12253590Y14413590D01*
X12253595Y14413586D01*
X12413547Y14282317D01*
X12413548Y14282317D01*
X12413550Y14282315D01*
X12596046Y14184768D01*
X12733997Y14142922D01*
X12794065Y14124700D01*
X12794070Y14124699D01*
X12999997Y14104417D01*
X13000000Y14104417D01*
X13000003Y14104417D01*
X13205929Y14124699D01*
X13205934Y14124700D01*
X13403954Y14184768D01*
X13586450Y14282315D01*
X13746410Y14413590D01*
X13877685Y14573550D01*
X13975232Y14756046D01*
X14035300Y14954066D01*
X14035301Y14954071D01*
X14055583Y15159997D01*
X17694417Y15159997D01*
X17714698Y14954071D01*
X17714699Y14954066D01*
X17774768Y14756046D01*
X17872316Y14573548D01*
X18003585Y14413596D01*
X18003590Y14413590D01*
X18003595Y14413586D01*
X18163547Y14282317D01*
X18163548Y14282317D01*
X18163550Y14282315D01*
X18346046Y14184768D01*
X18483997Y14142922D01*
X18544065Y14124700D01*
X18544070Y14124699D01*
X18749997Y14104417D01*
X18750000Y14104417D01*
X18750003Y14104417D01*
X18955929Y14124699D01*
X18955934Y14124700D01*
X19153954Y14184768D01*
X19336450Y14282315D01*
X19496410Y14413590D01*
X19627685Y14573550D01*
X19725232Y14756046D01*
X19785300Y14954066D01*
X19785301Y14954071D01*
X19805583Y15159997D01*
X19805583Y15160004D01*
X19785301Y15365930D01*
X19785300Y15365935D01*
X19767078Y15426003D01*
X19725232Y15563954D01*
X19627685Y15746450D01*
X19496410Y15906410D01*
X19496404Y15906415D01*
X19336452Y16037684D01*
X19153954Y16135232D01*
X18955934Y16195301D01*
X18955929Y16195302D01*
X18750003Y16215583D01*
X18749997Y16215583D01*
X18544070Y16195302D01*
X18544065Y16195301D01*
X18346045Y16135232D01*
X18163547Y16037684D01*
X18003595Y15906415D01*
X18003585Y15906405D01*
X17872316Y15746453D01*
X17774768Y15563955D01*
X17714699Y15365935D01*
X17714698Y15365930D01*
X17694417Y15160004D01*
X17694417Y15159997D01*
X14055583Y15159997D01*
X14055583Y15160004D01*
X14035301Y15365930D01*
X14035300Y15365935D01*
X14017078Y15426003D01*
X13975232Y15563954D01*
X13877685Y15746450D01*
X13746410Y15906410D01*
X13746404Y15906415D01*
X13586452Y16037684D01*
X13403954Y16135232D01*
X13205934Y16195301D01*
X13205929Y16195302D01*
X13000003Y16215583D01*
X12999997Y16215583D01*
X12794070Y16195302D01*
X12794065Y16195301D01*
X12596045Y16135232D01*
X12413547Y16037684D01*
X12253595Y15906415D01*
X12253585Y15906405D01*
X12122316Y15746453D01*
X12024768Y15563955D01*
X11964699Y15365935D01*
X11964698Y15365930D01*
X11944417Y15160004D01*
X11944417Y15159997D01*
X2450500Y15159997D01*
X2450500Y17699997D01*
X11944417Y17699997D01*
X11964698Y17494071D01*
X11964699Y17494066D01*
X12024768Y17296046D01*
X12122316Y17113548D01*
X12253585Y16953596D01*
X12253590Y16953590D01*
X12253595Y16953586D01*
X12413547Y16822317D01*
X12413548Y16822317D01*
X12413550Y16822315D01*
X12596046Y16724768D01*
X12733997Y16682922D01*
X12794065Y16664700D01*
X12794070Y16664699D01*
X12999997Y16644417D01*
X13000000Y16644417D01*
X13000003Y16644417D01*
X13205929Y16664699D01*
X13205934Y16664700D01*
X13403954Y16724768D01*
X13586450Y16822315D01*
X13596124Y16830254D01*
X17699500Y16830254D01*
X17699501Y16830242D01*
X17711132Y16771773D01*
X17711134Y16771767D01*
X17755445Y16705452D01*
X17755448Y16705448D01*
X17821769Y16661133D01*
X17866231Y16652289D01*
X17880241Y16649502D01*
X17880246Y16649502D01*
X17880252Y16649500D01*
X17880253Y16649500D01*
X19619747Y16649500D01*
X19619748Y16649500D01*
X19678231Y16661133D01*
X19744552Y16705448D01*
X19788867Y16771769D01*
X19800500Y16830252D01*
X19800500Y18569748D01*
X19798921Y18577684D01*
X19797711Y18583769D01*
X19788867Y18628231D01*
X19744552Y18694552D01*
X19744548Y18694555D01*
X19678233Y18738866D01*
X19678231Y18738867D01*
X19678228Y18738868D01*
X19678227Y18738868D01*
X19619758Y18750499D01*
X19619748Y18750500D01*
X17880252Y18750500D01*
X17880251Y18750500D01*
X17880241Y18750499D01*
X17821772Y18738868D01*
X17821766Y18738866D01*
X17755451Y18694555D01*
X17755445Y18694549D01*
X17711134Y18628234D01*
X17711132Y18628228D01*
X17699501Y18569759D01*
X17699500Y18569747D01*
X17699500Y16830254D01*
X13596124Y16830254D01*
X13746410Y16953590D01*
X13877685Y17113550D01*
X13975232Y17296046D01*
X14035300Y17494066D01*
X14035301Y17494071D01*
X14055583Y17699997D01*
X14055583Y17700004D01*
X14035301Y17905930D01*
X14035300Y17905935D01*
X14017078Y17966003D01*
X13975232Y18103954D01*
X13877685Y18286450D01*
X13746410Y18446410D01*
X13596123Y18569747D01*
X13586452Y18577684D01*
X13403954Y18675232D01*
X13205934Y18735301D01*
X13205929Y18735302D01*
X13000003Y18755583D01*
X12999997Y18755583D01*
X12794070Y18735302D01*
X12794065Y18735301D01*
X12596045Y18675232D01*
X12413547Y18577684D01*
X12253595Y18446415D01*
X12253585Y18446405D01*
X12122316Y18286453D01*
X12024768Y18103955D01*
X11964699Y17905935D01*
X11964698Y17905930D01*
X11944417Y17700004D01*
X11944417Y17699997D01*
X2450500Y17699997D01*
X2450500Y20239997D01*
X11944417Y20239997D01*
X11964698Y20034071D01*
X11964699Y20034066D01*
X12024768Y19836046D01*
X12122316Y19653548D01*
X12253585Y19493596D01*
X12253590Y19493590D01*
X12253595Y19493586D01*
X12413547Y19362317D01*
X12413548Y19362317D01*
X12413550Y19362315D01*
X12596046Y19264768D01*
X12733997Y19222922D01*
X12794065Y19204700D01*
X12794070Y19204699D01*
X12999997Y19184417D01*
X13000000Y19184417D01*
X13000003Y19184417D01*
X13205929Y19204699D01*
X13205934Y19204700D01*
X13403954Y19264768D01*
X13586450Y19362315D01*
X13746410Y19493590D01*
X13877685Y19653550D01*
X13975232Y19836046D01*
X14035300Y20034066D01*
X14035301Y20034071D01*
X14055583Y20239997D01*
X14055583Y20240004D01*
X14035301Y20445930D01*
X14035300Y20445935D01*
X14017078Y20506003D01*
X13975232Y20643954D01*
X13877685Y20826450D01*
X13746410Y20986410D01*
X13746404Y20986415D01*
X13586452Y21117684D01*
X13403954Y21215232D01*
X13205934Y21275301D01*
X13205929Y21275302D01*
X13000003Y21295583D01*
X12999997Y21295583D01*
X12794070Y21275302D01*
X12794065Y21275301D01*
X12596045Y21215232D01*
X12413547Y21117684D01*
X12253595Y20986415D01*
X12253585Y20986405D01*
X12122316Y20826453D01*
X12024768Y20643955D01*
X11964699Y20445935D01*
X11964698Y20445930D01*
X11944417Y20240004D01*
X11944417Y20239997D01*
X2450500Y20239997D01*
X2450500Y22779997D01*
X11944417Y22779997D01*
X11964698Y22574071D01*
X11964699Y22574066D01*
X12024768Y22376046D01*
X12122316Y22193548D01*
X12253585Y22033596D01*
X12253590Y22033590D01*
X12253595Y22033586D01*
X12413547Y21902317D01*
X12413548Y21902317D01*
X12413550Y21902315D01*
X12596046Y21804768D01*
X12733997Y21762922D01*
X12794065Y21744700D01*
X12794070Y21744699D01*
X12999997Y21724417D01*
X13000000Y21724417D01*
X13000003Y21724417D01*
X13205929Y21744699D01*
X13205934Y21744700D01*
X13403954Y21804768D01*
X13586450Y21902315D01*
X13746410Y22033590D01*
X13877685Y22193550D01*
X13975232Y22376046D01*
X14035300Y22574066D01*
X14035301Y22574071D01*
X14055583Y22779997D01*
X14055583Y22780004D01*
X14035301Y22985930D01*
X14035300Y22985935D01*
X14017078Y23046003D01*
X13975232Y23183954D01*
X13877685Y23366450D01*
X13746410Y23526410D01*
X13746404Y23526415D01*
X13586452Y23657684D01*
X13403954Y23755232D01*
X13205934Y23815301D01*
X13205929Y23815302D01*
X13000003Y23835583D01*
X12999997Y23835583D01*
X12794070Y23815302D01*
X12794065Y23815301D01*
X12596045Y23755232D01*
X12413547Y23657684D01*
X12253595Y23526415D01*
X12253585Y23526405D01*
X12122316Y23366453D01*
X12024768Y23183955D01*
X11964699Y22985935D01*
X11964698Y22985930D01*
X11944417Y22780004D01*
X11944417Y22779997D01*
X2450500Y22779997D01*
X2450500Y24450254D01*
X11949500Y24450254D01*
X11949501Y24450242D01*
X11961132Y24391773D01*
X11961133Y24391769D01*
X12005448Y24325448D01*
X12071769Y24281133D01*
X12116231Y24272289D01*
X12130241Y24269502D01*
X12130246Y24269502D01*
X12130252Y24269500D01*
X12130253Y24269500D01*
X13869747Y24269500D01*
X13869748Y24269500D01*
X13928231Y24281133D01*
X13994552Y24325448D01*
X14038867Y24391769D01*
X14050500Y24450252D01*
X14050500Y26189748D01*
X14038867Y26248231D01*
X13994552Y26314552D01*
X13994548Y26314555D01*
X13928233Y26358866D01*
X13928231Y26358867D01*
X13928228Y26358868D01*
X13928227Y26358868D01*
X13869758Y26370499D01*
X13869748Y26370500D01*
X12130252Y26370500D01*
X12130251Y26370500D01*
X12130241Y26370499D01*
X12071772Y26358868D01*
X12071766Y26358866D01*
X12005451Y26314555D01*
X12005445Y26314549D01*
X11961134Y26248234D01*
X11961132Y26248228D01*
X11949501Y26189759D01*
X11949500Y26189747D01*
X11949500Y24450254D01*
X2450500Y24450254D01*
X2450500Y28200500D01*
X2469407Y28258691D01*
X2518907Y28294655D01*
X2549500Y28299500D01*
X31450500Y28299500D01*
X31508691Y28280593D01*
G37*
%TD.AperFunction*%
%TD*%
M02*
