%TF.GenerationSoftware,KiCad,Pcbnew,7.0.7*%
%TF.CreationDate,2023-10-20T16:04:56+10:00*%
%TF.ProjectId,ProgrammingBoard,50726f67-7261-46d6-9d69-6e67426f6172,rev?*%
%TF.SameCoordinates,Original*%
%TF.FileFunction,Legend,Top*%
%TF.FilePolarity,Positive*%
%FSLAX46Y46*%
G04 Gerber Fmt 4.6, Leading zero omitted, Abs format (unit mm)*
G04 Created by KiCad (PCBNEW 7.0.7) date 2023-10-20 16:04:56*
%MOMM*%
%LPD*%
G01*
G04 APERTURE LIST*
G04 Aperture macros list*
%AMRoundRect*
0 Rectangle with rounded corners*
0 $1 Rounding radius*
0 $2 $3 $4 $5 $6 $7 $8 $9 X,Y pos of 4 corners*
0 Add a 4 corners polygon primitive as box body*
4,1,4,$2,$3,$4,$5,$6,$7,$8,$9,$2,$3,0*
0 Add four circle primitives for the rounded corners*
1,1,$1+$1,$2,$3*
1,1,$1+$1,$4,$5*
1,1,$1+$1,$6,$7*
1,1,$1+$1,$8,$9*
0 Add four rect primitives between the rounded corners*
20,1,$1+$1,$2,$3,$4,$5,0*
20,1,$1+$1,$4,$5,$6,$7,0*
20,1,$1+$1,$6,$7,$8,$9,0*
20,1,$1+$1,$8,$9,$2,$3,0*%
G04 Aperture macros list end*
%ADD10C,0.150000*%
%ADD11C,0.100000*%
%ADD12C,0.250000*%
%ADD13C,0.120000*%
%ADD14RoundRect,0.062500X-0.587500X-0.062500X0.587500X-0.062500X0.587500X0.062500X-0.587500X0.062500X0*%
%ADD15R,1.700000X1.700000*%
%ADD16O,1.700000X1.700000*%
G04 APERTURE END LIST*
D10*
X21365601Y49497562D02*
X21270363Y49545181D01*
X21270363Y49545181D02*
X21127506Y49545181D01*
X21127506Y49545181D02*
X20984649Y49497562D01*
X20984649Y49497562D02*
X20889411Y49402324D01*
X20889411Y49402324D02*
X20841792Y49307086D01*
X20841792Y49307086D02*
X20794173Y49116610D01*
X20794173Y49116610D02*
X20794173Y48973753D01*
X20794173Y48973753D02*
X20841792Y48783277D01*
X20841792Y48783277D02*
X20889411Y48688039D01*
X20889411Y48688039D02*
X20984649Y48592800D01*
X20984649Y48592800D02*
X21127506Y48545181D01*
X21127506Y48545181D02*
X21222744Y48545181D01*
X21222744Y48545181D02*
X21365601Y48592800D01*
X21365601Y48592800D02*
X21413220Y48640420D01*
X21413220Y48640420D02*
X21413220Y48973753D01*
X21413220Y48973753D02*
X21222744Y48973753D01*
X21841792Y48545181D02*
X21841792Y49545181D01*
X21841792Y49545181D02*
X22413220Y48545181D01*
X22413220Y48545181D02*
X22413220Y49545181D01*
X22889411Y48545181D02*
X22889411Y49545181D01*
X22889411Y49545181D02*
X23127506Y49545181D01*
X23127506Y49545181D02*
X23270363Y49497562D01*
X23270363Y49497562D02*
X23365601Y49402324D01*
X23365601Y49402324D02*
X23413220Y49307086D01*
X23413220Y49307086D02*
X23460839Y49116610D01*
X23460839Y49116610D02*
X23460839Y48973753D01*
X23460839Y48973753D02*
X23413220Y48783277D01*
X23413220Y48783277D02*
X23365601Y48688039D01*
X23365601Y48688039D02*
X23270363Y48592800D01*
X23270363Y48592800D02*
X23127506Y48545181D01*
X23127506Y48545181D02*
X22889411Y48545181D01*
X20782268Y18342800D02*
X20925125Y18295181D01*
X20925125Y18295181D02*
X21163220Y18295181D01*
X21163220Y18295181D02*
X21258458Y18342800D01*
X21258458Y18342800D02*
X21306077Y18390420D01*
X21306077Y18390420D02*
X21353696Y18485658D01*
X21353696Y18485658D02*
X21353696Y18580896D01*
X21353696Y18580896D02*
X21306077Y18676134D01*
X21306077Y18676134D02*
X21258458Y18723753D01*
X21258458Y18723753D02*
X21163220Y18771372D01*
X21163220Y18771372D02*
X20972744Y18818991D01*
X20972744Y18818991D02*
X20877506Y18866610D01*
X20877506Y18866610D02*
X20829887Y18914229D01*
X20829887Y18914229D02*
X20782268Y19009467D01*
X20782268Y19009467D02*
X20782268Y19104705D01*
X20782268Y19104705D02*
X20829887Y19199943D01*
X20829887Y19199943D02*
X20877506Y19247562D01*
X20877506Y19247562D02*
X20972744Y19295181D01*
X20972744Y19295181D02*
X21210839Y19295181D01*
X21210839Y19295181D02*
X21353696Y19247562D01*
X21782268Y18295181D02*
X21782268Y19295181D01*
X21782268Y19295181D02*
X22020363Y19295181D01*
X22020363Y19295181D02*
X22163220Y19247562D01*
X22163220Y19247562D02*
X22258458Y19152324D01*
X22258458Y19152324D02*
X22306077Y19057086D01*
X22306077Y19057086D02*
X22353696Y18866610D01*
X22353696Y18866610D02*
X22353696Y18723753D01*
X22353696Y18723753D02*
X22306077Y18533277D01*
X22306077Y18533277D02*
X22258458Y18438039D01*
X22258458Y18438039D02*
X22163220Y18342800D01*
X22163220Y18342800D02*
X22020363Y18295181D01*
X22020363Y18295181D02*
X21782268Y18295181D01*
X22734649Y18580896D02*
X23210839Y18580896D01*
X22639411Y18295181D02*
X22972744Y19295181D01*
X22972744Y19295181D02*
X23306077Y18295181D01*
X21401315Y20890420D02*
X21353696Y20842800D01*
X21353696Y20842800D02*
X21210839Y20795181D01*
X21210839Y20795181D02*
X21115601Y20795181D01*
X21115601Y20795181D02*
X20972744Y20842800D01*
X20972744Y20842800D02*
X20877506Y20938039D01*
X20877506Y20938039D02*
X20829887Y21033277D01*
X20829887Y21033277D02*
X20782268Y21223753D01*
X20782268Y21223753D02*
X20782268Y21366610D01*
X20782268Y21366610D02*
X20829887Y21557086D01*
X20829887Y21557086D02*
X20877506Y21652324D01*
X20877506Y21652324D02*
X20972744Y21747562D01*
X20972744Y21747562D02*
X21115601Y21795181D01*
X21115601Y21795181D02*
X21210839Y21795181D01*
X21210839Y21795181D02*
X21353696Y21747562D01*
X21353696Y21747562D02*
X21401315Y21699943D01*
X22306077Y20795181D02*
X21829887Y20795181D01*
X21829887Y20795181D02*
X21829887Y21795181D01*
X22639411Y20795181D02*
X22639411Y21795181D01*
X23210839Y20795181D02*
X22782268Y21366610D01*
X23210839Y21795181D02*
X22639411Y21223753D01*
X10539160Y46342800D02*
X10682017Y46295181D01*
X10682017Y46295181D02*
X10920112Y46295181D01*
X10920112Y46295181D02*
X11015350Y46342800D01*
X11015350Y46342800D02*
X11062969Y46390420D01*
X11062969Y46390420D02*
X11110588Y46485658D01*
X11110588Y46485658D02*
X11110588Y46580896D01*
X11110588Y46580896D02*
X11062969Y46676134D01*
X11062969Y46676134D02*
X11015350Y46723753D01*
X11015350Y46723753D02*
X10920112Y46771372D01*
X10920112Y46771372D02*
X10729636Y46818991D01*
X10729636Y46818991D02*
X10634398Y46866610D01*
X10634398Y46866610D02*
X10586779Y46914229D01*
X10586779Y46914229D02*
X10539160Y47009467D01*
X10539160Y47009467D02*
X10539160Y47104705D01*
X10539160Y47104705D02*
X10586779Y47199943D01*
X10586779Y47199943D02*
X10634398Y47247562D01*
X10634398Y47247562D02*
X10729636Y47295181D01*
X10729636Y47295181D02*
X10967731Y47295181D01*
X10967731Y47295181D02*
X11110588Y47247562D01*
X11443922Y47295181D02*
X11682017Y46295181D01*
X11682017Y46295181D02*
X11872493Y47009467D01*
X11872493Y47009467D02*
X12062969Y46295181D01*
X12062969Y46295181D02*
X12301065Y47295181D01*
X12682017Y46295181D02*
X12682017Y47295181D01*
X12682017Y47295181D02*
X12920112Y47295181D01*
X12920112Y47295181D02*
X13062969Y47247562D01*
X13062969Y47247562D02*
X13158207Y47152324D01*
X13158207Y47152324D02*
X13205826Y47057086D01*
X13205826Y47057086D02*
X13253445Y46866610D01*
X13253445Y46866610D02*
X13253445Y46723753D01*
X13253445Y46723753D02*
X13205826Y46533277D01*
X13205826Y46533277D02*
X13158207Y46438039D01*
X13158207Y46438039D02*
X13062969Y46342800D01*
X13062969Y46342800D02*
X12920112Y46295181D01*
X12920112Y46295181D02*
X12682017Y46295181D01*
X14253445Y46390420D02*
X14205826Y46342800D01*
X14205826Y46342800D02*
X14062969Y46295181D01*
X14062969Y46295181D02*
X13967731Y46295181D01*
X13967731Y46295181D02*
X13824874Y46342800D01*
X13824874Y46342800D02*
X13729636Y46438039D01*
X13729636Y46438039D02*
X13682017Y46533277D01*
X13682017Y46533277D02*
X13634398Y46723753D01*
X13634398Y46723753D02*
X13634398Y46866610D01*
X13634398Y46866610D02*
X13682017Y47057086D01*
X13682017Y47057086D02*
X13729636Y47152324D01*
X13729636Y47152324D02*
X13824874Y47247562D01*
X13824874Y47247562D02*
X13967731Y47295181D01*
X13967731Y47295181D02*
X14062969Y47295181D01*
X14062969Y47295181D02*
X14205826Y47247562D01*
X14205826Y47247562D02*
X14253445Y47199943D01*
X15158207Y46295181D02*
X14682017Y46295181D01*
X14682017Y46295181D02*
X14682017Y47295181D01*
X15491541Y46295181D02*
X15491541Y47295181D01*
X16062969Y46295181D02*
X15634398Y46866610D01*
X16062969Y47295181D02*
X15491541Y46723753D01*
X21770363Y3406848D02*
X22008458Y2740181D01*
X22008458Y2740181D02*
X22246553Y3406848D01*
X23151315Y2740181D02*
X22579887Y2740181D01*
X22865601Y2740181D02*
X22865601Y3740181D01*
X22865601Y3740181D02*
X22770363Y3597324D01*
X22770363Y3597324D02*
X22675125Y3502086D01*
X22675125Y3502086D02*
X22579887Y3454467D01*
X23579887Y2835420D02*
X23627506Y2787800D01*
X23627506Y2787800D02*
X23579887Y2740181D01*
X23579887Y2740181D02*
X23532268Y2787800D01*
X23532268Y2787800D02*
X23579887Y2835420D01*
X23579887Y2835420D02*
X23579887Y2740181D01*
X24246553Y3740181D02*
X24341791Y3740181D01*
X24341791Y3740181D02*
X24437029Y3692562D01*
X24437029Y3692562D02*
X24484648Y3644943D01*
X24484648Y3644943D02*
X24532267Y3549705D01*
X24532267Y3549705D02*
X24579886Y3359229D01*
X24579886Y3359229D02*
X24579886Y3121134D01*
X24579886Y3121134D02*
X24532267Y2930658D01*
X24532267Y2930658D02*
X24484648Y2835420D01*
X24484648Y2835420D02*
X24437029Y2787800D01*
X24437029Y2787800D02*
X24341791Y2740181D01*
X24341791Y2740181D02*
X24246553Y2740181D01*
X24246553Y2740181D02*
X24151315Y2787800D01*
X24151315Y2787800D02*
X24103696Y2835420D01*
X24103696Y2835420D02*
X24056077Y2930658D01*
X24056077Y2930658D02*
X24008458Y3121134D01*
X24008458Y3121134D02*
X24008458Y3359229D01*
X24008458Y3359229D02*
X24056077Y3549705D01*
X24056077Y3549705D02*
X24103696Y3644943D01*
X24103696Y3644943D02*
X24151315Y3692562D01*
X24151315Y3692562D02*
X24246553Y3740181D01*
X25960839Y3740181D02*
X26151315Y3740181D01*
X26151315Y3740181D02*
X26246553Y3692562D01*
X26246553Y3692562D02*
X26341791Y3597324D01*
X26341791Y3597324D02*
X26389410Y3406848D01*
X26389410Y3406848D02*
X26389410Y3073515D01*
X26389410Y3073515D02*
X26341791Y2883039D01*
X26341791Y2883039D02*
X26246553Y2787800D01*
X26246553Y2787800D02*
X26151315Y2740181D01*
X26151315Y2740181D02*
X25960839Y2740181D01*
X25960839Y2740181D02*
X25865601Y2787800D01*
X25865601Y2787800D02*
X25770363Y2883039D01*
X25770363Y2883039D02*
X25722744Y3073515D01*
X25722744Y3073515D02*
X25722744Y3406848D01*
X25722744Y3406848D02*
X25770363Y3597324D01*
X25770363Y3597324D02*
X25865601Y3692562D01*
X25865601Y3692562D02*
X25960839Y3740181D01*
X27246553Y2787800D02*
X27151315Y2740181D01*
X27151315Y2740181D02*
X26960839Y2740181D01*
X26960839Y2740181D02*
X26865601Y2787800D01*
X26865601Y2787800D02*
X26817982Y2835420D01*
X26817982Y2835420D02*
X26770363Y2930658D01*
X26770363Y2930658D02*
X26770363Y3216372D01*
X26770363Y3216372D02*
X26817982Y3311610D01*
X26817982Y3311610D02*
X26865601Y3359229D01*
X26865601Y3359229D02*
X26960839Y3406848D01*
X26960839Y3406848D02*
X27151315Y3406848D01*
X27151315Y3406848D02*
X27246553Y3359229D01*
X27532268Y3406848D02*
X27913220Y3406848D01*
X27675125Y3740181D02*
X27675125Y2883039D01*
X27675125Y2883039D02*
X27722744Y2787800D01*
X27722744Y2787800D02*
X27817982Y2740181D01*
X27817982Y2740181D02*
X27913220Y2740181D01*
X28246554Y3121134D02*
X29008459Y3121134D01*
X29437030Y3644943D02*
X29484649Y3692562D01*
X29484649Y3692562D02*
X29579887Y3740181D01*
X29579887Y3740181D02*
X29817982Y3740181D01*
X29817982Y3740181D02*
X29913220Y3692562D01*
X29913220Y3692562D02*
X29960839Y3644943D01*
X29960839Y3644943D02*
X30008458Y3549705D01*
X30008458Y3549705D02*
X30008458Y3454467D01*
X30008458Y3454467D02*
X29960839Y3311610D01*
X29960839Y3311610D02*
X29389411Y2740181D01*
X29389411Y2740181D02*
X30008458Y2740181D01*
X30341792Y3740181D02*
X30960839Y3740181D01*
X30960839Y3740181D02*
X30627506Y3359229D01*
X30627506Y3359229D02*
X30770363Y3359229D01*
X30770363Y3359229D02*
X30865601Y3311610D01*
X30865601Y3311610D02*
X30913220Y3263991D01*
X30913220Y3263991D02*
X30960839Y3168753D01*
X30960839Y3168753D02*
X30960839Y2930658D01*
X30960839Y2930658D02*
X30913220Y2835420D01*
X30913220Y2835420D02*
X30865601Y2787800D01*
X30865601Y2787800D02*
X30770363Y2740181D01*
X30770363Y2740181D02*
X30484649Y2740181D01*
X30484649Y2740181D02*
X30389411Y2787800D01*
X30389411Y2787800D02*
X30341792Y2835420D01*
X20103694Y749229D02*
X20056075Y796848D01*
X20056075Y796848D02*
X19960837Y939705D01*
X19960837Y939705D02*
X19913218Y1034943D01*
X19913218Y1034943D02*
X19865599Y1177800D01*
X19865599Y1177800D02*
X19817980Y1415896D01*
X19817980Y1415896D02*
X19817980Y1606372D01*
X19817980Y1606372D02*
X19865599Y1844467D01*
X19865599Y1844467D02*
X19913218Y1987324D01*
X19913218Y1987324D02*
X19960837Y2082562D01*
X19960837Y2082562D02*
X20056075Y2225420D01*
X20056075Y2225420D02*
X20103694Y2273039D01*
X20913218Y1177800D02*
X20817980Y1130181D01*
X20817980Y1130181D02*
X20627504Y1130181D01*
X20627504Y1130181D02*
X20532266Y1177800D01*
X20532266Y1177800D02*
X20484647Y1225420D01*
X20484647Y1225420D02*
X20437028Y1320658D01*
X20437028Y1320658D02*
X20437028Y1606372D01*
X20437028Y1606372D02*
X20484647Y1701610D01*
X20484647Y1701610D02*
X20532266Y1749229D01*
X20532266Y1749229D02*
X20627504Y1796848D01*
X20627504Y1796848D02*
X20817980Y1796848D01*
X20817980Y1796848D02*
X20913218Y1749229D01*
X21246552Y749229D02*
X21294171Y796848D01*
X21294171Y796848D02*
X21389409Y939705D01*
X21389409Y939705D02*
X21437028Y1034943D01*
X21437028Y1034943D02*
X21484647Y1177800D01*
X21484647Y1177800D02*
X21532266Y1415896D01*
X21532266Y1415896D02*
X21532266Y1606372D01*
X21532266Y1606372D02*
X21484647Y1844467D01*
X21484647Y1844467D02*
X21437028Y1987324D01*
X21437028Y1987324D02*
X21389409Y2082562D01*
X21389409Y2082562D02*
X21294171Y2225420D01*
X21294171Y2225420D02*
X21246552Y2273039D01*
X23151314Y1177800D02*
X23056076Y1130181D01*
X23056076Y1130181D02*
X22865600Y1130181D01*
X22865600Y1130181D02*
X22770362Y1177800D01*
X22770362Y1177800D02*
X22722743Y1273039D01*
X22722743Y1273039D02*
X22722743Y1653991D01*
X22722743Y1653991D02*
X22770362Y1749229D01*
X22770362Y1749229D02*
X22865600Y1796848D01*
X22865600Y1796848D02*
X23056076Y1796848D01*
X23056076Y1796848D02*
X23151314Y1749229D01*
X23151314Y1749229D02*
X23198933Y1653991D01*
X23198933Y1653991D02*
X23198933Y1558753D01*
X23198933Y1558753D02*
X22722743Y1463515D01*
X24056076Y1796848D02*
X24056076Y987324D01*
X24056076Y987324D02*
X24008457Y892086D01*
X24008457Y892086D02*
X23960838Y844467D01*
X23960838Y844467D02*
X23865600Y796848D01*
X23865600Y796848D02*
X23722743Y796848D01*
X23722743Y796848D02*
X23627505Y844467D01*
X24056076Y1177800D02*
X23960838Y1130181D01*
X23960838Y1130181D02*
X23770362Y1130181D01*
X23770362Y1130181D02*
X23675124Y1177800D01*
X23675124Y1177800D02*
X23627505Y1225420D01*
X23627505Y1225420D02*
X23579886Y1320658D01*
X23579886Y1320658D02*
X23579886Y1606372D01*
X23579886Y1606372D02*
X23627505Y1701610D01*
X23627505Y1701610D02*
X23675124Y1749229D01*
X23675124Y1749229D02*
X23770362Y1796848D01*
X23770362Y1796848D02*
X23960838Y1796848D01*
X23960838Y1796848D02*
X24056076Y1749229D01*
X24960838Y1796848D02*
X24960838Y987324D01*
X24960838Y987324D02*
X24913219Y892086D01*
X24913219Y892086D02*
X24865600Y844467D01*
X24865600Y844467D02*
X24770362Y796848D01*
X24770362Y796848D02*
X24627505Y796848D01*
X24627505Y796848D02*
X24532267Y844467D01*
X24960838Y1177800D02*
X24865600Y1130181D01*
X24865600Y1130181D02*
X24675124Y1130181D01*
X24675124Y1130181D02*
X24579886Y1177800D01*
X24579886Y1177800D02*
X24532267Y1225420D01*
X24532267Y1225420D02*
X24484648Y1320658D01*
X24484648Y1320658D02*
X24484648Y1606372D01*
X24484648Y1606372D02*
X24532267Y1701610D01*
X24532267Y1701610D02*
X24579886Y1749229D01*
X24579886Y1749229D02*
X24675124Y1796848D01*
X24675124Y1796848D02*
X24865600Y1796848D01*
X24865600Y1796848D02*
X24960838Y1749229D01*
X25389410Y1177800D02*
X25484648Y1130181D01*
X25484648Y1130181D02*
X25675124Y1130181D01*
X25675124Y1130181D02*
X25770362Y1177800D01*
X25770362Y1177800D02*
X25817981Y1273039D01*
X25817981Y1273039D02*
X25817981Y1320658D01*
X25817981Y1320658D02*
X25770362Y1415896D01*
X25770362Y1415896D02*
X25675124Y1463515D01*
X25675124Y1463515D02*
X25532267Y1463515D01*
X25532267Y1463515D02*
X25437029Y1511134D01*
X25437029Y1511134D02*
X25389410Y1606372D01*
X25389410Y1606372D02*
X25389410Y1653991D01*
X25389410Y1653991D02*
X25437029Y1749229D01*
X25437029Y1749229D02*
X25532267Y1796848D01*
X25532267Y1796848D02*
X25675124Y1796848D01*
X25675124Y1796848D02*
X25770362Y1749229D01*
X26675124Y1130181D02*
X26675124Y1653991D01*
X26675124Y1653991D02*
X26627505Y1749229D01*
X26627505Y1749229D02*
X26532267Y1796848D01*
X26532267Y1796848D02*
X26341791Y1796848D01*
X26341791Y1796848D02*
X26246553Y1749229D01*
X26675124Y1177800D02*
X26579886Y1130181D01*
X26579886Y1130181D02*
X26341791Y1130181D01*
X26341791Y1130181D02*
X26246553Y1177800D01*
X26246553Y1177800D02*
X26198934Y1273039D01*
X26198934Y1273039D02*
X26198934Y1368277D01*
X26198934Y1368277D02*
X26246553Y1463515D01*
X26246553Y1463515D02*
X26341791Y1511134D01*
X26341791Y1511134D02*
X26579886Y1511134D01*
X26579886Y1511134D02*
X26675124Y1558753D01*
X27151315Y1130181D02*
X27151315Y1796848D01*
X27151315Y1701610D02*
X27198934Y1749229D01*
X27198934Y1749229D02*
X27294172Y1796848D01*
X27294172Y1796848D02*
X27437029Y1796848D01*
X27437029Y1796848D02*
X27532267Y1749229D01*
X27532267Y1749229D02*
X27579886Y1653991D01*
X27579886Y1653991D02*
X27579886Y1130181D01*
X27579886Y1653991D02*
X27627505Y1749229D01*
X27627505Y1749229D02*
X27722743Y1796848D01*
X27722743Y1796848D02*
X27865600Y1796848D01*
X27865600Y1796848D02*
X27960839Y1749229D01*
X27960839Y1749229D02*
X28008458Y1653991D01*
X28008458Y1653991D02*
X28008458Y1130181D01*
X28484648Y1796848D02*
X28484648Y796848D01*
X28484648Y1749229D02*
X28579886Y1796848D01*
X28579886Y1796848D02*
X28770362Y1796848D01*
X28770362Y1796848D02*
X28865600Y1749229D01*
X28865600Y1749229D02*
X28913219Y1701610D01*
X28913219Y1701610D02*
X28960838Y1606372D01*
X28960838Y1606372D02*
X28960838Y1320658D01*
X28960838Y1320658D02*
X28913219Y1225420D01*
X28913219Y1225420D02*
X28865600Y1177800D01*
X28865600Y1177800D02*
X28770362Y1130181D01*
X28770362Y1130181D02*
X28579886Y1130181D01*
X28579886Y1130181D02*
X28484648Y1177800D01*
X29532267Y1130181D02*
X29437029Y1177800D01*
X29437029Y1177800D02*
X29389410Y1273039D01*
X29389410Y1273039D02*
X29389410Y2130181D01*
X30294172Y1177800D02*
X30198934Y1130181D01*
X30198934Y1130181D02*
X30008458Y1130181D01*
X30008458Y1130181D02*
X29913220Y1177800D01*
X29913220Y1177800D02*
X29865601Y1273039D01*
X29865601Y1273039D02*
X29865601Y1653991D01*
X29865601Y1653991D02*
X29913220Y1749229D01*
X29913220Y1749229D02*
X30008458Y1796848D01*
X30008458Y1796848D02*
X30198934Y1796848D01*
X30198934Y1796848D02*
X30294172Y1749229D01*
X30294172Y1749229D02*
X30341791Y1653991D01*
X30341791Y1653991D02*
X30341791Y1558753D01*
X30341791Y1558753D02*
X29865601Y1463515D01*
X30770363Y1130181D02*
X30770363Y1796848D01*
X30770363Y1606372D02*
X30817982Y1701610D01*
X30817982Y1701610D02*
X30865601Y1749229D01*
X30865601Y1749229D02*
X30960839Y1796848D01*
X30960839Y1796848D02*
X31056077Y1796848D01*
X11158207Y41045181D02*
X10824874Y41521372D01*
X10586779Y41045181D02*
X10586779Y42045181D01*
X10586779Y42045181D02*
X10967731Y42045181D01*
X10967731Y42045181D02*
X11062969Y41997562D01*
X11062969Y41997562D02*
X11110588Y41949943D01*
X11110588Y41949943D02*
X11158207Y41854705D01*
X11158207Y41854705D02*
X11158207Y41711848D01*
X11158207Y41711848D02*
X11110588Y41616610D01*
X11110588Y41616610D02*
X11062969Y41568991D01*
X11062969Y41568991D02*
X10967731Y41521372D01*
X10967731Y41521372D02*
X10586779Y41521372D01*
X11491541Y42045181D02*
X12158207Y41045181D01*
X12158207Y42045181D02*
X11491541Y41045181D01*
X14908207Y56045181D02*
X14574874Y56521372D01*
X14336779Y56045181D02*
X14336779Y57045181D01*
X14336779Y57045181D02*
X14717731Y57045181D01*
X14717731Y57045181D02*
X14812969Y56997562D01*
X14812969Y56997562D02*
X14860588Y56949943D01*
X14860588Y56949943D02*
X14908207Y56854705D01*
X14908207Y56854705D02*
X14908207Y56711848D01*
X14908207Y56711848D02*
X14860588Y56616610D01*
X14860588Y56616610D02*
X14812969Y56568991D01*
X14812969Y56568991D02*
X14717731Y56521372D01*
X14717731Y56521372D02*
X14336779Y56521372D01*
X15336779Y56045181D02*
X15336779Y57045181D01*
X15336779Y57045181D02*
X15717731Y57045181D01*
X15717731Y57045181D02*
X15812969Y56997562D01*
X15812969Y56997562D02*
X15860588Y56949943D01*
X15860588Y56949943D02*
X15908207Y56854705D01*
X15908207Y56854705D02*
X15908207Y56711848D01*
X15908207Y56711848D02*
X15860588Y56616610D01*
X15860588Y56616610D02*
X15812969Y56568991D01*
X15812969Y56568991D02*
X15717731Y56521372D01*
X15717731Y56521372D02*
X15336779Y56521372D01*
X16336779Y56045181D02*
X16336779Y57045181D01*
X17574874Y56045181D02*
X17574874Y57045181D01*
X17574874Y57045181D02*
X17955826Y57045181D01*
X17955826Y57045181D02*
X18051064Y56997562D01*
X18051064Y56997562D02*
X18098683Y56949943D01*
X18098683Y56949943D02*
X18146302Y56854705D01*
X18146302Y56854705D02*
X18146302Y56711848D01*
X18146302Y56711848D02*
X18098683Y56616610D01*
X18098683Y56616610D02*
X18051064Y56568991D01*
X18051064Y56568991D02*
X17955826Y56521372D01*
X17955826Y56521372D02*
X17574874Y56521372D01*
X18574874Y56045181D02*
X18574874Y57045181D01*
X19622492Y56140420D02*
X19574873Y56092800D01*
X19574873Y56092800D02*
X19432016Y56045181D01*
X19432016Y56045181D02*
X19336778Y56045181D01*
X19336778Y56045181D02*
X19193921Y56092800D01*
X19193921Y56092800D02*
X19098683Y56188039D01*
X19098683Y56188039D02*
X19051064Y56283277D01*
X19051064Y56283277D02*
X19003445Y56473753D01*
X19003445Y56473753D02*
X19003445Y56616610D01*
X19003445Y56616610D02*
X19051064Y56807086D01*
X19051064Y56807086D02*
X19098683Y56902324D01*
X19098683Y56902324D02*
X19193921Y56997562D01*
X19193921Y56997562D02*
X19336778Y57045181D01*
X19336778Y57045181D02*
X19432016Y57045181D01*
X19432016Y57045181D02*
X19574873Y56997562D01*
X19574873Y56997562D02*
X19622492Y56949943D01*
X20241540Y57045181D02*
X20432016Y57045181D01*
X20432016Y57045181D02*
X20527254Y56997562D01*
X20527254Y56997562D02*
X20622492Y56902324D01*
X20622492Y56902324D02*
X20670111Y56711848D01*
X20670111Y56711848D02*
X20670111Y56378515D01*
X20670111Y56378515D02*
X20622492Y56188039D01*
X20622492Y56188039D02*
X20527254Y56092800D01*
X20527254Y56092800D02*
X20432016Y56045181D01*
X20432016Y56045181D02*
X20241540Y56045181D01*
X20241540Y56045181D02*
X20146302Y56092800D01*
X20146302Y56092800D02*
X20051064Y56188039D01*
X20051064Y56188039D02*
X20003445Y56378515D01*
X20003445Y56378515D02*
X20003445Y56711848D01*
X20003445Y56711848D02*
X20051064Y56902324D01*
X20051064Y56902324D02*
X20146302Y56997562D01*
X20146302Y56997562D02*
X20241540Y57045181D01*
X2991541Y3740181D02*
X3229636Y2740181D01*
X3229636Y2740181D02*
X3420112Y3454467D01*
X3420112Y3454467D02*
X3610588Y2740181D01*
X3610588Y2740181D02*
X3848684Y3740181D01*
X4372493Y2740181D02*
X4277255Y2787800D01*
X4277255Y2787800D02*
X4229636Y2835420D01*
X4229636Y2835420D02*
X4182017Y2930658D01*
X4182017Y2930658D02*
X4182017Y3216372D01*
X4182017Y3216372D02*
X4229636Y3311610D01*
X4229636Y3311610D02*
X4277255Y3359229D01*
X4277255Y3359229D02*
X4372493Y3406848D01*
X4372493Y3406848D02*
X4515350Y3406848D01*
X4515350Y3406848D02*
X4610588Y3359229D01*
X4610588Y3359229D02*
X4658207Y3311610D01*
X4658207Y3311610D02*
X4705826Y3216372D01*
X4705826Y3216372D02*
X4705826Y2930658D01*
X4705826Y2930658D02*
X4658207Y2835420D01*
X4658207Y2835420D02*
X4610588Y2787800D01*
X4610588Y2787800D02*
X4515350Y2740181D01*
X4515350Y2740181D02*
X4372493Y2740181D01*
X5134398Y2740181D02*
X5134398Y3406848D01*
X5134398Y3216372D02*
X5182017Y3311610D01*
X5182017Y3311610D02*
X5229636Y3359229D01*
X5229636Y3359229D02*
X5324874Y3406848D01*
X5324874Y3406848D02*
X5420112Y3406848D01*
X6182017Y2740181D02*
X6182017Y3740181D01*
X6182017Y2787800D02*
X6086779Y2740181D01*
X6086779Y2740181D02*
X5896303Y2740181D01*
X5896303Y2740181D02*
X5801065Y2787800D01*
X5801065Y2787800D02*
X5753446Y2835420D01*
X5753446Y2835420D02*
X5705827Y2930658D01*
X5705827Y2930658D02*
X5705827Y3216372D01*
X5705827Y3216372D02*
X5753446Y3311610D01*
X5753446Y3311610D02*
X5801065Y3359229D01*
X5801065Y3359229D02*
X5896303Y3406848D01*
X5896303Y3406848D02*
X6086779Y3406848D01*
X6086779Y3406848D02*
X6182017Y3359229D01*
X6562970Y3740181D02*
X6801065Y2740181D01*
X6801065Y2740181D02*
X6991541Y3454467D01*
X6991541Y3454467D02*
X7182017Y2740181D01*
X7182017Y2740181D02*
X7420113Y3740181D01*
X8229636Y2740181D02*
X8229636Y3263991D01*
X8229636Y3263991D02*
X8182017Y3359229D01*
X8182017Y3359229D02*
X8086779Y3406848D01*
X8086779Y3406848D02*
X7896303Y3406848D01*
X7896303Y3406848D02*
X7801065Y3359229D01*
X8229636Y2787800D02*
X8134398Y2740181D01*
X8134398Y2740181D02*
X7896303Y2740181D01*
X7896303Y2740181D02*
X7801065Y2787800D01*
X7801065Y2787800D02*
X7753446Y2883039D01*
X7753446Y2883039D02*
X7753446Y2978277D01*
X7753446Y2978277D02*
X7801065Y3073515D01*
X7801065Y3073515D02*
X7896303Y3121134D01*
X7896303Y3121134D02*
X8134398Y3121134D01*
X8134398Y3121134D02*
X8229636Y3168753D01*
X8562970Y3406848D02*
X8943922Y3406848D01*
X8705827Y3740181D02*
X8705827Y2883039D01*
X8705827Y2883039D02*
X8753446Y2787800D01*
X8753446Y2787800D02*
X8848684Y2740181D01*
X8848684Y2740181D02*
X8943922Y2740181D01*
X9705827Y2787800D02*
X9610589Y2740181D01*
X9610589Y2740181D02*
X9420113Y2740181D01*
X9420113Y2740181D02*
X9324875Y2787800D01*
X9324875Y2787800D02*
X9277256Y2835420D01*
X9277256Y2835420D02*
X9229637Y2930658D01*
X9229637Y2930658D02*
X9229637Y3216372D01*
X9229637Y3216372D02*
X9277256Y3311610D01*
X9277256Y3311610D02*
X9324875Y3359229D01*
X9324875Y3359229D02*
X9420113Y3406848D01*
X9420113Y3406848D02*
X9610589Y3406848D01*
X9610589Y3406848D02*
X9705827Y3359229D01*
X10134399Y2740181D02*
X10134399Y3740181D01*
X10562970Y2740181D02*
X10562970Y3263991D01*
X10562970Y3263991D02*
X10515351Y3359229D01*
X10515351Y3359229D02*
X10420113Y3406848D01*
X10420113Y3406848D02*
X10277256Y3406848D01*
X10277256Y3406848D02*
X10182018Y3359229D01*
X10182018Y3359229D02*
X10134399Y3311610D01*
X3086779Y1130181D02*
X3086779Y2130181D01*
X3086779Y2130181D02*
X3467731Y2130181D01*
X3467731Y2130181D02*
X3562969Y2082562D01*
X3562969Y2082562D02*
X3610588Y2034943D01*
X3610588Y2034943D02*
X3658207Y1939705D01*
X3658207Y1939705D02*
X3658207Y1796848D01*
X3658207Y1796848D02*
X3610588Y1701610D01*
X3610588Y1701610D02*
X3562969Y1653991D01*
X3562969Y1653991D02*
X3467731Y1606372D01*
X3467731Y1606372D02*
X3086779Y1606372D01*
X4086779Y1130181D02*
X4086779Y1796848D01*
X4086779Y1606372D02*
X4134398Y1701610D01*
X4134398Y1701610D02*
X4182017Y1749229D01*
X4182017Y1749229D02*
X4277255Y1796848D01*
X4277255Y1796848D02*
X4372493Y1796848D01*
X4848684Y1130181D02*
X4753446Y1177800D01*
X4753446Y1177800D02*
X4705827Y1225420D01*
X4705827Y1225420D02*
X4658208Y1320658D01*
X4658208Y1320658D02*
X4658208Y1606372D01*
X4658208Y1606372D02*
X4705827Y1701610D01*
X4705827Y1701610D02*
X4753446Y1749229D01*
X4753446Y1749229D02*
X4848684Y1796848D01*
X4848684Y1796848D02*
X4991541Y1796848D01*
X4991541Y1796848D02*
X5086779Y1749229D01*
X5086779Y1749229D02*
X5134398Y1701610D01*
X5134398Y1701610D02*
X5182017Y1606372D01*
X5182017Y1606372D02*
X5182017Y1320658D01*
X5182017Y1320658D02*
X5134398Y1225420D01*
X5134398Y1225420D02*
X5086779Y1177800D01*
X5086779Y1177800D02*
X4991541Y1130181D01*
X4991541Y1130181D02*
X4848684Y1130181D01*
X6039160Y1796848D02*
X6039160Y987324D01*
X6039160Y987324D02*
X5991541Y892086D01*
X5991541Y892086D02*
X5943922Y844467D01*
X5943922Y844467D02*
X5848684Y796848D01*
X5848684Y796848D02*
X5705827Y796848D01*
X5705827Y796848D02*
X5610589Y844467D01*
X6039160Y1177800D02*
X5943922Y1130181D01*
X5943922Y1130181D02*
X5753446Y1130181D01*
X5753446Y1130181D02*
X5658208Y1177800D01*
X5658208Y1177800D02*
X5610589Y1225420D01*
X5610589Y1225420D02*
X5562970Y1320658D01*
X5562970Y1320658D02*
X5562970Y1606372D01*
X5562970Y1606372D02*
X5610589Y1701610D01*
X5610589Y1701610D02*
X5658208Y1749229D01*
X5658208Y1749229D02*
X5753446Y1796848D01*
X5753446Y1796848D02*
X5943922Y1796848D01*
X5943922Y1796848D02*
X6039160Y1749229D01*
X6515351Y1130181D02*
X6515351Y1796848D01*
X6515351Y1606372D02*
X6562970Y1701610D01*
X6562970Y1701610D02*
X6610589Y1749229D01*
X6610589Y1749229D02*
X6705827Y1796848D01*
X6705827Y1796848D02*
X6801065Y1796848D01*
X7562970Y1130181D02*
X7562970Y1653991D01*
X7562970Y1653991D02*
X7515351Y1749229D01*
X7515351Y1749229D02*
X7420113Y1796848D01*
X7420113Y1796848D02*
X7229637Y1796848D01*
X7229637Y1796848D02*
X7134399Y1749229D01*
X7562970Y1177800D02*
X7467732Y1130181D01*
X7467732Y1130181D02*
X7229637Y1130181D01*
X7229637Y1130181D02*
X7134399Y1177800D01*
X7134399Y1177800D02*
X7086780Y1273039D01*
X7086780Y1273039D02*
X7086780Y1368277D01*
X7086780Y1368277D02*
X7134399Y1463515D01*
X7134399Y1463515D02*
X7229637Y1511134D01*
X7229637Y1511134D02*
X7467732Y1511134D01*
X7467732Y1511134D02*
X7562970Y1558753D01*
X8039161Y1130181D02*
X8039161Y1796848D01*
X8039161Y1701610D02*
X8086780Y1749229D01*
X8086780Y1749229D02*
X8182018Y1796848D01*
X8182018Y1796848D02*
X8324875Y1796848D01*
X8324875Y1796848D02*
X8420113Y1749229D01*
X8420113Y1749229D02*
X8467732Y1653991D01*
X8467732Y1653991D02*
X8467732Y1130181D01*
X8467732Y1653991D02*
X8515351Y1749229D01*
X8515351Y1749229D02*
X8610589Y1796848D01*
X8610589Y1796848D02*
X8753446Y1796848D01*
X8753446Y1796848D02*
X8848685Y1749229D01*
X8848685Y1749229D02*
X8896304Y1653991D01*
X8896304Y1653991D02*
X8896304Y1130181D01*
X9372494Y1130181D02*
X9372494Y1796848D01*
X9372494Y1701610D02*
X9420113Y1749229D01*
X9420113Y1749229D02*
X9515351Y1796848D01*
X9515351Y1796848D02*
X9658208Y1796848D01*
X9658208Y1796848D02*
X9753446Y1749229D01*
X9753446Y1749229D02*
X9801065Y1653991D01*
X9801065Y1653991D02*
X9801065Y1130181D01*
X9801065Y1653991D02*
X9848684Y1749229D01*
X9848684Y1749229D02*
X9943922Y1796848D01*
X9943922Y1796848D02*
X10086779Y1796848D01*
X10086779Y1796848D02*
X10182018Y1749229D01*
X10182018Y1749229D02*
X10229637Y1653991D01*
X10229637Y1653991D02*
X10229637Y1130181D01*
X10705827Y1130181D02*
X10705827Y1796848D01*
X10705827Y2130181D02*
X10658208Y2082562D01*
X10658208Y2082562D02*
X10705827Y2034943D01*
X10705827Y2034943D02*
X10753446Y2082562D01*
X10753446Y2082562D02*
X10705827Y2130181D01*
X10705827Y2130181D02*
X10705827Y2034943D01*
X11182017Y1796848D02*
X11182017Y1130181D01*
X11182017Y1701610D02*
X11229636Y1749229D01*
X11229636Y1749229D02*
X11324874Y1796848D01*
X11324874Y1796848D02*
X11467731Y1796848D01*
X11467731Y1796848D02*
X11562969Y1749229D01*
X11562969Y1749229D02*
X11610588Y1653991D01*
X11610588Y1653991D02*
X11610588Y1130181D01*
X12515350Y1796848D02*
X12515350Y987324D01*
X12515350Y987324D02*
X12467731Y892086D01*
X12467731Y892086D02*
X12420112Y844467D01*
X12420112Y844467D02*
X12324874Y796848D01*
X12324874Y796848D02*
X12182017Y796848D01*
X12182017Y796848D02*
X12086779Y844467D01*
X12515350Y1177800D02*
X12420112Y1130181D01*
X12420112Y1130181D02*
X12229636Y1130181D01*
X12229636Y1130181D02*
X12134398Y1177800D01*
X12134398Y1177800D02*
X12086779Y1225420D01*
X12086779Y1225420D02*
X12039160Y1320658D01*
X12039160Y1320658D02*
X12039160Y1606372D01*
X12039160Y1606372D02*
X12086779Y1701610D01*
X12086779Y1701610D02*
X12134398Y1749229D01*
X12134398Y1749229D02*
X12229636Y1796848D01*
X12229636Y1796848D02*
X12420112Y1796848D01*
X12420112Y1796848D02*
X12515350Y1749229D01*
X14086779Y1653991D02*
X14229636Y1606372D01*
X14229636Y1606372D02*
X14277255Y1558753D01*
X14277255Y1558753D02*
X14324874Y1463515D01*
X14324874Y1463515D02*
X14324874Y1320658D01*
X14324874Y1320658D02*
X14277255Y1225420D01*
X14277255Y1225420D02*
X14229636Y1177800D01*
X14229636Y1177800D02*
X14134398Y1130181D01*
X14134398Y1130181D02*
X13753446Y1130181D01*
X13753446Y1130181D02*
X13753446Y2130181D01*
X13753446Y2130181D02*
X14086779Y2130181D01*
X14086779Y2130181D02*
X14182017Y2082562D01*
X14182017Y2082562D02*
X14229636Y2034943D01*
X14229636Y2034943D02*
X14277255Y1939705D01*
X14277255Y1939705D02*
X14277255Y1844467D01*
X14277255Y1844467D02*
X14229636Y1749229D01*
X14229636Y1749229D02*
X14182017Y1701610D01*
X14182017Y1701610D02*
X14086779Y1653991D01*
X14086779Y1653991D02*
X13753446Y1653991D01*
X14896303Y1130181D02*
X14801065Y1177800D01*
X14801065Y1177800D02*
X14753446Y1225420D01*
X14753446Y1225420D02*
X14705827Y1320658D01*
X14705827Y1320658D02*
X14705827Y1606372D01*
X14705827Y1606372D02*
X14753446Y1701610D01*
X14753446Y1701610D02*
X14801065Y1749229D01*
X14801065Y1749229D02*
X14896303Y1796848D01*
X14896303Y1796848D02*
X15039160Y1796848D01*
X15039160Y1796848D02*
X15134398Y1749229D01*
X15134398Y1749229D02*
X15182017Y1701610D01*
X15182017Y1701610D02*
X15229636Y1606372D01*
X15229636Y1606372D02*
X15229636Y1320658D01*
X15229636Y1320658D02*
X15182017Y1225420D01*
X15182017Y1225420D02*
X15134398Y1177800D01*
X15134398Y1177800D02*
X15039160Y1130181D01*
X15039160Y1130181D02*
X14896303Y1130181D01*
X16086779Y1130181D02*
X16086779Y1653991D01*
X16086779Y1653991D02*
X16039160Y1749229D01*
X16039160Y1749229D02*
X15943922Y1796848D01*
X15943922Y1796848D02*
X15753446Y1796848D01*
X15753446Y1796848D02*
X15658208Y1749229D01*
X16086779Y1177800D02*
X15991541Y1130181D01*
X15991541Y1130181D02*
X15753446Y1130181D01*
X15753446Y1130181D02*
X15658208Y1177800D01*
X15658208Y1177800D02*
X15610589Y1273039D01*
X15610589Y1273039D02*
X15610589Y1368277D01*
X15610589Y1368277D02*
X15658208Y1463515D01*
X15658208Y1463515D02*
X15753446Y1511134D01*
X15753446Y1511134D02*
X15991541Y1511134D01*
X15991541Y1511134D02*
X16086779Y1558753D01*
X16562970Y1130181D02*
X16562970Y1796848D01*
X16562970Y1606372D02*
X16610589Y1701610D01*
X16610589Y1701610D02*
X16658208Y1749229D01*
X16658208Y1749229D02*
X16753446Y1796848D01*
X16753446Y1796848D02*
X16848684Y1796848D01*
X17610589Y1130181D02*
X17610589Y2130181D01*
X17610589Y1177800D02*
X17515351Y1130181D01*
X17515351Y1130181D02*
X17324875Y1130181D01*
X17324875Y1130181D02*
X17229637Y1177800D01*
X17229637Y1177800D02*
X17182018Y1225420D01*
X17182018Y1225420D02*
X17134399Y1320658D01*
X17134399Y1320658D02*
X17134399Y1606372D01*
X17134399Y1606372D02*
X17182018Y1701610D01*
X17182018Y1701610D02*
X17229637Y1749229D01*
X17229637Y1749229D02*
X17324875Y1796848D01*
X17324875Y1796848D02*
X17515351Y1796848D01*
X17515351Y1796848D02*
X17610589Y1749229D01*
X10443922Y39545181D02*
X11015350Y39545181D01*
X10729636Y38545181D02*
X10729636Y39545181D01*
X11253446Y39545181D02*
X11920112Y38545181D01*
X11920112Y39545181D02*
X11253446Y38545181D01*
X11110588Y24247562D02*
X11015350Y24295181D01*
X11015350Y24295181D02*
X10872493Y24295181D01*
X10872493Y24295181D02*
X10729636Y24247562D01*
X10729636Y24247562D02*
X10634398Y24152324D01*
X10634398Y24152324D02*
X10586779Y24057086D01*
X10586779Y24057086D02*
X10539160Y23866610D01*
X10539160Y23866610D02*
X10539160Y23723753D01*
X10539160Y23723753D02*
X10586779Y23533277D01*
X10586779Y23533277D02*
X10634398Y23438039D01*
X10634398Y23438039D02*
X10729636Y23342800D01*
X10729636Y23342800D02*
X10872493Y23295181D01*
X10872493Y23295181D02*
X10967731Y23295181D01*
X10967731Y23295181D02*
X11110588Y23342800D01*
X11110588Y23342800D02*
X11158207Y23390420D01*
X11158207Y23390420D02*
X11158207Y23723753D01*
X11158207Y23723753D02*
X10967731Y23723753D01*
X11586779Y23295181D02*
X11586779Y24295181D01*
X11586779Y24295181D02*
X12158207Y23295181D01*
X12158207Y23295181D02*
X12158207Y24295181D01*
X12634398Y23295181D02*
X12634398Y24295181D01*
X12634398Y24295181D02*
X12872493Y24295181D01*
X12872493Y24295181D02*
X13015350Y24247562D01*
X13015350Y24247562D02*
X13110588Y24152324D01*
X13110588Y24152324D02*
X13158207Y24057086D01*
X13158207Y24057086D02*
X13205826Y23866610D01*
X13205826Y23866610D02*
X13205826Y23723753D01*
X13205826Y23723753D02*
X13158207Y23533277D01*
X13158207Y23533277D02*
X13110588Y23438039D01*
X13110588Y23438039D02*
X13015350Y23342800D01*
X13015350Y23342800D02*
X12872493Y23295181D01*
X12872493Y23295181D02*
X12634398Y23295181D01*
X21687030Y8568991D02*
X22020363Y8568991D01*
X22163220Y8045181D02*
X21687030Y8045181D01*
X21687030Y8045181D02*
X21687030Y9045181D01*
X21687030Y9045181D02*
X22163220Y9045181D01*
X22591792Y8045181D02*
X22591792Y9045181D01*
X22591792Y9045181D02*
X23163220Y8045181D01*
X23163220Y8045181D02*
X23163220Y9045181D01*
X11062969Y33295181D02*
X10586779Y33295181D01*
X10586779Y33295181D02*
X10586779Y34295181D01*
X11396303Y33818991D02*
X11729636Y33818991D01*
X11872493Y33295181D02*
X11396303Y33295181D01*
X11396303Y33295181D02*
X11396303Y34295181D01*
X11396303Y34295181D02*
X11872493Y34295181D01*
X12301065Y33295181D02*
X12301065Y34295181D01*
X12301065Y34295181D02*
X12539160Y34295181D01*
X12539160Y34295181D02*
X12682017Y34247562D01*
X12682017Y34247562D02*
X12777255Y34152324D01*
X12777255Y34152324D02*
X12824874Y34057086D01*
X12824874Y34057086D02*
X12872493Y33866610D01*
X12872493Y33866610D02*
X12872493Y33723753D01*
X12872493Y33723753D02*
X12824874Y33533277D01*
X12824874Y33533277D02*
X12777255Y33438039D01*
X12777255Y33438039D02*
X12682017Y33342800D01*
X12682017Y33342800D02*
X12539160Y33295181D01*
X12539160Y33295181D02*
X12301065Y33295181D01*
X13205827Y34295181D02*
X13824874Y34295181D01*
X13824874Y34295181D02*
X13491541Y33914229D01*
X13491541Y33914229D02*
X13634398Y33914229D01*
X13634398Y33914229D02*
X13729636Y33866610D01*
X13729636Y33866610D02*
X13777255Y33818991D01*
X13777255Y33818991D02*
X13824874Y33723753D01*
X13824874Y33723753D02*
X13824874Y33485658D01*
X13824874Y33485658D02*
X13777255Y33390420D01*
X13777255Y33390420D02*
X13729636Y33342800D01*
X13729636Y33342800D02*
X13634398Y33295181D01*
X13634398Y33295181D02*
X13348684Y33295181D01*
X13348684Y33295181D02*
X13253446Y33342800D01*
X13253446Y33342800D02*
X13205827Y33390420D01*
X20556078Y44545181D02*
X21175125Y44545181D01*
X21175125Y44545181D02*
X20841792Y44164229D01*
X20841792Y44164229D02*
X20984649Y44164229D01*
X20984649Y44164229D02*
X21079887Y44116610D01*
X21079887Y44116610D02*
X21127506Y44068991D01*
X21127506Y44068991D02*
X21175125Y43973753D01*
X21175125Y43973753D02*
X21175125Y43735658D01*
X21175125Y43735658D02*
X21127506Y43640420D01*
X21127506Y43640420D02*
X21079887Y43592800D01*
X21079887Y43592800D02*
X20984649Y43545181D01*
X20984649Y43545181D02*
X20698935Y43545181D01*
X20698935Y43545181D02*
X20603697Y43592800D01*
X20603697Y43592800D02*
X20556078Y43640420D01*
X21603697Y43640420D02*
X21651316Y43592800D01*
X21651316Y43592800D02*
X21603697Y43545181D01*
X21603697Y43545181D02*
X21556078Y43592800D01*
X21556078Y43592800D02*
X21603697Y43640420D01*
X21603697Y43640420D02*
X21603697Y43545181D01*
X21984649Y44545181D02*
X22603696Y44545181D01*
X22603696Y44545181D02*
X22270363Y44164229D01*
X22270363Y44164229D02*
X22413220Y44164229D01*
X22413220Y44164229D02*
X22508458Y44116610D01*
X22508458Y44116610D02*
X22556077Y44068991D01*
X22556077Y44068991D02*
X22603696Y43973753D01*
X22603696Y43973753D02*
X22603696Y43735658D01*
X22603696Y43735658D02*
X22556077Y43640420D01*
X22556077Y43640420D02*
X22508458Y43592800D01*
X22508458Y43592800D02*
X22413220Y43545181D01*
X22413220Y43545181D02*
X22127506Y43545181D01*
X22127506Y43545181D02*
X22032268Y43592800D01*
X22032268Y43592800D02*
X21984649Y43640420D01*
X22889411Y44545181D02*
X23222744Y43545181D01*
X23222744Y43545181D02*
X23556077Y44545181D01*
X18127506Y39545181D02*
X18460839Y38545181D01*
X18460839Y38545181D02*
X18794172Y39545181D01*
X19079887Y38592800D02*
X19222744Y38545181D01*
X19222744Y38545181D02*
X19460839Y38545181D01*
X19460839Y38545181D02*
X19556077Y38592800D01*
X19556077Y38592800D02*
X19603696Y38640420D01*
X19603696Y38640420D02*
X19651315Y38735658D01*
X19651315Y38735658D02*
X19651315Y38830896D01*
X19651315Y38830896D02*
X19603696Y38926134D01*
X19603696Y38926134D02*
X19556077Y38973753D01*
X19556077Y38973753D02*
X19460839Y39021372D01*
X19460839Y39021372D02*
X19270363Y39068991D01*
X19270363Y39068991D02*
X19175125Y39116610D01*
X19175125Y39116610D02*
X19127506Y39164229D01*
X19127506Y39164229D02*
X19079887Y39259467D01*
X19079887Y39259467D02*
X19079887Y39354705D01*
X19079887Y39354705D02*
X19127506Y39449943D01*
X19127506Y39449943D02*
X19175125Y39497562D01*
X19175125Y39497562D02*
X19270363Y39545181D01*
X19270363Y39545181D02*
X19508458Y39545181D01*
X19508458Y39545181D02*
X19651315Y39497562D01*
X20079887Y39068991D02*
X20413220Y39068991D01*
X20556077Y38545181D02*
X20079887Y38545181D01*
X20079887Y38545181D02*
X20079887Y39545181D01*
X20079887Y39545181D02*
X20556077Y39545181D01*
X20984649Y38545181D02*
X20984649Y39545181D01*
X20984649Y39545181D02*
X21556077Y38545181D01*
X21556077Y38545181D02*
X21556077Y39545181D01*
X21984649Y38592800D02*
X22127506Y38545181D01*
X22127506Y38545181D02*
X22365601Y38545181D01*
X22365601Y38545181D02*
X22460839Y38592800D01*
X22460839Y38592800D02*
X22508458Y38640420D01*
X22508458Y38640420D02*
X22556077Y38735658D01*
X22556077Y38735658D02*
X22556077Y38830896D01*
X22556077Y38830896D02*
X22508458Y38926134D01*
X22508458Y38926134D02*
X22460839Y38973753D01*
X22460839Y38973753D02*
X22365601Y39021372D01*
X22365601Y39021372D02*
X22175125Y39068991D01*
X22175125Y39068991D02*
X22079887Y39116610D01*
X22079887Y39116610D02*
X22032268Y39164229D01*
X22032268Y39164229D02*
X21984649Y39259467D01*
X21984649Y39259467D02*
X21984649Y39354705D01*
X21984649Y39354705D02*
X22032268Y39449943D01*
X22032268Y39449943D02*
X22079887Y39497562D01*
X22079887Y39497562D02*
X22175125Y39545181D01*
X22175125Y39545181D02*
X22413220Y39545181D01*
X22413220Y39545181D02*
X22556077Y39497562D01*
X22984649Y39068991D02*
X23317982Y39068991D01*
X23460839Y38545181D02*
X22984649Y38545181D01*
X22984649Y38545181D02*
X22984649Y39545181D01*
X22984649Y39545181D02*
X23460839Y39545181D01*
X11110588Y36997562D02*
X11015350Y37045181D01*
X11015350Y37045181D02*
X10872493Y37045181D01*
X10872493Y37045181D02*
X10729636Y36997562D01*
X10729636Y36997562D02*
X10634398Y36902324D01*
X10634398Y36902324D02*
X10586779Y36807086D01*
X10586779Y36807086D02*
X10539160Y36616610D01*
X10539160Y36616610D02*
X10539160Y36473753D01*
X10539160Y36473753D02*
X10586779Y36283277D01*
X10586779Y36283277D02*
X10634398Y36188039D01*
X10634398Y36188039D02*
X10729636Y36092800D01*
X10729636Y36092800D02*
X10872493Y36045181D01*
X10872493Y36045181D02*
X10967731Y36045181D01*
X10967731Y36045181D02*
X11110588Y36092800D01*
X11110588Y36092800D02*
X11158207Y36140420D01*
X11158207Y36140420D02*
X11158207Y36473753D01*
X11158207Y36473753D02*
X10967731Y36473753D01*
X11586779Y36045181D02*
X11586779Y37045181D01*
X11586779Y37045181D02*
X12158207Y36045181D01*
X12158207Y36045181D02*
X12158207Y37045181D01*
X12634398Y36045181D02*
X12634398Y37045181D01*
X12634398Y37045181D02*
X12872493Y37045181D01*
X12872493Y37045181D02*
X13015350Y36997562D01*
X13015350Y36997562D02*
X13110588Y36902324D01*
X13110588Y36902324D02*
X13158207Y36807086D01*
X13158207Y36807086D02*
X13205826Y36616610D01*
X13205826Y36616610D02*
X13205826Y36473753D01*
X13205826Y36473753D02*
X13158207Y36283277D01*
X13158207Y36283277D02*
X13110588Y36188039D01*
X13110588Y36188039D02*
X13015350Y36092800D01*
X13015350Y36092800D02*
X12872493Y36045181D01*
X12872493Y36045181D02*
X12634398Y36045181D01*
X18306077Y6068991D02*
X18448934Y6021372D01*
X18448934Y6021372D02*
X18496553Y5973753D01*
X18496553Y5973753D02*
X18544172Y5878515D01*
X18544172Y5878515D02*
X18544172Y5735658D01*
X18544172Y5735658D02*
X18496553Y5640420D01*
X18496553Y5640420D02*
X18448934Y5592800D01*
X18448934Y5592800D02*
X18353696Y5545181D01*
X18353696Y5545181D02*
X17972744Y5545181D01*
X17972744Y5545181D02*
X17972744Y6545181D01*
X17972744Y6545181D02*
X18306077Y6545181D01*
X18306077Y6545181D02*
X18401315Y6497562D01*
X18401315Y6497562D02*
X18448934Y6449943D01*
X18448934Y6449943D02*
X18496553Y6354705D01*
X18496553Y6354705D02*
X18496553Y6259467D01*
X18496553Y6259467D02*
X18448934Y6164229D01*
X18448934Y6164229D02*
X18401315Y6116610D01*
X18401315Y6116610D02*
X18306077Y6068991D01*
X18306077Y6068991D02*
X17972744Y6068991D01*
X18972744Y6545181D02*
X18972744Y5735658D01*
X18972744Y5735658D02*
X19020363Y5640420D01*
X19020363Y5640420D02*
X19067982Y5592800D01*
X19067982Y5592800D02*
X19163220Y5545181D01*
X19163220Y5545181D02*
X19353696Y5545181D01*
X19353696Y5545181D02*
X19448934Y5592800D01*
X19448934Y5592800D02*
X19496553Y5640420D01*
X19496553Y5640420D02*
X19544172Y5735658D01*
X19544172Y5735658D02*
X19544172Y6545181D01*
X19877506Y6545181D02*
X20448934Y6545181D01*
X20163220Y5545181D02*
X20163220Y6545181D01*
X20639411Y6545181D02*
X21210839Y6545181D01*
X20925125Y5545181D02*
X20925125Y6545181D01*
X21734649Y6545181D02*
X21925125Y6545181D01*
X21925125Y6545181D02*
X22020363Y6497562D01*
X22020363Y6497562D02*
X22115601Y6402324D01*
X22115601Y6402324D02*
X22163220Y6211848D01*
X22163220Y6211848D02*
X22163220Y5878515D01*
X22163220Y5878515D02*
X22115601Y5688039D01*
X22115601Y5688039D02*
X22020363Y5592800D01*
X22020363Y5592800D02*
X21925125Y5545181D01*
X21925125Y5545181D02*
X21734649Y5545181D01*
X21734649Y5545181D02*
X21639411Y5592800D01*
X21639411Y5592800D02*
X21544173Y5688039D01*
X21544173Y5688039D02*
X21496554Y5878515D01*
X21496554Y5878515D02*
X21496554Y6211848D01*
X21496554Y6211848D02*
X21544173Y6402324D01*
X21544173Y6402324D02*
X21639411Y6497562D01*
X21639411Y6497562D02*
X21734649Y6545181D01*
X22591792Y5545181D02*
X22591792Y6545181D01*
X22591792Y6545181D02*
X23163220Y5545181D01*
X23163220Y5545181D02*
X23163220Y6545181D01*
X11110588Y49497562D02*
X11015350Y49545181D01*
X11015350Y49545181D02*
X10872493Y49545181D01*
X10872493Y49545181D02*
X10729636Y49497562D01*
X10729636Y49497562D02*
X10634398Y49402324D01*
X10634398Y49402324D02*
X10586779Y49307086D01*
X10586779Y49307086D02*
X10539160Y49116610D01*
X10539160Y49116610D02*
X10539160Y48973753D01*
X10539160Y48973753D02*
X10586779Y48783277D01*
X10586779Y48783277D02*
X10634398Y48688039D01*
X10634398Y48688039D02*
X10729636Y48592800D01*
X10729636Y48592800D02*
X10872493Y48545181D01*
X10872493Y48545181D02*
X10967731Y48545181D01*
X10967731Y48545181D02*
X11110588Y48592800D01*
X11110588Y48592800D02*
X11158207Y48640420D01*
X11158207Y48640420D02*
X11158207Y48973753D01*
X11158207Y48973753D02*
X10967731Y48973753D01*
X11586779Y48545181D02*
X11586779Y49545181D01*
X11586779Y49545181D02*
X12158207Y48545181D01*
X12158207Y48545181D02*
X12158207Y49545181D01*
X12634398Y48545181D02*
X12634398Y49545181D01*
X12634398Y49545181D02*
X12872493Y49545181D01*
X12872493Y49545181D02*
X13015350Y49497562D01*
X13015350Y49497562D02*
X13110588Y49402324D01*
X13110588Y49402324D02*
X13158207Y49307086D01*
X13158207Y49307086D02*
X13205826Y49116610D01*
X13205826Y49116610D02*
X13205826Y48973753D01*
X13205826Y48973753D02*
X13158207Y48783277D01*
X13158207Y48783277D02*
X13110588Y48688039D01*
X13110588Y48688039D02*
X13015350Y48592800D01*
X13015350Y48592800D02*
X12872493Y48545181D01*
X12872493Y48545181D02*
X12634398Y48545181D01*
X11062969Y28295181D02*
X10586779Y28295181D01*
X10586779Y28295181D02*
X10586779Y29295181D01*
X11396303Y28818991D02*
X11729636Y28818991D01*
X11872493Y28295181D02*
X11396303Y28295181D01*
X11396303Y28295181D02*
X11396303Y29295181D01*
X11396303Y29295181D02*
X11872493Y29295181D01*
X12301065Y28295181D02*
X12301065Y29295181D01*
X12301065Y29295181D02*
X12539160Y29295181D01*
X12539160Y29295181D02*
X12682017Y29247562D01*
X12682017Y29247562D02*
X12777255Y29152324D01*
X12777255Y29152324D02*
X12824874Y29057086D01*
X12824874Y29057086D02*
X12872493Y28866610D01*
X12872493Y28866610D02*
X12872493Y28723753D01*
X12872493Y28723753D02*
X12824874Y28533277D01*
X12824874Y28533277D02*
X12777255Y28438039D01*
X12777255Y28438039D02*
X12682017Y28342800D01*
X12682017Y28342800D02*
X12539160Y28295181D01*
X12539160Y28295181D02*
X12301065Y28295181D01*
X13824874Y28295181D02*
X13253446Y28295181D01*
X13539160Y28295181D02*
X13539160Y29295181D01*
X13539160Y29295181D02*
X13443922Y29152324D01*
X13443922Y29152324D02*
X13348684Y29057086D01*
X13348684Y29057086D02*
X13253446Y29009467D01*
X11158207Y5545181D02*
X10824874Y6021372D01*
X10586779Y5545181D02*
X10586779Y6545181D01*
X10586779Y6545181D02*
X10967731Y6545181D01*
X10967731Y6545181D02*
X11062969Y6497562D01*
X11062969Y6497562D02*
X11110588Y6449943D01*
X11110588Y6449943D02*
X11158207Y6354705D01*
X11158207Y6354705D02*
X11158207Y6211848D01*
X11158207Y6211848D02*
X11110588Y6116610D01*
X11110588Y6116610D02*
X11062969Y6068991D01*
X11062969Y6068991D02*
X10967731Y6021372D01*
X10967731Y6021372D02*
X10586779Y6021372D01*
X11586779Y6068991D02*
X11920112Y6068991D01*
X12062969Y5545181D02*
X11586779Y5545181D01*
X11586779Y5545181D02*
X11586779Y6545181D01*
X11586779Y6545181D02*
X12062969Y6545181D01*
X12443922Y5592800D02*
X12586779Y5545181D01*
X12586779Y5545181D02*
X12824874Y5545181D01*
X12824874Y5545181D02*
X12920112Y5592800D01*
X12920112Y5592800D02*
X12967731Y5640420D01*
X12967731Y5640420D02*
X13015350Y5735658D01*
X13015350Y5735658D02*
X13015350Y5830896D01*
X13015350Y5830896D02*
X12967731Y5926134D01*
X12967731Y5926134D02*
X12920112Y5973753D01*
X12920112Y5973753D02*
X12824874Y6021372D01*
X12824874Y6021372D02*
X12634398Y6068991D01*
X12634398Y6068991D02*
X12539160Y6116610D01*
X12539160Y6116610D02*
X12491541Y6164229D01*
X12491541Y6164229D02*
X12443922Y6259467D01*
X12443922Y6259467D02*
X12443922Y6354705D01*
X12443922Y6354705D02*
X12491541Y6449943D01*
X12491541Y6449943D02*
X12539160Y6497562D01*
X12539160Y6497562D02*
X12634398Y6545181D01*
X12634398Y6545181D02*
X12872493Y6545181D01*
X12872493Y6545181D02*
X13015350Y6497562D01*
X13443922Y6068991D02*
X13777255Y6068991D01*
X13920112Y5545181D02*
X13443922Y5545181D01*
X13443922Y5545181D02*
X13443922Y6545181D01*
X13443922Y6545181D02*
X13920112Y6545181D01*
X14205827Y6545181D02*
X14777255Y6545181D01*
X14491541Y5545181D02*
X14491541Y6545181D01*
X10586779Y13045181D02*
X10586779Y14045181D01*
X11062969Y13045181D02*
X11062969Y14045181D01*
X11062969Y14045181D02*
X11634397Y13045181D01*
X11634397Y13045181D02*
X11634397Y14045181D01*
X11967731Y14045181D02*
X12539159Y14045181D01*
X12253445Y13045181D02*
X12253445Y14045181D01*
X13396302Y13045181D02*
X12824874Y13045181D01*
X13110588Y13045181D02*
X13110588Y14045181D01*
X13110588Y14045181D02*
X13015350Y13902324D01*
X13015350Y13902324D02*
X12920112Y13807086D01*
X12920112Y13807086D02*
X12824874Y13759467D01*
X11110588Y11497562D02*
X11015350Y11545181D01*
X11015350Y11545181D02*
X10872493Y11545181D01*
X10872493Y11545181D02*
X10729636Y11497562D01*
X10729636Y11497562D02*
X10634398Y11402324D01*
X10634398Y11402324D02*
X10586779Y11307086D01*
X10586779Y11307086D02*
X10539160Y11116610D01*
X10539160Y11116610D02*
X10539160Y10973753D01*
X10539160Y10973753D02*
X10586779Y10783277D01*
X10586779Y10783277D02*
X10634398Y10688039D01*
X10634398Y10688039D02*
X10729636Y10592800D01*
X10729636Y10592800D02*
X10872493Y10545181D01*
X10872493Y10545181D02*
X10967731Y10545181D01*
X10967731Y10545181D02*
X11110588Y10592800D01*
X11110588Y10592800D02*
X11158207Y10640420D01*
X11158207Y10640420D02*
X11158207Y10973753D01*
X11158207Y10973753D02*
X10967731Y10973753D01*
X11586779Y10545181D02*
X11586779Y11545181D01*
X11586779Y11545181D02*
X12158207Y10545181D01*
X12158207Y10545181D02*
X12158207Y11545181D01*
X12634398Y10545181D02*
X12634398Y11545181D01*
X12634398Y11545181D02*
X12872493Y11545181D01*
X12872493Y11545181D02*
X13015350Y11497562D01*
X13015350Y11497562D02*
X13110588Y11402324D01*
X13110588Y11402324D02*
X13158207Y11307086D01*
X13158207Y11307086D02*
X13205826Y11116610D01*
X13205826Y11116610D02*
X13205826Y10973753D01*
X13205826Y10973753D02*
X13158207Y10783277D01*
X13158207Y10783277D02*
X13110588Y10688039D01*
X13110588Y10688039D02*
X13015350Y10592800D01*
X13015350Y10592800D02*
X12872493Y10545181D01*
X12872493Y10545181D02*
X12634398Y10545181D01*
X10586779Y15795181D02*
X10586779Y16795181D01*
X11062969Y15795181D02*
X11062969Y16795181D01*
X11062969Y16795181D02*
X11634397Y15795181D01*
X11634397Y15795181D02*
X11634397Y16795181D01*
X11967731Y16795181D02*
X12539159Y16795181D01*
X12253445Y15795181D02*
X12253445Y16795181D01*
X12824874Y16699943D02*
X12872493Y16747562D01*
X12872493Y16747562D02*
X12967731Y16795181D01*
X12967731Y16795181D02*
X13205826Y16795181D01*
X13205826Y16795181D02*
X13301064Y16747562D01*
X13301064Y16747562D02*
X13348683Y16699943D01*
X13348683Y16699943D02*
X13396302Y16604705D01*
X13396302Y16604705D02*
X13396302Y16509467D01*
X13396302Y16509467D02*
X13348683Y16366610D01*
X13348683Y16366610D02*
X12777255Y15795181D01*
X12777255Y15795181D02*
X13396302Y15795181D01*
X28765350Y54461848D02*
X28765350Y53795181D01*
X28527255Y54842800D02*
X28289160Y54128515D01*
X28289160Y54128515D02*
X28908207Y54128515D01*
X29479636Y54795181D02*
X29574874Y54795181D01*
X29574874Y54795181D02*
X29670112Y54747562D01*
X29670112Y54747562D02*
X29717731Y54699943D01*
X29717731Y54699943D02*
X29765350Y54604705D01*
X29765350Y54604705D02*
X29812969Y54414229D01*
X29812969Y54414229D02*
X29812969Y54176134D01*
X29812969Y54176134D02*
X29765350Y53985658D01*
X29765350Y53985658D02*
X29717731Y53890420D01*
X29717731Y53890420D02*
X29670112Y53842800D01*
X29670112Y53842800D02*
X29574874Y53795181D01*
X29574874Y53795181D02*
X29479636Y53795181D01*
X29479636Y53795181D02*
X29384398Y53842800D01*
X29384398Y53842800D02*
X29336779Y53890420D01*
X29336779Y53890420D02*
X29289160Y53985658D01*
X29289160Y53985658D02*
X29241541Y54176134D01*
X29241541Y54176134D02*
X29241541Y54414229D01*
X29241541Y54414229D02*
X29289160Y54604705D01*
X29289160Y54604705D02*
X29336779Y54699943D01*
X29336779Y54699943D02*
X29384398Y54747562D01*
X29384398Y54747562D02*
X29479636Y54795181D01*
X5710839Y53795181D02*
X5139411Y53795181D01*
X5425125Y53795181D02*
X5425125Y54795181D01*
X5425125Y54795181D02*
X5329887Y54652324D01*
X5329887Y54652324D02*
X5234649Y54557086D01*
X5234649Y54557086D02*
X5139411Y54509467D01*
X21115601Y36997562D02*
X21020363Y37045181D01*
X21020363Y37045181D02*
X20877506Y37045181D01*
X20877506Y37045181D02*
X20734649Y36997562D01*
X20734649Y36997562D02*
X20639411Y36902324D01*
X20639411Y36902324D02*
X20591792Y36807086D01*
X20591792Y36807086D02*
X20544173Y36616610D01*
X20544173Y36616610D02*
X20544173Y36473753D01*
X20544173Y36473753D02*
X20591792Y36283277D01*
X20591792Y36283277D02*
X20639411Y36188039D01*
X20639411Y36188039D02*
X20734649Y36092800D01*
X20734649Y36092800D02*
X20877506Y36045181D01*
X20877506Y36045181D02*
X20972744Y36045181D01*
X20972744Y36045181D02*
X21115601Y36092800D01*
X21115601Y36092800D02*
X21163220Y36140420D01*
X21163220Y36140420D02*
X21163220Y36473753D01*
X21163220Y36473753D02*
X20972744Y36473753D01*
X21591792Y36045181D02*
X21591792Y37045181D01*
X21591792Y37045181D02*
X22163220Y36045181D01*
X22163220Y36045181D02*
X22163220Y37045181D01*
X22639411Y36045181D02*
X22639411Y37045181D01*
X22639411Y37045181D02*
X22877506Y37045181D01*
X22877506Y37045181D02*
X23020363Y36997562D01*
X23020363Y36997562D02*
X23115601Y36902324D01*
X23115601Y36902324D02*
X23163220Y36807086D01*
X23163220Y36807086D02*
X23210839Y36616610D01*
X23210839Y36616610D02*
X23210839Y36473753D01*
X23210839Y36473753D02*
X23163220Y36283277D01*
X23163220Y36283277D02*
X23115601Y36188039D01*
X23115601Y36188039D02*
X23020363Y36092800D01*
X23020363Y36092800D02*
X22877506Y36045181D01*
X22877506Y36045181D02*
X22639411Y36045181D01*
X10539160Y43842800D02*
X10682017Y43795181D01*
X10682017Y43795181D02*
X10920112Y43795181D01*
X10920112Y43795181D02*
X11015350Y43842800D01*
X11015350Y43842800D02*
X11062969Y43890420D01*
X11062969Y43890420D02*
X11110588Y43985658D01*
X11110588Y43985658D02*
X11110588Y44080896D01*
X11110588Y44080896D02*
X11062969Y44176134D01*
X11062969Y44176134D02*
X11015350Y44223753D01*
X11015350Y44223753D02*
X10920112Y44271372D01*
X10920112Y44271372D02*
X10729636Y44318991D01*
X10729636Y44318991D02*
X10634398Y44366610D01*
X10634398Y44366610D02*
X10586779Y44414229D01*
X10586779Y44414229D02*
X10539160Y44509467D01*
X10539160Y44509467D02*
X10539160Y44604705D01*
X10539160Y44604705D02*
X10586779Y44699943D01*
X10586779Y44699943D02*
X10634398Y44747562D01*
X10634398Y44747562D02*
X10729636Y44795181D01*
X10729636Y44795181D02*
X10967731Y44795181D01*
X10967731Y44795181D02*
X11110588Y44747562D01*
X11443922Y44795181D02*
X11682017Y43795181D01*
X11682017Y43795181D02*
X11872493Y44509467D01*
X11872493Y44509467D02*
X12062969Y43795181D01*
X12062969Y43795181D02*
X12301065Y44795181D01*
X12682017Y43795181D02*
X12682017Y44795181D01*
X12682017Y44795181D02*
X12920112Y44795181D01*
X12920112Y44795181D02*
X13062969Y44747562D01*
X13062969Y44747562D02*
X13158207Y44652324D01*
X13158207Y44652324D02*
X13205826Y44557086D01*
X13205826Y44557086D02*
X13253445Y44366610D01*
X13253445Y44366610D02*
X13253445Y44223753D01*
X13253445Y44223753D02*
X13205826Y44033277D01*
X13205826Y44033277D02*
X13158207Y43938039D01*
X13158207Y43938039D02*
X13062969Y43842800D01*
X13062969Y43842800D02*
X12920112Y43795181D01*
X12920112Y43795181D02*
X12682017Y43795181D01*
X13682017Y43795181D02*
X13682017Y44795181D01*
X14348683Y44795181D02*
X14539159Y44795181D01*
X14539159Y44795181D02*
X14634397Y44747562D01*
X14634397Y44747562D02*
X14729635Y44652324D01*
X14729635Y44652324D02*
X14777254Y44461848D01*
X14777254Y44461848D02*
X14777254Y44128515D01*
X14777254Y44128515D02*
X14729635Y43938039D01*
X14729635Y43938039D02*
X14634397Y43842800D01*
X14634397Y43842800D02*
X14539159Y43795181D01*
X14539159Y43795181D02*
X14348683Y43795181D01*
X14348683Y43795181D02*
X14253445Y43842800D01*
X14253445Y43842800D02*
X14158207Y43938039D01*
X14158207Y43938039D02*
X14110588Y44128515D01*
X14110588Y44128515D02*
X14110588Y44461848D01*
X14110588Y44461848D02*
X14158207Y44652324D01*
X14158207Y44652324D02*
X14253445Y44747562D01*
X14253445Y44747562D02*
X14348683Y44795181D01*
X11062969Y25795181D02*
X10586779Y25795181D01*
X10586779Y25795181D02*
X10586779Y26795181D01*
X11396303Y26318991D02*
X11729636Y26318991D01*
X11872493Y25795181D02*
X11396303Y25795181D01*
X11396303Y25795181D02*
X11396303Y26795181D01*
X11396303Y26795181D02*
X11872493Y26795181D01*
X12301065Y25795181D02*
X12301065Y26795181D01*
X12301065Y26795181D02*
X12539160Y26795181D01*
X12539160Y26795181D02*
X12682017Y26747562D01*
X12682017Y26747562D02*
X12777255Y26652324D01*
X12777255Y26652324D02*
X12824874Y26557086D01*
X12824874Y26557086D02*
X12872493Y26366610D01*
X12872493Y26366610D02*
X12872493Y26223753D01*
X12872493Y26223753D02*
X12824874Y26033277D01*
X12824874Y26033277D02*
X12777255Y25938039D01*
X12777255Y25938039D02*
X12682017Y25842800D01*
X12682017Y25842800D02*
X12539160Y25795181D01*
X12539160Y25795181D02*
X12301065Y25795181D01*
X13491541Y26795181D02*
X13586779Y26795181D01*
X13586779Y26795181D02*
X13682017Y26747562D01*
X13682017Y26747562D02*
X13729636Y26699943D01*
X13729636Y26699943D02*
X13777255Y26604705D01*
X13777255Y26604705D02*
X13824874Y26414229D01*
X13824874Y26414229D02*
X13824874Y26176134D01*
X13824874Y26176134D02*
X13777255Y25985658D01*
X13777255Y25985658D02*
X13729636Y25890420D01*
X13729636Y25890420D02*
X13682017Y25842800D01*
X13682017Y25842800D02*
X13586779Y25795181D01*
X13586779Y25795181D02*
X13491541Y25795181D01*
X13491541Y25795181D02*
X13396303Y25842800D01*
X13396303Y25842800D02*
X13348684Y25890420D01*
X13348684Y25890420D02*
X13301065Y25985658D01*
X13301065Y25985658D02*
X13253446Y26176134D01*
X13253446Y26176134D02*
X13253446Y26414229D01*
X13253446Y26414229D02*
X13301065Y26604705D01*
X13301065Y26604705D02*
X13348684Y26699943D01*
X13348684Y26699943D02*
X13396303Y26747562D01*
X13396303Y26747562D02*
X13491541Y26795181D01*
X11062969Y30795181D02*
X10586779Y30795181D01*
X10586779Y30795181D02*
X10586779Y31795181D01*
X11396303Y31318991D02*
X11729636Y31318991D01*
X11872493Y30795181D02*
X11396303Y30795181D01*
X11396303Y30795181D02*
X11396303Y31795181D01*
X11396303Y31795181D02*
X11872493Y31795181D01*
X12301065Y30795181D02*
X12301065Y31795181D01*
X12301065Y31795181D02*
X12539160Y31795181D01*
X12539160Y31795181D02*
X12682017Y31747562D01*
X12682017Y31747562D02*
X12777255Y31652324D01*
X12777255Y31652324D02*
X12824874Y31557086D01*
X12824874Y31557086D02*
X12872493Y31366610D01*
X12872493Y31366610D02*
X12872493Y31223753D01*
X12872493Y31223753D02*
X12824874Y31033277D01*
X12824874Y31033277D02*
X12777255Y30938039D01*
X12777255Y30938039D02*
X12682017Y30842800D01*
X12682017Y30842800D02*
X12539160Y30795181D01*
X12539160Y30795181D02*
X12301065Y30795181D01*
X13253446Y31699943D02*
X13301065Y31747562D01*
X13301065Y31747562D02*
X13396303Y31795181D01*
X13396303Y31795181D02*
X13634398Y31795181D01*
X13634398Y31795181D02*
X13729636Y31747562D01*
X13729636Y31747562D02*
X13777255Y31699943D01*
X13777255Y31699943D02*
X13824874Y31604705D01*
X13824874Y31604705D02*
X13824874Y31509467D01*
X13824874Y31509467D02*
X13777255Y31366610D01*
X13777255Y31366610D02*
X13205827Y30795181D01*
X13205827Y30795181D02*
X13824874Y30795181D01*
D11*
%TO.C,J4*%
X1600000Y-1450000D02*
X1600000Y-2850000D01*
X1600000Y-1450000D02*
X6400000Y-1450000D01*
X1600000Y-10550000D02*
X1600000Y-9150000D01*
X6400000Y-1450000D02*
X6400000Y-2850000D01*
X6400000Y-10550000D02*
X1600000Y-10550000D01*
X6400000Y-10550000D02*
X6400000Y-9150000D01*
D12*
X1125000Y-2500000D02*
G75*
G03*
X1125000Y-2500000I-125000J0D01*
G01*
D11*
%TO.C,J2*%
X27600000Y-1450000D02*
X27600000Y-2850000D01*
X27600000Y-1450000D02*
X32400000Y-1450000D01*
X27600000Y-10550000D02*
X27600000Y-9150000D01*
X32400000Y-1450000D02*
X32400000Y-2850000D01*
X32400000Y-10550000D02*
X27600000Y-10550000D01*
X32400000Y-10550000D02*
X32400000Y-9150000D01*
D12*
X27125000Y-2500000D02*
G75*
G03*
X27125000Y-2500000I-125000J0D01*
G01*
D13*
%TO.C,J6*%
X24560000Y52980000D02*
X24560000Y4660000D01*
X24560000Y52980000D02*
X27220000Y52980000D01*
X24560000Y4660000D02*
X27220000Y4660000D01*
X25890000Y55580000D02*
X27220000Y55580000D01*
X27220000Y55580000D02*
X27220000Y54250000D01*
X27220000Y52980000D02*
X27220000Y4660000D01*
%TO.C,J5*%
X6780000Y52980000D02*
X6780000Y4660000D01*
X6780000Y52980000D02*
X9440000Y52980000D01*
X6780000Y4660000D02*
X9440000Y4660000D01*
X8110000Y55580000D02*
X9440000Y55580000D01*
X9440000Y55580000D02*
X9440000Y54250000D01*
X9440000Y52980000D02*
X9440000Y4660000D01*
%TD*%
%LPC*%
D14*
%TO.C,J4*%
X1250000Y-3250000D03*
X6750000Y-3250000D03*
X1250000Y-3750000D03*
X6750000Y-3750000D03*
X1250000Y-4250000D03*
X6750000Y-4250000D03*
X1250000Y-4750000D03*
X6750000Y-4750000D03*
X1250000Y-5250000D03*
X6750000Y-5250000D03*
X1250000Y-5750000D03*
X6750000Y-5750000D03*
X1250000Y-6250000D03*
X6750000Y-6250000D03*
X1250000Y-6750000D03*
X6750000Y-6750000D03*
X1250000Y-7250000D03*
X6750000Y-7250000D03*
X1250000Y-7750000D03*
X6750000Y-7750000D03*
X1250000Y-8250000D03*
X6750000Y-8250000D03*
X1250000Y-8750000D03*
X6750000Y-8750000D03*
%TD*%
%TO.C,J2*%
X27250000Y-3250000D03*
X32750000Y-3250000D03*
X27250000Y-3750000D03*
X32750000Y-3750000D03*
X27250000Y-4250000D03*
X32750000Y-4250000D03*
X27250000Y-4750000D03*
X32750000Y-4750000D03*
X27250000Y-5250000D03*
X32750000Y-5250000D03*
X27250000Y-5750000D03*
X32750000Y-5750000D03*
X27250000Y-6250000D03*
X32750000Y-6250000D03*
X27250000Y-6750000D03*
X32750000Y-6750000D03*
X27250000Y-7250000D03*
X32750000Y-7250000D03*
X27250000Y-7750000D03*
X32750000Y-7750000D03*
X27250000Y-8250000D03*
X32750000Y-8250000D03*
X27250000Y-8750000D03*
X32750000Y-8750000D03*
%TD*%
D15*
%TO.C,J6*%
X25890000Y54250000D03*
D16*
X25890000Y51710000D03*
X25890000Y49170000D03*
X25890000Y46630000D03*
X25890000Y44090000D03*
X25890000Y41550000D03*
X25890000Y39010000D03*
X25890000Y36470000D03*
X25890000Y33930000D03*
X25890000Y31390000D03*
X25890000Y28850000D03*
X25890000Y26310000D03*
X25890000Y23770000D03*
X25890000Y21230000D03*
X25890000Y18690000D03*
X25890000Y16150000D03*
X25890000Y13610000D03*
X25890000Y11070000D03*
X25890000Y8530000D03*
X25890000Y5990000D03*
%TD*%
D15*
%TO.C,J5*%
X8110000Y54250000D03*
D16*
X8110000Y51710000D03*
X8110000Y49170000D03*
X8110000Y46630000D03*
X8110000Y44090000D03*
X8110000Y41550000D03*
X8110000Y39010000D03*
X8110000Y36470000D03*
X8110000Y33930000D03*
X8110000Y31390000D03*
X8110000Y28850000D03*
X8110000Y26310000D03*
X8110000Y23770000D03*
X8110000Y21230000D03*
X8110000Y18690000D03*
X8110000Y16150000D03*
X8110000Y13610000D03*
X8110000Y11070000D03*
X8110000Y8530000D03*
X8110000Y5990000D03*
%TD*%
%LPD*%
M02*
