M48
; DRILL file {KiCad 7.0.7} date Fri Oct 20 16:04:56 2023
; FORMAT={-:-/ absolute / inch / decimal}
; #@! TF.CreationDate,2023-10-20T16:04:56+10:00
; #@! TF.GenerationSoftware,Kicad,Pcbnew,7.0.7
; #@! TF.FileFunction,Plated,1,4,PTH
FMAT,2
INCH
; #@! TA.AperFunction,Plated,PTH,ViaDrill
T1C0.0118
; #@! TA.AperFunction,Plated,PTH,ComponentDrill
T2C0.0394
%
G90
G05
T1
X0.1476Y-0.128
X0.1476Y-0.1673
X0.1476Y-0.2067
X0.1476Y-0.2461
X0.1476Y-0.2854
X0.1476Y-0.3248
X0.1673Y-0.1476
X0.1673Y-0.187
X0.1673Y-0.2264
X0.1673Y-0.2657
X0.1673Y-0.3051
X0.1673Y-0.3445
X0.3248Y-0.128
X0.3248Y-0.1673
X0.3248Y-0.2067
X0.3248Y-0.2461
X0.3248Y-0.2854
X0.3248Y-0.3248
X0.3445Y-0.1476
X0.3445Y-0.187
X0.3445Y-0.2264
X0.3445Y-0.2657
X0.3445Y-0.3051
X0.3445Y-0.3445
X1.0039Y-0.1476
X1.0039Y-0.187
X1.0039Y-0.2264
X1.0039Y-0.2657
X1.0039Y-0.3051
X1.0039Y-0.3445
X1.0236Y-0.128
X1.0236Y-0.1673
X1.0236Y-0.2067
X1.0236Y-0.2461
X1.0236Y-0.2854
X1.0236Y-0.3248
X1.1713Y-0.1476
X1.1713Y-0.187
X1.1713Y-0.2264
X1.1713Y-0.2657
X1.1713Y-0.3051
X1.1713Y-0.3445
X1.1909Y-0.128
X1.1909Y-0.1673
X1.1909Y-0.2067
X1.1909Y-0.2461
X1.1909Y-0.2854
X1.1909Y-0.3248
T2
X0.3193Y2.1358
X0.3193Y2.0358
X0.3193Y1.9358
X0.3193Y1.8358
X0.3193Y1.7358
X0.3193Y1.6358
X0.3193Y1.5358
X0.3193Y1.4358
X0.3193Y1.3358
X0.3193Y1.2358
X0.3193Y1.1358
X0.3193Y1.0358
X0.3193Y0.9358
X0.3193Y0.8358
X0.3193Y0.7358
X0.3193Y0.6358
X0.3193Y0.5358
X0.3193Y0.4358
X0.3193Y0.3358
X0.3193Y0.2358
X1.0193Y2.1358
X1.0193Y2.0358
X1.0193Y1.9358
X1.0193Y1.8358
X1.0193Y1.7358
X1.0193Y1.6358
X1.0193Y1.5358
X1.0193Y1.4358
X1.0193Y1.3358
X1.0193Y1.2358
X1.0193Y1.1358
X1.0193Y1.0358
X1.0193Y0.9358
X1.0193Y0.8358
X1.0193Y0.7358
X1.0193Y0.6358
X1.0193Y0.5358
X1.0193Y0.4358
X1.0193Y0.3358
X1.0193Y0.2358
T0
M30
