%TF.GenerationSoftware,KiCad,Pcbnew,7.0.8*%
%TF.CreationDate,2023-11-11T12:14:01+10:00*%
%TF.ProjectId,ProgrammingBoard,50726f67-7261-46d6-9d69-6e67426f6172,rev?*%
%TF.SameCoordinates,Original*%
%TF.FileFunction,Soldermask,Bot*%
%TF.FilePolarity,Negative*%
%FSLAX46Y46*%
G04 Gerber Fmt 4.6, Leading zero omitted, Abs format (unit mm)*
G04 Created by KiCad (PCBNEW 7.0.8) date 2023-11-11 12:14:01*
%MOMM*%
%LPD*%
G01*
G04 APERTURE LIST*
G04 Aperture macros list*
%AMRoundRect*
0 Rectangle with rounded corners*
0 $1 Rounding radius*
0 $2 $3 $4 $5 $6 $7 $8 $9 X,Y pos of 4 corners*
0 Add a 4 corners polygon primitive as box body*
4,1,4,$2,$3,$4,$5,$6,$7,$8,$9,$2,$3,0*
0 Add four circle primitives for the rounded corners*
1,1,$1+$1,$2,$3*
1,1,$1+$1,$4,$5*
1,1,$1+$1,$6,$7*
1,1,$1+$1,$8,$9*
0 Add four rect primitives between the rounded corners*
20,1,$1+$1,$2,$3,$4,$5,0*
20,1,$1+$1,$4,$5,$6,$7,0*
20,1,$1+$1,$6,$7,$8,$9,0*
20,1,$1+$1,$8,$9,$2,$3,0*%
G04 Aperture macros list end*
%ADD10R,1.700000X1.700000*%
%ADD11O,1.700000X1.700000*%
%ADD12RoundRect,0.062500X0.612500X0.062500X-0.612500X0.062500X-0.612500X-0.062500X0.612500X-0.062500X0*%
G04 APERTURE END LIST*
D10*
%TO.C,J6*%
X13000000Y25320000D03*
D11*
X13000000Y22780000D03*
X13000000Y20240000D03*
X13000000Y17700000D03*
X13000000Y15160000D03*
X13000000Y12620000D03*
X13000000Y10080000D03*
X13000000Y7540000D03*
X13000000Y5000000D03*
%TD*%
D10*
%TO.C,J5*%
X18750000Y17700000D03*
D11*
X18750000Y15160000D03*
X18750000Y12620000D03*
X18750000Y10080000D03*
X18750000Y7540000D03*
X18750000Y5000000D03*
%TD*%
D12*
%TO.C,J1*%
X31475000Y-3750000D03*
X28525000Y-3750000D03*
X31475000Y-4250000D03*
X28525000Y-4250000D03*
X31475000Y-4750000D03*
X28525000Y-4750000D03*
X31475000Y-5250000D03*
X28525000Y-5250000D03*
X31475000Y-5750000D03*
X28525000Y-5750000D03*
X31475000Y-6250000D03*
X28525000Y-6250000D03*
X31475000Y-6750000D03*
X28525000Y-6750000D03*
X31475000Y-7250000D03*
X28525000Y-7250000D03*
X31475000Y-7750000D03*
X28525000Y-7750000D03*
X31475000Y-8250000D03*
X28525000Y-8250000D03*
X31475000Y-8750000D03*
X28525000Y-8750000D03*
X31475000Y-9250000D03*
X28525000Y-9250000D03*
%TD*%
%TO.C,J3*%
X5475000Y-3750000D03*
X2525000Y-3750000D03*
X5475000Y-4250000D03*
X2525000Y-4250000D03*
X5475000Y-4750000D03*
X2525000Y-4750000D03*
X5475000Y-5250000D03*
X2525000Y-5250000D03*
X5475000Y-5750000D03*
X2525000Y-5750000D03*
X5475000Y-6250000D03*
X2525000Y-6250000D03*
X5475000Y-6750000D03*
X2525000Y-6750000D03*
X5475000Y-7250000D03*
X2525000Y-7250000D03*
X5475000Y-7750000D03*
X2525000Y-7750000D03*
X5475000Y-8250000D03*
X2525000Y-8250000D03*
X5475000Y-8750000D03*
X2525000Y-8750000D03*
X5475000Y-9250000D03*
X2525000Y-9250000D03*
%TD*%
M02*
