%TF.GenerationSoftware,KiCad,Pcbnew,7.0.7*%
%TF.CreationDate,2023-10-20T16:04:56+10:00*%
%TF.ProjectId,ProgrammingBoard,50726f67-7261-46d6-9d69-6e67426f6172,rev?*%
%TF.SameCoordinates,Original*%
%TF.FileFunction,Copper,L4,Bot*%
%TF.FilePolarity,Positive*%
%FSLAX46Y46*%
G04 Gerber Fmt 4.6, Leading zero omitted, Abs format (unit mm)*
G04 Created by KiCad (PCBNEW 7.0.7) date 2023-10-20 16:04:56*
%MOMM*%
%LPD*%
G01*
G04 APERTURE LIST*
G04 Aperture macros list*
%AMRoundRect*
0 Rectangle with rounded corners*
0 $1 Rounding radius*
0 $2 $3 $4 $5 $6 $7 $8 $9 X,Y pos of 4 corners*
0 Add a 4 corners polygon primitive as box body*
4,1,4,$2,$3,$4,$5,$6,$7,$8,$9,$2,$3,0*
0 Add four circle primitives for the rounded corners*
1,1,$1+$1,$2,$3*
1,1,$1+$1,$4,$5*
1,1,$1+$1,$6,$7*
1,1,$1+$1,$8,$9*
0 Add four rect primitives between the rounded corners*
20,1,$1+$1,$2,$3,$4,$5,0*
20,1,$1+$1,$4,$5,$6,$7,0*
20,1,$1+$1,$6,$7,$8,$9,0*
20,1,$1+$1,$8,$9,$2,$3,0*%
G04 Aperture macros list end*
%TA.AperFunction,ComponentPad*%
%ADD10R,1.700000X1.700000*%
%TD*%
%TA.AperFunction,ComponentPad*%
%ADD11O,1.700000X1.700000*%
%TD*%
%TA.AperFunction,SMDPad,CuDef*%
%ADD12RoundRect,0.062500X0.612500X0.062500X-0.612500X0.062500X-0.612500X-0.062500X0.612500X-0.062500X0*%
%TD*%
%TA.AperFunction,ViaPad*%
%ADD13C,0.400000*%
%TD*%
%TA.AperFunction,Conductor*%
%ADD14C,0.200000*%
%TD*%
G04 APERTURE END LIST*
D10*
%TO.P,J6,1,Pin_1*%
%TO.N,unconnected-(J6-Pin_1-Pad1)*%
X25890000Y54250000D03*
D11*
%TO.P,J6,2,Pin_2*%
%TO.N,unconnected-(J6-Pin_2-Pad2)*%
X25890000Y51710000D03*
%TO.P,J6,3,Pin_3*%
%TO.N,GND*%
X25890000Y49170000D03*
%TO.P,J6,4,Pin_4*%
%TO.N,unconnected-(J6-Pin_4-Pad4)*%
X25890000Y46630000D03*
%TO.P,J6,5,Pin_5*%
%TO.N,VCC*%
X25890000Y44090000D03*
%TO.P,J6,6,Pin_6*%
%TO.N,unconnected-(J6-Pin_6-Pad6)*%
X25890000Y41550000D03*
%TO.P,J6,7,Pin_7*%
%TO.N,/Connectors/VSENSE*%
X25890000Y39010000D03*
%TO.P,J6,8,Pin_8*%
%TO.N,GND*%
X25890000Y36470000D03*
%TO.P,J6,9,Pin_9*%
%TO.N,unconnected-(J6-Pin_9-Pad9)*%
X25890000Y33930000D03*
%TO.P,J6,10,Pin_10*%
%TO.N,unconnected-(J6-Pin_10-Pad10)*%
X25890000Y31390000D03*
%TO.P,J6,11,Pin_11*%
%TO.N,unconnected-(J6-Pin_11-Pad11)*%
X25890000Y28850000D03*
%TO.P,J6,12,Pin_12*%
%TO.N,unconnected-(J6-Pin_12-Pad12)*%
X25890000Y26310000D03*
%TO.P,J6,13,Pin_13*%
%TO.N,GND*%
X25890000Y23770000D03*
%TO.P,J6,14,Pin_14*%
%TO.N,/Connectors/SCL*%
X25890000Y21230000D03*
%TO.P,J6,15,Pin_15*%
%TO.N,/Connectors/SDA*%
X25890000Y18690000D03*
%TO.P,J6,16,Pin_16*%
%TO.N,unconnected-(J6-Pin_16-Pad16)*%
X25890000Y16150000D03*
%TO.P,J6,17,Pin_17*%
%TO.N,unconnected-(J6-Pin_17-Pad17)*%
X25890000Y13610000D03*
%TO.P,J6,18,Pin_18*%
%TO.N,GND*%
X25890000Y11070000D03*
%TO.P,J6,19,Pin_19*%
%TO.N,/Connectors/LED_EN*%
X25890000Y8530000D03*
%TO.P,J6,20,Pin_20*%
%TO.N,/Connectors/BUTTON*%
X25890000Y5990000D03*
%TD*%
D10*
%TO.P,J5,1,Pin_1*%
%TO.N,unconnected-(J5-Pin_1-Pad1)*%
X8110000Y54250000D03*
D11*
%TO.P,J5,2,Pin_2*%
%TO.N,unconnected-(J5-Pin_2-Pad2)*%
X8110000Y51710000D03*
%TO.P,J5,3,Pin_3*%
%TO.N,GND*%
X8110000Y49170000D03*
%TO.P,J5,4,Pin_4*%
%TO.N,/Connectors/SWDCLK*%
X8110000Y46630000D03*
%TO.P,J5,5,Pin_5*%
%TO.N,/Connectors/SWDIO*%
X8110000Y44090000D03*
%TO.P,J5,6,Pin_6*%
%TO.N,/Connectors/RX*%
X8110000Y41550000D03*
%TO.P,J5,7,Pin_7*%
%TO.N,/Connectors/TX*%
X8110000Y39010000D03*
%TO.P,J5,8,Pin_8*%
%TO.N,GND*%
X8110000Y36470000D03*
%TO.P,J5,9,Pin_9*%
%TO.N,/Connectors/LED3*%
X8110000Y33930000D03*
%TO.P,J5,10,Pin_10*%
%TO.N,/Connectors/LED2*%
X8110000Y31390000D03*
%TO.P,J5,11,Pin_11*%
%TO.N,/Connectors/LED1*%
X8110000Y28850000D03*
%TO.P,J5,12,Pin_12*%
%TO.N,/Connectors/LED0*%
X8110000Y26310000D03*
%TO.P,J5,13,Pin_13*%
%TO.N,GND*%
X8110000Y23770000D03*
%TO.P,J5,14,Pin_14*%
%TO.N,unconnected-(J5-Pin_14-Pad14)*%
X8110000Y21230000D03*
%TO.P,J5,15,Pin_15*%
%TO.N,unconnected-(J5-Pin_15-Pad15)*%
X8110000Y18690000D03*
%TO.P,J5,16,Pin_16*%
%TO.N,/Connectors/INT2*%
X8110000Y16150000D03*
%TO.P,J5,17,Pin_17*%
%TO.N,/Connectors/INT1*%
X8110000Y13610000D03*
%TO.P,J5,18,Pin_18*%
%TO.N,GND*%
X8110000Y11070000D03*
%TO.P,J5,19,Pin_19*%
%TO.N,unconnected-(J5-Pin_19-Pad19)*%
X8110000Y8530000D03*
%TO.P,J5,20,Pin_20*%
%TO.N,/Connectors/RESET*%
X8110000Y5990000D03*
%TD*%
D12*
%TO.P,J1,1,Pin_1*%
%TO.N,GND*%
X31475000Y-3250000D03*
%TO.P,J1,2,Pin_2*%
X28525000Y-3250000D03*
%TO.P,J1,3,Pin_3*%
%TO.N,/Connectors/ROW0*%
X31475000Y-3750000D03*
%TO.P,J1,4,Pin_4*%
%TO.N,/Connectors/COL9*%
X28525000Y-3750000D03*
%TO.P,J1,5,Pin_5*%
%TO.N,/Connectors/ROW1*%
X31475000Y-4250000D03*
%TO.P,J1,6,Pin_6*%
%TO.N,/Connectors/COL10*%
X28525000Y-4250000D03*
%TO.P,J1,7,Pin_7*%
%TO.N,/Connectors/ROW2*%
X31475000Y-4750000D03*
%TO.P,J1,8,Pin_8*%
%TO.N,/Connectors/COL0*%
X28525000Y-4750000D03*
%TO.P,J1,9,Pin_9*%
%TO.N,/Connectors/ROW3*%
X31475000Y-5250000D03*
%TO.P,J1,10,Pin_10*%
%TO.N,/Connectors/COL1*%
X28525000Y-5250000D03*
%TO.P,J1,11,Pin_11*%
%TO.N,/Connectors/ROW4*%
X31475000Y-5750000D03*
%TO.P,J1,12,Pin_12*%
%TO.N,/Connectors/COL2*%
X28525000Y-5750000D03*
%TO.P,J1,13,Pin_13*%
%TO.N,/Connectors/ROW5*%
X31475000Y-6250000D03*
%TO.P,J1,14,Pin_14*%
%TO.N,/Connectors/COL3*%
X28525000Y-6250000D03*
%TO.P,J1,15,Pin_15*%
%TO.N,/Connectors/ROW6*%
X31475000Y-6750000D03*
%TO.P,J1,16,Pin_16*%
%TO.N,/Connectors/COL4*%
X28525000Y-6750000D03*
%TO.P,J1,17,Pin_17*%
%TO.N,/Connectors/ROW7*%
X31475000Y-7250000D03*
%TO.P,J1,18,Pin_18*%
%TO.N,/Connectors/COL5*%
X28525000Y-7250000D03*
%TO.P,J1,19,Pin_19*%
%TO.N,/Connectors/ROW8*%
X31475000Y-7750000D03*
%TO.P,J1,20,Pin_20*%
%TO.N,/Connectors/COL6*%
X28525000Y-7750000D03*
%TO.P,J1,21,Pin_21*%
%TO.N,/Connectors/ROW9*%
X31475000Y-8250000D03*
%TO.P,J1,22,Pin_22*%
%TO.N,/Connectors/COL7*%
X28525000Y-8250000D03*
%TO.P,J1,23,Pin_23*%
%TO.N,GND*%
X31475000Y-8750000D03*
%TO.P,J1,24,Pin_24*%
%TO.N,/Connectors/COL8*%
X28525000Y-8750000D03*
%TD*%
%TO.P,J3,1,Pin_1*%
%TO.N,/Connectors/RESET*%
X5475000Y-3250000D03*
%TO.P,J3,2,Pin_2*%
%TO.N,/Connectors/SWDCLK*%
X2525000Y-3250000D03*
%TO.P,J3,3,Pin_3*%
%TO.N,/Connectors/TX*%
X5475000Y-3750000D03*
%TO.P,J3,4,Pin_4*%
%TO.N,/Connectors/SWDIO*%
X2525000Y-3750000D03*
%TO.P,J3,5,Pin_5*%
%TO.N,/Connectors/RX*%
X5475000Y-4250000D03*
%TO.P,J3,6,Pin_6*%
%TO.N,VCC*%
X2525000Y-4250000D03*
%TO.P,J3,7,Pin_7*%
%TO.N,/Connectors/LED0*%
X5475000Y-4750000D03*
%TO.P,J3,8,Pin_8*%
%TO.N,VCC*%
X2525000Y-4750000D03*
%TO.P,J3,9,Pin_9*%
%TO.N,/Connectors/LED1*%
X5475000Y-5250000D03*
%TO.P,J3,10,Pin_10*%
%TO.N,VCC*%
X2525000Y-5250000D03*
%TO.P,J3,11,Pin_11*%
%TO.N,/Connectors/VSENSE*%
X5475000Y-5750000D03*
%TO.P,J3,12,Pin_12*%
%TO.N,VCC*%
X2525000Y-5750000D03*
%TO.P,J3,13,Pin_13*%
%TO.N,/Connectors/SCL*%
X5475000Y-6250000D03*
%TO.P,J3,14,Pin_14*%
%TO.N,GND*%
X2525000Y-6250000D03*
%TO.P,J3,15,Pin_15*%
%TO.N,/Connectors/SDA*%
X5475000Y-6750000D03*
%TO.P,J3,16,Pin_16*%
%TO.N,GND*%
X2525000Y-6750000D03*
%TO.P,J3,17,Pin_17*%
%TO.N,/Connectors/LED_EN*%
X5475000Y-7250000D03*
%TO.P,J3,18,Pin_18*%
%TO.N,GND*%
X2525000Y-7250000D03*
%TO.P,J3,19,Pin_19*%
%TO.N,/Connectors/LED2*%
X5475000Y-7750000D03*
%TO.P,J3,20,Pin_20*%
%TO.N,GND*%
X2525000Y-7750000D03*
%TO.P,J3,21,Pin_21*%
%TO.N,/Connectors/LED3*%
X5475000Y-8250000D03*
%TO.P,J3,22,Pin_22*%
%TO.N,/Connectors/INT2*%
X2525000Y-8250000D03*
%TO.P,J3,23,Pin_23*%
%TO.N,/Connectors/BUTTON*%
X5475000Y-8750000D03*
%TO.P,J3,24,Pin_24*%
%TO.N,/Connectors/INT1*%
X2525000Y-8750000D03*
%TD*%
D13*
%TO.N,GND*%
X30250000Y-3250000D03*
X3750000Y-6250000D03*
X3750000Y-7250000D03*
X4250000Y-6750000D03*
X4250000Y-7750000D03*
X26000000Y-3250000D03*
X29750000Y-8750000D03*
%TO.N,/Connectors/ROW0*%
X29750000Y-3750000D03*
%TO.N,/Connectors/COL9*%
X25500000Y-3750000D03*
%TO.N,/Connectors/ROW1*%
X30250000Y-4250000D03*
%TO.N,/Connectors/COL10*%
X26000000Y-4250000D03*
%TO.N,/Connectors/ROW2*%
X29750000Y-4750000D03*
%TO.N,/Connectors/COL0*%
X25500000Y-4750000D03*
%TO.N,/Connectors/ROW3*%
X30250000Y-5250000D03*
%TO.N,/Connectors/COL1*%
X26000000Y-5250000D03*
%TO.N,/Connectors/ROW4*%
X29750000Y-5750000D03*
%TO.N,/Connectors/COL2*%
X25500000Y-5750000D03*
%TO.N,/Connectors/ROW5*%
X30250000Y-6250000D03*
%TO.N,/Connectors/COL3*%
X26000000Y-6250000D03*
%TO.N,/Connectors/ROW6*%
X29750000Y-6750000D03*
%TO.N,/Connectors/COL4*%
X25500000Y-6750000D03*
%TO.N,/Connectors/ROW7*%
X30250000Y-7250000D03*
%TO.N,/Connectors/COL5*%
X26000000Y-7250000D03*
%TO.N,/Connectors/ROW8*%
X29750000Y-7750000D03*
%TO.N,/Connectors/COL6*%
X25500000Y-7750000D03*
%TO.N,/Connectors/ROW9*%
X30250000Y-8250000D03*
%TO.N,/Connectors/COL7*%
X26000000Y-8250000D03*
%TO.N,/Connectors/COL8*%
X25500000Y-8750000D03*
%TO.N,/Connectors/RESET*%
X8250000Y-3250000D03*
%TO.N,VCC*%
X4250000Y-4750000D03*
X3750000Y-5250000D03*
X3750000Y-4250000D03*
X4250000Y-5750000D03*
%TO.N,/Connectors/SWDCLK*%
X3750000Y-3250000D03*
%TO.N,/Connectors/TX*%
X8750000Y-3750000D03*
%TO.N,/Connectors/SWDIO*%
X4250000Y-3750000D03*
%TO.N,/Connectors/RX*%
X8250000Y-4250000D03*
%TO.N,/Connectors/LED0*%
X8750000Y-4750000D03*
%TO.N,/Connectors/LED1*%
X8250000Y-5250000D03*
%TO.N,/Connectors/VSENSE*%
X8750000Y-5750000D03*
%TO.N,/Connectors/SCL*%
X8250000Y-6250000D03*
%TO.N,/Connectors/SDA*%
X8750000Y-6750000D03*
%TO.N,/Connectors/LED_EN*%
X8250000Y-7250000D03*
%TO.N,/Connectors/LED2*%
X8750000Y-7750000D03*
%TO.N,/Connectors/LED3*%
X8250000Y-8250000D03*
%TO.N,/Connectors/INT2*%
X3750000Y-8250000D03*
%TO.N,/Connectors/BUTTON*%
X8750000Y-8750000D03*
%TO.N,/Connectors/INT1*%
X4250000Y-8750000D03*
%TD*%
D14*
%TO.N,GND*%
X2525000Y-7750000D02*
X4250000Y-7750000D01*
X2525000Y-7250000D02*
X3750000Y-7250000D01*
X2525000Y-6750000D02*
X4250000Y-6750000D01*
X31475000Y-3250000D02*
X30250000Y-3250000D01*
X2525000Y-6250000D02*
X3750000Y-6250000D01*
X31475000Y-8750000D02*
X29750000Y-8750000D01*
X28525000Y-3250000D02*
X26000000Y-3250000D01*
%TO.N,/Connectors/ROW0*%
X31475000Y-3750000D02*
X29750000Y-3750000D01*
%TO.N,/Connectors/COL9*%
X28525000Y-3750000D02*
X25500000Y-3750000D01*
%TO.N,/Connectors/ROW1*%
X31475000Y-4250000D02*
X30250000Y-4250000D01*
%TO.N,/Connectors/COL10*%
X28525000Y-4250000D02*
X26000000Y-4250000D01*
%TO.N,/Connectors/ROW2*%
X31475000Y-4750000D02*
X29750000Y-4750000D01*
%TO.N,/Connectors/COL0*%
X28525000Y-4750000D02*
X25500000Y-4750000D01*
%TO.N,/Connectors/ROW3*%
X31475000Y-5250000D02*
X30250000Y-5250000D01*
%TO.N,/Connectors/COL1*%
X28525000Y-5250000D02*
X26000000Y-5250000D01*
%TO.N,/Connectors/ROW4*%
X31475000Y-5750000D02*
X29750000Y-5750000D01*
%TO.N,/Connectors/COL2*%
X28525000Y-5750000D02*
X25500000Y-5750000D01*
%TO.N,/Connectors/ROW5*%
X31475000Y-6250000D02*
X30250000Y-6250000D01*
%TO.N,/Connectors/COL3*%
X28525000Y-6250000D02*
X26000000Y-6250000D01*
%TO.N,/Connectors/ROW6*%
X31475000Y-6750000D02*
X29750000Y-6750000D01*
%TO.N,/Connectors/COL4*%
X28525000Y-6750000D02*
X25500000Y-6750000D01*
%TO.N,/Connectors/ROW7*%
X31475000Y-7250000D02*
X30250000Y-7250000D01*
%TO.N,/Connectors/COL5*%
X28525000Y-7250000D02*
X26000000Y-7250000D01*
%TO.N,/Connectors/ROW8*%
X31475000Y-7750000D02*
X29750000Y-7750000D01*
%TO.N,/Connectors/COL6*%
X28525000Y-7750000D02*
X25500000Y-7750000D01*
%TO.N,/Connectors/ROW9*%
X31475000Y-8250000D02*
X30250000Y-8250000D01*
%TO.N,/Connectors/COL7*%
X28525000Y-8250000D02*
X26000000Y-8250000D01*
%TO.N,/Connectors/COL8*%
X28525000Y-8750000D02*
X25500000Y-8750000D01*
%TO.N,/Connectors/RESET*%
X8250000Y-3250000D02*
X5475000Y-3250000D01*
%TO.N,VCC*%
X2525000Y-5250000D02*
X3750000Y-5250000D01*
X2525000Y-4250000D02*
X3750000Y-4250000D01*
X2525000Y-5750000D02*
X4250000Y-5750000D01*
X2525000Y-4750000D02*
X4250000Y-4750000D01*
%TO.N,/Connectors/SWDCLK*%
X2525000Y-3250000D02*
X3750000Y-3250000D01*
%TO.N,/Connectors/TX*%
X8750000Y-3750000D02*
X5475000Y-3750000D01*
%TO.N,/Connectors/SWDIO*%
X2525000Y-3750000D02*
X4250000Y-3750000D01*
%TO.N,/Connectors/RX*%
X8250000Y-4250000D02*
X5475000Y-4250000D01*
%TO.N,/Connectors/LED0*%
X8750000Y-4750000D02*
X5475000Y-4750000D01*
X11000000Y23420000D02*
X8110000Y26310000D01*
X8750000Y-4750000D02*
X11000000Y-2500000D01*
X11000000Y-2500000D02*
X11000000Y23420000D01*
%TO.N,/Connectors/LED1*%
X8250000Y-5250000D02*
X9000000Y-5250000D01*
X8250000Y-5250000D02*
X5475000Y-5250000D01*
X9000000Y-5250000D02*
X11500000Y-2750000D01*
X11500000Y25460000D02*
X8110000Y28850000D01*
X11500000Y-2750000D02*
X11500000Y25460000D01*
%TO.N,/Connectors/VSENSE*%
X8750000Y-5750000D02*
X5475000Y-5750000D01*
%TO.N,/Connectors/SCL*%
X8250000Y-6250000D02*
X5475000Y-6250000D01*
%TO.N,/Connectors/SDA*%
X8750000Y-6750000D02*
X5475000Y-6750000D01*
%TO.N,/Connectors/LED_EN*%
X8250000Y-7250000D02*
X5475000Y-7250000D01*
%TO.N,/Connectors/LED2*%
X12000000Y27500000D02*
X8110000Y31390000D01*
X8750000Y-7750000D02*
X5475000Y-7750000D01*
X8750000Y-7750000D02*
X12000000Y-4500000D01*
X12000000Y-4500000D02*
X12000000Y27500000D01*
%TO.N,/Connectors/LED3*%
X9000000Y-8250000D02*
X12500000Y-4750000D01*
X8250000Y-8250000D02*
X9000000Y-8250000D01*
X8250000Y-8250000D02*
X5475000Y-8250000D01*
X12500000Y-4750000D02*
X12500000Y29540000D01*
X12500000Y29540000D02*
X8110000Y33930000D01*
%TO.N,/Connectors/INT2*%
X2525000Y-8250000D02*
X3750000Y-8250000D01*
%TO.N,/Connectors/BUTTON*%
X8750000Y-8750000D02*
X5475000Y-8750000D01*
%TO.N,/Connectors/INT1*%
X2525000Y-8750000D02*
X4250000Y-8750000D01*
%TD*%
M02*
