%TF.GenerationSoftware,KiCad,Pcbnew,7.0.7*%
%TF.CreationDate,2023-10-20T16:04:56+10:00*%
%TF.ProjectId,ProgrammingBoard,50726f67-7261-46d6-9d69-6e67426f6172,rev?*%
%TF.SameCoordinates,Original*%
%TF.FileFunction,Copper,L1,Top*%
%TF.FilePolarity,Positive*%
%FSLAX46Y46*%
G04 Gerber Fmt 4.6, Leading zero omitted, Abs format (unit mm)*
G04 Created by KiCad (PCBNEW 7.0.7) date 2023-10-20 16:04:56*
%MOMM*%
%LPD*%
G01*
G04 APERTURE LIST*
G04 Aperture macros list*
%AMRoundRect*
0 Rectangle with rounded corners*
0 $1 Rounding radius*
0 $2 $3 $4 $5 $6 $7 $8 $9 X,Y pos of 4 corners*
0 Add a 4 corners polygon primitive as box body*
4,1,4,$2,$3,$4,$5,$6,$7,$8,$9,$2,$3,0*
0 Add four circle primitives for the rounded corners*
1,1,$1+$1,$2,$3*
1,1,$1+$1,$4,$5*
1,1,$1+$1,$6,$7*
1,1,$1+$1,$8,$9*
0 Add four rect primitives between the rounded corners*
20,1,$1+$1,$2,$3,$4,$5,0*
20,1,$1+$1,$4,$5,$6,$7,0*
20,1,$1+$1,$6,$7,$8,$9,0*
20,1,$1+$1,$8,$9,$2,$3,0*%
G04 Aperture macros list end*
%TA.AperFunction,SMDPad,CuDef*%
%ADD10RoundRect,0.062500X-0.587500X-0.062500X0.587500X-0.062500X0.587500X0.062500X-0.587500X0.062500X0*%
%TD*%
%TA.AperFunction,ComponentPad*%
%ADD11R,1.700000X1.700000*%
%TD*%
%TA.AperFunction,ComponentPad*%
%ADD12O,1.700000X1.700000*%
%TD*%
%TA.AperFunction,ViaPad*%
%ADD13C,0.400000*%
%TD*%
%TA.AperFunction,Conductor*%
%ADD14C,0.200000*%
%TD*%
G04 APERTURE END LIST*
D10*
%TO.P,J4,1,Pin_1*%
%TO.N,/Connectors/SWDCLK*%
X1250000Y-3250000D03*
%TO.P,J4,2,Pin_2*%
%TO.N,/Connectors/RESET*%
X6750000Y-3250000D03*
%TO.P,J4,3,Pin_3*%
%TO.N,/Connectors/SWDIO*%
X1250000Y-3750000D03*
%TO.P,J4,4,Pin_4*%
%TO.N,/Connectors/TX*%
X6750000Y-3750000D03*
%TO.P,J4,5,Pin_5*%
%TO.N,VCC*%
X1250000Y-4250000D03*
%TO.P,J4,6,Pin_6*%
%TO.N,/Connectors/RX*%
X6750000Y-4250000D03*
%TO.P,J4,7,Pin_7*%
%TO.N,VCC*%
X1250000Y-4750000D03*
%TO.P,J4,8,Pin_8*%
%TO.N,/Connectors/LED0*%
X6750000Y-4750000D03*
%TO.P,J4,9,Pin_9*%
%TO.N,VCC*%
X1250000Y-5250000D03*
%TO.P,J4,10,Pin_10*%
%TO.N,/Connectors/LED1*%
X6750000Y-5250000D03*
%TO.P,J4,11,Pin_11*%
%TO.N,VCC*%
X1250000Y-5750000D03*
%TO.P,J4,12,Pin_12*%
%TO.N,/Connectors/VSENSE*%
X6750000Y-5750000D03*
%TO.P,J4,13,Pin_13*%
%TO.N,GND*%
X1250000Y-6250000D03*
%TO.P,J4,14,Pin_14*%
%TO.N,/Connectors/SCL*%
X6750000Y-6250000D03*
%TO.P,J4,15,Pin_15*%
%TO.N,GND*%
X1250000Y-6750000D03*
%TO.P,J4,16,Pin_16*%
%TO.N,/Connectors/SDA*%
X6750000Y-6750000D03*
%TO.P,J4,17,Pin_17*%
%TO.N,GND*%
X1250000Y-7250000D03*
%TO.P,J4,18,Pin_18*%
%TO.N,/Connectors/LED_EN*%
X6750000Y-7250000D03*
%TO.P,J4,19,Pin_19*%
%TO.N,GND*%
X1250000Y-7750000D03*
%TO.P,J4,20,Pin_20*%
%TO.N,/Connectors/LED2*%
X6750000Y-7750000D03*
%TO.P,J4,21,Pin_21*%
%TO.N,/Connectors/INT2*%
X1250000Y-8250000D03*
%TO.P,J4,22,Pin_22*%
%TO.N,/Connectors/LED3*%
X6750000Y-8250000D03*
%TO.P,J4,23,Pin_23*%
%TO.N,/Connectors/INT1*%
X1250000Y-8750000D03*
%TO.P,J4,24,Pin_24*%
%TO.N,/Connectors/BUTTON*%
X6750000Y-8750000D03*
%TD*%
%TO.P,J2,1,Pin_1*%
%TO.N,GND*%
X27250000Y-3250000D03*
%TO.P,J2,2,Pin_2*%
X32750000Y-3250000D03*
%TO.P,J2,3,Pin_3*%
%TO.N,/Connectors/COL9*%
X27250000Y-3750000D03*
%TO.P,J2,4,Pin_4*%
%TO.N,/Connectors/ROW0*%
X32750000Y-3750000D03*
%TO.P,J2,5,Pin_5*%
%TO.N,/Connectors/COL10*%
X27250000Y-4250000D03*
%TO.P,J2,6,Pin_6*%
%TO.N,/Connectors/ROW1*%
X32750000Y-4250000D03*
%TO.P,J2,7,Pin_7*%
%TO.N,/Connectors/COL0*%
X27250000Y-4750000D03*
%TO.P,J2,8,Pin_8*%
%TO.N,/Connectors/ROW2*%
X32750000Y-4750000D03*
%TO.P,J2,9,Pin_9*%
%TO.N,/Connectors/COL1*%
X27250000Y-5250000D03*
%TO.P,J2,10,Pin_10*%
%TO.N,/Connectors/ROW3*%
X32750000Y-5250000D03*
%TO.P,J2,11,Pin_11*%
%TO.N,/Connectors/COL2*%
X27250000Y-5750000D03*
%TO.P,J2,12,Pin_12*%
%TO.N,/Connectors/ROW4*%
X32750000Y-5750000D03*
%TO.P,J2,13,Pin_13*%
%TO.N,/Connectors/COL3*%
X27250000Y-6250000D03*
%TO.P,J2,14,Pin_14*%
%TO.N,/Connectors/ROW5*%
X32750000Y-6250000D03*
%TO.P,J2,15,Pin_15*%
%TO.N,/Connectors/COL4*%
X27250000Y-6750000D03*
%TO.P,J2,16,Pin_16*%
%TO.N,/Connectors/ROW6*%
X32750000Y-6750000D03*
%TO.P,J2,17,Pin_17*%
%TO.N,/Connectors/COL5*%
X27250000Y-7250000D03*
%TO.P,J2,18,Pin_18*%
%TO.N,/Connectors/ROW7*%
X32750000Y-7250000D03*
%TO.P,J2,19,Pin_19*%
%TO.N,/Connectors/COL6*%
X27250000Y-7750000D03*
%TO.P,J2,20,Pin_20*%
%TO.N,/Connectors/ROW8*%
X32750000Y-7750000D03*
%TO.P,J2,21,Pin_21*%
%TO.N,/Connectors/COL7*%
X27250000Y-8250000D03*
%TO.P,J2,22,Pin_22*%
%TO.N,/Connectors/ROW9*%
X32750000Y-8250000D03*
%TO.P,J2,23,Pin_23*%
%TO.N,/Connectors/COL8*%
X27250000Y-8750000D03*
%TO.P,J2,24,Pin_24*%
%TO.N,GND*%
X32750000Y-8750000D03*
%TD*%
D11*
%TO.P,J6,1,Pin_1*%
%TO.N,unconnected-(J6-Pin_1-Pad1)*%
X25890000Y54250000D03*
D12*
%TO.P,J6,2,Pin_2*%
%TO.N,unconnected-(J6-Pin_2-Pad2)*%
X25890000Y51710000D03*
%TO.P,J6,3,Pin_3*%
%TO.N,GND*%
X25890000Y49170000D03*
%TO.P,J6,4,Pin_4*%
%TO.N,unconnected-(J6-Pin_4-Pad4)*%
X25890000Y46630000D03*
%TO.P,J6,5,Pin_5*%
%TO.N,VCC*%
X25890000Y44090000D03*
%TO.P,J6,6,Pin_6*%
%TO.N,unconnected-(J6-Pin_6-Pad6)*%
X25890000Y41550000D03*
%TO.P,J6,7,Pin_7*%
%TO.N,/Connectors/VSENSE*%
X25890000Y39010000D03*
%TO.P,J6,8,Pin_8*%
%TO.N,GND*%
X25890000Y36470000D03*
%TO.P,J6,9,Pin_9*%
%TO.N,unconnected-(J6-Pin_9-Pad9)*%
X25890000Y33930000D03*
%TO.P,J6,10,Pin_10*%
%TO.N,unconnected-(J6-Pin_10-Pad10)*%
X25890000Y31390000D03*
%TO.P,J6,11,Pin_11*%
%TO.N,unconnected-(J6-Pin_11-Pad11)*%
X25890000Y28850000D03*
%TO.P,J6,12,Pin_12*%
%TO.N,unconnected-(J6-Pin_12-Pad12)*%
X25890000Y26310000D03*
%TO.P,J6,13,Pin_13*%
%TO.N,GND*%
X25890000Y23770000D03*
%TO.P,J6,14,Pin_14*%
%TO.N,/Connectors/SCL*%
X25890000Y21230000D03*
%TO.P,J6,15,Pin_15*%
%TO.N,/Connectors/SDA*%
X25890000Y18690000D03*
%TO.P,J6,16,Pin_16*%
%TO.N,unconnected-(J6-Pin_16-Pad16)*%
X25890000Y16150000D03*
%TO.P,J6,17,Pin_17*%
%TO.N,unconnected-(J6-Pin_17-Pad17)*%
X25890000Y13610000D03*
%TO.P,J6,18,Pin_18*%
%TO.N,GND*%
X25890000Y11070000D03*
%TO.P,J6,19,Pin_19*%
%TO.N,/Connectors/LED_EN*%
X25890000Y8530000D03*
%TO.P,J6,20,Pin_20*%
%TO.N,/Connectors/BUTTON*%
X25890000Y5990000D03*
%TD*%
D11*
%TO.P,J5,1,Pin_1*%
%TO.N,unconnected-(J5-Pin_1-Pad1)*%
X8110000Y54250000D03*
D12*
%TO.P,J5,2,Pin_2*%
%TO.N,unconnected-(J5-Pin_2-Pad2)*%
X8110000Y51710000D03*
%TO.P,J5,3,Pin_3*%
%TO.N,GND*%
X8110000Y49170000D03*
%TO.P,J5,4,Pin_4*%
%TO.N,/Connectors/SWDCLK*%
X8110000Y46630000D03*
%TO.P,J5,5,Pin_5*%
%TO.N,/Connectors/SWDIO*%
X8110000Y44090000D03*
%TO.P,J5,6,Pin_6*%
%TO.N,/Connectors/RX*%
X8110000Y41550000D03*
%TO.P,J5,7,Pin_7*%
%TO.N,/Connectors/TX*%
X8110000Y39010000D03*
%TO.P,J5,8,Pin_8*%
%TO.N,GND*%
X8110000Y36470000D03*
%TO.P,J5,9,Pin_9*%
%TO.N,/Connectors/LED3*%
X8110000Y33930000D03*
%TO.P,J5,10,Pin_10*%
%TO.N,/Connectors/LED2*%
X8110000Y31390000D03*
%TO.P,J5,11,Pin_11*%
%TO.N,/Connectors/LED1*%
X8110000Y28850000D03*
%TO.P,J5,12,Pin_12*%
%TO.N,/Connectors/LED0*%
X8110000Y26310000D03*
%TO.P,J5,13,Pin_13*%
%TO.N,GND*%
X8110000Y23770000D03*
%TO.P,J5,14,Pin_14*%
%TO.N,unconnected-(J5-Pin_14-Pad14)*%
X8110000Y21230000D03*
%TO.P,J5,15,Pin_15*%
%TO.N,unconnected-(J5-Pin_15-Pad15)*%
X8110000Y18690000D03*
%TO.P,J5,16,Pin_16*%
%TO.N,/Connectors/INT2*%
X8110000Y16150000D03*
%TO.P,J5,17,Pin_17*%
%TO.N,/Connectors/INT1*%
X8110000Y13610000D03*
%TO.P,J5,18,Pin_18*%
%TO.N,GND*%
X8110000Y11070000D03*
%TO.P,J5,19,Pin_19*%
%TO.N,unconnected-(J5-Pin_19-Pad19)*%
X8110000Y8530000D03*
%TO.P,J5,20,Pin_20*%
%TO.N,/Connectors/RESET*%
X8110000Y5990000D03*
%TD*%
D13*
%TO.N,GND*%
X30250000Y-3250000D03*
X3750000Y-6250000D03*
X3750000Y-7250000D03*
X4250000Y-6750000D03*
X4250000Y-7750000D03*
X26000000Y-3250000D03*
X29750000Y-8750000D03*
%TO.N,/Connectors/ROW0*%
X29750000Y-3750000D03*
%TO.N,/Connectors/COL9*%
X25500000Y-3750000D03*
%TO.N,/Connectors/ROW1*%
X30250000Y-4250000D03*
%TO.N,/Connectors/COL10*%
X26000000Y-4250000D03*
%TO.N,/Connectors/ROW2*%
X29750000Y-4750000D03*
%TO.N,/Connectors/COL0*%
X25500000Y-4750000D03*
%TO.N,/Connectors/ROW3*%
X30250000Y-5250000D03*
%TO.N,/Connectors/COL1*%
X26000000Y-5250000D03*
%TO.N,/Connectors/ROW4*%
X29750000Y-5750000D03*
%TO.N,/Connectors/COL2*%
X25500000Y-5750000D03*
%TO.N,/Connectors/ROW5*%
X30250000Y-6250000D03*
%TO.N,/Connectors/COL3*%
X26000000Y-6250000D03*
%TO.N,/Connectors/ROW6*%
X29750000Y-6750000D03*
%TO.N,/Connectors/COL4*%
X25500000Y-6750000D03*
%TO.N,/Connectors/ROW7*%
X30250000Y-7250000D03*
%TO.N,/Connectors/COL5*%
X26000000Y-7250000D03*
%TO.N,/Connectors/ROW8*%
X29750000Y-7750000D03*
%TO.N,/Connectors/COL6*%
X25500000Y-7750000D03*
%TO.N,/Connectors/ROW9*%
X30250000Y-8250000D03*
%TO.N,/Connectors/COL7*%
X26000000Y-8250000D03*
%TO.N,/Connectors/COL8*%
X25500000Y-8750000D03*
%TO.N,/Connectors/RESET*%
X8250000Y-3250000D03*
%TO.N,VCC*%
X4250000Y-4750000D03*
X3750000Y-5250000D03*
X3750000Y-4250000D03*
X4250000Y-5750000D03*
%TO.N,/Connectors/SWDCLK*%
X3750000Y-3250000D03*
%TO.N,/Connectors/TX*%
X8750000Y-3750000D03*
%TO.N,/Connectors/SWDIO*%
X4250000Y-3750000D03*
%TO.N,/Connectors/RX*%
X8250000Y-4250000D03*
%TO.N,/Connectors/LED0*%
X8750000Y-4750000D03*
%TO.N,/Connectors/LED1*%
X8250000Y-5250000D03*
%TO.N,/Connectors/VSENSE*%
X8750000Y-5750000D03*
%TO.N,/Connectors/SCL*%
X8250000Y-6250000D03*
%TO.N,/Connectors/SDA*%
X8750000Y-6750000D03*
%TO.N,/Connectors/LED_EN*%
X8250000Y-7250000D03*
%TO.N,/Connectors/LED2*%
X8750000Y-7750000D03*
%TO.N,/Connectors/LED3*%
X8250000Y-8250000D03*
%TO.N,/Connectors/INT2*%
X3750000Y-8250000D03*
%TO.N,/Connectors/BUTTON*%
X8750000Y-8750000D03*
%TO.N,/Connectors/INT1*%
X4250000Y-8750000D03*
%TD*%
D14*
%TO.N,/Connectors/SDA*%
X23440000Y18690000D02*
X25890000Y18690000D01*
X13750000Y9000000D02*
X23440000Y18690000D01*
X13750000Y-2250000D02*
X13750000Y9000000D01*
X8750000Y-6750000D02*
X9250000Y-6750000D01*
X9250000Y-6750000D02*
X13750000Y-2250000D01*
%TO.N,/Connectors/SCL*%
X25230000Y21230000D02*
X25890000Y21230000D01*
X13250000Y9250000D02*
X25230000Y21230000D01*
X13250000Y-2000000D02*
X13250000Y9250000D01*
X9000000Y-6250000D02*
X13250000Y-2000000D01*
X8250000Y-6250000D02*
X9000000Y-6250000D01*
%TO.N,GND*%
X1250000Y-7250000D02*
X3750000Y-7250000D01*
X4250000Y-6750000D02*
X1250000Y-6750000D01*
X26000000Y-3250000D02*
X27250000Y-3250000D01*
X1250000Y-6250000D02*
X3750000Y-6250000D01*
X30250000Y-3250000D02*
X32750000Y-3250000D01*
X29750000Y-8750000D02*
X32750000Y-8750000D01*
X4250000Y-7750000D02*
X1250000Y-7750000D01*
%TO.N,/Connectors/ROW0*%
X29750000Y-3750000D02*
X32750000Y-3750000D01*
%TO.N,/Connectors/COL9*%
X25500000Y-3750000D02*
X27250000Y-3750000D01*
%TO.N,/Connectors/ROW1*%
X30250000Y-4250000D02*
X32750000Y-4250000D01*
%TO.N,/Connectors/COL10*%
X26000000Y-4250000D02*
X27250000Y-4250000D01*
%TO.N,/Connectors/ROW2*%
X29750000Y-4750000D02*
X32750000Y-4750000D01*
%TO.N,/Connectors/COL0*%
X25500000Y-4750000D02*
X27250000Y-4750000D01*
%TO.N,/Connectors/ROW3*%
X30250000Y-5250000D02*
X32750000Y-5250000D01*
%TO.N,/Connectors/COL1*%
X26000000Y-5250000D02*
X27250000Y-5250000D01*
%TO.N,/Connectors/ROW4*%
X29750000Y-5750000D02*
X32750000Y-5750000D01*
%TO.N,/Connectors/COL2*%
X25500000Y-5750000D02*
X27250000Y-5750000D01*
%TO.N,/Connectors/ROW5*%
X30250000Y-6250000D02*
X32750000Y-6250000D01*
%TO.N,/Connectors/COL3*%
X26000000Y-6250000D02*
X27250000Y-6250000D01*
%TO.N,/Connectors/ROW6*%
X29750000Y-6750000D02*
X32750000Y-6750000D01*
%TO.N,/Connectors/COL4*%
X25500000Y-6750000D02*
X27250000Y-6750000D01*
%TO.N,/Connectors/ROW7*%
X30250000Y-7250000D02*
X32750000Y-7250000D01*
%TO.N,/Connectors/COL5*%
X26000000Y-7250000D02*
X27250000Y-7250000D01*
%TO.N,/Connectors/ROW8*%
X29750000Y-7750000D02*
X32750000Y-7750000D01*
%TO.N,/Connectors/COL6*%
X25500000Y-7750000D02*
X27250000Y-7750000D01*
%TO.N,/Connectors/ROW9*%
X30250000Y-8250000D02*
X32750000Y-8250000D01*
%TO.N,/Connectors/COL7*%
X26000000Y-8250000D02*
X27250000Y-8250000D01*
%TO.N,/Connectors/COL8*%
X25500000Y-8750000D02*
X27250000Y-8750000D01*
%TO.N,/Connectors/RESET*%
X8250000Y-3250000D02*
X8250000Y2250000D01*
X6750000Y-3250000D02*
X8250000Y-3250000D01*
X8110000Y2390000D02*
X8110000Y5990000D01*
X8250000Y2250000D02*
X8110000Y2390000D01*
%TO.N,VCC*%
X4250000Y-4750000D02*
X1250000Y-4750000D01*
X1250000Y-4250000D02*
X3750000Y-4250000D01*
X1250000Y-5250000D02*
X3750000Y-5250000D01*
X4250000Y-5750000D02*
X1250000Y-5750000D01*
%TO.N,/Connectors/SWDCLK*%
X3750000Y-3250000D02*
X3750000Y42270000D01*
X1250000Y-3250000D02*
X3750000Y-3250000D01*
X3750000Y42270000D02*
X8110000Y46630000D01*
%TO.N,/Connectors/TX*%
X10250000Y-2250000D02*
X10250000Y36870000D01*
X8750000Y-3750000D02*
X10250000Y-2250000D01*
X6750000Y-3750000D02*
X8750000Y-3750000D01*
X10250000Y36870000D02*
X8110000Y39010000D01*
%TO.N,/Connectors/SWDIO*%
X4250000Y-3750000D02*
X4250000Y40230000D01*
X4250000Y-3750000D02*
X1250000Y-3750000D01*
X4250000Y40230000D02*
X8110000Y44090000D01*
%TO.N,/Connectors/RX*%
X8250000Y-4250000D02*
X8957107Y-4250000D01*
X8957107Y-4250000D02*
X10750000Y-2457107D01*
X10750000Y38910000D02*
X8110000Y41550000D01*
X6750000Y-4250000D02*
X8250000Y-4250000D01*
X10750000Y-2457107D02*
X10750000Y38910000D01*
%TO.N,/Connectors/LED0*%
X6750000Y-4750000D02*
X8750000Y-4750000D01*
%TO.N,/Connectors/LED1*%
X6750000Y-5250000D02*
X8250000Y-5250000D01*
%TO.N,/Connectors/VSENSE*%
X6750000Y-5750000D02*
X8750000Y-5750000D01*
X8750000Y-5750000D02*
X12250000Y-2250000D01*
X12250000Y25370000D02*
X25890000Y39010000D01*
X12250000Y-2250000D02*
X12250000Y25370000D01*
%TO.N,/Connectors/SCL*%
X6750000Y-6250000D02*
X8250000Y-6250000D01*
%TO.N,/Connectors/SDA*%
X6750000Y-6750000D02*
X8750000Y-6750000D01*
%TO.N,/Connectors/LED_EN*%
X6750000Y-7250000D02*
X8250000Y-7250000D01*
X10110000Y-7250000D02*
X8250000Y-7250000D01*
X25890000Y8530000D02*
X10110000Y-7250000D01*
%TO.N,/Connectors/LED2*%
X6750000Y-7750000D02*
X8750000Y-7750000D01*
%TO.N,/Connectors/LED3*%
X6750000Y-8250000D02*
X8250000Y-8250000D01*
%TO.N,/Connectors/INT2*%
X4457107Y-8250000D02*
X5000000Y-7707107D01*
X5000000Y-7707107D02*
X5000000Y13040000D01*
X1250000Y-8250000D02*
X4457107Y-8250000D01*
X5000000Y13040000D02*
X8110000Y16150000D01*
%TO.N,/Connectors/BUTTON*%
X8750000Y-8750000D02*
X11150000Y-8750000D01*
X11150000Y-8750000D02*
X25890000Y5990000D01*
X6750000Y-8750000D02*
X8750000Y-8750000D01*
%TO.N,/Connectors/INT1*%
X4250000Y-8750000D02*
X1250000Y-8750000D01*
X5500000Y11000000D02*
X8110000Y13610000D01*
X4750000Y-8750000D02*
X5500000Y-8000000D01*
X4250000Y-8750000D02*
X4750000Y-8750000D01*
X5500000Y-8000000D02*
X5500000Y11000000D01*
%TD*%
M02*
