%TF.GenerationSoftware,KiCad,Pcbnew,7.0.8*%
%TF.CreationDate,2023-11-08T20:28:38+10:00*%
%TF.ProjectId,ProgrammingBoard,50726f67-7261-46d6-9d69-6e67426f6172,rev?*%
%TF.SameCoordinates,Original*%
%TF.FileFunction,Copper,L1,Top*%
%TF.FilePolarity,Positive*%
%FSLAX46Y46*%
G04 Gerber Fmt 4.6, Leading zero omitted, Abs format (unit mm)*
G04 Created by KiCad (PCBNEW 7.0.8) date 2023-11-08 20:28:38*
%MOMM*%
%LPD*%
G01*
G04 APERTURE LIST*
G04 Aperture macros list*
%AMRoundRect*
0 Rectangle with rounded corners*
0 $1 Rounding radius*
0 $2 $3 $4 $5 $6 $7 $8 $9 X,Y pos of 4 corners*
0 Add a 4 corners polygon primitive as box body*
4,1,4,$2,$3,$4,$5,$6,$7,$8,$9,$2,$3,0*
0 Add four circle primitives for the rounded corners*
1,1,$1+$1,$2,$3*
1,1,$1+$1,$4,$5*
1,1,$1+$1,$6,$7*
1,1,$1+$1,$8,$9*
0 Add four rect primitives between the rounded corners*
20,1,$1+$1,$2,$3,$4,$5,0*
20,1,$1+$1,$4,$5,$6,$7,0*
20,1,$1+$1,$6,$7,$8,$9,0*
20,1,$1+$1,$8,$9,$2,$3,0*%
G04 Aperture macros list end*
%TA.AperFunction,ComponentPad*%
%ADD10R,1.700000X1.700000*%
%TD*%
%TA.AperFunction,ComponentPad*%
%ADD11O,1.700000X1.700000*%
%TD*%
%TA.AperFunction,SMDPad,CuDef*%
%ADD12RoundRect,0.062500X-0.587500X-0.062500X0.587500X-0.062500X0.587500X0.062500X-0.587500X0.062500X0*%
%TD*%
%TA.AperFunction,ViaPad*%
%ADD13C,0.400000*%
%TD*%
%TA.AperFunction,Conductor*%
%ADD14C,0.200000*%
%TD*%
G04 APERTURE END LIST*
D10*
%TO.P,J6,1,Pin_1*%
%TO.N,VCC*%
X14000000Y25320000D03*
D11*
%TO.P,J6,2,Pin_2*%
%TO.N,/Connectors/SDA*%
X14000000Y22780000D03*
%TO.P,J6,3,Pin_3*%
%TO.N,/Connectors/SCL*%
X14000000Y20240000D03*
%TO.P,J6,4,Pin_4*%
%TO.N,/Connectors/INT1*%
X14000000Y17700000D03*
%TO.P,J6,5,Pin_5*%
%TO.N,/Connectors/SWDIO*%
X14000000Y15160000D03*
%TO.P,J6,6,Pin_6*%
%TO.N,/Connectors/SWDCLK*%
X14000000Y12620000D03*
%TO.P,J6,7,Pin_7*%
%TO.N,/Connectors/RESET*%
X14000000Y10080000D03*
%TO.P,J6,8,Pin_8*%
%TO.N,/Connectors/BUTTON*%
X14000000Y7540000D03*
%TO.P,J6,9,Pin_9*%
%TO.N,GND*%
X14000000Y5000000D03*
%TD*%
%TO.P,J5,6,Pin_6*%
%TO.N,GND*%
X20750000Y5000000D03*
%TO.P,J5,5,Pin_5*%
%TO.N,/Connectors/LED3*%
X20750000Y7540000D03*
%TO.P,J5,4,Pin_4*%
%TO.N,/Connectors/LED2*%
X20750000Y10080000D03*
%TO.P,J5,3,Pin_3*%
%TO.N,/Connectors/LED1*%
X20750000Y12620000D03*
%TO.P,J5,2,Pin_2*%
%TO.N,/Connectors/LED0*%
X20750000Y15160000D03*
D10*
%TO.P,J5,1,Pin_1*%
%TO.N,VCC*%
X20750000Y17700000D03*
%TD*%
D12*
%TO.P,J4,1,Pin_1*%
%TO.N,VCC*%
X1250000Y-3250000D03*
%TO.P,J4,2,Pin_2*%
%TO.N,/Connectors/SDA*%
X6750000Y-3250000D03*
%TO.P,J4,3,Pin_3*%
%TO.N,VCC*%
X1250000Y-3750000D03*
%TO.P,J4,4,Pin_4*%
%TO.N,/Connectors/SCL*%
X6750000Y-3750000D03*
%TO.P,J4,5,Pin_5*%
%TO.N,VCC*%
X1250000Y-4250000D03*
%TO.P,J4,6,Pin_6*%
%TO.N,GND*%
X6750000Y-4250000D03*
%TO.P,J4,7,Pin_7*%
%TO.N,VCC*%
X1250000Y-4750000D03*
%TO.P,J4,8,Pin_8*%
%TO.N,/Connectors/INT1*%
X6750000Y-4750000D03*
%TO.P,J4,9,Pin_9*%
%TO.N,VCC*%
X1250000Y-5250000D03*
%TO.P,J4,10,Pin_10*%
%TO.N,/Connectors/SWDIO*%
X6750000Y-5250000D03*
%TO.P,J4,11,Pin_11*%
%TO.N,VCC*%
X1250000Y-5750000D03*
%TO.P,J4,12,Pin_12*%
%TO.N,/Connectors/SWDCLK*%
X6750000Y-5750000D03*
%TO.P,J4,13,Pin_13*%
%TO.N,GND*%
X1250000Y-6250000D03*
%TO.P,J4,14,Pin_14*%
%TO.N,/Connectors/RESET*%
X6750000Y-6250000D03*
%TO.P,J4,15,Pin_15*%
%TO.N,GND*%
X1250000Y-6750000D03*
%TO.P,J4,16,Pin_16*%
%TO.N,/Connectors/BUTTON*%
X6750000Y-6750000D03*
%TO.P,J4,17,Pin_17*%
%TO.N,GND*%
X1250000Y-7250000D03*
%TO.P,J4,18,Pin_18*%
%TO.N,/Connectors/LED0*%
X6750000Y-7250000D03*
%TO.P,J4,19,Pin_19*%
%TO.N,GND*%
X1250000Y-7750000D03*
%TO.P,J4,20,Pin_20*%
%TO.N,/Connectors/LED1*%
X6750000Y-7750000D03*
%TO.P,J4,21,Pin_21*%
%TO.N,GND*%
X1250000Y-8250000D03*
%TO.P,J4,22,Pin_22*%
%TO.N,/Connectors/LED2*%
X6750000Y-8250000D03*
%TO.P,J4,23,Pin_23*%
%TO.N,GND*%
X1250000Y-8750000D03*
%TO.P,J4,24,Pin_24*%
%TO.N,/Connectors/LED3*%
X6750000Y-8750000D03*
%TD*%
%TO.P,J2,1,Pin_1*%
%TO.N,GND*%
X27250000Y-3250000D03*
%TO.P,J2,2,Pin_2*%
X32750000Y-3250000D03*
%TO.P,J2,3,Pin_3*%
%TO.N,/Connectors/COL9*%
X27250000Y-3750000D03*
%TO.P,J2,4,Pin_4*%
%TO.N,/Connectors/ROW0*%
X32750000Y-3750000D03*
%TO.P,J2,5,Pin_5*%
%TO.N,/Connectors/COL10*%
X27250000Y-4250000D03*
%TO.P,J2,6,Pin_6*%
%TO.N,/Connectors/ROW1*%
X32750000Y-4250000D03*
%TO.P,J2,7,Pin_7*%
%TO.N,/Connectors/COL0*%
X27250000Y-4750000D03*
%TO.P,J2,8,Pin_8*%
%TO.N,/Connectors/ROW2*%
X32750000Y-4750000D03*
%TO.P,J2,9,Pin_9*%
%TO.N,/Connectors/COL1*%
X27250000Y-5250000D03*
%TO.P,J2,10,Pin_10*%
%TO.N,/Connectors/ROW3*%
X32750000Y-5250000D03*
%TO.P,J2,11,Pin_11*%
%TO.N,/Connectors/COL2*%
X27250000Y-5750000D03*
%TO.P,J2,12,Pin_12*%
%TO.N,/Connectors/ROW4*%
X32750000Y-5750000D03*
%TO.P,J2,13,Pin_13*%
%TO.N,/Connectors/COL3*%
X27250000Y-6250000D03*
%TO.P,J2,14,Pin_14*%
%TO.N,/Connectors/ROW5*%
X32750000Y-6250000D03*
%TO.P,J2,15,Pin_15*%
%TO.N,/Connectors/COL4*%
X27250000Y-6750000D03*
%TO.P,J2,16,Pin_16*%
%TO.N,/Connectors/ROW6*%
X32750000Y-6750000D03*
%TO.P,J2,17,Pin_17*%
%TO.N,/Connectors/COL5*%
X27250000Y-7250000D03*
%TO.P,J2,18,Pin_18*%
%TO.N,/Connectors/ROW7*%
X32750000Y-7250000D03*
%TO.P,J2,19,Pin_19*%
%TO.N,/Connectors/COL6*%
X27250000Y-7750000D03*
%TO.P,J2,20,Pin_20*%
%TO.N,/Connectors/ROW8*%
X32750000Y-7750000D03*
%TO.P,J2,21,Pin_21*%
%TO.N,/Connectors/COL7*%
X27250000Y-8250000D03*
%TO.P,J2,22,Pin_22*%
%TO.N,/Connectors/ROW9*%
X32750000Y-8250000D03*
%TO.P,J2,23,Pin_23*%
%TO.N,/Connectors/COL8*%
X27250000Y-8750000D03*
%TO.P,J2,24,Pin_24*%
%TO.N,GND*%
X32750000Y-8750000D03*
%TD*%
D13*
%TO.N,GND*%
X30250000Y-3250000D03*
X3750000Y-6250000D03*
X3750000Y-7250000D03*
X4250000Y-6750000D03*
X4250000Y-7750000D03*
X26000000Y-3250000D03*
X29750000Y-8750000D03*
%TO.N,/Connectors/ROW0*%
X29750000Y-3750000D03*
%TO.N,/Connectors/COL9*%
X25500000Y-3750000D03*
%TO.N,/Connectors/ROW1*%
X30250000Y-4250000D03*
%TO.N,/Connectors/COL10*%
X26000000Y-4250000D03*
%TO.N,/Connectors/ROW2*%
X29750000Y-4750000D03*
%TO.N,/Connectors/COL0*%
X25500000Y-4750000D03*
%TO.N,/Connectors/ROW3*%
X30250000Y-5250000D03*
%TO.N,/Connectors/COL1*%
X26000000Y-5250000D03*
%TO.N,/Connectors/ROW4*%
X29750000Y-5750000D03*
%TO.N,/Connectors/COL2*%
X25500000Y-5750000D03*
%TO.N,/Connectors/ROW5*%
X30250000Y-6250000D03*
%TO.N,/Connectors/COL3*%
X26000000Y-6250000D03*
%TO.N,/Connectors/ROW6*%
X29750000Y-6750000D03*
%TO.N,/Connectors/COL4*%
X25500000Y-6750000D03*
%TO.N,/Connectors/ROW7*%
X30250000Y-7250000D03*
%TO.N,/Connectors/COL5*%
X26000000Y-7250000D03*
%TO.N,/Connectors/ROW8*%
X29750000Y-7750000D03*
%TO.N,/Connectors/COL6*%
X25500000Y-7750000D03*
%TO.N,/Connectors/ROW9*%
X30250000Y-8250000D03*
%TO.N,/Connectors/COL7*%
X26000000Y-8250000D03*
%TO.N,/Connectors/COL8*%
X25500000Y-8750000D03*
%TO.N,/Connectors/SDA*%
X8250000Y-3250000D03*
%TO.N,VCC*%
X4250000Y-4750000D03*
X3750000Y-5250000D03*
X3750000Y-4250000D03*
X4250000Y-5750000D03*
X3750000Y-3250000D03*
%TO.N,/Connectors/SCL*%
X8750000Y-3750000D03*
%TO.N,VCC*%
X4250000Y-3750000D03*
%TO.N,GND*%
X8250000Y-4250000D03*
%TO.N,/Connectors/INT1*%
X8750000Y-4750000D03*
%TO.N,/Connectors/SWDIO*%
X8250000Y-5250000D03*
%TO.N,/Connectors/SWDCLK*%
X8750000Y-5750000D03*
%TO.N,/Connectors/BUTTON*%
X8750000Y-6750000D03*
%TO.N,/Connectors/RESET*%
X8250000Y-6250000D03*
%TO.N,/Connectors/LED0*%
X8250000Y-7250000D03*
%TO.N,/Connectors/LED1*%
X8750000Y-7750000D03*
%TO.N,/Connectors/LED2*%
X8250000Y-8250000D03*
%TO.N,GND*%
X3750000Y-8250000D03*
%TO.N,/Connectors/LED3*%
X8750000Y-8750000D03*
%TO.N,GND*%
X4250000Y-8750000D03*
%TD*%
D14*
%TO.N,/Connectors/LED0*%
X9858345Y-7250000D02*
X8250000Y-7250000D01*
X17000000Y11410000D02*
X17000000Y-108345D01*
X20750000Y15160000D02*
X17000000Y11410000D01*
X17000000Y-108345D02*
X9858345Y-7250000D01*
%TO.N,/Connectors/LED1*%
X17500000Y-250000D02*
X17500000Y9370000D01*
X10000000Y-7750000D02*
X17500000Y-250000D01*
X8750000Y-7750000D02*
X10000000Y-7750000D01*
X17500000Y9370000D02*
X20750000Y12620000D01*
%TO.N,/Connectors/LED2*%
X18000000Y7330000D02*
X20750000Y10080000D01*
X18000000Y-500000D02*
X18000000Y7330000D01*
X10250000Y-8250000D02*
X18000000Y-500000D01*
X8250000Y-8250000D02*
X10250000Y-8250000D01*
%TO.N,/Connectors/LED3*%
X18500000Y5290000D02*
X20750000Y7540000D01*
X8750000Y-8750000D02*
X10500000Y-8750000D01*
X10500000Y-8750000D02*
X18500000Y-750000D01*
X18500000Y-750000D02*
X18500000Y5290000D01*
%TO.N,/Connectors/BUTTON*%
X11250000Y-5250000D02*
X9750000Y-6750000D01*
X9750000Y-6750000D02*
X8750000Y-6750000D01*
X11250000Y4790000D02*
X11250000Y-5250000D01*
X14000000Y7540000D02*
X11250000Y4790000D01*
%TO.N,/Connectors/SWDCLK*%
X10250000Y-4750000D02*
X10250000Y8870000D01*
X9250000Y-5750000D02*
X10250000Y-4750000D01*
X8750000Y-5750000D02*
X9250000Y-5750000D01*
X10250000Y8870000D02*
X14000000Y12620000D01*
%TO.N,/Connectors/RESET*%
X10750000Y6830000D02*
X14000000Y10080000D01*
X9500000Y-6250000D02*
X10750000Y-5000000D01*
X8250000Y-6250000D02*
X9500000Y-6250000D01*
X10750000Y-5000000D02*
X10750000Y6830000D01*
%TO.N,/Connectors/SWDIO*%
X9750000Y10910000D02*
X14000000Y15160000D01*
X9750000Y-4457107D02*
X9750000Y10910000D01*
X8250000Y-5250000D02*
X8957107Y-5250000D01*
X8957107Y-5250000D02*
X9750000Y-4457107D01*
%TO.N,/Connectors/INT1*%
X9250000Y12950000D02*
X14000000Y17700000D01*
X9250000Y-4250000D02*
X9250000Y12950000D01*
X8750000Y-4750000D02*
X9250000Y-4250000D01*
%TO.N,/Connectors/SCL*%
X8750000Y14990000D02*
X14000000Y20240000D01*
X8750000Y-3750000D02*
X8750000Y14990000D01*
%TO.N,/Connectors/SDA*%
X8250000Y17030000D02*
X14000000Y22780000D01*
X8250000Y-3250000D02*
X8250000Y17030000D01*
X6750000Y-3250000D02*
X8250000Y-3250000D01*
%TO.N,GND*%
X1250000Y-8250000D02*
X3750000Y-8250000D01*
X1250000Y-7250000D02*
X3750000Y-7250000D01*
X4250000Y-6750000D02*
X1250000Y-6750000D01*
X26000000Y-3250000D02*
X27250000Y-3250000D01*
X1250000Y-6250000D02*
X3750000Y-6250000D01*
X30250000Y-3250000D02*
X32750000Y-3250000D01*
X29750000Y-8750000D02*
X32750000Y-8750000D01*
X4250000Y-7750000D02*
X1250000Y-7750000D01*
%TO.N,/Connectors/ROW0*%
X29750000Y-3750000D02*
X32750000Y-3750000D01*
%TO.N,/Connectors/COL9*%
X25500000Y-3750000D02*
X27250000Y-3750000D01*
%TO.N,/Connectors/ROW1*%
X30250000Y-4250000D02*
X32750000Y-4250000D01*
%TO.N,/Connectors/COL10*%
X26000000Y-4250000D02*
X27250000Y-4250000D01*
%TO.N,/Connectors/ROW2*%
X29750000Y-4750000D02*
X32750000Y-4750000D01*
%TO.N,/Connectors/COL0*%
X25500000Y-4750000D02*
X27250000Y-4750000D01*
%TO.N,/Connectors/ROW3*%
X30250000Y-5250000D02*
X32750000Y-5250000D01*
%TO.N,/Connectors/COL1*%
X26000000Y-5250000D02*
X27250000Y-5250000D01*
%TO.N,/Connectors/ROW4*%
X29750000Y-5750000D02*
X32750000Y-5750000D01*
%TO.N,/Connectors/COL2*%
X25500000Y-5750000D02*
X27250000Y-5750000D01*
%TO.N,/Connectors/ROW5*%
X30250000Y-6250000D02*
X32750000Y-6250000D01*
%TO.N,/Connectors/COL3*%
X26000000Y-6250000D02*
X27250000Y-6250000D01*
%TO.N,/Connectors/ROW6*%
X29750000Y-6750000D02*
X32750000Y-6750000D01*
%TO.N,/Connectors/COL4*%
X25500000Y-6750000D02*
X27250000Y-6750000D01*
%TO.N,/Connectors/ROW7*%
X30250000Y-7250000D02*
X32750000Y-7250000D01*
%TO.N,/Connectors/COL5*%
X26000000Y-7250000D02*
X27250000Y-7250000D01*
%TO.N,/Connectors/ROW8*%
X29750000Y-7750000D02*
X32750000Y-7750000D01*
%TO.N,/Connectors/COL6*%
X25500000Y-7750000D02*
X27250000Y-7750000D01*
%TO.N,/Connectors/ROW9*%
X30250000Y-8250000D02*
X32750000Y-8250000D01*
%TO.N,/Connectors/COL7*%
X26000000Y-8250000D02*
X27250000Y-8250000D01*
%TO.N,/Connectors/COL8*%
X25500000Y-8750000D02*
X27250000Y-8750000D01*
%TO.N,VCC*%
X4250000Y-4750000D02*
X1250000Y-4750000D01*
X1250000Y-4250000D02*
X3750000Y-4250000D01*
X1250000Y-5250000D02*
X3750000Y-5250000D01*
X4250000Y-5750000D02*
X1250000Y-5750000D01*
X1250000Y-3250000D02*
X3750000Y-3250000D01*
%TO.N,/Connectors/SCL*%
X6750000Y-3750000D02*
X8750000Y-3750000D01*
%TO.N,VCC*%
X4250000Y-3750000D02*
X1250000Y-3750000D01*
%TO.N,GND*%
X6750000Y-4250000D02*
X8250000Y-4250000D01*
%TO.N,/Connectors/INT1*%
X6750000Y-4750000D02*
X8750000Y-4750000D01*
%TO.N,/Connectors/SWDIO*%
X6750000Y-5250000D02*
X8250000Y-5250000D01*
%TO.N,/Connectors/SWDCLK*%
X6750000Y-5750000D02*
X8750000Y-5750000D01*
%TO.N,/Connectors/BUTTON*%
X6750000Y-6750000D02*
X8750000Y-6750000D01*
%TO.N,/Connectors/RESET*%
X6750000Y-6250000D02*
X8250000Y-6250000D01*
%TO.N,/Connectors/LED0*%
X6750000Y-7250000D02*
X8250000Y-7250000D01*
%TO.N,/Connectors/LED1*%
X6750000Y-7750000D02*
X8750000Y-7750000D01*
%TO.N,/Connectors/LED2*%
X6750000Y-8250000D02*
X8250000Y-8250000D01*
%TO.N,/Connectors/LED3*%
X6750000Y-8750000D02*
X8750000Y-8750000D01*
%TO.N,GND*%
X4250000Y-8750000D02*
X1250000Y-8750000D01*
%TD*%
M02*
