%TF.GenerationSoftware,KiCad,Pcbnew,7.0.8*%
%TF.CreationDate,2023-11-11T12:05:03+10:00*%
%TF.ProjectId,ProgrammingBoard,50726f67-7261-46d6-9d69-6e67426f6172,rev?*%
%TF.SameCoordinates,Original*%
%TF.FileFunction,Legend,Top*%
%TF.FilePolarity,Positive*%
%FSLAX46Y46*%
G04 Gerber Fmt 4.6, Leading zero omitted, Abs format (unit mm)*
G04 Created by KiCad (PCBNEW 7.0.8) date 2023-11-11 12:05:03*
%MOMM*%
%LPD*%
G01*
G04 APERTURE LIST*
G04 Aperture macros list*
%AMRoundRect*
0 Rectangle with rounded corners*
0 $1 Rounding radius*
0 $2 $3 $4 $5 $6 $7 $8 $9 X,Y pos of 4 corners*
0 Add a 4 corners polygon primitive as box body*
4,1,4,$2,$3,$4,$5,$6,$7,$8,$9,$2,$3,0*
0 Add four circle primitives for the rounded corners*
1,1,$1+$1,$2,$3*
1,1,$1+$1,$4,$5*
1,1,$1+$1,$6,$7*
1,1,$1+$1,$8,$9*
0 Add four rect primitives between the rounded corners*
20,1,$1+$1,$2,$3,$4,$5,0*
20,1,$1+$1,$4,$5,$6,$7,0*
20,1,$1+$1,$6,$7,$8,$9,0*
20,1,$1+$1,$8,$9,$2,$3,0*%
G04 Aperture macros list end*
%ADD10C,0.150000*%
%ADD11C,0.120000*%
%ADD12C,0.100000*%
%ADD13C,0.250000*%
%ADD14R,1.700000X1.700000*%
%ADD15O,1.700000X1.700000*%
%ADD16RoundRect,0.062500X-0.587500X-0.062500X0.587500X-0.062500X0.587500X0.062500X-0.587500X0.062500X0*%
G04 APERTURE END LIST*
D10*
X5539160Y12092800D02*
X5682017Y12045181D01*
X5682017Y12045181D02*
X5920112Y12045181D01*
X5920112Y12045181D02*
X6015350Y12092800D01*
X6015350Y12092800D02*
X6062969Y12140420D01*
X6062969Y12140420D02*
X6110588Y12235658D01*
X6110588Y12235658D02*
X6110588Y12330896D01*
X6110588Y12330896D02*
X6062969Y12426134D01*
X6062969Y12426134D02*
X6015350Y12473753D01*
X6015350Y12473753D02*
X5920112Y12521372D01*
X5920112Y12521372D02*
X5729636Y12568991D01*
X5729636Y12568991D02*
X5634398Y12616610D01*
X5634398Y12616610D02*
X5586779Y12664229D01*
X5586779Y12664229D02*
X5539160Y12759467D01*
X5539160Y12759467D02*
X5539160Y12854705D01*
X5539160Y12854705D02*
X5586779Y12949943D01*
X5586779Y12949943D02*
X5634398Y12997562D01*
X5634398Y12997562D02*
X5729636Y13045181D01*
X5729636Y13045181D02*
X5967731Y13045181D01*
X5967731Y13045181D02*
X6110588Y12997562D01*
X6443922Y13045181D02*
X6682017Y12045181D01*
X6682017Y12045181D02*
X6872493Y12759467D01*
X6872493Y12759467D02*
X7062969Y12045181D01*
X7062969Y12045181D02*
X7301065Y13045181D01*
X7682017Y12045181D02*
X7682017Y13045181D01*
X7682017Y13045181D02*
X7920112Y13045181D01*
X7920112Y13045181D02*
X8062969Y12997562D01*
X8062969Y12997562D02*
X8158207Y12902324D01*
X8158207Y12902324D02*
X8205826Y12807086D01*
X8205826Y12807086D02*
X8253445Y12616610D01*
X8253445Y12616610D02*
X8253445Y12473753D01*
X8253445Y12473753D02*
X8205826Y12283277D01*
X8205826Y12283277D02*
X8158207Y12188039D01*
X8158207Y12188039D02*
X8062969Y12092800D01*
X8062969Y12092800D02*
X7920112Y12045181D01*
X7920112Y12045181D02*
X7682017Y12045181D01*
X9253445Y12140420D02*
X9205826Y12092800D01*
X9205826Y12092800D02*
X9062969Y12045181D01*
X9062969Y12045181D02*
X8967731Y12045181D01*
X8967731Y12045181D02*
X8824874Y12092800D01*
X8824874Y12092800D02*
X8729636Y12188039D01*
X8729636Y12188039D02*
X8682017Y12283277D01*
X8682017Y12283277D02*
X8634398Y12473753D01*
X8634398Y12473753D02*
X8634398Y12616610D01*
X8634398Y12616610D02*
X8682017Y12807086D01*
X8682017Y12807086D02*
X8729636Y12902324D01*
X8729636Y12902324D02*
X8824874Y12997562D01*
X8824874Y12997562D02*
X8967731Y13045181D01*
X8967731Y13045181D02*
X9062969Y13045181D01*
X9062969Y13045181D02*
X9205826Y12997562D01*
X9205826Y12997562D02*
X9253445Y12949943D01*
X10158207Y12045181D02*
X9682017Y12045181D01*
X9682017Y12045181D02*
X9682017Y13045181D01*
X10491541Y12045181D02*
X10491541Y13045181D01*
X11062969Y12045181D02*
X10634398Y12616610D01*
X11062969Y13045181D02*
X10491541Y12473753D01*
X21532268Y2906848D02*
X21770363Y2240181D01*
X21770363Y2240181D02*
X22008458Y2906848D01*
X22913220Y2240181D02*
X22341792Y2240181D01*
X22627506Y2240181D02*
X22627506Y3240181D01*
X22627506Y3240181D02*
X22532268Y3097324D01*
X22532268Y3097324D02*
X22437030Y3002086D01*
X22437030Y3002086D02*
X22341792Y2954467D01*
X23341792Y2335420D02*
X23389411Y2287800D01*
X23389411Y2287800D02*
X23341792Y2240181D01*
X23341792Y2240181D02*
X23294173Y2287800D01*
X23294173Y2287800D02*
X23341792Y2335420D01*
X23341792Y2335420D02*
X23341792Y2240181D01*
X24008458Y3240181D02*
X24103696Y3240181D01*
X24103696Y3240181D02*
X24198934Y3192562D01*
X24198934Y3192562D02*
X24246553Y3144943D01*
X24246553Y3144943D02*
X24294172Y3049705D01*
X24294172Y3049705D02*
X24341791Y2859229D01*
X24341791Y2859229D02*
X24341791Y2621134D01*
X24341791Y2621134D02*
X24294172Y2430658D01*
X24294172Y2430658D02*
X24246553Y2335420D01*
X24246553Y2335420D02*
X24198934Y2287800D01*
X24198934Y2287800D02*
X24103696Y2240181D01*
X24103696Y2240181D02*
X24008458Y2240181D01*
X24008458Y2240181D02*
X23913220Y2287800D01*
X23913220Y2287800D02*
X23865601Y2335420D01*
X23865601Y2335420D02*
X23817982Y2430658D01*
X23817982Y2430658D02*
X23770363Y2621134D01*
X23770363Y2621134D02*
X23770363Y2859229D01*
X23770363Y2859229D02*
X23817982Y3049705D01*
X23817982Y3049705D02*
X23865601Y3144943D01*
X23865601Y3144943D02*
X23913220Y3192562D01*
X23913220Y3192562D02*
X24008458Y3240181D01*
X25532268Y2240181D02*
X25532268Y3240181D01*
X25532268Y3240181D02*
X26103696Y2240181D01*
X26103696Y2240181D02*
X26103696Y3240181D01*
X26722744Y2240181D02*
X26627506Y2287800D01*
X26627506Y2287800D02*
X26579887Y2335420D01*
X26579887Y2335420D02*
X26532268Y2430658D01*
X26532268Y2430658D02*
X26532268Y2716372D01*
X26532268Y2716372D02*
X26579887Y2811610D01*
X26579887Y2811610D02*
X26627506Y2859229D01*
X26627506Y2859229D02*
X26722744Y2906848D01*
X26722744Y2906848D02*
X26865601Y2906848D01*
X26865601Y2906848D02*
X26960839Y2859229D01*
X26960839Y2859229D02*
X27008458Y2811610D01*
X27008458Y2811610D02*
X27056077Y2716372D01*
X27056077Y2716372D02*
X27056077Y2430658D01*
X27056077Y2430658D02*
X27008458Y2335420D01*
X27008458Y2335420D02*
X26960839Y2287800D01*
X26960839Y2287800D02*
X26865601Y2240181D01*
X26865601Y2240181D02*
X26722744Y2240181D01*
X27389411Y2906848D02*
X27627506Y2240181D01*
X27627506Y2240181D02*
X27865601Y2906848D01*
X28246554Y2621134D02*
X29008459Y2621134D01*
X29437030Y3144943D02*
X29484649Y3192562D01*
X29484649Y3192562D02*
X29579887Y3240181D01*
X29579887Y3240181D02*
X29817982Y3240181D01*
X29817982Y3240181D02*
X29913220Y3192562D01*
X29913220Y3192562D02*
X29960839Y3144943D01*
X29960839Y3144943D02*
X30008458Y3049705D01*
X30008458Y3049705D02*
X30008458Y2954467D01*
X30008458Y2954467D02*
X29960839Y2811610D01*
X29960839Y2811610D02*
X29389411Y2240181D01*
X29389411Y2240181D02*
X30008458Y2240181D01*
X30341792Y3240181D02*
X30960839Y3240181D01*
X30960839Y3240181D02*
X30627506Y2859229D01*
X30627506Y2859229D02*
X30770363Y2859229D01*
X30770363Y2859229D02*
X30865601Y2811610D01*
X30865601Y2811610D02*
X30913220Y2763991D01*
X30913220Y2763991D02*
X30960839Y2668753D01*
X30960839Y2668753D02*
X30960839Y2430658D01*
X30960839Y2430658D02*
X30913220Y2335420D01*
X30913220Y2335420D02*
X30865601Y2287800D01*
X30865601Y2287800D02*
X30770363Y2240181D01*
X30770363Y2240181D02*
X30484649Y2240181D01*
X30484649Y2240181D02*
X30389411Y2287800D01*
X30389411Y2287800D02*
X30341792Y2335420D01*
X20103694Y249229D02*
X20056075Y296848D01*
X20056075Y296848D02*
X19960837Y439705D01*
X19960837Y439705D02*
X19913218Y534943D01*
X19913218Y534943D02*
X19865599Y677800D01*
X19865599Y677800D02*
X19817980Y915896D01*
X19817980Y915896D02*
X19817980Y1106372D01*
X19817980Y1106372D02*
X19865599Y1344467D01*
X19865599Y1344467D02*
X19913218Y1487324D01*
X19913218Y1487324D02*
X19960837Y1582562D01*
X19960837Y1582562D02*
X20056075Y1725420D01*
X20056075Y1725420D02*
X20103694Y1773039D01*
X20913218Y677800D02*
X20817980Y630181D01*
X20817980Y630181D02*
X20627504Y630181D01*
X20627504Y630181D02*
X20532266Y677800D01*
X20532266Y677800D02*
X20484647Y725420D01*
X20484647Y725420D02*
X20437028Y820658D01*
X20437028Y820658D02*
X20437028Y1106372D01*
X20437028Y1106372D02*
X20484647Y1201610D01*
X20484647Y1201610D02*
X20532266Y1249229D01*
X20532266Y1249229D02*
X20627504Y1296848D01*
X20627504Y1296848D02*
X20817980Y1296848D01*
X20817980Y1296848D02*
X20913218Y1249229D01*
X21246552Y249229D02*
X21294171Y296848D01*
X21294171Y296848D02*
X21389409Y439705D01*
X21389409Y439705D02*
X21437028Y534943D01*
X21437028Y534943D02*
X21484647Y677800D01*
X21484647Y677800D02*
X21532266Y915896D01*
X21532266Y915896D02*
X21532266Y1106372D01*
X21532266Y1106372D02*
X21484647Y1344467D01*
X21484647Y1344467D02*
X21437028Y1487324D01*
X21437028Y1487324D02*
X21389409Y1582562D01*
X21389409Y1582562D02*
X21294171Y1725420D01*
X21294171Y1725420D02*
X21246552Y1773039D01*
X23151314Y677800D02*
X23056076Y630181D01*
X23056076Y630181D02*
X22865600Y630181D01*
X22865600Y630181D02*
X22770362Y677800D01*
X22770362Y677800D02*
X22722743Y773039D01*
X22722743Y773039D02*
X22722743Y1153991D01*
X22722743Y1153991D02*
X22770362Y1249229D01*
X22770362Y1249229D02*
X22865600Y1296848D01*
X22865600Y1296848D02*
X23056076Y1296848D01*
X23056076Y1296848D02*
X23151314Y1249229D01*
X23151314Y1249229D02*
X23198933Y1153991D01*
X23198933Y1153991D02*
X23198933Y1058753D01*
X23198933Y1058753D02*
X22722743Y963515D01*
X24056076Y1296848D02*
X24056076Y487324D01*
X24056076Y487324D02*
X24008457Y392086D01*
X24008457Y392086D02*
X23960838Y344467D01*
X23960838Y344467D02*
X23865600Y296848D01*
X23865600Y296848D02*
X23722743Y296848D01*
X23722743Y296848D02*
X23627505Y344467D01*
X24056076Y677800D02*
X23960838Y630181D01*
X23960838Y630181D02*
X23770362Y630181D01*
X23770362Y630181D02*
X23675124Y677800D01*
X23675124Y677800D02*
X23627505Y725420D01*
X23627505Y725420D02*
X23579886Y820658D01*
X23579886Y820658D02*
X23579886Y1106372D01*
X23579886Y1106372D02*
X23627505Y1201610D01*
X23627505Y1201610D02*
X23675124Y1249229D01*
X23675124Y1249229D02*
X23770362Y1296848D01*
X23770362Y1296848D02*
X23960838Y1296848D01*
X23960838Y1296848D02*
X24056076Y1249229D01*
X24960838Y1296848D02*
X24960838Y487324D01*
X24960838Y487324D02*
X24913219Y392086D01*
X24913219Y392086D02*
X24865600Y344467D01*
X24865600Y344467D02*
X24770362Y296848D01*
X24770362Y296848D02*
X24627505Y296848D01*
X24627505Y296848D02*
X24532267Y344467D01*
X24960838Y677800D02*
X24865600Y630181D01*
X24865600Y630181D02*
X24675124Y630181D01*
X24675124Y630181D02*
X24579886Y677800D01*
X24579886Y677800D02*
X24532267Y725420D01*
X24532267Y725420D02*
X24484648Y820658D01*
X24484648Y820658D02*
X24484648Y1106372D01*
X24484648Y1106372D02*
X24532267Y1201610D01*
X24532267Y1201610D02*
X24579886Y1249229D01*
X24579886Y1249229D02*
X24675124Y1296848D01*
X24675124Y1296848D02*
X24865600Y1296848D01*
X24865600Y1296848D02*
X24960838Y1249229D01*
X25389410Y677800D02*
X25484648Y630181D01*
X25484648Y630181D02*
X25675124Y630181D01*
X25675124Y630181D02*
X25770362Y677800D01*
X25770362Y677800D02*
X25817981Y773039D01*
X25817981Y773039D02*
X25817981Y820658D01*
X25817981Y820658D02*
X25770362Y915896D01*
X25770362Y915896D02*
X25675124Y963515D01*
X25675124Y963515D02*
X25532267Y963515D01*
X25532267Y963515D02*
X25437029Y1011134D01*
X25437029Y1011134D02*
X25389410Y1106372D01*
X25389410Y1106372D02*
X25389410Y1153991D01*
X25389410Y1153991D02*
X25437029Y1249229D01*
X25437029Y1249229D02*
X25532267Y1296848D01*
X25532267Y1296848D02*
X25675124Y1296848D01*
X25675124Y1296848D02*
X25770362Y1249229D01*
X26675124Y630181D02*
X26675124Y1153991D01*
X26675124Y1153991D02*
X26627505Y1249229D01*
X26627505Y1249229D02*
X26532267Y1296848D01*
X26532267Y1296848D02*
X26341791Y1296848D01*
X26341791Y1296848D02*
X26246553Y1249229D01*
X26675124Y677800D02*
X26579886Y630181D01*
X26579886Y630181D02*
X26341791Y630181D01*
X26341791Y630181D02*
X26246553Y677800D01*
X26246553Y677800D02*
X26198934Y773039D01*
X26198934Y773039D02*
X26198934Y868277D01*
X26198934Y868277D02*
X26246553Y963515D01*
X26246553Y963515D02*
X26341791Y1011134D01*
X26341791Y1011134D02*
X26579886Y1011134D01*
X26579886Y1011134D02*
X26675124Y1058753D01*
X27151315Y630181D02*
X27151315Y1296848D01*
X27151315Y1201610D02*
X27198934Y1249229D01*
X27198934Y1249229D02*
X27294172Y1296848D01*
X27294172Y1296848D02*
X27437029Y1296848D01*
X27437029Y1296848D02*
X27532267Y1249229D01*
X27532267Y1249229D02*
X27579886Y1153991D01*
X27579886Y1153991D02*
X27579886Y630181D01*
X27579886Y1153991D02*
X27627505Y1249229D01*
X27627505Y1249229D02*
X27722743Y1296848D01*
X27722743Y1296848D02*
X27865600Y1296848D01*
X27865600Y1296848D02*
X27960839Y1249229D01*
X27960839Y1249229D02*
X28008458Y1153991D01*
X28008458Y1153991D02*
X28008458Y630181D01*
X28484648Y1296848D02*
X28484648Y296848D01*
X28484648Y1249229D02*
X28579886Y1296848D01*
X28579886Y1296848D02*
X28770362Y1296848D01*
X28770362Y1296848D02*
X28865600Y1249229D01*
X28865600Y1249229D02*
X28913219Y1201610D01*
X28913219Y1201610D02*
X28960838Y1106372D01*
X28960838Y1106372D02*
X28960838Y820658D01*
X28960838Y820658D02*
X28913219Y725420D01*
X28913219Y725420D02*
X28865600Y677800D01*
X28865600Y677800D02*
X28770362Y630181D01*
X28770362Y630181D02*
X28579886Y630181D01*
X28579886Y630181D02*
X28484648Y677800D01*
X29532267Y630181D02*
X29437029Y677800D01*
X29437029Y677800D02*
X29389410Y773039D01*
X29389410Y773039D02*
X29389410Y1630181D01*
X30294172Y677800D02*
X30198934Y630181D01*
X30198934Y630181D02*
X30008458Y630181D01*
X30008458Y630181D02*
X29913220Y677800D01*
X29913220Y677800D02*
X29865601Y773039D01*
X29865601Y773039D02*
X29865601Y1153991D01*
X29865601Y1153991D02*
X29913220Y1249229D01*
X29913220Y1249229D02*
X30008458Y1296848D01*
X30008458Y1296848D02*
X30198934Y1296848D01*
X30198934Y1296848D02*
X30294172Y1249229D01*
X30294172Y1249229D02*
X30341791Y1153991D01*
X30341791Y1153991D02*
X30341791Y1058753D01*
X30341791Y1058753D02*
X29865601Y963515D01*
X30770363Y630181D02*
X30770363Y1296848D01*
X30770363Y1106372D02*
X30817982Y1201610D01*
X30817982Y1201610D02*
X30865601Y1249229D01*
X30865601Y1249229D02*
X30960839Y1296848D01*
X30960839Y1296848D02*
X31056077Y1296848D01*
X2991541Y3240181D02*
X3229636Y2240181D01*
X3229636Y2240181D02*
X3420112Y2954467D01*
X3420112Y2954467D02*
X3610588Y2240181D01*
X3610588Y2240181D02*
X3848684Y3240181D01*
X4372493Y2240181D02*
X4277255Y2287800D01*
X4277255Y2287800D02*
X4229636Y2335420D01*
X4229636Y2335420D02*
X4182017Y2430658D01*
X4182017Y2430658D02*
X4182017Y2716372D01*
X4182017Y2716372D02*
X4229636Y2811610D01*
X4229636Y2811610D02*
X4277255Y2859229D01*
X4277255Y2859229D02*
X4372493Y2906848D01*
X4372493Y2906848D02*
X4515350Y2906848D01*
X4515350Y2906848D02*
X4610588Y2859229D01*
X4610588Y2859229D02*
X4658207Y2811610D01*
X4658207Y2811610D02*
X4705826Y2716372D01*
X4705826Y2716372D02*
X4705826Y2430658D01*
X4705826Y2430658D02*
X4658207Y2335420D01*
X4658207Y2335420D02*
X4610588Y2287800D01*
X4610588Y2287800D02*
X4515350Y2240181D01*
X4515350Y2240181D02*
X4372493Y2240181D01*
X5134398Y2240181D02*
X5134398Y2906848D01*
X5134398Y2716372D02*
X5182017Y2811610D01*
X5182017Y2811610D02*
X5229636Y2859229D01*
X5229636Y2859229D02*
X5324874Y2906848D01*
X5324874Y2906848D02*
X5420112Y2906848D01*
X6182017Y2240181D02*
X6182017Y3240181D01*
X6182017Y2287800D02*
X6086779Y2240181D01*
X6086779Y2240181D02*
X5896303Y2240181D01*
X5896303Y2240181D02*
X5801065Y2287800D01*
X5801065Y2287800D02*
X5753446Y2335420D01*
X5753446Y2335420D02*
X5705827Y2430658D01*
X5705827Y2430658D02*
X5705827Y2716372D01*
X5705827Y2716372D02*
X5753446Y2811610D01*
X5753446Y2811610D02*
X5801065Y2859229D01*
X5801065Y2859229D02*
X5896303Y2906848D01*
X5896303Y2906848D02*
X6086779Y2906848D01*
X6086779Y2906848D02*
X6182017Y2859229D01*
X6562970Y3240181D02*
X6801065Y2240181D01*
X6801065Y2240181D02*
X6991541Y2954467D01*
X6991541Y2954467D02*
X7182017Y2240181D01*
X7182017Y2240181D02*
X7420113Y3240181D01*
X8229636Y2240181D02*
X8229636Y2763991D01*
X8229636Y2763991D02*
X8182017Y2859229D01*
X8182017Y2859229D02*
X8086779Y2906848D01*
X8086779Y2906848D02*
X7896303Y2906848D01*
X7896303Y2906848D02*
X7801065Y2859229D01*
X8229636Y2287800D02*
X8134398Y2240181D01*
X8134398Y2240181D02*
X7896303Y2240181D01*
X7896303Y2240181D02*
X7801065Y2287800D01*
X7801065Y2287800D02*
X7753446Y2383039D01*
X7753446Y2383039D02*
X7753446Y2478277D01*
X7753446Y2478277D02*
X7801065Y2573515D01*
X7801065Y2573515D02*
X7896303Y2621134D01*
X7896303Y2621134D02*
X8134398Y2621134D01*
X8134398Y2621134D02*
X8229636Y2668753D01*
X8562970Y2906848D02*
X8943922Y2906848D01*
X8705827Y3240181D02*
X8705827Y2383039D01*
X8705827Y2383039D02*
X8753446Y2287800D01*
X8753446Y2287800D02*
X8848684Y2240181D01*
X8848684Y2240181D02*
X8943922Y2240181D01*
X9705827Y2287800D02*
X9610589Y2240181D01*
X9610589Y2240181D02*
X9420113Y2240181D01*
X9420113Y2240181D02*
X9324875Y2287800D01*
X9324875Y2287800D02*
X9277256Y2335420D01*
X9277256Y2335420D02*
X9229637Y2430658D01*
X9229637Y2430658D02*
X9229637Y2716372D01*
X9229637Y2716372D02*
X9277256Y2811610D01*
X9277256Y2811610D02*
X9324875Y2859229D01*
X9324875Y2859229D02*
X9420113Y2906848D01*
X9420113Y2906848D02*
X9610589Y2906848D01*
X9610589Y2906848D02*
X9705827Y2859229D01*
X10134399Y2240181D02*
X10134399Y3240181D01*
X10562970Y2240181D02*
X10562970Y2763991D01*
X10562970Y2763991D02*
X10515351Y2859229D01*
X10515351Y2859229D02*
X10420113Y2906848D01*
X10420113Y2906848D02*
X10277256Y2906848D01*
X10277256Y2906848D02*
X10182018Y2859229D01*
X10182018Y2859229D02*
X10134399Y2811610D01*
X3086779Y630181D02*
X3086779Y1630181D01*
X3086779Y1630181D02*
X3467731Y1630181D01*
X3467731Y1630181D02*
X3562969Y1582562D01*
X3562969Y1582562D02*
X3610588Y1534943D01*
X3610588Y1534943D02*
X3658207Y1439705D01*
X3658207Y1439705D02*
X3658207Y1296848D01*
X3658207Y1296848D02*
X3610588Y1201610D01*
X3610588Y1201610D02*
X3562969Y1153991D01*
X3562969Y1153991D02*
X3467731Y1106372D01*
X3467731Y1106372D02*
X3086779Y1106372D01*
X4086779Y630181D02*
X4086779Y1296848D01*
X4086779Y1106372D02*
X4134398Y1201610D01*
X4134398Y1201610D02*
X4182017Y1249229D01*
X4182017Y1249229D02*
X4277255Y1296848D01*
X4277255Y1296848D02*
X4372493Y1296848D01*
X4848684Y630181D02*
X4753446Y677800D01*
X4753446Y677800D02*
X4705827Y725420D01*
X4705827Y725420D02*
X4658208Y820658D01*
X4658208Y820658D02*
X4658208Y1106372D01*
X4658208Y1106372D02*
X4705827Y1201610D01*
X4705827Y1201610D02*
X4753446Y1249229D01*
X4753446Y1249229D02*
X4848684Y1296848D01*
X4848684Y1296848D02*
X4991541Y1296848D01*
X4991541Y1296848D02*
X5086779Y1249229D01*
X5086779Y1249229D02*
X5134398Y1201610D01*
X5134398Y1201610D02*
X5182017Y1106372D01*
X5182017Y1106372D02*
X5182017Y820658D01*
X5182017Y820658D02*
X5134398Y725420D01*
X5134398Y725420D02*
X5086779Y677800D01*
X5086779Y677800D02*
X4991541Y630181D01*
X4991541Y630181D02*
X4848684Y630181D01*
X6039160Y1296848D02*
X6039160Y487324D01*
X6039160Y487324D02*
X5991541Y392086D01*
X5991541Y392086D02*
X5943922Y344467D01*
X5943922Y344467D02*
X5848684Y296848D01*
X5848684Y296848D02*
X5705827Y296848D01*
X5705827Y296848D02*
X5610589Y344467D01*
X6039160Y677800D02*
X5943922Y630181D01*
X5943922Y630181D02*
X5753446Y630181D01*
X5753446Y630181D02*
X5658208Y677800D01*
X5658208Y677800D02*
X5610589Y725420D01*
X5610589Y725420D02*
X5562970Y820658D01*
X5562970Y820658D02*
X5562970Y1106372D01*
X5562970Y1106372D02*
X5610589Y1201610D01*
X5610589Y1201610D02*
X5658208Y1249229D01*
X5658208Y1249229D02*
X5753446Y1296848D01*
X5753446Y1296848D02*
X5943922Y1296848D01*
X5943922Y1296848D02*
X6039160Y1249229D01*
X6515351Y630181D02*
X6515351Y1296848D01*
X6515351Y1106372D02*
X6562970Y1201610D01*
X6562970Y1201610D02*
X6610589Y1249229D01*
X6610589Y1249229D02*
X6705827Y1296848D01*
X6705827Y1296848D02*
X6801065Y1296848D01*
X7562970Y630181D02*
X7562970Y1153991D01*
X7562970Y1153991D02*
X7515351Y1249229D01*
X7515351Y1249229D02*
X7420113Y1296848D01*
X7420113Y1296848D02*
X7229637Y1296848D01*
X7229637Y1296848D02*
X7134399Y1249229D01*
X7562970Y677800D02*
X7467732Y630181D01*
X7467732Y630181D02*
X7229637Y630181D01*
X7229637Y630181D02*
X7134399Y677800D01*
X7134399Y677800D02*
X7086780Y773039D01*
X7086780Y773039D02*
X7086780Y868277D01*
X7086780Y868277D02*
X7134399Y963515D01*
X7134399Y963515D02*
X7229637Y1011134D01*
X7229637Y1011134D02*
X7467732Y1011134D01*
X7467732Y1011134D02*
X7562970Y1058753D01*
X8039161Y630181D02*
X8039161Y1296848D01*
X8039161Y1201610D02*
X8086780Y1249229D01*
X8086780Y1249229D02*
X8182018Y1296848D01*
X8182018Y1296848D02*
X8324875Y1296848D01*
X8324875Y1296848D02*
X8420113Y1249229D01*
X8420113Y1249229D02*
X8467732Y1153991D01*
X8467732Y1153991D02*
X8467732Y630181D01*
X8467732Y1153991D02*
X8515351Y1249229D01*
X8515351Y1249229D02*
X8610589Y1296848D01*
X8610589Y1296848D02*
X8753446Y1296848D01*
X8753446Y1296848D02*
X8848685Y1249229D01*
X8848685Y1249229D02*
X8896304Y1153991D01*
X8896304Y1153991D02*
X8896304Y630181D01*
X9372494Y630181D02*
X9372494Y1296848D01*
X9372494Y1201610D02*
X9420113Y1249229D01*
X9420113Y1249229D02*
X9515351Y1296848D01*
X9515351Y1296848D02*
X9658208Y1296848D01*
X9658208Y1296848D02*
X9753446Y1249229D01*
X9753446Y1249229D02*
X9801065Y1153991D01*
X9801065Y1153991D02*
X9801065Y630181D01*
X9801065Y1153991D02*
X9848684Y1249229D01*
X9848684Y1249229D02*
X9943922Y1296848D01*
X9943922Y1296848D02*
X10086779Y1296848D01*
X10086779Y1296848D02*
X10182018Y1249229D01*
X10182018Y1249229D02*
X10229637Y1153991D01*
X10229637Y1153991D02*
X10229637Y630181D01*
X10705827Y630181D02*
X10705827Y1296848D01*
X10705827Y1630181D02*
X10658208Y1582562D01*
X10658208Y1582562D02*
X10705827Y1534943D01*
X10705827Y1534943D02*
X10753446Y1582562D01*
X10753446Y1582562D02*
X10705827Y1630181D01*
X10705827Y1630181D02*
X10705827Y1534943D01*
X11182017Y1296848D02*
X11182017Y630181D01*
X11182017Y1201610D02*
X11229636Y1249229D01*
X11229636Y1249229D02*
X11324874Y1296848D01*
X11324874Y1296848D02*
X11467731Y1296848D01*
X11467731Y1296848D02*
X11562969Y1249229D01*
X11562969Y1249229D02*
X11610588Y1153991D01*
X11610588Y1153991D02*
X11610588Y630181D01*
X12515350Y1296848D02*
X12515350Y487324D01*
X12515350Y487324D02*
X12467731Y392086D01*
X12467731Y392086D02*
X12420112Y344467D01*
X12420112Y344467D02*
X12324874Y296848D01*
X12324874Y296848D02*
X12182017Y296848D01*
X12182017Y296848D02*
X12086779Y344467D01*
X12515350Y677800D02*
X12420112Y630181D01*
X12420112Y630181D02*
X12229636Y630181D01*
X12229636Y630181D02*
X12134398Y677800D01*
X12134398Y677800D02*
X12086779Y725420D01*
X12086779Y725420D02*
X12039160Y820658D01*
X12039160Y820658D02*
X12039160Y1106372D01*
X12039160Y1106372D02*
X12086779Y1201610D01*
X12086779Y1201610D02*
X12134398Y1249229D01*
X12134398Y1249229D02*
X12229636Y1296848D01*
X12229636Y1296848D02*
X12420112Y1296848D01*
X12420112Y1296848D02*
X12515350Y1249229D01*
X14086779Y1153991D02*
X14229636Y1106372D01*
X14229636Y1106372D02*
X14277255Y1058753D01*
X14277255Y1058753D02*
X14324874Y963515D01*
X14324874Y963515D02*
X14324874Y820658D01*
X14324874Y820658D02*
X14277255Y725420D01*
X14277255Y725420D02*
X14229636Y677800D01*
X14229636Y677800D02*
X14134398Y630181D01*
X14134398Y630181D02*
X13753446Y630181D01*
X13753446Y630181D02*
X13753446Y1630181D01*
X13753446Y1630181D02*
X14086779Y1630181D01*
X14086779Y1630181D02*
X14182017Y1582562D01*
X14182017Y1582562D02*
X14229636Y1534943D01*
X14229636Y1534943D02*
X14277255Y1439705D01*
X14277255Y1439705D02*
X14277255Y1344467D01*
X14277255Y1344467D02*
X14229636Y1249229D01*
X14229636Y1249229D02*
X14182017Y1201610D01*
X14182017Y1201610D02*
X14086779Y1153991D01*
X14086779Y1153991D02*
X13753446Y1153991D01*
X14896303Y630181D02*
X14801065Y677800D01*
X14801065Y677800D02*
X14753446Y725420D01*
X14753446Y725420D02*
X14705827Y820658D01*
X14705827Y820658D02*
X14705827Y1106372D01*
X14705827Y1106372D02*
X14753446Y1201610D01*
X14753446Y1201610D02*
X14801065Y1249229D01*
X14801065Y1249229D02*
X14896303Y1296848D01*
X14896303Y1296848D02*
X15039160Y1296848D01*
X15039160Y1296848D02*
X15134398Y1249229D01*
X15134398Y1249229D02*
X15182017Y1201610D01*
X15182017Y1201610D02*
X15229636Y1106372D01*
X15229636Y1106372D02*
X15229636Y820658D01*
X15229636Y820658D02*
X15182017Y725420D01*
X15182017Y725420D02*
X15134398Y677800D01*
X15134398Y677800D02*
X15039160Y630181D01*
X15039160Y630181D02*
X14896303Y630181D01*
X16086779Y630181D02*
X16086779Y1153991D01*
X16086779Y1153991D02*
X16039160Y1249229D01*
X16039160Y1249229D02*
X15943922Y1296848D01*
X15943922Y1296848D02*
X15753446Y1296848D01*
X15753446Y1296848D02*
X15658208Y1249229D01*
X16086779Y677800D02*
X15991541Y630181D01*
X15991541Y630181D02*
X15753446Y630181D01*
X15753446Y630181D02*
X15658208Y677800D01*
X15658208Y677800D02*
X15610589Y773039D01*
X15610589Y773039D02*
X15610589Y868277D01*
X15610589Y868277D02*
X15658208Y963515D01*
X15658208Y963515D02*
X15753446Y1011134D01*
X15753446Y1011134D02*
X15991541Y1011134D01*
X15991541Y1011134D02*
X16086779Y1058753D01*
X16562970Y630181D02*
X16562970Y1296848D01*
X16562970Y1106372D02*
X16610589Y1201610D01*
X16610589Y1201610D02*
X16658208Y1249229D01*
X16658208Y1249229D02*
X16753446Y1296848D01*
X16753446Y1296848D02*
X16848684Y1296848D01*
X17610589Y630181D02*
X17610589Y1630181D01*
X17610589Y677800D02*
X17515351Y630181D01*
X17515351Y630181D02*
X17324875Y630181D01*
X17324875Y630181D02*
X17229637Y677800D01*
X17229637Y677800D02*
X17182018Y725420D01*
X17182018Y725420D02*
X17134399Y820658D01*
X17134399Y820658D02*
X17134399Y1106372D01*
X17134399Y1106372D02*
X17182018Y1201610D01*
X17182018Y1201610D02*
X17229637Y1249229D01*
X17229637Y1249229D02*
X17324875Y1296848D01*
X17324875Y1296848D02*
X17515351Y1296848D01*
X17515351Y1296848D02*
X17610589Y1249229D01*
X8282268Y22342800D02*
X8425125Y22295181D01*
X8425125Y22295181D02*
X8663220Y22295181D01*
X8663220Y22295181D02*
X8758458Y22342800D01*
X8758458Y22342800D02*
X8806077Y22390420D01*
X8806077Y22390420D02*
X8853696Y22485658D01*
X8853696Y22485658D02*
X8853696Y22580896D01*
X8853696Y22580896D02*
X8806077Y22676134D01*
X8806077Y22676134D02*
X8758458Y22723753D01*
X8758458Y22723753D02*
X8663220Y22771372D01*
X8663220Y22771372D02*
X8472744Y22818991D01*
X8472744Y22818991D02*
X8377506Y22866610D01*
X8377506Y22866610D02*
X8329887Y22914229D01*
X8329887Y22914229D02*
X8282268Y23009467D01*
X8282268Y23009467D02*
X8282268Y23104705D01*
X8282268Y23104705D02*
X8329887Y23199943D01*
X8329887Y23199943D02*
X8377506Y23247562D01*
X8377506Y23247562D02*
X8472744Y23295181D01*
X8472744Y23295181D02*
X8710839Y23295181D01*
X8710839Y23295181D02*
X8853696Y23247562D01*
X9282268Y22295181D02*
X9282268Y23295181D01*
X9282268Y23295181D02*
X9520363Y23295181D01*
X9520363Y23295181D02*
X9663220Y23247562D01*
X9663220Y23247562D02*
X9758458Y23152324D01*
X9758458Y23152324D02*
X9806077Y23057086D01*
X9806077Y23057086D02*
X9853696Y22866610D01*
X9853696Y22866610D02*
X9853696Y22723753D01*
X9853696Y22723753D02*
X9806077Y22533277D01*
X9806077Y22533277D02*
X9758458Y22438039D01*
X9758458Y22438039D02*
X9663220Y22342800D01*
X9663220Y22342800D02*
X9520363Y22295181D01*
X9520363Y22295181D02*
X9282268Y22295181D01*
X10234649Y22580896D02*
X10710839Y22580896D01*
X10139411Y22295181D02*
X10472744Y23295181D01*
X10472744Y23295181D02*
X10806077Y22295181D01*
X21562969Y7045181D02*
X21086779Y7045181D01*
X21086779Y7045181D02*
X21086779Y8045181D01*
X21896303Y7568991D02*
X22229636Y7568991D01*
X22372493Y7045181D02*
X21896303Y7045181D01*
X21896303Y7045181D02*
X21896303Y8045181D01*
X21896303Y8045181D02*
X22372493Y8045181D01*
X22801065Y7045181D02*
X22801065Y8045181D01*
X22801065Y8045181D02*
X23039160Y8045181D01*
X23039160Y8045181D02*
X23182017Y7997562D01*
X23182017Y7997562D02*
X23277255Y7902324D01*
X23277255Y7902324D02*
X23324874Y7807086D01*
X23324874Y7807086D02*
X23372493Y7616610D01*
X23372493Y7616610D02*
X23372493Y7473753D01*
X23372493Y7473753D02*
X23324874Y7283277D01*
X23324874Y7283277D02*
X23277255Y7188039D01*
X23277255Y7188039D02*
X23182017Y7092800D01*
X23182017Y7092800D02*
X23039160Y7045181D01*
X23039160Y7045181D02*
X22801065Y7045181D01*
X23705827Y8045181D02*
X24324874Y8045181D01*
X24324874Y8045181D02*
X23991541Y7664229D01*
X23991541Y7664229D02*
X24134398Y7664229D01*
X24134398Y7664229D02*
X24229636Y7616610D01*
X24229636Y7616610D02*
X24277255Y7568991D01*
X24277255Y7568991D02*
X24324874Y7473753D01*
X24324874Y7473753D02*
X24324874Y7235658D01*
X24324874Y7235658D02*
X24277255Y7140420D01*
X24277255Y7140420D02*
X24229636Y7092800D01*
X24229636Y7092800D02*
X24134398Y7045181D01*
X24134398Y7045181D02*
X23848684Y7045181D01*
X23848684Y7045181D02*
X23753446Y7092800D01*
X23753446Y7092800D02*
X23705827Y7140420D01*
X6789160Y14592800D02*
X6932017Y14545181D01*
X6932017Y14545181D02*
X7170112Y14545181D01*
X7170112Y14545181D02*
X7265350Y14592800D01*
X7265350Y14592800D02*
X7312969Y14640420D01*
X7312969Y14640420D02*
X7360588Y14735658D01*
X7360588Y14735658D02*
X7360588Y14830896D01*
X7360588Y14830896D02*
X7312969Y14926134D01*
X7312969Y14926134D02*
X7265350Y14973753D01*
X7265350Y14973753D02*
X7170112Y15021372D01*
X7170112Y15021372D02*
X6979636Y15068991D01*
X6979636Y15068991D02*
X6884398Y15116610D01*
X6884398Y15116610D02*
X6836779Y15164229D01*
X6836779Y15164229D02*
X6789160Y15259467D01*
X6789160Y15259467D02*
X6789160Y15354705D01*
X6789160Y15354705D02*
X6836779Y15449943D01*
X6836779Y15449943D02*
X6884398Y15497562D01*
X6884398Y15497562D02*
X6979636Y15545181D01*
X6979636Y15545181D02*
X7217731Y15545181D01*
X7217731Y15545181D02*
X7360588Y15497562D01*
X7693922Y15545181D02*
X7932017Y14545181D01*
X7932017Y14545181D02*
X8122493Y15259467D01*
X8122493Y15259467D02*
X8312969Y14545181D01*
X8312969Y14545181D02*
X8551065Y15545181D01*
X8932017Y14545181D02*
X8932017Y15545181D01*
X8932017Y15545181D02*
X9170112Y15545181D01*
X9170112Y15545181D02*
X9312969Y15497562D01*
X9312969Y15497562D02*
X9408207Y15402324D01*
X9408207Y15402324D02*
X9455826Y15307086D01*
X9455826Y15307086D02*
X9503445Y15116610D01*
X9503445Y15116610D02*
X9503445Y14973753D01*
X9503445Y14973753D02*
X9455826Y14783277D01*
X9455826Y14783277D02*
X9408207Y14688039D01*
X9408207Y14688039D02*
X9312969Y14592800D01*
X9312969Y14592800D02*
X9170112Y14545181D01*
X9170112Y14545181D02*
X8932017Y14545181D01*
X9932017Y14545181D02*
X9932017Y15545181D01*
X10598683Y15545181D02*
X10789159Y15545181D01*
X10789159Y15545181D02*
X10884397Y15497562D01*
X10884397Y15497562D02*
X10979635Y15402324D01*
X10979635Y15402324D02*
X11027254Y15211848D01*
X11027254Y15211848D02*
X11027254Y14878515D01*
X11027254Y14878515D02*
X10979635Y14688039D01*
X10979635Y14688039D02*
X10884397Y14592800D01*
X10884397Y14592800D02*
X10789159Y14545181D01*
X10789159Y14545181D02*
X10598683Y14545181D01*
X10598683Y14545181D02*
X10503445Y14592800D01*
X10503445Y14592800D02*
X10408207Y14688039D01*
X10408207Y14688039D02*
X10360588Y14878515D01*
X10360588Y14878515D02*
X10360588Y15211848D01*
X10360588Y15211848D02*
X10408207Y15402324D01*
X10408207Y15402324D02*
X10503445Y15497562D01*
X10503445Y15497562D02*
X10598683Y15545181D01*
X7806078Y25795181D02*
X8425125Y25795181D01*
X8425125Y25795181D02*
X8091792Y25414229D01*
X8091792Y25414229D02*
X8234649Y25414229D01*
X8234649Y25414229D02*
X8329887Y25366610D01*
X8329887Y25366610D02*
X8377506Y25318991D01*
X8377506Y25318991D02*
X8425125Y25223753D01*
X8425125Y25223753D02*
X8425125Y24985658D01*
X8425125Y24985658D02*
X8377506Y24890420D01*
X8377506Y24890420D02*
X8329887Y24842800D01*
X8329887Y24842800D02*
X8234649Y24795181D01*
X8234649Y24795181D02*
X7948935Y24795181D01*
X7948935Y24795181D02*
X7853697Y24842800D01*
X7853697Y24842800D02*
X7806078Y24890420D01*
X8853697Y24890420D02*
X8901316Y24842800D01*
X8901316Y24842800D02*
X8853697Y24795181D01*
X8853697Y24795181D02*
X8806078Y24842800D01*
X8806078Y24842800D02*
X8853697Y24890420D01*
X8853697Y24890420D02*
X8853697Y24795181D01*
X9234649Y25795181D02*
X9853696Y25795181D01*
X9853696Y25795181D02*
X9520363Y25414229D01*
X9520363Y25414229D02*
X9663220Y25414229D01*
X9663220Y25414229D02*
X9758458Y25366610D01*
X9758458Y25366610D02*
X9806077Y25318991D01*
X9806077Y25318991D02*
X9853696Y25223753D01*
X9853696Y25223753D02*
X9853696Y24985658D01*
X9853696Y24985658D02*
X9806077Y24890420D01*
X9806077Y24890420D02*
X9758458Y24842800D01*
X9758458Y24842800D02*
X9663220Y24795181D01*
X9663220Y24795181D02*
X9377506Y24795181D01*
X9377506Y24795181D02*
X9282268Y24842800D01*
X9282268Y24842800D02*
X9234649Y24890420D01*
X10139411Y25795181D02*
X10472744Y24795181D01*
X10472744Y24795181D02*
X10806077Y25795181D01*
X6056077Y7568991D02*
X6198934Y7521372D01*
X6198934Y7521372D02*
X6246553Y7473753D01*
X6246553Y7473753D02*
X6294172Y7378515D01*
X6294172Y7378515D02*
X6294172Y7235658D01*
X6294172Y7235658D02*
X6246553Y7140420D01*
X6246553Y7140420D02*
X6198934Y7092800D01*
X6198934Y7092800D02*
X6103696Y7045181D01*
X6103696Y7045181D02*
X5722744Y7045181D01*
X5722744Y7045181D02*
X5722744Y8045181D01*
X5722744Y8045181D02*
X6056077Y8045181D01*
X6056077Y8045181D02*
X6151315Y7997562D01*
X6151315Y7997562D02*
X6198934Y7949943D01*
X6198934Y7949943D02*
X6246553Y7854705D01*
X6246553Y7854705D02*
X6246553Y7759467D01*
X6246553Y7759467D02*
X6198934Y7664229D01*
X6198934Y7664229D02*
X6151315Y7616610D01*
X6151315Y7616610D02*
X6056077Y7568991D01*
X6056077Y7568991D02*
X5722744Y7568991D01*
X6722744Y8045181D02*
X6722744Y7235658D01*
X6722744Y7235658D02*
X6770363Y7140420D01*
X6770363Y7140420D02*
X6817982Y7092800D01*
X6817982Y7092800D02*
X6913220Y7045181D01*
X6913220Y7045181D02*
X7103696Y7045181D01*
X7103696Y7045181D02*
X7198934Y7092800D01*
X7198934Y7092800D02*
X7246553Y7140420D01*
X7246553Y7140420D02*
X7294172Y7235658D01*
X7294172Y7235658D02*
X7294172Y8045181D01*
X7627506Y8045181D02*
X8198934Y8045181D01*
X7913220Y7045181D02*
X7913220Y8045181D01*
X8389411Y8045181D02*
X8960839Y8045181D01*
X8675125Y7045181D02*
X8675125Y8045181D01*
X9484649Y8045181D02*
X9675125Y8045181D01*
X9675125Y8045181D02*
X9770363Y7997562D01*
X9770363Y7997562D02*
X9865601Y7902324D01*
X9865601Y7902324D02*
X9913220Y7711848D01*
X9913220Y7711848D02*
X9913220Y7378515D01*
X9913220Y7378515D02*
X9865601Y7188039D01*
X9865601Y7188039D02*
X9770363Y7092800D01*
X9770363Y7092800D02*
X9675125Y7045181D01*
X9675125Y7045181D02*
X9484649Y7045181D01*
X9484649Y7045181D02*
X9389411Y7092800D01*
X9389411Y7092800D02*
X9294173Y7188039D01*
X9294173Y7188039D02*
X9246554Y7378515D01*
X9246554Y7378515D02*
X9246554Y7711848D01*
X9246554Y7711848D02*
X9294173Y7902324D01*
X9294173Y7902324D02*
X9389411Y7997562D01*
X9389411Y7997562D02*
X9484649Y8045181D01*
X10341792Y7045181D02*
X10341792Y8045181D01*
X10341792Y8045181D02*
X10913220Y7045181D01*
X10913220Y7045181D02*
X10913220Y8045181D01*
X21056078Y18295181D02*
X21675125Y18295181D01*
X21675125Y18295181D02*
X21341792Y17914229D01*
X21341792Y17914229D02*
X21484649Y17914229D01*
X21484649Y17914229D02*
X21579887Y17866610D01*
X21579887Y17866610D02*
X21627506Y17818991D01*
X21627506Y17818991D02*
X21675125Y17723753D01*
X21675125Y17723753D02*
X21675125Y17485658D01*
X21675125Y17485658D02*
X21627506Y17390420D01*
X21627506Y17390420D02*
X21579887Y17342800D01*
X21579887Y17342800D02*
X21484649Y17295181D01*
X21484649Y17295181D02*
X21198935Y17295181D01*
X21198935Y17295181D02*
X21103697Y17342800D01*
X21103697Y17342800D02*
X21056078Y17390420D01*
X22103697Y17390420D02*
X22151316Y17342800D01*
X22151316Y17342800D02*
X22103697Y17295181D01*
X22103697Y17295181D02*
X22056078Y17342800D01*
X22056078Y17342800D02*
X22103697Y17390420D01*
X22103697Y17390420D02*
X22103697Y17295181D01*
X22484649Y18295181D02*
X23103696Y18295181D01*
X23103696Y18295181D02*
X22770363Y17914229D01*
X22770363Y17914229D02*
X22913220Y17914229D01*
X22913220Y17914229D02*
X23008458Y17866610D01*
X23008458Y17866610D02*
X23056077Y17818991D01*
X23056077Y17818991D02*
X23103696Y17723753D01*
X23103696Y17723753D02*
X23103696Y17485658D01*
X23103696Y17485658D02*
X23056077Y17390420D01*
X23056077Y17390420D02*
X23008458Y17342800D01*
X23008458Y17342800D02*
X22913220Y17295181D01*
X22913220Y17295181D02*
X22627506Y17295181D01*
X22627506Y17295181D02*
X22532268Y17342800D01*
X22532268Y17342800D02*
X22484649Y17390420D01*
X23389411Y18295181D02*
X23722744Y17295181D01*
X23722744Y17295181D02*
X24056077Y18295181D01*
X21562969Y12045181D02*
X21086779Y12045181D01*
X21086779Y12045181D02*
X21086779Y13045181D01*
X21896303Y12568991D02*
X22229636Y12568991D01*
X22372493Y12045181D02*
X21896303Y12045181D01*
X21896303Y12045181D02*
X21896303Y13045181D01*
X21896303Y13045181D02*
X22372493Y13045181D01*
X22801065Y12045181D02*
X22801065Y13045181D01*
X22801065Y13045181D02*
X23039160Y13045181D01*
X23039160Y13045181D02*
X23182017Y12997562D01*
X23182017Y12997562D02*
X23277255Y12902324D01*
X23277255Y12902324D02*
X23324874Y12807086D01*
X23324874Y12807086D02*
X23372493Y12616610D01*
X23372493Y12616610D02*
X23372493Y12473753D01*
X23372493Y12473753D02*
X23324874Y12283277D01*
X23324874Y12283277D02*
X23277255Y12188039D01*
X23277255Y12188039D02*
X23182017Y12092800D01*
X23182017Y12092800D02*
X23039160Y12045181D01*
X23039160Y12045181D02*
X22801065Y12045181D01*
X24324874Y12045181D02*
X23753446Y12045181D01*
X24039160Y12045181D02*
X24039160Y13045181D01*
X24039160Y13045181D02*
X23943922Y12902324D01*
X23943922Y12902324D02*
X23848684Y12807086D01*
X23848684Y12807086D02*
X23753446Y12759467D01*
X7408207Y9545181D02*
X7074874Y10021372D01*
X6836779Y9545181D02*
X6836779Y10545181D01*
X6836779Y10545181D02*
X7217731Y10545181D01*
X7217731Y10545181D02*
X7312969Y10497562D01*
X7312969Y10497562D02*
X7360588Y10449943D01*
X7360588Y10449943D02*
X7408207Y10354705D01*
X7408207Y10354705D02*
X7408207Y10211848D01*
X7408207Y10211848D02*
X7360588Y10116610D01*
X7360588Y10116610D02*
X7312969Y10068991D01*
X7312969Y10068991D02*
X7217731Y10021372D01*
X7217731Y10021372D02*
X6836779Y10021372D01*
X7836779Y10068991D02*
X8170112Y10068991D01*
X8312969Y9545181D02*
X7836779Y9545181D01*
X7836779Y9545181D02*
X7836779Y10545181D01*
X7836779Y10545181D02*
X8312969Y10545181D01*
X8693922Y9592800D02*
X8836779Y9545181D01*
X8836779Y9545181D02*
X9074874Y9545181D01*
X9074874Y9545181D02*
X9170112Y9592800D01*
X9170112Y9592800D02*
X9217731Y9640420D01*
X9217731Y9640420D02*
X9265350Y9735658D01*
X9265350Y9735658D02*
X9265350Y9830896D01*
X9265350Y9830896D02*
X9217731Y9926134D01*
X9217731Y9926134D02*
X9170112Y9973753D01*
X9170112Y9973753D02*
X9074874Y10021372D01*
X9074874Y10021372D02*
X8884398Y10068991D01*
X8884398Y10068991D02*
X8789160Y10116610D01*
X8789160Y10116610D02*
X8741541Y10164229D01*
X8741541Y10164229D02*
X8693922Y10259467D01*
X8693922Y10259467D02*
X8693922Y10354705D01*
X8693922Y10354705D02*
X8741541Y10449943D01*
X8741541Y10449943D02*
X8789160Y10497562D01*
X8789160Y10497562D02*
X8884398Y10545181D01*
X8884398Y10545181D02*
X9122493Y10545181D01*
X9122493Y10545181D02*
X9265350Y10497562D01*
X9693922Y10068991D02*
X10027255Y10068991D01*
X10170112Y9545181D02*
X9693922Y9545181D01*
X9693922Y9545181D02*
X9693922Y10545181D01*
X9693922Y10545181D02*
X10170112Y10545181D01*
X10455827Y10545181D02*
X11027255Y10545181D01*
X10741541Y9545181D02*
X10741541Y10545181D01*
X8086779Y17545181D02*
X8086779Y18545181D01*
X8562969Y17545181D02*
X8562969Y18545181D01*
X8562969Y18545181D02*
X9134397Y17545181D01*
X9134397Y17545181D02*
X9134397Y18545181D01*
X9467731Y18545181D02*
X10039159Y18545181D01*
X9753445Y17545181D02*
X9753445Y18545181D01*
X10896302Y17545181D02*
X10324874Y17545181D01*
X10610588Y17545181D02*
X10610588Y18545181D01*
X10610588Y18545181D02*
X10515350Y18402324D01*
X10515350Y18402324D02*
X10420112Y18307086D01*
X10420112Y18307086D02*
X10324874Y18259467D01*
X8901315Y19890420D02*
X8853696Y19842800D01*
X8853696Y19842800D02*
X8710839Y19795181D01*
X8710839Y19795181D02*
X8615601Y19795181D01*
X8615601Y19795181D02*
X8472744Y19842800D01*
X8472744Y19842800D02*
X8377506Y19938039D01*
X8377506Y19938039D02*
X8329887Y20033277D01*
X8329887Y20033277D02*
X8282268Y20223753D01*
X8282268Y20223753D02*
X8282268Y20366610D01*
X8282268Y20366610D02*
X8329887Y20557086D01*
X8329887Y20557086D02*
X8377506Y20652324D01*
X8377506Y20652324D02*
X8472744Y20747562D01*
X8472744Y20747562D02*
X8615601Y20795181D01*
X8615601Y20795181D02*
X8710839Y20795181D01*
X8710839Y20795181D02*
X8853696Y20747562D01*
X8853696Y20747562D02*
X8901315Y20699943D01*
X9806077Y19795181D02*
X9329887Y19795181D01*
X9329887Y19795181D02*
X9329887Y20795181D01*
X10139411Y19795181D02*
X10139411Y20795181D01*
X10710839Y19795181D02*
X10282268Y20366610D01*
X10710839Y20795181D02*
X10139411Y20223753D01*
X8865601Y5497562D02*
X8770363Y5545181D01*
X8770363Y5545181D02*
X8627506Y5545181D01*
X8627506Y5545181D02*
X8484649Y5497562D01*
X8484649Y5497562D02*
X8389411Y5402324D01*
X8389411Y5402324D02*
X8341792Y5307086D01*
X8341792Y5307086D02*
X8294173Y5116610D01*
X8294173Y5116610D02*
X8294173Y4973753D01*
X8294173Y4973753D02*
X8341792Y4783277D01*
X8341792Y4783277D02*
X8389411Y4688039D01*
X8389411Y4688039D02*
X8484649Y4592800D01*
X8484649Y4592800D02*
X8627506Y4545181D01*
X8627506Y4545181D02*
X8722744Y4545181D01*
X8722744Y4545181D02*
X8865601Y4592800D01*
X8865601Y4592800D02*
X8913220Y4640420D01*
X8913220Y4640420D02*
X8913220Y4973753D01*
X8913220Y4973753D02*
X8722744Y4973753D01*
X9341792Y4545181D02*
X9341792Y5545181D01*
X9341792Y5545181D02*
X9913220Y4545181D01*
X9913220Y4545181D02*
X9913220Y5545181D01*
X10389411Y4545181D02*
X10389411Y5545181D01*
X10389411Y5545181D02*
X10627506Y5545181D01*
X10627506Y5545181D02*
X10770363Y5497562D01*
X10770363Y5497562D02*
X10865601Y5402324D01*
X10865601Y5402324D02*
X10913220Y5307086D01*
X10913220Y5307086D02*
X10960839Y5116610D01*
X10960839Y5116610D02*
X10960839Y4973753D01*
X10960839Y4973753D02*
X10913220Y4783277D01*
X10913220Y4783277D02*
X10865601Y4688039D01*
X10865601Y4688039D02*
X10770363Y4592800D01*
X10770363Y4592800D02*
X10627506Y4545181D01*
X10627506Y4545181D02*
X10389411Y4545181D01*
X21615601Y5497562D02*
X21520363Y5545181D01*
X21520363Y5545181D02*
X21377506Y5545181D01*
X21377506Y5545181D02*
X21234649Y5497562D01*
X21234649Y5497562D02*
X21139411Y5402324D01*
X21139411Y5402324D02*
X21091792Y5307086D01*
X21091792Y5307086D02*
X21044173Y5116610D01*
X21044173Y5116610D02*
X21044173Y4973753D01*
X21044173Y4973753D02*
X21091792Y4783277D01*
X21091792Y4783277D02*
X21139411Y4688039D01*
X21139411Y4688039D02*
X21234649Y4592800D01*
X21234649Y4592800D02*
X21377506Y4545181D01*
X21377506Y4545181D02*
X21472744Y4545181D01*
X21472744Y4545181D02*
X21615601Y4592800D01*
X21615601Y4592800D02*
X21663220Y4640420D01*
X21663220Y4640420D02*
X21663220Y4973753D01*
X21663220Y4973753D02*
X21472744Y4973753D01*
X22091792Y4545181D02*
X22091792Y5545181D01*
X22091792Y5545181D02*
X22663220Y4545181D01*
X22663220Y4545181D02*
X22663220Y5545181D01*
X23139411Y4545181D02*
X23139411Y5545181D01*
X23139411Y5545181D02*
X23377506Y5545181D01*
X23377506Y5545181D02*
X23520363Y5497562D01*
X23520363Y5497562D02*
X23615601Y5402324D01*
X23615601Y5402324D02*
X23663220Y5307086D01*
X23663220Y5307086D02*
X23710839Y5116610D01*
X23710839Y5116610D02*
X23710839Y4973753D01*
X23710839Y4973753D02*
X23663220Y4783277D01*
X23663220Y4783277D02*
X23615601Y4688039D01*
X23615601Y4688039D02*
X23520363Y4592800D01*
X23520363Y4592800D02*
X23377506Y4545181D01*
X23377506Y4545181D02*
X23139411Y4545181D01*
X21562969Y14795181D02*
X21086779Y14795181D01*
X21086779Y14795181D02*
X21086779Y15795181D01*
X21896303Y15318991D02*
X22229636Y15318991D01*
X22372493Y14795181D02*
X21896303Y14795181D01*
X21896303Y14795181D02*
X21896303Y15795181D01*
X21896303Y15795181D02*
X22372493Y15795181D01*
X22801065Y14795181D02*
X22801065Y15795181D01*
X22801065Y15795181D02*
X23039160Y15795181D01*
X23039160Y15795181D02*
X23182017Y15747562D01*
X23182017Y15747562D02*
X23277255Y15652324D01*
X23277255Y15652324D02*
X23324874Y15557086D01*
X23324874Y15557086D02*
X23372493Y15366610D01*
X23372493Y15366610D02*
X23372493Y15223753D01*
X23372493Y15223753D02*
X23324874Y15033277D01*
X23324874Y15033277D02*
X23277255Y14938039D01*
X23277255Y14938039D02*
X23182017Y14842800D01*
X23182017Y14842800D02*
X23039160Y14795181D01*
X23039160Y14795181D02*
X22801065Y14795181D01*
X23991541Y15795181D02*
X24086779Y15795181D01*
X24086779Y15795181D02*
X24182017Y15747562D01*
X24182017Y15747562D02*
X24229636Y15699943D01*
X24229636Y15699943D02*
X24277255Y15604705D01*
X24277255Y15604705D02*
X24324874Y15414229D01*
X24324874Y15414229D02*
X24324874Y15176134D01*
X24324874Y15176134D02*
X24277255Y14985658D01*
X24277255Y14985658D02*
X24229636Y14890420D01*
X24229636Y14890420D02*
X24182017Y14842800D01*
X24182017Y14842800D02*
X24086779Y14795181D01*
X24086779Y14795181D02*
X23991541Y14795181D01*
X23991541Y14795181D02*
X23896303Y14842800D01*
X23896303Y14842800D02*
X23848684Y14890420D01*
X23848684Y14890420D02*
X23801065Y14985658D01*
X23801065Y14985658D02*
X23753446Y15176134D01*
X23753446Y15176134D02*
X23753446Y15414229D01*
X23753446Y15414229D02*
X23801065Y15604705D01*
X23801065Y15604705D02*
X23848684Y15699943D01*
X23848684Y15699943D02*
X23896303Y15747562D01*
X23896303Y15747562D02*
X23991541Y15795181D01*
X21562969Y9545181D02*
X21086779Y9545181D01*
X21086779Y9545181D02*
X21086779Y10545181D01*
X21896303Y10068991D02*
X22229636Y10068991D01*
X22372493Y9545181D02*
X21896303Y9545181D01*
X21896303Y9545181D02*
X21896303Y10545181D01*
X21896303Y10545181D02*
X22372493Y10545181D01*
X22801065Y9545181D02*
X22801065Y10545181D01*
X22801065Y10545181D02*
X23039160Y10545181D01*
X23039160Y10545181D02*
X23182017Y10497562D01*
X23182017Y10497562D02*
X23277255Y10402324D01*
X23277255Y10402324D02*
X23324874Y10307086D01*
X23324874Y10307086D02*
X23372493Y10116610D01*
X23372493Y10116610D02*
X23372493Y9973753D01*
X23372493Y9973753D02*
X23324874Y9783277D01*
X23324874Y9783277D02*
X23277255Y9688039D01*
X23277255Y9688039D02*
X23182017Y9592800D01*
X23182017Y9592800D02*
X23039160Y9545181D01*
X23039160Y9545181D02*
X22801065Y9545181D01*
X23753446Y10449943D02*
X23801065Y10497562D01*
X23801065Y10497562D02*
X23896303Y10545181D01*
X23896303Y10545181D02*
X24134398Y10545181D01*
X24134398Y10545181D02*
X24229636Y10497562D01*
X24229636Y10497562D02*
X24277255Y10449943D01*
X24277255Y10449943D02*
X24324874Y10354705D01*
X24324874Y10354705D02*
X24324874Y10259467D01*
X24324874Y10259467D02*
X24277255Y10116610D01*
X24277255Y10116610D02*
X23705827Y9545181D01*
X23705827Y9545181D02*
X24324874Y9545181D01*
D11*
%TO.C,J6*%
X11670000Y26650000D02*
X13000000Y26650000D01*
X11670000Y25320000D02*
X11670000Y26650000D01*
X11670000Y24050000D02*
X11670000Y3670000D01*
X11670000Y24050000D02*
X14330000Y24050000D01*
X11670000Y3670000D02*
X14330000Y3670000D01*
X14330000Y24050000D02*
X14330000Y3670000D01*
D12*
%TO.C,J4*%
X1600000Y-1950000D02*
X1600000Y-3350000D01*
X1600000Y-1950000D02*
X6400000Y-1950000D01*
X1600000Y-11050000D02*
X1600000Y-9650000D01*
X6400000Y-1950000D02*
X6400000Y-3350000D01*
X6400000Y-11050000D02*
X1600000Y-11050000D01*
X6400000Y-11050000D02*
X6400000Y-9650000D01*
D13*
X1125000Y-3000000D02*
G75*
G03*
X1125000Y-3000000I-125000J0D01*
G01*
D11*
%TO.C,J5*%
X17420000Y19030000D02*
X18750000Y19030000D01*
X17420000Y17700000D02*
X17420000Y19030000D01*
X17420000Y16430000D02*
X17420000Y3670000D01*
X17420000Y16430000D02*
X20080000Y16430000D01*
X17420000Y3670000D02*
X20080000Y3670000D01*
X20080000Y16430000D02*
X20080000Y3670000D01*
D12*
%TO.C,J2*%
X27600000Y-1950000D02*
X27600000Y-3350000D01*
X27600000Y-1950000D02*
X32400000Y-1950000D01*
X27600000Y-11050000D02*
X27600000Y-9650000D01*
X32400000Y-1950000D02*
X32400000Y-3350000D01*
X32400000Y-11050000D02*
X27600000Y-11050000D01*
X32400000Y-11050000D02*
X32400000Y-9650000D01*
D13*
X27125000Y-3000000D02*
G75*
G03*
X27125000Y-3000000I-125000J0D01*
G01*
%TD*%
%LPC*%
D14*
%TO.C,J6*%
X13000000Y25320000D03*
D15*
X13000000Y22780000D03*
X13000000Y20240000D03*
X13000000Y17700000D03*
X13000000Y15160000D03*
X13000000Y12620000D03*
X13000000Y10080000D03*
X13000000Y7540000D03*
X13000000Y5000000D03*
%TD*%
D16*
%TO.C,J4*%
X1250000Y-3750000D03*
X6750000Y-3750000D03*
X1250000Y-4250000D03*
X6750000Y-4250000D03*
X1250000Y-4750000D03*
X6750000Y-4750000D03*
X1250000Y-5250000D03*
X6750000Y-5250000D03*
X1250000Y-5750000D03*
X6750000Y-5750000D03*
X1250000Y-6250000D03*
X6750000Y-6250000D03*
X1250000Y-6750000D03*
X6750000Y-6750000D03*
X1250000Y-7250000D03*
X6750000Y-7250000D03*
X1250000Y-7750000D03*
X6750000Y-7750000D03*
X1250000Y-8250000D03*
X6750000Y-8250000D03*
X1250000Y-8750000D03*
X6750000Y-8750000D03*
X1250000Y-9250000D03*
X6750000Y-9250000D03*
%TD*%
D14*
%TO.C,J5*%
X18750000Y17700000D03*
D15*
X18750000Y15160000D03*
X18750000Y12620000D03*
X18750000Y10080000D03*
X18750000Y7540000D03*
X18750000Y5000000D03*
%TD*%
D16*
%TO.C,J2*%
X27250000Y-3750000D03*
X32750000Y-3750000D03*
X27250000Y-4250000D03*
X32750000Y-4250000D03*
X27250000Y-4750000D03*
X32750000Y-4750000D03*
X27250000Y-5250000D03*
X32750000Y-5250000D03*
X27250000Y-5750000D03*
X32750000Y-5750000D03*
X27250000Y-6250000D03*
X32750000Y-6250000D03*
X27250000Y-6750000D03*
X32750000Y-6750000D03*
X27250000Y-7250000D03*
X32750000Y-7250000D03*
X27250000Y-7750000D03*
X32750000Y-7750000D03*
X27250000Y-8250000D03*
X32750000Y-8250000D03*
X27250000Y-8750000D03*
X32750000Y-8750000D03*
X27250000Y-9250000D03*
X32750000Y-9250000D03*
%TD*%
%LPD*%
M02*
