%TF.GenerationSoftware,KiCad,Pcbnew,7.0.8*%
%TF.CreationDate,2023-11-08T20:28:38+10:00*%
%TF.ProjectId,ProgrammingBoard,50726f67-7261-46d6-9d69-6e67426f6172,rev?*%
%TF.SameCoordinates,Original*%
%TF.FileFunction,Copper,L2,Inr*%
%TF.FilePolarity,Positive*%
%FSLAX46Y46*%
G04 Gerber Fmt 4.6, Leading zero omitted, Abs format (unit mm)*
G04 Created by KiCad (PCBNEW 7.0.8) date 2023-11-08 20:28:38*
%MOMM*%
%LPD*%
G01*
G04 APERTURE LIST*
%TA.AperFunction,ComponentPad*%
%ADD10R,1.700000X1.700000*%
%TD*%
%TA.AperFunction,ComponentPad*%
%ADD11O,1.700000X1.700000*%
%TD*%
%TA.AperFunction,ViaPad*%
%ADD12C,0.400000*%
%TD*%
G04 APERTURE END LIST*
D10*
%TO.N,VCC*%
%TO.C,J6*%
X14000000Y25320000D03*
D11*
%TO.N,/Connectors/SDA*%
X14000000Y22780000D03*
%TO.N,/Connectors/SCL*%
X14000000Y20240000D03*
%TO.N,/Connectors/INT1*%
X14000000Y17700000D03*
%TO.N,/Connectors/SWDIO*%
X14000000Y15160000D03*
%TO.N,/Connectors/SWDCLK*%
X14000000Y12620000D03*
%TO.N,/Connectors/RESET*%
X14000000Y10080000D03*
%TO.N,/Connectors/BUTTON*%
X14000000Y7540000D03*
%TO.N,GND*%
X14000000Y5000000D03*
%TD*%
%TO.N,GND*%
%TO.C,J5*%
X20750000Y5000000D03*
%TO.N,/Connectors/LED3*%
X20750000Y7540000D03*
%TO.N,/Connectors/LED2*%
X20750000Y10080000D03*
%TO.N,/Connectors/LED1*%
X20750000Y12620000D03*
%TO.N,/Connectors/LED0*%
X20750000Y15160000D03*
D10*
%TO.N,VCC*%
X20750000Y17700000D03*
%TD*%
D12*
%TO.N,GND*%
X30250000Y-3250000D03*
X3750000Y-6250000D03*
X3750000Y-7250000D03*
X4250000Y-6750000D03*
X4250000Y-7750000D03*
X26000000Y-3250000D03*
X29750000Y-8750000D03*
%TO.N,/Connectors/ROW0*%
X29750000Y-3750000D03*
%TO.N,/Connectors/COL9*%
X25500000Y-3750000D03*
%TO.N,/Connectors/ROW1*%
X30250000Y-4250000D03*
%TO.N,/Connectors/COL10*%
X26000000Y-4250000D03*
%TO.N,/Connectors/ROW2*%
X29750000Y-4750000D03*
%TO.N,/Connectors/COL0*%
X25500000Y-4750000D03*
%TO.N,/Connectors/ROW3*%
X30250000Y-5250000D03*
%TO.N,/Connectors/COL1*%
X26000000Y-5250000D03*
%TO.N,/Connectors/ROW4*%
X29750000Y-5750000D03*
%TO.N,/Connectors/COL2*%
X25500000Y-5750000D03*
%TO.N,/Connectors/ROW5*%
X30250000Y-6250000D03*
%TO.N,/Connectors/COL3*%
X26000000Y-6250000D03*
%TO.N,/Connectors/ROW6*%
X29750000Y-6750000D03*
%TO.N,/Connectors/COL4*%
X25500000Y-6750000D03*
%TO.N,/Connectors/ROW7*%
X30250000Y-7250000D03*
%TO.N,/Connectors/COL5*%
X26000000Y-7250000D03*
%TO.N,/Connectors/ROW8*%
X29750000Y-7750000D03*
%TO.N,/Connectors/COL6*%
X25500000Y-7750000D03*
%TO.N,/Connectors/ROW9*%
X30250000Y-8250000D03*
%TO.N,/Connectors/COL7*%
X26000000Y-8250000D03*
%TO.N,/Connectors/COL8*%
X25500000Y-8750000D03*
%TO.N,/Connectors/SDA*%
X8250000Y-3250000D03*
%TO.N,VCC*%
X4250000Y-4750000D03*
X3750000Y-5250000D03*
X3750000Y-4250000D03*
X4250000Y-5750000D03*
X3750000Y-3250000D03*
%TO.N,/Connectors/SCL*%
X8750000Y-3750000D03*
%TO.N,VCC*%
X4250000Y-3750000D03*
%TO.N,GND*%
X8250000Y-4250000D03*
%TO.N,/Connectors/INT1*%
X8750000Y-4750000D03*
%TO.N,/Connectors/SWDIO*%
X8250000Y-5250000D03*
%TO.N,/Connectors/SWDCLK*%
X8750000Y-5750000D03*
%TO.N,/Connectors/BUTTON*%
X8750000Y-6750000D03*
%TO.N,/Connectors/RESET*%
X8250000Y-6250000D03*
%TO.N,/Connectors/LED0*%
X8250000Y-7250000D03*
%TO.N,/Connectors/LED1*%
X8750000Y-7750000D03*
%TO.N,/Connectors/LED2*%
X8250000Y-8250000D03*
%TO.N,GND*%
X3750000Y-8250000D03*
%TO.N,/Connectors/LED3*%
X8750000Y-8750000D03*
%TO.N,GND*%
X4250000Y-8750000D03*
%TD*%
%TA.AperFunction,Conductor*%
%TO.N,GND*%
G36*
X31508691Y28280593D02*
G01*
X31544655Y28231093D01*
X31549500Y28200500D01*
X31549500Y50884D01*
X31546654Y34138D01*
X31546887Y34111D01*
X31545638Y23027D01*
X31549189Y-8494D01*
X31549500Y-14039D01*
X31549500Y-22589D01*
X31551402Y-30924D01*
X31552332Y-36398D01*
X31555884Y-67926D01*
X31559568Y-78454D01*
X31559348Y-78530D01*
X31559660Y-79284D01*
X31559871Y-79183D01*
X31564710Y-89233D01*
X31584490Y-114036D01*
X31587702Y-118562D01*
X31592250Y-125799D01*
X31592254Y-125804D01*
X31598299Y-131850D01*
X31601998Y-135989D01*
X31621774Y-160786D01*
X31621776Y-160788D01*
X31621777Y-160788D01*
X31630496Y-167741D01*
X31630349Y-167924D01*
X31644205Y-177754D01*
X33770504Y-2304053D01*
X33798281Y-2358570D01*
X33799500Y-2374057D01*
X33799500Y-11700500D01*
X33780593Y-11758691D01*
X33731093Y-11794655D01*
X33700500Y-11799500D01*
X299500Y-11799500D01*
X241309Y-11780593D01*
X205345Y-11731093D01*
X200500Y-11700500D01*
X200500Y-8250000D01*
X7844508Y-8250000D01*
X7859476Y-8344508D01*
X7864354Y-8375303D01*
X7864355Y-8375307D01*
X7888121Y-8421949D01*
X7921950Y-8488342D01*
X8011658Y-8578050D01*
X8124696Y-8635646D01*
X8250000Y-8655492D01*
X8257696Y-8656711D01*
X8257283Y-8659317D01*
X8303699Y-8674399D01*
X8339663Y-8723899D01*
X8342595Y-8742413D01*
X8343289Y-8742304D01*
X8364354Y-8875303D01*
X8364355Y-8875307D01*
X8419944Y-8984406D01*
X8421950Y-8988342D01*
X8511658Y-9078050D01*
X8624696Y-9135646D01*
X8750000Y-9155492D01*
X8875304Y-9135646D01*
X8988342Y-9078050D01*
X9078050Y-8988342D01*
X9135646Y-8875304D01*
X9155492Y-8750000D01*
X25094508Y-8750000D01*
X25114354Y-8875303D01*
X25114355Y-8875307D01*
X25169944Y-8984406D01*
X25171950Y-8988342D01*
X25261658Y-9078050D01*
X25374696Y-9135646D01*
X25500000Y-9155492D01*
X25625304Y-9135646D01*
X25738342Y-9078050D01*
X25828050Y-8988342D01*
X25885646Y-8875304D01*
X25905492Y-8750000D01*
X25905492Y-8749999D01*
X25906711Y-8742304D01*
X25909317Y-8742716D01*
X25924399Y-8696301D01*
X25973899Y-8660337D01*
X25992413Y-8657404D01*
X25992304Y-8656711D01*
X26000000Y-8655492D01*
X26125304Y-8635646D01*
X26238342Y-8578050D01*
X26328050Y-8488342D01*
X26385646Y-8375304D01*
X26405492Y-8250000D01*
X26385646Y-8124696D01*
X26328050Y-8011658D01*
X26238342Y-7921950D01*
X26234406Y-7919944D01*
X26125307Y-7864355D01*
X26125304Y-7864354D01*
X26020664Y-7847780D01*
X25966148Y-7820004D01*
X25938371Y-7765487D01*
X25940824Y-7750000D01*
X29344508Y-7750000D01*
X29359476Y-7844508D01*
X29364354Y-7875303D01*
X29364355Y-7875307D01*
X29388121Y-7921949D01*
X29421950Y-7988342D01*
X29511658Y-8078050D01*
X29624696Y-8135646D01*
X29750000Y-8155492D01*
X29757696Y-8156711D01*
X29757283Y-8159317D01*
X29803699Y-8174399D01*
X29839663Y-8223899D01*
X29842595Y-8242413D01*
X29843289Y-8242304D01*
X29844508Y-8249999D01*
X29844508Y-8250000D01*
X29859476Y-8344508D01*
X29864354Y-8375303D01*
X29864355Y-8375307D01*
X29888121Y-8421949D01*
X29921950Y-8488342D01*
X30011658Y-8578050D01*
X30124696Y-8635646D01*
X30250000Y-8655492D01*
X30375304Y-8635646D01*
X30488342Y-8578050D01*
X30578050Y-8488342D01*
X30635646Y-8375304D01*
X30655492Y-8250000D01*
X30635646Y-8124696D01*
X30578050Y-8011658D01*
X30488342Y-7921950D01*
X30484406Y-7919944D01*
X30375307Y-7864355D01*
X30375304Y-7864354D01*
X30270664Y-7847780D01*
X30216148Y-7820004D01*
X30188371Y-7765487D01*
X30197942Y-7705055D01*
X30241207Y-7661790D01*
X30270665Y-7652219D01*
X30375304Y-7635646D01*
X30488342Y-7578050D01*
X30578050Y-7488342D01*
X30635646Y-7375304D01*
X30655492Y-7250000D01*
X30635646Y-7124696D01*
X30578050Y-7011658D01*
X30488342Y-6921950D01*
X30484406Y-6919944D01*
X30375307Y-6864355D01*
X30375304Y-6864354D01*
X30270664Y-6847780D01*
X30216148Y-6820004D01*
X30188371Y-6765487D01*
X30197942Y-6705055D01*
X30241207Y-6661790D01*
X30270665Y-6652219D01*
X30375304Y-6635646D01*
X30488342Y-6578050D01*
X30578050Y-6488342D01*
X30635646Y-6375304D01*
X30655492Y-6250000D01*
X30635646Y-6124696D01*
X30578050Y-6011658D01*
X30488342Y-5921950D01*
X30484406Y-5919944D01*
X30375307Y-5864355D01*
X30375304Y-5864354D01*
X30270664Y-5847780D01*
X30216148Y-5820004D01*
X30188371Y-5765487D01*
X30197942Y-5705055D01*
X30241207Y-5661790D01*
X30270665Y-5652219D01*
X30375304Y-5635646D01*
X30488342Y-5578050D01*
X30578050Y-5488342D01*
X30635646Y-5375304D01*
X30655492Y-5250000D01*
X30635646Y-5124696D01*
X30578050Y-5011658D01*
X30488342Y-4921950D01*
X30484406Y-4919944D01*
X30375307Y-4864355D01*
X30375304Y-4864354D01*
X30270664Y-4847780D01*
X30216148Y-4820004D01*
X30188371Y-4765487D01*
X30197942Y-4705055D01*
X30241207Y-4661790D01*
X30270665Y-4652219D01*
X30375304Y-4635646D01*
X30488342Y-4578050D01*
X30578050Y-4488342D01*
X30635646Y-4375304D01*
X30655492Y-4250000D01*
X30635646Y-4124696D01*
X30578050Y-4011658D01*
X30488342Y-3921950D01*
X30484406Y-3919944D01*
X30375307Y-3864355D01*
X30375304Y-3864354D01*
X30250000Y-3844508D01*
X30242304Y-3843289D01*
X30242716Y-3840682D01*
X30196301Y-3825601D01*
X30160337Y-3776101D01*
X30157404Y-3757586D01*
X30156711Y-3757696D01*
X30151358Y-3723899D01*
X30135646Y-3624696D01*
X30078050Y-3511658D01*
X29988342Y-3421950D01*
X29984406Y-3419944D01*
X29875307Y-3364355D01*
X29875304Y-3364354D01*
X29750000Y-3344508D01*
X29624696Y-3364354D01*
X29624692Y-3364355D01*
X29511659Y-3421949D01*
X29421949Y-3511659D01*
X29364355Y-3624692D01*
X29364354Y-3624696D01*
X29344508Y-3750000D01*
X29359476Y-3844508D01*
X29364354Y-3875303D01*
X29364355Y-3875307D01*
X29388121Y-3921949D01*
X29421950Y-3988342D01*
X29511658Y-4078050D01*
X29624696Y-4135646D01*
X29716547Y-4150193D01*
X29729334Y-4152219D01*
X29783851Y-4179997D01*
X29811628Y-4234513D01*
X29802057Y-4294945D01*
X29758792Y-4338210D01*
X29729334Y-4347781D01*
X29624696Y-4364354D01*
X29624692Y-4364355D01*
X29511659Y-4421949D01*
X29421949Y-4511659D01*
X29364355Y-4624692D01*
X29364354Y-4624696D01*
X29351627Y-4705055D01*
X29344508Y-4750000D01*
X29359476Y-4844508D01*
X29364354Y-4875303D01*
X29364355Y-4875307D01*
X29388121Y-4921949D01*
X29421950Y-4988342D01*
X29511658Y-5078050D01*
X29624696Y-5135646D01*
X29716547Y-5150193D01*
X29729334Y-5152219D01*
X29783851Y-5179997D01*
X29811628Y-5234513D01*
X29802057Y-5294945D01*
X29758792Y-5338210D01*
X29729334Y-5347781D01*
X29624696Y-5364354D01*
X29624692Y-5364355D01*
X29511659Y-5421949D01*
X29421949Y-5511659D01*
X29364355Y-5624692D01*
X29364354Y-5624696D01*
X29351627Y-5705055D01*
X29344508Y-5750000D01*
X29359476Y-5844508D01*
X29364354Y-5875303D01*
X29364355Y-5875307D01*
X29388121Y-5921949D01*
X29421950Y-5988342D01*
X29511658Y-6078050D01*
X29624696Y-6135646D01*
X29716547Y-6150193D01*
X29729334Y-6152219D01*
X29783851Y-6179997D01*
X29811628Y-6234513D01*
X29802057Y-6294945D01*
X29758792Y-6338210D01*
X29729334Y-6347781D01*
X29624696Y-6364354D01*
X29624692Y-6364355D01*
X29511659Y-6421949D01*
X29421949Y-6511659D01*
X29364355Y-6624692D01*
X29364354Y-6624696D01*
X29351627Y-6705055D01*
X29344508Y-6750000D01*
X29359476Y-6844508D01*
X29364354Y-6875303D01*
X29364355Y-6875307D01*
X29388121Y-6921949D01*
X29421950Y-6988342D01*
X29511658Y-7078050D01*
X29624696Y-7135646D01*
X29716547Y-7150193D01*
X29729334Y-7152219D01*
X29783851Y-7179997D01*
X29811628Y-7234513D01*
X29802057Y-7294945D01*
X29758792Y-7338210D01*
X29729334Y-7347781D01*
X29624696Y-7364354D01*
X29624692Y-7364355D01*
X29511659Y-7421949D01*
X29421949Y-7511659D01*
X29364355Y-7624692D01*
X29364354Y-7624696D01*
X29351627Y-7705055D01*
X29344508Y-7750000D01*
X25940824Y-7750000D01*
X25947942Y-7705055D01*
X25991207Y-7661790D01*
X26020665Y-7652219D01*
X26125304Y-7635646D01*
X26238342Y-7578050D01*
X26328050Y-7488342D01*
X26385646Y-7375304D01*
X26405492Y-7250000D01*
X26385646Y-7124696D01*
X26328050Y-7011658D01*
X26238342Y-6921950D01*
X26234406Y-6919944D01*
X26125307Y-6864355D01*
X26125304Y-6864354D01*
X26020664Y-6847780D01*
X25966148Y-6820004D01*
X25938371Y-6765487D01*
X25947942Y-6705055D01*
X25991207Y-6661790D01*
X26020665Y-6652219D01*
X26125304Y-6635646D01*
X26238342Y-6578050D01*
X26328050Y-6488342D01*
X26385646Y-6375304D01*
X26405492Y-6250000D01*
X26385646Y-6124696D01*
X26328050Y-6011658D01*
X26238342Y-5921950D01*
X26234406Y-5919944D01*
X26125307Y-5864355D01*
X26125304Y-5864354D01*
X26020664Y-5847780D01*
X25966148Y-5820004D01*
X25938371Y-5765487D01*
X25947942Y-5705055D01*
X25991207Y-5661790D01*
X26020665Y-5652219D01*
X26125304Y-5635646D01*
X26238342Y-5578050D01*
X26328050Y-5488342D01*
X26385646Y-5375304D01*
X26405492Y-5250000D01*
X26385646Y-5124696D01*
X26328050Y-5011658D01*
X26238342Y-4921950D01*
X26234406Y-4919944D01*
X26125307Y-4864355D01*
X26125304Y-4864354D01*
X26020664Y-4847780D01*
X25966148Y-4820004D01*
X25938371Y-4765487D01*
X25947942Y-4705055D01*
X25991207Y-4661790D01*
X26020665Y-4652219D01*
X26125304Y-4635646D01*
X26238342Y-4578050D01*
X26328050Y-4488342D01*
X26385646Y-4375304D01*
X26405492Y-4250000D01*
X26385646Y-4124696D01*
X26328050Y-4011658D01*
X26238342Y-3921950D01*
X26234406Y-3919944D01*
X26125307Y-3864355D01*
X26125304Y-3864354D01*
X26000000Y-3844508D01*
X25992304Y-3843289D01*
X25992716Y-3840682D01*
X25946301Y-3825601D01*
X25910337Y-3776101D01*
X25907404Y-3757586D01*
X25906711Y-3757696D01*
X25901358Y-3723899D01*
X25885646Y-3624696D01*
X25828050Y-3511658D01*
X25738342Y-3421950D01*
X25734406Y-3419944D01*
X25625307Y-3364355D01*
X25625304Y-3364354D01*
X25500000Y-3344508D01*
X25374696Y-3364354D01*
X25374692Y-3364355D01*
X25261659Y-3421949D01*
X25171949Y-3511659D01*
X25114355Y-3624692D01*
X25114354Y-3624696D01*
X25094508Y-3750000D01*
X25109476Y-3844508D01*
X25114354Y-3875303D01*
X25114355Y-3875307D01*
X25138121Y-3921949D01*
X25171950Y-3988342D01*
X25261658Y-4078050D01*
X25374696Y-4135646D01*
X25466547Y-4150193D01*
X25479334Y-4152219D01*
X25533851Y-4179997D01*
X25561628Y-4234513D01*
X25552057Y-4294945D01*
X25508792Y-4338210D01*
X25479334Y-4347781D01*
X25374696Y-4364354D01*
X25374692Y-4364355D01*
X25261659Y-4421949D01*
X25171949Y-4511659D01*
X25114355Y-4624692D01*
X25114354Y-4624696D01*
X25101627Y-4705055D01*
X25094508Y-4750000D01*
X25109476Y-4844508D01*
X25114354Y-4875303D01*
X25114355Y-4875307D01*
X25138121Y-4921949D01*
X25171950Y-4988342D01*
X25261658Y-5078050D01*
X25374696Y-5135646D01*
X25466547Y-5150193D01*
X25479334Y-5152219D01*
X25533851Y-5179997D01*
X25561628Y-5234513D01*
X25552057Y-5294945D01*
X25508792Y-5338210D01*
X25479334Y-5347781D01*
X25374696Y-5364354D01*
X25374692Y-5364355D01*
X25261659Y-5421949D01*
X25171949Y-5511659D01*
X25114355Y-5624692D01*
X25114354Y-5624696D01*
X25101627Y-5705055D01*
X25094508Y-5750000D01*
X25109476Y-5844508D01*
X25114354Y-5875303D01*
X25114355Y-5875307D01*
X25138121Y-5921949D01*
X25171950Y-5988342D01*
X25261658Y-6078050D01*
X25374696Y-6135646D01*
X25466547Y-6150193D01*
X25479334Y-6152219D01*
X25533851Y-6179997D01*
X25561628Y-6234513D01*
X25552057Y-6294945D01*
X25508792Y-6338210D01*
X25479334Y-6347781D01*
X25374696Y-6364354D01*
X25374692Y-6364355D01*
X25261659Y-6421949D01*
X25171949Y-6511659D01*
X25114355Y-6624692D01*
X25114354Y-6624696D01*
X25101627Y-6705055D01*
X25094508Y-6750000D01*
X25109476Y-6844508D01*
X25114354Y-6875303D01*
X25114355Y-6875307D01*
X25138121Y-6921949D01*
X25171950Y-6988342D01*
X25261658Y-7078050D01*
X25374696Y-7135646D01*
X25466547Y-7150193D01*
X25479334Y-7152219D01*
X25533851Y-7179997D01*
X25561628Y-7234513D01*
X25552057Y-7294945D01*
X25508792Y-7338210D01*
X25479334Y-7347781D01*
X25374696Y-7364354D01*
X25374692Y-7364355D01*
X25261659Y-7421949D01*
X25171949Y-7511659D01*
X25114355Y-7624692D01*
X25114354Y-7624696D01*
X25101627Y-7705055D01*
X25094508Y-7750000D01*
X25109476Y-7844508D01*
X25114354Y-7875303D01*
X25114355Y-7875307D01*
X25138121Y-7921949D01*
X25171950Y-7988342D01*
X25261658Y-8078050D01*
X25374696Y-8135646D01*
X25466547Y-8150193D01*
X25479334Y-8152219D01*
X25533851Y-8179997D01*
X25561628Y-8234513D01*
X25552057Y-8294945D01*
X25508792Y-8338210D01*
X25479334Y-8347781D01*
X25374696Y-8364354D01*
X25374692Y-8364355D01*
X25261659Y-8421949D01*
X25171949Y-8511659D01*
X25114355Y-8624692D01*
X25114354Y-8624696D01*
X25094508Y-8749999D01*
X25094508Y-8750000D01*
X9155492Y-8750000D01*
X9135646Y-8624696D01*
X9078050Y-8511658D01*
X8988342Y-8421950D01*
X8984406Y-8419944D01*
X8875307Y-8364355D01*
X8875304Y-8364354D01*
X8770664Y-8347780D01*
X8716148Y-8320004D01*
X8688371Y-8265487D01*
X8697942Y-8205055D01*
X8741207Y-8161790D01*
X8770665Y-8152219D01*
X8875304Y-8135646D01*
X8988342Y-8078050D01*
X9078050Y-7988342D01*
X9135646Y-7875304D01*
X9155492Y-7750000D01*
X9135646Y-7624696D01*
X9078050Y-7511658D01*
X8988342Y-7421950D01*
X8984406Y-7419944D01*
X8875307Y-7364355D01*
X8875304Y-7364354D01*
X8770664Y-7347780D01*
X8716148Y-7320004D01*
X8688371Y-7265487D01*
X8697942Y-7205055D01*
X8741207Y-7161790D01*
X8770665Y-7152219D01*
X8875304Y-7135646D01*
X8988342Y-7078050D01*
X9078050Y-6988342D01*
X9135646Y-6875304D01*
X9155492Y-6750000D01*
X9135646Y-6624696D01*
X9078050Y-6511658D01*
X8988342Y-6421950D01*
X8984406Y-6419944D01*
X8875307Y-6364355D01*
X8875304Y-6364354D01*
X8770664Y-6347780D01*
X8716148Y-6320004D01*
X8688371Y-6265487D01*
X8697942Y-6205055D01*
X8741207Y-6161790D01*
X8770665Y-6152219D01*
X8875304Y-6135646D01*
X8988342Y-6078050D01*
X9078050Y-5988342D01*
X9135646Y-5875304D01*
X9155492Y-5750000D01*
X9135646Y-5624696D01*
X9078050Y-5511658D01*
X8988342Y-5421950D01*
X8984406Y-5419944D01*
X8875307Y-5364355D01*
X8875304Y-5364354D01*
X8770664Y-5347780D01*
X8716148Y-5320004D01*
X8688371Y-5265487D01*
X8697942Y-5205055D01*
X8741207Y-5161790D01*
X8770665Y-5152219D01*
X8875304Y-5135646D01*
X8988342Y-5078050D01*
X9078050Y-4988342D01*
X9135646Y-4875304D01*
X9155492Y-4750000D01*
X9135646Y-4624696D01*
X9078050Y-4511658D01*
X8988342Y-4421950D01*
X8984406Y-4419944D01*
X8875307Y-4364355D01*
X8875304Y-4364354D01*
X8770664Y-4347780D01*
X8754571Y-4339581D01*
X8729334Y-4347781D01*
X8624696Y-4364354D01*
X8624692Y-4364355D01*
X8511659Y-4421949D01*
X8421949Y-4511659D01*
X8364355Y-4624692D01*
X8364354Y-4624696D01*
X8343289Y-4757696D01*
X8340682Y-4757283D01*
X8325601Y-4803699D01*
X8276101Y-4839663D01*
X8257586Y-4842595D01*
X8257696Y-4843289D01*
X8124696Y-4864354D01*
X8124692Y-4864355D01*
X8011659Y-4921949D01*
X7921949Y-5011659D01*
X7864355Y-5124692D01*
X7864354Y-5124696D01*
X7851627Y-5205055D01*
X7844508Y-5250000D01*
X7859476Y-5344508D01*
X7864354Y-5375303D01*
X7864355Y-5375307D01*
X7888121Y-5421949D01*
X7921950Y-5488342D01*
X8011658Y-5578050D01*
X8124696Y-5635646D01*
X8216547Y-5650193D01*
X8229334Y-5652219D01*
X8283851Y-5679997D01*
X8311628Y-5734513D01*
X8302057Y-5794945D01*
X8258792Y-5838210D01*
X8229334Y-5847781D01*
X8124696Y-5864354D01*
X8124692Y-5864355D01*
X8011659Y-5921949D01*
X7921949Y-6011659D01*
X7864355Y-6124692D01*
X7864354Y-6124696D01*
X7851627Y-6205055D01*
X7844508Y-6250000D01*
X7859476Y-6344508D01*
X7864354Y-6375303D01*
X7864355Y-6375307D01*
X7888121Y-6421949D01*
X7921950Y-6488342D01*
X8011658Y-6578050D01*
X8124696Y-6635646D01*
X8216547Y-6650193D01*
X8229334Y-6652219D01*
X8283851Y-6679997D01*
X8311628Y-6734513D01*
X8302057Y-6794945D01*
X8258792Y-6838210D01*
X8229334Y-6847781D01*
X8124696Y-6864354D01*
X8124692Y-6864355D01*
X8011659Y-6921949D01*
X7921949Y-7011659D01*
X7864355Y-7124692D01*
X7864354Y-7124696D01*
X7851627Y-7205055D01*
X7844508Y-7250000D01*
X7859476Y-7344508D01*
X7864354Y-7375303D01*
X7864355Y-7375307D01*
X7888121Y-7421949D01*
X7921950Y-7488342D01*
X8011658Y-7578050D01*
X8124696Y-7635646D01*
X8216547Y-7650193D01*
X8229334Y-7652219D01*
X8283851Y-7679997D01*
X8311628Y-7734513D01*
X8302057Y-7794945D01*
X8258792Y-7838210D01*
X8229334Y-7847781D01*
X8124696Y-7864354D01*
X8124692Y-7864355D01*
X8011659Y-7921949D01*
X7921949Y-8011659D01*
X7864355Y-8124692D01*
X7864354Y-8124696D01*
X7851627Y-8205055D01*
X7844508Y-8250000D01*
X200500Y-8250000D01*
X200500Y-5250000D01*
X3344508Y-5250000D01*
X3359476Y-5344508D01*
X3364354Y-5375303D01*
X3364355Y-5375307D01*
X3388121Y-5421949D01*
X3421950Y-5488342D01*
X3511658Y-5578050D01*
X3624696Y-5635646D01*
X3750000Y-5655492D01*
X3757696Y-5656711D01*
X3757283Y-5659317D01*
X3803699Y-5674399D01*
X3839663Y-5723899D01*
X3842595Y-5742413D01*
X3843289Y-5742304D01*
X3844508Y-5749999D01*
X3844508Y-5750000D01*
X3859476Y-5844508D01*
X3864354Y-5875303D01*
X3864355Y-5875307D01*
X3888121Y-5921949D01*
X3921950Y-5988342D01*
X4011658Y-6078050D01*
X4124696Y-6135646D01*
X4250000Y-6155492D01*
X4375304Y-6135646D01*
X4488342Y-6078050D01*
X4578050Y-5988342D01*
X4635646Y-5875304D01*
X4655492Y-5750000D01*
X4635646Y-5624696D01*
X4578050Y-5511658D01*
X4488342Y-5421950D01*
X4484406Y-5419944D01*
X4375307Y-5364355D01*
X4375304Y-5364354D01*
X4270664Y-5347780D01*
X4216148Y-5320004D01*
X4188371Y-5265487D01*
X4197942Y-5205055D01*
X4241207Y-5161790D01*
X4270665Y-5152219D01*
X4375304Y-5135646D01*
X4488342Y-5078050D01*
X4578050Y-4988342D01*
X4635646Y-4875304D01*
X4655492Y-4750000D01*
X4635646Y-4624696D01*
X4578050Y-4511658D01*
X4488342Y-4421950D01*
X4484406Y-4419944D01*
X4375307Y-4364355D01*
X4375304Y-4364354D01*
X4270664Y-4347780D01*
X4216148Y-4320004D01*
X4188371Y-4265487D01*
X4197942Y-4205055D01*
X4241207Y-4161790D01*
X4270665Y-4152219D01*
X4375304Y-4135646D01*
X4488342Y-4078050D01*
X4578050Y-3988342D01*
X4635646Y-3875304D01*
X4655492Y-3750000D01*
X4635646Y-3624696D01*
X4578050Y-3511658D01*
X4488342Y-3421950D01*
X4484406Y-3419944D01*
X4375307Y-3364355D01*
X4375304Y-3364354D01*
X4250000Y-3344508D01*
X4242304Y-3343289D01*
X4242716Y-3340682D01*
X4196301Y-3325601D01*
X4160337Y-3276101D01*
X4157404Y-3257586D01*
X4156711Y-3257696D01*
X4155492Y-3250000D01*
X7844508Y-3250000D01*
X7859476Y-3344508D01*
X7864354Y-3375303D01*
X7864355Y-3375307D01*
X7888121Y-3421949D01*
X7921950Y-3488342D01*
X8011658Y-3578050D01*
X8124696Y-3635646D01*
X8250000Y-3655492D01*
X8257696Y-3656711D01*
X8257283Y-3659317D01*
X8303699Y-3674399D01*
X8339663Y-3723899D01*
X8342595Y-3742413D01*
X8343289Y-3742304D01*
X8344508Y-3749999D01*
X8344508Y-3750000D01*
X8359476Y-3844508D01*
X8364354Y-3875303D01*
X8364355Y-3875307D01*
X8388121Y-3921949D01*
X8421950Y-3988342D01*
X8511658Y-4078050D01*
X8624696Y-4135646D01*
X8716547Y-4150193D01*
X8729334Y-4152219D01*
X8745427Y-4160418D01*
X8770665Y-4152219D01*
X8875304Y-4135646D01*
X8988342Y-4078050D01*
X9078050Y-3988342D01*
X9135646Y-3875304D01*
X9155492Y-3750000D01*
X9135646Y-3624696D01*
X9078050Y-3511658D01*
X8988342Y-3421950D01*
X8984406Y-3419944D01*
X8875307Y-3364355D01*
X8875304Y-3364354D01*
X8750000Y-3344508D01*
X8742304Y-3343289D01*
X8742716Y-3340682D01*
X8696301Y-3325601D01*
X8660337Y-3276101D01*
X8657404Y-3257586D01*
X8656711Y-3257696D01*
X8655045Y-3247178D01*
X8635646Y-3124696D01*
X8578050Y-3011658D01*
X8488342Y-2921950D01*
X8484406Y-2919944D01*
X8375307Y-2864355D01*
X8375304Y-2864354D01*
X8250000Y-2844508D01*
X8124696Y-2864354D01*
X8124692Y-2864355D01*
X8011659Y-2921949D01*
X7921949Y-3011659D01*
X7864355Y-3124692D01*
X7864354Y-3124696D01*
X7844508Y-3250000D01*
X4155492Y-3250000D01*
X4155045Y-3247178D01*
X4135646Y-3124696D01*
X4078050Y-3011658D01*
X3988342Y-2921950D01*
X3984406Y-2919944D01*
X3875307Y-2864355D01*
X3875304Y-2864354D01*
X3750000Y-2844508D01*
X3624696Y-2864354D01*
X3624692Y-2864355D01*
X3511659Y-2921949D01*
X3421949Y-3011659D01*
X3364355Y-3124692D01*
X3364354Y-3124696D01*
X3344508Y-3250000D01*
X3359476Y-3344508D01*
X3364354Y-3375303D01*
X3364355Y-3375307D01*
X3388121Y-3421949D01*
X3421950Y-3488342D01*
X3511658Y-3578050D01*
X3624696Y-3635646D01*
X3716547Y-3650193D01*
X3729334Y-3652219D01*
X3783851Y-3679997D01*
X3811628Y-3734513D01*
X3802057Y-3794945D01*
X3758792Y-3838210D01*
X3729334Y-3847781D01*
X3624696Y-3864354D01*
X3624692Y-3864355D01*
X3511659Y-3921949D01*
X3421949Y-4011659D01*
X3364355Y-4124692D01*
X3364354Y-4124696D01*
X3351627Y-4205055D01*
X3344508Y-4250000D01*
X3359476Y-4344508D01*
X3364354Y-4375303D01*
X3364355Y-4375307D01*
X3388121Y-4421949D01*
X3421950Y-4488342D01*
X3511658Y-4578050D01*
X3624696Y-4635646D01*
X3716547Y-4650193D01*
X3729334Y-4652219D01*
X3783851Y-4679997D01*
X3811628Y-4734513D01*
X3802057Y-4794945D01*
X3758792Y-4838210D01*
X3729334Y-4847781D01*
X3624696Y-4864354D01*
X3624692Y-4864355D01*
X3511659Y-4921949D01*
X3421949Y-5011659D01*
X3364355Y-5124692D01*
X3364354Y-5124696D01*
X3351627Y-5205055D01*
X3344508Y-5250000D01*
X200500Y-5250000D01*
X200500Y-2374057D01*
X219407Y-2315866D01*
X229496Y-2304053D01*
X449412Y-2084137D01*
X2355794Y-177754D01*
X2369644Y-167928D01*
X2369499Y-167746D01*
X2378222Y-160789D01*
X2378222Y-160788D01*
X2378224Y-160788D01*
X2398002Y-135986D01*
X2401699Y-131850D01*
X2407749Y-125801D01*
X2412304Y-118551D01*
X2415499Y-114046D01*
X2435290Y-89231D01*
X2435290Y-89227D01*
X2440131Y-79178D01*
X2440343Y-79280D01*
X2440652Y-78532D01*
X2440431Y-78455D01*
X2444115Y-67925D01*
X2444114Y-67925D01*
X2444116Y-67924D01*
X2447670Y-36372D01*
X2448596Y-30929D01*
X2450500Y-22590D01*
X2450500Y-14039D01*
X2450811Y-8499D01*
X2450812Y-8494D01*
X2454363Y23027D01*
X2454361Y23031D01*
X2453114Y34112D01*
X2453345Y34139D01*
X2450500Y50888D01*
X2450500Y4850000D01*
X12858973Y4850000D01*
X12864738Y4787784D01*
X12923064Y4582790D01*
X13018057Y4392017D01*
X13018062Y4392008D01*
X13146496Y4221936D01*
X13146506Y4221925D01*
X13303995Y4078353D01*
X13303994Y4078353D01*
X13485206Y3966153D01*
X13683941Y3889162D01*
X13849999Y3858120D01*
X13850000Y3858120D01*
X13850000Y4518830D01*
X13857685Y4515320D01*
X13964237Y4500000D01*
X14035763Y4500000D01*
X14142315Y4515320D01*
X14150000Y4518830D01*
X14150000Y3858120D01*
X14316058Y3889162D01*
X14514793Y3966153D01*
X14696004Y4078353D01*
X14853493Y4221925D01*
X14853503Y4221936D01*
X14981937Y4392008D01*
X14981942Y4392017D01*
X15076935Y4582790D01*
X15135261Y4787784D01*
X15141027Y4850000D01*
X19608973Y4850000D01*
X19614738Y4787784D01*
X19673064Y4582790D01*
X19768057Y4392017D01*
X19768062Y4392008D01*
X19896496Y4221936D01*
X19896506Y4221925D01*
X20053995Y4078353D01*
X20053994Y4078353D01*
X20235206Y3966153D01*
X20433941Y3889162D01*
X20599999Y3858120D01*
X20600000Y3858120D01*
X20600000Y4518830D01*
X20607685Y4515320D01*
X20714237Y4500000D01*
X20785763Y4500000D01*
X20892315Y4515320D01*
X20900000Y4518830D01*
X20900000Y3858120D01*
X21066058Y3889162D01*
X21264793Y3966153D01*
X21446004Y4078353D01*
X21603493Y4221925D01*
X21603503Y4221936D01*
X21731937Y4392008D01*
X21731942Y4392017D01*
X21826935Y4582790D01*
X21885261Y4787784D01*
X21891027Y4850000D01*
X21227065Y4850000D01*
X21250000Y4928111D01*
X21250000Y5071889D01*
X21227065Y5150000D01*
X21891026Y5150000D01*
X21885261Y5212217D01*
X21826935Y5417211D01*
X21731942Y5607984D01*
X21731937Y5607993D01*
X21603503Y5778065D01*
X21603493Y5778076D01*
X21446004Y5921648D01*
X21446005Y5921648D01*
X21264793Y6033848D01*
X21066061Y6110838D01*
X21066055Y6110840D01*
X20900000Y6141882D01*
X20900000Y5481171D01*
X20892315Y5484680D01*
X20785763Y5500000D01*
X20714237Y5500000D01*
X20607685Y5484680D01*
X20600000Y5481171D01*
X20600000Y6141881D01*
X20599999Y6141882D01*
X20433944Y6110840D01*
X20433938Y6110838D01*
X20235206Y6033848D01*
X20053995Y5921648D01*
X19896506Y5778076D01*
X19896496Y5778065D01*
X19768062Y5607993D01*
X19768057Y5607984D01*
X19673064Y5417211D01*
X19614738Y5212217D01*
X19608973Y5150000D01*
X20272935Y5150000D01*
X20250000Y5071889D01*
X20250000Y4928111D01*
X20272935Y4850000D01*
X19608973Y4850000D01*
X15141027Y4850000D01*
X14477065Y4850000D01*
X14500000Y4928111D01*
X14500000Y5071889D01*
X14477065Y5150000D01*
X15141026Y5150000D01*
X15135261Y5212217D01*
X15076935Y5417211D01*
X14981942Y5607984D01*
X14981937Y5607993D01*
X14853503Y5778065D01*
X14853493Y5778076D01*
X14696004Y5921648D01*
X14696005Y5921648D01*
X14514793Y6033848D01*
X14316061Y6110838D01*
X14316055Y6110840D01*
X14150000Y6141882D01*
X14150000Y5481171D01*
X14142315Y5484680D01*
X14035763Y5500000D01*
X13964237Y5500000D01*
X13857685Y5484680D01*
X13850000Y5481171D01*
X13850000Y6141881D01*
X13849999Y6141882D01*
X13683944Y6110840D01*
X13683938Y6110838D01*
X13485206Y6033848D01*
X13303995Y5921648D01*
X13146506Y5778076D01*
X13146496Y5778065D01*
X13018062Y5607993D01*
X13018057Y5607984D01*
X12923064Y5417211D01*
X12864738Y5212217D01*
X12858973Y5150000D01*
X13522935Y5150000D01*
X13500000Y5071889D01*
X13500000Y4928111D01*
X13522935Y4850000D01*
X12858973Y4850000D01*
X2450500Y4850000D01*
X2450500Y7539997D01*
X12944417Y7539997D01*
X12964698Y7334071D01*
X12964699Y7334066D01*
X13024768Y7136046D01*
X13122316Y6953548D01*
X13253585Y6793596D01*
X13253590Y6793590D01*
X13253595Y6793586D01*
X13413547Y6662317D01*
X13413548Y6662317D01*
X13413550Y6662315D01*
X13596046Y6564768D01*
X13733997Y6522922D01*
X13794065Y6504700D01*
X13794070Y6504699D01*
X13999997Y6484417D01*
X14000000Y6484417D01*
X14000003Y6484417D01*
X14205929Y6504699D01*
X14205934Y6504700D01*
X14403954Y6564768D01*
X14586450Y6662315D01*
X14746410Y6793590D01*
X14877685Y6953550D01*
X14975232Y7136046D01*
X15035300Y7334066D01*
X15035301Y7334071D01*
X15055583Y7539997D01*
X19694417Y7539997D01*
X19714698Y7334071D01*
X19714699Y7334066D01*
X19774768Y7136046D01*
X19872316Y6953548D01*
X20003585Y6793596D01*
X20003590Y6793590D01*
X20003595Y6793586D01*
X20163547Y6662317D01*
X20163548Y6662317D01*
X20163550Y6662315D01*
X20346046Y6564768D01*
X20483997Y6522922D01*
X20544065Y6504700D01*
X20544070Y6504699D01*
X20749997Y6484417D01*
X20750000Y6484417D01*
X20750003Y6484417D01*
X20955929Y6504699D01*
X20955934Y6504700D01*
X21153954Y6564768D01*
X21336450Y6662315D01*
X21496410Y6793590D01*
X21627685Y6953550D01*
X21725232Y7136046D01*
X21785300Y7334066D01*
X21785301Y7334071D01*
X21805583Y7539997D01*
X21805583Y7540004D01*
X21785301Y7745930D01*
X21785300Y7745935D01*
X21767078Y7806003D01*
X21725232Y7943954D01*
X21627685Y8126450D01*
X21496410Y8286410D01*
X21496404Y8286415D01*
X21336452Y8417684D01*
X21153954Y8515232D01*
X20955934Y8575301D01*
X20955929Y8575302D01*
X20750003Y8595583D01*
X20749997Y8595583D01*
X20544070Y8575302D01*
X20544065Y8575301D01*
X20346045Y8515232D01*
X20163547Y8417684D01*
X20003595Y8286415D01*
X20003585Y8286405D01*
X19872316Y8126453D01*
X19774768Y7943955D01*
X19714699Y7745935D01*
X19714698Y7745930D01*
X19694417Y7540004D01*
X19694417Y7539997D01*
X15055583Y7539997D01*
X15055583Y7540004D01*
X15035301Y7745930D01*
X15035300Y7745935D01*
X15017078Y7806003D01*
X14975232Y7943954D01*
X14877685Y8126450D01*
X14746410Y8286410D01*
X14746404Y8286415D01*
X14586452Y8417684D01*
X14403954Y8515232D01*
X14205934Y8575301D01*
X14205929Y8575302D01*
X14000003Y8595583D01*
X13999997Y8595583D01*
X13794070Y8575302D01*
X13794065Y8575301D01*
X13596045Y8515232D01*
X13413547Y8417684D01*
X13253595Y8286415D01*
X13253585Y8286405D01*
X13122316Y8126453D01*
X13024768Y7943955D01*
X12964699Y7745935D01*
X12964698Y7745930D01*
X12944417Y7540004D01*
X12944417Y7539997D01*
X2450500Y7539997D01*
X2450500Y10079997D01*
X12944417Y10079997D01*
X12964698Y9874071D01*
X12964699Y9874066D01*
X13024768Y9676046D01*
X13122316Y9493548D01*
X13253585Y9333596D01*
X13253590Y9333590D01*
X13253595Y9333586D01*
X13413547Y9202317D01*
X13413548Y9202317D01*
X13413550Y9202315D01*
X13596046Y9104768D01*
X13733997Y9062922D01*
X13794065Y9044700D01*
X13794070Y9044699D01*
X13999997Y9024417D01*
X14000000Y9024417D01*
X14000003Y9024417D01*
X14205929Y9044699D01*
X14205934Y9044700D01*
X14403954Y9104768D01*
X14586450Y9202315D01*
X14746410Y9333590D01*
X14877685Y9493550D01*
X14975232Y9676046D01*
X15035300Y9874066D01*
X15035301Y9874071D01*
X15055583Y10079997D01*
X19694417Y10079997D01*
X19714698Y9874071D01*
X19714699Y9874066D01*
X19774768Y9676046D01*
X19872316Y9493548D01*
X20003585Y9333596D01*
X20003590Y9333590D01*
X20003595Y9333586D01*
X20163547Y9202317D01*
X20163548Y9202317D01*
X20163550Y9202315D01*
X20346046Y9104768D01*
X20483997Y9062922D01*
X20544065Y9044700D01*
X20544070Y9044699D01*
X20749997Y9024417D01*
X20750000Y9024417D01*
X20750003Y9024417D01*
X20955929Y9044699D01*
X20955934Y9044700D01*
X21153954Y9104768D01*
X21336450Y9202315D01*
X21496410Y9333590D01*
X21627685Y9493550D01*
X21725232Y9676046D01*
X21785300Y9874066D01*
X21785301Y9874071D01*
X21805583Y10079997D01*
X21805583Y10080004D01*
X21785301Y10285930D01*
X21785300Y10285935D01*
X21767078Y10346003D01*
X21725232Y10483954D01*
X21627685Y10666450D01*
X21496410Y10826410D01*
X21496404Y10826415D01*
X21336452Y10957684D01*
X21153954Y11055232D01*
X20955934Y11115301D01*
X20955929Y11115302D01*
X20750003Y11135583D01*
X20749997Y11135583D01*
X20544070Y11115302D01*
X20544065Y11115301D01*
X20346045Y11055232D01*
X20163547Y10957684D01*
X20003595Y10826415D01*
X20003585Y10826405D01*
X19872316Y10666453D01*
X19774768Y10483955D01*
X19714699Y10285935D01*
X19714698Y10285930D01*
X19694417Y10080004D01*
X19694417Y10079997D01*
X15055583Y10079997D01*
X15055583Y10080004D01*
X15035301Y10285930D01*
X15035300Y10285935D01*
X15017078Y10346003D01*
X14975232Y10483954D01*
X14877685Y10666450D01*
X14746410Y10826410D01*
X14746404Y10826415D01*
X14586452Y10957684D01*
X14403954Y11055232D01*
X14205934Y11115301D01*
X14205929Y11115302D01*
X14000003Y11135583D01*
X13999997Y11135583D01*
X13794070Y11115302D01*
X13794065Y11115301D01*
X13596045Y11055232D01*
X13413547Y10957684D01*
X13253595Y10826415D01*
X13253585Y10826405D01*
X13122316Y10666453D01*
X13024768Y10483955D01*
X12964699Y10285935D01*
X12964698Y10285930D01*
X12944417Y10080004D01*
X12944417Y10079997D01*
X2450500Y10079997D01*
X2450500Y12619997D01*
X12944417Y12619997D01*
X12964698Y12414071D01*
X12964699Y12414066D01*
X13024768Y12216046D01*
X13122316Y12033548D01*
X13253585Y11873596D01*
X13253590Y11873590D01*
X13253595Y11873586D01*
X13413547Y11742317D01*
X13413548Y11742317D01*
X13413550Y11742315D01*
X13596046Y11644768D01*
X13733997Y11602922D01*
X13794065Y11584700D01*
X13794070Y11584699D01*
X13999997Y11564417D01*
X14000000Y11564417D01*
X14000003Y11564417D01*
X14205929Y11584699D01*
X14205934Y11584700D01*
X14403954Y11644768D01*
X14586450Y11742315D01*
X14746410Y11873590D01*
X14877685Y12033550D01*
X14975232Y12216046D01*
X15035300Y12414066D01*
X15035301Y12414071D01*
X15055583Y12619997D01*
X19694417Y12619997D01*
X19714698Y12414071D01*
X19714699Y12414066D01*
X19774768Y12216046D01*
X19872316Y12033548D01*
X20003585Y11873596D01*
X20003590Y11873590D01*
X20003595Y11873586D01*
X20163547Y11742317D01*
X20163548Y11742317D01*
X20163550Y11742315D01*
X20346046Y11644768D01*
X20483997Y11602922D01*
X20544065Y11584700D01*
X20544070Y11584699D01*
X20749997Y11564417D01*
X20750000Y11564417D01*
X20750003Y11564417D01*
X20955929Y11584699D01*
X20955934Y11584700D01*
X21153954Y11644768D01*
X21336450Y11742315D01*
X21496410Y11873590D01*
X21627685Y12033550D01*
X21725232Y12216046D01*
X21785300Y12414066D01*
X21785301Y12414071D01*
X21805583Y12619997D01*
X21805583Y12620004D01*
X21785301Y12825930D01*
X21785300Y12825935D01*
X21767078Y12886003D01*
X21725232Y13023954D01*
X21627685Y13206450D01*
X21496410Y13366410D01*
X21496404Y13366415D01*
X21336452Y13497684D01*
X21153954Y13595232D01*
X20955934Y13655301D01*
X20955929Y13655302D01*
X20750003Y13675583D01*
X20749997Y13675583D01*
X20544070Y13655302D01*
X20544065Y13655301D01*
X20346045Y13595232D01*
X20163547Y13497684D01*
X20003595Y13366415D01*
X20003585Y13366405D01*
X19872316Y13206453D01*
X19774768Y13023955D01*
X19714699Y12825935D01*
X19714698Y12825930D01*
X19694417Y12620004D01*
X19694417Y12619997D01*
X15055583Y12619997D01*
X15055583Y12620004D01*
X15035301Y12825930D01*
X15035300Y12825935D01*
X15017078Y12886003D01*
X14975232Y13023954D01*
X14877685Y13206450D01*
X14746410Y13366410D01*
X14746404Y13366415D01*
X14586452Y13497684D01*
X14403954Y13595232D01*
X14205934Y13655301D01*
X14205929Y13655302D01*
X14000003Y13675583D01*
X13999997Y13675583D01*
X13794070Y13655302D01*
X13794065Y13655301D01*
X13596045Y13595232D01*
X13413547Y13497684D01*
X13253595Y13366415D01*
X13253585Y13366405D01*
X13122316Y13206453D01*
X13024768Y13023955D01*
X12964699Y12825935D01*
X12964698Y12825930D01*
X12944417Y12620004D01*
X12944417Y12619997D01*
X2450500Y12619997D01*
X2450500Y15159997D01*
X12944417Y15159997D01*
X12964698Y14954071D01*
X12964699Y14954066D01*
X13024768Y14756046D01*
X13122316Y14573548D01*
X13253585Y14413596D01*
X13253590Y14413590D01*
X13253595Y14413586D01*
X13413547Y14282317D01*
X13413548Y14282317D01*
X13413550Y14282315D01*
X13596046Y14184768D01*
X13733997Y14142922D01*
X13794065Y14124700D01*
X13794070Y14124699D01*
X13999997Y14104417D01*
X14000000Y14104417D01*
X14000003Y14104417D01*
X14205929Y14124699D01*
X14205934Y14124700D01*
X14403954Y14184768D01*
X14586450Y14282315D01*
X14746410Y14413590D01*
X14877685Y14573550D01*
X14975232Y14756046D01*
X15035300Y14954066D01*
X15035301Y14954071D01*
X15055583Y15159997D01*
X19694417Y15159997D01*
X19714698Y14954071D01*
X19714699Y14954066D01*
X19774768Y14756046D01*
X19872316Y14573548D01*
X20003585Y14413596D01*
X20003590Y14413590D01*
X20003595Y14413586D01*
X20163547Y14282317D01*
X20163548Y14282317D01*
X20163550Y14282315D01*
X20346046Y14184768D01*
X20483997Y14142922D01*
X20544065Y14124700D01*
X20544070Y14124699D01*
X20749997Y14104417D01*
X20750000Y14104417D01*
X20750003Y14104417D01*
X20955929Y14124699D01*
X20955934Y14124700D01*
X21153954Y14184768D01*
X21336450Y14282315D01*
X21496410Y14413590D01*
X21627685Y14573550D01*
X21725232Y14756046D01*
X21785300Y14954066D01*
X21785301Y14954071D01*
X21805583Y15159997D01*
X21805583Y15160004D01*
X21785301Y15365930D01*
X21785300Y15365935D01*
X21767078Y15426003D01*
X21725232Y15563954D01*
X21627685Y15746450D01*
X21496410Y15906410D01*
X21496404Y15906415D01*
X21336452Y16037684D01*
X21153954Y16135232D01*
X20955934Y16195301D01*
X20955929Y16195302D01*
X20750003Y16215583D01*
X20749997Y16215583D01*
X20544070Y16195302D01*
X20544065Y16195301D01*
X20346045Y16135232D01*
X20163547Y16037684D01*
X20003595Y15906415D01*
X20003585Y15906405D01*
X19872316Y15746453D01*
X19774768Y15563955D01*
X19714699Y15365935D01*
X19714698Y15365930D01*
X19694417Y15160004D01*
X19694417Y15159997D01*
X15055583Y15159997D01*
X15055583Y15160004D01*
X15035301Y15365930D01*
X15035300Y15365935D01*
X15017078Y15426003D01*
X14975232Y15563954D01*
X14877685Y15746450D01*
X14746410Y15906410D01*
X14746404Y15906415D01*
X14586452Y16037684D01*
X14403954Y16135232D01*
X14205934Y16195301D01*
X14205929Y16195302D01*
X14000003Y16215583D01*
X13999997Y16215583D01*
X13794070Y16195302D01*
X13794065Y16195301D01*
X13596045Y16135232D01*
X13413547Y16037684D01*
X13253595Y15906415D01*
X13253585Y15906405D01*
X13122316Y15746453D01*
X13024768Y15563955D01*
X12964699Y15365935D01*
X12964698Y15365930D01*
X12944417Y15160004D01*
X12944417Y15159997D01*
X2450500Y15159997D01*
X2450500Y17699997D01*
X12944417Y17699997D01*
X12964698Y17494071D01*
X12964699Y17494066D01*
X13024768Y17296046D01*
X13122316Y17113548D01*
X13253585Y16953596D01*
X13253590Y16953590D01*
X13253595Y16953586D01*
X13413547Y16822317D01*
X13413548Y16822317D01*
X13413550Y16822315D01*
X13596046Y16724768D01*
X13733997Y16682922D01*
X13794065Y16664700D01*
X13794070Y16664699D01*
X13999997Y16644417D01*
X14000000Y16644417D01*
X14000003Y16644417D01*
X14205929Y16664699D01*
X14205934Y16664700D01*
X14403954Y16724768D01*
X14586450Y16822315D01*
X14596124Y16830254D01*
X19699500Y16830254D01*
X19699501Y16830242D01*
X19711132Y16771773D01*
X19711134Y16771767D01*
X19755445Y16705452D01*
X19755448Y16705448D01*
X19821769Y16661133D01*
X19866231Y16652289D01*
X19880241Y16649502D01*
X19880246Y16649502D01*
X19880252Y16649500D01*
X19880253Y16649500D01*
X21619747Y16649500D01*
X21619748Y16649500D01*
X21678231Y16661133D01*
X21744552Y16705448D01*
X21788867Y16771769D01*
X21800500Y16830252D01*
X21800500Y18569748D01*
X21798921Y18577684D01*
X21797711Y18583769D01*
X21788867Y18628231D01*
X21744552Y18694552D01*
X21744548Y18694555D01*
X21678233Y18738866D01*
X21678231Y18738867D01*
X21678228Y18738868D01*
X21678227Y18738868D01*
X21619758Y18750499D01*
X21619748Y18750500D01*
X19880252Y18750500D01*
X19880251Y18750500D01*
X19880241Y18750499D01*
X19821772Y18738868D01*
X19821766Y18738866D01*
X19755451Y18694555D01*
X19755445Y18694549D01*
X19711134Y18628234D01*
X19711132Y18628228D01*
X19699501Y18569759D01*
X19699500Y18569747D01*
X19699500Y16830254D01*
X14596124Y16830254D01*
X14746410Y16953590D01*
X14877685Y17113550D01*
X14975232Y17296046D01*
X15035300Y17494066D01*
X15035301Y17494071D01*
X15055583Y17699997D01*
X15055583Y17700004D01*
X15035301Y17905930D01*
X15035300Y17905935D01*
X15017078Y17966003D01*
X14975232Y18103954D01*
X14877685Y18286450D01*
X14746410Y18446410D01*
X14596123Y18569747D01*
X14586452Y18577684D01*
X14403954Y18675232D01*
X14205934Y18735301D01*
X14205929Y18735302D01*
X14000003Y18755583D01*
X13999997Y18755583D01*
X13794070Y18735302D01*
X13794065Y18735301D01*
X13596045Y18675232D01*
X13413547Y18577684D01*
X13253595Y18446415D01*
X13253585Y18446405D01*
X13122316Y18286453D01*
X13024768Y18103955D01*
X12964699Y17905935D01*
X12964698Y17905930D01*
X12944417Y17700004D01*
X12944417Y17699997D01*
X2450500Y17699997D01*
X2450500Y20239997D01*
X12944417Y20239997D01*
X12964698Y20034071D01*
X12964699Y20034066D01*
X13024768Y19836046D01*
X13122316Y19653548D01*
X13253585Y19493596D01*
X13253590Y19493590D01*
X13253595Y19493586D01*
X13413547Y19362317D01*
X13413548Y19362317D01*
X13413550Y19362315D01*
X13596046Y19264768D01*
X13733997Y19222922D01*
X13794065Y19204700D01*
X13794070Y19204699D01*
X13999997Y19184417D01*
X14000000Y19184417D01*
X14000003Y19184417D01*
X14205929Y19204699D01*
X14205934Y19204700D01*
X14403954Y19264768D01*
X14586450Y19362315D01*
X14746410Y19493590D01*
X14877685Y19653550D01*
X14975232Y19836046D01*
X15035300Y20034066D01*
X15035301Y20034071D01*
X15055583Y20239997D01*
X15055583Y20240004D01*
X15035301Y20445930D01*
X15035300Y20445935D01*
X15017078Y20506003D01*
X14975232Y20643954D01*
X14877685Y20826450D01*
X14746410Y20986410D01*
X14746404Y20986415D01*
X14586452Y21117684D01*
X14403954Y21215232D01*
X14205934Y21275301D01*
X14205929Y21275302D01*
X14000003Y21295583D01*
X13999997Y21295583D01*
X13794070Y21275302D01*
X13794065Y21275301D01*
X13596045Y21215232D01*
X13413547Y21117684D01*
X13253595Y20986415D01*
X13253585Y20986405D01*
X13122316Y20826453D01*
X13024768Y20643955D01*
X12964699Y20445935D01*
X12964698Y20445930D01*
X12944417Y20240004D01*
X12944417Y20239997D01*
X2450500Y20239997D01*
X2450500Y22779997D01*
X12944417Y22779997D01*
X12964698Y22574071D01*
X12964699Y22574066D01*
X13024768Y22376046D01*
X13122316Y22193548D01*
X13253585Y22033596D01*
X13253590Y22033590D01*
X13253595Y22033586D01*
X13413547Y21902317D01*
X13413548Y21902317D01*
X13413550Y21902315D01*
X13596046Y21804768D01*
X13733997Y21762922D01*
X13794065Y21744700D01*
X13794070Y21744699D01*
X13999997Y21724417D01*
X14000000Y21724417D01*
X14000003Y21724417D01*
X14205929Y21744699D01*
X14205934Y21744700D01*
X14403954Y21804768D01*
X14586450Y21902315D01*
X14746410Y22033590D01*
X14877685Y22193550D01*
X14975232Y22376046D01*
X15035300Y22574066D01*
X15035301Y22574071D01*
X15055583Y22779997D01*
X15055583Y22780004D01*
X15035301Y22985930D01*
X15035300Y22985935D01*
X15017078Y23046003D01*
X14975232Y23183954D01*
X14877685Y23366450D01*
X14746410Y23526410D01*
X14746404Y23526415D01*
X14586452Y23657684D01*
X14403954Y23755232D01*
X14205934Y23815301D01*
X14205929Y23815302D01*
X14000003Y23835583D01*
X13999997Y23835583D01*
X13794070Y23815302D01*
X13794065Y23815301D01*
X13596045Y23755232D01*
X13413547Y23657684D01*
X13253595Y23526415D01*
X13253585Y23526405D01*
X13122316Y23366453D01*
X13024768Y23183955D01*
X12964699Y22985935D01*
X12964698Y22985930D01*
X12944417Y22780004D01*
X12944417Y22779997D01*
X2450500Y22779997D01*
X2450500Y24450254D01*
X12949500Y24450254D01*
X12949501Y24450242D01*
X12961132Y24391773D01*
X12961133Y24391769D01*
X13005448Y24325448D01*
X13071769Y24281133D01*
X13116231Y24272289D01*
X13130241Y24269502D01*
X13130246Y24269502D01*
X13130252Y24269500D01*
X13130253Y24269500D01*
X14869747Y24269500D01*
X14869748Y24269500D01*
X14928231Y24281133D01*
X14994552Y24325448D01*
X15038867Y24391769D01*
X15050500Y24450252D01*
X15050500Y26189748D01*
X15038867Y26248231D01*
X14994552Y26314552D01*
X14994548Y26314555D01*
X14928233Y26358866D01*
X14928231Y26358867D01*
X14928228Y26358868D01*
X14928227Y26358868D01*
X14869758Y26370499D01*
X14869748Y26370500D01*
X13130252Y26370500D01*
X13130251Y26370500D01*
X13130241Y26370499D01*
X13071772Y26358868D01*
X13071766Y26358866D01*
X13005451Y26314555D01*
X13005445Y26314549D01*
X12961134Y26248234D01*
X12961132Y26248228D01*
X12949501Y26189759D01*
X12949500Y26189747D01*
X12949500Y24450254D01*
X2450500Y24450254D01*
X2450500Y28200500D01*
X2469407Y28258691D01*
X2518907Y28294655D01*
X2549500Y28299500D01*
X31450500Y28299500D01*
X31508691Y28280593D01*
G37*
%TD.AperFunction*%
%TD*%
M02*
