%TF.GenerationSoftware,KiCad,Pcbnew,7.0.7*%
%TF.CreationDate,2023-11-05T15:43:27+10:00*%
%TF.ProjectId,LEDBoard,4c454442-6f61-4726-942e-6b696361645f,rev?*%
%TF.SameCoordinates,Original*%
%TF.FileFunction,Copper,L2,Inr*%
%TF.FilePolarity,Positive*%
%FSLAX46Y46*%
G04 Gerber Fmt 4.6, Leading zero omitted, Abs format (unit mm)*
G04 Created by KiCad (PCBNEW 7.0.7) date 2023-11-05 15:43:27*
%MOMM*%
%LPD*%
G01*
G04 APERTURE LIST*
%TA.AperFunction,ViaPad*%
%ADD10C,0.400000*%
%TD*%
G04 APERTURE END LIST*
D10*
%TO.N,-BATT*%
X32000000Y-8000000D03*
X5400000Y-30000000D03*
X1750000Y-10250000D03*
X32150000Y-24500000D03*
X750000Y-17000000D03*
X33000000Y-23250000D03*
X33000000Y-25750000D03*
X2250000Y-17000000D03*
X8500000Y-3750000D03*
X31250000Y-25750000D03*
X32000000Y-7000000D03*
X6250000Y-29250000D03*
X31250000Y-23250000D03*
X34500000Y-8000000D03*
X26250000Y-3990000D03*
X4500000Y-30000000D03*
X32100000Y-18725000D03*
X5275000Y-33500000D03*
X32100000Y-16275000D03*
X1500000Y-17000000D03*
X1750000Y-3000000D03*
X32842947Y-30907053D03*
X34500000Y-7000000D03*
%TO.N,/LED0_R*%
X25240000Y-3000000D03*
%TO.N,/LED1_R*%
X25240000Y-2000000D03*
%TO.N,/LED2_R*%
X21750000Y-31500000D03*
%TO.N,/LED Array/COL0*%
X4000000Y-28000000D03*
X4657053Y-24092947D03*
X4657053Y-26592947D03*
X5750000Y-4500000D03*
%TO.N,/LED Array/ROW0*%
X5750000Y-5250000D03*
%TO.N,/LED Array/COL1*%
X7157053Y-26592947D03*
X7157053Y-14092947D03*
X7157053Y-21592947D03*
X7157053Y-29092947D03*
X6250000Y-9750000D03*
X7157053Y-16592947D03*
X7157053Y-24092947D03*
X7157053Y-19092947D03*
X7157053Y-11592947D03*
%TO.N,/LED Array/COL2*%
X9657053Y-16592947D03*
X9657053Y-24092947D03*
X9657053Y-9092947D03*
X9657053Y-21592947D03*
X9657053Y-26592947D03*
X9657053Y-14092947D03*
X9657053Y-11592947D03*
X9657053Y-29092947D03*
X11000000Y-6750000D03*
X9657053Y-19092947D03*
%TO.N,/LED Array/COL3*%
X12157053Y-26592947D03*
X12157053Y-29092947D03*
X12157053Y-14092947D03*
X12157053Y-11592947D03*
X12157053Y-19092947D03*
X12157053Y-21592947D03*
X12157053Y-16592947D03*
X12157053Y-6592947D03*
X12157053Y-9092947D03*
X12157053Y-24092947D03*
%TO.N,/LED Array/COL4*%
X14657053Y-26592947D03*
X14657053Y-29092947D03*
X14657053Y-19092947D03*
X14657053Y-6592947D03*
X14657053Y-11592947D03*
X14657053Y-24092947D03*
X14657053Y-16592947D03*
X14657053Y-9092947D03*
X14657053Y-21592947D03*
X14657053Y-14092947D03*
%TO.N,/LED Array/COL5*%
X17157053Y-19092947D03*
X17157053Y-29092947D03*
X17157053Y-21592947D03*
X17157053Y-6592947D03*
X17157053Y-24092947D03*
X17157053Y-16592947D03*
X17157053Y-14092947D03*
X17157053Y-11592947D03*
X17157053Y-9092947D03*
X17157053Y-26592947D03*
%TO.N,/LED Array/COL6*%
X19657053Y-26592947D03*
X19657053Y-29092947D03*
X19657053Y-9092947D03*
X19657053Y-6592947D03*
X19657053Y-24092947D03*
X19657053Y-19092947D03*
X19657053Y-14092947D03*
X19657053Y-16592947D03*
X19657053Y-21592947D03*
X19657053Y-11592947D03*
%TO.N,/LED Array/COL7*%
X22157053Y-19092947D03*
X22157053Y-14092947D03*
X22157053Y-24092947D03*
X22157053Y-6592947D03*
X22157053Y-26592947D03*
X22157053Y-9092947D03*
X22157053Y-21592947D03*
X22157053Y-11592947D03*
X22157053Y-29092947D03*
X22157053Y-16592947D03*
%TO.N,/LED Array/COL8*%
X24657053Y-29092947D03*
X24657053Y-11592947D03*
X24657053Y-26592947D03*
X24657053Y-21592947D03*
X24657053Y-16592947D03*
X24657053Y-9092947D03*
X24657053Y-24092947D03*
X24657053Y-6592947D03*
X24657053Y-19092947D03*
X24657053Y-14092947D03*
%TO.N,/LED Array/COL9*%
X27157053Y-16592947D03*
X27157053Y-21592947D03*
X27157053Y-24092947D03*
X27157053Y-26592947D03*
X27157053Y-14092947D03*
X27157053Y-19092947D03*
X27157053Y-29092947D03*
X25750000Y-7500000D03*
X27000000Y-10000000D03*
X27157053Y-11592947D03*
%TO.N,/LED Array/COL10*%
X29657053Y-24092947D03*
X29657053Y-11592947D03*
X23000000Y-4750000D03*
X29657053Y-14092947D03*
X29657053Y-29092947D03*
X29657053Y-21592947D03*
X29657053Y-26592947D03*
X29250000Y-7750000D03*
X29657053Y-16592947D03*
X29657053Y-19092947D03*
X29000000Y-9750000D03*
%TO.N,/LED Array/ROW1*%
X5750000Y-9000000D03*
%TO.N,/LED Array/ROW2*%
X5342947Y-10907053D03*
%TO.N,/LED Array/ROW3*%
X5342947Y-13407053D03*
%TO.N,/LED Array/ROW4*%
X5342947Y-15907053D03*
%TO.N,/LED Array/ROW5*%
X5342947Y-18407053D03*
%TO.N,/LED Array/ROW6*%
X5342947Y-20907053D03*
%TO.N,/LED Array/ROW7*%
X5342947Y-23407053D03*
%TO.N,/LED Array/ROW8*%
X500000Y-8250000D03*
%TO.N,/LED Array/ROW9*%
X750000Y-10000000D03*
%TO.N,+BATT*%
X32000000Y-5000000D03*
X32000000Y-6000000D03*
X6250000Y-31250000D03*
X4500000Y-32000000D03*
X34500000Y-5000000D03*
X31510000Y-13500000D03*
X5400000Y-32000000D03*
X34500000Y-6000000D03*
X25250000Y-3990000D03*
%TO.N,/LED3_R*%
X27842947Y-31592947D03*
%TD*%
%TA.AperFunction,Conductor*%
%TO.N,-BATT*%
G36*
X32434134Y-219407D02*
G01*
X32445947Y-229496D01*
X34770504Y-2554053D01*
X34798281Y-2608570D01*
X34799500Y-2624057D01*
X34799500Y-4541558D01*
X34780593Y-4599749D01*
X34731093Y-4635713D01*
X34669907Y-4635713D01*
X34655555Y-4629767D01*
X34625310Y-4614356D01*
X34625305Y-4614354D01*
X34625304Y-4614354D01*
X34500000Y-4594508D01*
X34374696Y-4614354D01*
X34374692Y-4614355D01*
X34261659Y-4671949D01*
X34171949Y-4761659D01*
X34114355Y-4874692D01*
X34114354Y-4874696D01*
X34094508Y-4999999D01*
X34094508Y-5000000D01*
X34114354Y-5125303D01*
X34114355Y-5125307D01*
X34169944Y-5234406D01*
X34171950Y-5238342D01*
X34261658Y-5328050D01*
X34374696Y-5385646D01*
X34466547Y-5400193D01*
X34479334Y-5402219D01*
X34495427Y-5410418D01*
X34520665Y-5402219D01*
X34625304Y-5385646D01*
X34655553Y-5370232D01*
X34715984Y-5360659D01*
X34770502Y-5388436D01*
X34798281Y-5442951D01*
X34799500Y-5458441D01*
X34799500Y-5541558D01*
X34780593Y-5599749D01*
X34731093Y-5635713D01*
X34669907Y-5635713D01*
X34655555Y-5629767D01*
X34625310Y-5614356D01*
X34625305Y-5614354D01*
X34625304Y-5614354D01*
X34520664Y-5597780D01*
X34504571Y-5589581D01*
X34479334Y-5597781D01*
X34374696Y-5614354D01*
X34374692Y-5614355D01*
X34261659Y-5671949D01*
X34171949Y-5761659D01*
X34114355Y-5874692D01*
X34114354Y-5874696D01*
X34094508Y-5999999D01*
X34094508Y-6000000D01*
X34114354Y-6125303D01*
X34114355Y-6125307D01*
X34156134Y-6207301D01*
X34171950Y-6238342D01*
X34261658Y-6328050D01*
X34374696Y-6385646D01*
X34500000Y-6405492D01*
X34625304Y-6385646D01*
X34655553Y-6370232D01*
X34715984Y-6360659D01*
X34770502Y-6388436D01*
X34798281Y-6442951D01*
X34799500Y-6458441D01*
X34799500Y-32375942D01*
X34780593Y-32434133D01*
X34770504Y-32445946D01*
X32445947Y-34770504D01*
X32391430Y-34798281D01*
X32375943Y-34799500D01*
X18766737Y-34799500D01*
X18708546Y-34780593D01*
X18672582Y-34731093D01*
X18669241Y-34717691D01*
X18664024Y-34688101D01*
X18592179Y-34490709D01*
X18592176Y-34490703D01*
X18592175Y-34490700D01*
X18521339Y-34368011D01*
X18487149Y-34308791D01*
X18486161Y-34307613D01*
X18352131Y-34147884D01*
X18352129Y-34147882D01*
X18352124Y-34147876D01*
X18352117Y-34147870D01*
X18352115Y-34147868D01*
X18191214Y-34012855D01*
X18191212Y-34012853D01*
X18191209Y-34012851D01*
X18175339Y-34003688D01*
X18009299Y-33907824D01*
X18009296Y-33907823D01*
X18009291Y-33907821D01*
X17811899Y-33835976D01*
X17770525Y-33828680D01*
X17605034Y-33799500D01*
X17605030Y-33799500D01*
X17394970Y-33799500D01*
X17394965Y-33799500D01*
X17188101Y-33835976D01*
X16990703Y-33907823D01*
X16990700Y-33907824D01*
X16808792Y-34012850D01*
X16808785Y-34012855D01*
X16647884Y-34147868D01*
X16647868Y-34147884D01*
X16512855Y-34308785D01*
X16512850Y-34308792D01*
X16407824Y-34490700D01*
X16407823Y-34490703D01*
X16335976Y-34688101D01*
X16330759Y-34717691D01*
X16302034Y-34771714D01*
X16247042Y-34798536D01*
X16233263Y-34799500D01*
X2624058Y-34799500D01*
X2565867Y-34780593D01*
X2554054Y-34770504D01*
X229496Y-32445946D01*
X201719Y-32391429D01*
X200500Y-32375942D01*
X200500Y-32000000D01*
X4094508Y-32000000D01*
X4114354Y-32125303D01*
X4114355Y-32125307D01*
X4116164Y-32128857D01*
X4171950Y-32238342D01*
X4261658Y-32328050D01*
X4374696Y-32385646D01*
X4500000Y-32405492D01*
X4625304Y-32385646D01*
X4738342Y-32328050D01*
X4828050Y-32238342D01*
X4861791Y-32172120D01*
X4905055Y-32128857D01*
X4965487Y-32119286D01*
X5020004Y-32147064D01*
X5038206Y-32172117D01*
X5071950Y-32238342D01*
X5161658Y-32328050D01*
X5274696Y-32385646D01*
X5400000Y-32405492D01*
X5525304Y-32385646D01*
X5638342Y-32328050D01*
X5728050Y-32238342D01*
X5785646Y-32125304D01*
X5805492Y-32000000D01*
X5785646Y-31874696D01*
X5728050Y-31761658D01*
X5638342Y-31671950D01*
X5567088Y-31635644D01*
X5525307Y-31614355D01*
X5525304Y-31614354D01*
X5400000Y-31594508D01*
X5274696Y-31614354D01*
X5274692Y-31614355D01*
X5161659Y-31671949D01*
X5071949Y-31761659D01*
X5038209Y-31827878D01*
X4994944Y-31871142D01*
X4934512Y-31880713D01*
X4879996Y-31852935D01*
X4861791Y-31827878D01*
X4857658Y-31819768D01*
X4828050Y-31761658D01*
X4738342Y-31671950D01*
X4667088Y-31635644D01*
X4625307Y-31614355D01*
X4625304Y-31614354D01*
X4500000Y-31594508D01*
X4374696Y-31614354D01*
X4374692Y-31614355D01*
X4261659Y-31671949D01*
X4171949Y-31761659D01*
X4114355Y-31874692D01*
X4114354Y-31874696D01*
X4094508Y-31999999D01*
X4094508Y-32000000D01*
X200500Y-32000000D01*
X200500Y-31250000D01*
X5844508Y-31250000D01*
X5864354Y-31375303D01*
X5864355Y-31375307D01*
X5911401Y-31467639D01*
X5921950Y-31488342D01*
X6011658Y-31578050D01*
X6124696Y-31635646D01*
X6250000Y-31655492D01*
X6375304Y-31635646D01*
X6488342Y-31578050D01*
X6566392Y-31500000D01*
X21344508Y-31500000D01*
X21359476Y-31594508D01*
X21364354Y-31625303D01*
X21364355Y-31625307D01*
X21411713Y-31718251D01*
X21421950Y-31738342D01*
X21511658Y-31828050D01*
X21624696Y-31885646D01*
X21732866Y-31902778D01*
X21749999Y-31905492D01*
X21749999Y-31905491D01*
X21750000Y-31905492D01*
X21875304Y-31885646D01*
X21988342Y-31828050D01*
X22078050Y-31738342D01*
X22135646Y-31625304D01*
X22140771Y-31592947D01*
X27437455Y-31592947D01*
X27444217Y-31635644D01*
X27457301Y-31718250D01*
X27457302Y-31718254D01*
X27512891Y-31827353D01*
X27514897Y-31831289D01*
X27604605Y-31920997D01*
X27717643Y-31978593D01*
X27842947Y-31998439D01*
X27968251Y-31978593D01*
X28081289Y-31920997D01*
X28170997Y-31831289D01*
X28228593Y-31718251D01*
X28248439Y-31592947D01*
X28228593Y-31467643D01*
X28170997Y-31354605D01*
X28081289Y-31264897D01*
X28052050Y-31249999D01*
X27968254Y-31207302D01*
X27968251Y-31207301D01*
X27842947Y-31187455D01*
X27717643Y-31207301D01*
X27717639Y-31207302D01*
X27604606Y-31264896D01*
X27514896Y-31354606D01*
X27457302Y-31467639D01*
X27457301Y-31467643D01*
X27437455Y-31592947D01*
X22140771Y-31592947D01*
X22155492Y-31500000D01*
X22135646Y-31374696D01*
X22078050Y-31261658D01*
X21988342Y-31171950D01*
X21984406Y-31169944D01*
X21875307Y-31114355D01*
X21875304Y-31114354D01*
X21750000Y-31094508D01*
X21624696Y-31114354D01*
X21624692Y-31114355D01*
X21511659Y-31171949D01*
X21421949Y-31261659D01*
X21364355Y-31374692D01*
X21364354Y-31374696D01*
X21344508Y-31500000D01*
X6566392Y-31500000D01*
X6578050Y-31488342D01*
X6635646Y-31375304D01*
X6655492Y-31250000D01*
X6635646Y-31124696D01*
X6578050Y-31011658D01*
X6488342Y-30921950D01*
X6484406Y-30919944D01*
X6375307Y-30864355D01*
X6375304Y-30864354D01*
X6250000Y-30844508D01*
X6124696Y-30864354D01*
X6124692Y-30864355D01*
X6011659Y-30921949D01*
X5921949Y-31011659D01*
X5864355Y-31124692D01*
X5864354Y-31124696D01*
X5844508Y-31249999D01*
X5844508Y-31250000D01*
X200500Y-31250000D01*
X200500Y-29092947D01*
X6751561Y-29092947D01*
X6771407Y-29218250D01*
X6771408Y-29218254D01*
X6826997Y-29327353D01*
X6829003Y-29331289D01*
X6918711Y-29420997D01*
X7031749Y-29478593D01*
X7139919Y-29495725D01*
X7157052Y-29498439D01*
X7157052Y-29498438D01*
X7157053Y-29498439D01*
X7282357Y-29478593D01*
X7395395Y-29420997D01*
X7485103Y-29331289D01*
X7542699Y-29218251D01*
X7562545Y-29092947D01*
X9251561Y-29092947D01*
X9271407Y-29218250D01*
X9271408Y-29218254D01*
X9326997Y-29327353D01*
X9329003Y-29331289D01*
X9418711Y-29420997D01*
X9531749Y-29478593D01*
X9639919Y-29495725D01*
X9657052Y-29498439D01*
X9657052Y-29498438D01*
X9657053Y-29498439D01*
X9782357Y-29478593D01*
X9895395Y-29420997D01*
X9985103Y-29331289D01*
X10042699Y-29218251D01*
X10062545Y-29092947D01*
X11751561Y-29092947D01*
X11771407Y-29218250D01*
X11771408Y-29218254D01*
X11826997Y-29327353D01*
X11829003Y-29331289D01*
X11918711Y-29420997D01*
X12031749Y-29478593D01*
X12157053Y-29498439D01*
X12282357Y-29478593D01*
X12395395Y-29420997D01*
X12485103Y-29331289D01*
X12542699Y-29218251D01*
X12562545Y-29092947D01*
X14251561Y-29092947D01*
X14271407Y-29218250D01*
X14271408Y-29218254D01*
X14326997Y-29327353D01*
X14329003Y-29331289D01*
X14418711Y-29420997D01*
X14531749Y-29478593D01*
X14657053Y-29498439D01*
X14782357Y-29478593D01*
X14895395Y-29420997D01*
X14985103Y-29331289D01*
X15042699Y-29218251D01*
X15062545Y-29092947D01*
X16751561Y-29092947D01*
X16771407Y-29218250D01*
X16771408Y-29218254D01*
X16826997Y-29327353D01*
X16829003Y-29331289D01*
X16918711Y-29420997D01*
X17031749Y-29478593D01*
X17139919Y-29495725D01*
X17157052Y-29498439D01*
X17157052Y-29498438D01*
X17157053Y-29498439D01*
X17282357Y-29478593D01*
X17395395Y-29420997D01*
X17485103Y-29331289D01*
X17542699Y-29218251D01*
X17562545Y-29092947D01*
X19251561Y-29092947D01*
X19271407Y-29218250D01*
X19271408Y-29218254D01*
X19326997Y-29327353D01*
X19329003Y-29331289D01*
X19418711Y-29420997D01*
X19531749Y-29478593D01*
X19639919Y-29495725D01*
X19657052Y-29498439D01*
X19657052Y-29498438D01*
X19657053Y-29498439D01*
X19782357Y-29478593D01*
X19895395Y-29420997D01*
X19985103Y-29331289D01*
X20042699Y-29218251D01*
X20062545Y-29092947D01*
X21751561Y-29092947D01*
X21771407Y-29218250D01*
X21771408Y-29218254D01*
X21826997Y-29327353D01*
X21829003Y-29331289D01*
X21918711Y-29420997D01*
X22031749Y-29478593D01*
X22157053Y-29498439D01*
X22282357Y-29478593D01*
X22395395Y-29420997D01*
X22485103Y-29331289D01*
X22542699Y-29218251D01*
X22562545Y-29092947D01*
X24251561Y-29092947D01*
X24271407Y-29218250D01*
X24271408Y-29218254D01*
X24326997Y-29327353D01*
X24329003Y-29331289D01*
X24418711Y-29420997D01*
X24531749Y-29478593D01*
X24657053Y-29498439D01*
X24782357Y-29478593D01*
X24895395Y-29420997D01*
X24985103Y-29331289D01*
X25042699Y-29218251D01*
X25062545Y-29092947D01*
X26751561Y-29092947D01*
X26771407Y-29218250D01*
X26771408Y-29218254D01*
X26826997Y-29327353D01*
X26829003Y-29331289D01*
X26918711Y-29420997D01*
X27031749Y-29478593D01*
X27139919Y-29495725D01*
X27157052Y-29498439D01*
X27157052Y-29498438D01*
X27157053Y-29498439D01*
X27282357Y-29478593D01*
X27395395Y-29420997D01*
X27485103Y-29331289D01*
X27542699Y-29218251D01*
X27562545Y-29092947D01*
X29251561Y-29092947D01*
X29271407Y-29218250D01*
X29271408Y-29218254D01*
X29326997Y-29327353D01*
X29329003Y-29331289D01*
X29418711Y-29420997D01*
X29531749Y-29478593D01*
X29639919Y-29495725D01*
X29657052Y-29498439D01*
X29657052Y-29498438D01*
X29657053Y-29498439D01*
X29782357Y-29478593D01*
X29895395Y-29420997D01*
X29985103Y-29331289D01*
X30042699Y-29218251D01*
X30062545Y-29092947D01*
X30042699Y-28967643D01*
X29985103Y-28854605D01*
X29895395Y-28764897D01*
X29891459Y-28762891D01*
X29782360Y-28707302D01*
X29782357Y-28707301D01*
X29657053Y-28687455D01*
X29531749Y-28707301D01*
X29531745Y-28707302D01*
X29418712Y-28764896D01*
X29329002Y-28854606D01*
X29271408Y-28967639D01*
X29271407Y-28967643D01*
X29251561Y-29092946D01*
X29251561Y-29092947D01*
X27562545Y-29092947D01*
X27542699Y-28967643D01*
X27485103Y-28854605D01*
X27395395Y-28764897D01*
X27391459Y-28762891D01*
X27282360Y-28707302D01*
X27282357Y-28707301D01*
X27157053Y-28687455D01*
X27031749Y-28707301D01*
X27031745Y-28707302D01*
X26918712Y-28764896D01*
X26829002Y-28854606D01*
X26771408Y-28967639D01*
X26771407Y-28967643D01*
X26751561Y-29092946D01*
X26751561Y-29092947D01*
X25062545Y-29092947D01*
X25042699Y-28967643D01*
X24985103Y-28854605D01*
X24895395Y-28764897D01*
X24891459Y-28762891D01*
X24782360Y-28707302D01*
X24782357Y-28707301D01*
X24657053Y-28687455D01*
X24531749Y-28707301D01*
X24531745Y-28707302D01*
X24418712Y-28764896D01*
X24329002Y-28854606D01*
X24271408Y-28967639D01*
X24271407Y-28967643D01*
X24251561Y-29092946D01*
X24251561Y-29092947D01*
X22562545Y-29092947D01*
X22542699Y-28967643D01*
X22485103Y-28854605D01*
X22395395Y-28764897D01*
X22391459Y-28762891D01*
X22282360Y-28707302D01*
X22282357Y-28707301D01*
X22157053Y-28687455D01*
X22031749Y-28707301D01*
X22031745Y-28707302D01*
X21918712Y-28764896D01*
X21829002Y-28854606D01*
X21771408Y-28967639D01*
X21771407Y-28967643D01*
X21751561Y-29092946D01*
X21751561Y-29092947D01*
X20062545Y-29092947D01*
X20042699Y-28967643D01*
X19985103Y-28854605D01*
X19895395Y-28764897D01*
X19891459Y-28762891D01*
X19782360Y-28707302D01*
X19782357Y-28707301D01*
X19657053Y-28687455D01*
X19531749Y-28707301D01*
X19531745Y-28707302D01*
X19418712Y-28764896D01*
X19329002Y-28854606D01*
X19271408Y-28967639D01*
X19271407Y-28967643D01*
X19251561Y-29092946D01*
X19251561Y-29092947D01*
X17562545Y-29092947D01*
X17542699Y-28967643D01*
X17485103Y-28854605D01*
X17395395Y-28764897D01*
X17391459Y-28762891D01*
X17282360Y-28707302D01*
X17282357Y-28707301D01*
X17157053Y-28687455D01*
X17031749Y-28707301D01*
X17031745Y-28707302D01*
X16918712Y-28764896D01*
X16829002Y-28854606D01*
X16771408Y-28967639D01*
X16771407Y-28967643D01*
X16751561Y-29092946D01*
X16751561Y-29092947D01*
X15062545Y-29092947D01*
X15042699Y-28967643D01*
X14985103Y-28854605D01*
X14895395Y-28764897D01*
X14891459Y-28762891D01*
X14782360Y-28707302D01*
X14782357Y-28707301D01*
X14657053Y-28687455D01*
X14531749Y-28707301D01*
X14531745Y-28707302D01*
X14418712Y-28764896D01*
X14329002Y-28854606D01*
X14271408Y-28967639D01*
X14271407Y-28967643D01*
X14251561Y-29092946D01*
X14251561Y-29092947D01*
X12562545Y-29092947D01*
X12542699Y-28967643D01*
X12485103Y-28854605D01*
X12395395Y-28764897D01*
X12391459Y-28762891D01*
X12282360Y-28707302D01*
X12282357Y-28707301D01*
X12157053Y-28687455D01*
X12031749Y-28707301D01*
X12031745Y-28707302D01*
X11918712Y-28764896D01*
X11829002Y-28854606D01*
X11771408Y-28967639D01*
X11771407Y-28967643D01*
X11751561Y-29092946D01*
X11751561Y-29092947D01*
X10062545Y-29092947D01*
X10042699Y-28967643D01*
X9985103Y-28854605D01*
X9895395Y-28764897D01*
X9891459Y-28762891D01*
X9782360Y-28707302D01*
X9782357Y-28707301D01*
X9657053Y-28687455D01*
X9531749Y-28707301D01*
X9531745Y-28707302D01*
X9418712Y-28764896D01*
X9329002Y-28854606D01*
X9271408Y-28967639D01*
X9271407Y-28967643D01*
X9251561Y-29092946D01*
X9251561Y-29092947D01*
X7562545Y-29092947D01*
X7542699Y-28967643D01*
X7485103Y-28854605D01*
X7395395Y-28764897D01*
X7391459Y-28762891D01*
X7282360Y-28707302D01*
X7282357Y-28707301D01*
X7157053Y-28687455D01*
X7031749Y-28707301D01*
X7031745Y-28707302D01*
X6918712Y-28764896D01*
X6829002Y-28854606D01*
X6771408Y-28967639D01*
X6771407Y-28967643D01*
X6751561Y-29092946D01*
X6751561Y-29092947D01*
X200500Y-29092947D01*
X200500Y-28000000D01*
X3594508Y-28000000D01*
X3614354Y-28125303D01*
X3614355Y-28125307D01*
X3669944Y-28234406D01*
X3671950Y-28238342D01*
X3761658Y-28328050D01*
X3874696Y-28385646D01*
X4000000Y-28405492D01*
X4125304Y-28385646D01*
X4238342Y-28328050D01*
X4328050Y-28238342D01*
X4385646Y-28125304D01*
X4405492Y-28000000D01*
X4385646Y-27874696D01*
X4328050Y-27761658D01*
X4238342Y-27671950D01*
X4234406Y-27669944D01*
X4125307Y-27614355D01*
X4125304Y-27614354D01*
X4000000Y-27594508D01*
X3874696Y-27614354D01*
X3874692Y-27614355D01*
X3761659Y-27671949D01*
X3671949Y-27761659D01*
X3614355Y-27874692D01*
X3614354Y-27874696D01*
X3594508Y-27999999D01*
X3594508Y-28000000D01*
X200500Y-28000000D01*
X200500Y-26592947D01*
X4251561Y-26592947D01*
X4271407Y-26718250D01*
X4271408Y-26718254D01*
X4326997Y-26827353D01*
X4329003Y-26831289D01*
X4418711Y-26920997D01*
X4531749Y-26978593D01*
X4639919Y-26995725D01*
X4657052Y-26998439D01*
X4657052Y-26998438D01*
X4657053Y-26998439D01*
X4782357Y-26978593D01*
X4895395Y-26920997D01*
X4985103Y-26831289D01*
X5042699Y-26718251D01*
X5062545Y-26592947D01*
X6751561Y-26592947D01*
X6771407Y-26718250D01*
X6771408Y-26718254D01*
X6826997Y-26827353D01*
X6829003Y-26831289D01*
X6918711Y-26920997D01*
X7031749Y-26978593D01*
X7157053Y-26998439D01*
X7282357Y-26978593D01*
X7395395Y-26920997D01*
X7485103Y-26831289D01*
X7542699Y-26718251D01*
X7562545Y-26592947D01*
X9251561Y-26592947D01*
X9271407Y-26718250D01*
X9271408Y-26718254D01*
X9326997Y-26827353D01*
X9329003Y-26831289D01*
X9418711Y-26920997D01*
X9531749Y-26978593D01*
X9657053Y-26998439D01*
X9782357Y-26978593D01*
X9895395Y-26920997D01*
X9985103Y-26831289D01*
X10042699Y-26718251D01*
X10062545Y-26592947D01*
X11751561Y-26592947D01*
X11771407Y-26718250D01*
X11771408Y-26718254D01*
X11826997Y-26827353D01*
X11829003Y-26831289D01*
X11918711Y-26920997D01*
X12031749Y-26978593D01*
X12157053Y-26998439D01*
X12282357Y-26978593D01*
X12395395Y-26920997D01*
X12485103Y-26831289D01*
X12542699Y-26718251D01*
X12562545Y-26592947D01*
X14251561Y-26592947D01*
X14271407Y-26718250D01*
X14271408Y-26718254D01*
X14326997Y-26827353D01*
X14329003Y-26831289D01*
X14418711Y-26920997D01*
X14531749Y-26978593D01*
X14639919Y-26995725D01*
X14657052Y-26998439D01*
X14657052Y-26998438D01*
X14657053Y-26998439D01*
X14782357Y-26978593D01*
X14895395Y-26920997D01*
X14985103Y-26831289D01*
X15042699Y-26718251D01*
X15062545Y-26592947D01*
X16751561Y-26592947D01*
X16771407Y-26718250D01*
X16771408Y-26718254D01*
X16826997Y-26827353D01*
X16829003Y-26831289D01*
X16918711Y-26920997D01*
X17031749Y-26978593D01*
X17139919Y-26995725D01*
X17157052Y-26998439D01*
X17157052Y-26998438D01*
X17157053Y-26998439D01*
X17282357Y-26978593D01*
X17395395Y-26920997D01*
X17485103Y-26831289D01*
X17542699Y-26718251D01*
X17562545Y-26592947D01*
X19251561Y-26592947D01*
X19271407Y-26718250D01*
X19271408Y-26718254D01*
X19326997Y-26827353D01*
X19329003Y-26831289D01*
X19418711Y-26920997D01*
X19531749Y-26978593D01*
X19657053Y-26998439D01*
X19782357Y-26978593D01*
X19895395Y-26920997D01*
X19985103Y-26831289D01*
X20042699Y-26718251D01*
X20062545Y-26592947D01*
X21751561Y-26592947D01*
X21771407Y-26718250D01*
X21771408Y-26718254D01*
X21826997Y-26827353D01*
X21829003Y-26831289D01*
X21918711Y-26920997D01*
X22031749Y-26978593D01*
X22157053Y-26998439D01*
X22282357Y-26978593D01*
X22395395Y-26920997D01*
X22485103Y-26831289D01*
X22542699Y-26718251D01*
X22562545Y-26592947D01*
X24251561Y-26592947D01*
X24271407Y-26718250D01*
X24271408Y-26718254D01*
X24326997Y-26827353D01*
X24329003Y-26831289D01*
X24418711Y-26920997D01*
X24531749Y-26978593D01*
X24639919Y-26995725D01*
X24657052Y-26998439D01*
X24657052Y-26998438D01*
X24657053Y-26998439D01*
X24782357Y-26978593D01*
X24895395Y-26920997D01*
X24985103Y-26831289D01*
X25042699Y-26718251D01*
X25062545Y-26592947D01*
X26751561Y-26592947D01*
X26771407Y-26718250D01*
X26771408Y-26718254D01*
X26826997Y-26827353D01*
X26829003Y-26831289D01*
X26918711Y-26920997D01*
X27031749Y-26978593D01*
X27139919Y-26995725D01*
X27157052Y-26998439D01*
X27157052Y-26998438D01*
X27157053Y-26998439D01*
X27282357Y-26978593D01*
X27395395Y-26920997D01*
X27485103Y-26831289D01*
X27542699Y-26718251D01*
X27562545Y-26592947D01*
X29251561Y-26592947D01*
X29271407Y-26718250D01*
X29271408Y-26718254D01*
X29326997Y-26827353D01*
X29329003Y-26831289D01*
X29418711Y-26920997D01*
X29531749Y-26978593D01*
X29657053Y-26998439D01*
X29782357Y-26978593D01*
X29895395Y-26920997D01*
X29985103Y-26831289D01*
X30042699Y-26718251D01*
X30062545Y-26592947D01*
X30042699Y-26467643D01*
X29985103Y-26354605D01*
X29895395Y-26264897D01*
X29891459Y-26262891D01*
X29782360Y-26207302D01*
X29782357Y-26207301D01*
X29657053Y-26187455D01*
X29531749Y-26207301D01*
X29531745Y-26207302D01*
X29418712Y-26264896D01*
X29329002Y-26354606D01*
X29271408Y-26467639D01*
X29271407Y-26467643D01*
X29251561Y-26592946D01*
X29251561Y-26592947D01*
X27562545Y-26592947D01*
X27542699Y-26467643D01*
X27485103Y-26354605D01*
X27395395Y-26264897D01*
X27391459Y-26262891D01*
X27282360Y-26207302D01*
X27282357Y-26207301D01*
X27157053Y-26187455D01*
X27031749Y-26207301D01*
X27031745Y-26207302D01*
X26918712Y-26264896D01*
X26829002Y-26354606D01*
X26771408Y-26467639D01*
X26771407Y-26467643D01*
X26751561Y-26592946D01*
X26751561Y-26592947D01*
X25062545Y-26592947D01*
X25042699Y-26467643D01*
X24985103Y-26354605D01*
X24895395Y-26264897D01*
X24891459Y-26262891D01*
X24782360Y-26207302D01*
X24782357Y-26207301D01*
X24657053Y-26187455D01*
X24531749Y-26207301D01*
X24531745Y-26207302D01*
X24418712Y-26264896D01*
X24329002Y-26354606D01*
X24271408Y-26467639D01*
X24271407Y-26467643D01*
X24251561Y-26592946D01*
X24251561Y-26592947D01*
X22562545Y-26592947D01*
X22542699Y-26467643D01*
X22485103Y-26354605D01*
X22395395Y-26264897D01*
X22391459Y-26262891D01*
X22282360Y-26207302D01*
X22282357Y-26207301D01*
X22157053Y-26187455D01*
X22031749Y-26207301D01*
X22031745Y-26207302D01*
X21918712Y-26264896D01*
X21829002Y-26354606D01*
X21771408Y-26467639D01*
X21771407Y-26467643D01*
X21751561Y-26592946D01*
X21751561Y-26592947D01*
X20062545Y-26592947D01*
X20042699Y-26467643D01*
X19985103Y-26354605D01*
X19895395Y-26264897D01*
X19891459Y-26262891D01*
X19782360Y-26207302D01*
X19782357Y-26207301D01*
X19657053Y-26187455D01*
X19531749Y-26207301D01*
X19531745Y-26207302D01*
X19418712Y-26264896D01*
X19329002Y-26354606D01*
X19271408Y-26467639D01*
X19271407Y-26467643D01*
X19251561Y-26592946D01*
X19251561Y-26592947D01*
X17562545Y-26592947D01*
X17542699Y-26467643D01*
X17485103Y-26354605D01*
X17395395Y-26264897D01*
X17391459Y-26262891D01*
X17282360Y-26207302D01*
X17282357Y-26207301D01*
X17157053Y-26187455D01*
X17031749Y-26207301D01*
X17031745Y-26207302D01*
X16918712Y-26264896D01*
X16829002Y-26354606D01*
X16771408Y-26467639D01*
X16771407Y-26467643D01*
X16751561Y-26592946D01*
X16751561Y-26592947D01*
X15062545Y-26592947D01*
X15042699Y-26467643D01*
X14985103Y-26354605D01*
X14895395Y-26264897D01*
X14891459Y-26262891D01*
X14782360Y-26207302D01*
X14782357Y-26207301D01*
X14657053Y-26187455D01*
X14531749Y-26207301D01*
X14531745Y-26207302D01*
X14418712Y-26264896D01*
X14329002Y-26354606D01*
X14271408Y-26467639D01*
X14271407Y-26467643D01*
X14251561Y-26592946D01*
X14251561Y-26592947D01*
X12562545Y-26592947D01*
X12542699Y-26467643D01*
X12485103Y-26354605D01*
X12395395Y-26264897D01*
X12391459Y-26262891D01*
X12282360Y-26207302D01*
X12282357Y-26207301D01*
X12157053Y-26187455D01*
X12031749Y-26207301D01*
X12031745Y-26207302D01*
X11918712Y-26264896D01*
X11829002Y-26354606D01*
X11771408Y-26467639D01*
X11771407Y-26467643D01*
X11751561Y-26592946D01*
X11751561Y-26592947D01*
X10062545Y-26592947D01*
X10042699Y-26467643D01*
X9985103Y-26354605D01*
X9895395Y-26264897D01*
X9891459Y-26262891D01*
X9782360Y-26207302D01*
X9782357Y-26207301D01*
X9657053Y-26187455D01*
X9531749Y-26207301D01*
X9531745Y-26207302D01*
X9418712Y-26264896D01*
X9329002Y-26354606D01*
X9271408Y-26467639D01*
X9271407Y-26467643D01*
X9251561Y-26592946D01*
X9251561Y-26592947D01*
X7562545Y-26592947D01*
X7542699Y-26467643D01*
X7485103Y-26354605D01*
X7395395Y-26264897D01*
X7391459Y-26262891D01*
X7282360Y-26207302D01*
X7282357Y-26207301D01*
X7157053Y-26187455D01*
X7031749Y-26207301D01*
X7031745Y-26207302D01*
X6918712Y-26264896D01*
X6829002Y-26354606D01*
X6771408Y-26467639D01*
X6771407Y-26467643D01*
X6751561Y-26592946D01*
X6751561Y-26592947D01*
X5062545Y-26592947D01*
X5042699Y-26467643D01*
X4985103Y-26354605D01*
X4895395Y-26264897D01*
X4891459Y-26262891D01*
X4782360Y-26207302D01*
X4782357Y-26207301D01*
X4657053Y-26187455D01*
X4531749Y-26207301D01*
X4531745Y-26207302D01*
X4418712Y-26264896D01*
X4329002Y-26354606D01*
X4271408Y-26467639D01*
X4271407Y-26467643D01*
X4251561Y-26592946D01*
X4251561Y-26592947D01*
X200500Y-26592947D01*
X200500Y-24092947D01*
X4251561Y-24092947D01*
X4271407Y-24218250D01*
X4271408Y-24218254D01*
X4326997Y-24327353D01*
X4329003Y-24331289D01*
X4418711Y-24420997D01*
X4531749Y-24478593D01*
X4657053Y-24498439D01*
X4782357Y-24478593D01*
X4895395Y-24420997D01*
X4985103Y-24331289D01*
X5042699Y-24218251D01*
X5062545Y-24092947D01*
X6751561Y-24092947D01*
X6771407Y-24218250D01*
X6771408Y-24218254D01*
X6826997Y-24327353D01*
X6829003Y-24331289D01*
X6918711Y-24420997D01*
X7031749Y-24478593D01*
X7139919Y-24495725D01*
X7157052Y-24498439D01*
X7157052Y-24498438D01*
X7157053Y-24498439D01*
X7282357Y-24478593D01*
X7395395Y-24420997D01*
X7485103Y-24331289D01*
X7542699Y-24218251D01*
X7562545Y-24092947D01*
X9251561Y-24092947D01*
X9271407Y-24218250D01*
X9271408Y-24218254D01*
X9326997Y-24327353D01*
X9329003Y-24331289D01*
X9418711Y-24420997D01*
X9531749Y-24478593D01*
X9657053Y-24498439D01*
X9782357Y-24478593D01*
X9895395Y-24420997D01*
X9985103Y-24331289D01*
X10042699Y-24218251D01*
X10062545Y-24092947D01*
X11751561Y-24092947D01*
X11771407Y-24218250D01*
X11771408Y-24218254D01*
X11826997Y-24327353D01*
X11829003Y-24331289D01*
X11918711Y-24420997D01*
X12031749Y-24478593D01*
X12139919Y-24495725D01*
X12157052Y-24498439D01*
X12157052Y-24498438D01*
X12157053Y-24498439D01*
X12282357Y-24478593D01*
X12395395Y-24420997D01*
X12485103Y-24331289D01*
X12542699Y-24218251D01*
X12562545Y-24092947D01*
X14251561Y-24092947D01*
X14271407Y-24218250D01*
X14271408Y-24218254D01*
X14326997Y-24327353D01*
X14329003Y-24331289D01*
X14418711Y-24420997D01*
X14531749Y-24478593D01*
X14657053Y-24498439D01*
X14782357Y-24478593D01*
X14895395Y-24420997D01*
X14985103Y-24331289D01*
X15042699Y-24218251D01*
X15062545Y-24092947D01*
X16751561Y-24092947D01*
X16771407Y-24218250D01*
X16771408Y-24218254D01*
X16826997Y-24327353D01*
X16829003Y-24331289D01*
X16918711Y-24420997D01*
X17031749Y-24478593D01*
X17139919Y-24495725D01*
X17157052Y-24498439D01*
X17157052Y-24498438D01*
X17157053Y-24498439D01*
X17282357Y-24478593D01*
X17395395Y-24420997D01*
X17485103Y-24331289D01*
X17542699Y-24218251D01*
X17562545Y-24092947D01*
X19251561Y-24092947D01*
X19271407Y-24218250D01*
X19271408Y-24218254D01*
X19326997Y-24327353D01*
X19329003Y-24331289D01*
X19418711Y-24420997D01*
X19531749Y-24478593D01*
X19657053Y-24498439D01*
X19782357Y-24478593D01*
X19895395Y-24420997D01*
X19985103Y-24331289D01*
X20042699Y-24218251D01*
X20062545Y-24092947D01*
X21751561Y-24092947D01*
X21771407Y-24218250D01*
X21771408Y-24218254D01*
X21826997Y-24327353D01*
X21829003Y-24331289D01*
X21918711Y-24420997D01*
X22031749Y-24478593D01*
X22139919Y-24495725D01*
X22157052Y-24498439D01*
X22157052Y-24498438D01*
X22157053Y-24498439D01*
X22282357Y-24478593D01*
X22395395Y-24420997D01*
X22485103Y-24331289D01*
X22542699Y-24218251D01*
X22562545Y-24092947D01*
X24251561Y-24092947D01*
X24271407Y-24218250D01*
X24271408Y-24218254D01*
X24326997Y-24327353D01*
X24329003Y-24331289D01*
X24418711Y-24420997D01*
X24531749Y-24478593D01*
X24639919Y-24495725D01*
X24657052Y-24498439D01*
X24657052Y-24498438D01*
X24657053Y-24498439D01*
X24782357Y-24478593D01*
X24895395Y-24420997D01*
X24985103Y-24331289D01*
X25042699Y-24218251D01*
X25062545Y-24092947D01*
X26751561Y-24092947D01*
X26771407Y-24218250D01*
X26771408Y-24218254D01*
X26826997Y-24327353D01*
X26829003Y-24331289D01*
X26918711Y-24420997D01*
X27031749Y-24478593D01*
X27157053Y-24498439D01*
X27282357Y-24478593D01*
X27395395Y-24420997D01*
X27485103Y-24331289D01*
X27542699Y-24218251D01*
X27562545Y-24092947D01*
X29251561Y-24092947D01*
X29271407Y-24218250D01*
X29271408Y-24218254D01*
X29326997Y-24327353D01*
X29329003Y-24331289D01*
X29418711Y-24420997D01*
X29531749Y-24478593D01*
X29657053Y-24498439D01*
X29782357Y-24478593D01*
X29895395Y-24420997D01*
X29985103Y-24331289D01*
X30042699Y-24218251D01*
X30062545Y-24092947D01*
X30042699Y-23967643D01*
X29985103Y-23854605D01*
X29895395Y-23764897D01*
X29891459Y-23762891D01*
X29782360Y-23707302D01*
X29782357Y-23707301D01*
X29657053Y-23687455D01*
X29531749Y-23707301D01*
X29531745Y-23707302D01*
X29418712Y-23764896D01*
X29329002Y-23854606D01*
X29271408Y-23967639D01*
X29271407Y-23967643D01*
X29251561Y-24092946D01*
X29251561Y-24092947D01*
X27562545Y-24092947D01*
X27542699Y-23967643D01*
X27485103Y-23854605D01*
X27395395Y-23764897D01*
X27391459Y-23762891D01*
X27282360Y-23707302D01*
X27282357Y-23707301D01*
X27157053Y-23687455D01*
X27031749Y-23707301D01*
X27031745Y-23707302D01*
X26918712Y-23764896D01*
X26829002Y-23854606D01*
X26771408Y-23967639D01*
X26771407Y-23967643D01*
X26751561Y-24092946D01*
X26751561Y-24092947D01*
X25062545Y-24092947D01*
X25042699Y-23967643D01*
X24985103Y-23854605D01*
X24895395Y-23764897D01*
X24891459Y-23762891D01*
X24782360Y-23707302D01*
X24782357Y-23707301D01*
X24657053Y-23687455D01*
X24531749Y-23707301D01*
X24531745Y-23707302D01*
X24418712Y-23764896D01*
X24329002Y-23854606D01*
X24271408Y-23967639D01*
X24271407Y-23967643D01*
X24251561Y-24092946D01*
X24251561Y-24092947D01*
X22562545Y-24092947D01*
X22542699Y-23967643D01*
X22485103Y-23854605D01*
X22395395Y-23764897D01*
X22391459Y-23762891D01*
X22282360Y-23707302D01*
X22282357Y-23707301D01*
X22157053Y-23687455D01*
X22031749Y-23707301D01*
X22031745Y-23707302D01*
X21918712Y-23764896D01*
X21829002Y-23854606D01*
X21771408Y-23967639D01*
X21771407Y-23967643D01*
X21751561Y-24092946D01*
X21751561Y-24092947D01*
X20062545Y-24092947D01*
X20042699Y-23967643D01*
X19985103Y-23854605D01*
X19895395Y-23764897D01*
X19891459Y-23762891D01*
X19782360Y-23707302D01*
X19782357Y-23707301D01*
X19657053Y-23687455D01*
X19531749Y-23707301D01*
X19531745Y-23707302D01*
X19418712Y-23764896D01*
X19329002Y-23854606D01*
X19271408Y-23967639D01*
X19271407Y-23967643D01*
X19251561Y-24092946D01*
X19251561Y-24092947D01*
X17562545Y-24092947D01*
X17542699Y-23967643D01*
X17485103Y-23854605D01*
X17395395Y-23764897D01*
X17391459Y-23762891D01*
X17282360Y-23707302D01*
X17282357Y-23707301D01*
X17157053Y-23687455D01*
X17031749Y-23707301D01*
X17031745Y-23707302D01*
X16918712Y-23764896D01*
X16829002Y-23854606D01*
X16771408Y-23967639D01*
X16771407Y-23967643D01*
X16751561Y-24092946D01*
X16751561Y-24092947D01*
X15062545Y-24092947D01*
X15042699Y-23967643D01*
X14985103Y-23854605D01*
X14895395Y-23764897D01*
X14891459Y-23762891D01*
X14782360Y-23707302D01*
X14782357Y-23707301D01*
X14657053Y-23687455D01*
X14531749Y-23707301D01*
X14531745Y-23707302D01*
X14418712Y-23764896D01*
X14329002Y-23854606D01*
X14271408Y-23967639D01*
X14271407Y-23967643D01*
X14251561Y-24092946D01*
X14251561Y-24092947D01*
X12562545Y-24092947D01*
X12542699Y-23967643D01*
X12485103Y-23854605D01*
X12395395Y-23764897D01*
X12391459Y-23762891D01*
X12282360Y-23707302D01*
X12282357Y-23707301D01*
X12157053Y-23687455D01*
X12031749Y-23707301D01*
X12031745Y-23707302D01*
X11918712Y-23764896D01*
X11829002Y-23854606D01*
X11771408Y-23967639D01*
X11771407Y-23967643D01*
X11751561Y-24092946D01*
X11751561Y-24092947D01*
X10062545Y-24092947D01*
X10042699Y-23967643D01*
X9985103Y-23854605D01*
X9895395Y-23764897D01*
X9891459Y-23762891D01*
X9782360Y-23707302D01*
X9782357Y-23707301D01*
X9657053Y-23687455D01*
X9531749Y-23707301D01*
X9531745Y-23707302D01*
X9418712Y-23764896D01*
X9329002Y-23854606D01*
X9271408Y-23967639D01*
X9271407Y-23967643D01*
X9251561Y-24092946D01*
X9251561Y-24092947D01*
X7562545Y-24092947D01*
X7542699Y-23967643D01*
X7485103Y-23854605D01*
X7395395Y-23764897D01*
X7391459Y-23762891D01*
X7282360Y-23707302D01*
X7282357Y-23707301D01*
X7157053Y-23687455D01*
X7031749Y-23707301D01*
X7031745Y-23707302D01*
X6918712Y-23764896D01*
X6829002Y-23854606D01*
X6771408Y-23967639D01*
X6771407Y-23967643D01*
X6751561Y-24092946D01*
X6751561Y-24092947D01*
X5062545Y-24092947D01*
X5042699Y-23967643D01*
X4999285Y-23882440D01*
X4989714Y-23822009D01*
X5017491Y-23767492D01*
X5072007Y-23739714D01*
X5132438Y-23749284D01*
X5217643Y-23792699D01*
X5325813Y-23809831D01*
X5342946Y-23812545D01*
X5342946Y-23812544D01*
X5342947Y-23812545D01*
X5468251Y-23792699D01*
X5581289Y-23735103D01*
X5670997Y-23645395D01*
X5728593Y-23532357D01*
X5748439Y-23407053D01*
X5728593Y-23281749D01*
X5670997Y-23168711D01*
X5581289Y-23079003D01*
X5577353Y-23076997D01*
X5468254Y-23021408D01*
X5468251Y-23021407D01*
X5342947Y-23001561D01*
X5217643Y-23021407D01*
X5217639Y-23021408D01*
X5104606Y-23079002D01*
X5014896Y-23168712D01*
X4957302Y-23281745D01*
X4957301Y-23281749D01*
X4937455Y-23407052D01*
X4937455Y-23407053D01*
X4957301Y-23532356D01*
X4957301Y-23532358D01*
X5000714Y-23617559D01*
X5010285Y-23677991D01*
X4982508Y-23732507D01*
X4927991Y-23760285D01*
X4867559Y-23750714D01*
X4864756Y-23749286D01*
X4782357Y-23707301D01*
X4657053Y-23687455D01*
X4531749Y-23707301D01*
X4531745Y-23707302D01*
X4418712Y-23764896D01*
X4329002Y-23854606D01*
X4271408Y-23967639D01*
X4271407Y-23967643D01*
X4251561Y-24092946D01*
X4251561Y-24092947D01*
X200500Y-24092947D01*
X200500Y-21592947D01*
X6751561Y-21592947D01*
X6771407Y-21718250D01*
X6771408Y-21718254D01*
X6826997Y-21827353D01*
X6829003Y-21831289D01*
X6918711Y-21920997D01*
X7031749Y-21978593D01*
X7139919Y-21995725D01*
X7157052Y-21998439D01*
X7157052Y-21998438D01*
X7157053Y-21998439D01*
X7282357Y-21978593D01*
X7395395Y-21920997D01*
X7485103Y-21831289D01*
X7542699Y-21718251D01*
X7562545Y-21592947D01*
X9251561Y-21592947D01*
X9271407Y-21718250D01*
X9271408Y-21718254D01*
X9326997Y-21827353D01*
X9329003Y-21831289D01*
X9418711Y-21920997D01*
X9531749Y-21978593D01*
X9657053Y-21998439D01*
X9782357Y-21978593D01*
X9895395Y-21920997D01*
X9985103Y-21831289D01*
X10042699Y-21718251D01*
X10062545Y-21592947D01*
X11751561Y-21592947D01*
X11771407Y-21718250D01*
X11771408Y-21718254D01*
X11826997Y-21827353D01*
X11829003Y-21831289D01*
X11918711Y-21920997D01*
X12031749Y-21978593D01*
X12139919Y-21995725D01*
X12157052Y-21998439D01*
X12157052Y-21998438D01*
X12157053Y-21998439D01*
X12282357Y-21978593D01*
X12395395Y-21920997D01*
X12485103Y-21831289D01*
X12542699Y-21718251D01*
X12562545Y-21592947D01*
X14251561Y-21592947D01*
X14271407Y-21718250D01*
X14271408Y-21718254D01*
X14326997Y-21827353D01*
X14329003Y-21831289D01*
X14418711Y-21920997D01*
X14531749Y-21978593D01*
X14657053Y-21998439D01*
X14782357Y-21978593D01*
X14895395Y-21920997D01*
X14985103Y-21831289D01*
X15042699Y-21718251D01*
X15062545Y-21592947D01*
X16751561Y-21592947D01*
X16771407Y-21718250D01*
X16771408Y-21718254D01*
X16826997Y-21827353D01*
X16829003Y-21831289D01*
X16918711Y-21920997D01*
X17031749Y-21978593D01*
X17139919Y-21995725D01*
X17157052Y-21998439D01*
X17157052Y-21998438D01*
X17157053Y-21998439D01*
X17282357Y-21978593D01*
X17395395Y-21920997D01*
X17485103Y-21831289D01*
X17542699Y-21718251D01*
X17562545Y-21592947D01*
X19251561Y-21592947D01*
X19271407Y-21718250D01*
X19271408Y-21718254D01*
X19326997Y-21827353D01*
X19329003Y-21831289D01*
X19418711Y-21920997D01*
X19531749Y-21978593D01*
X19657053Y-21998439D01*
X19782357Y-21978593D01*
X19895395Y-21920997D01*
X19985103Y-21831289D01*
X20042699Y-21718251D01*
X20062545Y-21592947D01*
X21751561Y-21592947D01*
X21771407Y-21718250D01*
X21771408Y-21718254D01*
X21826997Y-21827353D01*
X21829003Y-21831289D01*
X21918711Y-21920997D01*
X22031749Y-21978593D01*
X22139919Y-21995725D01*
X22157052Y-21998439D01*
X22157052Y-21998438D01*
X22157053Y-21998439D01*
X22282357Y-21978593D01*
X22395395Y-21920997D01*
X22485103Y-21831289D01*
X22542699Y-21718251D01*
X22562545Y-21592947D01*
X24251561Y-21592947D01*
X24271407Y-21718250D01*
X24271408Y-21718254D01*
X24326997Y-21827353D01*
X24329003Y-21831289D01*
X24418711Y-21920997D01*
X24531749Y-21978593D01*
X24657053Y-21998439D01*
X24782357Y-21978593D01*
X24895395Y-21920997D01*
X24985103Y-21831289D01*
X25042699Y-21718251D01*
X25062545Y-21592947D01*
X26751561Y-21592947D01*
X26771407Y-21718250D01*
X26771408Y-21718254D01*
X26826997Y-21827353D01*
X26829003Y-21831289D01*
X26918711Y-21920997D01*
X27031749Y-21978593D01*
X27139919Y-21995725D01*
X27157052Y-21998439D01*
X27157052Y-21998438D01*
X27157053Y-21998439D01*
X27282357Y-21978593D01*
X27395395Y-21920997D01*
X27485103Y-21831289D01*
X27542699Y-21718251D01*
X27562545Y-21592947D01*
X29251561Y-21592947D01*
X29271407Y-21718250D01*
X29271408Y-21718254D01*
X29326997Y-21827353D01*
X29329003Y-21831289D01*
X29418711Y-21920997D01*
X29531749Y-21978593D01*
X29657053Y-21998439D01*
X29782357Y-21978593D01*
X29895395Y-21920997D01*
X29985103Y-21831289D01*
X30042699Y-21718251D01*
X30062545Y-21592947D01*
X30042699Y-21467643D01*
X29985103Y-21354605D01*
X29895395Y-21264897D01*
X29891459Y-21262891D01*
X29782360Y-21207302D01*
X29782357Y-21207301D01*
X29657053Y-21187455D01*
X29531749Y-21207301D01*
X29531745Y-21207302D01*
X29418712Y-21264896D01*
X29329002Y-21354606D01*
X29271408Y-21467639D01*
X29271407Y-21467643D01*
X29251561Y-21592946D01*
X29251561Y-21592947D01*
X27562545Y-21592947D01*
X27542699Y-21467643D01*
X27485103Y-21354605D01*
X27395395Y-21264897D01*
X27391459Y-21262891D01*
X27282360Y-21207302D01*
X27282357Y-21207301D01*
X27157053Y-21187455D01*
X27031749Y-21207301D01*
X27031745Y-21207302D01*
X26918712Y-21264896D01*
X26829002Y-21354606D01*
X26771408Y-21467639D01*
X26771407Y-21467643D01*
X26751561Y-21592946D01*
X26751561Y-21592947D01*
X25062545Y-21592947D01*
X25042699Y-21467643D01*
X24985103Y-21354605D01*
X24895395Y-21264897D01*
X24891459Y-21262891D01*
X24782360Y-21207302D01*
X24782357Y-21207301D01*
X24657053Y-21187455D01*
X24531749Y-21207301D01*
X24531745Y-21207302D01*
X24418712Y-21264896D01*
X24329002Y-21354606D01*
X24271408Y-21467639D01*
X24271407Y-21467643D01*
X24251561Y-21592946D01*
X24251561Y-21592947D01*
X22562545Y-21592947D01*
X22542699Y-21467643D01*
X22485103Y-21354605D01*
X22395395Y-21264897D01*
X22391459Y-21262891D01*
X22282360Y-21207302D01*
X22282357Y-21207301D01*
X22157053Y-21187455D01*
X22031749Y-21207301D01*
X22031745Y-21207302D01*
X21918712Y-21264896D01*
X21829002Y-21354606D01*
X21771408Y-21467639D01*
X21771407Y-21467643D01*
X21751561Y-21592946D01*
X21751561Y-21592947D01*
X20062545Y-21592947D01*
X20042699Y-21467643D01*
X19985103Y-21354605D01*
X19895395Y-21264897D01*
X19891459Y-21262891D01*
X19782360Y-21207302D01*
X19782357Y-21207301D01*
X19657053Y-21187455D01*
X19531749Y-21207301D01*
X19531745Y-21207302D01*
X19418712Y-21264896D01*
X19329002Y-21354606D01*
X19271408Y-21467639D01*
X19271407Y-21467643D01*
X19251561Y-21592946D01*
X19251561Y-21592947D01*
X17562545Y-21592947D01*
X17542699Y-21467643D01*
X17485103Y-21354605D01*
X17395395Y-21264897D01*
X17391459Y-21262891D01*
X17282360Y-21207302D01*
X17282357Y-21207301D01*
X17157053Y-21187455D01*
X17031749Y-21207301D01*
X17031745Y-21207302D01*
X16918712Y-21264896D01*
X16829002Y-21354606D01*
X16771408Y-21467639D01*
X16771407Y-21467643D01*
X16751561Y-21592946D01*
X16751561Y-21592947D01*
X15062545Y-21592947D01*
X15042699Y-21467643D01*
X14985103Y-21354605D01*
X14895395Y-21264897D01*
X14891459Y-21262891D01*
X14782360Y-21207302D01*
X14782357Y-21207301D01*
X14657053Y-21187455D01*
X14531749Y-21207301D01*
X14531745Y-21207302D01*
X14418712Y-21264896D01*
X14329002Y-21354606D01*
X14271408Y-21467639D01*
X14271407Y-21467643D01*
X14251561Y-21592946D01*
X14251561Y-21592947D01*
X12562545Y-21592947D01*
X12542699Y-21467643D01*
X12485103Y-21354605D01*
X12395395Y-21264897D01*
X12391459Y-21262891D01*
X12282360Y-21207302D01*
X12282357Y-21207301D01*
X12157053Y-21187455D01*
X12031749Y-21207301D01*
X12031745Y-21207302D01*
X11918712Y-21264896D01*
X11829002Y-21354606D01*
X11771408Y-21467639D01*
X11771407Y-21467643D01*
X11751561Y-21592946D01*
X11751561Y-21592947D01*
X10062545Y-21592947D01*
X10042699Y-21467643D01*
X9985103Y-21354605D01*
X9895395Y-21264897D01*
X9891459Y-21262891D01*
X9782360Y-21207302D01*
X9782357Y-21207301D01*
X9657053Y-21187455D01*
X9531749Y-21207301D01*
X9531745Y-21207302D01*
X9418712Y-21264896D01*
X9329002Y-21354606D01*
X9271408Y-21467639D01*
X9271407Y-21467643D01*
X9251561Y-21592946D01*
X9251561Y-21592947D01*
X7562545Y-21592947D01*
X7542699Y-21467643D01*
X7485103Y-21354605D01*
X7395395Y-21264897D01*
X7391459Y-21262891D01*
X7282360Y-21207302D01*
X7282357Y-21207301D01*
X7157053Y-21187455D01*
X7031749Y-21207301D01*
X7031745Y-21207302D01*
X6918712Y-21264896D01*
X6829002Y-21354606D01*
X6771408Y-21467639D01*
X6771407Y-21467643D01*
X6751561Y-21592946D01*
X6751561Y-21592947D01*
X200500Y-21592947D01*
X200500Y-20907053D01*
X4937455Y-20907053D01*
X4957301Y-21032356D01*
X4957302Y-21032360D01*
X5012891Y-21141459D01*
X5014897Y-21145395D01*
X5104605Y-21235103D01*
X5217643Y-21292699D01*
X5342947Y-21312545D01*
X5468251Y-21292699D01*
X5581289Y-21235103D01*
X5670997Y-21145395D01*
X5728593Y-21032357D01*
X5748439Y-20907053D01*
X5728593Y-20781749D01*
X5670997Y-20668711D01*
X5581289Y-20579003D01*
X5577353Y-20576997D01*
X5468254Y-20521408D01*
X5468251Y-20521407D01*
X5342947Y-20501561D01*
X5217643Y-20521407D01*
X5217639Y-20521408D01*
X5104606Y-20579002D01*
X5014896Y-20668712D01*
X4957302Y-20781745D01*
X4957301Y-20781749D01*
X4937455Y-20907052D01*
X4937455Y-20907053D01*
X200500Y-20907053D01*
X200500Y-19662232D01*
X32205690Y-19662232D01*
X32235917Y-19807698D01*
X32235919Y-19807706D01*
X32271309Y-19876004D01*
X32304276Y-19939626D01*
X32405690Y-20048214D01*
X32532640Y-20125414D01*
X32675710Y-20165500D01*
X32675711Y-20165500D01*
X32786968Y-20165500D01*
X32786974Y-20165500D01*
X32897196Y-20150350D01*
X33033476Y-20091156D01*
X33148731Y-19997389D01*
X33234414Y-19876003D01*
X33284171Y-19736002D01*
X33294310Y-19587768D01*
X33278980Y-19513997D01*
X33264082Y-19442301D01*
X33264080Y-19442293D01*
X33195725Y-19310376D01*
X33195723Y-19310373D01*
X33094311Y-19201787D01*
X33094310Y-19201786D01*
X32967360Y-19124586D01*
X32967359Y-19124585D01*
X32967358Y-19124585D01*
X32824290Y-19084500D01*
X32713026Y-19084500D01*
X32602805Y-19099649D01*
X32602801Y-19099650D01*
X32466524Y-19158843D01*
X32466522Y-19158844D01*
X32351268Y-19252610D01*
X32265587Y-19373995D01*
X32215828Y-19513997D01*
X32205690Y-19662232D01*
X200500Y-19662232D01*
X200500Y-19092947D01*
X6751561Y-19092947D01*
X6768799Y-19201787D01*
X6771407Y-19218250D01*
X6771408Y-19218254D01*
X6788914Y-19252610D01*
X6829003Y-19331289D01*
X6918711Y-19420997D01*
X7031749Y-19478593D01*
X7157053Y-19498439D01*
X7282357Y-19478593D01*
X7395395Y-19420997D01*
X7485103Y-19331289D01*
X7542699Y-19218251D01*
X7562545Y-19092947D01*
X9251561Y-19092947D01*
X9268799Y-19201787D01*
X9271407Y-19218250D01*
X9271408Y-19218254D01*
X9288914Y-19252610D01*
X9329003Y-19331289D01*
X9418711Y-19420997D01*
X9531749Y-19478593D01*
X9639919Y-19495725D01*
X9657052Y-19498439D01*
X9657052Y-19498438D01*
X9657053Y-19498439D01*
X9782357Y-19478593D01*
X9895395Y-19420997D01*
X9985103Y-19331289D01*
X10042699Y-19218251D01*
X10062545Y-19092947D01*
X11751561Y-19092947D01*
X11768799Y-19201787D01*
X11771407Y-19218250D01*
X11771408Y-19218254D01*
X11788914Y-19252610D01*
X11829003Y-19331289D01*
X11918711Y-19420997D01*
X12031749Y-19478593D01*
X12157053Y-19498439D01*
X12282357Y-19478593D01*
X12395395Y-19420997D01*
X12485103Y-19331289D01*
X12542699Y-19218251D01*
X12562545Y-19092947D01*
X14251561Y-19092947D01*
X14268799Y-19201787D01*
X14271407Y-19218250D01*
X14271408Y-19218254D01*
X14288914Y-19252610D01*
X14329003Y-19331289D01*
X14418711Y-19420997D01*
X14531749Y-19478593D01*
X14639919Y-19495725D01*
X14657052Y-19498439D01*
X14657052Y-19498438D01*
X14657053Y-19498439D01*
X14782357Y-19478593D01*
X14895395Y-19420997D01*
X14985103Y-19331289D01*
X15042699Y-19218251D01*
X15062545Y-19092947D01*
X16751561Y-19092947D01*
X16768799Y-19201787D01*
X16771407Y-19218250D01*
X16771408Y-19218254D01*
X16788914Y-19252610D01*
X16829003Y-19331289D01*
X16918711Y-19420997D01*
X17031749Y-19478593D01*
X17157053Y-19498439D01*
X17282357Y-19478593D01*
X17395395Y-19420997D01*
X17485103Y-19331289D01*
X17542699Y-19218251D01*
X17562545Y-19092947D01*
X19251561Y-19092947D01*
X19268799Y-19201787D01*
X19271407Y-19218250D01*
X19271408Y-19218254D01*
X19288914Y-19252610D01*
X19329003Y-19331289D01*
X19418711Y-19420997D01*
X19531749Y-19478593D01*
X19639919Y-19495725D01*
X19657052Y-19498439D01*
X19657052Y-19498438D01*
X19657053Y-19498439D01*
X19782357Y-19478593D01*
X19895395Y-19420997D01*
X19985103Y-19331289D01*
X20042699Y-19218251D01*
X20062545Y-19092947D01*
X21751561Y-19092947D01*
X21768799Y-19201787D01*
X21771407Y-19218250D01*
X21771408Y-19218254D01*
X21788914Y-19252610D01*
X21829003Y-19331289D01*
X21918711Y-19420997D01*
X22031749Y-19478593D01*
X22157053Y-19498439D01*
X22282357Y-19478593D01*
X22395395Y-19420997D01*
X22485103Y-19331289D01*
X22542699Y-19218251D01*
X22562545Y-19092947D01*
X24251561Y-19092947D01*
X24268799Y-19201787D01*
X24271407Y-19218250D01*
X24271408Y-19218254D01*
X24288914Y-19252610D01*
X24329003Y-19331289D01*
X24418711Y-19420997D01*
X24531749Y-19478593D01*
X24639919Y-19495725D01*
X24657052Y-19498439D01*
X24657052Y-19498438D01*
X24657053Y-19498439D01*
X24782357Y-19478593D01*
X24895395Y-19420997D01*
X24985103Y-19331289D01*
X25042699Y-19218251D01*
X25062545Y-19092947D01*
X26751561Y-19092947D01*
X26768799Y-19201787D01*
X26771407Y-19218250D01*
X26771408Y-19218254D01*
X26788914Y-19252610D01*
X26829003Y-19331289D01*
X26918711Y-19420997D01*
X27031749Y-19478593D01*
X27157053Y-19498439D01*
X27282357Y-19478593D01*
X27395395Y-19420997D01*
X27485103Y-19331289D01*
X27542699Y-19218251D01*
X27562545Y-19092947D01*
X29251561Y-19092947D01*
X29268799Y-19201787D01*
X29271407Y-19218250D01*
X29271408Y-19218254D01*
X29288914Y-19252610D01*
X29329003Y-19331289D01*
X29418711Y-19420997D01*
X29531749Y-19478593D01*
X29639919Y-19495725D01*
X29657052Y-19498439D01*
X29657052Y-19498438D01*
X29657053Y-19498439D01*
X29782357Y-19478593D01*
X29895395Y-19420997D01*
X29985103Y-19331289D01*
X30042699Y-19218251D01*
X30062545Y-19092947D01*
X30042699Y-18967643D01*
X29985103Y-18854605D01*
X29895395Y-18764897D01*
X29891459Y-18762891D01*
X29782360Y-18707302D01*
X29782357Y-18707301D01*
X29657053Y-18687455D01*
X29531749Y-18707301D01*
X29531745Y-18707302D01*
X29418712Y-18764896D01*
X29329002Y-18854606D01*
X29271408Y-18967639D01*
X29271407Y-18967643D01*
X29251561Y-19092947D01*
X27562545Y-19092947D01*
X27542699Y-18967643D01*
X27485103Y-18854605D01*
X27395395Y-18764897D01*
X27391459Y-18762891D01*
X27282360Y-18707302D01*
X27282357Y-18707301D01*
X27157053Y-18687455D01*
X27031749Y-18707301D01*
X27031745Y-18707302D01*
X26918712Y-18764896D01*
X26829002Y-18854606D01*
X26771408Y-18967639D01*
X26771407Y-18967643D01*
X26751561Y-19092947D01*
X25062545Y-19092947D01*
X25042699Y-18967643D01*
X24985103Y-18854605D01*
X24895395Y-18764897D01*
X24891459Y-18762891D01*
X24782360Y-18707302D01*
X24782357Y-18707301D01*
X24657053Y-18687455D01*
X24531749Y-18707301D01*
X24531745Y-18707302D01*
X24418712Y-18764896D01*
X24329002Y-18854606D01*
X24271408Y-18967639D01*
X24271407Y-18967643D01*
X24251561Y-19092947D01*
X22562545Y-19092947D01*
X22542699Y-18967643D01*
X22485103Y-18854605D01*
X22395395Y-18764897D01*
X22391459Y-18762891D01*
X22282360Y-18707302D01*
X22282357Y-18707301D01*
X22157053Y-18687455D01*
X22031749Y-18707301D01*
X22031745Y-18707302D01*
X21918712Y-18764896D01*
X21829002Y-18854606D01*
X21771408Y-18967639D01*
X21771407Y-18967643D01*
X21751561Y-19092947D01*
X20062545Y-19092947D01*
X20042699Y-18967643D01*
X19985103Y-18854605D01*
X19895395Y-18764897D01*
X19891459Y-18762891D01*
X19782360Y-18707302D01*
X19782357Y-18707301D01*
X19657053Y-18687455D01*
X19531749Y-18707301D01*
X19531745Y-18707302D01*
X19418712Y-18764896D01*
X19329002Y-18854606D01*
X19271408Y-18967639D01*
X19271407Y-18967643D01*
X19251561Y-19092947D01*
X17562545Y-19092947D01*
X17542699Y-18967643D01*
X17485103Y-18854605D01*
X17395395Y-18764897D01*
X17391459Y-18762891D01*
X17282360Y-18707302D01*
X17282357Y-18707301D01*
X17157053Y-18687455D01*
X17031749Y-18707301D01*
X17031745Y-18707302D01*
X16918712Y-18764896D01*
X16829002Y-18854606D01*
X16771408Y-18967639D01*
X16771407Y-18967643D01*
X16751561Y-19092947D01*
X15062545Y-19092947D01*
X15042699Y-18967643D01*
X14985103Y-18854605D01*
X14895395Y-18764897D01*
X14891459Y-18762891D01*
X14782360Y-18707302D01*
X14782357Y-18707301D01*
X14657053Y-18687455D01*
X14531749Y-18707301D01*
X14531745Y-18707302D01*
X14418712Y-18764896D01*
X14329002Y-18854606D01*
X14271408Y-18967639D01*
X14271407Y-18967643D01*
X14251561Y-19092947D01*
X12562545Y-19092947D01*
X12542699Y-18967643D01*
X12485103Y-18854605D01*
X12395395Y-18764897D01*
X12391459Y-18762891D01*
X12282360Y-18707302D01*
X12282357Y-18707301D01*
X12157053Y-18687455D01*
X12031749Y-18707301D01*
X12031745Y-18707302D01*
X11918712Y-18764896D01*
X11829002Y-18854606D01*
X11771408Y-18967639D01*
X11771407Y-18967643D01*
X11751561Y-19092947D01*
X10062545Y-19092947D01*
X10042699Y-18967643D01*
X9985103Y-18854605D01*
X9895395Y-18764897D01*
X9891459Y-18762891D01*
X9782360Y-18707302D01*
X9782357Y-18707301D01*
X9657053Y-18687455D01*
X9531749Y-18707301D01*
X9531745Y-18707302D01*
X9418712Y-18764896D01*
X9329002Y-18854606D01*
X9271408Y-18967639D01*
X9271407Y-18967643D01*
X9251561Y-19092947D01*
X7562545Y-19092947D01*
X7542699Y-18967643D01*
X7485103Y-18854605D01*
X7395395Y-18764897D01*
X7391459Y-18762891D01*
X7282360Y-18707302D01*
X7282357Y-18707301D01*
X7157053Y-18687455D01*
X7031749Y-18707301D01*
X7031745Y-18707302D01*
X6918712Y-18764896D01*
X6829002Y-18854606D01*
X6771408Y-18967639D01*
X6771407Y-18967643D01*
X6751561Y-19092947D01*
X200500Y-19092947D01*
X200500Y-18407053D01*
X4937455Y-18407053D01*
X4957301Y-18532356D01*
X4957302Y-18532360D01*
X5012891Y-18641459D01*
X5014897Y-18645395D01*
X5104605Y-18735103D01*
X5217643Y-18792699D01*
X5325813Y-18809831D01*
X5342946Y-18812545D01*
X5342946Y-18812544D01*
X5342947Y-18812545D01*
X5468251Y-18792699D01*
X5581289Y-18735103D01*
X5670997Y-18645395D01*
X5728593Y-18532357D01*
X5748439Y-18407053D01*
X5728593Y-18281749D01*
X5670997Y-18168711D01*
X5581289Y-18079003D01*
X5577353Y-18076997D01*
X5468254Y-18021408D01*
X5468251Y-18021407D01*
X5342947Y-18001561D01*
X5217643Y-18021407D01*
X5217639Y-18021408D01*
X5104606Y-18079002D01*
X5014896Y-18168712D01*
X4957302Y-18281745D01*
X4957301Y-18281749D01*
X4937455Y-18407052D01*
X4937455Y-18407053D01*
X200500Y-18407053D01*
X200500Y-16592947D01*
X6751561Y-16592947D01*
X6771407Y-16718250D01*
X6771408Y-16718254D01*
X6826997Y-16827353D01*
X6829003Y-16831289D01*
X6918711Y-16920997D01*
X7031749Y-16978593D01*
X7139919Y-16995725D01*
X7157052Y-16998439D01*
X7157052Y-16998438D01*
X7157053Y-16998439D01*
X7282357Y-16978593D01*
X7395395Y-16920997D01*
X7485103Y-16831289D01*
X7542699Y-16718251D01*
X7562545Y-16592947D01*
X9251561Y-16592947D01*
X9271407Y-16718250D01*
X9271408Y-16718254D01*
X9326997Y-16827353D01*
X9329003Y-16831289D01*
X9418711Y-16920997D01*
X9531749Y-16978593D01*
X9657053Y-16998439D01*
X9782357Y-16978593D01*
X9895395Y-16920997D01*
X9985103Y-16831289D01*
X10042699Y-16718251D01*
X10062545Y-16592947D01*
X11751561Y-16592947D01*
X11771407Y-16718250D01*
X11771408Y-16718254D01*
X11826997Y-16827353D01*
X11829003Y-16831289D01*
X11918711Y-16920997D01*
X12031749Y-16978593D01*
X12139919Y-16995725D01*
X12157052Y-16998439D01*
X12157052Y-16998438D01*
X12157053Y-16998439D01*
X12282357Y-16978593D01*
X12395395Y-16920997D01*
X12485103Y-16831289D01*
X12542699Y-16718251D01*
X12562545Y-16592947D01*
X14251561Y-16592947D01*
X14271407Y-16718250D01*
X14271408Y-16718254D01*
X14326997Y-16827353D01*
X14329003Y-16831289D01*
X14418711Y-16920997D01*
X14531749Y-16978593D01*
X14657053Y-16998439D01*
X14782357Y-16978593D01*
X14895395Y-16920997D01*
X14985103Y-16831289D01*
X15042699Y-16718251D01*
X15062545Y-16592947D01*
X16751561Y-16592947D01*
X16771407Y-16718250D01*
X16771408Y-16718254D01*
X16826997Y-16827353D01*
X16829003Y-16831289D01*
X16918711Y-16920997D01*
X17031749Y-16978593D01*
X17139919Y-16995725D01*
X17157052Y-16998439D01*
X17157052Y-16998438D01*
X17157053Y-16998439D01*
X17282357Y-16978593D01*
X17395395Y-16920997D01*
X17485103Y-16831289D01*
X17542699Y-16718251D01*
X17562545Y-16592947D01*
X19251561Y-16592947D01*
X19271407Y-16718250D01*
X19271408Y-16718254D01*
X19326997Y-16827353D01*
X19329003Y-16831289D01*
X19418711Y-16920997D01*
X19531749Y-16978593D01*
X19657053Y-16998439D01*
X19782357Y-16978593D01*
X19895395Y-16920997D01*
X19985103Y-16831289D01*
X20042699Y-16718251D01*
X20062545Y-16592947D01*
X21751561Y-16592947D01*
X21771407Y-16718250D01*
X21771408Y-16718254D01*
X21826997Y-16827353D01*
X21829003Y-16831289D01*
X21918711Y-16920997D01*
X22031749Y-16978593D01*
X22139919Y-16995725D01*
X22157052Y-16998439D01*
X22157052Y-16998438D01*
X22157053Y-16998439D01*
X22282357Y-16978593D01*
X22395395Y-16920997D01*
X22485103Y-16831289D01*
X22542699Y-16718251D01*
X22562545Y-16592947D01*
X24251561Y-16592947D01*
X24271407Y-16718250D01*
X24271408Y-16718254D01*
X24326997Y-16827353D01*
X24329003Y-16831289D01*
X24418711Y-16920997D01*
X24531749Y-16978593D01*
X24657053Y-16998439D01*
X24782357Y-16978593D01*
X24895395Y-16920997D01*
X24985103Y-16831289D01*
X25042699Y-16718251D01*
X25062545Y-16592947D01*
X26751561Y-16592947D01*
X26771407Y-16718250D01*
X26771408Y-16718254D01*
X26826997Y-16827353D01*
X26829003Y-16831289D01*
X26918711Y-16920997D01*
X27031749Y-16978593D01*
X27139919Y-16995725D01*
X27157052Y-16998439D01*
X27157052Y-16998438D01*
X27157053Y-16998439D01*
X27282357Y-16978593D01*
X27395395Y-16920997D01*
X27485103Y-16831289D01*
X27542699Y-16718251D01*
X27562545Y-16592947D01*
X29251561Y-16592947D01*
X29271407Y-16718250D01*
X29271408Y-16718254D01*
X29326997Y-16827353D01*
X29329003Y-16831289D01*
X29418711Y-16920997D01*
X29531749Y-16978593D01*
X29657053Y-16998439D01*
X29782357Y-16978593D01*
X29895395Y-16920997D01*
X29985103Y-16831289D01*
X30042699Y-16718251D01*
X30062545Y-16592947D01*
X30042699Y-16467643D01*
X29985103Y-16354605D01*
X29895395Y-16264897D01*
X29891459Y-16262891D01*
X29782360Y-16207302D01*
X29782357Y-16207301D01*
X29657053Y-16187455D01*
X29531749Y-16207301D01*
X29531745Y-16207302D01*
X29418712Y-16264896D01*
X29329002Y-16354606D01*
X29271408Y-16467639D01*
X29271407Y-16467643D01*
X29251561Y-16592946D01*
X29251561Y-16592947D01*
X27562545Y-16592947D01*
X27542699Y-16467643D01*
X27485103Y-16354605D01*
X27395395Y-16264897D01*
X27391459Y-16262891D01*
X27282360Y-16207302D01*
X27282357Y-16207301D01*
X27157053Y-16187455D01*
X27031749Y-16207301D01*
X27031745Y-16207302D01*
X26918712Y-16264896D01*
X26829002Y-16354606D01*
X26771408Y-16467639D01*
X26771407Y-16467643D01*
X26751561Y-16592946D01*
X26751561Y-16592947D01*
X25062545Y-16592947D01*
X25042699Y-16467643D01*
X24985103Y-16354605D01*
X24895395Y-16264897D01*
X24891459Y-16262891D01*
X24782360Y-16207302D01*
X24782357Y-16207301D01*
X24657053Y-16187455D01*
X24531749Y-16207301D01*
X24531745Y-16207302D01*
X24418712Y-16264896D01*
X24329002Y-16354606D01*
X24271408Y-16467639D01*
X24271407Y-16467643D01*
X24251561Y-16592946D01*
X24251561Y-16592947D01*
X22562545Y-16592947D01*
X22542699Y-16467643D01*
X22485103Y-16354605D01*
X22395395Y-16264897D01*
X22391459Y-16262891D01*
X22282360Y-16207302D01*
X22282357Y-16207301D01*
X22157053Y-16187455D01*
X22031749Y-16207301D01*
X22031745Y-16207302D01*
X21918712Y-16264896D01*
X21829002Y-16354606D01*
X21771408Y-16467639D01*
X21771407Y-16467643D01*
X21751561Y-16592946D01*
X21751561Y-16592947D01*
X20062545Y-16592947D01*
X20042699Y-16467643D01*
X19985103Y-16354605D01*
X19895395Y-16264897D01*
X19891459Y-16262891D01*
X19782360Y-16207302D01*
X19782357Y-16207301D01*
X19657053Y-16187455D01*
X19531749Y-16207301D01*
X19531745Y-16207302D01*
X19418712Y-16264896D01*
X19329002Y-16354606D01*
X19271408Y-16467639D01*
X19271407Y-16467643D01*
X19251561Y-16592946D01*
X19251561Y-16592947D01*
X17562545Y-16592947D01*
X17542699Y-16467643D01*
X17485103Y-16354605D01*
X17395395Y-16264897D01*
X17391459Y-16262891D01*
X17282360Y-16207302D01*
X17282357Y-16207301D01*
X17157053Y-16187455D01*
X17031749Y-16207301D01*
X17031745Y-16207302D01*
X16918712Y-16264896D01*
X16829002Y-16354606D01*
X16771408Y-16467639D01*
X16771407Y-16467643D01*
X16751561Y-16592946D01*
X16751561Y-16592947D01*
X15062545Y-16592947D01*
X15042699Y-16467643D01*
X14985103Y-16354605D01*
X14895395Y-16264897D01*
X14891459Y-16262891D01*
X14782360Y-16207302D01*
X14782357Y-16207301D01*
X14657053Y-16187455D01*
X14531749Y-16207301D01*
X14531745Y-16207302D01*
X14418712Y-16264896D01*
X14329002Y-16354606D01*
X14271408Y-16467639D01*
X14271407Y-16467643D01*
X14251561Y-16592946D01*
X14251561Y-16592947D01*
X12562545Y-16592947D01*
X12542699Y-16467643D01*
X12485103Y-16354605D01*
X12395395Y-16264897D01*
X12391459Y-16262891D01*
X12282360Y-16207302D01*
X12282357Y-16207301D01*
X12157053Y-16187455D01*
X12031749Y-16207301D01*
X12031745Y-16207302D01*
X11918712Y-16264896D01*
X11829002Y-16354606D01*
X11771408Y-16467639D01*
X11771407Y-16467643D01*
X11751561Y-16592946D01*
X11751561Y-16592947D01*
X10062545Y-16592947D01*
X10042699Y-16467643D01*
X9985103Y-16354605D01*
X9895395Y-16264897D01*
X9891459Y-16262891D01*
X9782360Y-16207302D01*
X9782357Y-16207301D01*
X9657053Y-16187455D01*
X9531749Y-16207301D01*
X9531745Y-16207302D01*
X9418712Y-16264896D01*
X9329002Y-16354606D01*
X9271408Y-16467639D01*
X9271407Y-16467643D01*
X9251561Y-16592946D01*
X9251561Y-16592947D01*
X7562545Y-16592947D01*
X7542699Y-16467643D01*
X7485103Y-16354605D01*
X7395395Y-16264897D01*
X7391459Y-16262891D01*
X7282360Y-16207302D01*
X7282357Y-16207301D01*
X7157053Y-16187455D01*
X7031749Y-16207301D01*
X7031745Y-16207302D01*
X6918712Y-16264896D01*
X6829002Y-16354606D01*
X6771408Y-16467639D01*
X6771407Y-16467643D01*
X6751561Y-16592946D01*
X6751561Y-16592947D01*
X200500Y-16592947D01*
X200500Y-15907053D01*
X4937455Y-15907053D01*
X4957301Y-16032356D01*
X4957302Y-16032360D01*
X5012891Y-16141459D01*
X5014897Y-16145395D01*
X5104605Y-16235103D01*
X5217643Y-16292699D01*
X5342947Y-16312545D01*
X5468251Y-16292699D01*
X5581289Y-16235103D01*
X5670997Y-16145395D01*
X5728593Y-16032357D01*
X5748439Y-15907053D01*
X5728593Y-15781749D01*
X5670997Y-15668711D01*
X5581289Y-15579003D01*
X5577353Y-15576997D01*
X5468254Y-15521408D01*
X5468251Y-15521407D01*
X5342947Y-15501561D01*
X5217643Y-15521407D01*
X5217639Y-15521408D01*
X5104606Y-15579002D01*
X5014896Y-15668712D01*
X4957302Y-15781745D01*
X4957301Y-15781749D01*
X4937455Y-15907052D01*
X4937455Y-15907053D01*
X200500Y-15907053D01*
X200500Y-15412232D01*
X32205690Y-15412232D01*
X32235917Y-15557698D01*
X32235919Y-15557706D01*
X32293439Y-15668712D01*
X32304276Y-15689626D01*
X32405690Y-15798214D01*
X32532640Y-15875414D01*
X32675710Y-15915500D01*
X32675711Y-15915500D01*
X32786968Y-15915500D01*
X32786974Y-15915500D01*
X32897196Y-15900350D01*
X33033476Y-15841156D01*
X33148731Y-15747389D01*
X33234414Y-15626003D01*
X33284171Y-15486002D01*
X33294310Y-15337768D01*
X33278980Y-15263997D01*
X33264082Y-15192301D01*
X33264080Y-15192293D01*
X33195725Y-15060376D01*
X33195723Y-15060373D01*
X33094311Y-14951787D01*
X33094310Y-14951786D01*
X32967360Y-14874586D01*
X32967359Y-14874585D01*
X32967358Y-14874585D01*
X32824290Y-14834500D01*
X32713026Y-14834500D01*
X32602805Y-14849649D01*
X32602801Y-14849650D01*
X32466524Y-14908843D01*
X32466522Y-14908844D01*
X32351268Y-15002610D01*
X32265587Y-15123995D01*
X32215828Y-15263997D01*
X32205690Y-15412232D01*
X200500Y-15412232D01*
X200500Y-14092947D01*
X6751561Y-14092947D01*
X6771407Y-14218250D01*
X6771408Y-14218254D01*
X6826997Y-14327353D01*
X6829003Y-14331289D01*
X6918711Y-14420997D01*
X7031749Y-14478593D01*
X7157053Y-14498439D01*
X7282357Y-14478593D01*
X7395395Y-14420997D01*
X7485103Y-14331289D01*
X7542699Y-14218251D01*
X7562545Y-14092947D01*
X9251561Y-14092947D01*
X9271407Y-14218250D01*
X9271408Y-14218254D01*
X9326997Y-14327353D01*
X9329003Y-14331289D01*
X9418711Y-14420997D01*
X9531749Y-14478593D01*
X9639919Y-14495725D01*
X9657052Y-14498439D01*
X9657052Y-14498438D01*
X9657053Y-14498439D01*
X9782357Y-14478593D01*
X9895395Y-14420997D01*
X9985103Y-14331289D01*
X10042699Y-14218251D01*
X10062545Y-14092947D01*
X11751561Y-14092947D01*
X11771407Y-14218250D01*
X11771408Y-14218254D01*
X11826997Y-14327353D01*
X11829003Y-14331289D01*
X11918711Y-14420997D01*
X12031749Y-14478593D01*
X12157053Y-14498439D01*
X12282357Y-14478593D01*
X12395395Y-14420997D01*
X12485103Y-14331289D01*
X12542699Y-14218251D01*
X12562545Y-14092947D01*
X14251561Y-14092947D01*
X14271407Y-14218250D01*
X14271408Y-14218254D01*
X14326997Y-14327353D01*
X14329003Y-14331289D01*
X14418711Y-14420997D01*
X14531749Y-14478593D01*
X14639919Y-14495725D01*
X14657052Y-14498439D01*
X14657052Y-14498438D01*
X14657053Y-14498439D01*
X14782357Y-14478593D01*
X14895395Y-14420997D01*
X14985103Y-14331289D01*
X15042699Y-14218251D01*
X15062545Y-14092947D01*
X16751561Y-14092947D01*
X16771407Y-14218250D01*
X16771408Y-14218254D01*
X16826997Y-14327353D01*
X16829003Y-14331289D01*
X16918711Y-14420997D01*
X17031749Y-14478593D01*
X17157053Y-14498439D01*
X17282357Y-14478593D01*
X17395395Y-14420997D01*
X17485103Y-14331289D01*
X17542699Y-14218251D01*
X17562545Y-14092947D01*
X19251561Y-14092947D01*
X19271407Y-14218250D01*
X19271408Y-14218254D01*
X19326997Y-14327353D01*
X19329003Y-14331289D01*
X19418711Y-14420997D01*
X19531749Y-14478593D01*
X19639919Y-14495725D01*
X19657052Y-14498439D01*
X19657052Y-14498438D01*
X19657053Y-14498439D01*
X19782357Y-14478593D01*
X19895395Y-14420997D01*
X19985103Y-14331289D01*
X20042699Y-14218251D01*
X20062545Y-14092947D01*
X21751561Y-14092947D01*
X21771407Y-14218250D01*
X21771408Y-14218254D01*
X21826997Y-14327353D01*
X21829003Y-14331289D01*
X21918711Y-14420997D01*
X22031749Y-14478593D01*
X22157053Y-14498439D01*
X22282357Y-14478593D01*
X22395395Y-14420997D01*
X22485103Y-14331289D01*
X22542699Y-14218251D01*
X22562545Y-14092947D01*
X24251561Y-14092947D01*
X24271407Y-14218250D01*
X24271408Y-14218254D01*
X24326997Y-14327353D01*
X24329003Y-14331289D01*
X24418711Y-14420997D01*
X24531749Y-14478593D01*
X24639919Y-14495725D01*
X24657052Y-14498439D01*
X24657052Y-14498438D01*
X24657053Y-14498439D01*
X24782357Y-14478593D01*
X24895395Y-14420997D01*
X24985103Y-14331289D01*
X25042699Y-14218251D01*
X25062545Y-14092947D01*
X26751561Y-14092947D01*
X26771407Y-14218250D01*
X26771408Y-14218254D01*
X26826997Y-14327353D01*
X26829003Y-14331289D01*
X26918711Y-14420997D01*
X27031749Y-14478593D01*
X27157053Y-14498439D01*
X27282357Y-14478593D01*
X27395395Y-14420997D01*
X27485103Y-14331289D01*
X27542699Y-14218251D01*
X27562545Y-14092947D01*
X29251561Y-14092947D01*
X29271407Y-14218250D01*
X29271408Y-14218254D01*
X29326997Y-14327353D01*
X29329003Y-14331289D01*
X29418711Y-14420997D01*
X29531749Y-14478593D01*
X29639919Y-14495725D01*
X29657052Y-14498439D01*
X29657052Y-14498438D01*
X29657053Y-14498439D01*
X29782357Y-14478593D01*
X29895395Y-14420997D01*
X29985103Y-14331289D01*
X30042699Y-14218251D01*
X30062545Y-14092947D01*
X30042699Y-13967643D01*
X29985103Y-13854605D01*
X29895395Y-13764897D01*
X29891459Y-13762891D01*
X29782360Y-13707302D01*
X29782357Y-13707301D01*
X29657053Y-13687455D01*
X29531749Y-13707301D01*
X29531745Y-13707302D01*
X29418712Y-13764896D01*
X29329002Y-13854606D01*
X29271408Y-13967639D01*
X29271407Y-13967643D01*
X29251561Y-14092946D01*
X29251561Y-14092947D01*
X27562545Y-14092947D01*
X27542699Y-13967643D01*
X27485103Y-13854605D01*
X27395395Y-13764897D01*
X27391459Y-13762891D01*
X27282360Y-13707302D01*
X27282357Y-13707301D01*
X27157053Y-13687455D01*
X27031749Y-13707301D01*
X27031745Y-13707302D01*
X26918712Y-13764896D01*
X26829002Y-13854606D01*
X26771408Y-13967639D01*
X26771407Y-13967643D01*
X26751561Y-14092946D01*
X26751561Y-14092947D01*
X25062545Y-14092947D01*
X25042699Y-13967643D01*
X24985103Y-13854605D01*
X24895395Y-13764897D01*
X24891459Y-13762891D01*
X24782360Y-13707302D01*
X24782357Y-13707301D01*
X24657053Y-13687455D01*
X24531749Y-13707301D01*
X24531745Y-13707302D01*
X24418712Y-13764896D01*
X24329002Y-13854606D01*
X24271408Y-13967639D01*
X24271407Y-13967643D01*
X24251561Y-14092946D01*
X24251561Y-14092947D01*
X22562545Y-14092947D01*
X22542699Y-13967643D01*
X22485103Y-13854605D01*
X22395395Y-13764897D01*
X22391459Y-13762891D01*
X22282360Y-13707302D01*
X22282357Y-13707301D01*
X22157053Y-13687455D01*
X22031749Y-13707301D01*
X22031745Y-13707302D01*
X21918712Y-13764896D01*
X21829002Y-13854606D01*
X21771408Y-13967639D01*
X21771407Y-13967643D01*
X21751561Y-14092946D01*
X21751561Y-14092947D01*
X20062545Y-14092947D01*
X20042699Y-13967643D01*
X19985103Y-13854605D01*
X19895395Y-13764897D01*
X19891459Y-13762891D01*
X19782360Y-13707302D01*
X19782357Y-13707301D01*
X19657053Y-13687455D01*
X19531749Y-13707301D01*
X19531745Y-13707302D01*
X19418712Y-13764896D01*
X19329002Y-13854606D01*
X19271408Y-13967639D01*
X19271407Y-13967643D01*
X19251561Y-14092946D01*
X19251561Y-14092947D01*
X17562545Y-14092947D01*
X17542699Y-13967643D01*
X17485103Y-13854605D01*
X17395395Y-13764897D01*
X17391459Y-13762891D01*
X17282360Y-13707302D01*
X17282357Y-13707301D01*
X17157053Y-13687455D01*
X17031749Y-13707301D01*
X17031745Y-13707302D01*
X16918712Y-13764896D01*
X16829002Y-13854606D01*
X16771408Y-13967639D01*
X16771407Y-13967643D01*
X16751561Y-14092946D01*
X16751561Y-14092947D01*
X15062545Y-14092947D01*
X15042699Y-13967643D01*
X14985103Y-13854605D01*
X14895395Y-13764897D01*
X14891459Y-13762891D01*
X14782360Y-13707302D01*
X14782357Y-13707301D01*
X14657053Y-13687455D01*
X14531749Y-13707301D01*
X14531745Y-13707302D01*
X14418712Y-13764896D01*
X14329002Y-13854606D01*
X14271408Y-13967639D01*
X14271407Y-13967643D01*
X14251561Y-14092946D01*
X14251561Y-14092947D01*
X12562545Y-14092947D01*
X12542699Y-13967643D01*
X12485103Y-13854605D01*
X12395395Y-13764897D01*
X12391459Y-13762891D01*
X12282360Y-13707302D01*
X12282357Y-13707301D01*
X12157053Y-13687455D01*
X12031749Y-13707301D01*
X12031745Y-13707302D01*
X11918712Y-13764896D01*
X11829002Y-13854606D01*
X11771408Y-13967639D01*
X11771407Y-13967643D01*
X11751561Y-14092946D01*
X11751561Y-14092947D01*
X10062545Y-14092947D01*
X10042699Y-13967643D01*
X9985103Y-13854605D01*
X9895395Y-13764897D01*
X9891459Y-13762891D01*
X9782360Y-13707302D01*
X9782357Y-13707301D01*
X9657053Y-13687455D01*
X9531749Y-13707301D01*
X9531745Y-13707302D01*
X9418712Y-13764896D01*
X9329002Y-13854606D01*
X9271408Y-13967639D01*
X9271407Y-13967643D01*
X9251561Y-14092946D01*
X9251561Y-14092947D01*
X7562545Y-14092947D01*
X7542699Y-13967643D01*
X7485103Y-13854605D01*
X7395395Y-13764897D01*
X7391459Y-13762891D01*
X7282360Y-13707302D01*
X7282357Y-13707301D01*
X7157053Y-13687455D01*
X7031749Y-13707301D01*
X7031745Y-13707302D01*
X6918712Y-13764896D01*
X6829002Y-13854606D01*
X6771408Y-13967639D01*
X6771407Y-13967643D01*
X6751561Y-14092946D01*
X6751561Y-14092947D01*
X200500Y-14092947D01*
X200500Y-13407053D01*
X4937455Y-13407053D01*
X4957301Y-13532356D01*
X4957302Y-13532360D01*
X5004660Y-13625304D01*
X5014897Y-13645395D01*
X5104605Y-13735103D01*
X5217643Y-13792699D01*
X5342947Y-13812545D01*
X5468251Y-13792699D01*
X5581289Y-13735103D01*
X5670997Y-13645395D01*
X5728593Y-13532357D01*
X5733718Y-13500000D01*
X31104508Y-13500000D01*
X31124354Y-13625303D01*
X31124355Y-13625307D01*
X31166134Y-13707301D01*
X31181950Y-13738342D01*
X31271658Y-13828050D01*
X31384696Y-13885646D01*
X31492866Y-13902778D01*
X31509999Y-13905492D01*
X31509999Y-13905491D01*
X31510000Y-13905492D01*
X31635304Y-13885646D01*
X31748342Y-13828050D01*
X31838050Y-13738342D01*
X31895646Y-13625304D01*
X31915492Y-13500000D01*
X31895646Y-13374696D01*
X31838050Y-13261658D01*
X31748342Y-13171950D01*
X31741985Y-13168711D01*
X31635307Y-13114355D01*
X31635304Y-13114354D01*
X31510000Y-13094508D01*
X31384696Y-13114354D01*
X31384692Y-13114355D01*
X31271659Y-13171949D01*
X31181949Y-13261659D01*
X31124355Y-13374692D01*
X31124354Y-13374696D01*
X31104508Y-13499999D01*
X31104508Y-13500000D01*
X5733718Y-13500000D01*
X5748439Y-13407053D01*
X5728593Y-13281749D01*
X5670997Y-13168711D01*
X5581289Y-13079003D01*
X5577353Y-13076997D01*
X5468254Y-13021408D01*
X5468251Y-13021407D01*
X5342947Y-13001561D01*
X5217643Y-13021407D01*
X5217639Y-13021408D01*
X5104606Y-13079002D01*
X5014896Y-13168712D01*
X4957302Y-13281745D01*
X4957301Y-13281749D01*
X4937455Y-13407052D01*
X4937455Y-13407053D01*
X200500Y-13407053D01*
X200500Y-11592947D01*
X6751561Y-11592947D01*
X6771407Y-11718250D01*
X6771408Y-11718254D01*
X6826997Y-11827353D01*
X6829003Y-11831289D01*
X6918711Y-11920997D01*
X7031749Y-11978593D01*
X7157053Y-11998439D01*
X7282357Y-11978593D01*
X7395395Y-11920997D01*
X7485103Y-11831289D01*
X7542699Y-11718251D01*
X7562545Y-11592947D01*
X9251561Y-11592947D01*
X9271407Y-11718250D01*
X9271408Y-11718254D01*
X9326997Y-11827353D01*
X9329003Y-11831289D01*
X9418711Y-11920997D01*
X9531749Y-11978593D01*
X9639919Y-11995725D01*
X9657052Y-11998439D01*
X9657052Y-11998438D01*
X9657053Y-11998439D01*
X9782357Y-11978593D01*
X9895395Y-11920997D01*
X9985103Y-11831289D01*
X10042699Y-11718251D01*
X10062545Y-11592947D01*
X11751561Y-11592947D01*
X11771407Y-11718250D01*
X11771408Y-11718254D01*
X11826997Y-11827353D01*
X11829003Y-11831289D01*
X11918711Y-11920997D01*
X12031749Y-11978593D01*
X12157053Y-11998439D01*
X12282357Y-11978593D01*
X12395395Y-11920997D01*
X12485103Y-11831289D01*
X12542699Y-11718251D01*
X12562545Y-11592947D01*
X14251561Y-11592947D01*
X14271407Y-11718250D01*
X14271408Y-11718254D01*
X14326997Y-11827353D01*
X14329003Y-11831289D01*
X14418711Y-11920997D01*
X14531749Y-11978593D01*
X14639919Y-11995725D01*
X14657052Y-11998439D01*
X14657052Y-11998438D01*
X14657053Y-11998439D01*
X14782357Y-11978593D01*
X14895395Y-11920997D01*
X14985103Y-11831289D01*
X15042699Y-11718251D01*
X15062545Y-11592947D01*
X16751561Y-11592947D01*
X16771407Y-11718250D01*
X16771408Y-11718254D01*
X16826997Y-11827353D01*
X16829003Y-11831289D01*
X16918711Y-11920997D01*
X17031749Y-11978593D01*
X17157053Y-11998439D01*
X17282357Y-11978593D01*
X17395395Y-11920997D01*
X17485103Y-11831289D01*
X17542699Y-11718251D01*
X17562545Y-11592947D01*
X19251561Y-11592947D01*
X19271407Y-11718250D01*
X19271408Y-11718254D01*
X19326997Y-11827353D01*
X19329003Y-11831289D01*
X19418711Y-11920997D01*
X19531749Y-11978593D01*
X19639919Y-11995725D01*
X19657052Y-11998439D01*
X19657052Y-11998438D01*
X19657053Y-11998439D01*
X19782357Y-11978593D01*
X19895395Y-11920997D01*
X19985103Y-11831289D01*
X20042699Y-11718251D01*
X20062545Y-11592947D01*
X21751561Y-11592947D01*
X21771407Y-11718250D01*
X21771408Y-11718254D01*
X21826997Y-11827353D01*
X21829003Y-11831289D01*
X21918711Y-11920997D01*
X22031749Y-11978593D01*
X22157053Y-11998439D01*
X22282357Y-11978593D01*
X22395395Y-11920997D01*
X22485103Y-11831289D01*
X22542699Y-11718251D01*
X22562545Y-11592947D01*
X24251561Y-11592947D01*
X24271407Y-11718250D01*
X24271408Y-11718254D01*
X24326997Y-11827353D01*
X24329003Y-11831289D01*
X24418711Y-11920997D01*
X24531749Y-11978593D01*
X24639919Y-11995725D01*
X24657052Y-11998439D01*
X24657052Y-11998438D01*
X24657053Y-11998439D01*
X24782357Y-11978593D01*
X24895395Y-11920997D01*
X24985103Y-11831289D01*
X25042699Y-11718251D01*
X25062545Y-11592947D01*
X26751561Y-11592947D01*
X26771407Y-11718250D01*
X26771408Y-11718254D01*
X26826997Y-11827353D01*
X26829003Y-11831289D01*
X26918711Y-11920997D01*
X27031749Y-11978593D01*
X27157053Y-11998439D01*
X27282357Y-11978593D01*
X27395395Y-11920997D01*
X27485103Y-11831289D01*
X27542699Y-11718251D01*
X27562545Y-11592947D01*
X29251561Y-11592947D01*
X29271407Y-11718250D01*
X29271408Y-11718254D01*
X29326997Y-11827353D01*
X29329003Y-11831289D01*
X29418711Y-11920997D01*
X29531749Y-11978593D01*
X29639919Y-11995725D01*
X29657052Y-11998439D01*
X29657052Y-11998438D01*
X29657053Y-11998439D01*
X29782357Y-11978593D01*
X29895395Y-11920997D01*
X29985103Y-11831289D01*
X30042699Y-11718251D01*
X30062545Y-11592947D01*
X30042699Y-11467643D01*
X29985103Y-11354605D01*
X29895395Y-11264897D01*
X29891459Y-11262891D01*
X29782360Y-11207302D01*
X29782357Y-11207301D01*
X29657053Y-11187455D01*
X29531749Y-11207301D01*
X29531745Y-11207302D01*
X29418712Y-11264896D01*
X29329002Y-11354606D01*
X29271408Y-11467639D01*
X29271407Y-11467643D01*
X29251561Y-11592946D01*
X29251561Y-11592947D01*
X27562545Y-11592947D01*
X27542699Y-11467643D01*
X27485103Y-11354605D01*
X27395395Y-11264897D01*
X27391459Y-11262891D01*
X27282360Y-11207302D01*
X27282357Y-11207301D01*
X27157053Y-11187455D01*
X27031749Y-11207301D01*
X27031745Y-11207302D01*
X26918712Y-11264896D01*
X26829002Y-11354606D01*
X26771408Y-11467639D01*
X26771407Y-11467643D01*
X26751561Y-11592946D01*
X26751561Y-11592947D01*
X25062545Y-11592947D01*
X25042699Y-11467643D01*
X24985103Y-11354605D01*
X24895395Y-11264897D01*
X24891459Y-11262891D01*
X24782360Y-11207302D01*
X24782357Y-11207301D01*
X24657053Y-11187455D01*
X24531749Y-11207301D01*
X24531745Y-11207302D01*
X24418712Y-11264896D01*
X24329002Y-11354606D01*
X24271408Y-11467639D01*
X24271407Y-11467643D01*
X24251561Y-11592946D01*
X24251561Y-11592947D01*
X22562545Y-11592947D01*
X22542699Y-11467643D01*
X22485103Y-11354605D01*
X22395395Y-11264897D01*
X22391459Y-11262891D01*
X22282360Y-11207302D01*
X22282357Y-11207301D01*
X22157053Y-11187455D01*
X22031749Y-11207301D01*
X22031745Y-11207302D01*
X21918712Y-11264896D01*
X21829002Y-11354606D01*
X21771408Y-11467639D01*
X21771407Y-11467643D01*
X21751561Y-11592946D01*
X21751561Y-11592947D01*
X20062545Y-11592947D01*
X20042699Y-11467643D01*
X19985103Y-11354605D01*
X19895395Y-11264897D01*
X19891459Y-11262891D01*
X19782360Y-11207302D01*
X19782357Y-11207301D01*
X19657053Y-11187455D01*
X19531749Y-11207301D01*
X19531745Y-11207302D01*
X19418712Y-11264896D01*
X19329002Y-11354606D01*
X19271408Y-11467639D01*
X19271407Y-11467643D01*
X19251561Y-11592946D01*
X19251561Y-11592947D01*
X17562545Y-11592947D01*
X17542699Y-11467643D01*
X17485103Y-11354605D01*
X17395395Y-11264897D01*
X17391459Y-11262891D01*
X17282360Y-11207302D01*
X17282357Y-11207301D01*
X17157053Y-11187455D01*
X17031749Y-11207301D01*
X17031745Y-11207302D01*
X16918712Y-11264896D01*
X16829002Y-11354606D01*
X16771408Y-11467639D01*
X16771407Y-11467643D01*
X16751561Y-11592946D01*
X16751561Y-11592947D01*
X15062545Y-11592947D01*
X15042699Y-11467643D01*
X14985103Y-11354605D01*
X14895395Y-11264897D01*
X14891459Y-11262891D01*
X14782360Y-11207302D01*
X14782357Y-11207301D01*
X14657053Y-11187455D01*
X14531749Y-11207301D01*
X14531745Y-11207302D01*
X14418712Y-11264896D01*
X14329002Y-11354606D01*
X14271408Y-11467639D01*
X14271407Y-11467643D01*
X14251561Y-11592946D01*
X14251561Y-11592947D01*
X12562545Y-11592947D01*
X12542699Y-11467643D01*
X12485103Y-11354605D01*
X12395395Y-11264897D01*
X12391459Y-11262891D01*
X12282360Y-11207302D01*
X12282357Y-11207301D01*
X12157053Y-11187455D01*
X12031749Y-11207301D01*
X12031745Y-11207302D01*
X11918712Y-11264896D01*
X11829002Y-11354606D01*
X11771408Y-11467639D01*
X11771407Y-11467643D01*
X11751561Y-11592946D01*
X11751561Y-11592947D01*
X10062545Y-11592947D01*
X10042699Y-11467643D01*
X9985103Y-11354605D01*
X9895395Y-11264897D01*
X9891459Y-11262891D01*
X9782360Y-11207302D01*
X9782357Y-11207301D01*
X9657053Y-11187455D01*
X9531749Y-11207301D01*
X9531745Y-11207302D01*
X9418712Y-11264896D01*
X9329002Y-11354606D01*
X9271408Y-11467639D01*
X9271407Y-11467643D01*
X9251561Y-11592946D01*
X9251561Y-11592947D01*
X7562545Y-11592947D01*
X7542699Y-11467643D01*
X7485103Y-11354605D01*
X7395395Y-11264897D01*
X7391459Y-11262891D01*
X7282360Y-11207302D01*
X7282357Y-11207301D01*
X7157053Y-11187455D01*
X7031749Y-11207301D01*
X7031745Y-11207302D01*
X6918712Y-11264896D01*
X6829002Y-11354606D01*
X6771408Y-11467639D01*
X6771407Y-11467643D01*
X6751561Y-11592946D01*
X6751561Y-11592947D01*
X200500Y-11592947D01*
X200500Y-10907053D01*
X4937455Y-10907053D01*
X4957301Y-11032356D01*
X4957302Y-11032360D01*
X5012891Y-11141459D01*
X5014897Y-11145395D01*
X5104605Y-11235103D01*
X5217643Y-11292699D01*
X5325813Y-11309831D01*
X5342946Y-11312545D01*
X5342946Y-11312544D01*
X5342947Y-11312545D01*
X5468251Y-11292699D01*
X5581289Y-11235103D01*
X5670997Y-11145395D01*
X5728593Y-11032357D01*
X5748439Y-10907053D01*
X5728593Y-10781749D01*
X5670997Y-10668711D01*
X5581289Y-10579003D01*
X5577353Y-10576997D01*
X5468254Y-10521408D01*
X5468251Y-10521407D01*
X5342947Y-10501561D01*
X5217643Y-10521407D01*
X5217639Y-10521408D01*
X5104606Y-10579002D01*
X5014896Y-10668712D01*
X4957302Y-10781745D01*
X4957301Y-10781749D01*
X4937455Y-10907052D01*
X4937455Y-10907053D01*
X200500Y-10907053D01*
X200500Y-10216086D01*
X219407Y-10157895D01*
X268907Y-10121931D01*
X330093Y-10121931D01*
X379593Y-10157895D01*
X387705Y-10171133D01*
X421950Y-10238342D01*
X511658Y-10328050D01*
X624696Y-10385646D01*
X732866Y-10402778D01*
X749999Y-10405492D01*
X749999Y-10405491D01*
X750000Y-10405492D01*
X875304Y-10385646D01*
X988342Y-10328050D01*
X1078050Y-10238342D01*
X1135646Y-10125304D01*
X1155492Y-10000000D01*
X1135646Y-9874696D01*
X1078050Y-9761658D01*
X988342Y-9671950D01*
X984406Y-9669944D01*
X875307Y-9614355D01*
X875304Y-9614354D01*
X750000Y-9594508D01*
X624696Y-9614354D01*
X624692Y-9614355D01*
X511659Y-9671949D01*
X421949Y-9761659D01*
X387709Y-9828859D01*
X344444Y-9872123D01*
X284012Y-9881694D01*
X229496Y-9853916D01*
X201719Y-9799399D01*
X200500Y-9783913D01*
X200500Y-9000000D01*
X5344508Y-9000000D01*
X5364354Y-9125303D01*
X5364355Y-9125307D01*
X5411713Y-9218251D01*
X5421950Y-9238342D01*
X5511658Y-9328050D01*
X5624696Y-9385646D01*
X5750000Y-9405492D01*
X5803981Y-9396942D01*
X5864413Y-9406513D01*
X5907677Y-9449777D01*
X5917249Y-9510210D01*
X5907678Y-9539668D01*
X5864354Y-9624694D01*
X5864354Y-9624696D01*
X5844508Y-9749999D01*
X5844508Y-9750000D01*
X5864354Y-9875303D01*
X5864355Y-9875307D01*
X5919944Y-9984406D01*
X5921950Y-9988342D01*
X6011658Y-10078050D01*
X6124696Y-10135646D01*
X6232866Y-10152778D01*
X6249999Y-10155492D01*
X6249999Y-10155491D01*
X6250000Y-10155492D01*
X6375304Y-10135646D01*
X6488342Y-10078050D01*
X6566392Y-10000000D01*
X26594508Y-10000000D01*
X26614354Y-10125303D01*
X26614355Y-10125307D01*
X26630960Y-10157895D01*
X26671950Y-10238342D01*
X26761658Y-10328050D01*
X26874696Y-10385646D01*
X27000000Y-10405492D01*
X27125304Y-10385646D01*
X27238342Y-10328050D01*
X27328050Y-10238342D01*
X27385646Y-10125304D01*
X27405492Y-10000000D01*
X27385646Y-9874696D01*
X27328050Y-9761658D01*
X27316392Y-9750000D01*
X28594508Y-9750000D01*
X28614354Y-9875303D01*
X28614355Y-9875307D01*
X28669944Y-9984406D01*
X28671950Y-9988342D01*
X28761658Y-10078050D01*
X28874696Y-10135646D01*
X29000000Y-10155492D01*
X29125304Y-10135646D01*
X29238342Y-10078050D01*
X29328050Y-9988342D01*
X29385646Y-9875304D01*
X29405492Y-9750000D01*
X29385646Y-9624696D01*
X29328050Y-9511658D01*
X29238342Y-9421950D01*
X29234406Y-9419944D01*
X29125307Y-9364355D01*
X29125304Y-9364354D01*
X29000000Y-9344508D01*
X28874696Y-9364354D01*
X28874692Y-9364355D01*
X28761659Y-9421949D01*
X28671949Y-9511659D01*
X28614355Y-9624692D01*
X28614354Y-9624696D01*
X28594508Y-9749999D01*
X28594508Y-9750000D01*
X27316392Y-9750000D01*
X27238342Y-9671950D01*
X27234406Y-9669944D01*
X27125307Y-9614355D01*
X27125304Y-9614354D01*
X27000000Y-9594508D01*
X26874696Y-9614354D01*
X26874692Y-9614355D01*
X26761659Y-9671949D01*
X26671949Y-9761659D01*
X26614355Y-9874692D01*
X26614354Y-9874696D01*
X26594508Y-9999999D01*
X26594508Y-10000000D01*
X6566392Y-10000000D01*
X6578050Y-9988342D01*
X6635646Y-9875304D01*
X6655492Y-9750000D01*
X6635646Y-9624696D01*
X6578050Y-9511658D01*
X6488342Y-9421950D01*
X6484406Y-9419944D01*
X6375307Y-9364355D01*
X6375304Y-9364354D01*
X6250000Y-9344508D01*
X6249998Y-9344508D01*
X6196017Y-9353057D01*
X6135585Y-9343485D01*
X6092321Y-9300220D01*
X6082750Y-9239788D01*
X6092320Y-9210334D01*
X6135646Y-9125304D01*
X6140771Y-9092947D01*
X9251561Y-9092947D01*
X9270152Y-9210330D01*
X9271407Y-9218250D01*
X9271408Y-9218254D01*
X9313172Y-9300220D01*
X9329003Y-9331289D01*
X9418711Y-9420997D01*
X9531749Y-9478593D01*
X9657053Y-9498439D01*
X9782357Y-9478593D01*
X9895395Y-9420997D01*
X9985103Y-9331289D01*
X10042699Y-9218251D01*
X10062545Y-9092947D01*
X11751561Y-9092947D01*
X11770152Y-9210330D01*
X11771407Y-9218250D01*
X11771408Y-9218254D01*
X11813172Y-9300220D01*
X11829003Y-9331289D01*
X11918711Y-9420997D01*
X12031749Y-9478593D01*
X12139919Y-9495725D01*
X12157052Y-9498439D01*
X12157052Y-9498438D01*
X12157053Y-9498439D01*
X12282357Y-9478593D01*
X12395395Y-9420997D01*
X12485103Y-9331289D01*
X12542699Y-9218251D01*
X12562545Y-9092947D01*
X14251561Y-9092947D01*
X14270152Y-9210330D01*
X14271407Y-9218250D01*
X14271408Y-9218254D01*
X14313172Y-9300220D01*
X14329003Y-9331289D01*
X14418711Y-9420997D01*
X14531749Y-9478593D01*
X14657053Y-9498439D01*
X14782357Y-9478593D01*
X14895395Y-9420997D01*
X14985103Y-9331289D01*
X15042699Y-9218251D01*
X15062545Y-9092947D01*
X16751561Y-9092947D01*
X16770152Y-9210330D01*
X16771407Y-9218250D01*
X16771408Y-9218254D01*
X16813172Y-9300220D01*
X16829003Y-9331289D01*
X16918711Y-9420997D01*
X17031749Y-9478593D01*
X17139919Y-9495725D01*
X17157052Y-9498439D01*
X17157052Y-9498438D01*
X17157053Y-9498439D01*
X17282357Y-9478593D01*
X17395395Y-9420997D01*
X17485103Y-9331289D01*
X17542699Y-9218251D01*
X17562545Y-9092947D01*
X19251561Y-9092947D01*
X19270152Y-9210330D01*
X19271407Y-9218250D01*
X19271408Y-9218254D01*
X19313172Y-9300220D01*
X19329003Y-9331289D01*
X19418711Y-9420997D01*
X19531749Y-9478593D01*
X19657053Y-9498439D01*
X19782357Y-9478593D01*
X19895395Y-9420997D01*
X19985103Y-9331289D01*
X20042699Y-9218251D01*
X20062545Y-9092947D01*
X21751561Y-9092947D01*
X21770152Y-9210330D01*
X21771407Y-9218250D01*
X21771408Y-9218254D01*
X21813172Y-9300220D01*
X21829003Y-9331289D01*
X21918711Y-9420997D01*
X22031749Y-9478593D01*
X22139919Y-9495725D01*
X22157052Y-9498439D01*
X22157052Y-9498438D01*
X22157053Y-9498439D01*
X22282357Y-9478593D01*
X22395395Y-9420997D01*
X22485103Y-9331289D01*
X22542699Y-9218251D01*
X22562545Y-9092947D01*
X24251561Y-9092947D01*
X24270152Y-9210330D01*
X24271407Y-9218250D01*
X24271408Y-9218254D01*
X24313172Y-9300220D01*
X24329003Y-9331289D01*
X24418711Y-9420997D01*
X24531749Y-9478593D01*
X24657053Y-9498439D01*
X24782357Y-9478593D01*
X24895395Y-9420997D01*
X24985103Y-9331289D01*
X25042699Y-9218251D01*
X25062545Y-9092947D01*
X25042699Y-8967643D01*
X24985103Y-8854605D01*
X24895395Y-8764897D01*
X24889038Y-8761658D01*
X24782360Y-8707302D01*
X24782357Y-8707301D01*
X24657053Y-8687455D01*
X24531749Y-8707301D01*
X24531745Y-8707302D01*
X24418712Y-8764896D01*
X24329002Y-8854606D01*
X24271408Y-8967639D01*
X24271407Y-8967643D01*
X24251561Y-9092947D01*
X22562545Y-9092947D01*
X22542699Y-8967643D01*
X22485103Y-8854605D01*
X22395395Y-8764897D01*
X22389038Y-8761658D01*
X22282360Y-8707302D01*
X22282357Y-8707301D01*
X22157053Y-8687455D01*
X22031749Y-8707301D01*
X22031745Y-8707302D01*
X21918712Y-8764896D01*
X21829002Y-8854606D01*
X21771408Y-8967639D01*
X21771407Y-8967643D01*
X21751561Y-9092947D01*
X20062545Y-9092947D01*
X20042699Y-8967643D01*
X19985103Y-8854605D01*
X19895395Y-8764897D01*
X19889038Y-8761658D01*
X19782360Y-8707302D01*
X19782357Y-8707301D01*
X19657053Y-8687455D01*
X19531749Y-8707301D01*
X19531745Y-8707302D01*
X19418712Y-8764896D01*
X19329002Y-8854606D01*
X19271408Y-8967639D01*
X19271407Y-8967643D01*
X19251561Y-9092947D01*
X17562545Y-9092947D01*
X17542699Y-8967643D01*
X17485103Y-8854605D01*
X17395395Y-8764897D01*
X17389038Y-8761658D01*
X17282360Y-8707302D01*
X17282357Y-8707301D01*
X17157053Y-8687455D01*
X17031749Y-8707301D01*
X17031745Y-8707302D01*
X16918712Y-8764896D01*
X16829002Y-8854606D01*
X16771408Y-8967639D01*
X16771407Y-8967643D01*
X16751561Y-9092947D01*
X15062545Y-9092947D01*
X15042699Y-8967643D01*
X14985103Y-8854605D01*
X14895395Y-8764897D01*
X14889038Y-8761658D01*
X14782360Y-8707302D01*
X14782357Y-8707301D01*
X14657053Y-8687455D01*
X14531749Y-8707301D01*
X14531745Y-8707302D01*
X14418712Y-8764896D01*
X14329002Y-8854606D01*
X14271408Y-8967639D01*
X14271407Y-8967643D01*
X14251561Y-9092947D01*
X12562545Y-9092947D01*
X12542699Y-8967643D01*
X12485103Y-8854605D01*
X12395395Y-8764897D01*
X12389038Y-8761658D01*
X12282360Y-8707302D01*
X12282357Y-8707301D01*
X12157053Y-8687455D01*
X12031749Y-8707301D01*
X12031745Y-8707302D01*
X11918712Y-8764896D01*
X11829002Y-8854606D01*
X11771408Y-8967639D01*
X11771407Y-8967643D01*
X11751561Y-9092947D01*
X10062545Y-9092947D01*
X10042699Y-8967643D01*
X9985103Y-8854605D01*
X9895395Y-8764897D01*
X9889038Y-8761658D01*
X9782360Y-8707302D01*
X9782357Y-8707301D01*
X9657053Y-8687455D01*
X9531749Y-8707301D01*
X9531745Y-8707302D01*
X9418712Y-8764896D01*
X9329002Y-8854606D01*
X9271408Y-8967639D01*
X9271407Y-8967643D01*
X9251561Y-9092947D01*
X6140771Y-9092947D01*
X6155492Y-9000000D01*
X6135646Y-8874696D01*
X6078050Y-8761658D01*
X5988342Y-8671950D01*
X5917086Y-8635643D01*
X5875307Y-8614355D01*
X5875304Y-8614354D01*
X5750000Y-8594508D01*
X5624696Y-8614354D01*
X5624692Y-8614355D01*
X5511659Y-8671949D01*
X5421949Y-8761659D01*
X5364355Y-8874692D01*
X5364354Y-8874696D01*
X5344508Y-8999999D01*
X5344508Y-9000000D01*
X200500Y-9000000D01*
X200500Y-8708441D01*
X219407Y-8650250D01*
X268907Y-8614286D01*
X330093Y-8614286D01*
X344443Y-8620231D01*
X374696Y-8635646D01*
X500000Y-8655492D01*
X625304Y-8635646D01*
X738342Y-8578050D01*
X828050Y-8488342D01*
X885646Y-8375304D01*
X905492Y-8250000D01*
X885646Y-8124696D01*
X828050Y-8011658D01*
X738342Y-7921950D01*
X655554Y-7879767D01*
X625307Y-7864355D01*
X625304Y-7864354D01*
X500000Y-7844508D01*
X374696Y-7864354D01*
X374689Y-7864356D01*
X344445Y-7879767D01*
X284013Y-7889339D01*
X229497Y-7861562D01*
X201719Y-7807045D01*
X200500Y-7791558D01*
X200500Y-7500000D01*
X25344508Y-7500000D01*
X25364354Y-7625303D01*
X25364355Y-7625307D01*
X25419944Y-7734406D01*
X25421950Y-7738342D01*
X25511658Y-7828050D01*
X25624696Y-7885646D01*
X25750000Y-7905492D01*
X25875304Y-7885646D01*
X25988342Y-7828050D01*
X26066392Y-7750000D01*
X28844508Y-7750000D01*
X28859476Y-7844508D01*
X28864354Y-7875303D01*
X28864355Y-7875307D01*
X28888121Y-7921949D01*
X28921950Y-7988342D01*
X29011658Y-8078050D01*
X29124696Y-8135646D01*
X29250000Y-8155492D01*
X29375304Y-8135646D01*
X29488342Y-8078050D01*
X29578050Y-7988342D01*
X29635646Y-7875304D01*
X29655492Y-7750000D01*
X29635646Y-7624696D01*
X29578050Y-7511658D01*
X29488342Y-7421950D01*
X29484406Y-7419944D01*
X29375307Y-7364355D01*
X29375304Y-7364354D01*
X29250000Y-7344508D01*
X29124696Y-7364354D01*
X29124692Y-7364355D01*
X29011659Y-7421949D01*
X28921949Y-7511659D01*
X28864355Y-7624692D01*
X28864354Y-7624696D01*
X28844508Y-7750000D01*
X26066392Y-7750000D01*
X26078050Y-7738342D01*
X26135646Y-7625304D01*
X26155492Y-7500000D01*
X26135646Y-7374696D01*
X26078050Y-7261658D01*
X25988342Y-7171950D01*
X25917088Y-7135644D01*
X25875307Y-7114355D01*
X25875304Y-7114354D01*
X25750000Y-7094508D01*
X25624696Y-7114354D01*
X25624692Y-7114355D01*
X25511659Y-7171949D01*
X25421949Y-7261659D01*
X25364355Y-7374692D01*
X25364354Y-7374696D01*
X25344508Y-7499999D01*
X25344508Y-7500000D01*
X200500Y-7500000D01*
X200500Y-6750000D01*
X10594508Y-6750000D01*
X10607382Y-6831287D01*
X10614354Y-6875303D01*
X10614355Y-6875307D01*
X10637636Y-6920997D01*
X10671950Y-6988342D01*
X10761658Y-7078050D01*
X10874696Y-7135646D01*
X11000000Y-7155492D01*
X11125304Y-7135646D01*
X11238342Y-7078050D01*
X11328050Y-6988342D01*
X11385646Y-6875304D01*
X11405492Y-6750000D01*
X11385646Y-6624696D01*
X11369469Y-6592947D01*
X11751561Y-6592947D01*
X11756589Y-6624696D01*
X11771407Y-6718250D01*
X11771408Y-6718254D01*
X11787583Y-6749999D01*
X11829003Y-6831289D01*
X11918711Y-6920997D01*
X12031749Y-6978593D01*
X12157053Y-6998439D01*
X12282357Y-6978593D01*
X12395395Y-6920997D01*
X12485103Y-6831289D01*
X12542699Y-6718251D01*
X12562545Y-6592947D01*
X14251561Y-6592947D01*
X14256589Y-6624696D01*
X14271407Y-6718250D01*
X14271408Y-6718254D01*
X14287583Y-6749999D01*
X14329003Y-6831289D01*
X14418711Y-6920997D01*
X14531749Y-6978593D01*
X14639919Y-6995725D01*
X14657052Y-6998439D01*
X14657052Y-6998438D01*
X14657053Y-6998439D01*
X14782357Y-6978593D01*
X14895395Y-6920997D01*
X14985103Y-6831289D01*
X15042699Y-6718251D01*
X15062545Y-6592947D01*
X16751561Y-6592947D01*
X16756589Y-6624696D01*
X16771407Y-6718250D01*
X16771408Y-6718254D01*
X16787583Y-6749999D01*
X16829003Y-6831289D01*
X16918711Y-6920997D01*
X17031749Y-6978593D01*
X17157053Y-6998439D01*
X17282357Y-6978593D01*
X17395395Y-6920997D01*
X17485103Y-6831289D01*
X17542699Y-6718251D01*
X17562545Y-6592947D01*
X19251561Y-6592947D01*
X19256589Y-6624696D01*
X19271407Y-6718250D01*
X19271408Y-6718254D01*
X19287583Y-6749999D01*
X19329003Y-6831289D01*
X19418711Y-6920997D01*
X19531749Y-6978593D01*
X19639919Y-6995725D01*
X19657052Y-6998439D01*
X19657052Y-6998438D01*
X19657053Y-6998439D01*
X19782357Y-6978593D01*
X19895395Y-6920997D01*
X19985103Y-6831289D01*
X20042699Y-6718251D01*
X20062545Y-6592947D01*
X21751561Y-6592947D01*
X21756589Y-6624696D01*
X21771407Y-6718250D01*
X21771408Y-6718254D01*
X21787583Y-6749999D01*
X21829003Y-6831289D01*
X21918711Y-6920997D01*
X22031749Y-6978593D01*
X22157053Y-6998439D01*
X22282357Y-6978593D01*
X22395395Y-6920997D01*
X22485103Y-6831289D01*
X22542699Y-6718251D01*
X22562545Y-6592947D01*
X24251561Y-6592947D01*
X24256589Y-6624696D01*
X24271407Y-6718250D01*
X24271408Y-6718254D01*
X24287583Y-6749999D01*
X24329003Y-6831289D01*
X24418711Y-6920997D01*
X24531749Y-6978593D01*
X24639919Y-6995725D01*
X24657052Y-6998439D01*
X24657052Y-6998438D01*
X24657053Y-6998439D01*
X24782357Y-6978593D01*
X24895395Y-6920997D01*
X24985103Y-6831289D01*
X25042699Y-6718251D01*
X25062545Y-6592947D01*
X25042699Y-6467643D01*
X24985103Y-6354605D01*
X24895395Y-6264897D01*
X24891459Y-6262891D01*
X24782360Y-6207302D01*
X24782357Y-6207301D01*
X24657053Y-6187455D01*
X24531749Y-6207301D01*
X24531745Y-6207302D01*
X24418712Y-6264896D01*
X24329002Y-6354606D01*
X24271408Y-6467639D01*
X24271407Y-6467643D01*
X24251561Y-6592947D01*
X22562545Y-6592947D01*
X22542699Y-6467643D01*
X22485103Y-6354605D01*
X22395395Y-6264897D01*
X22391459Y-6262891D01*
X22282360Y-6207302D01*
X22282357Y-6207301D01*
X22157053Y-6187455D01*
X22031749Y-6207301D01*
X22031745Y-6207302D01*
X21918712Y-6264896D01*
X21829002Y-6354606D01*
X21771408Y-6467639D01*
X21771407Y-6467643D01*
X21751561Y-6592947D01*
X20062545Y-6592947D01*
X20042699Y-6467643D01*
X19985103Y-6354605D01*
X19895395Y-6264897D01*
X19891459Y-6262891D01*
X19782360Y-6207302D01*
X19782357Y-6207301D01*
X19657053Y-6187455D01*
X19531749Y-6207301D01*
X19531745Y-6207302D01*
X19418712Y-6264896D01*
X19329002Y-6354606D01*
X19271408Y-6467639D01*
X19271407Y-6467643D01*
X19251561Y-6592947D01*
X17562545Y-6592947D01*
X17542699Y-6467643D01*
X17485103Y-6354605D01*
X17395395Y-6264897D01*
X17391459Y-6262891D01*
X17282360Y-6207302D01*
X17282357Y-6207301D01*
X17157053Y-6187455D01*
X17031749Y-6207301D01*
X17031745Y-6207302D01*
X16918712Y-6264896D01*
X16829002Y-6354606D01*
X16771408Y-6467639D01*
X16771407Y-6467643D01*
X16751561Y-6592947D01*
X15062545Y-6592947D01*
X15042699Y-6467643D01*
X14985103Y-6354605D01*
X14895395Y-6264897D01*
X14891459Y-6262891D01*
X14782360Y-6207302D01*
X14782357Y-6207301D01*
X14657053Y-6187455D01*
X14531749Y-6207301D01*
X14531745Y-6207302D01*
X14418712Y-6264896D01*
X14329002Y-6354606D01*
X14271408Y-6467639D01*
X14271407Y-6467643D01*
X14251561Y-6592947D01*
X12562545Y-6592947D01*
X12542699Y-6467643D01*
X12485103Y-6354605D01*
X12395395Y-6264897D01*
X12391459Y-6262891D01*
X12282360Y-6207302D01*
X12282357Y-6207301D01*
X12157053Y-6187455D01*
X12031749Y-6207301D01*
X12031745Y-6207302D01*
X11918712Y-6264896D01*
X11829002Y-6354606D01*
X11771408Y-6467639D01*
X11771407Y-6467643D01*
X11751561Y-6592947D01*
X11369469Y-6592947D01*
X11328050Y-6511658D01*
X11238342Y-6421950D01*
X11206042Y-6405492D01*
X11125307Y-6364355D01*
X11125304Y-6364354D01*
X11000000Y-6344508D01*
X10874696Y-6364354D01*
X10874692Y-6364355D01*
X10761659Y-6421949D01*
X10671949Y-6511659D01*
X10614355Y-6624692D01*
X10614354Y-6624696D01*
X10594508Y-6750000D01*
X200500Y-6750000D01*
X200500Y-6000000D01*
X31594508Y-6000000D01*
X31614354Y-6125303D01*
X31614355Y-6125307D01*
X31656134Y-6207301D01*
X31671950Y-6238342D01*
X31761658Y-6328050D01*
X31874696Y-6385646D01*
X32000000Y-6405492D01*
X32125304Y-6385646D01*
X32238342Y-6328050D01*
X32328050Y-6238342D01*
X32385646Y-6125304D01*
X32405492Y-6000000D01*
X32385646Y-5874696D01*
X32328050Y-5761658D01*
X32238342Y-5671950D01*
X32206042Y-5655492D01*
X32125307Y-5614355D01*
X32125304Y-5614354D01*
X32020664Y-5597780D01*
X32004571Y-5589581D01*
X31979334Y-5597781D01*
X31874696Y-5614354D01*
X31874692Y-5614355D01*
X31761659Y-5671949D01*
X31671949Y-5761659D01*
X31614355Y-5874692D01*
X31614354Y-5874696D01*
X31594508Y-5999999D01*
X31594508Y-6000000D01*
X200500Y-6000000D01*
X200500Y-5250000D01*
X5344508Y-5250000D01*
X5362034Y-5360659D01*
X5364354Y-5375303D01*
X5364355Y-5375307D01*
X5419944Y-5484406D01*
X5421950Y-5488342D01*
X5511658Y-5578050D01*
X5624696Y-5635646D01*
X5750000Y-5655492D01*
X5875304Y-5635646D01*
X5988342Y-5578050D01*
X6078050Y-5488342D01*
X6135646Y-5375304D01*
X6155492Y-5250000D01*
X6135646Y-5124696D01*
X6078050Y-5011658D01*
X6011393Y-4945001D01*
X5983618Y-4890487D01*
X5993189Y-4830055D01*
X6011392Y-4804999D01*
X6066392Y-4750000D01*
X22594508Y-4750000D01*
X22614354Y-4875303D01*
X22614355Y-4875307D01*
X22622090Y-4890487D01*
X22671950Y-4988342D01*
X22761658Y-5078050D01*
X22874696Y-5135646D01*
X23000000Y-5155492D01*
X23125304Y-5135646D01*
X23238342Y-5078050D01*
X23316392Y-5000000D01*
X31594508Y-5000000D01*
X31614354Y-5125303D01*
X31614355Y-5125307D01*
X31669944Y-5234406D01*
X31671950Y-5238342D01*
X31761658Y-5328050D01*
X31874696Y-5385646D01*
X31966547Y-5400193D01*
X31979334Y-5402219D01*
X31995427Y-5410418D01*
X32020665Y-5402219D01*
X32125304Y-5385646D01*
X32238342Y-5328050D01*
X32328050Y-5238342D01*
X32385646Y-5125304D01*
X32405492Y-5000000D01*
X32385646Y-4874696D01*
X32328050Y-4761658D01*
X32238342Y-4671950D01*
X32234406Y-4669944D01*
X32125307Y-4614355D01*
X32125304Y-4614354D01*
X32000000Y-4594508D01*
X31874696Y-4614354D01*
X31874692Y-4614355D01*
X31761659Y-4671949D01*
X31671949Y-4761659D01*
X31614355Y-4874692D01*
X31614354Y-4874696D01*
X31594508Y-4999999D01*
X31594508Y-5000000D01*
X23316392Y-5000000D01*
X23328050Y-4988342D01*
X23385646Y-4875304D01*
X23405492Y-4750000D01*
X23385646Y-4624696D01*
X23328050Y-4511658D01*
X23238342Y-4421950D01*
X23234406Y-4419944D01*
X23125307Y-4364355D01*
X23125304Y-4364354D01*
X23000000Y-4344508D01*
X22874696Y-4364354D01*
X22874692Y-4364355D01*
X22761659Y-4421949D01*
X22671949Y-4511659D01*
X22614355Y-4624692D01*
X22614354Y-4624696D01*
X22594508Y-4749999D01*
X22594508Y-4750000D01*
X6066392Y-4750000D01*
X6078050Y-4738342D01*
X6135646Y-4625304D01*
X6155492Y-4500000D01*
X6135646Y-4374696D01*
X6078050Y-4261658D01*
X5988342Y-4171950D01*
X5984406Y-4169944D01*
X5875307Y-4114355D01*
X5875304Y-4114354D01*
X5750000Y-4094508D01*
X5624696Y-4114354D01*
X5624692Y-4114355D01*
X5511659Y-4171949D01*
X5421949Y-4261659D01*
X5364355Y-4374692D01*
X5364354Y-4374696D01*
X5344508Y-4500000D01*
X5359476Y-4594508D01*
X5364354Y-4625303D01*
X5364355Y-4625307D01*
X5388121Y-4671949D01*
X5421950Y-4738342D01*
X5488606Y-4804998D01*
X5516382Y-4859513D01*
X5506811Y-4919945D01*
X5488607Y-4945000D01*
X5445268Y-4988340D01*
X5421949Y-5011659D01*
X5364355Y-5124692D01*
X5364354Y-5124696D01*
X5344508Y-5250000D01*
X200500Y-5250000D01*
X200500Y-3990000D01*
X24844508Y-3990000D01*
X24864354Y-4115303D01*
X24864355Y-4115307D01*
X24919944Y-4224406D01*
X24921950Y-4228342D01*
X25011658Y-4318050D01*
X25063585Y-4344508D01*
X25122831Y-4374696D01*
X25124696Y-4375646D01*
X25250000Y-4395492D01*
X25375304Y-4375646D01*
X25488342Y-4318050D01*
X25578050Y-4228342D01*
X25635646Y-4115304D01*
X25655492Y-3990000D01*
X25635646Y-3864696D01*
X25578050Y-3751658D01*
X25488342Y-3661950D01*
X25484406Y-3659944D01*
X25375307Y-3604355D01*
X25375304Y-3604354D01*
X25297232Y-3591988D01*
X25242716Y-3564212D01*
X25242478Y-3563745D01*
X25222225Y-3584000D01*
X25192767Y-3593572D01*
X25124696Y-3604354D01*
X25124692Y-3604355D01*
X25011659Y-3661949D01*
X24921949Y-3751659D01*
X24864355Y-3864692D01*
X24864354Y-3864696D01*
X24844508Y-3989999D01*
X24844508Y-3990000D01*
X200500Y-3990000D01*
X200500Y-3000000D01*
X24834508Y-3000000D01*
X24854354Y-3125303D01*
X24854355Y-3125307D01*
X24909944Y-3234406D01*
X24911950Y-3238342D01*
X25001658Y-3328050D01*
X25114696Y-3385646D01*
X25192767Y-3398011D01*
X25247282Y-3425787D01*
X25247519Y-3426253D01*
X25267775Y-3405998D01*
X25297231Y-3396427D01*
X25365304Y-3385646D01*
X25478342Y-3328050D01*
X25568050Y-3238342D01*
X25625646Y-3125304D01*
X25645492Y-3000000D01*
X25625646Y-2874696D01*
X25568050Y-2761658D01*
X25478342Y-2671950D01*
X25474406Y-2669944D01*
X25365307Y-2614355D01*
X25365304Y-2614354D01*
X25260664Y-2597780D01*
X25244571Y-2589581D01*
X25219334Y-2597781D01*
X25114696Y-2614354D01*
X25114692Y-2614355D01*
X25001659Y-2671949D01*
X24911949Y-2761659D01*
X24854355Y-2874692D01*
X24854354Y-2874696D01*
X24834508Y-2999999D01*
X24834508Y-3000000D01*
X200500Y-3000000D01*
X200500Y-2624057D01*
X219407Y-2565866D01*
X229496Y-2554053D01*
X783549Y-2000000D01*
X24834508Y-2000000D01*
X24854354Y-2125303D01*
X24854355Y-2125307D01*
X24909944Y-2234406D01*
X24911950Y-2238342D01*
X25001658Y-2328050D01*
X25114696Y-2385646D01*
X25206547Y-2400193D01*
X25219334Y-2402219D01*
X25235427Y-2410418D01*
X25260665Y-2402219D01*
X25365304Y-2385646D01*
X25478342Y-2328050D01*
X25568050Y-2238342D01*
X25625646Y-2125304D01*
X25645492Y-2000000D01*
X25625646Y-1874696D01*
X25568050Y-1761658D01*
X25478342Y-1671950D01*
X25474406Y-1669944D01*
X25365307Y-1614355D01*
X25365304Y-1614354D01*
X25240000Y-1594508D01*
X25114696Y-1614354D01*
X25114692Y-1614355D01*
X25001659Y-1671949D01*
X24911949Y-1761659D01*
X24854355Y-1874692D01*
X24854354Y-1874696D01*
X24834508Y-1999999D01*
X24834508Y-2000000D01*
X783549Y-2000000D01*
X2554054Y-229496D01*
X2608571Y-201719D01*
X2624058Y-200500D01*
X32375943Y-200500D01*
X32434134Y-219407D01*
G37*
%TD.AperFunction*%
%TD*%
M02*
