%TF.GenerationSoftware,KiCad,Pcbnew,7.0.8*%
%TF.CreationDate,2023-11-11T12:09:49+10:00*%
%TF.ProjectId,LEDBoard,4c454442-6f61-4726-942e-6b696361645f,rev?*%
%TF.SameCoordinates,Original*%
%TF.FileFunction,Legend,Bot*%
%TF.FilePolarity,Positive*%
%FSLAX46Y46*%
G04 Gerber Fmt 4.6, Leading zero omitted, Abs format (unit mm)*
G04 Created by KiCad (PCBNEW 7.0.8) date 2023-11-11 12:09:49*
%MOMM*%
%LPD*%
G01*
G04 APERTURE LIST*
G04 Aperture macros list*
%AMRoundRect*
0 Rectangle with rounded corners*
0 $1 Rounding radius*
0 $2 $3 $4 $5 $6 $7 $8 $9 X,Y pos of 4 corners*
0 Add a 4 corners polygon primitive as box body*
4,1,4,$2,$3,$4,$5,$6,$7,$8,$9,$2,$3,0*
0 Add four circle primitives for the rounded corners*
1,1,$1+$1,$2,$3*
1,1,$1+$1,$4,$5*
1,1,$1+$1,$6,$7*
1,1,$1+$1,$8,$9*
0 Add four rect primitives between the rounded corners*
20,1,$1+$1,$2,$3,$4,$5,0*
20,1,$1+$1,$4,$5,$6,$7,0*
20,1,$1+$1,$6,$7,$8,$9,0*
20,1,$1+$1,$8,$9,$2,$3,0*%
G04 Aperture macros list end*
%ADD10C,0.150000*%
%ADD11C,0.100000*%
%ADD12C,0.120000*%
%ADD13C,0.250000*%
%ADD14RoundRect,0.135000X-0.185000X0.135000X-0.185000X-0.135000X0.185000X-0.135000X0.185000X0.135000X0*%
%ADD15RoundRect,0.135000X0.185000X-0.135000X0.185000X0.135000X-0.185000X0.135000X-0.185000X-0.135000X0*%
%ADD16R,0.400000X0.510000*%
%ADD17R,2.600000X3.600000*%
%ADD18C,0.900000*%
%ADD19RoundRect,0.187500X-0.712500X0.187500X-0.712500X-0.187500X0.712500X-0.187500X0.712500X0.187500X0*%
%ADD20RoundRect,0.150000X-0.750000X0.150000X-0.750000X-0.150000X0.750000X-0.150000X0.750000X0.150000X0*%
%ADD21RoundRect,0.225000X-0.225000X0.425000X-0.225000X-0.425000X0.225000X-0.425000X0.225000X0.425000X0*%
%ADD22RoundRect,0.062500X0.587500X0.062500X-0.587500X0.062500X-0.587500X-0.062500X0.587500X-0.062500X0*%
%ADD23RoundRect,0.225000X-0.225000X-0.250000X0.225000X-0.250000X0.225000X0.250000X-0.225000X0.250000X0*%
%ADD24RoundRect,0.140000X0.170000X-0.140000X0.170000X0.140000X-0.170000X0.140000X-0.170000X-0.140000X0*%
%ADD25RoundRect,0.150000X0.587500X0.150000X-0.587500X0.150000X-0.587500X-0.150000X0.587500X-0.150000X0*%
%ADD26RoundRect,0.135000X0.135000X0.185000X-0.135000X0.185000X-0.135000X-0.185000X0.135000X-0.185000X0*%
%ADD27RoundRect,0.250000X0.650000X-0.325000X0.650000X0.325000X-0.650000X0.325000X-0.650000X-0.325000X0*%
%ADD28RoundRect,0.140000X-0.140000X-0.170000X0.140000X-0.170000X0.140000X0.170000X-0.140000X0.170000X0*%
G04 APERTURE END LIST*
D10*
X34500000Y-2750000D02*
X34500000Y-13500000D01*
X500000Y-13500000D01*
X500000Y-2750000D01*
X2750000Y-500000D01*
X32250000Y-500000D01*
X34500000Y-2750000D01*
X34500000Y-32250001D02*
X32250000Y-34500000D01*
X19000000Y-34500000D01*
X18750000Y-34000000D01*
X17750000Y-33500000D01*
X17236486Y-33500000D01*
X16250000Y-34000000D01*
X16000000Y-34500000D01*
X2750001Y-34500000D01*
X500000Y-32250000D01*
X500000Y-13500000D01*
X34500000Y-13500000D01*
X34500000Y-32250001D01*
D11*
X23887216Y-5695514D02*
X23708644Y-6445514D01*
X23708644Y-6445514D02*
X23565787Y-5909800D01*
X23565787Y-5909800D02*
X23422930Y-6445514D01*
X23422930Y-6445514D02*
X23244359Y-5695514D01*
X22851501Y-6445514D02*
X22922930Y-6409800D01*
X22922930Y-6409800D02*
X22958644Y-6374085D01*
X22958644Y-6374085D02*
X22994358Y-6302657D01*
X22994358Y-6302657D02*
X22994358Y-6088371D01*
X22994358Y-6088371D02*
X22958644Y-6016942D01*
X22958644Y-6016942D02*
X22922930Y-5981228D01*
X22922930Y-5981228D02*
X22851501Y-5945514D01*
X22851501Y-5945514D02*
X22744358Y-5945514D01*
X22744358Y-5945514D02*
X22672930Y-5981228D01*
X22672930Y-5981228D02*
X22637216Y-6016942D01*
X22637216Y-6016942D02*
X22601501Y-6088371D01*
X22601501Y-6088371D02*
X22601501Y-6302657D01*
X22601501Y-6302657D02*
X22637216Y-6374085D01*
X22637216Y-6374085D02*
X22672930Y-6409800D01*
X22672930Y-6409800D02*
X22744358Y-6445514D01*
X22744358Y-6445514D02*
X22851501Y-6445514D01*
X22280073Y-6445514D02*
X22280073Y-5945514D01*
X22280073Y-6088371D02*
X22244359Y-6016942D01*
X22244359Y-6016942D02*
X22208645Y-5981228D01*
X22208645Y-5981228D02*
X22137216Y-5945514D01*
X22137216Y-5945514D02*
X22065787Y-5945514D01*
X21494359Y-6445514D02*
X21494359Y-5695514D01*
X21494359Y-6409800D02*
X21565787Y-6445514D01*
X21565787Y-6445514D02*
X21708644Y-6445514D01*
X21708644Y-6445514D02*
X21780073Y-6409800D01*
X21780073Y-6409800D02*
X21815787Y-6374085D01*
X21815787Y-6374085D02*
X21851501Y-6302657D01*
X21851501Y-6302657D02*
X21851501Y-6088371D01*
X21851501Y-6088371D02*
X21815787Y-6016942D01*
X21815787Y-6016942D02*
X21780073Y-5981228D01*
X21780073Y-5981228D02*
X21708644Y-5945514D01*
X21708644Y-5945514D02*
X21565787Y-5945514D01*
X21565787Y-5945514D02*
X21494359Y-5981228D01*
X21208645Y-5695514D02*
X21030073Y-6445514D01*
X21030073Y-6445514D02*
X20887216Y-5909800D01*
X20887216Y-5909800D02*
X20744359Y-6445514D01*
X20744359Y-6445514D02*
X20565788Y-5695514D01*
X19958645Y-6445514D02*
X19958645Y-6052657D01*
X19958645Y-6052657D02*
X19994359Y-5981228D01*
X19994359Y-5981228D02*
X20065787Y-5945514D01*
X20065787Y-5945514D02*
X20208645Y-5945514D01*
X20208645Y-5945514D02*
X20280073Y-5981228D01*
X19958645Y-6409800D02*
X20030073Y-6445514D01*
X20030073Y-6445514D02*
X20208645Y-6445514D01*
X20208645Y-6445514D02*
X20280073Y-6409800D01*
X20280073Y-6409800D02*
X20315787Y-6338371D01*
X20315787Y-6338371D02*
X20315787Y-6266942D01*
X20315787Y-6266942D02*
X20280073Y-6195514D01*
X20280073Y-6195514D02*
X20208645Y-6159800D01*
X20208645Y-6159800D02*
X20030073Y-6159800D01*
X20030073Y-6159800D02*
X19958645Y-6124085D01*
X19708645Y-5945514D02*
X19422931Y-5945514D01*
X19601502Y-5695514D02*
X19601502Y-6338371D01*
X19601502Y-6338371D02*
X19565788Y-6409800D01*
X19565788Y-6409800D02*
X19494359Y-6445514D01*
X19494359Y-6445514D02*
X19422931Y-6445514D01*
X18851503Y-6409800D02*
X18922931Y-6445514D01*
X18922931Y-6445514D02*
X19065788Y-6445514D01*
X19065788Y-6445514D02*
X19137217Y-6409800D01*
X19137217Y-6409800D02*
X19172931Y-6374085D01*
X19172931Y-6374085D02*
X19208645Y-6302657D01*
X19208645Y-6302657D02*
X19208645Y-6088371D01*
X19208645Y-6088371D02*
X19172931Y-6016942D01*
X19172931Y-6016942D02*
X19137217Y-5981228D01*
X19137217Y-5981228D02*
X19065788Y-5945514D01*
X19065788Y-5945514D02*
X18922931Y-5945514D01*
X18922931Y-5945514D02*
X18851503Y-5981228D01*
X18530074Y-6445514D02*
X18530074Y-5695514D01*
X18208646Y-6445514D02*
X18208646Y-6052657D01*
X18208646Y-6052657D02*
X18244360Y-5981228D01*
X18244360Y-5981228D02*
X18315788Y-5945514D01*
X18315788Y-5945514D02*
X18422931Y-5945514D01*
X18422931Y-5945514D02*
X18494360Y-5981228D01*
X18494360Y-5981228D02*
X18530074Y-6016942D01*
X23351502Y-7653014D02*
X23708645Y-7653014D01*
X23708645Y-7653014D02*
X23708645Y-6903014D01*
X23101502Y-7260157D02*
X22851502Y-7260157D01*
X22744359Y-7653014D02*
X23101502Y-7653014D01*
X23101502Y-7653014D02*
X23101502Y-6903014D01*
X23101502Y-6903014D02*
X22744359Y-6903014D01*
X22422931Y-7653014D02*
X22422931Y-6903014D01*
X22422931Y-6903014D02*
X22244360Y-6903014D01*
X22244360Y-6903014D02*
X22137217Y-6938728D01*
X22137217Y-6938728D02*
X22065788Y-7010157D01*
X22065788Y-7010157D02*
X22030074Y-7081585D01*
X22030074Y-7081585D02*
X21994360Y-7224442D01*
X21994360Y-7224442D02*
X21994360Y-7331585D01*
X21994360Y-7331585D02*
X22030074Y-7474442D01*
X22030074Y-7474442D02*
X22065788Y-7545871D01*
X22065788Y-7545871D02*
X22137217Y-7617300D01*
X22137217Y-7617300D02*
X22244360Y-7653014D01*
X22244360Y-7653014D02*
X22422931Y-7653014D01*
X20851502Y-7260157D02*
X20744359Y-7295871D01*
X20744359Y-7295871D02*
X20708645Y-7331585D01*
X20708645Y-7331585D02*
X20672931Y-7403014D01*
X20672931Y-7403014D02*
X20672931Y-7510157D01*
X20672931Y-7510157D02*
X20708645Y-7581585D01*
X20708645Y-7581585D02*
X20744359Y-7617300D01*
X20744359Y-7617300D02*
X20815788Y-7653014D01*
X20815788Y-7653014D02*
X21101502Y-7653014D01*
X21101502Y-7653014D02*
X21101502Y-6903014D01*
X21101502Y-6903014D02*
X20851502Y-6903014D01*
X20851502Y-6903014D02*
X20780074Y-6938728D01*
X20780074Y-6938728D02*
X20744359Y-6974442D01*
X20744359Y-6974442D02*
X20708645Y-7045871D01*
X20708645Y-7045871D02*
X20708645Y-7117300D01*
X20708645Y-7117300D02*
X20744359Y-7188728D01*
X20744359Y-7188728D02*
X20780074Y-7224442D01*
X20780074Y-7224442D02*
X20851502Y-7260157D01*
X20851502Y-7260157D02*
X21101502Y-7260157D01*
X20244359Y-7653014D02*
X20315788Y-7617300D01*
X20315788Y-7617300D02*
X20351502Y-7581585D01*
X20351502Y-7581585D02*
X20387216Y-7510157D01*
X20387216Y-7510157D02*
X20387216Y-7295871D01*
X20387216Y-7295871D02*
X20351502Y-7224442D01*
X20351502Y-7224442D02*
X20315788Y-7188728D01*
X20315788Y-7188728D02*
X20244359Y-7153014D01*
X20244359Y-7153014D02*
X20137216Y-7153014D01*
X20137216Y-7153014D02*
X20065788Y-7188728D01*
X20065788Y-7188728D02*
X20030074Y-7224442D01*
X20030074Y-7224442D02*
X19994359Y-7295871D01*
X19994359Y-7295871D02*
X19994359Y-7510157D01*
X19994359Y-7510157D02*
X20030074Y-7581585D01*
X20030074Y-7581585D02*
X20065788Y-7617300D01*
X20065788Y-7617300D02*
X20137216Y-7653014D01*
X20137216Y-7653014D02*
X20244359Y-7653014D01*
X19351503Y-7653014D02*
X19351503Y-7260157D01*
X19351503Y-7260157D02*
X19387217Y-7188728D01*
X19387217Y-7188728D02*
X19458645Y-7153014D01*
X19458645Y-7153014D02*
X19601503Y-7153014D01*
X19601503Y-7153014D02*
X19672931Y-7188728D01*
X19351503Y-7617300D02*
X19422931Y-7653014D01*
X19422931Y-7653014D02*
X19601503Y-7653014D01*
X19601503Y-7653014D02*
X19672931Y-7617300D01*
X19672931Y-7617300D02*
X19708645Y-7545871D01*
X19708645Y-7545871D02*
X19708645Y-7474442D01*
X19708645Y-7474442D02*
X19672931Y-7403014D01*
X19672931Y-7403014D02*
X19601503Y-7367300D01*
X19601503Y-7367300D02*
X19422931Y-7367300D01*
X19422931Y-7367300D02*
X19351503Y-7331585D01*
X18994360Y-7653014D02*
X18994360Y-7153014D01*
X18994360Y-7295871D02*
X18958646Y-7224442D01*
X18958646Y-7224442D02*
X18922932Y-7188728D01*
X18922932Y-7188728D02*
X18851503Y-7153014D01*
X18851503Y-7153014D02*
X18780074Y-7153014D01*
X18208646Y-7653014D02*
X18208646Y-6903014D01*
X18208646Y-7617300D02*
X18280074Y-7653014D01*
X18280074Y-7653014D02*
X18422931Y-7653014D01*
X18422931Y-7653014D02*
X18494360Y-7617300D01*
X18494360Y-7617300D02*
X18530074Y-7581585D01*
X18530074Y-7581585D02*
X18565788Y-7510157D01*
X18565788Y-7510157D02*
X18565788Y-7295871D01*
X18565788Y-7295871D02*
X18530074Y-7224442D01*
X18530074Y-7224442D02*
X18494360Y-7188728D01*
X18494360Y-7188728D02*
X18422931Y-7153014D01*
X18422931Y-7153014D02*
X18280074Y-7153014D01*
X18280074Y-7153014D02*
X18208646Y-7188728D01*
X17041354Y-5945514D02*
X16862782Y-6445514D01*
X16862782Y-6445514D02*
X16684211Y-5945514D01*
X16005639Y-6445514D02*
X16434210Y-6445514D01*
X16219925Y-6445514D02*
X16219925Y-5695514D01*
X16219925Y-5695514D02*
X16291353Y-5802657D01*
X16291353Y-5802657D02*
X16362782Y-5874085D01*
X16362782Y-5874085D02*
X16434210Y-5909800D01*
X15684210Y-6374085D02*
X15648496Y-6409800D01*
X15648496Y-6409800D02*
X15684210Y-6445514D01*
X15684210Y-6445514D02*
X15719924Y-6409800D01*
X15719924Y-6409800D02*
X15684210Y-6374085D01*
X15684210Y-6374085D02*
X15684210Y-6445514D01*
X15184210Y-5695514D02*
X15112781Y-5695514D01*
X15112781Y-5695514D02*
X15041353Y-5731228D01*
X15041353Y-5731228D02*
X15005639Y-5766942D01*
X15005639Y-5766942D02*
X14969924Y-5838371D01*
X14969924Y-5838371D02*
X14934210Y-5981228D01*
X14934210Y-5981228D02*
X14934210Y-6159800D01*
X14934210Y-6159800D02*
X14969924Y-6302657D01*
X14969924Y-6302657D02*
X15005639Y-6374085D01*
X15005639Y-6374085D02*
X15041353Y-6409800D01*
X15041353Y-6409800D02*
X15112781Y-6445514D01*
X15112781Y-6445514D02*
X15184210Y-6445514D01*
X15184210Y-6445514D02*
X15255639Y-6409800D01*
X15255639Y-6409800D02*
X15291353Y-6374085D01*
X15291353Y-6374085D02*
X15327067Y-6302657D01*
X15327067Y-6302657D02*
X15362781Y-6159800D01*
X15362781Y-6159800D02*
X15362781Y-5981228D01*
X15362781Y-5981228D02*
X15327067Y-5838371D01*
X15327067Y-5838371D02*
X15291353Y-5766942D01*
X15291353Y-5766942D02*
X15255639Y-5731228D01*
X15255639Y-5731228D02*
X15184210Y-5695514D01*
X14041352Y-6445514D02*
X14041352Y-5695514D01*
X14041352Y-5695514D02*
X13612781Y-6445514D01*
X13612781Y-6445514D02*
X13612781Y-5695514D01*
X13148495Y-6445514D02*
X13219924Y-6409800D01*
X13219924Y-6409800D02*
X13255638Y-6374085D01*
X13255638Y-6374085D02*
X13291352Y-6302657D01*
X13291352Y-6302657D02*
X13291352Y-6088371D01*
X13291352Y-6088371D02*
X13255638Y-6016942D01*
X13255638Y-6016942D02*
X13219924Y-5981228D01*
X13219924Y-5981228D02*
X13148495Y-5945514D01*
X13148495Y-5945514D02*
X13041352Y-5945514D01*
X13041352Y-5945514D02*
X12969924Y-5981228D01*
X12969924Y-5981228D02*
X12934210Y-6016942D01*
X12934210Y-6016942D02*
X12898495Y-6088371D01*
X12898495Y-6088371D02*
X12898495Y-6302657D01*
X12898495Y-6302657D02*
X12934210Y-6374085D01*
X12934210Y-6374085D02*
X12969924Y-6409800D01*
X12969924Y-6409800D02*
X13041352Y-6445514D01*
X13041352Y-6445514D02*
X13148495Y-6445514D01*
X12648496Y-5945514D02*
X12469924Y-6445514D01*
X12469924Y-6445514D02*
X12291353Y-5945514D01*
X12005638Y-6159800D02*
X11434210Y-6159800D01*
X11112781Y-5766942D02*
X11077067Y-5731228D01*
X11077067Y-5731228D02*
X11005639Y-5695514D01*
X11005639Y-5695514D02*
X10827067Y-5695514D01*
X10827067Y-5695514D02*
X10755639Y-5731228D01*
X10755639Y-5731228D02*
X10719924Y-5766942D01*
X10719924Y-5766942D02*
X10684210Y-5838371D01*
X10684210Y-5838371D02*
X10684210Y-5909800D01*
X10684210Y-5909800D02*
X10719924Y-6016942D01*
X10719924Y-6016942D02*
X11148496Y-6445514D01*
X11148496Y-6445514D02*
X10684210Y-6445514D01*
X10434210Y-5695514D02*
X9969924Y-5695514D01*
X9969924Y-5695514D02*
X10219924Y-5981228D01*
X10219924Y-5981228D02*
X10112781Y-5981228D01*
X10112781Y-5981228D02*
X10041353Y-6016942D01*
X10041353Y-6016942D02*
X10005638Y-6052657D01*
X10005638Y-6052657D02*
X9969924Y-6124085D01*
X9969924Y-6124085D02*
X9969924Y-6302657D01*
X9969924Y-6302657D02*
X10005638Y-6374085D01*
X10005638Y-6374085D02*
X10041353Y-6409800D01*
X10041353Y-6409800D02*
X10112781Y-6445514D01*
X10112781Y-6445514D02*
X10327067Y-6445514D01*
X10327067Y-6445514D02*
X10398495Y-6409800D01*
X10398495Y-6409800D02*
X10434210Y-6374085D01*
X16755639Y-7938728D02*
X16791354Y-7903014D01*
X16791354Y-7903014D02*
X16862782Y-7795871D01*
X16862782Y-7795871D02*
X16898497Y-7724442D01*
X16898497Y-7724442D02*
X16934211Y-7617300D01*
X16934211Y-7617300D02*
X16969925Y-7438728D01*
X16969925Y-7438728D02*
X16969925Y-7295871D01*
X16969925Y-7295871D02*
X16934211Y-7117300D01*
X16934211Y-7117300D02*
X16898497Y-7010157D01*
X16898497Y-7010157D02*
X16862782Y-6938728D01*
X16862782Y-6938728D02*
X16791354Y-6831585D01*
X16791354Y-6831585D02*
X16755639Y-6795871D01*
X16148497Y-7617300D02*
X16219925Y-7653014D01*
X16219925Y-7653014D02*
X16362782Y-7653014D01*
X16362782Y-7653014D02*
X16434211Y-7617300D01*
X16434211Y-7617300D02*
X16469925Y-7581585D01*
X16469925Y-7581585D02*
X16505639Y-7510157D01*
X16505639Y-7510157D02*
X16505639Y-7295871D01*
X16505639Y-7295871D02*
X16469925Y-7224442D01*
X16469925Y-7224442D02*
X16434211Y-7188728D01*
X16434211Y-7188728D02*
X16362782Y-7153014D01*
X16362782Y-7153014D02*
X16219925Y-7153014D01*
X16219925Y-7153014D02*
X16148497Y-7188728D01*
X15898497Y-7938728D02*
X15862782Y-7903014D01*
X15862782Y-7903014D02*
X15791354Y-7795871D01*
X15791354Y-7795871D02*
X15755640Y-7724442D01*
X15755640Y-7724442D02*
X15719925Y-7617300D01*
X15719925Y-7617300D02*
X15684211Y-7438728D01*
X15684211Y-7438728D02*
X15684211Y-7295871D01*
X15684211Y-7295871D02*
X15719925Y-7117300D01*
X15719925Y-7117300D02*
X15755640Y-7010157D01*
X15755640Y-7010157D02*
X15791354Y-6938728D01*
X15791354Y-6938728D02*
X15862782Y-6831585D01*
X15862782Y-6831585D02*
X15898497Y-6795871D01*
X14469925Y-7617300D02*
X14541353Y-7653014D01*
X14541353Y-7653014D02*
X14684211Y-7653014D01*
X14684211Y-7653014D02*
X14755639Y-7617300D01*
X14755639Y-7617300D02*
X14791353Y-7545871D01*
X14791353Y-7545871D02*
X14791353Y-7260157D01*
X14791353Y-7260157D02*
X14755639Y-7188728D01*
X14755639Y-7188728D02*
X14684211Y-7153014D01*
X14684211Y-7153014D02*
X14541353Y-7153014D01*
X14541353Y-7153014D02*
X14469925Y-7188728D01*
X14469925Y-7188728D02*
X14434211Y-7260157D01*
X14434211Y-7260157D02*
X14434211Y-7331585D01*
X14434211Y-7331585D02*
X14791353Y-7403014D01*
X13791354Y-7153014D02*
X13791354Y-7760157D01*
X13791354Y-7760157D02*
X13827068Y-7831585D01*
X13827068Y-7831585D02*
X13862782Y-7867300D01*
X13862782Y-7867300D02*
X13934211Y-7903014D01*
X13934211Y-7903014D02*
X14041354Y-7903014D01*
X14041354Y-7903014D02*
X14112782Y-7867300D01*
X13791354Y-7617300D02*
X13862782Y-7653014D01*
X13862782Y-7653014D02*
X14005639Y-7653014D01*
X14005639Y-7653014D02*
X14077068Y-7617300D01*
X14077068Y-7617300D02*
X14112782Y-7581585D01*
X14112782Y-7581585D02*
X14148496Y-7510157D01*
X14148496Y-7510157D02*
X14148496Y-7295871D01*
X14148496Y-7295871D02*
X14112782Y-7224442D01*
X14112782Y-7224442D02*
X14077068Y-7188728D01*
X14077068Y-7188728D02*
X14005639Y-7153014D01*
X14005639Y-7153014D02*
X13862782Y-7153014D01*
X13862782Y-7153014D02*
X13791354Y-7188728D01*
X13112783Y-7153014D02*
X13112783Y-7760157D01*
X13112783Y-7760157D02*
X13148497Y-7831585D01*
X13148497Y-7831585D02*
X13184211Y-7867300D01*
X13184211Y-7867300D02*
X13255640Y-7903014D01*
X13255640Y-7903014D02*
X13362783Y-7903014D01*
X13362783Y-7903014D02*
X13434211Y-7867300D01*
X13112783Y-7617300D02*
X13184211Y-7653014D01*
X13184211Y-7653014D02*
X13327068Y-7653014D01*
X13327068Y-7653014D02*
X13398497Y-7617300D01*
X13398497Y-7617300D02*
X13434211Y-7581585D01*
X13434211Y-7581585D02*
X13469925Y-7510157D01*
X13469925Y-7510157D02*
X13469925Y-7295871D01*
X13469925Y-7295871D02*
X13434211Y-7224442D01*
X13434211Y-7224442D02*
X13398497Y-7188728D01*
X13398497Y-7188728D02*
X13327068Y-7153014D01*
X13327068Y-7153014D02*
X13184211Y-7153014D01*
X13184211Y-7153014D02*
X13112783Y-7188728D01*
X12791354Y-7617300D02*
X12719926Y-7653014D01*
X12719926Y-7653014D02*
X12577069Y-7653014D01*
X12577069Y-7653014D02*
X12505640Y-7617300D01*
X12505640Y-7617300D02*
X12469926Y-7545871D01*
X12469926Y-7545871D02*
X12469926Y-7510157D01*
X12469926Y-7510157D02*
X12505640Y-7438728D01*
X12505640Y-7438728D02*
X12577069Y-7403014D01*
X12577069Y-7403014D02*
X12684212Y-7403014D01*
X12684212Y-7403014D02*
X12755640Y-7367300D01*
X12755640Y-7367300D02*
X12791354Y-7295871D01*
X12791354Y-7295871D02*
X12791354Y-7260157D01*
X12791354Y-7260157D02*
X12755640Y-7188728D01*
X12755640Y-7188728D02*
X12684212Y-7153014D01*
X12684212Y-7153014D02*
X12577069Y-7153014D01*
X12577069Y-7153014D02*
X12505640Y-7188728D01*
X11827069Y-7653014D02*
X11827069Y-7260157D01*
X11827069Y-7260157D02*
X11862783Y-7188728D01*
X11862783Y-7188728D02*
X11934211Y-7153014D01*
X11934211Y-7153014D02*
X12077069Y-7153014D01*
X12077069Y-7153014D02*
X12148497Y-7188728D01*
X11827069Y-7617300D02*
X11898497Y-7653014D01*
X11898497Y-7653014D02*
X12077069Y-7653014D01*
X12077069Y-7653014D02*
X12148497Y-7617300D01*
X12148497Y-7617300D02*
X12184211Y-7545871D01*
X12184211Y-7545871D02*
X12184211Y-7474442D01*
X12184211Y-7474442D02*
X12148497Y-7403014D01*
X12148497Y-7403014D02*
X12077069Y-7367300D01*
X12077069Y-7367300D02*
X11898497Y-7367300D01*
X11898497Y-7367300D02*
X11827069Y-7331585D01*
X11469926Y-7653014D02*
X11469926Y-7153014D01*
X11469926Y-7224442D02*
X11434212Y-7188728D01*
X11434212Y-7188728D02*
X11362783Y-7153014D01*
X11362783Y-7153014D02*
X11255640Y-7153014D01*
X11255640Y-7153014D02*
X11184212Y-7188728D01*
X11184212Y-7188728D02*
X11148498Y-7260157D01*
X11148498Y-7260157D02*
X11148498Y-7653014D01*
X11148498Y-7260157D02*
X11112783Y-7188728D01*
X11112783Y-7188728D02*
X11041355Y-7153014D01*
X11041355Y-7153014D02*
X10934212Y-7153014D01*
X10934212Y-7153014D02*
X10862783Y-7188728D01*
X10862783Y-7188728D02*
X10827069Y-7260157D01*
X10827069Y-7260157D02*
X10827069Y-7653014D01*
X10469926Y-7153014D02*
X10469926Y-7903014D01*
X10469926Y-7188728D02*
X10398498Y-7153014D01*
X10398498Y-7153014D02*
X10255640Y-7153014D01*
X10255640Y-7153014D02*
X10184212Y-7188728D01*
X10184212Y-7188728D02*
X10148498Y-7224442D01*
X10148498Y-7224442D02*
X10112783Y-7295871D01*
X10112783Y-7295871D02*
X10112783Y-7510157D01*
X10112783Y-7510157D02*
X10148498Y-7581585D01*
X10148498Y-7581585D02*
X10184212Y-7617300D01*
X10184212Y-7617300D02*
X10255640Y-7653014D01*
X10255640Y-7653014D02*
X10398498Y-7653014D01*
X10398498Y-7653014D02*
X10469926Y-7617300D01*
X9684212Y-7653014D02*
X9755641Y-7617300D01*
X9755641Y-7617300D02*
X9791355Y-7545871D01*
X9791355Y-7545871D02*
X9791355Y-6903014D01*
X9112784Y-7617300D02*
X9184212Y-7653014D01*
X9184212Y-7653014D02*
X9327070Y-7653014D01*
X9327070Y-7653014D02*
X9398498Y-7617300D01*
X9398498Y-7617300D02*
X9434212Y-7545871D01*
X9434212Y-7545871D02*
X9434212Y-7260157D01*
X9434212Y-7260157D02*
X9398498Y-7188728D01*
X9398498Y-7188728D02*
X9327070Y-7153014D01*
X9327070Y-7153014D02*
X9184212Y-7153014D01*
X9184212Y-7153014D02*
X9112784Y-7188728D01*
X9112784Y-7188728D02*
X9077070Y-7260157D01*
X9077070Y-7260157D02*
X9077070Y-7331585D01*
X9077070Y-7331585D02*
X9434212Y-7403014D01*
X8755641Y-7653014D02*
X8755641Y-7153014D01*
X8755641Y-7295871D02*
X8719927Y-7224442D01*
X8719927Y-7224442D02*
X8684213Y-7188728D01*
X8684213Y-7188728D02*
X8612784Y-7153014D01*
X8612784Y-7153014D02*
X8541355Y-7153014D01*
D12*
%TO.C,R15*%
X14880000Y-4096359D02*
X14880000Y-4403641D01*
X14120000Y-4096359D02*
X14120000Y-4403641D01*
%TO.C,R23*%
X21620000Y-9903641D02*
X21620000Y-9596359D01*
X22380000Y-9903641D02*
X22380000Y-9596359D01*
%TO.C,Q2*%
X11600000Y-1000000D02*
X11600000Y-2650000D01*
X13400000Y-2650000D02*
X13400000Y-1350000D01*
%TO.C,R26*%
X19120000Y-9903641D02*
X19120000Y-9596359D01*
X19880000Y-9903641D02*
X19880000Y-9596359D01*
%TO.C,Q8*%
X20900000Y-13000000D02*
X20900000Y-11350000D01*
X19100000Y-11350000D02*
X19100000Y-12650000D01*
%TO.C,Q10*%
X15900000Y-13000000D02*
X15900000Y-11350000D01*
X14100000Y-11350000D02*
X14100000Y-12650000D01*
%TO.C,BT1*%
X2950000Y-20650000D02*
X2950000Y-22200000D01*
X2950000Y-28350000D02*
X2950000Y-26800000D01*
X4500000Y-19500000D02*
X4500000Y-17500000D01*
X5500000Y-18500000D02*
X3500000Y-18500000D01*
X6150000Y-17950000D02*
X6150000Y-20650000D01*
X6150000Y-20650000D02*
X2950000Y-20650000D01*
X6150000Y-28350000D02*
X2950000Y-28350000D01*
X6150000Y-32850000D02*
X6150000Y-28350000D01*
X6150000Y-32850000D02*
X28850000Y-32850000D01*
X7950000Y-16150000D02*
X6150000Y-17950000D01*
X28850000Y-16150000D02*
X7950000Y-16150000D01*
X28850000Y-16150000D02*
X28850000Y-20650000D01*
X28850000Y-20650000D02*
X32050000Y-20650000D01*
X28850000Y-28350000D02*
X32050000Y-28350000D01*
X28850000Y-32850000D02*
X28850000Y-28350000D01*
X32050000Y-20650000D02*
X32050000Y-22200000D01*
X32050000Y-28350000D02*
X32050000Y-26800000D01*
%TO.C,SW1*%
X31250000Y-15100000D02*
X32250000Y-15100000D01*
X31250000Y-15700000D02*
X31250000Y-15100000D01*
X34050000Y-16500000D02*
X34050000Y-18500000D01*
X31250000Y-19300000D02*
X31250000Y-19900000D01*
X31250000Y-19900000D02*
X32250000Y-19900000D01*
%TO.C,R27*%
X16620000Y-9903641D02*
X16620000Y-9596359D01*
X17380000Y-9903641D02*
X17380000Y-9596359D01*
%TO.C,R14*%
X13380000Y-4096359D02*
X13380000Y-4403641D01*
X12620000Y-4096359D02*
X12620000Y-4403641D01*
%TO.C,R19*%
X19880000Y-4096359D02*
X19880000Y-4403641D01*
X19120000Y-4096359D02*
X19120000Y-4403641D01*
%TO.C,Q6*%
X21600000Y-1000000D02*
X21600000Y-2650000D01*
X23400000Y-2650000D02*
X23400000Y-1350000D01*
%TO.C,Q3*%
X14100000Y-1000000D02*
X14100000Y-2650000D01*
X15900000Y-2650000D02*
X15900000Y-1350000D01*
%TO.C,R21*%
X22380000Y-4096359D02*
X22380000Y-4403641D01*
X21620000Y-4096359D02*
X21620000Y-4403641D01*
%TO.C,R32*%
X12620000Y-9903641D02*
X12620000Y-9596359D01*
X13380000Y-9903641D02*
X13380000Y-9596359D01*
%TO.C,R28*%
X17620000Y-9903641D02*
X17620000Y-9596359D01*
X18380000Y-9903641D02*
X18380000Y-9596359D01*
%TO.C,R22*%
X23380000Y-4096359D02*
X23380000Y-4403641D01*
X22620000Y-4096359D02*
X22620000Y-4403641D01*
D11*
%TO.C,J2*%
X32900000Y-11550000D02*
X32900000Y-10150000D01*
X32900000Y-2450000D02*
X32900000Y-3850000D01*
X32900000Y-2450000D02*
X28100000Y-2450000D01*
X28100000Y-11550000D02*
X32900000Y-11550000D01*
X28100000Y-11550000D02*
X28100000Y-10150000D01*
X28100000Y-2450000D02*
X28100000Y-3850000D01*
D13*
X33625000Y-3500000D02*
G75*
G03*
X33625000Y-3500000I-125000J0D01*
G01*
D12*
%TO.C,C3*%
X4359420Y-32990000D02*
X4640580Y-32990000D01*
X4359420Y-34010000D02*
X4640580Y-34010000D01*
%TO.C,Q11*%
X13400000Y-13000000D02*
X13400000Y-11350000D01*
X11600000Y-11350000D02*
X11600000Y-12650000D01*
%TO.C,R18*%
X18380000Y-4096359D02*
X18380000Y-4403641D01*
X17620000Y-4096359D02*
X17620000Y-4403641D01*
%TO.C,R20*%
X20880000Y-4096359D02*
X20880000Y-4403641D01*
X20120000Y-4096359D02*
X20120000Y-4403641D01*
%TO.C,R13*%
X12380000Y-4096359D02*
X12380000Y-4403641D01*
X11620000Y-4096359D02*
X11620000Y-4403641D01*
%TO.C,Q4*%
X16600000Y-1000000D02*
X16600000Y-2650000D01*
X18400000Y-2650000D02*
X18400000Y-1350000D01*
%TO.C,C2*%
X3140000Y-19607836D02*
X3140000Y-19392164D01*
X3860000Y-19607836D02*
X3860000Y-19392164D01*
%TO.C,R25*%
X20120000Y-9903641D02*
X20120000Y-9596359D01*
X20880000Y-9903641D02*
X20880000Y-9596359D01*
%TO.C,R24*%
X22620000Y-9903641D02*
X22620000Y-9596359D01*
X23380000Y-9903641D02*
X23380000Y-9596359D01*
%TO.C,Q1*%
X4000000Y-31810000D02*
X4650000Y-31810000D01*
X4000000Y-31810000D02*
X3350000Y-31810000D01*
X4000000Y-28690000D02*
X5675000Y-28690000D01*
X4000000Y-28690000D02*
X3350000Y-28690000D01*
D11*
%TO.C,J1*%
X6900000Y-11550000D02*
X6900000Y-10150000D01*
X6900000Y-2450000D02*
X6900000Y-3850000D01*
X6900000Y-2450000D02*
X2100000Y-2450000D01*
X2100000Y-11550000D02*
X6900000Y-11550000D01*
X2100000Y-11550000D02*
X2100000Y-10150000D01*
X2100000Y-2450000D02*
X2100000Y-3850000D01*
D13*
X7625000Y-3500000D02*
G75*
G03*
X7625000Y-3500000I-125000J0D01*
G01*
D12*
%TO.C,R30*%
X15120000Y-9903641D02*
X15120000Y-9596359D01*
X15880000Y-9903641D02*
X15880000Y-9596359D01*
%TO.C,R17*%
X17380000Y-4096359D02*
X17380000Y-4403641D01*
X16620000Y-4096359D02*
X16620000Y-4403641D01*
%TO.C,Q7*%
X23400000Y-13000000D02*
X23400000Y-11350000D01*
X21600000Y-11350000D02*
X21600000Y-12650000D01*
%TO.C,R7*%
X31903641Y-13280000D02*
X31596359Y-13280000D01*
X31903641Y-12520000D02*
X31596359Y-12520000D01*
%TO.C,Q9*%
X18400000Y-13000000D02*
X18400000Y-11350000D01*
X16600000Y-11350000D02*
X16600000Y-12650000D01*
%TO.C,R31*%
X11620000Y-9903641D02*
X11620000Y-9596359D01*
X12380000Y-9903641D02*
X12380000Y-9596359D01*
%TO.C,C1*%
X740000Y-20211252D02*
X740000Y-18788748D01*
X2560000Y-20211252D02*
X2560000Y-18788748D01*
%TO.C,R16*%
X15880000Y-4096359D02*
X15880000Y-4403641D01*
X15120000Y-4096359D02*
X15120000Y-4403641D01*
%TO.C,R29*%
X14120000Y-9903641D02*
X14120000Y-9596359D01*
X14880000Y-9903641D02*
X14880000Y-9596359D01*
%TO.C,C4*%
X31642164Y-13740000D02*
X31857836Y-13740000D01*
X31642164Y-14460000D02*
X31857836Y-14460000D01*
%TO.C,Q5*%
X19100000Y-1000000D02*
X19100000Y-2650000D01*
X20900000Y-2650000D02*
X20900000Y-1350000D01*
%TD*%
%LPC*%
D14*
%TO.C,R15*%
X14500000Y-3740000D03*
X14500000Y-4760000D03*
%TD*%
D15*
%TO.C,R23*%
X22000000Y-10260000D03*
X22000000Y-9240000D03*
%TD*%
D16*
%TO.C,Q2*%
X12000000Y-1355000D03*
X13000000Y-1355000D03*
X12500000Y-2645000D03*
%TD*%
D15*
%TO.C,R26*%
X19500000Y-10260000D03*
X19500000Y-9240000D03*
%TD*%
D16*
%TO.C,Q8*%
X20500000Y-12645000D03*
X19500000Y-12645000D03*
X20000000Y-11355000D03*
%TD*%
%TO.C,Q10*%
X15500000Y-12645000D03*
X14500000Y-12645000D03*
X15000000Y-11355000D03*
%TD*%
D17*
%TO.C,BT1*%
X2850000Y-24500000D03*
X32150000Y-24500000D03*
%TD*%
D18*
%TO.C,SW1*%
X32750000Y-15375000D03*
X32750000Y-19625000D03*
D19*
X31850000Y-16275000D03*
X31850000Y-18725000D03*
D20*
X31850000Y-17500000D03*
D21*
X33800000Y-15650000D03*
X33800000Y-19350000D03*
%TD*%
D15*
%TO.C,R27*%
X17000000Y-10260000D03*
X17000000Y-9240000D03*
%TD*%
D14*
%TO.C,R14*%
X13000000Y-3740000D03*
X13000000Y-4760000D03*
%TD*%
%TO.C,R19*%
X19500000Y-3740000D03*
X19500000Y-4760000D03*
%TD*%
D16*
%TO.C,Q6*%
X22000000Y-1355000D03*
X23000000Y-1355000D03*
X22500000Y-2645000D03*
%TD*%
%TO.C,Q3*%
X14500000Y-1355000D03*
X15500000Y-1355000D03*
X15000000Y-2645000D03*
%TD*%
D14*
%TO.C,R21*%
X22000000Y-3740000D03*
X22000000Y-4760000D03*
%TD*%
D15*
%TO.C,R32*%
X13000000Y-10260000D03*
X13000000Y-9240000D03*
%TD*%
%TO.C,R28*%
X18000000Y-10260000D03*
X18000000Y-9240000D03*
%TD*%
D14*
%TO.C,R22*%
X23000000Y-3740000D03*
X23000000Y-4760000D03*
%TD*%
D22*
%TO.C,J2*%
X33250000Y-4250000D03*
X27750000Y-4250000D03*
X33250000Y-4750000D03*
X27750000Y-4750000D03*
X33250000Y-5250000D03*
X27750000Y-5250000D03*
X33250000Y-5750000D03*
X27750000Y-5750000D03*
X33250000Y-6250000D03*
X27750000Y-6250000D03*
X33250000Y-6750000D03*
X27750000Y-6750000D03*
X33250000Y-7250000D03*
X27750000Y-7250000D03*
X33250000Y-7750000D03*
X27750000Y-7750000D03*
X33250000Y-8250000D03*
X27750000Y-8250000D03*
X33250000Y-8750000D03*
X27750000Y-8750000D03*
X33250000Y-9250000D03*
X27750000Y-9250000D03*
X33250000Y-9750000D03*
X27750000Y-9750000D03*
%TD*%
D23*
%TO.C,C3*%
X3725000Y-33500000D03*
X5275000Y-33500000D03*
%TD*%
D16*
%TO.C,Q11*%
X13000000Y-12645000D03*
X12000000Y-12645000D03*
X12500000Y-11355000D03*
%TD*%
D14*
%TO.C,R18*%
X18000000Y-3740000D03*
X18000000Y-4760000D03*
%TD*%
%TO.C,R20*%
X20500000Y-3740000D03*
X20500000Y-4760000D03*
%TD*%
%TO.C,R13*%
X12000000Y-3740000D03*
X12000000Y-4760000D03*
%TD*%
D16*
%TO.C,Q4*%
X17000000Y-1355000D03*
X18000000Y-1355000D03*
X17500000Y-2645000D03*
%TD*%
D24*
%TO.C,C2*%
X3500000Y-19980000D03*
X3500000Y-19020000D03*
%TD*%
D15*
%TO.C,R25*%
X20500000Y-10260000D03*
X20500000Y-9240000D03*
%TD*%
%TO.C,R24*%
X23000000Y-10260000D03*
X23000000Y-9240000D03*
%TD*%
D25*
%TO.C,Q1*%
X4937500Y-29300000D03*
X4937500Y-31200000D03*
X3062500Y-30250000D03*
%TD*%
D22*
%TO.C,J1*%
X7250000Y-4250000D03*
X1750000Y-4250000D03*
X7250000Y-4750000D03*
X1750000Y-4750000D03*
X7250000Y-5250000D03*
X1750000Y-5250000D03*
X7250000Y-5750000D03*
X1750000Y-5750000D03*
X7250000Y-6250000D03*
X1750000Y-6250000D03*
X7250000Y-6750000D03*
X1750000Y-6750000D03*
X7250000Y-7250000D03*
X1750000Y-7250000D03*
X7250000Y-7750000D03*
X1750000Y-7750000D03*
X7250000Y-8250000D03*
X1750000Y-8250000D03*
X7250000Y-8750000D03*
X1750000Y-8750000D03*
X7250000Y-9250000D03*
X1750000Y-9250000D03*
X7250000Y-9750000D03*
X1750000Y-9750000D03*
%TD*%
D15*
%TO.C,R30*%
X15500000Y-10260000D03*
X15500000Y-9240000D03*
%TD*%
D14*
%TO.C,R17*%
X17000000Y-3740000D03*
X17000000Y-4760000D03*
%TD*%
D16*
%TO.C,Q7*%
X23000000Y-12645000D03*
X22000000Y-12645000D03*
X22500000Y-11355000D03*
%TD*%
D26*
%TO.C,R7*%
X32260000Y-12900000D03*
X31240000Y-12900000D03*
%TD*%
D16*
%TO.C,Q9*%
X18000000Y-12645000D03*
X17000000Y-12645000D03*
X17500000Y-11355000D03*
%TD*%
D15*
%TO.C,R31*%
X12000000Y-10260000D03*
X12000000Y-9240000D03*
%TD*%
D27*
%TO.C,C1*%
X1650000Y-20975000D03*
X1650000Y-18025000D03*
%TD*%
D14*
%TO.C,R16*%
X15500000Y-3740000D03*
X15500000Y-4760000D03*
%TD*%
D15*
%TO.C,R29*%
X14500000Y-10260000D03*
X14500000Y-9240000D03*
%TD*%
D28*
%TO.C,C4*%
X31270000Y-14100000D03*
X32230000Y-14100000D03*
%TD*%
D16*
%TO.C,Q5*%
X19500000Y-1355000D03*
X20500000Y-1355000D03*
X20000000Y-2645000D03*
%TD*%
%LPD*%
M02*
