M48
; DRILL file {KiCad 7.0.8} date Sat Nov 11 12:09:49 2023
; FORMAT={-:-/ absolute / inch / decimal}
; #@! TF.CreationDate,2023-11-11T12:09:49+10:00
; #@! TF.GenerationSoftware,Kicad,Pcbnew,7.0.8
; #@! TF.FileFunction,Plated,1,4,PTH
FMAT,2
INCH
; #@! TA.AperFunction,Plated,PTH,ViaDrill
T1C0.0118
%
G90
G05
T1
X0.0394Y-0.6594
X0.0591Y-1.2402
X0.0886Y-0.6594
X0.1181Y-0.1673
X0.1181Y-0.2067
X0.1181Y-0.2461
X0.1181Y-0.2854
X0.1181Y-0.3248
X0.1181Y-0.3642
X0.1378Y-0.2264
X0.1378Y-0.2657
X0.1378Y-0.3051
X0.1378Y-0.3445
X0.1378Y-0.3839
X0.1378Y-0.7087
X0.1772Y-0.1476
X0.1772Y-1.1811
X0.1772Y-1.2598
X0.187Y-0.0591
X0.2067Y-1.0827
X0.2165Y-1.1811
X0.2165Y-1.2598
X0.2362Y-0.5512
X0.2362Y-0.6004
X0.2362Y-0.6988
X0.2362Y-0.7972
X0.2362Y-0.8957
X0.2362Y-0.9941
X0.2362Y-1.0925
X0.2461Y-0.1083
X0.2461Y-0.315
X0.2461Y-0.4331
X0.2461Y-1.1516
X0.2461Y-1.2303
X0.2559Y-0.4035
X0.2559Y-1.3287
X0.2953Y-1.2697
X0.3346Y-0.128
X0.3346Y-0.5512
X0.3346Y-0.6004
X0.3346Y-0.6988
X0.3346Y-0.7972
X0.3346Y-0.8957
X0.3346Y-0.9941
X0.3346Y-1.0925
X0.3445Y-0.2756
X0.3445Y-0.4331
X0.3543Y-0.4035
X0.3937Y-0.1476
X0.4134Y-0.2756
X0.4331Y-0.0886
X0.4331Y-0.5512
X0.4331Y-0.6004
X0.4331Y-0.6988
X0.4331Y-0.7972
X0.4331Y-0.8957
X0.4331Y-0.9941
X0.4331Y-1.0925
X0.4429Y-0.1673
X0.4429Y-0.4035
X0.4429Y-0.4331
X0.4528Y-0.0394
X0.4617Y-0.5217
X0.5118Y-0.2756
X0.5217Y-0.4724
X0.5315Y-0.0394
X0.5315Y-0.5512
X0.5315Y-0.6004
X0.5315Y-0.6988
X0.5315Y-0.7972
X0.5315Y-0.8957
X0.5315Y-0.9941
X0.5315Y-1.0925
X0.5413Y-0.187
X0.5413Y-0.4035
X0.5413Y-0.4331
X0.5601Y-0.5217
X0.561Y-0.1083
X0.5893Y-0.039
X0.6102Y-0.2756
X0.6201Y-0.0787
X0.6299Y-0.4724
X0.6299Y-0.5512
X0.6299Y-0.6004
X0.6299Y-0.6988
X0.6299Y-0.7972
X0.6299Y-0.8957
X0.6299Y-0.9941
X0.6299Y-1.0925
X0.6398Y-0.1673
X0.6398Y-0.4035
X0.6398Y-0.4331
X0.6496Y-0.2165
X0.6586Y-0.5217
X0.6877Y-0.039
X0.7087Y-0.2756
X0.7283Y-0.0394
X0.7283Y-0.4724
X0.7283Y-0.5512
X0.7283Y-0.6004
X0.7283Y-0.6988
X0.7283Y-0.7972
X0.7283Y-0.8957
X0.7283Y-0.9941
X0.7283Y-1.0925
X0.7382Y-0.1673
X0.7382Y-0.4035
X0.7382Y-0.4331
X0.748Y-0.2362
X0.757Y-0.5217
X0.7862Y-0.039
X0.8071Y-0.2756
X0.8268Y-0.0396
X0.8268Y-0.4724
X0.8268Y-0.5512
X0.8268Y-0.6004
X0.8268Y-0.6988
X0.8268Y-0.7972
X0.8268Y-0.8957
X0.8268Y-0.9941
X0.8268Y-1.0925
X0.8366Y-0.1673
X0.8366Y-0.4035
X0.8366Y-0.4331
X0.8465Y-0.2362
X0.8554Y-0.5217
X0.8661Y-1.2795
X0.8846Y-0.039
X0.8957Y-1.3189
X0.9055Y-0.2756
X0.9252Y-0.0394
X0.9252Y-0.4724
X0.9252Y-0.5512
X0.9252Y-0.6004
X0.9252Y-0.6988
X0.9252Y-0.7972
X0.9252Y-0.8957
X0.9252Y-0.9941
X0.9252Y-1.0925
X0.935Y-0.1673
X0.935Y-0.4035
X0.935Y-0.4331
X0.9449Y-0.3248
X0.9941Y-0.4921
X0.9941Y-0.5906
X0.9941Y-0.689
X0.9941Y-0.7874
X1.0039Y-0.2756
X1.0039Y-0.4626
X1.0039Y-0.8858
X1.0039Y-0.9843
X1.0039Y-1.0827
X1.0433Y-0.2067
X1.0433Y-0.3346
X1.0433Y-0.4823
X1.1024Y-0.4626
X1.122Y-0.5512
X1.122Y-0.6004
X1.122Y-0.6988
X1.122Y-0.7972
X1.122Y-0.8957
X1.122Y-0.9941
X1.122Y-1.0925
X1.1319Y-0.128
X1.1417Y-0.2067
X1.1417Y-0.2756
X1.1417Y-0.4232
X1.1417Y-0.4921
X1.1909Y-0.1181
X1.1909Y-0.4823
X1.1909Y-0.6791
X1.1909Y-0.7776
X1.1909Y-0.876
X1.1909Y-0.9744
X1.1909Y-1.0728
X1.1909Y-1.1713
X1.2106Y-0.1772
X1.2106Y-0.2953
X1.2303Y-0.4429
X1.2402Y-0.1083
X1.2402Y-0.6004
X1.2402Y-0.7776
X1.2402Y-0.9154
X1.2402Y-1.0138
X1.2598Y-0.1772
X1.2598Y-0.2165
X1.2598Y-0.2559
X1.2598Y-0.2953
X1.2598Y-0.3346
X1.2598Y-0.374
X1.2657Y-0.9646
X1.2697Y-0.4429
X1.2697Y-0.4724
X1.2697Y-1.1909
X1.2992Y-0.9154
X1.2992Y-1.0138
X1.3287Y-0.4528
X1.3484Y-0.128
X1.3583Y-0.1772
X1.3583Y-0.2165
X1.3583Y-0.2559
X1.3583Y-0.2953
X1.3583Y-0.3346
X1.3583Y-0.374
T0
M30
