%TF.GenerationSoftware,KiCad,Pcbnew,7.0.7*%
%TF.CreationDate,2023-10-31T11:13:51+10:00*%
%TF.ProjectId,LEDBoard,4c454442-6f61-4726-942e-6b696361645f,rev?*%
%TF.SameCoordinates,Original*%
%TF.FileFunction,Legend,Bot*%
%TF.FilePolarity,Positive*%
%FSLAX46Y46*%
G04 Gerber Fmt 4.6, Leading zero omitted, Abs format (unit mm)*
G04 Created by KiCad (PCBNEW 7.0.7) date 2023-10-31 11:13:51*
%MOMM*%
%LPD*%
G01*
G04 APERTURE LIST*
G04 Aperture macros list*
%AMRoundRect*
0 Rectangle with rounded corners*
0 $1 Rounding radius*
0 $2 $3 $4 $5 $6 $7 $8 $9 X,Y pos of 4 corners*
0 Add a 4 corners polygon primitive as box body*
4,1,4,$2,$3,$4,$5,$6,$7,$8,$9,$2,$3,0*
0 Add four circle primitives for the rounded corners*
1,1,$1+$1,$2,$3*
1,1,$1+$1,$4,$5*
1,1,$1+$1,$6,$7*
1,1,$1+$1,$8,$9*
0 Add four rect primitives between the rounded corners*
20,1,$1+$1,$2,$3,$4,$5,0*
20,1,$1+$1,$4,$5,$6,$7,0*
20,1,$1+$1,$6,$7,$8,$9,0*
20,1,$1+$1,$8,$9,$2,$3,0*%
G04 Aperture macros list end*
%ADD10C,0.150000*%
%ADD11C,0.120000*%
%ADD12C,0.100000*%
%ADD13C,0.250000*%
%ADD14R,2.600000X3.600000*%
%ADD15RoundRect,0.062500X0.587500X0.062500X-0.587500X0.062500X-0.587500X-0.062500X0.587500X-0.062500X0*%
%ADD16C,0.900000*%
%ADD17RoundRect,0.187500X-0.712500X0.187500X-0.712500X-0.187500X0.712500X-0.187500X0.712500X0.187500X0*%
%ADD18RoundRect,0.150000X-0.750000X0.150000X-0.750000X-0.150000X0.750000X-0.150000X0.750000X0.150000X0*%
%ADD19RoundRect,0.225000X-0.225000X0.425000X-0.225000X-0.425000X0.225000X-0.425000X0.225000X0.425000X0*%
%ADD20RoundRect,0.135000X0.185000X-0.135000X0.185000X0.135000X-0.185000X0.135000X-0.185000X-0.135000X0*%
%ADD21RoundRect,0.135000X0.135000X0.185000X-0.135000X0.185000X-0.135000X-0.185000X0.135000X-0.185000X0*%
%ADD22RoundRect,0.135000X-0.185000X0.135000X-0.185000X-0.135000X0.185000X-0.135000X0.185000X0.135000X0*%
%ADD23RoundRect,0.150000X0.587500X0.150000X-0.587500X0.150000X-0.587500X-0.150000X0.587500X-0.150000X0*%
%ADD24RoundRect,0.135000X-0.135000X-0.185000X0.135000X-0.185000X0.135000X0.185000X-0.135000X0.185000X0*%
%ADD25RoundRect,0.250000X0.650000X-0.325000X0.650000X0.325000X-0.650000X0.325000X-0.650000X-0.325000X0*%
G04 APERTURE END LIST*
D10*
X34500000Y-2750000D02*
X34500000Y-12500000D01*
X500000Y-12500000D01*
X500000Y-2750000D01*
X2750000Y-500000D01*
X32250000Y-500000D01*
X34500000Y-2750000D01*
X21333333Y-3039819D02*
X21095238Y-4039819D01*
X21095238Y-4039819D02*
X20904762Y-3325533D01*
X20904762Y-3325533D02*
X20714286Y-4039819D01*
X20714286Y-4039819D02*
X20476191Y-3039819D01*
X19952381Y-4039819D02*
X20047619Y-3992200D01*
X20047619Y-3992200D02*
X20095238Y-3944580D01*
X20095238Y-3944580D02*
X20142857Y-3849342D01*
X20142857Y-3849342D02*
X20142857Y-3563628D01*
X20142857Y-3563628D02*
X20095238Y-3468390D01*
X20095238Y-3468390D02*
X20047619Y-3420771D01*
X20047619Y-3420771D02*
X19952381Y-3373152D01*
X19952381Y-3373152D02*
X19809524Y-3373152D01*
X19809524Y-3373152D02*
X19714286Y-3420771D01*
X19714286Y-3420771D02*
X19666667Y-3468390D01*
X19666667Y-3468390D02*
X19619048Y-3563628D01*
X19619048Y-3563628D02*
X19619048Y-3849342D01*
X19619048Y-3849342D02*
X19666667Y-3944580D01*
X19666667Y-3944580D02*
X19714286Y-3992200D01*
X19714286Y-3992200D02*
X19809524Y-4039819D01*
X19809524Y-4039819D02*
X19952381Y-4039819D01*
X19190476Y-4039819D02*
X19190476Y-3373152D01*
X19190476Y-3563628D02*
X19142857Y-3468390D01*
X19142857Y-3468390D02*
X19095238Y-3420771D01*
X19095238Y-3420771D02*
X19000000Y-3373152D01*
X19000000Y-3373152D02*
X18904762Y-3373152D01*
X18142857Y-4039819D02*
X18142857Y-3039819D01*
X18142857Y-3992200D02*
X18238095Y-4039819D01*
X18238095Y-4039819D02*
X18428571Y-4039819D01*
X18428571Y-4039819D02*
X18523809Y-3992200D01*
X18523809Y-3992200D02*
X18571428Y-3944580D01*
X18571428Y-3944580D02*
X18619047Y-3849342D01*
X18619047Y-3849342D02*
X18619047Y-3563628D01*
X18619047Y-3563628D02*
X18571428Y-3468390D01*
X18571428Y-3468390D02*
X18523809Y-3420771D01*
X18523809Y-3420771D02*
X18428571Y-3373152D01*
X18428571Y-3373152D02*
X18238095Y-3373152D01*
X18238095Y-3373152D02*
X18142857Y-3420771D01*
X17761904Y-3039819D02*
X17523809Y-4039819D01*
X17523809Y-4039819D02*
X17333333Y-3325533D01*
X17333333Y-3325533D02*
X17142857Y-4039819D01*
X17142857Y-4039819D02*
X16904762Y-3039819D01*
X16095238Y-4039819D02*
X16095238Y-3516009D01*
X16095238Y-3516009D02*
X16142857Y-3420771D01*
X16142857Y-3420771D02*
X16238095Y-3373152D01*
X16238095Y-3373152D02*
X16428571Y-3373152D01*
X16428571Y-3373152D02*
X16523809Y-3420771D01*
X16095238Y-3992200D02*
X16190476Y-4039819D01*
X16190476Y-4039819D02*
X16428571Y-4039819D01*
X16428571Y-4039819D02*
X16523809Y-3992200D01*
X16523809Y-3992200D02*
X16571428Y-3896961D01*
X16571428Y-3896961D02*
X16571428Y-3801723D01*
X16571428Y-3801723D02*
X16523809Y-3706485D01*
X16523809Y-3706485D02*
X16428571Y-3658866D01*
X16428571Y-3658866D02*
X16190476Y-3658866D01*
X16190476Y-3658866D02*
X16095238Y-3611247D01*
X15761904Y-3373152D02*
X15380952Y-3373152D01*
X15619047Y-3039819D02*
X15619047Y-3896961D01*
X15619047Y-3896961D02*
X15571428Y-3992200D01*
X15571428Y-3992200D02*
X15476190Y-4039819D01*
X15476190Y-4039819D02*
X15380952Y-4039819D01*
X14619047Y-3992200D02*
X14714285Y-4039819D01*
X14714285Y-4039819D02*
X14904761Y-4039819D01*
X14904761Y-4039819D02*
X14999999Y-3992200D01*
X14999999Y-3992200D02*
X15047618Y-3944580D01*
X15047618Y-3944580D02*
X15095237Y-3849342D01*
X15095237Y-3849342D02*
X15095237Y-3563628D01*
X15095237Y-3563628D02*
X15047618Y-3468390D01*
X15047618Y-3468390D02*
X14999999Y-3420771D01*
X14999999Y-3420771D02*
X14904761Y-3373152D01*
X14904761Y-3373152D02*
X14714285Y-3373152D01*
X14714285Y-3373152D02*
X14619047Y-3420771D01*
X14190475Y-4039819D02*
X14190475Y-3039819D01*
X13761904Y-4039819D02*
X13761904Y-3516009D01*
X13761904Y-3516009D02*
X13809523Y-3420771D01*
X13809523Y-3420771D02*
X13904761Y-3373152D01*
X13904761Y-3373152D02*
X14047618Y-3373152D01*
X14047618Y-3373152D02*
X14142856Y-3420771D01*
X14142856Y-3420771D02*
X14190475Y-3468390D01*
X20690476Y-5649819D02*
X21166666Y-5649819D01*
X21166666Y-5649819D02*
X21166666Y-4649819D01*
X20357142Y-5126009D02*
X20023809Y-5126009D01*
X19880952Y-5649819D02*
X20357142Y-5649819D01*
X20357142Y-5649819D02*
X20357142Y-4649819D01*
X20357142Y-4649819D02*
X19880952Y-4649819D01*
X19452380Y-5649819D02*
X19452380Y-4649819D01*
X19452380Y-4649819D02*
X19214285Y-4649819D01*
X19214285Y-4649819D02*
X19071428Y-4697438D01*
X19071428Y-4697438D02*
X18976190Y-4792676D01*
X18976190Y-4792676D02*
X18928571Y-4887914D01*
X18928571Y-4887914D02*
X18880952Y-5078390D01*
X18880952Y-5078390D02*
X18880952Y-5221247D01*
X18880952Y-5221247D02*
X18928571Y-5411723D01*
X18928571Y-5411723D02*
X18976190Y-5506961D01*
X18976190Y-5506961D02*
X19071428Y-5602200D01*
X19071428Y-5602200D02*
X19214285Y-5649819D01*
X19214285Y-5649819D02*
X19452380Y-5649819D01*
X17357142Y-5126009D02*
X17214285Y-5173628D01*
X17214285Y-5173628D02*
X17166666Y-5221247D01*
X17166666Y-5221247D02*
X17119047Y-5316485D01*
X17119047Y-5316485D02*
X17119047Y-5459342D01*
X17119047Y-5459342D02*
X17166666Y-5554580D01*
X17166666Y-5554580D02*
X17214285Y-5602200D01*
X17214285Y-5602200D02*
X17309523Y-5649819D01*
X17309523Y-5649819D02*
X17690475Y-5649819D01*
X17690475Y-5649819D02*
X17690475Y-4649819D01*
X17690475Y-4649819D02*
X17357142Y-4649819D01*
X17357142Y-4649819D02*
X17261904Y-4697438D01*
X17261904Y-4697438D02*
X17214285Y-4745057D01*
X17214285Y-4745057D02*
X17166666Y-4840295D01*
X17166666Y-4840295D02*
X17166666Y-4935533D01*
X17166666Y-4935533D02*
X17214285Y-5030771D01*
X17214285Y-5030771D02*
X17261904Y-5078390D01*
X17261904Y-5078390D02*
X17357142Y-5126009D01*
X17357142Y-5126009D02*
X17690475Y-5126009D01*
X16547618Y-5649819D02*
X16642856Y-5602200D01*
X16642856Y-5602200D02*
X16690475Y-5554580D01*
X16690475Y-5554580D02*
X16738094Y-5459342D01*
X16738094Y-5459342D02*
X16738094Y-5173628D01*
X16738094Y-5173628D02*
X16690475Y-5078390D01*
X16690475Y-5078390D02*
X16642856Y-5030771D01*
X16642856Y-5030771D02*
X16547618Y-4983152D01*
X16547618Y-4983152D02*
X16404761Y-4983152D01*
X16404761Y-4983152D02*
X16309523Y-5030771D01*
X16309523Y-5030771D02*
X16261904Y-5078390D01*
X16261904Y-5078390D02*
X16214285Y-5173628D01*
X16214285Y-5173628D02*
X16214285Y-5459342D01*
X16214285Y-5459342D02*
X16261904Y-5554580D01*
X16261904Y-5554580D02*
X16309523Y-5602200D01*
X16309523Y-5602200D02*
X16404761Y-5649819D01*
X16404761Y-5649819D02*
X16547618Y-5649819D01*
X15357142Y-5649819D02*
X15357142Y-5126009D01*
X15357142Y-5126009D02*
X15404761Y-5030771D01*
X15404761Y-5030771D02*
X15499999Y-4983152D01*
X15499999Y-4983152D02*
X15690475Y-4983152D01*
X15690475Y-4983152D02*
X15785713Y-5030771D01*
X15357142Y-5602200D02*
X15452380Y-5649819D01*
X15452380Y-5649819D02*
X15690475Y-5649819D01*
X15690475Y-5649819D02*
X15785713Y-5602200D01*
X15785713Y-5602200D02*
X15833332Y-5506961D01*
X15833332Y-5506961D02*
X15833332Y-5411723D01*
X15833332Y-5411723D02*
X15785713Y-5316485D01*
X15785713Y-5316485D02*
X15690475Y-5268866D01*
X15690475Y-5268866D02*
X15452380Y-5268866D01*
X15452380Y-5268866D02*
X15357142Y-5221247D01*
X14880951Y-5649819D02*
X14880951Y-4983152D01*
X14880951Y-5173628D02*
X14833332Y-5078390D01*
X14833332Y-5078390D02*
X14785713Y-5030771D01*
X14785713Y-5030771D02*
X14690475Y-4983152D01*
X14690475Y-4983152D02*
X14595237Y-4983152D01*
X13833332Y-5649819D02*
X13833332Y-4649819D01*
X13833332Y-5602200D02*
X13928570Y-5649819D01*
X13928570Y-5649819D02*
X14119046Y-5649819D01*
X14119046Y-5649819D02*
X14214284Y-5602200D01*
X14214284Y-5602200D02*
X14261903Y-5554580D01*
X14261903Y-5554580D02*
X14309522Y-5459342D01*
X14309522Y-5459342D02*
X14309522Y-5173628D01*
X14309522Y-5173628D02*
X14261903Y-5078390D01*
X14261903Y-5078390D02*
X14214284Y-5030771D01*
X14214284Y-5030771D02*
X14119046Y-4983152D01*
X14119046Y-4983152D02*
X13928570Y-4983152D01*
X13928570Y-4983152D02*
X13833332Y-5030771D01*
X22119047Y-6593152D02*
X21880952Y-7259819D01*
X21880952Y-7259819D02*
X21642857Y-6593152D01*
X20738095Y-7259819D02*
X21309523Y-7259819D01*
X21023809Y-7259819D02*
X21023809Y-6259819D01*
X21023809Y-6259819D02*
X21119047Y-6402676D01*
X21119047Y-6402676D02*
X21214285Y-6497914D01*
X21214285Y-6497914D02*
X21309523Y-6545533D01*
X20309523Y-7164580D02*
X20261904Y-7212200D01*
X20261904Y-7212200D02*
X20309523Y-7259819D01*
X20309523Y-7259819D02*
X20357142Y-7212200D01*
X20357142Y-7212200D02*
X20309523Y-7164580D01*
X20309523Y-7164580D02*
X20309523Y-7259819D01*
X19642857Y-6259819D02*
X19547619Y-6259819D01*
X19547619Y-6259819D02*
X19452381Y-6307438D01*
X19452381Y-6307438D02*
X19404762Y-6355057D01*
X19404762Y-6355057D02*
X19357143Y-6450295D01*
X19357143Y-6450295D02*
X19309524Y-6640771D01*
X19309524Y-6640771D02*
X19309524Y-6878866D01*
X19309524Y-6878866D02*
X19357143Y-7069342D01*
X19357143Y-7069342D02*
X19404762Y-7164580D01*
X19404762Y-7164580D02*
X19452381Y-7212200D01*
X19452381Y-7212200D02*
X19547619Y-7259819D01*
X19547619Y-7259819D02*
X19642857Y-7259819D01*
X19642857Y-7259819D02*
X19738095Y-7212200D01*
X19738095Y-7212200D02*
X19785714Y-7164580D01*
X19785714Y-7164580D02*
X19833333Y-7069342D01*
X19833333Y-7069342D02*
X19880952Y-6878866D01*
X19880952Y-6878866D02*
X19880952Y-6640771D01*
X19880952Y-6640771D02*
X19833333Y-6450295D01*
X19833333Y-6450295D02*
X19785714Y-6355057D01*
X19785714Y-6355057D02*
X19738095Y-6307438D01*
X19738095Y-6307438D02*
X19642857Y-6259819D01*
X17928571Y-6259819D02*
X17738095Y-6259819D01*
X17738095Y-6259819D02*
X17642857Y-6307438D01*
X17642857Y-6307438D02*
X17547619Y-6402676D01*
X17547619Y-6402676D02*
X17500000Y-6593152D01*
X17500000Y-6593152D02*
X17500000Y-6926485D01*
X17500000Y-6926485D02*
X17547619Y-7116961D01*
X17547619Y-7116961D02*
X17642857Y-7212200D01*
X17642857Y-7212200D02*
X17738095Y-7259819D01*
X17738095Y-7259819D02*
X17928571Y-7259819D01*
X17928571Y-7259819D02*
X18023809Y-7212200D01*
X18023809Y-7212200D02*
X18119047Y-7116961D01*
X18119047Y-7116961D02*
X18166666Y-6926485D01*
X18166666Y-6926485D02*
X18166666Y-6593152D01*
X18166666Y-6593152D02*
X18119047Y-6402676D01*
X18119047Y-6402676D02*
X18023809Y-6307438D01*
X18023809Y-6307438D02*
X17928571Y-6259819D01*
X16642857Y-7212200D02*
X16738095Y-7259819D01*
X16738095Y-7259819D02*
X16928571Y-7259819D01*
X16928571Y-7259819D02*
X17023809Y-7212200D01*
X17023809Y-7212200D02*
X17071428Y-7164580D01*
X17071428Y-7164580D02*
X17119047Y-7069342D01*
X17119047Y-7069342D02*
X17119047Y-6783628D01*
X17119047Y-6783628D02*
X17071428Y-6688390D01*
X17071428Y-6688390D02*
X17023809Y-6640771D01*
X17023809Y-6640771D02*
X16928571Y-6593152D01*
X16928571Y-6593152D02*
X16738095Y-6593152D01*
X16738095Y-6593152D02*
X16642857Y-6640771D01*
X16357142Y-6593152D02*
X15976190Y-6593152D01*
X16214285Y-6259819D02*
X16214285Y-7116961D01*
X16214285Y-7116961D02*
X16166666Y-7212200D01*
X16166666Y-7212200D02*
X16071428Y-7259819D01*
X16071428Y-7259819D02*
X15976190Y-7259819D01*
X15642856Y-6878866D02*
X14880952Y-6878866D01*
X14452380Y-6355057D02*
X14404761Y-6307438D01*
X14404761Y-6307438D02*
X14309523Y-6259819D01*
X14309523Y-6259819D02*
X14071428Y-6259819D01*
X14071428Y-6259819D02*
X13976190Y-6307438D01*
X13976190Y-6307438D02*
X13928571Y-6355057D01*
X13928571Y-6355057D02*
X13880952Y-6450295D01*
X13880952Y-6450295D02*
X13880952Y-6545533D01*
X13880952Y-6545533D02*
X13928571Y-6688390D01*
X13928571Y-6688390D02*
X14499999Y-7259819D01*
X14499999Y-7259819D02*
X13880952Y-7259819D01*
X13547618Y-6259819D02*
X12928571Y-6259819D01*
X12928571Y-6259819D02*
X13261904Y-6640771D01*
X13261904Y-6640771D02*
X13119047Y-6640771D01*
X13119047Y-6640771D02*
X13023809Y-6688390D01*
X13023809Y-6688390D02*
X12976190Y-6736009D01*
X12976190Y-6736009D02*
X12928571Y-6831247D01*
X12928571Y-6831247D02*
X12928571Y-7069342D01*
X12928571Y-7069342D02*
X12976190Y-7164580D01*
X12976190Y-7164580D02*
X13023809Y-7212200D01*
X13023809Y-7212200D02*
X13119047Y-7259819D01*
X13119047Y-7259819D02*
X13404761Y-7259819D01*
X13404761Y-7259819D02*
X13499999Y-7212200D01*
X13499999Y-7212200D02*
X13547618Y-7164580D01*
X22761905Y-9250771D02*
X22809524Y-9203152D01*
X22809524Y-9203152D02*
X22904762Y-9060295D01*
X22904762Y-9060295D02*
X22952381Y-8965057D01*
X22952381Y-8965057D02*
X23000000Y-8822200D01*
X23000000Y-8822200D02*
X23047619Y-8584104D01*
X23047619Y-8584104D02*
X23047619Y-8393628D01*
X23047619Y-8393628D02*
X23000000Y-8155533D01*
X23000000Y-8155533D02*
X22952381Y-8012676D01*
X22952381Y-8012676D02*
X22904762Y-7917438D01*
X22904762Y-7917438D02*
X22809524Y-7774580D01*
X22809524Y-7774580D02*
X22761905Y-7726961D01*
X21952381Y-8822200D02*
X22047619Y-8869819D01*
X22047619Y-8869819D02*
X22238095Y-8869819D01*
X22238095Y-8869819D02*
X22333333Y-8822200D01*
X22333333Y-8822200D02*
X22380952Y-8774580D01*
X22380952Y-8774580D02*
X22428571Y-8679342D01*
X22428571Y-8679342D02*
X22428571Y-8393628D01*
X22428571Y-8393628D02*
X22380952Y-8298390D01*
X22380952Y-8298390D02*
X22333333Y-8250771D01*
X22333333Y-8250771D02*
X22238095Y-8203152D01*
X22238095Y-8203152D02*
X22047619Y-8203152D01*
X22047619Y-8203152D02*
X21952381Y-8250771D01*
X21619047Y-9250771D02*
X21571428Y-9203152D01*
X21571428Y-9203152D02*
X21476190Y-9060295D01*
X21476190Y-9060295D02*
X21428571Y-8965057D01*
X21428571Y-8965057D02*
X21380952Y-8822200D01*
X21380952Y-8822200D02*
X21333333Y-8584104D01*
X21333333Y-8584104D02*
X21333333Y-8393628D01*
X21333333Y-8393628D02*
X21380952Y-8155533D01*
X21380952Y-8155533D02*
X21428571Y-8012676D01*
X21428571Y-8012676D02*
X21476190Y-7917438D01*
X21476190Y-7917438D02*
X21571428Y-7774580D01*
X21571428Y-7774580D02*
X21619047Y-7726961D01*
X19714285Y-8822200D02*
X19809523Y-8869819D01*
X19809523Y-8869819D02*
X19999999Y-8869819D01*
X19999999Y-8869819D02*
X20095237Y-8822200D01*
X20095237Y-8822200D02*
X20142856Y-8726961D01*
X20142856Y-8726961D02*
X20142856Y-8346009D01*
X20142856Y-8346009D02*
X20095237Y-8250771D01*
X20095237Y-8250771D02*
X19999999Y-8203152D01*
X19999999Y-8203152D02*
X19809523Y-8203152D01*
X19809523Y-8203152D02*
X19714285Y-8250771D01*
X19714285Y-8250771D02*
X19666666Y-8346009D01*
X19666666Y-8346009D02*
X19666666Y-8441247D01*
X19666666Y-8441247D02*
X20142856Y-8536485D01*
X18809523Y-8203152D02*
X18809523Y-9012676D01*
X18809523Y-9012676D02*
X18857142Y-9107914D01*
X18857142Y-9107914D02*
X18904761Y-9155533D01*
X18904761Y-9155533D02*
X18999999Y-9203152D01*
X18999999Y-9203152D02*
X19142856Y-9203152D01*
X19142856Y-9203152D02*
X19238094Y-9155533D01*
X18809523Y-8822200D02*
X18904761Y-8869819D01*
X18904761Y-8869819D02*
X19095237Y-8869819D01*
X19095237Y-8869819D02*
X19190475Y-8822200D01*
X19190475Y-8822200D02*
X19238094Y-8774580D01*
X19238094Y-8774580D02*
X19285713Y-8679342D01*
X19285713Y-8679342D02*
X19285713Y-8393628D01*
X19285713Y-8393628D02*
X19238094Y-8298390D01*
X19238094Y-8298390D02*
X19190475Y-8250771D01*
X19190475Y-8250771D02*
X19095237Y-8203152D01*
X19095237Y-8203152D02*
X18904761Y-8203152D01*
X18904761Y-8203152D02*
X18809523Y-8250771D01*
X17904761Y-8203152D02*
X17904761Y-9012676D01*
X17904761Y-9012676D02*
X17952380Y-9107914D01*
X17952380Y-9107914D02*
X17999999Y-9155533D01*
X17999999Y-9155533D02*
X18095237Y-9203152D01*
X18095237Y-9203152D02*
X18238094Y-9203152D01*
X18238094Y-9203152D02*
X18333332Y-9155533D01*
X17904761Y-8822200D02*
X17999999Y-8869819D01*
X17999999Y-8869819D02*
X18190475Y-8869819D01*
X18190475Y-8869819D02*
X18285713Y-8822200D01*
X18285713Y-8822200D02*
X18333332Y-8774580D01*
X18333332Y-8774580D02*
X18380951Y-8679342D01*
X18380951Y-8679342D02*
X18380951Y-8393628D01*
X18380951Y-8393628D02*
X18333332Y-8298390D01*
X18333332Y-8298390D02*
X18285713Y-8250771D01*
X18285713Y-8250771D02*
X18190475Y-8203152D01*
X18190475Y-8203152D02*
X17999999Y-8203152D01*
X17999999Y-8203152D02*
X17904761Y-8250771D01*
X17476189Y-8822200D02*
X17380951Y-8869819D01*
X17380951Y-8869819D02*
X17190475Y-8869819D01*
X17190475Y-8869819D02*
X17095237Y-8822200D01*
X17095237Y-8822200D02*
X17047618Y-8726961D01*
X17047618Y-8726961D02*
X17047618Y-8679342D01*
X17047618Y-8679342D02*
X17095237Y-8584104D01*
X17095237Y-8584104D02*
X17190475Y-8536485D01*
X17190475Y-8536485D02*
X17333332Y-8536485D01*
X17333332Y-8536485D02*
X17428570Y-8488866D01*
X17428570Y-8488866D02*
X17476189Y-8393628D01*
X17476189Y-8393628D02*
X17476189Y-8346009D01*
X17476189Y-8346009D02*
X17428570Y-8250771D01*
X17428570Y-8250771D02*
X17333332Y-8203152D01*
X17333332Y-8203152D02*
X17190475Y-8203152D01*
X17190475Y-8203152D02*
X17095237Y-8250771D01*
X16190475Y-8869819D02*
X16190475Y-8346009D01*
X16190475Y-8346009D02*
X16238094Y-8250771D01*
X16238094Y-8250771D02*
X16333332Y-8203152D01*
X16333332Y-8203152D02*
X16523808Y-8203152D01*
X16523808Y-8203152D02*
X16619046Y-8250771D01*
X16190475Y-8822200D02*
X16285713Y-8869819D01*
X16285713Y-8869819D02*
X16523808Y-8869819D01*
X16523808Y-8869819D02*
X16619046Y-8822200D01*
X16619046Y-8822200D02*
X16666665Y-8726961D01*
X16666665Y-8726961D02*
X16666665Y-8631723D01*
X16666665Y-8631723D02*
X16619046Y-8536485D01*
X16619046Y-8536485D02*
X16523808Y-8488866D01*
X16523808Y-8488866D02*
X16285713Y-8488866D01*
X16285713Y-8488866D02*
X16190475Y-8441247D01*
X15714284Y-8869819D02*
X15714284Y-8203152D01*
X15714284Y-8298390D02*
X15666665Y-8250771D01*
X15666665Y-8250771D02*
X15571427Y-8203152D01*
X15571427Y-8203152D02*
X15428570Y-8203152D01*
X15428570Y-8203152D02*
X15333332Y-8250771D01*
X15333332Y-8250771D02*
X15285713Y-8346009D01*
X15285713Y-8346009D02*
X15285713Y-8869819D01*
X15285713Y-8346009D02*
X15238094Y-8250771D01*
X15238094Y-8250771D02*
X15142856Y-8203152D01*
X15142856Y-8203152D02*
X14999999Y-8203152D01*
X14999999Y-8203152D02*
X14904760Y-8250771D01*
X14904760Y-8250771D02*
X14857141Y-8346009D01*
X14857141Y-8346009D02*
X14857141Y-8869819D01*
X14380951Y-8203152D02*
X14380951Y-9203152D01*
X14380951Y-8250771D02*
X14285713Y-8203152D01*
X14285713Y-8203152D02*
X14095237Y-8203152D01*
X14095237Y-8203152D02*
X13999999Y-8250771D01*
X13999999Y-8250771D02*
X13952380Y-8298390D01*
X13952380Y-8298390D02*
X13904761Y-8393628D01*
X13904761Y-8393628D02*
X13904761Y-8679342D01*
X13904761Y-8679342D02*
X13952380Y-8774580D01*
X13952380Y-8774580D02*
X13999999Y-8822200D01*
X13999999Y-8822200D02*
X14095237Y-8869819D01*
X14095237Y-8869819D02*
X14285713Y-8869819D01*
X14285713Y-8869819D02*
X14380951Y-8822200D01*
X13333332Y-8869819D02*
X13428570Y-8822200D01*
X13428570Y-8822200D02*
X13476189Y-8726961D01*
X13476189Y-8726961D02*
X13476189Y-7869819D01*
X12571427Y-8822200D02*
X12666665Y-8869819D01*
X12666665Y-8869819D02*
X12857141Y-8869819D01*
X12857141Y-8869819D02*
X12952379Y-8822200D01*
X12952379Y-8822200D02*
X12999998Y-8726961D01*
X12999998Y-8726961D02*
X12999998Y-8346009D01*
X12999998Y-8346009D02*
X12952379Y-8250771D01*
X12952379Y-8250771D02*
X12857141Y-8203152D01*
X12857141Y-8203152D02*
X12666665Y-8203152D01*
X12666665Y-8203152D02*
X12571427Y-8250771D01*
X12571427Y-8250771D02*
X12523808Y-8346009D01*
X12523808Y-8346009D02*
X12523808Y-8441247D01*
X12523808Y-8441247D02*
X12999998Y-8536485D01*
X12095236Y-8869819D02*
X12095236Y-8203152D01*
X12095236Y-8393628D02*
X12047617Y-8298390D01*
X12047617Y-8298390D02*
X11999998Y-8250771D01*
X11999998Y-8250771D02*
X11904760Y-8203152D01*
X11904760Y-8203152D02*
X11809522Y-8203152D01*
D11*
%TO.C,BT1*%
X2950000Y-20650000D02*
X2950000Y-22200000D01*
X2950000Y-28350000D02*
X2950000Y-26800000D01*
X4500000Y-19500000D02*
X4500000Y-17500000D01*
X5500000Y-18500000D02*
X3500000Y-18500000D01*
X6150000Y-17950000D02*
X6150000Y-20650000D01*
X6150000Y-20650000D02*
X2950000Y-20650000D01*
X6150000Y-28350000D02*
X2950000Y-28350000D01*
X6150000Y-32850000D02*
X6150000Y-28350000D01*
X6150000Y-32850000D02*
X28850000Y-32850000D01*
X7950000Y-16150000D02*
X6150000Y-17950000D01*
X28850000Y-16150000D02*
X7950000Y-16150000D01*
X28850000Y-16150000D02*
X28850000Y-20650000D01*
X28850000Y-20650000D02*
X32050000Y-20650000D01*
X28850000Y-28350000D02*
X32050000Y-28350000D01*
X28850000Y-32850000D02*
X28850000Y-28350000D01*
X32050000Y-20650000D02*
X32050000Y-22200000D01*
X32050000Y-28350000D02*
X32050000Y-26800000D01*
D12*
%TO.C,J2*%
X32900000Y-11050000D02*
X32900000Y-9650000D01*
X32900000Y-1950000D02*
X32900000Y-3350000D01*
X32900000Y-1950000D02*
X28100000Y-1950000D01*
X28100000Y-11050000D02*
X32900000Y-11050000D01*
X28100000Y-11050000D02*
X28100000Y-9650000D01*
X28100000Y-1950000D02*
X28100000Y-3350000D01*
D13*
X33625000Y-3000000D02*
G75*
G03*
X33625000Y-3000000I-125000J0D01*
G01*
D11*
%TO.C,SW1*%
X31250000Y-15100000D02*
X32250000Y-15100000D01*
X31250000Y-15700000D02*
X31250000Y-15100000D01*
X34050000Y-16500000D02*
X34050000Y-18500000D01*
X31250000Y-19300000D02*
X31250000Y-19900000D01*
X31250000Y-19900000D02*
X32250000Y-19900000D01*
%TO.C,R2*%
X25870000Y-4653641D02*
X25870000Y-4346359D01*
X26630000Y-4653641D02*
X26630000Y-4346359D01*
%TO.C,R6*%
X30403641Y-30880000D02*
X30096359Y-30880000D01*
X30403641Y-30120000D02*
X30096359Y-30120000D01*
%TO.C,R1*%
X25630000Y-4346359D02*
X25630000Y-4653641D01*
X24870000Y-4346359D02*
X24870000Y-4653641D01*
%TO.C,Q1*%
X4000000Y-32810000D02*
X4650000Y-32810000D01*
X4000000Y-32810000D02*
X3350000Y-32810000D01*
X4000000Y-29690000D02*
X5675000Y-29690000D01*
X4000000Y-29690000D02*
X3350000Y-29690000D01*
%TO.C,R5*%
X29370000Y-32153641D02*
X29370000Y-31846359D01*
X30130000Y-32153641D02*
X30130000Y-31846359D01*
D12*
%TO.C,J1*%
X6900000Y-11050000D02*
X6900000Y-9650000D01*
X6900000Y-1950000D02*
X6900000Y-3350000D01*
X6900000Y-1950000D02*
X2100000Y-1950000D01*
X2100000Y-11050000D02*
X6900000Y-11050000D01*
X2100000Y-11050000D02*
X2100000Y-9650000D01*
X2100000Y-1950000D02*
X2100000Y-3350000D01*
D13*
X7625000Y-3000000D02*
G75*
G03*
X7625000Y-3000000I-125000J0D01*
G01*
D11*
%TO.C,R7*%
X31153641Y-13880000D02*
X30846359Y-13880000D01*
X31153641Y-13120000D02*
X30846359Y-13120000D01*
%TO.C,R4*%
X25596359Y-1620000D02*
X25903641Y-1620000D01*
X25596359Y-2380000D02*
X25903641Y-2380000D01*
%TO.C,C1*%
X590000Y-20461252D02*
X590000Y-19038748D01*
X2410000Y-20461252D02*
X2410000Y-19038748D01*
%TO.C,R3*%
X25596359Y-2620000D02*
X25903641Y-2620000D01*
X25596359Y-3380000D02*
X25903641Y-3380000D01*
%TD*%
%LPC*%
D14*
%TO.C,BT1*%
X2850000Y-24500000D03*
X32150000Y-24500000D03*
%TD*%
D15*
%TO.C,J2*%
X33250000Y-3750000D03*
X27750000Y-3750000D03*
X33250000Y-4250000D03*
X27750000Y-4250000D03*
X33250000Y-4750000D03*
X27750000Y-4750000D03*
X33250000Y-5250000D03*
X27750000Y-5250000D03*
X33250000Y-5750000D03*
X27750000Y-5750000D03*
X33250000Y-6250000D03*
X27750000Y-6250000D03*
X33250000Y-6750000D03*
X27750000Y-6750000D03*
X33250000Y-7250000D03*
X27750000Y-7250000D03*
X33250000Y-7750000D03*
X27750000Y-7750000D03*
X33250000Y-8250000D03*
X27750000Y-8250000D03*
X33250000Y-8750000D03*
X27750000Y-8750000D03*
X33250000Y-9250000D03*
X27750000Y-9250000D03*
%TD*%
D16*
%TO.C,SW1*%
X32750000Y-15375000D03*
X32750000Y-19625000D03*
D17*
X31850000Y-16275000D03*
X31850000Y-18725000D03*
D18*
X31850000Y-17500000D03*
D19*
X33800000Y-15650000D03*
X33800000Y-19350000D03*
%TD*%
D20*
%TO.C,R2*%
X26250000Y-5010000D03*
X26250000Y-3990000D03*
%TD*%
D21*
%TO.C,R6*%
X30760000Y-30500000D03*
X29740000Y-30500000D03*
%TD*%
D22*
%TO.C,R1*%
X25250000Y-3990000D03*
X25250000Y-5010000D03*
%TD*%
D23*
%TO.C,Q1*%
X4937500Y-30300000D03*
X4937500Y-32200000D03*
X3062500Y-31250000D03*
%TD*%
D20*
%TO.C,R5*%
X29750000Y-32510000D03*
X29750000Y-31490000D03*
%TD*%
D15*
%TO.C,J1*%
X7250000Y-3750000D03*
X1750000Y-3750000D03*
X7250000Y-4250000D03*
X1750000Y-4250000D03*
X7250000Y-4750000D03*
X1750000Y-4750000D03*
X7250000Y-5250000D03*
X1750000Y-5250000D03*
X7250000Y-5750000D03*
X1750000Y-5750000D03*
X7250000Y-6250000D03*
X1750000Y-6250000D03*
X7250000Y-6750000D03*
X1750000Y-6750000D03*
X7250000Y-7250000D03*
X1750000Y-7250000D03*
X7250000Y-7750000D03*
X1750000Y-7750000D03*
X7250000Y-8250000D03*
X1750000Y-8250000D03*
X7250000Y-8750000D03*
X1750000Y-8750000D03*
X7250000Y-9250000D03*
X1750000Y-9250000D03*
%TD*%
D21*
%TO.C,R7*%
X31510000Y-13500000D03*
X30490000Y-13500000D03*
%TD*%
D24*
%TO.C,R4*%
X25240000Y-2000000D03*
X26260000Y-2000000D03*
%TD*%
D25*
%TO.C,C1*%
X1500000Y-21225000D03*
X1500000Y-18275000D03*
%TD*%
D24*
%TO.C,R3*%
X25240000Y-3000000D03*
X26260000Y-3000000D03*
%TD*%
%LPD*%
M02*
