M48
; DRILL file {KiCad 7.0.8} date Thu Nov  9 10:40:38 2023
; FORMAT={-:-/ absolute / inch / decimal}
; #@! TF.CreationDate,2023-11-09T10:40:38+10:00
; #@! TF.GenerationSoftware,Kicad,Pcbnew,7.0.8
; #@! TF.FileFunction,Plated,1,4,PTH
FMAT,2
INCH
; #@! TA.AperFunction,Plated,PTH,ViaDrill
T1C0.0118
%
G90
G05
T1
X0.0197Y-0.3248
X0.0295Y-0.3937
X0.0295Y-0.6594
X0.0591Y-0.6594
X0.0689Y-0.1181
X0.0689Y-0.4035
X0.0886Y-0.6594
X0.1575Y-1.1024
X0.1772Y-1.1811
X0.1772Y-1.2598
X0.2067Y-0.9744
X0.2067Y-1.0728
X0.2126Y-1.1811
X0.2126Y-1.2598
X0.2264Y-0.1772
X0.2264Y-0.2067
X0.2264Y-0.3543
X0.2362Y-0.4528
X0.2362Y-0.5512
X0.2362Y-0.6496
X0.2362Y-0.748
X0.2362Y-0.8465
X0.2362Y-0.9449
X0.2461Y-0.3839
X0.2461Y-1.1516
X0.2461Y-1.2303
X0.2461Y-1.3189
X0.315Y-0.4724
X0.315Y-0.5709
X0.315Y-0.6693
X0.315Y-0.7677
X0.315Y-0.8661
X0.315Y-0.9646
X0.315Y-1.063
X0.315Y-1.1614
X0.3346Y-0.1476
X0.4035Y-0.3839
X0.4134Y-0.4724
X0.4134Y-0.5709
X0.4134Y-0.6693
X0.4134Y-0.7677
X0.4134Y-0.8661
X0.4134Y-0.9646
X0.4134Y-1.063
X0.4134Y-1.1614
X0.4331Y-0.2657
X0.5118Y-0.2854
X0.5118Y-0.374
X0.5118Y-0.4724
X0.5118Y-0.5709
X0.5118Y-0.6693
X0.5118Y-0.7677
X0.5118Y-0.8661
X0.5118Y-0.9646
X0.5118Y-1.063
X0.5118Y-1.1614
X0.6102Y-0.2756
X0.6102Y-0.374
X0.6102Y-0.4724
X0.6102Y-0.5709
X0.6102Y-0.6693
X0.6102Y-0.7677
X0.6102Y-0.8661
X0.6102Y-0.9646
X0.6102Y-1.063
X0.6102Y-1.1614
X0.7087Y-0.2756
X0.7087Y-0.374
X0.7087Y-0.4724
X0.7087Y-0.5709
X0.7087Y-0.6693
X0.7087Y-0.7677
X0.7087Y-0.8661
X0.7087Y-0.9646
X0.7087Y-1.063
X0.7087Y-1.1614
X0.8071Y-0.2756
X0.8071Y-0.374
X0.8071Y-0.4724
X0.8071Y-0.5709
X0.8071Y-0.6693
X0.8071Y-0.7677
X0.8071Y-0.8661
X0.8071Y-0.9646
X0.8071Y-1.063
X0.8071Y-1.1614
X0.9055Y-0.187
X0.9055Y-0.2756
X0.9055Y-0.374
X0.9055Y-0.4724
X0.9055Y-0.5709
X0.9055Y-0.6693
X0.9055Y-0.7677
X0.9055Y-0.8661
X0.9055Y-0.9646
X0.9055Y-1.063
X0.9055Y-1.1614
X0.9252Y-1.1909
X0.9547Y-0.2953
X0.9547Y-0.3937
X1.0039Y-0.1575
X1.0039Y-0.2854
X1.0039Y-0.4724
X1.0039Y-0.5709
X1.0039Y-0.6693
X1.0039Y-0.7677
X1.0039Y-0.8661
X1.0039Y-0.9646
X1.0039Y-1.063
X1.0039Y-1.1614
X1.0335Y-0.1575
X1.0531Y-0.3937
X1.063Y-1.2165
X1.1024Y-0.4724
X1.1024Y-0.5709
X1.1024Y-0.6693
X1.1024Y-0.7677
X1.1024Y-0.8661
X1.1024Y-0.9646
X1.1024Y-1.063
X1.1024Y-1.1614
X1.1516Y-0.3051
X1.1516Y-0.3937
X1.1676Y-0.4921
X1.1676Y-0.5906
X1.1676Y-0.689
X1.1676Y-0.7874
X1.1676Y-0.8858
X1.1676Y-0.9843
X1.1676Y-1.0827
X1.2008Y-1.1614
X1.2205Y-0.128
X1.2303Y-0.9154
X1.2303Y-1.0138
X1.2402Y-0.6004
X1.2402Y-0.7776
X1.2598Y-0.1969
X1.2598Y-0.2362
X1.2598Y-0.2756
X1.2598Y-0.315
X1.2598Y-0.3543
X1.2657Y-0.9646
X1.2697Y-0.4921
X1.2697Y-1.1909
X1.2992Y-0.9154
X1.2992Y-1.0138
X1.3583Y-0.1575
X1.3583Y-0.1969
X1.3583Y-0.2362
X1.3583Y-0.2756
X1.3583Y-0.315
X1.3583Y-0.3543
T0
M30
