M48
; DRILL file {KiCad 7.0.7} date Tue Oct 31 11:14:02 2023
; FORMAT={-:-/ absolute / inch / decimal}
; #@! TF.CreationDate,2023-10-31T11:14:02+10:00
; #@! TF.GenerationSoftware,Kicad,Pcbnew,7.0.7
; #@! TF.FileFunction,Plated,1,4,PTH
FMAT,2
INCH
; #@! TA.AperFunction,Plated,PTH,ViaDrill
T1C0.0118
%
G90
G05
T1
X0.0197Y-0.3248
X0.0295Y-0.3937
X0.0295Y-0.6693
X0.0591Y-0.6693
X0.0689Y-0.1181
X0.0689Y-0.4035
X0.0886Y-0.6693
X0.1772Y-1.1929
X0.1772Y-1.2677
X0.1833Y-0.9485
X0.1833Y-1.047
X0.1833Y-1.1454
X0.2104Y-0.4294
X0.2104Y-0.5278
X0.2104Y-0.6263
X0.2104Y-0.7247
X0.2104Y-0.8231
X0.2104Y-0.9215
X0.2126Y-1.1929
X0.2126Y-1.2677
X0.2264Y-0.1772
X0.2264Y-0.2067
X0.2264Y-0.3543
X0.2461Y-0.3839
X0.2818Y-0.4564
X0.2818Y-0.5548
X0.2818Y-0.6533
X0.2818Y-0.7517
X0.2818Y-0.8501
X0.2818Y-0.9485
X0.2818Y-1.047
X0.2818Y-1.1454
X0.3346Y-0.1476
X0.3802Y-0.358
X0.3802Y-0.4564
X0.3802Y-0.5548
X0.3802Y-0.6533
X0.3802Y-0.7517
X0.3802Y-0.8501
X0.3802Y-0.9485
X0.3802Y-1.047
X0.3802Y-1.1454
X0.4331Y-0.2657
X0.4786Y-0.2596
X0.4786Y-0.358
X0.4786Y-0.4564
X0.4786Y-0.5548
X0.4786Y-0.6533
X0.4786Y-0.7517
X0.4786Y-0.8501
X0.4786Y-0.9485
X0.4786Y-1.047
X0.4786Y-1.1454
X0.577Y-0.2596
X0.577Y-0.358
X0.577Y-0.4564
X0.577Y-0.5548
X0.577Y-0.6533
X0.577Y-0.7517
X0.577Y-0.8501
X0.577Y-0.9485
X0.577Y-1.047
X0.577Y-1.1454
X0.6755Y-0.2596
X0.6755Y-0.358
X0.6755Y-0.4564
X0.6755Y-0.5548
X0.6755Y-0.6533
X0.6755Y-0.7517
X0.6755Y-0.8501
X0.6755Y-0.9485
X0.6755Y-1.047
X0.6755Y-1.1454
X0.7739Y-0.2596
X0.7739Y-0.358
X0.7739Y-0.4564
X0.7739Y-0.5548
X0.7739Y-0.6533
X0.7739Y-0.7517
X0.7739Y-0.8501
X0.7739Y-0.9485
X0.7739Y-1.047
X0.7739Y-1.1454
X0.8723Y-0.2596
X0.8723Y-0.358
X0.8723Y-0.4564
X0.8723Y-0.5548
X0.8723Y-0.6533
X0.8723Y-0.7517
X0.8723Y-0.8501
X0.8723Y-0.9485
X0.8723Y-1.047
X0.8723Y-1.1454
X0.9055Y-0.187
X0.9708Y-0.2596
X0.9708Y-0.358
X0.9708Y-0.4564
X0.9708Y-0.5548
X0.9708Y-0.6533
X0.9708Y-0.7517
X0.9708Y-0.8501
X0.9708Y-0.9485
X0.9708Y-1.047
X0.9708Y-1.1454
X0.9937Y-0.0787
X0.9937Y-0.1181
X0.9941Y-0.1571
X1.0138Y-0.2953
X1.0335Y-0.1571
X1.063Y-0.3937
X1.0692Y-0.4564
X1.0692Y-0.5548
X1.0692Y-0.6533
X1.0692Y-0.7517
X1.0692Y-0.8501
X1.0692Y-0.9485
X1.0692Y-1.047
X1.0692Y-1.1454
X1.1417Y-0.3839
X1.1516Y-0.3051
X1.1676Y-0.4564
X1.1676Y-0.5548
X1.1676Y-0.6533
X1.1676Y-0.7517
X1.1676Y-0.8501
X1.1676Y-0.9485
X1.1676Y-1.047
X1.1676Y-1.1454
X1.1713Y-1.2799
X1.2303Y-0.9154
X1.2303Y-1.0138
X1.2406Y-0.5315
X1.2598Y-0.1969
X1.2598Y-0.2362
X1.2598Y-0.2756
X1.2598Y-0.315
X1.2638Y-0.6407
X1.2638Y-0.7372
X1.2657Y-0.9646
X1.266Y-1.2438
X1.293Y-1.2168
X1.2992Y-0.9154
X1.2992Y-1.0138
X1.3583Y-0.1969
X1.3583Y-0.2362
X1.3583Y-0.2756
X1.3583Y-0.315
T0
M30
