%TF.GenerationSoftware,KiCad,Pcbnew,7.0.8*%
%TF.CreationDate,2023-11-11T12:09:49+10:00*%
%TF.ProjectId,LEDBoard,4c454442-6f61-4726-942e-6b696361645f,rev?*%
%TF.SameCoordinates,Original*%
%TF.FileFunction,Copper,L2,Inr*%
%TF.FilePolarity,Positive*%
%FSLAX46Y46*%
G04 Gerber Fmt 4.6, Leading zero omitted, Abs format (unit mm)*
G04 Created by KiCad (PCBNEW 7.0.8) date 2023-11-11 12:09:49*
%MOMM*%
%LPD*%
G01*
G04 APERTURE LIST*
%TA.AperFunction,ViaPad*%
%ADD10C,0.450000*%
%TD*%
%TA.AperFunction,Conductor*%
%ADD11C,0.125000*%
%TD*%
G04 APERTURE END LIST*
D10*
%TO.N,GND*%
X6500000Y-10250000D03*
X9000000Y-10250000D03*
X28750000Y-3250000D03*
X29000000Y-5250000D03*
X30250000Y-3000000D03*
X30750000Y-4500000D03*
X7500000Y-32250000D03*
X22750000Y-33500000D03*
X22000000Y-32500000D03*
X11000000Y-2250000D03*
X21250000Y-10250000D03*
X23750000Y-4250000D03*
X14250000Y-2750000D03*
X16250000Y-4250000D03*
X18750000Y-4250000D03*
X21250000Y-4250000D03*
X6250000Y-2750000D03*
%TO.N,/LED Array/ROW1_S*%
X6250000Y-8000000D03*
X8750000Y-7000000D03*
X23000000Y-7000000D03*
X20500000Y-7000000D03*
X18000000Y-7000000D03*
X15500000Y-7000000D03*
X13000000Y-7000000D03*
X10500000Y-7000000D03*
%TO.N,/LED0*%
X4750000Y-1500000D03*
%TO.N,/LED1*%
X31500000Y-2750000D03*
%TO.N,/LED2*%
X26500000Y-12250000D03*
%TO.N,/LED3*%
X33750000Y-11500000D03*
%TO.N,/LED Array/COL10*%
X3500000Y-9750000D03*
X29000000Y-10750000D03*
%TO.N,+BATT*%
X21000000Y-12000000D03*
X32000000Y-4500000D03*
X4500000Y-32000000D03*
X22468434Y-989478D03*
X19968434Y-989478D03*
X23500000Y-12000000D03*
X13250000Y-12000000D03*
X5500000Y-32000000D03*
X32250000Y-12000000D03*
X14968434Y-989478D03*
X17468434Y-989478D03*
X6250000Y-31250000D03*
X34500000Y-4500000D03*
X16000000Y-12000000D03*
X34500000Y-6500000D03*
X34500000Y-5500000D03*
X11500000Y-1000000D03*
X32000000Y-5500000D03*
X18500000Y-12000000D03*
X32000000Y-6500000D03*
%TO.N,GND*%
X34500000Y-9500000D03*
X1500000Y-31500000D03*
X32250000Y-11250000D03*
X33000000Y-23250000D03*
X4500000Y-30000000D03*
X11250000Y-10250000D03*
X32250000Y-30250000D03*
X2250000Y-16750000D03*
X23750000Y-10250000D03*
X32000000Y-9500000D03*
X13750000Y-10250000D03*
X34250000Y-3250000D03*
X3000000Y-4250000D03*
X1000000Y-16750000D03*
X33000000Y-25750000D03*
X34500000Y-8500000D03*
X5250000Y-27500000D03*
X6500000Y-33750000D03*
X31500000Y-15250000D03*
X29000000Y-12500000D03*
X32000000Y-8500000D03*
X3500000Y-18000000D03*
X6250000Y-29250000D03*
X32000000Y-7500000D03*
X16250000Y-10250000D03*
X5500000Y-30000000D03*
X34500000Y-7500000D03*
X32150000Y-24500000D03*
X18750000Y-10250000D03*
X31500000Y-25750000D03*
X31500000Y-23250000D03*
X31500000Y-19750000D03*
X26500000Y-5250000D03*
%TO.N,/LED Array/COL0*%
X4500000Y-3750000D03*
%TO.N,/LED Array/COL1*%
X3000000Y-5250000D03*
X8500000Y-3250000D03*
%TO.N,/LED Array/COL2*%
X3500000Y-5750000D03*
X10000000Y-3750000D03*
%TO.N,/LED Array/COL3*%
X3000000Y-6250000D03*
X11250000Y-4250000D03*
%TO.N,/LED Array/COL4*%
X13750000Y-4750000D03*
X3500000Y-6750000D03*
%TO.N,/LED Array/COL5*%
X3000000Y-7250000D03*
X16500000Y-5500000D03*
%TO.N,/LED Array/COL6*%
X19000000Y-6000000D03*
X3500000Y-7750000D03*
%TO.N,/LED Array/COL7*%
X3000000Y-8250000D03*
X21500000Y-6000000D03*
%TO.N,/LED Array/COL8*%
X3500000Y-8750000D03*
X24000000Y-8250000D03*
%TO.N,/LED Array/COL9*%
X3000000Y-9250000D03*
X26500000Y-8500000D03*
%TO.N,/LED Array/ROW0_S*%
X13500000Y-1000000D03*
%TO.N,/LED Array/ROW1_S*%
X15750000Y-2000000D03*
X29000000Y-7000000D03*
X30750000Y-7500000D03*
X25500000Y-7000000D03*
%TO.N,/LED Array/ROW2_S*%
X8750000Y-11000000D03*
X6250000Y-11000000D03*
X21250000Y-11000000D03*
X16250000Y-11000000D03*
X28000000Y-11750000D03*
X13750000Y-11000000D03*
X18500000Y-1000000D03*
X31250000Y-11250000D03*
X23750000Y-11000000D03*
X11250000Y-11000000D03*
X18750000Y-11000000D03*
X25500000Y-11750000D03*
%TO.N,/LED Array/ROW3_S*%
X16000000Y-14000000D03*
X25250000Y-12500000D03*
X13500000Y-14000000D03*
X30250000Y-12250000D03*
X6000000Y-14000000D03*
X11000000Y-14000000D03*
X23500000Y-14000000D03*
X28500000Y-14000000D03*
X21000000Y-1006926D03*
X18500000Y-14000000D03*
X8500000Y-14000000D03*
X21000000Y-14000000D03*
%TO.N,/LED Array/ROW4_S*%
X30250000Y-17250000D03*
X11000000Y-15250000D03*
X6000000Y-15250000D03*
X28500000Y-15250000D03*
X23500000Y-1000000D03*
X21000000Y-15250000D03*
X25250000Y-15000000D03*
X8500000Y-15250000D03*
X13500000Y-15250000D03*
X18500000Y-15250000D03*
X16000000Y-15250000D03*
X23500000Y-15250000D03*
%TO.N,/LED Array/ROW5_S*%
X11000000Y-17750000D03*
X28500000Y-17750000D03*
X30250000Y-19750000D03*
X16000000Y-17750000D03*
X21000000Y-17750000D03*
X23500000Y-17750000D03*
X13500000Y-17750000D03*
X18500000Y-17750000D03*
X6000000Y-17750000D03*
X8500000Y-17750000D03*
X25250000Y-17500000D03*
X21727376Y-13250000D03*
%TO.N,/LED Array/ROW6_S*%
X25250000Y-20000000D03*
X21000000Y-20250000D03*
X16000000Y-20250000D03*
X8500000Y-20250000D03*
X30250000Y-22250000D03*
X11000000Y-20250000D03*
X28500000Y-20250000D03*
X19227376Y-13250000D03*
X13500000Y-20250000D03*
X18500000Y-20250000D03*
X23500000Y-20250000D03*
X6000000Y-20250000D03*
%TO.N,/LED Array/ROW7_S*%
X11000000Y-22750000D03*
X18500000Y-22750000D03*
X25500000Y-22500000D03*
X8500000Y-22750000D03*
X16000000Y-22750000D03*
X23500000Y-22750000D03*
X16727376Y-13250000D03*
X13500000Y-22750000D03*
X21000000Y-22750000D03*
X30250000Y-24750000D03*
X6000000Y-22750000D03*
X28500000Y-22750000D03*
%TO.N,/LED Array/ROW8_S*%
X11000000Y-25250000D03*
X14227376Y-13250000D03*
X25500000Y-25000000D03*
X21000000Y-25250000D03*
X30250000Y-27250000D03*
X18500000Y-25250000D03*
X16000000Y-25250000D03*
X6000000Y-25250000D03*
X13500000Y-25250000D03*
X23500000Y-25250000D03*
X8500000Y-25250000D03*
X28500000Y-25250000D03*
%TO.N,/LED Array/ROW9_S*%
X28500000Y-27750000D03*
X16000000Y-27750000D03*
X30250000Y-29750000D03*
X8500000Y-27750000D03*
X11727376Y-13250000D03*
X21000000Y-27750000D03*
X6000000Y-27750000D03*
X25500000Y-27500000D03*
X13500000Y-27750000D03*
X11000000Y-27750000D03*
X18500000Y-27750000D03*
X23500000Y-27750000D03*
%TD*%
D11*
%TO.N,/LED Array/ROW1_S*%
X15500000Y-2250000D02*
X15750000Y-2000000D01*
X15500000Y-4500000D02*
X15500000Y-2250000D01*
X13000000Y-7000000D02*
X15500000Y-4500000D01*
%TO.N,/LED Array/ROW2_S*%
X21250000Y-11000000D02*
X20000000Y-9750000D01*
X20000000Y-2500000D02*
X18500000Y-1000000D01*
X20000000Y-9750000D02*
X20000000Y-2500000D01*
%TO.N,/LED Array/ROW3_S*%
X22250000Y-2256926D02*
X22250000Y-12750000D01*
X22250000Y-12750000D02*
X23500000Y-14000000D01*
X21000000Y-1006926D02*
X22250000Y-2256926D01*
%TO.N,/LED Array/ROW4_S*%
X25250000Y-15000000D02*
X24750000Y-14500000D01*
X24750000Y-2250000D02*
X23500000Y-1000000D01*
X24750000Y-14500000D02*
X24750000Y-2250000D01*
%TD*%
%TA.AperFunction,Conductor*%
%TO.N,GND*%
G36*
X32434134Y-219407D02*
G01*
X32445947Y-229496D01*
X34770504Y-2554053D01*
X34798281Y-2608570D01*
X34799500Y-2624057D01*
X34799500Y-4069615D01*
X34780593Y-4127806D01*
X34731093Y-4163770D01*
X34669907Y-4163770D01*
X34655555Y-4157825D01*
X34617482Y-4138426D01*
X34500000Y-4119819D01*
X34382518Y-4138426D01*
X34382511Y-4138428D01*
X34276537Y-4192425D01*
X34192425Y-4276537D01*
X34138428Y-4382511D01*
X34138426Y-4382518D01*
X34119819Y-4499999D01*
X34119819Y-4500000D01*
X34138426Y-4617481D01*
X34138428Y-4617488D01*
X34192425Y-4723462D01*
X34192427Y-4723465D01*
X34276535Y-4807573D01*
X34276537Y-4807574D01*
X34382511Y-4861571D01*
X34382513Y-4861571D01*
X34382518Y-4861574D01*
X34500000Y-4880181D01*
X34617482Y-4861574D01*
X34655555Y-4842174D01*
X34715986Y-4832603D01*
X34770503Y-4860380D01*
X34798281Y-4914896D01*
X34799500Y-4930384D01*
X34799500Y-5069615D01*
X34780593Y-5127806D01*
X34731093Y-5163770D01*
X34669907Y-5163770D01*
X34655555Y-5157825D01*
X34617482Y-5138426D01*
X34500000Y-5119819D01*
X34382518Y-5138426D01*
X34382511Y-5138428D01*
X34276537Y-5192425D01*
X34192425Y-5276537D01*
X34138428Y-5382511D01*
X34138426Y-5382518D01*
X34119819Y-5499999D01*
X34119819Y-5500000D01*
X34138426Y-5617481D01*
X34138428Y-5617488D01*
X34171188Y-5681782D01*
X34192427Y-5723465D01*
X34276535Y-5807573D01*
X34276537Y-5807574D01*
X34382511Y-5861571D01*
X34382513Y-5861571D01*
X34382518Y-5861574D01*
X34500000Y-5880181D01*
X34617482Y-5861574D01*
X34655555Y-5842174D01*
X34715986Y-5832603D01*
X34770503Y-5860380D01*
X34798281Y-5914896D01*
X34799500Y-5930384D01*
X34799500Y-6069615D01*
X34780593Y-6127806D01*
X34731093Y-6163770D01*
X34669907Y-6163770D01*
X34655555Y-6157825D01*
X34617482Y-6138426D01*
X34500000Y-6119819D01*
X34382518Y-6138426D01*
X34382511Y-6138428D01*
X34276537Y-6192425D01*
X34192425Y-6276537D01*
X34138428Y-6382511D01*
X34138426Y-6382518D01*
X34119819Y-6499999D01*
X34119819Y-6500000D01*
X34138426Y-6617481D01*
X34138428Y-6617488D01*
X34171188Y-6681782D01*
X34192427Y-6723465D01*
X34276535Y-6807573D01*
X34276537Y-6807574D01*
X34382511Y-6861571D01*
X34382513Y-6861571D01*
X34382518Y-6861574D01*
X34500000Y-6880181D01*
X34617482Y-6861574D01*
X34655555Y-6842174D01*
X34715986Y-6832603D01*
X34770503Y-6860380D01*
X34798281Y-6914896D01*
X34799500Y-6930384D01*
X34799500Y-32375942D01*
X34780593Y-32434133D01*
X34770504Y-32445946D01*
X32445947Y-34770504D01*
X32391430Y-34798281D01*
X32375943Y-34799500D01*
X18766737Y-34799500D01*
X18708546Y-34780593D01*
X18672582Y-34731093D01*
X18669241Y-34717691D01*
X18664024Y-34688101D01*
X18592179Y-34490709D01*
X18592176Y-34490703D01*
X18592175Y-34490700D01*
X18521339Y-34368011D01*
X18487149Y-34308791D01*
X18486161Y-34307613D01*
X18352131Y-34147884D01*
X18352129Y-34147882D01*
X18352124Y-34147876D01*
X18352117Y-34147870D01*
X18352115Y-34147868D01*
X18191214Y-34012855D01*
X18191212Y-34012853D01*
X18191209Y-34012851D01*
X18175339Y-34003688D01*
X18009299Y-33907824D01*
X18009296Y-33907823D01*
X18009291Y-33907821D01*
X17811899Y-33835976D01*
X17770525Y-33828680D01*
X17605034Y-33799500D01*
X17605030Y-33799500D01*
X17394970Y-33799500D01*
X17394965Y-33799500D01*
X17188101Y-33835976D01*
X16990703Y-33907823D01*
X16990700Y-33907824D01*
X16808792Y-34012850D01*
X16808785Y-34012855D01*
X16647884Y-34147868D01*
X16647868Y-34147884D01*
X16512855Y-34308785D01*
X16512850Y-34308792D01*
X16407824Y-34490700D01*
X16407823Y-34490703D01*
X16335976Y-34688101D01*
X16330759Y-34717691D01*
X16302034Y-34771714D01*
X16247042Y-34798536D01*
X16233263Y-34799500D01*
X2624058Y-34799500D01*
X2565867Y-34780593D01*
X2554054Y-34770504D01*
X229496Y-32445946D01*
X201719Y-32391429D01*
X200500Y-32375942D01*
X200500Y-32000000D01*
X4119819Y-32000000D01*
X4138426Y-32117481D01*
X4138428Y-32117488D01*
X4192425Y-32223462D01*
X4192427Y-32223465D01*
X4276535Y-32307573D01*
X4276537Y-32307574D01*
X4382511Y-32361571D01*
X4382513Y-32361571D01*
X4382518Y-32361574D01*
X4500000Y-32380181D01*
X4617482Y-32361574D01*
X4723465Y-32307573D01*
X4807573Y-32223465D01*
X4861574Y-32117482D01*
X4880181Y-32000000D01*
X5119819Y-32000000D01*
X5138426Y-32117481D01*
X5138428Y-32117488D01*
X5192425Y-32223462D01*
X5192427Y-32223465D01*
X5276535Y-32307573D01*
X5276537Y-32307574D01*
X5382511Y-32361571D01*
X5382513Y-32361571D01*
X5382518Y-32361574D01*
X5500000Y-32380181D01*
X5617482Y-32361574D01*
X5723465Y-32307573D01*
X5807573Y-32223465D01*
X5861574Y-32117482D01*
X5880181Y-32000000D01*
X5861574Y-31882518D01*
X5861571Y-31882513D01*
X5861571Y-31882511D01*
X5807574Y-31776537D01*
X5807573Y-31776535D01*
X5723465Y-31692427D01*
X5723462Y-31692425D01*
X5617488Y-31638428D01*
X5617483Y-31638426D01*
X5617482Y-31638426D01*
X5500000Y-31619819D01*
X5382518Y-31638426D01*
X5382511Y-31638428D01*
X5276537Y-31692425D01*
X5192425Y-31776537D01*
X5138428Y-31882511D01*
X5138426Y-31882518D01*
X5119819Y-31999999D01*
X5119819Y-32000000D01*
X4880181Y-32000000D01*
X4861574Y-31882518D01*
X4861571Y-31882513D01*
X4861571Y-31882511D01*
X4807574Y-31776537D01*
X4807573Y-31776535D01*
X4723465Y-31692427D01*
X4723462Y-31692425D01*
X4617488Y-31638428D01*
X4617483Y-31638426D01*
X4617482Y-31638426D01*
X4500000Y-31619819D01*
X4382518Y-31638426D01*
X4382511Y-31638428D01*
X4276537Y-31692425D01*
X4192425Y-31776537D01*
X4138428Y-31882511D01*
X4138426Y-31882518D01*
X4119819Y-31999999D01*
X4119819Y-32000000D01*
X200500Y-32000000D01*
X200500Y-31250000D01*
X5869819Y-31250000D01*
X5888426Y-31367481D01*
X5888428Y-31367488D01*
X5942425Y-31473462D01*
X5942427Y-31473465D01*
X6026535Y-31557573D01*
X6026537Y-31557574D01*
X6132511Y-31611571D01*
X6132513Y-31611571D01*
X6132518Y-31611574D01*
X6250000Y-31630181D01*
X6367482Y-31611574D01*
X6473465Y-31557573D01*
X6557573Y-31473465D01*
X6611574Y-31367482D01*
X6630181Y-31250000D01*
X6611574Y-31132518D01*
X6611571Y-31132513D01*
X6611571Y-31132511D01*
X6557574Y-31026537D01*
X6557573Y-31026535D01*
X6473465Y-30942427D01*
X6473462Y-30942425D01*
X6367488Y-30888428D01*
X6367483Y-30888426D01*
X6367482Y-30888426D01*
X6250000Y-30869819D01*
X6132518Y-30888426D01*
X6132511Y-30888428D01*
X6026537Y-30942425D01*
X5942425Y-31026537D01*
X5888428Y-31132511D01*
X5888426Y-31132518D01*
X5869819Y-31249999D01*
X5869819Y-31250000D01*
X200500Y-31250000D01*
X200500Y-29750000D01*
X29869819Y-29750000D01*
X29888426Y-29867481D01*
X29888428Y-29867488D01*
X29942425Y-29973462D01*
X29942427Y-29973465D01*
X30026535Y-30057573D01*
X30026537Y-30057574D01*
X30132511Y-30111571D01*
X30132513Y-30111571D01*
X30132518Y-30111574D01*
X30250000Y-30130181D01*
X30367482Y-30111574D01*
X30473465Y-30057573D01*
X30557573Y-29973465D01*
X30611574Y-29867482D01*
X30630181Y-29750000D01*
X30611574Y-29632518D01*
X30611571Y-29632513D01*
X30611571Y-29632511D01*
X30557574Y-29526537D01*
X30557573Y-29526535D01*
X30473465Y-29442427D01*
X30473462Y-29442425D01*
X30367488Y-29388428D01*
X30367483Y-29388426D01*
X30367482Y-29388426D01*
X30250000Y-29369819D01*
X30132518Y-29388426D01*
X30132511Y-29388428D01*
X30026537Y-29442425D01*
X29942425Y-29526537D01*
X29888428Y-29632511D01*
X29888426Y-29632518D01*
X29869819Y-29749999D01*
X29869819Y-29750000D01*
X200500Y-29750000D01*
X200500Y-27750000D01*
X5619819Y-27750000D01*
X5638426Y-27867481D01*
X5638428Y-27867488D01*
X5692425Y-27973462D01*
X5692427Y-27973465D01*
X5776535Y-28057573D01*
X5776537Y-28057574D01*
X5882511Y-28111571D01*
X5882513Y-28111571D01*
X5882518Y-28111574D01*
X6000000Y-28130181D01*
X6117482Y-28111574D01*
X6223465Y-28057573D01*
X6307573Y-27973465D01*
X6361574Y-27867482D01*
X6380181Y-27750000D01*
X8119819Y-27750000D01*
X8138426Y-27867481D01*
X8138428Y-27867488D01*
X8192425Y-27973462D01*
X8192427Y-27973465D01*
X8276535Y-28057573D01*
X8276537Y-28057574D01*
X8382511Y-28111571D01*
X8382513Y-28111571D01*
X8382518Y-28111574D01*
X8500000Y-28130181D01*
X8617482Y-28111574D01*
X8723465Y-28057573D01*
X8807573Y-27973465D01*
X8861574Y-27867482D01*
X8880181Y-27750000D01*
X10619819Y-27750000D01*
X10638426Y-27867481D01*
X10638428Y-27867488D01*
X10692425Y-27973462D01*
X10692427Y-27973465D01*
X10776535Y-28057573D01*
X10776537Y-28057574D01*
X10882511Y-28111571D01*
X10882513Y-28111571D01*
X10882518Y-28111574D01*
X11000000Y-28130181D01*
X11117482Y-28111574D01*
X11223465Y-28057573D01*
X11307573Y-27973465D01*
X11361574Y-27867482D01*
X11380181Y-27750000D01*
X13119819Y-27750000D01*
X13138426Y-27867481D01*
X13138428Y-27867488D01*
X13192425Y-27973462D01*
X13192427Y-27973465D01*
X13276535Y-28057573D01*
X13276537Y-28057574D01*
X13382511Y-28111571D01*
X13382513Y-28111571D01*
X13382518Y-28111574D01*
X13500000Y-28130181D01*
X13617482Y-28111574D01*
X13723465Y-28057573D01*
X13807573Y-27973465D01*
X13861574Y-27867482D01*
X13880181Y-27750000D01*
X15619819Y-27750000D01*
X15638426Y-27867481D01*
X15638428Y-27867488D01*
X15692425Y-27973462D01*
X15692427Y-27973465D01*
X15776535Y-28057573D01*
X15776537Y-28057574D01*
X15882511Y-28111571D01*
X15882513Y-28111571D01*
X15882518Y-28111574D01*
X16000000Y-28130181D01*
X16117482Y-28111574D01*
X16223465Y-28057573D01*
X16307573Y-27973465D01*
X16361574Y-27867482D01*
X16380181Y-27750000D01*
X18119819Y-27750000D01*
X18138426Y-27867481D01*
X18138428Y-27867488D01*
X18192425Y-27973462D01*
X18192427Y-27973465D01*
X18276535Y-28057573D01*
X18276537Y-28057574D01*
X18382511Y-28111571D01*
X18382513Y-28111571D01*
X18382518Y-28111574D01*
X18500000Y-28130181D01*
X18617482Y-28111574D01*
X18723465Y-28057573D01*
X18807573Y-27973465D01*
X18861574Y-27867482D01*
X18880181Y-27750000D01*
X20619819Y-27750000D01*
X20638426Y-27867481D01*
X20638428Y-27867488D01*
X20692425Y-27973462D01*
X20692427Y-27973465D01*
X20776535Y-28057573D01*
X20776537Y-28057574D01*
X20882511Y-28111571D01*
X20882513Y-28111571D01*
X20882518Y-28111574D01*
X21000000Y-28130181D01*
X21117482Y-28111574D01*
X21223465Y-28057573D01*
X21307573Y-27973465D01*
X21361574Y-27867482D01*
X21380181Y-27750000D01*
X23119819Y-27750000D01*
X23138426Y-27867481D01*
X23138428Y-27867488D01*
X23192425Y-27973462D01*
X23192427Y-27973465D01*
X23276535Y-28057573D01*
X23276537Y-28057574D01*
X23382511Y-28111571D01*
X23382513Y-28111571D01*
X23382518Y-28111574D01*
X23500000Y-28130181D01*
X23617482Y-28111574D01*
X23723465Y-28057573D01*
X23807573Y-27973465D01*
X23861574Y-27867482D01*
X23880181Y-27750000D01*
X23861574Y-27632518D01*
X23861571Y-27632513D01*
X23861571Y-27632511D01*
X23807574Y-27526537D01*
X23807573Y-27526535D01*
X23781038Y-27500000D01*
X25119819Y-27500000D01*
X25138426Y-27617481D01*
X25138428Y-27617488D01*
X25192425Y-27723462D01*
X25192427Y-27723465D01*
X25276535Y-27807573D01*
X25276537Y-27807574D01*
X25382511Y-27861571D01*
X25382513Y-27861571D01*
X25382518Y-27861574D01*
X25500000Y-27880181D01*
X25617482Y-27861574D01*
X25723465Y-27807573D01*
X25781038Y-27750000D01*
X28119819Y-27750000D01*
X28138426Y-27867481D01*
X28138428Y-27867488D01*
X28192425Y-27973462D01*
X28192427Y-27973465D01*
X28276535Y-28057573D01*
X28276537Y-28057574D01*
X28382511Y-28111571D01*
X28382513Y-28111571D01*
X28382518Y-28111574D01*
X28500000Y-28130181D01*
X28617482Y-28111574D01*
X28723465Y-28057573D01*
X28807573Y-27973465D01*
X28861574Y-27867482D01*
X28880181Y-27750000D01*
X28861574Y-27632518D01*
X28861571Y-27632513D01*
X28861571Y-27632511D01*
X28807574Y-27526537D01*
X28807573Y-27526535D01*
X28723465Y-27442427D01*
X28723462Y-27442425D01*
X28617488Y-27388428D01*
X28617483Y-27388426D01*
X28617482Y-27388426D01*
X28500000Y-27369819D01*
X28382518Y-27388426D01*
X28382511Y-27388428D01*
X28276537Y-27442425D01*
X28192425Y-27526537D01*
X28138428Y-27632511D01*
X28138426Y-27632518D01*
X28119819Y-27749999D01*
X28119819Y-27750000D01*
X25781038Y-27750000D01*
X25807573Y-27723465D01*
X25861574Y-27617482D01*
X25880181Y-27500000D01*
X25861574Y-27382518D01*
X25861571Y-27382513D01*
X25861571Y-27382511D01*
X25807574Y-27276537D01*
X25807573Y-27276535D01*
X25781038Y-27250000D01*
X29869819Y-27250000D01*
X29888426Y-27367481D01*
X29888428Y-27367488D01*
X29926611Y-27442425D01*
X29942427Y-27473465D01*
X30026535Y-27557573D01*
X30026537Y-27557574D01*
X30132511Y-27611571D01*
X30132513Y-27611571D01*
X30132518Y-27611574D01*
X30250000Y-27630181D01*
X30367482Y-27611574D01*
X30473465Y-27557573D01*
X30557573Y-27473465D01*
X30611574Y-27367482D01*
X30630181Y-27250000D01*
X30611574Y-27132518D01*
X30611571Y-27132513D01*
X30611571Y-27132511D01*
X30557574Y-27026537D01*
X30557573Y-27026535D01*
X30473465Y-26942427D01*
X30473462Y-26942425D01*
X30367488Y-26888428D01*
X30367483Y-26888426D01*
X30367482Y-26888426D01*
X30250000Y-26869819D01*
X30132518Y-26888426D01*
X30132511Y-26888428D01*
X30026537Y-26942425D01*
X29942425Y-27026537D01*
X29888428Y-27132511D01*
X29888426Y-27132518D01*
X29869819Y-27249999D01*
X29869819Y-27250000D01*
X25781038Y-27250000D01*
X25723465Y-27192427D01*
X25723462Y-27192425D01*
X25617488Y-27138428D01*
X25617483Y-27138426D01*
X25617482Y-27138426D01*
X25500000Y-27119819D01*
X25382518Y-27138426D01*
X25382511Y-27138428D01*
X25276537Y-27192425D01*
X25192425Y-27276537D01*
X25138428Y-27382511D01*
X25138426Y-27382518D01*
X25119819Y-27499999D01*
X25119819Y-27500000D01*
X23781038Y-27500000D01*
X23723465Y-27442427D01*
X23723462Y-27442425D01*
X23617488Y-27388428D01*
X23617483Y-27388426D01*
X23617482Y-27388426D01*
X23500000Y-27369819D01*
X23382518Y-27388426D01*
X23382511Y-27388428D01*
X23276537Y-27442425D01*
X23192425Y-27526537D01*
X23138428Y-27632511D01*
X23138426Y-27632518D01*
X23119819Y-27749999D01*
X23119819Y-27750000D01*
X21380181Y-27750000D01*
X21361574Y-27632518D01*
X21361571Y-27632513D01*
X21361571Y-27632511D01*
X21307574Y-27526537D01*
X21307573Y-27526535D01*
X21223465Y-27442427D01*
X21223462Y-27442425D01*
X21117488Y-27388428D01*
X21117483Y-27388426D01*
X21117482Y-27388426D01*
X21000000Y-27369819D01*
X20882518Y-27388426D01*
X20882511Y-27388428D01*
X20776537Y-27442425D01*
X20692425Y-27526537D01*
X20638428Y-27632511D01*
X20638426Y-27632518D01*
X20619819Y-27749999D01*
X20619819Y-27750000D01*
X18880181Y-27750000D01*
X18861574Y-27632518D01*
X18861571Y-27632513D01*
X18861571Y-27632511D01*
X18807574Y-27526537D01*
X18807573Y-27526535D01*
X18723465Y-27442427D01*
X18723462Y-27442425D01*
X18617488Y-27388428D01*
X18617483Y-27388426D01*
X18617482Y-27388426D01*
X18500000Y-27369819D01*
X18382518Y-27388426D01*
X18382511Y-27388428D01*
X18276537Y-27442425D01*
X18192425Y-27526537D01*
X18138428Y-27632511D01*
X18138426Y-27632518D01*
X18119819Y-27749999D01*
X18119819Y-27750000D01*
X16380181Y-27750000D01*
X16361574Y-27632518D01*
X16361571Y-27632513D01*
X16361571Y-27632511D01*
X16307574Y-27526537D01*
X16307573Y-27526535D01*
X16223465Y-27442427D01*
X16223462Y-27442425D01*
X16117488Y-27388428D01*
X16117483Y-27388426D01*
X16117482Y-27388426D01*
X16000000Y-27369819D01*
X15882518Y-27388426D01*
X15882511Y-27388428D01*
X15776537Y-27442425D01*
X15692425Y-27526537D01*
X15638428Y-27632511D01*
X15638426Y-27632518D01*
X15619819Y-27749999D01*
X15619819Y-27750000D01*
X13880181Y-27750000D01*
X13861574Y-27632518D01*
X13861571Y-27632513D01*
X13861571Y-27632511D01*
X13807574Y-27526537D01*
X13807573Y-27526535D01*
X13723465Y-27442427D01*
X13723462Y-27442425D01*
X13617488Y-27388428D01*
X13617483Y-27388426D01*
X13617482Y-27388426D01*
X13500000Y-27369819D01*
X13382518Y-27388426D01*
X13382511Y-27388428D01*
X13276537Y-27442425D01*
X13192425Y-27526537D01*
X13138428Y-27632511D01*
X13138426Y-27632518D01*
X13119819Y-27749999D01*
X13119819Y-27750000D01*
X11380181Y-27750000D01*
X11361574Y-27632518D01*
X11361571Y-27632513D01*
X11361571Y-27632511D01*
X11307574Y-27526537D01*
X11307573Y-27526535D01*
X11223465Y-27442427D01*
X11223462Y-27442425D01*
X11117488Y-27388428D01*
X11117483Y-27388426D01*
X11117482Y-27388426D01*
X11000000Y-27369819D01*
X10882518Y-27388426D01*
X10882511Y-27388428D01*
X10776537Y-27442425D01*
X10692425Y-27526537D01*
X10638428Y-27632511D01*
X10638426Y-27632518D01*
X10619819Y-27749999D01*
X10619819Y-27750000D01*
X8880181Y-27750000D01*
X8861574Y-27632518D01*
X8861571Y-27632513D01*
X8861571Y-27632511D01*
X8807574Y-27526537D01*
X8807573Y-27526535D01*
X8723465Y-27442427D01*
X8723462Y-27442425D01*
X8617488Y-27388428D01*
X8617483Y-27388426D01*
X8617482Y-27388426D01*
X8500000Y-27369819D01*
X8382518Y-27388426D01*
X8382511Y-27388428D01*
X8276537Y-27442425D01*
X8192425Y-27526537D01*
X8138428Y-27632511D01*
X8138426Y-27632518D01*
X8119819Y-27749999D01*
X8119819Y-27750000D01*
X6380181Y-27750000D01*
X6361574Y-27632518D01*
X6361571Y-27632513D01*
X6361571Y-27632511D01*
X6307574Y-27526537D01*
X6307573Y-27526535D01*
X6223465Y-27442427D01*
X6223462Y-27442425D01*
X6117488Y-27388428D01*
X6117483Y-27388426D01*
X6117482Y-27388426D01*
X6000000Y-27369819D01*
X5882518Y-27388426D01*
X5882511Y-27388428D01*
X5776537Y-27442425D01*
X5692425Y-27526537D01*
X5638428Y-27632511D01*
X5638426Y-27632518D01*
X5619819Y-27749999D01*
X5619819Y-27750000D01*
X200500Y-27750000D01*
X200500Y-25250000D01*
X5619819Y-25250000D01*
X5638426Y-25367481D01*
X5638428Y-25367488D01*
X5692425Y-25473462D01*
X5692427Y-25473465D01*
X5776535Y-25557573D01*
X5776537Y-25557574D01*
X5882511Y-25611571D01*
X5882513Y-25611571D01*
X5882518Y-25611574D01*
X6000000Y-25630181D01*
X6117482Y-25611574D01*
X6223465Y-25557573D01*
X6307573Y-25473465D01*
X6361574Y-25367482D01*
X6380181Y-25250000D01*
X8119819Y-25250000D01*
X8138426Y-25367481D01*
X8138428Y-25367488D01*
X8192425Y-25473462D01*
X8192427Y-25473465D01*
X8276535Y-25557573D01*
X8276537Y-25557574D01*
X8382511Y-25611571D01*
X8382513Y-25611571D01*
X8382518Y-25611574D01*
X8500000Y-25630181D01*
X8617482Y-25611574D01*
X8723465Y-25557573D01*
X8807573Y-25473465D01*
X8861574Y-25367482D01*
X8880181Y-25250000D01*
X10619819Y-25250000D01*
X10638426Y-25367481D01*
X10638428Y-25367488D01*
X10692425Y-25473462D01*
X10692427Y-25473465D01*
X10776535Y-25557573D01*
X10776537Y-25557574D01*
X10882511Y-25611571D01*
X10882513Y-25611571D01*
X10882518Y-25611574D01*
X11000000Y-25630181D01*
X11117482Y-25611574D01*
X11223465Y-25557573D01*
X11307573Y-25473465D01*
X11361574Y-25367482D01*
X11380181Y-25250000D01*
X13119819Y-25250000D01*
X13138426Y-25367481D01*
X13138428Y-25367488D01*
X13192425Y-25473462D01*
X13192427Y-25473465D01*
X13276535Y-25557573D01*
X13276537Y-25557574D01*
X13382511Y-25611571D01*
X13382513Y-25611571D01*
X13382518Y-25611574D01*
X13500000Y-25630181D01*
X13617482Y-25611574D01*
X13723465Y-25557573D01*
X13807573Y-25473465D01*
X13861574Y-25367482D01*
X13880181Y-25250000D01*
X15619819Y-25250000D01*
X15638426Y-25367481D01*
X15638428Y-25367488D01*
X15692425Y-25473462D01*
X15692427Y-25473465D01*
X15776535Y-25557573D01*
X15776537Y-25557574D01*
X15882511Y-25611571D01*
X15882513Y-25611571D01*
X15882518Y-25611574D01*
X16000000Y-25630181D01*
X16117482Y-25611574D01*
X16223465Y-25557573D01*
X16307573Y-25473465D01*
X16361574Y-25367482D01*
X16380181Y-25250000D01*
X18119819Y-25250000D01*
X18138426Y-25367481D01*
X18138428Y-25367488D01*
X18192425Y-25473462D01*
X18192427Y-25473465D01*
X18276535Y-25557573D01*
X18276537Y-25557574D01*
X18382511Y-25611571D01*
X18382513Y-25611571D01*
X18382518Y-25611574D01*
X18500000Y-25630181D01*
X18617482Y-25611574D01*
X18723465Y-25557573D01*
X18807573Y-25473465D01*
X18861574Y-25367482D01*
X18880181Y-25250000D01*
X20619819Y-25250000D01*
X20638426Y-25367481D01*
X20638428Y-25367488D01*
X20692425Y-25473462D01*
X20692427Y-25473465D01*
X20776535Y-25557573D01*
X20776537Y-25557574D01*
X20882511Y-25611571D01*
X20882513Y-25611571D01*
X20882518Y-25611574D01*
X21000000Y-25630181D01*
X21117482Y-25611574D01*
X21223465Y-25557573D01*
X21307573Y-25473465D01*
X21361574Y-25367482D01*
X21380181Y-25250000D01*
X23119819Y-25250000D01*
X23138426Y-25367481D01*
X23138428Y-25367488D01*
X23192425Y-25473462D01*
X23192427Y-25473465D01*
X23276535Y-25557573D01*
X23276537Y-25557574D01*
X23382511Y-25611571D01*
X23382513Y-25611571D01*
X23382518Y-25611574D01*
X23500000Y-25630181D01*
X23617482Y-25611574D01*
X23723465Y-25557573D01*
X23807573Y-25473465D01*
X23861574Y-25367482D01*
X23880181Y-25250000D01*
X23861574Y-25132518D01*
X23861571Y-25132513D01*
X23861571Y-25132511D01*
X23807574Y-25026537D01*
X23807573Y-25026535D01*
X23781038Y-25000000D01*
X25119819Y-25000000D01*
X25138426Y-25117481D01*
X25138428Y-25117488D01*
X25192425Y-25223462D01*
X25192427Y-25223465D01*
X25276535Y-25307573D01*
X25276537Y-25307574D01*
X25382511Y-25361571D01*
X25382513Y-25361571D01*
X25382518Y-25361574D01*
X25500000Y-25380181D01*
X25617482Y-25361574D01*
X25723465Y-25307573D01*
X25781038Y-25250000D01*
X28119819Y-25250000D01*
X28138426Y-25367481D01*
X28138428Y-25367488D01*
X28192425Y-25473462D01*
X28192427Y-25473465D01*
X28276535Y-25557573D01*
X28276537Y-25557574D01*
X28382511Y-25611571D01*
X28382513Y-25611571D01*
X28382518Y-25611574D01*
X28500000Y-25630181D01*
X28617482Y-25611574D01*
X28723465Y-25557573D01*
X28807573Y-25473465D01*
X28861574Y-25367482D01*
X28880181Y-25250000D01*
X28861574Y-25132518D01*
X28861571Y-25132513D01*
X28861571Y-25132511D01*
X28807574Y-25026537D01*
X28807573Y-25026535D01*
X28723465Y-24942427D01*
X28723462Y-24942425D01*
X28617488Y-24888428D01*
X28617483Y-24888426D01*
X28617482Y-24888426D01*
X28500000Y-24869819D01*
X28382518Y-24888426D01*
X28382511Y-24888428D01*
X28276537Y-24942425D01*
X28192425Y-25026537D01*
X28138428Y-25132511D01*
X28138426Y-25132518D01*
X28119819Y-25249999D01*
X28119819Y-25250000D01*
X25781038Y-25250000D01*
X25807573Y-25223465D01*
X25861574Y-25117482D01*
X25880181Y-25000000D01*
X25861574Y-24882518D01*
X25861571Y-24882513D01*
X25861571Y-24882511D01*
X25807574Y-24776537D01*
X25807573Y-24776535D01*
X25781038Y-24750000D01*
X29869819Y-24750000D01*
X29888426Y-24867481D01*
X29888428Y-24867488D01*
X29926611Y-24942425D01*
X29942427Y-24973465D01*
X30026535Y-25057573D01*
X30026537Y-25057574D01*
X30132511Y-25111571D01*
X30132513Y-25111571D01*
X30132518Y-25111574D01*
X30250000Y-25130181D01*
X30367482Y-25111574D01*
X30473465Y-25057573D01*
X30557573Y-24973465D01*
X30611574Y-24867482D01*
X30630181Y-24750000D01*
X30611574Y-24632518D01*
X30611571Y-24632513D01*
X30611571Y-24632511D01*
X30557574Y-24526537D01*
X30557573Y-24526535D01*
X30473465Y-24442427D01*
X30473462Y-24442425D01*
X30367488Y-24388428D01*
X30367483Y-24388426D01*
X30367482Y-24388426D01*
X30250000Y-24369819D01*
X30132518Y-24388426D01*
X30132511Y-24388428D01*
X30026537Y-24442425D01*
X29942425Y-24526537D01*
X29888428Y-24632511D01*
X29888426Y-24632518D01*
X29869819Y-24749999D01*
X29869819Y-24750000D01*
X25781038Y-24750000D01*
X25723465Y-24692427D01*
X25723462Y-24692425D01*
X25617488Y-24638428D01*
X25617483Y-24638426D01*
X25617482Y-24638426D01*
X25500000Y-24619819D01*
X25382518Y-24638426D01*
X25382511Y-24638428D01*
X25276537Y-24692425D01*
X25192425Y-24776537D01*
X25138428Y-24882511D01*
X25138426Y-24882518D01*
X25119819Y-24999999D01*
X25119819Y-25000000D01*
X23781038Y-25000000D01*
X23723465Y-24942427D01*
X23723462Y-24942425D01*
X23617488Y-24888428D01*
X23617483Y-24888426D01*
X23617482Y-24888426D01*
X23500000Y-24869819D01*
X23382518Y-24888426D01*
X23382511Y-24888428D01*
X23276537Y-24942425D01*
X23192425Y-25026537D01*
X23138428Y-25132511D01*
X23138426Y-25132518D01*
X23119819Y-25249999D01*
X23119819Y-25250000D01*
X21380181Y-25250000D01*
X21361574Y-25132518D01*
X21361571Y-25132513D01*
X21361571Y-25132511D01*
X21307574Y-25026537D01*
X21307573Y-25026535D01*
X21223465Y-24942427D01*
X21223462Y-24942425D01*
X21117488Y-24888428D01*
X21117483Y-24888426D01*
X21117482Y-24888426D01*
X21000000Y-24869819D01*
X20882518Y-24888426D01*
X20882511Y-24888428D01*
X20776537Y-24942425D01*
X20692425Y-25026537D01*
X20638428Y-25132511D01*
X20638426Y-25132518D01*
X20619819Y-25249999D01*
X20619819Y-25250000D01*
X18880181Y-25250000D01*
X18861574Y-25132518D01*
X18861571Y-25132513D01*
X18861571Y-25132511D01*
X18807574Y-25026537D01*
X18807573Y-25026535D01*
X18723465Y-24942427D01*
X18723462Y-24942425D01*
X18617488Y-24888428D01*
X18617483Y-24888426D01*
X18617482Y-24888426D01*
X18500000Y-24869819D01*
X18382518Y-24888426D01*
X18382511Y-24888428D01*
X18276537Y-24942425D01*
X18192425Y-25026537D01*
X18138428Y-25132511D01*
X18138426Y-25132518D01*
X18119819Y-25249999D01*
X18119819Y-25250000D01*
X16380181Y-25250000D01*
X16361574Y-25132518D01*
X16361571Y-25132513D01*
X16361571Y-25132511D01*
X16307574Y-25026537D01*
X16307573Y-25026535D01*
X16223465Y-24942427D01*
X16223462Y-24942425D01*
X16117488Y-24888428D01*
X16117483Y-24888426D01*
X16117482Y-24888426D01*
X16000000Y-24869819D01*
X15882518Y-24888426D01*
X15882511Y-24888428D01*
X15776537Y-24942425D01*
X15692425Y-25026537D01*
X15638428Y-25132511D01*
X15638426Y-25132518D01*
X15619819Y-25249999D01*
X15619819Y-25250000D01*
X13880181Y-25250000D01*
X13861574Y-25132518D01*
X13861571Y-25132513D01*
X13861571Y-25132511D01*
X13807574Y-25026537D01*
X13807573Y-25026535D01*
X13723465Y-24942427D01*
X13723462Y-24942425D01*
X13617488Y-24888428D01*
X13617483Y-24888426D01*
X13617482Y-24888426D01*
X13500000Y-24869819D01*
X13382518Y-24888426D01*
X13382511Y-24888428D01*
X13276537Y-24942425D01*
X13192425Y-25026537D01*
X13138428Y-25132511D01*
X13138426Y-25132518D01*
X13119819Y-25249999D01*
X13119819Y-25250000D01*
X11380181Y-25250000D01*
X11361574Y-25132518D01*
X11361571Y-25132513D01*
X11361571Y-25132511D01*
X11307574Y-25026537D01*
X11307573Y-25026535D01*
X11223465Y-24942427D01*
X11223462Y-24942425D01*
X11117488Y-24888428D01*
X11117483Y-24888426D01*
X11117482Y-24888426D01*
X11000000Y-24869819D01*
X10882518Y-24888426D01*
X10882511Y-24888428D01*
X10776537Y-24942425D01*
X10692425Y-25026537D01*
X10638428Y-25132511D01*
X10638426Y-25132518D01*
X10619819Y-25249999D01*
X10619819Y-25250000D01*
X8880181Y-25250000D01*
X8861574Y-25132518D01*
X8861571Y-25132513D01*
X8861571Y-25132511D01*
X8807574Y-25026537D01*
X8807573Y-25026535D01*
X8723465Y-24942427D01*
X8723462Y-24942425D01*
X8617488Y-24888428D01*
X8617483Y-24888426D01*
X8617482Y-24888426D01*
X8500000Y-24869819D01*
X8382518Y-24888426D01*
X8382511Y-24888428D01*
X8276537Y-24942425D01*
X8192425Y-25026537D01*
X8138428Y-25132511D01*
X8138426Y-25132518D01*
X8119819Y-25249999D01*
X8119819Y-25250000D01*
X6380181Y-25250000D01*
X6361574Y-25132518D01*
X6361571Y-25132513D01*
X6361571Y-25132511D01*
X6307574Y-25026537D01*
X6307573Y-25026535D01*
X6223465Y-24942427D01*
X6223462Y-24942425D01*
X6117488Y-24888428D01*
X6117483Y-24888426D01*
X6117482Y-24888426D01*
X6000000Y-24869819D01*
X5882518Y-24888426D01*
X5882511Y-24888428D01*
X5776537Y-24942425D01*
X5692425Y-25026537D01*
X5638428Y-25132511D01*
X5638426Y-25132518D01*
X5619819Y-25249999D01*
X5619819Y-25250000D01*
X200500Y-25250000D01*
X200500Y-22750000D01*
X5619819Y-22750000D01*
X5638426Y-22867481D01*
X5638428Y-22867488D01*
X5692425Y-22973462D01*
X5692427Y-22973465D01*
X5776535Y-23057573D01*
X5776537Y-23057574D01*
X5882511Y-23111571D01*
X5882513Y-23111571D01*
X5882518Y-23111574D01*
X6000000Y-23130181D01*
X6117482Y-23111574D01*
X6223465Y-23057573D01*
X6307573Y-22973465D01*
X6361574Y-22867482D01*
X6380181Y-22750000D01*
X8119819Y-22750000D01*
X8138426Y-22867481D01*
X8138428Y-22867488D01*
X8192425Y-22973462D01*
X8192427Y-22973465D01*
X8276535Y-23057573D01*
X8276537Y-23057574D01*
X8382511Y-23111571D01*
X8382513Y-23111571D01*
X8382518Y-23111574D01*
X8500000Y-23130181D01*
X8617482Y-23111574D01*
X8723465Y-23057573D01*
X8807573Y-22973465D01*
X8861574Y-22867482D01*
X8880181Y-22750000D01*
X10619819Y-22750000D01*
X10638426Y-22867481D01*
X10638428Y-22867488D01*
X10692425Y-22973462D01*
X10692427Y-22973465D01*
X10776535Y-23057573D01*
X10776537Y-23057574D01*
X10882511Y-23111571D01*
X10882513Y-23111571D01*
X10882518Y-23111574D01*
X11000000Y-23130181D01*
X11117482Y-23111574D01*
X11223465Y-23057573D01*
X11307573Y-22973465D01*
X11361574Y-22867482D01*
X11380181Y-22750000D01*
X13119819Y-22750000D01*
X13138426Y-22867481D01*
X13138428Y-22867488D01*
X13192425Y-22973462D01*
X13192427Y-22973465D01*
X13276535Y-23057573D01*
X13276537Y-23057574D01*
X13382511Y-23111571D01*
X13382513Y-23111571D01*
X13382518Y-23111574D01*
X13500000Y-23130181D01*
X13617482Y-23111574D01*
X13723465Y-23057573D01*
X13807573Y-22973465D01*
X13861574Y-22867482D01*
X13880181Y-22750000D01*
X15619819Y-22750000D01*
X15638426Y-22867481D01*
X15638428Y-22867488D01*
X15692425Y-22973462D01*
X15692427Y-22973465D01*
X15776535Y-23057573D01*
X15776537Y-23057574D01*
X15882511Y-23111571D01*
X15882513Y-23111571D01*
X15882518Y-23111574D01*
X16000000Y-23130181D01*
X16117482Y-23111574D01*
X16223465Y-23057573D01*
X16307573Y-22973465D01*
X16361574Y-22867482D01*
X16380181Y-22750000D01*
X18119819Y-22750000D01*
X18138426Y-22867481D01*
X18138428Y-22867488D01*
X18192425Y-22973462D01*
X18192427Y-22973465D01*
X18276535Y-23057573D01*
X18276537Y-23057574D01*
X18382511Y-23111571D01*
X18382513Y-23111571D01*
X18382518Y-23111574D01*
X18500000Y-23130181D01*
X18617482Y-23111574D01*
X18723465Y-23057573D01*
X18807573Y-22973465D01*
X18861574Y-22867482D01*
X18880181Y-22750000D01*
X20619819Y-22750000D01*
X20638426Y-22867481D01*
X20638428Y-22867488D01*
X20692425Y-22973462D01*
X20692427Y-22973465D01*
X20776535Y-23057573D01*
X20776537Y-23057574D01*
X20882511Y-23111571D01*
X20882513Y-23111571D01*
X20882518Y-23111574D01*
X21000000Y-23130181D01*
X21117482Y-23111574D01*
X21223465Y-23057573D01*
X21307573Y-22973465D01*
X21361574Y-22867482D01*
X21380181Y-22750000D01*
X23119819Y-22750000D01*
X23138426Y-22867481D01*
X23138428Y-22867488D01*
X23192425Y-22973462D01*
X23192427Y-22973465D01*
X23276535Y-23057573D01*
X23276537Y-23057574D01*
X23382511Y-23111571D01*
X23382513Y-23111571D01*
X23382518Y-23111574D01*
X23500000Y-23130181D01*
X23617482Y-23111574D01*
X23723465Y-23057573D01*
X23807573Y-22973465D01*
X23861574Y-22867482D01*
X23880181Y-22750000D01*
X23861574Y-22632518D01*
X23861571Y-22632513D01*
X23861571Y-22632511D01*
X23807574Y-22526537D01*
X23807573Y-22526535D01*
X23781038Y-22500000D01*
X25119819Y-22500000D01*
X25138426Y-22617481D01*
X25138428Y-22617488D01*
X25192425Y-22723462D01*
X25192427Y-22723465D01*
X25276535Y-22807573D01*
X25276537Y-22807574D01*
X25382511Y-22861571D01*
X25382513Y-22861571D01*
X25382518Y-22861574D01*
X25500000Y-22880181D01*
X25617482Y-22861574D01*
X25723465Y-22807573D01*
X25781038Y-22750000D01*
X28119819Y-22750000D01*
X28138426Y-22867481D01*
X28138428Y-22867488D01*
X28192425Y-22973462D01*
X28192427Y-22973465D01*
X28276535Y-23057573D01*
X28276537Y-23057574D01*
X28382511Y-23111571D01*
X28382513Y-23111571D01*
X28382518Y-23111574D01*
X28500000Y-23130181D01*
X28617482Y-23111574D01*
X28723465Y-23057573D01*
X28807573Y-22973465D01*
X28861574Y-22867482D01*
X28880181Y-22750000D01*
X28861574Y-22632518D01*
X28861571Y-22632513D01*
X28861571Y-22632511D01*
X28807574Y-22526537D01*
X28807573Y-22526535D01*
X28723465Y-22442427D01*
X28723462Y-22442425D01*
X28617488Y-22388428D01*
X28617483Y-22388426D01*
X28617482Y-22388426D01*
X28500000Y-22369819D01*
X28382518Y-22388426D01*
X28382511Y-22388428D01*
X28276537Y-22442425D01*
X28192425Y-22526537D01*
X28138428Y-22632511D01*
X28138426Y-22632518D01*
X28119819Y-22749999D01*
X28119819Y-22750000D01*
X25781038Y-22750000D01*
X25807573Y-22723465D01*
X25861574Y-22617482D01*
X25880181Y-22500000D01*
X25861574Y-22382518D01*
X25861571Y-22382513D01*
X25861571Y-22382511D01*
X25807574Y-22276537D01*
X25807573Y-22276535D01*
X25781038Y-22250000D01*
X29869819Y-22250000D01*
X29888426Y-22367481D01*
X29888428Y-22367488D01*
X29926611Y-22442425D01*
X29942427Y-22473465D01*
X30026535Y-22557573D01*
X30026537Y-22557574D01*
X30132511Y-22611571D01*
X30132513Y-22611571D01*
X30132518Y-22611574D01*
X30250000Y-22630181D01*
X30367482Y-22611574D01*
X30473465Y-22557573D01*
X30557573Y-22473465D01*
X30611574Y-22367482D01*
X30630181Y-22250000D01*
X30611574Y-22132518D01*
X30611571Y-22132513D01*
X30611571Y-22132511D01*
X30557574Y-22026537D01*
X30557573Y-22026535D01*
X30473465Y-21942427D01*
X30473462Y-21942425D01*
X30367488Y-21888428D01*
X30367483Y-21888426D01*
X30367482Y-21888426D01*
X30250000Y-21869819D01*
X30132518Y-21888426D01*
X30132511Y-21888428D01*
X30026537Y-21942425D01*
X29942425Y-22026537D01*
X29888428Y-22132511D01*
X29888426Y-22132518D01*
X29869819Y-22249999D01*
X29869819Y-22250000D01*
X25781038Y-22250000D01*
X25723465Y-22192427D01*
X25723462Y-22192425D01*
X25617488Y-22138428D01*
X25617483Y-22138426D01*
X25617482Y-22138426D01*
X25500000Y-22119819D01*
X25382518Y-22138426D01*
X25382511Y-22138428D01*
X25276537Y-22192425D01*
X25192425Y-22276537D01*
X25138428Y-22382511D01*
X25138426Y-22382518D01*
X25119819Y-22499999D01*
X25119819Y-22500000D01*
X23781038Y-22500000D01*
X23723465Y-22442427D01*
X23723462Y-22442425D01*
X23617488Y-22388428D01*
X23617483Y-22388426D01*
X23617482Y-22388426D01*
X23500000Y-22369819D01*
X23382518Y-22388426D01*
X23382511Y-22388428D01*
X23276537Y-22442425D01*
X23192425Y-22526537D01*
X23138428Y-22632511D01*
X23138426Y-22632518D01*
X23119819Y-22749999D01*
X23119819Y-22750000D01*
X21380181Y-22750000D01*
X21361574Y-22632518D01*
X21361571Y-22632513D01*
X21361571Y-22632511D01*
X21307574Y-22526537D01*
X21307573Y-22526535D01*
X21223465Y-22442427D01*
X21223462Y-22442425D01*
X21117488Y-22388428D01*
X21117483Y-22388426D01*
X21117482Y-22388426D01*
X21000000Y-22369819D01*
X20882518Y-22388426D01*
X20882511Y-22388428D01*
X20776537Y-22442425D01*
X20692425Y-22526537D01*
X20638428Y-22632511D01*
X20638426Y-22632518D01*
X20619819Y-22749999D01*
X20619819Y-22750000D01*
X18880181Y-22750000D01*
X18861574Y-22632518D01*
X18861571Y-22632513D01*
X18861571Y-22632511D01*
X18807574Y-22526537D01*
X18807573Y-22526535D01*
X18723465Y-22442427D01*
X18723462Y-22442425D01*
X18617488Y-22388428D01*
X18617483Y-22388426D01*
X18617482Y-22388426D01*
X18500000Y-22369819D01*
X18382518Y-22388426D01*
X18382511Y-22388428D01*
X18276537Y-22442425D01*
X18192425Y-22526537D01*
X18138428Y-22632511D01*
X18138426Y-22632518D01*
X18119819Y-22749999D01*
X18119819Y-22750000D01*
X16380181Y-22750000D01*
X16361574Y-22632518D01*
X16361571Y-22632513D01*
X16361571Y-22632511D01*
X16307574Y-22526537D01*
X16307573Y-22526535D01*
X16223465Y-22442427D01*
X16223462Y-22442425D01*
X16117488Y-22388428D01*
X16117483Y-22388426D01*
X16117482Y-22388426D01*
X16000000Y-22369819D01*
X15882518Y-22388426D01*
X15882511Y-22388428D01*
X15776537Y-22442425D01*
X15692425Y-22526537D01*
X15638428Y-22632511D01*
X15638426Y-22632518D01*
X15619819Y-22749999D01*
X15619819Y-22750000D01*
X13880181Y-22750000D01*
X13861574Y-22632518D01*
X13861571Y-22632513D01*
X13861571Y-22632511D01*
X13807574Y-22526537D01*
X13807573Y-22526535D01*
X13723465Y-22442427D01*
X13723462Y-22442425D01*
X13617488Y-22388428D01*
X13617483Y-22388426D01*
X13617482Y-22388426D01*
X13500000Y-22369819D01*
X13382518Y-22388426D01*
X13382511Y-22388428D01*
X13276537Y-22442425D01*
X13192425Y-22526537D01*
X13138428Y-22632511D01*
X13138426Y-22632518D01*
X13119819Y-22749999D01*
X13119819Y-22750000D01*
X11380181Y-22750000D01*
X11361574Y-22632518D01*
X11361571Y-22632513D01*
X11361571Y-22632511D01*
X11307574Y-22526537D01*
X11307573Y-22526535D01*
X11223465Y-22442427D01*
X11223462Y-22442425D01*
X11117488Y-22388428D01*
X11117483Y-22388426D01*
X11117482Y-22388426D01*
X11000000Y-22369819D01*
X10882518Y-22388426D01*
X10882511Y-22388428D01*
X10776537Y-22442425D01*
X10692425Y-22526537D01*
X10638428Y-22632511D01*
X10638426Y-22632518D01*
X10619819Y-22749999D01*
X10619819Y-22750000D01*
X8880181Y-22750000D01*
X8861574Y-22632518D01*
X8861571Y-22632513D01*
X8861571Y-22632511D01*
X8807574Y-22526537D01*
X8807573Y-22526535D01*
X8723465Y-22442427D01*
X8723462Y-22442425D01*
X8617488Y-22388428D01*
X8617483Y-22388426D01*
X8617482Y-22388426D01*
X8500000Y-22369819D01*
X8382518Y-22388426D01*
X8382511Y-22388428D01*
X8276537Y-22442425D01*
X8192425Y-22526537D01*
X8138428Y-22632511D01*
X8138426Y-22632518D01*
X8119819Y-22749999D01*
X8119819Y-22750000D01*
X6380181Y-22750000D01*
X6361574Y-22632518D01*
X6361571Y-22632513D01*
X6361571Y-22632511D01*
X6307574Y-22526537D01*
X6307573Y-22526535D01*
X6223465Y-22442427D01*
X6223462Y-22442425D01*
X6117488Y-22388428D01*
X6117483Y-22388426D01*
X6117482Y-22388426D01*
X6000000Y-22369819D01*
X5882518Y-22388426D01*
X5882511Y-22388428D01*
X5776537Y-22442425D01*
X5692425Y-22526537D01*
X5638428Y-22632511D01*
X5638426Y-22632518D01*
X5619819Y-22749999D01*
X5619819Y-22750000D01*
X200500Y-22750000D01*
X200500Y-20250000D01*
X5619819Y-20250000D01*
X5638426Y-20367481D01*
X5638428Y-20367488D01*
X5692425Y-20473462D01*
X5692427Y-20473465D01*
X5776535Y-20557573D01*
X5776537Y-20557574D01*
X5882511Y-20611571D01*
X5882513Y-20611571D01*
X5882518Y-20611574D01*
X6000000Y-20630181D01*
X6117482Y-20611574D01*
X6223465Y-20557573D01*
X6307573Y-20473465D01*
X6361574Y-20367482D01*
X6380181Y-20250000D01*
X8119819Y-20250000D01*
X8138426Y-20367481D01*
X8138428Y-20367488D01*
X8192425Y-20473462D01*
X8192427Y-20473465D01*
X8276535Y-20557573D01*
X8276537Y-20557574D01*
X8382511Y-20611571D01*
X8382513Y-20611571D01*
X8382518Y-20611574D01*
X8500000Y-20630181D01*
X8617482Y-20611574D01*
X8723465Y-20557573D01*
X8807573Y-20473465D01*
X8861574Y-20367482D01*
X8880181Y-20250000D01*
X10619819Y-20250000D01*
X10638426Y-20367481D01*
X10638428Y-20367488D01*
X10692425Y-20473462D01*
X10692427Y-20473465D01*
X10776535Y-20557573D01*
X10776537Y-20557574D01*
X10882511Y-20611571D01*
X10882513Y-20611571D01*
X10882518Y-20611574D01*
X11000000Y-20630181D01*
X11117482Y-20611574D01*
X11223465Y-20557573D01*
X11307573Y-20473465D01*
X11361574Y-20367482D01*
X11380181Y-20250000D01*
X13119819Y-20250000D01*
X13138426Y-20367481D01*
X13138428Y-20367488D01*
X13192425Y-20473462D01*
X13192427Y-20473465D01*
X13276535Y-20557573D01*
X13276537Y-20557574D01*
X13382511Y-20611571D01*
X13382513Y-20611571D01*
X13382518Y-20611574D01*
X13500000Y-20630181D01*
X13617482Y-20611574D01*
X13723465Y-20557573D01*
X13807573Y-20473465D01*
X13861574Y-20367482D01*
X13880181Y-20250000D01*
X15619819Y-20250000D01*
X15638426Y-20367481D01*
X15638428Y-20367488D01*
X15692425Y-20473462D01*
X15692427Y-20473465D01*
X15776535Y-20557573D01*
X15776537Y-20557574D01*
X15882511Y-20611571D01*
X15882513Y-20611571D01*
X15882518Y-20611574D01*
X16000000Y-20630181D01*
X16117482Y-20611574D01*
X16223465Y-20557573D01*
X16307573Y-20473465D01*
X16361574Y-20367482D01*
X16380181Y-20250000D01*
X18119819Y-20250000D01*
X18138426Y-20367481D01*
X18138428Y-20367488D01*
X18192425Y-20473462D01*
X18192427Y-20473465D01*
X18276535Y-20557573D01*
X18276537Y-20557574D01*
X18382511Y-20611571D01*
X18382513Y-20611571D01*
X18382518Y-20611574D01*
X18500000Y-20630181D01*
X18617482Y-20611574D01*
X18723465Y-20557573D01*
X18807573Y-20473465D01*
X18861574Y-20367482D01*
X18880181Y-20250000D01*
X20619819Y-20250000D01*
X20638426Y-20367481D01*
X20638428Y-20367488D01*
X20692425Y-20473462D01*
X20692427Y-20473465D01*
X20776535Y-20557573D01*
X20776537Y-20557574D01*
X20882511Y-20611571D01*
X20882513Y-20611571D01*
X20882518Y-20611574D01*
X21000000Y-20630181D01*
X21117482Y-20611574D01*
X21223465Y-20557573D01*
X21307573Y-20473465D01*
X21361574Y-20367482D01*
X21380181Y-20250000D01*
X23119819Y-20250000D01*
X23138426Y-20367481D01*
X23138428Y-20367488D01*
X23192425Y-20473462D01*
X23192427Y-20473465D01*
X23276535Y-20557573D01*
X23276537Y-20557574D01*
X23382511Y-20611571D01*
X23382513Y-20611571D01*
X23382518Y-20611574D01*
X23500000Y-20630181D01*
X23617482Y-20611574D01*
X23723465Y-20557573D01*
X23807573Y-20473465D01*
X23861574Y-20367482D01*
X23880181Y-20250000D01*
X23861574Y-20132518D01*
X23861571Y-20132513D01*
X23861571Y-20132511D01*
X23807574Y-20026537D01*
X23807573Y-20026535D01*
X23781038Y-20000000D01*
X24869819Y-20000000D01*
X24884256Y-20091156D01*
X24888426Y-20117481D01*
X24888428Y-20117488D01*
X24912892Y-20165500D01*
X24942427Y-20223465D01*
X25026535Y-20307573D01*
X25026537Y-20307574D01*
X25132511Y-20361571D01*
X25132513Y-20361571D01*
X25132518Y-20361574D01*
X25250000Y-20380181D01*
X25367482Y-20361574D01*
X25473465Y-20307573D01*
X25531038Y-20250000D01*
X28119819Y-20250000D01*
X28138426Y-20367481D01*
X28138428Y-20367488D01*
X28192425Y-20473462D01*
X28192427Y-20473465D01*
X28276535Y-20557573D01*
X28276537Y-20557574D01*
X28382511Y-20611571D01*
X28382513Y-20611571D01*
X28382518Y-20611574D01*
X28500000Y-20630181D01*
X28617482Y-20611574D01*
X28723465Y-20557573D01*
X28807573Y-20473465D01*
X28861574Y-20367482D01*
X28880181Y-20250000D01*
X28861574Y-20132518D01*
X28861571Y-20132513D01*
X28861571Y-20132511D01*
X28807574Y-20026537D01*
X28807573Y-20026535D01*
X28723465Y-19942427D01*
X28723462Y-19942425D01*
X28617488Y-19888428D01*
X28617483Y-19888426D01*
X28617482Y-19888426D01*
X28500000Y-19869819D01*
X28382518Y-19888426D01*
X28382511Y-19888428D01*
X28276537Y-19942425D01*
X28192425Y-20026537D01*
X28138428Y-20132511D01*
X28138426Y-20132518D01*
X28119819Y-20249999D01*
X28119819Y-20250000D01*
X25531038Y-20250000D01*
X25557573Y-20223465D01*
X25611574Y-20117482D01*
X25630181Y-20000000D01*
X25629767Y-19997389D01*
X25621062Y-19942425D01*
X25611574Y-19882518D01*
X25611571Y-19882513D01*
X25611571Y-19882511D01*
X25557574Y-19776537D01*
X25557573Y-19776535D01*
X25531038Y-19750000D01*
X29869819Y-19750000D01*
X29888426Y-19867481D01*
X29888428Y-19867488D01*
X29925185Y-19939626D01*
X29942427Y-19973465D01*
X30026535Y-20057573D01*
X30026537Y-20057574D01*
X30132511Y-20111571D01*
X30132513Y-20111571D01*
X30132518Y-20111574D01*
X30250000Y-20130181D01*
X30367482Y-20111574D01*
X30473465Y-20057573D01*
X30557573Y-19973465D01*
X30611574Y-19867482D01*
X30630181Y-19750000D01*
X30616280Y-19662232D01*
X32205690Y-19662232D01*
X32235917Y-19807698D01*
X32235919Y-19807706D01*
X32304274Y-19939623D01*
X32304276Y-19939626D01*
X32405690Y-20048214D01*
X32532640Y-20125414D01*
X32675710Y-20165500D01*
X32675711Y-20165500D01*
X32786968Y-20165500D01*
X32786974Y-20165500D01*
X32897196Y-20150350D01*
X33033476Y-20091156D01*
X33148731Y-19997389D01*
X33234414Y-19876003D01*
X33284171Y-19736002D01*
X33294310Y-19587768D01*
X33278980Y-19513997D01*
X33264082Y-19442301D01*
X33264080Y-19442293D01*
X33195725Y-19310376D01*
X33195723Y-19310373D01*
X33094311Y-19201787D01*
X33094310Y-19201786D01*
X32967360Y-19124586D01*
X32967359Y-19124585D01*
X32967358Y-19124585D01*
X32824290Y-19084500D01*
X32713026Y-19084500D01*
X32602805Y-19099649D01*
X32602801Y-19099650D01*
X32466524Y-19158843D01*
X32466522Y-19158844D01*
X32351268Y-19252610D01*
X32265587Y-19373995D01*
X32215828Y-19513997D01*
X32205690Y-19662232D01*
X30616280Y-19662232D01*
X30611574Y-19632518D01*
X30611571Y-19632513D01*
X30611571Y-19632511D01*
X30557574Y-19526537D01*
X30557573Y-19526535D01*
X30473465Y-19442427D01*
X30473462Y-19442425D01*
X30367488Y-19388428D01*
X30367483Y-19388426D01*
X30367482Y-19388426D01*
X30250000Y-19369819D01*
X30132518Y-19388426D01*
X30132511Y-19388428D01*
X30026537Y-19442425D01*
X29942425Y-19526537D01*
X29888428Y-19632511D01*
X29888426Y-19632518D01*
X29869819Y-19749999D01*
X29869819Y-19750000D01*
X25531038Y-19750000D01*
X25473465Y-19692427D01*
X25473462Y-19692425D01*
X25367488Y-19638428D01*
X25367483Y-19638426D01*
X25367482Y-19638426D01*
X25250000Y-19619819D01*
X25132518Y-19638426D01*
X25132511Y-19638428D01*
X25026537Y-19692425D01*
X24942425Y-19776537D01*
X24888428Y-19882511D01*
X24888426Y-19882518D01*
X24870233Y-19997389D01*
X24869819Y-20000000D01*
X23781038Y-20000000D01*
X23723465Y-19942427D01*
X23723462Y-19942425D01*
X23617488Y-19888428D01*
X23617483Y-19888426D01*
X23617482Y-19888426D01*
X23500000Y-19869819D01*
X23382518Y-19888426D01*
X23382511Y-19888428D01*
X23276537Y-19942425D01*
X23192425Y-20026537D01*
X23138428Y-20132511D01*
X23138426Y-20132518D01*
X23119819Y-20249999D01*
X23119819Y-20250000D01*
X21380181Y-20250000D01*
X21361574Y-20132518D01*
X21361571Y-20132513D01*
X21361571Y-20132511D01*
X21307574Y-20026537D01*
X21307573Y-20026535D01*
X21223465Y-19942427D01*
X21223462Y-19942425D01*
X21117488Y-19888428D01*
X21117483Y-19888426D01*
X21117482Y-19888426D01*
X21000000Y-19869819D01*
X20882518Y-19888426D01*
X20882511Y-19888428D01*
X20776537Y-19942425D01*
X20692425Y-20026537D01*
X20638428Y-20132511D01*
X20638426Y-20132518D01*
X20619819Y-20249999D01*
X20619819Y-20250000D01*
X18880181Y-20250000D01*
X18861574Y-20132518D01*
X18861571Y-20132513D01*
X18861571Y-20132511D01*
X18807574Y-20026537D01*
X18807573Y-20026535D01*
X18723465Y-19942427D01*
X18723462Y-19942425D01*
X18617488Y-19888428D01*
X18617483Y-19888426D01*
X18617482Y-19888426D01*
X18500000Y-19869819D01*
X18382518Y-19888426D01*
X18382511Y-19888428D01*
X18276537Y-19942425D01*
X18192425Y-20026537D01*
X18138428Y-20132511D01*
X18138426Y-20132518D01*
X18119819Y-20249999D01*
X18119819Y-20250000D01*
X16380181Y-20250000D01*
X16361574Y-20132518D01*
X16361571Y-20132513D01*
X16361571Y-20132511D01*
X16307574Y-20026537D01*
X16307573Y-20026535D01*
X16223465Y-19942427D01*
X16223462Y-19942425D01*
X16117488Y-19888428D01*
X16117483Y-19888426D01*
X16117482Y-19888426D01*
X16000000Y-19869819D01*
X15882518Y-19888426D01*
X15882511Y-19888428D01*
X15776537Y-19942425D01*
X15692425Y-20026537D01*
X15638428Y-20132511D01*
X15638426Y-20132518D01*
X15619819Y-20249999D01*
X15619819Y-20250000D01*
X13880181Y-20250000D01*
X13861574Y-20132518D01*
X13861571Y-20132513D01*
X13861571Y-20132511D01*
X13807574Y-20026537D01*
X13807573Y-20026535D01*
X13723465Y-19942427D01*
X13723462Y-19942425D01*
X13617488Y-19888428D01*
X13617483Y-19888426D01*
X13617482Y-19888426D01*
X13500000Y-19869819D01*
X13382518Y-19888426D01*
X13382511Y-19888428D01*
X13276537Y-19942425D01*
X13192425Y-20026537D01*
X13138428Y-20132511D01*
X13138426Y-20132518D01*
X13119819Y-20249999D01*
X13119819Y-20250000D01*
X11380181Y-20250000D01*
X11361574Y-20132518D01*
X11361571Y-20132513D01*
X11361571Y-20132511D01*
X11307574Y-20026537D01*
X11307573Y-20026535D01*
X11223465Y-19942427D01*
X11223462Y-19942425D01*
X11117488Y-19888428D01*
X11117483Y-19888426D01*
X11117482Y-19888426D01*
X11000000Y-19869819D01*
X10882518Y-19888426D01*
X10882511Y-19888428D01*
X10776537Y-19942425D01*
X10692425Y-20026537D01*
X10638428Y-20132511D01*
X10638426Y-20132518D01*
X10619819Y-20249999D01*
X10619819Y-20250000D01*
X8880181Y-20250000D01*
X8861574Y-20132518D01*
X8861571Y-20132513D01*
X8861571Y-20132511D01*
X8807574Y-20026537D01*
X8807573Y-20026535D01*
X8723465Y-19942427D01*
X8723462Y-19942425D01*
X8617488Y-19888428D01*
X8617483Y-19888426D01*
X8617482Y-19888426D01*
X8500000Y-19869819D01*
X8382518Y-19888426D01*
X8382511Y-19888428D01*
X8276537Y-19942425D01*
X8192425Y-20026537D01*
X8138428Y-20132511D01*
X8138426Y-20132518D01*
X8119819Y-20249999D01*
X8119819Y-20250000D01*
X6380181Y-20250000D01*
X6361574Y-20132518D01*
X6361571Y-20132513D01*
X6361571Y-20132511D01*
X6307574Y-20026537D01*
X6307573Y-20026535D01*
X6223465Y-19942427D01*
X6223462Y-19942425D01*
X6117488Y-19888428D01*
X6117483Y-19888426D01*
X6117482Y-19888426D01*
X6000000Y-19869819D01*
X5882518Y-19888426D01*
X5882511Y-19888428D01*
X5776537Y-19942425D01*
X5692425Y-20026537D01*
X5638428Y-20132511D01*
X5638426Y-20132518D01*
X5619819Y-20249999D01*
X5619819Y-20250000D01*
X200500Y-20250000D01*
X200500Y-17750000D01*
X5619819Y-17750000D01*
X5638426Y-17867481D01*
X5638428Y-17867488D01*
X5692425Y-17973462D01*
X5692427Y-17973465D01*
X5776535Y-18057573D01*
X5776537Y-18057574D01*
X5882511Y-18111571D01*
X5882513Y-18111571D01*
X5882518Y-18111574D01*
X6000000Y-18130181D01*
X6117482Y-18111574D01*
X6223465Y-18057573D01*
X6307573Y-17973465D01*
X6361574Y-17867482D01*
X6380181Y-17750000D01*
X8119819Y-17750000D01*
X8138426Y-17867481D01*
X8138428Y-17867488D01*
X8192425Y-17973462D01*
X8192427Y-17973465D01*
X8276535Y-18057573D01*
X8276537Y-18057574D01*
X8382511Y-18111571D01*
X8382513Y-18111571D01*
X8382518Y-18111574D01*
X8500000Y-18130181D01*
X8617482Y-18111574D01*
X8723465Y-18057573D01*
X8807573Y-17973465D01*
X8861574Y-17867482D01*
X8880181Y-17750000D01*
X10619819Y-17750000D01*
X10638426Y-17867481D01*
X10638428Y-17867488D01*
X10692425Y-17973462D01*
X10692427Y-17973465D01*
X10776535Y-18057573D01*
X10776537Y-18057574D01*
X10882511Y-18111571D01*
X10882513Y-18111571D01*
X10882518Y-18111574D01*
X11000000Y-18130181D01*
X11117482Y-18111574D01*
X11223465Y-18057573D01*
X11307573Y-17973465D01*
X11361574Y-17867482D01*
X11380181Y-17750000D01*
X13119819Y-17750000D01*
X13138426Y-17867481D01*
X13138428Y-17867488D01*
X13192425Y-17973462D01*
X13192427Y-17973465D01*
X13276535Y-18057573D01*
X13276537Y-18057574D01*
X13382511Y-18111571D01*
X13382513Y-18111571D01*
X13382518Y-18111574D01*
X13500000Y-18130181D01*
X13617482Y-18111574D01*
X13723465Y-18057573D01*
X13807573Y-17973465D01*
X13861574Y-17867482D01*
X13880181Y-17750000D01*
X15619819Y-17750000D01*
X15638426Y-17867481D01*
X15638428Y-17867488D01*
X15692425Y-17973462D01*
X15692427Y-17973465D01*
X15776535Y-18057573D01*
X15776537Y-18057574D01*
X15882511Y-18111571D01*
X15882513Y-18111571D01*
X15882518Y-18111574D01*
X16000000Y-18130181D01*
X16117482Y-18111574D01*
X16223465Y-18057573D01*
X16307573Y-17973465D01*
X16361574Y-17867482D01*
X16380181Y-17750000D01*
X18119819Y-17750000D01*
X18138426Y-17867481D01*
X18138428Y-17867488D01*
X18192425Y-17973462D01*
X18192427Y-17973465D01*
X18276535Y-18057573D01*
X18276537Y-18057574D01*
X18382511Y-18111571D01*
X18382513Y-18111571D01*
X18382518Y-18111574D01*
X18500000Y-18130181D01*
X18617482Y-18111574D01*
X18723465Y-18057573D01*
X18807573Y-17973465D01*
X18861574Y-17867482D01*
X18880181Y-17750000D01*
X20619819Y-17750000D01*
X20638426Y-17867481D01*
X20638428Y-17867488D01*
X20692425Y-17973462D01*
X20692427Y-17973465D01*
X20776535Y-18057573D01*
X20776537Y-18057574D01*
X20882511Y-18111571D01*
X20882513Y-18111571D01*
X20882518Y-18111574D01*
X21000000Y-18130181D01*
X21117482Y-18111574D01*
X21223465Y-18057573D01*
X21307573Y-17973465D01*
X21361574Y-17867482D01*
X21380181Y-17750000D01*
X23119819Y-17750000D01*
X23138426Y-17867481D01*
X23138428Y-17867488D01*
X23192425Y-17973462D01*
X23192427Y-17973465D01*
X23276535Y-18057573D01*
X23276537Y-18057574D01*
X23382511Y-18111571D01*
X23382513Y-18111571D01*
X23382518Y-18111574D01*
X23500000Y-18130181D01*
X23617482Y-18111574D01*
X23723465Y-18057573D01*
X23807573Y-17973465D01*
X23861574Y-17867482D01*
X23880181Y-17750000D01*
X23861574Y-17632518D01*
X23861571Y-17632513D01*
X23861571Y-17632511D01*
X23807574Y-17526537D01*
X23807573Y-17526535D01*
X23781038Y-17500000D01*
X24869819Y-17500000D01*
X24888426Y-17617481D01*
X24888428Y-17617488D01*
X24942425Y-17723462D01*
X24942427Y-17723465D01*
X25026535Y-17807573D01*
X25026537Y-17807574D01*
X25132511Y-17861571D01*
X25132513Y-17861571D01*
X25132518Y-17861574D01*
X25250000Y-17880181D01*
X25367482Y-17861574D01*
X25473465Y-17807573D01*
X25531038Y-17750000D01*
X28119819Y-17750000D01*
X28138426Y-17867481D01*
X28138428Y-17867488D01*
X28192425Y-17973462D01*
X28192427Y-17973465D01*
X28276535Y-18057573D01*
X28276537Y-18057574D01*
X28382511Y-18111571D01*
X28382513Y-18111571D01*
X28382518Y-18111574D01*
X28500000Y-18130181D01*
X28617482Y-18111574D01*
X28723465Y-18057573D01*
X28807573Y-17973465D01*
X28861574Y-17867482D01*
X28880181Y-17750000D01*
X28861574Y-17632518D01*
X28861571Y-17632513D01*
X28861571Y-17632511D01*
X28807574Y-17526537D01*
X28807573Y-17526535D01*
X28723465Y-17442427D01*
X28723462Y-17442425D01*
X28617488Y-17388428D01*
X28617483Y-17388426D01*
X28617482Y-17388426D01*
X28500000Y-17369819D01*
X28382518Y-17388426D01*
X28382511Y-17388428D01*
X28276537Y-17442425D01*
X28192425Y-17526537D01*
X28138428Y-17632511D01*
X28138426Y-17632518D01*
X28119819Y-17749999D01*
X28119819Y-17750000D01*
X25531038Y-17750000D01*
X25557573Y-17723465D01*
X25611574Y-17617482D01*
X25630181Y-17500000D01*
X25611574Y-17382518D01*
X25611571Y-17382513D01*
X25611571Y-17382511D01*
X25557574Y-17276537D01*
X25557573Y-17276535D01*
X25531038Y-17250000D01*
X29869819Y-17250000D01*
X29888426Y-17367481D01*
X29888428Y-17367488D01*
X29926611Y-17442425D01*
X29942427Y-17473465D01*
X30026535Y-17557573D01*
X30026537Y-17557574D01*
X30132511Y-17611571D01*
X30132513Y-17611571D01*
X30132518Y-17611574D01*
X30250000Y-17630181D01*
X30367482Y-17611574D01*
X30473465Y-17557573D01*
X30557573Y-17473465D01*
X30611574Y-17367482D01*
X30630181Y-17250000D01*
X30611574Y-17132518D01*
X30611571Y-17132513D01*
X30611571Y-17132511D01*
X30557574Y-17026537D01*
X30557573Y-17026535D01*
X30473465Y-16942427D01*
X30473462Y-16942425D01*
X30367488Y-16888428D01*
X30367483Y-16888426D01*
X30367482Y-16888426D01*
X30250000Y-16869819D01*
X30132518Y-16888426D01*
X30132511Y-16888428D01*
X30026537Y-16942425D01*
X29942425Y-17026537D01*
X29888428Y-17132511D01*
X29888426Y-17132518D01*
X29869819Y-17249999D01*
X29869819Y-17250000D01*
X25531038Y-17250000D01*
X25473465Y-17192427D01*
X25473462Y-17192425D01*
X25367488Y-17138428D01*
X25367483Y-17138426D01*
X25367482Y-17138426D01*
X25250000Y-17119819D01*
X25132518Y-17138426D01*
X25132511Y-17138428D01*
X25026537Y-17192425D01*
X24942425Y-17276537D01*
X24888428Y-17382511D01*
X24888426Y-17382518D01*
X24869819Y-17499999D01*
X24869819Y-17500000D01*
X23781038Y-17500000D01*
X23723465Y-17442427D01*
X23723462Y-17442425D01*
X23617488Y-17388428D01*
X23617483Y-17388426D01*
X23617482Y-17388426D01*
X23500000Y-17369819D01*
X23382518Y-17388426D01*
X23382511Y-17388428D01*
X23276537Y-17442425D01*
X23192425Y-17526537D01*
X23138428Y-17632511D01*
X23138426Y-17632518D01*
X23119819Y-17749999D01*
X23119819Y-17750000D01*
X21380181Y-17750000D01*
X21361574Y-17632518D01*
X21361571Y-17632513D01*
X21361571Y-17632511D01*
X21307574Y-17526537D01*
X21307573Y-17526535D01*
X21223465Y-17442427D01*
X21223462Y-17442425D01*
X21117488Y-17388428D01*
X21117483Y-17388426D01*
X21117482Y-17388426D01*
X21000000Y-17369819D01*
X20882518Y-17388426D01*
X20882511Y-17388428D01*
X20776537Y-17442425D01*
X20692425Y-17526537D01*
X20638428Y-17632511D01*
X20638426Y-17632518D01*
X20619819Y-17749999D01*
X20619819Y-17750000D01*
X18880181Y-17750000D01*
X18861574Y-17632518D01*
X18861571Y-17632513D01*
X18861571Y-17632511D01*
X18807574Y-17526537D01*
X18807573Y-17526535D01*
X18723465Y-17442427D01*
X18723462Y-17442425D01*
X18617488Y-17388428D01*
X18617483Y-17388426D01*
X18617482Y-17388426D01*
X18500000Y-17369819D01*
X18382518Y-17388426D01*
X18382511Y-17388428D01*
X18276537Y-17442425D01*
X18192425Y-17526537D01*
X18138428Y-17632511D01*
X18138426Y-17632518D01*
X18119819Y-17749999D01*
X18119819Y-17750000D01*
X16380181Y-17750000D01*
X16361574Y-17632518D01*
X16361571Y-17632513D01*
X16361571Y-17632511D01*
X16307574Y-17526537D01*
X16307573Y-17526535D01*
X16223465Y-17442427D01*
X16223462Y-17442425D01*
X16117488Y-17388428D01*
X16117483Y-17388426D01*
X16117482Y-17388426D01*
X16000000Y-17369819D01*
X15882518Y-17388426D01*
X15882511Y-17388428D01*
X15776537Y-17442425D01*
X15692425Y-17526537D01*
X15638428Y-17632511D01*
X15638426Y-17632518D01*
X15619819Y-17749999D01*
X15619819Y-17750000D01*
X13880181Y-17750000D01*
X13861574Y-17632518D01*
X13861571Y-17632513D01*
X13861571Y-17632511D01*
X13807574Y-17526537D01*
X13807573Y-17526535D01*
X13723465Y-17442427D01*
X13723462Y-17442425D01*
X13617488Y-17388428D01*
X13617483Y-17388426D01*
X13617482Y-17388426D01*
X13500000Y-17369819D01*
X13382518Y-17388426D01*
X13382511Y-17388428D01*
X13276537Y-17442425D01*
X13192425Y-17526537D01*
X13138428Y-17632511D01*
X13138426Y-17632518D01*
X13119819Y-17749999D01*
X13119819Y-17750000D01*
X11380181Y-17750000D01*
X11361574Y-17632518D01*
X11361571Y-17632513D01*
X11361571Y-17632511D01*
X11307574Y-17526537D01*
X11307573Y-17526535D01*
X11223465Y-17442427D01*
X11223462Y-17442425D01*
X11117488Y-17388428D01*
X11117483Y-17388426D01*
X11117482Y-17388426D01*
X11000000Y-17369819D01*
X10882518Y-17388426D01*
X10882511Y-17388428D01*
X10776537Y-17442425D01*
X10692425Y-17526537D01*
X10638428Y-17632511D01*
X10638426Y-17632518D01*
X10619819Y-17749999D01*
X10619819Y-17750000D01*
X8880181Y-17750000D01*
X8861574Y-17632518D01*
X8861571Y-17632513D01*
X8861571Y-17632511D01*
X8807574Y-17526537D01*
X8807573Y-17526535D01*
X8723465Y-17442427D01*
X8723462Y-17442425D01*
X8617488Y-17388428D01*
X8617483Y-17388426D01*
X8617482Y-17388426D01*
X8500000Y-17369819D01*
X8382518Y-17388426D01*
X8382511Y-17388428D01*
X8276537Y-17442425D01*
X8192425Y-17526537D01*
X8138428Y-17632511D01*
X8138426Y-17632518D01*
X8119819Y-17749999D01*
X8119819Y-17750000D01*
X6380181Y-17750000D01*
X6361574Y-17632518D01*
X6361571Y-17632513D01*
X6361571Y-17632511D01*
X6307574Y-17526537D01*
X6307573Y-17526535D01*
X6223465Y-17442427D01*
X6223462Y-17442425D01*
X6117488Y-17388428D01*
X6117483Y-17388426D01*
X6117482Y-17388426D01*
X6000000Y-17369819D01*
X5882518Y-17388426D01*
X5882511Y-17388428D01*
X5776537Y-17442425D01*
X5692425Y-17526537D01*
X5638428Y-17632511D01*
X5638426Y-17632518D01*
X5619819Y-17749999D01*
X5619819Y-17750000D01*
X200500Y-17750000D01*
X200500Y-15250000D01*
X5619819Y-15250000D01*
X5638426Y-15367481D01*
X5638428Y-15367488D01*
X5692425Y-15473462D01*
X5692427Y-15473465D01*
X5776535Y-15557573D01*
X5776537Y-15557574D01*
X5882511Y-15611571D01*
X5882513Y-15611571D01*
X5882518Y-15611574D01*
X6000000Y-15630181D01*
X6117482Y-15611574D01*
X6223465Y-15557573D01*
X6307573Y-15473465D01*
X6361574Y-15367482D01*
X6380181Y-15250000D01*
X8119819Y-15250000D01*
X8138426Y-15367481D01*
X8138428Y-15367488D01*
X8192425Y-15473462D01*
X8192427Y-15473465D01*
X8276535Y-15557573D01*
X8276537Y-15557574D01*
X8382511Y-15611571D01*
X8382513Y-15611571D01*
X8382518Y-15611574D01*
X8500000Y-15630181D01*
X8617482Y-15611574D01*
X8723465Y-15557573D01*
X8807573Y-15473465D01*
X8861574Y-15367482D01*
X8880181Y-15250000D01*
X10619819Y-15250000D01*
X10638426Y-15367481D01*
X10638428Y-15367488D01*
X10692425Y-15473462D01*
X10692427Y-15473465D01*
X10776535Y-15557573D01*
X10776537Y-15557574D01*
X10882511Y-15611571D01*
X10882513Y-15611571D01*
X10882518Y-15611574D01*
X11000000Y-15630181D01*
X11117482Y-15611574D01*
X11223465Y-15557573D01*
X11307573Y-15473465D01*
X11361574Y-15367482D01*
X11380181Y-15250000D01*
X13119819Y-15250000D01*
X13138426Y-15367481D01*
X13138428Y-15367488D01*
X13192425Y-15473462D01*
X13192427Y-15473465D01*
X13276535Y-15557573D01*
X13276537Y-15557574D01*
X13382511Y-15611571D01*
X13382513Y-15611571D01*
X13382518Y-15611574D01*
X13500000Y-15630181D01*
X13617482Y-15611574D01*
X13723465Y-15557573D01*
X13807573Y-15473465D01*
X13861574Y-15367482D01*
X13880181Y-15250000D01*
X15619819Y-15250000D01*
X15638426Y-15367481D01*
X15638428Y-15367488D01*
X15692425Y-15473462D01*
X15692427Y-15473465D01*
X15776535Y-15557573D01*
X15776537Y-15557574D01*
X15882511Y-15611571D01*
X15882513Y-15611571D01*
X15882518Y-15611574D01*
X16000000Y-15630181D01*
X16117482Y-15611574D01*
X16223465Y-15557573D01*
X16307573Y-15473465D01*
X16361574Y-15367482D01*
X16380181Y-15250000D01*
X18119819Y-15250000D01*
X18138426Y-15367481D01*
X18138428Y-15367488D01*
X18192425Y-15473462D01*
X18192427Y-15473465D01*
X18276535Y-15557573D01*
X18276537Y-15557574D01*
X18382511Y-15611571D01*
X18382513Y-15611571D01*
X18382518Y-15611574D01*
X18500000Y-15630181D01*
X18617482Y-15611574D01*
X18723465Y-15557573D01*
X18807573Y-15473465D01*
X18861574Y-15367482D01*
X18880181Y-15250000D01*
X20619819Y-15250000D01*
X20638426Y-15367481D01*
X20638428Y-15367488D01*
X20692425Y-15473462D01*
X20692427Y-15473465D01*
X20776535Y-15557573D01*
X20776537Y-15557574D01*
X20882511Y-15611571D01*
X20882513Y-15611571D01*
X20882518Y-15611574D01*
X21000000Y-15630181D01*
X21117482Y-15611574D01*
X21223465Y-15557573D01*
X21307573Y-15473465D01*
X21361574Y-15367482D01*
X21380181Y-15250000D01*
X23119819Y-15250000D01*
X23138426Y-15367481D01*
X23138428Y-15367488D01*
X23192425Y-15473462D01*
X23192427Y-15473465D01*
X23276535Y-15557573D01*
X23276537Y-15557574D01*
X23382511Y-15611571D01*
X23382513Y-15611571D01*
X23382518Y-15611574D01*
X23500000Y-15630181D01*
X23617482Y-15611574D01*
X23723465Y-15557573D01*
X23807573Y-15473465D01*
X23861574Y-15367482D01*
X23880181Y-15250000D01*
X23861574Y-15132518D01*
X23861571Y-15132513D01*
X23861571Y-15132511D01*
X23807574Y-15026537D01*
X23807573Y-15026535D01*
X23723465Y-14942427D01*
X23723462Y-14942425D01*
X23617488Y-14888428D01*
X23617483Y-14888426D01*
X23617482Y-14888426D01*
X23500000Y-14869819D01*
X23382518Y-14888426D01*
X23382511Y-14888428D01*
X23276537Y-14942425D01*
X23192425Y-15026537D01*
X23138428Y-15132511D01*
X23138426Y-15132518D01*
X23119819Y-15249999D01*
X23119819Y-15250000D01*
X21380181Y-15250000D01*
X21361574Y-15132518D01*
X21361571Y-15132513D01*
X21361571Y-15132511D01*
X21307574Y-15026537D01*
X21307573Y-15026535D01*
X21223465Y-14942427D01*
X21223462Y-14942425D01*
X21117488Y-14888428D01*
X21117483Y-14888426D01*
X21117482Y-14888426D01*
X21000000Y-14869819D01*
X20882518Y-14888426D01*
X20882511Y-14888428D01*
X20776537Y-14942425D01*
X20692425Y-15026537D01*
X20638428Y-15132511D01*
X20638426Y-15132518D01*
X20619819Y-15249999D01*
X20619819Y-15250000D01*
X18880181Y-15250000D01*
X18861574Y-15132518D01*
X18861571Y-15132513D01*
X18861571Y-15132511D01*
X18807574Y-15026537D01*
X18807573Y-15026535D01*
X18723465Y-14942427D01*
X18723462Y-14942425D01*
X18617488Y-14888428D01*
X18617483Y-14888426D01*
X18617482Y-14888426D01*
X18500000Y-14869819D01*
X18382518Y-14888426D01*
X18382511Y-14888428D01*
X18276537Y-14942425D01*
X18192425Y-15026537D01*
X18138428Y-15132511D01*
X18138426Y-15132518D01*
X18119819Y-15249999D01*
X18119819Y-15250000D01*
X16380181Y-15250000D01*
X16361574Y-15132518D01*
X16361571Y-15132513D01*
X16361571Y-15132511D01*
X16307574Y-15026537D01*
X16307573Y-15026535D01*
X16223465Y-14942427D01*
X16223462Y-14942425D01*
X16117488Y-14888428D01*
X16117483Y-14888426D01*
X16117482Y-14888426D01*
X16000000Y-14869819D01*
X15882518Y-14888426D01*
X15882511Y-14888428D01*
X15776537Y-14942425D01*
X15692425Y-15026537D01*
X15638428Y-15132511D01*
X15638426Y-15132518D01*
X15619819Y-15249999D01*
X15619819Y-15250000D01*
X13880181Y-15250000D01*
X13861574Y-15132518D01*
X13861571Y-15132513D01*
X13861571Y-15132511D01*
X13807574Y-15026537D01*
X13807573Y-15026535D01*
X13723465Y-14942427D01*
X13723462Y-14942425D01*
X13617488Y-14888428D01*
X13617483Y-14888426D01*
X13617482Y-14888426D01*
X13500000Y-14869819D01*
X13382518Y-14888426D01*
X13382511Y-14888428D01*
X13276537Y-14942425D01*
X13192425Y-15026537D01*
X13138428Y-15132511D01*
X13138426Y-15132518D01*
X13119819Y-15249999D01*
X13119819Y-15250000D01*
X11380181Y-15250000D01*
X11361574Y-15132518D01*
X11361571Y-15132513D01*
X11361571Y-15132511D01*
X11307574Y-15026537D01*
X11307573Y-15026535D01*
X11223465Y-14942427D01*
X11223462Y-14942425D01*
X11117488Y-14888428D01*
X11117483Y-14888426D01*
X11117482Y-14888426D01*
X11000000Y-14869819D01*
X10882518Y-14888426D01*
X10882511Y-14888428D01*
X10776537Y-14942425D01*
X10692425Y-15026537D01*
X10638428Y-15132511D01*
X10638426Y-15132518D01*
X10619819Y-15249999D01*
X10619819Y-15250000D01*
X8880181Y-15250000D01*
X8861574Y-15132518D01*
X8861571Y-15132513D01*
X8861571Y-15132511D01*
X8807574Y-15026537D01*
X8807573Y-15026535D01*
X8723465Y-14942427D01*
X8723462Y-14942425D01*
X8617488Y-14888428D01*
X8617483Y-14888426D01*
X8617482Y-14888426D01*
X8500000Y-14869819D01*
X8382518Y-14888426D01*
X8382511Y-14888428D01*
X8276537Y-14942425D01*
X8192425Y-15026537D01*
X8138428Y-15132511D01*
X8138426Y-15132518D01*
X8119819Y-15249999D01*
X8119819Y-15250000D01*
X6380181Y-15250000D01*
X6361574Y-15132518D01*
X6361571Y-15132513D01*
X6361571Y-15132511D01*
X6307574Y-15026537D01*
X6307573Y-15026535D01*
X6223465Y-14942427D01*
X6223462Y-14942425D01*
X6117488Y-14888428D01*
X6117483Y-14888426D01*
X6117482Y-14888426D01*
X6000000Y-14869819D01*
X5882518Y-14888426D01*
X5882511Y-14888428D01*
X5776537Y-14942425D01*
X5692425Y-15026537D01*
X5638428Y-15132511D01*
X5638426Y-15132518D01*
X5619819Y-15249999D01*
X5619819Y-15250000D01*
X200500Y-15250000D01*
X200500Y-14000000D01*
X5619819Y-14000000D01*
X5638426Y-14117481D01*
X5638428Y-14117488D01*
X5692425Y-14223462D01*
X5692427Y-14223465D01*
X5776535Y-14307573D01*
X5776537Y-14307574D01*
X5882511Y-14361571D01*
X5882513Y-14361571D01*
X5882518Y-14361574D01*
X6000000Y-14380181D01*
X6117482Y-14361574D01*
X6223465Y-14307573D01*
X6307573Y-14223465D01*
X6361574Y-14117482D01*
X6380181Y-14000000D01*
X8119819Y-14000000D01*
X8138426Y-14117481D01*
X8138428Y-14117488D01*
X8192425Y-14223462D01*
X8192427Y-14223465D01*
X8276535Y-14307573D01*
X8276537Y-14307574D01*
X8382511Y-14361571D01*
X8382513Y-14361571D01*
X8382518Y-14361574D01*
X8500000Y-14380181D01*
X8617482Y-14361574D01*
X8723465Y-14307573D01*
X8807573Y-14223465D01*
X8861574Y-14117482D01*
X8880181Y-14000000D01*
X10619819Y-14000000D01*
X10638426Y-14117481D01*
X10638428Y-14117488D01*
X10692425Y-14223462D01*
X10692427Y-14223465D01*
X10776535Y-14307573D01*
X10776537Y-14307574D01*
X10882511Y-14361571D01*
X10882513Y-14361571D01*
X10882518Y-14361574D01*
X11000000Y-14380181D01*
X11117482Y-14361574D01*
X11223465Y-14307573D01*
X11307573Y-14223465D01*
X11361574Y-14117482D01*
X11380181Y-14000000D01*
X13119819Y-14000000D01*
X13138426Y-14117481D01*
X13138428Y-14117488D01*
X13192425Y-14223462D01*
X13192427Y-14223465D01*
X13276535Y-14307573D01*
X13276537Y-14307574D01*
X13382511Y-14361571D01*
X13382513Y-14361571D01*
X13382518Y-14361574D01*
X13500000Y-14380181D01*
X13617482Y-14361574D01*
X13723465Y-14307573D01*
X13807573Y-14223465D01*
X13861574Y-14117482D01*
X13880181Y-14000000D01*
X15619819Y-14000000D01*
X15638426Y-14117481D01*
X15638428Y-14117488D01*
X15692425Y-14223462D01*
X15692427Y-14223465D01*
X15776535Y-14307573D01*
X15776537Y-14307574D01*
X15882511Y-14361571D01*
X15882513Y-14361571D01*
X15882518Y-14361574D01*
X16000000Y-14380181D01*
X16117482Y-14361574D01*
X16223465Y-14307573D01*
X16307573Y-14223465D01*
X16361574Y-14117482D01*
X16380181Y-14000000D01*
X18119819Y-14000000D01*
X18138426Y-14117481D01*
X18138428Y-14117488D01*
X18192425Y-14223462D01*
X18192427Y-14223465D01*
X18276535Y-14307573D01*
X18276537Y-14307574D01*
X18382511Y-14361571D01*
X18382513Y-14361571D01*
X18382518Y-14361574D01*
X18500000Y-14380181D01*
X18617482Y-14361574D01*
X18723465Y-14307573D01*
X18807573Y-14223465D01*
X18861574Y-14117482D01*
X18880181Y-14000000D01*
X20619819Y-14000000D01*
X20638426Y-14117481D01*
X20638428Y-14117488D01*
X20692425Y-14223462D01*
X20692427Y-14223465D01*
X20776535Y-14307573D01*
X20776537Y-14307574D01*
X20882511Y-14361571D01*
X20882513Y-14361571D01*
X20882518Y-14361574D01*
X21000000Y-14380181D01*
X21117482Y-14361574D01*
X21223465Y-14307573D01*
X21307573Y-14223465D01*
X21361574Y-14117482D01*
X21380181Y-14000000D01*
X21361574Y-13882518D01*
X21361571Y-13882513D01*
X21361571Y-13882511D01*
X21307574Y-13776537D01*
X21307573Y-13776535D01*
X21223465Y-13692427D01*
X21223462Y-13692425D01*
X21117488Y-13638428D01*
X21117483Y-13638426D01*
X21117482Y-13638426D01*
X21000000Y-13619819D01*
X20882518Y-13638426D01*
X20882511Y-13638428D01*
X20776537Y-13692425D01*
X20692425Y-13776537D01*
X20638428Y-13882511D01*
X20638426Y-13882518D01*
X20619819Y-13999999D01*
X20619819Y-14000000D01*
X18880181Y-14000000D01*
X18861574Y-13882518D01*
X18861571Y-13882513D01*
X18861571Y-13882511D01*
X18807574Y-13776537D01*
X18807573Y-13776535D01*
X18723465Y-13692427D01*
X18723462Y-13692425D01*
X18617488Y-13638428D01*
X18617483Y-13638426D01*
X18617482Y-13638426D01*
X18500000Y-13619819D01*
X18382518Y-13638426D01*
X18382511Y-13638428D01*
X18276537Y-13692425D01*
X18192425Y-13776537D01*
X18138428Y-13882511D01*
X18138426Y-13882518D01*
X18119819Y-13999999D01*
X18119819Y-14000000D01*
X16380181Y-14000000D01*
X16361574Y-13882518D01*
X16361571Y-13882513D01*
X16361571Y-13882511D01*
X16307574Y-13776537D01*
X16307573Y-13776535D01*
X16223465Y-13692427D01*
X16223462Y-13692425D01*
X16117488Y-13638428D01*
X16117483Y-13638426D01*
X16117482Y-13638426D01*
X16000000Y-13619819D01*
X15882518Y-13638426D01*
X15882511Y-13638428D01*
X15776537Y-13692425D01*
X15692425Y-13776537D01*
X15638428Y-13882511D01*
X15638426Y-13882518D01*
X15619819Y-13999999D01*
X15619819Y-14000000D01*
X13880181Y-14000000D01*
X13861574Y-13882518D01*
X13861571Y-13882513D01*
X13861571Y-13882511D01*
X13807574Y-13776537D01*
X13807573Y-13776535D01*
X13723465Y-13692427D01*
X13723462Y-13692425D01*
X13617488Y-13638428D01*
X13617483Y-13638426D01*
X13617482Y-13638426D01*
X13500000Y-13619819D01*
X13382518Y-13638426D01*
X13382511Y-13638428D01*
X13276537Y-13692425D01*
X13192425Y-13776537D01*
X13138428Y-13882511D01*
X13138426Y-13882518D01*
X13119819Y-13999999D01*
X13119819Y-14000000D01*
X11380181Y-14000000D01*
X11361574Y-13882518D01*
X11361571Y-13882513D01*
X11361571Y-13882511D01*
X11307574Y-13776537D01*
X11307573Y-13776535D01*
X11223465Y-13692427D01*
X11223462Y-13692425D01*
X11117488Y-13638428D01*
X11117483Y-13638426D01*
X11117482Y-13638426D01*
X11000000Y-13619819D01*
X10882518Y-13638426D01*
X10882511Y-13638428D01*
X10776537Y-13692425D01*
X10692425Y-13776537D01*
X10638428Y-13882511D01*
X10638426Y-13882518D01*
X10619819Y-13999999D01*
X10619819Y-14000000D01*
X8880181Y-14000000D01*
X8861574Y-13882518D01*
X8861571Y-13882513D01*
X8861571Y-13882511D01*
X8807574Y-13776537D01*
X8807573Y-13776535D01*
X8723465Y-13692427D01*
X8723462Y-13692425D01*
X8617488Y-13638428D01*
X8617483Y-13638426D01*
X8617482Y-13638426D01*
X8500000Y-13619819D01*
X8382518Y-13638426D01*
X8382511Y-13638428D01*
X8276537Y-13692425D01*
X8192425Y-13776537D01*
X8138428Y-13882511D01*
X8138426Y-13882518D01*
X8119819Y-13999999D01*
X8119819Y-14000000D01*
X6380181Y-14000000D01*
X6361574Y-13882518D01*
X6361571Y-13882513D01*
X6361571Y-13882511D01*
X6307574Y-13776537D01*
X6307573Y-13776535D01*
X6223465Y-13692427D01*
X6223462Y-13692425D01*
X6117488Y-13638428D01*
X6117483Y-13638426D01*
X6117482Y-13638426D01*
X6000000Y-13619819D01*
X5882518Y-13638426D01*
X5882511Y-13638428D01*
X5776537Y-13692425D01*
X5692425Y-13776537D01*
X5638428Y-13882511D01*
X5638426Y-13882518D01*
X5619819Y-13999999D01*
X5619819Y-14000000D01*
X200500Y-14000000D01*
X200500Y-13250000D01*
X11347195Y-13250000D01*
X11365802Y-13367481D01*
X11365804Y-13367488D01*
X11419801Y-13473462D01*
X11419803Y-13473465D01*
X11503911Y-13557573D01*
X11503913Y-13557574D01*
X11609887Y-13611571D01*
X11609889Y-13611571D01*
X11609894Y-13611574D01*
X11727376Y-13630181D01*
X11844858Y-13611574D01*
X11950841Y-13557573D01*
X12034949Y-13473465D01*
X12088950Y-13367482D01*
X12107557Y-13250000D01*
X13847195Y-13250000D01*
X13865802Y-13367481D01*
X13865804Y-13367488D01*
X13919801Y-13473462D01*
X13919803Y-13473465D01*
X14003911Y-13557573D01*
X14003913Y-13557574D01*
X14109887Y-13611571D01*
X14109889Y-13611571D01*
X14109894Y-13611574D01*
X14227376Y-13630181D01*
X14344858Y-13611574D01*
X14450841Y-13557573D01*
X14534949Y-13473465D01*
X14588950Y-13367482D01*
X14607557Y-13250000D01*
X16347195Y-13250000D01*
X16365802Y-13367481D01*
X16365804Y-13367488D01*
X16419801Y-13473462D01*
X16419803Y-13473465D01*
X16503911Y-13557573D01*
X16503913Y-13557574D01*
X16609887Y-13611571D01*
X16609889Y-13611571D01*
X16609894Y-13611574D01*
X16727376Y-13630181D01*
X16844858Y-13611574D01*
X16950841Y-13557573D01*
X17034949Y-13473465D01*
X17088950Y-13367482D01*
X17107557Y-13250000D01*
X18847195Y-13250000D01*
X18865802Y-13367481D01*
X18865804Y-13367488D01*
X18919801Y-13473462D01*
X18919803Y-13473465D01*
X19003911Y-13557573D01*
X19003913Y-13557574D01*
X19109887Y-13611571D01*
X19109889Y-13611571D01*
X19109894Y-13611574D01*
X19227376Y-13630181D01*
X19344858Y-13611574D01*
X19450841Y-13557573D01*
X19534949Y-13473465D01*
X19588950Y-13367482D01*
X19607557Y-13250000D01*
X19588950Y-13132518D01*
X19588947Y-13132513D01*
X19588947Y-13132511D01*
X19534950Y-13026537D01*
X19534949Y-13026535D01*
X19450841Y-12942427D01*
X19450838Y-12942425D01*
X19344864Y-12888428D01*
X19344859Y-12888426D01*
X19344858Y-12888426D01*
X19227376Y-12869819D01*
X19109894Y-12888426D01*
X19109887Y-12888428D01*
X19003913Y-12942425D01*
X18919801Y-13026537D01*
X18865804Y-13132511D01*
X18865802Y-13132518D01*
X18847195Y-13249999D01*
X18847195Y-13250000D01*
X17107557Y-13250000D01*
X17088950Y-13132518D01*
X17088947Y-13132513D01*
X17088947Y-13132511D01*
X17034950Y-13026537D01*
X17034949Y-13026535D01*
X16950841Y-12942427D01*
X16950838Y-12942425D01*
X16844864Y-12888428D01*
X16844859Y-12888426D01*
X16844858Y-12888426D01*
X16727376Y-12869819D01*
X16609894Y-12888426D01*
X16609887Y-12888428D01*
X16503913Y-12942425D01*
X16419801Y-13026537D01*
X16365804Y-13132511D01*
X16365802Y-13132518D01*
X16347195Y-13249999D01*
X16347195Y-13250000D01*
X14607557Y-13250000D01*
X14588950Y-13132518D01*
X14588947Y-13132513D01*
X14588947Y-13132511D01*
X14534950Y-13026537D01*
X14534949Y-13026535D01*
X14450841Y-12942427D01*
X14450838Y-12942425D01*
X14344864Y-12888428D01*
X14344859Y-12888426D01*
X14344858Y-12888426D01*
X14227376Y-12869819D01*
X14109894Y-12888426D01*
X14109887Y-12888428D01*
X14003913Y-12942425D01*
X13919801Y-13026537D01*
X13865804Y-13132511D01*
X13865802Y-13132518D01*
X13847195Y-13249999D01*
X13847195Y-13250000D01*
X12107557Y-13250000D01*
X12088950Y-13132518D01*
X12088947Y-13132513D01*
X12088947Y-13132511D01*
X12034950Y-13026537D01*
X12034949Y-13026535D01*
X11950841Y-12942427D01*
X11950838Y-12942425D01*
X11844864Y-12888428D01*
X11844859Y-12888426D01*
X11844858Y-12888426D01*
X11727376Y-12869819D01*
X11609894Y-12888426D01*
X11609887Y-12888428D01*
X11503913Y-12942425D01*
X11419801Y-13026537D01*
X11365804Y-13132511D01*
X11365802Y-13132518D01*
X11347195Y-13249999D01*
X11347195Y-13250000D01*
X200500Y-13250000D01*
X200500Y-12000000D01*
X12869819Y-12000000D01*
X12888426Y-12117481D01*
X12888428Y-12117488D01*
X12926612Y-12192427D01*
X12942427Y-12223465D01*
X13026535Y-12307573D01*
X13026537Y-12307574D01*
X13132511Y-12361571D01*
X13132513Y-12361571D01*
X13132518Y-12361574D01*
X13250000Y-12380181D01*
X13367482Y-12361574D01*
X13473465Y-12307573D01*
X13557573Y-12223465D01*
X13611574Y-12117482D01*
X13630181Y-12000000D01*
X15619819Y-12000000D01*
X15638426Y-12117481D01*
X15638428Y-12117488D01*
X15676612Y-12192427D01*
X15692427Y-12223465D01*
X15776535Y-12307573D01*
X15776537Y-12307574D01*
X15882511Y-12361571D01*
X15882513Y-12361571D01*
X15882518Y-12361574D01*
X16000000Y-12380181D01*
X16117482Y-12361574D01*
X16223465Y-12307573D01*
X16307573Y-12223465D01*
X16361574Y-12117482D01*
X16380181Y-12000000D01*
X18119819Y-12000000D01*
X18138426Y-12117481D01*
X18138428Y-12117488D01*
X18176612Y-12192427D01*
X18192427Y-12223465D01*
X18276535Y-12307573D01*
X18276537Y-12307574D01*
X18382511Y-12361571D01*
X18382513Y-12361571D01*
X18382518Y-12361574D01*
X18500000Y-12380181D01*
X18617482Y-12361574D01*
X18723465Y-12307573D01*
X18807573Y-12223465D01*
X18861574Y-12117482D01*
X18880181Y-12000000D01*
X20619819Y-12000000D01*
X20638426Y-12117481D01*
X20638428Y-12117488D01*
X20676612Y-12192427D01*
X20692427Y-12223465D01*
X20776535Y-12307573D01*
X20776537Y-12307574D01*
X20882511Y-12361571D01*
X20882513Y-12361571D01*
X20882518Y-12361574D01*
X21000000Y-12380181D01*
X21117482Y-12361574D01*
X21223465Y-12307573D01*
X21307573Y-12223465D01*
X21361574Y-12117482D01*
X21380181Y-12000000D01*
X21361574Y-11882518D01*
X21361571Y-11882513D01*
X21361571Y-11882511D01*
X21307574Y-11776537D01*
X21307573Y-11776535D01*
X21223465Y-11692427D01*
X21223462Y-11692425D01*
X21117488Y-11638428D01*
X21117483Y-11638426D01*
X21117482Y-11638426D01*
X21000000Y-11619819D01*
X20882518Y-11638426D01*
X20882511Y-11638428D01*
X20776537Y-11692425D01*
X20692425Y-11776537D01*
X20638428Y-11882511D01*
X20638426Y-11882518D01*
X20619819Y-11999999D01*
X20619819Y-12000000D01*
X18880181Y-12000000D01*
X18861574Y-11882518D01*
X18861571Y-11882513D01*
X18861571Y-11882511D01*
X18807574Y-11776537D01*
X18807573Y-11776535D01*
X18723465Y-11692427D01*
X18723462Y-11692425D01*
X18617488Y-11638428D01*
X18617483Y-11638426D01*
X18617482Y-11638426D01*
X18500000Y-11619819D01*
X18382518Y-11638426D01*
X18382511Y-11638428D01*
X18276537Y-11692425D01*
X18192425Y-11776537D01*
X18138428Y-11882511D01*
X18138426Y-11882518D01*
X18119819Y-11999999D01*
X18119819Y-12000000D01*
X16380181Y-12000000D01*
X16361574Y-11882518D01*
X16361571Y-11882513D01*
X16361571Y-11882511D01*
X16307574Y-11776537D01*
X16307573Y-11776535D01*
X16223465Y-11692427D01*
X16223462Y-11692425D01*
X16117488Y-11638428D01*
X16117483Y-11638426D01*
X16117482Y-11638426D01*
X16000000Y-11619819D01*
X15882518Y-11638426D01*
X15882511Y-11638428D01*
X15776537Y-11692425D01*
X15692425Y-11776537D01*
X15638428Y-11882511D01*
X15638426Y-11882518D01*
X15619819Y-11999999D01*
X15619819Y-12000000D01*
X13630181Y-12000000D01*
X13611574Y-11882518D01*
X13611571Y-11882513D01*
X13611571Y-11882511D01*
X13557574Y-11776537D01*
X13557573Y-11776535D01*
X13473465Y-11692427D01*
X13473462Y-11692425D01*
X13367488Y-11638428D01*
X13367483Y-11638426D01*
X13367482Y-11638426D01*
X13250000Y-11619819D01*
X13132518Y-11638426D01*
X13132511Y-11638428D01*
X13026537Y-11692425D01*
X12942425Y-11776537D01*
X12888428Y-11882511D01*
X12888426Y-11882518D01*
X12869819Y-11999999D01*
X12869819Y-12000000D01*
X200500Y-12000000D01*
X200500Y-11000000D01*
X5869819Y-11000000D01*
X5888426Y-11117481D01*
X5888428Y-11117488D01*
X5926611Y-11192425D01*
X5942427Y-11223465D01*
X6026535Y-11307573D01*
X6026537Y-11307574D01*
X6132511Y-11361571D01*
X6132513Y-11361571D01*
X6132518Y-11361574D01*
X6250000Y-11380181D01*
X6367482Y-11361574D01*
X6473465Y-11307573D01*
X6557573Y-11223465D01*
X6611574Y-11117482D01*
X6630181Y-11000000D01*
X8369819Y-11000000D01*
X8388426Y-11117481D01*
X8388428Y-11117488D01*
X8426611Y-11192425D01*
X8442427Y-11223465D01*
X8526535Y-11307573D01*
X8526537Y-11307574D01*
X8632511Y-11361571D01*
X8632513Y-11361571D01*
X8632518Y-11361574D01*
X8750000Y-11380181D01*
X8867482Y-11361574D01*
X8973465Y-11307573D01*
X9057573Y-11223465D01*
X9111574Y-11117482D01*
X9130181Y-11000000D01*
X10869819Y-11000000D01*
X10888426Y-11117481D01*
X10888428Y-11117488D01*
X10926611Y-11192425D01*
X10942427Y-11223465D01*
X11026535Y-11307573D01*
X11026537Y-11307574D01*
X11132511Y-11361571D01*
X11132513Y-11361571D01*
X11132518Y-11361574D01*
X11250000Y-11380181D01*
X11367482Y-11361574D01*
X11473465Y-11307573D01*
X11557573Y-11223465D01*
X11611574Y-11117482D01*
X11630181Y-11000000D01*
X13369819Y-11000000D01*
X13388426Y-11117481D01*
X13388428Y-11117488D01*
X13426611Y-11192425D01*
X13442427Y-11223465D01*
X13526535Y-11307573D01*
X13526537Y-11307574D01*
X13632511Y-11361571D01*
X13632513Y-11361571D01*
X13632518Y-11361574D01*
X13750000Y-11380181D01*
X13867482Y-11361574D01*
X13973465Y-11307573D01*
X14057573Y-11223465D01*
X14111574Y-11117482D01*
X14130181Y-11000000D01*
X15869819Y-11000000D01*
X15888426Y-11117481D01*
X15888428Y-11117488D01*
X15926611Y-11192425D01*
X15942427Y-11223465D01*
X16026535Y-11307573D01*
X16026537Y-11307574D01*
X16132511Y-11361571D01*
X16132513Y-11361571D01*
X16132518Y-11361574D01*
X16250000Y-11380181D01*
X16367482Y-11361574D01*
X16473465Y-11307573D01*
X16557573Y-11223465D01*
X16611574Y-11117482D01*
X16630181Y-11000000D01*
X18369819Y-11000000D01*
X18388426Y-11117481D01*
X18388428Y-11117488D01*
X18426611Y-11192425D01*
X18442427Y-11223465D01*
X18526535Y-11307573D01*
X18526537Y-11307574D01*
X18632511Y-11361571D01*
X18632513Y-11361571D01*
X18632518Y-11361574D01*
X18750000Y-11380181D01*
X18867482Y-11361574D01*
X18973465Y-11307573D01*
X19057573Y-11223465D01*
X19111574Y-11117482D01*
X19130181Y-11000000D01*
X19111574Y-10882518D01*
X19111571Y-10882513D01*
X19111571Y-10882511D01*
X19057574Y-10776537D01*
X19057573Y-10776535D01*
X18973465Y-10692427D01*
X18973462Y-10692425D01*
X18867488Y-10638428D01*
X18867483Y-10638426D01*
X18867482Y-10638426D01*
X18750000Y-10619819D01*
X18632518Y-10638426D01*
X18632511Y-10638428D01*
X18526537Y-10692425D01*
X18442425Y-10776537D01*
X18388428Y-10882511D01*
X18388426Y-10882518D01*
X18369819Y-10999999D01*
X18369819Y-11000000D01*
X16630181Y-11000000D01*
X16611574Y-10882518D01*
X16611571Y-10882513D01*
X16611571Y-10882511D01*
X16557574Y-10776537D01*
X16557573Y-10776535D01*
X16473465Y-10692427D01*
X16473462Y-10692425D01*
X16367488Y-10638428D01*
X16367483Y-10638426D01*
X16367482Y-10638426D01*
X16250000Y-10619819D01*
X16132518Y-10638426D01*
X16132511Y-10638428D01*
X16026537Y-10692425D01*
X15942425Y-10776537D01*
X15888428Y-10882511D01*
X15888426Y-10882518D01*
X15869819Y-10999999D01*
X15869819Y-11000000D01*
X14130181Y-11000000D01*
X14111574Y-10882518D01*
X14111571Y-10882513D01*
X14111571Y-10882511D01*
X14057574Y-10776537D01*
X14057573Y-10776535D01*
X13973465Y-10692427D01*
X13973462Y-10692425D01*
X13867488Y-10638428D01*
X13867483Y-10638426D01*
X13867482Y-10638426D01*
X13750000Y-10619819D01*
X13632518Y-10638426D01*
X13632511Y-10638428D01*
X13526537Y-10692425D01*
X13442425Y-10776537D01*
X13388428Y-10882511D01*
X13388426Y-10882518D01*
X13369819Y-10999999D01*
X13369819Y-11000000D01*
X11630181Y-11000000D01*
X11611574Y-10882518D01*
X11611571Y-10882513D01*
X11611571Y-10882511D01*
X11557574Y-10776537D01*
X11557573Y-10776535D01*
X11473465Y-10692427D01*
X11473462Y-10692425D01*
X11367488Y-10638428D01*
X11367483Y-10638426D01*
X11367482Y-10638426D01*
X11250000Y-10619819D01*
X11132518Y-10638426D01*
X11132511Y-10638428D01*
X11026537Y-10692425D01*
X10942425Y-10776537D01*
X10888428Y-10882511D01*
X10888426Y-10882518D01*
X10869819Y-10999999D01*
X10869819Y-11000000D01*
X9130181Y-11000000D01*
X9111574Y-10882518D01*
X9111571Y-10882513D01*
X9111571Y-10882511D01*
X9057574Y-10776537D01*
X9057573Y-10776535D01*
X8973465Y-10692427D01*
X8973462Y-10692425D01*
X8867488Y-10638428D01*
X8867483Y-10638426D01*
X8867482Y-10638426D01*
X8750000Y-10619819D01*
X8632518Y-10638426D01*
X8632511Y-10638428D01*
X8526537Y-10692425D01*
X8442425Y-10776537D01*
X8388428Y-10882511D01*
X8388426Y-10882518D01*
X8369819Y-10999999D01*
X8369819Y-11000000D01*
X6630181Y-11000000D01*
X6611574Y-10882518D01*
X6611571Y-10882513D01*
X6611571Y-10882511D01*
X6557574Y-10776537D01*
X6557573Y-10776535D01*
X6473465Y-10692427D01*
X6473462Y-10692425D01*
X6367488Y-10638428D01*
X6367483Y-10638426D01*
X6367482Y-10638426D01*
X6250000Y-10619819D01*
X6132518Y-10638426D01*
X6132511Y-10638428D01*
X6026537Y-10692425D01*
X5942425Y-10776537D01*
X5888428Y-10882511D01*
X5888426Y-10882518D01*
X5869819Y-10999999D01*
X5869819Y-11000000D01*
X200500Y-11000000D01*
X200500Y-9250000D01*
X2619819Y-9250000D01*
X2638426Y-9367481D01*
X2638428Y-9367488D01*
X2676611Y-9442425D01*
X2692427Y-9473465D01*
X2776535Y-9557573D01*
X2776537Y-9557574D01*
X2882511Y-9611571D01*
X2882513Y-9611571D01*
X2882518Y-9611574D01*
X3000000Y-9630181D01*
X3007782Y-9628948D01*
X3068213Y-9638518D01*
X3111479Y-9681782D01*
X3121052Y-9742211D01*
X3119819Y-9749998D01*
X3119819Y-9750000D01*
X3134832Y-9844793D01*
X3138426Y-9867481D01*
X3138428Y-9867488D01*
X3192425Y-9973462D01*
X3192427Y-9973465D01*
X3276535Y-10057573D01*
X3276537Y-10057574D01*
X3382511Y-10111571D01*
X3382513Y-10111571D01*
X3382518Y-10111574D01*
X3500000Y-10130181D01*
X3617482Y-10111574D01*
X3723465Y-10057573D01*
X3807573Y-9973465D01*
X3861574Y-9867482D01*
X3880181Y-9750000D01*
X3861574Y-9632518D01*
X3861571Y-9632513D01*
X3861571Y-9632511D01*
X3807574Y-9526537D01*
X3807573Y-9526535D01*
X3723465Y-9442427D01*
X3723462Y-9442425D01*
X3617488Y-9388428D01*
X3617483Y-9388426D01*
X3617482Y-9388426D01*
X3500000Y-9369819D01*
X3499998Y-9369819D01*
X3492211Y-9371052D01*
X3431780Y-9361477D01*
X3388517Y-9318211D01*
X3378948Y-9257782D01*
X3380181Y-9250000D01*
X3378948Y-9242216D01*
X3388519Y-9181785D01*
X3431783Y-9138520D01*
X3492215Y-9128948D01*
X3500000Y-9130181D01*
X3617482Y-9111574D01*
X3723465Y-9057573D01*
X3807573Y-8973465D01*
X3861574Y-8867482D01*
X3880181Y-8750000D01*
X3861574Y-8632518D01*
X3861571Y-8632513D01*
X3861571Y-8632511D01*
X3807574Y-8526537D01*
X3807573Y-8526535D01*
X3723465Y-8442427D01*
X3723462Y-8442425D01*
X3617488Y-8388428D01*
X3617483Y-8388426D01*
X3617482Y-8388426D01*
X3500000Y-8369819D01*
X3499998Y-8369819D01*
X3492211Y-8371052D01*
X3431780Y-8361477D01*
X3388517Y-8318211D01*
X3378948Y-8257782D01*
X3380181Y-8250000D01*
X3378948Y-8242216D01*
X3388519Y-8181785D01*
X3431783Y-8138520D01*
X3492215Y-8128948D01*
X3500000Y-8130181D01*
X3617482Y-8111574D01*
X3723465Y-8057573D01*
X3781038Y-8000000D01*
X5869819Y-8000000D01*
X5888426Y-8117481D01*
X5888428Y-8117488D01*
X5926611Y-8192425D01*
X5942427Y-8223465D01*
X6026535Y-8307573D01*
X6026537Y-8307574D01*
X6132511Y-8361571D01*
X6132513Y-8361571D01*
X6132518Y-8361574D01*
X6250000Y-8380181D01*
X6367482Y-8361574D01*
X6473465Y-8307573D01*
X6557573Y-8223465D01*
X6611574Y-8117482D01*
X6630181Y-8000000D01*
X6611574Y-7882518D01*
X6611571Y-7882513D01*
X6611571Y-7882511D01*
X6557574Y-7776537D01*
X6557573Y-7776535D01*
X6473465Y-7692427D01*
X6473462Y-7692425D01*
X6367488Y-7638428D01*
X6367483Y-7638426D01*
X6367482Y-7638426D01*
X6250000Y-7619819D01*
X6132518Y-7638426D01*
X6132511Y-7638428D01*
X6026537Y-7692425D01*
X5942425Y-7776537D01*
X5888428Y-7882511D01*
X5888426Y-7882518D01*
X5869819Y-7999999D01*
X5869819Y-8000000D01*
X3781038Y-8000000D01*
X3807573Y-7973465D01*
X3861574Y-7867482D01*
X3880181Y-7750000D01*
X3861574Y-7632518D01*
X3861571Y-7632513D01*
X3861571Y-7632511D01*
X3807574Y-7526537D01*
X3807573Y-7526535D01*
X3723465Y-7442427D01*
X3723462Y-7442425D01*
X3617488Y-7388428D01*
X3617483Y-7388426D01*
X3617482Y-7388426D01*
X3500000Y-7369819D01*
X3499998Y-7369819D01*
X3492211Y-7371052D01*
X3431780Y-7361477D01*
X3388517Y-7318211D01*
X3378948Y-7257782D01*
X3380181Y-7250000D01*
X3378948Y-7242216D01*
X3388519Y-7181785D01*
X3431783Y-7138520D01*
X3492215Y-7128948D01*
X3500000Y-7130181D01*
X3617482Y-7111574D01*
X3723465Y-7057573D01*
X3781038Y-7000000D01*
X8369819Y-7000000D01*
X8388426Y-7117481D01*
X8388428Y-7117488D01*
X8426611Y-7192425D01*
X8442427Y-7223465D01*
X8526535Y-7307573D01*
X8526537Y-7307574D01*
X8632511Y-7361571D01*
X8632513Y-7361571D01*
X8632518Y-7361574D01*
X8750000Y-7380181D01*
X8867482Y-7361574D01*
X8973465Y-7307573D01*
X9057573Y-7223465D01*
X9111574Y-7117482D01*
X9130181Y-7000000D01*
X10119819Y-7000000D01*
X10138426Y-7117481D01*
X10138428Y-7117488D01*
X10176611Y-7192425D01*
X10192427Y-7223465D01*
X10276535Y-7307573D01*
X10276537Y-7307574D01*
X10382511Y-7361571D01*
X10382513Y-7361571D01*
X10382518Y-7361574D01*
X10500000Y-7380181D01*
X10617482Y-7361574D01*
X10723465Y-7307573D01*
X10807573Y-7223465D01*
X10861574Y-7117482D01*
X10880181Y-7000000D01*
X12619819Y-7000000D01*
X12638426Y-7117481D01*
X12638428Y-7117488D01*
X12676611Y-7192425D01*
X12692427Y-7223465D01*
X12776535Y-7307573D01*
X12776537Y-7307574D01*
X12882511Y-7361571D01*
X12882513Y-7361571D01*
X12882518Y-7361574D01*
X13000000Y-7380181D01*
X13117482Y-7361574D01*
X13223465Y-7307573D01*
X13307573Y-7223465D01*
X13361574Y-7117482D01*
X13380181Y-7000000D01*
X15119819Y-7000000D01*
X15138426Y-7117481D01*
X15138428Y-7117488D01*
X15176611Y-7192425D01*
X15192427Y-7223465D01*
X15276535Y-7307573D01*
X15276537Y-7307574D01*
X15382511Y-7361571D01*
X15382513Y-7361571D01*
X15382518Y-7361574D01*
X15500000Y-7380181D01*
X15617482Y-7361574D01*
X15723465Y-7307573D01*
X15807573Y-7223465D01*
X15861574Y-7117482D01*
X15880181Y-7000000D01*
X17619819Y-7000000D01*
X17638426Y-7117481D01*
X17638428Y-7117488D01*
X17676611Y-7192425D01*
X17692427Y-7223465D01*
X17776535Y-7307573D01*
X17776537Y-7307574D01*
X17882511Y-7361571D01*
X17882513Y-7361571D01*
X17882518Y-7361574D01*
X18000000Y-7380181D01*
X18117482Y-7361574D01*
X18223465Y-7307573D01*
X18307573Y-7223465D01*
X18361574Y-7117482D01*
X18380181Y-7000000D01*
X18361574Y-6882518D01*
X18361571Y-6882513D01*
X18361571Y-6882511D01*
X18307574Y-6776537D01*
X18307573Y-6776535D01*
X18223465Y-6692427D01*
X18223462Y-6692425D01*
X18117488Y-6638428D01*
X18117483Y-6638426D01*
X18117482Y-6638426D01*
X18000000Y-6619819D01*
X17882518Y-6638426D01*
X17882511Y-6638428D01*
X17776537Y-6692425D01*
X17692425Y-6776537D01*
X17638428Y-6882511D01*
X17638426Y-6882518D01*
X17619819Y-6999999D01*
X17619819Y-7000000D01*
X15880181Y-7000000D01*
X15861574Y-6882518D01*
X15861571Y-6882513D01*
X15861571Y-6882511D01*
X15807574Y-6776537D01*
X15807573Y-6776535D01*
X15723465Y-6692427D01*
X15723462Y-6692425D01*
X15617488Y-6638428D01*
X15617483Y-6638426D01*
X15617482Y-6638426D01*
X15500000Y-6619819D01*
X15382518Y-6638426D01*
X15382511Y-6638428D01*
X15276537Y-6692425D01*
X15192425Y-6776537D01*
X15138428Y-6882511D01*
X15138426Y-6882518D01*
X15119819Y-6999999D01*
X15119819Y-7000000D01*
X13380181Y-7000000D01*
X13377276Y-6981662D01*
X13386846Y-6921234D01*
X13405050Y-6896175D01*
X14301225Y-6000000D01*
X18619819Y-6000000D01*
X18633720Y-6087772D01*
X18638426Y-6117481D01*
X18638428Y-6117488D01*
X18676611Y-6192425D01*
X18692427Y-6223465D01*
X18776535Y-6307573D01*
X18776537Y-6307574D01*
X18882511Y-6361571D01*
X18882513Y-6361571D01*
X18882518Y-6361574D01*
X19000000Y-6380181D01*
X19117482Y-6361574D01*
X19223465Y-6307573D01*
X19307573Y-6223465D01*
X19361574Y-6117482D01*
X19380181Y-6000000D01*
X19361574Y-5882518D01*
X19361571Y-5882513D01*
X19361571Y-5882511D01*
X19307574Y-5776537D01*
X19307573Y-5776535D01*
X19223465Y-5692427D01*
X19223462Y-5692425D01*
X19117488Y-5638428D01*
X19117483Y-5638426D01*
X19117482Y-5638426D01*
X19000000Y-5619819D01*
X18882518Y-5638426D01*
X18882511Y-5638428D01*
X18776537Y-5692425D01*
X18692425Y-5776537D01*
X18638428Y-5882511D01*
X18638426Y-5882518D01*
X18628938Y-5942427D01*
X18619819Y-6000000D01*
X14301225Y-6000000D01*
X14801225Y-5500000D01*
X16119819Y-5500000D01*
X16138426Y-5617481D01*
X16138428Y-5617488D01*
X16171188Y-5681782D01*
X16192427Y-5723465D01*
X16276535Y-5807573D01*
X16276537Y-5807574D01*
X16382511Y-5861571D01*
X16382513Y-5861571D01*
X16382518Y-5861574D01*
X16500000Y-5880181D01*
X16617482Y-5861574D01*
X16723465Y-5807573D01*
X16807573Y-5723465D01*
X16861574Y-5617482D01*
X16880181Y-5500000D01*
X16861574Y-5382518D01*
X16861571Y-5382513D01*
X16861571Y-5382511D01*
X16807574Y-5276537D01*
X16807573Y-5276535D01*
X16723465Y-5192427D01*
X16723462Y-5192425D01*
X16617488Y-5138428D01*
X16617483Y-5138426D01*
X16617482Y-5138426D01*
X16500000Y-5119819D01*
X16382518Y-5138426D01*
X16382511Y-5138428D01*
X16276537Y-5192425D01*
X16192425Y-5276537D01*
X16138428Y-5382511D01*
X16138426Y-5382518D01*
X16119819Y-5499999D01*
X16119819Y-5500000D01*
X14801225Y-5500000D01*
X15613129Y-4688096D01*
X15627564Y-4677856D01*
X15627495Y-4677770D01*
X15636214Y-4670815D01*
X15636219Y-4670813D01*
X15657351Y-4644312D01*
X15661041Y-4640184D01*
X15667585Y-4633642D01*
X15672512Y-4625799D01*
X15675712Y-4621288D01*
X15696842Y-4594794D01*
X15696842Y-4594790D01*
X15696844Y-4594789D01*
X15701685Y-4584738D01*
X15701786Y-4584786D01*
X15702640Y-4582725D01*
X15702533Y-4582688D01*
X15706214Y-4572163D01*
X15706218Y-4572159D01*
X15710011Y-4538478D01*
X15710939Y-4533026D01*
X15713000Y-4524001D01*
X15713000Y-4514748D01*
X15713311Y-4509202D01*
X15717104Y-4475538D01*
X15717102Y-4475534D01*
X15715855Y-4464451D01*
X15715964Y-4464438D01*
X15713000Y-4446988D01*
X15713000Y-2470595D01*
X15731907Y-2412404D01*
X15781407Y-2376440D01*
X15796510Y-2372814D01*
X15867482Y-2361574D01*
X15973465Y-2307573D01*
X16057573Y-2223465D01*
X16111574Y-2117482D01*
X16130181Y-2000000D01*
X16111574Y-1882518D01*
X16111571Y-1882513D01*
X16111571Y-1882511D01*
X16057574Y-1776537D01*
X16057573Y-1776535D01*
X15973465Y-1692427D01*
X15973462Y-1692425D01*
X15867488Y-1638428D01*
X15867483Y-1638426D01*
X15867482Y-1638426D01*
X15750000Y-1619819D01*
X15632518Y-1638426D01*
X15632511Y-1638428D01*
X15526537Y-1692425D01*
X15442425Y-1776537D01*
X15388428Y-1882511D01*
X15388426Y-1882518D01*
X15369819Y-1999999D01*
X15369819Y-2000000D01*
X15372456Y-2016650D01*
X15362885Y-2077082D01*
X15352078Y-2093860D01*
X15342659Y-2105672D01*
X15338958Y-2109814D01*
X15332413Y-2116359D01*
X15327485Y-2124201D01*
X15324274Y-2128726D01*
X15303157Y-2155207D01*
X15298318Y-2165256D01*
X15298219Y-2165208D01*
X15297362Y-2167279D01*
X15297465Y-2167315D01*
X15293781Y-2177842D01*
X15289990Y-2211494D01*
X15289061Y-2216964D01*
X15287000Y-2225999D01*
X15287000Y-2235250D01*
X15286689Y-2240795D01*
X15282896Y-2274463D01*
X15284145Y-2285547D01*
X15284034Y-2285559D01*
X15287000Y-2303010D01*
X15287000Y-4370764D01*
X15268093Y-4428955D01*
X15258004Y-4440768D01*
X13103826Y-6594945D01*
X13049309Y-6622722D01*
X13018338Y-6622723D01*
X13005118Y-6620629D01*
X13000000Y-6619819D01*
X12999999Y-6619819D01*
X12882518Y-6638426D01*
X12882511Y-6638428D01*
X12776537Y-6692425D01*
X12692425Y-6776537D01*
X12638428Y-6882511D01*
X12638426Y-6882518D01*
X12619819Y-6999999D01*
X12619819Y-7000000D01*
X10880181Y-7000000D01*
X10861574Y-6882518D01*
X10861571Y-6882513D01*
X10861571Y-6882511D01*
X10807574Y-6776537D01*
X10807573Y-6776535D01*
X10723465Y-6692427D01*
X10723462Y-6692425D01*
X10617488Y-6638428D01*
X10617483Y-6638426D01*
X10617482Y-6638426D01*
X10500000Y-6619819D01*
X10382518Y-6638426D01*
X10382511Y-6638428D01*
X10276537Y-6692425D01*
X10192425Y-6776537D01*
X10138428Y-6882511D01*
X10138426Y-6882518D01*
X10119819Y-6999999D01*
X10119819Y-7000000D01*
X9130181Y-7000000D01*
X9111574Y-6882518D01*
X9111571Y-6882513D01*
X9111571Y-6882511D01*
X9057574Y-6776537D01*
X9057573Y-6776535D01*
X8973465Y-6692427D01*
X8973462Y-6692425D01*
X8867488Y-6638428D01*
X8867483Y-6638426D01*
X8867482Y-6638426D01*
X8750000Y-6619819D01*
X8632518Y-6638426D01*
X8632511Y-6638428D01*
X8526537Y-6692425D01*
X8442425Y-6776537D01*
X8388428Y-6882511D01*
X8388426Y-6882518D01*
X8369819Y-6999999D01*
X8369819Y-7000000D01*
X3781038Y-7000000D01*
X3807573Y-6973465D01*
X3861574Y-6867482D01*
X3880181Y-6750000D01*
X3861574Y-6632518D01*
X3861571Y-6632513D01*
X3861571Y-6632511D01*
X3807574Y-6526537D01*
X3807573Y-6526535D01*
X3723465Y-6442427D01*
X3723462Y-6442425D01*
X3617488Y-6388428D01*
X3617483Y-6388426D01*
X3617482Y-6388426D01*
X3500000Y-6369819D01*
X3499998Y-6369819D01*
X3492211Y-6371052D01*
X3431780Y-6361477D01*
X3388517Y-6318211D01*
X3378948Y-6257782D01*
X3380181Y-6250000D01*
X3378948Y-6242216D01*
X3388519Y-6181785D01*
X3431783Y-6138520D01*
X3492215Y-6128948D01*
X3500000Y-6130181D01*
X3617482Y-6111574D01*
X3723465Y-6057573D01*
X3807573Y-5973465D01*
X3861574Y-5867482D01*
X3880181Y-5750000D01*
X3861574Y-5632518D01*
X3861571Y-5632513D01*
X3861571Y-5632511D01*
X3807574Y-5526537D01*
X3807573Y-5526535D01*
X3723465Y-5442427D01*
X3723462Y-5442425D01*
X3617488Y-5388428D01*
X3617483Y-5388426D01*
X3617482Y-5388426D01*
X3500000Y-5369819D01*
X3499998Y-5369819D01*
X3492211Y-5371052D01*
X3431780Y-5361477D01*
X3388517Y-5318211D01*
X3378948Y-5257782D01*
X3380181Y-5250000D01*
X3361574Y-5132518D01*
X3361571Y-5132513D01*
X3361571Y-5132511D01*
X3307574Y-5026537D01*
X3307573Y-5026535D01*
X3223465Y-4942427D01*
X3223462Y-4942425D01*
X3117488Y-4888428D01*
X3117483Y-4888426D01*
X3117482Y-4888426D01*
X3000000Y-4869819D01*
X2882518Y-4888426D01*
X2882511Y-4888428D01*
X2776537Y-4942425D01*
X2692425Y-5026537D01*
X2638428Y-5132511D01*
X2638426Y-5132518D01*
X2619819Y-5249999D01*
X2619819Y-5250000D01*
X2638426Y-5367481D01*
X2638428Y-5367488D01*
X2676611Y-5442425D01*
X2692427Y-5473465D01*
X2776535Y-5557573D01*
X2776537Y-5557574D01*
X2882511Y-5611571D01*
X2882513Y-5611571D01*
X2882518Y-5611574D01*
X3000000Y-5630181D01*
X3007782Y-5628948D01*
X3068213Y-5638518D01*
X3111479Y-5681782D01*
X3121052Y-5742211D01*
X3119819Y-5749998D01*
X3119819Y-5750000D01*
X3121052Y-5757787D01*
X3111478Y-5818219D01*
X3068212Y-5861481D01*
X3007787Y-5871052D01*
X3000000Y-5869819D01*
X2882518Y-5888426D01*
X2882511Y-5888428D01*
X2776537Y-5942425D01*
X2692425Y-6026537D01*
X2638428Y-6132511D01*
X2638426Y-6132518D01*
X2619819Y-6249999D01*
X2619819Y-6250000D01*
X2638426Y-6367481D01*
X2638428Y-6367488D01*
X2676611Y-6442425D01*
X2692427Y-6473465D01*
X2776535Y-6557573D01*
X2776537Y-6557574D01*
X2882511Y-6611571D01*
X2882513Y-6611571D01*
X2882518Y-6611574D01*
X3000000Y-6630181D01*
X3007782Y-6628948D01*
X3068213Y-6638518D01*
X3111479Y-6681782D01*
X3121052Y-6742211D01*
X3119819Y-6749998D01*
X3119819Y-6750000D01*
X3121052Y-6757787D01*
X3111478Y-6818219D01*
X3068212Y-6861481D01*
X3007787Y-6871052D01*
X3000000Y-6869819D01*
X2882518Y-6888426D01*
X2882511Y-6888428D01*
X2776537Y-6942425D01*
X2692425Y-7026537D01*
X2638428Y-7132511D01*
X2638426Y-7132518D01*
X2619819Y-7249999D01*
X2619819Y-7250000D01*
X2638426Y-7367481D01*
X2638428Y-7367488D01*
X2673721Y-7436753D01*
X2692427Y-7473465D01*
X2776535Y-7557573D01*
X2776537Y-7557574D01*
X2882511Y-7611571D01*
X2882513Y-7611571D01*
X2882518Y-7611574D01*
X3000000Y-7630181D01*
X3007782Y-7628948D01*
X3068213Y-7638518D01*
X3111479Y-7681782D01*
X3121052Y-7742211D01*
X3119819Y-7749998D01*
X3119819Y-7750000D01*
X3121052Y-7757787D01*
X3111478Y-7818219D01*
X3068212Y-7861481D01*
X3007787Y-7871052D01*
X3000000Y-7869819D01*
X2882518Y-7888426D01*
X2882511Y-7888428D01*
X2776537Y-7942425D01*
X2692425Y-8026537D01*
X2638428Y-8132511D01*
X2638426Y-8132518D01*
X2628938Y-8192427D01*
X2619819Y-8250000D01*
X2633720Y-8337772D01*
X2638426Y-8367481D01*
X2638428Y-8367488D01*
X2676611Y-8442425D01*
X2692427Y-8473465D01*
X2776535Y-8557573D01*
X2776537Y-8557574D01*
X2882511Y-8611571D01*
X2882513Y-8611571D01*
X2882518Y-8611574D01*
X3000000Y-8630181D01*
X3007782Y-8628948D01*
X3068213Y-8638518D01*
X3111479Y-8681782D01*
X3121052Y-8742211D01*
X3119819Y-8749998D01*
X3119819Y-8750000D01*
X3121052Y-8757787D01*
X3111478Y-8818219D01*
X3068212Y-8861481D01*
X3007787Y-8871052D01*
X3000000Y-8869819D01*
X2882518Y-8888426D01*
X2882511Y-8888428D01*
X2776537Y-8942425D01*
X2692425Y-9026537D01*
X2638428Y-9132511D01*
X2638426Y-9132518D01*
X2619819Y-9249999D01*
X2619819Y-9250000D01*
X200500Y-9250000D01*
X200500Y-4750000D01*
X13369819Y-4750000D01*
X13388426Y-4867481D01*
X13388428Y-4867488D01*
X13426611Y-4942425D01*
X13442427Y-4973465D01*
X13526535Y-5057573D01*
X13526537Y-5057574D01*
X13632511Y-5111571D01*
X13632513Y-5111571D01*
X13632518Y-5111574D01*
X13750000Y-5130181D01*
X13867482Y-5111574D01*
X13973465Y-5057573D01*
X14057573Y-4973465D01*
X14111574Y-4867482D01*
X14130181Y-4750000D01*
X14111574Y-4632518D01*
X14111571Y-4632513D01*
X14111571Y-4632511D01*
X14057574Y-4526537D01*
X14057573Y-4526535D01*
X13973465Y-4442427D01*
X13973462Y-4442425D01*
X13867488Y-4388428D01*
X13867483Y-4388426D01*
X13867482Y-4388426D01*
X13750000Y-4369819D01*
X13632518Y-4388426D01*
X13632511Y-4388428D01*
X13526537Y-4442425D01*
X13442425Y-4526537D01*
X13388428Y-4632511D01*
X13388426Y-4632518D01*
X13369819Y-4749999D01*
X13369819Y-4750000D01*
X200500Y-4750000D01*
X200500Y-4250000D01*
X10869819Y-4250000D01*
X10888426Y-4367481D01*
X10888428Y-4367488D01*
X10937834Y-4464451D01*
X10942427Y-4473465D01*
X11026535Y-4557573D01*
X11026537Y-4557574D01*
X11132511Y-4611571D01*
X11132513Y-4611571D01*
X11132518Y-4611574D01*
X11250000Y-4630181D01*
X11367482Y-4611574D01*
X11473465Y-4557573D01*
X11557573Y-4473465D01*
X11611574Y-4367482D01*
X11630181Y-4250000D01*
X11611574Y-4132518D01*
X11611571Y-4132513D01*
X11611571Y-4132511D01*
X11557574Y-4026537D01*
X11557573Y-4026535D01*
X11473465Y-3942427D01*
X11473462Y-3942425D01*
X11367488Y-3888428D01*
X11367483Y-3888426D01*
X11367482Y-3888426D01*
X11250000Y-3869819D01*
X11132518Y-3888426D01*
X11132511Y-3888428D01*
X11026537Y-3942425D01*
X10942425Y-4026537D01*
X10888428Y-4132511D01*
X10888426Y-4132518D01*
X10869819Y-4249999D01*
X10869819Y-4250000D01*
X200500Y-4250000D01*
X200500Y-3750000D01*
X4119819Y-3750000D01*
X4138426Y-3867481D01*
X4138428Y-3867488D01*
X4176611Y-3942425D01*
X4192427Y-3973465D01*
X4276535Y-4057573D01*
X4276537Y-4057574D01*
X4382511Y-4111571D01*
X4382513Y-4111571D01*
X4382518Y-4111574D01*
X4500000Y-4130181D01*
X4617482Y-4111574D01*
X4723465Y-4057573D01*
X4807573Y-3973465D01*
X4861574Y-3867482D01*
X4880181Y-3750000D01*
X9619819Y-3750000D01*
X9638426Y-3867481D01*
X9638428Y-3867488D01*
X9676611Y-3942425D01*
X9692427Y-3973465D01*
X9776535Y-4057573D01*
X9776537Y-4057574D01*
X9882511Y-4111571D01*
X9882513Y-4111571D01*
X9882518Y-4111574D01*
X10000000Y-4130181D01*
X10117482Y-4111574D01*
X10223465Y-4057573D01*
X10307573Y-3973465D01*
X10361574Y-3867482D01*
X10380181Y-3750000D01*
X10361574Y-3632518D01*
X10361571Y-3632513D01*
X10361571Y-3632511D01*
X10307574Y-3526537D01*
X10307573Y-3526535D01*
X10223465Y-3442427D01*
X10223462Y-3442425D01*
X10117488Y-3388428D01*
X10117483Y-3388426D01*
X10117482Y-3388426D01*
X10000000Y-3369819D01*
X9882518Y-3388426D01*
X9882511Y-3388428D01*
X9776537Y-3442425D01*
X9692425Y-3526537D01*
X9638428Y-3632511D01*
X9638426Y-3632518D01*
X9619819Y-3749999D01*
X9619819Y-3750000D01*
X4880181Y-3750000D01*
X4861574Y-3632518D01*
X4861571Y-3632513D01*
X4861571Y-3632511D01*
X4807574Y-3526537D01*
X4807573Y-3526535D01*
X4723465Y-3442427D01*
X4723462Y-3442425D01*
X4617488Y-3388428D01*
X4617483Y-3388426D01*
X4617482Y-3388426D01*
X4500000Y-3369819D01*
X4382518Y-3388426D01*
X4382511Y-3388428D01*
X4276537Y-3442425D01*
X4192425Y-3526537D01*
X4138428Y-3632511D01*
X4138426Y-3632518D01*
X4119819Y-3749999D01*
X4119819Y-3750000D01*
X200500Y-3750000D01*
X200500Y-3250000D01*
X8119819Y-3250000D01*
X8138426Y-3367481D01*
X8138428Y-3367488D01*
X8176611Y-3442425D01*
X8192427Y-3473465D01*
X8276535Y-3557573D01*
X8276537Y-3557574D01*
X8382511Y-3611571D01*
X8382513Y-3611571D01*
X8382518Y-3611574D01*
X8500000Y-3630181D01*
X8617482Y-3611574D01*
X8723465Y-3557573D01*
X8807573Y-3473465D01*
X8861574Y-3367482D01*
X8880181Y-3250000D01*
X8861574Y-3132518D01*
X8861571Y-3132513D01*
X8861571Y-3132511D01*
X8807574Y-3026537D01*
X8807573Y-3026535D01*
X8723465Y-2942427D01*
X8723462Y-2942425D01*
X8617488Y-2888428D01*
X8617483Y-2888426D01*
X8617482Y-2888426D01*
X8500000Y-2869819D01*
X8382518Y-2888426D01*
X8382511Y-2888428D01*
X8276537Y-2942425D01*
X8192425Y-3026537D01*
X8138428Y-3132511D01*
X8138426Y-3132518D01*
X8119819Y-3249999D01*
X8119819Y-3250000D01*
X200500Y-3250000D01*
X200500Y-2624057D01*
X219407Y-2565866D01*
X229496Y-2554053D01*
X1283549Y-1500000D01*
X4369819Y-1500000D01*
X4388426Y-1617481D01*
X4388428Y-1617488D01*
X4426611Y-1692425D01*
X4442427Y-1723465D01*
X4526535Y-1807573D01*
X4526537Y-1807574D01*
X4632511Y-1861571D01*
X4632513Y-1861571D01*
X4632518Y-1861574D01*
X4750000Y-1880181D01*
X4867482Y-1861574D01*
X4973465Y-1807573D01*
X5057573Y-1723465D01*
X5111574Y-1617482D01*
X5130181Y-1500000D01*
X5111574Y-1382518D01*
X5111571Y-1382513D01*
X5111571Y-1382511D01*
X5057574Y-1276537D01*
X5057573Y-1276535D01*
X4973465Y-1192427D01*
X4973462Y-1192425D01*
X4867488Y-1138428D01*
X4867483Y-1138426D01*
X4867482Y-1138426D01*
X4750000Y-1119819D01*
X4632518Y-1138426D01*
X4632511Y-1138428D01*
X4526537Y-1192425D01*
X4442425Y-1276537D01*
X4388428Y-1382511D01*
X4388426Y-1382518D01*
X4369819Y-1499999D01*
X4369819Y-1500000D01*
X1283549Y-1500000D01*
X1783549Y-1000000D01*
X11119819Y-1000000D01*
X11136760Y-1106966D01*
X11138426Y-1117481D01*
X11138428Y-1117488D01*
X11192425Y-1223462D01*
X11192427Y-1223465D01*
X11276535Y-1307573D01*
X11276537Y-1307574D01*
X11382511Y-1361571D01*
X11382513Y-1361571D01*
X11382518Y-1361574D01*
X11500000Y-1380181D01*
X11617482Y-1361574D01*
X11723465Y-1307573D01*
X11807573Y-1223465D01*
X11861574Y-1117482D01*
X11880181Y-1000000D01*
X13119819Y-1000000D01*
X13136760Y-1106966D01*
X13138426Y-1117481D01*
X13138428Y-1117488D01*
X13192425Y-1223462D01*
X13192427Y-1223465D01*
X13276535Y-1307573D01*
X13276537Y-1307574D01*
X13382511Y-1361571D01*
X13382513Y-1361571D01*
X13382518Y-1361574D01*
X13500000Y-1380181D01*
X13617482Y-1361574D01*
X13723465Y-1307573D01*
X13807573Y-1223465D01*
X13861574Y-1117482D01*
X13880181Y-1000000D01*
X13878515Y-989478D01*
X14588253Y-989478D01*
X14601811Y-1075084D01*
X14606860Y-1106959D01*
X14606862Y-1106966D01*
X14660859Y-1212940D01*
X14660861Y-1212943D01*
X14744969Y-1297051D01*
X14744971Y-1297052D01*
X14850945Y-1351049D01*
X14850947Y-1351049D01*
X14850952Y-1351052D01*
X14968434Y-1369659D01*
X15085916Y-1351052D01*
X15191899Y-1297051D01*
X15276007Y-1212943D01*
X15330008Y-1106960D01*
X15348615Y-989478D01*
X17088253Y-989478D01*
X17101811Y-1075084D01*
X17106860Y-1106959D01*
X17106862Y-1106966D01*
X17160859Y-1212940D01*
X17160861Y-1212943D01*
X17244969Y-1297051D01*
X17244971Y-1297052D01*
X17350945Y-1351049D01*
X17350947Y-1351049D01*
X17350952Y-1351052D01*
X17468434Y-1369659D01*
X17585916Y-1351052D01*
X17691899Y-1297051D01*
X17776007Y-1212943D01*
X17830008Y-1106960D01*
X17846949Y-1000000D01*
X18119819Y-1000000D01*
X18136760Y-1106966D01*
X18138426Y-1117481D01*
X18138428Y-1117488D01*
X18192425Y-1223462D01*
X18192427Y-1223465D01*
X18276535Y-1307573D01*
X18276537Y-1307574D01*
X18382511Y-1361571D01*
X18382513Y-1361571D01*
X18382518Y-1361574D01*
X18481665Y-1377277D01*
X18499999Y-1380181D01*
X18499999Y-1380180D01*
X18500000Y-1380181D01*
X18518331Y-1377277D01*
X18578763Y-1386845D01*
X18603826Y-1405053D01*
X19758004Y-2559231D01*
X19785781Y-2613748D01*
X19787000Y-2629235D01*
X19787000Y-9696988D01*
X19784035Y-9714438D01*
X19784145Y-9714451D01*
X19782896Y-9725536D01*
X19786689Y-9759202D01*
X19787000Y-9764748D01*
X19787000Y-9774002D01*
X19789058Y-9783020D01*
X19789988Y-9788493D01*
X19793780Y-9822154D01*
X19797466Y-9832686D01*
X19797361Y-9832722D01*
X19798218Y-9834790D01*
X19798317Y-9834743D01*
X19803157Y-9844793D01*
X19824278Y-9871278D01*
X19827492Y-9875808D01*
X19832414Y-9883641D01*
X19838959Y-9890186D01*
X19842660Y-9894329D01*
X19863781Y-9920814D01*
X19872504Y-9927770D01*
X19872434Y-9927856D01*
X19886872Y-9938099D01*
X20844945Y-10896172D01*
X20872722Y-10950689D01*
X20872723Y-10981659D01*
X20869819Y-10999999D01*
X20869819Y-11000000D01*
X20888426Y-11117481D01*
X20888428Y-11117488D01*
X20926611Y-11192425D01*
X20942427Y-11223465D01*
X21026535Y-11307573D01*
X21026537Y-11307574D01*
X21132511Y-11361571D01*
X21132513Y-11361571D01*
X21132518Y-11361574D01*
X21250000Y-11380181D01*
X21367482Y-11361574D01*
X21473465Y-11307573D01*
X21557573Y-11223465D01*
X21611574Y-11117482D01*
X21630181Y-11000000D01*
X21611574Y-10882518D01*
X21611571Y-10882513D01*
X21611571Y-10882511D01*
X21557574Y-10776537D01*
X21557573Y-10776535D01*
X21473465Y-10692427D01*
X21473462Y-10692425D01*
X21367488Y-10638428D01*
X21367483Y-10638426D01*
X21367482Y-10638426D01*
X21250000Y-10619819D01*
X21231659Y-10622723D01*
X21171227Y-10613149D01*
X21146172Y-10594945D01*
X20241996Y-9690769D01*
X20214219Y-9636252D01*
X20213000Y-9620765D01*
X20213000Y-7436753D01*
X20231907Y-7378562D01*
X20281407Y-7342598D01*
X20342593Y-7342598D01*
X20356937Y-7348539D01*
X20382518Y-7361574D01*
X20500000Y-7380181D01*
X20617482Y-7361574D01*
X20723465Y-7307573D01*
X20807573Y-7223465D01*
X20861574Y-7117482D01*
X20880181Y-7000000D01*
X20861574Y-6882518D01*
X20861571Y-6882513D01*
X20861571Y-6882511D01*
X20807574Y-6776537D01*
X20807573Y-6776535D01*
X20723465Y-6692427D01*
X20723462Y-6692425D01*
X20617488Y-6638428D01*
X20617483Y-6638426D01*
X20617482Y-6638426D01*
X20500000Y-6619819D01*
X20382518Y-6638426D01*
X20382516Y-6638426D01*
X20356945Y-6651456D01*
X20296512Y-6661027D01*
X20241996Y-6633249D01*
X20214219Y-6578732D01*
X20213000Y-6563246D01*
X20213000Y-2553009D01*
X20215965Y-2535558D01*
X20215855Y-2535546D01*
X20217104Y-2524462D01*
X20213311Y-2490794D01*
X20213000Y-2485249D01*
X20213000Y-2476001D01*
X20213000Y-2475999D01*
X20210936Y-2466961D01*
X20210011Y-2461518D01*
X20206218Y-2427841D01*
X20206217Y-2427839D01*
X20202534Y-2417314D01*
X20202639Y-2417276D01*
X20201782Y-2415207D01*
X20201681Y-2415256D01*
X20196842Y-2405210D01*
X20196842Y-2405206D01*
X20175715Y-2378715D01*
X20172512Y-2374199D01*
X20167585Y-2366357D01*
X20164976Y-2363748D01*
X20161035Y-2359806D01*
X20157336Y-2355666D01*
X20136219Y-2329187D01*
X20127499Y-2322233D01*
X20127567Y-2322146D01*
X20113131Y-2311903D01*
X18905053Y-1103826D01*
X18877276Y-1049309D01*
X18877276Y-1018333D01*
X18880181Y-1000000D01*
X18878515Y-989478D01*
X19588253Y-989478D01*
X19601811Y-1075084D01*
X19606860Y-1106959D01*
X19606862Y-1106966D01*
X19660859Y-1212940D01*
X19660861Y-1212943D01*
X19744969Y-1297051D01*
X19744971Y-1297052D01*
X19850945Y-1351049D01*
X19850947Y-1351049D01*
X19850952Y-1351052D01*
X19968434Y-1369659D01*
X20085916Y-1351052D01*
X20191899Y-1297051D01*
X20276007Y-1212943D01*
X20330008Y-1106960D01*
X20345852Y-1006926D01*
X20619819Y-1006926D01*
X20635662Y-1106959D01*
X20638426Y-1124407D01*
X20638428Y-1124414D01*
X20688898Y-1223465D01*
X20692427Y-1230391D01*
X20776535Y-1314499D01*
X20776537Y-1314500D01*
X20882511Y-1368497D01*
X20882513Y-1368497D01*
X20882518Y-1368500D01*
X20971026Y-1382518D01*
X20999999Y-1387107D01*
X20999999Y-1387106D01*
X21000000Y-1387107D01*
X21018331Y-1384203D01*
X21078763Y-1393771D01*
X21103826Y-1411979D01*
X22008004Y-2316157D01*
X22035781Y-2370674D01*
X22037000Y-2386161D01*
X22037000Y-5814446D01*
X22018093Y-5872637D01*
X21968593Y-5908601D01*
X21907407Y-5908601D01*
X21857907Y-5872637D01*
X21849791Y-5859392D01*
X21828812Y-5818219D01*
X21807573Y-5776535D01*
X21723465Y-5692427D01*
X21723462Y-5692425D01*
X21617488Y-5638428D01*
X21617483Y-5638426D01*
X21617482Y-5638426D01*
X21500000Y-5619819D01*
X21382518Y-5638426D01*
X21382511Y-5638428D01*
X21276537Y-5692425D01*
X21192425Y-5776537D01*
X21138428Y-5882511D01*
X21138426Y-5882518D01*
X21128938Y-5942427D01*
X21119819Y-6000000D01*
X21133720Y-6087772D01*
X21138426Y-6117481D01*
X21138428Y-6117488D01*
X21176611Y-6192425D01*
X21192427Y-6223465D01*
X21276535Y-6307573D01*
X21276537Y-6307574D01*
X21382511Y-6361571D01*
X21382513Y-6361571D01*
X21382518Y-6361574D01*
X21500000Y-6380181D01*
X21617482Y-6361574D01*
X21723465Y-6307573D01*
X21807573Y-6223465D01*
X21849791Y-6140606D01*
X21893055Y-6097343D01*
X21953487Y-6087772D01*
X22008004Y-6115550D01*
X22035781Y-6170066D01*
X22037000Y-6185553D01*
X22037000Y-12696988D01*
X22034035Y-12714438D01*
X22034145Y-12714451D01*
X22032896Y-12725536D01*
X22032896Y-12725537D01*
X22032896Y-12725538D01*
X22036689Y-12759202D01*
X22037000Y-12764748D01*
X22037000Y-12774002D01*
X22039058Y-12783020D01*
X22039988Y-12788493D01*
X22043219Y-12817175D01*
X22030947Y-12877117D01*
X21985785Y-12918397D01*
X21924984Y-12925248D01*
X21899897Y-12916470D01*
X21844858Y-12888426D01*
X21727376Y-12869819D01*
X21609894Y-12888426D01*
X21609887Y-12888428D01*
X21503913Y-12942425D01*
X21419801Y-13026537D01*
X21365804Y-13132511D01*
X21365802Y-13132518D01*
X21347195Y-13249999D01*
X21347195Y-13250000D01*
X21365802Y-13367481D01*
X21365804Y-13367488D01*
X21419801Y-13473462D01*
X21419803Y-13473465D01*
X21503911Y-13557573D01*
X21503913Y-13557574D01*
X21609887Y-13611571D01*
X21609889Y-13611571D01*
X21609894Y-13611574D01*
X21727376Y-13630181D01*
X21844858Y-13611574D01*
X21950841Y-13557573D01*
X22034949Y-13473465D01*
X22088950Y-13367482D01*
X22107557Y-13250000D01*
X22091007Y-13145507D01*
X22100578Y-13085078D01*
X22143843Y-13041814D01*
X22204275Y-13032242D01*
X22258791Y-13060019D01*
X22258792Y-13060019D01*
X23094945Y-13896172D01*
X23122722Y-13950689D01*
X23122723Y-13981659D01*
X23119819Y-13999999D01*
X23119819Y-14000000D01*
X23138426Y-14117481D01*
X23138428Y-14117488D01*
X23192425Y-14223462D01*
X23192427Y-14223465D01*
X23276535Y-14307573D01*
X23276537Y-14307574D01*
X23382511Y-14361571D01*
X23382513Y-14361571D01*
X23382518Y-14361574D01*
X23500000Y-14380181D01*
X23617482Y-14361574D01*
X23723465Y-14307573D01*
X23807573Y-14223465D01*
X23861574Y-14117482D01*
X23880181Y-14000000D01*
X23861574Y-13882518D01*
X23861571Y-13882513D01*
X23861571Y-13882511D01*
X23807574Y-13776537D01*
X23807573Y-13776535D01*
X23723465Y-13692427D01*
X23723462Y-13692425D01*
X23617488Y-13638428D01*
X23617483Y-13638426D01*
X23617482Y-13638426D01*
X23500000Y-13619819D01*
X23481659Y-13622723D01*
X23421227Y-13613149D01*
X23396172Y-13594945D01*
X22491996Y-12690769D01*
X22464219Y-12636252D01*
X22463000Y-12620765D01*
X22463000Y-12000000D01*
X23119819Y-12000000D01*
X23138426Y-12117481D01*
X23138428Y-12117488D01*
X23176612Y-12192427D01*
X23192427Y-12223465D01*
X23276535Y-12307573D01*
X23276537Y-12307574D01*
X23382511Y-12361571D01*
X23382513Y-12361571D01*
X23382518Y-12361574D01*
X23500000Y-12380181D01*
X23617482Y-12361574D01*
X23723465Y-12307573D01*
X23807573Y-12223465D01*
X23861574Y-12117482D01*
X23880181Y-12000000D01*
X23861574Y-11882518D01*
X23861571Y-11882513D01*
X23861571Y-11882511D01*
X23807574Y-11776537D01*
X23807573Y-11776535D01*
X23723465Y-11692427D01*
X23723462Y-11692425D01*
X23617488Y-11638428D01*
X23617483Y-11638426D01*
X23617482Y-11638426D01*
X23500000Y-11619819D01*
X23382518Y-11638426D01*
X23382511Y-11638428D01*
X23276537Y-11692425D01*
X23192425Y-11776537D01*
X23138428Y-11882511D01*
X23138426Y-11882518D01*
X23119819Y-11999999D01*
X23119819Y-12000000D01*
X22463000Y-12000000D01*
X22463000Y-11000000D01*
X23369819Y-11000000D01*
X23388426Y-11117481D01*
X23388428Y-11117488D01*
X23426611Y-11192425D01*
X23442427Y-11223465D01*
X23526535Y-11307573D01*
X23526537Y-11307574D01*
X23632511Y-11361571D01*
X23632513Y-11361571D01*
X23632518Y-11361574D01*
X23750000Y-11380181D01*
X23867482Y-11361574D01*
X23973465Y-11307573D01*
X24057573Y-11223465D01*
X24111574Y-11117482D01*
X24130181Y-11000000D01*
X24111574Y-10882518D01*
X24111571Y-10882513D01*
X24111571Y-10882511D01*
X24057574Y-10776537D01*
X24057573Y-10776535D01*
X23973465Y-10692427D01*
X23973462Y-10692425D01*
X23867488Y-10638428D01*
X23867483Y-10638426D01*
X23867482Y-10638426D01*
X23750000Y-10619819D01*
X23632518Y-10638426D01*
X23632511Y-10638428D01*
X23526537Y-10692425D01*
X23442425Y-10776537D01*
X23388428Y-10882511D01*
X23388426Y-10882518D01*
X23369819Y-10999999D01*
X23369819Y-11000000D01*
X22463000Y-11000000D01*
X22463000Y-7185553D01*
X22481907Y-7127362D01*
X22531407Y-7091398D01*
X22592593Y-7091398D01*
X22642093Y-7127362D01*
X22650205Y-7140601D01*
X22692427Y-7223465D01*
X22776535Y-7307573D01*
X22776537Y-7307574D01*
X22882511Y-7361571D01*
X22882513Y-7361571D01*
X22882518Y-7361574D01*
X23000000Y-7380181D01*
X23117482Y-7361574D01*
X23223465Y-7307573D01*
X23307573Y-7223465D01*
X23361574Y-7117482D01*
X23380181Y-7000000D01*
X23361574Y-6882518D01*
X23361571Y-6882513D01*
X23361571Y-6882511D01*
X23307574Y-6776537D01*
X23307573Y-6776535D01*
X23223465Y-6692427D01*
X23223462Y-6692425D01*
X23117488Y-6638428D01*
X23117483Y-6638426D01*
X23117482Y-6638426D01*
X23000000Y-6619819D01*
X22882518Y-6638426D01*
X22882511Y-6638428D01*
X22776537Y-6692425D01*
X22692426Y-6776536D01*
X22650209Y-6859392D01*
X22606945Y-6902656D01*
X22546512Y-6912227D01*
X22491996Y-6884449D01*
X22464219Y-6829932D01*
X22463000Y-6814446D01*
X22463000Y-2309936D01*
X22465965Y-2292485D01*
X22465855Y-2292473D01*
X22467104Y-2281389D01*
X22463311Y-2247721D01*
X22463000Y-2242176D01*
X22463000Y-2232924D01*
X22462999Y-2232918D01*
X22460941Y-2223904D01*
X22460009Y-2218423D01*
X22456218Y-2184767D01*
X22456216Y-2184764D01*
X22452533Y-2174237D01*
X22452638Y-2174199D01*
X22451782Y-2172132D01*
X22451681Y-2172182D01*
X22446842Y-2162134D01*
X22446842Y-2162132D01*
X22441319Y-2155207D01*
X22425719Y-2135645D01*
X22422515Y-2131130D01*
X22417585Y-2123284D01*
X22417582Y-2123281D01*
X22411039Y-2116737D01*
X22407340Y-2112597D01*
X22386219Y-2086113D01*
X22377499Y-2079159D01*
X22377567Y-2079073D01*
X22363128Y-2068827D01*
X21405053Y-1110752D01*
X21377276Y-1056235D01*
X21377276Y-1025259D01*
X21380181Y-1006926D01*
X21377418Y-989478D01*
X22088253Y-989478D01*
X22101811Y-1075084D01*
X22106860Y-1106959D01*
X22106862Y-1106966D01*
X22160859Y-1212940D01*
X22160861Y-1212943D01*
X22244969Y-1297051D01*
X22244971Y-1297052D01*
X22350945Y-1351049D01*
X22350947Y-1351049D01*
X22350952Y-1351052D01*
X22468434Y-1369659D01*
X22585916Y-1351052D01*
X22691899Y-1297051D01*
X22776007Y-1212943D01*
X22830008Y-1106960D01*
X22846949Y-1000000D01*
X23119819Y-1000000D01*
X23136760Y-1106966D01*
X23138426Y-1117481D01*
X23138428Y-1117488D01*
X23192425Y-1223462D01*
X23192427Y-1223465D01*
X23276535Y-1307573D01*
X23276537Y-1307574D01*
X23382511Y-1361571D01*
X23382513Y-1361571D01*
X23382518Y-1361574D01*
X23481665Y-1377277D01*
X23499999Y-1380181D01*
X23499999Y-1380180D01*
X23500000Y-1380181D01*
X23518331Y-1377277D01*
X23578763Y-1386845D01*
X23603826Y-1405053D01*
X24508004Y-2309231D01*
X24535781Y-2363748D01*
X24537000Y-2379235D01*
X24537000Y-8064446D01*
X24518093Y-8122637D01*
X24468593Y-8158601D01*
X24407407Y-8158601D01*
X24357907Y-8122637D01*
X24349791Y-8109392D01*
X24334896Y-8080160D01*
X24307573Y-8026535D01*
X24223465Y-7942427D01*
X24223462Y-7942425D01*
X24117488Y-7888428D01*
X24117483Y-7888426D01*
X24117482Y-7888426D01*
X24000000Y-7869819D01*
X23882518Y-7888426D01*
X23882511Y-7888428D01*
X23776537Y-7942425D01*
X23692425Y-8026537D01*
X23638428Y-8132511D01*
X23638426Y-8132518D01*
X23628938Y-8192427D01*
X23619819Y-8250000D01*
X23633720Y-8337772D01*
X23638426Y-8367481D01*
X23638428Y-8367488D01*
X23676611Y-8442425D01*
X23692427Y-8473465D01*
X23776535Y-8557573D01*
X23776537Y-8557574D01*
X23882511Y-8611571D01*
X23882513Y-8611571D01*
X23882518Y-8611574D01*
X24000000Y-8630181D01*
X24117482Y-8611574D01*
X24223465Y-8557573D01*
X24307573Y-8473465D01*
X24349791Y-8390606D01*
X24393055Y-8347343D01*
X24453487Y-8337772D01*
X24508004Y-8365550D01*
X24535781Y-8420066D01*
X24537000Y-8435553D01*
X24537000Y-14446988D01*
X24534035Y-14464438D01*
X24534145Y-14464451D01*
X24532896Y-14475536D01*
X24536689Y-14509202D01*
X24537000Y-14514748D01*
X24537000Y-14524002D01*
X24539058Y-14533020D01*
X24539988Y-14538493D01*
X24543780Y-14572154D01*
X24547466Y-14582686D01*
X24547361Y-14582722D01*
X24548218Y-14584790D01*
X24548317Y-14584743D01*
X24553157Y-14594793D01*
X24574278Y-14621278D01*
X24577492Y-14625808D01*
X24582414Y-14633641D01*
X24588959Y-14640186D01*
X24592660Y-14644329D01*
X24613781Y-14670814D01*
X24622504Y-14677770D01*
X24622434Y-14677856D01*
X24636872Y-14688099D01*
X24844945Y-14896172D01*
X24872722Y-14950689D01*
X24872723Y-14981659D01*
X24869819Y-14999999D01*
X24869819Y-15000000D01*
X24879381Y-15060376D01*
X24888426Y-15117481D01*
X24888428Y-15117488D01*
X24926548Y-15192301D01*
X24942427Y-15223465D01*
X25026535Y-15307573D01*
X25026537Y-15307574D01*
X25132511Y-15361571D01*
X25132513Y-15361571D01*
X25132518Y-15361574D01*
X25250000Y-15380181D01*
X25367482Y-15361574D01*
X25473465Y-15307573D01*
X25531038Y-15250000D01*
X28119819Y-15250000D01*
X28138426Y-15367481D01*
X28138428Y-15367488D01*
X28192425Y-15473462D01*
X28192427Y-15473465D01*
X28276535Y-15557573D01*
X28276537Y-15557574D01*
X28382511Y-15611571D01*
X28382513Y-15611571D01*
X28382518Y-15611574D01*
X28500000Y-15630181D01*
X28617482Y-15611574D01*
X28723465Y-15557573D01*
X28807573Y-15473465D01*
X28838773Y-15412232D01*
X32205690Y-15412232D01*
X32235917Y-15557698D01*
X32235919Y-15557706D01*
X32304274Y-15689623D01*
X32304276Y-15689626D01*
X32405690Y-15798214D01*
X32532640Y-15875414D01*
X32675710Y-15915500D01*
X32675711Y-15915500D01*
X32786968Y-15915500D01*
X32786974Y-15915500D01*
X32897196Y-15900350D01*
X33033476Y-15841156D01*
X33148731Y-15747389D01*
X33234414Y-15626003D01*
X33284171Y-15486002D01*
X33294310Y-15337768D01*
X33288035Y-15307573D01*
X33264082Y-15192301D01*
X33264080Y-15192293D01*
X33195725Y-15060376D01*
X33195723Y-15060373D01*
X33094311Y-14951787D01*
X33094310Y-14951786D01*
X32967360Y-14874586D01*
X32967359Y-14874585D01*
X32967358Y-14874585D01*
X32824290Y-14834500D01*
X32713026Y-14834500D01*
X32602805Y-14849649D01*
X32602801Y-14849650D01*
X32466524Y-14908843D01*
X32466522Y-14908844D01*
X32351268Y-15002610D01*
X32265587Y-15123995D01*
X32215828Y-15263997D01*
X32205690Y-15412232D01*
X28838773Y-15412232D01*
X28861574Y-15367482D01*
X28880181Y-15250000D01*
X28861574Y-15132518D01*
X28861571Y-15132513D01*
X28861571Y-15132511D01*
X28807574Y-15026537D01*
X28807573Y-15026535D01*
X28723465Y-14942427D01*
X28723462Y-14942425D01*
X28617488Y-14888428D01*
X28617483Y-14888426D01*
X28617482Y-14888426D01*
X28500000Y-14869819D01*
X28382518Y-14888426D01*
X28382511Y-14888428D01*
X28276537Y-14942425D01*
X28192425Y-15026537D01*
X28138428Y-15132511D01*
X28138426Y-15132518D01*
X28119819Y-15249999D01*
X28119819Y-15250000D01*
X25531038Y-15250000D01*
X25557573Y-15223465D01*
X25611574Y-15117482D01*
X25630181Y-15000000D01*
X25611574Y-14882518D01*
X25611571Y-14882513D01*
X25611571Y-14882511D01*
X25557574Y-14776537D01*
X25557573Y-14776535D01*
X25473465Y-14692427D01*
X25473462Y-14692425D01*
X25367488Y-14638428D01*
X25367483Y-14638426D01*
X25367482Y-14638426D01*
X25250000Y-14619819D01*
X25231659Y-14622723D01*
X25171227Y-14613149D01*
X25146172Y-14594945D01*
X24991996Y-14440769D01*
X24964219Y-14386252D01*
X24963000Y-14370765D01*
X24963000Y-14000000D01*
X28119819Y-14000000D01*
X28138426Y-14117481D01*
X28138428Y-14117488D01*
X28192425Y-14223462D01*
X28192427Y-14223465D01*
X28276535Y-14307573D01*
X28276537Y-14307574D01*
X28382511Y-14361571D01*
X28382513Y-14361571D01*
X28382518Y-14361574D01*
X28500000Y-14380181D01*
X28617482Y-14361574D01*
X28723465Y-14307573D01*
X28807573Y-14223465D01*
X28861574Y-14117482D01*
X28880181Y-14000000D01*
X28861574Y-13882518D01*
X28861571Y-13882513D01*
X28861571Y-13882511D01*
X28807574Y-13776537D01*
X28807573Y-13776535D01*
X28723465Y-13692427D01*
X28723462Y-13692425D01*
X28617488Y-13638428D01*
X28617483Y-13638426D01*
X28617482Y-13638426D01*
X28500000Y-13619819D01*
X28382518Y-13638426D01*
X28382511Y-13638428D01*
X28276537Y-13692425D01*
X28192425Y-13776537D01*
X28138428Y-13882511D01*
X28138426Y-13882518D01*
X28119819Y-13999999D01*
X28119819Y-14000000D01*
X24963000Y-14000000D01*
X24963000Y-12936753D01*
X24981907Y-12878562D01*
X25031407Y-12842598D01*
X25092593Y-12842598D01*
X25106937Y-12848539D01*
X25132518Y-12861574D01*
X25250000Y-12880181D01*
X25367482Y-12861574D01*
X25473465Y-12807573D01*
X25557573Y-12723465D01*
X25611574Y-12617482D01*
X25630181Y-12500000D01*
X25611574Y-12382518D01*
X25611571Y-12382513D01*
X25611571Y-12382511D01*
X25557574Y-12276537D01*
X25552992Y-12270230D01*
X25555126Y-12268679D01*
X25545609Y-12250000D01*
X26119819Y-12250000D01*
X26138426Y-12367481D01*
X26138428Y-12367488D01*
X26192425Y-12473462D01*
X26192427Y-12473465D01*
X26276535Y-12557573D01*
X26276537Y-12557574D01*
X26382511Y-12611571D01*
X26382513Y-12611571D01*
X26382518Y-12611574D01*
X26500000Y-12630181D01*
X26617482Y-12611574D01*
X26723465Y-12557573D01*
X26807573Y-12473465D01*
X26861574Y-12367482D01*
X26880181Y-12250000D01*
X29869819Y-12250000D01*
X29888426Y-12367481D01*
X29888428Y-12367488D01*
X29942425Y-12473462D01*
X29942427Y-12473465D01*
X30026535Y-12557573D01*
X30026537Y-12557574D01*
X30132511Y-12611571D01*
X30132513Y-12611571D01*
X30132518Y-12611574D01*
X30250000Y-12630181D01*
X30367482Y-12611574D01*
X30473465Y-12557573D01*
X30557573Y-12473465D01*
X30611574Y-12367482D01*
X30630181Y-12250000D01*
X30611574Y-12132518D01*
X30611571Y-12132513D01*
X30611571Y-12132511D01*
X30557574Y-12026537D01*
X30557573Y-12026535D01*
X30531038Y-12000000D01*
X31869819Y-12000000D01*
X31888426Y-12117481D01*
X31888428Y-12117488D01*
X31926612Y-12192427D01*
X31942427Y-12223465D01*
X32026535Y-12307573D01*
X32026537Y-12307574D01*
X32132511Y-12361571D01*
X32132513Y-12361571D01*
X32132518Y-12361574D01*
X32250000Y-12380181D01*
X32367482Y-12361574D01*
X32473465Y-12307573D01*
X32557573Y-12223465D01*
X32611574Y-12117482D01*
X32630181Y-12000000D01*
X32611574Y-11882518D01*
X32611571Y-11882513D01*
X32611571Y-11882511D01*
X32557574Y-11776537D01*
X32557573Y-11776535D01*
X32473465Y-11692427D01*
X32473462Y-11692425D01*
X32367488Y-11638428D01*
X32367483Y-11638426D01*
X32367482Y-11638426D01*
X32250000Y-11619819D01*
X32132518Y-11638426D01*
X32132511Y-11638428D01*
X32026537Y-11692425D01*
X31942425Y-11776537D01*
X31888428Y-11882511D01*
X31888426Y-11882518D01*
X31869819Y-11999999D01*
X31869819Y-12000000D01*
X30531038Y-12000000D01*
X30473465Y-11942427D01*
X30473462Y-11942425D01*
X30367488Y-11888428D01*
X30367483Y-11888426D01*
X30367482Y-11888426D01*
X30250000Y-11869819D01*
X30132518Y-11888426D01*
X30132511Y-11888428D01*
X30026537Y-11942425D01*
X29942425Y-12026537D01*
X29888428Y-12132511D01*
X29888426Y-12132518D01*
X29869819Y-12249999D01*
X29869819Y-12250000D01*
X26880181Y-12250000D01*
X26861574Y-12132518D01*
X26861571Y-12132513D01*
X26861571Y-12132511D01*
X26807574Y-12026537D01*
X26807573Y-12026535D01*
X26723465Y-11942427D01*
X26723462Y-11942425D01*
X26617488Y-11888428D01*
X26617483Y-11888426D01*
X26617482Y-11888426D01*
X26500000Y-11869819D01*
X26382518Y-11888426D01*
X26382511Y-11888428D01*
X26276537Y-11942425D01*
X26192425Y-12026537D01*
X26138428Y-12132511D01*
X26138426Y-12132518D01*
X26119819Y-12249999D01*
X26119819Y-12250000D01*
X25545609Y-12250000D01*
X25532970Y-12225193D01*
X25542541Y-12164761D01*
X25585806Y-12121496D01*
X25615264Y-12111925D01*
X25617482Y-12111574D01*
X25723465Y-12057573D01*
X25807573Y-11973465D01*
X25861574Y-11867482D01*
X25880181Y-11750000D01*
X27619819Y-11750000D01*
X27638426Y-11867481D01*
X27638428Y-11867488D01*
X27676611Y-11942425D01*
X27692427Y-11973465D01*
X27776535Y-12057573D01*
X27776537Y-12057574D01*
X27882511Y-12111571D01*
X27882513Y-12111571D01*
X27882518Y-12111574D01*
X28000000Y-12130181D01*
X28117482Y-12111574D01*
X28223465Y-12057573D01*
X28307573Y-11973465D01*
X28361574Y-11867482D01*
X28380181Y-11750000D01*
X28361574Y-11632518D01*
X28361571Y-11632513D01*
X28361571Y-11632511D01*
X28307574Y-11526537D01*
X28307573Y-11526535D01*
X28223465Y-11442427D01*
X28223462Y-11442425D01*
X28117488Y-11388428D01*
X28117483Y-11388426D01*
X28117482Y-11388426D01*
X28000000Y-11369819D01*
X27882518Y-11388426D01*
X27882511Y-11388428D01*
X27776537Y-11442425D01*
X27692425Y-11526537D01*
X27638428Y-11632511D01*
X27638426Y-11632518D01*
X27619819Y-11749999D01*
X27619819Y-11750000D01*
X25880181Y-11750000D01*
X25861574Y-11632518D01*
X25861571Y-11632513D01*
X25861571Y-11632511D01*
X25807574Y-11526537D01*
X25807573Y-11526535D01*
X25723465Y-11442427D01*
X25723462Y-11442425D01*
X25617488Y-11388428D01*
X25617483Y-11388426D01*
X25617482Y-11388426D01*
X25500000Y-11369819D01*
X25382518Y-11388426D01*
X25382511Y-11388428D01*
X25276537Y-11442425D01*
X25192426Y-11526536D01*
X25150209Y-11609392D01*
X25106945Y-11652656D01*
X25046512Y-11662227D01*
X24991996Y-11634449D01*
X24964219Y-11579932D01*
X24963000Y-11564446D01*
X24963000Y-11250000D01*
X30869819Y-11250000D01*
X30888426Y-11367481D01*
X30888428Y-11367488D01*
X30926611Y-11442425D01*
X30942427Y-11473465D01*
X31026535Y-11557573D01*
X31026537Y-11557574D01*
X31132511Y-11611571D01*
X31132513Y-11611571D01*
X31132518Y-11611574D01*
X31250000Y-11630181D01*
X31367482Y-11611574D01*
X31473465Y-11557573D01*
X31531038Y-11500000D01*
X33369819Y-11500000D01*
X33388426Y-11617481D01*
X33388428Y-11617488D01*
X33426611Y-11692425D01*
X33442427Y-11723465D01*
X33526535Y-11807573D01*
X33526537Y-11807574D01*
X33632511Y-11861571D01*
X33632513Y-11861571D01*
X33632518Y-11861574D01*
X33750000Y-11880181D01*
X33867482Y-11861574D01*
X33973465Y-11807573D01*
X34057573Y-11723465D01*
X34111574Y-11617482D01*
X34130181Y-11500000D01*
X34111574Y-11382518D01*
X34111571Y-11382513D01*
X34111571Y-11382511D01*
X34057574Y-11276537D01*
X34057573Y-11276535D01*
X33973465Y-11192427D01*
X33973462Y-11192425D01*
X33867488Y-11138428D01*
X33867483Y-11138426D01*
X33867482Y-11138426D01*
X33750000Y-11119819D01*
X33632518Y-11138426D01*
X33632511Y-11138428D01*
X33526537Y-11192425D01*
X33442425Y-11276537D01*
X33388428Y-11382511D01*
X33388426Y-11382518D01*
X33369819Y-11499999D01*
X33369819Y-11500000D01*
X31531038Y-11500000D01*
X31557573Y-11473465D01*
X31611574Y-11367482D01*
X31630181Y-11250000D01*
X31611574Y-11132518D01*
X31611571Y-11132513D01*
X31611571Y-11132511D01*
X31557574Y-11026537D01*
X31557573Y-11026535D01*
X31473465Y-10942427D01*
X31473462Y-10942425D01*
X31367488Y-10888428D01*
X31367483Y-10888426D01*
X31367482Y-10888426D01*
X31250000Y-10869819D01*
X31132518Y-10888426D01*
X31132511Y-10888428D01*
X31026537Y-10942425D01*
X30942425Y-11026537D01*
X30888428Y-11132511D01*
X30888426Y-11132518D01*
X30869819Y-11249999D01*
X30869819Y-11250000D01*
X24963000Y-11250000D01*
X24963000Y-10750000D01*
X28619819Y-10750000D01*
X28638426Y-10867481D01*
X28638428Y-10867488D01*
X28692425Y-10973462D01*
X28692427Y-10973465D01*
X28776535Y-11057573D01*
X28776537Y-11057574D01*
X28882511Y-11111571D01*
X28882513Y-11111571D01*
X28882518Y-11111574D01*
X29000000Y-11130181D01*
X29117482Y-11111574D01*
X29223465Y-11057573D01*
X29307573Y-10973465D01*
X29361574Y-10867482D01*
X29380181Y-10750000D01*
X29361574Y-10632518D01*
X29361571Y-10632513D01*
X29361571Y-10632511D01*
X29307574Y-10526537D01*
X29307573Y-10526535D01*
X29223465Y-10442427D01*
X29223462Y-10442425D01*
X29117488Y-10388428D01*
X29117483Y-10388426D01*
X29117482Y-10388426D01*
X29000000Y-10369819D01*
X28882518Y-10388426D01*
X28882511Y-10388428D01*
X28776537Y-10442425D01*
X28692425Y-10526537D01*
X28638428Y-10632511D01*
X28638426Y-10632518D01*
X28619819Y-10749999D01*
X28619819Y-10750000D01*
X24963000Y-10750000D01*
X24963000Y-8500000D01*
X26119819Y-8500000D01*
X26138426Y-8617481D01*
X26138428Y-8617488D01*
X26171188Y-8681782D01*
X26192427Y-8723465D01*
X26276535Y-8807573D01*
X26276537Y-8807574D01*
X26382511Y-8861571D01*
X26382513Y-8861571D01*
X26382518Y-8861574D01*
X26500000Y-8880181D01*
X26617482Y-8861574D01*
X26723465Y-8807573D01*
X26807573Y-8723465D01*
X26861574Y-8617482D01*
X26880181Y-8500000D01*
X26861574Y-8382518D01*
X26861571Y-8382513D01*
X26861571Y-8382511D01*
X26807574Y-8276537D01*
X26807573Y-8276535D01*
X26723465Y-8192427D01*
X26723462Y-8192425D01*
X26617488Y-8138428D01*
X26617483Y-8138426D01*
X26617482Y-8138426D01*
X26500000Y-8119819D01*
X26382518Y-8138426D01*
X26382511Y-8138428D01*
X26276537Y-8192425D01*
X26192425Y-8276537D01*
X26138428Y-8382511D01*
X26138426Y-8382518D01*
X26119819Y-8499999D01*
X26119819Y-8500000D01*
X24963000Y-8500000D01*
X24963000Y-7500000D01*
X30369819Y-7500000D01*
X30388426Y-7617481D01*
X30388428Y-7617488D01*
X30421188Y-7681782D01*
X30442427Y-7723465D01*
X30526535Y-7807573D01*
X30526537Y-7807574D01*
X30632511Y-7861571D01*
X30632513Y-7861571D01*
X30632518Y-7861574D01*
X30750000Y-7880181D01*
X30867482Y-7861574D01*
X30973465Y-7807573D01*
X31057573Y-7723465D01*
X31111574Y-7617482D01*
X31130181Y-7500000D01*
X31111574Y-7382518D01*
X31111571Y-7382513D01*
X31111571Y-7382511D01*
X31057574Y-7276537D01*
X31057573Y-7276535D01*
X30973465Y-7192427D01*
X30973462Y-7192425D01*
X30867488Y-7138428D01*
X30867483Y-7138426D01*
X30867482Y-7138426D01*
X30750000Y-7119819D01*
X30632518Y-7138426D01*
X30632511Y-7138428D01*
X30526537Y-7192425D01*
X30442425Y-7276537D01*
X30388428Y-7382511D01*
X30388426Y-7382518D01*
X30369819Y-7499999D01*
X30369819Y-7500000D01*
X24963000Y-7500000D01*
X24963000Y-7185553D01*
X24981907Y-7127362D01*
X25031407Y-7091398D01*
X25092593Y-7091398D01*
X25142093Y-7127362D01*
X25150205Y-7140601D01*
X25192427Y-7223465D01*
X25276535Y-7307573D01*
X25276537Y-7307574D01*
X25382511Y-7361571D01*
X25382513Y-7361571D01*
X25382518Y-7361574D01*
X25500000Y-7380181D01*
X25617482Y-7361574D01*
X25723465Y-7307573D01*
X25807573Y-7223465D01*
X25861574Y-7117482D01*
X25880181Y-7000000D01*
X28619819Y-7000000D01*
X28638426Y-7117481D01*
X28638428Y-7117488D01*
X28676611Y-7192425D01*
X28692427Y-7223465D01*
X28776535Y-7307573D01*
X28776537Y-7307574D01*
X28882511Y-7361571D01*
X28882513Y-7361571D01*
X28882518Y-7361574D01*
X29000000Y-7380181D01*
X29117482Y-7361574D01*
X29223465Y-7307573D01*
X29307573Y-7223465D01*
X29361574Y-7117482D01*
X29380181Y-7000000D01*
X29361574Y-6882518D01*
X29361571Y-6882513D01*
X29361571Y-6882511D01*
X29307574Y-6776537D01*
X29307573Y-6776535D01*
X29223465Y-6692427D01*
X29223462Y-6692425D01*
X29117488Y-6638428D01*
X29117483Y-6638426D01*
X29117482Y-6638426D01*
X29000000Y-6619819D01*
X28882518Y-6638426D01*
X28882511Y-6638428D01*
X28776537Y-6692425D01*
X28692425Y-6776537D01*
X28638428Y-6882511D01*
X28638426Y-6882518D01*
X28619819Y-6999999D01*
X28619819Y-7000000D01*
X25880181Y-7000000D01*
X25861574Y-6882518D01*
X25861571Y-6882513D01*
X25861571Y-6882511D01*
X25807574Y-6776537D01*
X25807573Y-6776535D01*
X25723465Y-6692427D01*
X25723462Y-6692425D01*
X25617488Y-6638428D01*
X25617483Y-6638426D01*
X25617482Y-6638426D01*
X25500000Y-6619819D01*
X25382518Y-6638426D01*
X25382511Y-6638428D01*
X25276537Y-6692425D01*
X25192426Y-6776536D01*
X25150209Y-6859392D01*
X25106945Y-6902656D01*
X25046512Y-6912227D01*
X24991996Y-6884449D01*
X24964219Y-6829932D01*
X24963000Y-6814446D01*
X24963000Y-6500000D01*
X31619819Y-6500000D01*
X31638426Y-6617481D01*
X31638428Y-6617488D01*
X31671188Y-6681782D01*
X31692427Y-6723465D01*
X31776535Y-6807573D01*
X31776537Y-6807574D01*
X31882511Y-6861571D01*
X31882513Y-6861571D01*
X31882518Y-6861574D01*
X32000000Y-6880181D01*
X32117482Y-6861574D01*
X32223465Y-6807573D01*
X32307573Y-6723465D01*
X32361574Y-6617482D01*
X32380181Y-6500000D01*
X32361574Y-6382518D01*
X32361571Y-6382513D01*
X32361571Y-6382511D01*
X32307574Y-6276537D01*
X32307573Y-6276535D01*
X32223465Y-6192427D01*
X32223462Y-6192425D01*
X32117488Y-6138428D01*
X32117483Y-6138426D01*
X32117482Y-6138426D01*
X32000000Y-6119819D01*
X31882518Y-6138426D01*
X31882511Y-6138428D01*
X31776537Y-6192425D01*
X31692425Y-6276537D01*
X31638428Y-6382511D01*
X31638426Y-6382518D01*
X31619819Y-6499999D01*
X31619819Y-6500000D01*
X24963000Y-6500000D01*
X24963000Y-5500000D01*
X31619819Y-5500000D01*
X31638426Y-5617481D01*
X31638428Y-5617488D01*
X31671188Y-5681782D01*
X31692427Y-5723465D01*
X31776535Y-5807573D01*
X31776537Y-5807574D01*
X31882511Y-5861571D01*
X31882513Y-5861571D01*
X31882518Y-5861574D01*
X32000000Y-5880181D01*
X32117482Y-5861574D01*
X32223465Y-5807573D01*
X32307573Y-5723465D01*
X32361574Y-5617482D01*
X32380181Y-5500000D01*
X32361574Y-5382518D01*
X32361571Y-5382513D01*
X32361571Y-5382511D01*
X32307574Y-5276537D01*
X32307573Y-5276535D01*
X32223465Y-5192427D01*
X32223462Y-5192425D01*
X32117488Y-5138428D01*
X32117483Y-5138426D01*
X32117482Y-5138426D01*
X32000000Y-5119819D01*
X31882518Y-5138426D01*
X31882511Y-5138428D01*
X31776537Y-5192425D01*
X31692425Y-5276537D01*
X31638428Y-5382511D01*
X31638426Y-5382518D01*
X31619819Y-5499999D01*
X31619819Y-5500000D01*
X24963000Y-5500000D01*
X24963000Y-4500000D01*
X31619819Y-4500000D01*
X31638426Y-4617481D01*
X31638428Y-4617488D01*
X31692425Y-4723462D01*
X31692427Y-4723465D01*
X31776535Y-4807573D01*
X31776537Y-4807574D01*
X31882511Y-4861571D01*
X31882513Y-4861571D01*
X31882518Y-4861574D01*
X32000000Y-4880181D01*
X32117482Y-4861574D01*
X32223465Y-4807573D01*
X32307573Y-4723465D01*
X32361574Y-4617482D01*
X32380181Y-4500000D01*
X32361574Y-4382518D01*
X32361571Y-4382513D01*
X32361571Y-4382511D01*
X32307574Y-4276537D01*
X32307573Y-4276535D01*
X32223465Y-4192427D01*
X32223462Y-4192425D01*
X32117488Y-4138428D01*
X32117483Y-4138426D01*
X32117482Y-4138426D01*
X32000000Y-4119819D01*
X31882518Y-4138426D01*
X31882511Y-4138428D01*
X31776537Y-4192425D01*
X31692425Y-4276537D01*
X31638428Y-4382511D01*
X31638426Y-4382518D01*
X31619819Y-4499999D01*
X31619819Y-4500000D01*
X24963000Y-4500000D01*
X24963000Y-2750000D01*
X31119819Y-2750000D01*
X31138426Y-2867481D01*
X31138428Y-2867488D01*
X31176611Y-2942425D01*
X31192427Y-2973465D01*
X31276535Y-3057573D01*
X31276537Y-3057574D01*
X31382511Y-3111571D01*
X31382513Y-3111571D01*
X31382518Y-3111574D01*
X31500000Y-3130181D01*
X31617482Y-3111574D01*
X31723465Y-3057573D01*
X31807573Y-2973465D01*
X31861574Y-2867482D01*
X31880181Y-2750000D01*
X31861574Y-2632518D01*
X31861571Y-2632513D01*
X31861571Y-2632511D01*
X31807574Y-2526537D01*
X31807573Y-2526535D01*
X31723465Y-2442427D01*
X31723462Y-2442425D01*
X31617488Y-2388428D01*
X31617483Y-2388426D01*
X31617482Y-2388426D01*
X31500000Y-2369819D01*
X31382518Y-2388426D01*
X31382511Y-2388428D01*
X31276537Y-2442425D01*
X31192425Y-2526537D01*
X31138428Y-2632511D01*
X31138426Y-2632518D01*
X31119819Y-2749999D01*
X31119819Y-2750000D01*
X24963000Y-2750000D01*
X24963000Y-2303010D01*
X24965965Y-2285559D01*
X24965855Y-2285547D01*
X24967104Y-2274463D01*
X24963311Y-2240795D01*
X24963000Y-2235250D01*
X24963000Y-2225998D01*
X24962999Y-2225992D01*
X24960941Y-2216978D01*
X24960009Y-2211497D01*
X24960009Y-2211494D01*
X24956218Y-2177841D01*
X24956216Y-2177838D01*
X24952533Y-2167311D01*
X24952638Y-2167273D01*
X24951782Y-2165206D01*
X24951681Y-2165256D01*
X24946842Y-2155207D01*
X24946842Y-2155206D01*
X24925717Y-2128717D01*
X24922513Y-2124201D01*
X24917585Y-2116358D01*
X24916002Y-2114775D01*
X24911039Y-2109811D01*
X24907340Y-2105671D01*
X24886219Y-2079187D01*
X24877499Y-2072233D01*
X24877567Y-2072147D01*
X24863128Y-2061901D01*
X23905053Y-1103826D01*
X23877276Y-1049309D01*
X23877276Y-1018333D01*
X23880181Y-1000000D01*
X23861574Y-882518D01*
X23861571Y-882513D01*
X23861571Y-882511D01*
X23807574Y-776537D01*
X23807573Y-776535D01*
X23723465Y-692427D01*
X23723462Y-692425D01*
X23617488Y-638428D01*
X23617483Y-638426D01*
X23617482Y-638426D01*
X23500000Y-619819D01*
X23382518Y-638426D01*
X23382511Y-638428D01*
X23276537Y-692425D01*
X23192425Y-776537D01*
X23138428Y-882511D01*
X23138426Y-882518D01*
X23119819Y-1000000D01*
X22846949Y-1000000D01*
X22848615Y-989478D01*
X22830008Y-871996D01*
X22830005Y-871991D01*
X22830005Y-871989D01*
X22776008Y-766015D01*
X22776007Y-766013D01*
X22691899Y-681905D01*
X22691896Y-681903D01*
X22585922Y-627906D01*
X22585917Y-627904D01*
X22585916Y-627904D01*
X22468434Y-609297D01*
X22350952Y-627904D01*
X22350945Y-627906D01*
X22244971Y-681903D01*
X22160859Y-766015D01*
X22106862Y-871989D01*
X22106860Y-871996D01*
X22105194Y-882518D01*
X22088253Y-989478D01*
X21377418Y-989478D01*
X21361574Y-889444D01*
X21361571Y-889439D01*
X21361571Y-889437D01*
X21307574Y-783463D01*
X21307573Y-783461D01*
X21223465Y-699353D01*
X21223462Y-699351D01*
X21117488Y-645354D01*
X21117483Y-645352D01*
X21117482Y-645352D01*
X21000000Y-626745D01*
X20882518Y-645352D01*
X20882511Y-645354D01*
X20776537Y-699351D01*
X20692425Y-783463D01*
X20638428Y-889437D01*
X20638426Y-889444D01*
X20622583Y-989477D01*
X20619819Y-1006926D01*
X20345852Y-1006926D01*
X20348615Y-989478D01*
X20330008Y-871996D01*
X20330005Y-871991D01*
X20330005Y-871989D01*
X20276008Y-766015D01*
X20276007Y-766013D01*
X20191899Y-681905D01*
X20191896Y-681903D01*
X20085922Y-627906D01*
X20085917Y-627904D01*
X20085916Y-627904D01*
X19968434Y-609297D01*
X19850952Y-627904D01*
X19850945Y-627906D01*
X19744971Y-681903D01*
X19660859Y-766015D01*
X19606862Y-871989D01*
X19606860Y-871996D01*
X19605194Y-882518D01*
X19588253Y-989478D01*
X18878515Y-989478D01*
X18861574Y-882518D01*
X18861571Y-882513D01*
X18861571Y-882511D01*
X18807574Y-776537D01*
X18807573Y-776535D01*
X18723465Y-692427D01*
X18723462Y-692425D01*
X18617488Y-638428D01*
X18617483Y-638426D01*
X18617482Y-638426D01*
X18500000Y-619819D01*
X18382518Y-638426D01*
X18382511Y-638428D01*
X18276537Y-692425D01*
X18192425Y-776537D01*
X18138428Y-882511D01*
X18138426Y-882518D01*
X18119819Y-1000000D01*
X17846949Y-1000000D01*
X17848615Y-989478D01*
X17830008Y-871996D01*
X17830005Y-871991D01*
X17830005Y-871989D01*
X17776008Y-766015D01*
X17776007Y-766013D01*
X17691899Y-681905D01*
X17691896Y-681903D01*
X17585922Y-627906D01*
X17585917Y-627904D01*
X17585916Y-627904D01*
X17468434Y-609297D01*
X17350952Y-627904D01*
X17350945Y-627906D01*
X17244971Y-681903D01*
X17160859Y-766015D01*
X17106862Y-871989D01*
X17106860Y-871996D01*
X17105194Y-882518D01*
X17088253Y-989478D01*
X15348615Y-989478D01*
X15330008Y-871996D01*
X15330005Y-871991D01*
X15330005Y-871989D01*
X15276008Y-766015D01*
X15276007Y-766013D01*
X15191899Y-681905D01*
X15191896Y-681903D01*
X15085922Y-627906D01*
X15085917Y-627904D01*
X15085916Y-627904D01*
X14968434Y-609297D01*
X14850952Y-627904D01*
X14850945Y-627906D01*
X14744971Y-681903D01*
X14660859Y-766015D01*
X14606862Y-871989D01*
X14606860Y-871996D01*
X14605194Y-882518D01*
X14588253Y-989478D01*
X13878515Y-989478D01*
X13861574Y-882518D01*
X13861571Y-882513D01*
X13861571Y-882511D01*
X13807574Y-776537D01*
X13807573Y-776535D01*
X13723465Y-692427D01*
X13723462Y-692425D01*
X13617488Y-638428D01*
X13617483Y-638426D01*
X13617482Y-638426D01*
X13500000Y-619819D01*
X13382518Y-638426D01*
X13382511Y-638428D01*
X13276537Y-692425D01*
X13192425Y-776537D01*
X13138428Y-882511D01*
X13138426Y-882518D01*
X13119819Y-1000000D01*
X11880181Y-1000000D01*
X11861574Y-882518D01*
X11861571Y-882513D01*
X11861571Y-882511D01*
X11807574Y-776537D01*
X11807573Y-776535D01*
X11723465Y-692427D01*
X11723462Y-692425D01*
X11617488Y-638428D01*
X11617483Y-638426D01*
X11617482Y-638426D01*
X11500000Y-619819D01*
X11382518Y-638426D01*
X11382511Y-638428D01*
X11276537Y-692425D01*
X11192425Y-776537D01*
X11138428Y-882511D01*
X11138426Y-882518D01*
X11119819Y-1000000D01*
X1783549Y-1000000D01*
X2554054Y-229496D01*
X2608571Y-201719D01*
X2624058Y-200500D01*
X32375943Y-200500D01*
X32434134Y-219407D01*
G37*
%TD.AperFunction*%
%TD*%
M02*
