%TF.GenerationSoftware,KiCad,Pcbnew,7.0.7*%
%TF.CreationDate,2023-10-31T11:13:40+10:00*%
%TF.ProjectId,LEDBoard,4c454442-6f61-4726-942e-6b696361645f,rev?*%
%TF.SameCoordinates,Original*%
%TF.FileFunction,Soldermask,Top*%
%TF.FilePolarity,Negative*%
%FSLAX46Y46*%
G04 Gerber Fmt 4.6, Leading zero omitted, Abs format (unit mm)*
G04 Created by KiCad (PCBNEW 7.0.7) date 2023-10-31 11:13:40*
%MOMM*%
%LPD*%
G01*
G04 APERTURE LIST*
G04 Aperture macros list*
%AMRoundRect*
0 Rectangle with rounded corners*
0 $1 Rounding radius*
0 $2 $3 $4 $5 $6 $7 $8 $9 X,Y pos of 4 corners*
0 Add a 4 corners polygon primitive as box body*
4,1,4,$2,$3,$4,$5,$6,$7,$8,$9,$2,$3,0*
0 Add four circle primitives for the rounded corners*
1,1,$1+$1,$2,$3*
1,1,$1+$1,$4,$5*
1,1,$1+$1,$6,$7*
1,1,$1+$1,$8,$9*
0 Add four rect primitives between the rounded corners*
20,1,$1+$1,$2,$3,$4,$5,0*
20,1,$1+$1,$4,$5,$6,$7,0*
20,1,$1+$1,$6,$7,$8,$9,0*
20,1,$1+$1,$8,$9,$2,$3,0*%
G04 Aperture macros list end*
%ADD10RoundRect,0.147500X0.017678X-0.226274X0.226274X-0.017678X-0.017678X0.226274X-0.226274X0.017678X0*%
%ADD11RoundRect,0.147500X0.226274X0.017678X0.017678X0.226274X-0.226274X-0.017678X-0.017678X-0.226274X0*%
%ADD12RoundRect,0.147500X-0.226274X-0.017678X-0.017678X-0.226274X0.226274X0.017678X0.017678X0.226274X0*%
%ADD13RoundRect,0.147500X-0.017678X0.226274X-0.226274X0.017678X0.017678X-0.226274X0.226274X-0.017678X0*%
%ADD14C,0.900000*%
G04 APERTURE END LIST*
D10*
%TO.C,D47*%
X27157053Y-14092947D03*
X27842947Y-13407053D03*
%TD*%
%TO.C,D108*%
X14657053Y-29092947D03*
X15342947Y-28407053D03*
%TD*%
%TO.C,D20*%
X14657053Y-9092947D03*
X15342947Y-8407053D03*
%TD*%
%TO.C,D62*%
X9657053Y-19092947D03*
X10342947Y-18407053D03*
%TD*%
%TO.C,D10*%
X17157053Y-6592947D03*
X17842947Y-5907053D03*
%TD*%
%TO.C,D73*%
X9657053Y-21592947D03*
X10342947Y-20907053D03*
%TD*%
%TO.C,D23*%
X22157053Y-9092947D03*
X22842947Y-8407053D03*
%TD*%
%TO.C,D12*%
X22157053Y-6592947D03*
X22842947Y-5907053D03*
%TD*%
%TO.C,D111*%
X22157053Y-29092947D03*
X22842947Y-28407053D03*
%TD*%
%TO.C,D56*%
X22157053Y-16592947D03*
X22842947Y-15907053D03*
%TD*%
%TO.C,D112*%
X24657053Y-29092947D03*
X25342947Y-28407053D03*
%TD*%
%TO.C,D88*%
X19657053Y-24092947D03*
X20342947Y-23407053D03*
%TD*%
%TO.C,D100*%
X22157053Y-26592947D03*
X22842947Y-25907053D03*
%TD*%
%TO.C,D1*%
X2157053Y-4092947D03*
X2842947Y-3407053D03*
%TD*%
%TO.C,D55*%
X19657053Y-16592947D03*
X20342947Y-15907053D03*
%TD*%
%TO.C,D114*%
X29657053Y-29092947D03*
X30342947Y-28407053D03*
%TD*%
%TO.C,D80*%
X27157053Y-21592947D03*
X27842947Y-20907053D03*
%TD*%
%TO.C,D66*%
X19657053Y-19092947D03*
X20342947Y-18407053D03*
%TD*%
%TO.C,D69*%
X27157053Y-19092947D03*
X27842947Y-18407053D03*
%TD*%
%TO.C,D39*%
X7157053Y-14092947D03*
X7842947Y-13407053D03*
%TD*%
%TO.C,D72*%
X7157053Y-21592947D03*
X7842947Y-20907053D03*
%TD*%
%TO.C,D57*%
X24657053Y-16592947D03*
X25342947Y-15907053D03*
%TD*%
%TO.C,D60*%
X4657053Y-19092947D03*
X5342947Y-18407053D03*
%TD*%
%TO.C,D17*%
X7157053Y-9092947D03*
X7842947Y-8407053D03*
%TD*%
%TO.C,D75*%
X14657053Y-21592947D03*
X15342947Y-20907053D03*
%TD*%
%TO.C,D33*%
X19657053Y-11592947D03*
X20342947Y-10907053D03*
%TD*%
%TO.C,D35*%
X24657053Y-11592947D03*
X25342947Y-10907053D03*
%TD*%
%TO.C,D52*%
X12157053Y-16592947D03*
X12842947Y-15907053D03*
%TD*%
%TO.C,D54*%
X17157053Y-16592947D03*
X17842947Y-15907053D03*
%TD*%
%TO.C,D13*%
X24657053Y-6592947D03*
X25342947Y-5907053D03*
%TD*%
%TO.C,D15*%
X29657053Y-6592947D03*
X30342947Y-5907053D03*
%TD*%
%TO.C,D96*%
X12157053Y-26592947D03*
X12842947Y-25907053D03*
%TD*%
%TO.C,D109*%
X17157053Y-29092947D03*
X17842947Y-28407053D03*
%TD*%
%TO.C,D65*%
X17157053Y-19092947D03*
X17842947Y-18407053D03*
%TD*%
%TO.C,D18*%
X9657053Y-9092947D03*
X10342947Y-8407053D03*
%TD*%
%TO.C,D40*%
X9657053Y-14092947D03*
X10342947Y-13407053D03*
%TD*%
%TO.C,D101*%
X24657053Y-26592947D03*
X25342947Y-25907053D03*
%TD*%
%TO.C,D84*%
X9657053Y-24092947D03*
X10342947Y-23407053D03*
%TD*%
%TO.C,D7*%
X9657053Y-6592947D03*
X10342947Y-5907053D03*
%TD*%
%TO.C,D29*%
X9657053Y-11592947D03*
X10342947Y-10907053D03*
%TD*%
%TO.C,D27*%
X4657053Y-11592947D03*
X5342947Y-10907053D03*
%TD*%
%TO.C,D113*%
X27157053Y-29092947D03*
X27842947Y-28407053D03*
%TD*%
D11*
%TO.C,D2*%
X32842947Y-4092947D03*
X32157053Y-3407053D03*
%TD*%
D10*
%TO.C,D95*%
X9657053Y-26592947D03*
X10342947Y-25907053D03*
%TD*%
%TO.C,D103*%
X29657053Y-26592947D03*
X30342947Y-25907053D03*
%TD*%
%TO.C,D78*%
X22157053Y-21592947D03*
X22842947Y-20907053D03*
%TD*%
%TO.C,D36*%
X27157053Y-11592947D03*
X27842947Y-10907053D03*
%TD*%
%TO.C,D31*%
X14657053Y-11592947D03*
X15342947Y-10907053D03*
%TD*%
%TO.C,D24*%
X24657053Y-9092947D03*
X25342947Y-8407053D03*
%TD*%
%TO.C,D25*%
X27157053Y-9092947D03*
X27842947Y-8407053D03*
%TD*%
%TO.C,D99*%
X19657053Y-26592947D03*
X20342947Y-25907053D03*
%TD*%
%TO.C,D49*%
X4657053Y-16592947D03*
X5342947Y-15907053D03*
%TD*%
D12*
%TO.C,D3*%
X2157053Y-30907053D03*
X2842947Y-31592947D03*
%TD*%
D10*
%TO.C,D105*%
X7157053Y-29092947D03*
X7842947Y-28407053D03*
%TD*%
%TO.C,D93*%
X4657053Y-26592947D03*
X5342947Y-25907053D03*
%TD*%
%TO.C,D46*%
X24657053Y-14092947D03*
X25342947Y-13407053D03*
%TD*%
%TO.C,D51*%
X9657053Y-16592947D03*
X10342947Y-15907053D03*
%TD*%
%TO.C,D79*%
X24657053Y-21592947D03*
X25342947Y-20907053D03*
%TD*%
%TO.C,D53*%
X14657053Y-16592947D03*
X15342947Y-15907053D03*
%TD*%
%TO.C,D6*%
X7157053Y-6592947D03*
X7842947Y-5907053D03*
%TD*%
%TO.C,D106*%
X9657053Y-29092947D03*
X10342947Y-28407053D03*
%TD*%
%TO.C,D82*%
X4657053Y-24092947D03*
X5342947Y-23407053D03*
%TD*%
%TO.C,D16*%
X4657053Y-9092947D03*
X5342947Y-8407053D03*
%TD*%
%TO.C,D68*%
X24657053Y-19092947D03*
X25342947Y-18407053D03*
%TD*%
%TO.C,D107*%
X12157053Y-29092947D03*
X12842947Y-28407053D03*
%TD*%
%TO.C,D34*%
X22157053Y-11592947D03*
X22842947Y-10907053D03*
%TD*%
%TO.C,D85*%
X12157053Y-24092947D03*
X12842947Y-23407053D03*
%TD*%
%TO.C,D8*%
X12157053Y-6592947D03*
X12842947Y-5907053D03*
%TD*%
%TO.C,D70*%
X29657053Y-19092947D03*
X30342947Y-18407053D03*
%TD*%
%TO.C,D21*%
X17157053Y-9092947D03*
X17842947Y-8407053D03*
%TD*%
%TO.C,D44*%
X19657053Y-14092947D03*
X20342947Y-13407053D03*
%TD*%
%TO.C,D92*%
X29657053Y-24092947D03*
X30342947Y-23407053D03*
%TD*%
%TO.C,D41*%
X12157053Y-14092947D03*
X12842947Y-13407053D03*
%TD*%
%TO.C,D91*%
X27157053Y-24092947D03*
X27842947Y-23407053D03*
%TD*%
%TO.C,D45*%
X22157053Y-14092947D03*
X22842947Y-13407053D03*
%TD*%
%TO.C,D11*%
X19657053Y-6592947D03*
X20342947Y-5907053D03*
%TD*%
%TO.C,D77*%
X19657053Y-21592947D03*
X20342947Y-20907053D03*
%TD*%
%TO.C,D83*%
X7157053Y-24092947D03*
X7842947Y-23407053D03*
%TD*%
%TO.C,D87*%
X17157053Y-24092947D03*
X17842947Y-23407053D03*
%TD*%
%TO.C,D89*%
X22157053Y-24092947D03*
X22842947Y-23407053D03*
%TD*%
D13*
%TO.C,D4*%
X32842947Y-30907053D03*
X32157053Y-31592947D03*
%TD*%
D10*
%TO.C,D9*%
X14657053Y-6592947D03*
X15342947Y-5907053D03*
%TD*%
%TO.C,D76*%
X17157053Y-21592947D03*
X17842947Y-20907053D03*
%TD*%
%TO.C,D50*%
X7157053Y-16592947D03*
X7842947Y-15907053D03*
%TD*%
%TO.C,D48*%
X29657053Y-14092947D03*
X30342947Y-13407053D03*
%TD*%
%TO.C,D74*%
X12157053Y-21592947D03*
X12842947Y-20907053D03*
%TD*%
%TO.C,D30*%
X12157053Y-11592947D03*
X12842947Y-10907053D03*
%TD*%
%TO.C,D14*%
X27157053Y-6592947D03*
X27842947Y-5907053D03*
%TD*%
%TO.C,D59*%
X29657053Y-16592947D03*
X30342947Y-15907053D03*
%TD*%
%TO.C,D19*%
X12157053Y-9092947D03*
X12842947Y-8407053D03*
%TD*%
%TO.C,D90*%
X24657053Y-24092947D03*
X25342947Y-23407053D03*
%TD*%
%TO.C,D43*%
X17157053Y-14092947D03*
X17842947Y-13407053D03*
%TD*%
%TO.C,D104*%
X4657053Y-29092947D03*
X5342947Y-28407053D03*
%TD*%
%TO.C,D61*%
X7157053Y-19092947D03*
X7842947Y-18407053D03*
%TD*%
%TO.C,D71*%
X4657053Y-21592947D03*
X5342947Y-20907053D03*
%TD*%
%TO.C,D32*%
X17157053Y-11592947D03*
X17842947Y-10907053D03*
%TD*%
%TO.C,D28*%
X7157053Y-11592947D03*
X7842947Y-10907053D03*
%TD*%
%TO.C,D63*%
X12157053Y-19092947D03*
X12842947Y-18407053D03*
%TD*%
%TO.C,D26*%
X29657053Y-9092947D03*
X30342947Y-8407053D03*
%TD*%
%TO.C,D22*%
X19657053Y-9092947D03*
X20342947Y-8407053D03*
%TD*%
%TO.C,D37*%
X29657053Y-11592947D03*
X30342947Y-10907053D03*
%TD*%
%TO.C,D97*%
X14657053Y-26592947D03*
X15342947Y-25907053D03*
%TD*%
%TO.C,D38*%
X4657053Y-14092947D03*
X5342947Y-13407053D03*
%TD*%
%TO.C,D67*%
X22157053Y-19092947D03*
X22842947Y-18407053D03*
%TD*%
%TO.C,D58*%
X27157053Y-16592947D03*
X27842947Y-15907053D03*
%TD*%
%TO.C,D81*%
X29657053Y-21592947D03*
X30342947Y-20907053D03*
%TD*%
%TO.C,D102*%
X27157053Y-26592947D03*
X27842947Y-25907053D03*
%TD*%
%TO.C,D110*%
X19657053Y-29092947D03*
X20342947Y-28407053D03*
%TD*%
%TO.C,D98*%
X17157053Y-26592947D03*
X17842947Y-25907053D03*
%TD*%
%TO.C,D42*%
X14657053Y-14092947D03*
X15342947Y-13407053D03*
%TD*%
%TO.C,D5*%
X4657053Y-6592947D03*
X5342947Y-5907053D03*
%TD*%
%TO.C,D64*%
X14657053Y-19092947D03*
X15342947Y-18407053D03*
%TD*%
%TO.C,D86*%
X14657053Y-24092947D03*
X15342947Y-23407053D03*
%TD*%
%TO.C,D94*%
X7157053Y-26592947D03*
X7842947Y-25907053D03*
%TD*%
D14*
%TO.C,SW1*%
X32750000Y-15375000D03*
X32750000Y-19625000D03*
%TD*%
M02*
