%TF.GenerationSoftware,KiCad,Pcbnew,7.0.7*%
%TF.CreationDate,2023-10-31T11:13:47+10:00*%
%TF.ProjectId,LEDBoard,4c454442-6f61-4726-942e-6b696361645f,rev?*%
%TF.SameCoordinates,Original*%
%TF.FileFunction,Copper,L3,Inr*%
%TF.FilePolarity,Positive*%
%FSLAX46Y46*%
G04 Gerber Fmt 4.6, Leading zero omitted, Abs format (unit mm)*
G04 Created by KiCad (PCBNEW 7.0.7) date 2023-10-31 11:13:47*
%MOMM*%
%LPD*%
G01*
G04 APERTURE LIST*
%TA.AperFunction,ViaPad*%
%ADD10C,0.400000*%
%TD*%
%TA.AperFunction,Conductor*%
%ADD11C,0.200000*%
%TD*%
G04 APERTURE END LIST*
D10*
%TO.N,-BATT*%
X32000000Y-8000000D03*
X5400000Y-30300000D03*
X1750000Y-10250000D03*
X32150000Y-24500000D03*
X750000Y-17000000D03*
X33000000Y-23250000D03*
X33000000Y-25750000D03*
X2250000Y-17000000D03*
X8500000Y-3750000D03*
X31250000Y-25750000D03*
X32000000Y-7000000D03*
X31250000Y-23250000D03*
X34500000Y-8000000D03*
X26250000Y-3990000D03*
X4500000Y-30300000D03*
X32100000Y-18725000D03*
X32100000Y-16275000D03*
X1500000Y-17000000D03*
X1750000Y-3000000D03*
X32842947Y-30907053D03*
X34500000Y-7000000D03*
%TO.N,/LED0_R*%
X25240000Y-3000000D03*
%TO.N,/LED1_R*%
X25240000Y-2000000D03*
%TO.N,/LED2_R*%
X29750000Y-32510000D03*
%TO.N,/LED Array/COL0*%
X4657053Y-29092947D03*
X4657053Y-24092947D03*
X4657053Y-26592947D03*
X5750000Y-4500000D03*
%TO.N,/LED Array/ROW0*%
X5750000Y-5250000D03*
%TO.N,/LED Array/COL1*%
X7157053Y-26592947D03*
X7157053Y-14092947D03*
X7157053Y-21592947D03*
X7157053Y-29092947D03*
X6250000Y-9750000D03*
X7157053Y-16592947D03*
X7157053Y-24092947D03*
X7157053Y-19092947D03*
X7157053Y-11592947D03*
%TO.N,/LED Array/COL2*%
X9657053Y-16592947D03*
X9657053Y-24092947D03*
X9657053Y-9092947D03*
X9657053Y-21592947D03*
X9657053Y-26592947D03*
X9657053Y-14092947D03*
X9657053Y-11592947D03*
X9657053Y-29092947D03*
X11000000Y-6750000D03*
X9657053Y-19092947D03*
%TO.N,/LED Array/COL3*%
X12157053Y-26592947D03*
X12157053Y-29092947D03*
X12157053Y-14092947D03*
X12157053Y-11592947D03*
X12157053Y-19092947D03*
X12157053Y-21592947D03*
X12157053Y-16592947D03*
X12157053Y-6592947D03*
X12157053Y-9092947D03*
X12157053Y-24092947D03*
%TO.N,/LED Array/COL4*%
X14657053Y-26592947D03*
X14657053Y-29092947D03*
X14657053Y-19092947D03*
X14657053Y-6592947D03*
X14657053Y-11592947D03*
X14657053Y-24092947D03*
X14657053Y-16592947D03*
X14657053Y-9092947D03*
X14657053Y-21592947D03*
X14657053Y-14092947D03*
%TO.N,/LED Array/COL5*%
X17157053Y-19092947D03*
X17157053Y-29092947D03*
X17157053Y-21592947D03*
X17157053Y-6592947D03*
X17157053Y-24092947D03*
X17157053Y-16592947D03*
X17157053Y-14092947D03*
X17157053Y-11592947D03*
X17157053Y-9092947D03*
X17157053Y-26592947D03*
%TO.N,/LED Array/COL6*%
X19657053Y-26592947D03*
X19657053Y-29092947D03*
X19657053Y-9092947D03*
X19657053Y-6592947D03*
X19657053Y-24092947D03*
X19657053Y-19092947D03*
X19657053Y-14092947D03*
X19657053Y-16592947D03*
X19657053Y-21592947D03*
X19657053Y-11592947D03*
%TO.N,/LED Array/COL7*%
X22157053Y-19092947D03*
X22157053Y-14092947D03*
X22157053Y-24092947D03*
X22157053Y-6592947D03*
X22157053Y-26592947D03*
X22157053Y-9092947D03*
X22157053Y-21592947D03*
X22157053Y-11592947D03*
X22157053Y-29092947D03*
X22157053Y-16592947D03*
%TO.N,/LED Array/COL8*%
X24657053Y-29092947D03*
X24657053Y-11592947D03*
X24657053Y-26592947D03*
X24657053Y-21592947D03*
X24657053Y-16592947D03*
X24657053Y-9092947D03*
X24657053Y-24092947D03*
X24657053Y-6592947D03*
X24657053Y-19092947D03*
X24657053Y-14092947D03*
%TO.N,/LED Array/COL9*%
X27157053Y-16592947D03*
X27157053Y-21592947D03*
X27157053Y-24092947D03*
X27157053Y-26592947D03*
X27157053Y-14092947D03*
X27157053Y-19092947D03*
X27157053Y-29092947D03*
X25750000Y-7500000D03*
X27000000Y-10000000D03*
X27157053Y-11592947D03*
%TO.N,/LED Array/COL10*%
X29657053Y-24092947D03*
X29657053Y-11592947D03*
X23000000Y-4750000D03*
X29657053Y-14092947D03*
X29657053Y-29092947D03*
X29657053Y-21592947D03*
X29657053Y-26592947D03*
X29250000Y-7750000D03*
X29657053Y-16592947D03*
X29657053Y-19092947D03*
X29000000Y-9750000D03*
%TO.N,/LED Array/ROW1*%
X5750000Y-9000000D03*
%TO.N,/LED Array/ROW2*%
X5342947Y-10907053D03*
%TO.N,/LED Array/ROW3*%
X5342947Y-13407053D03*
%TO.N,/LED Array/ROW4*%
X5342947Y-15907053D03*
%TO.N,/LED Array/ROW5*%
X5342947Y-18407053D03*
%TO.N,/LED Array/ROW6*%
X5342947Y-20907053D03*
%TO.N,/LED Array/ROW7*%
X5342947Y-23407053D03*
%TO.N,/LED Array/ROW8*%
X500000Y-8250000D03*
%TO.N,/LED Array/ROW9*%
X750000Y-10000000D03*
%TO.N,+BATT*%
X32000000Y-5000000D03*
X32000000Y-6000000D03*
X4500000Y-32200000D03*
X34500000Y-5000000D03*
X31510000Y-13500000D03*
X5400000Y-32200000D03*
X34500000Y-6000000D03*
X25250000Y-3990000D03*
%TO.N,/LED3_R*%
X32157053Y-31592947D03*
%TD*%
D11*
%TO.N,/LED Array/COL0*%
X4657053Y-24092947D02*
X4657053Y-29092947D01*
%TO.N,/LED Array/COL1*%
X7157053Y-11592947D02*
X7157053Y-29092947D01*
%TO.N,/LED Array/COL2*%
X11000000Y-7750000D02*
X9657053Y-9092947D01*
X11000000Y-6750000D02*
X11000000Y-7750000D01*
X9657053Y-9092947D02*
X9657053Y-29092947D01*
%TO.N,/LED Array/COL3*%
X12157053Y-6592947D02*
X12157053Y-29092947D01*
%TO.N,/LED Array/COL4*%
X14657053Y-29092947D02*
X14657053Y-6592947D01*
%TO.N,/LED Array/COL5*%
X17157053Y-29092947D02*
X17157053Y-6592947D01*
%TO.N,/LED Array/COL6*%
X19657053Y-29092947D02*
X19657053Y-6592947D01*
%TO.N,/LED Array/COL7*%
X22157053Y-29092947D02*
X22157053Y-6592947D01*
%TO.N,/LED Array/COL8*%
X24657053Y-29092947D02*
X24657053Y-6592947D01*
%TO.N,/LED Array/COL9*%
X25750000Y-7500000D02*
X27000000Y-8750000D01*
X27000000Y-8750000D02*
X27000000Y-10000000D01*
X27000000Y-11435894D02*
X27157053Y-11592947D01*
X27157053Y-11592947D02*
X27157053Y-29092947D01*
X27000000Y-10000000D02*
X27000000Y-11435894D01*
%TO.N,/LED Array/COL10*%
X29657053Y-11592947D02*
X29657053Y-29092947D01*
X29250000Y-7750000D02*
X29250000Y-9500000D01*
X26250000Y-4750000D02*
X29250000Y-7750000D01*
X29000000Y-9750000D02*
X29000000Y-10935894D01*
X23000000Y-4750000D02*
X26250000Y-4750000D01*
X29000000Y-10935894D02*
X29657053Y-11592947D01*
X29250000Y-9500000D02*
X29000000Y-9750000D01*
%TD*%
%TA.AperFunction,Conductor*%
%TO.N,+BATT*%
G36*
X32434134Y-219407D02*
G01*
X32445947Y-229496D01*
X34770504Y-2554053D01*
X34798281Y-2608570D01*
X34799500Y-2624057D01*
X34799500Y-6541558D01*
X34780593Y-6599749D01*
X34731093Y-6635713D01*
X34669907Y-6635713D01*
X34655555Y-6629767D01*
X34625310Y-6614356D01*
X34625305Y-6614354D01*
X34625304Y-6614354D01*
X34500000Y-6594508D01*
X34374696Y-6614354D01*
X34374692Y-6614355D01*
X34261659Y-6671949D01*
X34171949Y-6761659D01*
X34114355Y-6874692D01*
X34114354Y-6874696D01*
X34094713Y-6998708D01*
X34094508Y-7000000D01*
X34109476Y-7094508D01*
X34114354Y-7125303D01*
X34114355Y-7125307D01*
X34138121Y-7171949D01*
X34171950Y-7238342D01*
X34261658Y-7328050D01*
X34374696Y-7385646D01*
X34466547Y-7400193D01*
X34479334Y-7402219D01*
X34495427Y-7410418D01*
X34520665Y-7402219D01*
X34625304Y-7385646D01*
X34625310Y-7385643D01*
X34655555Y-7370233D01*
X34715987Y-7360661D01*
X34770503Y-7388438D01*
X34798281Y-7442955D01*
X34799500Y-7458442D01*
X34799500Y-7541558D01*
X34780593Y-7599749D01*
X34731093Y-7635713D01*
X34669907Y-7635713D01*
X34655555Y-7629767D01*
X34625310Y-7614356D01*
X34625305Y-7614354D01*
X34625304Y-7614354D01*
X34520664Y-7597780D01*
X34504571Y-7589581D01*
X34479334Y-7597781D01*
X34374696Y-7614354D01*
X34374692Y-7614355D01*
X34261659Y-7671949D01*
X34171949Y-7761659D01*
X34114355Y-7874692D01*
X34114354Y-7874696D01*
X34094508Y-7999999D01*
X34094508Y-8000000D01*
X34114354Y-8125303D01*
X34114355Y-8125307D01*
X34169944Y-8234406D01*
X34171950Y-8238342D01*
X34261658Y-8328050D01*
X34374696Y-8385646D01*
X34500000Y-8405492D01*
X34625304Y-8385646D01*
X34625310Y-8385643D01*
X34655555Y-8370233D01*
X34715987Y-8360661D01*
X34770503Y-8388438D01*
X34798281Y-8442955D01*
X34799500Y-8458442D01*
X34799500Y-32375942D01*
X34780593Y-32434133D01*
X34770504Y-32445946D01*
X32445947Y-34770504D01*
X32391430Y-34798281D01*
X32375943Y-34799500D01*
X18766737Y-34799500D01*
X18708546Y-34780593D01*
X18672582Y-34731093D01*
X18669241Y-34717691D01*
X18664024Y-34688101D01*
X18592179Y-34490709D01*
X18592176Y-34490703D01*
X18592175Y-34490700D01*
X18521339Y-34368011D01*
X18487149Y-34308791D01*
X18486161Y-34307613D01*
X18352131Y-34147884D01*
X18352129Y-34147882D01*
X18352124Y-34147876D01*
X18352117Y-34147870D01*
X18352115Y-34147868D01*
X18191214Y-34012855D01*
X18191212Y-34012853D01*
X18191209Y-34012851D01*
X18175339Y-34003688D01*
X18009299Y-33907824D01*
X18009296Y-33907823D01*
X18009291Y-33907821D01*
X17811899Y-33835976D01*
X17770525Y-33828680D01*
X17605034Y-33799500D01*
X17605030Y-33799500D01*
X17394970Y-33799500D01*
X17394965Y-33799500D01*
X17188101Y-33835976D01*
X16990703Y-33907823D01*
X16990700Y-33907824D01*
X16808792Y-34012850D01*
X16808785Y-34012855D01*
X16647884Y-34147868D01*
X16647868Y-34147884D01*
X16512855Y-34308785D01*
X16512850Y-34308792D01*
X16407824Y-34490700D01*
X16407823Y-34490703D01*
X16335976Y-34688101D01*
X16330759Y-34717691D01*
X16302034Y-34771714D01*
X16247042Y-34798536D01*
X16233263Y-34799500D01*
X2624058Y-34799500D01*
X2565867Y-34780593D01*
X2554054Y-34770504D01*
X293550Y-32510000D01*
X29344508Y-32510000D01*
X29364354Y-32635303D01*
X29364355Y-32635307D01*
X29379924Y-32665862D01*
X29421950Y-32748342D01*
X29511658Y-32838050D01*
X29624696Y-32895646D01*
X29732866Y-32912778D01*
X29749999Y-32915492D01*
X29749999Y-32915491D01*
X29750000Y-32915492D01*
X29875304Y-32895646D01*
X29988342Y-32838050D01*
X30078050Y-32748342D01*
X30135646Y-32635304D01*
X30155492Y-32510000D01*
X30135646Y-32384696D01*
X30078050Y-32271658D01*
X29988342Y-32181950D01*
X29984406Y-32179944D01*
X29875307Y-32124355D01*
X29875304Y-32124354D01*
X29750000Y-32104508D01*
X29624696Y-32124354D01*
X29624692Y-32124355D01*
X29511659Y-32181949D01*
X29421949Y-32271659D01*
X29364355Y-32384692D01*
X29364354Y-32384696D01*
X29344508Y-32509999D01*
X29344508Y-32510000D01*
X293550Y-32510000D01*
X229496Y-32445946D01*
X201719Y-32391429D01*
X200500Y-32375942D01*
X200500Y-31592947D01*
X31751561Y-31592947D01*
X31771407Y-31718250D01*
X31771408Y-31718254D01*
X31826997Y-31827353D01*
X31829003Y-31831289D01*
X31918711Y-31920997D01*
X32031749Y-31978593D01*
X32139919Y-31995725D01*
X32157052Y-31998439D01*
X32157052Y-31998438D01*
X32157053Y-31998439D01*
X32282357Y-31978593D01*
X32395395Y-31920997D01*
X32485103Y-31831289D01*
X32542699Y-31718251D01*
X32562545Y-31592947D01*
X32542699Y-31467643D01*
X32499285Y-31382440D01*
X32489714Y-31322009D01*
X32517491Y-31267492D01*
X32572007Y-31239714D01*
X32632438Y-31249284D01*
X32717643Y-31292699D01*
X32825813Y-31309831D01*
X32842946Y-31312545D01*
X32842946Y-31312544D01*
X32842947Y-31312545D01*
X32968251Y-31292699D01*
X33081289Y-31235103D01*
X33170997Y-31145395D01*
X33228593Y-31032357D01*
X33248439Y-30907053D01*
X33228593Y-30781749D01*
X33170997Y-30668711D01*
X33081289Y-30579003D01*
X33001484Y-30538340D01*
X32968254Y-30521408D01*
X32968251Y-30521407D01*
X32842947Y-30501561D01*
X32717643Y-30521407D01*
X32717639Y-30521408D01*
X32604606Y-30579002D01*
X32514896Y-30668712D01*
X32457302Y-30781745D01*
X32457301Y-30781749D01*
X32437455Y-30907052D01*
X32437455Y-30907053D01*
X32457301Y-31032356D01*
X32457301Y-31032358D01*
X32500714Y-31117559D01*
X32510285Y-31177991D01*
X32482508Y-31232507D01*
X32427991Y-31260285D01*
X32367559Y-31250714D01*
X32364756Y-31249286D01*
X32282357Y-31207301D01*
X32157053Y-31187455D01*
X32031749Y-31207301D01*
X32031745Y-31207302D01*
X31918712Y-31264896D01*
X31829002Y-31354606D01*
X31771408Y-31467639D01*
X31771407Y-31467643D01*
X31751561Y-31592946D01*
X31751561Y-31592947D01*
X200500Y-31592947D01*
X200500Y-30300000D01*
X4094508Y-30300000D01*
X4114354Y-30425303D01*
X4114355Y-30425307D01*
X4116164Y-30428857D01*
X4171950Y-30538342D01*
X4261658Y-30628050D01*
X4374696Y-30685646D01*
X4482866Y-30702778D01*
X4499999Y-30705492D01*
X4499999Y-30705491D01*
X4500000Y-30705492D01*
X4625304Y-30685646D01*
X4738342Y-30628050D01*
X4828050Y-30538342D01*
X4861791Y-30472120D01*
X4905055Y-30428857D01*
X4965487Y-30419286D01*
X5020004Y-30447064D01*
X5038206Y-30472117D01*
X5071950Y-30538342D01*
X5161658Y-30628050D01*
X5274696Y-30685646D01*
X5400000Y-30705492D01*
X5525304Y-30685646D01*
X5638342Y-30628050D01*
X5728050Y-30538342D01*
X5785646Y-30425304D01*
X5805492Y-30300000D01*
X5785646Y-30174696D01*
X5728050Y-30061658D01*
X5638342Y-29971950D01*
X5634406Y-29969944D01*
X5525307Y-29914355D01*
X5525304Y-29914354D01*
X5400000Y-29894508D01*
X5274696Y-29914354D01*
X5274692Y-29914355D01*
X5161659Y-29971949D01*
X5071949Y-30061659D01*
X5038209Y-30127878D01*
X4994944Y-30171142D01*
X4934512Y-30180713D01*
X4879996Y-30152935D01*
X4861791Y-30127878D01*
X4857658Y-30119768D01*
X4828050Y-30061658D01*
X4738342Y-29971950D01*
X4734406Y-29969944D01*
X4625307Y-29914355D01*
X4625304Y-29914354D01*
X4500000Y-29894508D01*
X4374696Y-29914354D01*
X4374692Y-29914355D01*
X4261659Y-29971949D01*
X4171949Y-30061659D01*
X4114355Y-30174692D01*
X4114354Y-30174696D01*
X4094508Y-30299999D01*
X4094508Y-30300000D01*
X200500Y-30300000D01*
X200500Y-29092947D01*
X4251561Y-29092947D01*
X4271407Y-29218250D01*
X4271408Y-29218254D01*
X4326997Y-29327353D01*
X4329003Y-29331289D01*
X4418711Y-29420997D01*
X4531749Y-29478593D01*
X4657053Y-29498439D01*
X4782357Y-29478593D01*
X4895395Y-29420997D01*
X4985103Y-29331289D01*
X5042699Y-29218251D01*
X5062545Y-29092947D01*
X6751561Y-29092947D01*
X6771407Y-29218250D01*
X6771408Y-29218254D01*
X6826997Y-29327353D01*
X6829003Y-29331289D01*
X6918711Y-29420997D01*
X7031749Y-29478593D01*
X7139919Y-29495725D01*
X7157052Y-29498439D01*
X7157052Y-29498438D01*
X7157053Y-29498439D01*
X7282357Y-29478593D01*
X7395395Y-29420997D01*
X7485103Y-29331289D01*
X7542699Y-29218251D01*
X7562545Y-29092947D01*
X9251561Y-29092947D01*
X9271407Y-29218250D01*
X9271408Y-29218254D01*
X9326997Y-29327353D01*
X9329003Y-29331289D01*
X9418711Y-29420997D01*
X9531749Y-29478593D01*
X9639919Y-29495725D01*
X9657052Y-29498439D01*
X9657052Y-29498438D01*
X9657053Y-29498439D01*
X9782357Y-29478593D01*
X9895395Y-29420997D01*
X9985103Y-29331289D01*
X10042699Y-29218251D01*
X10062545Y-29092947D01*
X11751561Y-29092947D01*
X11771407Y-29218250D01*
X11771408Y-29218254D01*
X11826997Y-29327353D01*
X11829003Y-29331289D01*
X11918711Y-29420997D01*
X12031749Y-29478593D01*
X12157053Y-29498439D01*
X12282357Y-29478593D01*
X12395395Y-29420997D01*
X12485103Y-29331289D01*
X12542699Y-29218251D01*
X12562545Y-29092947D01*
X14251561Y-29092947D01*
X14271407Y-29218250D01*
X14271408Y-29218254D01*
X14326997Y-29327353D01*
X14329003Y-29331289D01*
X14418711Y-29420997D01*
X14531749Y-29478593D01*
X14657053Y-29498439D01*
X14782357Y-29478593D01*
X14895395Y-29420997D01*
X14985103Y-29331289D01*
X15042699Y-29218251D01*
X15062545Y-29092947D01*
X16751561Y-29092947D01*
X16771407Y-29218250D01*
X16771408Y-29218254D01*
X16826997Y-29327353D01*
X16829003Y-29331289D01*
X16918711Y-29420997D01*
X17031749Y-29478593D01*
X17139919Y-29495725D01*
X17157052Y-29498439D01*
X17157052Y-29498438D01*
X17157053Y-29498439D01*
X17282357Y-29478593D01*
X17395395Y-29420997D01*
X17485103Y-29331289D01*
X17542699Y-29218251D01*
X17562545Y-29092947D01*
X19251561Y-29092947D01*
X19271407Y-29218250D01*
X19271408Y-29218254D01*
X19326997Y-29327353D01*
X19329003Y-29331289D01*
X19418711Y-29420997D01*
X19531749Y-29478593D01*
X19639919Y-29495725D01*
X19657052Y-29498439D01*
X19657052Y-29498438D01*
X19657053Y-29498439D01*
X19782357Y-29478593D01*
X19895395Y-29420997D01*
X19985103Y-29331289D01*
X20042699Y-29218251D01*
X20062545Y-29092947D01*
X21751561Y-29092947D01*
X21771407Y-29218250D01*
X21771408Y-29218254D01*
X21826997Y-29327353D01*
X21829003Y-29331289D01*
X21918711Y-29420997D01*
X22031749Y-29478593D01*
X22157053Y-29498439D01*
X22282357Y-29478593D01*
X22395395Y-29420997D01*
X22485103Y-29331289D01*
X22542699Y-29218251D01*
X22562545Y-29092947D01*
X24251561Y-29092947D01*
X24271407Y-29218250D01*
X24271408Y-29218254D01*
X24326997Y-29327353D01*
X24329003Y-29331289D01*
X24418711Y-29420997D01*
X24531749Y-29478593D01*
X24657053Y-29498439D01*
X24782357Y-29478593D01*
X24895395Y-29420997D01*
X24985103Y-29331289D01*
X25042699Y-29218251D01*
X25062545Y-29092947D01*
X25042699Y-28967643D01*
X24985103Y-28854605D01*
X24985099Y-28854601D01*
X24980522Y-28848300D01*
X24982036Y-28847199D01*
X24958770Y-28801522D01*
X24957553Y-28786047D01*
X24957553Y-26899846D01*
X24976460Y-26841655D01*
X24983903Y-26832939D01*
X24985096Y-26831295D01*
X24985103Y-26831289D01*
X25042699Y-26718251D01*
X25062545Y-26592947D01*
X25042699Y-26467643D01*
X24985103Y-26354605D01*
X24985099Y-26354601D01*
X24980522Y-26348300D01*
X24982036Y-26347199D01*
X24958770Y-26301522D01*
X24957553Y-26286047D01*
X24957553Y-24399846D01*
X24976460Y-24341655D01*
X24983903Y-24332939D01*
X24985096Y-24331295D01*
X24985103Y-24331289D01*
X25042699Y-24218251D01*
X25062545Y-24092947D01*
X25042699Y-23967643D01*
X24985103Y-23854605D01*
X24985099Y-23854601D01*
X24980522Y-23848300D01*
X24982036Y-23847199D01*
X24958770Y-23801522D01*
X24957553Y-23786047D01*
X24957553Y-21899845D01*
X24976460Y-21841654D01*
X24983900Y-21832944D01*
X24985102Y-21831290D01*
X24985104Y-21831288D01*
X25042699Y-21718251D01*
X25062545Y-21592947D01*
X25042699Y-21467643D01*
X24985103Y-21354605D01*
X24980525Y-21348304D01*
X24982039Y-21347203D01*
X24958770Y-21301522D01*
X24957553Y-21286047D01*
X24957553Y-19399846D01*
X24976460Y-19341655D01*
X24983903Y-19332939D01*
X24985096Y-19331295D01*
X24985103Y-19331289D01*
X25042699Y-19218251D01*
X25062545Y-19092947D01*
X25042699Y-18967643D01*
X24985103Y-18854605D01*
X24985099Y-18854601D01*
X24980522Y-18848300D01*
X24982036Y-18847199D01*
X24958770Y-18801522D01*
X24957553Y-18786047D01*
X24957553Y-16899846D01*
X24976460Y-16841655D01*
X24983903Y-16832939D01*
X24985096Y-16831295D01*
X24985103Y-16831289D01*
X25042699Y-16718251D01*
X25062545Y-16592947D01*
X25042699Y-16467643D01*
X24985103Y-16354605D01*
X24985099Y-16354601D01*
X24980522Y-16348300D01*
X24982036Y-16347199D01*
X24958770Y-16301522D01*
X24957553Y-16286047D01*
X24957553Y-14399846D01*
X24976460Y-14341655D01*
X24983903Y-14332939D01*
X24985096Y-14331295D01*
X24985103Y-14331289D01*
X25042699Y-14218251D01*
X25062545Y-14092947D01*
X25042699Y-13967643D01*
X24985103Y-13854605D01*
X24985099Y-13854601D01*
X24980522Y-13848300D01*
X24982036Y-13847199D01*
X24958770Y-13801522D01*
X24957553Y-13786047D01*
X24957553Y-11899845D01*
X24976460Y-11841654D01*
X24983900Y-11832944D01*
X24985102Y-11831290D01*
X24985104Y-11831288D01*
X25042699Y-11718251D01*
X25062545Y-11592947D01*
X25042699Y-11467643D01*
X24985103Y-11354605D01*
X24985099Y-11354601D01*
X24980522Y-11348300D01*
X24982036Y-11347199D01*
X24958770Y-11301522D01*
X24957553Y-11286047D01*
X24957553Y-9399846D01*
X24976460Y-9341655D01*
X24983903Y-9332939D01*
X24985096Y-9331295D01*
X24985103Y-9331289D01*
X25042699Y-9218251D01*
X25062545Y-9092947D01*
X25042699Y-8967643D01*
X24985103Y-8854605D01*
X24985099Y-8854601D01*
X24980522Y-8848300D01*
X24982036Y-8847199D01*
X24958770Y-8801522D01*
X24957553Y-8786047D01*
X24957553Y-7500000D01*
X25344508Y-7500000D01*
X25359476Y-7594508D01*
X25364354Y-7625303D01*
X25364355Y-7625307D01*
X25373223Y-7642711D01*
X25421950Y-7738342D01*
X25511658Y-7828050D01*
X25624696Y-7885646D01*
X25695082Y-7896793D01*
X25749598Y-7924570D01*
X25749599Y-7924570D01*
X26670504Y-8845475D01*
X26698281Y-8899992D01*
X26699500Y-8915479D01*
X26699500Y-9693100D01*
X26680593Y-9751291D01*
X26673153Y-9760002D01*
X26671950Y-9761658D01*
X26614355Y-9874692D01*
X26614354Y-9874696D01*
X26594508Y-9999999D01*
X26594508Y-10000000D01*
X26614354Y-10125303D01*
X26614355Y-10125307D01*
X26630960Y-10157895D01*
X26671950Y-10238342D01*
X26671952Y-10238344D01*
X26676531Y-10244647D01*
X26675015Y-10245747D01*
X26698282Y-10291424D01*
X26699499Y-10306899D01*
X26699500Y-11370729D01*
X26697280Y-11384407D01*
X26698494Y-11384577D01*
X26697226Y-11393660D01*
X26699447Y-11441677D01*
X26699500Y-11443963D01*
X26699500Y-11463736D01*
X26700152Y-11467226D01*
X26700943Y-11474043D01*
X26702414Y-11505881D01*
X26702415Y-11505888D01*
X26706384Y-11514876D01*
X26713133Y-11536667D01*
X26714939Y-11546327D01*
X26731717Y-11573427D01*
X26734915Y-11579494D01*
X26751499Y-11617048D01*
X26749599Y-11617886D01*
X26759421Y-11642581D01*
X26771407Y-11718252D01*
X26800204Y-11774770D01*
X26829003Y-11831289D01*
X26829004Y-11831290D01*
X26833584Y-11837594D01*
X26832067Y-11838695D01*
X26855333Y-11884358D01*
X26856552Y-11899845D01*
X26856552Y-13786048D01*
X26837645Y-13844239D01*
X26830204Y-13852950D01*
X26829002Y-13854605D01*
X26771407Y-13967641D01*
X26771407Y-13967643D01*
X26751561Y-14092946D01*
X26751561Y-14092947D01*
X26771407Y-14218250D01*
X26771408Y-14218254D01*
X26800734Y-14275808D01*
X26829003Y-14331289D01*
X26829004Y-14331290D01*
X26833584Y-14337594D01*
X26832067Y-14338695D01*
X26855333Y-14384358D01*
X26856552Y-14399845D01*
X26856552Y-16286048D01*
X26837645Y-16344239D01*
X26830204Y-16352950D01*
X26829002Y-16354605D01*
X26771407Y-16467641D01*
X26771407Y-16467643D01*
X26751561Y-16592946D01*
X26751561Y-16592947D01*
X26771407Y-16718250D01*
X26771407Y-16718252D01*
X26829002Y-16831288D01*
X26833581Y-16837590D01*
X26832065Y-16838691D01*
X26855333Y-16884358D01*
X26856552Y-16899845D01*
X26856552Y-18786048D01*
X26837645Y-18844239D01*
X26830204Y-18852950D01*
X26829002Y-18854605D01*
X26771407Y-18967641D01*
X26771407Y-18967643D01*
X26751561Y-19092947D01*
X26768799Y-19201787D01*
X26771407Y-19218250D01*
X26771407Y-19218252D01*
X26829002Y-19331288D01*
X26833581Y-19337590D01*
X26832065Y-19338691D01*
X26855333Y-19384358D01*
X26856552Y-19399845D01*
X26856552Y-21286048D01*
X26837645Y-21344239D01*
X26830204Y-21352950D01*
X26829002Y-21354605D01*
X26771407Y-21467641D01*
X26771407Y-21467643D01*
X26751561Y-21592946D01*
X26751561Y-21592947D01*
X26771407Y-21718250D01*
X26771408Y-21718254D01*
X26800734Y-21775808D01*
X26829003Y-21831289D01*
X26829004Y-21831290D01*
X26833584Y-21837594D01*
X26832067Y-21838695D01*
X26855333Y-21884358D01*
X26856552Y-21899845D01*
X26856552Y-23786048D01*
X26837645Y-23844239D01*
X26830204Y-23852950D01*
X26829002Y-23854605D01*
X26771407Y-23967641D01*
X26771407Y-23967643D01*
X26751561Y-24092946D01*
X26751561Y-24092947D01*
X26771407Y-24218250D01*
X26771407Y-24218252D01*
X26829002Y-24331288D01*
X26833581Y-24337590D01*
X26832065Y-24338691D01*
X26855333Y-24384358D01*
X26856552Y-24399845D01*
X26856552Y-26286048D01*
X26837645Y-26344239D01*
X26830204Y-26352950D01*
X26829002Y-26354605D01*
X26771407Y-26467641D01*
X26771407Y-26467643D01*
X26751561Y-26592946D01*
X26751561Y-26592947D01*
X26771407Y-26718250D01*
X26771408Y-26718254D01*
X26800734Y-26775808D01*
X26829003Y-26831289D01*
X26829004Y-26831290D01*
X26833584Y-26837594D01*
X26832067Y-26838695D01*
X26855333Y-26884358D01*
X26856552Y-26899845D01*
X26856552Y-28786048D01*
X26837645Y-28844239D01*
X26830204Y-28852950D01*
X26829002Y-28854605D01*
X26771407Y-28967641D01*
X26771407Y-28967643D01*
X26751561Y-29092946D01*
X26751561Y-29092947D01*
X26771407Y-29218250D01*
X26771408Y-29218254D01*
X26826997Y-29327353D01*
X26829003Y-29331289D01*
X26918711Y-29420997D01*
X27031749Y-29478593D01*
X27139919Y-29495725D01*
X27157052Y-29498439D01*
X27157052Y-29498438D01*
X27157053Y-29498439D01*
X27282357Y-29478593D01*
X27395395Y-29420997D01*
X27485103Y-29331289D01*
X27542699Y-29218251D01*
X27562545Y-29092947D01*
X27542699Y-28967643D01*
X27485103Y-28854605D01*
X27485099Y-28854601D01*
X27480522Y-28848300D01*
X27482036Y-28847199D01*
X27458770Y-28801522D01*
X27457553Y-28786047D01*
X27457553Y-26899845D01*
X27476460Y-26841654D01*
X27483900Y-26832944D01*
X27485102Y-26831290D01*
X27485104Y-26831288D01*
X27542699Y-26718251D01*
X27562545Y-26592947D01*
X27542699Y-26467643D01*
X27485103Y-26354605D01*
X27485099Y-26354601D01*
X27480522Y-26348300D01*
X27482036Y-26347199D01*
X27458770Y-26301522D01*
X27457553Y-26286047D01*
X27457553Y-24399846D01*
X27476460Y-24341655D01*
X27483903Y-24332939D01*
X27485096Y-24331295D01*
X27485103Y-24331289D01*
X27542699Y-24218251D01*
X27562545Y-24092947D01*
X27542699Y-23967643D01*
X27485103Y-23854605D01*
X27480525Y-23848304D01*
X27482039Y-23847203D01*
X27458770Y-23801522D01*
X27457553Y-23786047D01*
X27457553Y-21899846D01*
X27476460Y-21841655D01*
X27483903Y-21832939D01*
X27485096Y-21831295D01*
X27485103Y-21831289D01*
X27542699Y-21718251D01*
X27562545Y-21592947D01*
X27542699Y-21467643D01*
X27485103Y-21354605D01*
X27485099Y-21354601D01*
X27480522Y-21348300D01*
X27482036Y-21347199D01*
X27458770Y-21301522D01*
X27457553Y-21286047D01*
X27457553Y-19399846D01*
X27476460Y-19341655D01*
X27483903Y-19332939D01*
X27485096Y-19331295D01*
X27485103Y-19331289D01*
X27542699Y-19218251D01*
X27562545Y-19092947D01*
X27542699Y-18967643D01*
X27485103Y-18854605D01*
X27485099Y-18854601D01*
X27480522Y-18848300D01*
X27482036Y-18847199D01*
X27458770Y-18801522D01*
X27457553Y-18786047D01*
X27457553Y-16899846D01*
X27476460Y-16841655D01*
X27483903Y-16832939D01*
X27485096Y-16831295D01*
X27485103Y-16831289D01*
X27542699Y-16718251D01*
X27562545Y-16592947D01*
X27542699Y-16467643D01*
X27485103Y-16354605D01*
X27485099Y-16354601D01*
X27480522Y-16348300D01*
X27482036Y-16347199D01*
X27458770Y-16301522D01*
X27457553Y-16286047D01*
X27457553Y-14399845D01*
X27476460Y-14341654D01*
X27483900Y-14332944D01*
X27485102Y-14331290D01*
X27485104Y-14331288D01*
X27542699Y-14218251D01*
X27562545Y-14092947D01*
X27542699Y-13967643D01*
X27485103Y-13854605D01*
X27485099Y-13854601D01*
X27480522Y-13848300D01*
X27482036Y-13847199D01*
X27458770Y-13801522D01*
X27457553Y-13786047D01*
X27457553Y-11899845D01*
X27476460Y-11841654D01*
X27483900Y-11832944D01*
X27485102Y-11831290D01*
X27485104Y-11831288D01*
X27542699Y-11718251D01*
X27562545Y-11592947D01*
X27542699Y-11467643D01*
X27485103Y-11354605D01*
X27395395Y-11264897D01*
X27395392Y-11264895D01*
X27395393Y-11264895D01*
X27354554Y-11244087D01*
X27311290Y-11200823D01*
X27300500Y-11155878D01*
X27300500Y-10306899D01*
X27319407Y-10248708D01*
X27326850Y-10239992D01*
X27328043Y-10238348D01*
X27328050Y-10238342D01*
X27385646Y-10125304D01*
X27405492Y-10000000D01*
X27405287Y-9998708D01*
X27393130Y-9921950D01*
X27385646Y-9874696D01*
X27328050Y-9761658D01*
X27328046Y-9761654D01*
X27323469Y-9755353D01*
X27324983Y-9754252D01*
X27301717Y-9708575D01*
X27300500Y-9693100D01*
X27300500Y-9268121D01*
X27300499Y-8815162D01*
X27302767Y-8801501D01*
X27301505Y-8801325D01*
X27302773Y-8792233D01*
X27301509Y-8764896D01*
X27300552Y-8744208D01*
X27300500Y-8741928D01*
X27300500Y-8722160D01*
X27300500Y-8722156D01*
X27299846Y-8718664D01*
X27299056Y-8711859D01*
X27297585Y-8680008D01*
X27293615Y-8671017D01*
X27286864Y-8649215D01*
X27285061Y-8639568D01*
X27285061Y-8639567D01*
X27268276Y-8612458D01*
X27265084Y-8606401D01*
X27252206Y-8577235D01*
X27252205Y-8577233D01*
X27245256Y-8570284D01*
X27231090Y-8552399D01*
X27225919Y-8544048D01*
X27200483Y-8524839D01*
X27195306Y-8520334D01*
X26174570Y-7499599D01*
X26146794Y-7445084D01*
X26135646Y-7374696D01*
X26078050Y-7261658D01*
X25988342Y-7171950D01*
X25984406Y-7169944D01*
X25875307Y-7114355D01*
X25875304Y-7114354D01*
X25750000Y-7094508D01*
X25624696Y-7114354D01*
X25624692Y-7114355D01*
X25511659Y-7171949D01*
X25421949Y-7261659D01*
X25364355Y-7374692D01*
X25364354Y-7374696D01*
X25344572Y-7499599D01*
X25344508Y-7500000D01*
X24957553Y-7500000D01*
X24957553Y-6899846D01*
X24976460Y-6841655D01*
X24983903Y-6832939D01*
X24985096Y-6831295D01*
X24985103Y-6831289D01*
X25042699Y-6718251D01*
X25062545Y-6592947D01*
X25042699Y-6467643D01*
X24985103Y-6354605D01*
X24895395Y-6264897D01*
X24891459Y-6262891D01*
X24782360Y-6207302D01*
X24782357Y-6207301D01*
X24657053Y-6187455D01*
X24531749Y-6207301D01*
X24531745Y-6207302D01*
X24418712Y-6264896D01*
X24329002Y-6354606D01*
X24271408Y-6467639D01*
X24271407Y-6467643D01*
X24251561Y-6592947D01*
X24256589Y-6624696D01*
X24271407Y-6718250D01*
X24271408Y-6718254D01*
X24300734Y-6775808D01*
X24329003Y-6831289D01*
X24329004Y-6831290D01*
X24333584Y-6837594D01*
X24332067Y-6838695D01*
X24355334Y-6884359D01*
X24356553Y-6899846D01*
X24356553Y-8786047D01*
X24337646Y-8844238D01*
X24330206Y-8852949D01*
X24329003Y-8854605D01*
X24271408Y-8967639D01*
X24271407Y-8967643D01*
X24251561Y-9092947D01*
X24270152Y-9210330D01*
X24271407Y-9218250D01*
X24271408Y-9218254D01*
X24296817Y-9268121D01*
X24329003Y-9331289D01*
X24329004Y-9331290D01*
X24333584Y-9337594D01*
X24332067Y-9338695D01*
X24355334Y-9384359D01*
X24356553Y-9399846D01*
X24356553Y-11286047D01*
X24337646Y-11344238D01*
X24330206Y-11352949D01*
X24329003Y-11354605D01*
X24271408Y-11467639D01*
X24271407Y-11467643D01*
X24251561Y-11592946D01*
X24251561Y-11592947D01*
X24271407Y-11718250D01*
X24271408Y-11718254D01*
X24300734Y-11775808D01*
X24329003Y-11831289D01*
X24329004Y-11831290D01*
X24333584Y-11837594D01*
X24332067Y-11838695D01*
X24355334Y-11884359D01*
X24356553Y-11899846D01*
X24356553Y-13786047D01*
X24337646Y-13844238D01*
X24330206Y-13852949D01*
X24329003Y-13854605D01*
X24271408Y-13967639D01*
X24271407Y-13967643D01*
X24251561Y-14092946D01*
X24251561Y-14092947D01*
X24271407Y-14218250D01*
X24271408Y-14218254D01*
X24300734Y-14275808D01*
X24329003Y-14331289D01*
X24329004Y-14331290D01*
X24333584Y-14337594D01*
X24332067Y-14338695D01*
X24355334Y-14384359D01*
X24356553Y-14399846D01*
X24356553Y-16286047D01*
X24337646Y-16344238D01*
X24330203Y-16352952D01*
X24329002Y-16354605D01*
X24271407Y-16467641D01*
X24271407Y-16467643D01*
X24251561Y-16592946D01*
X24251561Y-16592947D01*
X24271407Y-16718250D01*
X24271408Y-16718254D01*
X24295931Y-16766382D01*
X24329003Y-16831289D01*
X24329004Y-16831290D01*
X24333584Y-16837594D01*
X24332067Y-16838695D01*
X24355334Y-16884359D01*
X24356553Y-16899846D01*
X24356553Y-18786047D01*
X24337646Y-18844238D01*
X24330203Y-18852952D01*
X24329002Y-18854605D01*
X24271407Y-18967641D01*
X24271407Y-18967643D01*
X24251561Y-19092947D01*
X24268799Y-19201787D01*
X24271407Y-19218250D01*
X24271408Y-19218254D01*
X24288914Y-19252611D01*
X24329003Y-19331289D01*
X24329004Y-19331290D01*
X24333584Y-19337594D01*
X24332067Y-19338695D01*
X24355334Y-19384359D01*
X24356553Y-19399846D01*
X24356553Y-21286047D01*
X24337646Y-21344238D01*
X24330206Y-21352949D01*
X24329003Y-21354605D01*
X24271408Y-21467639D01*
X24271407Y-21467643D01*
X24251561Y-21592946D01*
X24251561Y-21592947D01*
X24271407Y-21718250D01*
X24271408Y-21718254D01*
X24300734Y-21775808D01*
X24329003Y-21831289D01*
X24329004Y-21831290D01*
X24333584Y-21837594D01*
X24332067Y-21838695D01*
X24355334Y-21884359D01*
X24356553Y-21899846D01*
X24356553Y-23786047D01*
X24337646Y-23844238D01*
X24330206Y-23852949D01*
X24329003Y-23854605D01*
X24271408Y-23967639D01*
X24271407Y-23967643D01*
X24251561Y-24092946D01*
X24251561Y-24092947D01*
X24271407Y-24218250D01*
X24271408Y-24218254D01*
X24300734Y-24275808D01*
X24329003Y-24331289D01*
X24329004Y-24331290D01*
X24333584Y-24337594D01*
X24332067Y-24338695D01*
X24355334Y-24384359D01*
X24356553Y-24399846D01*
X24356553Y-26286047D01*
X24337646Y-26344238D01*
X24330203Y-26352952D01*
X24329002Y-26354605D01*
X24271407Y-26467641D01*
X24271407Y-26467643D01*
X24251561Y-26592946D01*
X24251561Y-26592947D01*
X24271407Y-26718250D01*
X24271408Y-26718254D01*
X24300734Y-26775808D01*
X24329003Y-26831289D01*
X24329004Y-26831290D01*
X24333584Y-26837594D01*
X24332067Y-26838695D01*
X24355334Y-26884359D01*
X24356553Y-26899846D01*
X24356553Y-28786047D01*
X24337646Y-28844238D01*
X24330203Y-28852952D01*
X24329002Y-28854605D01*
X24271407Y-28967641D01*
X24271407Y-28967643D01*
X24251561Y-29092946D01*
X24251561Y-29092947D01*
X22562545Y-29092947D01*
X22542699Y-28967643D01*
X22485103Y-28854605D01*
X22485099Y-28854601D01*
X22480522Y-28848300D01*
X22482036Y-28847199D01*
X22458770Y-28801522D01*
X22457553Y-28786047D01*
X22457553Y-26899846D01*
X22476460Y-26841655D01*
X22483903Y-26832939D01*
X22485096Y-26831295D01*
X22485103Y-26831289D01*
X22542699Y-26718251D01*
X22562545Y-26592947D01*
X22542699Y-26467643D01*
X22485103Y-26354605D01*
X22485099Y-26354601D01*
X22480522Y-26348300D01*
X22482036Y-26347199D01*
X22458770Y-26301522D01*
X22457553Y-26286047D01*
X22457553Y-24399845D01*
X22476460Y-24341654D01*
X22483900Y-24332944D01*
X22485102Y-24331290D01*
X22485104Y-24331288D01*
X22542699Y-24218251D01*
X22562545Y-24092947D01*
X22542699Y-23967643D01*
X22485103Y-23854605D01*
X22485099Y-23854601D01*
X22480522Y-23848300D01*
X22482036Y-23847199D01*
X22458770Y-23801522D01*
X22457553Y-23786047D01*
X22457553Y-21899845D01*
X22476460Y-21841654D01*
X22483900Y-21832944D01*
X22485102Y-21831290D01*
X22485104Y-21831288D01*
X22542699Y-21718251D01*
X22562545Y-21592947D01*
X22542699Y-21467643D01*
X22485103Y-21354605D01*
X22485099Y-21354601D01*
X22480522Y-21348300D01*
X22482036Y-21347199D01*
X22458770Y-21301522D01*
X22457553Y-21286047D01*
X22457553Y-19399846D01*
X22476460Y-19341655D01*
X22483903Y-19332939D01*
X22485096Y-19331295D01*
X22485103Y-19331289D01*
X22542699Y-19218251D01*
X22562545Y-19092947D01*
X22542699Y-18967643D01*
X22485103Y-18854605D01*
X22485099Y-18854601D01*
X22480522Y-18848300D01*
X22482036Y-18847199D01*
X22458770Y-18801522D01*
X22457553Y-18786047D01*
X22457553Y-16899846D01*
X22476460Y-16841655D01*
X22483903Y-16832939D01*
X22485096Y-16831295D01*
X22485103Y-16831289D01*
X22542699Y-16718251D01*
X22562545Y-16592947D01*
X22542699Y-16467643D01*
X22485103Y-16354605D01*
X22485099Y-16354601D01*
X22480522Y-16348300D01*
X22482036Y-16347199D01*
X22458770Y-16301522D01*
X22457553Y-16286047D01*
X22457553Y-14399845D01*
X22476460Y-14341654D01*
X22483900Y-14332944D01*
X22485102Y-14331290D01*
X22485104Y-14331288D01*
X22542699Y-14218251D01*
X22562545Y-14092947D01*
X22542699Y-13967643D01*
X22485103Y-13854605D01*
X22485099Y-13854601D01*
X22480522Y-13848300D01*
X22482036Y-13847199D01*
X22458770Y-13801522D01*
X22457553Y-13786047D01*
X22457553Y-11899845D01*
X22476460Y-11841654D01*
X22483900Y-11832944D01*
X22485102Y-11831290D01*
X22485104Y-11831288D01*
X22542699Y-11718251D01*
X22562545Y-11592947D01*
X22542699Y-11467643D01*
X22485103Y-11354605D01*
X22485099Y-11354601D01*
X22480522Y-11348300D01*
X22482036Y-11347199D01*
X22458770Y-11301522D01*
X22457553Y-11286047D01*
X22457553Y-9399846D01*
X22476460Y-9341655D01*
X22483903Y-9332939D01*
X22485096Y-9331295D01*
X22485103Y-9331289D01*
X22542699Y-9218251D01*
X22562545Y-9092947D01*
X22542699Y-8967643D01*
X22485103Y-8854605D01*
X22485099Y-8854601D01*
X22480522Y-8848300D01*
X22482036Y-8847199D01*
X22458770Y-8801522D01*
X22457553Y-8786047D01*
X22457553Y-6899846D01*
X22476460Y-6841655D01*
X22483903Y-6832939D01*
X22485096Y-6831295D01*
X22485103Y-6831289D01*
X22542699Y-6718251D01*
X22562545Y-6592947D01*
X22542699Y-6467643D01*
X22485103Y-6354605D01*
X22395395Y-6264897D01*
X22391459Y-6262891D01*
X22282360Y-6207302D01*
X22282357Y-6207301D01*
X22157053Y-6187455D01*
X22031749Y-6207301D01*
X22031745Y-6207302D01*
X21918712Y-6264896D01*
X21829002Y-6354606D01*
X21771408Y-6467639D01*
X21771407Y-6467643D01*
X21751561Y-6592947D01*
X21756589Y-6624696D01*
X21771407Y-6718250D01*
X21771408Y-6718254D01*
X21800734Y-6775808D01*
X21829003Y-6831289D01*
X21829004Y-6831290D01*
X21833584Y-6837594D01*
X21832067Y-6838695D01*
X21855334Y-6884359D01*
X21856553Y-6899846D01*
X21856553Y-8786047D01*
X21837646Y-8844238D01*
X21830206Y-8852949D01*
X21829003Y-8854605D01*
X21771408Y-8967639D01*
X21771407Y-8967643D01*
X21751561Y-9092947D01*
X21770152Y-9210330D01*
X21771407Y-9218250D01*
X21771408Y-9218254D01*
X21796817Y-9268121D01*
X21829003Y-9331289D01*
X21829004Y-9331290D01*
X21833584Y-9337594D01*
X21832067Y-9338695D01*
X21855334Y-9384359D01*
X21856553Y-9399846D01*
X21856553Y-11286047D01*
X21837646Y-11344238D01*
X21830206Y-11352949D01*
X21829003Y-11354605D01*
X21771408Y-11467639D01*
X21771407Y-11467643D01*
X21751561Y-11592946D01*
X21751561Y-11592947D01*
X21771407Y-11718250D01*
X21771407Y-11718252D01*
X21829003Y-11831290D01*
X21833582Y-11837591D01*
X21832064Y-11838693D01*
X21855332Y-11884346D01*
X21856553Y-11899845D01*
X21856553Y-13786047D01*
X21837646Y-13844238D01*
X21830206Y-13852949D01*
X21829003Y-13854605D01*
X21771408Y-13967639D01*
X21771407Y-13967643D01*
X21751561Y-14092946D01*
X21751561Y-14092947D01*
X21771407Y-14218250D01*
X21771408Y-14218254D01*
X21800734Y-14275808D01*
X21829003Y-14331289D01*
X21829004Y-14331290D01*
X21833584Y-14337594D01*
X21832067Y-14338695D01*
X21855334Y-14384359D01*
X21856553Y-14399846D01*
X21856553Y-16286047D01*
X21837646Y-16344238D01*
X21830206Y-16352949D01*
X21829003Y-16354605D01*
X21771408Y-16467639D01*
X21771407Y-16467643D01*
X21751561Y-16592946D01*
X21751561Y-16592947D01*
X21771407Y-16718250D01*
X21771408Y-16718254D01*
X21795931Y-16766382D01*
X21829003Y-16831289D01*
X21829004Y-16831290D01*
X21833584Y-16837594D01*
X21832067Y-16838695D01*
X21855334Y-16884359D01*
X21856553Y-16899846D01*
X21856553Y-18786047D01*
X21837646Y-18844238D01*
X21830206Y-18852949D01*
X21829003Y-18854605D01*
X21771408Y-18967639D01*
X21771407Y-18967643D01*
X21751561Y-19092947D01*
X21768799Y-19201787D01*
X21771407Y-19218250D01*
X21771408Y-19218254D01*
X21788914Y-19252611D01*
X21829003Y-19331289D01*
X21829004Y-19331290D01*
X21833584Y-19337594D01*
X21832067Y-19338695D01*
X21855334Y-19384359D01*
X21856553Y-19399846D01*
X21856553Y-21286047D01*
X21837646Y-21344238D01*
X21830203Y-21352952D01*
X21829002Y-21354605D01*
X21771407Y-21467641D01*
X21771407Y-21467643D01*
X21751561Y-21592946D01*
X21751561Y-21592947D01*
X21771407Y-21718250D01*
X21771407Y-21718252D01*
X21829003Y-21831290D01*
X21833582Y-21837591D01*
X21832064Y-21838693D01*
X21855332Y-21884346D01*
X21856553Y-21899845D01*
X21856553Y-23786047D01*
X21837646Y-23844238D01*
X21830206Y-23852949D01*
X21829003Y-23854605D01*
X21771408Y-23967639D01*
X21771407Y-23967643D01*
X21751561Y-24092946D01*
X21751561Y-24092947D01*
X21771407Y-24218250D01*
X21771408Y-24218254D01*
X21800734Y-24275808D01*
X21829003Y-24331289D01*
X21829004Y-24331290D01*
X21833584Y-24337594D01*
X21832067Y-24338695D01*
X21855334Y-24384359D01*
X21856553Y-24399846D01*
X21856553Y-26286047D01*
X21837646Y-26344238D01*
X21830206Y-26352949D01*
X21829003Y-26354605D01*
X21771408Y-26467639D01*
X21771407Y-26467643D01*
X21751561Y-26592946D01*
X21751561Y-26592947D01*
X21771407Y-26718250D01*
X21771408Y-26718254D01*
X21800734Y-26775808D01*
X21829003Y-26831289D01*
X21829004Y-26831290D01*
X21833584Y-26837594D01*
X21832067Y-26838695D01*
X21855334Y-26884359D01*
X21856553Y-26899846D01*
X21856553Y-28786047D01*
X21837646Y-28844238D01*
X21830206Y-28852949D01*
X21829003Y-28854605D01*
X21771408Y-28967639D01*
X21771407Y-28967643D01*
X21751561Y-29092946D01*
X21751561Y-29092947D01*
X20062545Y-29092947D01*
X20042699Y-28967643D01*
X19985103Y-28854605D01*
X19985099Y-28854601D01*
X19980522Y-28848300D01*
X19982036Y-28847199D01*
X19958770Y-28801522D01*
X19957553Y-28786047D01*
X19957553Y-26899846D01*
X19976460Y-26841655D01*
X19983903Y-26832939D01*
X19985096Y-26831295D01*
X19985103Y-26831289D01*
X20042699Y-26718251D01*
X20062545Y-26592947D01*
X20042699Y-26467643D01*
X19985103Y-26354605D01*
X19980525Y-26348304D01*
X19982039Y-26347203D01*
X19958770Y-26301522D01*
X19957553Y-26286047D01*
X19957553Y-24399846D01*
X19976460Y-24341655D01*
X19983903Y-24332939D01*
X19985096Y-24331295D01*
X19985103Y-24331289D01*
X20042699Y-24218251D01*
X20062545Y-24092947D01*
X20042699Y-23967643D01*
X19985103Y-23854605D01*
X19985099Y-23854601D01*
X19980522Y-23848300D01*
X19982036Y-23847199D01*
X19958770Y-23801522D01*
X19957553Y-23786047D01*
X19957553Y-21899846D01*
X19976460Y-21841655D01*
X19983903Y-21832939D01*
X19985096Y-21831295D01*
X19985103Y-21831289D01*
X20042699Y-21718251D01*
X20062545Y-21592947D01*
X20042699Y-21467643D01*
X19985103Y-21354605D01*
X19980525Y-21348304D01*
X19982039Y-21347203D01*
X19958770Y-21301522D01*
X19957553Y-21286047D01*
X19957553Y-19399846D01*
X19976460Y-19341655D01*
X19983903Y-19332939D01*
X19985096Y-19331295D01*
X19985103Y-19331289D01*
X20042699Y-19218251D01*
X20062545Y-19092947D01*
X20042699Y-18967643D01*
X19985103Y-18854605D01*
X19985099Y-18854601D01*
X19980522Y-18848300D01*
X19982036Y-18847199D01*
X19958770Y-18801522D01*
X19957553Y-18786047D01*
X19957553Y-16899845D01*
X19976460Y-16841654D01*
X19983900Y-16832944D01*
X19985102Y-16831290D01*
X19985104Y-16831288D01*
X20042699Y-16718251D01*
X20062545Y-16592947D01*
X20042699Y-16467643D01*
X19985103Y-16354605D01*
X19985099Y-16354601D01*
X19980522Y-16348300D01*
X19982036Y-16347199D01*
X19958770Y-16301522D01*
X19957553Y-16286047D01*
X19957553Y-14399846D01*
X19976460Y-14341655D01*
X19983903Y-14332939D01*
X19985096Y-14331295D01*
X19985103Y-14331289D01*
X20042699Y-14218251D01*
X20062545Y-14092947D01*
X20042699Y-13967643D01*
X19985103Y-13854605D01*
X19985099Y-13854601D01*
X19980522Y-13848300D01*
X19982036Y-13847199D01*
X19958770Y-13801522D01*
X19957553Y-13786047D01*
X19957553Y-11899846D01*
X19976460Y-11841655D01*
X19983903Y-11832939D01*
X19985096Y-11831295D01*
X19985103Y-11831289D01*
X20042699Y-11718251D01*
X20062545Y-11592947D01*
X20042699Y-11467643D01*
X19985103Y-11354605D01*
X19985099Y-11354601D01*
X19980522Y-11348300D01*
X19982036Y-11347199D01*
X19958770Y-11301522D01*
X19957553Y-11286047D01*
X19957553Y-9399846D01*
X19976460Y-9341655D01*
X19983903Y-9332939D01*
X19985096Y-9331295D01*
X19985103Y-9331289D01*
X20042699Y-9218251D01*
X20062545Y-9092947D01*
X20042699Y-8967643D01*
X19985103Y-8854605D01*
X19985099Y-8854601D01*
X19980522Y-8848300D01*
X19982036Y-8847199D01*
X19958770Y-8801522D01*
X19957553Y-8786047D01*
X19957553Y-6899846D01*
X19976460Y-6841655D01*
X19983903Y-6832939D01*
X19985096Y-6831295D01*
X19985103Y-6831289D01*
X20042699Y-6718251D01*
X20062545Y-6592947D01*
X20042699Y-6467643D01*
X19985103Y-6354605D01*
X19895395Y-6264897D01*
X19891459Y-6262891D01*
X19782360Y-6207302D01*
X19782357Y-6207301D01*
X19657053Y-6187455D01*
X19531749Y-6207301D01*
X19531745Y-6207302D01*
X19418712Y-6264896D01*
X19329002Y-6354606D01*
X19271408Y-6467639D01*
X19271407Y-6467643D01*
X19251561Y-6592947D01*
X19256589Y-6624696D01*
X19271407Y-6718250D01*
X19271408Y-6718254D01*
X19300734Y-6775808D01*
X19329003Y-6831289D01*
X19329004Y-6831290D01*
X19333584Y-6837594D01*
X19332067Y-6838695D01*
X19355334Y-6884359D01*
X19356553Y-6899846D01*
X19356553Y-8786047D01*
X19337646Y-8844238D01*
X19330206Y-8852949D01*
X19329003Y-8854605D01*
X19271408Y-8967639D01*
X19271407Y-8967643D01*
X19251561Y-9092947D01*
X19270152Y-9210330D01*
X19271407Y-9218250D01*
X19271408Y-9218254D01*
X19296817Y-9268121D01*
X19329003Y-9331289D01*
X19329004Y-9331290D01*
X19333584Y-9337594D01*
X19332068Y-9338694D01*
X19355335Y-9384371D01*
X19356552Y-9399846D01*
X19356552Y-11286047D01*
X19337645Y-11344238D01*
X19330204Y-11352951D01*
X19329002Y-11354605D01*
X19271407Y-11467641D01*
X19271407Y-11467643D01*
X19251561Y-11592946D01*
X19251561Y-11592947D01*
X19271407Y-11718250D01*
X19271408Y-11718254D01*
X19300734Y-11775808D01*
X19329003Y-11831289D01*
X19329004Y-11831290D01*
X19333584Y-11837594D01*
X19332067Y-11838695D01*
X19355334Y-11884359D01*
X19356553Y-11899846D01*
X19356553Y-13786047D01*
X19337646Y-13844238D01*
X19330206Y-13852949D01*
X19329003Y-13854605D01*
X19271408Y-13967639D01*
X19271407Y-13967643D01*
X19251561Y-14092946D01*
X19251561Y-14092947D01*
X19271407Y-14218250D01*
X19271408Y-14218254D01*
X19300734Y-14275808D01*
X19329003Y-14331289D01*
X19329004Y-14331290D01*
X19333584Y-14337594D01*
X19332067Y-14338695D01*
X19355334Y-14384359D01*
X19356553Y-14399846D01*
X19356553Y-16286047D01*
X19337646Y-16344238D01*
X19330206Y-16352949D01*
X19329003Y-16354605D01*
X19271408Y-16467639D01*
X19271407Y-16467643D01*
X19251561Y-16592946D01*
X19251561Y-16592947D01*
X19271407Y-16718250D01*
X19271408Y-16718254D01*
X19295931Y-16766382D01*
X19329003Y-16831289D01*
X19329004Y-16831290D01*
X19333584Y-16837594D01*
X19332067Y-16838695D01*
X19355334Y-16884359D01*
X19356553Y-16899846D01*
X19356553Y-18786047D01*
X19337646Y-18844238D01*
X19330206Y-18852949D01*
X19329003Y-18854605D01*
X19271408Y-18967639D01*
X19271407Y-18967643D01*
X19251561Y-19092947D01*
X19268799Y-19201787D01*
X19271407Y-19218250D01*
X19271408Y-19218254D01*
X19288914Y-19252611D01*
X19329003Y-19331289D01*
X19329004Y-19331290D01*
X19333584Y-19337594D01*
X19332068Y-19338694D01*
X19355335Y-19384371D01*
X19356552Y-19399846D01*
X19356552Y-21286047D01*
X19337645Y-21344238D01*
X19330204Y-21352951D01*
X19329002Y-21354605D01*
X19271407Y-21467641D01*
X19271407Y-21467643D01*
X19251561Y-21592946D01*
X19251561Y-21592947D01*
X19271407Y-21718250D01*
X19271408Y-21718254D01*
X19300734Y-21775808D01*
X19329003Y-21831289D01*
X19329004Y-21831290D01*
X19333584Y-21837594D01*
X19332068Y-21838694D01*
X19355335Y-21884371D01*
X19356552Y-21899846D01*
X19356552Y-23786047D01*
X19337645Y-23844238D01*
X19330204Y-23852951D01*
X19329002Y-23854605D01*
X19271407Y-23967641D01*
X19271407Y-23967643D01*
X19251561Y-24092946D01*
X19251561Y-24092947D01*
X19271407Y-24218250D01*
X19271408Y-24218254D01*
X19300734Y-24275808D01*
X19329003Y-24331289D01*
X19329004Y-24331290D01*
X19333584Y-24337594D01*
X19332067Y-24338695D01*
X19355334Y-24384359D01*
X19356553Y-24399846D01*
X19356553Y-26286047D01*
X19337646Y-26344238D01*
X19330206Y-26352949D01*
X19329003Y-26354605D01*
X19271408Y-26467639D01*
X19271407Y-26467643D01*
X19251561Y-26592946D01*
X19251561Y-26592947D01*
X19271407Y-26718250D01*
X19271408Y-26718254D01*
X19300734Y-26775808D01*
X19329003Y-26831289D01*
X19329004Y-26831290D01*
X19333584Y-26837594D01*
X19332067Y-26838695D01*
X19355334Y-26884359D01*
X19356553Y-26899846D01*
X19356553Y-28786047D01*
X19337646Y-28844238D01*
X19330206Y-28852949D01*
X19329003Y-28854605D01*
X19271408Y-28967639D01*
X19271407Y-28967643D01*
X19251561Y-29092946D01*
X19251561Y-29092947D01*
X17562545Y-29092947D01*
X17542699Y-28967643D01*
X17485103Y-28854605D01*
X17485099Y-28854601D01*
X17480522Y-28848300D01*
X17482036Y-28847199D01*
X17458770Y-28801522D01*
X17457553Y-28786047D01*
X17457553Y-26899846D01*
X17476460Y-26841655D01*
X17483903Y-26832939D01*
X17485096Y-26831295D01*
X17485103Y-26831289D01*
X17542699Y-26718251D01*
X17562545Y-26592947D01*
X17542699Y-26467643D01*
X17485103Y-26354605D01*
X17485099Y-26354601D01*
X17480522Y-26348300D01*
X17482036Y-26347199D01*
X17458770Y-26301522D01*
X17457553Y-26286047D01*
X17457553Y-24399846D01*
X17476460Y-24341655D01*
X17483903Y-24332939D01*
X17485096Y-24331295D01*
X17485103Y-24331289D01*
X17542699Y-24218251D01*
X17562545Y-24092947D01*
X17542699Y-23967643D01*
X17485103Y-23854605D01*
X17485099Y-23854601D01*
X17480522Y-23848300D01*
X17482036Y-23847199D01*
X17458770Y-23801522D01*
X17457553Y-23786047D01*
X17457553Y-21899846D01*
X17476460Y-21841655D01*
X17483903Y-21832939D01*
X17485096Y-21831295D01*
X17485103Y-21831289D01*
X17542699Y-21718251D01*
X17562545Y-21592947D01*
X17542699Y-21467643D01*
X17485103Y-21354605D01*
X17485099Y-21354601D01*
X17480522Y-21348300D01*
X17482036Y-21347199D01*
X17458770Y-21301522D01*
X17457553Y-21286047D01*
X17457553Y-19399845D01*
X17476460Y-19341654D01*
X17483900Y-19332944D01*
X17485102Y-19331290D01*
X17485104Y-19331288D01*
X17542699Y-19218251D01*
X17562545Y-19092947D01*
X17542699Y-18967643D01*
X17485103Y-18854605D01*
X17485099Y-18854601D01*
X17480522Y-18848300D01*
X17482036Y-18847199D01*
X17458770Y-18801522D01*
X17457553Y-18786047D01*
X17457553Y-16899845D01*
X17476460Y-16841654D01*
X17483900Y-16832944D01*
X17485102Y-16831290D01*
X17485104Y-16831288D01*
X17542699Y-16718251D01*
X17562545Y-16592947D01*
X17542699Y-16467643D01*
X17485103Y-16354605D01*
X17485099Y-16354601D01*
X17480522Y-16348300D01*
X17482036Y-16347199D01*
X17458770Y-16301522D01*
X17457553Y-16286047D01*
X17457553Y-14399846D01*
X17476460Y-14341655D01*
X17483903Y-14332939D01*
X17485096Y-14331295D01*
X17485103Y-14331289D01*
X17542699Y-14218251D01*
X17562545Y-14092947D01*
X17542699Y-13967643D01*
X17485103Y-13854605D01*
X17485099Y-13854601D01*
X17480522Y-13848300D01*
X17482036Y-13847199D01*
X17458770Y-13801522D01*
X17457553Y-13786047D01*
X17457553Y-11899846D01*
X17476460Y-11841655D01*
X17483903Y-11832939D01*
X17485096Y-11831295D01*
X17485103Y-11831289D01*
X17542699Y-11718251D01*
X17562545Y-11592947D01*
X17542699Y-11467643D01*
X17485103Y-11354605D01*
X17485099Y-11354601D01*
X17480522Y-11348300D01*
X17482036Y-11347199D01*
X17458770Y-11301522D01*
X17457553Y-11286047D01*
X17457553Y-9399846D01*
X17476460Y-9341655D01*
X17483903Y-9332939D01*
X17485096Y-9331295D01*
X17485103Y-9331289D01*
X17542699Y-9218251D01*
X17562545Y-9092947D01*
X17542699Y-8967643D01*
X17485103Y-8854605D01*
X17485099Y-8854601D01*
X17480522Y-8848300D01*
X17482036Y-8847199D01*
X17458770Y-8801522D01*
X17457553Y-8786047D01*
X17457553Y-6899845D01*
X17476460Y-6841654D01*
X17483900Y-6832944D01*
X17485102Y-6831290D01*
X17485104Y-6831288D01*
X17542699Y-6718251D01*
X17562545Y-6592947D01*
X17542699Y-6467643D01*
X17485103Y-6354605D01*
X17395395Y-6264897D01*
X17391459Y-6262891D01*
X17282360Y-6207302D01*
X17282357Y-6207301D01*
X17157053Y-6187455D01*
X17031749Y-6207301D01*
X17031745Y-6207302D01*
X16918712Y-6264896D01*
X16829002Y-6354606D01*
X16771408Y-6467639D01*
X16771407Y-6467643D01*
X16751561Y-6592947D01*
X16756589Y-6624696D01*
X16771407Y-6718250D01*
X16771408Y-6718254D01*
X16800734Y-6775808D01*
X16829003Y-6831289D01*
X16829004Y-6831290D01*
X16833584Y-6837594D01*
X16832067Y-6838695D01*
X16855334Y-6884359D01*
X16856553Y-6899846D01*
X16856553Y-8786047D01*
X16837646Y-8844238D01*
X16830206Y-8852949D01*
X16829003Y-8854605D01*
X16771408Y-8967639D01*
X16771407Y-8967643D01*
X16751561Y-9092947D01*
X16770152Y-9210330D01*
X16771407Y-9218250D01*
X16771408Y-9218254D01*
X16796817Y-9268121D01*
X16829003Y-9331289D01*
X16829004Y-9331290D01*
X16833584Y-9337594D01*
X16832067Y-9338695D01*
X16855334Y-9384359D01*
X16856553Y-9399846D01*
X16856553Y-11286047D01*
X16837646Y-11344238D01*
X16830206Y-11352949D01*
X16829003Y-11354605D01*
X16771408Y-11467639D01*
X16771407Y-11467643D01*
X16751561Y-11592946D01*
X16751561Y-11592947D01*
X16771407Y-11718250D01*
X16771407Y-11718252D01*
X16829003Y-11831290D01*
X16833582Y-11837591D01*
X16832064Y-11838693D01*
X16855332Y-11884346D01*
X16856553Y-11899845D01*
X16856553Y-13786047D01*
X16837646Y-13844238D01*
X16830206Y-13852949D01*
X16829003Y-13854605D01*
X16771408Y-13967639D01*
X16771407Y-13967643D01*
X16751561Y-14092946D01*
X16751561Y-14092947D01*
X16771407Y-14218250D01*
X16771408Y-14218254D01*
X16800734Y-14275808D01*
X16829003Y-14331289D01*
X16829004Y-14331290D01*
X16833584Y-14337594D01*
X16832067Y-14338695D01*
X16855334Y-14384359D01*
X16856553Y-14399846D01*
X16856553Y-16286047D01*
X16837646Y-16344238D01*
X16830206Y-16352949D01*
X16829003Y-16354605D01*
X16771408Y-16467639D01*
X16771407Y-16467643D01*
X16751561Y-16592946D01*
X16751561Y-16592947D01*
X16771407Y-16718250D01*
X16771407Y-16718252D01*
X16829003Y-16831290D01*
X16833582Y-16837591D01*
X16832064Y-16838693D01*
X16855332Y-16884346D01*
X16856553Y-16899845D01*
X16856553Y-18786047D01*
X16837646Y-18844238D01*
X16830206Y-18852949D01*
X16829003Y-18854605D01*
X16771408Y-18967639D01*
X16771407Y-18967643D01*
X16751561Y-19092947D01*
X16768799Y-19201787D01*
X16771407Y-19218250D01*
X16771408Y-19218254D01*
X16788914Y-19252611D01*
X16829003Y-19331289D01*
X16829004Y-19331290D01*
X16833584Y-19337594D01*
X16832067Y-19338695D01*
X16855334Y-19384359D01*
X16856553Y-19399846D01*
X16856553Y-21286047D01*
X16837646Y-21344238D01*
X16830206Y-21352949D01*
X16829003Y-21354605D01*
X16771408Y-21467639D01*
X16771407Y-21467643D01*
X16751561Y-21592946D01*
X16751561Y-21592947D01*
X16771407Y-21718250D01*
X16771407Y-21718252D01*
X16829003Y-21831290D01*
X16833582Y-21837591D01*
X16832064Y-21838693D01*
X16855332Y-21884346D01*
X16856553Y-21899845D01*
X16856553Y-23786047D01*
X16837646Y-23844238D01*
X16830206Y-23852949D01*
X16829003Y-23854605D01*
X16771408Y-23967639D01*
X16771407Y-23967643D01*
X16751561Y-24092946D01*
X16751561Y-24092947D01*
X16771407Y-24218250D01*
X16771408Y-24218254D01*
X16800734Y-24275808D01*
X16829003Y-24331289D01*
X16829004Y-24331290D01*
X16833584Y-24337594D01*
X16832067Y-24338695D01*
X16855334Y-24384359D01*
X16856553Y-24399846D01*
X16856553Y-26286047D01*
X16837646Y-26344238D01*
X16830203Y-26352952D01*
X16829002Y-26354605D01*
X16771407Y-26467641D01*
X16771407Y-26467643D01*
X16751561Y-26592946D01*
X16751561Y-26592947D01*
X16771407Y-26718250D01*
X16771408Y-26718254D01*
X16800734Y-26775808D01*
X16829003Y-26831289D01*
X16829004Y-26831290D01*
X16833584Y-26837594D01*
X16832067Y-26838695D01*
X16855334Y-26884359D01*
X16856553Y-26899846D01*
X16856553Y-28786047D01*
X16837646Y-28844238D01*
X16830206Y-28852949D01*
X16829003Y-28854605D01*
X16771408Y-28967639D01*
X16771407Y-28967643D01*
X16751561Y-29092946D01*
X16751561Y-29092947D01*
X15062545Y-29092947D01*
X15042699Y-28967643D01*
X14985103Y-28854605D01*
X14985099Y-28854601D01*
X14980522Y-28848300D01*
X14982036Y-28847199D01*
X14958770Y-28801522D01*
X14957553Y-28786047D01*
X14957553Y-26899846D01*
X14976460Y-26841655D01*
X14983903Y-26832939D01*
X14985096Y-26831295D01*
X14985103Y-26831289D01*
X15042699Y-26718251D01*
X15062545Y-26592947D01*
X15042699Y-26467643D01*
X14985103Y-26354605D01*
X14980525Y-26348304D01*
X14982039Y-26347203D01*
X14958770Y-26301522D01*
X14957553Y-26286047D01*
X14957553Y-24399846D01*
X14976460Y-24341655D01*
X14983903Y-24332939D01*
X14985096Y-24331295D01*
X14985103Y-24331289D01*
X15042699Y-24218251D01*
X15062545Y-24092947D01*
X15042699Y-23967643D01*
X14985103Y-23854605D01*
X14985099Y-23854601D01*
X14980522Y-23848300D01*
X14982036Y-23847199D01*
X14958770Y-23801522D01*
X14957553Y-23786047D01*
X14957553Y-21899845D01*
X14976460Y-21841654D01*
X14983900Y-21832944D01*
X14985102Y-21831290D01*
X14985104Y-21831288D01*
X15042699Y-21718251D01*
X15062545Y-21592947D01*
X15042699Y-21467643D01*
X14985103Y-21354605D01*
X14980525Y-21348304D01*
X14982039Y-21347203D01*
X14958770Y-21301522D01*
X14957553Y-21286047D01*
X14957553Y-19399846D01*
X14976460Y-19341655D01*
X14983903Y-19332939D01*
X14985096Y-19331295D01*
X14985103Y-19331289D01*
X15042699Y-19218251D01*
X15062545Y-19092947D01*
X15042699Y-18967643D01*
X14985103Y-18854605D01*
X14985099Y-18854601D01*
X14980522Y-18848300D01*
X14982036Y-18847199D01*
X14958770Y-18801522D01*
X14957553Y-18786047D01*
X14957553Y-16899846D01*
X14976460Y-16841655D01*
X14983903Y-16832939D01*
X14985096Y-16831295D01*
X14985103Y-16831289D01*
X15042699Y-16718251D01*
X15062545Y-16592947D01*
X15042699Y-16467643D01*
X14985103Y-16354605D01*
X14985099Y-16354601D01*
X14980522Y-16348300D01*
X14982036Y-16347199D01*
X14958770Y-16301522D01*
X14957553Y-16286047D01*
X14957553Y-14399846D01*
X14976460Y-14341655D01*
X14983903Y-14332939D01*
X14985096Y-14331295D01*
X14985103Y-14331289D01*
X15042699Y-14218251D01*
X15062545Y-14092947D01*
X15042699Y-13967643D01*
X14985103Y-13854605D01*
X14985099Y-13854601D01*
X14980522Y-13848300D01*
X14982036Y-13847199D01*
X14958770Y-13801522D01*
X14957553Y-13786047D01*
X14957553Y-11899846D01*
X14976460Y-11841655D01*
X14983903Y-11832939D01*
X14985096Y-11831295D01*
X14985103Y-11831289D01*
X15042699Y-11718251D01*
X15062545Y-11592947D01*
X15042699Y-11467643D01*
X14985103Y-11354605D01*
X14980525Y-11348304D01*
X14982039Y-11347203D01*
X14958770Y-11301522D01*
X14957553Y-11286047D01*
X14957553Y-9399846D01*
X14976460Y-9341655D01*
X14983903Y-9332939D01*
X14985096Y-9331295D01*
X14985103Y-9331289D01*
X15042699Y-9218251D01*
X15062545Y-9092947D01*
X15042699Y-8967643D01*
X14985103Y-8854605D01*
X14985099Y-8854601D01*
X14980522Y-8848300D01*
X14982036Y-8847199D01*
X14958770Y-8801522D01*
X14957553Y-8786047D01*
X14957553Y-6899846D01*
X14976460Y-6841655D01*
X14983903Y-6832939D01*
X14985096Y-6831295D01*
X14985103Y-6831289D01*
X15042699Y-6718251D01*
X15062545Y-6592947D01*
X15042699Y-6467643D01*
X14985103Y-6354605D01*
X14895395Y-6264897D01*
X14891459Y-6262891D01*
X14782360Y-6207302D01*
X14782357Y-6207301D01*
X14657053Y-6187455D01*
X14531749Y-6207301D01*
X14531745Y-6207302D01*
X14418712Y-6264896D01*
X14329002Y-6354606D01*
X14271408Y-6467639D01*
X14271407Y-6467643D01*
X14251561Y-6592947D01*
X14256589Y-6624696D01*
X14271407Y-6718250D01*
X14271408Y-6718254D01*
X14300734Y-6775808D01*
X14329003Y-6831289D01*
X14329004Y-6831290D01*
X14333584Y-6837594D01*
X14332067Y-6838695D01*
X14355334Y-6884359D01*
X14356553Y-6899846D01*
X14356553Y-8786047D01*
X14337646Y-8844238D01*
X14330206Y-8852949D01*
X14329003Y-8854605D01*
X14271408Y-8967639D01*
X14271407Y-8967643D01*
X14251561Y-9092947D01*
X14270152Y-9210330D01*
X14271407Y-9218250D01*
X14271408Y-9218254D01*
X14296817Y-9268121D01*
X14329003Y-9331289D01*
X14329004Y-9331290D01*
X14333584Y-9337594D01*
X14332067Y-9338695D01*
X14355334Y-9384359D01*
X14356553Y-9399846D01*
X14356553Y-11286047D01*
X14337646Y-11344238D01*
X14330206Y-11352949D01*
X14329003Y-11354605D01*
X14271408Y-11467639D01*
X14271407Y-11467643D01*
X14251561Y-11592946D01*
X14251561Y-11592947D01*
X14271407Y-11718250D01*
X14271408Y-11718254D01*
X14300734Y-11775808D01*
X14329003Y-11831289D01*
X14329004Y-11831290D01*
X14333584Y-11837594D01*
X14332067Y-11838695D01*
X14355334Y-11884359D01*
X14356553Y-11899846D01*
X14356553Y-13786047D01*
X14337646Y-13844238D01*
X14330206Y-13852949D01*
X14329003Y-13854605D01*
X14271408Y-13967639D01*
X14271407Y-13967643D01*
X14251561Y-14092946D01*
X14251561Y-14092947D01*
X14271407Y-14218250D01*
X14271408Y-14218254D01*
X14300734Y-14275808D01*
X14329003Y-14331289D01*
X14329004Y-14331290D01*
X14333584Y-14337594D01*
X14332067Y-14338695D01*
X14355334Y-14384359D01*
X14356553Y-14399846D01*
X14356553Y-16286047D01*
X14337646Y-16344238D01*
X14330203Y-16352952D01*
X14329002Y-16354605D01*
X14271407Y-16467641D01*
X14271407Y-16467643D01*
X14251561Y-16592946D01*
X14251561Y-16592947D01*
X14271407Y-16718250D01*
X14271408Y-16718254D01*
X14295931Y-16766382D01*
X14329003Y-16831289D01*
X14329004Y-16831290D01*
X14333584Y-16837594D01*
X14332067Y-16838695D01*
X14355334Y-16884359D01*
X14356553Y-16899846D01*
X14356553Y-18786047D01*
X14337646Y-18844238D01*
X14330206Y-18852949D01*
X14329003Y-18854605D01*
X14271408Y-18967639D01*
X14271407Y-18967643D01*
X14251561Y-19092947D01*
X14268799Y-19201787D01*
X14271407Y-19218250D01*
X14271408Y-19218254D01*
X14288914Y-19252611D01*
X14329003Y-19331289D01*
X14329004Y-19331290D01*
X14333584Y-19337594D01*
X14332067Y-19338695D01*
X14355334Y-19384359D01*
X14356553Y-19399846D01*
X14356553Y-21286047D01*
X14337646Y-21344238D01*
X14330206Y-21352949D01*
X14329003Y-21354605D01*
X14271408Y-21467639D01*
X14271407Y-21467643D01*
X14251561Y-21592946D01*
X14251561Y-21592947D01*
X14271407Y-21718250D01*
X14271408Y-21718254D01*
X14300734Y-21775808D01*
X14329003Y-21831289D01*
X14329004Y-21831290D01*
X14333584Y-21837594D01*
X14332067Y-21838695D01*
X14355334Y-21884359D01*
X14356553Y-21899846D01*
X14356553Y-23786047D01*
X14337646Y-23844238D01*
X14330206Y-23852949D01*
X14329003Y-23854605D01*
X14271408Y-23967639D01*
X14271407Y-23967643D01*
X14251561Y-24092946D01*
X14251561Y-24092947D01*
X14271407Y-24218250D01*
X14271408Y-24218254D01*
X14300734Y-24275808D01*
X14329003Y-24331289D01*
X14329004Y-24331290D01*
X14333584Y-24337594D01*
X14332067Y-24338695D01*
X14355334Y-24384359D01*
X14356553Y-24399846D01*
X14356553Y-26286047D01*
X14337646Y-26344238D01*
X14330203Y-26352952D01*
X14329002Y-26354605D01*
X14271407Y-26467641D01*
X14271407Y-26467643D01*
X14251561Y-26592946D01*
X14251561Y-26592947D01*
X14271407Y-26718250D01*
X14271408Y-26718254D01*
X14300734Y-26775808D01*
X14329003Y-26831289D01*
X14329004Y-26831290D01*
X14333584Y-26837594D01*
X14332067Y-26838695D01*
X14355334Y-26884359D01*
X14356553Y-26899846D01*
X14356553Y-28786047D01*
X14337646Y-28844238D01*
X14330203Y-28852952D01*
X14329002Y-28854605D01*
X14271407Y-28967641D01*
X14271407Y-28967643D01*
X14251561Y-29092946D01*
X14251561Y-29092947D01*
X12562545Y-29092947D01*
X12542699Y-28967643D01*
X12485103Y-28854605D01*
X12485099Y-28854601D01*
X12480522Y-28848300D01*
X12482036Y-28847199D01*
X12458770Y-28801522D01*
X12457553Y-28786047D01*
X12457553Y-26899846D01*
X12476460Y-26841655D01*
X12483903Y-26832939D01*
X12485096Y-26831295D01*
X12485103Y-26831289D01*
X12542699Y-26718251D01*
X12562545Y-26592947D01*
X12542699Y-26467643D01*
X12485103Y-26354605D01*
X12485099Y-26354601D01*
X12480522Y-26348300D01*
X12482036Y-26347199D01*
X12458770Y-26301522D01*
X12457553Y-26286047D01*
X12457553Y-24399845D01*
X12476460Y-24341654D01*
X12483900Y-24332944D01*
X12485102Y-24331290D01*
X12485104Y-24331288D01*
X12542699Y-24218251D01*
X12562545Y-24092947D01*
X12542699Y-23967643D01*
X12485103Y-23854605D01*
X12485099Y-23854601D01*
X12480522Y-23848300D01*
X12482036Y-23847199D01*
X12458770Y-23801522D01*
X12457553Y-23786047D01*
X12457553Y-21899845D01*
X12476460Y-21841654D01*
X12483900Y-21832944D01*
X12485102Y-21831290D01*
X12485104Y-21831288D01*
X12542699Y-21718251D01*
X12562545Y-21592947D01*
X12542699Y-21467643D01*
X12485103Y-21354605D01*
X12485099Y-21354601D01*
X12480522Y-21348300D01*
X12482036Y-21347199D01*
X12458770Y-21301522D01*
X12457553Y-21286047D01*
X12457553Y-19399846D01*
X12476460Y-19341655D01*
X12483903Y-19332939D01*
X12485096Y-19331295D01*
X12485103Y-19331289D01*
X12542699Y-19218251D01*
X12562545Y-19092947D01*
X12542699Y-18967643D01*
X12485103Y-18854605D01*
X12485099Y-18854601D01*
X12480522Y-18848300D01*
X12482036Y-18847199D01*
X12458770Y-18801522D01*
X12457553Y-18786047D01*
X12457553Y-16899846D01*
X12476460Y-16841655D01*
X12483903Y-16832939D01*
X12485096Y-16831295D01*
X12485103Y-16831289D01*
X12542699Y-16718251D01*
X12562545Y-16592947D01*
X12542699Y-16467643D01*
X12485103Y-16354605D01*
X12485099Y-16354601D01*
X12480522Y-16348300D01*
X12482036Y-16347199D01*
X12458770Y-16301522D01*
X12457553Y-16286047D01*
X12457553Y-14399846D01*
X12476460Y-14341655D01*
X12483903Y-14332939D01*
X12485096Y-14331295D01*
X12485103Y-14331289D01*
X12542699Y-14218251D01*
X12562545Y-14092947D01*
X12542699Y-13967643D01*
X12485103Y-13854605D01*
X12485099Y-13854601D01*
X12480522Y-13848300D01*
X12482036Y-13847199D01*
X12458770Y-13801522D01*
X12457553Y-13786047D01*
X12457553Y-11899845D01*
X12476460Y-11841654D01*
X12483900Y-11832944D01*
X12485102Y-11831290D01*
X12485104Y-11831288D01*
X12542699Y-11718251D01*
X12562545Y-11592947D01*
X12542699Y-11467643D01*
X12485103Y-11354605D01*
X12485099Y-11354601D01*
X12480522Y-11348300D01*
X12482036Y-11347199D01*
X12458770Y-11301522D01*
X12457553Y-11286047D01*
X12457553Y-9399846D01*
X12476460Y-9341655D01*
X12483903Y-9332939D01*
X12485096Y-9331295D01*
X12485103Y-9331289D01*
X12542699Y-9218251D01*
X12562545Y-9092947D01*
X12542699Y-8967643D01*
X12485103Y-8854605D01*
X12485099Y-8854601D01*
X12480522Y-8848300D01*
X12482036Y-8847199D01*
X12458770Y-8801522D01*
X12457553Y-8786047D01*
X12457553Y-6899846D01*
X12476460Y-6841655D01*
X12483903Y-6832939D01*
X12485096Y-6831295D01*
X12485103Y-6831289D01*
X12542699Y-6718251D01*
X12562545Y-6592947D01*
X12542699Y-6467643D01*
X12485103Y-6354605D01*
X12395395Y-6264897D01*
X12391459Y-6262891D01*
X12282360Y-6207302D01*
X12282357Y-6207301D01*
X12157053Y-6187455D01*
X12031749Y-6207301D01*
X12031745Y-6207302D01*
X11918712Y-6264896D01*
X11829002Y-6354606D01*
X11771408Y-6467639D01*
X11771407Y-6467643D01*
X11751561Y-6592947D01*
X11756589Y-6624696D01*
X11771407Y-6718250D01*
X11771407Y-6718252D01*
X11829002Y-6831288D01*
X11833581Y-6837590D01*
X11832065Y-6838691D01*
X11855333Y-6884358D01*
X11856552Y-6899845D01*
X11856552Y-8786048D01*
X11837645Y-8844239D01*
X11830204Y-8852950D01*
X11829002Y-8854605D01*
X11771407Y-8967641D01*
X11771407Y-8967643D01*
X11751561Y-9092947D01*
X11770152Y-9210330D01*
X11771407Y-9218250D01*
X11771407Y-9218252D01*
X11829002Y-9331288D01*
X11833581Y-9337590D01*
X11832065Y-9338691D01*
X11855333Y-9384358D01*
X11856552Y-9399845D01*
X11856552Y-11286048D01*
X11837645Y-11344239D01*
X11830204Y-11352950D01*
X11829002Y-11354605D01*
X11771407Y-11467641D01*
X11771407Y-11467643D01*
X11751561Y-11592946D01*
X11751561Y-11592947D01*
X11771407Y-11718250D01*
X11771408Y-11718254D01*
X11800734Y-11775808D01*
X11829003Y-11831289D01*
X11829004Y-11831290D01*
X11833584Y-11837594D01*
X11832067Y-11838695D01*
X11855333Y-11884358D01*
X11856552Y-11899845D01*
X11856552Y-13786048D01*
X11837645Y-13844239D01*
X11830204Y-13852950D01*
X11829002Y-13854605D01*
X11771407Y-13967641D01*
X11771407Y-13967643D01*
X11751561Y-14092946D01*
X11751561Y-14092947D01*
X11771407Y-14218250D01*
X11771407Y-14218252D01*
X11829002Y-14331288D01*
X11833581Y-14337590D01*
X11832065Y-14338691D01*
X11855333Y-14384358D01*
X11856552Y-14399845D01*
X11856552Y-16286048D01*
X11837645Y-16344239D01*
X11830204Y-16352950D01*
X11829002Y-16354605D01*
X11771407Y-16467641D01*
X11771407Y-16467643D01*
X11751561Y-16592946D01*
X11751561Y-16592947D01*
X11771407Y-16718250D01*
X11771408Y-16718254D01*
X11795931Y-16766382D01*
X11829003Y-16831289D01*
X11829004Y-16831290D01*
X11833584Y-16837594D01*
X11832067Y-16838695D01*
X11855333Y-16884358D01*
X11856552Y-16899845D01*
X11856552Y-18786048D01*
X11837645Y-18844239D01*
X11830204Y-18852950D01*
X11829002Y-18854605D01*
X11771407Y-18967641D01*
X11771407Y-18967643D01*
X11751561Y-19092947D01*
X11768799Y-19201787D01*
X11771407Y-19218250D01*
X11771407Y-19218252D01*
X11829002Y-19331288D01*
X11833581Y-19337590D01*
X11832065Y-19338691D01*
X11855333Y-19384358D01*
X11856552Y-19399845D01*
X11856552Y-21286048D01*
X11837645Y-21344239D01*
X11830204Y-21352950D01*
X11829002Y-21354605D01*
X11771407Y-21467641D01*
X11771407Y-21467643D01*
X11751561Y-21592946D01*
X11751561Y-21592947D01*
X11771407Y-21718250D01*
X11771408Y-21718254D01*
X11800734Y-21775808D01*
X11829003Y-21831289D01*
X11829004Y-21831290D01*
X11833584Y-21837594D01*
X11832067Y-21838695D01*
X11855333Y-21884358D01*
X11856552Y-21899845D01*
X11856552Y-23786048D01*
X11837645Y-23844239D01*
X11830204Y-23852950D01*
X11829002Y-23854605D01*
X11771407Y-23967641D01*
X11771407Y-23967643D01*
X11751561Y-24092946D01*
X11751561Y-24092947D01*
X11771407Y-24218250D01*
X11771408Y-24218254D01*
X11800734Y-24275808D01*
X11829003Y-24331289D01*
X11829004Y-24331290D01*
X11833584Y-24337594D01*
X11832067Y-24338695D01*
X11855333Y-24384358D01*
X11856552Y-24399845D01*
X11856552Y-26286048D01*
X11837645Y-26344239D01*
X11830204Y-26352950D01*
X11829002Y-26354605D01*
X11771407Y-26467641D01*
X11771407Y-26467643D01*
X11751561Y-26592946D01*
X11751561Y-26592947D01*
X11771407Y-26718250D01*
X11771407Y-26718252D01*
X11829002Y-26831288D01*
X11833581Y-26837590D01*
X11832065Y-26838691D01*
X11855333Y-26884358D01*
X11856552Y-26899845D01*
X11856552Y-28786048D01*
X11837645Y-28844239D01*
X11830204Y-28852950D01*
X11829002Y-28854605D01*
X11771407Y-28967641D01*
X11771407Y-28967643D01*
X11751561Y-29092946D01*
X11751561Y-29092947D01*
X10062545Y-29092947D01*
X10042699Y-28967643D01*
X9985103Y-28854605D01*
X9985099Y-28854601D01*
X9980522Y-28848300D01*
X9982036Y-28847199D01*
X9958770Y-28801522D01*
X9957553Y-28786047D01*
X9957553Y-26899846D01*
X9976460Y-26841655D01*
X9983903Y-26832939D01*
X9985096Y-26831295D01*
X9985103Y-26831289D01*
X10042699Y-26718251D01*
X10062545Y-26592947D01*
X10042699Y-26467643D01*
X9985103Y-26354605D01*
X9985099Y-26354601D01*
X9980522Y-26348300D01*
X9982036Y-26347199D01*
X9958770Y-26301522D01*
X9957553Y-26286047D01*
X9957553Y-24399845D01*
X9976460Y-24341654D01*
X9983900Y-24332944D01*
X9985102Y-24331290D01*
X9985104Y-24331288D01*
X10042699Y-24218251D01*
X10062545Y-24092947D01*
X10042699Y-23967643D01*
X9985103Y-23854605D01*
X9985099Y-23854601D01*
X9980522Y-23848300D01*
X9982036Y-23847199D01*
X9958770Y-23801522D01*
X9957553Y-23786047D01*
X9957553Y-21899845D01*
X9976460Y-21841654D01*
X9983900Y-21832944D01*
X9985102Y-21831290D01*
X9985104Y-21831288D01*
X10042699Y-21718251D01*
X10062545Y-21592947D01*
X10042699Y-21467643D01*
X9985103Y-21354605D01*
X9985099Y-21354601D01*
X9980522Y-21348300D01*
X9982036Y-21347199D01*
X9958770Y-21301522D01*
X9957553Y-21286047D01*
X9957553Y-19399845D01*
X9976460Y-19341654D01*
X9983900Y-19332944D01*
X9985102Y-19331290D01*
X9985104Y-19331288D01*
X10042699Y-19218251D01*
X10062545Y-19092947D01*
X10042699Y-18967643D01*
X9985103Y-18854605D01*
X9985099Y-18854601D01*
X9980522Y-18848300D01*
X9982036Y-18847199D01*
X9958770Y-18801522D01*
X9957553Y-18786047D01*
X9957553Y-16899845D01*
X9976460Y-16841654D01*
X9983900Y-16832944D01*
X9985102Y-16831290D01*
X9985104Y-16831288D01*
X10042699Y-16718251D01*
X10062545Y-16592947D01*
X10042699Y-16467643D01*
X9985103Y-16354605D01*
X9985099Y-16354601D01*
X9980522Y-16348300D01*
X9982036Y-16347199D01*
X9958770Y-16301522D01*
X9957553Y-16286047D01*
X9957553Y-14399845D01*
X9976460Y-14341654D01*
X9983900Y-14332944D01*
X9985102Y-14331290D01*
X9985104Y-14331288D01*
X10042699Y-14218251D01*
X10062545Y-14092947D01*
X10042699Y-13967643D01*
X9985103Y-13854605D01*
X9985099Y-13854601D01*
X9980522Y-13848300D01*
X9982036Y-13847199D01*
X9958770Y-13801522D01*
X9957553Y-13786047D01*
X9957553Y-11899845D01*
X9976460Y-11841654D01*
X9983900Y-11832944D01*
X9985102Y-11831290D01*
X9985104Y-11831288D01*
X10042699Y-11718251D01*
X10062545Y-11592947D01*
X10042699Y-11467643D01*
X9985103Y-11354605D01*
X9985099Y-11354601D01*
X9980522Y-11348300D01*
X9982036Y-11347199D01*
X9958770Y-11301522D01*
X9957553Y-11286047D01*
X9957553Y-9399845D01*
X9976460Y-9341654D01*
X9983900Y-9332944D01*
X9985102Y-9331290D01*
X9985104Y-9331288D01*
X10042699Y-9218251D01*
X10053847Y-9147861D01*
X10081620Y-9093349D01*
X11166405Y-8008564D01*
X11177664Y-8000493D01*
X11176905Y-7999487D01*
X11184221Y-7993961D01*
X11184228Y-7993958D01*
X11216632Y-7958411D01*
X11218186Y-7956783D01*
X11232174Y-7942797D01*
X11234181Y-7939865D01*
X11238440Y-7934490D01*
X11259916Y-7910933D01*
X11263464Y-7901771D01*
X11274111Y-7881576D01*
X11279657Y-7873481D01*
X11286957Y-7842440D01*
X11288981Y-7835904D01*
X11300500Y-7806173D01*
X11300500Y-7796348D01*
X11303130Y-7773679D01*
X11303256Y-7773144D01*
X11305379Y-7764119D01*
X11300973Y-7732533D01*
X11300499Y-7725714D01*
X11300499Y-7056898D01*
X11319406Y-6998708D01*
X11326848Y-6989996D01*
X11328049Y-6988343D01*
X11328051Y-6988341D01*
X11385646Y-6875304D01*
X11405492Y-6750000D01*
X11385646Y-6624696D01*
X11328050Y-6511658D01*
X11238342Y-6421950D01*
X11234406Y-6419944D01*
X11125307Y-6364355D01*
X11125304Y-6364354D01*
X11000000Y-6344508D01*
X10874696Y-6364354D01*
X10874692Y-6364355D01*
X10761659Y-6421949D01*
X10671949Y-6511659D01*
X10614355Y-6624692D01*
X10614354Y-6624696D01*
X10594508Y-6750000D01*
X10609024Y-6841654D01*
X10614354Y-6875303D01*
X10614355Y-6875307D01*
X10626858Y-6899845D01*
X10671950Y-6988342D01*
X10671951Y-6988343D01*
X10676531Y-6994647D01*
X10675014Y-6995748D01*
X10698281Y-7041412D01*
X10699500Y-7056899D01*
X10699500Y-7584520D01*
X10680593Y-7642711D01*
X10670504Y-7654524D01*
X9656652Y-8668375D01*
X9602136Y-8696152D01*
X9531747Y-8707301D01*
X9418712Y-8764896D01*
X9329002Y-8854606D01*
X9271408Y-8967639D01*
X9271407Y-8967643D01*
X9251561Y-9092947D01*
X9270152Y-9210330D01*
X9271407Y-9218250D01*
X9271408Y-9218254D01*
X9296817Y-9268121D01*
X9329003Y-9331289D01*
X9329004Y-9331290D01*
X9333584Y-9337594D01*
X9332067Y-9338695D01*
X9355334Y-9384359D01*
X9356553Y-9399846D01*
X9356553Y-11286047D01*
X9337646Y-11344238D01*
X9330203Y-11352952D01*
X9329002Y-11354605D01*
X9271407Y-11467641D01*
X9271407Y-11467643D01*
X9251561Y-11592946D01*
X9251561Y-11592947D01*
X9271407Y-11718250D01*
X9271408Y-11718254D01*
X9300734Y-11775808D01*
X9329003Y-11831289D01*
X9329004Y-11831290D01*
X9333584Y-11837594D01*
X9332067Y-11838695D01*
X9355334Y-11884359D01*
X9356553Y-11899846D01*
X9356553Y-13786047D01*
X9337646Y-13844238D01*
X9330203Y-13852952D01*
X9329002Y-13854605D01*
X9271407Y-13967641D01*
X9271407Y-13967643D01*
X9251561Y-14092946D01*
X9251561Y-14092947D01*
X9271407Y-14218250D01*
X9271408Y-14218254D01*
X9300734Y-14275808D01*
X9329003Y-14331289D01*
X9329004Y-14331290D01*
X9333584Y-14337594D01*
X9332067Y-14338695D01*
X9355334Y-14384359D01*
X9356553Y-14399846D01*
X9356553Y-16286047D01*
X9337646Y-16344238D01*
X9330203Y-16352952D01*
X9329002Y-16354605D01*
X9271407Y-16467641D01*
X9271407Y-16467643D01*
X9251561Y-16592946D01*
X9251561Y-16592947D01*
X9271407Y-16718250D01*
X9271408Y-16718254D01*
X9295931Y-16766382D01*
X9329003Y-16831289D01*
X9329004Y-16831290D01*
X9333584Y-16837594D01*
X9332067Y-16838695D01*
X9355334Y-16884359D01*
X9356553Y-16899846D01*
X9356553Y-18786047D01*
X9337646Y-18844238D01*
X9330203Y-18852952D01*
X9329002Y-18854605D01*
X9271407Y-18967641D01*
X9271407Y-18967643D01*
X9251561Y-19092947D01*
X9268799Y-19201787D01*
X9271407Y-19218250D01*
X9271408Y-19218254D01*
X9288914Y-19252611D01*
X9329003Y-19331289D01*
X9329004Y-19331290D01*
X9333584Y-19337594D01*
X9332067Y-19338695D01*
X9355334Y-19384359D01*
X9356553Y-19399846D01*
X9356553Y-21286047D01*
X9337646Y-21344238D01*
X9330203Y-21352952D01*
X9329002Y-21354605D01*
X9271407Y-21467641D01*
X9271407Y-21467643D01*
X9251561Y-21592946D01*
X9251561Y-21592947D01*
X9271407Y-21718250D01*
X9271408Y-21718254D01*
X9300734Y-21775808D01*
X9329003Y-21831289D01*
X9329004Y-21831290D01*
X9333584Y-21837594D01*
X9332067Y-21838695D01*
X9355334Y-21884359D01*
X9356553Y-21899846D01*
X9356553Y-23786047D01*
X9337646Y-23844238D01*
X9330203Y-23852952D01*
X9329002Y-23854605D01*
X9271407Y-23967641D01*
X9271407Y-23967643D01*
X9251561Y-24092946D01*
X9251561Y-24092947D01*
X9271407Y-24218250D01*
X9271408Y-24218254D01*
X9300734Y-24275808D01*
X9329003Y-24331289D01*
X9329004Y-24331290D01*
X9333584Y-24337594D01*
X9332067Y-24338695D01*
X9355334Y-24384359D01*
X9356553Y-24399846D01*
X9356553Y-26286047D01*
X9337646Y-26344238D01*
X9330203Y-26352952D01*
X9329002Y-26354605D01*
X9271407Y-26467641D01*
X9271407Y-26467643D01*
X9251561Y-26592946D01*
X9251561Y-26592947D01*
X9271407Y-26718250D01*
X9271408Y-26718254D01*
X9300734Y-26775808D01*
X9329003Y-26831289D01*
X9329004Y-26831290D01*
X9333584Y-26837594D01*
X9332067Y-26838695D01*
X9355334Y-26884359D01*
X9356553Y-26899846D01*
X9356553Y-28786047D01*
X9337646Y-28844238D01*
X9330203Y-28852952D01*
X9329002Y-28854605D01*
X9271407Y-28967641D01*
X9271407Y-28967643D01*
X9251561Y-29092946D01*
X9251561Y-29092947D01*
X7562545Y-29092947D01*
X7542699Y-28967643D01*
X7485103Y-28854605D01*
X7485099Y-28854601D01*
X7480522Y-28848300D01*
X7482036Y-28847199D01*
X7458770Y-28801522D01*
X7457553Y-28786047D01*
X7457553Y-26899846D01*
X7476460Y-26841655D01*
X7483903Y-26832939D01*
X7485096Y-26831295D01*
X7485103Y-26831289D01*
X7542699Y-26718251D01*
X7562545Y-26592947D01*
X7542699Y-26467643D01*
X7485103Y-26354605D01*
X7485099Y-26354601D01*
X7480522Y-26348300D01*
X7482036Y-26347199D01*
X7458770Y-26301522D01*
X7457553Y-26286047D01*
X7457553Y-24399846D01*
X7476460Y-24341655D01*
X7483903Y-24332939D01*
X7485096Y-24331295D01*
X7485103Y-24331289D01*
X7542699Y-24218251D01*
X7562545Y-24092947D01*
X7542699Y-23967643D01*
X7485103Y-23854605D01*
X7485099Y-23854601D01*
X7480522Y-23848300D01*
X7482036Y-23847199D01*
X7458770Y-23801522D01*
X7457553Y-23786047D01*
X7457553Y-21899845D01*
X7476460Y-21841654D01*
X7483900Y-21832944D01*
X7485102Y-21831290D01*
X7485104Y-21831288D01*
X7542699Y-21718251D01*
X7562545Y-21592947D01*
X7542699Y-21467643D01*
X7485103Y-21354605D01*
X7485099Y-21354601D01*
X7480522Y-21348300D01*
X7482036Y-21347199D01*
X7458770Y-21301522D01*
X7457553Y-21286047D01*
X7457553Y-19399845D01*
X7476460Y-19341654D01*
X7483900Y-19332944D01*
X7485102Y-19331290D01*
X7485104Y-19331288D01*
X7542699Y-19218251D01*
X7562545Y-19092947D01*
X7542699Y-18967643D01*
X7485103Y-18854605D01*
X7485099Y-18854601D01*
X7480522Y-18848300D01*
X7482036Y-18847199D01*
X7458770Y-18801522D01*
X7457553Y-18786047D01*
X7457553Y-16899845D01*
X7476460Y-16841654D01*
X7483900Y-16832944D01*
X7485102Y-16831290D01*
X7485104Y-16831288D01*
X7542699Y-16718251D01*
X7562545Y-16592947D01*
X7542699Y-16467643D01*
X7485103Y-16354605D01*
X7485099Y-16354601D01*
X7480522Y-16348300D01*
X7482036Y-16347199D01*
X7458770Y-16301522D01*
X7457553Y-16286047D01*
X7457553Y-14399846D01*
X7476460Y-14341655D01*
X7483903Y-14332939D01*
X7485096Y-14331295D01*
X7485103Y-14331289D01*
X7542699Y-14218251D01*
X7562545Y-14092947D01*
X7542699Y-13967643D01*
X7485103Y-13854605D01*
X7485099Y-13854601D01*
X7480522Y-13848300D01*
X7482036Y-13847199D01*
X7458770Y-13801522D01*
X7457553Y-13786047D01*
X7457553Y-11899846D01*
X7476460Y-11841655D01*
X7483903Y-11832939D01*
X7485096Y-11831295D01*
X7485103Y-11831289D01*
X7542699Y-11718251D01*
X7562545Y-11592947D01*
X7542699Y-11467643D01*
X7485103Y-11354605D01*
X7395395Y-11264897D01*
X7391459Y-11262891D01*
X7282360Y-11207302D01*
X7282357Y-11207301D01*
X7157053Y-11187455D01*
X7031749Y-11207301D01*
X7031745Y-11207302D01*
X6918712Y-11264896D01*
X6829002Y-11354606D01*
X6771408Y-11467639D01*
X6771407Y-11467643D01*
X6751561Y-11592946D01*
X6751561Y-11592947D01*
X6771407Y-11718250D01*
X6771408Y-11718254D01*
X6800734Y-11775808D01*
X6829003Y-11831289D01*
X6829004Y-11831290D01*
X6833584Y-11837594D01*
X6832067Y-11838695D01*
X6855334Y-11884359D01*
X6856553Y-11899846D01*
X6856553Y-13786047D01*
X6837646Y-13844238D01*
X6830206Y-13852949D01*
X6829003Y-13854605D01*
X6771408Y-13967639D01*
X6771407Y-13967643D01*
X6751561Y-14092946D01*
X6751561Y-14092947D01*
X6771407Y-14218250D01*
X6771408Y-14218254D01*
X6800734Y-14275808D01*
X6829003Y-14331289D01*
X6829004Y-14331290D01*
X6833584Y-14337594D01*
X6832067Y-14338695D01*
X6855334Y-14384359D01*
X6856553Y-14399846D01*
X6856553Y-16286047D01*
X6837646Y-16344238D01*
X6830206Y-16352949D01*
X6829003Y-16354605D01*
X6771408Y-16467639D01*
X6771407Y-16467643D01*
X6751561Y-16592946D01*
X6751561Y-16592947D01*
X6771407Y-16718250D01*
X6771408Y-16718254D01*
X6795931Y-16766382D01*
X6829003Y-16831289D01*
X6829004Y-16831290D01*
X6833584Y-16837594D01*
X6832067Y-16838695D01*
X6855334Y-16884359D01*
X6856553Y-16899846D01*
X6856553Y-18786047D01*
X6837646Y-18844238D01*
X6830206Y-18852949D01*
X6829003Y-18854605D01*
X6771408Y-18967639D01*
X6771407Y-18967643D01*
X6751561Y-19092947D01*
X6768799Y-19201787D01*
X6771407Y-19218250D01*
X6771408Y-19218254D01*
X6788914Y-19252611D01*
X6829003Y-19331289D01*
X6829004Y-19331290D01*
X6833584Y-19337594D01*
X6832067Y-19338695D01*
X6855334Y-19384359D01*
X6856553Y-19399846D01*
X6856553Y-21286047D01*
X6837646Y-21344238D01*
X6830203Y-21352952D01*
X6829002Y-21354605D01*
X6771407Y-21467641D01*
X6771407Y-21467643D01*
X6751561Y-21592946D01*
X6751561Y-21592947D01*
X6771407Y-21718250D01*
X6771408Y-21718254D01*
X6800734Y-21775808D01*
X6829003Y-21831289D01*
X6829004Y-21831290D01*
X6833584Y-21837594D01*
X6832067Y-21838695D01*
X6855334Y-21884359D01*
X6856553Y-21899846D01*
X6856553Y-23786047D01*
X6837646Y-23844238D01*
X6830203Y-23852952D01*
X6829002Y-23854605D01*
X6771407Y-23967641D01*
X6771407Y-23967643D01*
X6751561Y-24092946D01*
X6751561Y-24092947D01*
X6771407Y-24218250D01*
X6771408Y-24218254D01*
X6800734Y-24275808D01*
X6829003Y-24331289D01*
X6829004Y-24331290D01*
X6833584Y-24337594D01*
X6832067Y-24338695D01*
X6855334Y-24384359D01*
X6856553Y-24399846D01*
X6856553Y-26286047D01*
X6837646Y-26344238D01*
X6830206Y-26352949D01*
X6829003Y-26354605D01*
X6771408Y-26467639D01*
X6771407Y-26467643D01*
X6751561Y-26592946D01*
X6751561Y-26592947D01*
X6771407Y-26718250D01*
X6771408Y-26718254D01*
X6800734Y-26775808D01*
X6829003Y-26831289D01*
X6829004Y-26831290D01*
X6833584Y-26837594D01*
X6832067Y-26838695D01*
X6855334Y-26884359D01*
X6856553Y-26899846D01*
X6856553Y-28786047D01*
X6837646Y-28844238D01*
X6830206Y-28852949D01*
X6829003Y-28854605D01*
X6771408Y-28967639D01*
X6771407Y-28967643D01*
X6751561Y-29092946D01*
X6751561Y-29092947D01*
X5062545Y-29092947D01*
X5042699Y-28967643D01*
X4985103Y-28854605D01*
X4985099Y-28854601D01*
X4980522Y-28848300D01*
X4982036Y-28847199D01*
X4958770Y-28801522D01*
X4957553Y-28786047D01*
X4957553Y-26899846D01*
X4976460Y-26841655D01*
X4983903Y-26832939D01*
X4985096Y-26831295D01*
X4985103Y-26831289D01*
X5042699Y-26718251D01*
X5062545Y-26592947D01*
X5042699Y-26467643D01*
X4985103Y-26354605D01*
X4985099Y-26354601D01*
X4980522Y-26348300D01*
X4982036Y-26347199D01*
X4958770Y-26301522D01*
X4957553Y-26286047D01*
X4957553Y-24399845D01*
X4976460Y-24341654D01*
X4983900Y-24332944D01*
X4985102Y-24331290D01*
X4985104Y-24331288D01*
X5042699Y-24218251D01*
X5062545Y-24092947D01*
X5042699Y-23967643D01*
X4999285Y-23882440D01*
X4989714Y-23822009D01*
X5017491Y-23767492D01*
X5072007Y-23739714D01*
X5132438Y-23749284D01*
X5217643Y-23792699D01*
X5325813Y-23809831D01*
X5342946Y-23812545D01*
X5342946Y-23812544D01*
X5342947Y-23812545D01*
X5468251Y-23792699D01*
X5581289Y-23735103D01*
X5670997Y-23645395D01*
X5728593Y-23532357D01*
X5748439Y-23407053D01*
X5728593Y-23281749D01*
X5670997Y-23168711D01*
X5581289Y-23079003D01*
X5577353Y-23076997D01*
X5468254Y-23021408D01*
X5468251Y-23021407D01*
X5342947Y-23001561D01*
X5217643Y-23021407D01*
X5217639Y-23021408D01*
X5104606Y-23079002D01*
X5014896Y-23168712D01*
X4957302Y-23281745D01*
X4957301Y-23281749D01*
X4937455Y-23407053D01*
X4950329Y-23488340D01*
X4957301Y-23532356D01*
X4957301Y-23532358D01*
X5000714Y-23617559D01*
X5010285Y-23677991D01*
X4982508Y-23732507D01*
X4927991Y-23760285D01*
X4867559Y-23750714D01*
X4864756Y-23749286D01*
X4782357Y-23707301D01*
X4657053Y-23687455D01*
X4531749Y-23707301D01*
X4531745Y-23707302D01*
X4418712Y-23764896D01*
X4329002Y-23854606D01*
X4271408Y-23967639D01*
X4271407Y-23967643D01*
X4251561Y-24092946D01*
X4251561Y-24092947D01*
X4271407Y-24218250D01*
X4271408Y-24218254D01*
X4300734Y-24275808D01*
X4329003Y-24331289D01*
X4329004Y-24331290D01*
X4333584Y-24337594D01*
X4332067Y-24338695D01*
X4355334Y-24384359D01*
X4356553Y-24399846D01*
X4356553Y-26286047D01*
X4337646Y-26344238D01*
X4330206Y-26352949D01*
X4329003Y-26354605D01*
X4271408Y-26467639D01*
X4271407Y-26467643D01*
X4251561Y-26592946D01*
X4251561Y-26592947D01*
X4271407Y-26718250D01*
X4271408Y-26718254D01*
X4300734Y-26775808D01*
X4329003Y-26831289D01*
X4329004Y-26831290D01*
X4333584Y-26837594D01*
X4332067Y-26838695D01*
X4355334Y-26884359D01*
X4356553Y-26899846D01*
X4356553Y-28786047D01*
X4337646Y-28844238D01*
X4330206Y-28852949D01*
X4329003Y-28854605D01*
X4271408Y-28967639D01*
X4271407Y-28967643D01*
X4251561Y-29092946D01*
X4251561Y-29092947D01*
X200500Y-29092947D01*
X200500Y-20907053D01*
X4937455Y-20907053D01*
X4957301Y-21032356D01*
X4957302Y-21032360D01*
X5012891Y-21141459D01*
X5014897Y-21145395D01*
X5104605Y-21235103D01*
X5217643Y-21292699D01*
X5342947Y-21312545D01*
X5468251Y-21292699D01*
X5581289Y-21235103D01*
X5670997Y-21145395D01*
X5728593Y-21032357D01*
X5748439Y-20907053D01*
X5728593Y-20781749D01*
X5670997Y-20668711D01*
X5581289Y-20579003D01*
X5577353Y-20576997D01*
X5468254Y-20521408D01*
X5468251Y-20521407D01*
X5342947Y-20501561D01*
X5217643Y-20521407D01*
X5217639Y-20521408D01*
X5104606Y-20579002D01*
X5014896Y-20668712D01*
X4957302Y-20781745D01*
X4957301Y-20781749D01*
X4937455Y-20907052D01*
X4937455Y-20907053D01*
X200500Y-20907053D01*
X200500Y-18407053D01*
X4937455Y-18407053D01*
X4957301Y-18532356D01*
X4957302Y-18532360D01*
X4991610Y-18599692D01*
X5014897Y-18645395D01*
X5104605Y-18735103D01*
X5217643Y-18792699D01*
X5325813Y-18809831D01*
X5342946Y-18812545D01*
X5342946Y-18812544D01*
X5342947Y-18812545D01*
X5468251Y-18792699D01*
X5581289Y-18735103D01*
X5670997Y-18645395D01*
X5728593Y-18532357D01*
X5748439Y-18407053D01*
X5728593Y-18281749D01*
X5670997Y-18168711D01*
X5581289Y-18079003D01*
X5577353Y-18076997D01*
X5468254Y-18021408D01*
X5468251Y-18021407D01*
X5342947Y-18001561D01*
X5217643Y-18021407D01*
X5217639Y-18021408D01*
X5104606Y-18079002D01*
X5014896Y-18168712D01*
X4957302Y-18281745D01*
X4957301Y-18281749D01*
X4937455Y-18407052D01*
X4937455Y-18407053D01*
X200500Y-18407053D01*
X200500Y-17216086D01*
X219407Y-17157895D01*
X268907Y-17121931D01*
X330093Y-17121931D01*
X379593Y-17157895D01*
X387705Y-17171133D01*
X421950Y-17238342D01*
X511658Y-17328050D01*
X624696Y-17385646D01*
X732866Y-17402778D01*
X749999Y-17405492D01*
X749999Y-17405491D01*
X750000Y-17405492D01*
X875304Y-17385646D01*
X988342Y-17328050D01*
X1054998Y-17261393D01*
X1109513Y-17233618D01*
X1169945Y-17243189D01*
X1195000Y-17261392D01*
X1261658Y-17328050D01*
X1374696Y-17385646D01*
X1500000Y-17405492D01*
X1625304Y-17385646D01*
X1738342Y-17328050D01*
X1804998Y-17261393D01*
X1859513Y-17233618D01*
X1919945Y-17243189D01*
X1945000Y-17261392D01*
X2011658Y-17328050D01*
X2124696Y-17385646D01*
X2250000Y-17405492D01*
X2375304Y-17385646D01*
X2488342Y-17328050D01*
X2578050Y-17238342D01*
X2635646Y-17125304D01*
X2655492Y-17000000D01*
X2635646Y-16874696D01*
X2578050Y-16761658D01*
X2488342Y-16671950D01*
X2466153Y-16660644D01*
X2375307Y-16614355D01*
X2375304Y-16614354D01*
X2250000Y-16594508D01*
X2124696Y-16614354D01*
X2124692Y-16614355D01*
X2011659Y-16671949D01*
X2011658Y-16671949D01*
X2011658Y-16671950D01*
X1945001Y-16738606D01*
X1890487Y-16766382D01*
X1830055Y-16756811D01*
X1804999Y-16738607D01*
X1738342Y-16671950D01*
X1716153Y-16660644D01*
X1625307Y-16614355D01*
X1625304Y-16614354D01*
X1500000Y-16594508D01*
X1374696Y-16614354D01*
X1374692Y-16614355D01*
X1261659Y-16671949D01*
X1261658Y-16671949D01*
X1261658Y-16671950D01*
X1195001Y-16738606D01*
X1140487Y-16766382D01*
X1080055Y-16756811D01*
X1054999Y-16738607D01*
X988342Y-16671950D01*
X966153Y-16660644D01*
X875307Y-16614355D01*
X875304Y-16614354D01*
X750000Y-16594508D01*
X624696Y-16614354D01*
X624692Y-16614355D01*
X511659Y-16671949D01*
X421949Y-16761659D01*
X387709Y-16828859D01*
X344444Y-16872123D01*
X284012Y-16881694D01*
X229496Y-16853916D01*
X201719Y-16799399D01*
X200500Y-16783913D01*
X200500Y-15907053D01*
X4937455Y-15907053D01*
X4957301Y-16032356D01*
X4957302Y-16032360D01*
X5012891Y-16141459D01*
X5014897Y-16145395D01*
X5104605Y-16235103D01*
X5217643Y-16292699D01*
X5342947Y-16312545D01*
X5468251Y-16292699D01*
X5581289Y-16235103D01*
X5670997Y-16145395D01*
X5728593Y-16032357D01*
X5748439Y-15907053D01*
X5728593Y-15781749D01*
X5670997Y-15668711D01*
X5581289Y-15579003D01*
X5577353Y-15576997D01*
X5468254Y-15521408D01*
X5468251Y-15521407D01*
X5342947Y-15501561D01*
X5217643Y-15521407D01*
X5217639Y-15521408D01*
X5104606Y-15579002D01*
X5014896Y-15668712D01*
X4957302Y-15781745D01*
X4957301Y-15781749D01*
X4937455Y-15907052D01*
X4937455Y-15907053D01*
X200500Y-15907053D01*
X200500Y-13407053D01*
X4937455Y-13407053D01*
X4957301Y-13532356D01*
X4957302Y-13532360D01*
X5012891Y-13641459D01*
X5014897Y-13645395D01*
X5104605Y-13735103D01*
X5217643Y-13792699D01*
X5342947Y-13812545D01*
X5468251Y-13792699D01*
X5581289Y-13735103D01*
X5670997Y-13645395D01*
X5728593Y-13532357D01*
X5748439Y-13407053D01*
X5728593Y-13281749D01*
X5670997Y-13168711D01*
X5581289Y-13079003D01*
X5577353Y-13076997D01*
X5468254Y-13021408D01*
X5468251Y-13021407D01*
X5342947Y-13001561D01*
X5217643Y-13021407D01*
X5217639Y-13021408D01*
X5104606Y-13079002D01*
X5014896Y-13168712D01*
X4957302Y-13281745D01*
X4957301Y-13281749D01*
X4937455Y-13407052D01*
X4937455Y-13407053D01*
X200500Y-13407053D01*
X200500Y-10907053D01*
X4937455Y-10907053D01*
X4953108Y-11005886D01*
X4957301Y-11032356D01*
X4957302Y-11032360D01*
X5008834Y-11133495D01*
X5014897Y-11145395D01*
X5104605Y-11235103D01*
X5217643Y-11292699D01*
X5325813Y-11309831D01*
X5342946Y-11312545D01*
X5342946Y-11312544D01*
X5342947Y-11312545D01*
X5468251Y-11292699D01*
X5581289Y-11235103D01*
X5670997Y-11145395D01*
X5728593Y-11032357D01*
X5748439Y-10907053D01*
X5728593Y-10781749D01*
X5670997Y-10668711D01*
X5581289Y-10579003D01*
X5577353Y-10576997D01*
X5468254Y-10521408D01*
X5468251Y-10521407D01*
X5342947Y-10501561D01*
X5217643Y-10521407D01*
X5217639Y-10521408D01*
X5104606Y-10579002D01*
X5014896Y-10668712D01*
X4957302Y-10781745D01*
X4957301Y-10781749D01*
X4940651Y-10886877D01*
X4937455Y-10907053D01*
X200500Y-10907053D01*
X200500Y-10216086D01*
X219407Y-10157895D01*
X268907Y-10121931D01*
X330093Y-10121931D01*
X379593Y-10157895D01*
X387705Y-10171133D01*
X421950Y-10238342D01*
X511658Y-10328050D01*
X624696Y-10385646D01*
X732866Y-10402778D01*
X749999Y-10405492D01*
X749999Y-10405491D01*
X750000Y-10405492D01*
X875304Y-10385646D01*
X988342Y-10328050D01*
X1066392Y-10250000D01*
X1344508Y-10250000D01*
X1364354Y-10375303D01*
X1364355Y-10375307D01*
X1419944Y-10484406D01*
X1421950Y-10488342D01*
X1511658Y-10578050D01*
X1624696Y-10635646D01*
X1750000Y-10655492D01*
X1875304Y-10635646D01*
X1988342Y-10578050D01*
X2078050Y-10488342D01*
X2135646Y-10375304D01*
X2155492Y-10250000D01*
X2155287Y-10248708D01*
X2152778Y-10232866D01*
X2135646Y-10124696D01*
X2078050Y-10011658D01*
X1988342Y-9921950D01*
X1909336Y-9881694D01*
X1875307Y-9864355D01*
X1875304Y-9864354D01*
X1750000Y-9844508D01*
X1624696Y-9864354D01*
X1624692Y-9864355D01*
X1511659Y-9921949D01*
X1421949Y-10011659D01*
X1364355Y-10124692D01*
X1364354Y-10124696D01*
X1344508Y-10249999D01*
X1344508Y-10250000D01*
X1066392Y-10250000D01*
X1078050Y-10238342D01*
X1135646Y-10125304D01*
X1155492Y-10000000D01*
X1155287Y-9998708D01*
X1143130Y-9921950D01*
X1135646Y-9874696D01*
X1078050Y-9761658D01*
X988342Y-9671950D01*
X948743Y-9651773D01*
X875307Y-9614355D01*
X875304Y-9614354D01*
X750000Y-9594508D01*
X624696Y-9614354D01*
X624692Y-9614355D01*
X511659Y-9671949D01*
X421949Y-9761659D01*
X387709Y-9828859D01*
X344444Y-9872123D01*
X284012Y-9881694D01*
X229496Y-9853916D01*
X201719Y-9799399D01*
X200500Y-9783913D01*
X200500Y-9000000D01*
X5344508Y-9000000D01*
X5364354Y-9125303D01*
X5364355Y-9125307D01*
X5411713Y-9218251D01*
X5421950Y-9238342D01*
X5511658Y-9328050D01*
X5624696Y-9385646D01*
X5750000Y-9405492D01*
X5803981Y-9396942D01*
X5864413Y-9406513D01*
X5907677Y-9449777D01*
X5917249Y-9510210D01*
X5907678Y-9539668D01*
X5864354Y-9624694D01*
X5864354Y-9624696D01*
X5845437Y-9744137D01*
X5844508Y-9750000D01*
X5859476Y-9844508D01*
X5864354Y-9875303D01*
X5864355Y-9875307D01*
X5888121Y-9921949D01*
X5921950Y-9988342D01*
X6011658Y-10078050D01*
X6124696Y-10135646D01*
X6232866Y-10152778D01*
X6249999Y-10155492D01*
X6249999Y-10155491D01*
X6250000Y-10155492D01*
X6375304Y-10135646D01*
X6488342Y-10078050D01*
X6578050Y-9988342D01*
X6635646Y-9875304D01*
X6655492Y-9750000D01*
X6654563Y-9744137D01*
X6648773Y-9707577D01*
X6635646Y-9624696D01*
X6578050Y-9511658D01*
X6488342Y-9421950D01*
X6484406Y-9419944D01*
X6375307Y-9364355D01*
X6375304Y-9364354D01*
X6250000Y-9344508D01*
X6249998Y-9344508D01*
X6196017Y-9353057D01*
X6135585Y-9343485D01*
X6092321Y-9300220D01*
X6082750Y-9239788D01*
X6092320Y-9210334D01*
X6135646Y-9125304D01*
X6155492Y-9000000D01*
X6135646Y-8874696D01*
X6078050Y-8761658D01*
X5988342Y-8671950D01*
X5945754Y-8650250D01*
X5875307Y-8614355D01*
X5875304Y-8614354D01*
X5750000Y-8594508D01*
X5624696Y-8614354D01*
X5624692Y-8614355D01*
X5511659Y-8671949D01*
X5421949Y-8761659D01*
X5364355Y-8874692D01*
X5364354Y-8874696D01*
X5344508Y-8999999D01*
X5344508Y-9000000D01*
X200500Y-9000000D01*
X200500Y-8708441D01*
X219407Y-8650250D01*
X268907Y-8614286D01*
X330093Y-8614286D01*
X344443Y-8620231D01*
X374696Y-8635646D01*
X500000Y-8655492D01*
X625304Y-8635646D01*
X738342Y-8578050D01*
X828050Y-8488342D01*
X885646Y-8375304D01*
X905492Y-8250000D01*
X885646Y-8124696D01*
X828050Y-8011658D01*
X738342Y-7921950D01*
X688969Y-7896793D01*
X625307Y-7864355D01*
X625304Y-7864354D01*
X500000Y-7844508D01*
X374696Y-7864354D01*
X374689Y-7864356D01*
X344445Y-7879767D01*
X284013Y-7889339D01*
X229497Y-7861562D01*
X201719Y-7807045D01*
X200500Y-7791558D01*
X200500Y-5250000D01*
X5344508Y-5250000D01*
X5364354Y-5375303D01*
X5364355Y-5375307D01*
X5419944Y-5484406D01*
X5421950Y-5488342D01*
X5511658Y-5578050D01*
X5624696Y-5635646D01*
X5750000Y-5655492D01*
X5875304Y-5635646D01*
X5988342Y-5578050D01*
X6078050Y-5488342D01*
X6135646Y-5375304D01*
X6155492Y-5250000D01*
X6135646Y-5124696D01*
X6078050Y-5011658D01*
X6011393Y-4945001D01*
X5983618Y-4890487D01*
X5993189Y-4830055D01*
X6011392Y-4804999D01*
X6066392Y-4750000D01*
X22594508Y-4750000D01*
X22614354Y-4875303D01*
X22614355Y-4875307D01*
X22622090Y-4890487D01*
X22671950Y-4988342D01*
X22761658Y-5078050D01*
X22874696Y-5135646D01*
X23000000Y-5155492D01*
X23125304Y-5135646D01*
X23238342Y-5078050D01*
X23238348Y-5078043D01*
X23244647Y-5073469D01*
X23245748Y-5074985D01*
X23291412Y-5051719D01*
X23306899Y-5050500D01*
X26084521Y-5050500D01*
X26142712Y-5069407D01*
X26154525Y-5079496D01*
X28825428Y-7750399D01*
X28853205Y-7804915D01*
X28864354Y-7875305D01*
X28882508Y-7910933D01*
X28921950Y-7988342D01*
X28921952Y-7988344D01*
X28926531Y-7994647D01*
X28925014Y-7995748D01*
X28948281Y-8041412D01*
X28949500Y-8056899D01*
X28949500Y-9268121D01*
X28930593Y-9326312D01*
X28881093Y-9362276D01*
X28881092Y-9362276D01*
X28874693Y-9364354D01*
X28761659Y-9421949D01*
X28671949Y-9511659D01*
X28614355Y-9624692D01*
X28614354Y-9624696D01*
X28595437Y-9744137D01*
X28594508Y-9750000D01*
X28609476Y-9844508D01*
X28614354Y-9875303D01*
X28614355Y-9875307D01*
X28638121Y-9921949D01*
X28671950Y-9988342D01*
X28671952Y-9988344D01*
X28676531Y-9994647D01*
X28675014Y-9995748D01*
X28698281Y-10041412D01*
X28699500Y-10056899D01*
X28699500Y-10870729D01*
X28697280Y-10884407D01*
X28698494Y-10884577D01*
X28697226Y-10893660D01*
X28699447Y-10941677D01*
X28699500Y-10943963D01*
X28699500Y-10963736D01*
X28700152Y-10967226D01*
X28700943Y-10974043D01*
X28702414Y-11005881D01*
X28702415Y-11005888D01*
X28706384Y-11014876D01*
X28713133Y-11036667D01*
X28714939Y-11046327D01*
X28731717Y-11073427D01*
X28734915Y-11079494D01*
X28747793Y-11108657D01*
X28747794Y-11108659D01*
X28754745Y-11115610D01*
X28768907Y-11133490D01*
X28774081Y-11141845D01*
X28774081Y-11141846D01*
X28799511Y-11161050D01*
X28804690Y-11165556D01*
X29232481Y-11593346D01*
X29260258Y-11647862D01*
X29271407Y-11718252D01*
X29300204Y-11774770D01*
X29329003Y-11831289D01*
X29329004Y-11831290D01*
X29333584Y-11837594D01*
X29332067Y-11838695D01*
X29355334Y-11884359D01*
X29356553Y-11899846D01*
X29356553Y-13786047D01*
X29337646Y-13844238D01*
X29330206Y-13852949D01*
X29329003Y-13854605D01*
X29271408Y-13967639D01*
X29271407Y-13967643D01*
X29251561Y-14092946D01*
X29251561Y-14092947D01*
X29271407Y-14218250D01*
X29271407Y-14218252D01*
X29329003Y-14331290D01*
X29333582Y-14337591D01*
X29332064Y-14338693D01*
X29355332Y-14384346D01*
X29356553Y-14399845D01*
X29356553Y-16286047D01*
X29337646Y-16344238D01*
X29330203Y-16352952D01*
X29329002Y-16354605D01*
X29271407Y-16467641D01*
X29271407Y-16467643D01*
X29251561Y-16592946D01*
X29251561Y-16592947D01*
X29271407Y-16718250D01*
X29271408Y-16718254D01*
X29295931Y-16766382D01*
X29329003Y-16831289D01*
X29329004Y-16831290D01*
X29333584Y-16837594D01*
X29332067Y-16838695D01*
X29355334Y-16884359D01*
X29356553Y-16899846D01*
X29356553Y-18786047D01*
X29337646Y-18844238D01*
X29330206Y-18852949D01*
X29329003Y-18854605D01*
X29271408Y-18967639D01*
X29271407Y-18967643D01*
X29251561Y-19092947D01*
X29268799Y-19201787D01*
X29271407Y-19218250D01*
X29271408Y-19218254D01*
X29288914Y-19252611D01*
X29329003Y-19331289D01*
X29329004Y-19331290D01*
X29333584Y-19337594D01*
X29332067Y-19338695D01*
X29355334Y-19384359D01*
X29356553Y-19399846D01*
X29356553Y-21286047D01*
X29337646Y-21344238D01*
X29330206Y-21352949D01*
X29329003Y-21354605D01*
X29271408Y-21467639D01*
X29271407Y-21467643D01*
X29251561Y-21592946D01*
X29251561Y-21592947D01*
X29271407Y-21718250D01*
X29271408Y-21718254D01*
X29300734Y-21775808D01*
X29329003Y-21831289D01*
X29329004Y-21831290D01*
X29333584Y-21837594D01*
X29332067Y-21838695D01*
X29355334Y-21884359D01*
X29356553Y-21899846D01*
X29356553Y-23786047D01*
X29337646Y-23844238D01*
X29330206Y-23852949D01*
X29329003Y-23854605D01*
X29271408Y-23967639D01*
X29271407Y-23967643D01*
X29251561Y-24092946D01*
X29251561Y-24092947D01*
X29271407Y-24218250D01*
X29271408Y-24218254D01*
X29300734Y-24275808D01*
X29329003Y-24331289D01*
X29329004Y-24331290D01*
X29333584Y-24337594D01*
X29332067Y-24338695D01*
X29355334Y-24384359D01*
X29356553Y-24399846D01*
X29356553Y-26286047D01*
X29337646Y-26344238D01*
X29330206Y-26352949D01*
X29329003Y-26354605D01*
X29271408Y-26467639D01*
X29271407Y-26467643D01*
X29251561Y-26592946D01*
X29251561Y-26592947D01*
X29271407Y-26718250D01*
X29271408Y-26718254D01*
X29300734Y-26775808D01*
X29329003Y-26831289D01*
X29329004Y-26831290D01*
X29333584Y-26837594D01*
X29332067Y-26838695D01*
X29355334Y-26884359D01*
X29356553Y-26899846D01*
X29356553Y-28786047D01*
X29337646Y-28844238D01*
X29330206Y-28852949D01*
X29329003Y-28854605D01*
X29271408Y-28967639D01*
X29271407Y-28967643D01*
X29251561Y-29092946D01*
X29251561Y-29092947D01*
X29271407Y-29218250D01*
X29271408Y-29218254D01*
X29326997Y-29327353D01*
X29329003Y-29331289D01*
X29418711Y-29420997D01*
X29531749Y-29478593D01*
X29639919Y-29495725D01*
X29657052Y-29498439D01*
X29657052Y-29498438D01*
X29657053Y-29498439D01*
X29782357Y-29478593D01*
X29895395Y-29420997D01*
X29985103Y-29331289D01*
X30042699Y-29218251D01*
X30062545Y-29092947D01*
X30042699Y-28967643D01*
X29985103Y-28854605D01*
X29985099Y-28854601D01*
X29980522Y-28848300D01*
X29982036Y-28847199D01*
X29958770Y-28801522D01*
X29957553Y-28786047D01*
X29957553Y-26899845D01*
X29976460Y-26841654D01*
X29983900Y-26832944D01*
X29985102Y-26831290D01*
X29985104Y-26831288D01*
X30042699Y-26718251D01*
X30062545Y-26592947D01*
X30042699Y-26467643D01*
X29985103Y-26354605D01*
X29985099Y-26354601D01*
X29980522Y-26348300D01*
X29982036Y-26347199D01*
X29958770Y-26301522D01*
X29957553Y-26286047D01*
X29957553Y-25750000D01*
X30844508Y-25750000D01*
X30864354Y-25875303D01*
X30864355Y-25875307D01*
X30919944Y-25984406D01*
X30921950Y-25988342D01*
X31011658Y-26078050D01*
X31124696Y-26135646D01*
X31232866Y-26152778D01*
X31249999Y-26155492D01*
X31249999Y-26155491D01*
X31250000Y-26155492D01*
X31375304Y-26135646D01*
X31488342Y-26078050D01*
X31578050Y-25988342D01*
X31635646Y-25875304D01*
X31655492Y-25750000D01*
X32594508Y-25750000D01*
X32614354Y-25875303D01*
X32614355Y-25875307D01*
X32669944Y-25984406D01*
X32671950Y-25988342D01*
X32761658Y-26078050D01*
X32874696Y-26135646D01*
X32982866Y-26152778D01*
X32999999Y-26155492D01*
X32999999Y-26155491D01*
X33000000Y-26155492D01*
X33125304Y-26135646D01*
X33238342Y-26078050D01*
X33328050Y-25988342D01*
X33385646Y-25875304D01*
X33405492Y-25750000D01*
X33385646Y-25624696D01*
X33328050Y-25511658D01*
X33238342Y-25421950D01*
X33234406Y-25419944D01*
X33125307Y-25364355D01*
X33125304Y-25364354D01*
X33000000Y-25344508D01*
X32874696Y-25364354D01*
X32874692Y-25364355D01*
X32761659Y-25421949D01*
X32671949Y-25511659D01*
X32614355Y-25624692D01*
X32614354Y-25624696D01*
X32594508Y-25749999D01*
X32594508Y-25750000D01*
X31655492Y-25750000D01*
X31635646Y-25624696D01*
X31578050Y-25511658D01*
X31488342Y-25421950D01*
X31484406Y-25419944D01*
X31375307Y-25364355D01*
X31375304Y-25364354D01*
X31250000Y-25344508D01*
X31124696Y-25364354D01*
X31124692Y-25364355D01*
X31011659Y-25421949D01*
X30921949Y-25511659D01*
X30864355Y-25624692D01*
X30864354Y-25624696D01*
X30844508Y-25749999D01*
X30844508Y-25750000D01*
X29957553Y-25750000D01*
X29957553Y-24500000D01*
X31744508Y-24500000D01*
X31764354Y-24625303D01*
X31764355Y-24625307D01*
X31819944Y-24734406D01*
X31821950Y-24738342D01*
X31911658Y-24828050D01*
X32024696Y-24885646D01*
X32132866Y-24902778D01*
X32149999Y-24905492D01*
X32149999Y-24905491D01*
X32150000Y-24905492D01*
X32275304Y-24885646D01*
X32388342Y-24828050D01*
X32478050Y-24738342D01*
X32535646Y-24625304D01*
X32555492Y-24500000D01*
X32535646Y-24374696D01*
X32478050Y-24261658D01*
X32388342Y-24171950D01*
X32384406Y-24169944D01*
X32275307Y-24114355D01*
X32275304Y-24114354D01*
X32150000Y-24094508D01*
X32024696Y-24114354D01*
X32024692Y-24114355D01*
X31911659Y-24171949D01*
X31821949Y-24261659D01*
X31764355Y-24374692D01*
X31764354Y-24374696D01*
X31744508Y-24499999D01*
X31744508Y-24500000D01*
X29957553Y-24500000D01*
X29957553Y-24399845D01*
X29976460Y-24341654D01*
X29983900Y-24332944D01*
X29985102Y-24331290D01*
X29985104Y-24331288D01*
X30042699Y-24218251D01*
X30062545Y-24092947D01*
X30042699Y-23967643D01*
X29985103Y-23854605D01*
X29985099Y-23854601D01*
X29980522Y-23848300D01*
X29982036Y-23847199D01*
X29958770Y-23801522D01*
X29957553Y-23786047D01*
X29957553Y-23250000D01*
X30844508Y-23250000D01*
X30849536Y-23281749D01*
X30864354Y-23375303D01*
X30864355Y-23375307D01*
X30880530Y-23407052D01*
X30921950Y-23488342D01*
X31011658Y-23578050D01*
X31124696Y-23635646D01*
X31232866Y-23652778D01*
X31249999Y-23655492D01*
X31249999Y-23655491D01*
X31250000Y-23655492D01*
X31375304Y-23635646D01*
X31488342Y-23578050D01*
X31578050Y-23488342D01*
X31635646Y-23375304D01*
X31655492Y-23250000D01*
X32594508Y-23250000D01*
X32599536Y-23281749D01*
X32614354Y-23375303D01*
X32614355Y-23375307D01*
X32630530Y-23407052D01*
X32671950Y-23488342D01*
X32761658Y-23578050D01*
X32874696Y-23635646D01*
X33000000Y-23655492D01*
X33125304Y-23635646D01*
X33238342Y-23578050D01*
X33328050Y-23488342D01*
X33385646Y-23375304D01*
X33405492Y-23250000D01*
X33385646Y-23124696D01*
X33328050Y-23011658D01*
X33238342Y-22921950D01*
X33234406Y-22919944D01*
X33125307Y-22864355D01*
X33125304Y-22864354D01*
X33000000Y-22844508D01*
X32874696Y-22864354D01*
X32874692Y-22864355D01*
X32761659Y-22921949D01*
X32671949Y-23011659D01*
X32614355Y-23124692D01*
X32614354Y-23124696D01*
X32594508Y-23250000D01*
X31655492Y-23250000D01*
X31635646Y-23124696D01*
X31578050Y-23011658D01*
X31488342Y-22921950D01*
X31484406Y-22919944D01*
X31375307Y-22864355D01*
X31375304Y-22864354D01*
X31250000Y-22844508D01*
X31124696Y-22864354D01*
X31124692Y-22864355D01*
X31011659Y-22921949D01*
X30921949Y-23011659D01*
X30864355Y-23124692D01*
X30864354Y-23124696D01*
X30844508Y-23250000D01*
X29957553Y-23250000D01*
X29957553Y-21899846D01*
X29976460Y-21841655D01*
X29983903Y-21832939D01*
X29985096Y-21831295D01*
X29985103Y-21831289D01*
X30042699Y-21718251D01*
X30062545Y-21592947D01*
X30042699Y-21467643D01*
X29985103Y-21354605D01*
X29985099Y-21354601D01*
X29980522Y-21348300D01*
X29982036Y-21347199D01*
X29958770Y-21301522D01*
X29957553Y-21286047D01*
X29957553Y-19399846D01*
X29976460Y-19341655D01*
X29983903Y-19332939D01*
X29985096Y-19331295D01*
X29985103Y-19331289D01*
X30042699Y-19218251D01*
X30062545Y-19092947D01*
X30042699Y-18967643D01*
X29985103Y-18854605D01*
X29985099Y-18854601D01*
X29980522Y-18848300D01*
X29982036Y-18847199D01*
X29958770Y-18801522D01*
X29957553Y-18786047D01*
X29957553Y-18725000D01*
X31694508Y-18725000D01*
X31713393Y-18844239D01*
X31714354Y-18850303D01*
X31714355Y-18850307D01*
X31715702Y-18852950D01*
X31771950Y-18963342D01*
X31861658Y-19053050D01*
X31974696Y-19110646D01*
X32100000Y-19130492D01*
X32225304Y-19110646D01*
X32225311Y-19110642D01*
X32232718Y-19108237D01*
X32233475Y-19110569D01*
X32282257Y-19102834D01*
X32336779Y-19130601D01*
X32364567Y-19185112D01*
X32355007Y-19245546D01*
X32347670Y-19257708D01*
X32265586Y-19373995D01*
X32215828Y-19513997D01*
X32205690Y-19662232D01*
X32235917Y-19807698D01*
X32235919Y-19807706D01*
X32271309Y-19876004D01*
X32304276Y-19939626D01*
X32405690Y-20048214D01*
X32532640Y-20125414D01*
X32675710Y-20165500D01*
X32675711Y-20165500D01*
X32786968Y-20165500D01*
X32786974Y-20165500D01*
X32897196Y-20150350D01*
X33033476Y-20091156D01*
X33148731Y-19997389D01*
X33234414Y-19876003D01*
X33284171Y-19736002D01*
X33294310Y-19587768D01*
X33278980Y-19513997D01*
X33264082Y-19442301D01*
X33264080Y-19442293D01*
X33195725Y-19310376D01*
X33195723Y-19310373D01*
X33094311Y-19201787D01*
X33094310Y-19201786D01*
X32967360Y-19124586D01*
X32967359Y-19124585D01*
X32967358Y-19124585D01*
X32824290Y-19084500D01*
X32713026Y-19084500D01*
X32602805Y-19099649D01*
X32602801Y-19099650D01*
X32530656Y-19130987D01*
X32469750Y-19136828D01*
X32417043Y-19105753D01*
X32392667Y-19049633D01*
X32405933Y-18989903D01*
X32421210Y-18970181D01*
X32428050Y-18963342D01*
X32485646Y-18850304D01*
X32505492Y-18725000D01*
X32485646Y-18599696D01*
X32428050Y-18486658D01*
X32338342Y-18396950D01*
X32334406Y-18394944D01*
X32225307Y-18339355D01*
X32225304Y-18339354D01*
X32100000Y-18319508D01*
X31974696Y-18339354D01*
X31974692Y-18339355D01*
X31861659Y-18396949D01*
X31771949Y-18486659D01*
X31714355Y-18599692D01*
X31714354Y-18599696D01*
X31694508Y-18725000D01*
X29957553Y-18725000D01*
X29957553Y-16899846D01*
X29976460Y-16841655D01*
X29983903Y-16832939D01*
X29985096Y-16831295D01*
X29985103Y-16831289D01*
X30042699Y-16718251D01*
X30062545Y-16592947D01*
X30042699Y-16467643D01*
X29985103Y-16354605D01*
X29985099Y-16354601D01*
X29980522Y-16348300D01*
X29982036Y-16347199D01*
X29958770Y-16301522D01*
X29957553Y-16286047D01*
X29957553Y-16275000D01*
X31694508Y-16275000D01*
X31706117Y-16348300D01*
X31714354Y-16400303D01*
X31714355Y-16400307D01*
X31748663Y-16467639D01*
X31771950Y-16513342D01*
X31861658Y-16603050D01*
X31974696Y-16660646D01*
X32100000Y-16680492D01*
X32225304Y-16660646D01*
X32338342Y-16603050D01*
X32428050Y-16513342D01*
X32485646Y-16400304D01*
X32505492Y-16275000D01*
X32485646Y-16149696D01*
X32428050Y-16036658D01*
X32428046Y-16036654D01*
X32423469Y-16030353D01*
X32425402Y-16028948D01*
X32402886Y-15984755D01*
X32412457Y-15924323D01*
X32455722Y-15881058D01*
X32516154Y-15871487D01*
X32527377Y-15873939D01*
X32532638Y-15875413D01*
X32532640Y-15875414D01*
X32675710Y-15915500D01*
X32675711Y-15915500D01*
X32786968Y-15915500D01*
X32786974Y-15915500D01*
X32897196Y-15900350D01*
X33033476Y-15841156D01*
X33148731Y-15747389D01*
X33234414Y-15626003D01*
X33284171Y-15486002D01*
X33294310Y-15337768D01*
X33278980Y-15263997D01*
X33264082Y-15192301D01*
X33264080Y-15192293D01*
X33195725Y-15060376D01*
X33195723Y-15060373D01*
X33094311Y-14951787D01*
X33094310Y-14951786D01*
X32967360Y-14874586D01*
X32967359Y-14874585D01*
X32967358Y-14874585D01*
X32824290Y-14834500D01*
X32713026Y-14834500D01*
X32602805Y-14849649D01*
X32602801Y-14849650D01*
X32466524Y-14908843D01*
X32466522Y-14908844D01*
X32351268Y-15002610D01*
X32265587Y-15123995D01*
X32215828Y-15263997D01*
X32205690Y-15412232D01*
X32235917Y-15557698D01*
X32235919Y-15557706D01*
X32304274Y-15689623D01*
X32304279Y-15689631D01*
X32347783Y-15736212D01*
X32373683Y-15791645D01*
X32362054Y-15851715D01*
X32317337Y-15893477D01*
X32256613Y-15900979D01*
X32230485Y-15891994D01*
X32225304Y-15889354D01*
X32100000Y-15869508D01*
X31974696Y-15889354D01*
X31974692Y-15889355D01*
X31861659Y-15946949D01*
X31771949Y-16036659D01*
X31714355Y-16149692D01*
X31714354Y-16149696D01*
X31694508Y-16275000D01*
X29957553Y-16275000D01*
X29957553Y-14399845D01*
X29976460Y-14341654D01*
X29983900Y-14332944D01*
X29985102Y-14331290D01*
X29985104Y-14331288D01*
X30042699Y-14218251D01*
X30062545Y-14092947D01*
X30042699Y-13967643D01*
X29985103Y-13854605D01*
X29985099Y-13854601D01*
X29980522Y-13848300D01*
X29982036Y-13847199D01*
X29958770Y-13801522D01*
X29957553Y-13786047D01*
X29957553Y-11899845D01*
X29976460Y-11841654D01*
X29983900Y-11832944D01*
X29985102Y-11831290D01*
X29985104Y-11831288D01*
X30042699Y-11718251D01*
X30062545Y-11592947D01*
X30042699Y-11467643D01*
X29985103Y-11354605D01*
X29895395Y-11264897D01*
X29782357Y-11207301D01*
X29782358Y-11207301D01*
X29711967Y-11196152D01*
X29657452Y-11168375D01*
X29329494Y-10840418D01*
X29301718Y-10785902D01*
X29300499Y-10770415D01*
X29300499Y-10488340D01*
X29300499Y-10056896D01*
X29319406Y-9998708D01*
X29326846Y-9989997D01*
X29328043Y-9988348D01*
X29328050Y-9988342D01*
X29385646Y-9875304D01*
X29396427Y-9807231D01*
X29424202Y-9752717D01*
X29434063Y-9744137D01*
X29434224Y-9743959D01*
X29434228Y-9743958D01*
X29466632Y-9708411D01*
X29468186Y-9706783D01*
X29482174Y-9692797D01*
X29484181Y-9689865D01*
X29488440Y-9684490D01*
X29499873Y-9671949D01*
X29509916Y-9660933D01*
X29513465Y-9651770D01*
X29524106Y-9631582D01*
X29529656Y-9623481D01*
X29536955Y-9592443D01*
X29538977Y-9585914D01*
X29550500Y-9556173D01*
X29550500Y-9546348D01*
X29553129Y-9523683D01*
X29555379Y-9514119D01*
X29550975Y-9482546D01*
X29550500Y-9475699D01*
X29550500Y-8056899D01*
X29568987Y-8000000D01*
X31594508Y-8000000D01*
X31614354Y-8125303D01*
X31614355Y-8125307D01*
X31669944Y-8234406D01*
X31671950Y-8238342D01*
X31761658Y-8328050D01*
X31874696Y-8385646D01*
X32000000Y-8405492D01*
X32125304Y-8385646D01*
X32238342Y-8328050D01*
X32328050Y-8238342D01*
X32385646Y-8125304D01*
X32405492Y-8000000D01*
X32405287Y-7998708D01*
X32398773Y-7957577D01*
X32385646Y-7874696D01*
X32328050Y-7761658D01*
X32238342Y-7671950D01*
X32204142Y-7654524D01*
X32125307Y-7614355D01*
X32125304Y-7614354D01*
X32020664Y-7597780D01*
X32004571Y-7589581D01*
X31979334Y-7597781D01*
X31874696Y-7614354D01*
X31874692Y-7614355D01*
X31761659Y-7671949D01*
X31671949Y-7761659D01*
X31614355Y-7874692D01*
X31614354Y-7874696D01*
X31594508Y-7999999D01*
X31594508Y-8000000D01*
X29568987Y-8000000D01*
X29569407Y-7998708D01*
X29576850Y-7989992D01*
X29578043Y-7988348D01*
X29578050Y-7988342D01*
X29635646Y-7875304D01*
X29655492Y-7750000D01*
X29635646Y-7624696D01*
X29578050Y-7511658D01*
X29488342Y-7421950D01*
X29375304Y-7364354D01*
X29375305Y-7364354D01*
X29304915Y-7353205D01*
X29250399Y-7325428D01*
X28924971Y-7000000D01*
X31594508Y-7000000D01*
X31609476Y-7094508D01*
X31614354Y-7125303D01*
X31614355Y-7125307D01*
X31638121Y-7171949D01*
X31671950Y-7238342D01*
X31761658Y-7328050D01*
X31874696Y-7385646D01*
X31966547Y-7400193D01*
X31979334Y-7402219D01*
X31995427Y-7410418D01*
X32020665Y-7402219D01*
X32125304Y-7385646D01*
X32238342Y-7328050D01*
X32328050Y-7238342D01*
X32385646Y-7125304D01*
X32405492Y-7000000D01*
X32405287Y-6998708D01*
X32389629Y-6899846D01*
X32385646Y-6874696D01*
X32328050Y-6761658D01*
X32238342Y-6671950D01*
X32234406Y-6669944D01*
X32125307Y-6614355D01*
X32125304Y-6614354D01*
X32000000Y-6594508D01*
X31874696Y-6614354D01*
X31874692Y-6614355D01*
X31761659Y-6671949D01*
X31671949Y-6761659D01*
X31614355Y-6874692D01*
X31614354Y-6874696D01*
X31594713Y-6998708D01*
X31594508Y-7000000D01*
X28924971Y-7000000D01*
X26508565Y-4583594D01*
X26500479Y-4572344D01*
X26499487Y-4573094D01*
X26493958Y-4565772D01*
X26458428Y-4533382D01*
X26456775Y-4531804D01*
X26442795Y-4517824D01*
X26439865Y-4515817D01*
X26434491Y-4511560D01*
X26423386Y-4501436D01*
X26393119Y-4448264D01*
X26399887Y-4387454D01*
X26441106Y-4342236D01*
X26445095Y-4340085D01*
X26488342Y-4318050D01*
X26578050Y-4228342D01*
X26635646Y-4115304D01*
X26655492Y-3990000D01*
X26655229Y-3988342D01*
X26652778Y-3972866D01*
X26635646Y-3864696D01*
X26578050Y-3751658D01*
X26488342Y-3661950D01*
X26484406Y-3659944D01*
X26375307Y-3604355D01*
X26375304Y-3604354D01*
X26250000Y-3584508D01*
X26124696Y-3604354D01*
X26124692Y-3604355D01*
X26011659Y-3661949D01*
X25921949Y-3751659D01*
X25864355Y-3864692D01*
X25864354Y-3864696D01*
X25844508Y-3989999D01*
X25844508Y-3990000D01*
X25864354Y-4115303D01*
X25864355Y-4115307D01*
X25919944Y-4224406D01*
X25921950Y-4228342D01*
X25974106Y-4280498D01*
X26001882Y-4335013D01*
X25992311Y-4395445D01*
X25949046Y-4438710D01*
X25904101Y-4449500D01*
X23306899Y-4449500D01*
X23248708Y-4430593D01*
X23239992Y-4423149D01*
X23238344Y-4421952D01*
X23238342Y-4421950D01*
X23147466Y-4375646D01*
X23125307Y-4364355D01*
X23125304Y-4364354D01*
X23000000Y-4344508D01*
X22874696Y-4364354D01*
X22874692Y-4364355D01*
X22761659Y-4421949D01*
X22671949Y-4511659D01*
X22614355Y-4624692D01*
X22614354Y-4624696D01*
X22594508Y-4749999D01*
X22594508Y-4750000D01*
X6066392Y-4750000D01*
X6078050Y-4738342D01*
X6135646Y-4625304D01*
X6155492Y-4500000D01*
X6153921Y-4490084D01*
X6149514Y-4462259D01*
X6135646Y-4374696D01*
X6078050Y-4261658D01*
X5988342Y-4171950D01*
X5917088Y-4135644D01*
X5875307Y-4114355D01*
X5875304Y-4114354D01*
X5750000Y-4094508D01*
X5624696Y-4114354D01*
X5624692Y-4114355D01*
X5511659Y-4171949D01*
X5421949Y-4261659D01*
X5364355Y-4374692D01*
X5364354Y-4374696D01*
X5344508Y-4499999D01*
X5344508Y-4500000D01*
X5364354Y-4625303D01*
X5364355Y-4625307D01*
X5419944Y-4734406D01*
X5421950Y-4738342D01*
X5488606Y-4804998D01*
X5516382Y-4859513D01*
X5506811Y-4919945D01*
X5488607Y-4945000D01*
X5445268Y-4988340D01*
X5421949Y-5011659D01*
X5364355Y-5124692D01*
X5364354Y-5124696D01*
X5344508Y-5249999D01*
X5344508Y-5250000D01*
X200500Y-5250000D01*
X200500Y-3750000D01*
X8094508Y-3750000D01*
X8114354Y-3875303D01*
X8114355Y-3875307D01*
X8169944Y-3984406D01*
X8171950Y-3988342D01*
X8261658Y-4078050D01*
X8374696Y-4135646D01*
X8500000Y-4155492D01*
X8625304Y-4135646D01*
X8738342Y-4078050D01*
X8828050Y-3988342D01*
X8885646Y-3875304D01*
X8905492Y-3750000D01*
X8885646Y-3624696D01*
X8828050Y-3511658D01*
X8738342Y-3421950D01*
X8667088Y-3385644D01*
X8625307Y-3364355D01*
X8625304Y-3364354D01*
X8500000Y-3344508D01*
X8374696Y-3364354D01*
X8374692Y-3364355D01*
X8261659Y-3421949D01*
X8171949Y-3511659D01*
X8114355Y-3624692D01*
X8114354Y-3624696D01*
X8094508Y-3749999D01*
X8094508Y-3750000D01*
X200500Y-3750000D01*
X200500Y-3000000D01*
X1344508Y-3000000D01*
X1364354Y-3125303D01*
X1364355Y-3125307D01*
X1419944Y-3234406D01*
X1421950Y-3238342D01*
X1511658Y-3328050D01*
X1624696Y-3385646D01*
X1750000Y-3405492D01*
X1875304Y-3385646D01*
X1988342Y-3328050D01*
X2078050Y-3238342D01*
X2135646Y-3125304D01*
X2155492Y-3000000D01*
X24834508Y-3000000D01*
X24854354Y-3125303D01*
X24854355Y-3125307D01*
X24909944Y-3234406D01*
X24911950Y-3238342D01*
X25001658Y-3328050D01*
X25114696Y-3385646D01*
X25240000Y-3405492D01*
X25365304Y-3385646D01*
X25478342Y-3328050D01*
X25568050Y-3238342D01*
X25625646Y-3125304D01*
X25645492Y-3000000D01*
X25625646Y-2874696D01*
X25568050Y-2761658D01*
X25478342Y-2671950D01*
X25474406Y-2669944D01*
X25365307Y-2614355D01*
X25365304Y-2614354D01*
X25260664Y-2597780D01*
X25244571Y-2589581D01*
X25219334Y-2597781D01*
X25114696Y-2614354D01*
X25114692Y-2614355D01*
X25001659Y-2671949D01*
X24911949Y-2761659D01*
X24854355Y-2874692D01*
X24854354Y-2874696D01*
X24834508Y-2999999D01*
X24834508Y-3000000D01*
X2155492Y-3000000D01*
X2135646Y-2874696D01*
X2078050Y-2761658D01*
X1988342Y-2671950D01*
X1984406Y-2669944D01*
X1875307Y-2614355D01*
X1875304Y-2614354D01*
X1750000Y-2594508D01*
X1624696Y-2614354D01*
X1624692Y-2614355D01*
X1511659Y-2671949D01*
X1421949Y-2761659D01*
X1364355Y-2874692D01*
X1364354Y-2874696D01*
X1344508Y-2999999D01*
X1344508Y-3000000D01*
X200500Y-3000000D01*
X200500Y-2624057D01*
X219407Y-2565866D01*
X229496Y-2554053D01*
X783549Y-2000000D01*
X24834508Y-2000000D01*
X24854354Y-2125303D01*
X24854355Y-2125307D01*
X24909944Y-2234406D01*
X24911950Y-2238342D01*
X25001658Y-2328050D01*
X25114696Y-2385646D01*
X25206547Y-2400193D01*
X25219334Y-2402219D01*
X25235427Y-2410418D01*
X25260665Y-2402219D01*
X25365304Y-2385646D01*
X25478342Y-2328050D01*
X25568050Y-2238342D01*
X25625646Y-2125304D01*
X25645492Y-2000000D01*
X25625646Y-1874696D01*
X25568050Y-1761658D01*
X25478342Y-1671950D01*
X25474406Y-1669944D01*
X25365307Y-1614355D01*
X25365304Y-1614354D01*
X25240000Y-1594508D01*
X25114696Y-1614354D01*
X25114692Y-1614355D01*
X25001659Y-1671949D01*
X24911949Y-1761659D01*
X24854355Y-1874692D01*
X24854354Y-1874696D01*
X24834508Y-1999999D01*
X24834508Y-2000000D01*
X783549Y-2000000D01*
X2554054Y-229496D01*
X2608571Y-201719D01*
X2624058Y-200500D01*
X32375943Y-200500D01*
X32434134Y-219407D01*
G37*
%TD.AperFunction*%
%TD*%
M02*
