%TF.GenerationSoftware,KiCad,Pcbnew,7.0.8*%
%TF.CreationDate,2023-11-09T10:40:38+10:00*%
%TF.ProjectId,LEDBoard,4c454442-6f61-4726-942e-6b696361645f,rev?*%
%TF.SameCoordinates,Original*%
%TF.FileFunction,Copper,L3,Inr*%
%TF.FilePolarity,Positive*%
%FSLAX46Y46*%
G04 Gerber Fmt 4.6, Leading zero omitted, Abs format (unit mm)*
G04 Created by KiCad (PCBNEW 7.0.8) date 2023-11-09 10:40:38*
%MOMM*%
%LPD*%
G01*
G04 APERTURE LIST*
%TA.AperFunction,ViaPad*%
%ADD10C,0.450000*%
%TD*%
%TA.AperFunction,Conductor*%
%ADD11C,0.200000*%
%TD*%
G04 APERTURE END LIST*
D10*
%TO.N,-BATT*%
X32000000Y-8000000D03*
X5400000Y-30000000D03*
X1750000Y-10250000D03*
X32150000Y-24500000D03*
X750000Y-16750000D03*
X32000000Y-9000000D03*
X33000000Y-23250000D03*
X33000000Y-25750000D03*
X2250000Y-16750000D03*
X8500000Y-3750000D03*
X31250000Y-25750000D03*
X32000000Y-7000000D03*
X6250000Y-29250000D03*
X31250000Y-23250000D03*
X34500000Y-8000000D03*
X4500000Y-30000000D03*
X34500000Y-9000000D03*
X31500000Y-19750000D03*
X26250000Y-4000000D03*
X6250000Y-33500000D03*
X31500000Y-15250000D03*
X1500000Y-16750000D03*
X1750000Y-3000000D03*
X32250000Y-30250000D03*
X34500000Y-7000000D03*
%TO.N,/LED0*%
X25500000Y-4000000D03*
%TO.N,/LED1*%
X31000000Y-3250000D03*
%TO.N,/LED2*%
X23500000Y-30250000D03*
%TO.N,/LED3*%
X27000000Y-30900000D03*
%TO.N,/LED Array/COL0*%
X4000000Y-28000000D03*
X5250000Y-24750000D03*
X5250000Y-27250000D03*
X5750000Y-4500000D03*
%TO.N,/LED Array/ROW0*%
X5750000Y-5250000D03*
%TO.N,/LED Array/COL1*%
X8000000Y-27000000D03*
X8000000Y-14500000D03*
X8000000Y-22000000D03*
X8000000Y-29500000D03*
X6250000Y-9750000D03*
X8000000Y-17000000D03*
X8000000Y-24500000D03*
X8000000Y-19500000D03*
X8000000Y-12000000D03*
%TO.N,/LED Array/COL2*%
X10500000Y-17000000D03*
X10500000Y-24500000D03*
X10250000Y-9750000D03*
X10500000Y-22000000D03*
X10500000Y-27000000D03*
X10500000Y-14500000D03*
X10500000Y-12000000D03*
X10500000Y-29500000D03*
X11000000Y-6750000D03*
X10500000Y-19500000D03*
%TO.N,/LED Array/COL3*%
X13000000Y-27000000D03*
X13000000Y-29500000D03*
X13000000Y-14500000D03*
X13000000Y-12000000D03*
X13000000Y-19500000D03*
X13000000Y-22000000D03*
X13000000Y-17000000D03*
X13000000Y-7250000D03*
X13000000Y-9500000D03*
X13000000Y-24500000D03*
%TO.N,/LED Array/COL4*%
X15500000Y-27000000D03*
X15500000Y-29500000D03*
X15500000Y-19500000D03*
X15500000Y-7000000D03*
X15500000Y-12000000D03*
X15500000Y-24500000D03*
X15500000Y-17000000D03*
X15500000Y-9500000D03*
X15500000Y-22000000D03*
X15500000Y-14500000D03*
%TO.N,/LED Array/COL5*%
X18000000Y-19500000D03*
X18000000Y-29500000D03*
X18000000Y-22000000D03*
X18000000Y-7000000D03*
X18000000Y-24500000D03*
X18000000Y-17000000D03*
X18000000Y-14500000D03*
X18000000Y-12000000D03*
X18000000Y-9500000D03*
X18000000Y-27000000D03*
%TO.N,/LED Array/COL6*%
X20500000Y-27000000D03*
X20500000Y-29500000D03*
X20500000Y-9500000D03*
X20500000Y-7000000D03*
X20500000Y-24500000D03*
X20500000Y-19500000D03*
X20500000Y-14500000D03*
X20500000Y-17000000D03*
X20500000Y-22000000D03*
X20500000Y-12000000D03*
%TO.N,/LED Array/COL7*%
X23000000Y-19500000D03*
X23000000Y-14500000D03*
X23000000Y-24500000D03*
X23000000Y-7000000D03*
X23000000Y-27000000D03*
X23000000Y-9500000D03*
X23000000Y-22000000D03*
X23000000Y-12000000D03*
X23000000Y-29500000D03*
X23000000Y-17000000D03*
%TO.N,/LED Array/COL8*%
X25500000Y-29500000D03*
X25500000Y-12000000D03*
X25500000Y-27000000D03*
X25500000Y-22000000D03*
X25500000Y-17000000D03*
X24250000Y-10000000D03*
X25500000Y-24500000D03*
X24250000Y-7500000D03*
X25500000Y-19500000D03*
X25500000Y-14500000D03*
%TO.N,/LED Array/COL9*%
X28000000Y-17000000D03*
X28000000Y-22000000D03*
X28000000Y-24500000D03*
X28000000Y-27000000D03*
X28000000Y-14500000D03*
X28000000Y-19500000D03*
X28000000Y-29500000D03*
X25500000Y-7250000D03*
X26750000Y-10000000D03*
X28000000Y-12000000D03*
%TO.N,/LED Array/COL10*%
X29657053Y-25000000D03*
X29657053Y-12500000D03*
X23000000Y-4750000D03*
X29657053Y-15000000D03*
X30500000Y-29500000D03*
X29657053Y-22500000D03*
X29657053Y-27500000D03*
X29250000Y-7750000D03*
X29657053Y-17500000D03*
X29657053Y-20000000D03*
X29250000Y-10000000D03*
%TO.N,/LED Array/ROW1*%
X5750000Y-9000000D03*
%TO.N,/LED Array/ROW2*%
X6000000Y-11500000D03*
%TO.N,/LED Array/ROW3*%
X6000000Y-14000000D03*
%TO.N,/LED Array/ROW4*%
X6000000Y-16500000D03*
%TO.N,/LED Array/ROW5*%
X6000000Y-19000000D03*
%TO.N,/LED Array/ROW6*%
X6000000Y-21500000D03*
%TO.N,/LED Array/ROW7*%
X6000000Y-24000000D03*
%TO.N,/LED Array/ROW8*%
X500000Y-8250000D03*
%TO.N,/LED Array/ROW9*%
X750000Y-10000000D03*
%TO.N,+BATT*%
X34500000Y-4000000D03*
X32000000Y-5000000D03*
X32000000Y-6000000D03*
X6250000Y-31250000D03*
X4500000Y-32000000D03*
X34500000Y-5000000D03*
X32250000Y-12500000D03*
X5400000Y-32000000D03*
X34500000Y-6000000D03*
%TD*%
D11*
%TO.N,/LED Array/COL10*%
X29250000Y-12092947D02*
X29250000Y-10000000D01*
X29657053Y-12500000D02*
X29250000Y-12092947D01*
X29657053Y-28657053D02*
X30500000Y-29500000D01*
X29657053Y-12500000D02*
X29657053Y-28657053D01*
%TO.N,/LED Array/COL9*%
X28000000Y-29500000D02*
X28000000Y-12000000D01*
%TO.N,/LED Array/COL10*%
X29250000Y-10000000D02*
X29250000Y-7750000D01*
%TO.N,/LED Array/COL9*%
X28000000Y-12000000D02*
X26750000Y-10750000D01*
X26750000Y-10750000D02*
X26750000Y-10000000D01*
X26750000Y-8500000D02*
X25500000Y-7250000D01*
X26750000Y-10000000D02*
X26750000Y-8500000D01*
%TO.N,/LED Array/COL8*%
X24250000Y-10000000D02*
X24250000Y-7500000D01*
X25500000Y-11250000D02*
X25500000Y-29500000D01*
X24250000Y-10000000D02*
X25500000Y-11250000D01*
%TO.N,/LED Array/COL7*%
X23000000Y-29500000D02*
X23000000Y-7000000D01*
%TO.N,/LED Array/COL6*%
X20500000Y-29500000D02*
X20500000Y-7000000D01*
%TO.N,/LED Array/COL5*%
X18000000Y-7000000D02*
X18000000Y-29500000D01*
%TO.N,/LED Array/COL4*%
X15500000Y-29500000D02*
X15500000Y-7000000D01*
%TO.N,/LED Array/COL1*%
X8000000Y-29500000D02*
X8000000Y-12000000D01*
%TO.N,/LED Array/COL2*%
X10500000Y-10000000D02*
X10250000Y-9750000D01*
X10500000Y-29500000D02*
X10500000Y-10000000D01*
%TO.N,/LED Array/COL3*%
X13000000Y-29500000D02*
X13000000Y-7250000D01*
%TO.N,/LED Array/COL2*%
X10250000Y-9750000D02*
X11000000Y-9000000D01*
X11000000Y-9000000D02*
X11000000Y-6750000D01*
%TO.N,/LED Array/COL0*%
X4500000Y-28000000D02*
X4000000Y-28000000D01*
X5250000Y-27250000D02*
X4500000Y-28000000D01*
X5250000Y-24750000D02*
X5250000Y-27250000D01*
%TO.N,/LED Array/COL10*%
X26250000Y-4750000D02*
X29250000Y-7750000D01*
X23000000Y-4750000D02*
X26250000Y-4750000D01*
%TD*%
%TA.AperFunction,Conductor*%
%TO.N,+BATT*%
G36*
X32434134Y-219407D02*
G01*
X32445947Y-229496D01*
X34770504Y-2554053D01*
X34798281Y-2608570D01*
X34799500Y-2624057D01*
X34799500Y-6513499D01*
X34780593Y-6571690D01*
X34731093Y-6607654D01*
X34669907Y-6607654D01*
X34655556Y-6601709D01*
X34633127Y-6590281D01*
X34500000Y-6569196D01*
X34366872Y-6590281D01*
X34366870Y-6590282D01*
X34246782Y-6651470D01*
X34151470Y-6746782D01*
X34090282Y-6866870D01*
X34090281Y-6866872D01*
X34069196Y-6999999D01*
X34069196Y-7000000D01*
X34090281Y-7133127D01*
X34090282Y-7133129D01*
X34149831Y-7250000D01*
X34151472Y-7253220D01*
X34246780Y-7348528D01*
X34282778Y-7366870D01*
X34370939Y-7411791D01*
X34414203Y-7455056D01*
X34423774Y-7515488D01*
X34395996Y-7570004D01*
X34370939Y-7588209D01*
X34246781Y-7651471D01*
X34151470Y-7746782D01*
X34090282Y-7866870D01*
X34090281Y-7866872D01*
X34069196Y-7999999D01*
X34069196Y-8000000D01*
X34090281Y-8133127D01*
X34090282Y-8133129D01*
X34149831Y-8250000D01*
X34151472Y-8253220D01*
X34246780Y-8348528D01*
X34274137Y-8362467D01*
X34370939Y-8411791D01*
X34414203Y-8455056D01*
X34423774Y-8515488D01*
X34395996Y-8570004D01*
X34370939Y-8588209D01*
X34246781Y-8651471D01*
X34151470Y-8746782D01*
X34090282Y-8866870D01*
X34090281Y-8866872D01*
X34069196Y-8999999D01*
X34069196Y-9000000D01*
X34090281Y-9133127D01*
X34090282Y-9133129D01*
X34151470Y-9253217D01*
X34151472Y-9253220D01*
X34246780Y-9348528D01*
X34366874Y-9409719D01*
X34500000Y-9430804D01*
X34633126Y-9409719D01*
X34655555Y-9398290D01*
X34715985Y-9388719D01*
X34770502Y-9416495D01*
X34798281Y-9471011D01*
X34799500Y-9486500D01*
X34799500Y-32375942D01*
X34780593Y-32434133D01*
X34770504Y-32445946D01*
X32445947Y-34770504D01*
X32391430Y-34798281D01*
X32375943Y-34799500D01*
X18766737Y-34799500D01*
X18708546Y-34780593D01*
X18672582Y-34731093D01*
X18669241Y-34717691D01*
X18664024Y-34688101D01*
X18592179Y-34490709D01*
X18592176Y-34490703D01*
X18592175Y-34490700D01*
X18521339Y-34368011D01*
X18487149Y-34308791D01*
X18486161Y-34307613D01*
X18352131Y-34147884D01*
X18352129Y-34147882D01*
X18352124Y-34147876D01*
X18352117Y-34147870D01*
X18352115Y-34147868D01*
X18191214Y-34012855D01*
X18191212Y-34012853D01*
X18191209Y-34012851D01*
X18175339Y-34003688D01*
X18009299Y-33907824D01*
X18009296Y-33907823D01*
X18009291Y-33907821D01*
X17811899Y-33835976D01*
X17770525Y-33828680D01*
X17605034Y-33799500D01*
X17605030Y-33799500D01*
X17394970Y-33799500D01*
X17394965Y-33799500D01*
X17188101Y-33835976D01*
X16990703Y-33907823D01*
X16990700Y-33907824D01*
X16808792Y-34012850D01*
X16808785Y-34012855D01*
X16647884Y-34147868D01*
X16647868Y-34147884D01*
X16512855Y-34308785D01*
X16512850Y-34308792D01*
X16407824Y-34490700D01*
X16407823Y-34490703D01*
X16335976Y-34688101D01*
X16330759Y-34717691D01*
X16302034Y-34771714D01*
X16247042Y-34798536D01*
X16233263Y-34799500D01*
X2624058Y-34799500D01*
X2565867Y-34780593D01*
X2554054Y-34770504D01*
X1283550Y-33500000D01*
X5819196Y-33500000D01*
X5840281Y-33633127D01*
X5840282Y-33633129D01*
X5901470Y-33753217D01*
X5901472Y-33753220D01*
X5996780Y-33848528D01*
X6116874Y-33909719D01*
X6250000Y-33930804D01*
X6383126Y-33909719D01*
X6503220Y-33848528D01*
X6598528Y-33753220D01*
X6659719Y-33633126D01*
X6680804Y-33500000D01*
X6659719Y-33366874D01*
X6598528Y-33246780D01*
X6503220Y-33151472D01*
X6503217Y-33151470D01*
X6383129Y-33090282D01*
X6383127Y-33090281D01*
X6250000Y-33069196D01*
X6116872Y-33090281D01*
X6116870Y-33090282D01*
X5996782Y-33151470D01*
X5901470Y-33246782D01*
X5840282Y-33366870D01*
X5840281Y-33366872D01*
X5819196Y-33499999D01*
X5819196Y-33500000D01*
X1283550Y-33500000D01*
X229496Y-32445946D01*
X201719Y-32391429D01*
X200500Y-32375942D01*
X200500Y-30900000D01*
X26569196Y-30900000D01*
X26590281Y-31033127D01*
X26590282Y-31033129D01*
X26651470Y-31153217D01*
X26651472Y-31153220D01*
X26746780Y-31248528D01*
X26866874Y-31309719D01*
X27000000Y-31330804D01*
X27133126Y-31309719D01*
X27253220Y-31248528D01*
X27348528Y-31153220D01*
X27409719Y-31033126D01*
X27430804Y-30900000D01*
X27409719Y-30766874D01*
X27348528Y-30646780D01*
X27253220Y-30551472D01*
X27253217Y-30551470D01*
X27133129Y-30490282D01*
X27133127Y-30490281D01*
X27000000Y-30469196D01*
X26866872Y-30490281D01*
X26866870Y-30490282D01*
X26746782Y-30551470D01*
X26651470Y-30646782D01*
X26590282Y-30766870D01*
X26590281Y-30766872D01*
X26569196Y-30899999D01*
X26569196Y-30900000D01*
X200500Y-30900000D01*
X200500Y-30000000D01*
X4069196Y-30000000D01*
X4090281Y-30133127D01*
X4090282Y-30133129D01*
X4149831Y-30250000D01*
X4151472Y-30253220D01*
X4246780Y-30348528D01*
X4366874Y-30409719D01*
X4500000Y-30430804D01*
X4633126Y-30409719D01*
X4753220Y-30348528D01*
X4848528Y-30253220D01*
X4861791Y-30227188D01*
X4905055Y-30183925D01*
X4965487Y-30174354D01*
X5020003Y-30202131D01*
X5038206Y-30227185D01*
X5051472Y-30253220D01*
X5146780Y-30348528D01*
X5266874Y-30409719D01*
X5400000Y-30430804D01*
X5533126Y-30409719D01*
X5653220Y-30348528D01*
X5748528Y-30253220D01*
X5809719Y-30133126D01*
X5830804Y-30000000D01*
X5809719Y-29866874D01*
X5748528Y-29746780D01*
X5653220Y-29651472D01*
X5653217Y-29651470D01*
X5533129Y-29590282D01*
X5533127Y-29590281D01*
X5400000Y-29569196D01*
X5266872Y-29590281D01*
X5266870Y-29590282D01*
X5146782Y-29651470D01*
X5051471Y-29746781D01*
X5038209Y-29772810D01*
X4994944Y-29816074D01*
X4934512Y-29825645D01*
X4879996Y-29797867D01*
X4861791Y-29772810D01*
X4851809Y-29753220D01*
X4848528Y-29746780D01*
X4753220Y-29651472D01*
X4753217Y-29651470D01*
X4633129Y-29590282D01*
X4633127Y-29590281D01*
X4500000Y-29569196D01*
X4366872Y-29590281D01*
X4366870Y-29590282D01*
X4246782Y-29651470D01*
X4151470Y-29746782D01*
X4090282Y-29866870D01*
X4090281Y-29866872D01*
X4069196Y-29999999D01*
X4069196Y-30000000D01*
X200500Y-30000000D01*
X200500Y-29250000D01*
X5819196Y-29250000D01*
X5840281Y-29383127D01*
X5840282Y-29383129D01*
X5899831Y-29500000D01*
X5901472Y-29503220D01*
X5996780Y-29598528D01*
X6116874Y-29659719D01*
X6250000Y-29680804D01*
X6383126Y-29659719D01*
X6503220Y-29598528D01*
X6598528Y-29503220D01*
X6600169Y-29500000D01*
X7569196Y-29500000D01*
X7590281Y-29633127D01*
X7590282Y-29633129D01*
X7651470Y-29753217D01*
X7651472Y-29753220D01*
X7746780Y-29848528D01*
X7866874Y-29909719D01*
X8000000Y-29930804D01*
X8133126Y-29909719D01*
X8253220Y-29848528D01*
X8348528Y-29753220D01*
X8409719Y-29633126D01*
X8430804Y-29500000D01*
X8430006Y-29494964D01*
X8426104Y-29470323D01*
X8409719Y-29366874D01*
X8348528Y-29246780D01*
X8348525Y-29246777D01*
X8329495Y-29227746D01*
X8301719Y-29173229D01*
X8300500Y-29157744D01*
X8300500Y-27342255D01*
X8319407Y-27284064D01*
X8329490Y-27272257D01*
X8348528Y-27253220D01*
X8409719Y-27133126D01*
X8430804Y-27000000D01*
X8409719Y-26866874D01*
X8348528Y-26746780D01*
X8348525Y-26746777D01*
X8329495Y-26727746D01*
X8301719Y-26673229D01*
X8300500Y-26657744D01*
X8300500Y-24842255D01*
X8319407Y-24784064D01*
X8329490Y-24772257D01*
X8348528Y-24753220D01*
X8409719Y-24633126D01*
X8430804Y-24500000D01*
X8409719Y-24366874D01*
X8348528Y-24246780D01*
X8348525Y-24246777D01*
X8329495Y-24227746D01*
X8301719Y-24173229D01*
X8300500Y-24157744D01*
X8300500Y-22342255D01*
X8319407Y-22284064D01*
X8329490Y-22272257D01*
X8348528Y-22253220D01*
X8409719Y-22133126D01*
X8430804Y-22000000D01*
X8409719Y-21866874D01*
X8348528Y-21746780D01*
X8348525Y-21746777D01*
X8329495Y-21727746D01*
X8301719Y-21673229D01*
X8300500Y-21657744D01*
X8300500Y-19842255D01*
X8319407Y-19784064D01*
X8329490Y-19772257D01*
X8348528Y-19753220D01*
X8409719Y-19633126D01*
X8430804Y-19500000D01*
X8409719Y-19366874D01*
X8348528Y-19246780D01*
X8348525Y-19246777D01*
X8329495Y-19227746D01*
X8301719Y-19173229D01*
X8300500Y-19157744D01*
X8300500Y-17342255D01*
X8319407Y-17284064D01*
X8329490Y-17272257D01*
X8348528Y-17253220D01*
X8409719Y-17133126D01*
X8430804Y-17000000D01*
X8409719Y-16866874D01*
X8348528Y-16746780D01*
X8348525Y-16746777D01*
X8329495Y-16727746D01*
X8301719Y-16673229D01*
X8300500Y-16657744D01*
X8300500Y-14842255D01*
X8319407Y-14784064D01*
X8329490Y-14772257D01*
X8348528Y-14753220D01*
X8409719Y-14633126D01*
X8430804Y-14500000D01*
X8409719Y-14366874D01*
X8348528Y-14246780D01*
X8348525Y-14246777D01*
X8329495Y-14227746D01*
X8301719Y-14173229D01*
X8300500Y-14157744D01*
X8300500Y-12342255D01*
X8319407Y-12284064D01*
X8329490Y-12272257D01*
X8348528Y-12253220D01*
X8409719Y-12133126D01*
X8430804Y-12000000D01*
X8430006Y-11994964D01*
X8416505Y-11909719D01*
X8409719Y-11866874D01*
X8348528Y-11746780D01*
X8253220Y-11651472D01*
X8253217Y-11651470D01*
X8133129Y-11590282D01*
X8133127Y-11590281D01*
X8000000Y-11569196D01*
X7866872Y-11590281D01*
X7866870Y-11590282D01*
X7746782Y-11651470D01*
X7651470Y-11746782D01*
X7590282Y-11866870D01*
X7590281Y-11866872D01*
X7569196Y-11999999D01*
X7569196Y-12000000D01*
X7590281Y-12133127D01*
X7590282Y-12133129D01*
X7651470Y-12253217D01*
X7651472Y-12253220D01*
X7670505Y-12272253D01*
X7698281Y-12326768D01*
X7699500Y-12342255D01*
X7699500Y-14157744D01*
X7680593Y-14215935D01*
X7670505Y-14227746D01*
X7651474Y-14246777D01*
X7651470Y-14246782D01*
X7590282Y-14366870D01*
X7590281Y-14366872D01*
X7569196Y-14499999D01*
X7569196Y-14500000D01*
X7590281Y-14633127D01*
X7590282Y-14633129D01*
X7651470Y-14753217D01*
X7651472Y-14753220D01*
X7670505Y-14772253D01*
X7698281Y-14826768D01*
X7699500Y-14842255D01*
X7699500Y-16657744D01*
X7680593Y-16715935D01*
X7670505Y-16727746D01*
X7651474Y-16746777D01*
X7651470Y-16746782D01*
X7590282Y-16866870D01*
X7590281Y-16866872D01*
X7569196Y-16999999D01*
X7569196Y-17000000D01*
X7590281Y-17133127D01*
X7590282Y-17133129D01*
X7651470Y-17253217D01*
X7651472Y-17253220D01*
X7670505Y-17272253D01*
X7698281Y-17326768D01*
X7699500Y-17342255D01*
X7699500Y-19157744D01*
X7680593Y-19215935D01*
X7670505Y-19227746D01*
X7651474Y-19246777D01*
X7651470Y-19246782D01*
X7590282Y-19366870D01*
X7590281Y-19366872D01*
X7569196Y-19499999D01*
X7569196Y-19500000D01*
X7590281Y-19633127D01*
X7590282Y-19633129D01*
X7649831Y-19750000D01*
X7651472Y-19753220D01*
X7670505Y-19772253D01*
X7698281Y-19826768D01*
X7699500Y-19842255D01*
X7699500Y-21657744D01*
X7680593Y-21715935D01*
X7670505Y-21727746D01*
X7651474Y-21746777D01*
X7651470Y-21746782D01*
X7590282Y-21866870D01*
X7590281Y-21866872D01*
X7569196Y-21999999D01*
X7569196Y-22000000D01*
X7590281Y-22133127D01*
X7590282Y-22133129D01*
X7651470Y-22253217D01*
X7651472Y-22253220D01*
X7670505Y-22272253D01*
X7698281Y-22326768D01*
X7699500Y-22342255D01*
X7699500Y-24157744D01*
X7680593Y-24215935D01*
X7670505Y-24227746D01*
X7651474Y-24246777D01*
X7651470Y-24246782D01*
X7590282Y-24366870D01*
X7590281Y-24366872D01*
X7569196Y-24499999D01*
X7569196Y-24500000D01*
X7590281Y-24633127D01*
X7590282Y-24633129D01*
X7649831Y-24750000D01*
X7651472Y-24753220D01*
X7670505Y-24772253D01*
X7698281Y-24826768D01*
X7699500Y-24842255D01*
X7699500Y-26657744D01*
X7680593Y-26715935D01*
X7670505Y-26727746D01*
X7651474Y-26746777D01*
X7651470Y-26746782D01*
X7590282Y-26866870D01*
X7590281Y-26866872D01*
X7569196Y-26999999D01*
X7569196Y-27000000D01*
X7590281Y-27133127D01*
X7590282Y-27133129D01*
X7649831Y-27250000D01*
X7651472Y-27253220D01*
X7670505Y-27272253D01*
X7698281Y-27326768D01*
X7699500Y-27342255D01*
X7699500Y-29157744D01*
X7680593Y-29215935D01*
X7670505Y-29227746D01*
X7651474Y-29246777D01*
X7651470Y-29246782D01*
X7590282Y-29366870D01*
X7590281Y-29366872D01*
X7569196Y-29499999D01*
X7569196Y-29500000D01*
X6600169Y-29500000D01*
X6659719Y-29383126D01*
X6680804Y-29250000D01*
X6659719Y-29116874D01*
X6598528Y-28996780D01*
X6503220Y-28901472D01*
X6503217Y-28901470D01*
X6383129Y-28840282D01*
X6383127Y-28840281D01*
X6250000Y-28819196D01*
X6116872Y-28840281D01*
X6116870Y-28840282D01*
X5996782Y-28901470D01*
X5901470Y-28996782D01*
X5840282Y-29116870D01*
X5840281Y-29116872D01*
X5819196Y-29249999D01*
X5819196Y-29250000D01*
X200500Y-29250000D01*
X200500Y-28000000D01*
X3569196Y-28000000D01*
X3590281Y-28133127D01*
X3590282Y-28133129D01*
X3650955Y-28252206D01*
X3651472Y-28253220D01*
X3746780Y-28348528D01*
X3866874Y-28409719D01*
X4000000Y-28430804D01*
X4133126Y-28409719D01*
X4253220Y-28348528D01*
X4272253Y-28329494D01*
X4326768Y-28301719D01*
X4342255Y-28300500D01*
X4434836Y-28300500D01*
X4448511Y-28302732D01*
X4448683Y-28301506D01*
X4457764Y-28302772D01*
X4457765Y-28302773D01*
X4457765Y-28302772D01*
X4457766Y-28302773D01*
X4466507Y-28302368D01*
X4505793Y-28300552D01*
X4508070Y-28300500D01*
X4527841Y-28300500D01*
X4527844Y-28300500D01*
X4531337Y-28299846D01*
X4538141Y-28299056D01*
X4569992Y-28297585D01*
X4578976Y-28293617D01*
X4600777Y-28286865D01*
X4610433Y-28285061D01*
X4637543Y-28268274D01*
X4643589Y-28265088D01*
X4672765Y-28252206D01*
X4679709Y-28245260D01*
X4697601Y-28231089D01*
X4705952Y-28225919D01*
X4725165Y-28200474D01*
X4729662Y-28195308D01*
X4924971Y-27999999D01*
X5220325Y-27704644D01*
X5274837Y-27676870D01*
X5383126Y-27659719D01*
X5503220Y-27598528D01*
X5598528Y-27503220D01*
X5659719Y-27383126D01*
X5680804Y-27250000D01*
X5659719Y-27116874D01*
X5598528Y-26996780D01*
X5598525Y-26996777D01*
X5579495Y-26977746D01*
X5551719Y-26923229D01*
X5550500Y-26907744D01*
X5550500Y-25092255D01*
X5569407Y-25034064D01*
X5579490Y-25022257D01*
X5598528Y-25003220D01*
X5659719Y-24883126D01*
X5680804Y-24750000D01*
X5659719Y-24616874D01*
X5598528Y-24496780D01*
X5503220Y-24401472D01*
X5503217Y-24401470D01*
X5383129Y-24340282D01*
X5383127Y-24340281D01*
X5250000Y-24319196D01*
X5116872Y-24340281D01*
X5116870Y-24340282D01*
X4996782Y-24401470D01*
X4901470Y-24496782D01*
X4840282Y-24616870D01*
X4840281Y-24616872D01*
X4819196Y-24749999D01*
X4819196Y-24750000D01*
X4840281Y-24883127D01*
X4840282Y-24883129D01*
X4899831Y-25000000D01*
X4901472Y-25003220D01*
X4920505Y-25022253D01*
X4948281Y-25076768D01*
X4949500Y-25092255D01*
X4949500Y-26907744D01*
X4930593Y-26965935D01*
X4920505Y-26977746D01*
X4901474Y-26996777D01*
X4901470Y-26996782D01*
X4840282Y-27116870D01*
X4840281Y-27116872D01*
X4823129Y-27225160D01*
X4795352Y-27279675D01*
X4408392Y-27666636D01*
X4353875Y-27694414D01*
X4293443Y-27684843D01*
X4268387Y-27666639D01*
X4253220Y-27651472D01*
X4253217Y-27651470D01*
X4133129Y-27590282D01*
X4133127Y-27590281D01*
X4000000Y-27569196D01*
X3866872Y-27590281D01*
X3866870Y-27590282D01*
X3746782Y-27651470D01*
X3651470Y-27746782D01*
X3590282Y-27866870D01*
X3590281Y-27866872D01*
X3569196Y-27999999D01*
X3569196Y-28000000D01*
X200500Y-28000000D01*
X200500Y-24000000D01*
X5569196Y-24000000D01*
X5590281Y-24133127D01*
X5590282Y-24133129D01*
X5651470Y-24253217D01*
X5651472Y-24253220D01*
X5746780Y-24348528D01*
X5866874Y-24409719D01*
X6000000Y-24430804D01*
X6133126Y-24409719D01*
X6253220Y-24348528D01*
X6348528Y-24253220D01*
X6409719Y-24133126D01*
X6430804Y-24000000D01*
X6409719Y-23866874D01*
X6348528Y-23746780D01*
X6253220Y-23651472D01*
X6253217Y-23651470D01*
X6133129Y-23590282D01*
X6133127Y-23590281D01*
X6000000Y-23569196D01*
X5866872Y-23590281D01*
X5866870Y-23590282D01*
X5746782Y-23651470D01*
X5651470Y-23746782D01*
X5590282Y-23866870D01*
X5590281Y-23866872D01*
X5569196Y-23999999D01*
X5569196Y-24000000D01*
X200500Y-24000000D01*
X200500Y-21500000D01*
X5569196Y-21500000D01*
X5590281Y-21633127D01*
X5590282Y-21633129D01*
X5651470Y-21753217D01*
X5651472Y-21753220D01*
X5746780Y-21848528D01*
X5866874Y-21909719D01*
X6000000Y-21930804D01*
X6133126Y-21909719D01*
X6253220Y-21848528D01*
X6348528Y-21753220D01*
X6409719Y-21633126D01*
X6430804Y-21500000D01*
X6409719Y-21366874D01*
X6348528Y-21246780D01*
X6253220Y-21151472D01*
X6253217Y-21151470D01*
X6133129Y-21090282D01*
X6133127Y-21090281D01*
X6000000Y-21069196D01*
X5866872Y-21090281D01*
X5866870Y-21090282D01*
X5746782Y-21151470D01*
X5651470Y-21246782D01*
X5590282Y-21366870D01*
X5590281Y-21366872D01*
X5569196Y-21499999D01*
X5569196Y-21500000D01*
X200500Y-21500000D01*
X200500Y-19000000D01*
X5569196Y-19000000D01*
X5590281Y-19133127D01*
X5590282Y-19133129D01*
X5651470Y-19253217D01*
X5651472Y-19253220D01*
X5746780Y-19348528D01*
X5866874Y-19409719D01*
X6000000Y-19430804D01*
X6133126Y-19409719D01*
X6253220Y-19348528D01*
X6348528Y-19253220D01*
X6409719Y-19133126D01*
X6430804Y-19000000D01*
X6409719Y-18866874D01*
X6348528Y-18746780D01*
X6253220Y-18651472D01*
X6253217Y-18651470D01*
X6133129Y-18590282D01*
X6133127Y-18590281D01*
X6000000Y-18569196D01*
X5866872Y-18590281D01*
X5866870Y-18590282D01*
X5746782Y-18651470D01*
X5651470Y-18746782D01*
X5590282Y-18866870D01*
X5590281Y-18866872D01*
X5569196Y-18999999D01*
X5569196Y-19000000D01*
X200500Y-19000000D01*
X200500Y-17021154D01*
X219407Y-16962963D01*
X268907Y-16926999D01*
X330093Y-16926999D01*
X379593Y-16962963D01*
X387705Y-16976201D01*
X401472Y-17003220D01*
X496780Y-17098528D01*
X616874Y-17159719D01*
X750000Y-17180804D01*
X883126Y-17159719D01*
X1003220Y-17098528D01*
X1054998Y-17046749D01*
X1109513Y-17018974D01*
X1169945Y-17028545D01*
X1195000Y-17046748D01*
X1246780Y-17098528D01*
X1366874Y-17159719D01*
X1500000Y-17180804D01*
X1633126Y-17159719D01*
X1753220Y-17098528D01*
X1804998Y-17046749D01*
X1859513Y-17018974D01*
X1919945Y-17028545D01*
X1945000Y-17046748D01*
X1996780Y-17098528D01*
X2116874Y-17159719D01*
X2250000Y-17180804D01*
X2383126Y-17159719D01*
X2503220Y-17098528D01*
X2598528Y-17003220D01*
X2659719Y-16883126D01*
X2680804Y-16750000D01*
X2659719Y-16616874D01*
X2600169Y-16500000D01*
X5569196Y-16500000D01*
X5590281Y-16633127D01*
X5590282Y-16633129D01*
X5649831Y-16750000D01*
X5651472Y-16753220D01*
X5746780Y-16848528D01*
X5866874Y-16909719D01*
X6000000Y-16930804D01*
X6133126Y-16909719D01*
X6253220Y-16848528D01*
X6348528Y-16753220D01*
X6409719Y-16633126D01*
X6430804Y-16500000D01*
X6409719Y-16366874D01*
X6348528Y-16246780D01*
X6253220Y-16151472D01*
X6253217Y-16151470D01*
X6133129Y-16090282D01*
X6133127Y-16090281D01*
X6000000Y-16069196D01*
X5866872Y-16090281D01*
X5866870Y-16090282D01*
X5746782Y-16151470D01*
X5651470Y-16246782D01*
X5590282Y-16366870D01*
X5590281Y-16366872D01*
X5569196Y-16499999D01*
X5569196Y-16500000D01*
X2600169Y-16500000D01*
X2598528Y-16496780D01*
X2503220Y-16401472D01*
X2503217Y-16401470D01*
X2383129Y-16340282D01*
X2383127Y-16340281D01*
X2250000Y-16319196D01*
X2116872Y-16340281D01*
X2116870Y-16340282D01*
X1996782Y-16401470D01*
X1996780Y-16401471D01*
X1996780Y-16401472D01*
X1945001Y-16453250D01*
X1890487Y-16481026D01*
X1830055Y-16471455D01*
X1804999Y-16453251D01*
X1753220Y-16401472D01*
X1753217Y-16401470D01*
X1633129Y-16340282D01*
X1633127Y-16340281D01*
X1500000Y-16319196D01*
X1366872Y-16340281D01*
X1366870Y-16340282D01*
X1246782Y-16401470D01*
X1246780Y-16401471D01*
X1246780Y-16401472D01*
X1195001Y-16453250D01*
X1140487Y-16481026D01*
X1080055Y-16471455D01*
X1054999Y-16453251D01*
X1003220Y-16401472D01*
X1003217Y-16401470D01*
X883129Y-16340282D01*
X883127Y-16340281D01*
X750000Y-16319196D01*
X616872Y-16340281D01*
X616870Y-16340282D01*
X496782Y-16401470D01*
X401471Y-16496781D01*
X387709Y-16523791D01*
X344444Y-16567055D01*
X284012Y-16576626D01*
X229495Y-16548848D01*
X201719Y-16494331D01*
X200500Y-16478845D01*
X200500Y-14000000D01*
X5569196Y-14000000D01*
X5590281Y-14133127D01*
X5590282Y-14133129D01*
X5651470Y-14253217D01*
X5651472Y-14253220D01*
X5746780Y-14348528D01*
X5866874Y-14409719D01*
X6000000Y-14430804D01*
X6133126Y-14409719D01*
X6253220Y-14348528D01*
X6348528Y-14253220D01*
X6409719Y-14133126D01*
X6430804Y-14000000D01*
X6409719Y-13866874D01*
X6348528Y-13746780D01*
X6253220Y-13651472D01*
X6253217Y-13651470D01*
X6133129Y-13590282D01*
X6133127Y-13590281D01*
X6000000Y-13569196D01*
X5866872Y-13590281D01*
X5866870Y-13590282D01*
X5746782Y-13651470D01*
X5651470Y-13746782D01*
X5590282Y-13866870D01*
X5590281Y-13866872D01*
X5569196Y-13999999D01*
X5569196Y-14000000D01*
X200500Y-14000000D01*
X200500Y-11500000D01*
X5569196Y-11500000D01*
X5590281Y-11633127D01*
X5590282Y-11633129D01*
X5651470Y-11753217D01*
X5651472Y-11753220D01*
X5746780Y-11848528D01*
X5866874Y-11909719D01*
X6000000Y-11930804D01*
X6133126Y-11909719D01*
X6253220Y-11848528D01*
X6348528Y-11753220D01*
X6409719Y-11633126D01*
X6430804Y-11500000D01*
X6409719Y-11366874D01*
X6348528Y-11246780D01*
X6253220Y-11151472D01*
X6253217Y-11151470D01*
X6133129Y-11090282D01*
X6133127Y-11090281D01*
X6000000Y-11069196D01*
X5866872Y-11090281D01*
X5866870Y-11090282D01*
X5746782Y-11151470D01*
X5651470Y-11246782D01*
X5590282Y-11366870D01*
X5590281Y-11366872D01*
X5569196Y-11499999D01*
X5569196Y-11500000D01*
X200500Y-11500000D01*
X200500Y-10271154D01*
X219407Y-10212963D01*
X268907Y-10176999D01*
X330093Y-10176999D01*
X379593Y-10212963D01*
X387705Y-10226201D01*
X401472Y-10253220D01*
X496780Y-10348528D01*
X616874Y-10409719D01*
X750000Y-10430804D01*
X883126Y-10409719D01*
X1003220Y-10348528D01*
X1098528Y-10253220D01*
X1134219Y-10183171D01*
X1177482Y-10139910D01*
X1237914Y-10130338D01*
X1292430Y-10158115D01*
X1320208Y-10212632D01*
X1320209Y-10243602D01*
X1319196Y-10249999D01*
X1319196Y-10250000D01*
X1340281Y-10383127D01*
X1340282Y-10383129D01*
X1364574Y-10430804D01*
X1401472Y-10503220D01*
X1496780Y-10598528D01*
X1616874Y-10659719D01*
X1750000Y-10680804D01*
X1883126Y-10659719D01*
X2003220Y-10598528D01*
X2098528Y-10503220D01*
X2159719Y-10383126D01*
X2180804Y-10250000D01*
X2159719Y-10116874D01*
X2121688Y-10042235D01*
X2098529Y-9996782D01*
X2098528Y-9996780D01*
X2003220Y-9901472D01*
X2003217Y-9901470D01*
X1883129Y-9840282D01*
X1883127Y-9840281D01*
X1750000Y-9819196D01*
X1616872Y-9840281D01*
X1616870Y-9840282D01*
X1496782Y-9901470D01*
X1401471Y-9996781D01*
X1365781Y-10066826D01*
X1322516Y-10110090D01*
X1262084Y-10119661D01*
X1207568Y-10091883D01*
X1179791Y-10037366D01*
X1179791Y-10006395D01*
X1180804Y-10000000D01*
X1159719Y-9866874D01*
X1098528Y-9746780D01*
X1003220Y-9651472D01*
X1003217Y-9651470D01*
X883129Y-9590282D01*
X883127Y-9590281D01*
X750000Y-9569196D01*
X616872Y-9590281D01*
X616870Y-9590282D01*
X496782Y-9651470D01*
X401471Y-9746781D01*
X387709Y-9773791D01*
X344444Y-9817055D01*
X284012Y-9826626D01*
X229495Y-9798848D01*
X201719Y-9744331D01*
X200500Y-9728845D01*
X200500Y-9000000D01*
X5319196Y-9000000D01*
X5340281Y-9133127D01*
X5340282Y-9133129D01*
X5401470Y-9253217D01*
X5401472Y-9253220D01*
X5496780Y-9348528D01*
X5616874Y-9409719D01*
X5750000Y-9430804D01*
X5759429Y-9429310D01*
X5819860Y-9438880D01*
X5863125Y-9482143D01*
X5872699Y-9542575D01*
X5863127Y-9572036D01*
X5840281Y-9616874D01*
X5819196Y-9749999D01*
X5819196Y-9750000D01*
X5840281Y-9883127D01*
X5840282Y-9883129D01*
X5899831Y-10000000D01*
X5901472Y-10003220D01*
X5996780Y-10098528D01*
X6116874Y-10159719D01*
X6250000Y-10180804D01*
X6383126Y-10159719D01*
X6503220Y-10098528D01*
X6598528Y-10003220D01*
X6659719Y-9883126D01*
X6680804Y-9750000D01*
X9819196Y-9750000D01*
X9840281Y-9883127D01*
X9840282Y-9883129D01*
X9899831Y-10000000D01*
X9901472Y-10003220D01*
X9996780Y-10098528D01*
X9996782Y-10098529D01*
X10116867Y-10159716D01*
X10116870Y-10159716D01*
X10116874Y-10159719D01*
X10116878Y-10159719D01*
X10124281Y-10162125D01*
X10123812Y-10163566D01*
X10170501Y-10187353D01*
X10198281Y-10241868D01*
X10199500Y-10257359D01*
X10199500Y-11657744D01*
X10180593Y-11715935D01*
X10170505Y-11727746D01*
X10151474Y-11746777D01*
X10151470Y-11746782D01*
X10090282Y-11866870D01*
X10090281Y-11866872D01*
X10069196Y-11999999D01*
X10069196Y-12000000D01*
X10090281Y-12133127D01*
X10090282Y-12133129D01*
X10151470Y-12253217D01*
X10151472Y-12253220D01*
X10170505Y-12272253D01*
X10198281Y-12326768D01*
X10199500Y-12342255D01*
X10199500Y-14157744D01*
X10180593Y-14215935D01*
X10170505Y-14227746D01*
X10151474Y-14246777D01*
X10151470Y-14246782D01*
X10090282Y-14366870D01*
X10090281Y-14366872D01*
X10069196Y-14499999D01*
X10069196Y-14500000D01*
X10090281Y-14633127D01*
X10090282Y-14633129D01*
X10151470Y-14753217D01*
X10151472Y-14753220D01*
X10170505Y-14772253D01*
X10198281Y-14826768D01*
X10199500Y-14842255D01*
X10199500Y-16657744D01*
X10180593Y-16715935D01*
X10170505Y-16727746D01*
X10151474Y-16746777D01*
X10151470Y-16746782D01*
X10090282Y-16866870D01*
X10090281Y-16866872D01*
X10069196Y-16999999D01*
X10069196Y-17000000D01*
X10090281Y-17133127D01*
X10090282Y-17133129D01*
X10151470Y-17253217D01*
X10151472Y-17253220D01*
X10170505Y-17272253D01*
X10198281Y-17326768D01*
X10199500Y-17342255D01*
X10199500Y-19157744D01*
X10180593Y-19215935D01*
X10170505Y-19227746D01*
X10151474Y-19246777D01*
X10151470Y-19246782D01*
X10090282Y-19366870D01*
X10090281Y-19366872D01*
X10069196Y-19499999D01*
X10069196Y-19500000D01*
X10090281Y-19633127D01*
X10090282Y-19633129D01*
X10149831Y-19750000D01*
X10151472Y-19753220D01*
X10170505Y-19772253D01*
X10198281Y-19826768D01*
X10199500Y-19842255D01*
X10199500Y-21657744D01*
X10180593Y-21715935D01*
X10170505Y-21727746D01*
X10151474Y-21746777D01*
X10151470Y-21746782D01*
X10090282Y-21866870D01*
X10090281Y-21866872D01*
X10069196Y-21999999D01*
X10069196Y-22000000D01*
X10090281Y-22133127D01*
X10090282Y-22133129D01*
X10151470Y-22253217D01*
X10151472Y-22253220D01*
X10170505Y-22272253D01*
X10198281Y-22326768D01*
X10199500Y-22342255D01*
X10199500Y-24157744D01*
X10180593Y-24215935D01*
X10170505Y-24227746D01*
X10151474Y-24246777D01*
X10151470Y-24246782D01*
X10090282Y-24366870D01*
X10090281Y-24366872D01*
X10069196Y-24499999D01*
X10069196Y-24500000D01*
X10090281Y-24633127D01*
X10090282Y-24633129D01*
X10149831Y-24750000D01*
X10151472Y-24753220D01*
X10170505Y-24772253D01*
X10198281Y-24826768D01*
X10199500Y-24842255D01*
X10199500Y-26657744D01*
X10180593Y-26715935D01*
X10170505Y-26727746D01*
X10151474Y-26746777D01*
X10151470Y-26746782D01*
X10090282Y-26866870D01*
X10090281Y-26866872D01*
X10069196Y-26999999D01*
X10069196Y-27000000D01*
X10090281Y-27133127D01*
X10090282Y-27133129D01*
X10149831Y-27250000D01*
X10151472Y-27253220D01*
X10170505Y-27272253D01*
X10198281Y-27326768D01*
X10199500Y-27342255D01*
X10199500Y-29157744D01*
X10180593Y-29215935D01*
X10170505Y-29227746D01*
X10151474Y-29246777D01*
X10151470Y-29246782D01*
X10090282Y-29366870D01*
X10090281Y-29366872D01*
X10069196Y-29499999D01*
X10069196Y-29500000D01*
X10090281Y-29633127D01*
X10090282Y-29633129D01*
X10151470Y-29753217D01*
X10151472Y-29753220D01*
X10246780Y-29848528D01*
X10366874Y-29909719D01*
X10500000Y-29930804D01*
X10633126Y-29909719D01*
X10753220Y-29848528D01*
X10848528Y-29753220D01*
X10909719Y-29633126D01*
X10930804Y-29500000D01*
X12569196Y-29500000D01*
X12590281Y-29633127D01*
X12590282Y-29633129D01*
X12651470Y-29753217D01*
X12651472Y-29753220D01*
X12746780Y-29848528D01*
X12866874Y-29909719D01*
X13000000Y-29930804D01*
X13133126Y-29909719D01*
X13253220Y-29848528D01*
X13348528Y-29753220D01*
X13409719Y-29633126D01*
X13430804Y-29500000D01*
X15069196Y-29500000D01*
X15090281Y-29633127D01*
X15090282Y-29633129D01*
X15151470Y-29753217D01*
X15151472Y-29753220D01*
X15246780Y-29848528D01*
X15366874Y-29909719D01*
X15500000Y-29930804D01*
X15633126Y-29909719D01*
X15753220Y-29848528D01*
X15848528Y-29753220D01*
X15909719Y-29633126D01*
X15930804Y-29500000D01*
X17569196Y-29500000D01*
X17590281Y-29633127D01*
X17590282Y-29633129D01*
X17651470Y-29753217D01*
X17651472Y-29753220D01*
X17746780Y-29848528D01*
X17866874Y-29909719D01*
X18000000Y-29930804D01*
X18133126Y-29909719D01*
X18253220Y-29848528D01*
X18348528Y-29753220D01*
X18409719Y-29633126D01*
X18430804Y-29500000D01*
X20069196Y-29500000D01*
X20090281Y-29633127D01*
X20090282Y-29633129D01*
X20151470Y-29753217D01*
X20151472Y-29753220D01*
X20246780Y-29848528D01*
X20366874Y-29909719D01*
X20500000Y-29930804D01*
X20633126Y-29909719D01*
X20753220Y-29848528D01*
X20848528Y-29753220D01*
X20909719Y-29633126D01*
X20930804Y-29500000D01*
X22569196Y-29500000D01*
X22590281Y-29633127D01*
X22590282Y-29633129D01*
X22651470Y-29753217D01*
X22651472Y-29753220D01*
X22746780Y-29848528D01*
X22866874Y-29909719D01*
X23000000Y-29930804D01*
X23009429Y-29929310D01*
X23069860Y-29938880D01*
X23113125Y-29982143D01*
X23122699Y-30042575D01*
X23113127Y-30072036D01*
X23090281Y-30116874D01*
X23069196Y-30249999D01*
X23069196Y-30250000D01*
X23090281Y-30383127D01*
X23090282Y-30383129D01*
X23151470Y-30503217D01*
X23151472Y-30503220D01*
X23246780Y-30598528D01*
X23366874Y-30659719D01*
X23500000Y-30680804D01*
X23633126Y-30659719D01*
X23753220Y-30598528D01*
X23848528Y-30503220D01*
X23909719Y-30383126D01*
X23930804Y-30250000D01*
X31819196Y-30250000D01*
X31840281Y-30383127D01*
X31840282Y-30383129D01*
X31901470Y-30503217D01*
X31901472Y-30503220D01*
X31996780Y-30598528D01*
X32116874Y-30659719D01*
X32250000Y-30680804D01*
X32383126Y-30659719D01*
X32503220Y-30598528D01*
X32598528Y-30503220D01*
X32659719Y-30383126D01*
X32680804Y-30250000D01*
X32659719Y-30116874D01*
X32598528Y-29996780D01*
X32503220Y-29901472D01*
X32503217Y-29901470D01*
X32383129Y-29840282D01*
X32383127Y-29840281D01*
X32250000Y-29819196D01*
X32116872Y-29840281D01*
X32116870Y-29840282D01*
X31996782Y-29901470D01*
X31901470Y-29996782D01*
X31840282Y-30116870D01*
X31840281Y-30116872D01*
X31819196Y-30249999D01*
X31819196Y-30250000D01*
X23930804Y-30250000D01*
X23909719Y-30116874D01*
X23848528Y-29996780D01*
X23753220Y-29901472D01*
X23753217Y-29901470D01*
X23633129Y-29840282D01*
X23633127Y-29840281D01*
X23500000Y-29819196D01*
X23490565Y-29820690D01*
X23430134Y-29811116D01*
X23386871Y-29767850D01*
X23377301Y-29707417D01*
X23386870Y-29677968D01*
X23409719Y-29633126D01*
X23430804Y-29500000D01*
X23430006Y-29494964D01*
X23426104Y-29470323D01*
X23409719Y-29366874D01*
X23348528Y-29246780D01*
X23348525Y-29246777D01*
X23329495Y-29227746D01*
X23301719Y-29173229D01*
X23300500Y-29157744D01*
X23300500Y-27342255D01*
X23319407Y-27284064D01*
X23329490Y-27272257D01*
X23348528Y-27253220D01*
X23409719Y-27133126D01*
X23430804Y-27000000D01*
X23409719Y-26866874D01*
X23348528Y-26746780D01*
X23348525Y-26746777D01*
X23329495Y-26727746D01*
X23301719Y-26673229D01*
X23300500Y-26657744D01*
X23300500Y-24842255D01*
X23319407Y-24784064D01*
X23329490Y-24772257D01*
X23348528Y-24753220D01*
X23409719Y-24633126D01*
X23430804Y-24500000D01*
X23409719Y-24366874D01*
X23348528Y-24246780D01*
X23348525Y-24246777D01*
X23329495Y-24227746D01*
X23301719Y-24173229D01*
X23300500Y-24157744D01*
X23300500Y-22342255D01*
X23319407Y-22284064D01*
X23329490Y-22272257D01*
X23348528Y-22253220D01*
X23409719Y-22133126D01*
X23430804Y-22000000D01*
X23409719Y-21866874D01*
X23348528Y-21746780D01*
X23348525Y-21746777D01*
X23329495Y-21727746D01*
X23301719Y-21673229D01*
X23300500Y-21657744D01*
X23300500Y-19842255D01*
X23319407Y-19784064D01*
X23329490Y-19772257D01*
X23348528Y-19753220D01*
X23409719Y-19633126D01*
X23430804Y-19500000D01*
X23409719Y-19366874D01*
X23348528Y-19246780D01*
X23348525Y-19246777D01*
X23329495Y-19227746D01*
X23301719Y-19173229D01*
X23300500Y-19157744D01*
X23300500Y-17342255D01*
X23319407Y-17284064D01*
X23329490Y-17272257D01*
X23348528Y-17253220D01*
X23409719Y-17133126D01*
X23430804Y-17000000D01*
X23409719Y-16866874D01*
X23348528Y-16746780D01*
X23348525Y-16746777D01*
X23329495Y-16727746D01*
X23301719Y-16673229D01*
X23300500Y-16657744D01*
X23300500Y-14842255D01*
X23319407Y-14784064D01*
X23329490Y-14772257D01*
X23348528Y-14753220D01*
X23409719Y-14633126D01*
X23430804Y-14500000D01*
X23409719Y-14366874D01*
X23348528Y-14246780D01*
X23348525Y-14246777D01*
X23329495Y-14227746D01*
X23301719Y-14173229D01*
X23300500Y-14157744D01*
X23300500Y-12342255D01*
X23319407Y-12284064D01*
X23329490Y-12272257D01*
X23348528Y-12253220D01*
X23409719Y-12133126D01*
X23430804Y-12000000D01*
X23430006Y-11994964D01*
X23416505Y-11909719D01*
X23409719Y-11866874D01*
X23348528Y-11746780D01*
X23348525Y-11746777D01*
X23329495Y-11727746D01*
X23301719Y-11673229D01*
X23300500Y-11657744D01*
X23300500Y-10000000D01*
X23819196Y-10000000D01*
X23840281Y-10133127D01*
X23840282Y-10133129D01*
X23899831Y-10250000D01*
X23901472Y-10253220D01*
X23996780Y-10348528D01*
X24116874Y-10409719D01*
X24225159Y-10426869D01*
X24279674Y-10454646D01*
X24279675Y-10454646D01*
X25170504Y-11345475D01*
X25198281Y-11399992D01*
X25199500Y-11415479D01*
X25199500Y-11657744D01*
X25180593Y-11715935D01*
X25170505Y-11727746D01*
X25151474Y-11746777D01*
X25151470Y-11746782D01*
X25090282Y-11866870D01*
X25090281Y-11866872D01*
X25069196Y-11999999D01*
X25069196Y-12000000D01*
X25090281Y-12133127D01*
X25090282Y-12133129D01*
X25151470Y-12253217D01*
X25151472Y-12253220D01*
X25170505Y-12272253D01*
X25198281Y-12326768D01*
X25199500Y-12342255D01*
X25199500Y-14157744D01*
X25180593Y-14215935D01*
X25170505Y-14227746D01*
X25151474Y-14246777D01*
X25151470Y-14246782D01*
X25090282Y-14366870D01*
X25090281Y-14366872D01*
X25069196Y-14499999D01*
X25069196Y-14500000D01*
X25090281Y-14633127D01*
X25090282Y-14633129D01*
X25151470Y-14753217D01*
X25151472Y-14753220D01*
X25170505Y-14772253D01*
X25198281Y-14826768D01*
X25199500Y-14842255D01*
X25199500Y-16657744D01*
X25180593Y-16715935D01*
X25170505Y-16727746D01*
X25151474Y-16746777D01*
X25151470Y-16746782D01*
X25090282Y-16866870D01*
X25090281Y-16866872D01*
X25069196Y-16999999D01*
X25069196Y-17000000D01*
X25090281Y-17133127D01*
X25090282Y-17133129D01*
X25151470Y-17253217D01*
X25151472Y-17253220D01*
X25170505Y-17272253D01*
X25198281Y-17326768D01*
X25199500Y-17342255D01*
X25199500Y-19157744D01*
X25180593Y-19215935D01*
X25170505Y-19227746D01*
X25151474Y-19246777D01*
X25151470Y-19246782D01*
X25090282Y-19366870D01*
X25090281Y-19366872D01*
X25069196Y-19499999D01*
X25069196Y-19500000D01*
X25090281Y-19633127D01*
X25090282Y-19633129D01*
X25149831Y-19750000D01*
X25151472Y-19753220D01*
X25170505Y-19772253D01*
X25198281Y-19826768D01*
X25199500Y-19842255D01*
X25199500Y-21657744D01*
X25180593Y-21715935D01*
X25170505Y-21727746D01*
X25151474Y-21746777D01*
X25151470Y-21746782D01*
X25090282Y-21866870D01*
X25090281Y-21866872D01*
X25069196Y-21999999D01*
X25069196Y-22000000D01*
X25090281Y-22133127D01*
X25090282Y-22133129D01*
X25151470Y-22253217D01*
X25151472Y-22253220D01*
X25170505Y-22272253D01*
X25198281Y-22326768D01*
X25199500Y-22342255D01*
X25199500Y-24157744D01*
X25180593Y-24215935D01*
X25170505Y-24227746D01*
X25151474Y-24246777D01*
X25151470Y-24246782D01*
X25090282Y-24366870D01*
X25090281Y-24366872D01*
X25069196Y-24499999D01*
X25069196Y-24500000D01*
X25090281Y-24633127D01*
X25090282Y-24633129D01*
X25149831Y-24750000D01*
X25151472Y-24753220D01*
X25170505Y-24772253D01*
X25198281Y-24826768D01*
X25199500Y-24842255D01*
X25199500Y-26657744D01*
X25180593Y-26715935D01*
X25170505Y-26727746D01*
X25151474Y-26746777D01*
X25151470Y-26746782D01*
X25090282Y-26866870D01*
X25090281Y-26866872D01*
X25069196Y-26999999D01*
X25069196Y-27000000D01*
X25090281Y-27133127D01*
X25090282Y-27133129D01*
X25149831Y-27250000D01*
X25151472Y-27253220D01*
X25170505Y-27272253D01*
X25198281Y-27326768D01*
X25199500Y-27342255D01*
X25199500Y-29157744D01*
X25180593Y-29215935D01*
X25170505Y-29227746D01*
X25151474Y-29246777D01*
X25151470Y-29246782D01*
X25090282Y-29366870D01*
X25090281Y-29366872D01*
X25069196Y-29499999D01*
X25069196Y-29500000D01*
X25090281Y-29633127D01*
X25090282Y-29633129D01*
X25151470Y-29753217D01*
X25151472Y-29753220D01*
X25246780Y-29848528D01*
X25366874Y-29909719D01*
X25500000Y-29930804D01*
X25633126Y-29909719D01*
X25753220Y-29848528D01*
X25848528Y-29753220D01*
X25909719Y-29633126D01*
X25930804Y-29500000D01*
X25930006Y-29494964D01*
X25926104Y-29470323D01*
X25909719Y-29366874D01*
X25848528Y-29246780D01*
X25848525Y-29246777D01*
X25829495Y-29227746D01*
X25801719Y-29173229D01*
X25800500Y-29157744D01*
X25800500Y-27342255D01*
X25819407Y-27284064D01*
X25829490Y-27272257D01*
X25848528Y-27253220D01*
X25909719Y-27133126D01*
X25930804Y-27000000D01*
X25909719Y-26866874D01*
X25848528Y-26746780D01*
X25848525Y-26746777D01*
X25829495Y-26727746D01*
X25801719Y-26673229D01*
X25800500Y-26657744D01*
X25800500Y-24842255D01*
X25819407Y-24784064D01*
X25829490Y-24772257D01*
X25848528Y-24753220D01*
X25909719Y-24633126D01*
X25930804Y-24500000D01*
X25909719Y-24366874D01*
X25848528Y-24246780D01*
X25848525Y-24246777D01*
X25829495Y-24227746D01*
X25801719Y-24173229D01*
X25800500Y-24157744D01*
X25800500Y-22342255D01*
X25819407Y-22284064D01*
X25829490Y-22272257D01*
X25848528Y-22253220D01*
X25909719Y-22133126D01*
X25930804Y-22000000D01*
X25909719Y-21866874D01*
X25848528Y-21746780D01*
X25848525Y-21746777D01*
X25829495Y-21727746D01*
X25801719Y-21673229D01*
X25800500Y-21657744D01*
X25800500Y-19842255D01*
X25819407Y-19784064D01*
X25829490Y-19772257D01*
X25848528Y-19753220D01*
X25909719Y-19633126D01*
X25930804Y-19500000D01*
X25909719Y-19366874D01*
X25848528Y-19246780D01*
X25848525Y-19246777D01*
X25829495Y-19227746D01*
X25801719Y-19173229D01*
X25800500Y-19157744D01*
X25800500Y-17342255D01*
X25819407Y-17284064D01*
X25829490Y-17272257D01*
X25848528Y-17253220D01*
X25909719Y-17133126D01*
X25930804Y-17000000D01*
X25909719Y-16866874D01*
X25848528Y-16746780D01*
X25848525Y-16746777D01*
X25829495Y-16727746D01*
X25801719Y-16673229D01*
X25800500Y-16657744D01*
X25800500Y-14842255D01*
X25819407Y-14784064D01*
X25829490Y-14772257D01*
X25848528Y-14753220D01*
X25909719Y-14633126D01*
X25930804Y-14500000D01*
X25909719Y-14366874D01*
X25848528Y-14246780D01*
X25848525Y-14246777D01*
X25829495Y-14227746D01*
X25801719Y-14173229D01*
X25800500Y-14157744D01*
X25800500Y-12342255D01*
X25819407Y-12284064D01*
X25829490Y-12272257D01*
X25848528Y-12253220D01*
X25909719Y-12133126D01*
X25930804Y-12000000D01*
X25930006Y-11994964D01*
X25916505Y-11909719D01*
X25909719Y-11866874D01*
X25848528Y-11746780D01*
X25848525Y-11746777D01*
X25829495Y-11727746D01*
X25801719Y-11673229D01*
X25800500Y-11657744D01*
X25800500Y-11315169D01*
X25802731Y-11301496D01*
X25801505Y-11301325D01*
X25802773Y-11292233D01*
X25800553Y-11244215D01*
X25800500Y-11241928D01*
X25800500Y-11222160D01*
X25800500Y-11222156D01*
X25799846Y-11218664D01*
X25799056Y-11211859D01*
X25797585Y-11180008D01*
X25793615Y-11171017D01*
X25786864Y-11149215D01*
X25785061Y-11139568D01*
X25785061Y-11139567D01*
X25768276Y-11112458D01*
X25765084Y-11106401D01*
X25752206Y-11077235D01*
X25752205Y-11077233D01*
X25745256Y-11070284D01*
X25731090Y-11052399D01*
X25725919Y-11044048D01*
X25700483Y-11024839D01*
X25695306Y-11020334D01*
X24704646Y-10029675D01*
X24676869Y-9975158D01*
X24659719Y-9866874D01*
X24598528Y-9746780D01*
X24594272Y-9742524D01*
X24579495Y-9727746D01*
X24551719Y-9673229D01*
X24550500Y-9657744D01*
X24550500Y-7842255D01*
X24569407Y-7784064D01*
X24579490Y-7772257D01*
X24598528Y-7753220D01*
X24659719Y-7633126D01*
X24680804Y-7500000D01*
X24659719Y-7366874D01*
X24600169Y-7250000D01*
X25069196Y-7250000D01*
X25090281Y-7383127D01*
X25090282Y-7383129D01*
X25149831Y-7500000D01*
X25151472Y-7503220D01*
X25246780Y-7598528D01*
X25366874Y-7659719D01*
X25475159Y-7676869D01*
X25529674Y-7704646D01*
X25529675Y-7704646D01*
X26420504Y-8595475D01*
X26448281Y-8649992D01*
X26449500Y-8665479D01*
X26449500Y-9657744D01*
X26430593Y-9715935D01*
X26420505Y-9727746D01*
X26401474Y-9746777D01*
X26401470Y-9746782D01*
X26340282Y-9866870D01*
X26340281Y-9866872D01*
X26319196Y-9999999D01*
X26319196Y-10000000D01*
X26340281Y-10133127D01*
X26340282Y-10133129D01*
X26399831Y-10250000D01*
X26401472Y-10253220D01*
X26420505Y-10272253D01*
X26448281Y-10326768D01*
X26449500Y-10342255D01*
X26449500Y-10684835D01*
X26447280Y-10698513D01*
X26448494Y-10698683D01*
X26447226Y-10707766D01*
X26449447Y-10755783D01*
X26449500Y-10758069D01*
X26449500Y-10777842D01*
X26450152Y-10781332D01*
X26450943Y-10788149D01*
X26452414Y-10819987D01*
X26452415Y-10819994D01*
X26456384Y-10828982D01*
X26463133Y-10850773D01*
X26464939Y-10860433D01*
X26481717Y-10887533D01*
X26484915Y-10893600D01*
X26497793Y-10922763D01*
X26497794Y-10922765D01*
X26504745Y-10929716D01*
X26518907Y-10947596D01*
X26524081Y-10955952D01*
X26549511Y-10975156D01*
X26554690Y-10979662D01*
X27545352Y-11970323D01*
X27573129Y-12024839D01*
X27590281Y-12133127D01*
X27590282Y-12133129D01*
X27651470Y-12253217D01*
X27651472Y-12253220D01*
X27670505Y-12272253D01*
X27698281Y-12326768D01*
X27699500Y-12342255D01*
X27699500Y-14157744D01*
X27680593Y-14215935D01*
X27670505Y-14227746D01*
X27651474Y-14246777D01*
X27651470Y-14246782D01*
X27590282Y-14366870D01*
X27590281Y-14366872D01*
X27569196Y-14499999D01*
X27569196Y-14500000D01*
X27590281Y-14633127D01*
X27590282Y-14633129D01*
X27651470Y-14753217D01*
X27651472Y-14753220D01*
X27670505Y-14772253D01*
X27698281Y-14826768D01*
X27699500Y-14842255D01*
X27699500Y-16657744D01*
X27680593Y-16715935D01*
X27670505Y-16727746D01*
X27651474Y-16746777D01*
X27651470Y-16746782D01*
X27590282Y-16866870D01*
X27590281Y-16866872D01*
X27569196Y-16999999D01*
X27569196Y-17000000D01*
X27590281Y-17133127D01*
X27590282Y-17133129D01*
X27651470Y-17253217D01*
X27651472Y-17253220D01*
X27670505Y-17272253D01*
X27698281Y-17326768D01*
X27699500Y-17342255D01*
X27699500Y-19157744D01*
X27680593Y-19215935D01*
X27670505Y-19227746D01*
X27651474Y-19246777D01*
X27651470Y-19246782D01*
X27590282Y-19366870D01*
X27590281Y-19366872D01*
X27569196Y-19499999D01*
X27569196Y-19500000D01*
X27590281Y-19633127D01*
X27590282Y-19633129D01*
X27649831Y-19750000D01*
X27651472Y-19753220D01*
X27670505Y-19772253D01*
X27698281Y-19826768D01*
X27699500Y-19842255D01*
X27699500Y-21657744D01*
X27680593Y-21715935D01*
X27670505Y-21727746D01*
X27651474Y-21746777D01*
X27651470Y-21746782D01*
X27590282Y-21866870D01*
X27590281Y-21866872D01*
X27569196Y-21999999D01*
X27569196Y-22000000D01*
X27590281Y-22133127D01*
X27590282Y-22133129D01*
X27651470Y-22253217D01*
X27651472Y-22253220D01*
X27670505Y-22272253D01*
X27698281Y-22326768D01*
X27699500Y-22342255D01*
X27699500Y-24157744D01*
X27680593Y-24215935D01*
X27670505Y-24227746D01*
X27651474Y-24246777D01*
X27651470Y-24246782D01*
X27590282Y-24366870D01*
X27590281Y-24366872D01*
X27569196Y-24499999D01*
X27569196Y-24500000D01*
X27590281Y-24633127D01*
X27590282Y-24633129D01*
X27649831Y-24750000D01*
X27651472Y-24753220D01*
X27670505Y-24772253D01*
X27698281Y-24826768D01*
X27699500Y-24842255D01*
X27699500Y-26657744D01*
X27680593Y-26715935D01*
X27670505Y-26727746D01*
X27651474Y-26746777D01*
X27651470Y-26746782D01*
X27590282Y-26866870D01*
X27590281Y-26866872D01*
X27569196Y-26999999D01*
X27569196Y-27000000D01*
X27590281Y-27133127D01*
X27590282Y-27133129D01*
X27649831Y-27250000D01*
X27651472Y-27253220D01*
X27670505Y-27272253D01*
X27698281Y-27326768D01*
X27699500Y-27342255D01*
X27699500Y-29157744D01*
X27680593Y-29215935D01*
X27670505Y-29227746D01*
X27651474Y-29246777D01*
X27651470Y-29246782D01*
X27590282Y-29366870D01*
X27590281Y-29366872D01*
X27569196Y-29499999D01*
X27569196Y-29500000D01*
X27590281Y-29633127D01*
X27590282Y-29633129D01*
X27651470Y-29753217D01*
X27651472Y-29753220D01*
X27746780Y-29848528D01*
X27866874Y-29909719D01*
X28000000Y-29930804D01*
X28133126Y-29909719D01*
X28253220Y-29848528D01*
X28348528Y-29753220D01*
X28409719Y-29633126D01*
X28430804Y-29500000D01*
X28430006Y-29494964D01*
X28426104Y-29470323D01*
X28409719Y-29366874D01*
X28348528Y-29246780D01*
X28348525Y-29246777D01*
X28329495Y-29227746D01*
X28301719Y-29173229D01*
X28300500Y-29157744D01*
X28300500Y-27342255D01*
X28319407Y-27284064D01*
X28329490Y-27272257D01*
X28348528Y-27253220D01*
X28409719Y-27133126D01*
X28430804Y-27000000D01*
X28409719Y-26866874D01*
X28348528Y-26746780D01*
X28348525Y-26746777D01*
X28329495Y-26727746D01*
X28301719Y-26673229D01*
X28300500Y-26657744D01*
X28300500Y-24842255D01*
X28319407Y-24784064D01*
X28329490Y-24772257D01*
X28348528Y-24753220D01*
X28409719Y-24633126D01*
X28430804Y-24500000D01*
X28409719Y-24366874D01*
X28348528Y-24246780D01*
X28348525Y-24246777D01*
X28329495Y-24227746D01*
X28301719Y-24173229D01*
X28300500Y-24157744D01*
X28300500Y-22342255D01*
X28319407Y-22284064D01*
X28329490Y-22272257D01*
X28348528Y-22253220D01*
X28409719Y-22133126D01*
X28430804Y-22000000D01*
X28409719Y-21866874D01*
X28348528Y-21746780D01*
X28348525Y-21746777D01*
X28329495Y-21727746D01*
X28301719Y-21673229D01*
X28300500Y-21657744D01*
X28300500Y-19842255D01*
X28319407Y-19784064D01*
X28329490Y-19772257D01*
X28348528Y-19753220D01*
X28409719Y-19633126D01*
X28430804Y-19500000D01*
X28409719Y-19366874D01*
X28348528Y-19246780D01*
X28348525Y-19246777D01*
X28329495Y-19227746D01*
X28301719Y-19173229D01*
X28300500Y-19157744D01*
X28300500Y-17342255D01*
X28319407Y-17284064D01*
X28329490Y-17272257D01*
X28348528Y-17253220D01*
X28409719Y-17133126D01*
X28430804Y-17000000D01*
X28409719Y-16866874D01*
X28348528Y-16746780D01*
X28348525Y-16746777D01*
X28329495Y-16727746D01*
X28301719Y-16673229D01*
X28300500Y-16657744D01*
X28300500Y-14842255D01*
X28319407Y-14784064D01*
X28329490Y-14772257D01*
X28348528Y-14753220D01*
X28409719Y-14633126D01*
X28430804Y-14500000D01*
X28409719Y-14366874D01*
X28348528Y-14246780D01*
X28348525Y-14246777D01*
X28329495Y-14227746D01*
X28301719Y-14173229D01*
X28300500Y-14157744D01*
X28300500Y-12342255D01*
X28319407Y-12284064D01*
X28329490Y-12272257D01*
X28348528Y-12253220D01*
X28409719Y-12133126D01*
X28430804Y-12000000D01*
X28430006Y-11994964D01*
X28416505Y-11909719D01*
X28409719Y-11866874D01*
X28348528Y-11746780D01*
X28253220Y-11651472D01*
X28253217Y-11651470D01*
X28133129Y-11590282D01*
X28133127Y-11590281D01*
X28024839Y-11573129D01*
X27970323Y-11545352D01*
X27079496Y-10654525D01*
X27051719Y-10600008D01*
X27050500Y-10584521D01*
X27050500Y-10342255D01*
X27069407Y-10284064D01*
X27079490Y-10272257D01*
X27098528Y-10253220D01*
X27159719Y-10133126D01*
X27180804Y-10000000D01*
X27159719Y-9866874D01*
X27098528Y-9746780D01*
X27094272Y-9742524D01*
X27079495Y-9727746D01*
X27051719Y-9673229D01*
X27050500Y-9657744D01*
X27050500Y-8565169D01*
X27052731Y-8551496D01*
X27051505Y-8551325D01*
X27052773Y-8542233D01*
X27050553Y-8494215D01*
X27050500Y-8491928D01*
X27050500Y-8472160D01*
X27050500Y-8472156D01*
X27049846Y-8468664D01*
X27049056Y-8461859D01*
X27047585Y-8430008D01*
X27043615Y-8421017D01*
X27036864Y-8399215D01*
X27035061Y-8389568D01*
X27035061Y-8389567D01*
X27018276Y-8362458D01*
X27015084Y-8356401D01*
X27002206Y-8327235D01*
X27002205Y-8327233D01*
X26995256Y-8320284D01*
X26981090Y-8302399D01*
X26975919Y-8294048D01*
X26950483Y-8274839D01*
X26945306Y-8270334D01*
X25954646Y-7279675D01*
X25926869Y-7225158D01*
X25909719Y-7116874D01*
X25848528Y-6996780D01*
X25753220Y-6901472D01*
X25753217Y-6901470D01*
X25633129Y-6840282D01*
X25633127Y-6840281D01*
X25500000Y-6819196D01*
X25366872Y-6840281D01*
X25366870Y-6840282D01*
X25246782Y-6901470D01*
X25151470Y-6996782D01*
X25090282Y-7116870D01*
X25090281Y-7116872D01*
X25069196Y-7249999D01*
X25069196Y-7250000D01*
X24600169Y-7250000D01*
X24598528Y-7246780D01*
X24503220Y-7151472D01*
X24503217Y-7151470D01*
X24383129Y-7090282D01*
X24383127Y-7090281D01*
X24250000Y-7069196D01*
X24116872Y-7090281D01*
X24116870Y-7090282D01*
X23996782Y-7151470D01*
X23901470Y-7246782D01*
X23840282Y-7366870D01*
X23840281Y-7366872D01*
X23819196Y-7499999D01*
X23819196Y-7500000D01*
X23840281Y-7633127D01*
X23840282Y-7633129D01*
X23899831Y-7750000D01*
X23901472Y-7753220D01*
X23920505Y-7772253D01*
X23948281Y-7826768D01*
X23949500Y-7842255D01*
X23949500Y-9657744D01*
X23930593Y-9715935D01*
X23920505Y-9727746D01*
X23901474Y-9746777D01*
X23901470Y-9746782D01*
X23840282Y-9866870D01*
X23840281Y-9866872D01*
X23819196Y-9999999D01*
X23819196Y-10000000D01*
X23300500Y-10000000D01*
X23300500Y-9842255D01*
X23319407Y-9784064D01*
X23329490Y-9772257D01*
X23348528Y-9753220D01*
X23409719Y-9633126D01*
X23430804Y-9500000D01*
X23409719Y-9366874D01*
X23348528Y-9246780D01*
X23345705Y-9243957D01*
X23329495Y-9227746D01*
X23301719Y-9173229D01*
X23300500Y-9157744D01*
X23300500Y-7342255D01*
X23319407Y-7284064D01*
X23329490Y-7272257D01*
X23348528Y-7253220D01*
X23409719Y-7133126D01*
X23430804Y-7000000D01*
X23409719Y-6866874D01*
X23348528Y-6746780D01*
X23253220Y-6651472D01*
X23253217Y-6651470D01*
X23133129Y-6590282D01*
X23133127Y-6590281D01*
X23000000Y-6569196D01*
X22866872Y-6590281D01*
X22866870Y-6590282D01*
X22746782Y-6651470D01*
X22651470Y-6746782D01*
X22590282Y-6866870D01*
X22590281Y-6866872D01*
X22569196Y-6999999D01*
X22569196Y-7000000D01*
X22590281Y-7133127D01*
X22590282Y-7133129D01*
X22649831Y-7250000D01*
X22651472Y-7253220D01*
X22670505Y-7272253D01*
X22698281Y-7326768D01*
X22699500Y-7342255D01*
X22699500Y-9157744D01*
X22680593Y-9215935D01*
X22670505Y-9227746D01*
X22651474Y-9246777D01*
X22651470Y-9246782D01*
X22590282Y-9366870D01*
X22590281Y-9366872D01*
X22569196Y-9499999D01*
X22569196Y-9500000D01*
X22590281Y-9633127D01*
X22590282Y-9633129D01*
X22649831Y-9750000D01*
X22651472Y-9753220D01*
X22670505Y-9772253D01*
X22698281Y-9826768D01*
X22699500Y-9842255D01*
X22699500Y-11657744D01*
X22680593Y-11715935D01*
X22670505Y-11727746D01*
X22651474Y-11746777D01*
X22651470Y-11746782D01*
X22590282Y-11866870D01*
X22590281Y-11866872D01*
X22569196Y-11999999D01*
X22569196Y-12000000D01*
X22590281Y-12133127D01*
X22590282Y-12133129D01*
X22651470Y-12253217D01*
X22651472Y-12253220D01*
X22670505Y-12272253D01*
X22698281Y-12326768D01*
X22699500Y-12342255D01*
X22699500Y-14157744D01*
X22680593Y-14215935D01*
X22670505Y-14227746D01*
X22651474Y-14246777D01*
X22651470Y-14246782D01*
X22590282Y-14366870D01*
X22590281Y-14366872D01*
X22569196Y-14499999D01*
X22569196Y-14500000D01*
X22590281Y-14633127D01*
X22590282Y-14633129D01*
X22651470Y-14753217D01*
X22651472Y-14753220D01*
X22670505Y-14772253D01*
X22698281Y-14826768D01*
X22699500Y-14842255D01*
X22699500Y-16657744D01*
X22680593Y-16715935D01*
X22670505Y-16727746D01*
X22651474Y-16746777D01*
X22651470Y-16746782D01*
X22590282Y-16866870D01*
X22590281Y-16866872D01*
X22569196Y-16999999D01*
X22569196Y-17000000D01*
X22590281Y-17133127D01*
X22590282Y-17133129D01*
X22651470Y-17253217D01*
X22651472Y-17253220D01*
X22670505Y-17272253D01*
X22698281Y-17326768D01*
X22699500Y-17342255D01*
X22699500Y-19157744D01*
X22680593Y-19215935D01*
X22670505Y-19227746D01*
X22651474Y-19246777D01*
X22651470Y-19246782D01*
X22590282Y-19366870D01*
X22590281Y-19366872D01*
X22569196Y-19499999D01*
X22569196Y-19500000D01*
X22590281Y-19633127D01*
X22590282Y-19633129D01*
X22649831Y-19750000D01*
X22651472Y-19753220D01*
X22670505Y-19772253D01*
X22698281Y-19826768D01*
X22699500Y-19842255D01*
X22699500Y-21657744D01*
X22680593Y-21715935D01*
X22670505Y-21727746D01*
X22651474Y-21746777D01*
X22651470Y-21746782D01*
X22590282Y-21866870D01*
X22590281Y-21866872D01*
X22569196Y-21999999D01*
X22569196Y-22000000D01*
X22590281Y-22133127D01*
X22590282Y-22133129D01*
X22651470Y-22253217D01*
X22651472Y-22253220D01*
X22670505Y-22272253D01*
X22698281Y-22326768D01*
X22699500Y-22342255D01*
X22699500Y-24157744D01*
X22680593Y-24215935D01*
X22670505Y-24227746D01*
X22651474Y-24246777D01*
X22651470Y-24246782D01*
X22590282Y-24366870D01*
X22590281Y-24366872D01*
X22569196Y-24499999D01*
X22569196Y-24500000D01*
X22590281Y-24633127D01*
X22590282Y-24633129D01*
X22649831Y-24750000D01*
X22651472Y-24753220D01*
X22670505Y-24772253D01*
X22698281Y-24826768D01*
X22699500Y-24842255D01*
X22699500Y-26657744D01*
X22680593Y-26715935D01*
X22670505Y-26727746D01*
X22651474Y-26746777D01*
X22651470Y-26746782D01*
X22590282Y-26866870D01*
X22590281Y-26866872D01*
X22569196Y-26999999D01*
X22569196Y-27000000D01*
X22590281Y-27133127D01*
X22590282Y-27133129D01*
X22649831Y-27250000D01*
X22651472Y-27253220D01*
X22670505Y-27272253D01*
X22698281Y-27326768D01*
X22699500Y-27342255D01*
X22699500Y-29157744D01*
X22680593Y-29215935D01*
X22670505Y-29227746D01*
X22651474Y-29246777D01*
X22651470Y-29246782D01*
X22590282Y-29366870D01*
X22590281Y-29366872D01*
X22569196Y-29499999D01*
X22569196Y-29500000D01*
X20930804Y-29500000D01*
X20930006Y-29494964D01*
X20926104Y-29470323D01*
X20909719Y-29366874D01*
X20848528Y-29246780D01*
X20848525Y-29246777D01*
X20829495Y-29227746D01*
X20801719Y-29173229D01*
X20800500Y-29157744D01*
X20800500Y-27342255D01*
X20819407Y-27284064D01*
X20829490Y-27272257D01*
X20848528Y-27253220D01*
X20909719Y-27133126D01*
X20930804Y-27000000D01*
X20909719Y-26866874D01*
X20848528Y-26746780D01*
X20848525Y-26746777D01*
X20829495Y-26727746D01*
X20801719Y-26673229D01*
X20800500Y-26657744D01*
X20800500Y-24842255D01*
X20819407Y-24784064D01*
X20829490Y-24772257D01*
X20848528Y-24753220D01*
X20909719Y-24633126D01*
X20930804Y-24500000D01*
X20909719Y-24366874D01*
X20848528Y-24246780D01*
X20848525Y-24246777D01*
X20829495Y-24227746D01*
X20801719Y-24173229D01*
X20800500Y-24157744D01*
X20800500Y-22342255D01*
X20819407Y-22284064D01*
X20829490Y-22272257D01*
X20848528Y-22253220D01*
X20909719Y-22133126D01*
X20930804Y-22000000D01*
X20909719Y-21866874D01*
X20848528Y-21746780D01*
X20848525Y-21746777D01*
X20829495Y-21727746D01*
X20801719Y-21673229D01*
X20800500Y-21657744D01*
X20800500Y-19842255D01*
X20819407Y-19784064D01*
X20829490Y-19772257D01*
X20848528Y-19753220D01*
X20909719Y-19633126D01*
X20930804Y-19500000D01*
X20909719Y-19366874D01*
X20848528Y-19246780D01*
X20848525Y-19246777D01*
X20829495Y-19227746D01*
X20801719Y-19173229D01*
X20800500Y-19157744D01*
X20800500Y-17342255D01*
X20819407Y-17284064D01*
X20829490Y-17272257D01*
X20848528Y-17253220D01*
X20909719Y-17133126D01*
X20930804Y-17000000D01*
X20909719Y-16866874D01*
X20848528Y-16746780D01*
X20848525Y-16746777D01*
X20829495Y-16727746D01*
X20801719Y-16673229D01*
X20800500Y-16657744D01*
X20800500Y-14842255D01*
X20819407Y-14784064D01*
X20829490Y-14772257D01*
X20848528Y-14753220D01*
X20909719Y-14633126D01*
X20930804Y-14500000D01*
X20909719Y-14366874D01*
X20848528Y-14246780D01*
X20848525Y-14246777D01*
X20829495Y-14227746D01*
X20801719Y-14173229D01*
X20800500Y-14157744D01*
X20800500Y-12342255D01*
X20819407Y-12284064D01*
X20829490Y-12272257D01*
X20848528Y-12253220D01*
X20909719Y-12133126D01*
X20930804Y-12000000D01*
X20930006Y-11994964D01*
X20916505Y-11909719D01*
X20909719Y-11866874D01*
X20848528Y-11746780D01*
X20848525Y-11746777D01*
X20829495Y-11727746D01*
X20801719Y-11673229D01*
X20800500Y-11657744D01*
X20800500Y-9842255D01*
X20819407Y-9784064D01*
X20829490Y-9772257D01*
X20848528Y-9753220D01*
X20909719Y-9633126D01*
X20930804Y-9500000D01*
X20909719Y-9366874D01*
X20848528Y-9246780D01*
X20845705Y-9243957D01*
X20829495Y-9227746D01*
X20801719Y-9173229D01*
X20800500Y-9157744D01*
X20800500Y-7342255D01*
X20819407Y-7284064D01*
X20829490Y-7272257D01*
X20848528Y-7253220D01*
X20909719Y-7133126D01*
X20930804Y-7000000D01*
X20909719Y-6866874D01*
X20848528Y-6746780D01*
X20753220Y-6651472D01*
X20753217Y-6651470D01*
X20633129Y-6590282D01*
X20633127Y-6590281D01*
X20500000Y-6569196D01*
X20366872Y-6590281D01*
X20366870Y-6590282D01*
X20246782Y-6651470D01*
X20151470Y-6746782D01*
X20090282Y-6866870D01*
X20090281Y-6866872D01*
X20069196Y-6999999D01*
X20069196Y-7000000D01*
X20090281Y-7133127D01*
X20090282Y-7133129D01*
X20149831Y-7250000D01*
X20151472Y-7253220D01*
X20170505Y-7272253D01*
X20198281Y-7326768D01*
X20199500Y-7342255D01*
X20199500Y-9157744D01*
X20180593Y-9215935D01*
X20170505Y-9227746D01*
X20151474Y-9246777D01*
X20151470Y-9246782D01*
X20090282Y-9366870D01*
X20090281Y-9366872D01*
X20069196Y-9499999D01*
X20069196Y-9500000D01*
X20090281Y-9633127D01*
X20090282Y-9633129D01*
X20149831Y-9750000D01*
X20151472Y-9753220D01*
X20170505Y-9772253D01*
X20198281Y-9826768D01*
X20199500Y-9842255D01*
X20199500Y-11657744D01*
X20180593Y-11715935D01*
X20170505Y-11727746D01*
X20151474Y-11746777D01*
X20151470Y-11746782D01*
X20090282Y-11866870D01*
X20090281Y-11866872D01*
X20069196Y-11999999D01*
X20069196Y-12000000D01*
X20090281Y-12133127D01*
X20090282Y-12133129D01*
X20151470Y-12253217D01*
X20151472Y-12253220D01*
X20170505Y-12272253D01*
X20198281Y-12326768D01*
X20199500Y-12342255D01*
X20199500Y-14157744D01*
X20180593Y-14215935D01*
X20170505Y-14227746D01*
X20151474Y-14246777D01*
X20151470Y-14246782D01*
X20090282Y-14366870D01*
X20090281Y-14366872D01*
X20069196Y-14499999D01*
X20069196Y-14500000D01*
X20090281Y-14633127D01*
X20090282Y-14633129D01*
X20151470Y-14753217D01*
X20151472Y-14753220D01*
X20170505Y-14772253D01*
X20198281Y-14826768D01*
X20199500Y-14842255D01*
X20199500Y-16657744D01*
X20180593Y-16715935D01*
X20170505Y-16727746D01*
X20151474Y-16746777D01*
X20151470Y-16746782D01*
X20090282Y-16866870D01*
X20090281Y-16866872D01*
X20069196Y-16999999D01*
X20069196Y-17000000D01*
X20090281Y-17133127D01*
X20090282Y-17133129D01*
X20151470Y-17253217D01*
X20151472Y-17253220D01*
X20170505Y-17272253D01*
X20198281Y-17326768D01*
X20199500Y-17342255D01*
X20199500Y-19157744D01*
X20180593Y-19215935D01*
X20170505Y-19227746D01*
X20151474Y-19246777D01*
X20151470Y-19246782D01*
X20090282Y-19366870D01*
X20090281Y-19366872D01*
X20069196Y-19499999D01*
X20069196Y-19500000D01*
X20090281Y-19633127D01*
X20090282Y-19633129D01*
X20149831Y-19750000D01*
X20151472Y-19753220D01*
X20170505Y-19772253D01*
X20198281Y-19826768D01*
X20199500Y-19842255D01*
X20199500Y-21657744D01*
X20180593Y-21715935D01*
X20170505Y-21727746D01*
X20151474Y-21746777D01*
X20151470Y-21746782D01*
X20090282Y-21866870D01*
X20090281Y-21866872D01*
X20069196Y-21999999D01*
X20069196Y-22000000D01*
X20090281Y-22133127D01*
X20090282Y-22133129D01*
X20151470Y-22253217D01*
X20151472Y-22253220D01*
X20170505Y-22272253D01*
X20198281Y-22326768D01*
X20199500Y-22342255D01*
X20199500Y-24157744D01*
X20180593Y-24215935D01*
X20170505Y-24227746D01*
X20151474Y-24246777D01*
X20151470Y-24246782D01*
X20090282Y-24366870D01*
X20090281Y-24366872D01*
X20069196Y-24499999D01*
X20069196Y-24500000D01*
X20090281Y-24633127D01*
X20090282Y-24633129D01*
X20149831Y-24750000D01*
X20151472Y-24753220D01*
X20170505Y-24772253D01*
X20198281Y-24826768D01*
X20199500Y-24842255D01*
X20199500Y-26657744D01*
X20180593Y-26715935D01*
X20170505Y-26727746D01*
X20151474Y-26746777D01*
X20151470Y-26746782D01*
X20090282Y-26866870D01*
X20090281Y-26866872D01*
X20069196Y-26999999D01*
X20069196Y-27000000D01*
X20090281Y-27133127D01*
X20090282Y-27133129D01*
X20149831Y-27250000D01*
X20151472Y-27253220D01*
X20170505Y-27272253D01*
X20198281Y-27326768D01*
X20199500Y-27342255D01*
X20199500Y-29157744D01*
X20180593Y-29215935D01*
X20170505Y-29227746D01*
X20151474Y-29246777D01*
X20151470Y-29246782D01*
X20090282Y-29366870D01*
X20090281Y-29366872D01*
X20069196Y-29499999D01*
X20069196Y-29500000D01*
X18430804Y-29500000D01*
X18430006Y-29494964D01*
X18426104Y-29470323D01*
X18409719Y-29366874D01*
X18348528Y-29246780D01*
X18348525Y-29246777D01*
X18329495Y-29227746D01*
X18301719Y-29173229D01*
X18300500Y-29157744D01*
X18300500Y-27342255D01*
X18319407Y-27284064D01*
X18329490Y-27272257D01*
X18348528Y-27253220D01*
X18409719Y-27133126D01*
X18430804Y-27000000D01*
X18409719Y-26866874D01*
X18348528Y-26746780D01*
X18348525Y-26746777D01*
X18329495Y-26727746D01*
X18301719Y-26673229D01*
X18300500Y-26657744D01*
X18300500Y-24842255D01*
X18319407Y-24784064D01*
X18329490Y-24772257D01*
X18348528Y-24753220D01*
X18409719Y-24633126D01*
X18430804Y-24500000D01*
X18409719Y-24366874D01*
X18348528Y-24246780D01*
X18348525Y-24246777D01*
X18329495Y-24227746D01*
X18301719Y-24173229D01*
X18300500Y-24157744D01*
X18300500Y-22342255D01*
X18319407Y-22284064D01*
X18329490Y-22272257D01*
X18348528Y-22253220D01*
X18409719Y-22133126D01*
X18430804Y-22000000D01*
X18409719Y-21866874D01*
X18348528Y-21746780D01*
X18348525Y-21746777D01*
X18329495Y-21727746D01*
X18301719Y-21673229D01*
X18300500Y-21657744D01*
X18300500Y-19842255D01*
X18319407Y-19784064D01*
X18329490Y-19772257D01*
X18348528Y-19753220D01*
X18409719Y-19633126D01*
X18430804Y-19500000D01*
X18409719Y-19366874D01*
X18348528Y-19246780D01*
X18348525Y-19246777D01*
X18329495Y-19227746D01*
X18301719Y-19173229D01*
X18300500Y-19157744D01*
X18300500Y-17342255D01*
X18319407Y-17284064D01*
X18329490Y-17272257D01*
X18348528Y-17253220D01*
X18409719Y-17133126D01*
X18430804Y-17000000D01*
X18409719Y-16866874D01*
X18348528Y-16746780D01*
X18348525Y-16746777D01*
X18329495Y-16727746D01*
X18301719Y-16673229D01*
X18300500Y-16657744D01*
X18300500Y-14842255D01*
X18319407Y-14784064D01*
X18329490Y-14772257D01*
X18348528Y-14753220D01*
X18409719Y-14633126D01*
X18430804Y-14500000D01*
X18409719Y-14366874D01*
X18348528Y-14246780D01*
X18348525Y-14246777D01*
X18329495Y-14227746D01*
X18301719Y-14173229D01*
X18300500Y-14157744D01*
X18300500Y-12342255D01*
X18319407Y-12284064D01*
X18329490Y-12272257D01*
X18348528Y-12253220D01*
X18409719Y-12133126D01*
X18430804Y-12000000D01*
X18430006Y-11994964D01*
X18416505Y-11909719D01*
X18409719Y-11866874D01*
X18348528Y-11746780D01*
X18348525Y-11746777D01*
X18329495Y-11727746D01*
X18301719Y-11673229D01*
X18300500Y-11657744D01*
X18300500Y-9842255D01*
X18319407Y-9784064D01*
X18329490Y-9772257D01*
X18348528Y-9753220D01*
X18409719Y-9633126D01*
X18430804Y-9500000D01*
X18409719Y-9366874D01*
X18348528Y-9246780D01*
X18345705Y-9243957D01*
X18329495Y-9227746D01*
X18301719Y-9173229D01*
X18300500Y-9157744D01*
X18300500Y-7342255D01*
X18319407Y-7284064D01*
X18329490Y-7272257D01*
X18348528Y-7253220D01*
X18409719Y-7133126D01*
X18430804Y-7000000D01*
X18409719Y-6866874D01*
X18348528Y-6746780D01*
X18253220Y-6651472D01*
X18253217Y-6651470D01*
X18133129Y-6590282D01*
X18133127Y-6590281D01*
X18000000Y-6569196D01*
X17866872Y-6590281D01*
X17866870Y-6590282D01*
X17746782Y-6651470D01*
X17651470Y-6746782D01*
X17590282Y-6866870D01*
X17590281Y-6866872D01*
X17569196Y-6999999D01*
X17569196Y-7000000D01*
X17590281Y-7133127D01*
X17590282Y-7133129D01*
X17649831Y-7250000D01*
X17651472Y-7253220D01*
X17670505Y-7272253D01*
X17698281Y-7326768D01*
X17699500Y-7342255D01*
X17699500Y-9157744D01*
X17680593Y-9215935D01*
X17670505Y-9227746D01*
X17651474Y-9246777D01*
X17651470Y-9246782D01*
X17590282Y-9366870D01*
X17590281Y-9366872D01*
X17569196Y-9499999D01*
X17569196Y-9500000D01*
X17590281Y-9633127D01*
X17590282Y-9633129D01*
X17649831Y-9750000D01*
X17651472Y-9753220D01*
X17670505Y-9772253D01*
X17698281Y-9826768D01*
X17699500Y-9842255D01*
X17699500Y-11657744D01*
X17680593Y-11715935D01*
X17670505Y-11727746D01*
X17651474Y-11746777D01*
X17651470Y-11746782D01*
X17590282Y-11866870D01*
X17590281Y-11866872D01*
X17569196Y-11999999D01*
X17569196Y-12000000D01*
X17590281Y-12133127D01*
X17590282Y-12133129D01*
X17651470Y-12253217D01*
X17651472Y-12253220D01*
X17670505Y-12272253D01*
X17698281Y-12326768D01*
X17699500Y-12342255D01*
X17699500Y-14157744D01*
X17680593Y-14215935D01*
X17670505Y-14227746D01*
X17651474Y-14246777D01*
X17651470Y-14246782D01*
X17590282Y-14366870D01*
X17590281Y-14366872D01*
X17569196Y-14499999D01*
X17569196Y-14500000D01*
X17590281Y-14633127D01*
X17590282Y-14633129D01*
X17651470Y-14753217D01*
X17651472Y-14753220D01*
X17670505Y-14772253D01*
X17698281Y-14826768D01*
X17699500Y-14842255D01*
X17699500Y-16657744D01*
X17680593Y-16715935D01*
X17670505Y-16727746D01*
X17651474Y-16746777D01*
X17651470Y-16746782D01*
X17590282Y-16866870D01*
X17590281Y-16866872D01*
X17569196Y-16999999D01*
X17569196Y-17000000D01*
X17590281Y-17133127D01*
X17590282Y-17133129D01*
X17651470Y-17253217D01*
X17651472Y-17253220D01*
X17670505Y-17272253D01*
X17698281Y-17326768D01*
X17699500Y-17342255D01*
X17699500Y-19157744D01*
X17680593Y-19215935D01*
X17670505Y-19227746D01*
X17651474Y-19246777D01*
X17651470Y-19246782D01*
X17590282Y-19366870D01*
X17590281Y-19366872D01*
X17569196Y-19499999D01*
X17569196Y-19500000D01*
X17590281Y-19633127D01*
X17590282Y-19633129D01*
X17649831Y-19750000D01*
X17651472Y-19753220D01*
X17670505Y-19772253D01*
X17698281Y-19826768D01*
X17699500Y-19842255D01*
X17699500Y-21657744D01*
X17680593Y-21715935D01*
X17670505Y-21727746D01*
X17651474Y-21746777D01*
X17651470Y-21746782D01*
X17590282Y-21866870D01*
X17590281Y-21866872D01*
X17569196Y-21999999D01*
X17569196Y-22000000D01*
X17590281Y-22133127D01*
X17590282Y-22133129D01*
X17651470Y-22253217D01*
X17651472Y-22253220D01*
X17670505Y-22272253D01*
X17698281Y-22326768D01*
X17699500Y-22342255D01*
X17699500Y-24157744D01*
X17680593Y-24215935D01*
X17670505Y-24227746D01*
X17651474Y-24246777D01*
X17651470Y-24246782D01*
X17590282Y-24366870D01*
X17590281Y-24366872D01*
X17569196Y-24499999D01*
X17569196Y-24500000D01*
X17590281Y-24633127D01*
X17590282Y-24633129D01*
X17649831Y-24750000D01*
X17651472Y-24753220D01*
X17670505Y-24772253D01*
X17698281Y-24826768D01*
X17699500Y-24842255D01*
X17699500Y-26657744D01*
X17680593Y-26715935D01*
X17670505Y-26727746D01*
X17651474Y-26746777D01*
X17651470Y-26746782D01*
X17590282Y-26866870D01*
X17590281Y-26866872D01*
X17569196Y-26999999D01*
X17569196Y-27000000D01*
X17590281Y-27133127D01*
X17590282Y-27133129D01*
X17649831Y-27250000D01*
X17651472Y-27253220D01*
X17670505Y-27272253D01*
X17698281Y-27326768D01*
X17699500Y-27342255D01*
X17699500Y-29157744D01*
X17680593Y-29215935D01*
X17670505Y-29227746D01*
X17651474Y-29246777D01*
X17651470Y-29246782D01*
X17590282Y-29366870D01*
X17590281Y-29366872D01*
X17569196Y-29499999D01*
X17569196Y-29500000D01*
X15930804Y-29500000D01*
X15930006Y-29494964D01*
X15926104Y-29470323D01*
X15909719Y-29366874D01*
X15848528Y-29246780D01*
X15848525Y-29246777D01*
X15829495Y-29227746D01*
X15801719Y-29173229D01*
X15800500Y-29157744D01*
X15800500Y-27342255D01*
X15819407Y-27284064D01*
X15829490Y-27272257D01*
X15848528Y-27253220D01*
X15909719Y-27133126D01*
X15930804Y-27000000D01*
X15909719Y-26866874D01*
X15848528Y-26746780D01*
X15848525Y-26746777D01*
X15829495Y-26727746D01*
X15801719Y-26673229D01*
X15800500Y-26657744D01*
X15800500Y-24842255D01*
X15819407Y-24784064D01*
X15829490Y-24772257D01*
X15848528Y-24753220D01*
X15909719Y-24633126D01*
X15930804Y-24500000D01*
X15909719Y-24366874D01*
X15848528Y-24246780D01*
X15848525Y-24246777D01*
X15829495Y-24227746D01*
X15801719Y-24173229D01*
X15800500Y-24157744D01*
X15800500Y-22342255D01*
X15819407Y-22284064D01*
X15829490Y-22272257D01*
X15848528Y-22253220D01*
X15909719Y-22133126D01*
X15930804Y-22000000D01*
X15909719Y-21866874D01*
X15848528Y-21746780D01*
X15848525Y-21746777D01*
X15829495Y-21727746D01*
X15801719Y-21673229D01*
X15800500Y-21657744D01*
X15800500Y-19842255D01*
X15819407Y-19784064D01*
X15829490Y-19772257D01*
X15848528Y-19753220D01*
X15909719Y-19633126D01*
X15930804Y-19500000D01*
X15909719Y-19366874D01*
X15848528Y-19246780D01*
X15848525Y-19246777D01*
X15829495Y-19227746D01*
X15801719Y-19173229D01*
X15800500Y-19157744D01*
X15800500Y-17342255D01*
X15819407Y-17284064D01*
X15829490Y-17272257D01*
X15848528Y-17253220D01*
X15909719Y-17133126D01*
X15930804Y-17000000D01*
X15909719Y-16866874D01*
X15848528Y-16746780D01*
X15848525Y-16746777D01*
X15829495Y-16727746D01*
X15801719Y-16673229D01*
X15800500Y-16657744D01*
X15800500Y-14842255D01*
X15819407Y-14784064D01*
X15829490Y-14772257D01*
X15848528Y-14753220D01*
X15909719Y-14633126D01*
X15930804Y-14500000D01*
X15909719Y-14366874D01*
X15848528Y-14246780D01*
X15848525Y-14246777D01*
X15829495Y-14227746D01*
X15801719Y-14173229D01*
X15800500Y-14157744D01*
X15800500Y-12342255D01*
X15819407Y-12284064D01*
X15829490Y-12272257D01*
X15848528Y-12253220D01*
X15909719Y-12133126D01*
X15930804Y-12000000D01*
X15930006Y-11994964D01*
X15916505Y-11909719D01*
X15909719Y-11866874D01*
X15848528Y-11746780D01*
X15848525Y-11746777D01*
X15829495Y-11727746D01*
X15801719Y-11673229D01*
X15800500Y-11657744D01*
X15800500Y-9842255D01*
X15819407Y-9784064D01*
X15829490Y-9772257D01*
X15848528Y-9753220D01*
X15909719Y-9633126D01*
X15930804Y-9500000D01*
X15909719Y-9366874D01*
X15848528Y-9246780D01*
X15845705Y-9243957D01*
X15829495Y-9227746D01*
X15801719Y-9173229D01*
X15800500Y-9157744D01*
X15800500Y-7342255D01*
X15819407Y-7284064D01*
X15829490Y-7272257D01*
X15848528Y-7253220D01*
X15909719Y-7133126D01*
X15930804Y-7000000D01*
X15909719Y-6866874D01*
X15848528Y-6746780D01*
X15753220Y-6651472D01*
X15753217Y-6651470D01*
X15633129Y-6590282D01*
X15633127Y-6590281D01*
X15500000Y-6569196D01*
X15366872Y-6590281D01*
X15366870Y-6590282D01*
X15246782Y-6651470D01*
X15151470Y-6746782D01*
X15090282Y-6866870D01*
X15090281Y-6866872D01*
X15069196Y-6999999D01*
X15069196Y-7000000D01*
X15090281Y-7133127D01*
X15090282Y-7133129D01*
X15149831Y-7250000D01*
X15151472Y-7253220D01*
X15170505Y-7272253D01*
X15198281Y-7326768D01*
X15199500Y-7342255D01*
X15199500Y-9157744D01*
X15180593Y-9215935D01*
X15170505Y-9227746D01*
X15151474Y-9246777D01*
X15151470Y-9246782D01*
X15090282Y-9366870D01*
X15090281Y-9366872D01*
X15069196Y-9499999D01*
X15069196Y-9500000D01*
X15090281Y-9633127D01*
X15090282Y-9633129D01*
X15149831Y-9750000D01*
X15151472Y-9753220D01*
X15170505Y-9772253D01*
X15198281Y-9826768D01*
X15199500Y-9842255D01*
X15199500Y-11657744D01*
X15180593Y-11715935D01*
X15170505Y-11727746D01*
X15151474Y-11746777D01*
X15151470Y-11746782D01*
X15090282Y-11866870D01*
X15090281Y-11866872D01*
X15069196Y-11999999D01*
X15069196Y-12000000D01*
X15090281Y-12133127D01*
X15090282Y-12133129D01*
X15151470Y-12253217D01*
X15151472Y-12253220D01*
X15170505Y-12272253D01*
X15198281Y-12326768D01*
X15199500Y-12342255D01*
X15199500Y-14157744D01*
X15180593Y-14215935D01*
X15170505Y-14227746D01*
X15151474Y-14246777D01*
X15151470Y-14246782D01*
X15090282Y-14366870D01*
X15090281Y-14366872D01*
X15069196Y-14499999D01*
X15069196Y-14500000D01*
X15090281Y-14633127D01*
X15090282Y-14633129D01*
X15151470Y-14753217D01*
X15151472Y-14753220D01*
X15170505Y-14772253D01*
X15198281Y-14826768D01*
X15199500Y-14842255D01*
X15199500Y-16657744D01*
X15180593Y-16715935D01*
X15170505Y-16727746D01*
X15151474Y-16746777D01*
X15151470Y-16746782D01*
X15090282Y-16866870D01*
X15090281Y-16866872D01*
X15069196Y-16999999D01*
X15069196Y-17000000D01*
X15090281Y-17133127D01*
X15090282Y-17133129D01*
X15151470Y-17253217D01*
X15151472Y-17253220D01*
X15170505Y-17272253D01*
X15198281Y-17326768D01*
X15199500Y-17342255D01*
X15199500Y-19157744D01*
X15180593Y-19215935D01*
X15170505Y-19227746D01*
X15151474Y-19246777D01*
X15151470Y-19246782D01*
X15090282Y-19366870D01*
X15090281Y-19366872D01*
X15069196Y-19499999D01*
X15069196Y-19500000D01*
X15090281Y-19633127D01*
X15090282Y-19633129D01*
X15149831Y-19750000D01*
X15151472Y-19753220D01*
X15170505Y-19772253D01*
X15198281Y-19826768D01*
X15199500Y-19842255D01*
X15199500Y-21657744D01*
X15180593Y-21715935D01*
X15170505Y-21727746D01*
X15151474Y-21746777D01*
X15151470Y-21746782D01*
X15090282Y-21866870D01*
X15090281Y-21866872D01*
X15069196Y-21999999D01*
X15069196Y-22000000D01*
X15090281Y-22133127D01*
X15090282Y-22133129D01*
X15151470Y-22253217D01*
X15151472Y-22253220D01*
X15170505Y-22272253D01*
X15198281Y-22326768D01*
X15199500Y-22342255D01*
X15199500Y-24157744D01*
X15180593Y-24215935D01*
X15170505Y-24227746D01*
X15151474Y-24246777D01*
X15151470Y-24246782D01*
X15090282Y-24366870D01*
X15090281Y-24366872D01*
X15069196Y-24499999D01*
X15069196Y-24500000D01*
X15090281Y-24633127D01*
X15090282Y-24633129D01*
X15149831Y-24750000D01*
X15151472Y-24753220D01*
X15170505Y-24772253D01*
X15198281Y-24826768D01*
X15199500Y-24842255D01*
X15199500Y-26657744D01*
X15180593Y-26715935D01*
X15170505Y-26727746D01*
X15151474Y-26746777D01*
X15151470Y-26746782D01*
X15090282Y-26866870D01*
X15090281Y-26866872D01*
X15069196Y-26999999D01*
X15069196Y-27000000D01*
X15090281Y-27133127D01*
X15090282Y-27133129D01*
X15149831Y-27250000D01*
X15151472Y-27253220D01*
X15170505Y-27272253D01*
X15198281Y-27326768D01*
X15199500Y-27342255D01*
X15199500Y-29157744D01*
X15180593Y-29215935D01*
X15170505Y-29227746D01*
X15151474Y-29246777D01*
X15151470Y-29246782D01*
X15090282Y-29366870D01*
X15090281Y-29366872D01*
X15069196Y-29499999D01*
X15069196Y-29500000D01*
X13430804Y-29500000D01*
X13430006Y-29494964D01*
X13426104Y-29470323D01*
X13409719Y-29366874D01*
X13348528Y-29246780D01*
X13348525Y-29246777D01*
X13329495Y-29227746D01*
X13301719Y-29173229D01*
X13300500Y-29157744D01*
X13300500Y-27342255D01*
X13319407Y-27284064D01*
X13329490Y-27272257D01*
X13348528Y-27253220D01*
X13409719Y-27133126D01*
X13430804Y-27000000D01*
X13409719Y-26866874D01*
X13348528Y-26746780D01*
X13348525Y-26746777D01*
X13329495Y-26727746D01*
X13301719Y-26673229D01*
X13300500Y-26657744D01*
X13300500Y-24842255D01*
X13319407Y-24784064D01*
X13329490Y-24772257D01*
X13348528Y-24753220D01*
X13409719Y-24633126D01*
X13430804Y-24500000D01*
X13409719Y-24366874D01*
X13348528Y-24246780D01*
X13348525Y-24246777D01*
X13329495Y-24227746D01*
X13301719Y-24173229D01*
X13300500Y-24157744D01*
X13300500Y-22342255D01*
X13319407Y-22284064D01*
X13329490Y-22272257D01*
X13348528Y-22253220D01*
X13409719Y-22133126D01*
X13430804Y-22000000D01*
X13409719Y-21866874D01*
X13348528Y-21746780D01*
X13348525Y-21746777D01*
X13329495Y-21727746D01*
X13301719Y-21673229D01*
X13300500Y-21657744D01*
X13300500Y-19842255D01*
X13319407Y-19784064D01*
X13329490Y-19772257D01*
X13348528Y-19753220D01*
X13409719Y-19633126D01*
X13430804Y-19500000D01*
X13409719Y-19366874D01*
X13348528Y-19246780D01*
X13348525Y-19246777D01*
X13329495Y-19227746D01*
X13301719Y-19173229D01*
X13300500Y-19157744D01*
X13300500Y-17342255D01*
X13319407Y-17284064D01*
X13329490Y-17272257D01*
X13348528Y-17253220D01*
X13409719Y-17133126D01*
X13430804Y-17000000D01*
X13409719Y-16866874D01*
X13348528Y-16746780D01*
X13348525Y-16746777D01*
X13329495Y-16727746D01*
X13301719Y-16673229D01*
X13300500Y-16657744D01*
X13300500Y-14842255D01*
X13319407Y-14784064D01*
X13329490Y-14772257D01*
X13348528Y-14753220D01*
X13409719Y-14633126D01*
X13430804Y-14500000D01*
X13409719Y-14366874D01*
X13348528Y-14246780D01*
X13348525Y-14246777D01*
X13329495Y-14227746D01*
X13301719Y-14173229D01*
X13300500Y-14157744D01*
X13300500Y-12342255D01*
X13319407Y-12284064D01*
X13329490Y-12272257D01*
X13348528Y-12253220D01*
X13409719Y-12133126D01*
X13430804Y-12000000D01*
X13430006Y-11994964D01*
X13416505Y-11909719D01*
X13409719Y-11866874D01*
X13348528Y-11746780D01*
X13348525Y-11746777D01*
X13329495Y-11727746D01*
X13301719Y-11673229D01*
X13300500Y-11657744D01*
X13300500Y-9842255D01*
X13319407Y-9784064D01*
X13329490Y-9772257D01*
X13348528Y-9753220D01*
X13409719Y-9633126D01*
X13430804Y-9500000D01*
X13409719Y-9366874D01*
X13348528Y-9246780D01*
X13345705Y-9243957D01*
X13329495Y-9227746D01*
X13301719Y-9173229D01*
X13300500Y-9157744D01*
X13300500Y-7592255D01*
X13319407Y-7534064D01*
X13329490Y-7522257D01*
X13348528Y-7503220D01*
X13409719Y-7383126D01*
X13430804Y-7250000D01*
X13409719Y-7116874D01*
X13348528Y-6996780D01*
X13253220Y-6901472D01*
X13253217Y-6901470D01*
X13133129Y-6840282D01*
X13133127Y-6840281D01*
X13000000Y-6819196D01*
X12866872Y-6840281D01*
X12866870Y-6840282D01*
X12746782Y-6901470D01*
X12651470Y-6996782D01*
X12590282Y-7116870D01*
X12590281Y-7116872D01*
X12569196Y-7249999D01*
X12569196Y-7250000D01*
X12590281Y-7383127D01*
X12590282Y-7383129D01*
X12649831Y-7500000D01*
X12651472Y-7503220D01*
X12670505Y-7522253D01*
X12698281Y-7576768D01*
X12699500Y-7592255D01*
X12699500Y-9157744D01*
X12680593Y-9215935D01*
X12670505Y-9227746D01*
X12651474Y-9246777D01*
X12651470Y-9246782D01*
X12590282Y-9366870D01*
X12590281Y-9366872D01*
X12569196Y-9499999D01*
X12569196Y-9500000D01*
X12590281Y-9633127D01*
X12590282Y-9633129D01*
X12649831Y-9750000D01*
X12651472Y-9753220D01*
X12670505Y-9772253D01*
X12698281Y-9826768D01*
X12699500Y-9842255D01*
X12699500Y-11657744D01*
X12680593Y-11715935D01*
X12670505Y-11727746D01*
X12651474Y-11746777D01*
X12651470Y-11746782D01*
X12590282Y-11866870D01*
X12590281Y-11866872D01*
X12569196Y-11999999D01*
X12569196Y-12000000D01*
X12590281Y-12133127D01*
X12590282Y-12133129D01*
X12651470Y-12253217D01*
X12651472Y-12253220D01*
X12670505Y-12272253D01*
X12698281Y-12326768D01*
X12699500Y-12342255D01*
X12699500Y-14157744D01*
X12680593Y-14215935D01*
X12670505Y-14227746D01*
X12651474Y-14246777D01*
X12651470Y-14246782D01*
X12590282Y-14366870D01*
X12590281Y-14366872D01*
X12569196Y-14499999D01*
X12569196Y-14500000D01*
X12590281Y-14633127D01*
X12590282Y-14633129D01*
X12651470Y-14753217D01*
X12651472Y-14753220D01*
X12670505Y-14772253D01*
X12698281Y-14826768D01*
X12699500Y-14842255D01*
X12699500Y-16657744D01*
X12680593Y-16715935D01*
X12670505Y-16727746D01*
X12651474Y-16746777D01*
X12651470Y-16746782D01*
X12590282Y-16866870D01*
X12590281Y-16866872D01*
X12569196Y-16999999D01*
X12569196Y-17000000D01*
X12590281Y-17133127D01*
X12590282Y-17133129D01*
X12651470Y-17253217D01*
X12651472Y-17253220D01*
X12670505Y-17272253D01*
X12698281Y-17326768D01*
X12699500Y-17342255D01*
X12699500Y-19157744D01*
X12680593Y-19215935D01*
X12670505Y-19227746D01*
X12651474Y-19246777D01*
X12651470Y-19246782D01*
X12590282Y-19366870D01*
X12590281Y-19366872D01*
X12569196Y-19499999D01*
X12569196Y-19500000D01*
X12590281Y-19633127D01*
X12590282Y-19633129D01*
X12649831Y-19750000D01*
X12651472Y-19753220D01*
X12670505Y-19772253D01*
X12698281Y-19826768D01*
X12699500Y-19842255D01*
X12699500Y-21657744D01*
X12680593Y-21715935D01*
X12670505Y-21727746D01*
X12651474Y-21746777D01*
X12651470Y-21746782D01*
X12590282Y-21866870D01*
X12590281Y-21866872D01*
X12569196Y-21999999D01*
X12569196Y-22000000D01*
X12590281Y-22133127D01*
X12590282Y-22133129D01*
X12651470Y-22253217D01*
X12651472Y-22253220D01*
X12670505Y-22272253D01*
X12698281Y-22326768D01*
X12699500Y-22342255D01*
X12699500Y-24157744D01*
X12680593Y-24215935D01*
X12670505Y-24227746D01*
X12651474Y-24246777D01*
X12651470Y-24246782D01*
X12590282Y-24366870D01*
X12590281Y-24366872D01*
X12569196Y-24499999D01*
X12569196Y-24500000D01*
X12590281Y-24633127D01*
X12590282Y-24633129D01*
X12649831Y-24750000D01*
X12651472Y-24753220D01*
X12670505Y-24772253D01*
X12698281Y-24826768D01*
X12699500Y-24842255D01*
X12699500Y-26657744D01*
X12680593Y-26715935D01*
X12670505Y-26727746D01*
X12651474Y-26746777D01*
X12651470Y-26746782D01*
X12590282Y-26866870D01*
X12590281Y-26866872D01*
X12569196Y-26999999D01*
X12569196Y-27000000D01*
X12590281Y-27133127D01*
X12590282Y-27133129D01*
X12649831Y-27250000D01*
X12651472Y-27253220D01*
X12670505Y-27272253D01*
X12698281Y-27326768D01*
X12699500Y-27342255D01*
X12699500Y-29157744D01*
X12680593Y-29215935D01*
X12670505Y-29227746D01*
X12651474Y-29246777D01*
X12651470Y-29246782D01*
X12590282Y-29366870D01*
X12590281Y-29366872D01*
X12569196Y-29499999D01*
X12569196Y-29500000D01*
X10930804Y-29500000D01*
X10930006Y-29494964D01*
X10926104Y-29470323D01*
X10909719Y-29366874D01*
X10848528Y-29246780D01*
X10848525Y-29246777D01*
X10829495Y-29227746D01*
X10801719Y-29173229D01*
X10800500Y-29157744D01*
X10800500Y-27342255D01*
X10819407Y-27284064D01*
X10829490Y-27272257D01*
X10848528Y-27253220D01*
X10909719Y-27133126D01*
X10930804Y-27000000D01*
X10909719Y-26866874D01*
X10848528Y-26746780D01*
X10848525Y-26746777D01*
X10829495Y-26727746D01*
X10801719Y-26673229D01*
X10800500Y-26657744D01*
X10800500Y-24842255D01*
X10819407Y-24784064D01*
X10829490Y-24772257D01*
X10848528Y-24753220D01*
X10909719Y-24633126D01*
X10930804Y-24500000D01*
X10909719Y-24366874D01*
X10848528Y-24246780D01*
X10848525Y-24246777D01*
X10829495Y-24227746D01*
X10801719Y-24173229D01*
X10800500Y-24157744D01*
X10800500Y-22342255D01*
X10819407Y-22284064D01*
X10829490Y-22272257D01*
X10848528Y-22253220D01*
X10909719Y-22133126D01*
X10930804Y-22000000D01*
X10909719Y-21866874D01*
X10848528Y-21746780D01*
X10848525Y-21746777D01*
X10829495Y-21727746D01*
X10801719Y-21673229D01*
X10800500Y-21657744D01*
X10800500Y-19842255D01*
X10819407Y-19784064D01*
X10829490Y-19772257D01*
X10848528Y-19753220D01*
X10909719Y-19633126D01*
X10930804Y-19500000D01*
X10909719Y-19366874D01*
X10848528Y-19246780D01*
X10848525Y-19246777D01*
X10829495Y-19227746D01*
X10801719Y-19173229D01*
X10800500Y-19157744D01*
X10800500Y-17342255D01*
X10819407Y-17284064D01*
X10829490Y-17272257D01*
X10848528Y-17253220D01*
X10909719Y-17133126D01*
X10930804Y-17000000D01*
X10909719Y-16866874D01*
X10848528Y-16746780D01*
X10848525Y-16746777D01*
X10829495Y-16727746D01*
X10801719Y-16673229D01*
X10800500Y-16657744D01*
X10800500Y-14842255D01*
X10819407Y-14784064D01*
X10829490Y-14772257D01*
X10848528Y-14753220D01*
X10909719Y-14633126D01*
X10930804Y-14500000D01*
X10909719Y-14366874D01*
X10848528Y-14246780D01*
X10848525Y-14246777D01*
X10829495Y-14227746D01*
X10801719Y-14173229D01*
X10800500Y-14157744D01*
X10800500Y-12342255D01*
X10819407Y-12284064D01*
X10829490Y-12272257D01*
X10848528Y-12253220D01*
X10909719Y-12133126D01*
X10930804Y-12000000D01*
X10930006Y-11994964D01*
X10916505Y-11909719D01*
X10909719Y-11866874D01*
X10848528Y-11746780D01*
X10848525Y-11746777D01*
X10829495Y-11727746D01*
X10801719Y-11673229D01*
X10800500Y-11657744D01*
X10800500Y-10065168D01*
X10802731Y-10051495D01*
X10801505Y-10051324D01*
X10802773Y-10042232D01*
X10800969Y-10003217D01*
X10800552Y-9994207D01*
X10800500Y-9991928D01*
X10800500Y-9972160D01*
X10800500Y-9972156D01*
X10799846Y-9968664D01*
X10799056Y-9961859D01*
X10797585Y-9930008D01*
X10793614Y-9921016D01*
X10786864Y-9899214D01*
X10785061Y-9889568D01*
X10785061Y-9889567D01*
X10768276Y-9862458D01*
X10765088Y-9856410D01*
X10752206Y-9827234D01*
X10752205Y-9827233D01*
X10752204Y-9827231D01*
X10745254Y-9820281D01*
X10731037Y-9802314D01*
X10730822Y-9801966D01*
X10716323Y-9742524D01*
X10739531Y-9685911D01*
X10745029Y-9679940D01*
X11166405Y-9258564D01*
X11177664Y-9250493D01*
X11176905Y-9249487D01*
X11184221Y-9243961D01*
X11184228Y-9243958D01*
X11216632Y-9208411D01*
X11218186Y-9206783D01*
X11232174Y-9192797D01*
X11234181Y-9189865D01*
X11238440Y-9184490D01*
X11248706Y-9173229D01*
X11259916Y-9160933D01*
X11263465Y-9151770D01*
X11274106Y-9131582D01*
X11279656Y-9123481D01*
X11286955Y-9092443D01*
X11288977Y-9085914D01*
X11300500Y-9056173D01*
X11300500Y-9046348D01*
X11303129Y-9023683D01*
X11305379Y-9014119D01*
X11300975Y-8982546D01*
X11300500Y-8975699D01*
X11300500Y-7092255D01*
X11319407Y-7034064D01*
X11329490Y-7022257D01*
X11348528Y-7003220D01*
X11409719Y-6883126D01*
X11430804Y-6750000D01*
X11409719Y-6616874D01*
X11348528Y-6496780D01*
X11253220Y-6401472D01*
X11253217Y-6401470D01*
X11133129Y-6340282D01*
X11133127Y-6340281D01*
X11000000Y-6319196D01*
X10866872Y-6340281D01*
X10866870Y-6340282D01*
X10746782Y-6401470D01*
X10651470Y-6496782D01*
X10590282Y-6616870D01*
X10590281Y-6616872D01*
X10569196Y-6749999D01*
X10569196Y-6750000D01*
X10590281Y-6883127D01*
X10590282Y-6883129D01*
X10649831Y-7000000D01*
X10651472Y-7003220D01*
X10670505Y-7022253D01*
X10698281Y-7076768D01*
X10699500Y-7092255D01*
X10699500Y-8834521D01*
X10680593Y-8892712D01*
X10670503Y-8904525D01*
X10279675Y-9295352D01*
X10225160Y-9323129D01*
X10116872Y-9340281D01*
X10116870Y-9340282D01*
X9996782Y-9401470D01*
X9901470Y-9496782D01*
X9840282Y-9616870D01*
X9840281Y-9616872D01*
X9819196Y-9749999D01*
X9819196Y-9750000D01*
X6680804Y-9750000D01*
X6680006Y-9744964D01*
X6670653Y-9685911D01*
X6659719Y-9616874D01*
X6598528Y-9496780D01*
X6503220Y-9401472D01*
X6503217Y-9401470D01*
X6383129Y-9340282D01*
X6383127Y-9340281D01*
X6250000Y-9319196D01*
X6240565Y-9320690D01*
X6180134Y-9311116D01*
X6136871Y-9267850D01*
X6127301Y-9207417D01*
X6136870Y-9177968D01*
X6159719Y-9133126D01*
X6180804Y-9000000D01*
X6159719Y-8866874D01*
X6098528Y-8746780D01*
X6003220Y-8651472D01*
X6003217Y-8651470D01*
X5883129Y-8590282D01*
X5883127Y-8590281D01*
X5750000Y-8569196D01*
X5616872Y-8590281D01*
X5616870Y-8590282D01*
X5496782Y-8651470D01*
X5401470Y-8746782D01*
X5340282Y-8866870D01*
X5340281Y-8866872D01*
X5319196Y-8999999D01*
X5319196Y-9000000D01*
X200500Y-9000000D01*
X200500Y-8736500D01*
X219407Y-8678309D01*
X268907Y-8642345D01*
X330093Y-8642345D01*
X344437Y-8648287D01*
X366874Y-8659719D01*
X500000Y-8680804D01*
X633126Y-8659719D01*
X753220Y-8598528D01*
X848528Y-8503220D01*
X909719Y-8383126D01*
X930804Y-8250000D01*
X909719Y-8116874D01*
X848528Y-7996780D01*
X753220Y-7901472D01*
X753217Y-7901470D01*
X633129Y-7840282D01*
X633127Y-7840281D01*
X500000Y-7819196D01*
X366872Y-7840281D01*
X344444Y-7851709D01*
X284012Y-7861280D01*
X229496Y-7833502D01*
X201719Y-7778985D01*
X200500Y-7763499D01*
X200500Y-5250000D01*
X5319196Y-5250000D01*
X5340281Y-5383127D01*
X5340282Y-5383129D01*
X5401470Y-5503217D01*
X5401472Y-5503220D01*
X5496780Y-5598528D01*
X5616874Y-5659719D01*
X5750000Y-5680804D01*
X5883126Y-5659719D01*
X6003220Y-5598528D01*
X6098528Y-5503220D01*
X6159719Y-5383126D01*
X6180804Y-5250000D01*
X6159719Y-5116874D01*
X6098528Y-4996780D01*
X6046749Y-4945001D01*
X6018974Y-4890487D01*
X6028545Y-4830055D01*
X6046748Y-4804999D01*
X6098528Y-4753220D01*
X6100169Y-4750000D01*
X22569196Y-4750000D01*
X22590281Y-4883127D01*
X22590282Y-4883129D01*
X22651470Y-5003217D01*
X22651472Y-5003220D01*
X22746780Y-5098528D01*
X22866874Y-5159719D01*
X23000000Y-5180804D01*
X23133126Y-5159719D01*
X23253220Y-5098528D01*
X23272253Y-5079494D01*
X23326768Y-5051719D01*
X23342255Y-5050500D01*
X26084521Y-5050500D01*
X26142712Y-5069407D01*
X26154525Y-5079496D01*
X28795352Y-7720323D01*
X28823129Y-7774839D01*
X28840281Y-7883127D01*
X28840282Y-7883129D01*
X28899831Y-8000000D01*
X28901472Y-8003220D01*
X28920505Y-8022253D01*
X28948281Y-8076768D01*
X28949500Y-8092255D01*
X28949500Y-9657744D01*
X28930593Y-9715935D01*
X28920505Y-9727746D01*
X28901474Y-9746777D01*
X28901470Y-9746782D01*
X28840282Y-9866870D01*
X28840281Y-9866872D01*
X28819196Y-9999999D01*
X28819196Y-10000000D01*
X28840281Y-10133127D01*
X28840282Y-10133129D01*
X28899831Y-10250000D01*
X28901472Y-10253220D01*
X28920505Y-10272253D01*
X28948281Y-10326768D01*
X28949500Y-10342255D01*
X28949500Y-12027782D01*
X28947280Y-12041460D01*
X28948494Y-12041630D01*
X28947226Y-12050713D01*
X28949447Y-12098730D01*
X28949500Y-12101016D01*
X28949500Y-12120789D01*
X28950152Y-12124279D01*
X28950943Y-12131096D01*
X28952414Y-12162934D01*
X28952415Y-12162941D01*
X28956384Y-12171929D01*
X28963133Y-12193720D01*
X28964939Y-12203380D01*
X28981717Y-12230480D01*
X28984915Y-12236547D01*
X28992278Y-12253220D01*
X28997794Y-12265712D01*
X29004745Y-12272663D01*
X29018907Y-12290543D01*
X29024081Y-12298899D01*
X29049511Y-12318103D01*
X29054690Y-12322609D01*
X29202405Y-12470323D01*
X29230182Y-12524839D01*
X29247334Y-12633127D01*
X29247335Y-12633129D01*
X29308523Y-12753217D01*
X29308525Y-12753220D01*
X29327558Y-12772253D01*
X29355334Y-12826768D01*
X29356553Y-12842255D01*
X29356553Y-14657744D01*
X29337646Y-14715935D01*
X29327558Y-14727746D01*
X29308527Y-14746777D01*
X29308523Y-14746782D01*
X29247335Y-14866870D01*
X29247334Y-14866872D01*
X29226249Y-14999999D01*
X29226249Y-15000000D01*
X29247334Y-15133127D01*
X29247335Y-15133129D01*
X29306884Y-15250000D01*
X29308525Y-15253220D01*
X29327558Y-15272253D01*
X29355334Y-15326768D01*
X29356553Y-15342255D01*
X29356553Y-17157744D01*
X29337646Y-17215935D01*
X29327558Y-17227746D01*
X29308527Y-17246777D01*
X29308523Y-17246782D01*
X29247335Y-17366870D01*
X29247334Y-17366872D01*
X29226249Y-17499999D01*
X29226249Y-17500000D01*
X29247334Y-17633127D01*
X29247335Y-17633129D01*
X29308523Y-17753217D01*
X29308525Y-17753220D01*
X29327558Y-17772253D01*
X29355334Y-17826768D01*
X29356553Y-17842255D01*
X29356553Y-19657744D01*
X29337646Y-19715935D01*
X29327558Y-19727746D01*
X29308527Y-19746777D01*
X29308523Y-19746782D01*
X29247335Y-19866870D01*
X29247334Y-19866872D01*
X29226249Y-19999999D01*
X29226249Y-20000000D01*
X29247334Y-20133127D01*
X29247335Y-20133129D01*
X29263829Y-20165500D01*
X29308525Y-20253220D01*
X29327558Y-20272253D01*
X29355334Y-20326768D01*
X29356553Y-20342255D01*
X29356553Y-22157744D01*
X29337646Y-22215935D01*
X29327558Y-22227746D01*
X29308527Y-22246777D01*
X29308523Y-22246782D01*
X29247335Y-22366870D01*
X29247334Y-22366872D01*
X29226249Y-22499999D01*
X29226249Y-22500000D01*
X29247334Y-22633127D01*
X29247335Y-22633129D01*
X29308523Y-22753217D01*
X29308525Y-22753220D01*
X29327558Y-22772253D01*
X29355334Y-22826768D01*
X29356553Y-22842255D01*
X29356553Y-24657744D01*
X29337646Y-24715935D01*
X29327558Y-24727746D01*
X29308527Y-24746777D01*
X29308523Y-24746782D01*
X29247335Y-24866870D01*
X29247334Y-24866872D01*
X29226249Y-24999999D01*
X29226249Y-25000000D01*
X29247334Y-25133127D01*
X29247335Y-25133129D01*
X29308523Y-25253217D01*
X29308525Y-25253220D01*
X29327558Y-25272253D01*
X29355334Y-25326768D01*
X29356553Y-25342255D01*
X29356553Y-27157744D01*
X29337646Y-27215935D01*
X29327558Y-27227746D01*
X29308527Y-27246777D01*
X29308523Y-27246782D01*
X29247335Y-27366870D01*
X29247334Y-27366872D01*
X29226249Y-27499999D01*
X29226249Y-27500000D01*
X29247334Y-27633127D01*
X29247335Y-27633129D01*
X29308523Y-27753217D01*
X29308525Y-27753220D01*
X29327558Y-27772253D01*
X29355334Y-27826768D01*
X29356553Y-27842255D01*
X29356553Y-28591888D01*
X29354333Y-28605566D01*
X29355547Y-28605736D01*
X29354279Y-28614819D01*
X29356500Y-28662836D01*
X29356553Y-28665122D01*
X29356553Y-28684895D01*
X29357205Y-28688385D01*
X29357996Y-28695202D01*
X29359467Y-28727040D01*
X29359468Y-28727047D01*
X29363437Y-28736035D01*
X29370186Y-28757826D01*
X29371992Y-28767486D01*
X29388770Y-28794586D01*
X29391968Y-28800653D01*
X29404846Y-28829816D01*
X29404847Y-28829818D01*
X29411798Y-28836769D01*
X29425960Y-28854649D01*
X29431134Y-28863005D01*
X29456564Y-28882209D01*
X29461743Y-28886715D01*
X30045352Y-29470323D01*
X30073129Y-29524839D01*
X30090281Y-29633127D01*
X30090282Y-29633129D01*
X30151470Y-29753217D01*
X30151472Y-29753220D01*
X30246780Y-29848528D01*
X30366874Y-29909719D01*
X30500000Y-29930804D01*
X30633126Y-29909719D01*
X30753220Y-29848528D01*
X30848528Y-29753220D01*
X30909719Y-29633126D01*
X30930804Y-29500000D01*
X30930006Y-29494964D01*
X30926104Y-29470323D01*
X30909719Y-29366874D01*
X30848528Y-29246780D01*
X30753220Y-29151472D01*
X30753217Y-29151470D01*
X30633129Y-29090282D01*
X30633127Y-29090281D01*
X30524839Y-29073129D01*
X30470323Y-29045352D01*
X29986549Y-28561578D01*
X29958772Y-28507061D01*
X29957553Y-28491574D01*
X29957553Y-27842255D01*
X29976460Y-27784064D01*
X29986543Y-27772257D01*
X30005581Y-27753220D01*
X30066772Y-27633126D01*
X30087857Y-27500000D01*
X30066772Y-27366874D01*
X30005581Y-27246780D01*
X30005578Y-27246777D01*
X29986548Y-27227746D01*
X29958772Y-27173229D01*
X29957553Y-27157744D01*
X29957553Y-25750000D01*
X30819196Y-25750000D01*
X30840281Y-25883127D01*
X30840282Y-25883129D01*
X30901470Y-26003217D01*
X30901472Y-26003220D01*
X30996780Y-26098528D01*
X31116874Y-26159719D01*
X31250000Y-26180804D01*
X31383126Y-26159719D01*
X31503220Y-26098528D01*
X31598528Y-26003220D01*
X31659719Y-25883126D01*
X31680804Y-25750000D01*
X32569196Y-25750000D01*
X32590281Y-25883127D01*
X32590282Y-25883129D01*
X32651470Y-26003217D01*
X32651472Y-26003220D01*
X32746780Y-26098528D01*
X32866874Y-26159719D01*
X33000000Y-26180804D01*
X33133126Y-26159719D01*
X33253220Y-26098528D01*
X33348528Y-26003220D01*
X33409719Y-25883126D01*
X33430804Y-25750000D01*
X33409719Y-25616874D01*
X33348528Y-25496780D01*
X33253220Y-25401472D01*
X33253217Y-25401470D01*
X33133129Y-25340282D01*
X33133127Y-25340281D01*
X33000000Y-25319196D01*
X32866872Y-25340281D01*
X32866870Y-25340282D01*
X32746782Y-25401470D01*
X32651470Y-25496782D01*
X32590282Y-25616870D01*
X32590281Y-25616872D01*
X32569196Y-25749999D01*
X32569196Y-25750000D01*
X31680804Y-25750000D01*
X31659719Y-25616874D01*
X31598528Y-25496780D01*
X31503220Y-25401472D01*
X31503217Y-25401470D01*
X31383129Y-25340282D01*
X31383127Y-25340281D01*
X31250000Y-25319196D01*
X31116872Y-25340281D01*
X31116870Y-25340282D01*
X30996782Y-25401470D01*
X30901470Y-25496782D01*
X30840282Y-25616870D01*
X30840281Y-25616872D01*
X30819196Y-25749999D01*
X30819196Y-25750000D01*
X29957553Y-25750000D01*
X29957553Y-25342255D01*
X29976460Y-25284064D01*
X29986543Y-25272257D01*
X30005581Y-25253220D01*
X30066772Y-25133126D01*
X30087857Y-25000000D01*
X30066772Y-24866874D01*
X30005581Y-24746780D01*
X30005578Y-24746777D01*
X29986548Y-24727746D01*
X29958772Y-24673229D01*
X29957553Y-24657744D01*
X29957553Y-24500000D01*
X31719196Y-24500000D01*
X31740281Y-24633127D01*
X31740282Y-24633129D01*
X31799831Y-24750000D01*
X31801472Y-24753220D01*
X31896780Y-24848528D01*
X32016874Y-24909719D01*
X32150000Y-24930804D01*
X32283126Y-24909719D01*
X32403220Y-24848528D01*
X32498528Y-24753220D01*
X32559719Y-24633126D01*
X32580804Y-24500000D01*
X32559719Y-24366874D01*
X32498528Y-24246780D01*
X32403220Y-24151472D01*
X32403217Y-24151470D01*
X32283129Y-24090282D01*
X32283127Y-24090281D01*
X32150000Y-24069196D01*
X32016872Y-24090281D01*
X32016870Y-24090282D01*
X31896782Y-24151470D01*
X31801470Y-24246782D01*
X31740282Y-24366870D01*
X31740281Y-24366872D01*
X31719196Y-24499999D01*
X31719196Y-24500000D01*
X29957553Y-24500000D01*
X29957553Y-23250000D01*
X30819196Y-23250000D01*
X30840281Y-23383127D01*
X30840282Y-23383129D01*
X30901470Y-23503217D01*
X30901472Y-23503220D01*
X30996780Y-23598528D01*
X31116874Y-23659719D01*
X31250000Y-23680804D01*
X31383126Y-23659719D01*
X31503220Y-23598528D01*
X31598528Y-23503220D01*
X31659719Y-23383126D01*
X31680804Y-23250000D01*
X32569196Y-23250000D01*
X32590281Y-23383127D01*
X32590282Y-23383129D01*
X32651470Y-23503217D01*
X32651472Y-23503220D01*
X32746780Y-23598528D01*
X32866874Y-23659719D01*
X33000000Y-23680804D01*
X33133126Y-23659719D01*
X33253220Y-23598528D01*
X33348528Y-23503220D01*
X33409719Y-23383126D01*
X33430804Y-23250000D01*
X33409719Y-23116874D01*
X33348528Y-22996780D01*
X33253220Y-22901472D01*
X33253217Y-22901470D01*
X33133129Y-22840282D01*
X33133127Y-22840281D01*
X33000000Y-22819196D01*
X32866872Y-22840281D01*
X32866870Y-22840282D01*
X32746782Y-22901470D01*
X32651470Y-22996782D01*
X32590282Y-23116870D01*
X32590281Y-23116872D01*
X32569196Y-23249999D01*
X32569196Y-23250000D01*
X31680804Y-23250000D01*
X31659719Y-23116874D01*
X31598528Y-22996780D01*
X31503220Y-22901472D01*
X31503217Y-22901470D01*
X31383129Y-22840282D01*
X31383127Y-22840281D01*
X31250000Y-22819196D01*
X31116872Y-22840281D01*
X31116870Y-22840282D01*
X30996782Y-22901470D01*
X30901470Y-22996782D01*
X30840282Y-23116870D01*
X30840281Y-23116872D01*
X30819196Y-23249999D01*
X30819196Y-23250000D01*
X29957553Y-23250000D01*
X29957553Y-22842255D01*
X29976460Y-22784064D01*
X29986543Y-22772257D01*
X30005581Y-22753220D01*
X30066772Y-22633126D01*
X30087857Y-22500000D01*
X30066772Y-22366874D01*
X30005581Y-22246780D01*
X30005578Y-22246777D01*
X29986548Y-22227746D01*
X29958772Y-22173229D01*
X29957553Y-22157744D01*
X29957553Y-20342255D01*
X29976460Y-20284064D01*
X29986543Y-20272257D01*
X30005581Y-20253220D01*
X30066772Y-20133126D01*
X30087857Y-20000000D01*
X30087443Y-19997389D01*
X30078294Y-19939623D01*
X30066772Y-19866874D01*
X30007222Y-19750000D01*
X31069196Y-19750000D01*
X31090281Y-19883127D01*
X31090282Y-19883129D01*
X31149831Y-20000000D01*
X31151472Y-20003220D01*
X31246780Y-20098528D01*
X31366874Y-20159719D01*
X31500000Y-20180804D01*
X31633126Y-20159719D01*
X31753220Y-20098528D01*
X31848528Y-20003220D01*
X31909719Y-19883126D01*
X31930804Y-19750000D01*
X31916903Y-19662232D01*
X32205690Y-19662232D01*
X32235917Y-19807698D01*
X32235919Y-19807706D01*
X32275000Y-19883127D01*
X32304276Y-19939626D01*
X32405690Y-20048214D01*
X32532640Y-20125414D01*
X32675710Y-20165500D01*
X32675711Y-20165500D01*
X32786968Y-20165500D01*
X32786974Y-20165500D01*
X32897196Y-20150350D01*
X33033476Y-20091156D01*
X33148731Y-19997389D01*
X33234414Y-19876003D01*
X33284171Y-19736002D01*
X33294310Y-19587768D01*
X33278980Y-19513997D01*
X33264082Y-19442301D01*
X33264080Y-19442293D01*
X33195725Y-19310376D01*
X33195723Y-19310373D01*
X33094311Y-19201787D01*
X33094310Y-19201786D01*
X32967360Y-19124586D01*
X32967359Y-19124585D01*
X32967358Y-19124585D01*
X32824290Y-19084500D01*
X32713026Y-19084500D01*
X32602805Y-19099649D01*
X32602801Y-19099650D01*
X32466524Y-19158843D01*
X32466522Y-19158844D01*
X32351268Y-19252610D01*
X32265587Y-19373995D01*
X32215828Y-19513997D01*
X32205690Y-19662232D01*
X31916903Y-19662232D01*
X31909719Y-19616874D01*
X31848528Y-19496780D01*
X31753220Y-19401472D01*
X31753217Y-19401470D01*
X31633129Y-19340282D01*
X31633127Y-19340281D01*
X31500000Y-19319196D01*
X31366872Y-19340281D01*
X31366870Y-19340282D01*
X31246782Y-19401470D01*
X31151470Y-19496782D01*
X31090282Y-19616870D01*
X31090281Y-19616872D01*
X31069196Y-19749999D01*
X31069196Y-19750000D01*
X30007222Y-19750000D01*
X30005581Y-19746780D01*
X30005578Y-19746777D01*
X29986548Y-19727746D01*
X29958772Y-19673229D01*
X29957553Y-19657744D01*
X29957553Y-17842255D01*
X29976460Y-17784064D01*
X29986543Y-17772257D01*
X30005581Y-17753220D01*
X30066772Y-17633126D01*
X30087857Y-17500000D01*
X30066772Y-17366874D01*
X30005581Y-17246780D01*
X30005578Y-17246777D01*
X29986548Y-17227746D01*
X29958772Y-17173229D01*
X29957553Y-17157744D01*
X29957553Y-15342255D01*
X29976460Y-15284064D01*
X29986543Y-15272257D01*
X30005581Y-15253220D01*
X30007222Y-15250000D01*
X31069196Y-15250000D01*
X31090281Y-15383127D01*
X31090282Y-15383129D01*
X31105111Y-15412232D01*
X31151472Y-15503220D01*
X31246780Y-15598528D01*
X31366874Y-15659719D01*
X31500000Y-15680804D01*
X31633126Y-15659719D01*
X31753220Y-15598528D01*
X31848528Y-15503220D01*
X31894889Y-15412232D01*
X32205690Y-15412232D01*
X32235917Y-15557698D01*
X32235919Y-15557706D01*
X32304274Y-15689623D01*
X32304276Y-15689626D01*
X32405690Y-15798214D01*
X32532640Y-15875414D01*
X32675710Y-15915500D01*
X32675711Y-15915500D01*
X32786968Y-15915500D01*
X32786974Y-15915500D01*
X32897196Y-15900350D01*
X33033476Y-15841156D01*
X33148731Y-15747389D01*
X33234414Y-15626003D01*
X33284171Y-15486002D01*
X33294310Y-15337768D01*
X33292024Y-15326768D01*
X33264082Y-15192301D01*
X33264080Y-15192293D01*
X33195725Y-15060376D01*
X33195723Y-15060373D01*
X33094311Y-14951787D01*
X33094310Y-14951786D01*
X32967360Y-14874586D01*
X32967359Y-14874585D01*
X32967358Y-14874585D01*
X32824290Y-14834500D01*
X32713026Y-14834500D01*
X32602805Y-14849649D01*
X32602801Y-14849650D01*
X32466524Y-14908843D01*
X32466522Y-14908844D01*
X32351268Y-15002610D01*
X32265587Y-15123995D01*
X32265586Y-15123997D01*
X32256837Y-15148613D01*
X32215828Y-15263997D01*
X32205690Y-15412232D01*
X31894889Y-15412232D01*
X31909719Y-15383126D01*
X31930804Y-15250000D01*
X31909719Y-15116874D01*
X31848528Y-14996780D01*
X31753220Y-14901472D01*
X31753217Y-14901470D01*
X31633129Y-14840282D01*
X31633127Y-14840281D01*
X31500000Y-14819196D01*
X31366872Y-14840281D01*
X31366870Y-14840282D01*
X31246782Y-14901470D01*
X31151470Y-14996782D01*
X31090282Y-15116870D01*
X31090281Y-15116872D01*
X31069196Y-15249999D01*
X31069196Y-15250000D01*
X30007222Y-15250000D01*
X30066772Y-15133126D01*
X30087857Y-15000000D01*
X30066772Y-14866874D01*
X30005581Y-14746780D01*
X30005578Y-14746777D01*
X29986548Y-14727746D01*
X29958772Y-14673229D01*
X29957553Y-14657744D01*
X29957553Y-12842255D01*
X29976460Y-12784064D01*
X29986543Y-12772257D01*
X30005581Y-12753220D01*
X30066772Y-12633126D01*
X30087857Y-12500000D01*
X30087059Y-12494964D01*
X30083157Y-12470323D01*
X30066772Y-12366874D01*
X30005581Y-12246780D01*
X29910273Y-12151472D01*
X29910270Y-12151470D01*
X29790182Y-12090282D01*
X29790180Y-12090281D01*
X29681892Y-12073129D01*
X29627376Y-12045352D01*
X29579496Y-11997472D01*
X29551719Y-11942955D01*
X29550500Y-11927468D01*
X29550500Y-10342255D01*
X29569407Y-10284064D01*
X29579490Y-10272257D01*
X29598528Y-10253220D01*
X29659719Y-10133126D01*
X29680804Y-10000000D01*
X29659719Y-9866874D01*
X29598528Y-9746780D01*
X29594272Y-9742524D01*
X29579495Y-9727746D01*
X29551719Y-9673229D01*
X29550500Y-9657744D01*
X29550500Y-9000000D01*
X31569196Y-9000000D01*
X31590281Y-9133127D01*
X31590282Y-9133129D01*
X31651470Y-9253217D01*
X31651472Y-9253220D01*
X31746780Y-9348528D01*
X31866874Y-9409719D01*
X32000000Y-9430804D01*
X32133126Y-9409719D01*
X32253220Y-9348528D01*
X32348528Y-9253220D01*
X32409719Y-9133126D01*
X32430804Y-9000000D01*
X32409719Y-8866874D01*
X32348528Y-8746780D01*
X32253220Y-8651472D01*
X32253217Y-8651470D01*
X32129061Y-8588209D01*
X32085796Y-8544945D01*
X32076225Y-8484513D01*
X32104003Y-8429996D01*
X32129061Y-8411791D01*
X32225863Y-8362467D01*
X32253220Y-8348528D01*
X32348528Y-8253220D01*
X32409719Y-8133126D01*
X32430804Y-8000000D01*
X32409719Y-7866874D01*
X32348528Y-7746780D01*
X32253220Y-7651472D01*
X32253217Y-7651470D01*
X32129061Y-7588209D01*
X32085796Y-7544945D01*
X32076225Y-7484513D01*
X32104003Y-7429996D01*
X32129061Y-7411791D01*
X32217222Y-7366870D01*
X32253220Y-7348528D01*
X32348528Y-7253220D01*
X32409719Y-7133126D01*
X32430804Y-7000000D01*
X32409719Y-6866874D01*
X32348528Y-6746780D01*
X32253220Y-6651472D01*
X32253217Y-6651470D01*
X32133129Y-6590282D01*
X32133127Y-6590281D01*
X32000000Y-6569196D01*
X31866872Y-6590281D01*
X31866870Y-6590282D01*
X31746782Y-6651470D01*
X31651470Y-6746782D01*
X31590282Y-6866870D01*
X31590281Y-6866872D01*
X31569196Y-6999999D01*
X31569196Y-7000000D01*
X31590281Y-7133127D01*
X31590282Y-7133129D01*
X31649831Y-7250000D01*
X31651472Y-7253220D01*
X31746780Y-7348528D01*
X31782778Y-7366870D01*
X31870939Y-7411791D01*
X31914203Y-7455056D01*
X31923774Y-7515488D01*
X31895996Y-7570004D01*
X31870939Y-7588209D01*
X31746781Y-7651471D01*
X31651470Y-7746782D01*
X31590282Y-7866870D01*
X31590281Y-7866872D01*
X31569196Y-7999999D01*
X31569196Y-8000000D01*
X31590281Y-8133127D01*
X31590282Y-8133129D01*
X31649831Y-8250000D01*
X31651472Y-8253220D01*
X31746780Y-8348528D01*
X31774137Y-8362467D01*
X31870939Y-8411791D01*
X31914203Y-8455056D01*
X31923774Y-8515488D01*
X31895996Y-8570004D01*
X31870939Y-8588209D01*
X31746781Y-8651471D01*
X31651470Y-8746782D01*
X31590282Y-8866870D01*
X31590281Y-8866872D01*
X31569196Y-8999999D01*
X31569196Y-9000000D01*
X29550500Y-9000000D01*
X29550500Y-8092255D01*
X29569407Y-8034064D01*
X29579490Y-8022257D01*
X29598528Y-8003220D01*
X29659719Y-7883126D01*
X29680804Y-7750000D01*
X29680006Y-7744964D01*
X29666505Y-7659719D01*
X29659719Y-7616874D01*
X29598528Y-7496780D01*
X29503220Y-7401472D01*
X29503217Y-7401470D01*
X29383129Y-7340282D01*
X29383127Y-7340281D01*
X29274839Y-7323129D01*
X29220323Y-7295352D01*
X26508565Y-4583594D01*
X26500479Y-4572344D01*
X26499487Y-4573094D01*
X26493957Y-4565771D01*
X26458428Y-4533381D01*
X26456774Y-4531802D01*
X26447390Y-4522419D01*
X26419613Y-4467902D01*
X26429184Y-4407470D01*
X26472445Y-4364208D01*
X26503220Y-4348528D01*
X26598528Y-4253220D01*
X26659719Y-4133126D01*
X26680804Y-4000000D01*
X26659719Y-3866874D01*
X26598528Y-3746780D01*
X26503220Y-3651472D01*
X26503217Y-3651470D01*
X26383129Y-3590282D01*
X26383127Y-3590281D01*
X26250000Y-3569196D01*
X26116872Y-3590281D01*
X26116870Y-3590282D01*
X25996782Y-3651470D01*
X25996780Y-3651471D01*
X25996780Y-3651472D01*
X25945001Y-3703250D01*
X25890487Y-3731026D01*
X25830055Y-3721455D01*
X25804999Y-3703251D01*
X25753220Y-3651472D01*
X25753217Y-3651470D01*
X25633129Y-3590282D01*
X25633127Y-3590281D01*
X25500000Y-3569196D01*
X25366872Y-3590281D01*
X25366870Y-3590282D01*
X25246782Y-3651470D01*
X25151470Y-3746782D01*
X25090282Y-3866870D01*
X25090281Y-3866872D01*
X25069196Y-3999999D01*
X25069196Y-4000000D01*
X25090281Y-4133127D01*
X25090282Y-4133129D01*
X25151470Y-4253217D01*
X25151472Y-4253220D01*
X25178750Y-4280498D01*
X25206526Y-4335013D01*
X25196955Y-4395445D01*
X25153690Y-4438710D01*
X25108745Y-4449500D01*
X23342255Y-4449500D01*
X23284064Y-4430593D01*
X23272257Y-4420509D01*
X23253220Y-4401472D01*
X23253217Y-4401470D01*
X23133129Y-4340282D01*
X23133127Y-4340281D01*
X23000000Y-4319196D01*
X22866872Y-4340281D01*
X22866870Y-4340282D01*
X22746782Y-4401470D01*
X22651470Y-4496782D01*
X22590282Y-4616870D01*
X22590281Y-4616872D01*
X22569196Y-4749999D01*
X22569196Y-4750000D01*
X6100169Y-4750000D01*
X6159719Y-4633126D01*
X6180804Y-4500000D01*
X6179233Y-4490084D01*
X6174826Y-4462259D01*
X6159719Y-4366874D01*
X6098528Y-4246780D01*
X6003220Y-4151472D01*
X6003217Y-4151470D01*
X5883129Y-4090282D01*
X5883127Y-4090281D01*
X5750000Y-4069196D01*
X5616872Y-4090281D01*
X5616870Y-4090282D01*
X5496782Y-4151470D01*
X5401470Y-4246782D01*
X5340282Y-4366870D01*
X5340281Y-4366872D01*
X5319196Y-4499999D01*
X5319196Y-4500000D01*
X5340281Y-4633127D01*
X5340282Y-4633129D01*
X5399831Y-4750000D01*
X5401472Y-4753220D01*
X5453250Y-4804998D01*
X5481026Y-4859513D01*
X5471455Y-4919945D01*
X5453251Y-4945000D01*
X5401472Y-4996780D01*
X5401470Y-4996782D01*
X5340282Y-5116870D01*
X5340281Y-5116872D01*
X5319196Y-5249999D01*
X5319196Y-5250000D01*
X200500Y-5250000D01*
X200500Y-3750000D01*
X8069196Y-3750000D01*
X8090281Y-3883127D01*
X8090282Y-3883129D01*
X8149831Y-4000000D01*
X8151472Y-4003220D01*
X8246780Y-4098528D01*
X8366874Y-4159719D01*
X8500000Y-4180804D01*
X8633126Y-4159719D01*
X8753220Y-4098528D01*
X8848528Y-4003220D01*
X8909719Y-3883126D01*
X8930804Y-3750000D01*
X8909719Y-3616874D01*
X8848528Y-3496780D01*
X8753220Y-3401472D01*
X8753217Y-3401470D01*
X8633129Y-3340282D01*
X8633127Y-3340281D01*
X8500000Y-3319196D01*
X8366872Y-3340281D01*
X8366870Y-3340282D01*
X8246782Y-3401470D01*
X8151470Y-3496782D01*
X8090282Y-3616870D01*
X8090281Y-3616872D01*
X8069196Y-3749999D01*
X8069196Y-3750000D01*
X200500Y-3750000D01*
X200500Y-3000000D01*
X1319196Y-3000000D01*
X1340281Y-3133127D01*
X1340282Y-3133129D01*
X1399831Y-3250000D01*
X1401472Y-3253220D01*
X1496780Y-3348528D01*
X1616874Y-3409719D01*
X1750000Y-3430804D01*
X1883126Y-3409719D01*
X2003220Y-3348528D01*
X2098528Y-3253220D01*
X2100169Y-3250000D01*
X30569196Y-3250000D01*
X30590281Y-3383127D01*
X30590282Y-3383129D01*
X30651470Y-3503217D01*
X30651472Y-3503220D01*
X30746780Y-3598528D01*
X30866874Y-3659719D01*
X31000000Y-3680804D01*
X31133126Y-3659719D01*
X31253220Y-3598528D01*
X31348528Y-3503220D01*
X31409719Y-3383126D01*
X31430804Y-3250000D01*
X31409719Y-3116874D01*
X31348528Y-2996780D01*
X31253220Y-2901472D01*
X31253217Y-2901470D01*
X31133129Y-2840282D01*
X31133127Y-2840281D01*
X31000000Y-2819196D01*
X30866872Y-2840281D01*
X30866870Y-2840282D01*
X30746782Y-2901470D01*
X30651470Y-2996782D01*
X30590282Y-3116870D01*
X30590281Y-3116872D01*
X30569196Y-3249999D01*
X30569196Y-3250000D01*
X2100169Y-3250000D01*
X2159719Y-3133126D01*
X2180804Y-3000000D01*
X2159719Y-2866874D01*
X2098528Y-2746780D01*
X2003220Y-2651472D01*
X2003217Y-2651470D01*
X1883129Y-2590282D01*
X1883127Y-2590281D01*
X1750000Y-2569196D01*
X1616872Y-2590281D01*
X1616870Y-2590282D01*
X1496782Y-2651470D01*
X1401470Y-2746782D01*
X1340282Y-2866870D01*
X1340281Y-2866872D01*
X1319196Y-2999999D01*
X1319196Y-3000000D01*
X200500Y-3000000D01*
X200500Y-2624057D01*
X219407Y-2565866D01*
X229496Y-2554053D01*
X2554054Y-229496D01*
X2608571Y-201719D01*
X2624058Y-200500D01*
X32375943Y-200500D01*
X32434134Y-219407D01*
G37*
%TD.AperFunction*%
%TD*%
M02*
