%TF.GenerationSoftware,KiCad,Pcbnew,7.0.8*%
%TF.CreationDate,2023-11-11T12:09:49+10:00*%
%TF.ProjectId,LEDBoard,4c454442-6f61-4726-942e-6b696361645f,rev?*%
%TF.SameCoordinates,Original*%
%TF.FileFunction,Legend,Top*%
%TF.FilePolarity,Positive*%
%FSLAX46Y46*%
G04 Gerber Fmt 4.6, Leading zero omitted, Abs format (unit mm)*
G04 Created by KiCad (PCBNEW 7.0.8) date 2023-11-11 12:09:49*
%MOMM*%
%LPD*%
G01*
G04 APERTURE LIST*
G04 Aperture macros list*
%AMRoundRect*
0 Rectangle with rounded corners*
0 $1 Rounding radius*
0 $2 $3 $4 $5 $6 $7 $8 $9 X,Y pos of 4 corners*
0 Add a 4 corners polygon primitive as box body*
4,1,4,$2,$3,$4,$5,$6,$7,$8,$9,$2,$3,0*
0 Add four circle primitives for the rounded corners*
1,1,$1+$1,$2,$3*
1,1,$1+$1,$4,$5*
1,1,$1+$1,$6,$7*
1,1,$1+$1,$8,$9*
0 Add four rect primitives between the rounded corners*
20,1,$1+$1,$2,$3,$4,$5,0*
20,1,$1+$1,$4,$5,$6,$7,0*
20,1,$1+$1,$6,$7,$8,$9,0*
20,1,$1+$1,$8,$9,$2,$3,0*%
G04 Aperture macros list end*
%ADD10C,0.100000*%
%ADD11RoundRect,0.147500X0.017678X-0.226274X0.226274X-0.017678X-0.017678X0.226274X-0.226274X0.017678X0*%
%ADD12RoundRect,0.147500X0.226274X0.017678X0.017678X0.226274X-0.226274X-0.017678X-0.017678X-0.226274X0*%
%ADD13RoundRect,0.147500X-0.226274X-0.017678X-0.017678X-0.226274X0.226274X0.017678X0.017678X0.226274X0*%
%ADD14RoundRect,0.147500X-0.017678X0.226274X-0.226274X0.017678X0.017678X-0.226274X0.226274X-0.017678X0*%
%ADD15C,0.900000*%
G04 APERTURE END LIST*
D10*
X11327069Y-30945514D02*
X11505641Y-31695514D01*
X11505641Y-31695514D02*
X11648498Y-31159800D01*
X11648498Y-31159800D02*
X11791355Y-31695514D01*
X11791355Y-31695514D02*
X11969927Y-30945514D01*
X12362784Y-31695514D02*
X12291355Y-31659800D01*
X12291355Y-31659800D02*
X12255641Y-31624085D01*
X12255641Y-31624085D02*
X12219927Y-31552657D01*
X12219927Y-31552657D02*
X12219927Y-31338371D01*
X12219927Y-31338371D02*
X12255641Y-31266942D01*
X12255641Y-31266942D02*
X12291355Y-31231228D01*
X12291355Y-31231228D02*
X12362784Y-31195514D01*
X12362784Y-31195514D02*
X12469927Y-31195514D01*
X12469927Y-31195514D02*
X12541355Y-31231228D01*
X12541355Y-31231228D02*
X12577070Y-31266942D01*
X12577070Y-31266942D02*
X12612784Y-31338371D01*
X12612784Y-31338371D02*
X12612784Y-31552657D01*
X12612784Y-31552657D02*
X12577070Y-31624085D01*
X12577070Y-31624085D02*
X12541355Y-31659800D01*
X12541355Y-31659800D02*
X12469927Y-31695514D01*
X12469927Y-31695514D02*
X12362784Y-31695514D01*
X12934212Y-31695514D02*
X12934212Y-31195514D01*
X12934212Y-31338371D02*
X12969926Y-31266942D01*
X12969926Y-31266942D02*
X13005641Y-31231228D01*
X13005641Y-31231228D02*
X13077069Y-31195514D01*
X13077069Y-31195514D02*
X13148498Y-31195514D01*
X13719927Y-31695514D02*
X13719927Y-30945514D01*
X13719927Y-31659800D02*
X13648498Y-31695514D01*
X13648498Y-31695514D02*
X13505641Y-31695514D01*
X13505641Y-31695514D02*
X13434212Y-31659800D01*
X13434212Y-31659800D02*
X13398498Y-31624085D01*
X13398498Y-31624085D02*
X13362784Y-31552657D01*
X13362784Y-31552657D02*
X13362784Y-31338371D01*
X13362784Y-31338371D02*
X13398498Y-31266942D01*
X13398498Y-31266942D02*
X13434212Y-31231228D01*
X13434212Y-31231228D02*
X13505641Y-31195514D01*
X13505641Y-31195514D02*
X13648498Y-31195514D01*
X13648498Y-31195514D02*
X13719927Y-31231228D01*
X14005640Y-30945514D02*
X14184212Y-31695514D01*
X14184212Y-31695514D02*
X14327069Y-31159800D01*
X14327069Y-31159800D02*
X14469926Y-31695514D01*
X14469926Y-31695514D02*
X14648498Y-30945514D01*
X15255641Y-31695514D02*
X15255641Y-31302657D01*
X15255641Y-31302657D02*
X15219926Y-31231228D01*
X15219926Y-31231228D02*
X15148498Y-31195514D01*
X15148498Y-31195514D02*
X15005641Y-31195514D01*
X15005641Y-31195514D02*
X14934212Y-31231228D01*
X15255641Y-31659800D02*
X15184212Y-31695514D01*
X15184212Y-31695514D02*
X15005641Y-31695514D01*
X15005641Y-31695514D02*
X14934212Y-31659800D01*
X14934212Y-31659800D02*
X14898498Y-31588371D01*
X14898498Y-31588371D02*
X14898498Y-31516942D01*
X14898498Y-31516942D02*
X14934212Y-31445514D01*
X14934212Y-31445514D02*
X15005641Y-31409800D01*
X15005641Y-31409800D02*
X15184212Y-31409800D01*
X15184212Y-31409800D02*
X15255641Y-31374085D01*
X15505640Y-31195514D02*
X15791354Y-31195514D01*
X15612783Y-30945514D02*
X15612783Y-31588371D01*
X15612783Y-31588371D02*
X15648497Y-31659800D01*
X15648497Y-31659800D02*
X15719926Y-31695514D01*
X15719926Y-31695514D02*
X15791354Y-31695514D01*
X16362783Y-31659800D02*
X16291354Y-31695514D01*
X16291354Y-31695514D02*
X16148497Y-31695514D01*
X16148497Y-31695514D02*
X16077068Y-31659800D01*
X16077068Y-31659800D02*
X16041354Y-31624085D01*
X16041354Y-31624085D02*
X16005640Y-31552657D01*
X16005640Y-31552657D02*
X16005640Y-31338371D01*
X16005640Y-31338371D02*
X16041354Y-31266942D01*
X16041354Y-31266942D02*
X16077068Y-31231228D01*
X16077068Y-31231228D02*
X16148497Y-31195514D01*
X16148497Y-31195514D02*
X16291354Y-31195514D01*
X16291354Y-31195514D02*
X16362783Y-31231228D01*
X16684211Y-31695514D02*
X16684211Y-30945514D01*
X17005640Y-31695514D02*
X17005640Y-31302657D01*
X17005640Y-31302657D02*
X16969925Y-31231228D01*
X16969925Y-31231228D02*
X16898497Y-31195514D01*
X16898497Y-31195514D02*
X16791354Y-31195514D01*
X16791354Y-31195514D02*
X16719925Y-31231228D01*
X16719925Y-31231228D02*
X16684211Y-31266942D01*
X11862783Y-32903014D02*
X11505640Y-32903014D01*
X11505640Y-32903014D02*
X11505640Y-32153014D01*
X12112783Y-32510157D02*
X12362783Y-32510157D01*
X12469926Y-32903014D02*
X12112783Y-32903014D01*
X12112783Y-32903014D02*
X12112783Y-32153014D01*
X12112783Y-32153014D02*
X12469926Y-32153014D01*
X12791354Y-32903014D02*
X12791354Y-32153014D01*
X12791354Y-32153014D02*
X12969925Y-32153014D01*
X12969925Y-32153014D02*
X13077068Y-32188728D01*
X13077068Y-32188728D02*
X13148497Y-32260157D01*
X13148497Y-32260157D02*
X13184211Y-32331585D01*
X13184211Y-32331585D02*
X13219925Y-32474442D01*
X13219925Y-32474442D02*
X13219925Y-32581585D01*
X13219925Y-32581585D02*
X13184211Y-32724442D01*
X13184211Y-32724442D02*
X13148497Y-32795871D01*
X13148497Y-32795871D02*
X13077068Y-32867300D01*
X13077068Y-32867300D02*
X12969925Y-32903014D01*
X12969925Y-32903014D02*
X12791354Y-32903014D01*
X14362783Y-32510157D02*
X14469926Y-32545871D01*
X14469926Y-32545871D02*
X14505640Y-32581585D01*
X14505640Y-32581585D02*
X14541354Y-32653014D01*
X14541354Y-32653014D02*
X14541354Y-32760157D01*
X14541354Y-32760157D02*
X14505640Y-32831585D01*
X14505640Y-32831585D02*
X14469926Y-32867300D01*
X14469926Y-32867300D02*
X14398497Y-32903014D01*
X14398497Y-32903014D02*
X14112783Y-32903014D01*
X14112783Y-32903014D02*
X14112783Y-32153014D01*
X14112783Y-32153014D02*
X14362783Y-32153014D01*
X14362783Y-32153014D02*
X14434212Y-32188728D01*
X14434212Y-32188728D02*
X14469926Y-32224442D01*
X14469926Y-32224442D02*
X14505640Y-32295871D01*
X14505640Y-32295871D02*
X14505640Y-32367300D01*
X14505640Y-32367300D02*
X14469926Y-32438728D01*
X14469926Y-32438728D02*
X14434212Y-32474442D01*
X14434212Y-32474442D02*
X14362783Y-32510157D01*
X14362783Y-32510157D02*
X14112783Y-32510157D01*
X14969926Y-32903014D02*
X14898497Y-32867300D01*
X14898497Y-32867300D02*
X14862783Y-32831585D01*
X14862783Y-32831585D02*
X14827069Y-32760157D01*
X14827069Y-32760157D02*
X14827069Y-32545871D01*
X14827069Y-32545871D02*
X14862783Y-32474442D01*
X14862783Y-32474442D02*
X14898497Y-32438728D01*
X14898497Y-32438728D02*
X14969926Y-32403014D01*
X14969926Y-32403014D02*
X15077069Y-32403014D01*
X15077069Y-32403014D02*
X15148497Y-32438728D01*
X15148497Y-32438728D02*
X15184212Y-32474442D01*
X15184212Y-32474442D02*
X15219926Y-32545871D01*
X15219926Y-32545871D02*
X15219926Y-32760157D01*
X15219926Y-32760157D02*
X15184212Y-32831585D01*
X15184212Y-32831585D02*
X15148497Y-32867300D01*
X15148497Y-32867300D02*
X15077069Y-32903014D01*
X15077069Y-32903014D02*
X14969926Y-32903014D01*
X15862783Y-32903014D02*
X15862783Y-32510157D01*
X15862783Y-32510157D02*
X15827068Y-32438728D01*
X15827068Y-32438728D02*
X15755640Y-32403014D01*
X15755640Y-32403014D02*
X15612783Y-32403014D01*
X15612783Y-32403014D02*
X15541354Y-32438728D01*
X15862783Y-32867300D02*
X15791354Y-32903014D01*
X15791354Y-32903014D02*
X15612783Y-32903014D01*
X15612783Y-32903014D02*
X15541354Y-32867300D01*
X15541354Y-32867300D02*
X15505640Y-32795871D01*
X15505640Y-32795871D02*
X15505640Y-32724442D01*
X15505640Y-32724442D02*
X15541354Y-32653014D01*
X15541354Y-32653014D02*
X15612783Y-32617300D01*
X15612783Y-32617300D02*
X15791354Y-32617300D01*
X15791354Y-32617300D02*
X15862783Y-32581585D01*
X16219925Y-32903014D02*
X16219925Y-32403014D01*
X16219925Y-32545871D02*
X16255639Y-32474442D01*
X16255639Y-32474442D02*
X16291354Y-32438728D01*
X16291354Y-32438728D02*
X16362782Y-32403014D01*
X16362782Y-32403014D02*
X16434211Y-32403014D01*
X17005640Y-32903014D02*
X17005640Y-32153014D01*
X17005640Y-32867300D02*
X16934211Y-32903014D01*
X16934211Y-32903014D02*
X16791354Y-32903014D01*
X16791354Y-32903014D02*
X16719925Y-32867300D01*
X16719925Y-32867300D02*
X16684211Y-32831585D01*
X16684211Y-32831585D02*
X16648497Y-32760157D01*
X16648497Y-32760157D02*
X16648497Y-32545871D01*
X16648497Y-32545871D02*
X16684211Y-32474442D01*
X16684211Y-32474442D02*
X16719925Y-32438728D01*
X16719925Y-32438728D02*
X16791354Y-32403014D01*
X16791354Y-32403014D02*
X16934211Y-32403014D01*
X16934211Y-32403014D02*
X17005640Y-32438728D01*
X18172931Y-31195514D02*
X18351503Y-31695514D01*
X18351503Y-31695514D02*
X18530074Y-31195514D01*
X19208646Y-31695514D02*
X18780075Y-31695514D01*
X18994360Y-31695514D02*
X18994360Y-30945514D01*
X18994360Y-30945514D02*
X18922932Y-31052657D01*
X18922932Y-31052657D02*
X18851503Y-31124085D01*
X18851503Y-31124085D02*
X18780075Y-31159800D01*
X19530075Y-31624085D02*
X19565789Y-31659800D01*
X19565789Y-31659800D02*
X19530075Y-31695514D01*
X19530075Y-31695514D02*
X19494361Y-31659800D01*
X19494361Y-31659800D02*
X19530075Y-31624085D01*
X19530075Y-31624085D02*
X19530075Y-31695514D01*
X20030075Y-30945514D02*
X20101504Y-30945514D01*
X20101504Y-30945514D02*
X20172932Y-30981228D01*
X20172932Y-30981228D02*
X20208647Y-31016942D01*
X20208647Y-31016942D02*
X20244361Y-31088371D01*
X20244361Y-31088371D02*
X20280075Y-31231228D01*
X20280075Y-31231228D02*
X20280075Y-31409800D01*
X20280075Y-31409800D02*
X20244361Y-31552657D01*
X20244361Y-31552657D02*
X20208647Y-31624085D01*
X20208647Y-31624085D02*
X20172932Y-31659800D01*
X20172932Y-31659800D02*
X20101504Y-31695514D01*
X20101504Y-31695514D02*
X20030075Y-31695514D01*
X20030075Y-31695514D02*
X19958647Y-31659800D01*
X19958647Y-31659800D02*
X19922932Y-31624085D01*
X19922932Y-31624085D02*
X19887218Y-31552657D01*
X19887218Y-31552657D02*
X19851504Y-31409800D01*
X19851504Y-31409800D02*
X19851504Y-31231228D01*
X19851504Y-31231228D02*
X19887218Y-31088371D01*
X19887218Y-31088371D02*
X19922932Y-31016942D01*
X19922932Y-31016942D02*
X19958647Y-30981228D01*
X19958647Y-30981228D02*
X20030075Y-30945514D01*
X21172933Y-31695514D02*
X21172933Y-30945514D01*
X21172933Y-30945514D02*
X21601504Y-31695514D01*
X21601504Y-31695514D02*
X21601504Y-30945514D01*
X22065790Y-31695514D02*
X21994361Y-31659800D01*
X21994361Y-31659800D02*
X21958647Y-31624085D01*
X21958647Y-31624085D02*
X21922933Y-31552657D01*
X21922933Y-31552657D02*
X21922933Y-31338371D01*
X21922933Y-31338371D02*
X21958647Y-31266942D01*
X21958647Y-31266942D02*
X21994361Y-31231228D01*
X21994361Y-31231228D02*
X22065790Y-31195514D01*
X22065790Y-31195514D02*
X22172933Y-31195514D01*
X22172933Y-31195514D02*
X22244361Y-31231228D01*
X22244361Y-31231228D02*
X22280076Y-31266942D01*
X22280076Y-31266942D02*
X22315790Y-31338371D01*
X22315790Y-31338371D02*
X22315790Y-31552657D01*
X22315790Y-31552657D02*
X22280076Y-31624085D01*
X22280076Y-31624085D02*
X22244361Y-31659800D01*
X22244361Y-31659800D02*
X22172933Y-31695514D01*
X22172933Y-31695514D02*
X22065790Y-31695514D01*
X22565789Y-31195514D02*
X22744361Y-31695514D01*
X22744361Y-31695514D02*
X22922932Y-31195514D01*
X23208647Y-31409800D02*
X23780076Y-31409800D01*
X24101504Y-31016942D02*
X24137218Y-30981228D01*
X24137218Y-30981228D02*
X24208647Y-30945514D01*
X24208647Y-30945514D02*
X24387218Y-30945514D01*
X24387218Y-30945514D02*
X24458647Y-30981228D01*
X24458647Y-30981228D02*
X24494361Y-31016942D01*
X24494361Y-31016942D02*
X24530075Y-31088371D01*
X24530075Y-31088371D02*
X24530075Y-31159800D01*
X24530075Y-31159800D02*
X24494361Y-31266942D01*
X24494361Y-31266942D02*
X24065789Y-31695514D01*
X24065789Y-31695514D02*
X24530075Y-31695514D01*
X24780075Y-30945514D02*
X25244361Y-30945514D01*
X25244361Y-30945514D02*
X24994361Y-31231228D01*
X24994361Y-31231228D02*
X25101504Y-31231228D01*
X25101504Y-31231228D02*
X25172933Y-31266942D01*
X25172933Y-31266942D02*
X25208647Y-31302657D01*
X25208647Y-31302657D02*
X25244361Y-31374085D01*
X25244361Y-31374085D02*
X25244361Y-31552657D01*
X25244361Y-31552657D02*
X25208647Y-31624085D01*
X25208647Y-31624085D02*
X25172933Y-31659800D01*
X25172933Y-31659800D02*
X25101504Y-31695514D01*
X25101504Y-31695514D02*
X24887218Y-31695514D01*
X24887218Y-31695514D02*
X24815790Y-31659800D01*
X24815790Y-31659800D02*
X24780075Y-31624085D01*
X18458646Y-33188728D02*
X18422931Y-33153014D01*
X18422931Y-33153014D02*
X18351503Y-33045871D01*
X18351503Y-33045871D02*
X18315789Y-32974442D01*
X18315789Y-32974442D02*
X18280074Y-32867300D01*
X18280074Y-32867300D02*
X18244360Y-32688728D01*
X18244360Y-32688728D02*
X18244360Y-32545871D01*
X18244360Y-32545871D02*
X18280074Y-32367300D01*
X18280074Y-32367300D02*
X18315789Y-32260157D01*
X18315789Y-32260157D02*
X18351503Y-32188728D01*
X18351503Y-32188728D02*
X18422931Y-32081585D01*
X18422931Y-32081585D02*
X18458646Y-32045871D01*
X19065789Y-32867300D02*
X18994360Y-32903014D01*
X18994360Y-32903014D02*
X18851503Y-32903014D01*
X18851503Y-32903014D02*
X18780074Y-32867300D01*
X18780074Y-32867300D02*
X18744360Y-32831585D01*
X18744360Y-32831585D02*
X18708646Y-32760157D01*
X18708646Y-32760157D02*
X18708646Y-32545871D01*
X18708646Y-32545871D02*
X18744360Y-32474442D01*
X18744360Y-32474442D02*
X18780074Y-32438728D01*
X18780074Y-32438728D02*
X18851503Y-32403014D01*
X18851503Y-32403014D02*
X18994360Y-32403014D01*
X18994360Y-32403014D02*
X19065789Y-32438728D01*
X19315788Y-33188728D02*
X19351503Y-33153014D01*
X19351503Y-33153014D02*
X19422931Y-33045871D01*
X19422931Y-33045871D02*
X19458646Y-32974442D01*
X19458646Y-32974442D02*
X19494360Y-32867300D01*
X19494360Y-32867300D02*
X19530074Y-32688728D01*
X19530074Y-32688728D02*
X19530074Y-32545871D01*
X19530074Y-32545871D02*
X19494360Y-32367300D01*
X19494360Y-32367300D02*
X19458646Y-32260157D01*
X19458646Y-32260157D02*
X19422931Y-32188728D01*
X19422931Y-32188728D02*
X19351503Y-32081585D01*
X19351503Y-32081585D02*
X19315788Y-32045871D01*
X20744360Y-32867300D02*
X20672932Y-32903014D01*
X20672932Y-32903014D02*
X20530075Y-32903014D01*
X20530075Y-32903014D02*
X20458646Y-32867300D01*
X20458646Y-32867300D02*
X20422932Y-32795871D01*
X20422932Y-32795871D02*
X20422932Y-32510157D01*
X20422932Y-32510157D02*
X20458646Y-32438728D01*
X20458646Y-32438728D02*
X20530075Y-32403014D01*
X20530075Y-32403014D02*
X20672932Y-32403014D01*
X20672932Y-32403014D02*
X20744360Y-32438728D01*
X20744360Y-32438728D02*
X20780075Y-32510157D01*
X20780075Y-32510157D02*
X20780075Y-32581585D01*
X20780075Y-32581585D02*
X20422932Y-32653014D01*
X21422932Y-32403014D02*
X21422932Y-33010157D01*
X21422932Y-33010157D02*
X21387217Y-33081585D01*
X21387217Y-33081585D02*
X21351503Y-33117300D01*
X21351503Y-33117300D02*
X21280074Y-33153014D01*
X21280074Y-33153014D02*
X21172932Y-33153014D01*
X21172932Y-33153014D02*
X21101503Y-33117300D01*
X21422932Y-32867300D02*
X21351503Y-32903014D01*
X21351503Y-32903014D02*
X21208646Y-32903014D01*
X21208646Y-32903014D02*
X21137217Y-32867300D01*
X21137217Y-32867300D02*
X21101503Y-32831585D01*
X21101503Y-32831585D02*
X21065789Y-32760157D01*
X21065789Y-32760157D02*
X21065789Y-32545871D01*
X21065789Y-32545871D02*
X21101503Y-32474442D01*
X21101503Y-32474442D02*
X21137217Y-32438728D01*
X21137217Y-32438728D02*
X21208646Y-32403014D01*
X21208646Y-32403014D02*
X21351503Y-32403014D01*
X21351503Y-32403014D02*
X21422932Y-32438728D01*
X22101503Y-32403014D02*
X22101503Y-33010157D01*
X22101503Y-33010157D02*
X22065788Y-33081585D01*
X22065788Y-33081585D02*
X22030074Y-33117300D01*
X22030074Y-33117300D02*
X21958645Y-33153014D01*
X21958645Y-33153014D02*
X21851503Y-33153014D01*
X21851503Y-33153014D02*
X21780074Y-33117300D01*
X22101503Y-32867300D02*
X22030074Y-32903014D01*
X22030074Y-32903014D02*
X21887217Y-32903014D01*
X21887217Y-32903014D02*
X21815788Y-32867300D01*
X21815788Y-32867300D02*
X21780074Y-32831585D01*
X21780074Y-32831585D02*
X21744360Y-32760157D01*
X21744360Y-32760157D02*
X21744360Y-32545871D01*
X21744360Y-32545871D02*
X21780074Y-32474442D01*
X21780074Y-32474442D02*
X21815788Y-32438728D01*
X21815788Y-32438728D02*
X21887217Y-32403014D01*
X21887217Y-32403014D02*
X22030074Y-32403014D01*
X22030074Y-32403014D02*
X22101503Y-32438728D01*
X22422931Y-32867300D02*
X22494359Y-32903014D01*
X22494359Y-32903014D02*
X22637216Y-32903014D01*
X22637216Y-32903014D02*
X22708645Y-32867300D01*
X22708645Y-32867300D02*
X22744359Y-32795871D01*
X22744359Y-32795871D02*
X22744359Y-32760157D01*
X22744359Y-32760157D02*
X22708645Y-32688728D01*
X22708645Y-32688728D02*
X22637216Y-32653014D01*
X22637216Y-32653014D02*
X22530074Y-32653014D01*
X22530074Y-32653014D02*
X22458645Y-32617300D01*
X22458645Y-32617300D02*
X22422931Y-32545871D01*
X22422931Y-32545871D02*
X22422931Y-32510157D01*
X22422931Y-32510157D02*
X22458645Y-32438728D01*
X22458645Y-32438728D02*
X22530074Y-32403014D01*
X22530074Y-32403014D02*
X22637216Y-32403014D01*
X22637216Y-32403014D02*
X22708645Y-32438728D01*
X23387217Y-32903014D02*
X23387217Y-32510157D01*
X23387217Y-32510157D02*
X23351502Y-32438728D01*
X23351502Y-32438728D02*
X23280074Y-32403014D01*
X23280074Y-32403014D02*
X23137217Y-32403014D01*
X23137217Y-32403014D02*
X23065788Y-32438728D01*
X23387217Y-32867300D02*
X23315788Y-32903014D01*
X23315788Y-32903014D02*
X23137217Y-32903014D01*
X23137217Y-32903014D02*
X23065788Y-32867300D01*
X23065788Y-32867300D02*
X23030074Y-32795871D01*
X23030074Y-32795871D02*
X23030074Y-32724442D01*
X23030074Y-32724442D02*
X23065788Y-32653014D01*
X23065788Y-32653014D02*
X23137217Y-32617300D01*
X23137217Y-32617300D02*
X23315788Y-32617300D01*
X23315788Y-32617300D02*
X23387217Y-32581585D01*
X23744359Y-32903014D02*
X23744359Y-32403014D01*
X23744359Y-32474442D02*
X23780073Y-32438728D01*
X23780073Y-32438728D02*
X23851502Y-32403014D01*
X23851502Y-32403014D02*
X23958645Y-32403014D01*
X23958645Y-32403014D02*
X24030073Y-32438728D01*
X24030073Y-32438728D02*
X24065788Y-32510157D01*
X24065788Y-32510157D02*
X24065788Y-32903014D01*
X24065788Y-32510157D02*
X24101502Y-32438728D01*
X24101502Y-32438728D02*
X24172930Y-32403014D01*
X24172930Y-32403014D02*
X24280073Y-32403014D01*
X24280073Y-32403014D02*
X24351502Y-32438728D01*
X24351502Y-32438728D02*
X24387216Y-32510157D01*
X24387216Y-32510157D02*
X24387216Y-32903014D01*
X24744359Y-32403014D02*
X24744359Y-33153014D01*
X24744359Y-32438728D02*
X24815788Y-32403014D01*
X24815788Y-32403014D02*
X24958645Y-32403014D01*
X24958645Y-32403014D02*
X25030073Y-32438728D01*
X25030073Y-32438728D02*
X25065788Y-32474442D01*
X25065788Y-32474442D02*
X25101502Y-32545871D01*
X25101502Y-32545871D02*
X25101502Y-32760157D01*
X25101502Y-32760157D02*
X25065788Y-32831585D01*
X25065788Y-32831585D02*
X25030073Y-32867300D01*
X25030073Y-32867300D02*
X24958645Y-32903014D01*
X24958645Y-32903014D02*
X24815788Y-32903014D01*
X24815788Y-32903014D02*
X24744359Y-32867300D01*
X25530073Y-32903014D02*
X25458644Y-32867300D01*
X25458644Y-32867300D02*
X25422930Y-32795871D01*
X25422930Y-32795871D02*
X25422930Y-32153014D01*
X26101501Y-32867300D02*
X26030073Y-32903014D01*
X26030073Y-32903014D02*
X25887216Y-32903014D01*
X25887216Y-32903014D02*
X25815787Y-32867300D01*
X25815787Y-32867300D02*
X25780073Y-32795871D01*
X25780073Y-32795871D02*
X25780073Y-32510157D01*
X25780073Y-32510157D02*
X25815787Y-32438728D01*
X25815787Y-32438728D02*
X25887216Y-32403014D01*
X25887216Y-32403014D02*
X26030073Y-32403014D01*
X26030073Y-32403014D02*
X26101501Y-32438728D01*
X26101501Y-32438728D02*
X26137216Y-32510157D01*
X26137216Y-32510157D02*
X26137216Y-32581585D01*
X26137216Y-32581585D02*
X25780073Y-32653014D01*
X26458644Y-32903014D02*
X26458644Y-32403014D01*
X26458644Y-32545871D02*
X26494358Y-32474442D01*
X26494358Y-32474442D02*
X26530073Y-32438728D01*
X26530073Y-32438728D02*
X26601501Y-32403014D01*
X26601501Y-32403014D02*
X26672930Y-32403014D01*
%TO.C,D47*%
X26779254Y-14520746D02*
G75*
G03*
X26779254Y-14520746I-50000J0D01*
G01*
%TO.C,D108*%
X14279254Y-29520746D02*
G75*
G03*
X14279254Y-29520746I-50000J0D01*
G01*
%TO.C,D20*%
X14279254Y-9520746D02*
G75*
G03*
X14279254Y-9520746I-50000J0D01*
G01*
%TO.C,D62*%
X9279254Y-19520746D02*
G75*
G03*
X9279254Y-19520746I-50000J0D01*
G01*
%TO.C,D10*%
X16779254Y-7020746D02*
G75*
G03*
X16779254Y-7020746I-50000J0D01*
G01*
%TO.C,D73*%
X9279254Y-22020746D02*
G75*
G03*
X9279254Y-22020746I-50000J0D01*
G01*
%TO.C,D23*%
X21779254Y-9520746D02*
G75*
G03*
X21779254Y-9520746I-50000J0D01*
G01*
%TO.C,D12*%
X21779254Y-7020746D02*
G75*
G03*
X21779254Y-7020746I-50000J0D01*
G01*
%TO.C,D111*%
X21779254Y-29520746D02*
G75*
G03*
X21779254Y-29520746I-50000J0D01*
G01*
%TO.C,D56*%
X21779254Y-17020746D02*
G75*
G03*
X21779254Y-17020746I-50000J0D01*
G01*
%TO.C,D112*%
X24279254Y-29520746D02*
G75*
G03*
X24279254Y-29520746I-50000J0D01*
G01*
%TO.C,D88*%
X19279254Y-24520746D02*
G75*
G03*
X19279254Y-24520746I-50000J0D01*
G01*
%TO.C,D100*%
X21779254Y-27020746D02*
G75*
G03*
X21779254Y-27020746I-50000J0D01*
G01*
%TO.C,D1*%
X1779254Y-4520746D02*
G75*
G03*
X1779254Y-4520746I-50000J0D01*
G01*
%TO.C,D55*%
X19279254Y-17020746D02*
G75*
G03*
X19279254Y-17020746I-50000J0D01*
G01*
%TO.C,D114*%
X29279254Y-29520746D02*
G75*
G03*
X29279254Y-29520746I-50000J0D01*
G01*
%TO.C,D80*%
X26779254Y-22020746D02*
G75*
G03*
X26779254Y-22020746I-50000J0D01*
G01*
%TO.C,D66*%
X19279254Y-19520746D02*
G75*
G03*
X19279254Y-19520746I-50000J0D01*
G01*
%TO.C,D69*%
X26779254Y-19520746D02*
G75*
G03*
X26779254Y-19520746I-50000J0D01*
G01*
%TO.C,D39*%
X6779254Y-14520746D02*
G75*
G03*
X6779254Y-14520746I-50000J0D01*
G01*
%TO.C,D72*%
X6779254Y-22020746D02*
G75*
G03*
X6779254Y-22020746I-50000J0D01*
G01*
%TO.C,D57*%
X24279254Y-17020746D02*
G75*
G03*
X24279254Y-17020746I-50000J0D01*
G01*
%TO.C,D60*%
X4279254Y-19520746D02*
G75*
G03*
X4279254Y-19520746I-50000J0D01*
G01*
%TO.C,D17*%
X6779254Y-9520746D02*
G75*
G03*
X6779254Y-9520746I-50000J0D01*
G01*
%TO.C,D75*%
X14279254Y-22020746D02*
G75*
G03*
X14279254Y-22020746I-50000J0D01*
G01*
%TO.C,D33*%
X19279254Y-12020746D02*
G75*
G03*
X19279254Y-12020746I-50000J0D01*
G01*
%TO.C,D35*%
X24279254Y-12020746D02*
G75*
G03*
X24279254Y-12020746I-50000J0D01*
G01*
%TO.C,D52*%
X11779254Y-17020746D02*
G75*
G03*
X11779254Y-17020746I-50000J0D01*
G01*
%TO.C,D54*%
X16779254Y-17020746D02*
G75*
G03*
X16779254Y-17020746I-50000J0D01*
G01*
%TO.C,D13*%
X24279254Y-7020746D02*
G75*
G03*
X24279254Y-7020746I-50000J0D01*
G01*
%TO.C,D15*%
X29279254Y-7020746D02*
G75*
G03*
X29279254Y-7020746I-50000J0D01*
G01*
%TO.C,D96*%
X11779254Y-27020746D02*
G75*
G03*
X11779254Y-27020746I-50000J0D01*
G01*
%TO.C,D109*%
X16779254Y-29520746D02*
G75*
G03*
X16779254Y-29520746I-50000J0D01*
G01*
%TO.C,D65*%
X16779254Y-19520746D02*
G75*
G03*
X16779254Y-19520746I-50000J0D01*
G01*
%TO.C,D18*%
X9279254Y-9520746D02*
G75*
G03*
X9279254Y-9520746I-50000J0D01*
G01*
%TO.C,D40*%
X9279254Y-14520746D02*
G75*
G03*
X9279254Y-14520746I-50000J0D01*
G01*
%TO.C,D101*%
X24279254Y-27020746D02*
G75*
G03*
X24279254Y-27020746I-50000J0D01*
G01*
%TO.C,D84*%
X9279254Y-24520746D02*
G75*
G03*
X9279254Y-24520746I-50000J0D01*
G01*
%TO.C,D7*%
X9279254Y-7020746D02*
G75*
G03*
X9279254Y-7020746I-50000J0D01*
G01*
%TO.C,D29*%
X9279254Y-12020746D02*
G75*
G03*
X9279254Y-12020746I-50000J0D01*
G01*
%TO.C,D27*%
X4279254Y-12020746D02*
G75*
G03*
X4279254Y-12020746I-50000J0D01*
G01*
%TO.C,D113*%
X26779254Y-29520746D02*
G75*
G03*
X26779254Y-29520746I-50000J0D01*
G01*
%TO.C,D2*%
X33320746Y-4520746D02*
G75*
G03*
X33320746Y-4520746I-50000J0D01*
G01*
%TO.C,D95*%
X9279254Y-27020746D02*
G75*
G03*
X9279254Y-27020746I-50000J0D01*
G01*
%TO.C,D103*%
X29279254Y-27020746D02*
G75*
G03*
X29279254Y-27020746I-50000J0D01*
G01*
%TO.C,D78*%
X21779254Y-22020746D02*
G75*
G03*
X21779254Y-22020746I-50000J0D01*
G01*
%TO.C,D36*%
X26779254Y-12020746D02*
G75*
G03*
X26779254Y-12020746I-50000J0D01*
G01*
%TO.C,D31*%
X14279254Y-12020746D02*
G75*
G03*
X14279254Y-12020746I-50000J0D01*
G01*
%TO.C,D24*%
X24279254Y-9520746D02*
G75*
G03*
X24279254Y-9520746I-50000J0D01*
G01*
%TO.C,D25*%
X26779254Y-9520746D02*
G75*
G03*
X26779254Y-9520746I-50000J0D01*
G01*
%TO.C,D99*%
X19279254Y-27020746D02*
G75*
G03*
X19279254Y-27020746I-50000J0D01*
G01*
%TO.C,D49*%
X4279254Y-17020746D02*
G75*
G03*
X4279254Y-17020746I-50000J0D01*
G01*
%TO.C,D3*%
X1779254Y-30479254D02*
G75*
G03*
X1779254Y-30479254I-50000J0D01*
G01*
%TO.C,D105*%
X6779254Y-29520746D02*
G75*
G03*
X6779254Y-29520746I-50000J0D01*
G01*
%TO.C,D93*%
X4279254Y-27020746D02*
G75*
G03*
X4279254Y-27020746I-50000J0D01*
G01*
%TO.C,D46*%
X24279254Y-14520746D02*
G75*
G03*
X24279254Y-14520746I-50000J0D01*
G01*
%TO.C,D51*%
X9279254Y-17020746D02*
G75*
G03*
X9279254Y-17020746I-50000J0D01*
G01*
%TO.C,D79*%
X24279254Y-22020746D02*
G75*
G03*
X24279254Y-22020746I-50000J0D01*
G01*
%TO.C,D53*%
X14279254Y-17020746D02*
G75*
G03*
X14279254Y-17020746I-50000J0D01*
G01*
%TO.C,D6*%
X6779254Y-7020746D02*
G75*
G03*
X6779254Y-7020746I-50000J0D01*
G01*
%TO.C,D106*%
X9279254Y-29520746D02*
G75*
G03*
X9279254Y-29520746I-50000J0D01*
G01*
%TO.C,D82*%
X4279254Y-24520746D02*
G75*
G03*
X4279254Y-24520746I-50000J0D01*
G01*
%TO.C,D16*%
X4279254Y-9520746D02*
G75*
G03*
X4279254Y-9520746I-50000J0D01*
G01*
%TO.C,D68*%
X24279254Y-19520746D02*
G75*
G03*
X24279254Y-19520746I-50000J0D01*
G01*
%TO.C,D107*%
X11779254Y-29520746D02*
G75*
G03*
X11779254Y-29520746I-50000J0D01*
G01*
%TO.C,D34*%
X21779254Y-12020746D02*
G75*
G03*
X21779254Y-12020746I-50000J0D01*
G01*
%TO.C,D85*%
X11779254Y-24520746D02*
G75*
G03*
X11779254Y-24520746I-50000J0D01*
G01*
%TO.C,D8*%
X11779254Y-7020746D02*
G75*
G03*
X11779254Y-7020746I-50000J0D01*
G01*
%TO.C,D70*%
X29279254Y-19520746D02*
G75*
G03*
X29279254Y-19520746I-50000J0D01*
G01*
%TO.C,D21*%
X16779254Y-9520746D02*
G75*
G03*
X16779254Y-9520746I-50000J0D01*
G01*
%TO.C,D44*%
X19279254Y-14520746D02*
G75*
G03*
X19279254Y-14520746I-50000J0D01*
G01*
%TO.C,D92*%
X29279254Y-24520746D02*
G75*
G03*
X29279254Y-24520746I-50000J0D01*
G01*
%TO.C,D41*%
X11779254Y-14520746D02*
G75*
G03*
X11779254Y-14520746I-50000J0D01*
G01*
%TO.C,D91*%
X26779254Y-24520746D02*
G75*
G03*
X26779254Y-24520746I-50000J0D01*
G01*
%TO.C,D45*%
X21779254Y-14520746D02*
G75*
G03*
X21779254Y-14520746I-50000J0D01*
G01*
%TO.C,D11*%
X19279254Y-7020746D02*
G75*
G03*
X19279254Y-7020746I-50000J0D01*
G01*
%TO.C,D77*%
X19279254Y-22020746D02*
G75*
G03*
X19279254Y-22020746I-50000J0D01*
G01*
%TO.C,D83*%
X6779254Y-24520746D02*
G75*
G03*
X6779254Y-24520746I-50000J0D01*
G01*
%TO.C,D87*%
X16779254Y-24520746D02*
G75*
G03*
X16779254Y-24520746I-50000J0D01*
G01*
%TO.C,D89*%
X21779254Y-24520746D02*
G75*
G03*
X21779254Y-24520746I-50000J0D01*
G01*
%TO.C,D4*%
X33320746Y-30479254D02*
G75*
G03*
X33320746Y-30479254I-50000J0D01*
G01*
%TO.C,D9*%
X14279254Y-7020746D02*
G75*
G03*
X14279254Y-7020746I-50000J0D01*
G01*
%TO.C,D76*%
X16779254Y-22020746D02*
G75*
G03*
X16779254Y-22020746I-50000J0D01*
G01*
%TO.C,D50*%
X6779254Y-17020746D02*
G75*
G03*
X6779254Y-17020746I-50000J0D01*
G01*
%TO.C,D48*%
X29279254Y-14520746D02*
G75*
G03*
X29279254Y-14520746I-50000J0D01*
G01*
%TO.C,D74*%
X11779254Y-22020746D02*
G75*
G03*
X11779254Y-22020746I-50000J0D01*
G01*
%TO.C,D30*%
X11779254Y-12020746D02*
G75*
G03*
X11779254Y-12020746I-50000J0D01*
G01*
%TO.C,D14*%
X26779254Y-7020746D02*
G75*
G03*
X26779254Y-7020746I-50000J0D01*
G01*
%TO.C,D59*%
X29279254Y-17020746D02*
G75*
G03*
X29279254Y-17020746I-50000J0D01*
G01*
%TO.C,D19*%
X11779254Y-9520746D02*
G75*
G03*
X11779254Y-9520746I-50000J0D01*
G01*
%TO.C,D90*%
X24279254Y-24520746D02*
G75*
G03*
X24279254Y-24520746I-50000J0D01*
G01*
%TO.C,D43*%
X16779254Y-14520746D02*
G75*
G03*
X16779254Y-14520746I-50000J0D01*
G01*
%TO.C,D104*%
X4279254Y-29520746D02*
G75*
G03*
X4279254Y-29520746I-50000J0D01*
G01*
%TO.C,D61*%
X6779254Y-19520746D02*
G75*
G03*
X6779254Y-19520746I-50000J0D01*
G01*
%TO.C,D71*%
X4279254Y-22020746D02*
G75*
G03*
X4279254Y-22020746I-50000J0D01*
G01*
%TO.C,D32*%
X16779254Y-12020746D02*
G75*
G03*
X16779254Y-12020746I-50000J0D01*
G01*
%TO.C,D28*%
X6779254Y-12020746D02*
G75*
G03*
X6779254Y-12020746I-50000J0D01*
G01*
%TO.C,D63*%
X11779254Y-19520746D02*
G75*
G03*
X11779254Y-19520746I-50000J0D01*
G01*
%TO.C,D26*%
X29279254Y-9520746D02*
G75*
G03*
X29279254Y-9520746I-50000J0D01*
G01*
%TO.C,D22*%
X19279254Y-9520746D02*
G75*
G03*
X19279254Y-9520746I-50000J0D01*
G01*
%TO.C,D37*%
X29279254Y-12020746D02*
G75*
G03*
X29279254Y-12020746I-50000J0D01*
G01*
%TO.C,D97*%
X14279254Y-27020746D02*
G75*
G03*
X14279254Y-27020746I-50000J0D01*
G01*
%TO.C,D38*%
X4279254Y-14520746D02*
G75*
G03*
X4279254Y-14520746I-50000J0D01*
G01*
%TO.C,D67*%
X21779254Y-19520746D02*
G75*
G03*
X21779254Y-19520746I-50000J0D01*
G01*
%TO.C,D58*%
X26779254Y-17020746D02*
G75*
G03*
X26779254Y-17020746I-50000J0D01*
G01*
%TO.C,D81*%
X29279254Y-22020746D02*
G75*
G03*
X29279254Y-22020746I-50000J0D01*
G01*
%TO.C,D102*%
X26779254Y-27020746D02*
G75*
G03*
X26779254Y-27020746I-50000J0D01*
G01*
%TO.C,D110*%
X19279254Y-29520746D02*
G75*
G03*
X19279254Y-29520746I-50000J0D01*
G01*
%TO.C,D98*%
X16779254Y-27020746D02*
G75*
G03*
X16779254Y-27020746I-50000J0D01*
G01*
%TO.C,D42*%
X14279254Y-14520746D02*
G75*
G03*
X14279254Y-14520746I-50000J0D01*
G01*
%TO.C,D5*%
X4279254Y-7020746D02*
G75*
G03*
X4279254Y-7020746I-50000J0D01*
G01*
%TO.C,D64*%
X14279254Y-19520746D02*
G75*
G03*
X14279254Y-19520746I-50000J0D01*
G01*
%TO.C,D86*%
X14279254Y-24520746D02*
G75*
G03*
X14279254Y-24520746I-50000J0D01*
G01*
%TO.C,D94*%
X6779254Y-27020746D02*
G75*
G03*
X6779254Y-27020746I-50000J0D01*
G01*
%TD*%
%LPC*%
D11*
%TO.C,D47*%
X27157053Y-14092947D03*
X27842947Y-13407053D03*
%TD*%
%TO.C,D108*%
X14657053Y-29092947D03*
X15342947Y-28407053D03*
%TD*%
%TO.C,D20*%
X14657053Y-9092947D03*
X15342947Y-8407053D03*
%TD*%
%TO.C,D62*%
X9657053Y-19092947D03*
X10342947Y-18407053D03*
%TD*%
%TO.C,D10*%
X17157053Y-6592947D03*
X17842947Y-5907053D03*
%TD*%
%TO.C,D73*%
X9657053Y-21592947D03*
X10342947Y-20907053D03*
%TD*%
%TO.C,D23*%
X22157053Y-9092947D03*
X22842947Y-8407053D03*
%TD*%
%TO.C,D12*%
X22157053Y-6592947D03*
X22842947Y-5907053D03*
%TD*%
%TO.C,D111*%
X22157053Y-29092947D03*
X22842947Y-28407053D03*
%TD*%
%TO.C,D56*%
X22157053Y-16592947D03*
X22842947Y-15907053D03*
%TD*%
%TO.C,D112*%
X24657053Y-29092947D03*
X25342947Y-28407053D03*
%TD*%
%TO.C,D88*%
X19657053Y-24092947D03*
X20342947Y-23407053D03*
%TD*%
%TO.C,D100*%
X22157053Y-26592947D03*
X22842947Y-25907053D03*
%TD*%
%TO.C,D1*%
X2157053Y-4092947D03*
X2842947Y-3407053D03*
%TD*%
%TO.C,D55*%
X19657053Y-16592947D03*
X20342947Y-15907053D03*
%TD*%
%TO.C,D114*%
X29657053Y-29092947D03*
X30342947Y-28407053D03*
%TD*%
%TO.C,D80*%
X27157053Y-21592947D03*
X27842947Y-20907053D03*
%TD*%
%TO.C,D66*%
X19657053Y-19092947D03*
X20342947Y-18407053D03*
%TD*%
%TO.C,D69*%
X27157053Y-19092947D03*
X27842947Y-18407053D03*
%TD*%
%TO.C,D39*%
X7157053Y-14092947D03*
X7842947Y-13407053D03*
%TD*%
%TO.C,D72*%
X7157053Y-21592947D03*
X7842947Y-20907053D03*
%TD*%
%TO.C,D57*%
X24657053Y-16592947D03*
X25342947Y-15907053D03*
%TD*%
%TO.C,D60*%
X4657053Y-19092947D03*
X5342947Y-18407053D03*
%TD*%
%TO.C,D17*%
X7157053Y-9092947D03*
X7842947Y-8407053D03*
%TD*%
%TO.C,D75*%
X14657053Y-21592947D03*
X15342947Y-20907053D03*
%TD*%
%TO.C,D33*%
X19657053Y-11592947D03*
X20342947Y-10907053D03*
%TD*%
%TO.C,D35*%
X24657053Y-11592947D03*
X25342947Y-10907053D03*
%TD*%
%TO.C,D52*%
X12157053Y-16592947D03*
X12842947Y-15907053D03*
%TD*%
%TO.C,D54*%
X17157053Y-16592947D03*
X17842947Y-15907053D03*
%TD*%
%TO.C,D13*%
X24657053Y-6592947D03*
X25342947Y-5907053D03*
%TD*%
%TO.C,D15*%
X29657053Y-6592947D03*
X30342947Y-5907053D03*
%TD*%
%TO.C,D96*%
X12157053Y-26592947D03*
X12842947Y-25907053D03*
%TD*%
%TO.C,D109*%
X17157053Y-29092947D03*
X17842947Y-28407053D03*
%TD*%
%TO.C,D65*%
X17157053Y-19092947D03*
X17842947Y-18407053D03*
%TD*%
%TO.C,D18*%
X9657053Y-9092947D03*
X10342947Y-8407053D03*
%TD*%
%TO.C,D40*%
X9657053Y-14092947D03*
X10342947Y-13407053D03*
%TD*%
%TO.C,D101*%
X24657053Y-26592947D03*
X25342947Y-25907053D03*
%TD*%
%TO.C,D84*%
X9657053Y-24092947D03*
X10342947Y-23407053D03*
%TD*%
%TO.C,D7*%
X9657053Y-6592947D03*
X10342947Y-5907053D03*
%TD*%
%TO.C,D29*%
X9657053Y-11592947D03*
X10342947Y-10907053D03*
%TD*%
%TO.C,D27*%
X4657053Y-11592947D03*
X5342947Y-10907053D03*
%TD*%
%TO.C,D113*%
X27157053Y-29092947D03*
X27842947Y-28407053D03*
%TD*%
D12*
%TO.C,D2*%
X32842947Y-4092947D03*
X32157053Y-3407053D03*
%TD*%
D11*
%TO.C,D95*%
X9657053Y-26592947D03*
X10342947Y-25907053D03*
%TD*%
%TO.C,D103*%
X29657053Y-26592947D03*
X30342947Y-25907053D03*
%TD*%
%TO.C,D78*%
X22157053Y-21592947D03*
X22842947Y-20907053D03*
%TD*%
%TO.C,D36*%
X27157053Y-11592947D03*
X27842947Y-10907053D03*
%TD*%
%TO.C,D31*%
X14657053Y-11592947D03*
X15342947Y-10907053D03*
%TD*%
%TO.C,D24*%
X24657053Y-9092947D03*
X25342947Y-8407053D03*
%TD*%
%TO.C,D25*%
X27157053Y-9092947D03*
X27842947Y-8407053D03*
%TD*%
%TO.C,D99*%
X19657053Y-26592947D03*
X20342947Y-25907053D03*
%TD*%
%TO.C,D49*%
X4657053Y-16592947D03*
X5342947Y-15907053D03*
%TD*%
D13*
%TO.C,D3*%
X2157053Y-30907053D03*
X2842947Y-31592947D03*
%TD*%
D11*
%TO.C,D105*%
X7157053Y-29092947D03*
X7842947Y-28407053D03*
%TD*%
%TO.C,D93*%
X4657053Y-26592947D03*
X5342947Y-25907053D03*
%TD*%
%TO.C,D46*%
X24657053Y-14092947D03*
X25342947Y-13407053D03*
%TD*%
%TO.C,D51*%
X9657053Y-16592947D03*
X10342947Y-15907053D03*
%TD*%
%TO.C,D79*%
X24657053Y-21592947D03*
X25342947Y-20907053D03*
%TD*%
%TO.C,D53*%
X14657053Y-16592947D03*
X15342947Y-15907053D03*
%TD*%
%TO.C,D6*%
X7157053Y-6592947D03*
X7842947Y-5907053D03*
%TD*%
%TO.C,D106*%
X9657053Y-29092947D03*
X10342947Y-28407053D03*
%TD*%
%TO.C,D82*%
X4657053Y-24092947D03*
X5342947Y-23407053D03*
%TD*%
%TO.C,D16*%
X4657053Y-9092947D03*
X5342947Y-8407053D03*
%TD*%
%TO.C,D68*%
X24657053Y-19092947D03*
X25342947Y-18407053D03*
%TD*%
%TO.C,D107*%
X12157053Y-29092947D03*
X12842947Y-28407053D03*
%TD*%
%TO.C,D34*%
X22157053Y-11592947D03*
X22842947Y-10907053D03*
%TD*%
%TO.C,D85*%
X12157053Y-24092947D03*
X12842947Y-23407053D03*
%TD*%
%TO.C,D8*%
X12157053Y-6592947D03*
X12842947Y-5907053D03*
%TD*%
%TO.C,D70*%
X29657053Y-19092947D03*
X30342947Y-18407053D03*
%TD*%
%TO.C,D21*%
X17157053Y-9092947D03*
X17842947Y-8407053D03*
%TD*%
%TO.C,D44*%
X19657053Y-14092947D03*
X20342947Y-13407053D03*
%TD*%
%TO.C,D92*%
X29657053Y-24092947D03*
X30342947Y-23407053D03*
%TD*%
%TO.C,D41*%
X12157053Y-14092947D03*
X12842947Y-13407053D03*
%TD*%
%TO.C,D91*%
X27157053Y-24092947D03*
X27842947Y-23407053D03*
%TD*%
%TO.C,D45*%
X22157053Y-14092947D03*
X22842947Y-13407053D03*
%TD*%
%TO.C,D11*%
X19657053Y-6592947D03*
X20342947Y-5907053D03*
%TD*%
%TO.C,D77*%
X19657053Y-21592947D03*
X20342947Y-20907053D03*
%TD*%
%TO.C,D83*%
X7157053Y-24092947D03*
X7842947Y-23407053D03*
%TD*%
%TO.C,D87*%
X17157053Y-24092947D03*
X17842947Y-23407053D03*
%TD*%
%TO.C,D89*%
X22157053Y-24092947D03*
X22842947Y-23407053D03*
%TD*%
D14*
%TO.C,D4*%
X32842947Y-30907053D03*
X32157053Y-31592947D03*
%TD*%
D11*
%TO.C,D9*%
X14657053Y-6592947D03*
X15342947Y-5907053D03*
%TD*%
%TO.C,D76*%
X17157053Y-21592947D03*
X17842947Y-20907053D03*
%TD*%
%TO.C,D50*%
X7157053Y-16592947D03*
X7842947Y-15907053D03*
%TD*%
%TO.C,D48*%
X29657053Y-14092947D03*
X30342947Y-13407053D03*
%TD*%
%TO.C,D74*%
X12157053Y-21592947D03*
X12842947Y-20907053D03*
%TD*%
%TO.C,D30*%
X12157053Y-11592947D03*
X12842947Y-10907053D03*
%TD*%
%TO.C,D14*%
X27157053Y-6592947D03*
X27842947Y-5907053D03*
%TD*%
%TO.C,D59*%
X29657053Y-16592947D03*
X30342947Y-15907053D03*
%TD*%
%TO.C,D19*%
X12157053Y-9092947D03*
X12842947Y-8407053D03*
%TD*%
%TO.C,D90*%
X24657053Y-24092947D03*
X25342947Y-23407053D03*
%TD*%
%TO.C,D43*%
X17157053Y-14092947D03*
X17842947Y-13407053D03*
%TD*%
%TO.C,D104*%
X4657053Y-29092947D03*
X5342947Y-28407053D03*
%TD*%
%TO.C,D61*%
X7157053Y-19092947D03*
X7842947Y-18407053D03*
%TD*%
%TO.C,D71*%
X4657053Y-21592947D03*
X5342947Y-20907053D03*
%TD*%
%TO.C,D32*%
X17157053Y-11592947D03*
X17842947Y-10907053D03*
%TD*%
%TO.C,D28*%
X7157053Y-11592947D03*
X7842947Y-10907053D03*
%TD*%
%TO.C,D63*%
X12157053Y-19092947D03*
X12842947Y-18407053D03*
%TD*%
%TO.C,D26*%
X29657053Y-9092947D03*
X30342947Y-8407053D03*
%TD*%
%TO.C,D22*%
X19657053Y-9092947D03*
X20342947Y-8407053D03*
%TD*%
%TO.C,D37*%
X29657053Y-11592947D03*
X30342947Y-10907053D03*
%TD*%
%TO.C,D97*%
X14657053Y-26592947D03*
X15342947Y-25907053D03*
%TD*%
%TO.C,D38*%
X4657053Y-14092947D03*
X5342947Y-13407053D03*
%TD*%
%TO.C,D67*%
X22157053Y-19092947D03*
X22842947Y-18407053D03*
%TD*%
%TO.C,D58*%
X27157053Y-16592947D03*
X27842947Y-15907053D03*
%TD*%
%TO.C,D81*%
X29657053Y-21592947D03*
X30342947Y-20907053D03*
%TD*%
%TO.C,D102*%
X27157053Y-26592947D03*
X27842947Y-25907053D03*
%TD*%
%TO.C,D110*%
X19657053Y-29092947D03*
X20342947Y-28407053D03*
%TD*%
%TO.C,D98*%
X17157053Y-26592947D03*
X17842947Y-25907053D03*
%TD*%
%TO.C,D42*%
X14657053Y-14092947D03*
X15342947Y-13407053D03*
%TD*%
%TO.C,D5*%
X4657053Y-6592947D03*
X5342947Y-5907053D03*
%TD*%
%TO.C,D64*%
X14657053Y-19092947D03*
X15342947Y-18407053D03*
%TD*%
%TO.C,D86*%
X14657053Y-24092947D03*
X15342947Y-23407053D03*
%TD*%
%TO.C,D94*%
X7157053Y-26592947D03*
X7842947Y-25907053D03*
%TD*%
D15*
%TO.C,SW1*%
X32750000Y-15375000D03*
X32750000Y-19625000D03*
%TD*%
%LPD*%
M02*
