%TF.GenerationSoftware,KiCad,Pcbnew,7.0.8*%
%TF.CreationDate,2023-11-09T10:40:38+10:00*%
%TF.ProjectId,LEDBoard,4c454442-6f61-4726-942e-6b696361645f,rev?*%
%TF.SameCoordinates,Original*%
%TF.FileFunction,Copper,L2,Inr*%
%TF.FilePolarity,Positive*%
%FSLAX46Y46*%
G04 Gerber Fmt 4.6, Leading zero omitted, Abs format (unit mm)*
G04 Created by KiCad (PCBNEW 7.0.8) date 2023-11-09 10:40:38*
%MOMM*%
%LPD*%
G01*
G04 APERTURE LIST*
%TA.AperFunction,ViaPad*%
%ADD10C,0.450000*%
%TD*%
G04 APERTURE END LIST*
D10*
%TO.N,-BATT*%
X32000000Y-8000000D03*
X5400000Y-30000000D03*
X1750000Y-10250000D03*
X32150000Y-24500000D03*
X750000Y-16750000D03*
X32000000Y-9000000D03*
X33000000Y-23250000D03*
X33000000Y-25750000D03*
X2250000Y-16750000D03*
X8500000Y-3750000D03*
X31250000Y-25750000D03*
X32000000Y-7000000D03*
X6250000Y-29250000D03*
X31250000Y-23250000D03*
X34500000Y-8000000D03*
X4500000Y-30000000D03*
X34500000Y-9000000D03*
X31500000Y-19750000D03*
X26250000Y-4000000D03*
X6250000Y-33500000D03*
X31500000Y-15250000D03*
X1500000Y-16750000D03*
X1750000Y-3000000D03*
X32250000Y-30250000D03*
X34500000Y-7000000D03*
%TO.N,/LED0*%
X25500000Y-4000000D03*
%TO.N,/LED1*%
X31000000Y-3250000D03*
%TO.N,/LED2*%
X23500000Y-30250000D03*
%TO.N,/LED3*%
X27000000Y-30900000D03*
%TO.N,/LED Array/COL0*%
X4000000Y-28000000D03*
X5250000Y-24750000D03*
X5250000Y-27250000D03*
X5750000Y-4500000D03*
%TO.N,/LED Array/ROW0*%
X5750000Y-5250000D03*
%TO.N,/LED Array/COL1*%
X8000000Y-27000000D03*
X8000000Y-14500000D03*
X8000000Y-22000000D03*
X8000000Y-29500000D03*
X6250000Y-9750000D03*
X8000000Y-17000000D03*
X8000000Y-24500000D03*
X8000000Y-19500000D03*
X8000000Y-12000000D03*
%TO.N,/LED Array/COL2*%
X10500000Y-17000000D03*
X10500000Y-24500000D03*
X10250000Y-9750000D03*
X10500000Y-22000000D03*
X10500000Y-27000000D03*
X10500000Y-14500000D03*
X10500000Y-12000000D03*
X10500000Y-29500000D03*
X11000000Y-6750000D03*
X10500000Y-19500000D03*
%TO.N,/LED Array/COL3*%
X13000000Y-27000000D03*
X13000000Y-29500000D03*
X13000000Y-14500000D03*
X13000000Y-12000000D03*
X13000000Y-19500000D03*
X13000000Y-22000000D03*
X13000000Y-17000000D03*
X13000000Y-7250000D03*
X13000000Y-9500000D03*
X13000000Y-24500000D03*
%TO.N,/LED Array/COL4*%
X15500000Y-27000000D03*
X15500000Y-29500000D03*
X15500000Y-19500000D03*
X15500000Y-7000000D03*
X15500000Y-12000000D03*
X15500000Y-24500000D03*
X15500000Y-17000000D03*
X15500000Y-9500000D03*
X15500000Y-22000000D03*
X15500000Y-14500000D03*
%TO.N,/LED Array/COL5*%
X18000000Y-19500000D03*
X18000000Y-29500000D03*
X18000000Y-22000000D03*
X18000000Y-7000000D03*
X18000000Y-24500000D03*
X18000000Y-17000000D03*
X18000000Y-14500000D03*
X18000000Y-12000000D03*
X18000000Y-9500000D03*
X18000000Y-27000000D03*
%TO.N,/LED Array/COL6*%
X20500000Y-27000000D03*
X20500000Y-29500000D03*
X20500000Y-9500000D03*
X20500000Y-7000000D03*
X20500000Y-24500000D03*
X20500000Y-19500000D03*
X20500000Y-14500000D03*
X20500000Y-17000000D03*
X20500000Y-22000000D03*
X20500000Y-12000000D03*
%TO.N,/LED Array/COL7*%
X23000000Y-19500000D03*
X23000000Y-14500000D03*
X23000000Y-24500000D03*
X23000000Y-7000000D03*
X23000000Y-27000000D03*
X23000000Y-9500000D03*
X23000000Y-22000000D03*
X23000000Y-12000000D03*
X23000000Y-29500000D03*
X23000000Y-17000000D03*
%TO.N,/LED Array/COL8*%
X25500000Y-29500000D03*
X25500000Y-12000000D03*
X25500000Y-27000000D03*
X25500000Y-22000000D03*
X25500000Y-17000000D03*
X24250000Y-10000000D03*
X25500000Y-24500000D03*
X24250000Y-7500000D03*
X25500000Y-19500000D03*
X25500000Y-14500000D03*
%TO.N,/LED Array/COL9*%
X28000000Y-17000000D03*
X28000000Y-22000000D03*
X28000000Y-24500000D03*
X28000000Y-27000000D03*
X28000000Y-14500000D03*
X28000000Y-19500000D03*
X28000000Y-29500000D03*
X25500000Y-7250000D03*
X26750000Y-10000000D03*
X28000000Y-12000000D03*
%TO.N,/LED Array/COL10*%
X29657053Y-25000000D03*
X29657053Y-12500000D03*
X23000000Y-4750000D03*
X29657053Y-15000000D03*
X30500000Y-29500000D03*
X29657053Y-22500000D03*
X29657053Y-27500000D03*
X29250000Y-7750000D03*
X29657053Y-17500000D03*
X29657053Y-20000000D03*
X29250000Y-10000000D03*
%TO.N,/LED Array/ROW1*%
X5750000Y-9000000D03*
%TO.N,/LED Array/ROW2*%
X6000000Y-11500000D03*
%TO.N,/LED Array/ROW3*%
X6000000Y-14000000D03*
%TO.N,/LED Array/ROW4*%
X6000000Y-16500000D03*
%TO.N,/LED Array/ROW5*%
X6000000Y-19000000D03*
%TO.N,/LED Array/ROW6*%
X6000000Y-21500000D03*
%TO.N,/LED Array/ROW7*%
X6000000Y-24000000D03*
%TO.N,/LED Array/ROW8*%
X500000Y-8250000D03*
%TO.N,/LED Array/ROW9*%
X750000Y-10000000D03*
%TO.N,+BATT*%
X34500000Y-4000000D03*
X32000000Y-5000000D03*
X32000000Y-6000000D03*
X6250000Y-31250000D03*
X4500000Y-32000000D03*
X34500000Y-5000000D03*
X32250000Y-12500000D03*
X5400000Y-32000000D03*
X34500000Y-6000000D03*
%TD*%
%TA.AperFunction,Conductor*%
%TO.N,-BATT*%
G36*
X32434134Y-219407D02*
G01*
X32445947Y-229496D01*
X34770504Y-2554053D01*
X34798281Y-2608570D01*
X34799500Y-2624057D01*
X34799500Y-3513499D01*
X34780593Y-3571690D01*
X34731093Y-3607654D01*
X34669907Y-3607654D01*
X34655556Y-3601709D01*
X34633127Y-3590281D01*
X34500000Y-3569196D01*
X34366872Y-3590281D01*
X34366870Y-3590282D01*
X34246782Y-3651470D01*
X34151470Y-3746782D01*
X34090282Y-3866870D01*
X34090281Y-3866872D01*
X34069196Y-3999999D01*
X34069196Y-4000000D01*
X34090281Y-4133127D01*
X34090282Y-4133129D01*
X34151470Y-4253217D01*
X34151472Y-4253220D01*
X34246780Y-4348528D01*
X34282778Y-4366870D01*
X34370939Y-4411791D01*
X34414203Y-4455056D01*
X34423774Y-4515488D01*
X34395996Y-4570004D01*
X34370939Y-4588209D01*
X34246781Y-4651471D01*
X34151470Y-4746782D01*
X34090282Y-4866870D01*
X34090281Y-4866872D01*
X34069196Y-4999999D01*
X34069196Y-5000000D01*
X34090281Y-5133127D01*
X34090282Y-5133129D01*
X34149831Y-5250000D01*
X34151472Y-5253220D01*
X34246780Y-5348528D01*
X34295940Y-5373576D01*
X34370939Y-5411791D01*
X34414203Y-5455056D01*
X34423774Y-5515488D01*
X34395996Y-5570004D01*
X34370939Y-5588209D01*
X34246781Y-5651471D01*
X34151470Y-5746782D01*
X34090282Y-5866870D01*
X34090281Y-5866872D01*
X34069196Y-5999999D01*
X34069196Y-6000000D01*
X34090281Y-6133127D01*
X34090282Y-6133129D01*
X34151470Y-6253217D01*
X34151472Y-6253220D01*
X34246780Y-6348528D01*
X34366874Y-6409719D01*
X34500000Y-6430804D01*
X34633126Y-6409719D01*
X34655555Y-6398290D01*
X34715985Y-6388719D01*
X34770502Y-6416495D01*
X34798281Y-6471011D01*
X34799500Y-6486500D01*
X34799500Y-32375942D01*
X34780593Y-32434133D01*
X34770504Y-32445946D01*
X32445947Y-34770504D01*
X32391430Y-34798281D01*
X32375943Y-34799500D01*
X18766737Y-34799500D01*
X18708546Y-34780593D01*
X18672582Y-34731093D01*
X18669241Y-34717691D01*
X18664024Y-34688101D01*
X18592179Y-34490709D01*
X18592176Y-34490703D01*
X18592175Y-34490700D01*
X18521339Y-34368011D01*
X18487149Y-34308791D01*
X18486161Y-34307613D01*
X18352131Y-34147884D01*
X18352129Y-34147882D01*
X18352124Y-34147876D01*
X18352117Y-34147870D01*
X18352115Y-34147868D01*
X18191214Y-34012855D01*
X18191212Y-34012853D01*
X18191209Y-34012851D01*
X18175339Y-34003688D01*
X18009299Y-33907824D01*
X18009296Y-33907823D01*
X18009291Y-33907821D01*
X17811899Y-33835976D01*
X17770525Y-33828680D01*
X17605034Y-33799500D01*
X17605030Y-33799500D01*
X17394970Y-33799500D01*
X17394965Y-33799500D01*
X17188101Y-33835976D01*
X16990703Y-33907823D01*
X16990700Y-33907824D01*
X16808792Y-34012850D01*
X16808785Y-34012855D01*
X16647884Y-34147868D01*
X16647868Y-34147884D01*
X16512855Y-34308785D01*
X16512850Y-34308792D01*
X16407824Y-34490700D01*
X16407823Y-34490703D01*
X16335976Y-34688101D01*
X16330759Y-34717691D01*
X16302034Y-34771714D01*
X16247042Y-34798536D01*
X16233263Y-34799500D01*
X2624058Y-34799500D01*
X2565867Y-34780593D01*
X2554054Y-34770504D01*
X229496Y-32445946D01*
X201719Y-32391429D01*
X200500Y-32375942D01*
X200500Y-32000000D01*
X4069196Y-32000000D01*
X4090281Y-32133127D01*
X4090282Y-32133129D01*
X4138209Y-32227190D01*
X4151472Y-32253220D01*
X4246780Y-32348528D01*
X4366874Y-32409719D01*
X4500000Y-32430804D01*
X4633126Y-32409719D01*
X4753220Y-32348528D01*
X4848528Y-32253220D01*
X4861791Y-32227188D01*
X4905055Y-32183925D01*
X4965487Y-32174354D01*
X5020003Y-32202131D01*
X5038206Y-32227185D01*
X5051472Y-32253220D01*
X5146780Y-32348528D01*
X5266874Y-32409719D01*
X5400000Y-32430804D01*
X5533126Y-32409719D01*
X5653220Y-32348528D01*
X5748528Y-32253220D01*
X5809719Y-32133126D01*
X5830804Y-32000000D01*
X5809719Y-31866874D01*
X5748528Y-31746780D01*
X5653220Y-31651472D01*
X5653217Y-31651470D01*
X5533129Y-31590282D01*
X5533127Y-31590281D01*
X5400000Y-31569196D01*
X5266872Y-31590281D01*
X5266870Y-31590282D01*
X5146782Y-31651470D01*
X5051471Y-31746781D01*
X5038209Y-31772810D01*
X4994944Y-31816074D01*
X4934512Y-31825645D01*
X4879996Y-31797867D01*
X4861791Y-31772810D01*
X4848529Y-31746782D01*
X4848528Y-31746780D01*
X4753220Y-31651472D01*
X4753217Y-31651470D01*
X4633129Y-31590282D01*
X4633127Y-31590281D01*
X4500000Y-31569196D01*
X4366872Y-31590281D01*
X4366870Y-31590282D01*
X4246782Y-31651470D01*
X4151470Y-31746782D01*
X4090282Y-31866870D01*
X4090281Y-31866872D01*
X4069196Y-31999999D01*
X4069196Y-32000000D01*
X200500Y-32000000D01*
X200500Y-31250000D01*
X5819196Y-31250000D01*
X5840281Y-31383127D01*
X5840282Y-31383129D01*
X5901470Y-31503217D01*
X5901472Y-31503220D01*
X5996780Y-31598528D01*
X6116874Y-31659719D01*
X6250000Y-31680804D01*
X6383126Y-31659719D01*
X6503220Y-31598528D01*
X6598528Y-31503220D01*
X6659719Y-31383126D01*
X6680804Y-31250000D01*
X6659719Y-31116874D01*
X6598528Y-30996780D01*
X6503220Y-30901472D01*
X6503217Y-30901470D01*
X6500332Y-30900000D01*
X26569196Y-30900000D01*
X26590281Y-31033127D01*
X26590282Y-31033129D01*
X26651470Y-31153217D01*
X26651472Y-31153220D01*
X26746780Y-31248528D01*
X26866874Y-31309719D01*
X27000000Y-31330804D01*
X27133126Y-31309719D01*
X27253220Y-31248528D01*
X27348528Y-31153220D01*
X27409719Y-31033126D01*
X27430804Y-30900000D01*
X27409719Y-30766874D01*
X27348528Y-30646780D01*
X27253220Y-30551472D01*
X27253217Y-30551470D01*
X27133129Y-30490282D01*
X27133127Y-30490281D01*
X27000000Y-30469196D01*
X26866872Y-30490281D01*
X26866870Y-30490282D01*
X26746782Y-30551470D01*
X26651470Y-30646782D01*
X26590282Y-30766870D01*
X26590281Y-30766872D01*
X26569196Y-30899999D01*
X26569196Y-30900000D01*
X6500332Y-30900000D01*
X6383129Y-30840282D01*
X6383127Y-30840281D01*
X6250000Y-30819196D01*
X6116872Y-30840281D01*
X6116870Y-30840282D01*
X5996782Y-30901470D01*
X5901470Y-30996782D01*
X5840282Y-31116870D01*
X5840281Y-31116872D01*
X5819196Y-31249999D01*
X5819196Y-31250000D01*
X200500Y-31250000D01*
X200500Y-29500000D01*
X7569196Y-29500000D01*
X7590281Y-29633127D01*
X7590282Y-29633129D01*
X7628134Y-29707417D01*
X7651472Y-29753220D01*
X7746780Y-29848528D01*
X7866874Y-29909719D01*
X8000000Y-29930804D01*
X8133126Y-29909719D01*
X8253220Y-29848528D01*
X8348528Y-29753220D01*
X8409719Y-29633126D01*
X8430804Y-29500000D01*
X10069196Y-29500000D01*
X10090281Y-29633127D01*
X10090282Y-29633129D01*
X10128134Y-29707417D01*
X10151472Y-29753220D01*
X10246780Y-29848528D01*
X10366874Y-29909719D01*
X10500000Y-29930804D01*
X10633126Y-29909719D01*
X10753220Y-29848528D01*
X10848528Y-29753220D01*
X10909719Y-29633126D01*
X10930804Y-29500000D01*
X12569196Y-29500000D01*
X12590281Y-29633127D01*
X12590282Y-29633129D01*
X12628134Y-29707417D01*
X12651472Y-29753220D01*
X12746780Y-29848528D01*
X12866874Y-29909719D01*
X13000000Y-29930804D01*
X13133126Y-29909719D01*
X13253220Y-29848528D01*
X13348528Y-29753220D01*
X13409719Y-29633126D01*
X13430804Y-29500000D01*
X15069196Y-29500000D01*
X15090281Y-29633127D01*
X15090282Y-29633129D01*
X15128134Y-29707417D01*
X15151472Y-29753220D01*
X15246780Y-29848528D01*
X15366874Y-29909719D01*
X15500000Y-29930804D01*
X15633126Y-29909719D01*
X15753220Y-29848528D01*
X15848528Y-29753220D01*
X15909719Y-29633126D01*
X15930804Y-29500000D01*
X17569196Y-29500000D01*
X17590281Y-29633127D01*
X17590282Y-29633129D01*
X17628134Y-29707417D01*
X17651472Y-29753220D01*
X17746780Y-29848528D01*
X17866874Y-29909719D01*
X18000000Y-29930804D01*
X18133126Y-29909719D01*
X18253220Y-29848528D01*
X18348528Y-29753220D01*
X18409719Y-29633126D01*
X18430804Y-29500000D01*
X20069196Y-29500000D01*
X20090281Y-29633127D01*
X20090282Y-29633129D01*
X20128134Y-29707417D01*
X20151472Y-29753220D01*
X20246780Y-29848528D01*
X20366874Y-29909719D01*
X20500000Y-29930804D01*
X20633126Y-29909719D01*
X20753220Y-29848528D01*
X20848528Y-29753220D01*
X20909719Y-29633126D01*
X20930804Y-29500000D01*
X22569196Y-29500000D01*
X22590281Y-29633127D01*
X22590282Y-29633129D01*
X22628134Y-29707417D01*
X22651472Y-29753220D01*
X22746780Y-29848528D01*
X22866874Y-29909719D01*
X23000000Y-29930804D01*
X23009429Y-29929310D01*
X23069860Y-29938880D01*
X23113125Y-29982143D01*
X23122699Y-30042575D01*
X23113127Y-30072036D01*
X23090281Y-30116874D01*
X23069196Y-30249999D01*
X23069196Y-30250000D01*
X23090281Y-30383127D01*
X23090282Y-30383129D01*
X23151470Y-30503217D01*
X23151472Y-30503220D01*
X23246780Y-30598528D01*
X23366874Y-30659719D01*
X23500000Y-30680804D01*
X23633126Y-30659719D01*
X23753220Y-30598528D01*
X23848528Y-30503220D01*
X23909719Y-30383126D01*
X23930804Y-30250000D01*
X23909719Y-30116874D01*
X23848528Y-29996780D01*
X23753220Y-29901472D01*
X23753217Y-29901470D01*
X23633129Y-29840282D01*
X23633127Y-29840281D01*
X23500000Y-29819196D01*
X23490565Y-29820690D01*
X23430134Y-29811116D01*
X23386871Y-29767850D01*
X23377301Y-29707417D01*
X23386870Y-29677968D01*
X23409719Y-29633126D01*
X23430804Y-29500000D01*
X25069196Y-29500000D01*
X25090281Y-29633127D01*
X25090282Y-29633129D01*
X25128134Y-29707417D01*
X25151472Y-29753220D01*
X25246780Y-29848528D01*
X25366874Y-29909719D01*
X25500000Y-29930804D01*
X25633126Y-29909719D01*
X25753220Y-29848528D01*
X25848528Y-29753220D01*
X25909719Y-29633126D01*
X25930804Y-29500000D01*
X27569196Y-29500000D01*
X27590281Y-29633127D01*
X27590282Y-29633129D01*
X27628134Y-29707417D01*
X27651472Y-29753220D01*
X27746780Y-29848528D01*
X27866874Y-29909719D01*
X28000000Y-29930804D01*
X28133126Y-29909719D01*
X28253220Y-29848528D01*
X28348528Y-29753220D01*
X28409719Y-29633126D01*
X28430804Y-29500000D01*
X30069196Y-29500000D01*
X30090281Y-29633127D01*
X30090282Y-29633129D01*
X30128134Y-29707417D01*
X30151472Y-29753220D01*
X30246780Y-29848528D01*
X30366874Y-29909719D01*
X30500000Y-29930804D01*
X30633126Y-29909719D01*
X30753220Y-29848528D01*
X30848528Y-29753220D01*
X30909719Y-29633126D01*
X30930804Y-29500000D01*
X30909719Y-29366874D01*
X30848528Y-29246780D01*
X30753220Y-29151472D01*
X30753217Y-29151470D01*
X30633129Y-29090282D01*
X30633127Y-29090281D01*
X30500000Y-29069196D01*
X30366872Y-29090281D01*
X30366870Y-29090282D01*
X30246782Y-29151470D01*
X30151470Y-29246782D01*
X30090282Y-29366870D01*
X30090281Y-29366872D01*
X30069196Y-29499999D01*
X30069196Y-29500000D01*
X28430804Y-29500000D01*
X28409719Y-29366874D01*
X28348528Y-29246780D01*
X28253220Y-29151472D01*
X28253217Y-29151470D01*
X28133129Y-29090282D01*
X28133127Y-29090281D01*
X28000000Y-29069196D01*
X27866872Y-29090281D01*
X27866870Y-29090282D01*
X27746782Y-29151470D01*
X27651470Y-29246782D01*
X27590282Y-29366870D01*
X27590281Y-29366872D01*
X27569196Y-29499999D01*
X27569196Y-29500000D01*
X25930804Y-29500000D01*
X25909719Y-29366874D01*
X25848528Y-29246780D01*
X25753220Y-29151472D01*
X25753217Y-29151470D01*
X25633129Y-29090282D01*
X25633127Y-29090281D01*
X25500000Y-29069196D01*
X25366872Y-29090281D01*
X25366870Y-29090282D01*
X25246782Y-29151470D01*
X25151470Y-29246782D01*
X25090282Y-29366870D01*
X25090281Y-29366872D01*
X25069196Y-29499999D01*
X25069196Y-29500000D01*
X23430804Y-29500000D01*
X23409719Y-29366874D01*
X23348528Y-29246780D01*
X23253220Y-29151472D01*
X23253217Y-29151470D01*
X23133129Y-29090282D01*
X23133127Y-29090281D01*
X23000000Y-29069196D01*
X22866872Y-29090281D01*
X22866870Y-29090282D01*
X22746782Y-29151470D01*
X22651470Y-29246782D01*
X22590282Y-29366870D01*
X22590281Y-29366872D01*
X22569196Y-29499999D01*
X22569196Y-29500000D01*
X20930804Y-29500000D01*
X20909719Y-29366874D01*
X20848528Y-29246780D01*
X20753220Y-29151472D01*
X20753217Y-29151470D01*
X20633129Y-29090282D01*
X20633127Y-29090281D01*
X20500000Y-29069196D01*
X20366872Y-29090281D01*
X20366870Y-29090282D01*
X20246782Y-29151470D01*
X20151470Y-29246782D01*
X20090282Y-29366870D01*
X20090281Y-29366872D01*
X20069196Y-29499999D01*
X20069196Y-29500000D01*
X18430804Y-29500000D01*
X18409719Y-29366874D01*
X18348528Y-29246780D01*
X18253220Y-29151472D01*
X18253217Y-29151470D01*
X18133129Y-29090282D01*
X18133127Y-29090281D01*
X18000000Y-29069196D01*
X17866872Y-29090281D01*
X17866870Y-29090282D01*
X17746782Y-29151470D01*
X17651470Y-29246782D01*
X17590282Y-29366870D01*
X17590281Y-29366872D01*
X17569196Y-29499999D01*
X17569196Y-29500000D01*
X15930804Y-29500000D01*
X15909719Y-29366874D01*
X15848528Y-29246780D01*
X15753220Y-29151472D01*
X15753217Y-29151470D01*
X15633129Y-29090282D01*
X15633127Y-29090281D01*
X15500000Y-29069196D01*
X15366872Y-29090281D01*
X15366870Y-29090282D01*
X15246782Y-29151470D01*
X15151470Y-29246782D01*
X15090282Y-29366870D01*
X15090281Y-29366872D01*
X15069196Y-29499999D01*
X15069196Y-29500000D01*
X13430804Y-29500000D01*
X13409719Y-29366874D01*
X13348528Y-29246780D01*
X13253220Y-29151472D01*
X13253217Y-29151470D01*
X13133129Y-29090282D01*
X13133127Y-29090281D01*
X13000000Y-29069196D01*
X12866872Y-29090281D01*
X12866870Y-29090282D01*
X12746782Y-29151470D01*
X12651470Y-29246782D01*
X12590282Y-29366870D01*
X12590281Y-29366872D01*
X12569196Y-29499999D01*
X12569196Y-29500000D01*
X10930804Y-29500000D01*
X10909719Y-29366874D01*
X10848528Y-29246780D01*
X10753220Y-29151472D01*
X10753217Y-29151470D01*
X10633129Y-29090282D01*
X10633127Y-29090281D01*
X10500000Y-29069196D01*
X10366872Y-29090281D01*
X10366870Y-29090282D01*
X10246782Y-29151470D01*
X10151470Y-29246782D01*
X10090282Y-29366870D01*
X10090281Y-29366872D01*
X10069196Y-29499999D01*
X10069196Y-29500000D01*
X8430804Y-29500000D01*
X8409719Y-29366874D01*
X8348528Y-29246780D01*
X8253220Y-29151472D01*
X8253217Y-29151470D01*
X8133129Y-29090282D01*
X8133127Y-29090281D01*
X8000000Y-29069196D01*
X7866872Y-29090281D01*
X7866870Y-29090282D01*
X7746782Y-29151470D01*
X7651470Y-29246782D01*
X7590282Y-29366870D01*
X7590281Y-29366872D01*
X7569196Y-29499999D01*
X7569196Y-29500000D01*
X200500Y-29500000D01*
X200500Y-28000000D01*
X3569196Y-28000000D01*
X3590281Y-28133127D01*
X3590282Y-28133129D01*
X3651470Y-28253217D01*
X3651472Y-28253220D01*
X3746780Y-28348528D01*
X3866874Y-28409719D01*
X4000000Y-28430804D01*
X4133126Y-28409719D01*
X4253220Y-28348528D01*
X4348528Y-28253220D01*
X4409719Y-28133126D01*
X4430804Y-28000000D01*
X4409719Y-27866874D01*
X4348528Y-27746780D01*
X4253220Y-27651472D01*
X4253217Y-27651470D01*
X4133129Y-27590282D01*
X4133127Y-27590281D01*
X4000000Y-27569196D01*
X3866872Y-27590281D01*
X3866870Y-27590282D01*
X3746782Y-27651470D01*
X3651470Y-27746782D01*
X3590282Y-27866870D01*
X3590281Y-27866872D01*
X3569196Y-27999999D01*
X3569196Y-28000000D01*
X200500Y-28000000D01*
X200500Y-27250000D01*
X4819196Y-27250000D01*
X4840281Y-27383127D01*
X4840282Y-27383129D01*
X4899831Y-27500000D01*
X4901472Y-27503220D01*
X4996780Y-27598528D01*
X5116874Y-27659719D01*
X5250000Y-27680804D01*
X5383126Y-27659719D01*
X5503220Y-27598528D01*
X5598528Y-27503220D01*
X5600169Y-27500000D01*
X29226249Y-27500000D01*
X29247334Y-27633127D01*
X29247335Y-27633129D01*
X29308523Y-27753217D01*
X29308525Y-27753220D01*
X29403833Y-27848528D01*
X29523927Y-27909719D01*
X29657053Y-27930804D01*
X29790179Y-27909719D01*
X29910273Y-27848528D01*
X30005581Y-27753220D01*
X30066772Y-27633126D01*
X30087857Y-27500000D01*
X30066772Y-27366874D01*
X30005581Y-27246780D01*
X29910273Y-27151472D01*
X29910270Y-27151470D01*
X29790182Y-27090282D01*
X29790180Y-27090281D01*
X29657053Y-27069196D01*
X29523925Y-27090281D01*
X29523923Y-27090282D01*
X29403835Y-27151470D01*
X29308523Y-27246782D01*
X29247335Y-27366870D01*
X29247334Y-27366872D01*
X29226249Y-27499999D01*
X29226249Y-27500000D01*
X5600169Y-27500000D01*
X5659719Y-27383126D01*
X5680804Y-27250000D01*
X5659719Y-27116874D01*
X5600169Y-27000000D01*
X7569196Y-27000000D01*
X7590281Y-27133127D01*
X7590282Y-27133129D01*
X7649831Y-27250000D01*
X7651472Y-27253220D01*
X7746780Y-27348528D01*
X7866874Y-27409719D01*
X8000000Y-27430804D01*
X8133126Y-27409719D01*
X8253220Y-27348528D01*
X8348528Y-27253220D01*
X8409719Y-27133126D01*
X8430804Y-27000000D01*
X10069196Y-27000000D01*
X10090281Y-27133127D01*
X10090282Y-27133129D01*
X10149831Y-27250000D01*
X10151472Y-27253220D01*
X10246780Y-27348528D01*
X10366874Y-27409719D01*
X10500000Y-27430804D01*
X10633126Y-27409719D01*
X10753220Y-27348528D01*
X10848528Y-27253220D01*
X10909719Y-27133126D01*
X10930804Y-27000000D01*
X12569196Y-27000000D01*
X12590281Y-27133127D01*
X12590282Y-27133129D01*
X12649831Y-27250000D01*
X12651472Y-27253220D01*
X12746780Y-27348528D01*
X12866874Y-27409719D01*
X13000000Y-27430804D01*
X13133126Y-27409719D01*
X13253220Y-27348528D01*
X13348528Y-27253220D01*
X13409719Y-27133126D01*
X13430804Y-27000000D01*
X15069196Y-27000000D01*
X15090281Y-27133127D01*
X15090282Y-27133129D01*
X15149831Y-27250000D01*
X15151472Y-27253220D01*
X15246780Y-27348528D01*
X15366874Y-27409719D01*
X15500000Y-27430804D01*
X15633126Y-27409719D01*
X15753220Y-27348528D01*
X15848528Y-27253220D01*
X15909719Y-27133126D01*
X15930804Y-27000000D01*
X17569196Y-27000000D01*
X17590281Y-27133127D01*
X17590282Y-27133129D01*
X17649831Y-27250000D01*
X17651472Y-27253220D01*
X17746780Y-27348528D01*
X17866874Y-27409719D01*
X18000000Y-27430804D01*
X18133126Y-27409719D01*
X18253220Y-27348528D01*
X18348528Y-27253220D01*
X18409719Y-27133126D01*
X18430804Y-27000000D01*
X20069196Y-27000000D01*
X20090281Y-27133127D01*
X20090282Y-27133129D01*
X20149831Y-27250000D01*
X20151472Y-27253220D01*
X20246780Y-27348528D01*
X20366874Y-27409719D01*
X20500000Y-27430804D01*
X20633126Y-27409719D01*
X20753220Y-27348528D01*
X20848528Y-27253220D01*
X20909719Y-27133126D01*
X20930804Y-27000000D01*
X22569196Y-27000000D01*
X22590281Y-27133127D01*
X22590282Y-27133129D01*
X22649831Y-27250000D01*
X22651472Y-27253220D01*
X22746780Y-27348528D01*
X22866874Y-27409719D01*
X23000000Y-27430804D01*
X23133126Y-27409719D01*
X23253220Y-27348528D01*
X23348528Y-27253220D01*
X23409719Y-27133126D01*
X23430804Y-27000000D01*
X25069196Y-27000000D01*
X25090281Y-27133127D01*
X25090282Y-27133129D01*
X25149831Y-27250000D01*
X25151472Y-27253220D01*
X25246780Y-27348528D01*
X25366874Y-27409719D01*
X25500000Y-27430804D01*
X25633126Y-27409719D01*
X25753220Y-27348528D01*
X25848528Y-27253220D01*
X25909719Y-27133126D01*
X25930804Y-27000000D01*
X27569196Y-27000000D01*
X27590281Y-27133127D01*
X27590282Y-27133129D01*
X27649831Y-27250000D01*
X27651472Y-27253220D01*
X27746780Y-27348528D01*
X27866874Y-27409719D01*
X28000000Y-27430804D01*
X28133126Y-27409719D01*
X28253220Y-27348528D01*
X28348528Y-27253220D01*
X28409719Y-27133126D01*
X28430804Y-27000000D01*
X28409719Y-26866874D01*
X28348528Y-26746780D01*
X28253220Y-26651472D01*
X28253217Y-26651470D01*
X28133129Y-26590282D01*
X28133127Y-26590281D01*
X28000000Y-26569196D01*
X27866872Y-26590281D01*
X27866870Y-26590282D01*
X27746782Y-26651470D01*
X27651470Y-26746782D01*
X27590282Y-26866870D01*
X27590281Y-26866872D01*
X27569196Y-26999999D01*
X27569196Y-27000000D01*
X25930804Y-27000000D01*
X25909719Y-26866874D01*
X25848528Y-26746780D01*
X25753220Y-26651472D01*
X25753217Y-26651470D01*
X25633129Y-26590282D01*
X25633127Y-26590281D01*
X25500000Y-26569196D01*
X25366872Y-26590281D01*
X25366870Y-26590282D01*
X25246782Y-26651470D01*
X25151470Y-26746782D01*
X25090282Y-26866870D01*
X25090281Y-26866872D01*
X25069196Y-26999999D01*
X25069196Y-27000000D01*
X23430804Y-27000000D01*
X23409719Y-26866874D01*
X23348528Y-26746780D01*
X23253220Y-26651472D01*
X23253217Y-26651470D01*
X23133129Y-26590282D01*
X23133127Y-26590281D01*
X23000000Y-26569196D01*
X22866872Y-26590281D01*
X22866870Y-26590282D01*
X22746782Y-26651470D01*
X22651470Y-26746782D01*
X22590282Y-26866870D01*
X22590281Y-26866872D01*
X22569196Y-26999999D01*
X22569196Y-27000000D01*
X20930804Y-27000000D01*
X20909719Y-26866874D01*
X20848528Y-26746780D01*
X20753220Y-26651472D01*
X20753217Y-26651470D01*
X20633129Y-26590282D01*
X20633127Y-26590281D01*
X20500000Y-26569196D01*
X20366872Y-26590281D01*
X20366870Y-26590282D01*
X20246782Y-26651470D01*
X20151470Y-26746782D01*
X20090282Y-26866870D01*
X20090281Y-26866872D01*
X20069196Y-26999999D01*
X20069196Y-27000000D01*
X18430804Y-27000000D01*
X18409719Y-26866874D01*
X18348528Y-26746780D01*
X18253220Y-26651472D01*
X18253217Y-26651470D01*
X18133129Y-26590282D01*
X18133127Y-26590281D01*
X18000000Y-26569196D01*
X17866872Y-26590281D01*
X17866870Y-26590282D01*
X17746782Y-26651470D01*
X17651470Y-26746782D01*
X17590282Y-26866870D01*
X17590281Y-26866872D01*
X17569196Y-26999999D01*
X17569196Y-27000000D01*
X15930804Y-27000000D01*
X15909719Y-26866874D01*
X15848528Y-26746780D01*
X15753220Y-26651472D01*
X15753217Y-26651470D01*
X15633129Y-26590282D01*
X15633127Y-26590281D01*
X15500000Y-26569196D01*
X15366872Y-26590281D01*
X15366870Y-26590282D01*
X15246782Y-26651470D01*
X15151470Y-26746782D01*
X15090282Y-26866870D01*
X15090281Y-26866872D01*
X15069196Y-26999999D01*
X15069196Y-27000000D01*
X13430804Y-27000000D01*
X13409719Y-26866874D01*
X13348528Y-26746780D01*
X13253220Y-26651472D01*
X13253217Y-26651470D01*
X13133129Y-26590282D01*
X13133127Y-26590281D01*
X13000000Y-26569196D01*
X12866872Y-26590281D01*
X12866870Y-26590282D01*
X12746782Y-26651470D01*
X12651470Y-26746782D01*
X12590282Y-26866870D01*
X12590281Y-26866872D01*
X12569196Y-26999999D01*
X12569196Y-27000000D01*
X10930804Y-27000000D01*
X10909719Y-26866874D01*
X10848528Y-26746780D01*
X10753220Y-26651472D01*
X10753217Y-26651470D01*
X10633129Y-26590282D01*
X10633127Y-26590281D01*
X10500000Y-26569196D01*
X10366872Y-26590281D01*
X10366870Y-26590282D01*
X10246782Y-26651470D01*
X10151470Y-26746782D01*
X10090282Y-26866870D01*
X10090281Y-26866872D01*
X10069196Y-26999999D01*
X10069196Y-27000000D01*
X8430804Y-27000000D01*
X8409719Y-26866874D01*
X8348528Y-26746780D01*
X8253220Y-26651472D01*
X8253217Y-26651470D01*
X8133129Y-26590282D01*
X8133127Y-26590281D01*
X8000000Y-26569196D01*
X7866872Y-26590281D01*
X7866870Y-26590282D01*
X7746782Y-26651470D01*
X7651470Y-26746782D01*
X7590282Y-26866870D01*
X7590281Y-26866872D01*
X7569196Y-26999999D01*
X7569196Y-27000000D01*
X5600169Y-27000000D01*
X5598528Y-26996780D01*
X5503220Y-26901472D01*
X5503217Y-26901470D01*
X5383129Y-26840282D01*
X5383127Y-26840281D01*
X5250000Y-26819196D01*
X5116872Y-26840281D01*
X5116870Y-26840282D01*
X4996782Y-26901470D01*
X4901470Y-26996782D01*
X4840282Y-27116870D01*
X4840281Y-27116872D01*
X4819196Y-27249999D01*
X4819196Y-27250000D01*
X200500Y-27250000D01*
X200500Y-24750000D01*
X4819196Y-24750000D01*
X4840281Y-24883127D01*
X4840282Y-24883129D01*
X4899831Y-25000000D01*
X4901472Y-25003220D01*
X4996780Y-25098528D01*
X5116874Y-25159719D01*
X5250000Y-25180804D01*
X5383126Y-25159719D01*
X5503220Y-25098528D01*
X5598528Y-25003220D01*
X5600169Y-25000000D01*
X29226249Y-25000000D01*
X29247334Y-25133127D01*
X29247335Y-25133129D01*
X29271627Y-25180804D01*
X29308525Y-25253220D01*
X29403833Y-25348528D01*
X29523927Y-25409719D01*
X29657053Y-25430804D01*
X29790179Y-25409719D01*
X29910273Y-25348528D01*
X30005581Y-25253220D01*
X30066772Y-25133126D01*
X30087857Y-25000000D01*
X30066772Y-24866874D01*
X30005581Y-24746780D01*
X29910273Y-24651472D01*
X29910270Y-24651470D01*
X29790182Y-24590282D01*
X29790180Y-24590281D01*
X29657053Y-24569196D01*
X29523925Y-24590281D01*
X29523923Y-24590282D01*
X29403835Y-24651470D01*
X29308523Y-24746782D01*
X29247335Y-24866870D01*
X29247334Y-24866872D01*
X29226249Y-24999999D01*
X29226249Y-25000000D01*
X5600169Y-25000000D01*
X5659719Y-24883126D01*
X5680804Y-24750000D01*
X5659719Y-24616874D01*
X5600169Y-24500000D01*
X7569196Y-24500000D01*
X7590281Y-24633127D01*
X7590282Y-24633129D01*
X7649831Y-24750000D01*
X7651472Y-24753220D01*
X7746780Y-24848528D01*
X7866874Y-24909719D01*
X8000000Y-24930804D01*
X8133126Y-24909719D01*
X8253220Y-24848528D01*
X8348528Y-24753220D01*
X8409719Y-24633126D01*
X8430804Y-24500000D01*
X10069196Y-24500000D01*
X10090281Y-24633127D01*
X10090282Y-24633129D01*
X10149831Y-24750000D01*
X10151472Y-24753220D01*
X10246780Y-24848528D01*
X10366874Y-24909719D01*
X10500000Y-24930804D01*
X10633126Y-24909719D01*
X10753220Y-24848528D01*
X10848528Y-24753220D01*
X10909719Y-24633126D01*
X10930804Y-24500000D01*
X12569196Y-24500000D01*
X12590281Y-24633127D01*
X12590282Y-24633129D01*
X12649831Y-24750000D01*
X12651472Y-24753220D01*
X12746780Y-24848528D01*
X12866874Y-24909719D01*
X13000000Y-24930804D01*
X13133126Y-24909719D01*
X13253220Y-24848528D01*
X13348528Y-24753220D01*
X13409719Y-24633126D01*
X13430804Y-24500000D01*
X15069196Y-24500000D01*
X15090281Y-24633127D01*
X15090282Y-24633129D01*
X15149831Y-24750000D01*
X15151472Y-24753220D01*
X15246780Y-24848528D01*
X15366874Y-24909719D01*
X15500000Y-24930804D01*
X15633126Y-24909719D01*
X15753220Y-24848528D01*
X15848528Y-24753220D01*
X15909719Y-24633126D01*
X15930804Y-24500000D01*
X17569196Y-24500000D01*
X17590281Y-24633127D01*
X17590282Y-24633129D01*
X17649831Y-24750000D01*
X17651472Y-24753220D01*
X17746780Y-24848528D01*
X17866874Y-24909719D01*
X18000000Y-24930804D01*
X18133126Y-24909719D01*
X18253220Y-24848528D01*
X18348528Y-24753220D01*
X18409719Y-24633126D01*
X18430804Y-24500000D01*
X20069196Y-24500000D01*
X20090281Y-24633127D01*
X20090282Y-24633129D01*
X20149831Y-24750000D01*
X20151472Y-24753220D01*
X20246780Y-24848528D01*
X20366874Y-24909719D01*
X20500000Y-24930804D01*
X20633126Y-24909719D01*
X20753220Y-24848528D01*
X20848528Y-24753220D01*
X20909719Y-24633126D01*
X20930804Y-24500000D01*
X22569196Y-24500000D01*
X22590281Y-24633127D01*
X22590282Y-24633129D01*
X22649831Y-24750000D01*
X22651472Y-24753220D01*
X22746780Y-24848528D01*
X22866874Y-24909719D01*
X23000000Y-24930804D01*
X23133126Y-24909719D01*
X23253220Y-24848528D01*
X23348528Y-24753220D01*
X23409719Y-24633126D01*
X23430804Y-24500000D01*
X25069196Y-24500000D01*
X25090281Y-24633127D01*
X25090282Y-24633129D01*
X25149831Y-24750000D01*
X25151472Y-24753220D01*
X25246780Y-24848528D01*
X25366874Y-24909719D01*
X25500000Y-24930804D01*
X25633126Y-24909719D01*
X25753220Y-24848528D01*
X25848528Y-24753220D01*
X25909719Y-24633126D01*
X25930804Y-24500000D01*
X27569196Y-24500000D01*
X27590281Y-24633127D01*
X27590282Y-24633129D01*
X27649831Y-24750000D01*
X27651472Y-24753220D01*
X27746780Y-24848528D01*
X27866874Y-24909719D01*
X28000000Y-24930804D01*
X28133126Y-24909719D01*
X28253220Y-24848528D01*
X28348528Y-24753220D01*
X28409719Y-24633126D01*
X28430804Y-24500000D01*
X28409719Y-24366874D01*
X28348528Y-24246780D01*
X28253220Y-24151472D01*
X28253217Y-24151470D01*
X28133129Y-24090282D01*
X28133127Y-24090281D01*
X28000000Y-24069196D01*
X27866872Y-24090281D01*
X27866870Y-24090282D01*
X27746782Y-24151470D01*
X27651470Y-24246782D01*
X27590282Y-24366870D01*
X27590281Y-24366872D01*
X27569196Y-24499999D01*
X27569196Y-24500000D01*
X25930804Y-24500000D01*
X25909719Y-24366874D01*
X25848528Y-24246780D01*
X25753220Y-24151472D01*
X25753217Y-24151470D01*
X25633129Y-24090282D01*
X25633127Y-24090281D01*
X25500000Y-24069196D01*
X25366872Y-24090281D01*
X25366870Y-24090282D01*
X25246782Y-24151470D01*
X25151470Y-24246782D01*
X25090282Y-24366870D01*
X25090281Y-24366872D01*
X25069196Y-24499999D01*
X25069196Y-24500000D01*
X23430804Y-24500000D01*
X23409719Y-24366874D01*
X23348528Y-24246780D01*
X23253220Y-24151472D01*
X23253217Y-24151470D01*
X23133129Y-24090282D01*
X23133127Y-24090281D01*
X23000000Y-24069196D01*
X22866872Y-24090281D01*
X22866870Y-24090282D01*
X22746782Y-24151470D01*
X22651470Y-24246782D01*
X22590282Y-24366870D01*
X22590281Y-24366872D01*
X22569196Y-24499999D01*
X22569196Y-24500000D01*
X20930804Y-24500000D01*
X20909719Y-24366874D01*
X20848528Y-24246780D01*
X20753220Y-24151472D01*
X20753217Y-24151470D01*
X20633129Y-24090282D01*
X20633127Y-24090281D01*
X20500000Y-24069196D01*
X20366872Y-24090281D01*
X20366870Y-24090282D01*
X20246782Y-24151470D01*
X20151470Y-24246782D01*
X20090282Y-24366870D01*
X20090281Y-24366872D01*
X20069196Y-24499999D01*
X20069196Y-24500000D01*
X18430804Y-24500000D01*
X18409719Y-24366874D01*
X18348528Y-24246780D01*
X18253220Y-24151472D01*
X18253217Y-24151470D01*
X18133129Y-24090282D01*
X18133127Y-24090281D01*
X18000000Y-24069196D01*
X17866872Y-24090281D01*
X17866870Y-24090282D01*
X17746782Y-24151470D01*
X17651470Y-24246782D01*
X17590282Y-24366870D01*
X17590281Y-24366872D01*
X17569196Y-24499999D01*
X17569196Y-24500000D01*
X15930804Y-24500000D01*
X15909719Y-24366874D01*
X15848528Y-24246780D01*
X15753220Y-24151472D01*
X15753217Y-24151470D01*
X15633129Y-24090282D01*
X15633127Y-24090281D01*
X15500000Y-24069196D01*
X15366872Y-24090281D01*
X15366870Y-24090282D01*
X15246782Y-24151470D01*
X15151470Y-24246782D01*
X15090282Y-24366870D01*
X15090281Y-24366872D01*
X15069196Y-24499999D01*
X15069196Y-24500000D01*
X13430804Y-24500000D01*
X13409719Y-24366874D01*
X13348528Y-24246780D01*
X13253220Y-24151472D01*
X13253217Y-24151470D01*
X13133129Y-24090282D01*
X13133127Y-24090281D01*
X13000000Y-24069196D01*
X12866872Y-24090281D01*
X12866870Y-24090282D01*
X12746782Y-24151470D01*
X12651470Y-24246782D01*
X12590282Y-24366870D01*
X12590281Y-24366872D01*
X12569196Y-24499999D01*
X12569196Y-24500000D01*
X10930804Y-24500000D01*
X10909719Y-24366874D01*
X10848528Y-24246780D01*
X10753220Y-24151472D01*
X10753217Y-24151470D01*
X10633129Y-24090282D01*
X10633127Y-24090281D01*
X10500000Y-24069196D01*
X10366872Y-24090281D01*
X10366870Y-24090282D01*
X10246782Y-24151470D01*
X10151470Y-24246782D01*
X10090282Y-24366870D01*
X10090281Y-24366872D01*
X10069196Y-24499999D01*
X10069196Y-24500000D01*
X8430804Y-24500000D01*
X8409719Y-24366874D01*
X8348528Y-24246780D01*
X8253220Y-24151472D01*
X8253217Y-24151470D01*
X8133129Y-24090282D01*
X8133127Y-24090281D01*
X8000000Y-24069196D01*
X7866872Y-24090281D01*
X7866870Y-24090282D01*
X7746782Y-24151470D01*
X7651470Y-24246782D01*
X7590282Y-24366870D01*
X7590281Y-24366872D01*
X7569196Y-24499999D01*
X7569196Y-24500000D01*
X5600169Y-24500000D01*
X5598528Y-24496780D01*
X5503220Y-24401472D01*
X5503217Y-24401470D01*
X5383129Y-24340282D01*
X5383127Y-24340281D01*
X5250000Y-24319196D01*
X5116872Y-24340281D01*
X5116870Y-24340282D01*
X4996782Y-24401470D01*
X4901470Y-24496782D01*
X4840282Y-24616870D01*
X4840281Y-24616872D01*
X4819196Y-24749999D01*
X4819196Y-24750000D01*
X200500Y-24750000D01*
X200500Y-24000000D01*
X5569196Y-24000000D01*
X5590281Y-24133127D01*
X5590282Y-24133129D01*
X5651470Y-24253217D01*
X5651472Y-24253220D01*
X5746780Y-24348528D01*
X5866874Y-24409719D01*
X6000000Y-24430804D01*
X6133126Y-24409719D01*
X6253220Y-24348528D01*
X6348528Y-24253220D01*
X6409719Y-24133126D01*
X6430804Y-24000000D01*
X6409719Y-23866874D01*
X6348528Y-23746780D01*
X6253220Y-23651472D01*
X6253217Y-23651470D01*
X6133129Y-23590282D01*
X6133127Y-23590281D01*
X6000000Y-23569196D01*
X5866872Y-23590281D01*
X5866870Y-23590282D01*
X5746782Y-23651470D01*
X5651470Y-23746782D01*
X5590282Y-23866870D01*
X5590281Y-23866872D01*
X5569196Y-23999999D01*
X5569196Y-24000000D01*
X200500Y-24000000D01*
X200500Y-22500000D01*
X29226249Y-22500000D01*
X29247334Y-22633127D01*
X29247335Y-22633129D01*
X29308523Y-22753217D01*
X29308525Y-22753220D01*
X29403833Y-22848528D01*
X29523927Y-22909719D01*
X29657053Y-22930804D01*
X29790179Y-22909719D01*
X29910273Y-22848528D01*
X30005581Y-22753220D01*
X30066772Y-22633126D01*
X30087857Y-22500000D01*
X30066772Y-22366874D01*
X30005581Y-22246780D01*
X29910273Y-22151472D01*
X29910270Y-22151470D01*
X29790182Y-22090282D01*
X29790180Y-22090281D01*
X29657053Y-22069196D01*
X29523925Y-22090281D01*
X29523923Y-22090282D01*
X29403835Y-22151470D01*
X29308523Y-22246782D01*
X29247335Y-22366870D01*
X29247334Y-22366872D01*
X29226249Y-22499999D01*
X29226249Y-22500000D01*
X200500Y-22500000D01*
X200500Y-22000000D01*
X7569196Y-22000000D01*
X7590281Y-22133127D01*
X7590282Y-22133129D01*
X7651470Y-22253217D01*
X7651472Y-22253220D01*
X7746780Y-22348528D01*
X7866874Y-22409719D01*
X8000000Y-22430804D01*
X8133126Y-22409719D01*
X8253220Y-22348528D01*
X8348528Y-22253220D01*
X8409719Y-22133126D01*
X8430804Y-22000000D01*
X10069196Y-22000000D01*
X10090281Y-22133127D01*
X10090282Y-22133129D01*
X10151470Y-22253217D01*
X10151472Y-22253220D01*
X10246780Y-22348528D01*
X10366874Y-22409719D01*
X10500000Y-22430804D01*
X10633126Y-22409719D01*
X10753220Y-22348528D01*
X10848528Y-22253220D01*
X10909719Y-22133126D01*
X10930804Y-22000000D01*
X12569196Y-22000000D01*
X12590281Y-22133127D01*
X12590282Y-22133129D01*
X12651470Y-22253217D01*
X12651472Y-22253220D01*
X12746780Y-22348528D01*
X12866874Y-22409719D01*
X13000000Y-22430804D01*
X13133126Y-22409719D01*
X13253220Y-22348528D01*
X13348528Y-22253220D01*
X13409719Y-22133126D01*
X13430804Y-22000000D01*
X15069196Y-22000000D01*
X15090281Y-22133127D01*
X15090282Y-22133129D01*
X15151470Y-22253217D01*
X15151472Y-22253220D01*
X15246780Y-22348528D01*
X15366874Y-22409719D01*
X15500000Y-22430804D01*
X15633126Y-22409719D01*
X15753220Y-22348528D01*
X15848528Y-22253220D01*
X15909719Y-22133126D01*
X15930804Y-22000000D01*
X17569196Y-22000000D01*
X17590281Y-22133127D01*
X17590282Y-22133129D01*
X17651470Y-22253217D01*
X17651472Y-22253220D01*
X17746780Y-22348528D01*
X17866874Y-22409719D01*
X18000000Y-22430804D01*
X18133126Y-22409719D01*
X18253220Y-22348528D01*
X18348528Y-22253220D01*
X18409719Y-22133126D01*
X18430804Y-22000000D01*
X20069196Y-22000000D01*
X20090281Y-22133127D01*
X20090282Y-22133129D01*
X20151470Y-22253217D01*
X20151472Y-22253220D01*
X20246780Y-22348528D01*
X20366874Y-22409719D01*
X20500000Y-22430804D01*
X20633126Y-22409719D01*
X20753220Y-22348528D01*
X20848528Y-22253220D01*
X20909719Y-22133126D01*
X20930804Y-22000000D01*
X22569196Y-22000000D01*
X22590281Y-22133127D01*
X22590282Y-22133129D01*
X22651470Y-22253217D01*
X22651472Y-22253220D01*
X22746780Y-22348528D01*
X22866874Y-22409719D01*
X23000000Y-22430804D01*
X23133126Y-22409719D01*
X23253220Y-22348528D01*
X23348528Y-22253220D01*
X23409719Y-22133126D01*
X23430804Y-22000000D01*
X25069196Y-22000000D01*
X25090281Y-22133127D01*
X25090282Y-22133129D01*
X25151470Y-22253217D01*
X25151472Y-22253220D01*
X25246780Y-22348528D01*
X25366874Y-22409719D01*
X25500000Y-22430804D01*
X25633126Y-22409719D01*
X25753220Y-22348528D01*
X25848528Y-22253220D01*
X25909719Y-22133126D01*
X25930804Y-22000000D01*
X27569196Y-22000000D01*
X27590281Y-22133127D01*
X27590282Y-22133129D01*
X27651470Y-22253217D01*
X27651472Y-22253220D01*
X27746780Y-22348528D01*
X27866874Y-22409719D01*
X28000000Y-22430804D01*
X28133126Y-22409719D01*
X28253220Y-22348528D01*
X28348528Y-22253220D01*
X28409719Y-22133126D01*
X28430804Y-22000000D01*
X28409719Y-21866874D01*
X28348528Y-21746780D01*
X28253220Y-21651472D01*
X28253217Y-21651470D01*
X28133129Y-21590282D01*
X28133127Y-21590281D01*
X28000000Y-21569196D01*
X27866872Y-21590281D01*
X27866870Y-21590282D01*
X27746782Y-21651470D01*
X27651470Y-21746782D01*
X27590282Y-21866870D01*
X27590281Y-21866872D01*
X27569196Y-21999999D01*
X27569196Y-22000000D01*
X25930804Y-22000000D01*
X25909719Y-21866874D01*
X25848528Y-21746780D01*
X25753220Y-21651472D01*
X25753217Y-21651470D01*
X25633129Y-21590282D01*
X25633127Y-21590281D01*
X25500000Y-21569196D01*
X25366872Y-21590281D01*
X25366870Y-21590282D01*
X25246782Y-21651470D01*
X25151470Y-21746782D01*
X25090282Y-21866870D01*
X25090281Y-21866872D01*
X25069196Y-21999999D01*
X25069196Y-22000000D01*
X23430804Y-22000000D01*
X23409719Y-21866874D01*
X23348528Y-21746780D01*
X23253220Y-21651472D01*
X23253217Y-21651470D01*
X23133129Y-21590282D01*
X23133127Y-21590281D01*
X23000000Y-21569196D01*
X22866872Y-21590281D01*
X22866870Y-21590282D01*
X22746782Y-21651470D01*
X22651470Y-21746782D01*
X22590282Y-21866870D01*
X22590281Y-21866872D01*
X22569196Y-21999999D01*
X22569196Y-22000000D01*
X20930804Y-22000000D01*
X20909719Y-21866874D01*
X20848528Y-21746780D01*
X20753220Y-21651472D01*
X20753217Y-21651470D01*
X20633129Y-21590282D01*
X20633127Y-21590281D01*
X20500000Y-21569196D01*
X20366872Y-21590281D01*
X20366870Y-21590282D01*
X20246782Y-21651470D01*
X20151470Y-21746782D01*
X20090282Y-21866870D01*
X20090281Y-21866872D01*
X20069196Y-21999999D01*
X20069196Y-22000000D01*
X18430804Y-22000000D01*
X18409719Y-21866874D01*
X18348528Y-21746780D01*
X18253220Y-21651472D01*
X18253217Y-21651470D01*
X18133129Y-21590282D01*
X18133127Y-21590281D01*
X18000000Y-21569196D01*
X17866872Y-21590281D01*
X17866870Y-21590282D01*
X17746782Y-21651470D01*
X17651470Y-21746782D01*
X17590282Y-21866870D01*
X17590281Y-21866872D01*
X17569196Y-21999999D01*
X17569196Y-22000000D01*
X15930804Y-22000000D01*
X15909719Y-21866874D01*
X15848528Y-21746780D01*
X15753220Y-21651472D01*
X15753217Y-21651470D01*
X15633129Y-21590282D01*
X15633127Y-21590281D01*
X15500000Y-21569196D01*
X15366872Y-21590281D01*
X15366870Y-21590282D01*
X15246782Y-21651470D01*
X15151470Y-21746782D01*
X15090282Y-21866870D01*
X15090281Y-21866872D01*
X15069196Y-21999999D01*
X15069196Y-22000000D01*
X13430804Y-22000000D01*
X13409719Y-21866874D01*
X13348528Y-21746780D01*
X13253220Y-21651472D01*
X13253217Y-21651470D01*
X13133129Y-21590282D01*
X13133127Y-21590281D01*
X13000000Y-21569196D01*
X12866872Y-21590281D01*
X12866870Y-21590282D01*
X12746782Y-21651470D01*
X12651470Y-21746782D01*
X12590282Y-21866870D01*
X12590281Y-21866872D01*
X12569196Y-21999999D01*
X12569196Y-22000000D01*
X10930804Y-22000000D01*
X10909719Y-21866874D01*
X10848528Y-21746780D01*
X10753220Y-21651472D01*
X10753217Y-21651470D01*
X10633129Y-21590282D01*
X10633127Y-21590281D01*
X10500000Y-21569196D01*
X10366872Y-21590281D01*
X10366870Y-21590282D01*
X10246782Y-21651470D01*
X10151470Y-21746782D01*
X10090282Y-21866870D01*
X10090281Y-21866872D01*
X10069196Y-21999999D01*
X10069196Y-22000000D01*
X8430804Y-22000000D01*
X8409719Y-21866874D01*
X8348528Y-21746780D01*
X8253220Y-21651472D01*
X8253217Y-21651470D01*
X8133129Y-21590282D01*
X8133127Y-21590281D01*
X8000000Y-21569196D01*
X7866872Y-21590281D01*
X7866870Y-21590282D01*
X7746782Y-21651470D01*
X7651470Y-21746782D01*
X7590282Y-21866870D01*
X7590281Y-21866872D01*
X7569196Y-21999999D01*
X7569196Y-22000000D01*
X200500Y-22000000D01*
X200500Y-21500000D01*
X5569196Y-21500000D01*
X5590281Y-21633127D01*
X5590282Y-21633129D01*
X5651470Y-21753217D01*
X5651472Y-21753220D01*
X5746780Y-21848528D01*
X5866874Y-21909719D01*
X6000000Y-21930804D01*
X6133126Y-21909719D01*
X6253220Y-21848528D01*
X6348528Y-21753220D01*
X6409719Y-21633126D01*
X6430804Y-21500000D01*
X6409719Y-21366874D01*
X6348528Y-21246780D01*
X6253220Y-21151472D01*
X6253217Y-21151470D01*
X6133129Y-21090282D01*
X6133127Y-21090281D01*
X6000000Y-21069196D01*
X5866872Y-21090281D01*
X5866870Y-21090282D01*
X5746782Y-21151470D01*
X5651470Y-21246782D01*
X5590282Y-21366870D01*
X5590281Y-21366872D01*
X5569196Y-21499999D01*
X5569196Y-21500000D01*
X200500Y-21500000D01*
X200500Y-20000000D01*
X29226249Y-20000000D01*
X29247334Y-20133127D01*
X29247335Y-20133129D01*
X29263829Y-20165500D01*
X29308525Y-20253220D01*
X29403833Y-20348528D01*
X29523927Y-20409719D01*
X29657053Y-20430804D01*
X29790179Y-20409719D01*
X29910273Y-20348528D01*
X30005581Y-20253220D01*
X30066772Y-20133126D01*
X30087857Y-20000000D01*
X30087443Y-19997389D01*
X30073558Y-19909719D01*
X30066772Y-19866874D01*
X30005581Y-19746780D01*
X29921033Y-19662232D01*
X32205690Y-19662232D01*
X32235917Y-19807698D01*
X32235919Y-19807706D01*
X32304274Y-19939623D01*
X32304276Y-19939626D01*
X32405690Y-20048214D01*
X32532640Y-20125414D01*
X32675710Y-20165500D01*
X32675711Y-20165500D01*
X32786968Y-20165500D01*
X32786974Y-20165500D01*
X32897196Y-20150350D01*
X33033476Y-20091156D01*
X33148731Y-19997389D01*
X33234414Y-19876003D01*
X33284171Y-19736002D01*
X33294310Y-19587768D01*
X33278980Y-19513997D01*
X33264082Y-19442301D01*
X33264080Y-19442293D01*
X33195725Y-19310376D01*
X33195723Y-19310373D01*
X33094311Y-19201787D01*
X33094310Y-19201786D01*
X32967360Y-19124586D01*
X32967359Y-19124585D01*
X32967358Y-19124585D01*
X32824290Y-19084500D01*
X32713026Y-19084500D01*
X32602805Y-19099649D01*
X32602801Y-19099650D01*
X32466524Y-19158843D01*
X32466522Y-19158844D01*
X32351268Y-19252610D01*
X32265587Y-19373995D01*
X32215828Y-19513997D01*
X32205690Y-19662232D01*
X29921033Y-19662232D01*
X29910273Y-19651472D01*
X29910270Y-19651470D01*
X29790182Y-19590282D01*
X29790180Y-19590281D01*
X29657053Y-19569196D01*
X29523925Y-19590281D01*
X29523923Y-19590282D01*
X29403835Y-19651470D01*
X29308523Y-19746782D01*
X29247335Y-19866870D01*
X29247334Y-19866872D01*
X29226249Y-19999999D01*
X29226249Y-20000000D01*
X200500Y-20000000D01*
X200500Y-19500000D01*
X7569196Y-19500000D01*
X7590281Y-19633127D01*
X7590282Y-19633129D01*
X7651470Y-19753217D01*
X7651472Y-19753220D01*
X7746780Y-19848528D01*
X7866874Y-19909719D01*
X8000000Y-19930804D01*
X8133126Y-19909719D01*
X8253220Y-19848528D01*
X8348528Y-19753220D01*
X8409719Y-19633126D01*
X8430804Y-19500000D01*
X10069196Y-19500000D01*
X10090281Y-19633127D01*
X10090282Y-19633129D01*
X10151470Y-19753217D01*
X10151472Y-19753220D01*
X10246780Y-19848528D01*
X10366874Y-19909719D01*
X10500000Y-19930804D01*
X10633126Y-19909719D01*
X10753220Y-19848528D01*
X10848528Y-19753220D01*
X10909719Y-19633126D01*
X10930804Y-19500000D01*
X12569196Y-19500000D01*
X12590281Y-19633127D01*
X12590282Y-19633129D01*
X12651470Y-19753217D01*
X12651472Y-19753220D01*
X12746780Y-19848528D01*
X12866874Y-19909719D01*
X13000000Y-19930804D01*
X13133126Y-19909719D01*
X13253220Y-19848528D01*
X13348528Y-19753220D01*
X13409719Y-19633126D01*
X13430804Y-19500000D01*
X15069196Y-19500000D01*
X15090281Y-19633127D01*
X15090282Y-19633129D01*
X15151470Y-19753217D01*
X15151472Y-19753220D01*
X15246780Y-19848528D01*
X15366874Y-19909719D01*
X15500000Y-19930804D01*
X15633126Y-19909719D01*
X15753220Y-19848528D01*
X15848528Y-19753220D01*
X15909719Y-19633126D01*
X15930804Y-19500000D01*
X17569196Y-19500000D01*
X17590281Y-19633127D01*
X17590282Y-19633129D01*
X17651470Y-19753217D01*
X17651472Y-19753220D01*
X17746780Y-19848528D01*
X17866874Y-19909719D01*
X18000000Y-19930804D01*
X18133126Y-19909719D01*
X18253220Y-19848528D01*
X18348528Y-19753220D01*
X18409719Y-19633126D01*
X18430804Y-19500000D01*
X20069196Y-19500000D01*
X20090281Y-19633127D01*
X20090282Y-19633129D01*
X20151470Y-19753217D01*
X20151472Y-19753220D01*
X20246780Y-19848528D01*
X20366874Y-19909719D01*
X20500000Y-19930804D01*
X20633126Y-19909719D01*
X20753220Y-19848528D01*
X20848528Y-19753220D01*
X20909719Y-19633126D01*
X20930804Y-19500000D01*
X22569196Y-19500000D01*
X22590281Y-19633127D01*
X22590282Y-19633129D01*
X22651470Y-19753217D01*
X22651472Y-19753220D01*
X22746780Y-19848528D01*
X22866874Y-19909719D01*
X23000000Y-19930804D01*
X23133126Y-19909719D01*
X23253220Y-19848528D01*
X23348528Y-19753220D01*
X23409719Y-19633126D01*
X23430804Y-19500000D01*
X25069196Y-19500000D01*
X25090281Y-19633127D01*
X25090282Y-19633129D01*
X25151470Y-19753217D01*
X25151472Y-19753220D01*
X25246780Y-19848528D01*
X25366874Y-19909719D01*
X25500000Y-19930804D01*
X25633126Y-19909719D01*
X25753220Y-19848528D01*
X25848528Y-19753220D01*
X25909719Y-19633126D01*
X25930804Y-19500000D01*
X27569196Y-19500000D01*
X27590281Y-19633127D01*
X27590282Y-19633129D01*
X27651470Y-19753217D01*
X27651472Y-19753220D01*
X27746780Y-19848528D01*
X27866874Y-19909719D01*
X28000000Y-19930804D01*
X28133126Y-19909719D01*
X28253220Y-19848528D01*
X28348528Y-19753220D01*
X28409719Y-19633126D01*
X28430804Y-19500000D01*
X28409719Y-19366874D01*
X28348528Y-19246780D01*
X28253220Y-19151472D01*
X28253217Y-19151470D01*
X28133129Y-19090282D01*
X28133127Y-19090281D01*
X28000000Y-19069196D01*
X27866872Y-19090281D01*
X27866870Y-19090282D01*
X27746782Y-19151470D01*
X27651470Y-19246782D01*
X27590282Y-19366870D01*
X27590281Y-19366872D01*
X27569196Y-19499999D01*
X27569196Y-19500000D01*
X25930804Y-19500000D01*
X25909719Y-19366874D01*
X25848528Y-19246780D01*
X25753220Y-19151472D01*
X25753217Y-19151470D01*
X25633129Y-19090282D01*
X25633127Y-19090281D01*
X25500000Y-19069196D01*
X25366872Y-19090281D01*
X25366870Y-19090282D01*
X25246782Y-19151470D01*
X25151470Y-19246782D01*
X25090282Y-19366870D01*
X25090281Y-19366872D01*
X25069196Y-19499999D01*
X25069196Y-19500000D01*
X23430804Y-19500000D01*
X23409719Y-19366874D01*
X23348528Y-19246780D01*
X23253220Y-19151472D01*
X23253217Y-19151470D01*
X23133129Y-19090282D01*
X23133127Y-19090281D01*
X23000000Y-19069196D01*
X22866872Y-19090281D01*
X22866870Y-19090282D01*
X22746782Y-19151470D01*
X22651470Y-19246782D01*
X22590282Y-19366870D01*
X22590281Y-19366872D01*
X22569196Y-19499999D01*
X22569196Y-19500000D01*
X20930804Y-19500000D01*
X20909719Y-19366874D01*
X20848528Y-19246780D01*
X20753220Y-19151472D01*
X20753217Y-19151470D01*
X20633129Y-19090282D01*
X20633127Y-19090281D01*
X20500000Y-19069196D01*
X20366872Y-19090281D01*
X20366870Y-19090282D01*
X20246782Y-19151470D01*
X20151470Y-19246782D01*
X20090282Y-19366870D01*
X20090281Y-19366872D01*
X20069196Y-19499999D01*
X20069196Y-19500000D01*
X18430804Y-19500000D01*
X18409719Y-19366874D01*
X18348528Y-19246780D01*
X18253220Y-19151472D01*
X18253217Y-19151470D01*
X18133129Y-19090282D01*
X18133127Y-19090281D01*
X18000000Y-19069196D01*
X17866872Y-19090281D01*
X17866870Y-19090282D01*
X17746782Y-19151470D01*
X17651470Y-19246782D01*
X17590282Y-19366870D01*
X17590281Y-19366872D01*
X17569196Y-19499999D01*
X17569196Y-19500000D01*
X15930804Y-19500000D01*
X15909719Y-19366874D01*
X15848528Y-19246780D01*
X15753220Y-19151472D01*
X15753217Y-19151470D01*
X15633129Y-19090282D01*
X15633127Y-19090281D01*
X15500000Y-19069196D01*
X15366872Y-19090281D01*
X15366870Y-19090282D01*
X15246782Y-19151470D01*
X15151470Y-19246782D01*
X15090282Y-19366870D01*
X15090281Y-19366872D01*
X15069196Y-19499999D01*
X15069196Y-19500000D01*
X13430804Y-19500000D01*
X13409719Y-19366874D01*
X13348528Y-19246780D01*
X13253220Y-19151472D01*
X13253217Y-19151470D01*
X13133129Y-19090282D01*
X13133127Y-19090281D01*
X13000000Y-19069196D01*
X12866872Y-19090281D01*
X12866870Y-19090282D01*
X12746782Y-19151470D01*
X12651470Y-19246782D01*
X12590282Y-19366870D01*
X12590281Y-19366872D01*
X12569196Y-19499999D01*
X12569196Y-19500000D01*
X10930804Y-19500000D01*
X10909719Y-19366874D01*
X10848528Y-19246780D01*
X10753220Y-19151472D01*
X10753217Y-19151470D01*
X10633129Y-19090282D01*
X10633127Y-19090281D01*
X10500000Y-19069196D01*
X10366872Y-19090281D01*
X10366870Y-19090282D01*
X10246782Y-19151470D01*
X10151470Y-19246782D01*
X10090282Y-19366870D01*
X10090281Y-19366872D01*
X10069196Y-19499999D01*
X10069196Y-19500000D01*
X8430804Y-19500000D01*
X8409719Y-19366874D01*
X8348528Y-19246780D01*
X8253220Y-19151472D01*
X8253217Y-19151470D01*
X8133129Y-19090282D01*
X8133127Y-19090281D01*
X8000000Y-19069196D01*
X7866872Y-19090281D01*
X7866870Y-19090282D01*
X7746782Y-19151470D01*
X7651470Y-19246782D01*
X7590282Y-19366870D01*
X7590281Y-19366872D01*
X7569196Y-19499999D01*
X7569196Y-19500000D01*
X200500Y-19500000D01*
X200500Y-19000000D01*
X5569196Y-19000000D01*
X5590281Y-19133127D01*
X5590282Y-19133129D01*
X5651470Y-19253217D01*
X5651472Y-19253220D01*
X5746780Y-19348528D01*
X5866874Y-19409719D01*
X6000000Y-19430804D01*
X6133126Y-19409719D01*
X6253220Y-19348528D01*
X6348528Y-19253220D01*
X6409719Y-19133126D01*
X6430804Y-19000000D01*
X6409719Y-18866874D01*
X6348528Y-18746780D01*
X6253220Y-18651472D01*
X6253217Y-18651470D01*
X6133129Y-18590282D01*
X6133127Y-18590281D01*
X6000000Y-18569196D01*
X5866872Y-18590281D01*
X5866870Y-18590282D01*
X5746782Y-18651470D01*
X5651470Y-18746782D01*
X5590282Y-18866870D01*
X5590281Y-18866872D01*
X5569196Y-18999999D01*
X5569196Y-19000000D01*
X200500Y-19000000D01*
X200500Y-17500000D01*
X29226249Y-17500000D01*
X29247334Y-17633127D01*
X29247335Y-17633129D01*
X29308523Y-17753217D01*
X29308525Y-17753220D01*
X29403833Y-17848528D01*
X29523927Y-17909719D01*
X29657053Y-17930804D01*
X29790179Y-17909719D01*
X29910273Y-17848528D01*
X30005581Y-17753220D01*
X30066772Y-17633126D01*
X30087857Y-17500000D01*
X30066772Y-17366874D01*
X30005581Y-17246780D01*
X29910273Y-17151472D01*
X29910270Y-17151470D01*
X29790182Y-17090282D01*
X29790180Y-17090281D01*
X29657053Y-17069196D01*
X29523925Y-17090281D01*
X29523923Y-17090282D01*
X29403835Y-17151470D01*
X29308523Y-17246782D01*
X29247335Y-17366870D01*
X29247334Y-17366872D01*
X29226249Y-17499999D01*
X29226249Y-17500000D01*
X200500Y-17500000D01*
X200500Y-17000000D01*
X7569196Y-17000000D01*
X7590281Y-17133127D01*
X7590282Y-17133129D01*
X7651470Y-17253217D01*
X7651472Y-17253220D01*
X7746780Y-17348528D01*
X7866874Y-17409719D01*
X8000000Y-17430804D01*
X8133126Y-17409719D01*
X8253220Y-17348528D01*
X8348528Y-17253220D01*
X8409719Y-17133126D01*
X8430804Y-17000000D01*
X10069196Y-17000000D01*
X10090281Y-17133127D01*
X10090282Y-17133129D01*
X10151470Y-17253217D01*
X10151472Y-17253220D01*
X10246780Y-17348528D01*
X10366874Y-17409719D01*
X10500000Y-17430804D01*
X10633126Y-17409719D01*
X10753220Y-17348528D01*
X10848528Y-17253220D01*
X10909719Y-17133126D01*
X10930804Y-17000000D01*
X12569196Y-17000000D01*
X12590281Y-17133127D01*
X12590282Y-17133129D01*
X12651470Y-17253217D01*
X12651472Y-17253220D01*
X12746780Y-17348528D01*
X12866874Y-17409719D01*
X13000000Y-17430804D01*
X13133126Y-17409719D01*
X13253220Y-17348528D01*
X13348528Y-17253220D01*
X13409719Y-17133126D01*
X13430804Y-17000000D01*
X15069196Y-17000000D01*
X15090281Y-17133127D01*
X15090282Y-17133129D01*
X15151470Y-17253217D01*
X15151472Y-17253220D01*
X15246780Y-17348528D01*
X15366874Y-17409719D01*
X15500000Y-17430804D01*
X15633126Y-17409719D01*
X15753220Y-17348528D01*
X15848528Y-17253220D01*
X15909719Y-17133126D01*
X15930804Y-17000000D01*
X17569196Y-17000000D01*
X17590281Y-17133127D01*
X17590282Y-17133129D01*
X17651470Y-17253217D01*
X17651472Y-17253220D01*
X17746780Y-17348528D01*
X17866874Y-17409719D01*
X18000000Y-17430804D01*
X18133126Y-17409719D01*
X18253220Y-17348528D01*
X18348528Y-17253220D01*
X18409719Y-17133126D01*
X18430804Y-17000000D01*
X20069196Y-17000000D01*
X20090281Y-17133127D01*
X20090282Y-17133129D01*
X20151470Y-17253217D01*
X20151472Y-17253220D01*
X20246780Y-17348528D01*
X20366874Y-17409719D01*
X20500000Y-17430804D01*
X20633126Y-17409719D01*
X20753220Y-17348528D01*
X20848528Y-17253220D01*
X20909719Y-17133126D01*
X20930804Y-17000000D01*
X22569196Y-17000000D01*
X22590281Y-17133127D01*
X22590282Y-17133129D01*
X22651470Y-17253217D01*
X22651472Y-17253220D01*
X22746780Y-17348528D01*
X22866874Y-17409719D01*
X23000000Y-17430804D01*
X23133126Y-17409719D01*
X23253220Y-17348528D01*
X23348528Y-17253220D01*
X23409719Y-17133126D01*
X23430804Y-17000000D01*
X25069196Y-17000000D01*
X25090281Y-17133127D01*
X25090282Y-17133129D01*
X25151470Y-17253217D01*
X25151472Y-17253220D01*
X25246780Y-17348528D01*
X25366874Y-17409719D01*
X25500000Y-17430804D01*
X25633126Y-17409719D01*
X25753220Y-17348528D01*
X25848528Y-17253220D01*
X25909719Y-17133126D01*
X25930804Y-17000000D01*
X27569196Y-17000000D01*
X27590281Y-17133127D01*
X27590282Y-17133129D01*
X27651470Y-17253217D01*
X27651472Y-17253220D01*
X27746780Y-17348528D01*
X27866874Y-17409719D01*
X28000000Y-17430804D01*
X28133126Y-17409719D01*
X28253220Y-17348528D01*
X28348528Y-17253220D01*
X28409719Y-17133126D01*
X28430804Y-17000000D01*
X28409719Y-16866874D01*
X28348528Y-16746780D01*
X28253220Y-16651472D01*
X28253217Y-16651470D01*
X28133129Y-16590282D01*
X28133127Y-16590281D01*
X28000000Y-16569196D01*
X27866872Y-16590281D01*
X27866870Y-16590282D01*
X27746782Y-16651470D01*
X27651470Y-16746782D01*
X27590282Y-16866870D01*
X27590281Y-16866872D01*
X27569196Y-16999999D01*
X27569196Y-17000000D01*
X25930804Y-17000000D01*
X25909719Y-16866874D01*
X25848528Y-16746780D01*
X25753220Y-16651472D01*
X25753217Y-16651470D01*
X25633129Y-16590282D01*
X25633127Y-16590281D01*
X25500000Y-16569196D01*
X25366872Y-16590281D01*
X25366870Y-16590282D01*
X25246782Y-16651470D01*
X25151470Y-16746782D01*
X25090282Y-16866870D01*
X25090281Y-16866872D01*
X25069196Y-16999999D01*
X25069196Y-17000000D01*
X23430804Y-17000000D01*
X23409719Y-16866874D01*
X23348528Y-16746780D01*
X23253220Y-16651472D01*
X23253217Y-16651470D01*
X23133129Y-16590282D01*
X23133127Y-16590281D01*
X23000000Y-16569196D01*
X22866872Y-16590281D01*
X22866870Y-16590282D01*
X22746782Y-16651470D01*
X22651470Y-16746782D01*
X22590282Y-16866870D01*
X22590281Y-16866872D01*
X22569196Y-16999999D01*
X22569196Y-17000000D01*
X20930804Y-17000000D01*
X20909719Y-16866874D01*
X20848528Y-16746780D01*
X20753220Y-16651472D01*
X20753217Y-16651470D01*
X20633129Y-16590282D01*
X20633127Y-16590281D01*
X20500000Y-16569196D01*
X20366872Y-16590281D01*
X20366870Y-16590282D01*
X20246782Y-16651470D01*
X20151470Y-16746782D01*
X20090282Y-16866870D01*
X20090281Y-16866872D01*
X20069196Y-16999999D01*
X20069196Y-17000000D01*
X18430804Y-17000000D01*
X18409719Y-16866874D01*
X18348528Y-16746780D01*
X18253220Y-16651472D01*
X18253217Y-16651470D01*
X18133129Y-16590282D01*
X18133127Y-16590281D01*
X18000000Y-16569196D01*
X17866872Y-16590281D01*
X17866870Y-16590282D01*
X17746782Y-16651470D01*
X17651470Y-16746782D01*
X17590282Y-16866870D01*
X17590281Y-16866872D01*
X17569196Y-16999999D01*
X17569196Y-17000000D01*
X15930804Y-17000000D01*
X15909719Y-16866874D01*
X15848528Y-16746780D01*
X15753220Y-16651472D01*
X15753217Y-16651470D01*
X15633129Y-16590282D01*
X15633127Y-16590281D01*
X15500000Y-16569196D01*
X15366872Y-16590281D01*
X15366870Y-16590282D01*
X15246782Y-16651470D01*
X15151470Y-16746782D01*
X15090282Y-16866870D01*
X15090281Y-16866872D01*
X15069196Y-16999999D01*
X15069196Y-17000000D01*
X13430804Y-17000000D01*
X13409719Y-16866874D01*
X13348528Y-16746780D01*
X13253220Y-16651472D01*
X13253217Y-16651470D01*
X13133129Y-16590282D01*
X13133127Y-16590281D01*
X13000000Y-16569196D01*
X12866872Y-16590281D01*
X12866870Y-16590282D01*
X12746782Y-16651470D01*
X12651470Y-16746782D01*
X12590282Y-16866870D01*
X12590281Y-16866872D01*
X12569196Y-16999999D01*
X12569196Y-17000000D01*
X10930804Y-17000000D01*
X10909719Y-16866874D01*
X10848528Y-16746780D01*
X10753220Y-16651472D01*
X10753217Y-16651470D01*
X10633129Y-16590282D01*
X10633127Y-16590281D01*
X10500000Y-16569196D01*
X10366872Y-16590281D01*
X10366870Y-16590282D01*
X10246782Y-16651470D01*
X10151470Y-16746782D01*
X10090282Y-16866870D01*
X10090281Y-16866872D01*
X10069196Y-16999999D01*
X10069196Y-17000000D01*
X8430804Y-17000000D01*
X8409719Y-16866874D01*
X8348528Y-16746780D01*
X8253220Y-16651472D01*
X8253217Y-16651470D01*
X8133129Y-16590282D01*
X8133127Y-16590281D01*
X8000000Y-16569196D01*
X7866872Y-16590281D01*
X7866870Y-16590282D01*
X7746782Y-16651470D01*
X7651470Y-16746782D01*
X7590282Y-16866870D01*
X7590281Y-16866872D01*
X7569196Y-16999999D01*
X7569196Y-17000000D01*
X200500Y-17000000D01*
X200500Y-16500000D01*
X5569196Y-16500000D01*
X5590281Y-16633127D01*
X5590282Y-16633129D01*
X5651470Y-16753217D01*
X5651472Y-16753220D01*
X5746780Y-16848528D01*
X5866874Y-16909719D01*
X6000000Y-16930804D01*
X6133126Y-16909719D01*
X6253220Y-16848528D01*
X6348528Y-16753220D01*
X6409719Y-16633126D01*
X6430804Y-16500000D01*
X6409719Y-16366874D01*
X6348528Y-16246780D01*
X6253220Y-16151472D01*
X6253217Y-16151470D01*
X6133129Y-16090282D01*
X6133127Y-16090281D01*
X6000000Y-16069196D01*
X5866872Y-16090281D01*
X5866870Y-16090282D01*
X5746782Y-16151470D01*
X5651470Y-16246782D01*
X5590282Y-16366870D01*
X5590281Y-16366872D01*
X5569196Y-16499999D01*
X5569196Y-16500000D01*
X200500Y-16500000D01*
X200500Y-15000000D01*
X29226249Y-15000000D01*
X29247334Y-15133127D01*
X29247335Y-15133129D01*
X29277485Y-15192301D01*
X29308525Y-15253220D01*
X29403833Y-15348528D01*
X29523927Y-15409719D01*
X29657053Y-15430804D01*
X29774312Y-15412232D01*
X32205690Y-15412232D01*
X32235917Y-15557698D01*
X32235919Y-15557706D01*
X32271309Y-15626004D01*
X32304276Y-15689626D01*
X32405690Y-15798214D01*
X32532640Y-15875414D01*
X32675710Y-15915500D01*
X32675711Y-15915500D01*
X32786968Y-15915500D01*
X32786974Y-15915500D01*
X32897196Y-15900350D01*
X33033476Y-15841156D01*
X33148731Y-15747389D01*
X33234414Y-15626003D01*
X33284171Y-15486002D01*
X33294310Y-15337768D01*
X33278980Y-15263997D01*
X33264082Y-15192301D01*
X33264080Y-15192293D01*
X33195725Y-15060376D01*
X33195723Y-15060373D01*
X33094311Y-14951787D01*
X33094310Y-14951786D01*
X32967360Y-14874586D01*
X32967359Y-14874585D01*
X32967358Y-14874585D01*
X32824290Y-14834500D01*
X32713026Y-14834500D01*
X32602805Y-14849649D01*
X32602801Y-14849650D01*
X32466524Y-14908843D01*
X32466522Y-14908844D01*
X32351268Y-15002610D01*
X32265587Y-15123995D01*
X32265586Y-15123997D01*
X32256837Y-15148613D01*
X32215828Y-15263997D01*
X32205690Y-15412232D01*
X29774312Y-15412232D01*
X29790179Y-15409719D01*
X29910273Y-15348528D01*
X30005581Y-15253220D01*
X30066772Y-15133126D01*
X30087857Y-15000000D01*
X30066772Y-14866874D01*
X30005581Y-14746780D01*
X29910273Y-14651472D01*
X29910270Y-14651470D01*
X29790182Y-14590282D01*
X29790180Y-14590281D01*
X29657053Y-14569196D01*
X29523925Y-14590281D01*
X29523923Y-14590282D01*
X29403835Y-14651470D01*
X29308523Y-14746782D01*
X29247335Y-14866870D01*
X29247334Y-14866872D01*
X29226249Y-14999999D01*
X29226249Y-15000000D01*
X200500Y-15000000D01*
X200500Y-14500000D01*
X7569196Y-14500000D01*
X7590281Y-14633127D01*
X7590282Y-14633129D01*
X7651470Y-14753217D01*
X7651472Y-14753220D01*
X7746780Y-14848528D01*
X7866874Y-14909719D01*
X8000000Y-14930804D01*
X8133126Y-14909719D01*
X8253220Y-14848528D01*
X8348528Y-14753220D01*
X8409719Y-14633126D01*
X8430804Y-14500000D01*
X10069196Y-14500000D01*
X10090281Y-14633127D01*
X10090282Y-14633129D01*
X10151470Y-14753217D01*
X10151472Y-14753220D01*
X10246780Y-14848528D01*
X10366874Y-14909719D01*
X10500000Y-14930804D01*
X10633126Y-14909719D01*
X10753220Y-14848528D01*
X10848528Y-14753220D01*
X10909719Y-14633126D01*
X10930804Y-14500000D01*
X12569196Y-14500000D01*
X12590281Y-14633127D01*
X12590282Y-14633129D01*
X12651470Y-14753217D01*
X12651472Y-14753220D01*
X12746780Y-14848528D01*
X12866874Y-14909719D01*
X13000000Y-14930804D01*
X13133126Y-14909719D01*
X13253220Y-14848528D01*
X13348528Y-14753220D01*
X13409719Y-14633126D01*
X13430804Y-14500000D01*
X15069196Y-14500000D01*
X15090281Y-14633127D01*
X15090282Y-14633129D01*
X15151470Y-14753217D01*
X15151472Y-14753220D01*
X15246780Y-14848528D01*
X15366874Y-14909719D01*
X15500000Y-14930804D01*
X15633126Y-14909719D01*
X15753220Y-14848528D01*
X15848528Y-14753220D01*
X15909719Y-14633126D01*
X15930804Y-14500000D01*
X17569196Y-14500000D01*
X17590281Y-14633127D01*
X17590282Y-14633129D01*
X17651470Y-14753217D01*
X17651472Y-14753220D01*
X17746780Y-14848528D01*
X17866874Y-14909719D01*
X18000000Y-14930804D01*
X18133126Y-14909719D01*
X18253220Y-14848528D01*
X18348528Y-14753220D01*
X18409719Y-14633126D01*
X18430804Y-14500000D01*
X20069196Y-14500000D01*
X20090281Y-14633127D01*
X20090282Y-14633129D01*
X20151470Y-14753217D01*
X20151472Y-14753220D01*
X20246780Y-14848528D01*
X20366874Y-14909719D01*
X20500000Y-14930804D01*
X20633126Y-14909719D01*
X20753220Y-14848528D01*
X20848528Y-14753220D01*
X20909719Y-14633126D01*
X20930804Y-14500000D01*
X22569196Y-14500000D01*
X22590281Y-14633127D01*
X22590282Y-14633129D01*
X22651470Y-14753217D01*
X22651472Y-14753220D01*
X22746780Y-14848528D01*
X22866874Y-14909719D01*
X23000000Y-14930804D01*
X23133126Y-14909719D01*
X23253220Y-14848528D01*
X23348528Y-14753220D01*
X23409719Y-14633126D01*
X23430804Y-14500000D01*
X25069196Y-14500000D01*
X25090281Y-14633127D01*
X25090282Y-14633129D01*
X25151470Y-14753217D01*
X25151472Y-14753220D01*
X25246780Y-14848528D01*
X25366874Y-14909719D01*
X25500000Y-14930804D01*
X25633126Y-14909719D01*
X25753220Y-14848528D01*
X25848528Y-14753220D01*
X25909719Y-14633126D01*
X25930804Y-14500000D01*
X27569196Y-14500000D01*
X27590281Y-14633127D01*
X27590282Y-14633129D01*
X27651470Y-14753217D01*
X27651472Y-14753220D01*
X27746780Y-14848528D01*
X27866874Y-14909719D01*
X28000000Y-14930804D01*
X28133126Y-14909719D01*
X28253220Y-14848528D01*
X28348528Y-14753220D01*
X28409719Y-14633126D01*
X28430804Y-14500000D01*
X28409719Y-14366874D01*
X28348528Y-14246780D01*
X28253220Y-14151472D01*
X28253217Y-14151470D01*
X28133129Y-14090282D01*
X28133127Y-14090281D01*
X28000000Y-14069196D01*
X27866872Y-14090281D01*
X27866870Y-14090282D01*
X27746782Y-14151470D01*
X27651470Y-14246782D01*
X27590282Y-14366870D01*
X27590281Y-14366872D01*
X27569196Y-14499999D01*
X27569196Y-14500000D01*
X25930804Y-14500000D01*
X25909719Y-14366874D01*
X25848528Y-14246780D01*
X25753220Y-14151472D01*
X25753217Y-14151470D01*
X25633129Y-14090282D01*
X25633127Y-14090281D01*
X25500000Y-14069196D01*
X25366872Y-14090281D01*
X25366870Y-14090282D01*
X25246782Y-14151470D01*
X25151470Y-14246782D01*
X25090282Y-14366870D01*
X25090281Y-14366872D01*
X25069196Y-14499999D01*
X25069196Y-14500000D01*
X23430804Y-14500000D01*
X23409719Y-14366874D01*
X23348528Y-14246780D01*
X23253220Y-14151472D01*
X23253217Y-14151470D01*
X23133129Y-14090282D01*
X23133127Y-14090281D01*
X23000000Y-14069196D01*
X22866872Y-14090281D01*
X22866870Y-14090282D01*
X22746782Y-14151470D01*
X22651470Y-14246782D01*
X22590282Y-14366870D01*
X22590281Y-14366872D01*
X22569196Y-14499999D01*
X22569196Y-14500000D01*
X20930804Y-14500000D01*
X20909719Y-14366874D01*
X20848528Y-14246780D01*
X20753220Y-14151472D01*
X20753217Y-14151470D01*
X20633129Y-14090282D01*
X20633127Y-14090281D01*
X20500000Y-14069196D01*
X20366872Y-14090281D01*
X20366870Y-14090282D01*
X20246782Y-14151470D01*
X20151470Y-14246782D01*
X20090282Y-14366870D01*
X20090281Y-14366872D01*
X20069196Y-14499999D01*
X20069196Y-14500000D01*
X18430804Y-14500000D01*
X18409719Y-14366874D01*
X18348528Y-14246780D01*
X18253220Y-14151472D01*
X18253217Y-14151470D01*
X18133129Y-14090282D01*
X18133127Y-14090281D01*
X18000000Y-14069196D01*
X17866872Y-14090281D01*
X17866870Y-14090282D01*
X17746782Y-14151470D01*
X17651470Y-14246782D01*
X17590282Y-14366870D01*
X17590281Y-14366872D01*
X17569196Y-14499999D01*
X17569196Y-14500000D01*
X15930804Y-14500000D01*
X15909719Y-14366874D01*
X15848528Y-14246780D01*
X15753220Y-14151472D01*
X15753217Y-14151470D01*
X15633129Y-14090282D01*
X15633127Y-14090281D01*
X15500000Y-14069196D01*
X15366872Y-14090281D01*
X15366870Y-14090282D01*
X15246782Y-14151470D01*
X15151470Y-14246782D01*
X15090282Y-14366870D01*
X15090281Y-14366872D01*
X15069196Y-14499999D01*
X15069196Y-14500000D01*
X13430804Y-14500000D01*
X13409719Y-14366874D01*
X13348528Y-14246780D01*
X13253220Y-14151472D01*
X13253217Y-14151470D01*
X13133129Y-14090282D01*
X13133127Y-14090281D01*
X13000000Y-14069196D01*
X12866872Y-14090281D01*
X12866870Y-14090282D01*
X12746782Y-14151470D01*
X12651470Y-14246782D01*
X12590282Y-14366870D01*
X12590281Y-14366872D01*
X12569196Y-14499999D01*
X12569196Y-14500000D01*
X10930804Y-14500000D01*
X10909719Y-14366874D01*
X10848528Y-14246780D01*
X10753220Y-14151472D01*
X10753217Y-14151470D01*
X10633129Y-14090282D01*
X10633127Y-14090281D01*
X10500000Y-14069196D01*
X10366872Y-14090281D01*
X10366870Y-14090282D01*
X10246782Y-14151470D01*
X10151470Y-14246782D01*
X10090282Y-14366870D01*
X10090281Y-14366872D01*
X10069196Y-14499999D01*
X10069196Y-14500000D01*
X8430804Y-14500000D01*
X8409719Y-14366874D01*
X8348528Y-14246780D01*
X8253220Y-14151472D01*
X8253217Y-14151470D01*
X8133129Y-14090282D01*
X8133127Y-14090281D01*
X8000000Y-14069196D01*
X7866872Y-14090281D01*
X7866870Y-14090282D01*
X7746782Y-14151470D01*
X7651470Y-14246782D01*
X7590282Y-14366870D01*
X7590281Y-14366872D01*
X7569196Y-14499999D01*
X7569196Y-14500000D01*
X200500Y-14500000D01*
X200500Y-14000000D01*
X5569196Y-14000000D01*
X5590281Y-14133127D01*
X5590282Y-14133129D01*
X5651470Y-14253217D01*
X5651472Y-14253220D01*
X5746780Y-14348528D01*
X5866874Y-14409719D01*
X6000000Y-14430804D01*
X6133126Y-14409719D01*
X6253220Y-14348528D01*
X6348528Y-14253220D01*
X6409719Y-14133126D01*
X6430804Y-14000000D01*
X6409719Y-13866874D01*
X6348528Y-13746780D01*
X6253220Y-13651472D01*
X6253217Y-13651470D01*
X6133129Y-13590282D01*
X6133127Y-13590281D01*
X6000000Y-13569196D01*
X5866872Y-13590281D01*
X5866870Y-13590282D01*
X5746782Y-13651470D01*
X5651470Y-13746782D01*
X5590282Y-13866870D01*
X5590281Y-13866872D01*
X5569196Y-13999999D01*
X5569196Y-14000000D01*
X200500Y-14000000D01*
X200500Y-12500000D01*
X29226249Y-12500000D01*
X29247334Y-12633127D01*
X29247335Y-12633129D01*
X29308523Y-12753217D01*
X29308525Y-12753220D01*
X29403833Y-12848528D01*
X29523927Y-12909719D01*
X29657053Y-12930804D01*
X29790179Y-12909719D01*
X29910273Y-12848528D01*
X30005581Y-12753220D01*
X30066772Y-12633126D01*
X30087857Y-12500000D01*
X31819196Y-12500000D01*
X31840281Y-12633127D01*
X31840282Y-12633129D01*
X31901470Y-12753217D01*
X31901472Y-12753220D01*
X31996780Y-12848528D01*
X32116874Y-12909719D01*
X32250000Y-12930804D01*
X32383126Y-12909719D01*
X32503220Y-12848528D01*
X32598528Y-12753220D01*
X32659719Y-12633126D01*
X32680804Y-12500000D01*
X32659719Y-12366874D01*
X32598528Y-12246780D01*
X32503220Y-12151472D01*
X32503217Y-12151470D01*
X32383129Y-12090282D01*
X32383127Y-12090281D01*
X32250000Y-12069196D01*
X32116872Y-12090281D01*
X32116870Y-12090282D01*
X31996782Y-12151470D01*
X31901470Y-12246782D01*
X31840282Y-12366870D01*
X31840281Y-12366872D01*
X31819196Y-12499999D01*
X31819196Y-12500000D01*
X30087857Y-12500000D01*
X30066772Y-12366874D01*
X30005581Y-12246780D01*
X29910273Y-12151472D01*
X29910270Y-12151470D01*
X29790182Y-12090282D01*
X29790180Y-12090281D01*
X29657053Y-12069196D01*
X29523925Y-12090281D01*
X29523923Y-12090282D01*
X29403835Y-12151470D01*
X29308523Y-12246782D01*
X29247335Y-12366870D01*
X29247334Y-12366872D01*
X29226249Y-12499999D01*
X29226249Y-12500000D01*
X200500Y-12500000D01*
X200500Y-12000000D01*
X7569196Y-12000000D01*
X7590281Y-12133127D01*
X7590282Y-12133129D01*
X7651470Y-12253217D01*
X7651472Y-12253220D01*
X7746780Y-12348528D01*
X7866874Y-12409719D01*
X8000000Y-12430804D01*
X8133126Y-12409719D01*
X8253220Y-12348528D01*
X8348528Y-12253220D01*
X8409719Y-12133126D01*
X8430804Y-12000000D01*
X10069196Y-12000000D01*
X10090281Y-12133127D01*
X10090282Y-12133129D01*
X10151470Y-12253217D01*
X10151472Y-12253220D01*
X10246780Y-12348528D01*
X10366874Y-12409719D01*
X10500000Y-12430804D01*
X10633126Y-12409719D01*
X10753220Y-12348528D01*
X10848528Y-12253220D01*
X10909719Y-12133126D01*
X10930804Y-12000000D01*
X12569196Y-12000000D01*
X12590281Y-12133127D01*
X12590282Y-12133129D01*
X12651470Y-12253217D01*
X12651472Y-12253220D01*
X12746780Y-12348528D01*
X12866874Y-12409719D01*
X13000000Y-12430804D01*
X13133126Y-12409719D01*
X13253220Y-12348528D01*
X13348528Y-12253220D01*
X13409719Y-12133126D01*
X13430804Y-12000000D01*
X15069196Y-12000000D01*
X15090281Y-12133127D01*
X15090282Y-12133129D01*
X15151470Y-12253217D01*
X15151472Y-12253220D01*
X15246780Y-12348528D01*
X15366874Y-12409719D01*
X15500000Y-12430804D01*
X15633126Y-12409719D01*
X15753220Y-12348528D01*
X15848528Y-12253220D01*
X15909719Y-12133126D01*
X15930804Y-12000000D01*
X17569196Y-12000000D01*
X17590281Y-12133127D01*
X17590282Y-12133129D01*
X17651470Y-12253217D01*
X17651472Y-12253220D01*
X17746780Y-12348528D01*
X17866874Y-12409719D01*
X18000000Y-12430804D01*
X18133126Y-12409719D01*
X18253220Y-12348528D01*
X18348528Y-12253220D01*
X18409719Y-12133126D01*
X18430804Y-12000000D01*
X20069196Y-12000000D01*
X20090281Y-12133127D01*
X20090282Y-12133129D01*
X20151470Y-12253217D01*
X20151472Y-12253220D01*
X20246780Y-12348528D01*
X20366874Y-12409719D01*
X20500000Y-12430804D01*
X20633126Y-12409719D01*
X20753220Y-12348528D01*
X20848528Y-12253220D01*
X20909719Y-12133126D01*
X20930804Y-12000000D01*
X22569196Y-12000000D01*
X22590281Y-12133127D01*
X22590282Y-12133129D01*
X22651470Y-12253217D01*
X22651472Y-12253220D01*
X22746780Y-12348528D01*
X22866874Y-12409719D01*
X23000000Y-12430804D01*
X23133126Y-12409719D01*
X23253220Y-12348528D01*
X23348528Y-12253220D01*
X23409719Y-12133126D01*
X23430804Y-12000000D01*
X25069196Y-12000000D01*
X25090281Y-12133127D01*
X25090282Y-12133129D01*
X25151470Y-12253217D01*
X25151472Y-12253220D01*
X25246780Y-12348528D01*
X25366874Y-12409719D01*
X25500000Y-12430804D01*
X25633126Y-12409719D01*
X25753220Y-12348528D01*
X25848528Y-12253220D01*
X25909719Y-12133126D01*
X25930804Y-12000000D01*
X27569196Y-12000000D01*
X27590281Y-12133127D01*
X27590282Y-12133129D01*
X27651470Y-12253217D01*
X27651472Y-12253220D01*
X27746780Y-12348528D01*
X27866874Y-12409719D01*
X28000000Y-12430804D01*
X28133126Y-12409719D01*
X28253220Y-12348528D01*
X28348528Y-12253220D01*
X28409719Y-12133126D01*
X28430804Y-12000000D01*
X28409719Y-11866874D01*
X28348528Y-11746780D01*
X28253220Y-11651472D01*
X28253217Y-11651470D01*
X28133129Y-11590282D01*
X28133127Y-11590281D01*
X28000000Y-11569196D01*
X27866872Y-11590281D01*
X27866870Y-11590282D01*
X27746782Y-11651470D01*
X27651470Y-11746782D01*
X27590282Y-11866870D01*
X27590281Y-11866872D01*
X27569196Y-11999999D01*
X27569196Y-12000000D01*
X25930804Y-12000000D01*
X25909719Y-11866874D01*
X25848528Y-11746780D01*
X25753220Y-11651472D01*
X25753217Y-11651470D01*
X25633129Y-11590282D01*
X25633127Y-11590281D01*
X25500000Y-11569196D01*
X25366872Y-11590281D01*
X25366870Y-11590282D01*
X25246782Y-11651470D01*
X25151470Y-11746782D01*
X25090282Y-11866870D01*
X25090281Y-11866872D01*
X25069196Y-11999999D01*
X25069196Y-12000000D01*
X23430804Y-12000000D01*
X23409719Y-11866874D01*
X23348528Y-11746780D01*
X23253220Y-11651472D01*
X23253217Y-11651470D01*
X23133129Y-11590282D01*
X23133127Y-11590281D01*
X23000000Y-11569196D01*
X22866872Y-11590281D01*
X22866870Y-11590282D01*
X22746782Y-11651470D01*
X22651470Y-11746782D01*
X22590282Y-11866870D01*
X22590281Y-11866872D01*
X22569196Y-11999999D01*
X22569196Y-12000000D01*
X20930804Y-12000000D01*
X20909719Y-11866874D01*
X20848528Y-11746780D01*
X20753220Y-11651472D01*
X20753217Y-11651470D01*
X20633129Y-11590282D01*
X20633127Y-11590281D01*
X20500000Y-11569196D01*
X20366872Y-11590281D01*
X20366870Y-11590282D01*
X20246782Y-11651470D01*
X20151470Y-11746782D01*
X20090282Y-11866870D01*
X20090281Y-11866872D01*
X20069196Y-11999999D01*
X20069196Y-12000000D01*
X18430804Y-12000000D01*
X18409719Y-11866874D01*
X18348528Y-11746780D01*
X18253220Y-11651472D01*
X18253217Y-11651470D01*
X18133129Y-11590282D01*
X18133127Y-11590281D01*
X18000000Y-11569196D01*
X17866872Y-11590281D01*
X17866870Y-11590282D01*
X17746782Y-11651470D01*
X17651470Y-11746782D01*
X17590282Y-11866870D01*
X17590281Y-11866872D01*
X17569196Y-11999999D01*
X17569196Y-12000000D01*
X15930804Y-12000000D01*
X15909719Y-11866874D01*
X15848528Y-11746780D01*
X15753220Y-11651472D01*
X15753217Y-11651470D01*
X15633129Y-11590282D01*
X15633127Y-11590281D01*
X15500000Y-11569196D01*
X15366872Y-11590281D01*
X15366870Y-11590282D01*
X15246782Y-11651470D01*
X15151470Y-11746782D01*
X15090282Y-11866870D01*
X15090281Y-11866872D01*
X15069196Y-11999999D01*
X15069196Y-12000000D01*
X13430804Y-12000000D01*
X13409719Y-11866874D01*
X13348528Y-11746780D01*
X13253220Y-11651472D01*
X13253217Y-11651470D01*
X13133129Y-11590282D01*
X13133127Y-11590281D01*
X13000000Y-11569196D01*
X12866872Y-11590281D01*
X12866870Y-11590282D01*
X12746782Y-11651470D01*
X12651470Y-11746782D01*
X12590282Y-11866870D01*
X12590281Y-11866872D01*
X12569196Y-11999999D01*
X12569196Y-12000000D01*
X10930804Y-12000000D01*
X10909719Y-11866874D01*
X10848528Y-11746780D01*
X10753220Y-11651472D01*
X10753217Y-11651470D01*
X10633129Y-11590282D01*
X10633127Y-11590281D01*
X10500000Y-11569196D01*
X10366872Y-11590281D01*
X10366870Y-11590282D01*
X10246782Y-11651470D01*
X10151470Y-11746782D01*
X10090282Y-11866870D01*
X10090281Y-11866872D01*
X10069196Y-11999999D01*
X10069196Y-12000000D01*
X8430804Y-12000000D01*
X8409719Y-11866874D01*
X8348528Y-11746780D01*
X8253220Y-11651472D01*
X8253217Y-11651470D01*
X8133129Y-11590282D01*
X8133127Y-11590281D01*
X8000000Y-11569196D01*
X7866872Y-11590281D01*
X7866870Y-11590282D01*
X7746782Y-11651470D01*
X7651470Y-11746782D01*
X7590282Y-11866870D01*
X7590281Y-11866872D01*
X7569196Y-11999999D01*
X7569196Y-12000000D01*
X200500Y-12000000D01*
X200500Y-11500000D01*
X5569196Y-11500000D01*
X5590281Y-11633127D01*
X5590282Y-11633129D01*
X5651470Y-11753217D01*
X5651472Y-11753220D01*
X5746780Y-11848528D01*
X5866874Y-11909719D01*
X6000000Y-11930804D01*
X6133126Y-11909719D01*
X6253220Y-11848528D01*
X6348528Y-11753220D01*
X6409719Y-11633126D01*
X6430804Y-11500000D01*
X6409719Y-11366874D01*
X6348528Y-11246780D01*
X6253220Y-11151472D01*
X6253217Y-11151470D01*
X6133129Y-11090282D01*
X6133127Y-11090281D01*
X6000000Y-11069196D01*
X5866872Y-11090281D01*
X5866870Y-11090282D01*
X5746782Y-11151470D01*
X5651470Y-11246782D01*
X5590282Y-11366870D01*
X5590281Y-11366872D01*
X5569196Y-11499999D01*
X5569196Y-11500000D01*
X200500Y-11500000D01*
X200500Y-10271154D01*
X219407Y-10212963D01*
X268907Y-10176999D01*
X330093Y-10176999D01*
X379593Y-10212963D01*
X387705Y-10226201D01*
X401472Y-10253220D01*
X496780Y-10348528D01*
X616874Y-10409719D01*
X750000Y-10430804D01*
X883126Y-10409719D01*
X1003220Y-10348528D01*
X1098528Y-10253220D01*
X1159719Y-10133126D01*
X1180804Y-10000000D01*
X1159719Y-9866874D01*
X1098528Y-9746780D01*
X1003220Y-9651472D01*
X1003217Y-9651470D01*
X883129Y-9590282D01*
X883127Y-9590281D01*
X750000Y-9569196D01*
X616872Y-9590281D01*
X616870Y-9590282D01*
X496782Y-9651470D01*
X401471Y-9746781D01*
X387709Y-9773791D01*
X344444Y-9817055D01*
X284012Y-9826626D01*
X229495Y-9798848D01*
X201719Y-9744331D01*
X200500Y-9728845D01*
X200500Y-9000000D01*
X5319196Y-9000000D01*
X5340281Y-9133127D01*
X5340282Y-9133129D01*
X5401470Y-9253217D01*
X5401472Y-9253220D01*
X5496780Y-9348528D01*
X5616874Y-9409719D01*
X5750000Y-9430804D01*
X5759429Y-9429310D01*
X5819860Y-9438880D01*
X5863125Y-9482143D01*
X5872699Y-9542575D01*
X5863127Y-9572036D01*
X5840281Y-9616874D01*
X5819196Y-9749999D01*
X5819196Y-9750000D01*
X5840281Y-9883127D01*
X5840282Y-9883129D01*
X5899831Y-10000000D01*
X5901472Y-10003220D01*
X5996780Y-10098528D01*
X6116874Y-10159719D01*
X6250000Y-10180804D01*
X6383126Y-10159719D01*
X6503220Y-10098528D01*
X6598528Y-10003220D01*
X6659719Y-9883126D01*
X6680804Y-9750000D01*
X9819196Y-9750000D01*
X9840281Y-9883127D01*
X9840282Y-9883129D01*
X9899831Y-10000000D01*
X9901472Y-10003220D01*
X9996780Y-10098528D01*
X10116874Y-10159719D01*
X10250000Y-10180804D01*
X10383126Y-10159719D01*
X10503220Y-10098528D01*
X10598528Y-10003220D01*
X10600169Y-10000000D01*
X23819196Y-10000000D01*
X23840281Y-10133127D01*
X23840282Y-10133129D01*
X23862635Y-10176999D01*
X23901472Y-10253220D01*
X23996780Y-10348528D01*
X24116874Y-10409719D01*
X24250000Y-10430804D01*
X24383126Y-10409719D01*
X24503220Y-10348528D01*
X24598528Y-10253220D01*
X24659719Y-10133126D01*
X24680804Y-10000000D01*
X26319196Y-10000000D01*
X26340281Y-10133127D01*
X26340282Y-10133129D01*
X26362635Y-10176999D01*
X26401472Y-10253220D01*
X26496780Y-10348528D01*
X26616874Y-10409719D01*
X26750000Y-10430804D01*
X26883126Y-10409719D01*
X27003220Y-10348528D01*
X27098528Y-10253220D01*
X27159719Y-10133126D01*
X27180804Y-10000000D01*
X28819196Y-10000000D01*
X28840281Y-10133127D01*
X28840282Y-10133129D01*
X28862635Y-10176999D01*
X28901472Y-10253220D01*
X28996780Y-10348528D01*
X29116874Y-10409719D01*
X29250000Y-10430804D01*
X29383126Y-10409719D01*
X29503220Y-10348528D01*
X29598528Y-10253220D01*
X29659719Y-10133126D01*
X29680804Y-10000000D01*
X29659719Y-9866874D01*
X29598528Y-9746780D01*
X29503220Y-9651472D01*
X29503217Y-9651470D01*
X29383129Y-9590282D01*
X29383127Y-9590281D01*
X29250000Y-9569196D01*
X29116872Y-9590281D01*
X29116870Y-9590282D01*
X28996782Y-9651470D01*
X28901470Y-9746782D01*
X28840282Y-9866870D01*
X28840281Y-9866872D01*
X28819196Y-9999999D01*
X28819196Y-10000000D01*
X27180804Y-10000000D01*
X27159719Y-9866874D01*
X27098528Y-9746780D01*
X27003220Y-9651472D01*
X27003217Y-9651470D01*
X26883129Y-9590282D01*
X26883127Y-9590281D01*
X26750000Y-9569196D01*
X26616872Y-9590281D01*
X26616870Y-9590282D01*
X26496782Y-9651470D01*
X26401470Y-9746782D01*
X26340282Y-9866870D01*
X26340281Y-9866872D01*
X26319196Y-9999999D01*
X26319196Y-10000000D01*
X24680804Y-10000000D01*
X24659719Y-9866874D01*
X24598528Y-9746780D01*
X24503220Y-9651472D01*
X24503217Y-9651470D01*
X24383129Y-9590282D01*
X24383127Y-9590281D01*
X24250000Y-9569196D01*
X24116872Y-9590281D01*
X24116870Y-9590282D01*
X23996782Y-9651470D01*
X23901470Y-9746782D01*
X23840282Y-9866870D01*
X23840281Y-9866872D01*
X23819196Y-9999999D01*
X23819196Y-10000000D01*
X10600169Y-10000000D01*
X10659719Y-9883126D01*
X10680804Y-9750000D01*
X10659719Y-9616874D01*
X10600169Y-9500000D01*
X12569196Y-9500000D01*
X12590281Y-9633127D01*
X12590282Y-9633129D01*
X12649831Y-9750000D01*
X12651472Y-9753220D01*
X12746780Y-9848528D01*
X12866874Y-9909719D01*
X13000000Y-9930804D01*
X13133126Y-9909719D01*
X13253220Y-9848528D01*
X13348528Y-9753220D01*
X13409719Y-9633126D01*
X13430804Y-9500000D01*
X15069196Y-9500000D01*
X15090281Y-9633127D01*
X15090282Y-9633129D01*
X15149831Y-9750000D01*
X15151472Y-9753220D01*
X15246780Y-9848528D01*
X15366874Y-9909719D01*
X15500000Y-9930804D01*
X15633126Y-9909719D01*
X15753220Y-9848528D01*
X15848528Y-9753220D01*
X15909719Y-9633126D01*
X15930804Y-9500000D01*
X17569196Y-9500000D01*
X17590281Y-9633127D01*
X17590282Y-9633129D01*
X17649831Y-9750000D01*
X17651472Y-9753220D01*
X17746780Y-9848528D01*
X17866874Y-9909719D01*
X18000000Y-9930804D01*
X18133126Y-9909719D01*
X18253220Y-9848528D01*
X18348528Y-9753220D01*
X18409719Y-9633126D01*
X18430804Y-9500000D01*
X20069196Y-9500000D01*
X20090281Y-9633127D01*
X20090282Y-9633129D01*
X20149831Y-9750000D01*
X20151472Y-9753220D01*
X20246780Y-9848528D01*
X20366874Y-9909719D01*
X20500000Y-9930804D01*
X20633126Y-9909719D01*
X20753220Y-9848528D01*
X20848528Y-9753220D01*
X20909719Y-9633126D01*
X20930804Y-9500000D01*
X22569196Y-9500000D01*
X22590281Y-9633127D01*
X22590282Y-9633129D01*
X22649831Y-9750000D01*
X22651472Y-9753220D01*
X22746780Y-9848528D01*
X22866874Y-9909719D01*
X23000000Y-9930804D01*
X23133126Y-9909719D01*
X23253220Y-9848528D01*
X23348528Y-9753220D01*
X23409719Y-9633126D01*
X23430804Y-9500000D01*
X23409719Y-9366874D01*
X23348528Y-9246780D01*
X23253220Y-9151472D01*
X23253217Y-9151470D01*
X23133129Y-9090282D01*
X23133127Y-9090281D01*
X23000000Y-9069196D01*
X22866872Y-9090281D01*
X22866870Y-9090282D01*
X22746782Y-9151470D01*
X22651470Y-9246782D01*
X22590282Y-9366870D01*
X22590281Y-9366872D01*
X22569196Y-9499999D01*
X22569196Y-9500000D01*
X20930804Y-9500000D01*
X20909719Y-9366874D01*
X20848528Y-9246780D01*
X20753220Y-9151472D01*
X20753217Y-9151470D01*
X20633129Y-9090282D01*
X20633127Y-9090281D01*
X20500000Y-9069196D01*
X20366872Y-9090281D01*
X20366870Y-9090282D01*
X20246782Y-9151470D01*
X20151470Y-9246782D01*
X20090282Y-9366870D01*
X20090281Y-9366872D01*
X20069196Y-9499999D01*
X20069196Y-9500000D01*
X18430804Y-9500000D01*
X18409719Y-9366874D01*
X18348528Y-9246780D01*
X18253220Y-9151472D01*
X18253217Y-9151470D01*
X18133129Y-9090282D01*
X18133127Y-9090281D01*
X18000000Y-9069196D01*
X17866872Y-9090281D01*
X17866870Y-9090282D01*
X17746782Y-9151470D01*
X17651470Y-9246782D01*
X17590282Y-9366870D01*
X17590281Y-9366872D01*
X17569196Y-9499999D01*
X17569196Y-9500000D01*
X15930804Y-9500000D01*
X15909719Y-9366874D01*
X15848528Y-9246780D01*
X15753220Y-9151472D01*
X15753217Y-9151470D01*
X15633129Y-9090282D01*
X15633127Y-9090281D01*
X15500000Y-9069196D01*
X15366872Y-9090281D01*
X15366870Y-9090282D01*
X15246782Y-9151470D01*
X15151470Y-9246782D01*
X15090282Y-9366870D01*
X15090281Y-9366872D01*
X15069196Y-9499999D01*
X15069196Y-9500000D01*
X13430804Y-9500000D01*
X13409719Y-9366874D01*
X13348528Y-9246780D01*
X13253220Y-9151472D01*
X13253217Y-9151470D01*
X13133129Y-9090282D01*
X13133127Y-9090281D01*
X13000000Y-9069196D01*
X12866872Y-9090281D01*
X12866870Y-9090282D01*
X12746782Y-9151470D01*
X12651470Y-9246782D01*
X12590282Y-9366870D01*
X12590281Y-9366872D01*
X12569196Y-9499999D01*
X12569196Y-9500000D01*
X10600169Y-9500000D01*
X10598528Y-9496780D01*
X10503220Y-9401472D01*
X10503217Y-9401470D01*
X10383129Y-9340282D01*
X10383127Y-9340281D01*
X10250000Y-9319196D01*
X10116872Y-9340281D01*
X10116870Y-9340282D01*
X9996782Y-9401470D01*
X9901470Y-9496782D01*
X9840282Y-9616870D01*
X9840281Y-9616872D01*
X9819196Y-9749999D01*
X9819196Y-9750000D01*
X6680804Y-9750000D01*
X6659719Y-9616874D01*
X6598528Y-9496780D01*
X6503220Y-9401472D01*
X6503217Y-9401470D01*
X6383129Y-9340282D01*
X6383127Y-9340281D01*
X6250000Y-9319196D01*
X6240565Y-9320690D01*
X6180134Y-9311116D01*
X6136871Y-9267850D01*
X6127301Y-9207417D01*
X6136870Y-9177968D01*
X6159719Y-9133126D01*
X6180804Y-9000000D01*
X6159719Y-8866874D01*
X6098528Y-8746780D01*
X6003220Y-8651472D01*
X6003217Y-8651470D01*
X5883129Y-8590282D01*
X5883127Y-8590281D01*
X5750000Y-8569196D01*
X5616872Y-8590281D01*
X5616870Y-8590282D01*
X5496782Y-8651470D01*
X5401470Y-8746782D01*
X5340282Y-8866870D01*
X5340281Y-8866872D01*
X5319196Y-8999999D01*
X5319196Y-9000000D01*
X200500Y-9000000D01*
X200500Y-8736500D01*
X219407Y-8678309D01*
X268907Y-8642345D01*
X330093Y-8642345D01*
X344437Y-8648287D01*
X366874Y-8659719D01*
X500000Y-8680804D01*
X633126Y-8659719D01*
X753220Y-8598528D01*
X848528Y-8503220D01*
X909719Y-8383126D01*
X930804Y-8250000D01*
X909719Y-8116874D01*
X848528Y-7996780D01*
X753220Y-7901472D01*
X753217Y-7901470D01*
X633129Y-7840282D01*
X633127Y-7840281D01*
X500000Y-7819196D01*
X366872Y-7840281D01*
X344444Y-7851709D01*
X284012Y-7861280D01*
X229496Y-7833502D01*
X201719Y-7778985D01*
X200500Y-7763499D01*
X200500Y-7250000D01*
X12569196Y-7250000D01*
X12590281Y-7383127D01*
X12590282Y-7383129D01*
X12649831Y-7500000D01*
X12651472Y-7503220D01*
X12746780Y-7598528D01*
X12866874Y-7659719D01*
X13000000Y-7680804D01*
X13133126Y-7659719D01*
X13253220Y-7598528D01*
X13348528Y-7503220D01*
X13350169Y-7500000D01*
X23819196Y-7500000D01*
X23840281Y-7633127D01*
X23840282Y-7633129D01*
X23899831Y-7750000D01*
X23901472Y-7753220D01*
X23996780Y-7848528D01*
X24116874Y-7909719D01*
X24250000Y-7930804D01*
X24383126Y-7909719D01*
X24503220Y-7848528D01*
X24598528Y-7753220D01*
X24600169Y-7750000D01*
X28819196Y-7750000D01*
X28840281Y-7883127D01*
X28840282Y-7883129D01*
X28901470Y-8003217D01*
X28901472Y-8003220D01*
X28996780Y-8098528D01*
X29116874Y-8159719D01*
X29250000Y-8180804D01*
X29383126Y-8159719D01*
X29503220Y-8098528D01*
X29598528Y-8003220D01*
X29659719Y-7883126D01*
X29680804Y-7750000D01*
X29659719Y-7616874D01*
X29598528Y-7496780D01*
X29503220Y-7401472D01*
X29503217Y-7401470D01*
X29383129Y-7340282D01*
X29383127Y-7340281D01*
X29250000Y-7319196D01*
X29116872Y-7340281D01*
X29116870Y-7340282D01*
X28996782Y-7401470D01*
X28901470Y-7496782D01*
X28840282Y-7616870D01*
X28840281Y-7616872D01*
X28819196Y-7749999D01*
X28819196Y-7750000D01*
X24600169Y-7750000D01*
X24659719Y-7633126D01*
X24680804Y-7500000D01*
X24659719Y-7366874D01*
X24600169Y-7250000D01*
X25069196Y-7250000D01*
X25090281Y-7383127D01*
X25090282Y-7383129D01*
X25149831Y-7500000D01*
X25151472Y-7503220D01*
X25246780Y-7598528D01*
X25366874Y-7659719D01*
X25500000Y-7680804D01*
X25633126Y-7659719D01*
X25753220Y-7598528D01*
X25848528Y-7503220D01*
X25909719Y-7383126D01*
X25930804Y-7250000D01*
X25909719Y-7116874D01*
X25848528Y-6996780D01*
X25753220Y-6901472D01*
X25753217Y-6901470D01*
X25633129Y-6840282D01*
X25633127Y-6840281D01*
X25500000Y-6819196D01*
X25366872Y-6840281D01*
X25366870Y-6840282D01*
X25246782Y-6901470D01*
X25151470Y-6996782D01*
X25090282Y-7116870D01*
X25090281Y-7116872D01*
X25069196Y-7249999D01*
X25069196Y-7250000D01*
X24600169Y-7250000D01*
X24598528Y-7246780D01*
X24503220Y-7151472D01*
X24503217Y-7151470D01*
X24383129Y-7090282D01*
X24383127Y-7090281D01*
X24250000Y-7069196D01*
X24116872Y-7090281D01*
X24116870Y-7090282D01*
X23996782Y-7151470D01*
X23901470Y-7246782D01*
X23840282Y-7366870D01*
X23840281Y-7366872D01*
X23819196Y-7499999D01*
X23819196Y-7500000D01*
X13350169Y-7500000D01*
X13409719Y-7383126D01*
X13430804Y-7250000D01*
X13409719Y-7116874D01*
X13350169Y-7000000D01*
X15069196Y-7000000D01*
X15090281Y-7133127D01*
X15090282Y-7133129D01*
X15149831Y-7250000D01*
X15151472Y-7253220D01*
X15246780Y-7348528D01*
X15366874Y-7409719D01*
X15500000Y-7430804D01*
X15633126Y-7409719D01*
X15753220Y-7348528D01*
X15848528Y-7253220D01*
X15909719Y-7133126D01*
X15930804Y-7000000D01*
X17569196Y-7000000D01*
X17590281Y-7133127D01*
X17590282Y-7133129D01*
X17649831Y-7250000D01*
X17651472Y-7253220D01*
X17746780Y-7348528D01*
X17866874Y-7409719D01*
X18000000Y-7430804D01*
X18133126Y-7409719D01*
X18253220Y-7348528D01*
X18348528Y-7253220D01*
X18409719Y-7133126D01*
X18430804Y-7000000D01*
X20069196Y-7000000D01*
X20090281Y-7133127D01*
X20090282Y-7133129D01*
X20149831Y-7250000D01*
X20151472Y-7253220D01*
X20246780Y-7348528D01*
X20366874Y-7409719D01*
X20500000Y-7430804D01*
X20633126Y-7409719D01*
X20753220Y-7348528D01*
X20848528Y-7253220D01*
X20909719Y-7133126D01*
X20930804Y-7000000D01*
X22569196Y-7000000D01*
X22590281Y-7133127D01*
X22590282Y-7133129D01*
X22649831Y-7250000D01*
X22651472Y-7253220D01*
X22746780Y-7348528D01*
X22866874Y-7409719D01*
X23000000Y-7430804D01*
X23133126Y-7409719D01*
X23253220Y-7348528D01*
X23348528Y-7253220D01*
X23409719Y-7133126D01*
X23430804Y-7000000D01*
X23409719Y-6866874D01*
X23348528Y-6746780D01*
X23253220Y-6651472D01*
X23253217Y-6651470D01*
X23133129Y-6590282D01*
X23133127Y-6590281D01*
X23000000Y-6569196D01*
X22866872Y-6590281D01*
X22866870Y-6590282D01*
X22746782Y-6651470D01*
X22651470Y-6746782D01*
X22590282Y-6866870D01*
X22590281Y-6866872D01*
X22569196Y-6999999D01*
X22569196Y-7000000D01*
X20930804Y-7000000D01*
X20909719Y-6866874D01*
X20848528Y-6746780D01*
X20753220Y-6651472D01*
X20753217Y-6651470D01*
X20633129Y-6590282D01*
X20633127Y-6590281D01*
X20500000Y-6569196D01*
X20366872Y-6590281D01*
X20366870Y-6590282D01*
X20246782Y-6651470D01*
X20151470Y-6746782D01*
X20090282Y-6866870D01*
X20090281Y-6866872D01*
X20069196Y-6999999D01*
X20069196Y-7000000D01*
X18430804Y-7000000D01*
X18409719Y-6866874D01*
X18348528Y-6746780D01*
X18253220Y-6651472D01*
X18253217Y-6651470D01*
X18133129Y-6590282D01*
X18133127Y-6590281D01*
X18000000Y-6569196D01*
X17866872Y-6590281D01*
X17866870Y-6590282D01*
X17746782Y-6651470D01*
X17651470Y-6746782D01*
X17590282Y-6866870D01*
X17590281Y-6866872D01*
X17569196Y-6999999D01*
X17569196Y-7000000D01*
X15930804Y-7000000D01*
X15909719Y-6866874D01*
X15848528Y-6746780D01*
X15753220Y-6651472D01*
X15753217Y-6651470D01*
X15633129Y-6590282D01*
X15633127Y-6590281D01*
X15500000Y-6569196D01*
X15366872Y-6590281D01*
X15366870Y-6590282D01*
X15246782Y-6651470D01*
X15151470Y-6746782D01*
X15090282Y-6866870D01*
X15090281Y-6866872D01*
X15069196Y-6999999D01*
X15069196Y-7000000D01*
X13350169Y-7000000D01*
X13348528Y-6996780D01*
X13253220Y-6901472D01*
X13253217Y-6901470D01*
X13133129Y-6840282D01*
X13133127Y-6840281D01*
X13000000Y-6819196D01*
X12866872Y-6840281D01*
X12866870Y-6840282D01*
X12746782Y-6901470D01*
X12651470Y-6996782D01*
X12590282Y-7116870D01*
X12590281Y-7116872D01*
X12569196Y-7249999D01*
X12569196Y-7250000D01*
X200500Y-7250000D01*
X200500Y-6750000D01*
X10569196Y-6750000D01*
X10590281Y-6883127D01*
X10590282Y-6883129D01*
X10649831Y-7000000D01*
X10651472Y-7003220D01*
X10746780Y-7098528D01*
X10866874Y-7159719D01*
X11000000Y-7180804D01*
X11133126Y-7159719D01*
X11253220Y-7098528D01*
X11348528Y-7003220D01*
X11409719Y-6883126D01*
X11430804Y-6750000D01*
X11409719Y-6616874D01*
X11348528Y-6496780D01*
X11253220Y-6401472D01*
X11253217Y-6401470D01*
X11133129Y-6340282D01*
X11133127Y-6340281D01*
X11000000Y-6319196D01*
X10866872Y-6340281D01*
X10866870Y-6340282D01*
X10746782Y-6401470D01*
X10651470Y-6496782D01*
X10590282Y-6616870D01*
X10590281Y-6616872D01*
X10569196Y-6749999D01*
X10569196Y-6750000D01*
X200500Y-6750000D01*
X200500Y-6000000D01*
X31569196Y-6000000D01*
X31590281Y-6133127D01*
X31590282Y-6133129D01*
X31651470Y-6253217D01*
X31651472Y-6253220D01*
X31746780Y-6348528D01*
X31866874Y-6409719D01*
X32000000Y-6430804D01*
X32133126Y-6409719D01*
X32253220Y-6348528D01*
X32348528Y-6253220D01*
X32409719Y-6133126D01*
X32430804Y-6000000D01*
X32409719Y-5866874D01*
X32348528Y-5746780D01*
X32253220Y-5651472D01*
X32253217Y-5651470D01*
X32129061Y-5588209D01*
X32085796Y-5544945D01*
X32076225Y-5484513D01*
X32104003Y-5429996D01*
X32129061Y-5411791D01*
X32202963Y-5374134D01*
X32253220Y-5348528D01*
X32348528Y-5253220D01*
X32409719Y-5133126D01*
X32430804Y-5000000D01*
X32409719Y-4866874D01*
X32348528Y-4746780D01*
X32253220Y-4651472D01*
X32253217Y-4651470D01*
X32133129Y-4590282D01*
X32133127Y-4590281D01*
X32000000Y-4569196D01*
X31866872Y-4590281D01*
X31866870Y-4590282D01*
X31746782Y-4651470D01*
X31651470Y-4746782D01*
X31590282Y-4866870D01*
X31590281Y-4866872D01*
X31569196Y-4999999D01*
X31569196Y-5000000D01*
X31590281Y-5133127D01*
X31590282Y-5133129D01*
X31649831Y-5250000D01*
X31651472Y-5253220D01*
X31746780Y-5348528D01*
X31795940Y-5373576D01*
X31870939Y-5411791D01*
X31914203Y-5455056D01*
X31923774Y-5515488D01*
X31895996Y-5570004D01*
X31870939Y-5588209D01*
X31746781Y-5651471D01*
X31651470Y-5746782D01*
X31590282Y-5866870D01*
X31590281Y-5866872D01*
X31569196Y-5999999D01*
X31569196Y-6000000D01*
X200500Y-6000000D01*
X200500Y-5250000D01*
X5319196Y-5250000D01*
X5340281Y-5383127D01*
X5340282Y-5383129D01*
X5364162Y-5429996D01*
X5401472Y-5503220D01*
X5496780Y-5598528D01*
X5616874Y-5659719D01*
X5750000Y-5680804D01*
X5883126Y-5659719D01*
X6003220Y-5598528D01*
X6098528Y-5503220D01*
X6159719Y-5383126D01*
X6180804Y-5250000D01*
X6159719Y-5116874D01*
X6098528Y-4996780D01*
X6046749Y-4945001D01*
X6018974Y-4890487D01*
X6028545Y-4830055D01*
X6046748Y-4804999D01*
X6098528Y-4753220D01*
X6100169Y-4750000D01*
X22569196Y-4750000D01*
X22590281Y-4883127D01*
X22590282Y-4883129D01*
X22649831Y-5000000D01*
X22651472Y-5003220D01*
X22746780Y-5098528D01*
X22866874Y-5159719D01*
X23000000Y-5180804D01*
X23133126Y-5159719D01*
X23253220Y-5098528D01*
X23348528Y-5003220D01*
X23409719Y-4883126D01*
X23430804Y-4750000D01*
X23409719Y-4616874D01*
X23348528Y-4496780D01*
X23253220Y-4401472D01*
X23253217Y-4401470D01*
X23133129Y-4340282D01*
X23133127Y-4340281D01*
X23000000Y-4319196D01*
X22866872Y-4340281D01*
X22866870Y-4340282D01*
X22746782Y-4401470D01*
X22651470Y-4496782D01*
X22590282Y-4616870D01*
X22590281Y-4616872D01*
X22569196Y-4749999D01*
X22569196Y-4750000D01*
X6100169Y-4750000D01*
X6159719Y-4633126D01*
X6180804Y-4500000D01*
X6159719Y-4366874D01*
X6098528Y-4246780D01*
X6003220Y-4151472D01*
X6003217Y-4151470D01*
X5883129Y-4090282D01*
X5883127Y-4090281D01*
X5750000Y-4069196D01*
X5616872Y-4090281D01*
X5616870Y-4090282D01*
X5496782Y-4151470D01*
X5401470Y-4246782D01*
X5340282Y-4366870D01*
X5340281Y-4366872D01*
X5319196Y-4499999D01*
X5319196Y-4500000D01*
X5340281Y-4633127D01*
X5340282Y-4633129D01*
X5399831Y-4750000D01*
X5401472Y-4753220D01*
X5453250Y-4804998D01*
X5481026Y-4859513D01*
X5471455Y-4919945D01*
X5453251Y-4945000D01*
X5401472Y-4996780D01*
X5401470Y-4996782D01*
X5340282Y-5116870D01*
X5340281Y-5116872D01*
X5319196Y-5249999D01*
X5319196Y-5250000D01*
X200500Y-5250000D01*
X200500Y-4000000D01*
X25069196Y-4000000D01*
X25090281Y-4133127D01*
X25090282Y-4133129D01*
X25151470Y-4253217D01*
X25151472Y-4253220D01*
X25246780Y-4348528D01*
X25366874Y-4409719D01*
X25500000Y-4430804D01*
X25633126Y-4409719D01*
X25753220Y-4348528D01*
X25848528Y-4253220D01*
X25909719Y-4133126D01*
X25930804Y-4000000D01*
X25909719Y-3866874D01*
X25848528Y-3746780D01*
X25753220Y-3651472D01*
X25753217Y-3651470D01*
X25633129Y-3590282D01*
X25633127Y-3590281D01*
X25500000Y-3569196D01*
X25366872Y-3590281D01*
X25366870Y-3590282D01*
X25246782Y-3651470D01*
X25151470Y-3746782D01*
X25090282Y-3866870D01*
X25090281Y-3866872D01*
X25069196Y-3999999D01*
X25069196Y-4000000D01*
X200500Y-4000000D01*
X200500Y-3250000D01*
X30569196Y-3250000D01*
X30590281Y-3383127D01*
X30590282Y-3383129D01*
X30651470Y-3503217D01*
X30651472Y-3503220D01*
X30746780Y-3598528D01*
X30866874Y-3659719D01*
X31000000Y-3680804D01*
X31133126Y-3659719D01*
X31253220Y-3598528D01*
X31348528Y-3503220D01*
X31409719Y-3383126D01*
X31430804Y-3250000D01*
X31409719Y-3116874D01*
X31348528Y-2996780D01*
X31253220Y-2901472D01*
X31253217Y-2901470D01*
X31133129Y-2840282D01*
X31133127Y-2840281D01*
X31000000Y-2819196D01*
X30866872Y-2840281D01*
X30866870Y-2840282D01*
X30746782Y-2901470D01*
X30651470Y-2996782D01*
X30590282Y-3116870D01*
X30590281Y-3116872D01*
X30569196Y-3249999D01*
X30569196Y-3250000D01*
X200500Y-3250000D01*
X200500Y-2624057D01*
X219407Y-2565866D01*
X229496Y-2554053D01*
X2554054Y-229496D01*
X2608571Y-201719D01*
X2624058Y-200500D01*
X32375943Y-200500D01*
X32434134Y-219407D01*
G37*
%TD.AperFunction*%
%TD*%
M02*
