%TF.GenerationSoftware,KiCad,Pcbnew,7.0.7*%
%TF.CreationDate,2023-11-05T15:43:27+10:00*%
%TF.ProjectId,LEDBoard,4c454442-6f61-4726-942e-6b696361645f,rev?*%
%TF.SameCoordinates,Original*%
%TF.FileFunction,Copper,L4,Bot*%
%TF.FilePolarity,Positive*%
%FSLAX46Y46*%
G04 Gerber Fmt 4.6, Leading zero omitted, Abs format (unit mm)*
G04 Created by KiCad (PCBNEW 7.0.7) date 2023-11-05 15:43:27*
%MOMM*%
%LPD*%
G01*
G04 APERTURE LIST*
G04 Aperture macros list*
%AMRoundRect*
0 Rectangle with rounded corners*
0 $1 Rounding radius*
0 $2 $3 $4 $5 $6 $7 $8 $9 X,Y pos of 4 corners*
0 Add a 4 corners polygon primitive as box body*
4,1,4,$2,$3,$4,$5,$6,$7,$8,$9,$2,$3,0*
0 Add four circle primitives for the rounded corners*
1,1,$1+$1,$2,$3*
1,1,$1+$1,$4,$5*
1,1,$1+$1,$6,$7*
1,1,$1+$1,$8,$9*
0 Add four rect primitives between the rounded corners*
20,1,$1+$1,$2,$3,$4,$5,0*
20,1,$1+$1,$4,$5,$6,$7,0*
20,1,$1+$1,$6,$7,$8,$9,0*
20,1,$1+$1,$8,$9,$2,$3,0*%
G04 Aperture macros list end*
%TA.AperFunction,SMDPad,CuDef*%
%ADD10R,2.600000X3.600000*%
%TD*%
%TA.AperFunction,SMDPad,CuDef*%
%ADD11RoundRect,0.062500X0.587500X0.062500X-0.587500X0.062500X-0.587500X-0.062500X0.587500X-0.062500X0*%
%TD*%
%TA.AperFunction,SMDPad,CuDef*%
%ADD12RoundRect,0.225000X-0.225000X-0.250000X0.225000X-0.250000X0.225000X0.250000X-0.225000X0.250000X0*%
%TD*%
%TA.AperFunction,SMDPad,CuDef*%
%ADD13RoundRect,0.187500X-0.712500X0.187500X-0.712500X-0.187500X0.712500X-0.187500X0.712500X0.187500X0*%
%TD*%
%TA.AperFunction,SMDPad,CuDef*%
%ADD14RoundRect,0.150000X-0.750000X0.150000X-0.750000X-0.150000X0.750000X-0.150000X0.750000X0.150000X0*%
%TD*%
%TA.AperFunction,SMDPad,CuDef*%
%ADD15RoundRect,0.225000X-0.225000X0.425000X-0.225000X-0.425000X0.225000X-0.425000X0.225000X0.425000X0*%
%TD*%
%TA.AperFunction,SMDPad,CuDef*%
%ADD16RoundRect,0.135000X0.185000X-0.135000X0.185000X0.135000X-0.185000X0.135000X-0.185000X-0.135000X0*%
%TD*%
%TA.AperFunction,SMDPad,CuDef*%
%ADD17RoundRect,0.140000X0.170000X-0.140000X0.170000X0.140000X-0.170000X0.140000X-0.170000X-0.140000X0*%
%TD*%
%TA.AperFunction,SMDPad,CuDef*%
%ADD18RoundRect,0.135000X-0.185000X0.135000X-0.185000X-0.135000X0.185000X-0.135000X0.185000X0.135000X0*%
%TD*%
%TA.AperFunction,SMDPad,CuDef*%
%ADD19RoundRect,0.150000X0.587500X0.150000X-0.587500X0.150000X-0.587500X-0.150000X0.587500X-0.150000X0*%
%TD*%
%TA.AperFunction,SMDPad,CuDef*%
%ADD20RoundRect,0.135000X0.135000X0.185000X-0.135000X0.185000X-0.135000X-0.185000X0.135000X-0.185000X0*%
%TD*%
%TA.AperFunction,SMDPad,CuDef*%
%ADD21RoundRect,0.135000X-0.135000X-0.185000X0.135000X-0.185000X0.135000X0.185000X-0.135000X0.185000X0*%
%TD*%
%TA.AperFunction,SMDPad,CuDef*%
%ADD22RoundRect,0.250000X0.650000X-0.325000X0.650000X0.325000X-0.650000X0.325000X-0.650000X-0.325000X0*%
%TD*%
%TA.AperFunction,ViaPad*%
%ADD23C,0.400000*%
%TD*%
%TA.AperFunction,Conductor*%
%ADD24C,0.200000*%
%TD*%
G04 APERTURE END LIST*
D10*
%TO.P,BT1,1,+*%
%TO.N,/BATT_TERM*%
X2850000Y-24500000D03*
%TO.P,BT1,2,-*%
%TO.N,-BATT*%
X32150000Y-24500000D03*
%TD*%
D11*
%TO.P,J2,1,Pin_1*%
%TO.N,unconnected-(J2-Pin_1-Pad1)*%
X33250000Y-3750000D03*
%TO.P,J2,2,Pin_2*%
%TO.N,unconnected-(J2-Pin_2-Pad2)*%
X27750000Y-3750000D03*
%TO.P,J2,3,Pin_3*%
%TO.N,unconnected-(J2-Pin_3-Pad3)*%
X33250000Y-4250000D03*
%TO.P,J2,4,Pin_4*%
%TO.N,unconnected-(J2-Pin_4-Pad4)*%
X27750000Y-4250000D03*
%TO.P,J2,5,Pin_5*%
%TO.N,+BATT*%
X33250000Y-4750000D03*
%TO.P,J2,6,Pin_6*%
%TO.N,unconnected-(J2-Pin_6-Pad6)*%
X27750000Y-4750000D03*
%TO.P,J2,7,Pin_7*%
%TO.N,+BATT*%
X33250000Y-5250000D03*
%TO.P,J2,8,Pin_8*%
%TO.N,/LED0*%
X27750000Y-5250000D03*
%TO.P,J2,9,Pin_9*%
%TO.N,+BATT*%
X33250000Y-5750000D03*
%TO.P,J2,10,Pin_10*%
%TO.N,/LED1*%
X27750000Y-5750000D03*
%TO.P,J2,11,Pin_11*%
%TO.N,+BATT*%
X33250000Y-6250000D03*
%TO.P,J2,12,Pin_12*%
%TO.N,/VSENSE*%
X27750000Y-6250000D03*
%TO.P,J2,13,Pin_13*%
%TO.N,-BATT*%
X33250000Y-6750000D03*
%TO.P,J2,14,Pin_14*%
%TO.N,unconnected-(J2-Pin_14-Pad14)*%
X27750000Y-6750000D03*
%TO.P,J2,15,Pin_15*%
%TO.N,-BATT*%
X33250000Y-7250000D03*
%TO.P,J2,16,Pin_16*%
%TO.N,unconnected-(J2-Pin_16-Pad16)*%
X27750000Y-7250000D03*
%TO.P,J2,17,Pin_17*%
%TO.N,-BATT*%
X33250000Y-7750000D03*
%TO.P,J2,18,Pin_18*%
%TO.N,unconnected-(J2-Pin_18-Pad18)*%
X27750000Y-7750000D03*
%TO.P,J2,19,Pin_19*%
%TO.N,-BATT*%
X33250000Y-8250000D03*
%TO.P,J2,20,Pin_20*%
%TO.N,/LED2*%
X27750000Y-8250000D03*
%TO.P,J2,21,Pin_21*%
%TO.N,unconnected-(J2-Pin_21-Pad21)*%
X33250000Y-8750000D03*
%TO.P,J2,22,Pin_22*%
%TO.N,/LED3*%
X27750000Y-8750000D03*
%TO.P,J2,23,Pin_23*%
%TO.N,unconnected-(J2-Pin_23-Pad23)*%
X33250000Y-9250000D03*
%TO.P,J2,24,Pin_24*%
%TO.N,/BUTTON*%
X27750000Y-9250000D03*
%TD*%
D12*
%TO.P,C3,1*%
%TO.N,/BATT_TERM*%
X3725000Y-33500000D03*
%TO.P,C3,2*%
%TO.N,-BATT*%
X5275000Y-33500000D03*
%TD*%
D13*
%TO.P,SW1,1,1*%
%TO.N,-BATT*%
X31850000Y-16275000D03*
X31850000Y-18725000D03*
D14*
%TO.P,SW1,2,2*%
%TO.N,/BUTTON*%
X31850000Y-17500000D03*
D15*
%TO.P,SW1,MP*%
%TO.N,N/C*%
X33800000Y-15650000D03*
X33800000Y-19350000D03*
%TD*%
D16*
%TO.P,R2,1*%
%TO.N,/VSENSE*%
X26250000Y-5010000D03*
%TO.P,R2,2*%
%TO.N,-BATT*%
X26250000Y-3990000D03*
%TD*%
D17*
%TO.P,C2,1*%
%TO.N,/BATT_TERM*%
X3500000Y-20230000D03*
%TO.P,C2,2*%
%TO.N,-BATT*%
X3500000Y-19270000D03*
%TD*%
D16*
%TO.P,R6,1*%
%TO.N,/LED3_R*%
X26000000Y-14510000D03*
%TO.P,R6,2*%
%TO.N,/LED3*%
X26000000Y-13490000D03*
%TD*%
D18*
%TO.P,R1,1*%
%TO.N,+BATT*%
X25250000Y-3990000D03*
%TO.P,R1,2*%
%TO.N,/VSENSE*%
X25250000Y-5010000D03*
%TD*%
D19*
%TO.P,Q1,1,G*%
%TO.N,-BATT*%
X4937500Y-29300000D03*
%TO.P,Q1,2,S*%
%TO.N,+BATT*%
X4937500Y-31200000D03*
%TO.P,Q1,3,D*%
%TO.N,/BATT_TERM*%
X3062500Y-30250000D03*
%TD*%
D16*
%TO.P,R5,1*%
%TO.N,/LED2_R*%
X23500000Y-14510000D03*
%TO.P,R5,2*%
%TO.N,/LED2*%
X23500000Y-13490000D03*
%TD*%
D11*
%TO.P,J1,1,Pin_1*%
%TO.N,-BATT*%
X7250000Y-3750000D03*
%TO.P,J1,2,Pin_2*%
X1750000Y-3750000D03*
%TO.P,J1,3,Pin_3*%
%TO.N,/LED Array/COL9*%
X7250000Y-4250000D03*
%TO.P,J1,4,Pin_4*%
%TO.N,/LED Array/ROW0*%
X1750000Y-4250000D03*
%TO.P,J1,5,Pin_5*%
%TO.N,/LED Array/COL10*%
X7250000Y-4750000D03*
%TO.P,J1,6,Pin_6*%
%TO.N,/LED Array/ROW1*%
X1750000Y-4750000D03*
%TO.P,J1,7,Pin_7*%
%TO.N,/LED Array/COL0*%
X7250000Y-5250000D03*
%TO.P,J1,8,Pin_8*%
%TO.N,/LED Array/ROW2*%
X1750000Y-5250000D03*
%TO.P,J1,9,Pin_9*%
%TO.N,/LED Array/COL1*%
X7250000Y-5750000D03*
%TO.P,J1,10,Pin_10*%
%TO.N,/LED Array/ROW3*%
X1750000Y-5750000D03*
%TO.P,J1,11,Pin_11*%
%TO.N,/LED Array/COL2*%
X7250000Y-6250000D03*
%TO.P,J1,12,Pin_12*%
%TO.N,/LED Array/ROW4*%
X1750000Y-6250000D03*
%TO.P,J1,13,Pin_13*%
%TO.N,/LED Array/COL3*%
X7250000Y-6750000D03*
%TO.P,J1,14,Pin_14*%
%TO.N,/LED Array/ROW5*%
X1750000Y-6750000D03*
%TO.P,J1,15,Pin_15*%
%TO.N,/LED Array/COL4*%
X7250000Y-7250000D03*
%TO.P,J1,16,Pin_16*%
%TO.N,/LED Array/ROW6*%
X1750000Y-7250000D03*
%TO.P,J1,17,Pin_17*%
%TO.N,/LED Array/COL5*%
X7250000Y-7750000D03*
%TO.P,J1,18,Pin_18*%
%TO.N,/LED Array/ROW7*%
X1750000Y-7750000D03*
%TO.P,J1,19,Pin_19*%
%TO.N,/LED Array/COL6*%
X7250000Y-8250000D03*
%TO.P,J1,20,Pin_20*%
%TO.N,/LED Array/ROW8*%
X1750000Y-8250000D03*
%TO.P,J1,21,Pin_21*%
%TO.N,/LED Array/COL7*%
X7250000Y-8750000D03*
%TO.P,J1,22,Pin_22*%
%TO.N,/LED Array/ROW9*%
X1750000Y-8750000D03*
%TO.P,J1,23,Pin_23*%
%TO.N,/LED Array/COL8*%
X7250000Y-9250000D03*
%TO.P,J1,24,Pin_24*%
%TO.N,-BATT*%
X1750000Y-9250000D03*
%TD*%
D20*
%TO.P,R7,1*%
%TO.N,+BATT*%
X31510000Y-13500000D03*
%TO.P,R7,2*%
%TO.N,/BUTTON*%
X30490000Y-13500000D03*
%TD*%
D21*
%TO.P,R4,1*%
%TO.N,/LED1_R*%
X25240000Y-2000000D03*
%TO.P,R4,2*%
%TO.N,/LED1*%
X26260000Y-2000000D03*
%TD*%
D22*
%TO.P,C1,1*%
%TO.N,/BATT_TERM*%
X1750000Y-21225000D03*
%TO.P,C1,2*%
%TO.N,-BATT*%
X1750000Y-18275000D03*
%TD*%
D21*
%TO.P,R3,1*%
%TO.N,/LED0_R*%
X25240000Y-3000000D03*
%TO.P,R3,2*%
%TO.N,/LED0*%
X26260000Y-3000000D03*
%TD*%
D23*
%TO.N,-BATT*%
X32000000Y-8000000D03*
X5400000Y-30000000D03*
X1750000Y-10250000D03*
X32150000Y-24500000D03*
X750000Y-17000000D03*
X33000000Y-23250000D03*
X33000000Y-25750000D03*
X2250000Y-17000000D03*
X8500000Y-3750000D03*
X31250000Y-25750000D03*
X32000000Y-7000000D03*
X6250000Y-29250000D03*
X31250000Y-23250000D03*
X34500000Y-8000000D03*
X26250000Y-3990000D03*
X4500000Y-30000000D03*
X32100000Y-18725000D03*
X5275000Y-33500000D03*
X32100000Y-16275000D03*
X1500000Y-17000000D03*
X1750000Y-3000000D03*
X32842947Y-30907053D03*
X34500000Y-7000000D03*
%TO.N,/LED0_R*%
X25240000Y-3000000D03*
%TO.N,/LED1_R*%
X25240000Y-2000000D03*
%TO.N,/LED2_R*%
X21750000Y-31500000D03*
%TO.N,/LED Array/COL0*%
X4000000Y-28000000D03*
X4657053Y-24092947D03*
X4657053Y-26592947D03*
X5750000Y-4500000D03*
%TO.N,/LED Array/ROW0*%
X5750000Y-5250000D03*
%TO.N,/LED Array/COL1*%
X7157053Y-26592947D03*
X7157053Y-14092947D03*
X7157053Y-21592947D03*
X7157053Y-29092947D03*
X6250000Y-9750000D03*
X7157053Y-16592947D03*
X7157053Y-24092947D03*
X7157053Y-19092947D03*
X7157053Y-11592947D03*
%TO.N,/LED Array/COL2*%
X9657053Y-16592947D03*
X9657053Y-24092947D03*
X9657053Y-9092947D03*
X9657053Y-21592947D03*
X9657053Y-26592947D03*
X9657053Y-14092947D03*
X9657053Y-11592947D03*
X9657053Y-29092947D03*
X11000000Y-6750000D03*
X9657053Y-19092947D03*
%TO.N,/LED Array/COL3*%
X12157053Y-26592947D03*
X12157053Y-29092947D03*
X12157053Y-14092947D03*
X12157053Y-11592947D03*
X12157053Y-19092947D03*
X12157053Y-21592947D03*
X12157053Y-16592947D03*
X12157053Y-6592947D03*
X12157053Y-9092947D03*
X12157053Y-24092947D03*
%TO.N,/LED Array/COL4*%
X14657053Y-26592947D03*
X14657053Y-29092947D03*
X14657053Y-19092947D03*
X14657053Y-6592947D03*
X14657053Y-11592947D03*
X14657053Y-24092947D03*
X14657053Y-16592947D03*
X14657053Y-9092947D03*
X14657053Y-21592947D03*
X14657053Y-14092947D03*
%TO.N,/LED Array/COL5*%
X17157053Y-19092947D03*
X17157053Y-29092947D03*
X17157053Y-21592947D03*
X17157053Y-6592947D03*
X17157053Y-24092947D03*
X17157053Y-16592947D03*
X17157053Y-14092947D03*
X17157053Y-11592947D03*
X17157053Y-9092947D03*
X17157053Y-26592947D03*
%TO.N,/LED Array/COL6*%
X19657053Y-26592947D03*
X19657053Y-29092947D03*
X19657053Y-9092947D03*
X19657053Y-6592947D03*
X19657053Y-24092947D03*
X19657053Y-19092947D03*
X19657053Y-14092947D03*
X19657053Y-16592947D03*
X19657053Y-21592947D03*
X19657053Y-11592947D03*
%TO.N,/LED Array/COL7*%
X22157053Y-19092947D03*
X22157053Y-14092947D03*
X22157053Y-24092947D03*
X22157053Y-6592947D03*
X22157053Y-26592947D03*
X22157053Y-9092947D03*
X22157053Y-21592947D03*
X22157053Y-11592947D03*
X22157053Y-29092947D03*
X22157053Y-16592947D03*
%TO.N,/LED Array/COL8*%
X24657053Y-29092947D03*
X24657053Y-11592947D03*
X24657053Y-26592947D03*
X24657053Y-21592947D03*
X24657053Y-16592947D03*
X24657053Y-9092947D03*
X24657053Y-24092947D03*
X24657053Y-6592947D03*
X24657053Y-19092947D03*
X24657053Y-14092947D03*
%TO.N,/LED Array/COL9*%
X27157053Y-16592947D03*
X27157053Y-21592947D03*
X27157053Y-24092947D03*
X27157053Y-26592947D03*
X27157053Y-14092947D03*
X27157053Y-19092947D03*
X27157053Y-29092947D03*
X25750000Y-7500000D03*
X27000000Y-10000000D03*
X27157053Y-11592947D03*
%TO.N,/LED Array/COL10*%
X29657053Y-24092947D03*
X29657053Y-11592947D03*
X23000000Y-4750000D03*
X29657053Y-14092947D03*
X29657053Y-29092947D03*
X29657053Y-21592947D03*
X29657053Y-26592947D03*
X29250000Y-7750000D03*
X29657053Y-16592947D03*
X29657053Y-19092947D03*
X29000000Y-9750000D03*
%TO.N,/LED Array/ROW1*%
X5750000Y-9000000D03*
%TO.N,/LED Array/ROW2*%
X5342947Y-10907053D03*
%TO.N,/LED Array/ROW3*%
X5342947Y-13407053D03*
%TO.N,/LED Array/ROW4*%
X5342947Y-15907053D03*
%TO.N,/LED Array/ROW5*%
X5342947Y-18407053D03*
%TO.N,/LED Array/ROW6*%
X5342947Y-20907053D03*
%TO.N,/LED Array/ROW7*%
X5342947Y-23407053D03*
%TO.N,/LED Array/ROW8*%
X500000Y-8250000D03*
%TO.N,/LED Array/ROW9*%
X750000Y-10000000D03*
%TO.N,+BATT*%
X32000000Y-5000000D03*
X32000000Y-6000000D03*
X6250000Y-31250000D03*
X4500000Y-32000000D03*
X34500000Y-5000000D03*
X31510000Y-13500000D03*
X5400000Y-32000000D03*
X34500000Y-6000000D03*
X25250000Y-3990000D03*
%TO.N,/LED3_R*%
X27842947Y-31592947D03*
%TD*%
D24*
%TO.N,-BATT*%
X1750000Y-10250000D02*
X1750000Y-9250000D01*
X8500000Y-3750000D02*
X7250000Y-3750000D01*
X1750000Y-3750000D02*
X1750000Y-3000000D01*
%TO.N,/LED0*%
X29000000Y-4750000D02*
X29000000Y-3250000D01*
X27750000Y-5250000D02*
X28500000Y-5250000D01*
X28750000Y-3000000D02*
X26260000Y-3000000D01*
X29000000Y-3250000D02*
X28750000Y-3000000D01*
X28500000Y-5250000D02*
X29000000Y-4750000D01*
%TO.N,/LED1*%
X29500000Y-3000000D02*
X28500000Y-2000000D01*
X28500000Y-2000000D02*
X26260000Y-2000000D01*
X27750000Y-5750000D02*
X28750000Y-5750000D01*
X29500000Y-5000000D02*
X29500000Y-3000000D01*
X28750000Y-5750000D02*
X29500000Y-5000000D01*
%TO.N,/LED2_R*%
X23500000Y-29750000D02*
X23500000Y-14510000D01*
X21750000Y-31500000D02*
X23500000Y-29750000D01*
%TO.N,/LED2*%
X23500000Y-13490000D02*
X23500000Y-11500000D01*
X26750000Y-8250000D02*
X27750000Y-8250000D01*
X23500000Y-11500000D02*
X26750000Y-8250000D01*
%TO.N,/LED3*%
X26000000Y-13490000D02*
X26000000Y-9718171D01*
X26000000Y-9718171D02*
X26968171Y-8750000D01*
X26968171Y-8750000D02*
X27750000Y-8750000D01*
%TO.N,/LED Array/COL0*%
X7250000Y-5250000D02*
X6500000Y-5250000D01*
X6500000Y-5250000D02*
X5750000Y-4500000D01*
%TO.N,/LED Array/ROW0*%
X5750000Y-5250000D02*
X5250000Y-5250000D01*
X4250000Y-4250000D02*
X1750000Y-4250000D01*
X5250000Y-5250000D02*
X4250000Y-4250000D01*
%TO.N,/LED Array/COL1*%
X7250000Y-5750000D02*
X6436343Y-5750000D01*
X6250000Y-10685894D02*
X7157053Y-11592947D01*
X6436343Y-5750000D02*
X6250000Y-5936343D01*
X6250000Y-9750000D02*
X6250000Y-10685894D01*
X6250000Y-5936343D02*
X6250000Y-9750000D01*
%TO.N,/LED Array/COL2*%
X11000000Y-6750000D02*
X10500000Y-6250000D01*
X10500000Y-6250000D02*
X7250000Y-6250000D01*
%TO.N,/LED Array/COL3*%
X11500000Y-7250000D02*
X12157053Y-6592947D01*
X10250000Y-6750000D02*
X10750000Y-7250000D01*
X10750000Y-7250000D02*
X11500000Y-7250000D01*
X7250000Y-6750000D02*
X10250000Y-6750000D01*
%TO.N,/LED Array/COL4*%
X10000000Y-7250000D02*
X10500000Y-7750000D01*
X13500000Y-7750000D02*
X14657053Y-6592947D01*
X10500000Y-7750000D02*
X13500000Y-7750000D01*
X7250000Y-7250000D02*
X10000000Y-7250000D01*
%TO.N,/LED Array/COL5*%
X10592947Y-8592947D02*
X16657053Y-8592947D01*
X16657053Y-8592947D02*
X17157053Y-9092947D01*
X9750000Y-7750000D02*
X10592947Y-8592947D01*
X7250000Y-7750000D02*
X9750000Y-7750000D01*
%TO.N,/LED Array/COL6*%
X7250000Y-8250000D02*
X9521213Y-8250000D01*
X11021213Y-9750000D02*
X19000000Y-9750000D01*
X9521213Y-8250000D02*
X11021213Y-9750000D01*
X19000000Y-9750000D02*
X19657053Y-9092947D01*
%TO.N,/LED Array/COL7*%
X8250000Y-8750000D02*
X9750000Y-10250000D01*
X21000000Y-10250000D02*
X22157053Y-9092947D01*
X7250000Y-8750000D02*
X8250000Y-8750000D01*
X9750000Y-10250000D02*
X21000000Y-10250000D01*
%TO.N,/LED Array/COL8*%
X8000000Y-9250000D02*
X9500000Y-10750000D01*
X23000000Y-10750000D02*
X24657053Y-9092947D01*
X7250000Y-9250000D02*
X8000000Y-9250000D01*
X9500000Y-10750000D02*
X23000000Y-10750000D01*
%TO.N,/LED Array/COL9*%
X25750000Y-7500000D02*
X25750000Y-6750000D01*
X23250000Y-4250000D02*
X7250000Y-4250000D01*
X25750000Y-6750000D02*
X23250000Y-4250000D01*
%TO.N,/LED Array/COL10*%
X7250000Y-4750000D02*
X23000000Y-4750000D01*
%TO.N,/LED Array/ROW1*%
X5750000Y-6500000D02*
X4000000Y-4750000D01*
X4000000Y-4750000D02*
X1750000Y-4750000D01*
X5750000Y-9000000D02*
X5750000Y-6500000D01*
%TO.N,/LED Array/ROW2*%
X3750000Y-5250000D02*
X5250000Y-6750000D01*
X5250000Y-10814106D02*
X5342947Y-10907053D01*
X5250000Y-6750000D02*
X5250000Y-10814106D01*
X1750000Y-5250000D02*
X3750000Y-5250000D01*
%TO.N,/LED Array/ROW3*%
X4750000Y-7000000D02*
X4750000Y-12814106D01*
X4750000Y-12814106D02*
X5342947Y-13407053D01*
X1750000Y-5750000D02*
X3500000Y-5750000D01*
X3500000Y-5750000D02*
X4750000Y-7000000D01*
%TO.N,/LED Array/ROW4*%
X3250000Y-6250000D02*
X4250000Y-7250000D01*
X4250000Y-7250000D02*
X4250000Y-14814106D01*
X1750000Y-6250000D02*
X3250000Y-6250000D01*
X4250000Y-14814106D02*
X5342947Y-15907053D01*
%TO.N,/LED Array/ROW5*%
X3750000Y-15032053D02*
X5342947Y-16625000D01*
X3000000Y-6750000D02*
X3750000Y-7500000D01*
X5342947Y-16625000D02*
X5342947Y-18407053D01*
X3750000Y-7500000D02*
X3750000Y-15032053D01*
X1750000Y-6750000D02*
X3000000Y-6750000D01*
%TO.N,/LED Array/ROW6*%
X4912947Y-20477053D02*
X5342947Y-20907053D01*
X2781829Y-7250000D02*
X3250000Y-7718171D01*
X1750000Y-7250000D02*
X2781829Y-7250000D01*
X3250000Y-15250000D02*
X4912947Y-16912947D01*
X4912947Y-16912947D02*
X4912947Y-20477053D01*
X3250000Y-7718171D02*
X3250000Y-15250000D01*
%TO.N,/LED Array/ROW7*%
X1750000Y-7750000D02*
X2563657Y-7750000D01*
X2750000Y-15500000D02*
X4500000Y-17250000D01*
X4500000Y-22564106D02*
X5342947Y-23407053D01*
X4500000Y-17250000D02*
X4500000Y-22564106D01*
X2563657Y-7750000D02*
X2750000Y-7936343D01*
X2750000Y-7936343D02*
X2750000Y-15500000D01*
%TO.N,/LED Array/ROW8*%
X500000Y-8250000D02*
X1750000Y-8250000D01*
%TO.N,/LED Array/ROW9*%
X1000000Y-8750000D02*
X1750000Y-8750000D01*
X750000Y-10000000D02*
X750000Y-9000000D01*
X750000Y-9000000D02*
X1000000Y-8750000D01*
%TO.N,/VSENSE*%
X26250000Y-5500000D02*
X26250000Y-5010000D01*
X26250000Y-5010000D02*
X25250000Y-5010000D01*
X27750000Y-6250000D02*
X27000000Y-6250000D01*
X27000000Y-6250000D02*
X26250000Y-5500000D01*
%TO.N,/BUTTON*%
X30490000Y-13500000D02*
X30500000Y-13500000D01*
X30500000Y-16750000D02*
X31250000Y-17500000D01*
X30500000Y-10500000D02*
X30500000Y-13500000D01*
X30500000Y-13500000D02*
X30500000Y-16750000D01*
X27750000Y-9250000D02*
X29250000Y-9250000D01*
X29250000Y-9250000D02*
X30500000Y-10500000D01*
X31250000Y-17500000D02*
X31850000Y-17500000D01*
%TO.N,/LED3_R*%
X27842947Y-31592947D02*
X26000000Y-29750000D01*
X26000000Y-29750000D02*
X26000000Y-14510000D01*
%TD*%
%TA.AperFunction,Conductor*%
%TO.N,+BATT*%
G36*
X32494696Y-4516684D02*
G01*
X32530802Y-4540809D01*
X32559883Y-4560240D01*
X32618207Y-4571841D01*
X32636588Y-4575498D01*
X32636589Y-4575498D01*
X32636599Y-4575500D01*
X33863400Y-4575499D01*
X33940117Y-4560240D01*
X33986330Y-4529361D01*
X34005304Y-4516684D01*
X34060305Y-4500000D01*
X34700500Y-4500000D01*
X34758691Y-4518907D01*
X34794655Y-4568407D01*
X34799500Y-4599000D01*
X34799500Y-6195500D01*
X34780593Y-6253691D01*
X34731093Y-6289655D01*
X34700500Y-6294500D01*
X34060305Y-6294500D01*
X34000649Y-6303348D01*
X33945656Y-6320030D01*
X33891137Y-6345814D01*
X33879910Y-6353316D01*
X33824911Y-6369999D01*
X32675089Y-6369999D01*
X32620090Y-6353316D01*
X32608869Y-6345819D01*
X32608860Y-6345813D01*
X32554346Y-6320031D01*
X32499350Y-6303348D01*
X32439695Y-6294500D01*
X31599000Y-6294500D01*
X31540809Y-6275593D01*
X31504845Y-6226093D01*
X31500000Y-6195500D01*
X31500000Y-4599000D01*
X31518907Y-4540809D01*
X31568407Y-4504845D01*
X31599000Y-4500000D01*
X32439695Y-4500000D01*
X32494696Y-4516684D01*
G37*
%TD.AperFunction*%
%TD*%
%TA.AperFunction,Conductor*%
%TO.N,-BATT*%
G36*
X32494696Y-6516684D02*
G01*
X32530802Y-6540809D01*
X32559883Y-6560240D01*
X32618207Y-6571841D01*
X32636588Y-6575498D01*
X32636589Y-6575498D01*
X32636599Y-6575500D01*
X33863400Y-6575499D01*
X33940117Y-6560240D01*
X33986330Y-6529361D01*
X34005304Y-6516684D01*
X34060305Y-6500000D01*
X34700500Y-6500000D01*
X34758691Y-6518907D01*
X34794655Y-6568407D01*
X34799500Y-6599000D01*
X34799500Y-8401000D01*
X34780593Y-8459191D01*
X34731093Y-8495155D01*
X34700500Y-8500000D01*
X34060305Y-8500000D01*
X34005304Y-8483316D01*
X33940119Y-8439761D01*
X33940117Y-8439760D01*
X33940114Y-8439759D01*
X33940113Y-8439759D01*
X33863411Y-8424501D01*
X33863402Y-8424500D01*
X33863401Y-8424500D01*
X33863399Y-8424500D01*
X32636602Y-8424500D01*
X32636595Y-8424501D01*
X32559883Y-8439759D01*
X32559882Y-8439760D01*
X32494696Y-8483316D01*
X32439695Y-8500000D01*
X31599000Y-8500000D01*
X31540809Y-8481093D01*
X31504845Y-8431593D01*
X31500000Y-8401000D01*
X31500000Y-6599000D01*
X31518907Y-6540809D01*
X31568407Y-6504845D01*
X31599000Y-6500000D01*
X32439695Y-6500000D01*
X32494696Y-6516684D01*
G37*
%TD.AperFunction*%
%TD*%
%TA.AperFunction,Conductor*%
%TO.N,/BATT_TERM*%
G36*
X4158691Y-20018907D02*
G01*
X4194655Y-20068407D01*
X4199500Y-20099000D01*
X4199500Y-22498941D01*
X4197280Y-22512619D01*
X4198494Y-22512789D01*
X4197226Y-22521872D01*
X4199447Y-22569889D01*
X4199500Y-22572175D01*
X4199500Y-22591948D01*
X4200152Y-22595438D01*
X4200943Y-22602255D01*
X4202414Y-22634093D01*
X4202415Y-22634100D01*
X4206384Y-22643088D01*
X4213133Y-22664879D01*
X4214939Y-22674539D01*
X4231717Y-22701639D01*
X4234915Y-22707706D01*
X4247793Y-22736869D01*
X4247794Y-22736871D01*
X4254745Y-22743822D01*
X4268907Y-22761702D01*
X4274081Y-22770058D01*
X4299511Y-22789262D01*
X4304690Y-22793768D01*
X4471004Y-22960081D01*
X4498781Y-23014598D01*
X4500000Y-23030085D01*
X4499999Y-23662810D01*
X4481092Y-23721001D01*
X4445947Y-23751018D01*
X4418713Y-23764895D01*
X4329002Y-23854606D01*
X4271408Y-23967639D01*
X4271407Y-23967643D01*
X4251561Y-24092946D01*
X4251561Y-24092947D01*
X4271407Y-24218250D01*
X4271408Y-24218254D01*
X4326997Y-24327353D01*
X4329003Y-24331289D01*
X4418711Y-24420997D01*
X4445945Y-24434873D01*
X4489209Y-24478136D01*
X4500000Y-24523082D01*
X4500000Y-26162810D01*
X4481093Y-26221001D01*
X4445947Y-26251019D01*
X4418712Y-26264896D01*
X4329002Y-26354606D01*
X4271408Y-26467639D01*
X4271407Y-26467643D01*
X4251561Y-26592946D01*
X4251561Y-26592947D01*
X4271407Y-26718250D01*
X4271408Y-26718254D01*
X4326997Y-26827353D01*
X4329003Y-26831289D01*
X4418711Y-26920997D01*
X4445945Y-26934873D01*
X4489209Y-26978136D01*
X4500000Y-27023082D01*
X4500000Y-27694601D01*
X4481093Y-27752792D01*
X4431593Y-27788756D01*
X4370407Y-27788756D01*
X4330996Y-27764605D01*
X4328051Y-27761660D01*
X4328050Y-27761658D01*
X4238342Y-27671950D01*
X4234406Y-27669944D01*
X4125307Y-27614355D01*
X4125304Y-27614354D01*
X4000000Y-27594508D01*
X3874696Y-27614354D01*
X3874692Y-27614355D01*
X3761659Y-27671949D01*
X3671949Y-27761659D01*
X3614355Y-27874692D01*
X3614354Y-27874696D01*
X3594508Y-27999999D01*
X3594508Y-28000000D01*
X3614354Y-28125303D01*
X3614355Y-28125307D01*
X3656295Y-28207618D01*
X3671950Y-28238342D01*
X3761658Y-28328050D01*
X3874696Y-28385646D01*
X3934935Y-28395186D01*
X3989451Y-28422963D01*
X4017229Y-28477479D01*
X4007658Y-28537911D01*
X3964394Y-28581176D01*
X3958363Y-28583998D01*
X3947616Y-28588591D01*
X3898118Y-28624555D01*
X3870372Y-28648797D01*
X3823464Y-28727307D01*
X3823462Y-28727310D01*
X3804556Y-28785499D01*
X3794500Y-28848996D01*
X3794500Y-30061781D01*
X3795000Y-30075538D01*
X3795000Y-30400996D01*
X3797530Y-30433142D01*
X3797530Y-30433143D01*
X3802375Y-30463738D01*
X3803147Y-30468284D01*
X3803147Y-30468286D01*
X3839091Y-30552383D01*
X3839092Y-30552385D01*
X3849455Y-30566648D01*
X3868362Y-30624839D01*
X3854349Y-30675615D01*
X3823463Y-30727309D01*
X3823462Y-30727310D01*
X3804556Y-30785499D01*
X3794499Y-30848996D01*
X3794500Y-32375941D01*
X3794500Y-32401000D01*
X3797030Y-32433142D01*
X3797030Y-32433143D01*
X3801875Y-32463738D01*
X3802647Y-32468284D01*
X3802647Y-32468286D01*
X3838591Y-32552382D01*
X3838592Y-32552383D01*
X3874556Y-32601883D01*
X3898797Y-32629628D01*
X3977307Y-32676536D01*
X4035498Y-32695443D01*
X4047552Y-32697352D01*
X4098996Y-32705500D01*
X4401000Y-32705500D01*
X4459191Y-32724407D01*
X4495155Y-32773907D01*
X4500000Y-32804500D01*
X4500000Y-34700500D01*
X4481093Y-34758691D01*
X4431593Y-34794655D01*
X4401000Y-34799500D01*
X2624058Y-34799500D01*
X2565867Y-34780593D01*
X2554054Y-34770504D01*
X229496Y-32445945D01*
X201719Y-32391428D01*
X200500Y-32375941D01*
X200500Y-20099000D01*
X219407Y-20040809D01*
X268907Y-20004845D01*
X299500Y-20000000D01*
X4100500Y-20000000D01*
X4158691Y-20018907D01*
G37*
%TD.AperFunction*%
%TD*%
%TA.AperFunction,Conductor*%
%TO.N,-BATT*%
G36*
X3017183Y-16518907D02*
G01*
X3028996Y-16528996D01*
X3971004Y-17471004D01*
X3998781Y-17525521D01*
X4000000Y-17541008D01*
X4000000Y-19401000D01*
X3981093Y-19459191D01*
X3931593Y-19495155D01*
X3901000Y-19500000D01*
X299500Y-19500000D01*
X241309Y-19481093D01*
X205345Y-19431593D01*
X200500Y-19401000D01*
X200500Y-16599000D01*
X219407Y-16540809D01*
X268907Y-16504845D01*
X299500Y-16500000D01*
X2958992Y-16500000D01*
X3017183Y-16518907D01*
G37*
%TD.AperFunction*%
%TD*%
%TA.AperFunction,Conductor*%
%TO.N,+BATT*%
G36*
X6459191Y-30768907D02*
G01*
X6495155Y-30818407D01*
X6500000Y-30849000D01*
X6500000Y-32401000D01*
X6481093Y-32459191D01*
X6431593Y-32495155D01*
X6401000Y-32500000D01*
X4099000Y-32500000D01*
X4040809Y-32481093D01*
X4004845Y-32431593D01*
X4000000Y-32401000D01*
X4000000Y-30849000D01*
X4018907Y-30790809D01*
X4068407Y-30754845D01*
X4099000Y-30750000D01*
X6401000Y-30750000D01*
X6459191Y-30768907D01*
G37*
%TD.AperFunction*%
%TD*%
%TA.AperFunction,Conductor*%
%TO.N,-BATT*%
G36*
X6459191Y-28768907D02*
G01*
X6495155Y-28818407D01*
X6500000Y-28849000D01*
X6500000Y-30401000D01*
X6481093Y-30459191D01*
X6431593Y-30495155D01*
X6401000Y-30500000D01*
X4099500Y-30500000D01*
X4041309Y-30481093D01*
X4005345Y-30431593D01*
X4000500Y-30401000D01*
X4000500Y-30066739D01*
X4000130Y-30061631D01*
X4000000Y-30058051D01*
X4000000Y-28849000D01*
X4018907Y-28790809D01*
X4068407Y-28754845D01*
X4099000Y-28750000D01*
X6401000Y-28750000D01*
X6459191Y-28768907D01*
G37*
%TD.AperFunction*%
%TD*%
M02*
