%TF.GenerationSoftware,KiCad,Pcbnew,7.0.8*%
%TF.CreationDate,2023-11-08T20:06:37+10:00*%
%TF.ProjectId,LEDBoard,4c454442-6f61-4726-942e-6b696361645f,rev?*%
%TF.SameCoordinates,Original*%
%TF.FileFunction,Copper,L3,Inr*%
%TF.FilePolarity,Positive*%
%FSLAX46Y46*%
G04 Gerber Fmt 4.6, Leading zero omitted, Abs format (unit mm)*
G04 Created by KiCad (PCBNEW 7.0.8) date 2023-11-08 20:06:37*
%MOMM*%
%LPD*%
G01*
G04 APERTURE LIST*
%TA.AperFunction,ViaPad*%
%ADD10C,0.450000*%
%TD*%
%TA.AperFunction,Conductor*%
%ADD11C,0.200000*%
%TD*%
G04 APERTURE END LIST*
D10*
%TO.N,/LED1*%
X32157053Y-3407053D03*
%TO.N,-BATT*%
X26250000Y-4000000D03*
X32000000Y-8000000D03*
X5400000Y-30000000D03*
X1750000Y-10250000D03*
X32150000Y-24500000D03*
X750000Y-17000000D03*
X33000000Y-23250000D03*
X33000000Y-25750000D03*
X2250000Y-17000000D03*
X8500000Y-3750000D03*
X31250000Y-25750000D03*
X32000000Y-7000000D03*
X6250000Y-29250000D03*
X31250000Y-23250000D03*
X34500000Y-8000000D03*
X4500000Y-30000000D03*
X32100000Y-18725000D03*
X5275000Y-33500000D03*
X32100000Y-16275000D03*
X1500000Y-17000000D03*
X1750000Y-3000000D03*
X32842947Y-30907053D03*
X34500000Y-7000000D03*
%TO.N,/LED0*%
X25240000Y-3000000D03*
%TO.N,/LED2*%
X21750000Y-30750000D03*
%TO.N,/LED Array/COL0*%
X4000000Y-28000000D03*
X4657053Y-24092947D03*
X4657053Y-26592947D03*
X5750000Y-4500000D03*
%TO.N,/LED Array/ROW0*%
X5750000Y-5250000D03*
%TO.N,/LED Array/COL1*%
X7157053Y-26592947D03*
X7157053Y-14092947D03*
X7157053Y-21592947D03*
X7157053Y-29092947D03*
X6250000Y-9750000D03*
X7157053Y-16592947D03*
X7157053Y-24092947D03*
X7157053Y-19092947D03*
X7157053Y-11592947D03*
%TO.N,/LED Array/COL2*%
X9657053Y-16592947D03*
X9657053Y-24092947D03*
X9657053Y-9092947D03*
X9657053Y-21592947D03*
X9657053Y-26592947D03*
X9657053Y-14092947D03*
X9657053Y-11592947D03*
X9657053Y-29092947D03*
X11000000Y-6750000D03*
X9657053Y-19092947D03*
%TO.N,/LED Array/COL3*%
X12157053Y-26592947D03*
X12157053Y-29092947D03*
X12157053Y-14092947D03*
X12157053Y-11592947D03*
X12157053Y-19092947D03*
X12157053Y-21592947D03*
X12157053Y-16592947D03*
X12157053Y-6592947D03*
X12157053Y-9092947D03*
X12157053Y-24092947D03*
%TO.N,/LED Array/COL4*%
X14657053Y-26592947D03*
X14657053Y-29092947D03*
X14657053Y-19092947D03*
X14657053Y-6592947D03*
X14657053Y-11592947D03*
X14657053Y-24092947D03*
X14657053Y-16592947D03*
X14657053Y-9092947D03*
X14657053Y-21592947D03*
X14657053Y-14092947D03*
%TO.N,/LED Array/COL5*%
X17157053Y-19092947D03*
X17157053Y-29092947D03*
X17157053Y-21592947D03*
X17157053Y-6592947D03*
X17157053Y-24092947D03*
X17157053Y-16592947D03*
X17157053Y-14092947D03*
X17157053Y-11592947D03*
X17157053Y-9092947D03*
X17157053Y-26592947D03*
%TO.N,/LED Array/COL6*%
X19657053Y-26592947D03*
X19657053Y-29092947D03*
X19657053Y-9092947D03*
X19657053Y-6592947D03*
X19657053Y-24092947D03*
X19657053Y-19092947D03*
X19657053Y-14092947D03*
X19657053Y-16592947D03*
X19657053Y-21592947D03*
X19657053Y-11592947D03*
%TO.N,/LED Array/COL7*%
X22157053Y-19092947D03*
X22157053Y-14092947D03*
X22157053Y-24092947D03*
X22157053Y-6592947D03*
X22157053Y-26592947D03*
X22157053Y-9092947D03*
X22157053Y-21592947D03*
X22157053Y-11592947D03*
X22157053Y-29092947D03*
X22157053Y-16592947D03*
%TO.N,/LED Array/COL8*%
X24657053Y-29092947D03*
X24657053Y-11592947D03*
X24657053Y-26592947D03*
X24657053Y-21592947D03*
X24657053Y-16592947D03*
X24657053Y-9092947D03*
X24657053Y-24092947D03*
X24657053Y-6592947D03*
X24657053Y-19092947D03*
X24657053Y-14092947D03*
%TO.N,/LED Array/COL9*%
X27157053Y-16592947D03*
X27157053Y-21592947D03*
X27157053Y-24092947D03*
X27157053Y-26592947D03*
X27157053Y-14092947D03*
X27157053Y-19092947D03*
X27157053Y-29092947D03*
X25500000Y-7500000D03*
X27000000Y-10000000D03*
X27157053Y-11592947D03*
%TO.N,/LED Array/COL10*%
X29657053Y-24092947D03*
X29657053Y-11592947D03*
X23000000Y-4750000D03*
X29657053Y-14092947D03*
X29657053Y-29092947D03*
X29657053Y-21592947D03*
X29657053Y-26592947D03*
X29250000Y-7750000D03*
X29657053Y-16592947D03*
X29657053Y-19092947D03*
X29000000Y-9750000D03*
%TO.N,/LED Array/ROW1*%
X5750000Y-9000000D03*
%TO.N,/LED Array/ROW2*%
X5342947Y-10907053D03*
%TO.N,/LED Array/ROW3*%
X5342947Y-13407053D03*
%TO.N,/LED Array/ROW4*%
X5342947Y-15907053D03*
%TO.N,/LED Array/ROW5*%
X5342947Y-18407053D03*
%TO.N,/LED Array/ROW6*%
X5342947Y-20907053D03*
%TO.N,/LED Array/ROW7*%
X5342947Y-23407053D03*
%TO.N,/LED Array/ROW8*%
X500000Y-8250000D03*
%TO.N,/LED Array/ROW9*%
X750000Y-10000000D03*
%TO.N,+BATT*%
X32000000Y-5000000D03*
X32000000Y-6000000D03*
X6250000Y-31250000D03*
X4500000Y-32000000D03*
X34500000Y-5000000D03*
X31510000Y-13500000D03*
X5400000Y-32000000D03*
X34500000Y-6000000D03*
%TO.N,/LED3*%
X27842947Y-31592947D03*
%TD*%
D11*
%TO.N,/LED Array/COL9*%
X27000000Y-9000000D02*
X27000000Y-10000000D01*
X25500000Y-7500000D02*
X27000000Y-9000000D01*
%TO.N,/LED Array/COL0*%
X4000000Y-28000000D02*
X4657053Y-27342947D01*
X4657053Y-27342947D02*
X4657053Y-24092947D01*
%TO.N,/LED Array/COL1*%
X7157053Y-11592947D02*
X7157053Y-29092947D01*
%TO.N,/LED Array/COL2*%
X11000000Y-7750000D02*
X9657053Y-9092947D01*
X11000000Y-6750000D02*
X11000000Y-7750000D01*
X9657053Y-9092947D02*
X9657053Y-29092947D01*
%TO.N,/LED Array/COL3*%
X12157053Y-6592947D02*
X12157053Y-29092947D01*
%TO.N,/LED Array/COL4*%
X14657053Y-29092947D02*
X14657053Y-6592947D01*
%TO.N,/LED Array/COL5*%
X17157053Y-29092947D02*
X17157053Y-6592947D01*
%TO.N,/LED Array/COL6*%
X19657053Y-29092947D02*
X19657053Y-6592947D01*
%TO.N,/LED Array/COL7*%
X22157053Y-29092947D02*
X22157053Y-6592947D01*
%TO.N,/LED Array/COL8*%
X24657053Y-29092947D02*
X24657053Y-6592947D01*
%TO.N,/LED Array/COL9*%
X27000000Y-11435894D02*
X27157053Y-11592947D01*
X27157053Y-11592947D02*
X27157053Y-29092947D01*
X27000000Y-10000000D02*
X27000000Y-11435894D01*
%TO.N,/LED Array/COL10*%
X29657053Y-11592947D02*
X29657053Y-29092947D01*
X29250000Y-7750000D02*
X29250000Y-9500000D01*
X26250000Y-4750000D02*
X29250000Y-7750000D01*
X29000000Y-9750000D02*
X29000000Y-10935894D01*
X23000000Y-4750000D02*
X26250000Y-4750000D01*
X29000000Y-10935894D02*
X29657053Y-11592947D01*
X29250000Y-9500000D02*
X29000000Y-9750000D01*
%TD*%
%TA.AperFunction,Conductor*%
%TO.N,+BATT*%
G36*
X32434134Y-219407D02*
G01*
X32445947Y-229496D01*
X34770504Y-2554053D01*
X34798281Y-2608570D01*
X34799500Y-2624057D01*
X34799500Y-6513499D01*
X34780593Y-6571690D01*
X34731093Y-6607654D01*
X34669907Y-6607654D01*
X34655556Y-6601709D01*
X34633127Y-6590281D01*
X34500000Y-6569196D01*
X34366872Y-6590281D01*
X34366870Y-6590282D01*
X34246782Y-6651470D01*
X34151470Y-6746782D01*
X34090282Y-6866870D01*
X34090281Y-6866872D01*
X34069196Y-6999999D01*
X34069196Y-7000000D01*
X34090281Y-7133127D01*
X34090282Y-7133129D01*
X34151470Y-7253217D01*
X34151472Y-7253220D01*
X34246780Y-7348528D01*
X34282778Y-7366870D01*
X34370939Y-7411791D01*
X34414203Y-7455056D01*
X34423774Y-7515488D01*
X34395996Y-7570004D01*
X34370939Y-7588209D01*
X34246781Y-7651471D01*
X34151470Y-7746782D01*
X34090282Y-7866870D01*
X34090281Y-7866872D01*
X34069196Y-7999999D01*
X34069196Y-8000000D01*
X34090281Y-8133127D01*
X34090282Y-8133129D01*
X34149831Y-8250000D01*
X34151472Y-8253220D01*
X34246780Y-8348528D01*
X34366874Y-8409719D01*
X34500000Y-8430804D01*
X34633126Y-8409719D01*
X34655555Y-8398290D01*
X34715985Y-8388719D01*
X34770502Y-8416495D01*
X34798281Y-8471011D01*
X34799500Y-8486500D01*
X34799500Y-32375942D01*
X34780593Y-32434133D01*
X34770504Y-32445946D01*
X32445947Y-34770504D01*
X32391430Y-34798281D01*
X32375943Y-34799500D01*
X18766737Y-34799500D01*
X18708546Y-34780593D01*
X18672582Y-34731093D01*
X18669241Y-34717691D01*
X18664024Y-34688101D01*
X18592179Y-34490709D01*
X18592176Y-34490703D01*
X18592175Y-34490700D01*
X18521339Y-34368011D01*
X18487149Y-34308791D01*
X18486161Y-34307613D01*
X18352131Y-34147884D01*
X18352129Y-34147882D01*
X18352124Y-34147876D01*
X18352117Y-34147870D01*
X18352115Y-34147868D01*
X18191214Y-34012855D01*
X18191212Y-34012853D01*
X18191209Y-34012851D01*
X18175339Y-34003688D01*
X18009299Y-33907824D01*
X18009296Y-33907823D01*
X18009291Y-33907821D01*
X17811899Y-33835976D01*
X17770525Y-33828680D01*
X17605034Y-33799500D01*
X17605030Y-33799500D01*
X17394970Y-33799500D01*
X17394965Y-33799500D01*
X17188101Y-33835976D01*
X16990703Y-33907823D01*
X16990700Y-33907824D01*
X16808792Y-34012850D01*
X16808785Y-34012855D01*
X16647884Y-34147868D01*
X16647868Y-34147884D01*
X16512855Y-34308785D01*
X16512850Y-34308792D01*
X16407824Y-34490700D01*
X16407823Y-34490703D01*
X16335976Y-34688101D01*
X16330759Y-34717691D01*
X16302034Y-34771714D01*
X16247042Y-34798536D01*
X16233263Y-34799500D01*
X2624058Y-34799500D01*
X2565867Y-34780593D01*
X2554054Y-34770504D01*
X1283550Y-33500000D01*
X4844196Y-33500000D01*
X4865281Y-33633127D01*
X4865282Y-33633129D01*
X4926470Y-33753217D01*
X4926472Y-33753220D01*
X5021780Y-33848528D01*
X5141874Y-33909719D01*
X5275000Y-33930804D01*
X5408126Y-33909719D01*
X5528220Y-33848528D01*
X5623528Y-33753220D01*
X5684719Y-33633126D01*
X5705804Y-33500000D01*
X5684719Y-33366874D01*
X5623528Y-33246780D01*
X5528220Y-33151472D01*
X5528217Y-33151470D01*
X5408129Y-33090282D01*
X5408127Y-33090281D01*
X5275000Y-33069196D01*
X5141872Y-33090281D01*
X5141870Y-33090282D01*
X5021782Y-33151470D01*
X4926470Y-33246782D01*
X4865282Y-33366870D01*
X4865281Y-33366872D01*
X4844196Y-33499999D01*
X4844196Y-33500000D01*
X1283550Y-33500000D01*
X229496Y-32445946D01*
X201719Y-32391429D01*
X200500Y-32375942D01*
X200500Y-31592947D01*
X27412143Y-31592947D01*
X27433228Y-31726074D01*
X27433229Y-31726076D01*
X27494417Y-31846164D01*
X27494419Y-31846167D01*
X27589727Y-31941475D01*
X27709821Y-32002666D01*
X27842947Y-32023751D01*
X27976073Y-32002666D01*
X28096167Y-31941475D01*
X28191475Y-31846167D01*
X28252666Y-31726073D01*
X28273751Y-31592947D01*
X28252666Y-31459821D01*
X28191475Y-31339727D01*
X28096167Y-31244419D01*
X28096164Y-31244417D01*
X27976076Y-31183229D01*
X27976074Y-31183228D01*
X27842947Y-31162143D01*
X27709819Y-31183228D01*
X27709817Y-31183229D01*
X27589729Y-31244417D01*
X27494417Y-31339729D01*
X27433229Y-31459817D01*
X27433228Y-31459819D01*
X27412143Y-31592946D01*
X27412143Y-31592947D01*
X200500Y-31592947D01*
X200500Y-30750000D01*
X21319196Y-30750000D01*
X21340281Y-30883127D01*
X21340282Y-30883129D01*
X21352472Y-30907053D01*
X21401472Y-31003220D01*
X21496780Y-31098528D01*
X21616874Y-31159719D01*
X21750000Y-31180804D01*
X21883126Y-31159719D01*
X22003220Y-31098528D01*
X22098528Y-31003220D01*
X22147528Y-30907053D01*
X32412143Y-30907053D01*
X32433228Y-31040180D01*
X32433229Y-31040182D01*
X32494417Y-31160270D01*
X32494419Y-31160273D01*
X32589727Y-31255581D01*
X32709821Y-31316772D01*
X32842947Y-31337857D01*
X32976073Y-31316772D01*
X33096167Y-31255581D01*
X33191475Y-31160273D01*
X33252666Y-31040179D01*
X33273751Y-30907053D01*
X33252666Y-30773927D01*
X33191475Y-30653833D01*
X33096167Y-30558525D01*
X33096164Y-30558523D01*
X32976076Y-30497335D01*
X32976074Y-30497334D01*
X32842947Y-30476249D01*
X32709819Y-30497334D01*
X32709817Y-30497335D01*
X32589729Y-30558523D01*
X32494417Y-30653835D01*
X32433229Y-30773923D01*
X32433228Y-30773925D01*
X32412143Y-30907052D01*
X32412143Y-30907053D01*
X22147528Y-30907053D01*
X22159719Y-30883126D01*
X22180804Y-30750000D01*
X22159719Y-30616874D01*
X22098528Y-30496780D01*
X22003220Y-30401472D01*
X22003217Y-30401470D01*
X21883129Y-30340282D01*
X21883127Y-30340281D01*
X21750000Y-30319196D01*
X21616872Y-30340281D01*
X21616870Y-30340282D01*
X21496782Y-30401470D01*
X21401470Y-30496782D01*
X21340282Y-30616870D01*
X21340281Y-30616872D01*
X21319196Y-30749999D01*
X21319196Y-30750000D01*
X200500Y-30750000D01*
X200500Y-30000000D01*
X4069196Y-30000000D01*
X4090281Y-30133127D01*
X4090282Y-30133129D01*
X4138209Y-30227190D01*
X4151472Y-30253220D01*
X4246780Y-30348528D01*
X4366874Y-30409719D01*
X4500000Y-30430804D01*
X4633126Y-30409719D01*
X4753220Y-30348528D01*
X4848528Y-30253220D01*
X4861791Y-30227188D01*
X4905055Y-30183925D01*
X4965487Y-30174354D01*
X5020003Y-30202131D01*
X5038206Y-30227185D01*
X5051472Y-30253220D01*
X5146780Y-30348528D01*
X5266874Y-30409719D01*
X5400000Y-30430804D01*
X5533126Y-30409719D01*
X5653220Y-30348528D01*
X5748528Y-30253220D01*
X5809719Y-30133126D01*
X5830804Y-30000000D01*
X5809719Y-29866874D01*
X5748528Y-29746780D01*
X5653220Y-29651472D01*
X5653217Y-29651470D01*
X5533129Y-29590282D01*
X5533127Y-29590281D01*
X5400000Y-29569196D01*
X5266872Y-29590281D01*
X5266870Y-29590282D01*
X5146782Y-29651470D01*
X5051471Y-29746781D01*
X5038209Y-29772810D01*
X4994944Y-29816074D01*
X4934512Y-29825645D01*
X4879996Y-29797867D01*
X4861791Y-29772810D01*
X4848529Y-29746782D01*
X4848528Y-29746780D01*
X4753220Y-29651472D01*
X4753217Y-29651470D01*
X4633129Y-29590282D01*
X4633127Y-29590281D01*
X4500000Y-29569196D01*
X4366872Y-29590281D01*
X4366870Y-29590282D01*
X4246782Y-29651470D01*
X4151470Y-29746782D01*
X4090282Y-29866870D01*
X4090281Y-29866872D01*
X4069196Y-29999999D01*
X4069196Y-30000000D01*
X200500Y-30000000D01*
X200500Y-29250000D01*
X5819196Y-29250000D01*
X5840281Y-29383127D01*
X5840282Y-29383129D01*
X5901470Y-29503217D01*
X5901472Y-29503220D01*
X5996780Y-29598528D01*
X6116874Y-29659719D01*
X6250000Y-29680804D01*
X6383126Y-29659719D01*
X6503220Y-29598528D01*
X6598528Y-29503220D01*
X6659719Y-29383126D01*
X6659719Y-29383123D01*
X6660560Y-29381474D01*
X6703825Y-29338209D01*
X6764257Y-29328638D01*
X6818771Y-29356413D01*
X6903833Y-29441475D01*
X7023927Y-29502666D01*
X7157053Y-29523751D01*
X7290179Y-29502666D01*
X7410273Y-29441475D01*
X7505581Y-29346167D01*
X7566772Y-29226073D01*
X7587857Y-29092947D01*
X9226249Y-29092947D01*
X9247334Y-29226074D01*
X9247335Y-29226076D01*
X9304470Y-29338209D01*
X9308525Y-29346167D01*
X9403833Y-29441475D01*
X9523927Y-29502666D01*
X9657053Y-29523751D01*
X9790179Y-29502666D01*
X9910273Y-29441475D01*
X10005581Y-29346167D01*
X10066772Y-29226073D01*
X10087857Y-29092947D01*
X11726249Y-29092947D01*
X11747334Y-29226074D01*
X11747335Y-29226076D01*
X11804470Y-29338209D01*
X11808525Y-29346167D01*
X11903833Y-29441475D01*
X12023927Y-29502666D01*
X12157053Y-29523751D01*
X12290179Y-29502666D01*
X12410273Y-29441475D01*
X12505581Y-29346167D01*
X12566772Y-29226073D01*
X12587857Y-29092947D01*
X14226249Y-29092947D01*
X14247334Y-29226074D01*
X14247335Y-29226076D01*
X14304470Y-29338209D01*
X14308525Y-29346167D01*
X14403833Y-29441475D01*
X14523927Y-29502666D01*
X14657053Y-29523751D01*
X14790179Y-29502666D01*
X14910273Y-29441475D01*
X15005581Y-29346167D01*
X15066772Y-29226073D01*
X15087857Y-29092947D01*
X16726249Y-29092947D01*
X16747334Y-29226074D01*
X16747335Y-29226076D01*
X16804470Y-29338209D01*
X16808525Y-29346167D01*
X16903833Y-29441475D01*
X17023927Y-29502666D01*
X17157053Y-29523751D01*
X17290179Y-29502666D01*
X17410273Y-29441475D01*
X17505581Y-29346167D01*
X17566772Y-29226073D01*
X17587857Y-29092947D01*
X19226249Y-29092947D01*
X19247334Y-29226074D01*
X19247335Y-29226076D01*
X19304470Y-29338209D01*
X19308525Y-29346167D01*
X19403833Y-29441475D01*
X19523927Y-29502666D01*
X19657053Y-29523751D01*
X19790179Y-29502666D01*
X19910273Y-29441475D01*
X20005581Y-29346167D01*
X20066772Y-29226073D01*
X20087857Y-29092947D01*
X21726249Y-29092947D01*
X21747334Y-29226074D01*
X21747335Y-29226076D01*
X21804470Y-29338209D01*
X21808525Y-29346167D01*
X21903833Y-29441475D01*
X22023927Y-29502666D01*
X22157053Y-29523751D01*
X22290179Y-29502666D01*
X22410273Y-29441475D01*
X22505581Y-29346167D01*
X22566772Y-29226073D01*
X22587857Y-29092947D01*
X24226249Y-29092947D01*
X24247334Y-29226074D01*
X24247335Y-29226076D01*
X24304470Y-29338209D01*
X24308525Y-29346167D01*
X24403833Y-29441475D01*
X24523927Y-29502666D01*
X24657053Y-29523751D01*
X24790179Y-29502666D01*
X24910273Y-29441475D01*
X25005581Y-29346167D01*
X25066772Y-29226073D01*
X25087857Y-29092947D01*
X25066772Y-28959821D01*
X25005581Y-28839727D01*
X25005578Y-28839724D01*
X24986548Y-28820693D01*
X24958772Y-28766176D01*
X24957553Y-28750691D01*
X24957553Y-26935202D01*
X24976460Y-26877011D01*
X24986543Y-26865204D01*
X25005581Y-26846167D01*
X25066772Y-26726073D01*
X25087857Y-26592947D01*
X25066772Y-26459821D01*
X25005581Y-26339727D01*
X25005578Y-26339724D01*
X24986548Y-26320693D01*
X24958772Y-26266176D01*
X24957553Y-26250691D01*
X24957553Y-24435202D01*
X24976460Y-24377011D01*
X24986543Y-24365204D01*
X25005581Y-24346167D01*
X25066772Y-24226073D01*
X25087857Y-24092947D01*
X25066772Y-23959821D01*
X25005581Y-23839727D01*
X25003711Y-23837857D01*
X24986548Y-23820693D01*
X24958772Y-23766176D01*
X24957553Y-23750691D01*
X24957553Y-21935202D01*
X24976460Y-21877011D01*
X24986543Y-21865204D01*
X25005581Y-21846167D01*
X25066772Y-21726073D01*
X25087857Y-21592947D01*
X25066772Y-21459821D01*
X25005581Y-21339727D01*
X25003711Y-21337857D01*
X24986548Y-21320693D01*
X24958772Y-21266176D01*
X24957553Y-21250691D01*
X24957553Y-19435202D01*
X24976460Y-19377011D01*
X24986543Y-19365204D01*
X25005581Y-19346167D01*
X25066772Y-19226073D01*
X25087857Y-19092947D01*
X25066772Y-18959821D01*
X25005581Y-18839727D01*
X25003711Y-18837857D01*
X24986548Y-18820693D01*
X24958772Y-18766176D01*
X24957553Y-18750691D01*
X24957553Y-16935202D01*
X24976460Y-16877011D01*
X24986543Y-16865204D01*
X25005581Y-16846167D01*
X25066772Y-16726073D01*
X25087857Y-16592947D01*
X25066772Y-16459821D01*
X25005581Y-16339727D01*
X25003711Y-16337857D01*
X24986548Y-16320693D01*
X24958772Y-16266176D01*
X24957553Y-16250691D01*
X24957553Y-14435202D01*
X24976460Y-14377011D01*
X24986543Y-14365204D01*
X25005581Y-14346167D01*
X25066772Y-14226073D01*
X25087857Y-14092947D01*
X25066772Y-13959821D01*
X25005581Y-13839727D01*
X25003711Y-13837857D01*
X24986548Y-13820693D01*
X24958772Y-13766176D01*
X24957553Y-13750691D01*
X24957553Y-11935202D01*
X24976460Y-11877011D01*
X24986543Y-11865204D01*
X25005581Y-11846167D01*
X25066772Y-11726073D01*
X25087857Y-11592947D01*
X25087059Y-11587911D01*
X25077156Y-11525382D01*
X25066772Y-11459821D01*
X25005581Y-11339727D01*
X25003711Y-11337857D01*
X24986548Y-11320693D01*
X24958772Y-11266176D01*
X24957553Y-11250691D01*
X24957553Y-9435202D01*
X24976460Y-9377011D01*
X24986543Y-9365204D01*
X25005581Y-9346167D01*
X25066772Y-9226073D01*
X25087857Y-9092947D01*
X25087059Y-9087911D01*
X25081292Y-9051495D01*
X25066772Y-8959821D01*
X25051580Y-8930006D01*
X25005582Y-8839729D01*
X25005581Y-8839727D01*
X25005578Y-8839724D01*
X24986548Y-8820693D01*
X24958772Y-8766176D01*
X24957553Y-8750691D01*
X24957553Y-7784996D01*
X24976460Y-7726805D01*
X25025960Y-7690841D01*
X25087146Y-7690841D01*
X25136646Y-7726805D01*
X25144757Y-7740041D01*
X25151472Y-7753220D01*
X25246780Y-7848528D01*
X25366874Y-7909719D01*
X25475159Y-7926869D01*
X25529674Y-7954646D01*
X25529675Y-7954646D01*
X26670504Y-9095475D01*
X26698281Y-9149992D01*
X26699500Y-9165479D01*
X26699500Y-9657744D01*
X26680593Y-9715935D01*
X26670505Y-9727746D01*
X26651474Y-9746777D01*
X26651470Y-9746782D01*
X26590282Y-9866870D01*
X26590281Y-9866872D01*
X26569196Y-9999999D01*
X26569196Y-10000000D01*
X26590281Y-10133127D01*
X26590282Y-10133129D01*
X26649831Y-10250000D01*
X26651472Y-10253220D01*
X26670505Y-10272253D01*
X26698281Y-10326768D01*
X26699500Y-10342255D01*
X26699500Y-11370729D01*
X26697280Y-11384407D01*
X26698494Y-11384577D01*
X26697226Y-11393660D01*
X26699447Y-11441677D01*
X26699500Y-11443963D01*
X26699500Y-11463736D01*
X26700152Y-11467226D01*
X26700943Y-11474043D01*
X26702414Y-11505881D01*
X26702415Y-11505888D01*
X26706384Y-11514876D01*
X26713132Y-11536666D01*
X26714937Y-11546322D01*
X26718253Y-11554881D01*
X26715747Y-11555851D01*
X26724152Y-11585391D01*
X26725030Y-11585252D01*
X26726182Y-11592525D01*
X26726249Y-11592761D01*
X26726249Y-11592948D01*
X26747334Y-11726074D01*
X26747335Y-11726076D01*
X26808523Y-11846164D01*
X26808525Y-11846167D01*
X26827558Y-11865200D01*
X26855334Y-11919715D01*
X26856553Y-11935202D01*
X26856553Y-13750691D01*
X26837646Y-13808882D01*
X26827558Y-13820693D01*
X26808527Y-13839724D01*
X26808523Y-13839729D01*
X26747335Y-13959817D01*
X26747334Y-13959819D01*
X26726249Y-14092946D01*
X26726249Y-14092947D01*
X26747334Y-14226074D01*
X26747335Y-14226076D01*
X26808523Y-14346164D01*
X26808525Y-14346167D01*
X26827558Y-14365200D01*
X26855334Y-14419715D01*
X26856553Y-14435202D01*
X26856553Y-16250691D01*
X26837646Y-16308882D01*
X26827558Y-16320693D01*
X26808527Y-16339724D01*
X26808523Y-16339729D01*
X26747335Y-16459817D01*
X26747334Y-16459819D01*
X26726249Y-16592946D01*
X26726249Y-16592947D01*
X26747334Y-16726074D01*
X26747335Y-16726076D01*
X26798568Y-16826626D01*
X26808525Y-16846167D01*
X26827558Y-16865200D01*
X26855334Y-16919715D01*
X26856553Y-16935202D01*
X26856553Y-18750691D01*
X26837646Y-18808882D01*
X26827558Y-18820693D01*
X26808527Y-18839724D01*
X26808523Y-18839729D01*
X26747335Y-18959817D01*
X26747334Y-18959819D01*
X26726249Y-19092946D01*
X26726249Y-19092947D01*
X26747334Y-19226074D01*
X26747335Y-19226076D01*
X26808523Y-19346164D01*
X26808525Y-19346167D01*
X26827558Y-19365200D01*
X26855334Y-19419715D01*
X26856553Y-19435202D01*
X26856553Y-21250691D01*
X26837646Y-21308882D01*
X26827558Y-21320693D01*
X26808527Y-21339724D01*
X26808523Y-21339729D01*
X26747335Y-21459817D01*
X26747334Y-21459819D01*
X26726249Y-21592946D01*
X26726249Y-21592947D01*
X26747334Y-21726074D01*
X26747335Y-21726076D01*
X26808523Y-21846164D01*
X26808525Y-21846167D01*
X26827558Y-21865200D01*
X26855334Y-21919715D01*
X26856553Y-21935202D01*
X26856553Y-23750691D01*
X26837646Y-23808882D01*
X26827558Y-23820693D01*
X26808527Y-23839724D01*
X26808523Y-23839729D01*
X26747335Y-23959817D01*
X26747334Y-23959819D01*
X26726249Y-24092946D01*
X26726249Y-24092947D01*
X26747334Y-24226074D01*
X26747335Y-24226076D01*
X26808523Y-24346164D01*
X26808525Y-24346167D01*
X26827558Y-24365200D01*
X26855334Y-24419715D01*
X26856553Y-24435202D01*
X26856553Y-26250691D01*
X26837646Y-26308882D01*
X26827558Y-26320693D01*
X26808527Y-26339724D01*
X26808523Y-26339729D01*
X26747335Y-26459817D01*
X26747334Y-26459819D01*
X26726249Y-26592946D01*
X26726249Y-26592947D01*
X26747334Y-26726074D01*
X26747335Y-26726076D01*
X26808523Y-26846164D01*
X26808525Y-26846167D01*
X26827558Y-26865200D01*
X26855334Y-26919715D01*
X26856553Y-26935202D01*
X26856553Y-28750691D01*
X26837646Y-28808882D01*
X26827558Y-28820693D01*
X26808527Y-28839724D01*
X26808523Y-28839729D01*
X26747335Y-28959817D01*
X26747334Y-28959819D01*
X26726249Y-29092946D01*
X26726249Y-29092947D01*
X26747334Y-29226074D01*
X26747335Y-29226076D01*
X26804470Y-29338209D01*
X26808525Y-29346167D01*
X26903833Y-29441475D01*
X27023927Y-29502666D01*
X27157053Y-29523751D01*
X27290179Y-29502666D01*
X27410273Y-29441475D01*
X27505581Y-29346167D01*
X27566772Y-29226073D01*
X27587857Y-29092947D01*
X27566772Y-28959821D01*
X27505581Y-28839727D01*
X27505578Y-28839724D01*
X27486548Y-28820693D01*
X27458772Y-28766176D01*
X27457553Y-28750691D01*
X27457553Y-26935202D01*
X27476460Y-26877011D01*
X27486543Y-26865204D01*
X27505581Y-26846167D01*
X27566772Y-26726073D01*
X27587857Y-26592947D01*
X27566772Y-26459821D01*
X27505581Y-26339727D01*
X27505578Y-26339724D01*
X27486548Y-26320693D01*
X27458772Y-26266176D01*
X27457553Y-26250691D01*
X27457553Y-24435202D01*
X27476460Y-24377011D01*
X27486543Y-24365204D01*
X27505581Y-24346167D01*
X27566772Y-24226073D01*
X27587857Y-24092947D01*
X27566772Y-23959821D01*
X27505581Y-23839727D01*
X27503711Y-23837857D01*
X27486548Y-23820693D01*
X27458772Y-23766176D01*
X27457553Y-23750691D01*
X27457553Y-21935202D01*
X27476460Y-21877011D01*
X27486543Y-21865204D01*
X27505581Y-21846167D01*
X27566772Y-21726073D01*
X27587857Y-21592947D01*
X27566772Y-21459821D01*
X27505581Y-21339727D01*
X27503711Y-21337857D01*
X27486548Y-21320693D01*
X27458772Y-21266176D01*
X27457553Y-21250691D01*
X27457553Y-19435202D01*
X27476460Y-19377011D01*
X27486543Y-19365204D01*
X27505581Y-19346167D01*
X27566772Y-19226073D01*
X27587857Y-19092947D01*
X27566772Y-18959821D01*
X27505581Y-18839727D01*
X27503711Y-18837857D01*
X27486548Y-18820693D01*
X27458772Y-18766176D01*
X27457553Y-18750691D01*
X27457553Y-16935202D01*
X27476460Y-16877011D01*
X27486543Y-16865204D01*
X27505581Y-16846167D01*
X27566772Y-16726073D01*
X27587857Y-16592947D01*
X27566772Y-16459821D01*
X27505581Y-16339727D01*
X27503711Y-16337857D01*
X27486548Y-16320693D01*
X27458772Y-16266176D01*
X27457553Y-16250691D01*
X27457553Y-14435202D01*
X27476460Y-14377011D01*
X27486543Y-14365204D01*
X27505581Y-14346167D01*
X27566772Y-14226073D01*
X27587857Y-14092947D01*
X27566772Y-13959821D01*
X27505581Y-13839727D01*
X27503711Y-13837857D01*
X27486548Y-13820693D01*
X27458772Y-13766176D01*
X27457553Y-13750691D01*
X27457553Y-11935202D01*
X27476460Y-11877011D01*
X27486543Y-11865204D01*
X27505581Y-11846167D01*
X27566772Y-11726073D01*
X27587857Y-11592947D01*
X27587059Y-11587911D01*
X27577156Y-11525382D01*
X27566772Y-11459821D01*
X27505581Y-11339727D01*
X27410273Y-11244419D01*
X27410270Y-11244417D01*
X27410271Y-11244417D01*
X27354554Y-11216028D01*
X27311290Y-11172763D01*
X27300500Y-11127819D01*
X27300500Y-10342255D01*
X27319407Y-10284064D01*
X27329490Y-10272257D01*
X27348528Y-10253220D01*
X27409719Y-10133126D01*
X27430804Y-10000000D01*
X27409719Y-9866874D01*
X27348528Y-9746780D01*
X27345706Y-9743958D01*
X27329495Y-9727746D01*
X27301719Y-9673229D01*
X27300500Y-9657744D01*
X27300500Y-9065168D01*
X27302731Y-9051495D01*
X27301505Y-9051324D01*
X27302773Y-9042232D01*
X27301747Y-9020047D01*
X27300552Y-8994207D01*
X27300500Y-8991928D01*
X27300500Y-8972160D01*
X27300500Y-8972156D01*
X27299846Y-8968664D01*
X27299056Y-8961859D01*
X27297585Y-8930008D01*
X27293614Y-8921016D01*
X27286864Y-8899214D01*
X27285061Y-8889568D01*
X27285061Y-8889567D01*
X27268276Y-8862458D01*
X27265088Y-8856410D01*
X27252206Y-8827234D01*
X27252205Y-8827233D01*
X27252204Y-8827231D01*
X27245254Y-8820281D01*
X27231088Y-8802395D01*
X27225921Y-8794050D01*
X27225919Y-8794048D01*
X27200487Y-8774842D01*
X27195310Y-8770337D01*
X25954646Y-7529675D01*
X25926869Y-7475158D01*
X25909719Y-7366874D01*
X25848528Y-7246780D01*
X25753220Y-7151472D01*
X25753217Y-7151470D01*
X25633129Y-7090282D01*
X25633127Y-7090281D01*
X25500000Y-7069196D01*
X25366872Y-7090281D01*
X25366870Y-7090282D01*
X25246782Y-7151470D01*
X25151472Y-7246780D01*
X25144762Y-7259950D01*
X25101497Y-7303213D01*
X25041064Y-7312784D01*
X24986548Y-7285005D01*
X24958772Y-7230488D01*
X24957553Y-7215003D01*
X24957553Y-6935202D01*
X24976460Y-6877011D01*
X24986543Y-6865204D01*
X25005581Y-6846167D01*
X25066772Y-6726073D01*
X25087857Y-6592947D01*
X25066772Y-6459821D01*
X25005581Y-6339727D01*
X24910273Y-6244419D01*
X24910270Y-6244417D01*
X24790182Y-6183229D01*
X24790180Y-6183228D01*
X24657053Y-6162143D01*
X24523925Y-6183228D01*
X24523923Y-6183229D01*
X24403835Y-6244417D01*
X24308523Y-6339729D01*
X24247335Y-6459817D01*
X24247334Y-6459819D01*
X24226249Y-6592946D01*
X24226249Y-6592947D01*
X24247334Y-6726074D01*
X24247335Y-6726076D01*
X24259525Y-6750000D01*
X24308525Y-6846167D01*
X24327558Y-6865200D01*
X24355334Y-6919715D01*
X24356553Y-6935202D01*
X24356553Y-8750691D01*
X24337646Y-8808882D01*
X24327558Y-8820693D01*
X24308527Y-8839724D01*
X24308523Y-8839729D01*
X24247335Y-8959817D01*
X24247334Y-8959819D01*
X24226249Y-9092946D01*
X24226249Y-9092947D01*
X24247334Y-9226074D01*
X24247335Y-9226076D01*
X24305526Y-9340282D01*
X24308525Y-9346167D01*
X24327558Y-9365200D01*
X24355334Y-9419715D01*
X24356553Y-9435202D01*
X24356553Y-11250691D01*
X24337646Y-11308882D01*
X24327558Y-11320693D01*
X24308527Y-11339724D01*
X24308523Y-11339729D01*
X24247335Y-11459817D01*
X24247334Y-11459819D01*
X24226249Y-11592946D01*
X24226249Y-11592947D01*
X24247334Y-11726074D01*
X24247335Y-11726076D01*
X24308523Y-11846164D01*
X24308525Y-11846167D01*
X24327558Y-11865200D01*
X24355334Y-11919715D01*
X24356553Y-11935202D01*
X24356553Y-13750691D01*
X24337646Y-13808882D01*
X24327558Y-13820693D01*
X24308527Y-13839724D01*
X24308523Y-13839729D01*
X24247335Y-13959817D01*
X24247334Y-13959819D01*
X24226249Y-14092946D01*
X24226249Y-14092947D01*
X24247334Y-14226074D01*
X24247335Y-14226076D01*
X24308523Y-14346164D01*
X24308525Y-14346167D01*
X24327558Y-14365200D01*
X24355334Y-14419715D01*
X24356553Y-14435202D01*
X24356553Y-16250691D01*
X24337646Y-16308882D01*
X24327558Y-16320693D01*
X24308527Y-16339724D01*
X24308523Y-16339729D01*
X24247335Y-16459817D01*
X24247334Y-16459819D01*
X24226249Y-16592946D01*
X24226249Y-16592947D01*
X24247334Y-16726074D01*
X24247335Y-16726076D01*
X24298568Y-16826626D01*
X24308525Y-16846167D01*
X24327558Y-16865200D01*
X24355334Y-16919715D01*
X24356553Y-16935202D01*
X24356553Y-18750691D01*
X24337646Y-18808882D01*
X24327558Y-18820693D01*
X24308527Y-18839724D01*
X24308523Y-18839729D01*
X24247335Y-18959817D01*
X24247334Y-18959819D01*
X24226249Y-19092946D01*
X24226249Y-19092947D01*
X24247334Y-19226074D01*
X24247335Y-19226076D01*
X24308523Y-19346164D01*
X24308525Y-19346167D01*
X24327558Y-19365200D01*
X24355334Y-19419715D01*
X24356553Y-19435202D01*
X24356553Y-21250691D01*
X24337646Y-21308882D01*
X24327558Y-21320693D01*
X24308527Y-21339724D01*
X24308523Y-21339729D01*
X24247335Y-21459817D01*
X24247334Y-21459819D01*
X24226249Y-21592946D01*
X24226249Y-21592947D01*
X24247334Y-21726074D01*
X24247335Y-21726076D01*
X24308523Y-21846164D01*
X24308525Y-21846167D01*
X24327558Y-21865200D01*
X24355334Y-21919715D01*
X24356553Y-21935202D01*
X24356553Y-23750691D01*
X24337646Y-23808882D01*
X24327558Y-23820693D01*
X24308527Y-23839724D01*
X24308523Y-23839729D01*
X24247335Y-23959817D01*
X24247334Y-23959819D01*
X24226249Y-24092946D01*
X24226249Y-24092947D01*
X24247334Y-24226074D01*
X24247335Y-24226076D01*
X24308523Y-24346164D01*
X24308525Y-24346167D01*
X24327558Y-24365200D01*
X24355334Y-24419715D01*
X24356553Y-24435202D01*
X24356553Y-26250691D01*
X24337646Y-26308882D01*
X24327558Y-26320693D01*
X24308527Y-26339724D01*
X24308523Y-26339729D01*
X24247335Y-26459817D01*
X24247334Y-26459819D01*
X24226249Y-26592946D01*
X24226249Y-26592947D01*
X24247334Y-26726074D01*
X24247335Y-26726076D01*
X24308523Y-26846164D01*
X24308525Y-26846167D01*
X24327558Y-26865200D01*
X24355334Y-26919715D01*
X24356553Y-26935202D01*
X24356553Y-28750691D01*
X24337646Y-28808882D01*
X24327558Y-28820693D01*
X24308527Y-28839724D01*
X24308523Y-28839729D01*
X24247335Y-28959817D01*
X24247334Y-28959819D01*
X24226249Y-29092946D01*
X24226249Y-29092947D01*
X22587857Y-29092947D01*
X22566772Y-28959821D01*
X22505581Y-28839727D01*
X22505578Y-28839724D01*
X22486548Y-28820693D01*
X22458772Y-28766176D01*
X22457553Y-28750691D01*
X22457553Y-26935202D01*
X22476460Y-26877011D01*
X22486543Y-26865204D01*
X22505581Y-26846167D01*
X22566772Y-26726073D01*
X22587857Y-26592947D01*
X22566772Y-26459821D01*
X22505581Y-26339727D01*
X22505578Y-26339724D01*
X22486548Y-26320693D01*
X22458772Y-26266176D01*
X22457553Y-26250691D01*
X22457553Y-24435202D01*
X22476460Y-24377011D01*
X22486543Y-24365204D01*
X22505581Y-24346167D01*
X22566772Y-24226073D01*
X22587857Y-24092947D01*
X22566772Y-23959821D01*
X22505581Y-23839727D01*
X22503711Y-23837857D01*
X22486548Y-23820693D01*
X22458772Y-23766176D01*
X22457553Y-23750691D01*
X22457553Y-21935202D01*
X22476460Y-21877011D01*
X22486543Y-21865204D01*
X22505581Y-21846167D01*
X22566772Y-21726073D01*
X22587857Y-21592947D01*
X22566772Y-21459821D01*
X22505581Y-21339727D01*
X22503711Y-21337857D01*
X22486548Y-21320693D01*
X22458772Y-21266176D01*
X22457553Y-21250691D01*
X22457553Y-19435202D01*
X22476460Y-19377011D01*
X22486543Y-19365204D01*
X22505581Y-19346167D01*
X22566772Y-19226073D01*
X22587857Y-19092947D01*
X22566772Y-18959821D01*
X22505581Y-18839727D01*
X22503711Y-18837857D01*
X22486548Y-18820693D01*
X22458772Y-18766176D01*
X22457553Y-18750691D01*
X22457553Y-16935202D01*
X22476460Y-16877011D01*
X22486543Y-16865204D01*
X22505581Y-16846167D01*
X22566772Y-16726073D01*
X22587857Y-16592947D01*
X22566772Y-16459821D01*
X22505581Y-16339727D01*
X22503711Y-16337857D01*
X22486548Y-16320693D01*
X22458772Y-16266176D01*
X22457553Y-16250691D01*
X22457553Y-14435202D01*
X22476460Y-14377011D01*
X22486543Y-14365204D01*
X22505581Y-14346167D01*
X22566772Y-14226073D01*
X22587857Y-14092947D01*
X22566772Y-13959821D01*
X22505581Y-13839727D01*
X22503711Y-13837857D01*
X22486548Y-13820693D01*
X22458772Y-13766176D01*
X22457553Y-13750691D01*
X22457553Y-11935202D01*
X22476460Y-11877011D01*
X22486543Y-11865204D01*
X22505581Y-11846167D01*
X22566772Y-11726073D01*
X22587857Y-11592947D01*
X22587059Y-11587911D01*
X22577156Y-11525382D01*
X22566772Y-11459821D01*
X22505581Y-11339727D01*
X22503711Y-11337857D01*
X22486548Y-11320693D01*
X22458772Y-11266176D01*
X22457553Y-11250691D01*
X22457553Y-9435202D01*
X22476460Y-9377011D01*
X22486543Y-9365204D01*
X22505581Y-9346167D01*
X22566772Y-9226073D01*
X22587857Y-9092947D01*
X22587059Y-9087911D01*
X22581292Y-9051495D01*
X22566772Y-8959821D01*
X22551580Y-8930006D01*
X22505582Y-8839729D01*
X22505581Y-8839727D01*
X22505578Y-8839724D01*
X22486548Y-8820693D01*
X22458772Y-8766176D01*
X22457553Y-8750691D01*
X22457553Y-6935202D01*
X22476460Y-6877011D01*
X22486543Y-6865204D01*
X22505581Y-6846167D01*
X22566772Y-6726073D01*
X22587857Y-6592947D01*
X22566772Y-6459821D01*
X22505581Y-6339727D01*
X22410273Y-6244419D01*
X22410270Y-6244417D01*
X22290182Y-6183229D01*
X22290180Y-6183228D01*
X22157053Y-6162143D01*
X22023925Y-6183228D01*
X22023923Y-6183229D01*
X21903835Y-6244417D01*
X21808523Y-6339729D01*
X21747335Y-6459817D01*
X21747334Y-6459819D01*
X21726249Y-6592946D01*
X21726249Y-6592947D01*
X21747334Y-6726074D01*
X21747335Y-6726076D01*
X21759525Y-6750000D01*
X21808525Y-6846167D01*
X21827558Y-6865200D01*
X21855334Y-6919715D01*
X21856553Y-6935202D01*
X21856553Y-8750691D01*
X21837646Y-8808882D01*
X21827558Y-8820693D01*
X21808527Y-8839724D01*
X21808523Y-8839729D01*
X21747335Y-8959817D01*
X21747334Y-8959819D01*
X21726249Y-9092946D01*
X21726249Y-9092947D01*
X21747334Y-9226074D01*
X21747335Y-9226076D01*
X21805526Y-9340282D01*
X21808525Y-9346167D01*
X21827558Y-9365200D01*
X21855334Y-9419715D01*
X21856553Y-9435202D01*
X21856553Y-11250691D01*
X21837646Y-11308882D01*
X21827558Y-11320693D01*
X21808527Y-11339724D01*
X21808523Y-11339729D01*
X21747335Y-11459817D01*
X21747334Y-11459819D01*
X21726249Y-11592946D01*
X21726249Y-11592947D01*
X21747334Y-11726074D01*
X21747335Y-11726076D01*
X21808523Y-11846164D01*
X21808525Y-11846167D01*
X21827558Y-11865200D01*
X21855334Y-11919715D01*
X21856553Y-11935202D01*
X21856553Y-13750691D01*
X21837646Y-13808882D01*
X21827558Y-13820693D01*
X21808527Y-13839724D01*
X21808523Y-13839729D01*
X21747335Y-13959817D01*
X21747334Y-13959819D01*
X21726249Y-14092946D01*
X21726249Y-14092947D01*
X21747334Y-14226074D01*
X21747335Y-14226076D01*
X21808523Y-14346164D01*
X21808525Y-14346167D01*
X21827558Y-14365200D01*
X21855334Y-14419715D01*
X21856553Y-14435202D01*
X21856553Y-16250691D01*
X21837646Y-16308882D01*
X21827558Y-16320693D01*
X21808527Y-16339724D01*
X21808523Y-16339729D01*
X21747335Y-16459817D01*
X21747334Y-16459819D01*
X21726249Y-16592946D01*
X21726249Y-16592947D01*
X21747334Y-16726074D01*
X21747335Y-16726076D01*
X21798568Y-16826626D01*
X21808525Y-16846167D01*
X21827558Y-16865200D01*
X21855334Y-16919715D01*
X21856553Y-16935202D01*
X21856553Y-18750691D01*
X21837646Y-18808882D01*
X21827558Y-18820693D01*
X21808527Y-18839724D01*
X21808523Y-18839729D01*
X21747335Y-18959817D01*
X21747334Y-18959819D01*
X21726249Y-19092946D01*
X21726249Y-19092947D01*
X21747334Y-19226074D01*
X21747335Y-19226076D01*
X21808523Y-19346164D01*
X21808525Y-19346167D01*
X21827558Y-19365200D01*
X21855334Y-19419715D01*
X21856553Y-19435202D01*
X21856553Y-21250691D01*
X21837646Y-21308882D01*
X21827558Y-21320693D01*
X21808527Y-21339724D01*
X21808523Y-21339729D01*
X21747335Y-21459817D01*
X21747334Y-21459819D01*
X21726249Y-21592946D01*
X21726249Y-21592947D01*
X21747334Y-21726074D01*
X21747335Y-21726076D01*
X21808523Y-21846164D01*
X21808525Y-21846167D01*
X21827558Y-21865200D01*
X21855334Y-21919715D01*
X21856553Y-21935202D01*
X21856553Y-23750691D01*
X21837646Y-23808882D01*
X21827558Y-23820693D01*
X21808527Y-23839724D01*
X21808523Y-23839729D01*
X21747335Y-23959817D01*
X21747334Y-23959819D01*
X21726249Y-24092946D01*
X21726249Y-24092947D01*
X21747334Y-24226074D01*
X21747335Y-24226076D01*
X21808523Y-24346164D01*
X21808525Y-24346167D01*
X21827558Y-24365200D01*
X21855334Y-24419715D01*
X21856553Y-24435202D01*
X21856553Y-26250691D01*
X21837646Y-26308882D01*
X21827558Y-26320693D01*
X21808527Y-26339724D01*
X21808523Y-26339729D01*
X21747335Y-26459817D01*
X21747334Y-26459819D01*
X21726249Y-26592946D01*
X21726249Y-26592947D01*
X21747334Y-26726074D01*
X21747335Y-26726076D01*
X21808523Y-26846164D01*
X21808525Y-26846167D01*
X21827558Y-26865200D01*
X21855334Y-26919715D01*
X21856553Y-26935202D01*
X21856553Y-28750691D01*
X21837646Y-28808882D01*
X21827558Y-28820693D01*
X21808527Y-28839724D01*
X21808523Y-28839729D01*
X21747335Y-28959817D01*
X21747334Y-28959819D01*
X21726249Y-29092946D01*
X21726249Y-29092947D01*
X20087857Y-29092947D01*
X20066772Y-28959821D01*
X20005581Y-28839727D01*
X20005578Y-28839724D01*
X19986548Y-28820693D01*
X19958772Y-28766176D01*
X19957553Y-28750691D01*
X19957553Y-26935202D01*
X19976460Y-26877011D01*
X19986543Y-26865204D01*
X20005581Y-26846167D01*
X20066772Y-26726073D01*
X20087857Y-26592947D01*
X20066772Y-26459821D01*
X20005581Y-26339727D01*
X20005578Y-26339724D01*
X19986548Y-26320693D01*
X19958772Y-26266176D01*
X19957553Y-26250691D01*
X19957553Y-24435202D01*
X19976460Y-24377011D01*
X19986543Y-24365204D01*
X20005581Y-24346167D01*
X20066772Y-24226073D01*
X20087857Y-24092947D01*
X20066772Y-23959821D01*
X20005581Y-23839727D01*
X20003711Y-23837857D01*
X19986548Y-23820693D01*
X19958772Y-23766176D01*
X19957553Y-23750691D01*
X19957553Y-21935202D01*
X19976460Y-21877011D01*
X19986543Y-21865204D01*
X20005581Y-21846167D01*
X20066772Y-21726073D01*
X20087857Y-21592947D01*
X20066772Y-21459821D01*
X20005581Y-21339727D01*
X20003711Y-21337857D01*
X19986548Y-21320693D01*
X19958772Y-21266176D01*
X19957553Y-21250691D01*
X19957553Y-19435202D01*
X19976460Y-19377011D01*
X19986543Y-19365204D01*
X20005581Y-19346167D01*
X20066772Y-19226073D01*
X20087857Y-19092947D01*
X20066772Y-18959821D01*
X20005581Y-18839727D01*
X20003711Y-18837857D01*
X19986548Y-18820693D01*
X19958772Y-18766176D01*
X19957553Y-18750691D01*
X19957553Y-16935202D01*
X19976460Y-16877011D01*
X19986543Y-16865204D01*
X20005581Y-16846167D01*
X20066772Y-16726073D01*
X20087857Y-16592947D01*
X20066772Y-16459821D01*
X20005581Y-16339727D01*
X20003711Y-16337857D01*
X19986548Y-16320693D01*
X19958772Y-16266176D01*
X19957553Y-16250691D01*
X19957553Y-14435202D01*
X19976460Y-14377011D01*
X19986543Y-14365204D01*
X20005581Y-14346167D01*
X20066772Y-14226073D01*
X20087857Y-14092947D01*
X20066772Y-13959821D01*
X20005581Y-13839727D01*
X20003711Y-13837857D01*
X19986548Y-13820693D01*
X19958772Y-13766176D01*
X19957553Y-13750691D01*
X19957553Y-11935202D01*
X19976460Y-11877011D01*
X19986543Y-11865204D01*
X20005581Y-11846167D01*
X20066772Y-11726073D01*
X20087857Y-11592947D01*
X20087059Y-11587911D01*
X20077156Y-11525382D01*
X20066772Y-11459821D01*
X20005581Y-11339727D01*
X20003711Y-11337857D01*
X19986548Y-11320693D01*
X19958772Y-11266176D01*
X19957553Y-11250691D01*
X19957553Y-9435202D01*
X19976460Y-9377011D01*
X19986543Y-9365204D01*
X20005581Y-9346167D01*
X20066772Y-9226073D01*
X20087857Y-9092947D01*
X20087059Y-9087911D01*
X20081292Y-9051495D01*
X20066772Y-8959821D01*
X20051580Y-8930006D01*
X20005582Y-8839729D01*
X20005581Y-8839727D01*
X20005578Y-8839724D01*
X19986548Y-8820693D01*
X19958772Y-8766176D01*
X19957553Y-8750691D01*
X19957553Y-6935202D01*
X19976460Y-6877011D01*
X19986543Y-6865204D01*
X20005581Y-6846167D01*
X20066772Y-6726073D01*
X20087857Y-6592947D01*
X20066772Y-6459821D01*
X20005581Y-6339727D01*
X19910273Y-6244419D01*
X19910270Y-6244417D01*
X19790182Y-6183229D01*
X19790180Y-6183228D01*
X19657053Y-6162143D01*
X19523925Y-6183228D01*
X19523923Y-6183229D01*
X19403835Y-6244417D01*
X19308523Y-6339729D01*
X19247335Y-6459817D01*
X19247334Y-6459819D01*
X19226249Y-6592946D01*
X19226249Y-6592947D01*
X19247334Y-6726074D01*
X19247335Y-6726076D01*
X19259525Y-6750000D01*
X19308525Y-6846167D01*
X19327558Y-6865200D01*
X19355334Y-6919715D01*
X19356553Y-6935202D01*
X19356553Y-8750691D01*
X19337646Y-8808882D01*
X19327558Y-8820693D01*
X19308527Y-8839724D01*
X19308523Y-8839729D01*
X19247335Y-8959817D01*
X19247334Y-8959819D01*
X19226249Y-9092946D01*
X19226249Y-9092947D01*
X19247334Y-9226074D01*
X19247335Y-9226076D01*
X19305526Y-9340282D01*
X19308525Y-9346167D01*
X19327558Y-9365200D01*
X19355334Y-9419715D01*
X19356553Y-9435202D01*
X19356553Y-11250691D01*
X19337646Y-11308882D01*
X19327558Y-11320693D01*
X19308527Y-11339724D01*
X19308523Y-11339729D01*
X19247335Y-11459817D01*
X19247334Y-11459819D01*
X19226249Y-11592946D01*
X19226249Y-11592947D01*
X19247334Y-11726074D01*
X19247335Y-11726076D01*
X19308523Y-11846164D01*
X19308525Y-11846167D01*
X19327558Y-11865200D01*
X19355334Y-11919715D01*
X19356553Y-11935202D01*
X19356553Y-13750691D01*
X19337646Y-13808882D01*
X19327558Y-13820693D01*
X19308527Y-13839724D01*
X19308523Y-13839729D01*
X19247335Y-13959817D01*
X19247334Y-13959819D01*
X19226249Y-14092946D01*
X19226249Y-14092947D01*
X19247334Y-14226074D01*
X19247335Y-14226076D01*
X19308523Y-14346164D01*
X19308525Y-14346167D01*
X19327558Y-14365200D01*
X19355334Y-14419715D01*
X19356553Y-14435202D01*
X19356553Y-16250691D01*
X19337646Y-16308882D01*
X19327558Y-16320693D01*
X19308527Y-16339724D01*
X19308523Y-16339729D01*
X19247335Y-16459817D01*
X19247334Y-16459819D01*
X19226249Y-16592946D01*
X19226249Y-16592947D01*
X19247334Y-16726074D01*
X19247335Y-16726076D01*
X19298568Y-16826626D01*
X19308525Y-16846167D01*
X19327558Y-16865200D01*
X19355334Y-16919715D01*
X19356553Y-16935202D01*
X19356553Y-18750691D01*
X19337646Y-18808882D01*
X19327558Y-18820693D01*
X19308527Y-18839724D01*
X19308523Y-18839729D01*
X19247335Y-18959817D01*
X19247334Y-18959819D01*
X19226249Y-19092946D01*
X19226249Y-19092947D01*
X19247334Y-19226074D01*
X19247335Y-19226076D01*
X19308523Y-19346164D01*
X19308525Y-19346167D01*
X19327558Y-19365200D01*
X19355334Y-19419715D01*
X19356553Y-19435202D01*
X19356553Y-21250691D01*
X19337646Y-21308882D01*
X19327558Y-21320693D01*
X19308527Y-21339724D01*
X19308523Y-21339729D01*
X19247335Y-21459817D01*
X19247334Y-21459819D01*
X19226249Y-21592946D01*
X19226249Y-21592947D01*
X19247334Y-21726074D01*
X19247335Y-21726076D01*
X19308523Y-21846164D01*
X19308525Y-21846167D01*
X19327558Y-21865200D01*
X19355334Y-21919715D01*
X19356553Y-21935202D01*
X19356553Y-23750691D01*
X19337646Y-23808882D01*
X19327558Y-23820693D01*
X19308527Y-23839724D01*
X19308523Y-23839729D01*
X19247335Y-23959817D01*
X19247334Y-23959819D01*
X19226249Y-24092946D01*
X19226249Y-24092947D01*
X19247334Y-24226074D01*
X19247335Y-24226076D01*
X19308523Y-24346164D01*
X19308525Y-24346167D01*
X19327558Y-24365200D01*
X19355334Y-24419715D01*
X19356553Y-24435202D01*
X19356553Y-26250691D01*
X19337646Y-26308882D01*
X19327558Y-26320693D01*
X19308527Y-26339724D01*
X19308523Y-26339729D01*
X19247335Y-26459817D01*
X19247334Y-26459819D01*
X19226249Y-26592946D01*
X19226249Y-26592947D01*
X19247334Y-26726074D01*
X19247335Y-26726076D01*
X19308523Y-26846164D01*
X19308525Y-26846167D01*
X19327558Y-26865200D01*
X19355334Y-26919715D01*
X19356553Y-26935202D01*
X19356553Y-28750691D01*
X19337646Y-28808882D01*
X19327558Y-28820693D01*
X19308527Y-28839724D01*
X19308523Y-28839729D01*
X19247335Y-28959817D01*
X19247334Y-28959819D01*
X19226249Y-29092946D01*
X19226249Y-29092947D01*
X17587857Y-29092947D01*
X17566772Y-28959821D01*
X17505581Y-28839727D01*
X17505578Y-28839724D01*
X17486548Y-28820693D01*
X17458772Y-28766176D01*
X17457553Y-28750691D01*
X17457553Y-26935202D01*
X17476460Y-26877011D01*
X17486543Y-26865204D01*
X17505581Y-26846167D01*
X17566772Y-26726073D01*
X17587857Y-26592947D01*
X17566772Y-26459821D01*
X17505581Y-26339727D01*
X17505578Y-26339724D01*
X17486548Y-26320693D01*
X17458772Y-26266176D01*
X17457553Y-26250691D01*
X17457553Y-24435202D01*
X17476460Y-24377011D01*
X17486543Y-24365204D01*
X17505581Y-24346167D01*
X17566772Y-24226073D01*
X17587857Y-24092947D01*
X17566772Y-23959821D01*
X17505581Y-23839727D01*
X17503711Y-23837857D01*
X17486548Y-23820693D01*
X17458772Y-23766176D01*
X17457553Y-23750691D01*
X17457553Y-21935202D01*
X17476460Y-21877011D01*
X17486543Y-21865204D01*
X17505581Y-21846167D01*
X17566772Y-21726073D01*
X17587857Y-21592947D01*
X17566772Y-21459821D01*
X17505581Y-21339727D01*
X17503711Y-21337857D01*
X17486548Y-21320693D01*
X17458772Y-21266176D01*
X17457553Y-21250691D01*
X17457553Y-19435202D01*
X17476460Y-19377011D01*
X17486543Y-19365204D01*
X17505581Y-19346167D01*
X17566772Y-19226073D01*
X17587857Y-19092947D01*
X17566772Y-18959821D01*
X17505581Y-18839727D01*
X17503711Y-18837857D01*
X17486548Y-18820693D01*
X17458772Y-18766176D01*
X17457553Y-18750691D01*
X17457553Y-16935202D01*
X17476460Y-16877011D01*
X17486543Y-16865204D01*
X17505581Y-16846167D01*
X17566772Y-16726073D01*
X17587857Y-16592947D01*
X17566772Y-16459821D01*
X17505581Y-16339727D01*
X17503711Y-16337857D01*
X17486548Y-16320693D01*
X17458772Y-16266176D01*
X17457553Y-16250691D01*
X17457553Y-14435202D01*
X17476460Y-14377011D01*
X17486543Y-14365204D01*
X17505581Y-14346167D01*
X17566772Y-14226073D01*
X17587857Y-14092947D01*
X17566772Y-13959821D01*
X17505581Y-13839727D01*
X17503711Y-13837857D01*
X17486548Y-13820693D01*
X17458772Y-13766176D01*
X17457553Y-13750691D01*
X17457553Y-11935202D01*
X17476460Y-11877011D01*
X17486543Y-11865204D01*
X17505581Y-11846167D01*
X17566772Y-11726073D01*
X17587857Y-11592947D01*
X17587059Y-11587911D01*
X17577156Y-11525382D01*
X17566772Y-11459821D01*
X17505581Y-11339727D01*
X17503711Y-11337857D01*
X17486548Y-11320693D01*
X17458772Y-11266176D01*
X17457553Y-11250691D01*
X17457553Y-9435202D01*
X17476460Y-9377011D01*
X17486543Y-9365204D01*
X17505581Y-9346167D01*
X17566772Y-9226073D01*
X17587857Y-9092947D01*
X17587059Y-9087911D01*
X17581292Y-9051495D01*
X17566772Y-8959821D01*
X17551580Y-8930006D01*
X17505582Y-8839729D01*
X17505581Y-8839727D01*
X17505578Y-8839724D01*
X17486548Y-8820693D01*
X17458772Y-8766176D01*
X17457553Y-8750691D01*
X17457553Y-6935202D01*
X17476460Y-6877011D01*
X17486543Y-6865204D01*
X17505581Y-6846167D01*
X17566772Y-6726073D01*
X17587857Y-6592947D01*
X17566772Y-6459821D01*
X17505581Y-6339727D01*
X17410273Y-6244419D01*
X17410270Y-6244417D01*
X17290182Y-6183229D01*
X17290180Y-6183228D01*
X17157053Y-6162143D01*
X17023925Y-6183228D01*
X17023923Y-6183229D01*
X16903835Y-6244417D01*
X16808523Y-6339729D01*
X16747335Y-6459817D01*
X16747334Y-6459819D01*
X16726249Y-6592946D01*
X16726249Y-6592947D01*
X16747334Y-6726074D01*
X16747335Y-6726076D01*
X16759525Y-6750000D01*
X16808525Y-6846167D01*
X16827558Y-6865200D01*
X16855334Y-6919715D01*
X16856553Y-6935202D01*
X16856553Y-8750691D01*
X16837646Y-8808882D01*
X16827558Y-8820693D01*
X16808527Y-8839724D01*
X16808523Y-8839729D01*
X16747335Y-8959817D01*
X16747334Y-8959819D01*
X16726249Y-9092946D01*
X16726249Y-9092947D01*
X16747334Y-9226074D01*
X16747335Y-9226076D01*
X16805526Y-9340282D01*
X16808525Y-9346167D01*
X16827558Y-9365200D01*
X16855334Y-9419715D01*
X16856553Y-9435202D01*
X16856553Y-11250691D01*
X16837646Y-11308882D01*
X16827558Y-11320693D01*
X16808527Y-11339724D01*
X16808523Y-11339729D01*
X16747335Y-11459817D01*
X16747334Y-11459819D01*
X16726249Y-11592946D01*
X16726249Y-11592947D01*
X16747334Y-11726074D01*
X16747335Y-11726076D01*
X16808523Y-11846164D01*
X16808525Y-11846167D01*
X16827558Y-11865200D01*
X16855334Y-11919715D01*
X16856553Y-11935202D01*
X16856553Y-13750691D01*
X16837646Y-13808882D01*
X16827558Y-13820693D01*
X16808527Y-13839724D01*
X16808523Y-13839729D01*
X16747335Y-13959817D01*
X16747334Y-13959819D01*
X16726249Y-14092946D01*
X16726249Y-14092947D01*
X16747334Y-14226074D01*
X16747335Y-14226076D01*
X16808523Y-14346164D01*
X16808525Y-14346167D01*
X16827558Y-14365200D01*
X16855334Y-14419715D01*
X16856553Y-14435202D01*
X16856553Y-16250691D01*
X16837646Y-16308882D01*
X16827558Y-16320693D01*
X16808527Y-16339724D01*
X16808523Y-16339729D01*
X16747335Y-16459817D01*
X16747334Y-16459819D01*
X16726249Y-16592946D01*
X16726249Y-16592947D01*
X16747334Y-16726074D01*
X16747335Y-16726076D01*
X16798568Y-16826626D01*
X16808525Y-16846167D01*
X16827558Y-16865200D01*
X16855334Y-16919715D01*
X16856553Y-16935202D01*
X16856553Y-18750691D01*
X16837646Y-18808882D01*
X16827558Y-18820693D01*
X16808527Y-18839724D01*
X16808523Y-18839729D01*
X16747335Y-18959817D01*
X16747334Y-18959819D01*
X16726249Y-19092946D01*
X16726249Y-19092947D01*
X16747334Y-19226074D01*
X16747335Y-19226076D01*
X16808523Y-19346164D01*
X16808525Y-19346167D01*
X16827558Y-19365200D01*
X16855334Y-19419715D01*
X16856553Y-19435202D01*
X16856553Y-21250691D01*
X16837646Y-21308882D01*
X16827558Y-21320693D01*
X16808527Y-21339724D01*
X16808523Y-21339729D01*
X16747335Y-21459817D01*
X16747334Y-21459819D01*
X16726249Y-21592946D01*
X16726249Y-21592947D01*
X16747334Y-21726074D01*
X16747335Y-21726076D01*
X16808523Y-21846164D01*
X16808525Y-21846167D01*
X16827558Y-21865200D01*
X16855334Y-21919715D01*
X16856553Y-21935202D01*
X16856553Y-23750691D01*
X16837646Y-23808882D01*
X16827558Y-23820693D01*
X16808527Y-23839724D01*
X16808523Y-23839729D01*
X16747335Y-23959817D01*
X16747334Y-23959819D01*
X16726249Y-24092946D01*
X16726249Y-24092947D01*
X16747334Y-24226074D01*
X16747335Y-24226076D01*
X16808523Y-24346164D01*
X16808525Y-24346167D01*
X16827558Y-24365200D01*
X16855334Y-24419715D01*
X16856553Y-24435202D01*
X16856553Y-26250691D01*
X16837646Y-26308882D01*
X16827558Y-26320693D01*
X16808527Y-26339724D01*
X16808523Y-26339729D01*
X16747335Y-26459817D01*
X16747334Y-26459819D01*
X16726249Y-26592946D01*
X16726249Y-26592947D01*
X16747334Y-26726074D01*
X16747335Y-26726076D01*
X16808523Y-26846164D01*
X16808525Y-26846167D01*
X16827558Y-26865200D01*
X16855334Y-26919715D01*
X16856553Y-26935202D01*
X16856553Y-28750691D01*
X16837646Y-28808882D01*
X16827558Y-28820693D01*
X16808527Y-28839724D01*
X16808523Y-28839729D01*
X16747335Y-28959817D01*
X16747334Y-28959819D01*
X16726249Y-29092946D01*
X16726249Y-29092947D01*
X15087857Y-29092947D01*
X15066772Y-28959821D01*
X15005581Y-28839727D01*
X15005578Y-28839724D01*
X14986548Y-28820693D01*
X14958772Y-28766176D01*
X14957553Y-28750691D01*
X14957553Y-26935202D01*
X14976460Y-26877011D01*
X14986543Y-26865204D01*
X15005581Y-26846167D01*
X15066772Y-26726073D01*
X15087857Y-26592947D01*
X15066772Y-26459821D01*
X15005581Y-26339727D01*
X15005578Y-26339724D01*
X14986548Y-26320693D01*
X14958772Y-26266176D01*
X14957553Y-26250691D01*
X14957553Y-24435202D01*
X14976460Y-24377011D01*
X14986543Y-24365204D01*
X15005581Y-24346167D01*
X15066772Y-24226073D01*
X15087857Y-24092947D01*
X15066772Y-23959821D01*
X15005581Y-23839727D01*
X15003711Y-23837857D01*
X14986548Y-23820693D01*
X14958772Y-23766176D01*
X14957553Y-23750691D01*
X14957553Y-21935202D01*
X14976460Y-21877011D01*
X14986543Y-21865204D01*
X15005581Y-21846167D01*
X15066772Y-21726073D01*
X15087857Y-21592947D01*
X15066772Y-21459821D01*
X15005581Y-21339727D01*
X15003711Y-21337857D01*
X14986548Y-21320693D01*
X14958772Y-21266176D01*
X14957553Y-21250691D01*
X14957553Y-19435202D01*
X14976460Y-19377011D01*
X14986543Y-19365204D01*
X15005581Y-19346167D01*
X15066772Y-19226073D01*
X15087857Y-19092947D01*
X15066772Y-18959821D01*
X15005581Y-18839727D01*
X15003711Y-18837857D01*
X14986548Y-18820693D01*
X14958772Y-18766176D01*
X14957553Y-18750691D01*
X14957553Y-16935202D01*
X14976460Y-16877011D01*
X14986543Y-16865204D01*
X15005581Y-16846167D01*
X15066772Y-16726073D01*
X15087857Y-16592947D01*
X15066772Y-16459821D01*
X15005581Y-16339727D01*
X15003711Y-16337857D01*
X14986548Y-16320693D01*
X14958772Y-16266176D01*
X14957553Y-16250691D01*
X14957553Y-14435202D01*
X14976460Y-14377011D01*
X14986543Y-14365204D01*
X15005581Y-14346167D01*
X15066772Y-14226073D01*
X15087857Y-14092947D01*
X15066772Y-13959821D01*
X15005581Y-13839727D01*
X15003711Y-13837857D01*
X14986548Y-13820693D01*
X14958772Y-13766176D01*
X14957553Y-13750691D01*
X14957553Y-11935202D01*
X14976460Y-11877011D01*
X14986543Y-11865204D01*
X15005581Y-11846167D01*
X15066772Y-11726073D01*
X15087857Y-11592947D01*
X15087059Y-11587911D01*
X15077156Y-11525382D01*
X15066772Y-11459821D01*
X15005581Y-11339727D01*
X15003711Y-11337857D01*
X14986548Y-11320693D01*
X14958772Y-11266176D01*
X14957553Y-11250691D01*
X14957553Y-9435202D01*
X14976460Y-9377011D01*
X14986543Y-9365204D01*
X15005581Y-9346167D01*
X15066772Y-9226073D01*
X15087857Y-9092947D01*
X15087059Y-9087911D01*
X15081292Y-9051495D01*
X15066772Y-8959821D01*
X15051580Y-8930006D01*
X15005582Y-8839729D01*
X15005581Y-8839727D01*
X15005578Y-8839724D01*
X14986548Y-8820693D01*
X14958772Y-8766176D01*
X14957553Y-8750691D01*
X14957553Y-6935202D01*
X14976460Y-6877011D01*
X14986543Y-6865204D01*
X15005581Y-6846167D01*
X15066772Y-6726073D01*
X15087857Y-6592947D01*
X15066772Y-6459821D01*
X15005581Y-6339727D01*
X14910273Y-6244419D01*
X14910270Y-6244417D01*
X14790182Y-6183229D01*
X14790180Y-6183228D01*
X14657053Y-6162143D01*
X14523925Y-6183228D01*
X14523923Y-6183229D01*
X14403835Y-6244417D01*
X14308523Y-6339729D01*
X14247335Y-6459817D01*
X14247334Y-6459819D01*
X14226249Y-6592946D01*
X14226249Y-6592947D01*
X14247334Y-6726074D01*
X14247335Y-6726076D01*
X14259525Y-6750000D01*
X14308525Y-6846167D01*
X14327558Y-6865200D01*
X14355334Y-6919715D01*
X14356553Y-6935202D01*
X14356553Y-8750691D01*
X14337646Y-8808882D01*
X14327558Y-8820693D01*
X14308527Y-8839724D01*
X14308523Y-8839729D01*
X14247335Y-8959817D01*
X14247334Y-8959819D01*
X14226249Y-9092946D01*
X14226249Y-9092947D01*
X14247334Y-9226074D01*
X14247335Y-9226076D01*
X14305526Y-9340282D01*
X14308525Y-9346167D01*
X14327558Y-9365200D01*
X14355334Y-9419715D01*
X14356553Y-9435202D01*
X14356553Y-11250691D01*
X14337646Y-11308882D01*
X14327558Y-11320693D01*
X14308527Y-11339724D01*
X14308523Y-11339729D01*
X14247335Y-11459817D01*
X14247334Y-11459819D01*
X14226249Y-11592946D01*
X14226249Y-11592947D01*
X14247334Y-11726074D01*
X14247335Y-11726076D01*
X14308523Y-11846164D01*
X14308525Y-11846167D01*
X14327558Y-11865200D01*
X14355334Y-11919715D01*
X14356553Y-11935202D01*
X14356553Y-13750691D01*
X14337646Y-13808882D01*
X14327558Y-13820693D01*
X14308527Y-13839724D01*
X14308523Y-13839729D01*
X14247335Y-13959817D01*
X14247334Y-13959819D01*
X14226249Y-14092946D01*
X14226249Y-14092947D01*
X14247334Y-14226074D01*
X14247335Y-14226076D01*
X14308523Y-14346164D01*
X14308525Y-14346167D01*
X14327558Y-14365200D01*
X14355334Y-14419715D01*
X14356553Y-14435202D01*
X14356553Y-16250691D01*
X14337646Y-16308882D01*
X14327558Y-16320693D01*
X14308527Y-16339724D01*
X14308523Y-16339729D01*
X14247335Y-16459817D01*
X14247334Y-16459819D01*
X14226249Y-16592946D01*
X14226249Y-16592947D01*
X14247334Y-16726074D01*
X14247335Y-16726076D01*
X14298568Y-16826626D01*
X14308525Y-16846167D01*
X14327558Y-16865200D01*
X14355334Y-16919715D01*
X14356553Y-16935202D01*
X14356553Y-18750691D01*
X14337646Y-18808882D01*
X14327558Y-18820693D01*
X14308527Y-18839724D01*
X14308523Y-18839729D01*
X14247335Y-18959817D01*
X14247334Y-18959819D01*
X14226249Y-19092946D01*
X14226249Y-19092947D01*
X14247334Y-19226074D01*
X14247335Y-19226076D01*
X14308523Y-19346164D01*
X14308525Y-19346167D01*
X14327558Y-19365200D01*
X14355334Y-19419715D01*
X14356553Y-19435202D01*
X14356553Y-21250691D01*
X14337646Y-21308882D01*
X14327558Y-21320693D01*
X14308527Y-21339724D01*
X14308523Y-21339729D01*
X14247335Y-21459817D01*
X14247334Y-21459819D01*
X14226249Y-21592946D01*
X14226249Y-21592947D01*
X14247334Y-21726074D01*
X14247335Y-21726076D01*
X14308523Y-21846164D01*
X14308525Y-21846167D01*
X14327558Y-21865200D01*
X14355334Y-21919715D01*
X14356553Y-21935202D01*
X14356553Y-23750691D01*
X14337646Y-23808882D01*
X14327558Y-23820693D01*
X14308527Y-23839724D01*
X14308523Y-23839729D01*
X14247335Y-23959817D01*
X14247334Y-23959819D01*
X14226249Y-24092946D01*
X14226249Y-24092947D01*
X14247334Y-24226074D01*
X14247335Y-24226076D01*
X14308523Y-24346164D01*
X14308525Y-24346167D01*
X14327558Y-24365200D01*
X14355334Y-24419715D01*
X14356553Y-24435202D01*
X14356553Y-26250691D01*
X14337646Y-26308882D01*
X14327558Y-26320693D01*
X14308527Y-26339724D01*
X14308523Y-26339729D01*
X14247335Y-26459817D01*
X14247334Y-26459819D01*
X14226249Y-26592946D01*
X14226249Y-26592947D01*
X14247334Y-26726074D01*
X14247335Y-26726076D01*
X14308523Y-26846164D01*
X14308525Y-26846167D01*
X14327558Y-26865200D01*
X14355334Y-26919715D01*
X14356553Y-26935202D01*
X14356553Y-28750691D01*
X14337646Y-28808882D01*
X14327558Y-28820693D01*
X14308527Y-28839724D01*
X14308523Y-28839729D01*
X14247335Y-28959817D01*
X14247334Y-28959819D01*
X14226249Y-29092946D01*
X14226249Y-29092947D01*
X12587857Y-29092947D01*
X12566772Y-28959821D01*
X12505581Y-28839727D01*
X12505578Y-28839724D01*
X12486548Y-28820693D01*
X12458772Y-28766176D01*
X12457553Y-28750691D01*
X12457553Y-26935202D01*
X12476460Y-26877011D01*
X12486543Y-26865204D01*
X12505581Y-26846167D01*
X12566772Y-26726073D01*
X12587857Y-26592947D01*
X12566772Y-26459821D01*
X12505581Y-26339727D01*
X12505578Y-26339724D01*
X12486548Y-26320693D01*
X12458772Y-26266176D01*
X12457553Y-26250691D01*
X12457553Y-24435202D01*
X12476460Y-24377011D01*
X12486543Y-24365204D01*
X12505581Y-24346167D01*
X12566772Y-24226073D01*
X12587857Y-24092947D01*
X12566772Y-23959821D01*
X12505581Y-23839727D01*
X12503711Y-23837857D01*
X12486548Y-23820693D01*
X12458772Y-23766176D01*
X12457553Y-23750691D01*
X12457553Y-21935202D01*
X12476460Y-21877011D01*
X12486543Y-21865204D01*
X12505581Y-21846167D01*
X12566772Y-21726073D01*
X12587857Y-21592947D01*
X12566772Y-21459821D01*
X12505581Y-21339727D01*
X12503711Y-21337857D01*
X12486548Y-21320693D01*
X12458772Y-21266176D01*
X12457553Y-21250691D01*
X12457553Y-19435202D01*
X12476460Y-19377011D01*
X12486543Y-19365204D01*
X12505581Y-19346167D01*
X12566772Y-19226073D01*
X12587857Y-19092947D01*
X12566772Y-18959821D01*
X12505581Y-18839727D01*
X12503711Y-18837857D01*
X12486548Y-18820693D01*
X12458772Y-18766176D01*
X12457553Y-18750691D01*
X12457553Y-16935202D01*
X12476460Y-16877011D01*
X12486543Y-16865204D01*
X12505581Y-16846167D01*
X12566772Y-16726073D01*
X12587857Y-16592947D01*
X12566772Y-16459821D01*
X12505581Y-16339727D01*
X12503711Y-16337857D01*
X12486548Y-16320693D01*
X12458772Y-16266176D01*
X12457553Y-16250691D01*
X12457553Y-14435202D01*
X12476460Y-14377011D01*
X12486543Y-14365204D01*
X12505581Y-14346167D01*
X12566772Y-14226073D01*
X12587857Y-14092947D01*
X12566772Y-13959821D01*
X12505581Y-13839727D01*
X12503711Y-13837857D01*
X12486548Y-13820693D01*
X12458772Y-13766176D01*
X12457553Y-13750691D01*
X12457553Y-11935202D01*
X12476460Y-11877011D01*
X12486543Y-11865204D01*
X12505581Y-11846167D01*
X12566772Y-11726073D01*
X12587857Y-11592947D01*
X12587059Y-11587911D01*
X12577156Y-11525382D01*
X12566772Y-11459821D01*
X12505581Y-11339727D01*
X12503711Y-11337857D01*
X12486548Y-11320693D01*
X12458772Y-11266176D01*
X12457553Y-11250691D01*
X12457553Y-9435202D01*
X12476460Y-9377011D01*
X12486543Y-9365204D01*
X12505581Y-9346167D01*
X12566772Y-9226073D01*
X12587857Y-9092947D01*
X12587059Y-9087911D01*
X12581292Y-9051495D01*
X12566772Y-8959821D01*
X12551580Y-8930006D01*
X12505582Y-8839729D01*
X12505581Y-8839727D01*
X12505578Y-8839724D01*
X12486548Y-8820693D01*
X12458772Y-8766176D01*
X12457553Y-8750691D01*
X12457553Y-6935202D01*
X12476460Y-6877011D01*
X12486543Y-6865204D01*
X12505581Y-6846167D01*
X12566772Y-6726073D01*
X12587857Y-6592947D01*
X12566772Y-6459821D01*
X12505581Y-6339727D01*
X12410273Y-6244419D01*
X12410270Y-6244417D01*
X12290182Y-6183229D01*
X12290180Y-6183228D01*
X12157053Y-6162143D01*
X12023925Y-6183228D01*
X12023923Y-6183229D01*
X11903835Y-6244417D01*
X11808523Y-6339729D01*
X11747335Y-6459817D01*
X11747334Y-6459819D01*
X11726249Y-6592946D01*
X11726249Y-6592947D01*
X11747334Y-6726074D01*
X11747335Y-6726076D01*
X11759525Y-6750000D01*
X11808525Y-6846167D01*
X11827558Y-6865200D01*
X11855334Y-6919715D01*
X11856553Y-6935202D01*
X11856553Y-8750691D01*
X11837646Y-8808882D01*
X11827558Y-8820693D01*
X11808527Y-8839724D01*
X11808523Y-8839729D01*
X11747335Y-8959817D01*
X11747334Y-8959819D01*
X11726249Y-9092946D01*
X11726249Y-9092947D01*
X11747334Y-9226074D01*
X11747335Y-9226076D01*
X11805526Y-9340282D01*
X11808525Y-9346167D01*
X11827558Y-9365200D01*
X11855334Y-9419715D01*
X11856553Y-9435202D01*
X11856553Y-11250691D01*
X11837646Y-11308882D01*
X11827558Y-11320693D01*
X11808527Y-11339724D01*
X11808523Y-11339729D01*
X11747335Y-11459817D01*
X11747334Y-11459819D01*
X11726249Y-11592946D01*
X11726249Y-11592947D01*
X11747334Y-11726074D01*
X11747335Y-11726076D01*
X11808523Y-11846164D01*
X11808525Y-11846167D01*
X11827558Y-11865200D01*
X11855334Y-11919715D01*
X11856553Y-11935202D01*
X11856553Y-13750691D01*
X11837646Y-13808882D01*
X11827558Y-13820693D01*
X11808527Y-13839724D01*
X11808523Y-13839729D01*
X11747335Y-13959817D01*
X11747334Y-13959819D01*
X11726249Y-14092946D01*
X11726249Y-14092947D01*
X11747334Y-14226074D01*
X11747335Y-14226076D01*
X11808523Y-14346164D01*
X11808525Y-14346167D01*
X11827558Y-14365200D01*
X11855334Y-14419715D01*
X11856553Y-14435202D01*
X11856553Y-16250691D01*
X11837646Y-16308882D01*
X11827558Y-16320693D01*
X11808527Y-16339724D01*
X11808523Y-16339729D01*
X11747335Y-16459817D01*
X11747334Y-16459819D01*
X11726249Y-16592946D01*
X11726249Y-16592947D01*
X11747334Y-16726074D01*
X11747335Y-16726076D01*
X11798568Y-16826626D01*
X11808525Y-16846167D01*
X11827558Y-16865200D01*
X11855334Y-16919715D01*
X11856553Y-16935202D01*
X11856553Y-18750691D01*
X11837646Y-18808882D01*
X11827558Y-18820693D01*
X11808527Y-18839724D01*
X11808523Y-18839729D01*
X11747335Y-18959817D01*
X11747334Y-18959819D01*
X11726249Y-19092946D01*
X11726249Y-19092947D01*
X11747334Y-19226074D01*
X11747335Y-19226076D01*
X11808523Y-19346164D01*
X11808525Y-19346167D01*
X11827558Y-19365200D01*
X11855334Y-19419715D01*
X11856553Y-19435202D01*
X11856553Y-21250691D01*
X11837646Y-21308882D01*
X11827558Y-21320693D01*
X11808527Y-21339724D01*
X11808523Y-21339729D01*
X11747335Y-21459817D01*
X11747334Y-21459819D01*
X11726249Y-21592946D01*
X11726249Y-21592947D01*
X11747334Y-21726074D01*
X11747335Y-21726076D01*
X11808523Y-21846164D01*
X11808525Y-21846167D01*
X11827558Y-21865200D01*
X11855334Y-21919715D01*
X11856553Y-21935202D01*
X11856553Y-23750691D01*
X11837646Y-23808882D01*
X11827558Y-23820693D01*
X11808527Y-23839724D01*
X11808523Y-23839729D01*
X11747335Y-23959817D01*
X11747334Y-23959819D01*
X11726249Y-24092946D01*
X11726249Y-24092947D01*
X11747334Y-24226074D01*
X11747335Y-24226076D01*
X11808523Y-24346164D01*
X11808525Y-24346167D01*
X11827558Y-24365200D01*
X11855334Y-24419715D01*
X11856553Y-24435202D01*
X11856553Y-26250691D01*
X11837646Y-26308882D01*
X11827558Y-26320693D01*
X11808527Y-26339724D01*
X11808523Y-26339729D01*
X11747335Y-26459817D01*
X11747334Y-26459819D01*
X11726249Y-26592946D01*
X11726249Y-26592947D01*
X11747334Y-26726074D01*
X11747335Y-26726076D01*
X11808523Y-26846164D01*
X11808525Y-26846167D01*
X11827558Y-26865200D01*
X11855334Y-26919715D01*
X11856553Y-26935202D01*
X11856553Y-28750691D01*
X11837646Y-28808882D01*
X11827558Y-28820693D01*
X11808527Y-28839724D01*
X11808523Y-28839729D01*
X11747335Y-28959817D01*
X11747334Y-28959819D01*
X11726249Y-29092946D01*
X11726249Y-29092947D01*
X10087857Y-29092947D01*
X10066772Y-28959821D01*
X10005581Y-28839727D01*
X10005578Y-28839724D01*
X9986548Y-28820693D01*
X9958772Y-28766176D01*
X9957553Y-28750691D01*
X9957553Y-26935202D01*
X9976460Y-26877011D01*
X9986543Y-26865204D01*
X10005581Y-26846167D01*
X10066772Y-26726073D01*
X10087857Y-26592947D01*
X10066772Y-26459821D01*
X10005581Y-26339727D01*
X10005578Y-26339724D01*
X9986548Y-26320693D01*
X9958772Y-26266176D01*
X9957553Y-26250691D01*
X9957553Y-24435202D01*
X9976460Y-24377011D01*
X9986543Y-24365204D01*
X10005581Y-24346167D01*
X10066772Y-24226073D01*
X10087857Y-24092947D01*
X10066772Y-23959821D01*
X10005581Y-23839727D01*
X10003711Y-23837857D01*
X9986548Y-23820693D01*
X9958772Y-23766176D01*
X9957553Y-23750691D01*
X9957553Y-21935202D01*
X9976460Y-21877011D01*
X9986543Y-21865204D01*
X10005581Y-21846167D01*
X10066772Y-21726073D01*
X10087857Y-21592947D01*
X10066772Y-21459821D01*
X10005581Y-21339727D01*
X10003711Y-21337857D01*
X9986548Y-21320693D01*
X9958772Y-21266176D01*
X9957553Y-21250691D01*
X9957553Y-19435202D01*
X9976460Y-19377011D01*
X9986543Y-19365204D01*
X10005581Y-19346167D01*
X10066772Y-19226073D01*
X10087857Y-19092947D01*
X10066772Y-18959821D01*
X10005581Y-18839727D01*
X10003711Y-18837857D01*
X9986548Y-18820693D01*
X9958772Y-18766176D01*
X9957553Y-18750691D01*
X9957553Y-16935202D01*
X9976460Y-16877011D01*
X9986543Y-16865204D01*
X10005581Y-16846167D01*
X10066772Y-16726073D01*
X10087857Y-16592947D01*
X10066772Y-16459821D01*
X10005581Y-16339727D01*
X10003711Y-16337857D01*
X9986548Y-16320693D01*
X9958772Y-16266176D01*
X9957553Y-16250691D01*
X9957553Y-14435202D01*
X9976460Y-14377011D01*
X9986543Y-14365204D01*
X10005581Y-14346167D01*
X10066772Y-14226073D01*
X10087857Y-14092947D01*
X10066772Y-13959821D01*
X10005581Y-13839727D01*
X10003711Y-13837857D01*
X9986548Y-13820693D01*
X9958772Y-13766176D01*
X9957553Y-13750691D01*
X9957553Y-11935202D01*
X9976460Y-11877011D01*
X9986543Y-11865204D01*
X10005581Y-11846167D01*
X10066772Y-11726073D01*
X10087857Y-11592947D01*
X10087059Y-11587911D01*
X10077156Y-11525382D01*
X10066772Y-11459821D01*
X10005581Y-11339727D01*
X10003711Y-11337857D01*
X9986548Y-11320693D01*
X9958772Y-11266176D01*
X9957553Y-11250691D01*
X9957553Y-9435202D01*
X9976460Y-9377011D01*
X9986543Y-9365204D01*
X10005581Y-9346167D01*
X10066772Y-9226073D01*
X10083922Y-9117786D01*
X10111699Y-9063271D01*
X11166405Y-8008564D01*
X11177664Y-8000493D01*
X11176905Y-7999487D01*
X11184221Y-7993961D01*
X11184228Y-7993958D01*
X11216632Y-7958411D01*
X11218186Y-7956783D01*
X11232174Y-7942797D01*
X11234181Y-7939865D01*
X11238440Y-7934490D01*
X11259916Y-7910933D01*
X11263464Y-7901771D01*
X11274111Y-7881576D01*
X11279657Y-7873481D01*
X11286957Y-7842440D01*
X11288981Y-7835904D01*
X11300500Y-7806173D01*
X11300500Y-7796348D01*
X11303130Y-7773679D01*
X11305379Y-7764119D01*
X11300975Y-7732546D01*
X11300500Y-7725699D01*
X11300500Y-7092255D01*
X11319407Y-7034064D01*
X11329490Y-7022257D01*
X11348528Y-7003220D01*
X11409719Y-6883126D01*
X11430804Y-6750000D01*
X11409719Y-6616874D01*
X11348528Y-6496780D01*
X11253220Y-6401472D01*
X11253217Y-6401470D01*
X11133129Y-6340282D01*
X11133127Y-6340281D01*
X11000000Y-6319196D01*
X10866872Y-6340281D01*
X10866870Y-6340282D01*
X10746782Y-6401470D01*
X10651470Y-6496782D01*
X10590282Y-6616870D01*
X10590281Y-6616872D01*
X10569196Y-6749999D01*
X10569196Y-6750000D01*
X10590281Y-6883127D01*
X10590282Y-6883129D01*
X10649831Y-7000000D01*
X10651472Y-7003220D01*
X10670505Y-7022253D01*
X10698281Y-7076768D01*
X10699500Y-7092255D01*
X10699500Y-7584520D01*
X10680593Y-7642711D01*
X10670504Y-7654524D01*
X9686727Y-8638300D01*
X9632211Y-8666077D01*
X9523924Y-8683228D01*
X9523923Y-8683229D01*
X9403835Y-8744417D01*
X9308523Y-8839729D01*
X9247335Y-8959817D01*
X9247334Y-8959819D01*
X9226249Y-9092946D01*
X9226249Y-9092947D01*
X9247334Y-9226074D01*
X9247335Y-9226076D01*
X9305526Y-9340282D01*
X9308525Y-9346167D01*
X9327558Y-9365200D01*
X9355334Y-9419715D01*
X9356553Y-9435202D01*
X9356553Y-11250691D01*
X9337646Y-11308882D01*
X9327558Y-11320693D01*
X9308527Y-11339724D01*
X9308523Y-11339729D01*
X9247335Y-11459817D01*
X9247334Y-11459819D01*
X9226249Y-11592946D01*
X9226249Y-11592947D01*
X9247334Y-11726074D01*
X9247335Y-11726076D01*
X9308523Y-11846164D01*
X9308525Y-11846167D01*
X9327558Y-11865200D01*
X9355334Y-11919715D01*
X9356553Y-11935202D01*
X9356553Y-13750691D01*
X9337646Y-13808882D01*
X9327558Y-13820693D01*
X9308527Y-13839724D01*
X9308523Y-13839729D01*
X9247335Y-13959817D01*
X9247334Y-13959819D01*
X9226249Y-14092946D01*
X9226249Y-14092947D01*
X9247334Y-14226074D01*
X9247335Y-14226076D01*
X9308523Y-14346164D01*
X9308525Y-14346167D01*
X9327558Y-14365200D01*
X9355334Y-14419715D01*
X9356553Y-14435202D01*
X9356553Y-16250691D01*
X9337646Y-16308882D01*
X9327558Y-16320693D01*
X9308527Y-16339724D01*
X9308523Y-16339729D01*
X9247335Y-16459817D01*
X9247334Y-16459819D01*
X9226249Y-16592946D01*
X9226249Y-16592947D01*
X9247334Y-16726074D01*
X9247335Y-16726076D01*
X9298568Y-16826626D01*
X9308525Y-16846167D01*
X9327558Y-16865200D01*
X9355334Y-16919715D01*
X9356553Y-16935202D01*
X9356553Y-18750691D01*
X9337646Y-18808882D01*
X9327558Y-18820693D01*
X9308527Y-18839724D01*
X9308523Y-18839729D01*
X9247335Y-18959817D01*
X9247334Y-18959819D01*
X9226249Y-19092946D01*
X9226249Y-19092947D01*
X9247334Y-19226074D01*
X9247335Y-19226076D01*
X9308523Y-19346164D01*
X9308525Y-19346167D01*
X9327558Y-19365200D01*
X9355334Y-19419715D01*
X9356553Y-19435202D01*
X9356553Y-21250691D01*
X9337646Y-21308882D01*
X9327558Y-21320693D01*
X9308527Y-21339724D01*
X9308523Y-21339729D01*
X9247335Y-21459817D01*
X9247334Y-21459819D01*
X9226249Y-21592946D01*
X9226249Y-21592947D01*
X9247334Y-21726074D01*
X9247335Y-21726076D01*
X9308523Y-21846164D01*
X9308525Y-21846167D01*
X9327558Y-21865200D01*
X9355334Y-21919715D01*
X9356553Y-21935202D01*
X9356553Y-23750691D01*
X9337646Y-23808882D01*
X9327558Y-23820693D01*
X9308527Y-23839724D01*
X9308523Y-23839729D01*
X9247335Y-23959817D01*
X9247334Y-23959819D01*
X9226249Y-24092946D01*
X9226249Y-24092947D01*
X9247334Y-24226074D01*
X9247335Y-24226076D01*
X9308523Y-24346164D01*
X9308525Y-24346167D01*
X9327558Y-24365200D01*
X9355334Y-24419715D01*
X9356553Y-24435202D01*
X9356553Y-26250691D01*
X9337646Y-26308882D01*
X9327558Y-26320693D01*
X9308527Y-26339724D01*
X9308523Y-26339729D01*
X9247335Y-26459817D01*
X9247334Y-26459819D01*
X9226249Y-26592946D01*
X9226249Y-26592947D01*
X9247334Y-26726074D01*
X9247335Y-26726076D01*
X9308523Y-26846164D01*
X9308525Y-26846167D01*
X9327558Y-26865200D01*
X9355334Y-26919715D01*
X9356553Y-26935202D01*
X9356553Y-28750691D01*
X9337646Y-28808882D01*
X9327558Y-28820693D01*
X9308527Y-28839724D01*
X9308523Y-28839729D01*
X9247335Y-28959817D01*
X9247334Y-28959819D01*
X9226249Y-29092946D01*
X9226249Y-29092947D01*
X7587857Y-29092947D01*
X7566772Y-28959821D01*
X7505581Y-28839727D01*
X7505578Y-28839724D01*
X7486548Y-28820693D01*
X7458772Y-28766176D01*
X7457553Y-28750691D01*
X7457553Y-26935202D01*
X7476460Y-26877011D01*
X7486543Y-26865204D01*
X7505581Y-26846167D01*
X7566772Y-26726073D01*
X7587857Y-26592947D01*
X7566772Y-26459821D01*
X7505581Y-26339727D01*
X7505578Y-26339724D01*
X7486548Y-26320693D01*
X7458772Y-26266176D01*
X7457553Y-26250691D01*
X7457553Y-24435202D01*
X7476460Y-24377011D01*
X7486543Y-24365204D01*
X7505581Y-24346167D01*
X7566772Y-24226073D01*
X7587857Y-24092947D01*
X7566772Y-23959821D01*
X7505581Y-23839727D01*
X7503711Y-23837857D01*
X7486548Y-23820693D01*
X7458772Y-23766176D01*
X7457553Y-23750691D01*
X7457553Y-21935202D01*
X7476460Y-21877011D01*
X7486543Y-21865204D01*
X7505581Y-21846167D01*
X7566772Y-21726073D01*
X7587857Y-21592947D01*
X7566772Y-21459821D01*
X7505581Y-21339727D01*
X7503711Y-21337857D01*
X7486548Y-21320693D01*
X7458772Y-21266176D01*
X7457553Y-21250691D01*
X7457553Y-19435202D01*
X7476460Y-19377011D01*
X7486543Y-19365204D01*
X7505581Y-19346167D01*
X7566772Y-19226073D01*
X7587857Y-19092947D01*
X7566772Y-18959821D01*
X7505581Y-18839727D01*
X7503711Y-18837857D01*
X7486548Y-18820693D01*
X7458772Y-18766176D01*
X7457553Y-18750691D01*
X7457553Y-16935202D01*
X7476460Y-16877011D01*
X7486543Y-16865204D01*
X7505581Y-16846167D01*
X7566772Y-16726073D01*
X7587857Y-16592947D01*
X7566772Y-16459821D01*
X7505581Y-16339727D01*
X7503711Y-16337857D01*
X7486548Y-16320693D01*
X7458772Y-16266176D01*
X7457553Y-16250691D01*
X7457553Y-14435202D01*
X7476460Y-14377011D01*
X7486543Y-14365204D01*
X7505581Y-14346167D01*
X7566772Y-14226073D01*
X7587857Y-14092947D01*
X7566772Y-13959821D01*
X7505581Y-13839727D01*
X7503711Y-13837857D01*
X7486548Y-13820693D01*
X7458772Y-13766176D01*
X7457553Y-13750691D01*
X7457553Y-11935202D01*
X7476460Y-11877011D01*
X7486543Y-11865204D01*
X7505581Y-11846167D01*
X7566772Y-11726073D01*
X7587857Y-11592947D01*
X7587059Y-11587911D01*
X7577156Y-11525382D01*
X7566772Y-11459821D01*
X7505581Y-11339727D01*
X7410273Y-11244419D01*
X7410270Y-11244417D01*
X7290182Y-11183229D01*
X7290180Y-11183228D01*
X7157053Y-11162143D01*
X7023925Y-11183228D01*
X7023923Y-11183229D01*
X6903835Y-11244417D01*
X6808523Y-11339729D01*
X6747335Y-11459817D01*
X6747334Y-11459819D01*
X6726249Y-11592946D01*
X6726249Y-11592947D01*
X6747334Y-11726074D01*
X6747335Y-11726076D01*
X6808523Y-11846164D01*
X6808525Y-11846167D01*
X6827558Y-11865200D01*
X6855334Y-11919715D01*
X6856553Y-11935202D01*
X6856553Y-13750691D01*
X6837646Y-13808882D01*
X6827558Y-13820693D01*
X6808527Y-13839724D01*
X6808523Y-13839729D01*
X6747335Y-13959817D01*
X6747334Y-13959819D01*
X6726249Y-14092946D01*
X6726249Y-14092947D01*
X6747334Y-14226074D01*
X6747335Y-14226076D01*
X6808523Y-14346164D01*
X6808525Y-14346167D01*
X6827558Y-14365200D01*
X6855334Y-14419715D01*
X6856553Y-14435202D01*
X6856553Y-16250691D01*
X6837646Y-16308882D01*
X6827558Y-16320693D01*
X6808527Y-16339724D01*
X6808523Y-16339729D01*
X6747335Y-16459817D01*
X6747334Y-16459819D01*
X6726249Y-16592946D01*
X6726249Y-16592947D01*
X6747334Y-16726074D01*
X6747335Y-16726076D01*
X6798568Y-16826626D01*
X6808525Y-16846167D01*
X6827558Y-16865200D01*
X6855334Y-16919715D01*
X6856553Y-16935202D01*
X6856553Y-18750691D01*
X6837646Y-18808882D01*
X6827558Y-18820693D01*
X6808527Y-18839724D01*
X6808523Y-18839729D01*
X6747335Y-18959817D01*
X6747334Y-18959819D01*
X6726249Y-19092946D01*
X6726249Y-19092947D01*
X6747334Y-19226074D01*
X6747335Y-19226076D01*
X6808523Y-19346164D01*
X6808525Y-19346167D01*
X6827558Y-19365200D01*
X6855334Y-19419715D01*
X6856553Y-19435202D01*
X6856553Y-21250691D01*
X6837646Y-21308882D01*
X6827558Y-21320693D01*
X6808527Y-21339724D01*
X6808523Y-21339729D01*
X6747335Y-21459817D01*
X6747334Y-21459819D01*
X6726249Y-21592946D01*
X6726249Y-21592947D01*
X6747334Y-21726074D01*
X6747335Y-21726076D01*
X6808523Y-21846164D01*
X6808525Y-21846167D01*
X6827558Y-21865200D01*
X6855334Y-21919715D01*
X6856553Y-21935202D01*
X6856553Y-23750691D01*
X6837646Y-23808882D01*
X6827558Y-23820693D01*
X6808527Y-23839724D01*
X6808523Y-23839729D01*
X6747335Y-23959817D01*
X6747334Y-23959819D01*
X6726249Y-24092946D01*
X6726249Y-24092947D01*
X6747334Y-24226074D01*
X6747335Y-24226076D01*
X6808523Y-24346164D01*
X6808525Y-24346167D01*
X6827558Y-24365200D01*
X6855334Y-24419715D01*
X6856553Y-24435202D01*
X6856553Y-26250691D01*
X6837646Y-26308882D01*
X6827558Y-26320693D01*
X6808527Y-26339724D01*
X6808523Y-26339729D01*
X6747335Y-26459817D01*
X6747334Y-26459819D01*
X6726249Y-26592946D01*
X6726249Y-26592947D01*
X6747334Y-26726074D01*
X6747335Y-26726076D01*
X6808523Y-26846164D01*
X6808525Y-26846167D01*
X6827558Y-26865200D01*
X6855334Y-26919715D01*
X6856553Y-26935202D01*
X6856553Y-28750691D01*
X6837646Y-28808882D01*
X6827558Y-28820693D01*
X6808527Y-28839724D01*
X6808525Y-28839727D01*
X6746491Y-28961473D01*
X6703226Y-29004737D01*
X6642794Y-29014308D01*
X6588280Y-28986532D01*
X6503220Y-28901472D01*
X6503217Y-28901470D01*
X6383129Y-28840282D01*
X6383127Y-28840281D01*
X6250000Y-28819196D01*
X6116872Y-28840281D01*
X6116870Y-28840282D01*
X5996782Y-28901470D01*
X5901470Y-28996782D01*
X5840282Y-29116870D01*
X5840281Y-29116872D01*
X5819196Y-29249999D01*
X5819196Y-29250000D01*
X200500Y-29250000D01*
X200500Y-28000000D01*
X3569196Y-28000000D01*
X3590281Y-28133127D01*
X3590282Y-28133129D01*
X3651470Y-28253217D01*
X3651472Y-28253220D01*
X3746780Y-28348528D01*
X3866874Y-28409719D01*
X4000000Y-28430804D01*
X4133126Y-28409719D01*
X4253220Y-28348528D01*
X4348528Y-28253220D01*
X4409719Y-28133126D01*
X4426869Y-28024839D01*
X4454646Y-27970324D01*
X4823458Y-27601511D01*
X4834717Y-27593440D01*
X4833958Y-27592434D01*
X4841274Y-27586908D01*
X4841281Y-27586905D01*
X4873685Y-27551358D01*
X4875239Y-27549730D01*
X4889227Y-27535744D01*
X4891234Y-27532812D01*
X4895493Y-27527437D01*
X4916969Y-27503880D01*
X4920518Y-27494717D01*
X4931159Y-27474529D01*
X4936709Y-27466428D01*
X4944008Y-27435390D01*
X4946030Y-27428861D01*
X4957553Y-27399120D01*
X4957553Y-27389295D01*
X4960182Y-27366630D01*
X4962432Y-27357066D01*
X4958028Y-27325493D01*
X4957553Y-27318646D01*
X4957553Y-26935202D01*
X4976460Y-26877011D01*
X4986543Y-26865204D01*
X5005581Y-26846167D01*
X5066772Y-26726073D01*
X5087857Y-26592947D01*
X5066772Y-26459821D01*
X5005581Y-26339727D01*
X5005578Y-26339724D01*
X4986548Y-26320693D01*
X4958772Y-26266176D01*
X4957553Y-26250691D01*
X4957553Y-24435202D01*
X4976460Y-24377011D01*
X4986543Y-24365204D01*
X5005581Y-24346167D01*
X5066772Y-24226073D01*
X5087857Y-24092947D01*
X5066772Y-23959821D01*
X5056494Y-23939649D01*
X5046922Y-23879217D01*
X5074699Y-23824700D01*
X5129215Y-23796922D01*
X5189647Y-23806493D01*
X5209821Y-23816772D01*
X5342947Y-23837857D01*
X5476073Y-23816772D01*
X5596167Y-23755581D01*
X5691475Y-23660273D01*
X5752666Y-23540179D01*
X5773751Y-23407053D01*
X5752666Y-23273927D01*
X5691475Y-23153833D01*
X5596167Y-23058525D01*
X5596164Y-23058523D01*
X5476076Y-22997335D01*
X5476074Y-22997334D01*
X5342947Y-22976249D01*
X5209819Y-22997334D01*
X5209817Y-22997335D01*
X5089729Y-23058523D01*
X4994417Y-23153835D01*
X4933229Y-23273923D01*
X4933228Y-23273925D01*
X4912143Y-23407052D01*
X4912143Y-23407053D01*
X4933228Y-23540180D01*
X4943506Y-23560352D01*
X4953077Y-23620784D01*
X4925299Y-23675300D01*
X4870782Y-23703077D01*
X4810352Y-23693506D01*
X4790180Y-23683228D01*
X4657053Y-23662143D01*
X4523925Y-23683228D01*
X4523923Y-23683229D01*
X4403835Y-23744417D01*
X4308523Y-23839729D01*
X4247335Y-23959817D01*
X4247334Y-23959819D01*
X4226249Y-24092946D01*
X4226249Y-24092947D01*
X4247334Y-24226074D01*
X4247335Y-24226076D01*
X4308523Y-24346164D01*
X4308525Y-24346167D01*
X4327558Y-24365200D01*
X4355334Y-24419715D01*
X4356553Y-24435202D01*
X4356553Y-26250691D01*
X4337646Y-26308882D01*
X4327558Y-26320693D01*
X4308527Y-26339724D01*
X4308523Y-26339729D01*
X4247335Y-26459817D01*
X4247334Y-26459819D01*
X4226249Y-26592946D01*
X4226249Y-26592947D01*
X4247334Y-26726074D01*
X4247335Y-26726076D01*
X4308523Y-26846164D01*
X4308525Y-26846167D01*
X4327558Y-26865200D01*
X4355334Y-26919715D01*
X4356553Y-26935202D01*
X4356553Y-27177468D01*
X4337646Y-27235659D01*
X4327556Y-27247472D01*
X4029675Y-27545352D01*
X3975160Y-27573129D01*
X3866872Y-27590281D01*
X3866870Y-27590282D01*
X3746782Y-27651470D01*
X3651470Y-27746782D01*
X3590282Y-27866870D01*
X3590281Y-27866872D01*
X3569196Y-27999999D01*
X3569196Y-28000000D01*
X200500Y-28000000D01*
X200500Y-20907053D01*
X4912143Y-20907053D01*
X4933228Y-21040180D01*
X4933229Y-21040182D01*
X4994417Y-21160270D01*
X4994419Y-21160273D01*
X5089727Y-21255581D01*
X5089729Y-21255582D01*
X5160612Y-21291699D01*
X5209821Y-21316772D01*
X5342947Y-21337857D01*
X5476073Y-21316772D01*
X5596167Y-21255581D01*
X5691475Y-21160273D01*
X5752666Y-21040179D01*
X5773751Y-20907053D01*
X5752666Y-20773927D01*
X5691475Y-20653833D01*
X5596167Y-20558525D01*
X5596164Y-20558523D01*
X5476076Y-20497335D01*
X5476074Y-20497334D01*
X5342947Y-20476249D01*
X5209819Y-20497334D01*
X5209817Y-20497335D01*
X5089729Y-20558523D01*
X4994417Y-20653835D01*
X4933229Y-20773923D01*
X4933228Y-20773925D01*
X4912143Y-20907052D01*
X4912143Y-20907053D01*
X200500Y-20907053D01*
X200500Y-18407053D01*
X4912143Y-18407053D01*
X4933228Y-18540180D01*
X4933229Y-18540182D01*
X4994417Y-18660270D01*
X4994419Y-18660273D01*
X5089727Y-18755581D01*
X5089729Y-18755582D01*
X5160612Y-18791699D01*
X5209821Y-18816772D01*
X5342947Y-18837857D01*
X5476073Y-18816772D01*
X5596167Y-18755581D01*
X5691475Y-18660273D01*
X5752666Y-18540179D01*
X5773751Y-18407053D01*
X5752666Y-18273927D01*
X5691475Y-18153833D01*
X5596167Y-18058525D01*
X5596164Y-18058523D01*
X5476076Y-17997335D01*
X5476074Y-17997334D01*
X5342947Y-17976249D01*
X5209819Y-17997334D01*
X5209817Y-17997335D01*
X5089729Y-18058523D01*
X4994417Y-18153835D01*
X4933229Y-18273923D01*
X4933228Y-18273925D01*
X4912143Y-18407052D01*
X4912143Y-18407053D01*
X200500Y-18407053D01*
X200500Y-17271154D01*
X219407Y-17212963D01*
X268907Y-17176999D01*
X330093Y-17176999D01*
X379593Y-17212963D01*
X387705Y-17226201D01*
X401472Y-17253220D01*
X496780Y-17348528D01*
X616874Y-17409719D01*
X750000Y-17430804D01*
X883126Y-17409719D01*
X1003220Y-17348528D01*
X1054998Y-17296749D01*
X1109513Y-17268974D01*
X1169945Y-17278545D01*
X1195000Y-17296748D01*
X1246780Y-17348528D01*
X1366874Y-17409719D01*
X1500000Y-17430804D01*
X1633126Y-17409719D01*
X1753220Y-17348528D01*
X1804998Y-17296749D01*
X1859513Y-17268974D01*
X1919945Y-17278545D01*
X1945000Y-17296748D01*
X1996780Y-17348528D01*
X2116874Y-17409719D01*
X2250000Y-17430804D01*
X2383126Y-17409719D01*
X2503220Y-17348528D01*
X2598528Y-17253220D01*
X2659719Y-17133126D01*
X2680804Y-17000000D01*
X2659719Y-16866874D01*
X2598528Y-16746780D01*
X2503220Y-16651472D01*
X2503217Y-16651470D01*
X2383129Y-16590282D01*
X2383127Y-16590281D01*
X2250000Y-16569196D01*
X2116872Y-16590281D01*
X2116870Y-16590282D01*
X1996782Y-16651470D01*
X1996780Y-16651471D01*
X1996780Y-16651472D01*
X1945001Y-16703250D01*
X1890487Y-16731026D01*
X1830055Y-16721455D01*
X1804999Y-16703251D01*
X1753220Y-16651472D01*
X1753217Y-16651470D01*
X1633129Y-16590282D01*
X1633127Y-16590281D01*
X1500000Y-16569196D01*
X1366872Y-16590281D01*
X1366870Y-16590282D01*
X1246782Y-16651470D01*
X1246780Y-16651471D01*
X1246780Y-16651472D01*
X1195001Y-16703250D01*
X1140487Y-16731026D01*
X1080055Y-16721455D01*
X1054999Y-16703251D01*
X1003220Y-16651472D01*
X1003217Y-16651470D01*
X883129Y-16590282D01*
X883127Y-16590281D01*
X750000Y-16569196D01*
X616872Y-16590281D01*
X616870Y-16590282D01*
X496782Y-16651470D01*
X401471Y-16746781D01*
X387709Y-16773791D01*
X344444Y-16817055D01*
X284012Y-16826626D01*
X229495Y-16798848D01*
X201719Y-16744331D01*
X200500Y-16728845D01*
X200500Y-15907053D01*
X4912143Y-15907053D01*
X4933228Y-16040180D01*
X4933229Y-16040182D01*
X4985042Y-16141870D01*
X4994419Y-16160273D01*
X5089727Y-16255581D01*
X5089729Y-16255582D01*
X5160612Y-16291699D01*
X5209821Y-16316772D01*
X5342947Y-16337857D01*
X5476073Y-16316772D01*
X5596167Y-16255581D01*
X5691475Y-16160273D01*
X5752666Y-16040179D01*
X5773751Y-15907053D01*
X5752666Y-15773927D01*
X5691475Y-15653833D01*
X5596167Y-15558525D01*
X5596164Y-15558523D01*
X5476076Y-15497335D01*
X5476074Y-15497334D01*
X5342947Y-15476249D01*
X5209819Y-15497334D01*
X5209817Y-15497335D01*
X5089729Y-15558523D01*
X4994417Y-15653835D01*
X4933229Y-15773923D01*
X4933228Y-15773925D01*
X4912143Y-15907052D01*
X4912143Y-15907053D01*
X200500Y-15907053D01*
X200500Y-13407053D01*
X4912143Y-13407053D01*
X4933228Y-13540180D01*
X4933229Y-13540182D01*
X4994417Y-13660270D01*
X4994419Y-13660273D01*
X5089727Y-13755581D01*
X5089729Y-13755582D01*
X5160612Y-13791699D01*
X5209821Y-13816772D01*
X5342947Y-13837857D01*
X5476073Y-13816772D01*
X5596167Y-13755581D01*
X5691475Y-13660273D01*
X5752666Y-13540179D01*
X5773751Y-13407053D01*
X5752666Y-13273927D01*
X5691475Y-13153833D01*
X5596167Y-13058525D01*
X5596164Y-13058523D01*
X5476076Y-12997335D01*
X5476074Y-12997334D01*
X5342947Y-12976249D01*
X5209819Y-12997334D01*
X5209817Y-12997335D01*
X5089729Y-13058523D01*
X4994417Y-13153835D01*
X4933229Y-13273923D01*
X4933228Y-13273925D01*
X4912143Y-13407052D01*
X4912143Y-13407053D01*
X200500Y-13407053D01*
X200500Y-10907053D01*
X4912143Y-10907053D01*
X4933228Y-11040180D01*
X4933229Y-11040182D01*
X4994417Y-11160270D01*
X4994419Y-11160273D01*
X5089727Y-11255581D01*
X5089729Y-11255582D01*
X5160612Y-11291699D01*
X5209821Y-11316772D01*
X5342947Y-11337857D01*
X5476073Y-11316772D01*
X5596167Y-11255581D01*
X5691475Y-11160273D01*
X5752666Y-11040179D01*
X5773751Y-10907053D01*
X5752666Y-10773927D01*
X5691475Y-10653833D01*
X5596167Y-10558525D01*
X5596164Y-10558523D01*
X5476076Y-10497335D01*
X5476074Y-10497334D01*
X5342947Y-10476249D01*
X5209819Y-10497334D01*
X5209817Y-10497335D01*
X5089729Y-10558523D01*
X4994417Y-10653835D01*
X4933229Y-10773923D01*
X4933228Y-10773925D01*
X4912143Y-10907052D01*
X4912143Y-10907053D01*
X200500Y-10907053D01*
X200500Y-10271154D01*
X219407Y-10212963D01*
X268907Y-10176999D01*
X330093Y-10176999D01*
X379593Y-10212963D01*
X387705Y-10226201D01*
X401472Y-10253220D01*
X496780Y-10348528D01*
X616874Y-10409719D01*
X750000Y-10430804D01*
X883126Y-10409719D01*
X1003220Y-10348528D01*
X1098528Y-10253220D01*
X1134219Y-10183171D01*
X1177482Y-10139910D01*
X1237914Y-10130338D01*
X1292430Y-10158115D01*
X1320208Y-10212632D01*
X1320209Y-10243602D01*
X1319196Y-10249999D01*
X1319196Y-10250000D01*
X1340281Y-10383127D01*
X1340282Y-10383129D01*
X1398473Y-10497335D01*
X1401472Y-10503220D01*
X1496780Y-10598528D01*
X1616874Y-10659719D01*
X1750000Y-10680804D01*
X1883126Y-10659719D01*
X2003220Y-10598528D01*
X2098528Y-10503220D01*
X2159719Y-10383126D01*
X2180804Y-10250000D01*
X2159719Y-10116874D01*
X2098528Y-9996780D01*
X2003220Y-9901472D01*
X2003217Y-9901470D01*
X1883129Y-9840282D01*
X1883127Y-9840281D01*
X1750000Y-9819196D01*
X1616872Y-9840281D01*
X1616870Y-9840282D01*
X1496782Y-9901470D01*
X1401471Y-9996781D01*
X1365781Y-10066826D01*
X1322516Y-10110090D01*
X1262084Y-10119661D01*
X1207568Y-10091883D01*
X1179791Y-10037366D01*
X1179791Y-10006395D01*
X1180804Y-10000000D01*
X1159719Y-9866874D01*
X1098528Y-9746780D01*
X1003220Y-9651472D01*
X1003217Y-9651470D01*
X883129Y-9590282D01*
X883127Y-9590281D01*
X750000Y-9569196D01*
X616872Y-9590281D01*
X616870Y-9590282D01*
X496782Y-9651470D01*
X401471Y-9746781D01*
X387709Y-9773791D01*
X344444Y-9817055D01*
X284012Y-9826626D01*
X229495Y-9798848D01*
X201719Y-9744331D01*
X200500Y-9728845D01*
X200500Y-9000000D01*
X5319196Y-9000000D01*
X5340281Y-9133127D01*
X5340282Y-9133129D01*
X5387640Y-9226074D01*
X5401472Y-9253220D01*
X5496780Y-9348528D01*
X5616874Y-9409719D01*
X5750000Y-9430804D01*
X5759429Y-9429310D01*
X5819860Y-9438880D01*
X5863125Y-9482143D01*
X5872699Y-9542575D01*
X5863127Y-9572036D01*
X5840281Y-9616874D01*
X5819196Y-9749999D01*
X5819196Y-9750000D01*
X5840281Y-9883127D01*
X5840282Y-9883129D01*
X5899831Y-10000000D01*
X5901472Y-10003220D01*
X5996780Y-10098528D01*
X6116874Y-10159719D01*
X6250000Y-10180804D01*
X6383126Y-10159719D01*
X6503220Y-10098528D01*
X6598528Y-10003220D01*
X6659719Y-9883126D01*
X6680804Y-9750000D01*
X6659719Y-9616874D01*
X6598528Y-9496780D01*
X6503220Y-9401472D01*
X6503217Y-9401470D01*
X6383129Y-9340282D01*
X6383127Y-9340281D01*
X6250000Y-9319196D01*
X6240565Y-9320690D01*
X6180134Y-9311116D01*
X6136871Y-9267850D01*
X6127301Y-9207417D01*
X6136870Y-9177968D01*
X6159719Y-9133126D01*
X6180804Y-9000000D01*
X6159719Y-8866874D01*
X6098528Y-8746780D01*
X6003220Y-8651472D01*
X6003217Y-8651470D01*
X5883129Y-8590282D01*
X5883127Y-8590281D01*
X5750000Y-8569196D01*
X5616872Y-8590281D01*
X5616870Y-8590282D01*
X5496782Y-8651470D01*
X5401470Y-8746782D01*
X5340282Y-8866870D01*
X5340281Y-8866872D01*
X5319196Y-8999999D01*
X5319196Y-9000000D01*
X200500Y-9000000D01*
X200500Y-8736500D01*
X219407Y-8678309D01*
X268907Y-8642345D01*
X330093Y-8642345D01*
X344437Y-8648287D01*
X366874Y-8659719D01*
X500000Y-8680804D01*
X633126Y-8659719D01*
X753220Y-8598528D01*
X848528Y-8503220D01*
X909719Y-8383126D01*
X930804Y-8250000D01*
X909719Y-8116874D01*
X848528Y-7996780D01*
X753220Y-7901472D01*
X753217Y-7901470D01*
X633129Y-7840282D01*
X633127Y-7840281D01*
X500000Y-7819196D01*
X366872Y-7840281D01*
X344444Y-7851709D01*
X284012Y-7861280D01*
X229496Y-7833502D01*
X201719Y-7778985D01*
X200500Y-7763499D01*
X200500Y-5250000D01*
X5319196Y-5250000D01*
X5340281Y-5383127D01*
X5340282Y-5383129D01*
X5401470Y-5503217D01*
X5401472Y-5503220D01*
X5496780Y-5598528D01*
X5616874Y-5659719D01*
X5750000Y-5680804D01*
X5883126Y-5659719D01*
X6003220Y-5598528D01*
X6098528Y-5503220D01*
X6159719Y-5383126D01*
X6180804Y-5250000D01*
X6159719Y-5116874D01*
X6098528Y-4996780D01*
X6046749Y-4945001D01*
X6018974Y-4890487D01*
X6028545Y-4830055D01*
X6046748Y-4804999D01*
X6098528Y-4753220D01*
X6100169Y-4750000D01*
X22569196Y-4750000D01*
X22590281Y-4883127D01*
X22590282Y-4883129D01*
X22651470Y-5003217D01*
X22651472Y-5003220D01*
X22746780Y-5098528D01*
X22866874Y-5159719D01*
X23000000Y-5180804D01*
X23133126Y-5159719D01*
X23253220Y-5098528D01*
X23272253Y-5079494D01*
X23326768Y-5051719D01*
X23342255Y-5050500D01*
X26084521Y-5050500D01*
X26142712Y-5069407D01*
X26154525Y-5079496D01*
X28795352Y-7720323D01*
X28823129Y-7774839D01*
X28840281Y-7883127D01*
X28840282Y-7883129D01*
X28901470Y-8003217D01*
X28901472Y-8003220D01*
X28920505Y-8022253D01*
X28948281Y-8076768D01*
X28949500Y-8092255D01*
X28949500Y-9242640D01*
X28930593Y-9300831D01*
X28881093Y-9336795D01*
X28867721Y-9340005D01*
X28866870Y-9340282D01*
X28746782Y-9401470D01*
X28651470Y-9496782D01*
X28590282Y-9616870D01*
X28590281Y-9616872D01*
X28569196Y-9749999D01*
X28569196Y-9750000D01*
X28590281Y-9883127D01*
X28590282Y-9883129D01*
X28649831Y-10000000D01*
X28651472Y-10003220D01*
X28670505Y-10022253D01*
X28698281Y-10076768D01*
X28699500Y-10092255D01*
X28699500Y-10870729D01*
X28697280Y-10884407D01*
X28698494Y-10884577D01*
X28697226Y-10893660D01*
X28699447Y-10941677D01*
X28699500Y-10943963D01*
X28699500Y-10963736D01*
X28700152Y-10967226D01*
X28700943Y-10974043D01*
X28702414Y-11005881D01*
X28702415Y-11005888D01*
X28706384Y-11014876D01*
X28713133Y-11036667D01*
X28714939Y-11046327D01*
X28731717Y-11073427D01*
X28734915Y-11079494D01*
X28747793Y-11108657D01*
X28747794Y-11108659D01*
X28754745Y-11115610D01*
X28768907Y-11133490D01*
X28771885Y-11138299D01*
X28774081Y-11141846D01*
X28799511Y-11161050D01*
X28804690Y-11165556D01*
X29202405Y-11563270D01*
X29230182Y-11617786D01*
X29247334Y-11726074D01*
X29247335Y-11726076D01*
X29308523Y-11846164D01*
X29308525Y-11846167D01*
X29327558Y-11865200D01*
X29355334Y-11919715D01*
X29356553Y-11935202D01*
X29356553Y-13750691D01*
X29337646Y-13808882D01*
X29327558Y-13820693D01*
X29308527Y-13839724D01*
X29308523Y-13839729D01*
X29247335Y-13959817D01*
X29247334Y-13959819D01*
X29226249Y-14092946D01*
X29226249Y-14092947D01*
X29247334Y-14226074D01*
X29247335Y-14226076D01*
X29308523Y-14346164D01*
X29308525Y-14346167D01*
X29327558Y-14365200D01*
X29355334Y-14419715D01*
X29356553Y-14435202D01*
X29356553Y-16250691D01*
X29337646Y-16308882D01*
X29327558Y-16320693D01*
X29308527Y-16339724D01*
X29308523Y-16339729D01*
X29247335Y-16459817D01*
X29247334Y-16459819D01*
X29226249Y-16592946D01*
X29226249Y-16592947D01*
X29247334Y-16726074D01*
X29247335Y-16726076D01*
X29298568Y-16826626D01*
X29308525Y-16846167D01*
X29327558Y-16865200D01*
X29355334Y-16919715D01*
X29356553Y-16935202D01*
X29356553Y-18750691D01*
X29337646Y-18808882D01*
X29327558Y-18820693D01*
X29308527Y-18839724D01*
X29308523Y-18839729D01*
X29247335Y-18959817D01*
X29247334Y-18959819D01*
X29226249Y-19092946D01*
X29226249Y-19092947D01*
X29247334Y-19226074D01*
X29247335Y-19226076D01*
X29308523Y-19346164D01*
X29308525Y-19346167D01*
X29327558Y-19365200D01*
X29355334Y-19419715D01*
X29356553Y-19435202D01*
X29356553Y-21250691D01*
X29337646Y-21308882D01*
X29327558Y-21320693D01*
X29308527Y-21339724D01*
X29308523Y-21339729D01*
X29247335Y-21459817D01*
X29247334Y-21459819D01*
X29226249Y-21592946D01*
X29226249Y-21592947D01*
X29247334Y-21726074D01*
X29247335Y-21726076D01*
X29308523Y-21846164D01*
X29308525Y-21846167D01*
X29327558Y-21865200D01*
X29355334Y-21919715D01*
X29356553Y-21935202D01*
X29356553Y-23750691D01*
X29337646Y-23808882D01*
X29327558Y-23820693D01*
X29308527Y-23839724D01*
X29308523Y-23839729D01*
X29247335Y-23959817D01*
X29247334Y-23959819D01*
X29226249Y-24092946D01*
X29226249Y-24092947D01*
X29247334Y-24226074D01*
X29247335Y-24226076D01*
X29308523Y-24346164D01*
X29308525Y-24346167D01*
X29327558Y-24365200D01*
X29355334Y-24419715D01*
X29356553Y-24435202D01*
X29356553Y-26250691D01*
X29337646Y-26308882D01*
X29327558Y-26320693D01*
X29308527Y-26339724D01*
X29308523Y-26339729D01*
X29247335Y-26459817D01*
X29247334Y-26459819D01*
X29226249Y-26592946D01*
X29226249Y-26592947D01*
X29247334Y-26726074D01*
X29247335Y-26726076D01*
X29308523Y-26846164D01*
X29308525Y-26846167D01*
X29327558Y-26865200D01*
X29355334Y-26919715D01*
X29356553Y-26935202D01*
X29356553Y-28750691D01*
X29337646Y-28808882D01*
X29327558Y-28820693D01*
X29308527Y-28839724D01*
X29308523Y-28839729D01*
X29247335Y-28959817D01*
X29247334Y-28959819D01*
X29226249Y-29092946D01*
X29226249Y-29092947D01*
X29247334Y-29226074D01*
X29247335Y-29226076D01*
X29304470Y-29338209D01*
X29308525Y-29346167D01*
X29403833Y-29441475D01*
X29523927Y-29502666D01*
X29657053Y-29523751D01*
X29790179Y-29502666D01*
X29910273Y-29441475D01*
X30005581Y-29346167D01*
X30066772Y-29226073D01*
X30087857Y-29092947D01*
X30066772Y-28959821D01*
X30005581Y-28839727D01*
X30005578Y-28839724D01*
X29986548Y-28820693D01*
X29958772Y-28766176D01*
X29957553Y-28750691D01*
X29957553Y-26935202D01*
X29976460Y-26877011D01*
X29986543Y-26865204D01*
X30005581Y-26846167D01*
X30066772Y-26726073D01*
X30087857Y-26592947D01*
X30066772Y-26459821D01*
X30005581Y-26339727D01*
X30005578Y-26339724D01*
X29986548Y-26320693D01*
X29958772Y-26266176D01*
X29957553Y-26250691D01*
X29957553Y-25750000D01*
X30819196Y-25750000D01*
X30840281Y-25883127D01*
X30840282Y-25883129D01*
X30901470Y-26003217D01*
X30901472Y-26003220D01*
X30996780Y-26098528D01*
X31116874Y-26159719D01*
X31250000Y-26180804D01*
X31383126Y-26159719D01*
X31503220Y-26098528D01*
X31598528Y-26003220D01*
X31659719Y-25883126D01*
X31680804Y-25750000D01*
X32569196Y-25750000D01*
X32590281Y-25883127D01*
X32590282Y-25883129D01*
X32651470Y-26003217D01*
X32651472Y-26003220D01*
X32746780Y-26098528D01*
X32866874Y-26159719D01*
X33000000Y-26180804D01*
X33133126Y-26159719D01*
X33253220Y-26098528D01*
X33348528Y-26003220D01*
X33409719Y-25883126D01*
X33430804Y-25750000D01*
X33409719Y-25616874D01*
X33348528Y-25496780D01*
X33253220Y-25401472D01*
X33253217Y-25401470D01*
X33133129Y-25340282D01*
X33133127Y-25340281D01*
X33000000Y-25319196D01*
X32866872Y-25340281D01*
X32866870Y-25340282D01*
X32746782Y-25401470D01*
X32651470Y-25496782D01*
X32590282Y-25616870D01*
X32590281Y-25616872D01*
X32569196Y-25749999D01*
X32569196Y-25750000D01*
X31680804Y-25750000D01*
X31659719Y-25616874D01*
X31598528Y-25496780D01*
X31503220Y-25401472D01*
X31503217Y-25401470D01*
X31383129Y-25340282D01*
X31383127Y-25340281D01*
X31250000Y-25319196D01*
X31116872Y-25340281D01*
X31116870Y-25340282D01*
X30996782Y-25401470D01*
X30901470Y-25496782D01*
X30840282Y-25616870D01*
X30840281Y-25616872D01*
X30819196Y-25749999D01*
X30819196Y-25750000D01*
X29957553Y-25750000D01*
X29957553Y-24500000D01*
X31719196Y-24500000D01*
X31740281Y-24633127D01*
X31740282Y-24633129D01*
X31801470Y-24753217D01*
X31801472Y-24753220D01*
X31896780Y-24848528D01*
X32016874Y-24909719D01*
X32150000Y-24930804D01*
X32283126Y-24909719D01*
X32403220Y-24848528D01*
X32498528Y-24753220D01*
X32559719Y-24633126D01*
X32580804Y-24500000D01*
X32559719Y-24366874D01*
X32498528Y-24246780D01*
X32403220Y-24151472D01*
X32403217Y-24151470D01*
X32283129Y-24090282D01*
X32283127Y-24090281D01*
X32150000Y-24069196D01*
X32016872Y-24090281D01*
X32016870Y-24090282D01*
X31896782Y-24151470D01*
X31801470Y-24246782D01*
X31740282Y-24366870D01*
X31740281Y-24366872D01*
X31719196Y-24499999D01*
X31719196Y-24500000D01*
X29957553Y-24500000D01*
X29957553Y-24435202D01*
X29976460Y-24377011D01*
X29986543Y-24365204D01*
X30005581Y-24346167D01*
X30066772Y-24226073D01*
X30087857Y-24092947D01*
X30066772Y-23959821D01*
X30005581Y-23839727D01*
X30003711Y-23837857D01*
X29986548Y-23820693D01*
X29958772Y-23766176D01*
X29957553Y-23750691D01*
X29957553Y-23250000D01*
X30819196Y-23250000D01*
X30840281Y-23383127D01*
X30840282Y-23383129D01*
X30852472Y-23407053D01*
X30901472Y-23503220D01*
X30996780Y-23598528D01*
X31116874Y-23659719D01*
X31250000Y-23680804D01*
X31383126Y-23659719D01*
X31503220Y-23598528D01*
X31598528Y-23503220D01*
X31659719Y-23383126D01*
X31680804Y-23250000D01*
X32569196Y-23250000D01*
X32590281Y-23383127D01*
X32590282Y-23383129D01*
X32602472Y-23407053D01*
X32651472Y-23503220D01*
X32746780Y-23598528D01*
X32866874Y-23659719D01*
X33000000Y-23680804D01*
X33133126Y-23659719D01*
X33253220Y-23598528D01*
X33348528Y-23503220D01*
X33409719Y-23383126D01*
X33430804Y-23250000D01*
X33409719Y-23116874D01*
X33348528Y-22996780D01*
X33253220Y-22901472D01*
X33253217Y-22901470D01*
X33133129Y-22840282D01*
X33133127Y-22840281D01*
X33000000Y-22819196D01*
X32866872Y-22840281D01*
X32866870Y-22840282D01*
X32746782Y-22901470D01*
X32651470Y-22996782D01*
X32590282Y-23116870D01*
X32590281Y-23116872D01*
X32569196Y-23249999D01*
X32569196Y-23250000D01*
X31680804Y-23250000D01*
X31659719Y-23116874D01*
X31598528Y-22996780D01*
X31503220Y-22901472D01*
X31503217Y-22901470D01*
X31383129Y-22840282D01*
X31383127Y-22840281D01*
X31250000Y-22819196D01*
X31116872Y-22840281D01*
X31116870Y-22840282D01*
X30996782Y-22901470D01*
X30901470Y-22996782D01*
X30840282Y-23116870D01*
X30840281Y-23116872D01*
X30819196Y-23249999D01*
X30819196Y-23250000D01*
X29957553Y-23250000D01*
X29957553Y-21935202D01*
X29976460Y-21877011D01*
X29986543Y-21865204D01*
X30005581Y-21846167D01*
X30066772Y-21726073D01*
X30087857Y-21592947D01*
X30066772Y-21459821D01*
X30005581Y-21339727D01*
X30003711Y-21337857D01*
X29986548Y-21320693D01*
X29958772Y-21266176D01*
X29957553Y-21250691D01*
X29957553Y-19435202D01*
X29976460Y-19377011D01*
X29986543Y-19365204D01*
X30005581Y-19346167D01*
X30066772Y-19226073D01*
X30087857Y-19092947D01*
X30066772Y-18959821D01*
X30005581Y-18839727D01*
X30003711Y-18837857D01*
X29986548Y-18820693D01*
X29958772Y-18766176D01*
X29957553Y-18750691D01*
X29957553Y-18725000D01*
X31669196Y-18725000D01*
X31690281Y-18858127D01*
X31690282Y-18858129D01*
X31742095Y-18959817D01*
X31751472Y-18978220D01*
X31846780Y-19073528D01*
X31966874Y-19134719D01*
X32100000Y-19155804D01*
X32228255Y-19135490D01*
X32288685Y-19145061D01*
X32331949Y-19188325D01*
X32341521Y-19248757D01*
X32324621Y-19290361D01*
X32265586Y-19373995D01*
X32215828Y-19513997D01*
X32205690Y-19662232D01*
X32235917Y-19807698D01*
X32235919Y-19807706D01*
X32271309Y-19876004D01*
X32304276Y-19939626D01*
X32405690Y-20048214D01*
X32532640Y-20125414D01*
X32675710Y-20165500D01*
X32675711Y-20165500D01*
X32786968Y-20165500D01*
X32786974Y-20165500D01*
X32897196Y-20150350D01*
X33033476Y-20091156D01*
X33148731Y-19997389D01*
X33234414Y-19876003D01*
X33284171Y-19736002D01*
X33294310Y-19587768D01*
X33278980Y-19513997D01*
X33264082Y-19442301D01*
X33264080Y-19442293D01*
X33195725Y-19310376D01*
X33195723Y-19310373D01*
X33094311Y-19201787D01*
X33094310Y-19201786D01*
X32967360Y-19124586D01*
X32967359Y-19124585D01*
X32967358Y-19124585D01*
X32824290Y-19084500D01*
X32713026Y-19084500D01*
X32602805Y-19099649D01*
X32602801Y-19099650D01*
X32577980Y-19110432D01*
X32517074Y-19116273D01*
X32464367Y-19085198D01*
X32439991Y-19029078D01*
X32450329Y-18974684D01*
X32509719Y-18858126D01*
X32530804Y-18725000D01*
X32509719Y-18591874D01*
X32448528Y-18471780D01*
X32353220Y-18376472D01*
X32353217Y-18376470D01*
X32233129Y-18315282D01*
X32233127Y-18315281D01*
X32100000Y-18294196D01*
X31966872Y-18315281D01*
X31966870Y-18315282D01*
X31846782Y-18376470D01*
X31751470Y-18471782D01*
X31690282Y-18591870D01*
X31690281Y-18591872D01*
X31669196Y-18724999D01*
X31669196Y-18725000D01*
X29957553Y-18725000D01*
X29957553Y-16935202D01*
X29976460Y-16877011D01*
X29986543Y-16865204D01*
X30005581Y-16846167D01*
X30066772Y-16726073D01*
X30087857Y-16592947D01*
X30066772Y-16459821D01*
X30005581Y-16339727D01*
X30003711Y-16337857D01*
X29986548Y-16320693D01*
X29963268Y-16275000D01*
X31669196Y-16275000D01*
X31690281Y-16408127D01*
X31690282Y-16408129D01*
X31751470Y-16528217D01*
X31751472Y-16528220D01*
X31846780Y-16623528D01*
X31966874Y-16684719D01*
X32100000Y-16705804D01*
X32233126Y-16684719D01*
X32353220Y-16623528D01*
X32448528Y-16528220D01*
X32509719Y-16408126D01*
X32530804Y-16275000D01*
X32529406Y-16266176D01*
X32512633Y-16160273D01*
X32509719Y-16141874D01*
X32450036Y-16024740D01*
X32440465Y-15964311D01*
X32468242Y-15909794D01*
X32522758Y-15882016D01*
X32564954Y-15884467D01*
X32675710Y-15915500D01*
X32675711Y-15915500D01*
X32786968Y-15915500D01*
X32786974Y-15915500D01*
X32897196Y-15900350D01*
X33033476Y-15841156D01*
X33148731Y-15747389D01*
X33234414Y-15626003D01*
X33284171Y-15486002D01*
X33294310Y-15337768D01*
X33278980Y-15263997D01*
X33264082Y-15192301D01*
X33264080Y-15192293D01*
X33195725Y-15060376D01*
X33195723Y-15060373D01*
X33094311Y-14951787D01*
X33094310Y-14951786D01*
X32967360Y-14874586D01*
X32967359Y-14874585D01*
X32967358Y-14874585D01*
X32824290Y-14834500D01*
X32713026Y-14834500D01*
X32602805Y-14849649D01*
X32602801Y-14849650D01*
X32466524Y-14908843D01*
X32466522Y-14908844D01*
X32351268Y-15002610D01*
X32265587Y-15123995D01*
X32215828Y-15263997D01*
X32205690Y-15412232D01*
X32235917Y-15557698D01*
X32235919Y-15557706D01*
X32304274Y-15689623D01*
X32304279Y-15689630D01*
X32312667Y-15698611D01*
X32338569Y-15754043D01*
X32326941Y-15814113D01*
X32282225Y-15855877D01*
X32224830Y-15863966D01*
X32100002Y-15844196D01*
X32100000Y-15844196D01*
X31966872Y-15865281D01*
X31966870Y-15865282D01*
X31846782Y-15926470D01*
X31751470Y-16021782D01*
X31690282Y-16141870D01*
X31690281Y-16141872D01*
X31669196Y-16274999D01*
X31669196Y-16275000D01*
X29963268Y-16275000D01*
X29958772Y-16266176D01*
X29957553Y-16250691D01*
X29957553Y-14435202D01*
X29976460Y-14377011D01*
X29986543Y-14365204D01*
X30005581Y-14346167D01*
X30066772Y-14226073D01*
X30087857Y-14092947D01*
X30066772Y-13959821D01*
X30005581Y-13839727D01*
X30003711Y-13837857D01*
X29986548Y-13820693D01*
X29958772Y-13766176D01*
X29957553Y-13750691D01*
X29957553Y-11935202D01*
X29976460Y-11877011D01*
X29986543Y-11865204D01*
X30005581Y-11846167D01*
X30066772Y-11726073D01*
X30087857Y-11592947D01*
X30087059Y-11587911D01*
X30077156Y-11525382D01*
X30066772Y-11459821D01*
X30005581Y-11339727D01*
X29910273Y-11244419D01*
X29910270Y-11244417D01*
X29790182Y-11183229D01*
X29790180Y-11183228D01*
X29681892Y-11166076D01*
X29627376Y-11138299D01*
X29329496Y-10840419D01*
X29301719Y-10785902D01*
X29300500Y-10770415D01*
X29300500Y-10092255D01*
X29319407Y-10034064D01*
X29329490Y-10022257D01*
X29348528Y-10003220D01*
X29409719Y-9883126D01*
X29426603Y-9776522D01*
X29451220Y-9725317D01*
X29466630Y-9708413D01*
X29468166Y-9706803D01*
X29482174Y-9692797D01*
X29484181Y-9689865D01*
X29488440Y-9684490D01*
X29498706Y-9673229D01*
X29509916Y-9660933D01*
X29513465Y-9651770D01*
X29524106Y-9631582D01*
X29529656Y-9623481D01*
X29536955Y-9592443D01*
X29538977Y-9585914D01*
X29550500Y-9556173D01*
X29550500Y-9546348D01*
X29553129Y-9523683D01*
X29555379Y-9514119D01*
X29550975Y-9482546D01*
X29550500Y-9475699D01*
X29550500Y-8092255D01*
X29569407Y-8034064D01*
X29579490Y-8022257D01*
X29598528Y-8003220D01*
X29600169Y-8000000D01*
X31569196Y-8000000D01*
X31590281Y-8133127D01*
X31590282Y-8133129D01*
X31649831Y-8250000D01*
X31651472Y-8253220D01*
X31746780Y-8348528D01*
X31866874Y-8409719D01*
X32000000Y-8430804D01*
X32133126Y-8409719D01*
X32253220Y-8348528D01*
X32348528Y-8253220D01*
X32409719Y-8133126D01*
X32430804Y-8000000D01*
X32409719Y-7866874D01*
X32348528Y-7746780D01*
X32253220Y-7651472D01*
X32253217Y-7651470D01*
X32129061Y-7588209D01*
X32085796Y-7544945D01*
X32076225Y-7484513D01*
X32104003Y-7429996D01*
X32129061Y-7411791D01*
X32217222Y-7366870D01*
X32253220Y-7348528D01*
X32348528Y-7253220D01*
X32409719Y-7133126D01*
X32430804Y-7000000D01*
X32409719Y-6866874D01*
X32348528Y-6746780D01*
X32253220Y-6651472D01*
X32253217Y-6651470D01*
X32133129Y-6590282D01*
X32133127Y-6590281D01*
X32000000Y-6569196D01*
X31866872Y-6590281D01*
X31866870Y-6590282D01*
X31746782Y-6651470D01*
X31651470Y-6746782D01*
X31590282Y-6866870D01*
X31590281Y-6866872D01*
X31569196Y-6999999D01*
X31569196Y-7000000D01*
X31590281Y-7133127D01*
X31590282Y-7133129D01*
X31651470Y-7253217D01*
X31651472Y-7253220D01*
X31746780Y-7348528D01*
X31782778Y-7366870D01*
X31870939Y-7411791D01*
X31914203Y-7455056D01*
X31923774Y-7515488D01*
X31895996Y-7570004D01*
X31870939Y-7588209D01*
X31746781Y-7651471D01*
X31651470Y-7746782D01*
X31590282Y-7866870D01*
X31590281Y-7866872D01*
X31569196Y-7999999D01*
X31569196Y-8000000D01*
X29600169Y-8000000D01*
X29659719Y-7883126D01*
X29680804Y-7750000D01*
X29680006Y-7744964D01*
X29665682Y-7654524D01*
X29659719Y-7616874D01*
X29598528Y-7496780D01*
X29503220Y-7401472D01*
X29503217Y-7401470D01*
X29383129Y-7340282D01*
X29383127Y-7340281D01*
X29274839Y-7323129D01*
X29220323Y-7295352D01*
X26508565Y-4583594D01*
X26500479Y-4572344D01*
X26499487Y-4573094D01*
X26493957Y-4565771D01*
X26458428Y-4533381D01*
X26456774Y-4531802D01*
X26447390Y-4522419D01*
X26419613Y-4467902D01*
X26429184Y-4407470D01*
X26472445Y-4364208D01*
X26503220Y-4348528D01*
X26598528Y-4253220D01*
X26659719Y-4133126D01*
X26680804Y-4000000D01*
X26659719Y-3866874D01*
X26598528Y-3746780D01*
X26503220Y-3651472D01*
X26503217Y-3651470D01*
X26383129Y-3590282D01*
X26383127Y-3590281D01*
X26250000Y-3569196D01*
X26116872Y-3590281D01*
X26116870Y-3590282D01*
X25996782Y-3651470D01*
X25901470Y-3746782D01*
X25840282Y-3866870D01*
X25840281Y-3866872D01*
X25819196Y-3999999D01*
X25819196Y-4000000D01*
X25840281Y-4133127D01*
X25840282Y-4133129D01*
X25901470Y-4253217D01*
X25901472Y-4253220D01*
X25928750Y-4280498D01*
X25956526Y-4335013D01*
X25946955Y-4395445D01*
X25903690Y-4438710D01*
X25858745Y-4449500D01*
X23342255Y-4449500D01*
X23284064Y-4430593D01*
X23272257Y-4420509D01*
X23253220Y-4401472D01*
X23253217Y-4401470D01*
X23133129Y-4340282D01*
X23133127Y-4340281D01*
X23000000Y-4319196D01*
X22866872Y-4340281D01*
X22866870Y-4340282D01*
X22746782Y-4401470D01*
X22651470Y-4496782D01*
X22590282Y-4616870D01*
X22590281Y-4616872D01*
X22569196Y-4749999D01*
X22569196Y-4750000D01*
X6100169Y-4750000D01*
X6159719Y-4633126D01*
X6180804Y-4500000D01*
X6179233Y-4490084D01*
X6174826Y-4462259D01*
X6159719Y-4366874D01*
X6098528Y-4246780D01*
X6003220Y-4151472D01*
X6003217Y-4151470D01*
X5883129Y-4090282D01*
X5883127Y-4090281D01*
X5750000Y-4069196D01*
X5616872Y-4090281D01*
X5616870Y-4090282D01*
X5496782Y-4151470D01*
X5401470Y-4246782D01*
X5340282Y-4366870D01*
X5340281Y-4366872D01*
X5319196Y-4499999D01*
X5319196Y-4500000D01*
X5340281Y-4633127D01*
X5340282Y-4633129D01*
X5399831Y-4750000D01*
X5401472Y-4753220D01*
X5453250Y-4804998D01*
X5481026Y-4859513D01*
X5471455Y-4919945D01*
X5453251Y-4945000D01*
X5401472Y-4996780D01*
X5401470Y-4996782D01*
X5340282Y-5116870D01*
X5340281Y-5116872D01*
X5319196Y-5249999D01*
X5319196Y-5250000D01*
X200500Y-5250000D01*
X200500Y-3750000D01*
X8069196Y-3750000D01*
X8090281Y-3883127D01*
X8090282Y-3883129D01*
X8149831Y-4000000D01*
X8151472Y-4003220D01*
X8246780Y-4098528D01*
X8366874Y-4159719D01*
X8500000Y-4180804D01*
X8633126Y-4159719D01*
X8753220Y-4098528D01*
X8848528Y-4003220D01*
X8909719Y-3883126D01*
X8930804Y-3750000D01*
X8909719Y-3616874D01*
X8848528Y-3496780D01*
X8753220Y-3401472D01*
X8753217Y-3401470D01*
X8633129Y-3340282D01*
X8633127Y-3340281D01*
X8500000Y-3319196D01*
X8366872Y-3340281D01*
X8366870Y-3340282D01*
X8246782Y-3401470D01*
X8151470Y-3496782D01*
X8090282Y-3616870D01*
X8090281Y-3616872D01*
X8069196Y-3749999D01*
X8069196Y-3750000D01*
X200500Y-3750000D01*
X200500Y-3000000D01*
X1319196Y-3000000D01*
X1340281Y-3133127D01*
X1340282Y-3133129D01*
X1401470Y-3253217D01*
X1401472Y-3253220D01*
X1496780Y-3348528D01*
X1616874Y-3409719D01*
X1750000Y-3430804D01*
X1883126Y-3409719D01*
X2003220Y-3348528D01*
X2098528Y-3253220D01*
X2159719Y-3133126D01*
X2180804Y-3000000D01*
X24809196Y-3000000D01*
X24830281Y-3133127D01*
X24830282Y-3133129D01*
X24891470Y-3253217D01*
X24891472Y-3253220D01*
X24986780Y-3348528D01*
X25106874Y-3409719D01*
X25240000Y-3430804D01*
X25373126Y-3409719D01*
X25378358Y-3407053D01*
X31726249Y-3407053D01*
X31747334Y-3540180D01*
X31747335Y-3540182D01*
X31808523Y-3660270D01*
X31808525Y-3660273D01*
X31903833Y-3755581D01*
X32023927Y-3816772D01*
X32157053Y-3837857D01*
X32290179Y-3816772D01*
X32410273Y-3755581D01*
X32505581Y-3660273D01*
X32566772Y-3540179D01*
X32587857Y-3407053D01*
X32566772Y-3273927D01*
X32505581Y-3153833D01*
X32410273Y-3058525D01*
X32410270Y-3058523D01*
X32290182Y-2997335D01*
X32290180Y-2997334D01*
X32157053Y-2976249D01*
X32023925Y-2997334D01*
X32023923Y-2997335D01*
X31903835Y-3058523D01*
X31808523Y-3153835D01*
X31747335Y-3273923D01*
X31747334Y-3273925D01*
X31726249Y-3407052D01*
X31726249Y-3407053D01*
X25378358Y-3407053D01*
X25493220Y-3348528D01*
X25588528Y-3253220D01*
X25649719Y-3133126D01*
X25670804Y-3000000D01*
X25649719Y-2866874D01*
X25588528Y-2746780D01*
X25493220Y-2651472D01*
X25493217Y-2651470D01*
X25373129Y-2590282D01*
X25373127Y-2590281D01*
X25240000Y-2569196D01*
X25106872Y-2590281D01*
X25106870Y-2590282D01*
X24986782Y-2651470D01*
X24891470Y-2746782D01*
X24830282Y-2866870D01*
X24830281Y-2866872D01*
X24809196Y-2999999D01*
X24809196Y-3000000D01*
X2180804Y-3000000D01*
X2159719Y-2866874D01*
X2098528Y-2746780D01*
X2003220Y-2651472D01*
X2003217Y-2651470D01*
X1883129Y-2590282D01*
X1883127Y-2590281D01*
X1750000Y-2569196D01*
X1616872Y-2590281D01*
X1616870Y-2590282D01*
X1496782Y-2651470D01*
X1401470Y-2746782D01*
X1340282Y-2866870D01*
X1340281Y-2866872D01*
X1319196Y-2999999D01*
X1319196Y-3000000D01*
X200500Y-3000000D01*
X200500Y-2624057D01*
X219407Y-2565866D01*
X229496Y-2554053D01*
X2554054Y-229496D01*
X2608571Y-201719D01*
X2624058Y-200500D01*
X32375943Y-200500D01*
X32434134Y-219407D01*
G37*
%TD.AperFunction*%
%TD*%
M02*
