%TF.GenerationSoftware,KiCad,Pcbnew,7.0.8*%
%TF.CreationDate,2023-11-08T20:40:56+10:00*%
%TF.ProjectId,LEDBoard,4c454442-6f61-4726-942e-6b696361645f,rev?*%
%TF.SameCoordinates,Original*%
%TF.FileFunction,Copper,L2,Inr*%
%TF.FilePolarity,Positive*%
%FSLAX46Y46*%
G04 Gerber Fmt 4.6, Leading zero omitted, Abs format (unit mm)*
G04 Created by KiCad (PCBNEW 7.0.8) date 2023-11-08 20:40:56*
%MOMM*%
%LPD*%
G01*
G04 APERTURE LIST*
%TA.AperFunction,ViaPad*%
%ADD10C,0.450000*%
%TD*%
G04 APERTURE END LIST*
D10*
%TO.N,+BATT*%
X34500000Y-4000000D03*
%TO.N,-BATT*%
X32000000Y-9000000D03*
X34500000Y-9000000D03*
X32000000Y-8000000D03*
X5400000Y-30000000D03*
X1750000Y-10250000D03*
X32150000Y-24500000D03*
X750000Y-17000000D03*
X33000000Y-23250000D03*
X33000000Y-25750000D03*
X2250000Y-17000000D03*
X8500000Y-3750000D03*
X31250000Y-25750000D03*
X32000000Y-7000000D03*
X6250000Y-29250000D03*
X31250000Y-23250000D03*
X34500000Y-8000000D03*
X4500000Y-30000000D03*
X32100000Y-18725000D03*
X26250000Y-4000000D03*
X5275000Y-33500000D03*
X32100000Y-16275000D03*
X1500000Y-17000000D03*
X1750000Y-3000000D03*
X32842947Y-30907053D03*
X34500000Y-7000000D03*
%TO.N,/LED0*%
X25500000Y-4000000D03*
%TO.N,/LED1*%
X32157053Y-3407053D03*
%TO.N,/LED2*%
X21750000Y-30750000D03*
%TO.N,/LED3*%
X27842947Y-31592947D03*
%TO.N,/LED Array/COL0*%
X4000000Y-28000000D03*
X4657053Y-24092947D03*
X4657053Y-26592947D03*
X5750000Y-4500000D03*
%TO.N,/LED Array/ROW0*%
X5750000Y-5250000D03*
%TO.N,/LED Array/COL1*%
X7157053Y-26592947D03*
X7157053Y-14092947D03*
X7157053Y-21592947D03*
X7157053Y-29092947D03*
X6250000Y-9750000D03*
X7157053Y-16592947D03*
X7157053Y-24092947D03*
X7157053Y-19092947D03*
X7157053Y-11592947D03*
%TO.N,/LED Array/COL2*%
X9657053Y-16592947D03*
X9657053Y-24092947D03*
X9657053Y-9092947D03*
X9657053Y-21592947D03*
X9657053Y-26592947D03*
X9657053Y-14092947D03*
X9657053Y-11592947D03*
X9657053Y-29092947D03*
X11000000Y-6750000D03*
X9657053Y-19092947D03*
%TO.N,/LED Array/COL3*%
X12157053Y-26592947D03*
X12157053Y-29092947D03*
X12157053Y-14092947D03*
X12157053Y-11592947D03*
X12157053Y-19092947D03*
X12157053Y-21592947D03*
X12157053Y-16592947D03*
X12157053Y-6592947D03*
X12157053Y-9092947D03*
X12157053Y-24092947D03*
%TO.N,/LED Array/COL4*%
X14657053Y-26592947D03*
X14657053Y-29092947D03*
X14657053Y-19092947D03*
X14657053Y-6592947D03*
X14657053Y-11592947D03*
X14657053Y-24092947D03*
X14657053Y-16592947D03*
X14657053Y-9092947D03*
X14657053Y-21592947D03*
X14657053Y-14092947D03*
%TO.N,/LED Array/COL5*%
X17157053Y-19092947D03*
X17157053Y-29092947D03*
X17157053Y-21592947D03*
X17157053Y-6592947D03*
X17157053Y-24092947D03*
X17157053Y-16592947D03*
X17157053Y-14092947D03*
X17157053Y-11592947D03*
X17157053Y-9092947D03*
X17157053Y-26592947D03*
%TO.N,/LED Array/COL6*%
X19657053Y-26592947D03*
X19657053Y-29092947D03*
X19657053Y-9092947D03*
X19657053Y-6592947D03*
X19657053Y-24092947D03*
X19657053Y-19092947D03*
X19657053Y-14092947D03*
X19657053Y-16592947D03*
X19657053Y-21592947D03*
X19657053Y-11592947D03*
%TO.N,/LED Array/COL7*%
X22157053Y-19092947D03*
X22157053Y-14092947D03*
X22157053Y-24092947D03*
X22157053Y-6592947D03*
X22157053Y-26592947D03*
X22157053Y-9092947D03*
X22157053Y-21592947D03*
X22157053Y-11592947D03*
X22157053Y-29092947D03*
X22157053Y-16592947D03*
%TO.N,/LED Array/COL8*%
X24657053Y-29092947D03*
X24657053Y-11592947D03*
X24657053Y-26592947D03*
X24657053Y-21592947D03*
X24657053Y-16592947D03*
X24657053Y-9092947D03*
X24657053Y-24092947D03*
X24657053Y-6592947D03*
X24657053Y-19092947D03*
X24657053Y-14092947D03*
%TO.N,/LED Array/COL9*%
X27157053Y-16592947D03*
X27157053Y-21592947D03*
X27157053Y-24092947D03*
X27157053Y-26592947D03*
X27157053Y-14092947D03*
X27157053Y-19092947D03*
X27157053Y-29092947D03*
X25773724Y-7726276D03*
X27000000Y-10000000D03*
X27157053Y-11592947D03*
%TO.N,/LED Array/COL10*%
X29657053Y-24092947D03*
X29657053Y-11592947D03*
X23000000Y-4750000D03*
X29657053Y-14092947D03*
X29657053Y-29092947D03*
X29657053Y-21592947D03*
X29657053Y-26592947D03*
X29250000Y-7750000D03*
X29657053Y-16592947D03*
X29657053Y-19092947D03*
X29000000Y-9750000D03*
%TO.N,/LED Array/ROW1*%
X5750000Y-9000000D03*
%TO.N,/LED Array/ROW2*%
X5342947Y-10907053D03*
%TO.N,/LED Array/ROW3*%
X5342947Y-13407053D03*
%TO.N,/LED Array/ROW4*%
X5342947Y-15907053D03*
%TO.N,/LED Array/ROW5*%
X5342947Y-18407053D03*
%TO.N,/LED Array/ROW6*%
X5342947Y-20907053D03*
%TO.N,/LED Array/ROW7*%
X5342947Y-23407053D03*
%TO.N,/LED Array/ROW8*%
X500000Y-8250000D03*
%TO.N,/LED Array/ROW9*%
X750000Y-10000000D03*
%TO.N,+BATT*%
X32000000Y-5000000D03*
X32000000Y-6000000D03*
X6250000Y-31250000D03*
X4500000Y-32000000D03*
X34500000Y-5000000D03*
X31510000Y-13500000D03*
X5400000Y-32000000D03*
X34500000Y-6000000D03*
%TD*%
%TA.AperFunction,Conductor*%
%TO.N,-BATT*%
G36*
X32434134Y-219407D02*
G01*
X32445947Y-229496D01*
X34770504Y-2554053D01*
X34798281Y-2608570D01*
X34799500Y-2624057D01*
X34799500Y-3513499D01*
X34780593Y-3571690D01*
X34731093Y-3607654D01*
X34669907Y-3607654D01*
X34655556Y-3601709D01*
X34633127Y-3590281D01*
X34500000Y-3569196D01*
X34366872Y-3590281D01*
X34366870Y-3590282D01*
X34246782Y-3651470D01*
X34151470Y-3746782D01*
X34090282Y-3866870D01*
X34090281Y-3866872D01*
X34069196Y-3999999D01*
X34069196Y-4000000D01*
X34090281Y-4133127D01*
X34090282Y-4133129D01*
X34151470Y-4253217D01*
X34151472Y-4253220D01*
X34246780Y-4348528D01*
X34282778Y-4366870D01*
X34370939Y-4411791D01*
X34414203Y-4455056D01*
X34423774Y-4515488D01*
X34395996Y-4570004D01*
X34370939Y-4588209D01*
X34246781Y-4651471D01*
X34151470Y-4746782D01*
X34090282Y-4866870D01*
X34090281Y-4866872D01*
X34069196Y-4999999D01*
X34069196Y-5000000D01*
X34090281Y-5133127D01*
X34090282Y-5133129D01*
X34149831Y-5250000D01*
X34151472Y-5253220D01*
X34246780Y-5348528D01*
X34295940Y-5373576D01*
X34370939Y-5411791D01*
X34414203Y-5455056D01*
X34423774Y-5515488D01*
X34395996Y-5570004D01*
X34370939Y-5588209D01*
X34246781Y-5651471D01*
X34151470Y-5746782D01*
X34090282Y-5866870D01*
X34090281Y-5866872D01*
X34069196Y-5999999D01*
X34069196Y-6000000D01*
X34090281Y-6133127D01*
X34090282Y-6133129D01*
X34151470Y-6253217D01*
X34151472Y-6253220D01*
X34246780Y-6348528D01*
X34366874Y-6409719D01*
X34500000Y-6430804D01*
X34633126Y-6409719D01*
X34655555Y-6398290D01*
X34715985Y-6388719D01*
X34770502Y-6416495D01*
X34798281Y-6471011D01*
X34799500Y-6486500D01*
X34799500Y-32375942D01*
X34780593Y-32434133D01*
X34770504Y-32445946D01*
X32445947Y-34770504D01*
X32391430Y-34798281D01*
X32375943Y-34799500D01*
X18766737Y-34799500D01*
X18708546Y-34780593D01*
X18672582Y-34731093D01*
X18669241Y-34717691D01*
X18664024Y-34688101D01*
X18592179Y-34490709D01*
X18592176Y-34490703D01*
X18592175Y-34490700D01*
X18521339Y-34368011D01*
X18487149Y-34308791D01*
X18486161Y-34307613D01*
X18352131Y-34147884D01*
X18352129Y-34147882D01*
X18352124Y-34147876D01*
X18352117Y-34147870D01*
X18352115Y-34147868D01*
X18191214Y-34012855D01*
X18191212Y-34012853D01*
X18191209Y-34012851D01*
X18175339Y-34003688D01*
X18009299Y-33907824D01*
X18009296Y-33907823D01*
X18009291Y-33907821D01*
X17811899Y-33835976D01*
X17770525Y-33828680D01*
X17605034Y-33799500D01*
X17605030Y-33799500D01*
X17394970Y-33799500D01*
X17394965Y-33799500D01*
X17188101Y-33835976D01*
X16990703Y-33907823D01*
X16990700Y-33907824D01*
X16808792Y-34012850D01*
X16808785Y-34012855D01*
X16647884Y-34147868D01*
X16647868Y-34147884D01*
X16512855Y-34308785D01*
X16512850Y-34308792D01*
X16407824Y-34490700D01*
X16407823Y-34490703D01*
X16335976Y-34688101D01*
X16330759Y-34717691D01*
X16302034Y-34771714D01*
X16247042Y-34798536D01*
X16233263Y-34799500D01*
X2624058Y-34799500D01*
X2565867Y-34780593D01*
X2554054Y-34770504D01*
X229496Y-32445946D01*
X201719Y-32391429D01*
X200500Y-32375942D01*
X200500Y-32000000D01*
X4069196Y-32000000D01*
X4090281Y-32133127D01*
X4090282Y-32133129D01*
X4138209Y-32227190D01*
X4151472Y-32253220D01*
X4246780Y-32348528D01*
X4366874Y-32409719D01*
X4500000Y-32430804D01*
X4633126Y-32409719D01*
X4753220Y-32348528D01*
X4848528Y-32253220D01*
X4861791Y-32227188D01*
X4905055Y-32183925D01*
X4965487Y-32174354D01*
X5020003Y-32202131D01*
X5038206Y-32227185D01*
X5051472Y-32253220D01*
X5146780Y-32348528D01*
X5266874Y-32409719D01*
X5400000Y-32430804D01*
X5533126Y-32409719D01*
X5653220Y-32348528D01*
X5748528Y-32253220D01*
X5809719Y-32133126D01*
X5830804Y-32000000D01*
X5809719Y-31866874D01*
X5748528Y-31746780D01*
X5653220Y-31651472D01*
X5653217Y-31651470D01*
X5533129Y-31590282D01*
X5533127Y-31590281D01*
X5400000Y-31569196D01*
X5266872Y-31590281D01*
X5266870Y-31590282D01*
X5146782Y-31651470D01*
X5051471Y-31746781D01*
X5038209Y-31772810D01*
X4994944Y-31816074D01*
X4934512Y-31825645D01*
X4879996Y-31797867D01*
X4861791Y-31772810D01*
X4848529Y-31746782D01*
X4848528Y-31746780D01*
X4753220Y-31651472D01*
X4753217Y-31651470D01*
X4633129Y-31590282D01*
X4633127Y-31590281D01*
X4500000Y-31569196D01*
X4366872Y-31590281D01*
X4366870Y-31590282D01*
X4246782Y-31651470D01*
X4151470Y-31746782D01*
X4090282Y-31866870D01*
X4090281Y-31866872D01*
X4069196Y-31999999D01*
X4069196Y-32000000D01*
X200500Y-32000000D01*
X200500Y-31250000D01*
X5819196Y-31250000D01*
X5840281Y-31383127D01*
X5840282Y-31383129D01*
X5879357Y-31459817D01*
X5901472Y-31503220D01*
X5996780Y-31598528D01*
X6116874Y-31659719D01*
X6250000Y-31680804D01*
X6383126Y-31659719D01*
X6503220Y-31598528D01*
X6508801Y-31592947D01*
X27412143Y-31592947D01*
X27433228Y-31726074D01*
X27433229Y-31726076D01*
X27494417Y-31846164D01*
X27494419Y-31846167D01*
X27589727Y-31941475D01*
X27709821Y-32002666D01*
X27842947Y-32023751D01*
X27976073Y-32002666D01*
X28096167Y-31941475D01*
X28191475Y-31846167D01*
X28252666Y-31726073D01*
X28273751Y-31592947D01*
X28252666Y-31459821D01*
X28191475Y-31339727D01*
X28096167Y-31244419D01*
X28096164Y-31244417D01*
X27976076Y-31183229D01*
X27976074Y-31183228D01*
X27842947Y-31162143D01*
X27709819Y-31183228D01*
X27709817Y-31183229D01*
X27589729Y-31244417D01*
X27494417Y-31339729D01*
X27433229Y-31459817D01*
X27433228Y-31459819D01*
X27412143Y-31592946D01*
X27412143Y-31592947D01*
X6508801Y-31592947D01*
X6598528Y-31503220D01*
X6659719Y-31383126D01*
X6680804Y-31250000D01*
X6659719Y-31116874D01*
X6598528Y-30996780D01*
X6503220Y-30901472D01*
X6503217Y-30901470D01*
X6383129Y-30840282D01*
X6383127Y-30840281D01*
X6250000Y-30819196D01*
X6116872Y-30840281D01*
X6116870Y-30840282D01*
X5996782Y-30901470D01*
X5901470Y-30996782D01*
X5840282Y-31116870D01*
X5840281Y-31116872D01*
X5819196Y-31249999D01*
X5819196Y-31250000D01*
X200500Y-31250000D01*
X200500Y-30750000D01*
X21319196Y-30750000D01*
X21340281Y-30883127D01*
X21340282Y-30883129D01*
X21401470Y-31003217D01*
X21401472Y-31003220D01*
X21496780Y-31098528D01*
X21616874Y-31159719D01*
X21750000Y-31180804D01*
X21883126Y-31159719D01*
X22003220Y-31098528D01*
X22098528Y-31003220D01*
X22159719Y-30883126D01*
X22180804Y-30750000D01*
X22159719Y-30616874D01*
X22098528Y-30496780D01*
X22003220Y-30401472D01*
X22003217Y-30401470D01*
X21883129Y-30340282D01*
X21883127Y-30340281D01*
X21750000Y-30319196D01*
X21616872Y-30340281D01*
X21616870Y-30340282D01*
X21496782Y-30401470D01*
X21401470Y-30496782D01*
X21340282Y-30616870D01*
X21340281Y-30616872D01*
X21319196Y-30749999D01*
X21319196Y-30750000D01*
X200500Y-30750000D01*
X200500Y-29092947D01*
X6726249Y-29092947D01*
X6747334Y-29226074D01*
X6747335Y-29226076D01*
X6808523Y-29346164D01*
X6808525Y-29346167D01*
X6903833Y-29441475D01*
X7023927Y-29502666D01*
X7157053Y-29523751D01*
X7290179Y-29502666D01*
X7410273Y-29441475D01*
X7505581Y-29346167D01*
X7566772Y-29226073D01*
X7587857Y-29092947D01*
X9226249Y-29092947D01*
X9247334Y-29226074D01*
X9247335Y-29226076D01*
X9308523Y-29346164D01*
X9308525Y-29346167D01*
X9403833Y-29441475D01*
X9523927Y-29502666D01*
X9657053Y-29523751D01*
X9790179Y-29502666D01*
X9910273Y-29441475D01*
X10005581Y-29346167D01*
X10066772Y-29226073D01*
X10087857Y-29092947D01*
X11726249Y-29092947D01*
X11747334Y-29226074D01*
X11747335Y-29226076D01*
X11808523Y-29346164D01*
X11808525Y-29346167D01*
X11903833Y-29441475D01*
X12023927Y-29502666D01*
X12157053Y-29523751D01*
X12290179Y-29502666D01*
X12410273Y-29441475D01*
X12505581Y-29346167D01*
X12566772Y-29226073D01*
X12587857Y-29092947D01*
X14226249Y-29092947D01*
X14247334Y-29226074D01*
X14247335Y-29226076D01*
X14308523Y-29346164D01*
X14308525Y-29346167D01*
X14403833Y-29441475D01*
X14523927Y-29502666D01*
X14657053Y-29523751D01*
X14790179Y-29502666D01*
X14910273Y-29441475D01*
X15005581Y-29346167D01*
X15066772Y-29226073D01*
X15087857Y-29092947D01*
X16726249Y-29092947D01*
X16747334Y-29226074D01*
X16747335Y-29226076D01*
X16808523Y-29346164D01*
X16808525Y-29346167D01*
X16903833Y-29441475D01*
X17023927Y-29502666D01*
X17157053Y-29523751D01*
X17290179Y-29502666D01*
X17410273Y-29441475D01*
X17505581Y-29346167D01*
X17566772Y-29226073D01*
X17587857Y-29092947D01*
X19226249Y-29092947D01*
X19247334Y-29226074D01*
X19247335Y-29226076D01*
X19308523Y-29346164D01*
X19308525Y-29346167D01*
X19403833Y-29441475D01*
X19523927Y-29502666D01*
X19657053Y-29523751D01*
X19790179Y-29502666D01*
X19910273Y-29441475D01*
X20005581Y-29346167D01*
X20066772Y-29226073D01*
X20087857Y-29092947D01*
X21726249Y-29092947D01*
X21747334Y-29226074D01*
X21747335Y-29226076D01*
X21808523Y-29346164D01*
X21808525Y-29346167D01*
X21903833Y-29441475D01*
X22023927Y-29502666D01*
X22157053Y-29523751D01*
X22290179Y-29502666D01*
X22410273Y-29441475D01*
X22505581Y-29346167D01*
X22566772Y-29226073D01*
X22587857Y-29092947D01*
X24226249Y-29092947D01*
X24247334Y-29226074D01*
X24247335Y-29226076D01*
X24308523Y-29346164D01*
X24308525Y-29346167D01*
X24403833Y-29441475D01*
X24523927Y-29502666D01*
X24657053Y-29523751D01*
X24790179Y-29502666D01*
X24910273Y-29441475D01*
X25005581Y-29346167D01*
X25066772Y-29226073D01*
X25087857Y-29092947D01*
X26726249Y-29092947D01*
X26747334Y-29226074D01*
X26747335Y-29226076D01*
X26808523Y-29346164D01*
X26808525Y-29346167D01*
X26903833Y-29441475D01*
X27023927Y-29502666D01*
X27157053Y-29523751D01*
X27290179Y-29502666D01*
X27410273Y-29441475D01*
X27505581Y-29346167D01*
X27566772Y-29226073D01*
X27587857Y-29092947D01*
X29226249Y-29092947D01*
X29247334Y-29226074D01*
X29247335Y-29226076D01*
X29308523Y-29346164D01*
X29308525Y-29346167D01*
X29403833Y-29441475D01*
X29523927Y-29502666D01*
X29657053Y-29523751D01*
X29790179Y-29502666D01*
X29910273Y-29441475D01*
X30005581Y-29346167D01*
X30066772Y-29226073D01*
X30087857Y-29092947D01*
X30066772Y-28959821D01*
X30005581Y-28839727D01*
X29910273Y-28744419D01*
X29910270Y-28744417D01*
X29790182Y-28683229D01*
X29790180Y-28683228D01*
X29657053Y-28662143D01*
X29523925Y-28683228D01*
X29523923Y-28683229D01*
X29403835Y-28744417D01*
X29308523Y-28839729D01*
X29247335Y-28959817D01*
X29247334Y-28959819D01*
X29226249Y-29092946D01*
X29226249Y-29092947D01*
X27587857Y-29092947D01*
X27566772Y-28959821D01*
X27505581Y-28839727D01*
X27410273Y-28744419D01*
X27410270Y-28744417D01*
X27290182Y-28683229D01*
X27290180Y-28683228D01*
X27157053Y-28662143D01*
X27023925Y-28683228D01*
X27023923Y-28683229D01*
X26903835Y-28744417D01*
X26808523Y-28839729D01*
X26747335Y-28959817D01*
X26747334Y-28959819D01*
X26726249Y-29092946D01*
X26726249Y-29092947D01*
X25087857Y-29092947D01*
X25066772Y-28959821D01*
X25005581Y-28839727D01*
X24910273Y-28744419D01*
X24910270Y-28744417D01*
X24790182Y-28683229D01*
X24790180Y-28683228D01*
X24657053Y-28662143D01*
X24523925Y-28683228D01*
X24523923Y-28683229D01*
X24403835Y-28744417D01*
X24308523Y-28839729D01*
X24247335Y-28959817D01*
X24247334Y-28959819D01*
X24226249Y-29092946D01*
X24226249Y-29092947D01*
X22587857Y-29092947D01*
X22566772Y-28959821D01*
X22505581Y-28839727D01*
X22410273Y-28744419D01*
X22410270Y-28744417D01*
X22290182Y-28683229D01*
X22290180Y-28683228D01*
X22157053Y-28662143D01*
X22023925Y-28683228D01*
X22023923Y-28683229D01*
X21903835Y-28744417D01*
X21808523Y-28839729D01*
X21747335Y-28959817D01*
X21747334Y-28959819D01*
X21726249Y-29092946D01*
X21726249Y-29092947D01*
X20087857Y-29092947D01*
X20066772Y-28959821D01*
X20005581Y-28839727D01*
X19910273Y-28744419D01*
X19910270Y-28744417D01*
X19790182Y-28683229D01*
X19790180Y-28683228D01*
X19657053Y-28662143D01*
X19523925Y-28683228D01*
X19523923Y-28683229D01*
X19403835Y-28744417D01*
X19308523Y-28839729D01*
X19247335Y-28959817D01*
X19247334Y-28959819D01*
X19226249Y-29092946D01*
X19226249Y-29092947D01*
X17587857Y-29092947D01*
X17566772Y-28959821D01*
X17505581Y-28839727D01*
X17410273Y-28744419D01*
X17410270Y-28744417D01*
X17290182Y-28683229D01*
X17290180Y-28683228D01*
X17157053Y-28662143D01*
X17023925Y-28683228D01*
X17023923Y-28683229D01*
X16903835Y-28744417D01*
X16808523Y-28839729D01*
X16747335Y-28959817D01*
X16747334Y-28959819D01*
X16726249Y-29092946D01*
X16726249Y-29092947D01*
X15087857Y-29092947D01*
X15066772Y-28959821D01*
X15005581Y-28839727D01*
X14910273Y-28744419D01*
X14910270Y-28744417D01*
X14790182Y-28683229D01*
X14790180Y-28683228D01*
X14657053Y-28662143D01*
X14523925Y-28683228D01*
X14523923Y-28683229D01*
X14403835Y-28744417D01*
X14308523Y-28839729D01*
X14247335Y-28959817D01*
X14247334Y-28959819D01*
X14226249Y-29092946D01*
X14226249Y-29092947D01*
X12587857Y-29092947D01*
X12566772Y-28959821D01*
X12505581Y-28839727D01*
X12410273Y-28744419D01*
X12410270Y-28744417D01*
X12290182Y-28683229D01*
X12290180Y-28683228D01*
X12157053Y-28662143D01*
X12023925Y-28683228D01*
X12023923Y-28683229D01*
X11903835Y-28744417D01*
X11808523Y-28839729D01*
X11747335Y-28959817D01*
X11747334Y-28959819D01*
X11726249Y-29092946D01*
X11726249Y-29092947D01*
X10087857Y-29092947D01*
X10066772Y-28959821D01*
X10005581Y-28839727D01*
X9910273Y-28744419D01*
X9910270Y-28744417D01*
X9790182Y-28683229D01*
X9790180Y-28683228D01*
X9657053Y-28662143D01*
X9523925Y-28683228D01*
X9523923Y-28683229D01*
X9403835Y-28744417D01*
X9308523Y-28839729D01*
X9247335Y-28959817D01*
X9247334Y-28959819D01*
X9226249Y-29092946D01*
X9226249Y-29092947D01*
X7587857Y-29092947D01*
X7566772Y-28959821D01*
X7505581Y-28839727D01*
X7410273Y-28744419D01*
X7410270Y-28744417D01*
X7290182Y-28683229D01*
X7290180Y-28683228D01*
X7157053Y-28662143D01*
X7023925Y-28683228D01*
X7023923Y-28683229D01*
X6903835Y-28744417D01*
X6808523Y-28839729D01*
X6747335Y-28959817D01*
X6747334Y-28959819D01*
X6726249Y-29092946D01*
X6726249Y-29092947D01*
X200500Y-29092947D01*
X200500Y-28000000D01*
X3569196Y-28000000D01*
X3590281Y-28133127D01*
X3590282Y-28133129D01*
X3651470Y-28253217D01*
X3651472Y-28253220D01*
X3746780Y-28348528D01*
X3866874Y-28409719D01*
X4000000Y-28430804D01*
X4133126Y-28409719D01*
X4253220Y-28348528D01*
X4348528Y-28253220D01*
X4409719Y-28133126D01*
X4430804Y-28000000D01*
X4409719Y-27866874D01*
X4348528Y-27746780D01*
X4253220Y-27651472D01*
X4253217Y-27651470D01*
X4133129Y-27590282D01*
X4133127Y-27590281D01*
X4000000Y-27569196D01*
X3866872Y-27590281D01*
X3866870Y-27590282D01*
X3746782Y-27651470D01*
X3651470Y-27746782D01*
X3590282Y-27866870D01*
X3590281Y-27866872D01*
X3569196Y-27999999D01*
X3569196Y-28000000D01*
X200500Y-28000000D01*
X200500Y-26592947D01*
X4226249Y-26592947D01*
X4247334Y-26726074D01*
X4247335Y-26726076D01*
X4308523Y-26846164D01*
X4308525Y-26846167D01*
X4403833Y-26941475D01*
X4523927Y-27002666D01*
X4657053Y-27023751D01*
X4790179Y-27002666D01*
X4910273Y-26941475D01*
X5005581Y-26846167D01*
X5066772Y-26726073D01*
X5087857Y-26592947D01*
X6726249Y-26592947D01*
X6747334Y-26726074D01*
X6747335Y-26726076D01*
X6808523Y-26846164D01*
X6808525Y-26846167D01*
X6903833Y-26941475D01*
X7023927Y-27002666D01*
X7157053Y-27023751D01*
X7290179Y-27002666D01*
X7410273Y-26941475D01*
X7505581Y-26846167D01*
X7566772Y-26726073D01*
X7587857Y-26592947D01*
X9226249Y-26592947D01*
X9247334Y-26726074D01*
X9247335Y-26726076D01*
X9308523Y-26846164D01*
X9308525Y-26846167D01*
X9403833Y-26941475D01*
X9523927Y-27002666D01*
X9657053Y-27023751D01*
X9790179Y-27002666D01*
X9910273Y-26941475D01*
X10005581Y-26846167D01*
X10066772Y-26726073D01*
X10087857Y-26592947D01*
X11726249Y-26592947D01*
X11747334Y-26726074D01*
X11747335Y-26726076D01*
X11808523Y-26846164D01*
X11808525Y-26846167D01*
X11903833Y-26941475D01*
X12023927Y-27002666D01*
X12157053Y-27023751D01*
X12290179Y-27002666D01*
X12410273Y-26941475D01*
X12505581Y-26846167D01*
X12566772Y-26726073D01*
X12587857Y-26592947D01*
X14226249Y-26592947D01*
X14247334Y-26726074D01*
X14247335Y-26726076D01*
X14308523Y-26846164D01*
X14308525Y-26846167D01*
X14403833Y-26941475D01*
X14523927Y-27002666D01*
X14657053Y-27023751D01*
X14790179Y-27002666D01*
X14910273Y-26941475D01*
X15005581Y-26846167D01*
X15066772Y-26726073D01*
X15087857Y-26592947D01*
X16726249Y-26592947D01*
X16747334Y-26726074D01*
X16747335Y-26726076D01*
X16808523Y-26846164D01*
X16808525Y-26846167D01*
X16903833Y-26941475D01*
X17023927Y-27002666D01*
X17157053Y-27023751D01*
X17290179Y-27002666D01*
X17410273Y-26941475D01*
X17505581Y-26846167D01*
X17566772Y-26726073D01*
X17587857Y-26592947D01*
X19226249Y-26592947D01*
X19247334Y-26726074D01*
X19247335Y-26726076D01*
X19308523Y-26846164D01*
X19308525Y-26846167D01*
X19403833Y-26941475D01*
X19523927Y-27002666D01*
X19657053Y-27023751D01*
X19790179Y-27002666D01*
X19910273Y-26941475D01*
X20005581Y-26846167D01*
X20066772Y-26726073D01*
X20087857Y-26592947D01*
X21726249Y-26592947D01*
X21747334Y-26726074D01*
X21747335Y-26726076D01*
X21808523Y-26846164D01*
X21808525Y-26846167D01*
X21903833Y-26941475D01*
X22023927Y-27002666D01*
X22157053Y-27023751D01*
X22290179Y-27002666D01*
X22410273Y-26941475D01*
X22505581Y-26846167D01*
X22566772Y-26726073D01*
X22587857Y-26592947D01*
X24226249Y-26592947D01*
X24247334Y-26726074D01*
X24247335Y-26726076D01*
X24308523Y-26846164D01*
X24308525Y-26846167D01*
X24403833Y-26941475D01*
X24523927Y-27002666D01*
X24657053Y-27023751D01*
X24790179Y-27002666D01*
X24910273Y-26941475D01*
X25005581Y-26846167D01*
X25066772Y-26726073D01*
X25087857Y-26592947D01*
X26726249Y-26592947D01*
X26747334Y-26726074D01*
X26747335Y-26726076D01*
X26808523Y-26846164D01*
X26808525Y-26846167D01*
X26903833Y-26941475D01*
X27023927Y-27002666D01*
X27157053Y-27023751D01*
X27290179Y-27002666D01*
X27410273Y-26941475D01*
X27505581Y-26846167D01*
X27566772Y-26726073D01*
X27587857Y-26592947D01*
X29226249Y-26592947D01*
X29247334Y-26726074D01*
X29247335Y-26726076D01*
X29308523Y-26846164D01*
X29308525Y-26846167D01*
X29403833Y-26941475D01*
X29523927Y-27002666D01*
X29657053Y-27023751D01*
X29790179Y-27002666D01*
X29910273Y-26941475D01*
X30005581Y-26846167D01*
X30066772Y-26726073D01*
X30087857Y-26592947D01*
X30066772Y-26459821D01*
X30005581Y-26339727D01*
X29910273Y-26244419D01*
X29910270Y-26244417D01*
X29790182Y-26183229D01*
X29790180Y-26183228D01*
X29657053Y-26162143D01*
X29523925Y-26183228D01*
X29523923Y-26183229D01*
X29403835Y-26244417D01*
X29308523Y-26339729D01*
X29247335Y-26459817D01*
X29247334Y-26459819D01*
X29226249Y-26592946D01*
X29226249Y-26592947D01*
X27587857Y-26592947D01*
X27566772Y-26459821D01*
X27505581Y-26339727D01*
X27410273Y-26244419D01*
X27410270Y-26244417D01*
X27290182Y-26183229D01*
X27290180Y-26183228D01*
X27157053Y-26162143D01*
X27023925Y-26183228D01*
X27023923Y-26183229D01*
X26903835Y-26244417D01*
X26808523Y-26339729D01*
X26747335Y-26459817D01*
X26747334Y-26459819D01*
X26726249Y-26592946D01*
X26726249Y-26592947D01*
X25087857Y-26592947D01*
X25066772Y-26459821D01*
X25005581Y-26339727D01*
X24910273Y-26244419D01*
X24910270Y-26244417D01*
X24790182Y-26183229D01*
X24790180Y-26183228D01*
X24657053Y-26162143D01*
X24523925Y-26183228D01*
X24523923Y-26183229D01*
X24403835Y-26244417D01*
X24308523Y-26339729D01*
X24247335Y-26459817D01*
X24247334Y-26459819D01*
X24226249Y-26592946D01*
X24226249Y-26592947D01*
X22587857Y-26592947D01*
X22566772Y-26459821D01*
X22505581Y-26339727D01*
X22410273Y-26244419D01*
X22410270Y-26244417D01*
X22290182Y-26183229D01*
X22290180Y-26183228D01*
X22157053Y-26162143D01*
X22023925Y-26183228D01*
X22023923Y-26183229D01*
X21903835Y-26244417D01*
X21808523Y-26339729D01*
X21747335Y-26459817D01*
X21747334Y-26459819D01*
X21726249Y-26592946D01*
X21726249Y-26592947D01*
X20087857Y-26592947D01*
X20066772Y-26459821D01*
X20005581Y-26339727D01*
X19910273Y-26244419D01*
X19910270Y-26244417D01*
X19790182Y-26183229D01*
X19790180Y-26183228D01*
X19657053Y-26162143D01*
X19523925Y-26183228D01*
X19523923Y-26183229D01*
X19403835Y-26244417D01*
X19308523Y-26339729D01*
X19247335Y-26459817D01*
X19247334Y-26459819D01*
X19226249Y-26592946D01*
X19226249Y-26592947D01*
X17587857Y-26592947D01*
X17566772Y-26459821D01*
X17505581Y-26339727D01*
X17410273Y-26244419D01*
X17410270Y-26244417D01*
X17290182Y-26183229D01*
X17290180Y-26183228D01*
X17157053Y-26162143D01*
X17023925Y-26183228D01*
X17023923Y-26183229D01*
X16903835Y-26244417D01*
X16808523Y-26339729D01*
X16747335Y-26459817D01*
X16747334Y-26459819D01*
X16726249Y-26592946D01*
X16726249Y-26592947D01*
X15087857Y-26592947D01*
X15066772Y-26459821D01*
X15005581Y-26339727D01*
X14910273Y-26244419D01*
X14910270Y-26244417D01*
X14790182Y-26183229D01*
X14790180Y-26183228D01*
X14657053Y-26162143D01*
X14523925Y-26183228D01*
X14523923Y-26183229D01*
X14403835Y-26244417D01*
X14308523Y-26339729D01*
X14247335Y-26459817D01*
X14247334Y-26459819D01*
X14226249Y-26592946D01*
X14226249Y-26592947D01*
X12587857Y-26592947D01*
X12566772Y-26459821D01*
X12505581Y-26339727D01*
X12410273Y-26244419D01*
X12410270Y-26244417D01*
X12290182Y-26183229D01*
X12290180Y-26183228D01*
X12157053Y-26162143D01*
X12023925Y-26183228D01*
X12023923Y-26183229D01*
X11903835Y-26244417D01*
X11808523Y-26339729D01*
X11747335Y-26459817D01*
X11747334Y-26459819D01*
X11726249Y-26592946D01*
X11726249Y-26592947D01*
X10087857Y-26592947D01*
X10066772Y-26459821D01*
X10005581Y-26339727D01*
X9910273Y-26244419D01*
X9910270Y-26244417D01*
X9790182Y-26183229D01*
X9790180Y-26183228D01*
X9657053Y-26162143D01*
X9523925Y-26183228D01*
X9523923Y-26183229D01*
X9403835Y-26244417D01*
X9308523Y-26339729D01*
X9247335Y-26459817D01*
X9247334Y-26459819D01*
X9226249Y-26592946D01*
X9226249Y-26592947D01*
X7587857Y-26592947D01*
X7566772Y-26459821D01*
X7505581Y-26339727D01*
X7410273Y-26244419D01*
X7410270Y-26244417D01*
X7290182Y-26183229D01*
X7290180Y-26183228D01*
X7157053Y-26162143D01*
X7023925Y-26183228D01*
X7023923Y-26183229D01*
X6903835Y-26244417D01*
X6808523Y-26339729D01*
X6747335Y-26459817D01*
X6747334Y-26459819D01*
X6726249Y-26592946D01*
X6726249Y-26592947D01*
X5087857Y-26592947D01*
X5066772Y-26459821D01*
X5005581Y-26339727D01*
X4910273Y-26244419D01*
X4910270Y-26244417D01*
X4790182Y-26183229D01*
X4790180Y-26183228D01*
X4657053Y-26162143D01*
X4523925Y-26183228D01*
X4523923Y-26183229D01*
X4403835Y-26244417D01*
X4308523Y-26339729D01*
X4247335Y-26459817D01*
X4247334Y-26459819D01*
X4226249Y-26592946D01*
X4226249Y-26592947D01*
X200500Y-26592947D01*
X200500Y-24092947D01*
X4226249Y-24092947D01*
X4247334Y-24226074D01*
X4247335Y-24226076D01*
X4308523Y-24346164D01*
X4308525Y-24346167D01*
X4403833Y-24441475D01*
X4523927Y-24502666D01*
X4657053Y-24523751D01*
X4790179Y-24502666D01*
X4910273Y-24441475D01*
X5005581Y-24346167D01*
X5066772Y-24226073D01*
X5087857Y-24092947D01*
X6726249Y-24092947D01*
X6747334Y-24226074D01*
X6747335Y-24226076D01*
X6808523Y-24346164D01*
X6808525Y-24346167D01*
X6903833Y-24441475D01*
X7023927Y-24502666D01*
X7157053Y-24523751D01*
X7290179Y-24502666D01*
X7410273Y-24441475D01*
X7505581Y-24346167D01*
X7566772Y-24226073D01*
X7587857Y-24092947D01*
X9226249Y-24092947D01*
X9247334Y-24226074D01*
X9247335Y-24226076D01*
X9308523Y-24346164D01*
X9308525Y-24346167D01*
X9403833Y-24441475D01*
X9523927Y-24502666D01*
X9657053Y-24523751D01*
X9790179Y-24502666D01*
X9910273Y-24441475D01*
X10005581Y-24346167D01*
X10066772Y-24226073D01*
X10087857Y-24092947D01*
X11726249Y-24092947D01*
X11747334Y-24226074D01*
X11747335Y-24226076D01*
X11808523Y-24346164D01*
X11808525Y-24346167D01*
X11903833Y-24441475D01*
X12023927Y-24502666D01*
X12157053Y-24523751D01*
X12290179Y-24502666D01*
X12410273Y-24441475D01*
X12505581Y-24346167D01*
X12566772Y-24226073D01*
X12587857Y-24092947D01*
X14226249Y-24092947D01*
X14247334Y-24226074D01*
X14247335Y-24226076D01*
X14308523Y-24346164D01*
X14308525Y-24346167D01*
X14403833Y-24441475D01*
X14523927Y-24502666D01*
X14657053Y-24523751D01*
X14790179Y-24502666D01*
X14910273Y-24441475D01*
X15005581Y-24346167D01*
X15066772Y-24226073D01*
X15087857Y-24092947D01*
X16726249Y-24092947D01*
X16747334Y-24226074D01*
X16747335Y-24226076D01*
X16808523Y-24346164D01*
X16808525Y-24346167D01*
X16903833Y-24441475D01*
X17023927Y-24502666D01*
X17157053Y-24523751D01*
X17290179Y-24502666D01*
X17410273Y-24441475D01*
X17505581Y-24346167D01*
X17566772Y-24226073D01*
X17587857Y-24092947D01*
X19226249Y-24092947D01*
X19247334Y-24226074D01*
X19247335Y-24226076D01*
X19308523Y-24346164D01*
X19308525Y-24346167D01*
X19403833Y-24441475D01*
X19523927Y-24502666D01*
X19657053Y-24523751D01*
X19790179Y-24502666D01*
X19910273Y-24441475D01*
X20005581Y-24346167D01*
X20066772Y-24226073D01*
X20087857Y-24092947D01*
X21726249Y-24092947D01*
X21747334Y-24226074D01*
X21747335Y-24226076D01*
X21808523Y-24346164D01*
X21808525Y-24346167D01*
X21903833Y-24441475D01*
X22023927Y-24502666D01*
X22157053Y-24523751D01*
X22290179Y-24502666D01*
X22410273Y-24441475D01*
X22505581Y-24346167D01*
X22566772Y-24226073D01*
X22587857Y-24092947D01*
X24226249Y-24092947D01*
X24247334Y-24226074D01*
X24247335Y-24226076D01*
X24308523Y-24346164D01*
X24308525Y-24346167D01*
X24403833Y-24441475D01*
X24523927Y-24502666D01*
X24657053Y-24523751D01*
X24790179Y-24502666D01*
X24910273Y-24441475D01*
X25005581Y-24346167D01*
X25066772Y-24226073D01*
X25087857Y-24092947D01*
X26726249Y-24092947D01*
X26747334Y-24226074D01*
X26747335Y-24226076D01*
X26808523Y-24346164D01*
X26808525Y-24346167D01*
X26903833Y-24441475D01*
X27023927Y-24502666D01*
X27157053Y-24523751D01*
X27290179Y-24502666D01*
X27410273Y-24441475D01*
X27505581Y-24346167D01*
X27566772Y-24226073D01*
X27587857Y-24092947D01*
X29226249Y-24092947D01*
X29247334Y-24226074D01*
X29247335Y-24226076D01*
X29308523Y-24346164D01*
X29308525Y-24346167D01*
X29403833Y-24441475D01*
X29523927Y-24502666D01*
X29657053Y-24523751D01*
X29790179Y-24502666D01*
X29910273Y-24441475D01*
X30005581Y-24346167D01*
X30066772Y-24226073D01*
X30087857Y-24092947D01*
X30066772Y-23959821D01*
X30005581Y-23839727D01*
X29910273Y-23744419D01*
X29910270Y-23744417D01*
X29790182Y-23683229D01*
X29790180Y-23683228D01*
X29657053Y-23662143D01*
X29523925Y-23683228D01*
X29523923Y-23683229D01*
X29403835Y-23744417D01*
X29308523Y-23839729D01*
X29247335Y-23959817D01*
X29247334Y-23959819D01*
X29226249Y-24092946D01*
X29226249Y-24092947D01*
X27587857Y-24092947D01*
X27566772Y-23959821D01*
X27505581Y-23839727D01*
X27410273Y-23744419D01*
X27410270Y-23744417D01*
X27290182Y-23683229D01*
X27290180Y-23683228D01*
X27157053Y-23662143D01*
X27023925Y-23683228D01*
X27023923Y-23683229D01*
X26903835Y-23744417D01*
X26808523Y-23839729D01*
X26747335Y-23959817D01*
X26747334Y-23959819D01*
X26726249Y-24092946D01*
X26726249Y-24092947D01*
X25087857Y-24092947D01*
X25066772Y-23959821D01*
X25005581Y-23839727D01*
X24910273Y-23744419D01*
X24910270Y-23744417D01*
X24790182Y-23683229D01*
X24790180Y-23683228D01*
X24657053Y-23662143D01*
X24523925Y-23683228D01*
X24523923Y-23683229D01*
X24403835Y-23744417D01*
X24308523Y-23839729D01*
X24247335Y-23959817D01*
X24247334Y-23959819D01*
X24226249Y-24092946D01*
X24226249Y-24092947D01*
X22587857Y-24092947D01*
X22566772Y-23959821D01*
X22505581Y-23839727D01*
X22410273Y-23744419D01*
X22410270Y-23744417D01*
X22290182Y-23683229D01*
X22290180Y-23683228D01*
X22157053Y-23662143D01*
X22023925Y-23683228D01*
X22023923Y-23683229D01*
X21903835Y-23744417D01*
X21808523Y-23839729D01*
X21747335Y-23959817D01*
X21747334Y-23959819D01*
X21726249Y-24092946D01*
X21726249Y-24092947D01*
X20087857Y-24092947D01*
X20066772Y-23959821D01*
X20005581Y-23839727D01*
X19910273Y-23744419D01*
X19910270Y-23744417D01*
X19790182Y-23683229D01*
X19790180Y-23683228D01*
X19657053Y-23662143D01*
X19523925Y-23683228D01*
X19523923Y-23683229D01*
X19403835Y-23744417D01*
X19308523Y-23839729D01*
X19247335Y-23959817D01*
X19247334Y-23959819D01*
X19226249Y-24092946D01*
X19226249Y-24092947D01*
X17587857Y-24092947D01*
X17566772Y-23959821D01*
X17505581Y-23839727D01*
X17410273Y-23744419D01*
X17410270Y-23744417D01*
X17290182Y-23683229D01*
X17290180Y-23683228D01*
X17157053Y-23662143D01*
X17023925Y-23683228D01*
X17023923Y-23683229D01*
X16903835Y-23744417D01*
X16808523Y-23839729D01*
X16747335Y-23959817D01*
X16747334Y-23959819D01*
X16726249Y-24092946D01*
X16726249Y-24092947D01*
X15087857Y-24092947D01*
X15066772Y-23959821D01*
X15005581Y-23839727D01*
X14910273Y-23744419D01*
X14910270Y-23744417D01*
X14790182Y-23683229D01*
X14790180Y-23683228D01*
X14657053Y-23662143D01*
X14523925Y-23683228D01*
X14523923Y-23683229D01*
X14403835Y-23744417D01*
X14308523Y-23839729D01*
X14247335Y-23959817D01*
X14247334Y-23959819D01*
X14226249Y-24092946D01*
X14226249Y-24092947D01*
X12587857Y-24092947D01*
X12566772Y-23959821D01*
X12505581Y-23839727D01*
X12410273Y-23744419D01*
X12410270Y-23744417D01*
X12290182Y-23683229D01*
X12290180Y-23683228D01*
X12157053Y-23662143D01*
X12023925Y-23683228D01*
X12023923Y-23683229D01*
X11903835Y-23744417D01*
X11808523Y-23839729D01*
X11747335Y-23959817D01*
X11747334Y-23959819D01*
X11726249Y-24092946D01*
X11726249Y-24092947D01*
X10087857Y-24092947D01*
X10066772Y-23959821D01*
X10005581Y-23839727D01*
X9910273Y-23744419D01*
X9910270Y-23744417D01*
X9790182Y-23683229D01*
X9790180Y-23683228D01*
X9657053Y-23662143D01*
X9523925Y-23683228D01*
X9523923Y-23683229D01*
X9403835Y-23744417D01*
X9308523Y-23839729D01*
X9247335Y-23959817D01*
X9247334Y-23959819D01*
X9226249Y-24092946D01*
X9226249Y-24092947D01*
X7587857Y-24092947D01*
X7566772Y-23959821D01*
X7505581Y-23839727D01*
X7410273Y-23744419D01*
X7410270Y-23744417D01*
X7290182Y-23683229D01*
X7290180Y-23683228D01*
X7157053Y-23662143D01*
X7023925Y-23683228D01*
X7023923Y-23683229D01*
X6903835Y-23744417D01*
X6808523Y-23839729D01*
X6747335Y-23959817D01*
X6747334Y-23959819D01*
X6726249Y-24092946D01*
X6726249Y-24092947D01*
X5087857Y-24092947D01*
X5066772Y-23959821D01*
X5056494Y-23939649D01*
X5046922Y-23879217D01*
X5074699Y-23824700D01*
X5129215Y-23796922D01*
X5189647Y-23806493D01*
X5209821Y-23816772D01*
X5342947Y-23837857D01*
X5476073Y-23816772D01*
X5596167Y-23755581D01*
X5691475Y-23660273D01*
X5752666Y-23540179D01*
X5773751Y-23407053D01*
X5752666Y-23273927D01*
X5691475Y-23153833D01*
X5596167Y-23058525D01*
X5596164Y-23058523D01*
X5476076Y-22997335D01*
X5476074Y-22997334D01*
X5342947Y-22976249D01*
X5209819Y-22997334D01*
X5209817Y-22997335D01*
X5089729Y-23058523D01*
X4994417Y-23153835D01*
X4933229Y-23273923D01*
X4933228Y-23273925D01*
X4912143Y-23407052D01*
X4912143Y-23407053D01*
X4933228Y-23540180D01*
X4943506Y-23560352D01*
X4953077Y-23620784D01*
X4925299Y-23675300D01*
X4870782Y-23703077D01*
X4810352Y-23693506D01*
X4790180Y-23683228D01*
X4657053Y-23662143D01*
X4523925Y-23683228D01*
X4523923Y-23683229D01*
X4403835Y-23744417D01*
X4308523Y-23839729D01*
X4247335Y-23959817D01*
X4247334Y-23959819D01*
X4226249Y-24092946D01*
X4226249Y-24092947D01*
X200500Y-24092947D01*
X200500Y-21592947D01*
X6726249Y-21592947D01*
X6747334Y-21726074D01*
X6747335Y-21726076D01*
X6808523Y-21846164D01*
X6808525Y-21846167D01*
X6903833Y-21941475D01*
X7023927Y-22002666D01*
X7157053Y-22023751D01*
X7290179Y-22002666D01*
X7410273Y-21941475D01*
X7505581Y-21846167D01*
X7566772Y-21726073D01*
X7587857Y-21592947D01*
X9226249Y-21592947D01*
X9247334Y-21726074D01*
X9247335Y-21726076D01*
X9308523Y-21846164D01*
X9308525Y-21846167D01*
X9403833Y-21941475D01*
X9523927Y-22002666D01*
X9657053Y-22023751D01*
X9790179Y-22002666D01*
X9910273Y-21941475D01*
X10005581Y-21846167D01*
X10066772Y-21726073D01*
X10087857Y-21592947D01*
X11726249Y-21592947D01*
X11747334Y-21726074D01*
X11747335Y-21726076D01*
X11808523Y-21846164D01*
X11808525Y-21846167D01*
X11903833Y-21941475D01*
X12023927Y-22002666D01*
X12157053Y-22023751D01*
X12290179Y-22002666D01*
X12410273Y-21941475D01*
X12505581Y-21846167D01*
X12566772Y-21726073D01*
X12587857Y-21592947D01*
X14226249Y-21592947D01*
X14247334Y-21726074D01*
X14247335Y-21726076D01*
X14308523Y-21846164D01*
X14308525Y-21846167D01*
X14403833Y-21941475D01*
X14523927Y-22002666D01*
X14657053Y-22023751D01*
X14790179Y-22002666D01*
X14910273Y-21941475D01*
X15005581Y-21846167D01*
X15066772Y-21726073D01*
X15087857Y-21592947D01*
X16726249Y-21592947D01*
X16747334Y-21726074D01*
X16747335Y-21726076D01*
X16808523Y-21846164D01*
X16808525Y-21846167D01*
X16903833Y-21941475D01*
X17023927Y-22002666D01*
X17157053Y-22023751D01*
X17290179Y-22002666D01*
X17410273Y-21941475D01*
X17505581Y-21846167D01*
X17566772Y-21726073D01*
X17587857Y-21592947D01*
X19226249Y-21592947D01*
X19247334Y-21726074D01*
X19247335Y-21726076D01*
X19308523Y-21846164D01*
X19308525Y-21846167D01*
X19403833Y-21941475D01*
X19523927Y-22002666D01*
X19657053Y-22023751D01*
X19790179Y-22002666D01*
X19910273Y-21941475D01*
X20005581Y-21846167D01*
X20066772Y-21726073D01*
X20087857Y-21592947D01*
X21726249Y-21592947D01*
X21747334Y-21726074D01*
X21747335Y-21726076D01*
X21808523Y-21846164D01*
X21808525Y-21846167D01*
X21903833Y-21941475D01*
X22023927Y-22002666D01*
X22157053Y-22023751D01*
X22290179Y-22002666D01*
X22410273Y-21941475D01*
X22505581Y-21846167D01*
X22566772Y-21726073D01*
X22587857Y-21592947D01*
X24226249Y-21592947D01*
X24247334Y-21726074D01*
X24247335Y-21726076D01*
X24308523Y-21846164D01*
X24308525Y-21846167D01*
X24403833Y-21941475D01*
X24523927Y-22002666D01*
X24657053Y-22023751D01*
X24790179Y-22002666D01*
X24910273Y-21941475D01*
X25005581Y-21846167D01*
X25066772Y-21726073D01*
X25087857Y-21592947D01*
X26726249Y-21592947D01*
X26747334Y-21726074D01*
X26747335Y-21726076D01*
X26808523Y-21846164D01*
X26808525Y-21846167D01*
X26903833Y-21941475D01*
X27023927Y-22002666D01*
X27157053Y-22023751D01*
X27290179Y-22002666D01*
X27410273Y-21941475D01*
X27505581Y-21846167D01*
X27566772Y-21726073D01*
X27587857Y-21592947D01*
X29226249Y-21592947D01*
X29247334Y-21726074D01*
X29247335Y-21726076D01*
X29308523Y-21846164D01*
X29308525Y-21846167D01*
X29403833Y-21941475D01*
X29523927Y-22002666D01*
X29657053Y-22023751D01*
X29790179Y-22002666D01*
X29910273Y-21941475D01*
X30005581Y-21846167D01*
X30066772Y-21726073D01*
X30087857Y-21592947D01*
X30066772Y-21459821D01*
X30005581Y-21339727D01*
X29910273Y-21244419D01*
X29910270Y-21244417D01*
X29790182Y-21183229D01*
X29790180Y-21183228D01*
X29657053Y-21162143D01*
X29523925Y-21183228D01*
X29523923Y-21183229D01*
X29403835Y-21244417D01*
X29308523Y-21339729D01*
X29247335Y-21459817D01*
X29247334Y-21459819D01*
X29226249Y-21592946D01*
X29226249Y-21592947D01*
X27587857Y-21592947D01*
X27566772Y-21459821D01*
X27505581Y-21339727D01*
X27410273Y-21244419D01*
X27410270Y-21244417D01*
X27290182Y-21183229D01*
X27290180Y-21183228D01*
X27157053Y-21162143D01*
X27023925Y-21183228D01*
X27023923Y-21183229D01*
X26903835Y-21244417D01*
X26808523Y-21339729D01*
X26747335Y-21459817D01*
X26747334Y-21459819D01*
X26726249Y-21592946D01*
X26726249Y-21592947D01*
X25087857Y-21592947D01*
X25066772Y-21459821D01*
X25005581Y-21339727D01*
X24910273Y-21244419D01*
X24910270Y-21244417D01*
X24790182Y-21183229D01*
X24790180Y-21183228D01*
X24657053Y-21162143D01*
X24523925Y-21183228D01*
X24523923Y-21183229D01*
X24403835Y-21244417D01*
X24308523Y-21339729D01*
X24247335Y-21459817D01*
X24247334Y-21459819D01*
X24226249Y-21592946D01*
X24226249Y-21592947D01*
X22587857Y-21592947D01*
X22566772Y-21459821D01*
X22505581Y-21339727D01*
X22410273Y-21244419D01*
X22410270Y-21244417D01*
X22290182Y-21183229D01*
X22290180Y-21183228D01*
X22157053Y-21162143D01*
X22023925Y-21183228D01*
X22023923Y-21183229D01*
X21903835Y-21244417D01*
X21808523Y-21339729D01*
X21747335Y-21459817D01*
X21747334Y-21459819D01*
X21726249Y-21592946D01*
X21726249Y-21592947D01*
X20087857Y-21592947D01*
X20066772Y-21459821D01*
X20005581Y-21339727D01*
X19910273Y-21244419D01*
X19910270Y-21244417D01*
X19790182Y-21183229D01*
X19790180Y-21183228D01*
X19657053Y-21162143D01*
X19523925Y-21183228D01*
X19523923Y-21183229D01*
X19403835Y-21244417D01*
X19308523Y-21339729D01*
X19247335Y-21459817D01*
X19247334Y-21459819D01*
X19226249Y-21592946D01*
X19226249Y-21592947D01*
X17587857Y-21592947D01*
X17566772Y-21459821D01*
X17505581Y-21339727D01*
X17410273Y-21244419D01*
X17410270Y-21244417D01*
X17290182Y-21183229D01*
X17290180Y-21183228D01*
X17157053Y-21162143D01*
X17023925Y-21183228D01*
X17023923Y-21183229D01*
X16903835Y-21244417D01*
X16808523Y-21339729D01*
X16747335Y-21459817D01*
X16747334Y-21459819D01*
X16726249Y-21592946D01*
X16726249Y-21592947D01*
X15087857Y-21592947D01*
X15066772Y-21459821D01*
X15005581Y-21339727D01*
X14910273Y-21244419D01*
X14910270Y-21244417D01*
X14790182Y-21183229D01*
X14790180Y-21183228D01*
X14657053Y-21162143D01*
X14523925Y-21183228D01*
X14523923Y-21183229D01*
X14403835Y-21244417D01*
X14308523Y-21339729D01*
X14247335Y-21459817D01*
X14247334Y-21459819D01*
X14226249Y-21592946D01*
X14226249Y-21592947D01*
X12587857Y-21592947D01*
X12566772Y-21459821D01*
X12505581Y-21339727D01*
X12410273Y-21244419D01*
X12410270Y-21244417D01*
X12290182Y-21183229D01*
X12290180Y-21183228D01*
X12157053Y-21162143D01*
X12023925Y-21183228D01*
X12023923Y-21183229D01*
X11903835Y-21244417D01*
X11808523Y-21339729D01*
X11747335Y-21459817D01*
X11747334Y-21459819D01*
X11726249Y-21592946D01*
X11726249Y-21592947D01*
X10087857Y-21592947D01*
X10066772Y-21459821D01*
X10005581Y-21339727D01*
X9910273Y-21244419D01*
X9910270Y-21244417D01*
X9790182Y-21183229D01*
X9790180Y-21183228D01*
X9657053Y-21162143D01*
X9523925Y-21183228D01*
X9523923Y-21183229D01*
X9403835Y-21244417D01*
X9308523Y-21339729D01*
X9247335Y-21459817D01*
X9247334Y-21459819D01*
X9226249Y-21592946D01*
X9226249Y-21592947D01*
X7587857Y-21592947D01*
X7566772Y-21459821D01*
X7505581Y-21339727D01*
X7410273Y-21244419D01*
X7410270Y-21244417D01*
X7290182Y-21183229D01*
X7290180Y-21183228D01*
X7157053Y-21162143D01*
X7023925Y-21183228D01*
X7023923Y-21183229D01*
X6903835Y-21244417D01*
X6808523Y-21339729D01*
X6747335Y-21459817D01*
X6747334Y-21459819D01*
X6726249Y-21592946D01*
X6726249Y-21592947D01*
X200500Y-21592947D01*
X200500Y-20907053D01*
X4912143Y-20907053D01*
X4933228Y-21040180D01*
X4933229Y-21040182D01*
X4994417Y-21160270D01*
X4994419Y-21160273D01*
X5089727Y-21255581D01*
X5209821Y-21316772D01*
X5342947Y-21337857D01*
X5476073Y-21316772D01*
X5596167Y-21255581D01*
X5691475Y-21160273D01*
X5752666Y-21040179D01*
X5773751Y-20907053D01*
X5752666Y-20773927D01*
X5691475Y-20653833D01*
X5596167Y-20558525D01*
X5596164Y-20558523D01*
X5476076Y-20497335D01*
X5476074Y-20497334D01*
X5342947Y-20476249D01*
X5209819Y-20497334D01*
X5209817Y-20497335D01*
X5089729Y-20558523D01*
X4994417Y-20653835D01*
X4933229Y-20773923D01*
X4933228Y-20773925D01*
X4912143Y-20907052D01*
X4912143Y-20907053D01*
X200500Y-20907053D01*
X200500Y-19662232D01*
X32205690Y-19662232D01*
X32235917Y-19807698D01*
X32235919Y-19807706D01*
X32271309Y-19876004D01*
X32304276Y-19939626D01*
X32405690Y-20048214D01*
X32532640Y-20125414D01*
X32675710Y-20165500D01*
X32675711Y-20165500D01*
X32786968Y-20165500D01*
X32786974Y-20165500D01*
X32897196Y-20150350D01*
X33033476Y-20091156D01*
X33148731Y-19997389D01*
X33234414Y-19876003D01*
X33284171Y-19736002D01*
X33294310Y-19587768D01*
X33281007Y-19523751D01*
X33264082Y-19442301D01*
X33264080Y-19442293D01*
X33195725Y-19310376D01*
X33195723Y-19310373D01*
X33094311Y-19201787D01*
X33094310Y-19201786D01*
X32967360Y-19124586D01*
X32967359Y-19124585D01*
X32967358Y-19124585D01*
X32824290Y-19084500D01*
X32713026Y-19084500D01*
X32602805Y-19099649D01*
X32602801Y-19099650D01*
X32466524Y-19158843D01*
X32466522Y-19158844D01*
X32351268Y-19252610D01*
X32265587Y-19373995D01*
X32215828Y-19513997D01*
X32205690Y-19662232D01*
X200500Y-19662232D01*
X200500Y-19092947D01*
X6726249Y-19092947D01*
X6747334Y-19226074D01*
X6747335Y-19226076D01*
X6808523Y-19346164D01*
X6808525Y-19346167D01*
X6903833Y-19441475D01*
X7023927Y-19502666D01*
X7157053Y-19523751D01*
X7290179Y-19502666D01*
X7410273Y-19441475D01*
X7505581Y-19346167D01*
X7566772Y-19226073D01*
X7587857Y-19092947D01*
X9226249Y-19092947D01*
X9247334Y-19226074D01*
X9247335Y-19226076D01*
X9308523Y-19346164D01*
X9308525Y-19346167D01*
X9403833Y-19441475D01*
X9523927Y-19502666D01*
X9657053Y-19523751D01*
X9790179Y-19502666D01*
X9910273Y-19441475D01*
X10005581Y-19346167D01*
X10066772Y-19226073D01*
X10087857Y-19092947D01*
X11726249Y-19092947D01*
X11747334Y-19226074D01*
X11747335Y-19226076D01*
X11808523Y-19346164D01*
X11808525Y-19346167D01*
X11903833Y-19441475D01*
X12023927Y-19502666D01*
X12157053Y-19523751D01*
X12290179Y-19502666D01*
X12410273Y-19441475D01*
X12505581Y-19346167D01*
X12566772Y-19226073D01*
X12587857Y-19092947D01*
X14226249Y-19092947D01*
X14247334Y-19226074D01*
X14247335Y-19226076D01*
X14308523Y-19346164D01*
X14308525Y-19346167D01*
X14403833Y-19441475D01*
X14523927Y-19502666D01*
X14657053Y-19523751D01*
X14790179Y-19502666D01*
X14910273Y-19441475D01*
X15005581Y-19346167D01*
X15066772Y-19226073D01*
X15087857Y-19092947D01*
X16726249Y-19092947D01*
X16747334Y-19226074D01*
X16747335Y-19226076D01*
X16808523Y-19346164D01*
X16808525Y-19346167D01*
X16903833Y-19441475D01*
X17023927Y-19502666D01*
X17157053Y-19523751D01*
X17290179Y-19502666D01*
X17410273Y-19441475D01*
X17505581Y-19346167D01*
X17566772Y-19226073D01*
X17587857Y-19092947D01*
X19226249Y-19092947D01*
X19247334Y-19226074D01*
X19247335Y-19226076D01*
X19308523Y-19346164D01*
X19308525Y-19346167D01*
X19403833Y-19441475D01*
X19523927Y-19502666D01*
X19657053Y-19523751D01*
X19790179Y-19502666D01*
X19910273Y-19441475D01*
X20005581Y-19346167D01*
X20066772Y-19226073D01*
X20087857Y-19092947D01*
X21726249Y-19092947D01*
X21747334Y-19226074D01*
X21747335Y-19226076D01*
X21808523Y-19346164D01*
X21808525Y-19346167D01*
X21903833Y-19441475D01*
X22023927Y-19502666D01*
X22157053Y-19523751D01*
X22290179Y-19502666D01*
X22410273Y-19441475D01*
X22505581Y-19346167D01*
X22566772Y-19226073D01*
X22587857Y-19092947D01*
X24226249Y-19092947D01*
X24247334Y-19226074D01*
X24247335Y-19226076D01*
X24308523Y-19346164D01*
X24308525Y-19346167D01*
X24403833Y-19441475D01*
X24523927Y-19502666D01*
X24657053Y-19523751D01*
X24790179Y-19502666D01*
X24910273Y-19441475D01*
X25005581Y-19346167D01*
X25066772Y-19226073D01*
X25087857Y-19092947D01*
X26726249Y-19092947D01*
X26747334Y-19226074D01*
X26747335Y-19226076D01*
X26808523Y-19346164D01*
X26808525Y-19346167D01*
X26903833Y-19441475D01*
X27023927Y-19502666D01*
X27157053Y-19523751D01*
X27290179Y-19502666D01*
X27410273Y-19441475D01*
X27505581Y-19346167D01*
X27566772Y-19226073D01*
X27587857Y-19092947D01*
X29226249Y-19092947D01*
X29247334Y-19226074D01*
X29247335Y-19226076D01*
X29308523Y-19346164D01*
X29308525Y-19346167D01*
X29403833Y-19441475D01*
X29523927Y-19502666D01*
X29657053Y-19523751D01*
X29790179Y-19502666D01*
X29910273Y-19441475D01*
X30005581Y-19346167D01*
X30066772Y-19226073D01*
X30087857Y-19092947D01*
X30066772Y-18959821D01*
X30005581Y-18839727D01*
X29910273Y-18744419D01*
X29910270Y-18744417D01*
X29790182Y-18683229D01*
X29790180Y-18683228D01*
X29657053Y-18662143D01*
X29523925Y-18683228D01*
X29523923Y-18683229D01*
X29403835Y-18744417D01*
X29308523Y-18839729D01*
X29247335Y-18959817D01*
X29247334Y-18959819D01*
X29226249Y-19092946D01*
X29226249Y-19092947D01*
X27587857Y-19092947D01*
X27566772Y-18959821D01*
X27505581Y-18839727D01*
X27410273Y-18744419D01*
X27410270Y-18744417D01*
X27290182Y-18683229D01*
X27290180Y-18683228D01*
X27157053Y-18662143D01*
X27023925Y-18683228D01*
X27023923Y-18683229D01*
X26903835Y-18744417D01*
X26808523Y-18839729D01*
X26747335Y-18959817D01*
X26747334Y-18959819D01*
X26726249Y-19092946D01*
X26726249Y-19092947D01*
X25087857Y-19092947D01*
X25066772Y-18959821D01*
X25005581Y-18839727D01*
X24910273Y-18744419D01*
X24910270Y-18744417D01*
X24790182Y-18683229D01*
X24790180Y-18683228D01*
X24657053Y-18662143D01*
X24523925Y-18683228D01*
X24523923Y-18683229D01*
X24403835Y-18744417D01*
X24308523Y-18839729D01*
X24247335Y-18959817D01*
X24247334Y-18959819D01*
X24226249Y-19092946D01*
X24226249Y-19092947D01*
X22587857Y-19092947D01*
X22566772Y-18959821D01*
X22505581Y-18839727D01*
X22410273Y-18744419D01*
X22410270Y-18744417D01*
X22290182Y-18683229D01*
X22290180Y-18683228D01*
X22157053Y-18662143D01*
X22023925Y-18683228D01*
X22023923Y-18683229D01*
X21903835Y-18744417D01*
X21808523Y-18839729D01*
X21747335Y-18959817D01*
X21747334Y-18959819D01*
X21726249Y-19092946D01*
X21726249Y-19092947D01*
X20087857Y-19092947D01*
X20066772Y-18959821D01*
X20005581Y-18839727D01*
X19910273Y-18744419D01*
X19910270Y-18744417D01*
X19790182Y-18683229D01*
X19790180Y-18683228D01*
X19657053Y-18662143D01*
X19523925Y-18683228D01*
X19523923Y-18683229D01*
X19403835Y-18744417D01*
X19308523Y-18839729D01*
X19247335Y-18959817D01*
X19247334Y-18959819D01*
X19226249Y-19092946D01*
X19226249Y-19092947D01*
X17587857Y-19092947D01*
X17566772Y-18959821D01*
X17505581Y-18839727D01*
X17410273Y-18744419D01*
X17410270Y-18744417D01*
X17290182Y-18683229D01*
X17290180Y-18683228D01*
X17157053Y-18662143D01*
X17023925Y-18683228D01*
X17023923Y-18683229D01*
X16903835Y-18744417D01*
X16808523Y-18839729D01*
X16747335Y-18959817D01*
X16747334Y-18959819D01*
X16726249Y-19092946D01*
X16726249Y-19092947D01*
X15087857Y-19092947D01*
X15066772Y-18959821D01*
X15005581Y-18839727D01*
X14910273Y-18744419D01*
X14910270Y-18744417D01*
X14790182Y-18683229D01*
X14790180Y-18683228D01*
X14657053Y-18662143D01*
X14523925Y-18683228D01*
X14523923Y-18683229D01*
X14403835Y-18744417D01*
X14308523Y-18839729D01*
X14247335Y-18959817D01*
X14247334Y-18959819D01*
X14226249Y-19092946D01*
X14226249Y-19092947D01*
X12587857Y-19092947D01*
X12566772Y-18959821D01*
X12505581Y-18839727D01*
X12410273Y-18744419D01*
X12410270Y-18744417D01*
X12290182Y-18683229D01*
X12290180Y-18683228D01*
X12157053Y-18662143D01*
X12023925Y-18683228D01*
X12023923Y-18683229D01*
X11903835Y-18744417D01*
X11808523Y-18839729D01*
X11747335Y-18959817D01*
X11747334Y-18959819D01*
X11726249Y-19092946D01*
X11726249Y-19092947D01*
X10087857Y-19092947D01*
X10066772Y-18959821D01*
X10005581Y-18839727D01*
X9910273Y-18744419D01*
X9910270Y-18744417D01*
X9790182Y-18683229D01*
X9790180Y-18683228D01*
X9657053Y-18662143D01*
X9523925Y-18683228D01*
X9523923Y-18683229D01*
X9403835Y-18744417D01*
X9308523Y-18839729D01*
X9247335Y-18959817D01*
X9247334Y-18959819D01*
X9226249Y-19092946D01*
X9226249Y-19092947D01*
X7587857Y-19092947D01*
X7566772Y-18959821D01*
X7505581Y-18839727D01*
X7410273Y-18744419D01*
X7410270Y-18744417D01*
X7290182Y-18683229D01*
X7290180Y-18683228D01*
X7157053Y-18662143D01*
X7023925Y-18683228D01*
X7023923Y-18683229D01*
X6903835Y-18744417D01*
X6808523Y-18839729D01*
X6747335Y-18959817D01*
X6747334Y-18959819D01*
X6726249Y-19092946D01*
X6726249Y-19092947D01*
X200500Y-19092947D01*
X200500Y-18407053D01*
X4912143Y-18407053D01*
X4933228Y-18540180D01*
X4933229Y-18540182D01*
X4994417Y-18660270D01*
X4994419Y-18660273D01*
X5089727Y-18755581D01*
X5209821Y-18816772D01*
X5342947Y-18837857D01*
X5476073Y-18816772D01*
X5596167Y-18755581D01*
X5691475Y-18660273D01*
X5752666Y-18540179D01*
X5773751Y-18407053D01*
X5752666Y-18273927D01*
X5691475Y-18153833D01*
X5596167Y-18058525D01*
X5596164Y-18058523D01*
X5476076Y-17997335D01*
X5476074Y-17997334D01*
X5342947Y-17976249D01*
X5209819Y-17997334D01*
X5209817Y-17997335D01*
X5089729Y-18058523D01*
X4994417Y-18153835D01*
X4933229Y-18273923D01*
X4933228Y-18273925D01*
X4912143Y-18407052D01*
X4912143Y-18407053D01*
X200500Y-18407053D01*
X200500Y-16592947D01*
X6726249Y-16592947D01*
X6747334Y-16726074D01*
X6747335Y-16726076D01*
X6808523Y-16846164D01*
X6808525Y-16846167D01*
X6903833Y-16941475D01*
X7023927Y-17002666D01*
X7157053Y-17023751D01*
X7290179Y-17002666D01*
X7410273Y-16941475D01*
X7505581Y-16846167D01*
X7566772Y-16726073D01*
X7587857Y-16592947D01*
X9226249Y-16592947D01*
X9247334Y-16726074D01*
X9247335Y-16726076D01*
X9308523Y-16846164D01*
X9308525Y-16846167D01*
X9403833Y-16941475D01*
X9523927Y-17002666D01*
X9657053Y-17023751D01*
X9790179Y-17002666D01*
X9910273Y-16941475D01*
X10005581Y-16846167D01*
X10066772Y-16726073D01*
X10087857Y-16592947D01*
X11726249Y-16592947D01*
X11747334Y-16726074D01*
X11747335Y-16726076D01*
X11808523Y-16846164D01*
X11808525Y-16846167D01*
X11903833Y-16941475D01*
X12023927Y-17002666D01*
X12157053Y-17023751D01*
X12290179Y-17002666D01*
X12410273Y-16941475D01*
X12505581Y-16846167D01*
X12566772Y-16726073D01*
X12587857Y-16592947D01*
X14226249Y-16592947D01*
X14247334Y-16726074D01*
X14247335Y-16726076D01*
X14308523Y-16846164D01*
X14308525Y-16846167D01*
X14403833Y-16941475D01*
X14523927Y-17002666D01*
X14657053Y-17023751D01*
X14790179Y-17002666D01*
X14910273Y-16941475D01*
X15005581Y-16846167D01*
X15066772Y-16726073D01*
X15087857Y-16592947D01*
X16726249Y-16592947D01*
X16747334Y-16726074D01*
X16747335Y-16726076D01*
X16808523Y-16846164D01*
X16808525Y-16846167D01*
X16903833Y-16941475D01*
X17023927Y-17002666D01*
X17157053Y-17023751D01*
X17290179Y-17002666D01*
X17410273Y-16941475D01*
X17505581Y-16846167D01*
X17566772Y-16726073D01*
X17587857Y-16592947D01*
X19226249Y-16592947D01*
X19247334Y-16726074D01*
X19247335Y-16726076D01*
X19308523Y-16846164D01*
X19308525Y-16846167D01*
X19403833Y-16941475D01*
X19523927Y-17002666D01*
X19657053Y-17023751D01*
X19790179Y-17002666D01*
X19910273Y-16941475D01*
X20005581Y-16846167D01*
X20066772Y-16726073D01*
X20087857Y-16592947D01*
X21726249Y-16592947D01*
X21747334Y-16726074D01*
X21747335Y-16726076D01*
X21808523Y-16846164D01*
X21808525Y-16846167D01*
X21903833Y-16941475D01*
X22023927Y-17002666D01*
X22157053Y-17023751D01*
X22290179Y-17002666D01*
X22410273Y-16941475D01*
X22505581Y-16846167D01*
X22566772Y-16726073D01*
X22587857Y-16592947D01*
X24226249Y-16592947D01*
X24247334Y-16726074D01*
X24247335Y-16726076D01*
X24308523Y-16846164D01*
X24308525Y-16846167D01*
X24403833Y-16941475D01*
X24523927Y-17002666D01*
X24657053Y-17023751D01*
X24790179Y-17002666D01*
X24910273Y-16941475D01*
X25005581Y-16846167D01*
X25066772Y-16726073D01*
X25087857Y-16592947D01*
X26726249Y-16592947D01*
X26747334Y-16726074D01*
X26747335Y-16726076D01*
X26808523Y-16846164D01*
X26808525Y-16846167D01*
X26903833Y-16941475D01*
X27023927Y-17002666D01*
X27157053Y-17023751D01*
X27290179Y-17002666D01*
X27410273Y-16941475D01*
X27505581Y-16846167D01*
X27566772Y-16726073D01*
X27587857Y-16592947D01*
X29226249Y-16592947D01*
X29247334Y-16726074D01*
X29247335Y-16726076D01*
X29308523Y-16846164D01*
X29308525Y-16846167D01*
X29403833Y-16941475D01*
X29523927Y-17002666D01*
X29657053Y-17023751D01*
X29790179Y-17002666D01*
X29910273Y-16941475D01*
X30005581Y-16846167D01*
X30066772Y-16726073D01*
X30087857Y-16592947D01*
X30066772Y-16459821D01*
X30005581Y-16339727D01*
X29910273Y-16244419D01*
X29910270Y-16244417D01*
X29790182Y-16183229D01*
X29790180Y-16183228D01*
X29657053Y-16162143D01*
X29523925Y-16183228D01*
X29523923Y-16183229D01*
X29403835Y-16244417D01*
X29308523Y-16339729D01*
X29247335Y-16459817D01*
X29247334Y-16459819D01*
X29226249Y-16592946D01*
X29226249Y-16592947D01*
X27587857Y-16592947D01*
X27566772Y-16459821D01*
X27505581Y-16339727D01*
X27410273Y-16244419D01*
X27410270Y-16244417D01*
X27290182Y-16183229D01*
X27290180Y-16183228D01*
X27157053Y-16162143D01*
X27023925Y-16183228D01*
X27023923Y-16183229D01*
X26903835Y-16244417D01*
X26808523Y-16339729D01*
X26747335Y-16459817D01*
X26747334Y-16459819D01*
X26726249Y-16592946D01*
X26726249Y-16592947D01*
X25087857Y-16592947D01*
X25066772Y-16459821D01*
X25005581Y-16339727D01*
X24910273Y-16244419D01*
X24910270Y-16244417D01*
X24790182Y-16183229D01*
X24790180Y-16183228D01*
X24657053Y-16162143D01*
X24523925Y-16183228D01*
X24523923Y-16183229D01*
X24403835Y-16244417D01*
X24308523Y-16339729D01*
X24247335Y-16459817D01*
X24247334Y-16459819D01*
X24226249Y-16592946D01*
X24226249Y-16592947D01*
X22587857Y-16592947D01*
X22566772Y-16459821D01*
X22505581Y-16339727D01*
X22410273Y-16244419D01*
X22410270Y-16244417D01*
X22290182Y-16183229D01*
X22290180Y-16183228D01*
X22157053Y-16162143D01*
X22023925Y-16183228D01*
X22023923Y-16183229D01*
X21903835Y-16244417D01*
X21808523Y-16339729D01*
X21747335Y-16459817D01*
X21747334Y-16459819D01*
X21726249Y-16592946D01*
X21726249Y-16592947D01*
X20087857Y-16592947D01*
X20066772Y-16459821D01*
X20005581Y-16339727D01*
X19910273Y-16244419D01*
X19910270Y-16244417D01*
X19790182Y-16183229D01*
X19790180Y-16183228D01*
X19657053Y-16162143D01*
X19523925Y-16183228D01*
X19523923Y-16183229D01*
X19403835Y-16244417D01*
X19308523Y-16339729D01*
X19247335Y-16459817D01*
X19247334Y-16459819D01*
X19226249Y-16592946D01*
X19226249Y-16592947D01*
X17587857Y-16592947D01*
X17566772Y-16459821D01*
X17505581Y-16339727D01*
X17410273Y-16244419D01*
X17410270Y-16244417D01*
X17290182Y-16183229D01*
X17290180Y-16183228D01*
X17157053Y-16162143D01*
X17023925Y-16183228D01*
X17023923Y-16183229D01*
X16903835Y-16244417D01*
X16808523Y-16339729D01*
X16747335Y-16459817D01*
X16747334Y-16459819D01*
X16726249Y-16592946D01*
X16726249Y-16592947D01*
X15087857Y-16592947D01*
X15066772Y-16459821D01*
X15005581Y-16339727D01*
X14910273Y-16244419D01*
X14910270Y-16244417D01*
X14790182Y-16183229D01*
X14790180Y-16183228D01*
X14657053Y-16162143D01*
X14523925Y-16183228D01*
X14523923Y-16183229D01*
X14403835Y-16244417D01*
X14308523Y-16339729D01*
X14247335Y-16459817D01*
X14247334Y-16459819D01*
X14226249Y-16592946D01*
X14226249Y-16592947D01*
X12587857Y-16592947D01*
X12566772Y-16459821D01*
X12505581Y-16339727D01*
X12410273Y-16244419D01*
X12410270Y-16244417D01*
X12290182Y-16183229D01*
X12290180Y-16183228D01*
X12157053Y-16162143D01*
X12023925Y-16183228D01*
X12023923Y-16183229D01*
X11903835Y-16244417D01*
X11808523Y-16339729D01*
X11747335Y-16459817D01*
X11747334Y-16459819D01*
X11726249Y-16592946D01*
X11726249Y-16592947D01*
X10087857Y-16592947D01*
X10066772Y-16459821D01*
X10005581Y-16339727D01*
X9910273Y-16244419D01*
X9910270Y-16244417D01*
X9790182Y-16183229D01*
X9790180Y-16183228D01*
X9657053Y-16162143D01*
X9523925Y-16183228D01*
X9523923Y-16183229D01*
X9403835Y-16244417D01*
X9308523Y-16339729D01*
X9247335Y-16459817D01*
X9247334Y-16459819D01*
X9226249Y-16592946D01*
X9226249Y-16592947D01*
X7587857Y-16592947D01*
X7566772Y-16459821D01*
X7505581Y-16339727D01*
X7410273Y-16244419D01*
X7410270Y-16244417D01*
X7290182Y-16183229D01*
X7290180Y-16183228D01*
X7157053Y-16162143D01*
X7023925Y-16183228D01*
X7023923Y-16183229D01*
X6903835Y-16244417D01*
X6808523Y-16339729D01*
X6747335Y-16459817D01*
X6747334Y-16459819D01*
X6726249Y-16592946D01*
X6726249Y-16592947D01*
X200500Y-16592947D01*
X200500Y-15907053D01*
X4912143Y-15907053D01*
X4933228Y-16040180D01*
X4933229Y-16040182D01*
X4994417Y-16160270D01*
X4994419Y-16160273D01*
X5089727Y-16255581D01*
X5209821Y-16316772D01*
X5342947Y-16337857D01*
X5476073Y-16316772D01*
X5596167Y-16255581D01*
X5691475Y-16160273D01*
X5752666Y-16040179D01*
X5773751Y-15907053D01*
X5752666Y-15773927D01*
X5691475Y-15653833D01*
X5596167Y-15558525D01*
X5596164Y-15558523D01*
X5476076Y-15497335D01*
X5476074Y-15497334D01*
X5342947Y-15476249D01*
X5209819Y-15497334D01*
X5209817Y-15497335D01*
X5089729Y-15558523D01*
X4994417Y-15653835D01*
X4933229Y-15773923D01*
X4933228Y-15773925D01*
X4912143Y-15907052D01*
X4912143Y-15907053D01*
X200500Y-15907053D01*
X200500Y-15412232D01*
X32205690Y-15412232D01*
X32235917Y-15557698D01*
X32235919Y-15557706D01*
X32304274Y-15689623D01*
X32304276Y-15689626D01*
X32383007Y-15773927D01*
X32405690Y-15798214D01*
X32532640Y-15875414D01*
X32675710Y-15915500D01*
X32675711Y-15915500D01*
X32786968Y-15915500D01*
X32786974Y-15915500D01*
X32897196Y-15900350D01*
X33033476Y-15841156D01*
X33148731Y-15747389D01*
X33234414Y-15626003D01*
X33284171Y-15486002D01*
X33294310Y-15337768D01*
X33278980Y-15263997D01*
X33264082Y-15192301D01*
X33264080Y-15192293D01*
X33195725Y-15060376D01*
X33195723Y-15060373D01*
X33094311Y-14951787D01*
X33094310Y-14951786D01*
X32967360Y-14874586D01*
X32967359Y-14874585D01*
X32967358Y-14874585D01*
X32824290Y-14834500D01*
X32713026Y-14834500D01*
X32602805Y-14849649D01*
X32602801Y-14849650D01*
X32466524Y-14908843D01*
X32466522Y-14908844D01*
X32351268Y-15002610D01*
X32265587Y-15123995D01*
X32215828Y-15263997D01*
X32205690Y-15412232D01*
X200500Y-15412232D01*
X200500Y-14092947D01*
X6726249Y-14092947D01*
X6747334Y-14226074D01*
X6747335Y-14226076D01*
X6808523Y-14346164D01*
X6808525Y-14346167D01*
X6903833Y-14441475D01*
X7023927Y-14502666D01*
X7157053Y-14523751D01*
X7290179Y-14502666D01*
X7410273Y-14441475D01*
X7505581Y-14346167D01*
X7566772Y-14226073D01*
X7587857Y-14092947D01*
X9226249Y-14092947D01*
X9247334Y-14226074D01*
X9247335Y-14226076D01*
X9308523Y-14346164D01*
X9308525Y-14346167D01*
X9403833Y-14441475D01*
X9523927Y-14502666D01*
X9657053Y-14523751D01*
X9790179Y-14502666D01*
X9910273Y-14441475D01*
X10005581Y-14346167D01*
X10066772Y-14226073D01*
X10087857Y-14092947D01*
X11726249Y-14092947D01*
X11747334Y-14226074D01*
X11747335Y-14226076D01*
X11808523Y-14346164D01*
X11808525Y-14346167D01*
X11903833Y-14441475D01*
X12023927Y-14502666D01*
X12157053Y-14523751D01*
X12290179Y-14502666D01*
X12410273Y-14441475D01*
X12505581Y-14346167D01*
X12566772Y-14226073D01*
X12587857Y-14092947D01*
X14226249Y-14092947D01*
X14247334Y-14226074D01*
X14247335Y-14226076D01*
X14308523Y-14346164D01*
X14308525Y-14346167D01*
X14403833Y-14441475D01*
X14523927Y-14502666D01*
X14657053Y-14523751D01*
X14790179Y-14502666D01*
X14910273Y-14441475D01*
X15005581Y-14346167D01*
X15066772Y-14226073D01*
X15087857Y-14092947D01*
X16726249Y-14092947D01*
X16747334Y-14226074D01*
X16747335Y-14226076D01*
X16808523Y-14346164D01*
X16808525Y-14346167D01*
X16903833Y-14441475D01*
X17023927Y-14502666D01*
X17157053Y-14523751D01*
X17290179Y-14502666D01*
X17410273Y-14441475D01*
X17505581Y-14346167D01*
X17566772Y-14226073D01*
X17587857Y-14092947D01*
X19226249Y-14092947D01*
X19247334Y-14226074D01*
X19247335Y-14226076D01*
X19308523Y-14346164D01*
X19308525Y-14346167D01*
X19403833Y-14441475D01*
X19523927Y-14502666D01*
X19657053Y-14523751D01*
X19790179Y-14502666D01*
X19910273Y-14441475D01*
X20005581Y-14346167D01*
X20066772Y-14226073D01*
X20087857Y-14092947D01*
X21726249Y-14092947D01*
X21747334Y-14226074D01*
X21747335Y-14226076D01*
X21808523Y-14346164D01*
X21808525Y-14346167D01*
X21903833Y-14441475D01*
X22023927Y-14502666D01*
X22157053Y-14523751D01*
X22290179Y-14502666D01*
X22410273Y-14441475D01*
X22505581Y-14346167D01*
X22566772Y-14226073D01*
X22587857Y-14092947D01*
X24226249Y-14092947D01*
X24247334Y-14226074D01*
X24247335Y-14226076D01*
X24308523Y-14346164D01*
X24308525Y-14346167D01*
X24403833Y-14441475D01*
X24523927Y-14502666D01*
X24657053Y-14523751D01*
X24790179Y-14502666D01*
X24910273Y-14441475D01*
X25005581Y-14346167D01*
X25066772Y-14226073D01*
X25087857Y-14092947D01*
X26726249Y-14092947D01*
X26747334Y-14226074D01*
X26747335Y-14226076D01*
X26808523Y-14346164D01*
X26808525Y-14346167D01*
X26903833Y-14441475D01*
X27023927Y-14502666D01*
X27157053Y-14523751D01*
X27290179Y-14502666D01*
X27410273Y-14441475D01*
X27505581Y-14346167D01*
X27566772Y-14226073D01*
X27587857Y-14092947D01*
X29226249Y-14092947D01*
X29247334Y-14226074D01*
X29247335Y-14226076D01*
X29308523Y-14346164D01*
X29308525Y-14346167D01*
X29403833Y-14441475D01*
X29523927Y-14502666D01*
X29657053Y-14523751D01*
X29790179Y-14502666D01*
X29910273Y-14441475D01*
X30005581Y-14346167D01*
X30066772Y-14226073D01*
X30087857Y-14092947D01*
X30066772Y-13959821D01*
X30005581Y-13839727D01*
X29910273Y-13744419D01*
X29910270Y-13744417D01*
X29790182Y-13683229D01*
X29790180Y-13683228D01*
X29657053Y-13662143D01*
X29523925Y-13683228D01*
X29523923Y-13683229D01*
X29403835Y-13744417D01*
X29308523Y-13839729D01*
X29247335Y-13959817D01*
X29247334Y-13959819D01*
X29226249Y-14092946D01*
X29226249Y-14092947D01*
X27587857Y-14092947D01*
X27566772Y-13959821D01*
X27505581Y-13839727D01*
X27410273Y-13744419D01*
X27410270Y-13744417D01*
X27290182Y-13683229D01*
X27290180Y-13683228D01*
X27157053Y-13662143D01*
X27023925Y-13683228D01*
X27023923Y-13683229D01*
X26903835Y-13744417D01*
X26808523Y-13839729D01*
X26747335Y-13959817D01*
X26747334Y-13959819D01*
X26726249Y-14092946D01*
X26726249Y-14092947D01*
X25087857Y-14092947D01*
X25066772Y-13959821D01*
X25005581Y-13839727D01*
X24910273Y-13744419D01*
X24910270Y-13744417D01*
X24790182Y-13683229D01*
X24790180Y-13683228D01*
X24657053Y-13662143D01*
X24523925Y-13683228D01*
X24523923Y-13683229D01*
X24403835Y-13744417D01*
X24308523Y-13839729D01*
X24247335Y-13959817D01*
X24247334Y-13959819D01*
X24226249Y-14092946D01*
X24226249Y-14092947D01*
X22587857Y-14092947D01*
X22566772Y-13959821D01*
X22505581Y-13839727D01*
X22410273Y-13744419D01*
X22410270Y-13744417D01*
X22290182Y-13683229D01*
X22290180Y-13683228D01*
X22157053Y-13662143D01*
X22023925Y-13683228D01*
X22023923Y-13683229D01*
X21903835Y-13744417D01*
X21808523Y-13839729D01*
X21747335Y-13959817D01*
X21747334Y-13959819D01*
X21726249Y-14092946D01*
X21726249Y-14092947D01*
X20087857Y-14092947D01*
X20066772Y-13959821D01*
X20005581Y-13839727D01*
X19910273Y-13744419D01*
X19910270Y-13744417D01*
X19790182Y-13683229D01*
X19790180Y-13683228D01*
X19657053Y-13662143D01*
X19523925Y-13683228D01*
X19523923Y-13683229D01*
X19403835Y-13744417D01*
X19308523Y-13839729D01*
X19247335Y-13959817D01*
X19247334Y-13959819D01*
X19226249Y-14092946D01*
X19226249Y-14092947D01*
X17587857Y-14092947D01*
X17566772Y-13959821D01*
X17505581Y-13839727D01*
X17410273Y-13744419D01*
X17410270Y-13744417D01*
X17290182Y-13683229D01*
X17290180Y-13683228D01*
X17157053Y-13662143D01*
X17023925Y-13683228D01*
X17023923Y-13683229D01*
X16903835Y-13744417D01*
X16808523Y-13839729D01*
X16747335Y-13959817D01*
X16747334Y-13959819D01*
X16726249Y-14092946D01*
X16726249Y-14092947D01*
X15087857Y-14092947D01*
X15066772Y-13959821D01*
X15005581Y-13839727D01*
X14910273Y-13744419D01*
X14910270Y-13744417D01*
X14790182Y-13683229D01*
X14790180Y-13683228D01*
X14657053Y-13662143D01*
X14523925Y-13683228D01*
X14523923Y-13683229D01*
X14403835Y-13744417D01*
X14308523Y-13839729D01*
X14247335Y-13959817D01*
X14247334Y-13959819D01*
X14226249Y-14092946D01*
X14226249Y-14092947D01*
X12587857Y-14092947D01*
X12566772Y-13959821D01*
X12505581Y-13839727D01*
X12410273Y-13744419D01*
X12410270Y-13744417D01*
X12290182Y-13683229D01*
X12290180Y-13683228D01*
X12157053Y-13662143D01*
X12023925Y-13683228D01*
X12023923Y-13683229D01*
X11903835Y-13744417D01*
X11808523Y-13839729D01*
X11747335Y-13959817D01*
X11747334Y-13959819D01*
X11726249Y-14092946D01*
X11726249Y-14092947D01*
X10087857Y-14092947D01*
X10066772Y-13959821D01*
X10005581Y-13839727D01*
X9910273Y-13744419D01*
X9910270Y-13744417D01*
X9790182Y-13683229D01*
X9790180Y-13683228D01*
X9657053Y-13662143D01*
X9523925Y-13683228D01*
X9523923Y-13683229D01*
X9403835Y-13744417D01*
X9308523Y-13839729D01*
X9247335Y-13959817D01*
X9247334Y-13959819D01*
X9226249Y-14092946D01*
X9226249Y-14092947D01*
X7587857Y-14092947D01*
X7566772Y-13959821D01*
X7505581Y-13839727D01*
X7410273Y-13744419D01*
X7410270Y-13744417D01*
X7290182Y-13683229D01*
X7290180Y-13683228D01*
X7157053Y-13662143D01*
X7023925Y-13683228D01*
X7023923Y-13683229D01*
X6903835Y-13744417D01*
X6808523Y-13839729D01*
X6747335Y-13959817D01*
X6747334Y-13959819D01*
X6726249Y-14092946D01*
X6726249Y-14092947D01*
X200500Y-14092947D01*
X200500Y-13407053D01*
X4912143Y-13407053D01*
X4933228Y-13540180D01*
X4933229Y-13540182D01*
X4980587Y-13633127D01*
X4994419Y-13660273D01*
X5089727Y-13755581D01*
X5209821Y-13816772D01*
X5342947Y-13837857D01*
X5476073Y-13816772D01*
X5596167Y-13755581D01*
X5691475Y-13660273D01*
X5752666Y-13540179D01*
X5759030Y-13500000D01*
X31079196Y-13500000D01*
X31100281Y-13633127D01*
X31100282Y-13633129D01*
X31161470Y-13753217D01*
X31161472Y-13753220D01*
X31256780Y-13848528D01*
X31376874Y-13909719D01*
X31510000Y-13930804D01*
X31643126Y-13909719D01*
X31763220Y-13848528D01*
X31858528Y-13753220D01*
X31919719Y-13633126D01*
X31940804Y-13500000D01*
X31919719Y-13366874D01*
X31858528Y-13246780D01*
X31763220Y-13151472D01*
X31763217Y-13151470D01*
X31643129Y-13090282D01*
X31643127Y-13090281D01*
X31510000Y-13069196D01*
X31376872Y-13090281D01*
X31376870Y-13090282D01*
X31256782Y-13151470D01*
X31161470Y-13246782D01*
X31100282Y-13366870D01*
X31100281Y-13366872D01*
X31079196Y-13499999D01*
X31079196Y-13500000D01*
X5759030Y-13500000D01*
X5773751Y-13407053D01*
X5752666Y-13273927D01*
X5691475Y-13153833D01*
X5596167Y-13058525D01*
X5596164Y-13058523D01*
X5476076Y-12997335D01*
X5476074Y-12997334D01*
X5342947Y-12976249D01*
X5209819Y-12997334D01*
X5209817Y-12997335D01*
X5089729Y-13058523D01*
X4994417Y-13153835D01*
X4933229Y-13273923D01*
X4933228Y-13273925D01*
X4912143Y-13407052D01*
X4912143Y-13407053D01*
X200500Y-13407053D01*
X200500Y-11592947D01*
X6726249Y-11592947D01*
X6747334Y-11726074D01*
X6747335Y-11726076D01*
X6808523Y-11846164D01*
X6808525Y-11846167D01*
X6903833Y-11941475D01*
X7023927Y-12002666D01*
X7157053Y-12023751D01*
X7290179Y-12002666D01*
X7410273Y-11941475D01*
X7505581Y-11846167D01*
X7566772Y-11726073D01*
X7587857Y-11592947D01*
X9226249Y-11592947D01*
X9247334Y-11726074D01*
X9247335Y-11726076D01*
X9308523Y-11846164D01*
X9308525Y-11846167D01*
X9403833Y-11941475D01*
X9523927Y-12002666D01*
X9657053Y-12023751D01*
X9790179Y-12002666D01*
X9910273Y-11941475D01*
X10005581Y-11846167D01*
X10066772Y-11726073D01*
X10087857Y-11592947D01*
X11726249Y-11592947D01*
X11747334Y-11726074D01*
X11747335Y-11726076D01*
X11808523Y-11846164D01*
X11808525Y-11846167D01*
X11903833Y-11941475D01*
X12023927Y-12002666D01*
X12157053Y-12023751D01*
X12290179Y-12002666D01*
X12410273Y-11941475D01*
X12505581Y-11846167D01*
X12566772Y-11726073D01*
X12587857Y-11592947D01*
X14226249Y-11592947D01*
X14247334Y-11726074D01*
X14247335Y-11726076D01*
X14308523Y-11846164D01*
X14308525Y-11846167D01*
X14403833Y-11941475D01*
X14523927Y-12002666D01*
X14657053Y-12023751D01*
X14790179Y-12002666D01*
X14910273Y-11941475D01*
X15005581Y-11846167D01*
X15066772Y-11726073D01*
X15087857Y-11592947D01*
X16726249Y-11592947D01*
X16747334Y-11726074D01*
X16747335Y-11726076D01*
X16808523Y-11846164D01*
X16808525Y-11846167D01*
X16903833Y-11941475D01*
X17023927Y-12002666D01*
X17157053Y-12023751D01*
X17290179Y-12002666D01*
X17410273Y-11941475D01*
X17505581Y-11846167D01*
X17566772Y-11726073D01*
X17587857Y-11592947D01*
X19226249Y-11592947D01*
X19247334Y-11726074D01*
X19247335Y-11726076D01*
X19308523Y-11846164D01*
X19308525Y-11846167D01*
X19403833Y-11941475D01*
X19523927Y-12002666D01*
X19657053Y-12023751D01*
X19790179Y-12002666D01*
X19910273Y-11941475D01*
X20005581Y-11846167D01*
X20066772Y-11726073D01*
X20087857Y-11592947D01*
X21726249Y-11592947D01*
X21747334Y-11726074D01*
X21747335Y-11726076D01*
X21808523Y-11846164D01*
X21808525Y-11846167D01*
X21903833Y-11941475D01*
X22023927Y-12002666D01*
X22157053Y-12023751D01*
X22290179Y-12002666D01*
X22410273Y-11941475D01*
X22505581Y-11846167D01*
X22566772Y-11726073D01*
X22587857Y-11592947D01*
X24226249Y-11592947D01*
X24247334Y-11726074D01*
X24247335Y-11726076D01*
X24308523Y-11846164D01*
X24308525Y-11846167D01*
X24403833Y-11941475D01*
X24523927Y-12002666D01*
X24657053Y-12023751D01*
X24790179Y-12002666D01*
X24910273Y-11941475D01*
X25005581Y-11846167D01*
X25066772Y-11726073D01*
X25087857Y-11592947D01*
X26726249Y-11592947D01*
X26747334Y-11726074D01*
X26747335Y-11726076D01*
X26808523Y-11846164D01*
X26808525Y-11846167D01*
X26903833Y-11941475D01*
X27023927Y-12002666D01*
X27157053Y-12023751D01*
X27290179Y-12002666D01*
X27410273Y-11941475D01*
X27505581Y-11846167D01*
X27566772Y-11726073D01*
X27587857Y-11592947D01*
X29226249Y-11592947D01*
X29247334Y-11726074D01*
X29247335Y-11726076D01*
X29308523Y-11846164D01*
X29308525Y-11846167D01*
X29403833Y-11941475D01*
X29523927Y-12002666D01*
X29657053Y-12023751D01*
X29790179Y-12002666D01*
X29910273Y-11941475D01*
X30005581Y-11846167D01*
X30066772Y-11726073D01*
X30087857Y-11592947D01*
X30066772Y-11459821D01*
X30005581Y-11339727D01*
X29910273Y-11244419D01*
X29910270Y-11244417D01*
X29790182Y-11183229D01*
X29790180Y-11183228D01*
X29657053Y-11162143D01*
X29523925Y-11183228D01*
X29523923Y-11183229D01*
X29403835Y-11244417D01*
X29308523Y-11339729D01*
X29247335Y-11459817D01*
X29247334Y-11459819D01*
X29226249Y-11592946D01*
X29226249Y-11592947D01*
X27587857Y-11592947D01*
X27566772Y-11459821D01*
X27505581Y-11339727D01*
X27410273Y-11244419D01*
X27410270Y-11244417D01*
X27290182Y-11183229D01*
X27290180Y-11183228D01*
X27157053Y-11162143D01*
X27023925Y-11183228D01*
X27023923Y-11183229D01*
X26903835Y-11244417D01*
X26808523Y-11339729D01*
X26747335Y-11459817D01*
X26747334Y-11459819D01*
X26726249Y-11592946D01*
X26726249Y-11592947D01*
X25087857Y-11592947D01*
X25066772Y-11459821D01*
X25005581Y-11339727D01*
X24910273Y-11244419D01*
X24910270Y-11244417D01*
X24790182Y-11183229D01*
X24790180Y-11183228D01*
X24657053Y-11162143D01*
X24523925Y-11183228D01*
X24523923Y-11183229D01*
X24403835Y-11244417D01*
X24308523Y-11339729D01*
X24247335Y-11459817D01*
X24247334Y-11459819D01*
X24226249Y-11592946D01*
X24226249Y-11592947D01*
X22587857Y-11592947D01*
X22566772Y-11459821D01*
X22505581Y-11339727D01*
X22410273Y-11244419D01*
X22410270Y-11244417D01*
X22290182Y-11183229D01*
X22290180Y-11183228D01*
X22157053Y-11162143D01*
X22023925Y-11183228D01*
X22023923Y-11183229D01*
X21903835Y-11244417D01*
X21808523Y-11339729D01*
X21747335Y-11459817D01*
X21747334Y-11459819D01*
X21726249Y-11592946D01*
X21726249Y-11592947D01*
X20087857Y-11592947D01*
X20066772Y-11459821D01*
X20005581Y-11339727D01*
X19910273Y-11244419D01*
X19910270Y-11244417D01*
X19790182Y-11183229D01*
X19790180Y-11183228D01*
X19657053Y-11162143D01*
X19523925Y-11183228D01*
X19523923Y-11183229D01*
X19403835Y-11244417D01*
X19308523Y-11339729D01*
X19247335Y-11459817D01*
X19247334Y-11459819D01*
X19226249Y-11592946D01*
X19226249Y-11592947D01*
X17587857Y-11592947D01*
X17566772Y-11459821D01*
X17505581Y-11339727D01*
X17410273Y-11244419D01*
X17410270Y-11244417D01*
X17290182Y-11183229D01*
X17290180Y-11183228D01*
X17157053Y-11162143D01*
X17023925Y-11183228D01*
X17023923Y-11183229D01*
X16903835Y-11244417D01*
X16808523Y-11339729D01*
X16747335Y-11459817D01*
X16747334Y-11459819D01*
X16726249Y-11592946D01*
X16726249Y-11592947D01*
X15087857Y-11592947D01*
X15066772Y-11459821D01*
X15005581Y-11339727D01*
X14910273Y-11244419D01*
X14910270Y-11244417D01*
X14790182Y-11183229D01*
X14790180Y-11183228D01*
X14657053Y-11162143D01*
X14523925Y-11183228D01*
X14523923Y-11183229D01*
X14403835Y-11244417D01*
X14308523Y-11339729D01*
X14247335Y-11459817D01*
X14247334Y-11459819D01*
X14226249Y-11592946D01*
X14226249Y-11592947D01*
X12587857Y-11592947D01*
X12566772Y-11459821D01*
X12505581Y-11339727D01*
X12410273Y-11244419D01*
X12410270Y-11244417D01*
X12290182Y-11183229D01*
X12290180Y-11183228D01*
X12157053Y-11162143D01*
X12023925Y-11183228D01*
X12023923Y-11183229D01*
X11903835Y-11244417D01*
X11808523Y-11339729D01*
X11747335Y-11459817D01*
X11747334Y-11459819D01*
X11726249Y-11592946D01*
X11726249Y-11592947D01*
X10087857Y-11592947D01*
X10066772Y-11459821D01*
X10005581Y-11339727D01*
X9910273Y-11244419D01*
X9910270Y-11244417D01*
X9790182Y-11183229D01*
X9790180Y-11183228D01*
X9657053Y-11162143D01*
X9523925Y-11183228D01*
X9523923Y-11183229D01*
X9403835Y-11244417D01*
X9308523Y-11339729D01*
X9247335Y-11459817D01*
X9247334Y-11459819D01*
X9226249Y-11592946D01*
X9226249Y-11592947D01*
X7587857Y-11592947D01*
X7566772Y-11459821D01*
X7505581Y-11339727D01*
X7410273Y-11244419D01*
X7410270Y-11244417D01*
X7290182Y-11183229D01*
X7290180Y-11183228D01*
X7157053Y-11162143D01*
X7023925Y-11183228D01*
X7023923Y-11183229D01*
X6903835Y-11244417D01*
X6808523Y-11339729D01*
X6747335Y-11459817D01*
X6747334Y-11459819D01*
X6726249Y-11592946D01*
X6726249Y-11592947D01*
X200500Y-11592947D01*
X200500Y-10907053D01*
X4912143Y-10907053D01*
X4933228Y-11040180D01*
X4933229Y-11040182D01*
X4994417Y-11160270D01*
X4994419Y-11160273D01*
X5089727Y-11255581D01*
X5209821Y-11316772D01*
X5342947Y-11337857D01*
X5476073Y-11316772D01*
X5596167Y-11255581D01*
X5691475Y-11160273D01*
X5752666Y-11040179D01*
X5773751Y-10907053D01*
X5752666Y-10773927D01*
X5691475Y-10653833D01*
X5596167Y-10558525D01*
X5596164Y-10558523D01*
X5476076Y-10497335D01*
X5476074Y-10497334D01*
X5342947Y-10476249D01*
X5209819Y-10497334D01*
X5209817Y-10497335D01*
X5089729Y-10558523D01*
X4994417Y-10653835D01*
X4933229Y-10773923D01*
X4933228Y-10773925D01*
X4912143Y-10907052D01*
X4912143Y-10907053D01*
X200500Y-10907053D01*
X200500Y-10271154D01*
X219407Y-10212963D01*
X268907Y-10176999D01*
X330093Y-10176999D01*
X379593Y-10212963D01*
X387705Y-10226201D01*
X401472Y-10253220D01*
X496780Y-10348528D01*
X616874Y-10409719D01*
X750000Y-10430804D01*
X883126Y-10409719D01*
X1003220Y-10348528D01*
X1098528Y-10253220D01*
X1159719Y-10133126D01*
X1180804Y-10000000D01*
X1159719Y-9866874D01*
X1098528Y-9746780D01*
X1003220Y-9651472D01*
X1003217Y-9651470D01*
X883129Y-9590282D01*
X883127Y-9590281D01*
X750000Y-9569196D01*
X616872Y-9590281D01*
X616870Y-9590282D01*
X496782Y-9651470D01*
X401471Y-9746781D01*
X387709Y-9773791D01*
X344444Y-9817055D01*
X284012Y-9826626D01*
X229495Y-9798848D01*
X201719Y-9744331D01*
X200500Y-9728845D01*
X200500Y-9000000D01*
X5319196Y-9000000D01*
X5340281Y-9133127D01*
X5340282Y-9133129D01*
X5387640Y-9226074D01*
X5401472Y-9253220D01*
X5496780Y-9348528D01*
X5616874Y-9409719D01*
X5750000Y-9430804D01*
X5759429Y-9429310D01*
X5819860Y-9438880D01*
X5863125Y-9482143D01*
X5872699Y-9542575D01*
X5863127Y-9572036D01*
X5840281Y-9616874D01*
X5819196Y-9749999D01*
X5819196Y-9750000D01*
X5840281Y-9883127D01*
X5840282Y-9883129D01*
X5899831Y-10000000D01*
X5901472Y-10003220D01*
X5996780Y-10098528D01*
X6116874Y-10159719D01*
X6250000Y-10180804D01*
X6383126Y-10159719D01*
X6503220Y-10098528D01*
X6598528Y-10003220D01*
X6600169Y-10000000D01*
X26569196Y-10000000D01*
X26590281Y-10133127D01*
X26590282Y-10133129D01*
X26612635Y-10176999D01*
X26651472Y-10253220D01*
X26746780Y-10348528D01*
X26866874Y-10409719D01*
X27000000Y-10430804D01*
X27133126Y-10409719D01*
X27253220Y-10348528D01*
X27348528Y-10253220D01*
X27409719Y-10133126D01*
X27430804Y-10000000D01*
X27409719Y-9866874D01*
X27350169Y-9750000D01*
X28569196Y-9750000D01*
X28590281Y-9883127D01*
X28590282Y-9883129D01*
X28649831Y-10000000D01*
X28651472Y-10003220D01*
X28746780Y-10098528D01*
X28866874Y-10159719D01*
X29000000Y-10180804D01*
X29133126Y-10159719D01*
X29253220Y-10098528D01*
X29348528Y-10003220D01*
X29409719Y-9883126D01*
X29430804Y-9750000D01*
X29409719Y-9616874D01*
X29348528Y-9496780D01*
X29253220Y-9401472D01*
X29253217Y-9401470D01*
X29133129Y-9340282D01*
X29133127Y-9340281D01*
X29000000Y-9319196D01*
X28866872Y-9340281D01*
X28866870Y-9340282D01*
X28746782Y-9401470D01*
X28651470Y-9496782D01*
X28590282Y-9616870D01*
X28590281Y-9616872D01*
X28569196Y-9749999D01*
X28569196Y-9750000D01*
X27350169Y-9750000D01*
X27348528Y-9746780D01*
X27253220Y-9651472D01*
X27253217Y-9651470D01*
X27133129Y-9590282D01*
X27133127Y-9590281D01*
X27000000Y-9569196D01*
X26866872Y-9590281D01*
X26866870Y-9590282D01*
X26746782Y-9651470D01*
X26651470Y-9746782D01*
X26590282Y-9866870D01*
X26590281Y-9866872D01*
X26569196Y-9999999D01*
X26569196Y-10000000D01*
X6600169Y-10000000D01*
X6659719Y-9883126D01*
X6680804Y-9750000D01*
X6659719Y-9616874D01*
X6598528Y-9496780D01*
X6503220Y-9401472D01*
X6503217Y-9401470D01*
X6383129Y-9340282D01*
X6383127Y-9340281D01*
X6250000Y-9319196D01*
X6240565Y-9320690D01*
X6180134Y-9311116D01*
X6136871Y-9267850D01*
X6127301Y-9207417D01*
X6136870Y-9177968D01*
X6159719Y-9133126D01*
X6166083Y-9092947D01*
X9226249Y-9092947D01*
X9247334Y-9226074D01*
X9247335Y-9226076D01*
X9305526Y-9340282D01*
X9308525Y-9346167D01*
X9403833Y-9441475D01*
X9523927Y-9502666D01*
X9657053Y-9523751D01*
X9790179Y-9502666D01*
X9910273Y-9441475D01*
X10005581Y-9346167D01*
X10066772Y-9226073D01*
X10087857Y-9092947D01*
X11726249Y-9092947D01*
X11747334Y-9226074D01*
X11747335Y-9226076D01*
X11805526Y-9340282D01*
X11808525Y-9346167D01*
X11903833Y-9441475D01*
X12023927Y-9502666D01*
X12157053Y-9523751D01*
X12290179Y-9502666D01*
X12410273Y-9441475D01*
X12505581Y-9346167D01*
X12566772Y-9226073D01*
X12587857Y-9092947D01*
X14226249Y-9092947D01*
X14247334Y-9226074D01*
X14247335Y-9226076D01*
X14305526Y-9340282D01*
X14308525Y-9346167D01*
X14403833Y-9441475D01*
X14523927Y-9502666D01*
X14657053Y-9523751D01*
X14790179Y-9502666D01*
X14910273Y-9441475D01*
X15005581Y-9346167D01*
X15066772Y-9226073D01*
X15087857Y-9092947D01*
X16726249Y-9092947D01*
X16747334Y-9226074D01*
X16747335Y-9226076D01*
X16805526Y-9340282D01*
X16808525Y-9346167D01*
X16903833Y-9441475D01*
X17023927Y-9502666D01*
X17157053Y-9523751D01*
X17290179Y-9502666D01*
X17410273Y-9441475D01*
X17505581Y-9346167D01*
X17566772Y-9226073D01*
X17587857Y-9092947D01*
X19226249Y-9092947D01*
X19247334Y-9226074D01*
X19247335Y-9226076D01*
X19305526Y-9340282D01*
X19308525Y-9346167D01*
X19403833Y-9441475D01*
X19523927Y-9502666D01*
X19657053Y-9523751D01*
X19790179Y-9502666D01*
X19910273Y-9441475D01*
X20005581Y-9346167D01*
X20066772Y-9226073D01*
X20087857Y-9092947D01*
X21726249Y-9092947D01*
X21747334Y-9226074D01*
X21747335Y-9226076D01*
X21805526Y-9340282D01*
X21808525Y-9346167D01*
X21903833Y-9441475D01*
X22023927Y-9502666D01*
X22157053Y-9523751D01*
X22290179Y-9502666D01*
X22410273Y-9441475D01*
X22505581Y-9346167D01*
X22566772Y-9226073D01*
X22587857Y-9092947D01*
X24226249Y-9092947D01*
X24247334Y-9226074D01*
X24247335Y-9226076D01*
X24305526Y-9340282D01*
X24308525Y-9346167D01*
X24403833Y-9441475D01*
X24523927Y-9502666D01*
X24657053Y-9523751D01*
X24790179Y-9502666D01*
X24910273Y-9441475D01*
X25005581Y-9346167D01*
X25066772Y-9226073D01*
X25087857Y-9092947D01*
X25066772Y-8959821D01*
X25005581Y-8839727D01*
X24910273Y-8744419D01*
X24910270Y-8744417D01*
X24790182Y-8683229D01*
X24790180Y-8683228D01*
X24657053Y-8662143D01*
X24523925Y-8683228D01*
X24523923Y-8683229D01*
X24403835Y-8744417D01*
X24308523Y-8839729D01*
X24247335Y-8959817D01*
X24247334Y-8959819D01*
X24226249Y-9092946D01*
X24226249Y-9092947D01*
X22587857Y-9092947D01*
X22566772Y-8959821D01*
X22505581Y-8839727D01*
X22410273Y-8744419D01*
X22410270Y-8744417D01*
X22290182Y-8683229D01*
X22290180Y-8683228D01*
X22157053Y-8662143D01*
X22023925Y-8683228D01*
X22023923Y-8683229D01*
X21903835Y-8744417D01*
X21808523Y-8839729D01*
X21747335Y-8959817D01*
X21747334Y-8959819D01*
X21726249Y-9092946D01*
X21726249Y-9092947D01*
X20087857Y-9092947D01*
X20066772Y-8959821D01*
X20005581Y-8839727D01*
X19910273Y-8744419D01*
X19910270Y-8744417D01*
X19790182Y-8683229D01*
X19790180Y-8683228D01*
X19657053Y-8662143D01*
X19523925Y-8683228D01*
X19523923Y-8683229D01*
X19403835Y-8744417D01*
X19308523Y-8839729D01*
X19247335Y-8959817D01*
X19247334Y-8959819D01*
X19226249Y-9092946D01*
X19226249Y-9092947D01*
X17587857Y-9092947D01*
X17566772Y-8959821D01*
X17505581Y-8839727D01*
X17410273Y-8744419D01*
X17410270Y-8744417D01*
X17290182Y-8683229D01*
X17290180Y-8683228D01*
X17157053Y-8662143D01*
X17023925Y-8683228D01*
X17023923Y-8683229D01*
X16903835Y-8744417D01*
X16808523Y-8839729D01*
X16747335Y-8959817D01*
X16747334Y-8959819D01*
X16726249Y-9092946D01*
X16726249Y-9092947D01*
X15087857Y-9092947D01*
X15066772Y-8959821D01*
X15005581Y-8839727D01*
X14910273Y-8744419D01*
X14910270Y-8744417D01*
X14790182Y-8683229D01*
X14790180Y-8683228D01*
X14657053Y-8662143D01*
X14523925Y-8683228D01*
X14523923Y-8683229D01*
X14403835Y-8744417D01*
X14308523Y-8839729D01*
X14247335Y-8959817D01*
X14247334Y-8959819D01*
X14226249Y-9092946D01*
X14226249Y-9092947D01*
X12587857Y-9092947D01*
X12566772Y-8959821D01*
X12505581Y-8839727D01*
X12410273Y-8744419D01*
X12410270Y-8744417D01*
X12290182Y-8683229D01*
X12290180Y-8683228D01*
X12157053Y-8662143D01*
X12023925Y-8683228D01*
X12023923Y-8683229D01*
X11903835Y-8744417D01*
X11808523Y-8839729D01*
X11747335Y-8959817D01*
X11747334Y-8959819D01*
X11726249Y-9092946D01*
X11726249Y-9092947D01*
X10087857Y-9092947D01*
X10066772Y-8959821D01*
X10005581Y-8839727D01*
X9910273Y-8744419D01*
X9910270Y-8744417D01*
X9790182Y-8683229D01*
X9790180Y-8683228D01*
X9657053Y-8662143D01*
X9523925Y-8683228D01*
X9523923Y-8683229D01*
X9403835Y-8744417D01*
X9308523Y-8839729D01*
X9247335Y-8959817D01*
X9247334Y-8959819D01*
X9226249Y-9092946D01*
X9226249Y-9092947D01*
X6166083Y-9092947D01*
X6180804Y-9000000D01*
X6159719Y-8866874D01*
X6098528Y-8746780D01*
X6003220Y-8651472D01*
X6003217Y-8651470D01*
X5883129Y-8590282D01*
X5883127Y-8590281D01*
X5750000Y-8569196D01*
X5616872Y-8590281D01*
X5616870Y-8590282D01*
X5496782Y-8651470D01*
X5401470Y-8746782D01*
X5340282Y-8866870D01*
X5340281Y-8866872D01*
X5319196Y-8999999D01*
X5319196Y-9000000D01*
X200500Y-9000000D01*
X200500Y-8736500D01*
X219407Y-8678309D01*
X268907Y-8642345D01*
X330093Y-8642345D01*
X344437Y-8648287D01*
X366874Y-8659719D01*
X500000Y-8680804D01*
X633126Y-8659719D01*
X753220Y-8598528D01*
X848528Y-8503220D01*
X909719Y-8383126D01*
X930804Y-8250000D01*
X909719Y-8116874D01*
X848528Y-7996780D01*
X753220Y-7901472D01*
X753217Y-7901470D01*
X633129Y-7840282D01*
X633127Y-7840281D01*
X500000Y-7819196D01*
X366872Y-7840281D01*
X344444Y-7851709D01*
X284012Y-7861280D01*
X229496Y-7833502D01*
X201719Y-7778985D01*
X200500Y-7763499D01*
X200500Y-7726276D01*
X25342920Y-7726276D01*
X25364005Y-7859403D01*
X25364006Y-7859405D01*
X25425194Y-7979493D01*
X25425196Y-7979496D01*
X25520504Y-8074804D01*
X25640598Y-8135995D01*
X25773724Y-8157080D01*
X25906850Y-8135995D01*
X26026944Y-8074804D01*
X26122252Y-7979496D01*
X26183443Y-7859402D01*
X26200771Y-7750000D01*
X28819196Y-7750000D01*
X28840281Y-7883127D01*
X28840282Y-7883129D01*
X28901470Y-8003217D01*
X28901472Y-8003220D01*
X28996780Y-8098528D01*
X29116874Y-8159719D01*
X29250000Y-8180804D01*
X29383126Y-8159719D01*
X29503220Y-8098528D01*
X29598528Y-8003220D01*
X29659719Y-7883126D01*
X29680804Y-7750000D01*
X29659719Y-7616874D01*
X29598528Y-7496780D01*
X29503220Y-7401472D01*
X29503217Y-7401470D01*
X29383129Y-7340282D01*
X29383127Y-7340281D01*
X29250000Y-7319196D01*
X29116872Y-7340281D01*
X29116870Y-7340282D01*
X28996782Y-7401470D01*
X28901470Y-7496782D01*
X28840282Y-7616870D01*
X28840281Y-7616872D01*
X28819196Y-7749999D01*
X28819196Y-7750000D01*
X26200771Y-7750000D01*
X26204528Y-7726276D01*
X26183443Y-7593150D01*
X26122252Y-7473056D01*
X26026944Y-7377748D01*
X26026941Y-7377746D01*
X25906853Y-7316558D01*
X25906851Y-7316557D01*
X25773724Y-7295472D01*
X25640596Y-7316557D01*
X25640594Y-7316558D01*
X25520506Y-7377746D01*
X25425194Y-7473058D01*
X25364006Y-7593146D01*
X25364005Y-7593148D01*
X25342920Y-7726275D01*
X25342920Y-7726276D01*
X200500Y-7726276D01*
X200500Y-6750000D01*
X10569196Y-6750000D01*
X10590281Y-6883127D01*
X10590282Y-6883129D01*
X10651470Y-7003217D01*
X10651472Y-7003220D01*
X10746780Y-7098528D01*
X10866874Y-7159719D01*
X11000000Y-7180804D01*
X11133126Y-7159719D01*
X11253220Y-7098528D01*
X11348528Y-7003220D01*
X11409719Y-6883126D01*
X11430804Y-6750000D01*
X11409719Y-6616874D01*
X11397528Y-6592947D01*
X11726249Y-6592947D01*
X11747334Y-6726074D01*
X11747335Y-6726076D01*
X11759525Y-6750000D01*
X11808525Y-6846167D01*
X11903833Y-6941475D01*
X12023927Y-7002666D01*
X12157053Y-7023751D01*
X12290179Y-7002666D01*
X12410273Y-6941475D01*
X12505581Y-6846167D01*
X12566772Y-6726073D01*
X12587857Y-6592947D01*
X14226249Y-6592947D01*
X14247334Y-6726074D01*
X14247335Y-6726076D01*
X14259525Y-6750000D01*
X14308525Y-6846167D01*
X14403833Y-6941475D01*
X14523927Y-7002666D01*
X14657053Y-7023751D01*
X14790179Y-7002666D01*
X14910273Y-6941475D01*
X15005581Y-6846167D01*
X15066772Y-6726073D01*
X15087857Y-6592947D01*
X16726249Y-6592947D01*
X16747334Y-6726074D01*
X16747335Y-6726076D01*
X16759525Y-6750000D01*
X16808525Y-6846167D01*
X16903833Y-6941475D01*
X17023927Y-7002666D01*
X17157053Y-7023751D01*
X17290179Y-7002666D01*
X17410273Y-6941475D01*
X17505581Y-6846167D01*
X17566772Y-6726073D01*
X17587857Y-6592947D01*
X19226249Y-6592947D01*
X19247334Y-6726074D01*
X19247335Y-6726076D01*
X19259525Y-6750000D01*
X19308525Y-6846167D01*
X19403833Y-6941475D01*
X19523927Y-7002666D01*
X19657053Y-7023751D01*
X19790179Y-7002666D01*
X19910273Y-6941475D01*
X20005581Y-6846167D01*
X20066772Y-6726073D01*
X20087857Y-6592947D01*
X21726249Y-6592947D01*
X21747334Y-6726074D01*
X21747335Y-6726076D01*
X21759525Y-6750000D01*
X21808525Y-6846167D01*
X21903833Y-6941475D01*
X22023927Y-7002666D01*
X22157053Y-7023751D01*
X22290179Y-7002666D01*
X22410273Y-6941475D01*
X22505581Y-6846167D01*
X22566772Y-6726073D01*
X22587857Y-6592947D01*
X24226249Y-6592947D01*
X24247334Y-6726074D01*
X24247335Y-6726076D01*
X24259525Y-6750000D01*
X24308525Y-6846167D01*
X24403833Y-6941475D01*
X24523927Y-7002666D01*
X24657053Y-7023751D01*
X24790179Y-7002666D01*
X24910273Y-6941475D01*
X25005581Y-6846167D01*
X25066772Y-6726073D01*
X25087857Y-6592947D01*
X25066772Y-6459821D01*
X25005581Y-6339727D01*
X24910273Y-6244419D01*
X24910270Y-6244417D01*
X24790182Y-6183229D01*
X24790180Y-6183228D01*
X24657053Y-6162143D01*
X24523925Y-6183228D01*
X24523923Y-6183229D01*
X24403835Y-6244417D01*
X24308523Y-6339729D01*
X24247335Y-6459817D01*
X24247334Y-6459819D01*
X24226249Y-6592946D01*
X24226249Y-6592947D01*
X22587857Y-6592947D01*
X22566772Y-6459821D01*
X22505581Y-6339727D01*
X22410273Y-6244419D01*
X22410270Y-6244417D01*
X22290182Y-6183229D01*
X22290180Y-6183228D01*
X22157053Y-6162143D01*
X22023925Y-6183228D01*
X22023923Y-6183229D01*
X21903835Y-6244417D01*
X21808523Y-6339729D01*
X21747335Y-6459817D01*
X21747334Y-6459819D01*
X21726249Y-6592946D01*
X21726249Y-6592947D01*
X20087857Y-6592947D01*
X20066772Y-6459821D01*
X20005581Y-6339727D01*
X19910273Y-6244419D01*
X19910270Y-6244417D01*
X19790182Y-6183229D01*
X19790180Y-6183228D01*
X19657053Y-6162143D01*
X19523925Y-6183228D01*
X19523923Y-6183229D01*
X19403835Y-6244417D01*
X19308523Y-6339729D01*
X19247335Y-6459817D01*
X19247334Y-6459819D01*
X19226249Y-6592946D01*
X19226249Y-6592947D01*
X17587857Y-6592947D01*
X17566772Y-6459821D01*
X17505581Y-6339727D01*
X17410273Y-6244419D01*
X17410270Y-6244417D01*
X17290182Y-6183229D01*
X17290180Y-6183228D01*
X17157053Y-6162143D01*
X17023925Y-6183228D01*
X17023923Y-6183229D01*
X16903835Y-6244417D01*
X16808523Y-6339729D01*
X16747335Y-6459817D01*
X16747334Y-6459819D01*
X16726249Y-6592946D01*
X16726249Y-6592947D01*
X15087857Y-6592947D01*
X15066772Y-6459821D01*
X15005581Y-6339727D01*
X14910273Y-6244419D01*
X14910270Y-6244417D01*
X14790182Y-6183229D01*
X14790180Y-6183228D01*
X14657053Y-6162143D01*
X14523925Y-6183228D01*
X14523923Y-6183229D01*
X14403835Y-6244417D01*
X14308523Y-6339729D01*
X14247335Y-6459817D01*
X14247334Y-6459819D01*
X14226249Y-6592946D01*
X14226249Y-6592947D01*
X12587857Y-6592947D01*
X12566772Y-6459821D01*
X12505581Y-6339727D01*
X12410273Y-6244419D01*
X12410270Y-6244417D01*
X12290182Y-6183229D01*
X12290180Y-6183228D01*
X12157053Y-6162143D01*
X12023925Y-6183228D01*
X12023923Y-6183229D01*
X11903835Y-6244417D01*
X11808523Y-6339729D01*
X11747335Y-6459817D01*
X11747334Y-6459819D01*
X11726249Y-6592946D01*
X11726249Y-6592947D01*
X11397528Y-6592947D01*
X11348528Y-6496780D01*
X11253220Y-6401472D01*
X11253217Y-6401470D01*
X11133129Y-6340282D01*
X11133127Y-6340281D01*
X11000000Y-6319196D01*
X10866872Y-6340281D01*
X10866870Y-6340282D01*
X10746782Y-6401470D01*
X10651470Y-6496782D01*
X10590282Y-6616870D01*
X10590281Y-6616872D01*
X10569196Y-6749999D01*
X10569196Y-6750000D01*
X200500Y-6750000D01*
X200500Y-6000000D01*
X31569196Y-6000000D01*
X31590281Y-6133127D01*
X31590282Y-6133129D01*
X31651470Y-6253217D01*
X31651472Y-6253220D01*
X31746780Y-6348528D01*
X31866874Y-6409719D01*
X32000000Y-6430804D01*
X32133126Y-6409719D01*
X32253220Y-6348528D01*
X32348528Y-6253220D01*
X32409719Y-6133126D01*
X32430804Y-6000000D01*
X32409719Y-5866874D01*
X32348528Y-5746780D01*
X32253220Y-5651472D01*
X32253217Y-5651470D01*
X32129061Y-5588209D01*
X32085796Y-5544945D01*
X32076225Y-5484513D01*
X32104003Y-5429996D01*
X32129061Y-5411791D01*
X32202963Y-5374134D01*
X32253220Y-5348528D01*
X32348528Y-5253220D01*
X32409719Y-5133126D01*
X32430804Y-5000000D01*
X32409719Y-4866874D01*
X32348528Y-4746780D01*
X32253220Y-4651472D01*
X32253217Y-4651470D01*
X32133129Y-4590282D01*
X32133127Y-4590281D01*
X32000000Y-4569196D01*
X31866872Y-4590281D01*
X31866870Y-4590282D01*
X31746782Y-4651470D01*
X31651470Y-4746782D01*
X31590282Y-4866870D01*
X31590281Y-4866872D01*
X31569196Y-4999999D01*
X31569196Y-5000000D01*
X31590281Y-5133127D01*
X31590282Y-5133129D01*
X31649831Y-5250000D01*
X31651472Y-5253220D01*
X31746780Y-5348528D01*
X31795940Y-5373576D01*
X31870939Y-5411791D01*
X31914203Y-5455056D01*
X31923774Y-5515488D01*
X31895996Y-5570004D01*
X31870939Y-5588209D01*
X31746781Y-5651471D01*
X31651470Y-5746782D01*
X31590282Y-5866870D01*
X31590281Y-5866872D01*
X31569196Y-5999999D01*
X31569196Y-6000000D01*
X200500Y-6000000D01*
X200500Y-5250000D01*
X5319196Y-5250000D01*
X5340281Y-5383127D01*
X5340282Y-5383129D01*
X5364162Y-5429996D01*
X5401472Y-5503220D01*
X5496780Y-5598528D01*
X5616874Y-5659719D01*
X5750000Y-5680804D01*
X5883126Y-5659719D01*
X6003220Y-5598528D01*
X6098528Y-5503220D01*
X6159719Y-5383126D01*
X6180804Y-5250000D01*
X6159719Y-5116874D01*
X6098528Y-4996780D01*
X6046749Y-4945001D01*
X6018974Y-4890487D01*
X6028545Y-4830055D01*
X6046748Y-4804999D01*
X6098528Y-4753220D01*
X6100169Y-4750000D01*
X22569196Y-4750000D01*
X22590281Y-4883127D01*
X22590282Y-4883129D01*
X22649831Y-5000000D01*
X22651472Y-5003220D01*
X22746780Y-5098528D01*
X22866874Y-5159719D01*
X23000000Y-5180804D01*
X23133126Y-5159719D01*
X23253220Y-5098528D01*
X23348528Y-5003220D01*
X23409719Y-4883126D01*
X23430804Y-4750000D01*
X23409719Y-4616874D01*
X23348528Y-4496780D01*
X23253220Y-4401472D01*
X23253217Y-4401470D01*
X23133129Y-4340282D01*
X23133127Y-4340281D01*
X23000000Y-4319196D01*
X22866872Y-4340281D01*
X22866870Y-4340282D01*
X22746782Y-4401470D01*
X22651470Y-4496782D01*
X22590282Y-4616870D01*
X22590281Y-4616872D01*
X22569196Y-4749999D01*
X22569196Y-4750000D01*
X6100169Y-4750000D01*
X6159719Y-4633126D01*
X6180804Y-4500000D01*
X6159719Y-4366874D01*
X6098528Y-4246780D01*
X6003220Y-4151472D01*
X6003217Y-4151470D01*
X5883129Y-4090282D01*
X5883127Y-4090281D01*
X5750000Y-4069196D01*
X5616872Y-4090281D01*
X5616870Y-4090282D01*
X5496782Y-4151470D01*
X5401470Y-4246782D01*
X5340282Y-4366870D01*
X5340281Y-4366872D01*
X5319196Y-4499999D01*
X5319196Y-4500000D01*
X5340281Y-4633127D01*
X5340282Y-4633129D01*
X5399831Y-4750000D01*
X5401472Y-4753220D01*
X5453250Y-4804998D01*
X5481026Y-4859513D01*
X5471455Y-4919945D01*
X5453251Y-4945000D01*
X5401472Y-4996780D01*
X5401470Y-4996782D01*
X5340282Y-5116870D01*
X5340281Y-5116872D01*
X5319196Y-5249999D01*
X5319196Y-5250000D01*
X200500Y-5250000D01*
X200500Y-4000000D01*
X25069196Y-4000000D01*
X25090281Y-4133127D01*
X25090282Y-4133129D01*
X25151470Y-4253217D01*
X25151472Y-4253220D01*
X25246780Y-4348528D01*
X25366874Y-4409719D01*
X25500000Y-4430804D01*
X25633126Y-4409719D01*
X25753220Y-4348528D01*
X25848528Y-4253220D01*
X25909719Y-4133126D01*
X25930804Y-4000000D01*
X25909719Y-3866874D01*
X25848528Y-3746780D01*
X25753220Y-3651472D01*
X25753217Y-3651470D01*
X25633129Y-3590282D01*
X25633127Y-3590281D01*
X25500000Y-3569196D01*
X25366872Y-3590281D01*
X25366870Y-3590282D01*
X25246782Y-3651470D01*
X25151470Y-3746782D01*
X25090282Y-3866870D01*
X25090281Y-3866872D01*
X25069196Y-3999999D01*
X25069196Y-4000000D01*
X200500Y-4000000D01*
X200500Y-3407053D01*
X31726249Y-3407053D01*
X31747334Y-3540180D01*
X31747335Y-3540182D01*
X31808523Y-3660270D01*
X31808525Y-3660273D01*
X31903833Y-3755581D01*
X32023927Y-3816772D01*
X32157053Y-3837857D01*
X32290179Y-3816772D01*
X32410273Y-3755581D01*
X32505581Y-3660273D01*
X32566772Y-3540179D01*
X32587857Y-3407053D01*
X32566772Y-3273927D01*
X32505581Y-3153833D01*
X32410273Y-3058525D01*
X32410270Y-3058523D01*
X32290182Y-2997335D01*
X32290180Y-2997334D01*
X32157053Y-2976249D01*
X32023925Y-2997334D01*
X32023923Y-2997335D01*
X31903835Y-3058523D01*
X31808523Y-3153835D01*
X31747335Y-3273923D01*
X31747334Y-3273925D01*
X31726249Y-3407052D01*
X31726249Y-3407053D01*
X200500Y-3407053D01*
X200500Y-2624057D01*
X219407Y-2565866D01*
X229496Y-2554053D01*
X2554054Y-229496D01*
X2608571Y-201719D01*
X2624058Y-200500D01*
X32375943Y-200500D01*
X32434134Y-219407D01*
G37*
%TD.AperFunction*%
%TD*%
M02*
