%TF.GenerationSoftware,KiCad,Pcbnew,7.0.8*%
%TF.CreationDate,2023-11-11T12:09:49+10:00*%
%TF.ProjectId,LEDBoard,4c454442-6f61-4726-942e-6b696361645f,rev?*%
%TF.SameCoordinates,Original*%
%TF.FileFunction,Copper,L3,Inr*%
%TF.FilePolarity,Positive*%
%FSLAX46Y46*%
G04 Gerber Fmt 4.6, Leading zero omitted, Abs format (unit mm)*
G04 Created by KiCad (PCBNEW 7.0.8) date 2023-11-11 12:09:49*
%MOMM*%
%LPD*%
G01*
G04 APERTURE LIST*
%TA.AperFunction,ViaPad*%
%ADD10C,0.450000*%
%TD*%
%TA.AperFunction,Conductor*%
%ADD11C,0.125000*%
%TD*%
G04 APERTURE END LIST*
D10*
%TO.N,GND*%
X6500000Y-10250000D03*
X9000000Y-10250000D03*
X28750000Y-3250000D03*
X29000000Y-5250000D03*
X30250000Y-3000000D03*
X30750000Y-4500000D03*
X7500000Y-32250000D03*
X22750000Y-33500000D03*
X22000000Y-32500000D03*
X11000000Y-2250000D03*
X21250000Y-10250000D03*
X23750000Y-4250000D03*
X14250000Y-2750000D03*
X16250000Y-4250000D03*
X18750000Y-4250000D03*
X21250000Y-4250000D03*
X6250000Y-2750000D03*
%TO.N,/LED Array/ROW1_S*%
X6250000Y-8000000D03*
X8750000Y-7000000D03*
X23000000Y-7000000D03*
X20500000Y-7000000D03*
X18000000Y-7000000D03*
X15500000Y-7000000D03*
X13000000Y-7000000D03*
X10500000Y-7000000D03*
%TO.N,/LED0*%
X4750000Y-1500000D03*
%TO.N,/LED1*%
X31500000Y-2750000D03*
%TO.N,/LED2*%
X26500000Y-12250000D03*
%TO.N,/LED3*%
X33750000Y-11500000D03*
%TO.N,/LED Array/COL10*%
X3500000Y-9750000D03*
X29000000Y-10750000D03*
%TO.N,+BATT*%
X21000000Y-12000000D03*
X32000000Y-4500000D03*
X4500000Y-32000000D03*
X22468434Y-989478D03*
X19968434Y-989478D03*
X23500000Y-12000000D03*
X13250000Y-12000000D03*
X5500000Y-32000000D03*
X32250000Y-12000000D03*
X14968434Y-989478D03*
X17468434Y-989478D03*
X6250000Y-31250000D03*
X34500000Y-4500000D03*
X16000000Y-12000000D03*
X34500000Y-6500000D03*
X34500000Y-5500000D03*
X11500000Y-1000000D03*
X32000000Y-5500000D03*
X18500000Y-12000000D03*
X32000000Y-6500000D03*
%TO.N,GND*%
X34500000Y-9500000D03*
X1500000Y-31500000D03*
X32250000Y-11250000D03*
X33000000Y-23250000D03*
X4500000Y-30000000D03*
X11250000Y-10250000D03*
X32250000Y-30250000D03*
X2250000Y-16750000D03*
X23750000Y-10250000D03*
X32000000Y-9500000D03*
X13750000Y-10250000D03*
X34250000Y-3250000D03*
X3000000Y-4250000D03*
X1000000Y-16750000D03*
X33000000Y-25750000D03*
X34500000Y-8500000D03*
X5250000Y-27500000D03*
X6500000Y-33750000D03*
X31500000Y-15250000D03*
X29000000Y-12500000D03*
X32000000Y-8500000D03*
X3500000Y-18000000D03*
X6250000Y-29250000D03*
X32000000Y-7500000D03*
X16250000Y-10250000D03*
X5500000Y-30000000D03*
X34500000Y-7500000D03*
X32150000Y-24500000D03*
X18750000Y-10250000D03*
X31500000Y-25750000D03*
X31500000Y-23250000D03*
X31500000Y-19750000D03*
X26500000Y-5250000D03*
%TO.N,/LED Array/COL0*%
X4500000Y-3750000D03*
%TO.N,/LED Array/COL1*%
X3000000Y-5250000D03*
X8500000Y-3250000D03*
%TO.N,/LED Array/COL2*%
X3500000Y-5750000D03*
X10000000Y-3750000D03*
%TO.N,/LED Array/COL3*%
X3000000Y-6250000D03*
X11250000Y-4250000D03*
%TO.N,/LED Array/COL4*%
X13750000Y-4750000D03*
X3500000Y-6750000D03*
%TO.N,/LED Array/COL5*%
X3000000Y-7250000D03*
X16500000Y-5500000D03*
%TO.N,/LED Array/COL6*%
X19000000Y-6000000D03*
X3500000Y-7750000D03*
%TO.N,/LED Array/COL7*%
X3000000Y-8250000D03*
X21500000Y-6000000D03*
%TO.N,/LED Array/COL8*%
X3500000Y-8750000D03*
X24000000Y-8250000D03*
%TO.N,/LED Array/COL9*%
X3000000Y-9250000D03*
X26500000Y-8500000D03*
%TO.N,/LED Array/ROW0_S*%
X13500000Y-1000000D03*
%TO.N,/LED Array/ROW1_S*%
X15750000Y-2000000D03*
X29000000Y-7000000D03*
X30750000Y-7500000D03*
X25500000Y-7000000D03*
%TO.N,/LED Array/ROW2_S*%
X8750000Y-11000000D03*
X6250000Y-11000000D03*
X21250000Y-11000000D03*
X16250000Y-11000000D03*
X28000000Y-11750000D03*
X13750000Y-11000000D03*
X18500000Y-1000000D03*
X31250000Y-11250000D03*
X23750000Y-11000000D03*
X11250000Y-11000000D03*
X18750000Y-11000000D03*
X25500000Y-11750000D03*
%TO.N,/LED Array/ROW3_S*%
X16000000Y-14000000D03*
X25250000Y-12500000D03*
X13500000Y-14000000D03*
X30250000Y-12250000D03*
X6000000Y-14000000D03*
X11000000Y-14000000D03*
X23500000Y-14000000D03*
X28500000Y-14000000D03*
X21000000Y-1006926D03*
X18500000Y-14000000D03*
X8500000Y-14000000D03*
X21000000Y-14000000D03*
%TO.N,/LED Array/ROW4_S*%
X30250000Y-17250000D03*
X11000000Y-15250000D03*
X6000000Y-15250000D03*
X28500000Y-15250000D03*
X23500000Y-1000000D03*
X21000000Y-15250000D03*
X25250000Y-15000000D03*
X8500000Y-15250000D03*
X13500000Y-15250000D03*
X18500000Y-15250000D03*
X16000000Y-15250000D03*
X23500000Y-15250000D03*
%TO.N,/LED Array/ROW5_S*%
X11000000Y-17750000D03*
X28500000Y-17750000D03*
X30250000Y-19750000D03*
X16000000Y-17750000D03*
X21000000Y-17750000D03*
X23500000Y-17750000D03*
X13500000Y-17750000D03*
X18500000Y-17750000D03*
X6000000Y-17750000D03*
X8500000Y-17750000D03*
X25250000Y-17500000D03*
X21727376Y-13250000D03*
%TO.N,/LED Array/ROW6_S*%
X25250000Y-20000000D03*
X21000000Y-20250000D03*
X16000000Y-20250000D03*
X8500000Y-20250000D03*
X30250000Y-22250000D03*
X11000000Y-20250000D03*
X28500000Y-20250000D03*
X19227376Y-13250000D03*
X13500000Y-20250000D03*
X18500000Y-20250000D03*
X23500000Y-20250000D03*
X6000000Y-20250000D03*
%TO.N,/LED Array/ROW7_S*%
X11000000Y-22750000D03*
X18500000Y-22750000D03*
X25500000Y-22500000D03*
X8500000Y-22750000D03*
X16000000Y-22750000D03*
X23500000Y-22750000D03*
X16727376Y-13250000D03*
X13500000Y-22750000D03*
X21000000Y-22750000D03*
X30250000Y-24750000D03*
X6000000Y-22750000D03*
X28500000Y-22750000D03*
%TO.N,/LED Array/ROW8_S*%
X11000000Y-25250000D03*
X14227376Y-13250000D03*
X25500000Y-25000000D03*
X21000000Y-25250000D03*
X30250000Y-27250000D03*
X18500000Y-25250000D03*
X16000000Y-25250000D03*
X6000000Y-25250000D03*
X13500000Y-25250000D03*
X23500000Y-25250000D03*
X8500000Y-25250000D03*
X28500000Y-25250000D03*
%TO.N,/LED Array/ROW9_S*%
X28500000Y-27750000D03*
X16000000Y-27750000D03*
X30250000Y-29750000D03*
X8500000Y-27750000D03*
X11727376Y-13250000D03*
X21000000Y-27750000D03*
X6000000Y-27750000D03*
X25500000Y-27500000D03*
X13500000Y-27750000D03*
X11000000Y-27750000D03*
X18500000Y-27750000D03*
X23500000Y-27750000D03*
%TD*%
D11*
%TO.N,/LED Array/ROW1_S*%
X30250000Y-7000000D02*
X8750000Y-7000000D01*
X30750000Y-7500000D02*
X30250000Y-7000000D01*
%TO.N,/LED Array/COL1*%
X5750000Y-3250000D02*
X3750000Y-5250000D01*
X3750000Y-5250000D02*
X3000000Y-5250000D01*
X8500000Y-3250000D02*
X5750000Y-3250000D01*
%TO.N,/LED Array/COL2*%
X4000000Y-5750000D02*
X3500000Y-5750000D01*
X6000000Y-3750000D02*
X4000000Y-5750000D01*
X10000000Y-3750000D02*
X6000000Y-3750000D01*
%TO.N,/LED Array/COL3*%
X4250000Y-6250000D02*
X3000000Y-6250000D01*
X6250000Y-4250000D02*
X4250000Y-6250000D01*
X11250000Y-4250000D02*
X6250000Y-4250000D01*
%TO.N,/LED Array/COL4*%
X4500000Y-6750000D02*
X3500000Y-6750000D01*
X13500000Y-5000000D02*
X6250000Y-5000000D01*
X6250000Y-5000000D02*
X4500000Y-6750000D01*
X13750000Y-4750000D02*
X13500000Y-5000000D01*
%TO.N,/LED Array/COL5*%
X4750000Y-7250000D02*
X3000000Y-7250000D01*
X6500000Y-5500000D02*
X4750000Y-7250000D01*
X16500000Y-5500000D02*
X6500000Y-5500000D01*
%TO.N,/LED Array/COL6*%
X5000000Y-7750000D02*
X3500000Y-7750000D01*
X6750000Y-6000000D02*
X5000000Y-7750000D01*
X19000000Y-6000000D02*
X6750000Y-6000000D01*
%TO.N,/LED Array/COL7*%
X5250000Y-8250000D02*
X3000000Y-8250000D01*
X21000000Y-6500000D02*
X7000000Y-6500000D01*
X7000000Y-6500000D02*
X5250000Y-8250000D01*
X21500000Y-6000000D02*
X21000000Y-6500000D01*
%TO.N,/LED Array/COL9*%
X26500000Y-8500000D02*
X25750000Y-9250000D01*
X25750000Y-9250000D02*
X3000000Y-9250000D01*
%TO.N,/LED Array/COL10*%
X3550000Y-9700000D02*
X3500000Y-9750000D01*
X27950000Y-9700000D02*
X3550000Y-9700000D01*
X29000000Y-10750000D02*
X27950000Y-9700000D01*
%TO.N,/LED Array/ROW2_S*%
X28500000Y-11250000D02*
X28000000Y-11750000D01*
X31250000Y-11250000D02*
X28500000Y-11250000D01*
X28000000Y-11750000D02*
X25500000Y-11750000D01*
X25500000Y-11750000D02*
X24750000Y-11000000D01*
X24750000Y-11000000D02*
X23750000Y-11000000D01*
%TO.N,/LED Array/COL8*%
X20250000Y-8750000D02*
X3500000Y-8750000D01*
X24000000Y-8250000D02*
X23791328Y-8458672D01*
X23791328Y-8458672D02*
X20541328Y-8458672D01*
X20541328Y-8458672D02*
X20250000Y-8750000D01*
%TO.N,/LED Array/ROW1_S*%
X7250000Y-7000000D02*
X6250000Y-8000000D01*
X8750000Y-7000000D02*
X7250000Y-7000000D01*
%TO.N,/LED Array/ROW2_S*%
X13750000Y-11000000D02*
X16250000Y-11000000D01*
X23750000Y-11000000D02*
X16250000Y-11000000D01*
X6250000Y-11000000D02*
X13750000Y-11000000D01*
%TO.N,/LED Array/ROW4_S*%
X30250000Y-17000000D02*
X30250000Y-17250000D01*
X28500000Y-15250000D02*
X30250000Y-17000000D01*
%TO.N,/LED Array/ROW5_S*%
X21727376Y-13250000D02*
X21727376Y-17022624D01*
X21727376Y-17022624D02*
X21000000Y-17750000D01*
%TO.N,/LED Array/ROW6_S*%
X19227376Y-19522624D02*
X18500000Y-20250000D01*
X19227376Y-13250000D02*
X19227376Y-19522624D01*
%TO.N,/LED Array/ROW7_S*%
X16727376Y-22022624D02*
X16000000Y-22750000D01*
X16727376Y-13250000D02*
X16727376Y-22022624D01*
%TO.N,/LED Array/ROW8_S*%
X14227376Y-13250000D02*
X14227376Y-24522624D01*
X14227376Y-24522624D02*
X13500000Y-25250000D01*
%TO.N,/LED Array/ROW9_S*%
X11727376Y-27022624D02*
X11000000Y-27750000D01*
X11727376Y-13250000D02*
X11727376Y-27022624D01*
%TD*%
%TA.AperFunction,Conductor*%
%TO.N,+BATT*%
G36*
X32434134Y-219407D02*
G01*
X32445947Y-229496D01*
X34770504Y-2554053D01*
X34798281Y-2608570D01*
X34799500Y-2624057D01*
X34799500Y-3088978D01*
X34780593Y-3147169D01*
X34731093Y-3183133D01*
X34669907Y-3183133D01*
X34620407Y-3147169D01*
X34612291Y-3133924D01*
X34573388Y-3057574D01*
X34557573Y-3026535D01*
X34473465Y-2942427D01*
X34473462Y-2942425D01*
X34367488Y-2888428D01*
X34367483Y-2888426D01*
X34367482Y-2888426D01*
X34250000Y-2869819D01*
X34132518Y-2888426D01*
X34132511Y-2888428D01*
X34026537Y-2942425D01*
X33942425Y-3026537D01*
X33888428Y-3132511D01*
X33888426Y-3132518D01*
X33869819Y-3249999D01*
X33869819Y-3250000D01*
X33888426Y-3367481D01*
X33888428Y-3367488D01*
X33942425Y-3473462D01*
X33942427Y-3473465D01*
X34026535Y-3557573D01*
X34026537Y-3557574D01*
X34132511Y-3611571D01*
X34132513Y-3611571D01*
X34132518Y-3611574D01*
X34250000Y-3630181D01*
X34367482Y-3611574D01*
X34473465Y-3557573D01*
X34557573Y-3473465D01*
X34611574Y-3367482D01*
X34611574Y-3367480D01*
X34612290Y-3366076D01*
X34655555Y-3322811D01*
X34715987Y-3313240D01*
X34770504Y-3341018D01*
X34798281Y-3395534D01*
X34799500Y-3411021D01*
X34799500Y-7069615D01*
X34780593Y-7127806D01*
X34731093Y-7163770D01*
X34669907Y-7163770D01*
X34655555Y-7157825D01*
X34617482Y-7138426D01*
X34500000Y-7119819D01*
X34382518Y-7138426D01*
X34382511Y-7138428D01*
X34276537Y-7192425D01*
X34192425Y-7276537D01*
X34138428Y-7382511D01*
X34138426Y-7382518D01*
X34119819Y-7499999D01*
X34119819Y-7500000D01*
X34138426Y-7617481D01*
X34138428Y-7617488D01*
X34171188Y-7681782D01*
X34192427Y-7723465D01*
X34276535Y-7807573D01*
X34276537Y-7807574D01*
X34382511Y-7861571D01*
X34382513Y-7861571D01*
X34382518Y-7861574D01*
X34500000Y-7880181D01*
X34617482Y-7861574D01*
X34655555Y-7842174D01*
X34715986Y-7832603D01*
X34770503Y-7860380D01*
X34798281Y-7914896D01*
X34799500Y-7930384D01*
X34799500Y-8069615D01*
X34780593Y-8127806D01*
X34731093Y-8163770D01*
X34669907Y-8163770D01*
X34655555Y-8157825D01*
X34617482Y-8138426D01*
X34500000Y-8119819D01*
X34382518Y-8138426D01*
X34382511Y-8138428D01*
X34276537Y-8192425D01*
X34192425Y-8276537D01*
X34138428Y-8382511D01*
X34138426Y-8382518D01*
X34119819Y-8500000D01*
X34132294Y-8578768D01*
X34138426Y-8617481D01*
X34138428Y-8617488D01*
X34168128Y-8675776D01*
X34192427Y-8723465D01*
X34276535Y-8807573D01*
X34276537Y-8807574D01*
X34382511Y-8861571D01*
X34382513Y-8861571D01*
X34382518Y-8861574D01*
X34500000Y-8880181D01*
X34617482Y-8861574D01*
X34655555Y-8842174D01*
X34715986Y-8832603D01*
X34770503Y-8860380D01*
X34798281Y-8914896D01*
X34799500Y-8930384D01*
X34799500Y-9069615D01*
X34780593Y-9127806D01*
X34731093Y-9163770D01*
X34669907Y-9163770D01*
X34655555Y-9157825D01*
X34617482Y-9138426D01*
X34500000Y-9119819D01*
X34382518Y-9138426D01*
X34382511Y-9138428D01*
X34276537Y-9192425D01*
X34192425Y-9276537D01*
X34138428Y-9382511D01*
X34138426Y-9382518D01*
X34120086Y-9498317D01*
X34119819Y-9500000D01*
X34126300Y-9540923D01*
X34138426Y-9617481D01*
X34138428Y-9617488D01*
X34171188Y-9681782D01*
X34192427Y-9723465D01*
X34276535Y-9807573D01*
X34276537Y-9807574D01*
X34382511Y-9861571D01*
X34382513Y-9861571D01*
X34382518Y-9861574D01*
X34500000Y-9880181D01*
X34617482Y-9861574D01*
X34655555Y-9842174D01*
X34715986Y-9832603D01*
X34770503Y-9860380D01*
X34798281Y-9914896D01*
X34799500Y-9930384D01*
X34799500Y-32375942D01*
X34780593Y-32434133D01*
X34770504Y-32445946D01*
X32445947Y-34770504D01*
X32391430Y-34798281D01*
X32375943Y-34799500D01*
X18766737Y-34799500D01*
X18708546Y-34780593D01*
X18672582Y-34731093D01*
X18669241Y-34717691D01*
X18664024Y-34688101D01*
X18592179Y-34490709D01*
X18592176Y-34490703D01*
X18592175Y-34490700D01*
X18521339Y-34368011D01*
X18487149Y-34308791D01*
X18486161Y-34307613D01*
X18352131Y-34147884D01*
X18352129Y-34147882D01*
X18352124Y-34147876D01*
X18352117Y-34147870D01*
X18352115Y-34147868D01*
X18191214Y-34012855D01*
X18191212Y-34012853D01*
X18191209Y-34012851D01*
X18175339Y-34003688D01*
X18009299Y-33907824D01*
X18009296Y-33907823D01*
X18009291Y-33907821D01*
X17811899Y-33835976D01*
X17770525Y-33828680D01*
X17605034Y-33799500D01*
X17605030Y-33799500D01*
X17394970Y-33799500D01*
X17394965Y-33799500D01*
X17188101Y-33835976D01*
X16990703Y-33907823D01*
X16990700Y-33907824D01*
X16808792Y-34012850D01*
X16808785Y-34012855D01*
X16647884Y-34147868D01*
X16647868Y-34147884D01*
X16512855Y-34308785D01*
X16512850Y-34308792D01*
X16407824Y-34490700D01*
X16407823Y-34490703D01*
X16335976Y-34688101D01*
X16330759Y-34717691D01*
X16302034Y-34771714D01*
X16247042Y-34798536D01*
X16233263Y-34799500D01*
X2624058Y-34799500D01*
X2565867Y-34780593D01*
X2554054Y-34770504D01*
X1533550Y-33750000D01*
X6119819Y-33750000D01*
X6138426Y-33867481D01*
X6138428Y-33867488D01*
X6192425Y-33973462D01*
X6192427Y-33973465D01*
X6276535Y-34057573D01*
X6276537Y-34057574D01*
X6382511Y-34111571D01*
X6382513Y-34111571D01*
X6382518Y-34111574D01*
X6500000Y-34130181D01*
X6617482Y-34111574D01*
X6723465Y-34057573D01*
X6807573Y-33973465D01*
X6861574Y-33867482D01*
X6880181Y-33750000D01*
X6861574Y-33632518D01*
X6861571Y-33632513D01*
X6861571Y-33632511D01*
X6807574Y-33526537D01*
X6807573Y-33526535D01*
X6781038Y-33500000D01*
X22369819Y-33500000D01*
X22388426Y-33617481D01*
X22388428Y-33617488D01*
X22442425Y-33723462D01*
X22442427Y-33723465D01*
X22526535Y-33807573D01*
X22526537Y-33807574D01*
X22632511Y-33861571D01*
X22632513Y-33861571D01*
X22632518Y-33861574D01*
X22750000Y-33880181D01*
X22867482Y-33861574D01*
X22973465Y-33807573D01*
X23057573Y-33723465D01*
X23111574Y-33617482D01*
X23130181Y-33500000D01*
X23111574Y-33382518D01*
X23111571Y-33382513D01*
X23111571Y-33382511D01*
X23057574Y-33276537D01*
X23057573Y-33276535D01*
X22973465Y-33192427D01*
X22973462Y-33192425D01*
X22867488Y-33138428D01*
X22867483Y-33138426D01*
X22867482Y-33138426D01*
X22750000Y-33119819D01*
X22632518Y-33138426D01*
X22632511Y-33138428D01*
X22526537Y-33192425D01*
X22442425Y-33276537D01*
X22388428Y-33382511D01*
X22388426Y-33382518D01*
X22369819Y-33499999D01*
X22369819Y-33500000D01*
X6781038Y-33500000D01*
X6723465Y-33442427D01*
X6723462Y-33442425D01*
X6617488Y-33388428D01*
X6617483Y-33388426D01*
X6617482Y-33388426D01*
X6500000Y-33369819D01*
X6382518Y-33388426D01*
X6382511Y-33388428D01*
X6276537Y-33442425D01*
X6192425Y-33526537D01*
X6138428Y-33632511D01*
X6138426Y-33632518D01*
X6119819Y-33749999D01*
X6119819Y-33750000D01*
X1533550Y-33750000D01*
X229496Y-32445946D01*
X201719Y-32391429D01*
X200500Y-32375942D01*
X200500Y-32250000D01*
X7119819Y-32250000D01*
X7138426Y-32367481D01*
X7138428Y-32367488D01*
X7192425Y-32473462D01*
X7192427Y-32473465D01*
X7276535Y-32557573D01*
X7276537Y-32557574D01*
X7382511Y-32611571D01*
X7382513Y-32611571D01*
X7382518Y-32611574D01*
X7500000Y-32630181D01*
X7617482Y-32611574D01*
X7723465Y-32557573D01*
X7781038Y-32500000D01*
X21619819Y-32500000D01*
X21638224Y-32616209D01*
X21638426Y-32617481D01*
X21638428Y-32617488D01*
X21692425Y-32723462D01*
X21692427Y-32723465D01*
X21776535Y-32807573D01*
X21776537Y-32807574D01*
X21882511Y-32861571D01*
X21882513Y-32861571D01*
X21882518Y-32861574D01*
X22000000Y-32880181D01*
X22117482Y-32861574D01*
X22223465Y-32807573D01*
X22307573Y-32723465D01*
X22361574Y-32617482D01*
X22380181Y-32500000D01*
X22361574Y-32382518D01*
X22361571Y-32382513D01*
X22361571Y-32382511D01*
X22307574Y-32276537D01*
X22307573Y-32276535D01*
X22223465Y-32192427D01*
X22223462Y-32192425D01*
X22117488Y-32138428D01*
X22117483Y-32138426D01*
X22117482Y-32138426D01*
X22000000Y-32119819D01*
X21882518Y-32138426D01*
X21882511Y-32138428D01*
X21776537Y-32192425D01*
X21692425Y-32276537D01*
X21638428Y-32382511D01*
X21638426Y-32382518D01*
X21619819Y-32500000D01*
X7781038Y-32500000D01*
X7807573Y-32473465D01*
X7861574Y-32367482D01*
X7880181Y-32250000D01*
X7861574Y-32132518D01*
X7861571Y-32132513D01*
X7861571Y-32132511D01*
X7807574Y-32026537D01*
X7807573Y-32026535D01*
X7723465Y-31942427D01*
X7723462Y-31942425D01*
X7617488Y-31888428D01*
X7617483Y-31888426D01*
X7617482Y-31888426D01*
X7500000Y-31869819D01*
X7382518Y-31888426D01*
X7382511Y-31888428D01*
X7276537Y-31942425D01*
X7192425Y-32026537D01*
X7138428Y-32132511D01*
X7138426Y-32132518D01*
X7119819Y-32249999D01*
X7119819Y-32250000D01*
X200500Y-32250000D01*
X200500Y-31500000D01*
X1119819Y-31500000D01*
X1138426Y-31617481D01*
X1138428Y-31617488D01*
X1192425Y-31723462D01*
X1192427Y-31723465D01*
X1276535Y-31807573D01*
X1276537Y-31807574D01*
X1382511Y-31861571D01*
X1382513Y-31861571D01*
X1382518Y-31861574D01*
X1500000Y-31880181D01*
X1617482Y-31861574D01*
X1723465Y-31807573D01*
X1807573Y-31723465D01*
X1861574Y-31617482D01*
X1880181Y-31500000D01*
X1861574Y-31382518D01*
X1861571Y-31382513D01*
X1861571Y-31382511D01*
X1807574Y-31276537D01*
X1807573Y-31276535D01*
X1723465Y-31192427D01*
X1723462Y-31192425D01*
X1617488Y-31138428D01*
X1617483Y-31138426D01*
X1617482Y-31138426D01*
X1500000Y-31119819D01*
X1382518Y-31138426D01*
X1382511Y-31138428D01*
X1276537Y-31192425D01*
X1192425Y-31276537D01*
X1138428Y-31382511D01*
X1138426Y-31382518D01*
X1119819Y-31499999D01*
X1119819Y-31500000D01*
X200500Y-31500000D01*
X200500Y-30000000D01*
X4119819Y-30000000D01*
X4138426Y-30117481D01*
X4138428Y-30117488D01*
X4192425Y-30223462D01*
X4192427Y-30223465D01*
X4276535Y-30307573D01*
X4276537Y-30307574D01*
X4382511Y-30361571D01*
X4382513Y-30361571D01*
X4382518Y-30361574D01*
X4500000Y-30380181D01*
X4617482Y-30361574D01*
X4723465Y-30307573D01*
X4807573Y-30223465D01*
X4861574Y-30117482D01*
X4880181Y-30000000D01*
X5119819Y-30000000D01*
X5138426Y-30117481D01*
X5138428Y-30117488D01*
X5192425Y-30223462D01*
X5192427Y-30223465D01*
X5276535Y-30307573D01*
X5276537Y-30307574D01*
X5382511Y-30361571D01*
X5382513Y-30361571D01*
X5382518Y-30361574D01*
X5500000Y-30380181D01*
X5617482Y-30361574D01*
X5723465Y-30307573D01*
X5781038Y-30250000D01*
X31869819Y-30250000D01*
X31888426Y-30367481D01*
X31888428Y-30367488D01*
X31942425Y-30473462D01*
X31942427Y-30473465D01*
X32026535Y-30557573D01*
X32026537Y-30557574D01*
X32132511Y-30611571D01*
X32132513Y-30611571D01*
X32132518Y-30611574D01*
X32250000Y-30630181D01*
X32367482Y-30611574D01*
X32473465Y-30557573D01*
X32557573Y-30473465D01*
X32611574Y-30367482D01*
X32630181Y-30250000D01*
X32611574Y-30132518D01*
X32611571Y-30132513D01*
X32611571Y-30132511D01*
X32557574Y-30026537D01*
X32557573Y-30026535D01*
X32473465Y-29942427D01*
X32473462Y-29942425D01*
X32367488Y-29888428D01*
X32367483Y-29888426D01*
X32367482Y-29888426D01*
X32250000Y-29869819D01*
X32132518Y-29888426D01*
X32132511Y-29888428D01*
X32026537Y-29942425D01*
X31942425Y-30026537D01*
X31888428Y-30132511D01*
X31888426Y-30132518D01*
X31869819Y-30249999D01*
X31869819Y-30250000D01*
X5781038Y-30250000D01*
X5807573Y-30223465D01*
X5861574Y-30117482D01*
X5880181Y-30000000D01*
X5861574Y-29882518D01*
X5861571Y-29882513D01*
X5861571Y-29882511D01*
X5807574Y-29776537D01*
X5807573Y-29776535D01*
X5781038Y-29750000D01*
X29869819Y-29750000D01*
X29888426Y-29867481D01*
X29888428Y-29867488D01*
X29926611Y-29942425D01*
X29942427Y-29973465D01*
X30026535Y-30057573D01*
X30026537Y-30057574D01*
X30132511Y-30111571D01*
X30132513Y-30111571D01*
X30132518Y-30111574D01*
X30250000Y-30130181D01*
X30367482Y-30111574D01*
X30473465Y-30057573D01*
X30557573Y-29973465D01*
X30611574Y-29867482D01*
X30630181Y-29750000D01*
X30611574Y-29632518D01*
X30611571Y-29632513D01*
X30611571Y-29632511D01*
X30557574Y-29526537D01*
X30557573Y-29526535D01*
X30473465Y-29442427D01*
X30473462Y-29442425D01*
X30367488Y-29388428D01*
X30367483Y-29388426D01*
X30367482Y-29388426D01*
X30250000Y-29369819D01*
X30132518Y-29388426D01*
X30132511Y-29388428D01*
X30026537Y-29442425D01*
X29942425Y-29526537D01*
X29888428Y-29632511D01*
X29888426Y-29632518D01*
X29869819Y-29749999D01*
X29869819Y-29750000D01*
X5781038Y-29750000D01*
X5723465Y-29692427D01*
X5723462Y-29692425D01*
X5617488Y-29638428D01*
X5617483Y-29638426D01*
X5617482Y-29638426D01*
X5500000Y-29619819D01*
X5382518Y-29638426D01*
X5382511Y-29638428D01*
X5276537Y-29692425D01*
X5192425Y-29776537D01*
X5138428Y-29882511D01*
X5138426Y-29882518D01*
X5119819Y-29999999D01*
X5119819Y-30000000D01*
X4880181Y-30000000D01*
X4861574Y-29882518D01*
X4861571Y-29882513D01*
X4861571Y-29882511D01*
X4807574Y-29776537D01*
X4807573Y-29776535D01*
X4723465Y-29692427D01*
X4723462Y-29692425D01*
X4617488Y-29638428D01*
X4617483Y-29638426D01*
X4617482Y-29638426D01*
X4500000Y-29619819D01*
X4382518Y-29638426D01*
X4382511Y-29638428D01*
X4276537Y-29692425D01*
X4192425Y-29776537D01*
X4138428Y-29882511D01*
X4138426Y-29882518D01*
X4119819Y-29999999D01*
X4119819Y-30000000D01*
X200500Y-30000000D01*
X200500Y-29250000D01*
X5869819Y-29250000D01*
X5888426Y-29367481D01*
X5888428Y-29367488D01*
X5926611Y-29442425D01*
X5942427Y-29473465D01*
X6026535Y-29557573D01*
X6026537Y-29557574D01*
X6132511Y-29611571D01*
X6132513Y-29611571D01*
X6132518Y-29611574D01*
X6250000Y-29630181D01*
X6367482Y-29611574D01*
X6473465Y-29557573D01*
X6557573Y-29473465D01*
X6611574Y-29367482D01*
X6630181Y-29250000D01*
X6611574Y-29132518D01*
X6611571Y-29132513D01*
X6611571Y-29132511D01*
X6557574Y-29026537D01*
X6557573Y-29026535D01*
X6473465Y-28942427D01*
X6473462Y-28942425D01*
X6367488Y-28888428D01*
X6367483Y-28888426D01*
X6367482Y-28888426D01*
X6250000Y-28869819D01*
X6132518Y-28888426D01*
X6132511Y-28888428D01*
X6026537Y-28942425D01*
X5942425Y-29026537D01*
X5888428Y-29132511D01*
X5888426Y-29132518D01*
X5869819Y-29249999D01*
X5869819Y-29250000D01*
X200500Y-29250000D01*
X200500Y-27500000D01*
X4869819Y-27500000D01*
X4888426Y-27617481D01*
X4888428Y-27617488D01*
X4942425Y-27723462D01*
X4942427Y-27723465D01*
X5026535Y-27807573D01*
X5026537Y-27807574D01*
X5132511Y-27861571D01*
X5132513Y-27861571D01*
X5132518Y-27861574D01*
X5250000Y-27880181D01*
X5367482Y-27861574D01*
X5473465Y-27807573D01*
X5473469Y-27807568D01*
X5479770Y-27802992D01*
X5481322Y-27805129D01*
X5524785Y-27782973D01*
X5585219Y-27792532D01*
X5628493Y-27835787D01*
X5638073Y-27865255D01*
X5638425Y-27867479D01*
X5638428Y-27867488D01*
X5692425Y-27973462D01*
X5692427Y-27973465D01*
X5776535Y-28057573D01*
X5776537Y-28057574D01*
X5882511Y-28111571D01*
X5882513Y-28111571D01*
X5882518Y-28111574D01*
X6000000Y-28130181D01*
X6117482Y-28111574D01*
X6223465Y-28057573D01*
X6307573Y-27973465D01*
X6361574Y-27867482D01*
X6380181Y-27750000D01*
X8119819Y-27750000D01*
X8138426Y-27867481D01*
X8138428Y-27867488D01*
X8192425Y-27973462D01*
X8192427Y-27973465D01*
X8276535Y-28057573D01*
X8276537Y-28057574D01*
X8382511Y-28111571D01*
X8382513Y-28111571D01*
X8382518Y-28111574D01*
X8500000Y-28130181D01*
X8617482Y-28111574D01*
X8723465Y-28057573D01*
X8807573Y-27973465D01*
X8861574Y-27867482D01*
X8880181Y-27750000D01*
X10619819Y-27750000D01*
X10638426Y-27867481D01*
X10638428Y-27867488D01*
X10692425Y-27973462D01*
X10692427Y-27973465D01*
X10776535Y-28057573D01*
X10776537Y-28057574D01*
X10882511Y-28111571D01*
X10882513Y-28111571D01*
X10882518Y-28111574D01*
X11000000Y-28130181D01*
X11117482Y-28111574D01*
X11223465Y-28057573D01*
X11307573Y-27973465D01*
X11361574Y-27867482D01*
X11380181Y-27750000D01*
X13119819Y-27750000D01*
X13138426Y-27867481D01*
X13138428Y-27867488D01*
X13192425Y-27973462D01*
X13192427Y-27973465D01*
X13276535Y-28057573D01*
X13276537Y-28057574D01*
X13382511Y-28111571D01*
X13382513Y-28111571D01*
X13382518Y-28111574D01*
X13500000Y-28130181D01*
X13617482Y-28111574D01*
X13723465Y-28057573D01*
X13807573Y-27973465D01*
X13861574Y-27867482D01*
X13880181Y-27750000D01*
X15619819Y-27750000D01*
X15638426Y-27867481D01*
X15638428Y-27867488D01*
X15692425Y-27973462D01*
X15692427Y-27973465D01*
X15776535Y-28057573D01*
X15776537Y-28057574D01*
X15882511Y-28111571D01*
X15882513Y-28111571D01*
X15882518Y-28111574D01*
X16000000Y-28130181D01*
X16117482Y-28111574D01*
X16223465Y-28057573D01*
X16307573Y-27973465D01*
X16361574Y-27867482D01*
X16380181Y-27750000D01*
X18119819Y-27750000D01*
X18138426Y-27867481D01*
X18138428Y-27867488D01*
X18192425Y-27973462D01*
X18192427Y-27973465D01*
X18276535Y-28057573D01*
X18276537Y-28057574D01*
X18382511Y-28111571D01*
X18382513Y-28111571D01*
X18382518Y-28111574D01*
X18500000Y-28130181D01*
X18617482Y-28111574D01*
X18723465Y-28057573D01*
X18807573Y-27973465D01*
X18861574Y-27867482D01*
X18880181Y-27750000D01*
X20619819Y-27750000D01*
X20638426Y-27867481D01*
X20638428Y-27867488D01*
X20692425Y-27973462D01*
X20692427Y-27973465D01*
X20776535Y-28057573D01*
X20776537Y-28057574D01*
X20882511Y-28111571D01*
X20882513Y-28111571D01*
X20882518Y-28111574D01*
X21000000Y-28130181D01*
X21117482Y-28111574D01*
X21223465Y-28057573D01*
X21307573Y-27973465D01*
X21361574Y-27867482D01*
X21380181Y-27750000D01*
X23119819Y-27750000D01*
X23138426Y-27867481D01*
X23138428Y-27867488D01*
X23192425Y-27973462D01*
X23192427Y-27973465D01*
X23276535Y-28057573D01*
X23276537Y-28057574D01*
X23382511Y-28111571D01*
X23382513Y-28111571D01*
X23382518Y-28111574D01*
X23500000Y-28130181D01*
X23617482Y-28111574D01*
X23723465Y-28057573D01*
X23807573Y-27973465D01*
X23861574Y-27867482D01*
X23880181Y-27750000D01*
X23861574Y-27632518D01*
X23861571Y-27632513D01*
X23861571Y-27632511D01*
X23807574Y-27526537D01*
X23807573Y-27526535D01*
X23781038Y-27500000D01*
X25119819Y-27500000D01*
X25138426Y-27617481D01*
X25138428Y-27617488D01*
X25192425Y-27723462D01*
X25192427Y-27723465D01*
X25276535Y-27807573D01*
X25276537Y-27807574D01*
X25382511Y-27861571D01*
X25382513Y-27861571D01*
X25382518Y-27861574D01*
X25500000Y-27880181D01*
X25617482Y-27861574D01*
X25723465Y-27807573D01*
X25781038Y-27750000D01*
X28119819Y-27750000D01*
X28138426Y-27867481D01*
X28138428Y-27867488D01*
X28192425Y-27973462D01*
X28192427Y-27973465D01*
X28276535Y-28057573D01*
X28276537Y-28057574D01*
X28382511Y-28111571D01*
X28382513Y-28111571D01*
X28382518Y-28111574D01*
X28500000Y-28130181D01*
X28617482Y-28111574D01*
X28723465Y-28057573D01*
X28807573Y-27973465D01*
X28861574Y-27867482D01*
X28880181Y-27750000D01*
X28861574Y-27632518D01*
X28861571Y-27632513D01*
X28861571Y-27632511D01*
X28807574Y-27526537D01*
X28807573Y-27526535D01*
X28723465Y-27442427D01*
X28723462Y-27442425D01*
X28617488Y-27388428D01*
X28617483Y-27388426D01*
X28617482Y-27388426D01*
X28500000Y-27369819D01*
X28382518Y-27388426D01*
X28382511Y-27388428D01*
X28276537Y-27442425D01*
X28192425Y-27526537D01*
X28138428Y-27632511D01*
X28138426Y-27632518D01*
X28119819Y-27749999D01*
X28119819Y-27750000D01*
X25781038Y-27750000D01*
X25807573Y-27723465D01*
X25861574Y-27617482D01*
X25880181Y-27500000D01*
X25861574Y-27382518D01*
X25861571Y-27382513D01*
X25861571Y-27382511D01*
X25807574Y-27276537D01*
X25807573Y-27276535D01*
X25781038Y-27250000D01*
X29869819Y-27250000D01*
X29888426Y-27367481D01*
X29888428Y-27367488D01*
X29939149Y-27467032D01*
X29942427Y-27473465D01*
X30026535Y-27557573D01*
X30026537Y-27557574D01*
X30132511Y-27611571D01*
X30132513Y-27611571D01*
X30132518Y-27611574D01*
X30250000Y-27630181D01*
X30367482Y-27611574D01*
X30473465Y-27557573D01*
X30557573Y-27473465D01*
X30611574Y-27367482D01*
X30630181Y-27250000D01*
X30611574Y-27132518D01*
X30611571Y-27132513D01*
X30611571Y-27132511D01*
X30557574Y-27026537D01*
X30557573Y-27026535D01*
X30473465Y-26942427D01*
X30473462Y-26942425D01*
X30367488Y-26888428D01*
X30367483Y-26888426D01*
X30367482Y-26888426D01*
X30250000Y-26869819D01*
X30132518Y-26888426D01*
X30132511Y-26888428D01*
X30026537Y-26942425D01*
X29942425Y-27026537D01*
X29888428Y-27132511D01*
X29888426Y-27132518D01*
X29869819Y-27249999D01*
X29869819Y-27250000D01*
X25781038Y-27250000D01*
X25723465Y-27192427D01*
X25723462Y-27192425D01*
X25617488Y-27138428D01*
X25617483Y-27138426D01*
X25617482Y-27138426D01*
X25500000Y-27119819D01*
X25382518Y-27138426D01*
X25382511Y-27138428D01*
X25276537Y-27192425D01*
X25192425Y-27276537D01*
X25138428Y-27382511D01*
X25138426Y-27382518D01*
X25119819Y-27499999D01*
X25119819Y-27500000D01*
X23781038Y-27500000D01*
X23723465Y-27442427D01*
X23723462Y-27442425D01*
X23617488Y-27388428D01*
X23617483Y-27388426D01*
X23617482Y-27388426D01*
X23500000Y-27369819D01*
X23382518Y-27388426D01*
X23382511Y-27388428D01*
X23276537Y-27442425D01*
X23192425Y-27526537D01*
X23138428Y-27632511D01*
X23138426Y-27632518D01*
X23119819Y-27749999D01*
X23119819Y-27750000D01*
X21380181Y-27750000D01*
X21361574Y-27632518D01*
X21361571Y-27632513D01*
X21361571Y-27632511D01*
X21307574Y-27526537D01*
X21307573Y-27526535D01*
X21223465Y-27442427D01*
X21223462Y-27442425D01*
X21117488Y-27388428D01*
X21117483Y-27388426D01*
X21117482Y-27388426D01*
X21000000Y-27369819D01*
X20882518Y-27388426D01*
X20882511Y-27388428D01*
X20776537Y-27442425D01*
X20692425Y-27526537D01*
X20638428Y-27632511D01*
X20638426Y-27632518D01*
X20619819Y-27749999D01*
X20619819Y-27750000D01*
X18880181Y-27750000D01*
X18861574Y-27632518D01*
X18861571Y-27632513D01*
X18861571Y-27632511D01*
X18807574Y-27526537D01*
X18807573Y-27526535D01*
X18723465Y-27442427D01*
X18723462Y-27442425D01*
X18617488Y-27388428D01*
X18617483Y-27388426D01*
X18617482Y-27388426D01*
X18500000Y-27369819D01*
X18382518Y-27388426D01*
X18382511Y-27388428D01*
X18276537Y-27442425D01*
X18192425Y-27526537D01*
X18138428Y-27632511D01*
X18138426Y-27632518D01*
X18119819Y-27749999D01*
X18119819Y-27750000D01*
X16380181Y-27750000D01*
X16361574Y-27632518D01*
X16361571Y-27632513D01*
X16361571Y-27632511D01*
X16307574Y-27526537D01*
X16307573Y-27526535D01*
X16223465Y-27442427D01*
X16223462Y-27442425D01*
X16117488Y-27388428D01*
X16117483Y-27388426D01*
X16117482Y-27388426D01*
X16000000Y-27369819D01*
X15882518Y-27388426D01*
X15882511Y-27388428D01*
X15776537Y-27442425D01*
X15692425Y-27526537D01*
X15638428Y-27632511D01*
X15638426Y-27632518D01*
X15619819Y-27749999D01*
X15619819Y-27750000D01*
X13880181Y-27750000D01*
X13861574Y-27632518D01*
X13861571Y-27632513D01*
X13861571Y-27632511D01*
X13807574Y-27526537D01*
X13807573Y-27526535D01*
X13723465Y-27442427D01*
X13723462Y-27442425D01*
X13617488Y-27388428D01*
X13617483Y-27388426D01*
X13617482Y-27388426D01*
X13500000Y-27369819D01*
X13382518Y-27388426D01*
X13382511Y-27388428D01*
X13276537Y-27442425D01*
X13192425Y-27526537D01*
X13138428Y-27632511D01*
X13138426Y-27632518D01*
X13119819Y-27749999D01*
X13119819Y-27750000D01*
X11380181Y-27750000D01*
X11377276Y-27731662D01*
X11386846Y-27671234D01*
X11405050Y-27646175D01*
X11840505Y-27210720D01*
X11854940Y-27200480D01*
X11854871Y-27200394D01*
X11863590Y-27193439D01*
X11863595Y-27193437D01*
X11884727Y-27166936D01*
X11888417Y-27162808D01*
X11894961Y-27156266D01*
X11899888Y-27148423D01*
X11903088Y-27143912D01*
X11924218Y-27117418D01*
X11924218Y-27117414D01*
X11924220Y-27117413D01*
X11929061Y-27107362D01*
X11929162Y-27107410D01*
X11930016Y-27105349D01*
X11929909Y-27105312D01*
X11933590Y-27094787D01*
X11933594Y-27094783D01*
X11937387Y-27061102D01*
X11938315Y-27055650D01*
X11940376Y-27046625D01*
X11940376Y-27037372D01*
X11940687Y-27031826D01*
X11941283Y-27026535D01*
X11944480Y-26998162D01*
X11944478Y-26998158D01*
X11943231Y-26987075D01*
X11943340Y-26987062D01*
X11940376Y-26969612D01*
X11940376Y-25750000D01*
X31119819Y-25750000D01*
X31138426Y-25867481D01*
X31138428Y-25867488D01*
X31192425Y-25973462D01*
X31192427Y-25973465D01*
X31276535Y-26057573D01*
X31276537Y-26057574D01*
X31382511Y-26111571D01*
X31382513Y-26111571D01*
X31382518Y-26111574D01*
X31500000Y-26130181D01*
X31617482Y-26111574D01*
X31723465Y-26057573D01*
X31807573Y-25973465D01*
X31861574Y-25867482D01*
X31880181Y-25750000D01*
X32619819Y-25750000D01*
X32638426Y-25867481D01*
X32638428Y-25867488D01*
X32692425Y-25973462D01*
X32692427Y-25973465D01*
X32776535Y-26057573D01*
X32776537Y-26057574D01*
X32882511Y-26111571D01*
X32882513Y-26111571D01*
X32882518Y-26111574D01*
X33000000Y-26130181D01*
X33117482Y-26111574D01*
X33223465Y-26057573D01*
X33307573Y-25973465D01*
X33361574Y-25867482D01*
X33380181Y-25750000D01*
X33361574Y-25632518D01*
X33361571Y-25632513D01*
X33361571Y-25632511D01*
X33307574Y-25526537D01*
X33307573Y-25526535D01*
X33223465Y-25442427D01*
X33223462Y-25442425D01*
X33117488Y-25388428D01*
X33117483Y-25388426D01*
X33117482Y-25388426D01*
X33000000Y-25369819D01*
X32882518Y-25388426D01*
X32882511Y-25388428D01*
X32776537Y-25442425D01*
X32692425Y-25526537D01*
X32638428Y-25632511D01*
X32638426Y-25632518D01*
X32619819Y-25749999D01*
X32619819Y-25750000D01*
X31880181Y-25750000D01*
X31861574Y-25632518D01*
X31861571Y-25632513D01*
X31861571Y-25632511D01*
X31807574Y-25526537D01*
X31807573Y-25526535D01*
X31723465Y-25442427D01*
X31723462Y-25442425D01*
X31617488Y-25388428D01*
X31617483Y-25388426D01*
X31617482Y-25388426D01*
X31500000Y-25369819D01*
X31382518Y-25388426D01*
X31382511Y-25388428D01*
X31276537Y-25442425D01*
X31192425Y-25526537D01*
X31138428Y-25632511D01*
X31138426Y-25632518D01*
X31119819Y-25749999D01*
X31119819Y-25750000D01*
X11940376Y-25750000D01*
X11940376Y-25250000D01*
X13119819Y-25250000D01*
X13138426Y-25367481D01*
X13138428Y-25367488D01*
X13192425Y-25473462D01*
X13192427Y-25473465D01*
X13276535Y-25557573D01*
X13276537Y-25557574D01*
X13382511Y-25611571D01*
X13382513Y-25611571D01*
X13382518Y-25611574D01*
X13500000Y-25630181D01*
X13617482Y-25611574D01*
X13723465Y-25557573D01*
X13807573Y-25473465D01*
X13861574Y-25367482D01*
X13880181Y-25250000D01*
X15619819Y-25250000D01*
X15638426Y-25367481D01*
X15638428Y-25367488D01*
X15692425Y-25473462D01*
X15692427Y-25473465D01*
X15776535Y-25557573D01*
X15776537Y-25557574D01*
X15882511Y-25611571D01*
X15882513Y-25611571D01*
X15882518Y-25611574D01*
X16000000Y-25630181D01*
X16117482Y-25611574D01*
X16223465Y-25557573D01*
X16307573Y-25473465D01*
X16361574Y-25367482D01*
X16380181Y-25250000D01*
X18119819Y-25250000D01*
X18138426Y-25367481D01*
X18138428Y-25367488D01*
X18192425Y-25473462D01*
X18192427Y-25473465D01*
X18276535Y-25557573D01*
X18276537Y-25557574D01*
X18382511Y-25611571D01*
X18382513Y-25611571D01*
X18382518Y-25611574D01*
X18500000Y-25630181D01*
X18617482Y-25611574D01*
X18723465Y-25557573D01*
X18807573Y-25473465D01*
X18861574Y-25367482D01*
X18880181Y-25250000D01*
X20619819Y-25250000D01*
X20638426Y-25367481D01*
X20638428Y-25367488D01*
X20692425Y-25473462D01*
X20692427Y-25473465D01*
X20776535Y-25557573D01*
X20776537Y-25557574D01*
X20882511Y-25611571D01*
X20882513Y-25611571D01*
X20882518Y-25611574D01*
X21000000Y-25630181D01*
X21117482Y-25611574D01*
X21223465Y-25557573D01*
X21307573Y-25473465D01*
X21361574Y-25367482D01*
X21380181Y-25250000D01*
X23119819Y-25250000D01*
X23138426Y-25367481D01*
X23138428Y-25367488D01*
X23192425Y-25473462D01*
X23192427Y-25473465D01*
X23276535Y-25557573D01*
X23276537Y-25557574D01*
X23382511Y-25611571D01*
X23382513Y-25611571D01*
X23382518Y-25611574D01*
X23500000Y-25630181D01*
X23617482Y-25611574D01*
X23723465Y-25557573D01*
X23807573Y-25473465D01*
X23861574Y-25367482D01*
X23880181Y-25250000D01*
X23861574Y-25132518D01*
X23861571Y-25132513D01*
X23861571Y-25132511D01*
X23807574Y-25026537D01*
X23807573Y-25026535D01*
X23781038Y-25000000D01*
X25119819Y-25000000D01*
X25138426Y-25117481D01*
X25138428Y-25117488D01*
X25192425Y-25223462D01*
X25192427Y-25223465D01*
X25276535Y-25307573D01*
X25276537Y-25307574D01*
X25382511Y-25361571D01*
X25382513Y-25361571D01*
X25382518Y-25361574D01*
X25500000Y-25380181D01*
X25617482Y-25361574D01*
X25723465Y-25307573D01*
X25781038Y-25250000D01*
X28119819Y-25250000D01*
X28138426Y-25367481D01*
X28138428Y-25367488D01*
X28192425Y-25473462D01*
X28192427Y-25473465D01*
X28276535Y-25557573D01*
X28276537Y-25557574D01*
X28382511Y-25611571D01*
X28382513Y-25611571D01*
X28382518Y-25611574D01*
X28500000Y-25630181D01*
X28617482Y-25611574D01*
X28723465Y-25557573D01*
X28807573Y-25473465D01*
X28861574Y-25367482D01*
X28880181Y-25250000D01*
X28861574Y-25132518D01*
X28861571Y-25132513D01*
X28861571Y-25132511D01*
X28807574Y-25026537D01*
X28807573Y-25026535D01*
X28723465Y-24942427D01*
X28723462Y-24942425D01*
X28617488Y-24888428D01*
X28617483Y-24888426D01*
X28617482Y-24888426D01*
X28500000Y-24869819D01*
X28382518Y-24888426D01*
X28382511Y-24888428D01*
X28276537Y-24942425D01*
X28192425Y-25026537D01*
X28138428Y-25132511D01*
X28138426Y-25132518D01*
X28119819Y-25249999D01*
X28119819Y-25250000D01*
X25781038Y-25250000D01*
X25807573Y-25223465D01*
X25861574Y-25117482D01*
X25880181Y-25000000D01*
X25861574Y-24882518D01*
X25861571Y-24882513D01*
X25861571Y-24882511D01*
X25807574Y-24776537D01*
X25807573Y-24776535D01*
X25781038Y-24750000D01*
X29869819Y-24750000D01*
X29888426Y-24867481D01*
X29888428Y-24867488D01*
X29926611Y-24942425D01*
X29942427Y-24973465D01*
X30026535Y-25057573D01*
X30026537Y-25057574D01*
X30132511Y-25111571D01*
X30132513Y-25111571D01*
X30132518Y-25111574D01*
X30250000Y-25130181D01*
X30367482Y-25111574D01*
X30473465Y-25057573D01*
X30557573Y-24973465D01*
X30611574Y-24867482D01*
X30630181Y-24750000D01*
X30611574Y-24632518D01*
X30611571Y-24632513D01*
X30611571Y-24632511D01*
X30557574Y-24526537D01*
X30557573Y-24526535D01*
X30531038Y-24500000D01*
X31769819Y-24500000D01*
X31786498Y-24605312D01*
X31788426Y-24617481D01*
X31788428Y-24617488D01*
X31842425Y-24723462D01*
X31842427Y-24723465D01*
X31926535Y-24807573D01*
X31926537Y-24807574D01*
X32032511Y-24861571D01*
X32032513Y-24861571D01*
X32032518Y-24861574D01*
X32150000Y-24880181D01*
X32267482Y-24861574D01*
X32373465Y-24807573D01*
X32457573Y-24723465D01*
X32511574Y-24617482D01*
X32530181Y-24500000D01*
X32511574Y-24382518D01*
X32511571Y-24382513D01*
X32511571Y-24382511D01*
X32457574Y-24276537D01*
X32457573Y-24276535D01*
X32373465Y-24192427D01*
X32373462Y-24192425D01*
X32267488Y-24138428D01*
X32267483Y-24138426D01*
X32267482Y-24138426D01*
X32150000Y-24119819D01*
X32032518Y-24138426D01*
X32032511Y-24138428D01*
X31926537Y-24192425D01*
X31842425Y-24276537D01*
X31788428Y-24382511D01*
X31788426Y-24382518D01*
X31778938Y-24442427D01*
X31769819Y-24500000D01*
X30531038Y-24500000D01*
X30473465Y-24442427D01*
X30473462Y-24442425D01*
X30367488Y-24388428D01*
X30367483Y-24388426D01*
X30367482Y-24388426D01*
X30250000Y-24369819D01*
X30132518Y-24388426D01*
X30132511Y-24388428D01*
X30026537Y-24442425D01*
X29942425Y-24526537D01*
X29888428Y-24632511D01*
X29888426Y-24632518D01*
X29869819Y-24749999D01*
X29869819Y-24750000D01*
X25781038Y-24750000D01*
X25723465Y-24692427D01*
X25723462Y-24692425D01*
X25617488Y-24638428D01*
X25617483Y-24638426D01*
X25617482Y-24638426D01*
X25500000Y-24619819D01*
X25382518Y-24638426D01*
X25382511Y-24638428D01*
X25276537Y-24692425D01*
X25192425Y-24776537D01*
X25138428Y-24882511D01*
X25138426Y-24882518D01*
X25119819Y-24999999D01*
X25119819Y-25000000D01*
X23781038Y-25000000D01*
X23723465Y-24942427D01*
X23723462Y-24942425D01*
X23617488Y-24888428D01*
X23617483Y-24888426D01*
X23617482Y-24888426D01*
X23500000Y-24869819D01*
X23382518Y-24888426D01*
X23382511Y-24888428D01*
X23276537Y-24942425D01*
X23192425Y-25026537D01*
X23138428Y-25132511D01*
X23138426Y-25132518D01*
X23119819Y-25249999D01*
X23119819Y-25250000D01*
X21380181Y-25250000D01*
X21361574Y-25132518D01*
X21361571Y-25132513D01*
X21361571Y-25132511D01*
X21307574Y-25026537D01*
X21307573Y-25026535D01*
X21223465Y-24942427D01*
X21223462Y-24942425D01*
X21117488Y-24888428D01*
X21117483Y-24888426D01*
X21117482Y-24888426D01*
X21000000Y-24869819D01*
X20882518Y-24888426D01*
X20882511Y-24888428D01*
X20776537Y-24942425D01*
X20692425Y-25026537D01*
X20638428Y-25132511D01*
X20638426Y-25132518D01*
X20619819Y-25249999D01*
X20619819Y-25250000D01*
X18880181Y-25250000D01*
X18861574Y-25132518D01*
X18861571Y-25132513D01*
X18861571Y-25132511D01*
X18807574Y-25026537D01*
X18807573Y-25026535D01*
X18723465Y-24942427D01*
X18723462Y-24942425D01*
X18617488Y-24888428D01*
X18617483Y-24888426D01*
X18617482Y-24888426D01*
X18500000Y-24869819D01*
X18382518Y-24888426D01*
X18382511Y-24888428D01*
X18276537Y-24942425D01*
X18192425Y-25026537D01*
X18138428Y-25132511D01*
X18138426Y-25132518D01*
X18119819Y-25249999D01*
X18119819Y-25250000D01*
X16380181Y-25250000D01*
X16361574Y-25132518D01*
X16361571Y-25132513D01*
X16361571Y-25132511D01*
X16307574Y-25026537D01*
X16307573Y-25026535D01*
X16223465Y-24942427D01*
X16223462Y-24942425D01*
X16117488Y-24888428D01*
X16117483Y-24888426D01*
X16117482Y-24888426D01*
X16000000Y-24869819D01*
X15882518Y-24888426D01*
X15882511Y-24888428D01*
X15776537Y-24942425D01*
X15692425Y-25026537D01*
X15638428Y-25132511D01*
X15638426Y-25132518D01*
X15619819Y-25249999D01*
X15619819Y-25250000D01*
X13880181Y-25250000D01*
X13877276Y-25231662D01*
X13886846Y-25171234D01*
X13905050Y-25146175D01*
X14340505Y-24710720D01*
X14354940Y-24700480D01*
X14354871Y-24700394D01*
X14363590Y-24693439D01*
X14363595Y-24693437D01*
X14384727Y-24666936D01*
X14388417Y-24662808D01*
X14394961Y-24656266D01*
X14399888Y-24648423D01*
X14403088Y-24643912D01*
X14424218Y-24617418D01*
X14424218Y-24617414D01*
X14424220Y-24617413D01*
X14429061Y-24607362D01*
X14429162Y-24607410D01*
X14430016Y-24605349D01*
X14429909Y-24605312D01*
X14433590Y-24594787D01*
X14433594Y-24594783D01*
X14437387Y-24561102D01*
X14438315Y-24555650D01*
X14440376Y-24546625D01*
X14440376Y-24537372D01*
X14440687Y-24531826D01*
X14441283Y-24526535D01*
X14444480Y-24498162D01*
X14444478Y-24498158D01*
X14443231Y-24487075D01*
X14443340Y-24487062D01*
X14440376Y-24469612D01*
X14440376Y-23250000D01*
X31119819Y-23250000D01*
X31138426Y-23367481D01*
X31138428Y-23367488D01*
X31192425Y-23473462D01*
X31192427Y-23473465D01*
X31276535Y-23557573D01*
X31276537Y-23557574D01*
X31382511Y-23611571D01*
X31382513Y-23611571D01*
X31382518Y-23611574D01*
X31500000Y-23630181D01*
X31617482Y-23611574D01*
X31723465Y-23557573D01*
X31807573Y-23473465D01*
X31861574Y-23367482D01*
X31880181Y-23250000D01*
X32619819Y-23250000D01*
X32638426Y-23367481D01*
X32638428Y-23367488D01*
X32692425Y-23473462D01*
X32692427Y-23473465D01*
X32776535Y-23557573D01*
X32776537Y-23557574D01*
X32882511Y-23611571D01*
X32882513Y-23611571D01*
X32882518Y-23611574D01*
X33000000Y-23630181D01*
X33117482Y-23611574D01*
X33223465Y-23557573D01*
X33307573Y-23473465D01*
X33361574Y-23367482D01*
X33380181Y-23250000D01*
X33361574Y-23132518D01*
X33361571Y-23132513D01*
X33361571Y-23132511D01*
X33307574Y-23026537D01*
X33307573Y-23026535D01*
X33223465Y-22942427D01*
X33223462Y-22942425D01*
X33117488Y-22888428D01*
X33117483Y-22888426D01*
X33117482Y-22888426D01*
X33000000Y-22869819D01*
X32882518Y-22888426D01*
X32882511Y-22888428D01*
X32776537Y-22942425D01*
X32692425Y-23026537D01*
X32638428Y-23132511D01*
X32638426Y-23132518D01*
X32619819Y-23249999D01*
X32619819Y-23250000D01*
X31880181Y-23250000D01*
X31861574Y-23132518D01*
X31861571Y-23132513D01*
X31861571Y-23132511D01*
X31807574Y-23026537D01*
X31807573Y-23026535D01*
X31723465Y-22942427D01*
X31723462Y-22942425D01*
X31617488Y-22888428D01*
X31617483Y-22888426D01*
X31617482Y-22888426D01*
X31500000Y-22869819D01*
X31382518Y-22888426D01*
X31382511Y-22888428D01*
X31276537Y-22942425D01*
X31192425Y-23026537D01*
X31138428Y-23132511D01*
X31138426Y-23132518D01*
X31119819Y-23249999D01*
X31119819Y-23250000D01*
X14440376Y-23250000D01*
X14440376Y-22750000D01*
X15619819Y-22750000D01*
X15638426Y-22867481D01*
X15638428Y-22867488D01*
X15692425Y-22973462D01*
X15692427Y-22973465D01*
X15776535Y-23057573D01*
X15776537Y-23057574D01*
X15882511Y-23111571D01*
X15882513Y-23111571D01*
X15882518Y-23111574D01*
X16000000Y-23130181D01*
X16117482Y-23111574D01*
X16223465Y-23057573D01*
X16307573Y-22973465D01*
X16361574Y-22867482D01*
X16380181Y-22750000D01*
X18119819Y-22750000D01*
X18138426Y-22867481D01*
X18138428Y-22867488D01*
X18192425Y-22973462D01*
X18192427Y-22973465D01*
X18276535Y-23057573D01*
X18276537Y-23057574D01*
X18382511Y-23111571D01*
X18382513Y-23111571D01*
X18382518Y-23111574D01*
X18500000Y-23130181D01*
X18617482Y-23111574D01*
X18723465Y-23057573D01*
X18807573Y-22973465D01*
X18861574Y-22867482D01*
X18880181Y-22750000D01*
X20619819Y-22750000D01*
X20638426Y-22867481D01*
X20638428Y-22867488D01*
X20692425Y-22973462D01*
X20692427Y-22973465D01*
X20776535Y-23057573D01*
X20776537Y-23057574D01*
X20882511Y-23111571D01*
X20882513Y-23111571D01*
X20882518Y-23111574D01*
X21000000Y-23130181D01*
X21117482Y-23111574D01*
X21223465Y-23057573D01*
X21307573Y-22973465D01*
X21361574Y-22867482D01*
X21380181Y-22750000D01*
X23119819Y-22750000D01*
X23138426Y-22867481D01*
X23138428Y-22867488D01*
X23192425Y-22973462D01*
X23192427Y-22973465D01*
X23276535Y-23057573D01*
X23276537Y-23057574D01*
X23382511Y-23111571D01*
X23382513Y-23111571D01*
X23382518Y-23111574D01*
X23500000Y-23130181D01*
X23617482Y-23111574D01*
X23723465Y-23057573D01*
X23807573Y-22973465D01*
X23861574Y-22867482D01*
X23880181Y-22750000D01*
X23861574Y-22632518D01*
X23861571Y-22632513D01*
X23861571Y-22632511D01*
X23807574Y-22526537D01*
X23807573Y-22526535D01*
X23781038Y-22500000D01*
X25119819Y-22500000D01*
X25138426Y-22617481D01*
X25138428Y-22617488D01*
X25192425Y-22723462D01*
X25192427Y-22723465D01*
X25276535Y-22807573D01*
X25276537Y-22807574D01*
X25382511Y-22861571D01*
X25382513Y-22861571D01*
X25382518Y-22861574D01*
X25500000Y-22880181D01*
X25617482Y-22861574D01*
X25723465Y-22807573D01*
X25781038Y-22750000D01*
X28119819Y-22750000D01*
X28138426Y-22867481D01*
X28138428Y-22867488D01*
X28192425Y-22973462D01*
X28192427Y-22973465D01*
X28276535Y-23057573D01*
X28276537Y-23057574D01*
X28382511Y-23111571D01*
X28382513Y-23111571D01*
X28382518Y-23111574D01*
X28500000Y-23130181D01*
X28617482Y-23111574D01*
X28723465Y-23057573D01*
X28807573Y-22973465D01*
X28861574Y-22867482D01*
X28880181Y-22750000D01*
X28861574Y-22632518D01*
X28861571Y-22632513D01*
X28861571Y-22632511D01*
X28807574Y-22526537D01*
X28807573Y-22526535D01*
X28723465Y-22442427D01*
X28723462Y-22442425D01*
X28617488Y-22388428D01*
X28617483Y-22388426D01*
X28617482Y-22388426D01*
X28500000Y-22369819D01*
X28382518Y-22388426D01*
X28382511Y-22388428D01*
X28276537Y-22442425D01*
X28192425Y-22526537D01*
X28138428Y-22632511D01*
X28138426Y-22632518D01*
X28119819Y-22749999D01*
X28119819Y-22750000D01*
X25781038Y-22750000D01*
X25807573Y-22723465D01*
X25861574Y-22617482D01*
X25880181Y-22500000D01*
X25861574Y-22382518D01*
X25861571Y-22382513D01*
X25861571Y-22382511D01*
X25807574Y-22276537D01*
X25807573Y-22276535D01*
X25781038Y-22250000D01*
X29869819Y-22250000D01*
X29888426Y-22367481D01*
X29888428Y-22367488D01*
X29926611Y-22442425D01*
X29942427Y-22473465D01*
X30026535Y-22557573D01*
X30026537Y-22557574D01*
X30132511Y-22611571D01*
X30132513Y-22611571D01*
X30132518Y-22611574D01*
X30250000Y-22630181D01*
X30367482Y-22611574D01*
X30473465Y-22557573D01*
X30557573Y-22473465D01*
X30611574Y-22367482D01*
X30630181Y-22250000D01*
X30611574Y-22132518D01*
X30611571Y-22132513D01*
X30611571Y-22132511D01*
X30557574Y-22026537D01*
X30557573Y-22026535D01*
X30473465Y-21942427D01*
X30473462Y-21942425D01*
X30367488Y-21888428D01*
X30367483Y-21888426D01*
X30367482Y-21888426D01*
X30250000Y-21869819D01*
X30132518Y-21888426D01*
X30132511Y-21888428D01*
X30026537Y-21942425D01*
X29942425Y-22026537D01*
X29888428Y-22132511D01*
X29888426Y-22132518D01*
X29869819Y-22249999D01*
X29869819Y-22250000D01*
X25781038Y-22250000D01*
X25723465Y-22192427D01*
X25723462Y-22192425D01*
X25617488Y-22138428D01*
X25617483Y-22138426D01*
X25617482Y-22138426D01*
X25500000Y-22119819D01*
X25382518Y-22138426D01*
X25382511Y-22138428D01*
X25276537Y-22192425D01*
X25192425Y-22276537D01*
X25138428Y-22382511D01*
X25138426Y-22382518D01*
X25119819Y-22499999D01*
X25119819Y-22500000D01*
X23781038Y-22500000D01*
X23723465Y-22442427D01*
X23723462Y-22442425D01*
X23617488Y-22388428D01*
X23617483Y-22388426D01*
X23617482Y-22388426D01*
X23500000Y-22369819D01*
X23382518Y-22388426D01*
X23382511Y-22388428D01*
X23276537Y-22442425D01*
X23192425Y-22526537D01*
X23138428Y-22632511D01*
X23138426Y-22632518D01*
X23119819Y-22749999D01*
X23119819Y-22750000D01*
X21380181Y-22750000D01*
X21361574Y-22632518D01*
X21361571Y-22632513D01*
X21361571Y-22632511D01*
X21307574Y-22526537D01*
X21307573Y-22526535D01*
X21223465Y-22442427D01*
X21223462Y-22442425D01*
X21117488Y-22388428D01*
X21117483Y-22388426D01*
X21117482Y-22388426D01*
X21000000Y-22369819D01*
X20882518Y-22388426D01*
X20882511Y-22388428D01*
X20776537Y-22442425D01*
X20692425Y-22526537D01*
X20638428Y-22632511D01*
X20638426Y-22632518D01*
X20619819Y-22749999D01*
X20619819Y-22750000D01*
X18880181Y-22750000D01*
X18861574Y-22632518D01*
X18861571Y-22632513D01*
X18861571Y-22632511D01*
X18807574Y-22526537D01*
X18807573Y-22526535D01*
X18723465Y-22442427D01*
X18723462Y-22442425D01*
X18617488Y-22388428D01*
X18617483Y-22388426D01*
X18617482Y-22388426D01*
X18500000Y-22369819D01*
X18382518Y-22388426D01*
X18382511Y-22388428D01*
X18276537Y-22442425D01*
X18192425Y-22526537D01*
X18138428Y-22632511D01*
X18138426Y-22632518D01*
X18119819Y-22749999D01*
X18119819Y-22750000D01*
X16380181Y-22750000D01*
X16377276Y-22731662D01*
X16386846Y-22671234D01*
X16405050Y-22646175D01*
X16840505Y-22210720D01*
X16854940Y-22200480D01*
X16854871Y-22200394D01*
X16863590Y-22193439D01*
X16863595Y-22193437D01*
X16884727Y-22166936D01*
X16888417Y-22162808D01*
X16894961Y-22156266D01*
X16899888Y-22148423D01*
X16903088Y-22143912D01*
X16924218Y-22117418D01*
X16924218Y-22117414D01*
X16924220Y-22117413D01*
X16929061Y-22107362D01*
X16929162Y-22107410D01*
X16930016Y-22105349D01*
X16929909Y-22105312D01*
X16933590Y-22094787D01*
X16933594Y-22094783D01*
X16937387Y-22061102D01*
X16938315Y-22055650D01*
X16940376Y-22046625D01*
X16940376Y-22037372D01*
X16940687Y-22031826D01*
X16941283Y-22026535D01*
X16944480Y-21998162D01*
X16944478Y-21998158D01*
X16943231Y-21987075D01*
X16943340Y-21987062D01*
X16940376Y-21969612D01*
X16940376Y-20250000D01*
X18119819Y-20250000D01*
X18138426Y-20367481D01*
X18138428Y-20367488D01*
X18192425Y-20473462D01*
X18192427Y-20473465D01*
X18276535Y-20557573D01*
X18276537Y-20557574D01*
X18382511Y-20611571D01*
X18382513Y-20611571D01*
X18382518Y-20611574D01*
X18500000Y-20630181D01*
X18617482Y-20611574D01*
X18723465Y-20557573D01*
X18807573Y-20473465D01*
X18861574Y-20367482D01*
X18880181Y-20250000D01*
X20619819Y-20250000D01*
X20638426Y-20367481D01*
X20638428Y-20367488D01*
X20692425Y-20473462D01*
X20692427Y-20473465D01*
X20776535Y-20557573D01*
X20776537Y-20557574D01*
X20882511Y-20611571D01*
X20882513Y-20611571D01*
X20882518Y-20611574D01*
X21000000Y-20630181D01*
X21117482Y-20611574D01*
X21223465Y-20557573D01*
X21307573Y-20473465D01*
X21361574Y-20367482D01*
X21380181Y-20250000D01*
X23119819Y-20250000D01*
X23138426Y-20367481D01*
X23138428Y-20367488D01*
X23192425Y-20473462D01*
X23192427Y-20473465D01*
X23276535Y-20557573D01*
X23276537Y-20557574D01*
X23382511Y-20611571D01*
X23382513Y-20611571D01*
X23382518Y-20611574D01*
X23500000Y-20630181D01*
X23617482Y-20611574D01*
X23723465Y-20557573D01*
X23807573Y-20473465D01*
X23861574Y-20367482D01*
X23880181Y-20250000D01*
X23861574Y-20132518D01*
X23861571Y-20132513D01*
X23861571Y-20132511D01*
X23807574Y-20026537D01*
X23807573Y-20026535D01*
X23781038Y-20000000D01*
X24869819Y-20000000D01*
X24884256Y-20091156D01*
X24888426Y-20117481D01*
X24888428Y-20117488D01*
X24942425Y-20223462D01*
X24942427Y-20223465D01*
X25026535Y-20307573D01*
X25026537Y-20307574D01*
X25132511Y-20361571D01*
X25132513Y-20361571D01*
X25132518Y-20361574D01*
X25250000Y-20380181D01*
X25367482Y-20361574D01*
X25473465Y-20307573D01*
X25531038Y-20250000D01*
X28119819Y-20250000D01*
X28138426Y-20367481D01*
X28138428Y-20367488D01*
X28192425Y-20473462D01*
X28192427Y-20473465D01*
X28276535Y-20557573D01*
X28276537Y-20557574D01*
X28382511Y-20611571D01*
X28382513Y-20611571D01*
X28382518Y-20611574D01*
X28500000Y-20630181D01*
X28617482Y-20611574D01*
X28723465Y-20557573D01*
X28807573Y-20473465D01*
X28861574Y-20367482D01*
X28880181Y-20250000D01*
X28861574Y-20132518D01*
X28861571Y-20132513D01*
X28861571Y-20132511D01*
X28807574Y-20026537D01*
X28807573Y-20026535D01*
X28723465Y-19942427D01*
X28723462Y-19942425D01*
X28617488Y-19888428D01*
X28617483Y-19888426D01*
X28617482Y-19888426D01*
X28500000Y-19869819D01*
X28382518Y-19888426D01*
X28382511Y-19888428D01*
X28276537Y-19942425D01*
X28192425Y-20026537D01*
X28138428Y-20132511D01*
X28138426Y-20132518D01*
X28119819Y-20249999D01*
X28119819Y-20250000D01*
X25531038Y-20250000D01*
X25557573Y-20223465D01*
X25611574Y-20117482D01*
X25630181Y-20000000D01*
X25629767Y-19997389D01*
X25621062Y-19942425D01*
X25611574Y-19882518D01*
X25611571Y-19882513D01*
X25611571Y-19882511D01*
X25557574Y-19776537D01*
X25557573Y-19776535D01*
X25531038Y-19750000D01*
X29869819Y-19750000D01*
X29888426Y-19867481D01*
X29888428Y-19867488D01*
X29925185Y-19939626D01*
X29942427Y-19973465D01*
X30026535Y-20057573D01*
X30026537Y-20057574D01*
X30132511Y-20111571D01*
X30132513Y-20111571D01*
X30132518Y-20111574D01*
X30250000Y-20130181D01*
X30367482Y-20111574D01*
X30473465Y-20057573D01*
X30557573Y-19973465D01*
X30611574Y-19867482D01*
X30630181Y-19750000D01*
X31119819Y-19750000D01*
X31138426Y-19867481D01*
X31138428Y-19867488D01*
X31175185Y-19939626D01*
X31192427Y-19973465D01*
X31276535Y-20057573D01*
X31276537Y-20057574D01*
X31382511Y-20111571D01*
X31382513Y-20111571D01*
X31382518Y-20111574D01*
X31500000Y-20130181D01*
X31617482Y-20111574D01*
X31723465Y-20057573D01*
X31807573Y-19973465D01*
X31861574Y-19867482D01*
X31880181Y-19750000D01*
X31866280Y-19662232D01*
X32205690Y-19662232D01*
X32235917Y-19807698D01*
X32235919Y-19807706D01*
X32304274Y-19939623D01*
X32304276Y-19939626D01*
X32405690Y-20048214D01*
X32532640Y-20125414D01*
X32675710Y-20165500D01*
X32675711Y-20165500D01*
X32786968Y-20165500D01*
X32786974Y-20165500D01*
X32897196Y-20150350D01*
X33033476Y-20091156D01*
X33148731Y-19997389D01*
X33234414Y-19876003D01*
X33284171Y-19736002D01*
X33294310Y-19587768D01*
X33282685Y-19531826D01*
X33264082Y-19442301D01*
X33264080Y-19442293D01*
X33195725Y-19310376D01*
X33195723Y-19310373D01*
X33094311Y-19201787D01*
X33094310Y-19201786D01*
X32967360Y-19124586D01*
X32967359Y-19124585D01*
X32967358Y-19124585D01*
X32824290Y-19084500D01*
X32713026Y-19084500D01*
X32602805Y-19099649D01*
X32602801Y-19099650D01*
X32466524Y-19158843D01*
X32466522Y-19158844D01*
X32351268Y-19252610D01*
X32265587Y-19373995D01*
X32215828Y-19513997D01*
X32205690Y-19662232D01*
X31866280Y-19662232D01*
X31861574Y-19632518D01*
X31861571Y-19632513D01*
X31861571Y-19632511D01*
X31807574Y-19526537D01*
X31807573Y-19526535D01*
X31723465Y-19442427D01*
X31723462Y-19442425D01*
X31617488Y-19388428D01*
X31617483Y-19388426D01*
X31617482Y-19388426D01*
X31500000Y-19369819D01*
X31382518Y-19388426D01*
X31382511Y-19388428D01*
X31276537Y-19442425D01*
X31192425Y-19526537D01*
X31138428Y-19632511D01*
X31138426Y-19632518D01*
X31119819Y-19749999D01*
X31119819Y-19750000D01*
X30630181Y-19750000D01*
X30611574Y-19632518D01*
X30611571Y-19632513D01*
X30611571Y-19632511D01*
X30557574Y-19526537D01*
X30557573Y-19526535D01*
X30473465Y-19442427D01*
X30473462Y-19442425D01*
X30367488Y-19388428D01*
X30367483Y-19388426D01*
X30367482Y-19388426D01*
X30250000Y-19369819D01*
X30132518Y-19388426D01*
X30132511Y-19388428D01*
X30026537Y-19442425D01*
X29942425Y-19526537D01*
X29888428Y-19632511D01*
X29888426Y-19632518D01*
X29869819Y-19749999D01*
X29869819Y-19750000D01*
X25531038Y-19750000D01*
X25473465Y-19692427D01*
X25473462Y-19692425D01*
X25367488Y-19638428D01*
X25367483Y-19638426D01*
X25367482Y-19638426D01*
X25250000Y-19619819D01*
X25132518Y-19638426D01*
X25132511Y-19638428D01*
X25026537Y-19692425D01*
X24942425Y-19776537D01*
X24888428Y-19882511D01*
X24888426Y-19882518D01*
X24870233Y-19997389D01*
X24869819Y-20000000D01*
X23781038Y-20000000D01*
X23723465Y-19942427D01*
X23723462Y-19942425D01*
X23617488Y-19888428D01*
X23617483Y-19888426D01*
X23617482Y-19888426D01*
X23500000Y-19869819D01*
X23382518Y-19888426D01*
X23382511Y-19888428D01*
X23276537Y-19942425D01*
X23192425Y-20026537D01*
X23138428Y-20132511D01*
X23138426Y-20132518D01*
X23119819Y-20249999D01*
X23119819Y-20250000D01*
X21380181Y-20250000D01*
X21361574Y-20132518D01*
X21361571Y-20132513D01*
X21361571Y-20132511D01*
X21307574Y-20026537D01*
X21307573Y-20026535D01*
X21223465Y-19942427D01*
X21223462Y-19942425D01*
X21117488Y-19888428D01*
X21117483Y-19888426D01*
X21117482Y-19888426D01*
X21000000Y-19869819D01*
X20882518Y-19888426D01*
X20882511Y-19888428D01*
X20776537Y-19942425D01*
X20692425Y-20026537D01*
X20638428Y-20132511D01*
X20638426Y-20132518D01*
X20619819Y-20249999D01*
X20619819Y-20250000D01*
X18880181Y-20250000D01*
X18877276Y-20231662D01*
X18886846Y-20171234D01*
X18905050Y-20146175D01*
X19340505Y-19710720D01*
X19354940Y-19700480D01*
X19354871Y-19700394D01*
X19363590Y-19693439D01*
X19363595Y-19693437D01*
X19384727Y-19666936D01*
X19388417Y-19662808D01*
X19394961Y-19656266D01*
X19399888Y-19648423D01*
X19403088Y-19643912D01*
X19424218Y-19617418D01*
X19424218Y-19617414D01*
X19424220Y-19617413D01*
X19429061Y-19607362D01*
X19429162Y-19607410D01*
X19430016Y-19605349D01*
X19429909Y-19605312D01*
X19433590Y-19594787D01*
X19433594Y-19594783D01*
X19437387Y-19561102D01*
X19438315Y-19555650D01*
X19440376Y-19546625D01*
X19440376Y-19537372D01*
X19440687Y-19531826D01*
X19441283Y-19526535D01*
X19444480Y-19498162D01*
X19444478Y-19498158D01*
X19443231Y-19487075D01*
X19443340Y-19487062D01*
X19440376Y-19469612D01*
X19440376Y-17750000D01*
X20619819Y-17750000D01*
X20638426Y-17867481D01*
X20638428Y-17867488D01*
X20692425Y-17973462D01*
X20692427Y-17973465D01*
X20776535Y-18057573D01*
X20776537Y-18057574D01*
X20882511Y-18111571D01*
X20882513Y-18111571D01*
X20882518Y-18111574D01*
X21000000Y-18130181D01*
X21117482Y-18111574D01*
X21223465Y-18057573D01*
X21307573Y-17973465D01*
X21361574Y-17867482D01*
X21380181Y-17750000D01*
X23119819Y-17750000D01*
X23138426Y-17867481D01*
X23138428Y-17867488D01*
X23192425Y-17973462D01*
X23192427Y-17973465D01*
X23276535Y-18057573D01*
X23276537Y-18057574D01*
X23382511Y-18111571D01*
X23382513Y-18111571D01*
X23382518Y-18111574D01*
X23500000Y-18130181D01*
X23617482Y-18111574D01*
X23723465Y-18057573D01*
X23807573Y-17973465D01*
X23861574Y-17867482D01*
X23880181Y-17750000D01*
X23861574Y-17632518D01*
X23861571Y-17632513D01*
X23861571Y-17632511D01*
X23807574Y-17526537D01*
X23807573Y-17526535D01*
X23781038Y-17500000D01*
X24869819Y-17500000D01*
X24888426Y-17617481D01*
X24888428Y-17617488D01*
X24926611Y-17692425D01*
X24942427Y-17723465D01*
X25026535Y-17807573D01*
X25026537Y-17807574D01*
X25132511Y-17861571D01*
X25132513Y-17861571D01*
X25132518Y-17861574D01*
X25250000Y-17880181D01*
X25367482Y-17861574D01*
X25473465Y-17807573D01*
X25531038Y-17750000D01*
X28119819Y-17750000D01*
X28138426Y-17867481D01*
X28138428Y-17867488D01*
X28192425Y-17973462D01*
X28192427Y-17973465D01*
X28276535Y-18057573D01*
X28276537Y-18057574D01*
X28382511Y-18111571D01*
X28382513Y-18111571D01*
X28382518Y-18111574D01*
X28500000Y-18130181D01*
X28617482Y-18111574D01*
X28723465Y-18057573D01*
X28807573Y-17973465D01*
X28861574Y-17867482D01*
X28880181Y-17750000D01*
X28861574Y-17632518D01*
X28861571Y-17632513D01*
X28861571Y-17632511D01*
X28807574Y-17526537D01*
X28807573Y-17526535D01*
X28723465Y-17442427D01*
X28723462Y-17442425D01*
X28617488Y-17388428D01*
X28617483Y-17388426D01*
X28617482Y-17388426D01*
X28500000Y-17369819D01*
X28382518Y-17388426D01*
X28382511Y-17388428D01*
X28276537Y-17442425D01*
X28192425Y-17526537D01*
X28138428Y-17632511D01*
X28138426Y-17632518D01*
X28119819Y-17749999D01*
X28119819Y-17750000D01*
X25531038Y-17750000D01*
X25557573Y-17723465D01*
X25611574Y-17617482D01*
X25630181Y-17500000D01*
X25611574Y-17382518D01*
X25611571Y-17382513D01*
X25611571Y-17382511D01*
X25557574Y-17276537D01*
X25557573Y-17276535D01*
X25473465Y-17192427D01*
X25473462Y-17192425D01*
X25367488Y-17138428D01*
X25367483Y-17138426D01*
X25367482Y-17138426D01*
X25250000Y-17119819D01*
X25132518Y-17138426D01*
X25132511Y-17138428D01*
X25026537Y-17192425D01*
X24942425Y-17276537D01*
X24888428Y-17382511D01*
X24888426Y-17382518D01*
X24869819Y-17499999D01*
X24869819Y-17500000D01*
X23781038Y-17500000D01*
X23723465Y-17442427D01*
X23723462Y-17442425D01*
X23617488Y-17388428D01*
X23617483Y-17388426D01*
X23617482Y-17388426D01*
X23500000Y-17369819D01*
X23382518Y-17388426D01*
X23382511Y-17388428D01*
X23276537Y-17442425D01*
X23192425Y-17526537D01*
X23138428Y-17632511D01*
X23138426Y-17632518D01*
X23119819Y-17749999D01*
X23119819Y-17750000D01*
X21380181Y-17750000D01*
X21377276Y-17731662D01*
X21386846Y-17671234D01*
X21405050Y-17646175D01*
X21840505Y-17210720D01*
X21854940Y-17200480D01*
X21854871Y-17200394D01*
X21863590Y-17193439D01*
X21863595Y-17193437D01*
X21884727Y-17166936D01*
X21888417Y-17162808D01*
X21894961Y-17156266D01*
X21899888Y-17148423D01*
X21903088Y-17143912D01*
X21924218Y-17117418D01*
X21924218Y-17117414D01*
X21924220Y-17117413D01*
X21929061Y-17107362D01*
X21929162Y-17107410D01*
X21930016Y-17105349D01*
X21929909Y-17105312D01*
X21933590Y-17094787D01*
X21933594Y-17094783D01*
X21937387Y-17061102D01*
X21938315Y-17055650D01*
X21940376Y-17046625D01*
X21940376Y-17037372D01*
X21940687Y-17031826D01*
X21941283Y-17026535D01*
X21944480Y-16998162D01*
X21944478Y-16998158D01*
X21943231Y-16987075D01*
X21943340Y-16987062D01*
X21940376Y-16969612D01*
X21940376Y-15250000D01*
X23119819Y-15250000D01*
X23138426Y-15367481D01*
X23138428Y-15367488D01*
X23192425Y-15473462D01*
X23192427Y-15473465D01*
X23276535Y-15557573D01*
X23276537Y-15557574D01*
X23382511Y-15611571D01*
X23382513Y-15611571D01*
X23382518Y-15611574D01*
X23500000Y-15630181D01*
X23617482Y-15611574D01*
X23723465Y-15557573D01*
X23807573Y-15473465D01*
X23861574Y-15367482D01*
X23880181Y-15250000D01*
X23861574Y-15132518D01*
X23861571Y-15132513D01*
X23861571Y-15132511D01*
X23807574Y-15026537D01*
X23807573Y-15026535D01*
X23781038Y-15000000D01*
X24869819Y-15000000D01*
X24879381Y-15060376D01*
X24888426Y-15117481D01*
X24888428Y-15117488D01*
X24926548Y-15192301D01*
X24942427Y-15223465D01*
X25026535Y-15307573D01*
X25026537Y-15307574D01*
X25132511Y-15361571D01*
X25132513Y-15361571D01*
X25132518Y-15361574D01*
X25250000Y-15380181D01*
X25367482Y-15361574D01*
X25473465Y-15307573D01*
X25531038Y-15250000D01*
X28119819Y-15250000D01*
X28138426Y-15367481D01*
X28138428Y-15367488D01*
X28192425Y-15473462D01*
X28192427Y-15473465D01*
X28276535Y-15557573D01*
X28276537Y-15557574D01*
X28382511Y-15611571D01*
X28382513Y-15611571D01*
X28382518Y-15611574D01*
X28481665Y-15627277D01*
X28499999Y-15630181D01*
X28499999Y-15630180D01*
X28500000Y-15630181D01*
X28518331Y-15627277D01*
X28578763Y-15636845D01*
X28603826Y-15655053D01*
X29902665Y-16953892D01*
X29930442Y-17008409D01*
X29920871Y-17068841D01*
X29888426Y-17132516D01*
X29888426Y-17132518D01*
X29869819Y-17249999D01*
X29869819Y-17250000D01*
X29888426Y-17367481D01*
X29888428Y-17367488D01*
X29926611Y-17442425D01*
X29942427Y-17473465D01*
X30026535Y-17557573D01*
X30026537Y-17557574D01*
X30132511Y-17611571D01*
X30132513Y-17611571D01*
X30132518Y-17611574D01*
X30250000Y-17630181D01*
X30367482Y-17611574D01*
X30473465Y-17557573D01*
X30557573Y-17473465D01*
X30611574Y-17367482D01*
X30630181Y-17250000D01*
X30611574Y-17132518D01*
X30611571Y-17132513D01*
X30611571Y-17132511D01*
X30557574Y-17026537D01*
X30557573Y-17026535D01*
X30473465Y-16942427D01*
X30473462Y-16942425D01*
X30468580Y-16937543D01*
X30449386Y-16910489D01*
X30446842Y-16905208D01*
X30446842Y-16905206D01*
X30425717Y-16878717D01*
X30422515Y-16874204D01*
X30417585Y-16866358D01*
X30417582Y-16866355D01*
X30411039Y-16859811D01*
X30407340Y-16855671D01*
X30386219Y-16829187D01*
X30377499Y-16822233D01*
X30377567Y-16822147D01*
X30363128Y-16811901D01*
X28905053Y-15353826D01*
X28877276Y-15299309D01*
X28877276Y-15268333D01*
X28880181Y-15250000D01*
X31119819Y-15250000D01*
X31138426Y-15367481D01*
X31138428Y-15367488D01*
X31192425Y-15473462D01*
X31192427Y-15473465D01*
X31276535Y-15557573D01*
X31276537Y-15557574D01*
X31382511Y-15611571D01*
X31382513Y-15611571D01*
X31382518Y-15611574D01*
X31500000Y-15630181D01*
X31617482Y-15611574D01*
X31723465Y-15557573D01*
X31807573Y-15473465D01*
X31838773Y-15412232D01*
X32205690Y-15412232D01*
X32235917Y-15557698D01*
X32235919Y-15557706D01*
X32304274Y-15689623D01*
X32304276Y-15689626D01*
X32405690Y-15798214D01*
X32532640Y-15875414D01*
X32675710Y-15915500D01*
X32675711Y-15915500D01*
X32786968Y-15915500D01*
X32786974Y-15915500D01*
X32897196Y-15900350D01*
X33033476Y-15841156D01*
X33148731Y-15747389D01*
X33234414Y-15626003D01*
X33284171Y-15486002D01*
X33294310Y-15337768D01*
X33288035Y-15307573D01*
X33264082Y-15192301D01*
X33264080Y-15192293D01*
X33195725Y-15060376D01*
X33195723Y-15060373D01*
X33094311Y-14951787D01*
X33094310Y-14951786D01*
X32967360Y-14874586D01*
X32967359Y-14874585D01*
X32967358Y-14874585D01*
X32824290Y-14834500D01*
X32713026Y-14834500D01*
X32602805Y-14849649D01*
X32602801Y-14849650D01*
X32466524Y-14908843D01*
X32466522Y-14908844D01*
X32351268Y-15002610D01*
X32265587Y-15123995D01*
X32215828Y-15263997D01*
X32205690Y-15412232D01*
X31838773Y-15412232D01*
X31861574Y-15367482D01*
X31880181Y-15250000D01*
X31861574Y-15132518D01*
X31861571Y-15132513D01*
X31861571Y-15132511D01*
X31807574Y-15026537D01*
X31807573Y-15026535D01*
X31723465Y-14942427D01*
X31723462Y-14942425D01*
X31617488Y-14888428D01*
X31617483Y-14888426D01*
X31617482Y-14888426D01*
X31500000Y-14869819D01*
X31382518Y-14888426D01*
X31382511Y-14888428D01*
X31276537Y-14942425D01*
X31192425Y-15026537D01*
X31138428Y-15132511D01*
X31138426Y-15132518D01*
X31119819Y-15249999D01*
X31119819Y-15250000D01*
X28880181Y-15250000D01*
X28861574Y-15132518D01*
X28861571Y-15132513D01*
X28861571Y-15132511D01*
X28807574Y-15026537D01*
X28807573Y-15026535D01*
X28723465Y-14942427D01*
X28723462Y-14942425D01*
X28617488Y-14888428D01*
X28617483Y-14888426D01*
X28617482Y-14888426D01*
X28500000Y-14869819D01*
X28382518Y-14888426D01*
X28382511Y-14888428D01*
X28276537Y-14942425D01*
X28192425Y-15026537D01*
X28138428Y-15132511D01*
X28138426Y-15132518D01*
X28119819Y-15249999D01*
X28119819Y-15250000D01*
X25531038Y-15250000D01*
X25557573Y-15223465D01*
X25611574Y-15117482D01*
X25630181Y-15000000D01*
X25611574Y-14882518D01*
X25611571Y-14882513D01*
X25611571Y-14882511D01*
X25557574Y-14776537D01*
X25557573Y-14776535D01*
X25473465Y-14692427D01*
X25473462Y-14692425D01*
X25367488Y-14638428D01*
X25367483Y-14638426D01*
X25367482Y-14638426D01*
X25250000Y-14619819D01*
X25132518Y-14638426D01*
X25132511Y-14638428D01*
X25026537Y-14692425D01*
X24942425Y-14776537D01*
X24888428Y-14882511D01*
X24888426Y-14882518D01*
X24878938Y-14942427D01*
X24869819Y-15000000D01*
X23781038Y-15000000D01*
X23723465Y-14942427D01*
X23723462Y-14942425D01*
X23617488Y-14888428D01*
X23617483Y-14888426D01*
X23617482Y-14888426D01*
X23500000Y-14869819D01*
X23382518Y-14888426D01*
X23382511Y-14888428D01*
X23276537Y-14942425D01*
X23192425Y-15026537D01*
X23138428Y-15132511D01*
X23138426Y-15132518D01*
X23119819Y-15249999D01*
X23119819Y-15250000D01*
X21940376Y-15250000D01*
X21940376Y-14000000D01*
X23119819Y-14000000D01*
X23138426Y-14117481D01*
X23138428Y-14117488D01*
X23192425Y-14223462D01*
X23192427Y-14223465D01*
X23276535Y-14307573D01*
X23276537Y-14307574D01*
X23382511Y-14361571D01*
X23382513Y-14361571D01*
X23382518Y-14361574D01*
X23500000Y-14380181D01*
X23617482Y-14361574D01*
X23723465Y-14307573D01*
X23807573Y-14223465D01*
X23861574Y-14117482D01*
X23880181Y-14000000D01*
X28119819Y-14000000D01*
X28138426Y-14117481D01*
X28138428Y-14117488D01*
X28192425Y-14223462D01*
X28192427Y-14223465D01*
X28276535Y-14307573D01*
X28276537Y-14307574D01*
X28382511Y-14361571D01*
X28382513Y-14361571D01*
X28382518Y-14361574D01*
X28500000Y-14380181D01*
X28617482Y-14361574D01*
X28723465Y-14307573D01*
X28807573Y-14223465D01*
X28861574Y-14117482D01*
X28880181Y-14000000D01*
X28861574Y-13882518D01*
X28861571Y-13882513D01*
X28861571Y-13882511D01*
X28807574Y-13776537D01*
X28807573Y-13776535D01*
X28723465Y-13692427D01*
X28723462Y-13692425D01*
X28617488Y-13638428D01*
X28617483Y-13638426D01*
X28617482Y-13638426D01*
X28500000Y-13619819D01*
X28382518Y-13638426D01*
X28382511Y-13638428D01*
X28276537Y-13692425D01*
X28192425Y-13776537D01*
X28138428Y-13882511D01*
X28138426Y-13882518D01*
X28119819Y-13999999D01*
X28119819Y-14000000D01*
X23880181Y-14000000D01*
X23861574Y-13882518D01*
X23861571Y-13882513D01*
X23861571Y-13882511D01*
X23807574Y-13776537D01*
X23807573Y-13776535D01*
X23723465Y-13692427D01*
X23723462Y-13692425D01*
X23617488Y-13638428D01*
X23617483Y-13638426D01*
X23617482Y-13638426D01*
X23500000Y-13619819D01*
X23382518Y-13638426D01*
X23382511Y-13638428D01*
X23276537Y-13692425D01*
X23192425Y-13776537D01*
X23138428Y-13882511D01*
X23138426Y-13882518D01*
X23119819Y-13999999D01*
X23119819Y-14000000D01*
X21940376Y-14000000D01*
X21940376Y-13609045D01*
X21959283Y-13550854D01*
X21969366Y-13539047D01*
X22034949Y-13473465D01*
X22088950Y-13367482D01*
X22107557Y-13250000D01*
X22088950Y-13132518D01*
X22088947Y-13132513D01*
X22088947Y-13132511D01*
X22034950Y-13026537D01*
X22034949Y-13026535D01*
X21950841Y-12942427D01*
X21950838Y-12942425D01*
X21844864Y-12888428D01*
X21844859Y-12888426D01*
X21844858Y-12888426D01*
X21727376Y-12869819D01*
X21609894Y-12888426D01*
X21609887Y-12888428D01*
X21503913Y-12942425D01*
X21419801Y-13026537D01*
X21365804Y-13132511D01*
X21365802Y-13132518D01*
X21347195Y-13249999D01*
X21347195Y-13250000D01*
X21365802Y-13367481D01*
X21365804Y-13367488D01*
X21419801Y-13473462D01*
X21419803Y-13473465D01*
X21485381Y-13539043D01*
X21513157Y-13593558D01*
X21514376Y-13609045D01*
X21514376Y-13770044D01*
X21495469Y-13828235D01*
X21445969Y-13864199D01*
X21384783Y-13864199D01*
X21335283Y-13828235D01*
X21327167Y-13814990D01*
X21307574Y-13776537D01*
X21307573Y-13776535D01*
X21223465Y-13692427D01*
X21223462Y-13692425D01*
X21117488Y-13638428D01*
X21117483Y-13638426D01*
X21117482Y-13638426D01*
X21000000Y-13619819D01*
X20882518Y-13638426D01*
X20882511Y-13638428D01*
X20776537Y-13692425D01*
X20692425Y-13776537D01*
X20638428Y-13882511D01*
X20638426Y-13882518D01*
X20619819Y-13999999D01*
X20619819Y-14000000D01*
X20638426Y-14117481D01*
X20638428Y-14117488D01*
X20692425Y-14223462D01*
X20692427Y-14223465D01*
X20776535Y-14307573D01*
X20776537Y-14307574D01*
X20882511Y-14361571D01*
X20882513Y-14361571D01*
X20882518Y-14361574D01*
X21000000Y-14380181D01*
X21117482Y-14361574D01*
X21223465Y-14307573D01*
X21307573Y-14223465D01*
X21327167Y-14185008D01*
X21370431Y-14141745D01*
X21430863Y-14132174D01*
X21485380Y-14159952D01*
X21513157Y-14214468D01*
X21514376Y-14229955D01*
X21514376Y-15020044D01*
X21495469Y-15078235D01*
X21445969Y-15114199D01*
X21384783Y-15114199D01*
X21335283Y-15078235D01*
X21327167Y-15064990D01*
X21307574Y-15026537D01*
X21307573Y-15026535D01*
X21223465Y-14942427D01*
X21223462Y-14942425D01*
X21117488Y-14888428D01*
X21117483Y-14888426D01*
X21117482Y-14888426D01*
X21000000Y-14869819D01*
X20882518Y-14888426D01*
X20882511Y-14888428D01*
X20776537Y-14942425D01*
X20692425Y-15026537D01*
X20638428Y-15132511D01*
X20638426Y-15132518D01*
X20619819Y-15249999D01*
X20619819Y-15250000D01*
X20638426Y-15367481D01*
X20638428Y-15367488D01*
X20692425Y-15473462D01*
X20692427Y-15473465D01*
X20776535Y-15557573D01*
X20776537Y-15557574D01*
X20882511Y-15611571D01*
X20882513Y-15611571D01*
X20882518Y-15611574D01*
X21000000Y-15630181D01*
X21117482Y-15611574D01*
X21223465Y-15557573D01*
X21307573Y-15473465D01*
X21327167Y-15435008D01*
X21370431Y-15391745D01*
X21430863Y-15382174D01*
X21485380Y-15409952D01*
X21513157Y-15464468D01*
X21514376Y-15479955D01*
X21514376Y-16893389D01*
X21495469Y-16951580D01*
X21485380Y-16963392D01*
X21103825Y-17344946D01*
X21049310Y-17372723D01*
X21018336Y-17372723D01*
X21000001Y-17369819D01*
X21000000Y-17369819D01*
X20882518Y-17388426D01*
X20882511Y-17388428D01*
X20776537Y-17442425D01*
X20692425Y-17526537D01*
X20638428Y-17632511D01*
X20638426Y-17632518D01*
X20619819Y-17749999D01*
X20619819Y-17750000D01*
X19440376Y-17750000D01*
X19440376Y-13609045D01*
X19459283Y-13550854D01*
X19469366Y-13539047D01*
X19534949Y-13473465D01*
X19588950Y-13367482D01*
X19607557Y-13250000D01*
X19588950Y-13132518D01*
X19588947Y-13132513D01*
X19588947Y-13132511D01*
X19534950Y-13026537D01*
X19534949Y-13026535D01*
X19450841Y-12942427D01*
X19450838Y-12942425D01*
X19344864Y-12888428D01*
X19344859Y-12888426D01*
X19344858Y-12888426D01*
X19227376Y-12869819D01*
X19109894Y-12888426D01*
X19109887Y-12888428D01*
X19003913Y-12942425D01*
X18919801Y-13026537D01*
X18865804Y-13132511D01*
X18865802Y-13132518D01*
X18847195Y-13249999D01*
X18847195Y-13250000D01*
X18865802Y-13367481D01*
X18865804Y-13367488D01*
X18919801Y-13473462D01*
X18919803Y-13473465D01*
X18985381Y-13539043D01*
X19013157Y-13593558D01*
X19014376Y-13609045D01*
X19014376Y-13770044D01*
X18995469Y-13828235D01*
X18945969Y-13864199D01*
X18884783Y-13864199D01*
X18835283Y-13828235D01*
X18827167Y-13814990D01*
X18807574Y-13776537D01*
X18807573Y-13776535D01*
X18723465Y-13692427D01*
X18723462Y-13692425D01*
X18617488Y-13638428D01*
X18617483Y-13638426D01*
X18617482Y-13638426D01*
X18500000Y-13619819D01*
X18382518Y-13638426D01*
X18382511Y-13638428D01*
X18276537Y-13692425D01*
X18192425Y-13776537D01*
X18138428Y-13882511D01*
X18138426Y-13882518D01*
X18119819Y-13999999D01*
X18119819Y-14000000D01*
X18138426Y-14117481D01*
X18138428Y-14117488D01*
X18192425Y-14223462D01*
X18192427Y-14223465D01*
X18276535Y-14307573D01*
X18276537Y-14307574D01*
X18382511Y-14361571D01*
X18382513Y-14361571D01*
X18382518Y-14361574D01*
X18500000Y-14380181D01*
X18617482Y-14361574D01*
X18723465Y-14307573D01*
X18807573Y-14223465D01*
X18827167Y-14185008D01*
X18870431Y-14141745D01*
X18930863Y-14132174D01*
X18985380Y-14159952D01*
X19013157Y-14214468D01*
X19014376Y-14229955D01*
X19014376Y-15020044D01*
X18995469Y-15078235D01*
X18945969Y-15114199D01*
X18884783Y-15114199D01*
X18835283Y-15078235D01*
X18827167Y-15064990D01*
X18807574Y-15026537D01*
X18807573Y-15026535D01*
X18723465Y-14942427D01*
X18723462Y-14942425D01*
X18617488Y-14888428D01*
X18617483Y-14888426D01*
X18617482Y-14888426D01*
X18500000Y-14869819D01*
X18382518Y-14888426D01*
X18382511Y-14888428D01*
X18276537Y-14942425D01*
X18192425Y-15026537D01*
X18138428Y-15132511D01*
X18138426Y-15132518D01*
X18119819Y-15249999D01*
X18119819Y-15250000D01*
X18138426Y-15367481D01*
X18138428Y-15367488D01*
X18192425Y-15473462D01*
X18192427Y-15473465D01*
X18276535Y-15557573D01*
X18276537Y-15557574D01*
X18382511Y-15611571D01*
X18382513Y-15611571D01*
X18382518Y-15611574D01*
X18500000Y-15630181D01*
X18617482Y-15611574D01*
X18723465Y-15557573D01*
X18807573Y-15473465D01*
X18827167Y-15435008D01*
X18870431Y-15391745D01*
X18930863Y-15382174D01*
X18985380Y-15409952D01*
X19013157Y-15464468D01*
X19014376Y-15479955D01*
X19014376Y-17520044D01*
X18995469Y-17578235D01*
X18945969Y-17614199D01*
X18884783Y-17614199D01*
X18835283Y-17578235D01*
X18827167Y-17564990D01*
X18807574Y-17526537D01*
X18807573Y-17526535D01*
X18723465Y-17442427D01*
X18723462Y-17442425D01*
X18617488Y-17388428D01*
X18617483Y-17388426D01*
X18617482Y-17388426D01*
X18500000Y-17369819D01*
X18382518Y-17388426D01*
X18382511Y-17388428D01*
X18276537Y-17442425D01*
X18192425Y-17526537D01*
X18138428Y-17632511D01*
X18138426Y-17632518D01*
X18119819Y-17749999D01*
X18119819Y-17750000D01*
X18138426Y-17867481D01*
X18138428Y-17867488D01*
X18192425Y-17973462D01*
X18192427Y-17973465D01*
X18276535Y-18057573D01*
X18276537Y-18057574D01*
X18382511Y-18111571D01*
X18382513Y-18111571D01*
X18382518Y-18111574D01*
X18500000Y-18130181D01*
X18617482Y-18111574D01*
X18723465Y-18057573D01*
X18807573Y-17973465D01*
X18827167Y-17935008D01*
X18870431Y-17891745D01*
X18930863Y-17882174D01*
X18985380Y-17909952D01*
X19013157Y-17964468D01*
X19014376Y-17979955D01*
X19014376Y-19393389D01*
X18995469Y-19451580D01*
X18985380Y-19463392D01*
X18603825Y-19844946D01*
X18549310Y-19872723D01*
X18518336Y-19872723D01*
X18500001Y-19869819D01*
X18500000Y-19869819D01*
X18382518Y-19888426D01*
X18382511Y-19888428D01*
X18276537Y-19942425D01*
X18192425Y-20026537D01*
X18138428Y-20132511D01*
X18138426Y-20132518D01*
X18119819Y-20249999D01*
X18119819Y-20250000D01*
X16940376Y-20250000D01*
X16940376Y-13609045D01*
X16959283Y-13550854D01*
X16969366Y-13539047D01*
X17034949Y-13473465D01*
X17088950Y-13367482D01*
X17107557Y-13250000D01*
X17088950Y-13132518D01*
X17088947Y-13132513D01*
X17088947Y-13132511D01*
X17034950Y-13026537D01*
X17034949Y-13026535D01*
X16950841Y-12942427D01*
X16950838Y-12942425D01*
X16844864Y-12888428D01*
X16844859Y-12888426D01*
X16844858Y-12888426D01*
X16727376Y-12869819D01*
X16609894Y-12888426D01*
X16609887Y-12888428D01*
X16503913Y-12942425D01*
X16419801Y-13026537D01*
X16365804Y-13132511D01*
X16365802Y-13132518D01*
X16347195Y-13249999D01*
X16347195Y-13250000D01*
X16365802Y-13367481D01*
X16365804Y-13367488D01*
X16419801Y-13473462D01*
X16419803Y-13473465D01*
X16485381Y-13539043D01*
X16513157Y-13593558D01*
X16514376Y-13609045D01*
X16514376Y-13770044D01*
X16495469Y-13828235D01*
X16445969Y-13864199D01*
X16384783Y-13864199D01*
X16335283Y-13828235D01*
X16327167Y-13814990D01*
X16307574Y-13776537D01*
X16307573Y-13776535D01*
X16223465Y-13692427D01*
X16223462Y-13692425D01*
X16117488Y-13638428D01*
X16117483Y-13638426D01*
X16117482Y-13638426D01*
X16000000Y-13619819D01*
X15882518Y-13638426D01*
X15882511Y-13638428D01*
X15776537Y-13692425D01*
X15692425Y-13776537D01*
X15638428Y-13882511D01*
X15638426Y-13882518D01*
X15619819Y-13999999D01*
X15619819Y-14000000D01*
X15638426Y-14117481D01*
X15638428Y-14117488D01*
X15692425Y-14223462D01*
X15692427Y-14223465D01*
X15776535Y-14307573D01*
X15776537Y-14307574D01*
X15882511Y-14361571D01*
X15882513Y-14361571D01*
X15882518Y-14361574D01*
X16000000Y-14380181D01*
X16117482Y-14361574D01*
X16223465Y-14307573D01*
X16307573Y-14223465D01*
X16327167Y-14185008D01*
X16370431Y-14141745D01*
X16430863Y-14132174D01*
X16485380Y-14159952D01*
X16513157Y-14214468D01*
X16514376Y-14229955D01*
X16514376Y-15020044D01*
X16495469Y-15078235D01*
X16445969Y-15114199D01*
X16384783Y-15114199D01*
X16335283Y-15078235D01*
X16327167Y-15064990D01*
X16307574Y-15026537D01*
X16307573Y-15026535D01*
X16223465Y-14942427D01*
X16223462Y-14942425D01*
X16117488Y-14888428D01*
X16117483Y-14888426D01*
X16117482Y-14888426D01*
X16000000Y-14869819D01*
X15882518Y-14888426D01*
X15882511Y-14888428D01*
X15776537Y-14942425D01*
X15692425Y-15026537D01*
X15638428Y-15132511D01*
X15638426Y-15132518D01*
X15619819Y-15249999D01*
X15619819Y-15250000D01*
X15638426Y-15367481D01*
X15638428Y-15367488D01*
X15692425Y-15473462D01*
X15692427Y-15473465D01*
X15776535Y-15557573D01*
X15776537Y-15557574D01*
X15882511Y-15611571D01*
X15882513Y-15611571D01*
X15882518Y-15611574D01*
X16000000Y-15630181D01*
X16117482Y-15611574D01*
X16223465Y-15557573D01*
X16307573Y-15473465D01*
X16327167Y-15435008D01*
X16370431Y-15391745D01*
X16430863Y-15382174D01*
X16485380Y-15409952D01*
X16513157Y-15464468D01*
X16514376Y-15479955D01*
X16514376Y-17520044D01*
X16495469Y-17578235D01*
X16445969Y-17614199D01*
X16384783Y-17614199D01*
X16335283Y-17578235D01*
X16327167Y-17564990D01*
X16307574Y-17526537D01*
X16307573Y-17526535D01*
X16223465Y-17442427D01*
X16223462Y-17442425D01*
X16117488Y-17388428D01*
X16117483Y-17388426D01*
X16117482Y-17388426D01*
X16000000Y-17369819D01*
X15882518Y-17388426D01*
X15882511Y-17388428D01*
X15776537Y-17442425D01*
X15692425Y-17526537D01*
X15638428Y-17632511D01*
X15638426Y-17632518D01*
X15619819Y-17749999D01*
X15619819Y-17750000D01*
X15638426Y-17867481D01*
X15638428Y-17867488D01*
X15692425Y-17973462D01*
X15692427Y-17973465D01*
X15776535Y-18057573D01*
X15776537Y-18057574D01*
X15882511Y-18111571D01*
X15882513Y-18111571D01*
X15882518Y-18111574D01*
X16000000Y-18130181D01*
X16117482Y-18111574D01*
X16223465Y-18057573D01*
X16307573Y-17973465D01*
X16327167Y-17935008D01*
X16370431Y-17891745D01*
X16430863Y-17882174D01*
X16485380Y-17909952D01*
X16513157Y-17964468D01*
X16514376Y-17979955D01*
X16514376Y-20020044D01*
X16495469Y-20078235D01*
X16445969Y-20114199D01*
X16384783Y-20114199D01*
X16335283Y-20078235D01*
X16327167Y-20064990D01*
X16307574Y-20026537D01*
X16307573Y-20026535D01*
X16223465Y-19942427D01*
X16223462Y-19942425D01*
X16117488Y-19888428D01*
X16117483Y-19888426D01*
X16117482Y-19888426D01*
X16000000Y-19869819D01*
X15882518Y-19888426D01*
X15882511Y-19888428D01*
X15776537Y-19942425D01*
X15692425Y-20026537D01*
X15638428Y-20132511D01*
X15638426Y-20132518D01*
X15619819Y-20249999D01*
X15619819Y-20250000D01*
X15638426Y-20367481D01*
X15638428Y-20367488D01*
X15692425Y-20473462D01*
X15692427Y-20473465D01*
X15776535Y-20557573D01*
X15776537Y-20557574D01*
X15882511Y-20611571D01*
X15882513Y-20611571D01*
X15882518Y-20611574D01*
X16000000Y-20630181D01*
X16117482Y-20611574D01*
X16223465Y-20557573D01*
X16307573Y-20473465D01*
X16327167Y-20435008D01*
X16370431Y-20391745D01*
X16430863Y-20382174D01*
X16485380Y-20409952D01*
X16513157Y-20464468D01*
X16514376Y-20479955D01*
X16514376Y-21893389D01*
X16495469Y-21951580D01*
X16485380Y-21963392D01*
X16103825Y-22344946D01*
X16049310Y-22372723D01*
X16018336Y-22372723D01*
X16000001Y-22369819D01*
X16000000Y-22369819D01*
X15882518Y-22388426D01*
X15882511Y-22388428D01*
X15776537Y-22442425D01*
X15692425Y-22526537D01*
X15638428Y-22632511D01*
X15638426Y-22632518D01*
X15619819Y-22749999D01*
X15619819Y-22750000D01*
X14440376Y-22750000D01*
X14440376Y-13609045D01*
X14459283Y-13550854D01*
X14469366Y-13539047D01*
X14534949Y-13473465D01*
X14588950Y-13367482D01*
X14607557Y-13250000D01*
X14588950Y-13132518D01*
X14588947Y-13132513D01*
X14588947Y-13132511D01*
X14534950Y-13026537D01*
X14534949Y-13026535D01*
X14450841Y-12942427D01*
X14450838Y-12942425D01*
X14344864Y-12888428D01*
X14344859Y-12888426D01*
X14344858Y-12888426D01*
X14227376Y-12869819D01*
X14109894Y-12888426D01*
X14109887Y-12888428D01*
X14003913Y-12942425D01*
X13919801Y-13026537D01*
X13865804Y-13132511D01*
X13865802Y-13132518D01*
X13847195Y-13249999D01*
X13847195Y-13250000D01*
X13865802Y-13367481D01*
X13865804Y-13367488D01*
X13919801Y-13473462D01*
X13919803Y-13473465D01*
X13985381Y-13539043D01*
X14013157Y-13593558D01*
X14014376Y-13609045D01*
X14014376Y-13770044D01*
X13995469Y-13828235D01*
X13945969Y-13864199D01*
X13884783Y-13864199D01*
X13835283Y-13828235D01*
X13827167Y-13814990D01*
X13807574Y-13776537D01*
X13807573Y-13776535D01*
X13723465Y-13692427D01*
X13723462Y-13692425D01*
X13617488Y-13638428D01*
X13617483Y-13638426D01*
X13617482Y-13638426D01*
X13500000Y-13619819D01*
X13382518Y-13638426D01*
X13382511Y-13638428D01*
X13276537Y-13692425D01*
X13192425Y-13776537D01*
X13138428Y-13882511D01*
X13138426Y-13882518D01*
X13119819Y-13999999D01*
X13119819Y-14000000D01*
X13138426Y-14117481D01*
X13138428Y-14117488D01*
X13192425Y-14223462D01*
X13192427Y-14223465D01*
X13276535Y-14307573D01*
X13276537Y-14307574D01*
X13382511Y-14361571D01*
X13382513Y-14361571D01*
X13382518Y-14361574D01*
X13500000Y-14380181D01*
X13617482Y-14361574D01*
X13723465Y-14307573D01*
X13807573Y-14223465D01*
X13827167Y-14185008D01*
X13870431Y-14141745D01*
X13930863Y-14132174D01*
X13985380Y-14159952D01*
X14013157Y-14214468D01*
X14014376Y-14229955D01*
X14014376Y-15020044D01*
X13995469Y-15078235D01*
X13945969Y-15114199D01*
X13884783Y-15114199D01*
X13835283Y-15078235D01*
X13827167Y-15064990D01*
X13807574Y-15026537D01*
X13807573Y-15026535D01*
X13723465Y-14942427D01*
X13723462Y-14942425D01*
X13617488Y-14888428D01*
X13617483Y-14888426D01*
X13617482Y-14888426D01*
X13500000Y-14869819D01*
X13382518Y-14888426D01*
X13382511Y-14888428D01*
X13276537Y-14942425D01*
X13192425Y-15026537D01*
X13138428Y-15132511D01*
X13138426Y-15132518D01*
X13119819Y-15249999D01*
X13119819Y-15250000D01*
X13138426Y-15367481D01*
X13138428Y-15367488D01*
X13192425Y-15473462D01*
X13192427Y-15473465D01*
X13276535Y-15557573D01*
X13276537Y-15557574D01*
X13382511Y-15611571D01*
X13382513Y-15611571D01*
X13382518Y-15611574D01*
X13500000Y-15630181D01*
X13617482Y-15611574D01*
X13723465Y-15557573D01*
X13807573Y-15473465D01*
X13827167Y-15435008D01*
X13870431Y-15391745D01*
X13930863Y-15382174D01*
X13985380Y-15409952D01*
X14013157Y-15464468D01*
X14014376Y-15479955D01*
X14014376Y-17520044D01*
X13995469Y-17578235D01*
X13945969Y-17614199D01*
X13884783Y-17614199D01*
X13835283Y-17578235D01*
X13827167Y-17564990D01*
X13807574Y-17526537D01*
X13807573Y-17526535D01*
X13723465Y-17442427D01*
X13723462Y-17442425D01*
X13617488Y-17388428D01*
X13617483Y-17388426D01*
X13617482Y-17388426D01*
X13500000Y-17369819D01*
X13382518Y-17388426D01*
X13382511Y-17388428D01*
X13276537Y-17442425D01*
X13192425Y-17526537D01*
X13138428Y-17632511D01*
X13138426Y-17632518D01*
X13119819Y-17749999D01*
X13119819Y-17750000D01*
X13138426Y-17867481D01*
X13138428Y-17867488D01*
X13192425Y-17973462D01*
X13192427Y-17973465D01*
X13276535Y-18057573D01*
X13276537Y-18057574D01*
X13382511Y-18111571D01*
X13382513Y-18111571D01*
X13382518Y-18111574D01*
X13500000Y-18130181D01*
X13617482Y-18111574D01*
X13723465Y-18057573D01*
X13807573Y-17973465D01*
X13827167Y-17935008D01*
X13870431Y-17891745D01*
X13930863Y-17882174D01*
X13985380Y-17909952D01*
X14013157Y-17964468D01*
X14014376Y-17979955D01*
X14014376Y-20020044D01*
X13995469Y-20078235D01*
X13945969Y-20114199D01*
X13884783Y-20114199D01*
X13835283Y-20078235D01*
X13827167Y-20064990D01*
X13807574Y-20026537D01*
X13807573Y-20026535D01*
X13723465Y-19942427D01*
X13723462Y-19942425D01*
X13617488Y-19888428D01*
X13617483Y-19888426D01*
X13617482Y-19888426D01*
X13500000Y-19869819D01*
X13382518Y-19888426D01*
X13382511Y-19888428D01*
X13276537Y-19942425D01*
X13192425Y-20026537D01*
X13138428Y-20132511D01*
X13138426Y-20132518D01*
X13119819Y-20249999D01*
X13119819Y-20250000D01*
X13138426Y-20367481D01*
X13138428Y-20367488D01*
X13192425Y-20473462D01*
X13192427Y-20473465D01*
X13276535Y-20557573D01*
X13276537Y-20557574D01*
X13382511Y-20611571D01*
X13382513Y-20611571D01*
X13382518Y-20611574D01*
X13500000Y-20630181D01*
X13617482Y-20611574D01*
X13723465Y-20557573D01*
X13807573Y-20473465D01*
X13827167Y-20435008D01*
X13870431Y-20391745D01*
X13930863Y-20382174D01*
X13985380Y-20409952D01*
X14013157Y-20464468D01*
X14014376Y-20479955D01*
X14014376Y-22520044D01*
X13995469Y-22578235D01*
X13945969Y-22614199D01*
X13884783Y-22614199D01*
X13835283Y-22578235D01*
X13827167Y-22564990D01*
X13807574Y-22526537D01*
X13807573Y-22526535D01*
X13723465Y-22442427D01*
X13723462Y-22442425D01*
X13617488Y-22388428D01*
X13617483Y-22388426D01*
X13617482Y-22388426D01*
X13500000Y-22369819D01*
X13382518Y-22388426D01*
X13382511Y-22388428D01*
X13276537Y-22442425D01*
X13192425Y-22526537D01*
X13138428Y-22632511D01*
X13138426Y-22632518D01*
X13119819Y-22749999D01*
X13119819Y-22750000D01*
X13138426Y-22867481D01*
X13138428Y-22867488D01*
X13192425Y-22973462D01*
X13192427Y-22973465D01*
X13276535Y-23057573D01*
X13276537Y-23057574D01*
X13382511Y-23111571D01*
X13382513Y-23111571D01*
X13382518Y-23111574D01*
X13500000Y-23130181D01*
X13617482Y-23111574D01*
X13723465Y-23057573D01*
X13807573Y-22973465D01*
X13827167Y-22935008D01*
X13870431Y-22891745D01*
X13930863Y-22882174D01*
X13985380Y-22909952D01*
X14013157Y-22964468D01*
X14014376Y-22979955D01*
X14014376Y-24393389D01*
X13995469Y-24451580D01*
X13985380Y-24463392D01*
X13603825Y-24844946D01*
X13549310Y-24872723D01*
X13518336Y-24872723D01*
X13500001Y-24869819D01*
X13500000Y-24869819D01*
X13382518Y-24888426D01*
X13382511Y-24888428D01*
X13276537Y-24942425D01*
X13192425Y-25026537D01*
X13138428Y-25132511D01*
X13138426Y-25132518D01*
X13119819Y-25249999D01*
X13119819Y-25250000D01*
X11940376Y-25250000D01*
X11940376Y-13609045D01*
X11959283Y-13550854D01*
X11969366Y-13539047D01*
X12034949Y-13473465D01*
X12088950Y-13367482D01*
X12107557Y-13250000D01*
X12088950Y-13132518D01*
X12088947Y-13132513D01*
X12088947Y-13132511D01*
X12034950Y-13026537D01*
X12034949Y-13026535D01*
X11950841Y-12942427D01*
X11950838Y-12942425D01*
X11844864Y-12888428D01*
X11844859Y-12888426D01*
X11844858Y-12888426D01*
X11727376Y-12869819D01*
X11609894Y-12888426D01*
X11609887Y-12888428D01*
X11503913Y-12942425D01*
X11419801Y-13026537D01*
X11365804Y-13132511D01*
X11365802Y-13132518D01*
X11347195Y-13249999D01*
X11347195Y-13250000D01*
X11365802Y-13367481D01*
X11365804Y-13367488D01*
X11419801Y-13473462D01*
X11419803Y-13473465D01*
X11485381Y-13539043D01*
X11513157Y-13593558D01*
X11514376Y-13609045D01*
X11514376Y-13770044D01*
X11495469Y-13828235D01*
X11445969Y-13864199D01*
X11384783Y-13864199D01*
X11335283Y-13828235D01*
X11327167Y-13814990D01*
X11307574Y-13776537D01*
X11307573Y-13776535D01*
X11223465Y-13692427D01*
X11223462Y-13692425D01*
X11117488Y-13638428D01*
X11117483Y-13638426D01*
X11117482Y-13638426D01*
X11000000Y-13619819D01*
X10882518Y-13638426D01*
X10882511Y-13638428D01*
X10776537Y-13692425D01*
X10692425Y-13776537D01*
X10638428Y-13882511D01*
X10638426Y-13882518D01*
X10619819Y-13999999D01*
X10619819Y-14000000D01*
X10638426Y-14117481D01*
X10638428Y-14117488D01*
X10692425Y-14223462D01*
X10692427Y-14223465D01*
X10776535Y-14307573D01*
X10776537Y-14307574D01*
X10882511Y-14361571D01*
X10882513Y-14361571D01*
X10882518Y-14361574D01*
X11000000Y-14380181D01*
X11117482Y-14361574D01*
X11223465Y-14307573D01*
X11307573Y-14223465D01*
X11327167Y-14185008D01*
X11370431Y-14141745D01*
X11430863Y-14132174D01*
X11485380Y-14159952D01*
X11513157Y-14214468D01*
X11514376Y-14229955D01*
X11514376Y-15020044D01*
X11495469Y-15078235D01*
X11445969Y-15114199D01*
X11384783Y-15114199D01*
X11335283Y-15078235D01*
X11327167Y-15064990D01*
X11307574Y-15026537D01*
X11307573Y-15026535D01*
X11223465Y-14942427D01*
X11223462Y-14942425D01*
X11117488Y-14888428D01*
X11117483Y-14888426D01*
X11117482Y-14888426D01*
X11000000Y-14869819D01*
X10882518Y-14888426D01*
X10882511Y-14888428D01*
X10776537Y-14942425D01*
X10692425Y-15026537D01*
X10638428Y-15132511D01*
X10638426Y-15132518D01*
X10619819Y-15249999D01*
X10619819Y-15250000D01*
X10638426Y-15367481D01*
X10638428Y-15367488D01*
X10692425Y-15473462D01*
X10692427Y-15473465D01*
X10776535Y-15557573D01*
X10776537Y-15557574D01*
X10882511Y-15611571D01*
X10882513Y-15611571D01*
X10882518Y-15611574D01*
X11000000Y-15630181D01*
X11117482Y-15611574D01*
X11223465Y-15557573D01*
X11307573Y-15473465D01*
X11327167Y-15435008D01*
X11370431Y-15391745D01*
X11430863Y-15382174D01*
X11485380Y-15409952D01*
X11513157Y-15464468D01*
X11514376Y-15479955D01*
X11514376Y-17520044D01*
X11495469Y-17578235D01*
X11445969Y-17614199D01*
X11384783Y-17614199D01*
X11335283Y-17578235D01*
X11327167Y-17564990D01*
X11307574Y-17526537D01*
X11307573Y-17526535D01*
X11223465Y-17442427D01*
X11223462Y-17442425D01*
X11117488Y-17388428D01*
X11117483Y-17388426D01*
X11117482Y-17388426D01*
X11000000Y-17369819D01*
X10882518Y-17388426D01*
X10882511Y-17388428D01*
X10776537Y-17442425D01*
X10692425Y-17526537D01*
X10638428Y-17632511D01*
X10638426Y-17632518D01*
X10619819Y-17749999D01*
X10619819Y-17750000D01*
X10638426Y-17867481D01*
X10638428Y-17867488D01*
X10692425Y-17973462D01*
X10692427Y-17973465D01*
X10776535Y-18057573D01*
X10776537Y-18057574D01*
X10882511Y-18111571D01*
X10882513Y-18111571D01*
X10882518Y-18111574D01*
X11000000Y-18130181D01*
X11117482Y-18111574D01*
X11223465Y-18057573D01*
X11307573Y-17973465D01*
X11327167Y-17935008D01*
X11370431Y-17891745D01*
X11430863Y-17882174D01*
X11485380Y-17909952D01*
X11513157Y-17964468D01*
X11514376Y-17979955D01*
X11514376Y-20020044D01*
X11495469Y-20078235D01*
X11445969Y-20114199D01*
X11384783Y-20114199D01*
X11335283Y-20078235D01*
X11327167Y-20064990D01*
X11307574Y-20026537D01*
X11307573Y-20026535D01*
X11223465Y-19942427D01*
X11223462Y-19942425D01*
X11117488Y-19888428D01*
X11117483Y-19888426D01*
X11117482Y-19888426D01*
X11000000Y-19869819D01*
X10882518Y-19888426D01*
X10882511Y-19888428D01*
X10776537Y-19942425D01*
X10692425Y-20026537D01*
X10638428Y-20132511D01*
X10638426Y-20132518D01*
X10619819Y-20249999D01*
X10619819Y-20250000D01*
X10638426Y-20367481D01*
X10638428Y-20367488D01*
X10692425Y-20473462D01*
X10692427Y-20473465D01*
X10776535Y-20557573D01*
X10776537Y-20557574D01*
X10882511Y-20611571D01*
X10882513Y-20611571D01*
X10882518Y-20611574D01*
X11000000Y-20630181D01*
X11117482Y-20611574D01*
X11223465Y-20557573D01*
X11307573Y-20473465D01*
X11327167Y-20435008D01*
X11370431Y-20391745D01*
X11430863Y-20382174D01*
X11485380Y-20409952D01*
X11513157Y-20464468D01*
X11514376Y-20479955D01*
X11514376Y-22520044D01*
X11495469Y-22578235D01*
X11445969Y-22614199D01*
X11384783Y-22614199D01*
X11335283Y-22578235D01*
X11327167Y-22564990D01*
X11307574Y-22526537D01*
X11307573Y-22526535D01*
X11223465Y-22442427D01*
X11223462Y-22442425D01*
X11117488Y-22388428D01*
X11117483Y-22388426D01*
X11117482Y-22388426D01*
X11000000Y-22369819D01*
X10882518Y-22388426D01*
X10882511Y-22388428D01*
X10776537Y-22442425D01*
X10692425Y-22526537D01*
X10638428Y-22632511D01*
X10638426Y-22632518D01*
X10619819Y-22749999D01*
X10619819Y-22750000D01*
X10638426Y-22867481D01*
X10638428Y-22867488D01*
X10692425Y-22973462D01*
X10692427Y-22973465D01*
X10776535Y-23057573D01*
X10776537Y-23057574D01*
X10882511Y-23111571D01*
X10882513Y-23111571D01*
X10882518Y-23111574D01*
X11000000Y-23130181D01*
X11117482Y-23111574D01*
X11223465Y-23057573D01*
X11307573Y-22973465D01*
X11327167Y-22935008D01*
X11370431Y-22891745D01*
X11430863Y-22882174D01*
X11485380Y-22909952D01*
X11513157Y-22964468D01*
X11514376Y-22979955D01*
X11514376Y-25020044D01*
X11495469Y-25078235D01*
X11445969Y-25114199D01*
X11384783Y-25114199D01*
X11335283Y-25078235D01*
X11327167Y-25064990D01*
X11307574Y-25026537D01*
X11307573Y-25026535D01*
X11223465Y-24942427D01*
X11223462Y-24942425D01*
X11117488Y-24888428D01*
X11117483Y-24888426D01*
X11117482Y-24888426D01*
X11000000Y-24869819D01*
X10882518Y-24888426D01*
X10882511Y-24888428D01*
X10776537Y-24942425D01*
X10692425Y-25026537D01*
X10638428Y-25132511D01*
X10638426Y-25132518D01*
X10619819Y-25249999D01*
X10619819Y-25250000D01*
X10638426Y-25367481D01*
X10638428Y-25367488D01*
X10692425Y-25473462D01*
X10692427Y-25473465D01*
X10776535Y-25557573D01*
X10776537Y-25557574D01*
X10882511Y-25611571D01*
X10882513Y-25611571D01*
X10882518Y-25611574D01*
X11000000Y-25630181D01*
X11117482Y-25611574D01*
X11223465Y-25557573D01*
X11307573Y-25473465D01*
X11327167Y-25435008D01*
X11370431Y-25391745D01*
X11430863Y-25382174D01*
X11485380Y-25409952D01*
X11513157Y-25464468D01*
X11514376Y-25479955D01*
X11514376Y-26893389D01*
X11495469Y-26951580D01*
X11485380Y-26963392D01*
X11103825Y-27344946D01*
X11049310Y-27372723D01*
X11018336Y-27372723D01*
X11000001Y-27369819D01*
X11000000Y-27369819D01*
X10882518Y-27388426D01*
X10882511Y-27388428D01*
X10776537Y-27442425D01*
X10692425Y-27526537D01*
X10638428Y-27632511D01*
X10638426Y-27632518D01*
X10619819Y-27749999D01*
X10619819Y-27750000D01*
X8880181Y-27750000D01*
X8861574Y-27632518D01*
X8861571Y-27632513D01*
X8861571Y-27632511D01*
X8807574Y-27526537D01*
X8807573Y-27526535D01*
X8723465Y-27442427D01*
X8723462Y-27442425D01*
X8617488Y-27388428D01*
X8617483Y-27388426D01*
X8617482Y-27388426D01*
X8500000Y-27369819D01*
X8382518Y-27388426D01*
X8382511Y-27388428D01*
X8276537Y-27442425D01*
X8192425Y-27526537D01*
X8138428Y-27632511D01*
X8138426Y-27632518D01*
X8119819Y-27749999D01*
X8119819Y-27750000D01*
X6380181Y-27750000D01*
X6361574Y-27632518D01*
X6361571Y-27632513D01*
X6361571Y-27632511D01*
X6307574Y-27526537D01*
X6307573Y-27526535D01*
X6223465Y-27442427D01*
X6223462Y-27442425D01*
X6117488Y-27388428D01*
X6117483Y-27388426D01*
X6117482Y-27388426D01*
X6000000Y-27369819D01*
X5882518Y-27388426D01*
X5882511Y-27388428D01*
X5776537Y-27442425D01*
X5770230Y-27447008D01*
X5768680Y-27444875D01*
X5725172Y-27467032D01*
X5664742Y-27457448D01*
X5621487Y-27414174D01*
X5611925Y-27384736D01*
X5611574Y-27382518D01*
X5611571Y-27382513D01*
X5611571Y-27382511D01*
X5557574Y-27276537D01*
X5557573Y-27276535D01*
X5473465Y-27192427D01*
X5473462Y-27192425D01*
X5367488Y-27138428D01*
X5367483Y-27138426D01*
X5367482Y-27138426D01*
X5250000Y-27119819D01*
X5132518Y-27138426D01*
X5132511Y-27138428D01*
X5026537Y-27192425D01*
X4942425Y-27276537D01*
X4888428Y-27382511D01*
X4888426Y-27382518D01*
X4869819Y-27499999D01*
X4869819Y-27500000D01*
X200500Y-27500000D01*
X200500Y-25250000D01*
X5619819Y-25250000D01*
X5638426Y-25367481D01*
X5638428Y-25367488D01*
X5692425Y-25473462D01*
X5692427Y-25473465D01*
X5776535Y-25557573D01*
X5776537Y-25557574D01*
X5882511Y-25611571D01*
X5882513Y-25611571D01*
X5882518Y-25611574D01*
X6000000Y-25630181D01*
X6117482Y-25611574D01*
X6223465Y-25557573D01*
X6307573Y-25473465D01*
X6361574Y-25367482D01*
X6380181Y-25250000D01*
X8119819Y-25250000D01*
X8138426Y-25367481D01*
X8138428Y-25367488D01*
X8192425Y-25473462D01*
X8192427Y-25473465D01*
X8276535Y-25557573D01*
X8276537Y-25557574D01*
X8382511Y-25611571D01*
X8382513Y-25611571D01*
X8382518Y-25611574D01*
X8500000Y-25630181D01*
X8617482Y-25611574D01*
X8723465Y-25557573D01*
X8807573Y-25473465D01*
X8861574Y-25367482D01*
X8880181Y-25250000D01*
X8861574Y-25132518D01*
X8861571Y-25132513D01*
X8861571Y-25132511D01*
X8807574Y-25026537D01*
X8807573Y-25026535D01*
X8723465Y-24942427D01*
X8723462Y-24942425D01*
X8617488Y-24888428D01*
X8617483Y-24888426D01*
X8617482Y-24888426D01*
X8500000Y-24869819D01*
X8382518Y-24888426D01*
X8382511Y-24888428D01*
X8276537Y-24942425D01*
X8192425Y-25026537D01*
X8138428Y-25132511D01*
X8138426Y-25132518D01*
X8119819Y-25249999D01*
X8119819Y-25250000D01*
X6380181Y-25250000D01*
X6361574Y-25132518D01*
X6361571Y-25132513D01*
X6361571Y-25132511D01*
X6307574Y-25026537D01*
X6307573Y-25026535D01*
X6223465Y-24942427D01*
X6223462Y-24942425D01*
X6117488Y-24888428D01*
X6117483Y-24888426D01*
X6117482Y-24888426D01*
X6000000Y-24869819D01*
X5882518Y-24888426D01*
X5882511Y-24888428D01*
X5776537Y-24942425D01*
X5692425Y-25026537D01*
X5638428Y-25132511D01*
X5638426Y-25132518D01*
X5619819Y-25249999D01*
X5619819Y-25250000D01*
X200500Y-25250000D01*
X200500Y-22750000D01*
X5619819Y-22750000D01*
X5638426Y-22867481D01*
X5638428Y-22867488D01*
X5692425Y-22973462D01*
X5692427Y-22973465D01*
X5776535Y-23057573D01*
X5776537Y-23057574D01*
X5882511Y-23111571D01*
X5882513Y-23111571D01*
X5882518Y-23111574D01*
X6000000Y-23130181D01*
X6117482Y-23111574D01*
X6223465Y-23057573D01*
X6307573Y-22973465D01*
X6361574Y-22867482D01*
X6380181Y-22750000D01*
X8119819Y-22750000D01*
X8138426Y-22867481D01*
X8138428Y-22867488D01*
X8192425Y-22973462D01*
X8192427Y-22973465D01*
X8276535Y-23057573D01*
X8276537Y-23057574D01*
X8382511Y-23111571D01*
X8382513Y-23111571D01*
X8382518Y-23111574D01*
X8500000Y-23130181D01*
X8617482Y-23111574D01*
X8723465Y-23057573D01*
X8807573Y-22973465D01*
X8861574Y-22867482D01*
X8880181Y-22750000D01*
X8861574Y-22632518D01*
X8861571Y-22632513D01*
X8861571Y-22632511D01*
X8807574Y-22526537D01*
X8807573Y-22526535D01*
X8723465Y-22442427D01*
X8723462Y-22442425D01*
X8617488Y-22388428D01*
X8617483Y-22388426D01*
X8617482Y-22388426D01*
X8500000Y-22369819D01*
X8382518Y-22388426D01*
X8382511Y-22388428D01*
X8276537Y-22442425D01*
X8192425Y-22526537D01*
X8138428Y-22632511D01*
X8138426Y-22632518D01*
X8119819Y-22749999D01*
X8119819Y-22750000D01*
X6380181Y-22750000D01*
X6361574Y-22632518D01*
X6361571Y-22632513D01*
X6361571Y-22632511D01*
X6307574Y-22526537D01*
X6307573Y-22526535D01*
X6223465Y-22442427D01*
X6223462Y-22442425D01*
X6117488Y-22388428D01*
X6117483Y-22388426D01*
X6117482Y-22388426D01*
X6000000Y-22369819D01*
X5882518Y-22388426D01*
X5882511Y-22388428D01*
X5776537Y-22442425D01*
X5692425Y-22526537D01*
X5638428Y-22632511D01*
X5638426Y-22632518D01*
X5619819Y-22749999D01*
X5619819Y-22750000D01*
X200500Y-22750000D01*
X200500Y-20250000D01*
X5619819Y-20250000D01*
X5638426Y-20367481D01*
X5638428Y-20367488D01*
X5692425Y-20473462D01*
X5692427Y-20473465D01*
X5776535Y-20557573D01*
X5776537Y-20557574D01*
X5882511Y-20611571D01*
X5882513Y-20611571D01*
X5882518Y-20611574D01*
X6000000Y-20630181D01*
X6117482Y-20611574D01*
X6223465Y-20557573D01*
X6307573Y-20473465D01*
X6361574Y-20367482D01*
X6380181Y-20250000D01*
X8119819Y-20250000D01*
X8138426Y-20367481D01*
X8138428Y-20367488D01*
X8192425Y-20473462D01*
X8192427Y-20473465D01*
X8276535Y-20557573D01*
X8276537Y-20557574D01*
X8382511Y-20611571D01*
X8382513Y-20611571D01*
X8382518Y-20611574D01*
X8500000Y-20630181D01*
X8617482Y-20611574D01*
X8723465Y-20557573D01*
X8807573Y-20473465D01*
X8861574Y-20367482D01*
X8880181Y-20250000D01*
X8861574Y-20132518D01*
X8861571Y-20132513D01*
X8861571Y-20132511D01*
X8807574Y-20026537D01*
X8807573Y-20026535D01*
X8723465Y-19942427D01*
X8723462Y-19942425D01*
X8617488Y-19888428D01*
X8617483Y-19888426D01*
X8617482Y-19888426D01*
X8500000Y-19869819D01*
X8382518Y-19888426D01*
X8382511Y-19888428D01*
X8276537Y-19942425D01*
X8192425Y-20026537D01*
X8138428Y-20132511D01*
X8138426Y-20132518D01*
X8119819Y-20249999D01*
X8119819Y-20250000D01*
X6380181Y-20250000D01*
X6361574Y-20132518D01*
X6361571Y-20132513D01*
X6361571Y-20132511D01*
X6307574Y-20026537D01*
X6307573Y-20026535D01*
X6223465Y-19942427D01*
X6223462Y-19942425D01*
X6117488Y-19888428D01*
X6117483Y-19888426D01*
X6117482Y-19888426D01*
X6000000Y-19869819D01*
X5882518Y-19888426D01*
X5882511Y-19888428D01*
X5776537Y-19942425D01*
X5692425Y-20026537D01*
X5638428Y-20132511D01*
X5638426Y-20132518D01*
X5619819Y-20249999D01*
X5619819Y-20250000D01*
X200500Y-20250000D01*
X200500Y-18000000D01*
X3119819Y-18000000D01*
X3138426Y-18117481D01*
X3138428Y-18117488D01*
X3192425Y-18223462D01*
X3192427Y-18223465D01*
X3276535Y-18307573D01*
X3276537Y-18307574D01*
X3382511Y-18361571D01*
X3382513Y-18361571D01*
X3382518Y-18361574D01*
X3500000Y-18380181D01*
X3617482Y-18361574D01*
X3723465Y-18307573D01*
X3807573Y-18223465D01*
X3861574Y-18117482D01*
X3880181Y-18000000D01*
X3861574Y-17882518D01*
X3861571Y-17882513D01*
X3861571Y-17882511D01*
X3807574Y-17776537D01*
X3807573Y-17776535D01*
X3781038Y-17750000D01*
X5619819Y-17750000D01*
X5638426Y-17867481D01*
X5638428Y-17867488D01*
X5692425Y-17973462D01*
X5692427Y-17973465D01*
X5776535Y-18057573D01*
X5776537Y-18057574D01*
X5882511Y-18111571D01*
X5882513Y-18111571D01*
X5882518Y-18111574D01*
X6000000Y-18130181D01*
X6117482Y-18111574D01*
X6223465Y-18057573D01*
X6307573Y-17973465D01*
X6361574Y-17867482D01*
X6380181Y-17750000D01*
X8119819Y-17750000D01*
X8138426Y-17867481D01*
X8138428Y-17867488D01*
X8192425Y-17973462D01*
X8192427Y-17973465D01*
X8276535Y-18057573D01*
X8276537Y-18057574D01*
X8382511Y-18111571D01*
X8382513Y-18111571D01*
X8382518Y-18111574D01*
X8500000Y-18130181D01*
X8617482Y-18111574D01*
X8723465Y-18057573D01*
X8807573Y-17973465D01*
X8861574Y-17867482D01*
X8880181Y-17750000D01*
X8861574Y-17632518D01*
X8861571Y-17632513D01*
X8861571Y-17632511D01*
X8807574Y-17526537D01*
X8807573Y-17526535D01*
X8723465Y-17442427D01*
X8723462Y-17442425D01*
X8617488Y-17388428D01*
X8617483Y-17388426D01*
X8617482Y-17388426D01*
X8500000Y-17369819D01*
X8382518Y-17388426D01*
X8382511Y-17388428D01*
X8276537Y-17442425D01*
X8192425Y-17526537D01*
X8138428Y-17632511D01*
X8138426Y-17632518D01*
X8119819Y-17749999D01*
X8119819Y-17750000D01*
X6380181Y-17750000D01*
X6361574Y-17632518D01*
X6361571Y-17632513D01*
X6361571Y-17632511D01*
X6307574Y-17526537D01*
X6307573Y-17526535D01*
X6223465Y-17442427D01*
X6223462Y-17442425D01*
X6117488Y-17388428D01*
X6117483Y-17388426D01*
X6117482Y-17388426D01*
X6000000Y-17369819D01*
X5882518Y-17388426D01*
X5882511Y-17388428D01*
X5776537Y-17442425D01*
X5692425Y-17526537D01*
X5638428Y-17632511D01*
X5638426Y-17632518D01*
X5619819Y-17749999D01*
X5619819Y-17750000D01*
X3781038Y-17750000D01*
X3723465Y-17692427D01*
X3723462Y-17692425D01*
X3617488Y-17638428D01*
X3617483Y-17638426D01*
X3617482Y-17638426D01*
X3500000Y-17619819D01*
X3382518Y-17638426D01*
X3382511Y-17638428D01*
X3276537Y-17692425D01*
X3192425Y-17776537D01*
X3138428Y-17882511D01*
X3138426Y-17882518D01*
X3119819Y-17999999D01*
X3119819Y-18000000D01*
X200500Y-18000000D01*
X200500Y-16750000D01*
X619819Y-16750000D01*
X638426Y-16867481D01*
X638428Y-16867488D01*
X692425Y-16973462D01*
X692427Y-16973465D01*
X776535Y-17057573D01*
X776537Y-17057574D01*
X882511Y-17111571D01*
X882513Y-17111571D01*
X882518Y-17111574D01*
X1000000Y-17130181D01*
X1117482Y-17111574D01*
X1223465Y-17057573D01*
X1307573Y-16973465D01*
X1361574Y-16867482D01*
X1380181Y-16750000D01*
X1869819Y-16750000D01*
X1888426Y-16867481D01*
X1888428Y-16867488D01*
X1942425Y-16973462D01*
X1942427Y-16973465D01*
X2026535Y-17057573D01*
X2026537Y-17057574D01*
X2132511Y-17111571D01*
X2132513Y-17111571D01*
X2132518Y-17111574D01*
X2250000Y-17130181D01*
X2367482Y-17111574D01*
X2473465Y-17057573D01*
X2557573Y-16973465D01*
X2611574Y-16867482D01*
X2630181Y-16750000D01*
X2611574Y-16632518D01*
X2611571Y-16632513D01*
X2611571Y-16632511D01*
X2557574Y-16526537D01*
X2557573Y-16526535D01*
X2473465Y-16442427D01*
X2473462Y-16442425D01*
X2367488Y-16388428D01*
X2367483Y-16388426D01*
X2367482Y-16388426D01*
X2250000Y-16369819D01*
X2132518Y-16388426D01*
X2132511Y-16388428D01*
X2026537Y-16442425D01*
X1942425Y-16526537D01*
X1888428Y-16632511D01*
X1888426Y-16632518D01*
X1869819Y-16749999D01*
X1869819Y-16750000D01*
X1380181Y-16750000D01*
X1361574Y-16632518D01*
X1361571Y-16632513D01*
X1361571Y-16632511D01*
X1307574Y-16526537D01*
X1307573Y-16526535D01*
X1223465Y-16442427D01*
X1223462Y-16442425D01*
X1117488Y-16388428D01*
X1117483Y-16388426D01*
X1117482Y-16388426D01*
X1000000Y-16369819D01*
X882518Y-16388426D01*
X882511Y-16388428D01*
X776537Y-16442425D01*
X692425Y-16526537D01*
X638428Y-16632511D01*
X638426Y-16632518D01*
X619819Y-16749999D01*
X619819Y-16750000D01*
X200500Y-16750000D01*
X200500Y-15250000D01*
X5619819Y-15250000D01*
X5638426Y-15367481D01*
X5638428Y-15367488D01*
X5692425Y-15473462D01*
X5692427Y-15473465D01*
X5776535Y-15557573D01*
X5776537Y-15557574D01*
X5882511Y-15611571D01*
X5882513Y-15611571D01*
X5882518Y-15611574D01*
X6000000Y-15630181D01*
X6117482Y-15611574D01*
X6223465Y-15557573D01*
X6307573Y-15473465D01*
X6361574Y-15367482D01*
X6380181Y-15250000D01*
X8119819Y-15250000D01*
X8138426Y-15367481D01*
X8138428Y-15367488D01*
X8192425Y-15473462D01*
X8192427Y-15473465D01*
X8276535Y-15557573D01*
X8276537Y-15557574D01*
X8382511Y-15611571D01*
X8382513Y-15611571D01*
X8382518Y-15611574D01*
X8500000Y-15630181D01*
X8617482Y-15611574D01*
X8723465Y-15557573D01*
X8807573Y-15473465D01*
X8861574Y-15367482D01*
X8880181Y-15250000D01*
X8861574Y-15132518D01*
X8861571Y-15132513D01*
X8861571Y-15132511D01*
X8807574Y-15026537D01*
X8807573Y-15026535D01*
X8723465Y-14942427D01*
X8723462Y-14942425D01*
X8617488Y-14888428D01*
X8617483Y-14888426D01*
X8617482Y-14888426D01*
X8500000Y-14869819D01*
X8382518Y-14888426D01*
X8382511Y-14888428D01*
X8276537Y-14942425D01*
X8192425Y-15026537D01*
X8138428Y-15132511D01*
X8138426Y-15132518D01*
X8119819Y-15249999D01*
X8119819Y-15250000D01*
X6380181Y-15250000D01*
X6361574Y-15132518D01*
X6361571Y-15132513D01*
X6361571Y-15132511D01*
X6307574Y-15026537D01*
X6307573Y-15026535D01*
X6223465Y-14942427D01*
X6223462Y-14942425D01*
X6117488Y-14888428D01*
X6117483Y-14888426D01*
X6117482Y-14888426D01*
X6000000Y-14869819D01*
X5882518Y-14888426D01*
X5882511Y-14888428D01*
X5776537Y-14942425D01*
X5692425Y-15026537D01*
X5638428Y-15132511D01*
X5638426Y-15132518D01*
X5619819Y-15249999D01*
X5619819Y-15250000D01*
X200500Y-15250000D01*
X200500Y-14000000D01*
X5619819Y-14000000D01*
X5638426Y-14117481D01*
X5638428Y-14117488D01*
X5692425Y-14223462D01*
X5692427Y-14223465D01*
X5776535Y-14307573D01*
X5776537Y-14307574D01*
X5882511Y-14361571D01*
X5882513Y-14361571D01*
X5882518Y-14361574D01*
X6000000Y-14380181D01*
X6117482Y-14361574D01*
X6223465Y-14307573D01*
X6307573Y-14223465D01*
X6361574Y-14117482D01*
X6380181Y-14000000D01*
X8119819Y-14000000D01*
X8138426Y-14117481D01*
X8138428Y-14117488D01*
X8192425Y-14223462D01*
X8192427Y-14223465D01*
X8276535Y-14307573D01*
X8276537Y-14307574D01*
X8382511Y-14361571D01*
X8382513Y-14361571D01*
X8382518Y-14361574D01*
X8500000Y-14380181D01*
X8617482Y-14361574D01*
X8723465Y-14307573D01*
X8807573Y-14223465D01*
X8861574Y-14117482D01*
X8880181Y-14000000D01*
X8861574Y-13882518D01*
X8861571Y-13882513D01*
X8861571Y-13882511D01*
X8807574Y-13776537D01*
X8807573Y-13776535D01*
X8723465Y-13692427D01*
X8723462Y-13692425D01*
X8617488Y-13638428D01*
X8617483Y-13638426D01*
X8617482Y-13638426D01*
X8500000Y-13619819D01*
X8382518Y-13638426D01*
X8382511Y-13638428D01*
X8276537Y-13692425D01*
X8192425Y-13776537D01*
X8138428Y-13882511D01*
X8138426Y-13882518D01*
X8119819Y-13999999D01*
X8119819Y-14000000D01*
X6380181Y-14000000D01*
X6361574Y-13882518D01*
X6361571Y-13882513D01*
X6361571Y-13882511D01*
X6307574Y-13776537D01*
X6307573Y-13776535D01*
X6223465Y-13692427D01*
X6223462Y-13692425D01*
X6117488Y-13638428D01*
X6117483Y-13638426D01*
X6117482Y-13638426D01*
X6000000Y-13619819D01*
X5882518Y-13638426D01*
X5882511Y-13638428D01*
X5776537Y-13692425D01*
X5692425Y-13776537D01*
X5638428Y-13882511D01*
X5638426Y-13882518D01*
X5619819Y-13999999D01*
X5619819Y-14000000D01*
X200500Y-14000000D01*
X200500Y-9250000D01*
X2619819Y-9250000D01*
X2630588Y-9317997D01*
X2638426Y-9367481D01*
X2638428Y-9367488D01*
X2692425Y-9473462D01*
X2692427Y-9473465D01*
X2776535Y-9557573D01*
X2776537Y-9557574D01*
X2882511Y-9611571D01*
X2882513Y-9611571D01*
X2882518Y-9611574D01*
X3000000Y-9630181D01*
X3007782Y-9628948D01*
X3068213Y-9638518D01*
X3111479Y-9681782D01*
X3121052Y-9742211D01*
X3119819Y-9749998D01*
X3119819Y-9750000D01*
X3138426Y-9867481D01*
X3138428Y-9867488D01*
X3192425Y-9973462D01*
X3192427Y-9973465D01*
X3276535Y-10057573D01*
X3276537Y-10057574D01*
X3382511Y-10111571D01*
X3382513Y-10111571D01*
X3382518Y-10111574D01*
X3500000Y-10130181D01*
X3617482Y-10111574D01*
X3723465Y-10057573D01*
X3807573Y-9973465D01*
X3810839Y-9967056D01*
X3854103Y-9923791D01*
X3899049Y-9913000D01*
X6088723Y-9913000D01*
X6146914Y-9931907D01*
X6182878Y-9981407D01*
X6182878Y-10042593D01*
X6176932Y-10056945D01*
X6138428Y-10132511D01*
X6138426Y-10132518D01*
X6119819Y-10249999D01*
X6119819Y-10250000D01*
X6138426Y-10367481D01*
X6138428Y-10367488D01*
X6192425Y-10473462D01*
X6197008Y-10479770D01*
X6194872Y-10481321D01*
X6217029Y-10524806D01*
X6207458Y-10585238D01*
X6164193Y-10628503D01*
X6134746Y-10638072D01*
X6132525Y-10638423D01*
X6132511Y-10638428D01*
X6026537Y-10692425D01*
X5942425Y-10776537D01*
X5888428Y-10882511D01*
X5888426Y-10882518D01*
X5869819Y-10999999D01*
X5869819Y-11000000D01*
X5888426Y-11117481D01*
X5888428Y-11117488D01*
X5942425Y-11223462D01*
X5942427Y-11223465D01*
X6026535Y-11307573D01*
X6026537Y-11307574D01*
X6132511Y-11361571D01*
X6132513Y-11361571D01*
X6132518Y-11361574D01*
X6250000Y-11380181D01*
X6367482Y-11361574D01*
X6473465Y-11307573D01*
X6539043Y-11241994D01*
X6593558Y-11214219D01*
X6609045Y-11213000D01*
X8390955Y-11213000D01*
X8449146Y-11231907D01*
X8460952Y-11241990D01*
X8526535Y-11307573D01*
X8526537Y-11307574D01*
X8632511Y-11361571D01*
X8632513Y-11361571D01*
X8632518Y-11361574D01*
X8750000Y-11380181D01*
X8867482Y-11361574D01*
X8973465Y-11307573D01*
X9039043Y-11241994D01*
X9093558Y-11214219D01*
X9109045Y-11213000D01*
X10890955Y-11213000D01*
X10949146Y-11231907D01*
X10960952Y-11241990D01*
X11026535Y-11307573D01*
X11026537Y-11307574D01*
X11132511Y-11361571D01*
X11132513Y-11361571D01*
X11132518Y-11361574D01*
X11250000Y-11380181D01*
X11367482Y-11361574D01*
X11473465Y-11307573D01*
X11539043Y-11241994D01*
X11593558Y-11214219D01*
X11609045Y-11213000D01*
X13390955Y-11213000D01*
X13449146Y-11231907D01*
X13460952Y-11241990D01*
X13526535Y-11307573D01*
X13526537Y-11307574D01*
X13632511Y-11361571D01*
X13632513Y-11361571D01*
X13632518Y-11361574D01*
X13750000Y-11380181D01*
X13867482Y-11361574D01*
X13973465Y-11307573D01*
X14039043Y-11241994D01*
X14093558Y-11214219D01*
X14109045Y-11213000D01*
X15890955Y-11213000D01*
X15949146Y-11231907D01*
X15960952Y-11241990D01*
X16026535Y-11307573D01*
X16026537Y-11307574D01*
X16132511Y-11361571D01*
X16132513Y-11361571D01*
X16132518Y-11361574D01*
X16250000Y-11380181D01*
X16367482Y-11361574D01*
X16473465Y-11307573D01*
X16539043Y-11241994D01*
X16593558Y-11214219D01*
X16609045Y-11213000D01*
X18390955Y-11213000D01*
X18449146Y-11231907D01*
X18460952Y-11241990D01*
X18526535Y-11307573D01*
X18526537Y-11307574D01*
X18632511Y-11361571D01*
X18632513Y-11361571D01*
X18632518Y-11361574D01*
X18750000Y-11380181D01*
X18867482Y-11361574D01*
X18973465Y-11307573D01*
X19039043Y-11241994D01*
X19093558Y-11214219D01*
X19109045Y-11213000D01*
X20890955Y-11213000D01*
X20949146Y-11231907D01*
X20960952Y-11241990D01*
X21026535Y-11307573D01*
X21026537Y-11307574D01*
X21132511Y-11361571D01*
X21132513Y-11361571D01*
X21132518Y-11361574D01*
X21250000Y-11380181D01*
X21367482Y-11361574D01*
X21473465Y-11307573D01*
X21539043Y-11241994D01*
X21593558Y-11214219D01*
X21609045Y-11213000D01*
X23390955Y-11213000D01*
X23449146Y-11231907D01*
X23460952Y-11241990D01*
X23526535Y-11307573D01*
X23526537Y-11307574D01*
X23632511Y-11361571D01*
X23632513Y-11361571D01*
X23632518Y-11361574D01*
X23750000Y-11380181D01*
X23867482Y-11361574D01*
X23973465Y-11307573D01*
X24039043Y-11241994D01*
X24093558Y-11214219D01*
X24109045Y-11213000D01*
X24620765Y-11213000D01*
X24678956Y-11231907D01*
X24690769Y-11241996D01*
X25094945Y-11646172D01*
X25122722Y-11700689D01*
X25122723Y-11731659D01*
X25119819Y-11749999D01*
X25119819Y-11750000D01*
X25138426Y-11867481D01*
X25138428Y-11867488D01*
X25192425Y-11973462D01*
X25197008Y-11979770D01*
X25194872Y-11981321D01*
X25217029Y-12024806D01*
X25207458Y-12085238D01*
X25164193Y-12128503D01*
X25134746Y-12138072D01*
X25132525Y-12138423D01*
X25132511Y-12138428D01*
X25026537Y-12192425D01*
X24942425Y-12276537D01*
X24888428Y-12382511D01*
X24888426Y-12382518D01*
X24869819Y-12499999D01*
X24869819Y-12500000D01*
X24888426Y-12617481D01*
X24888428Y-12617488D01*
X24942425Y-12723462D01*
X24942427Y-12723465D01*
X25026535Y-12807573D01*
X25026537Y-12807574D01*
X25132511Y-12861571D01*
X25132513Y-12861571D01*
X25132518Y-12861574D01*
X25250000Y-12880181D01*
X25367482Y-12861574D01*
X25473465Y-12807573D01*
X25557573Y-12723465D01*
X25611574Y-12617482D01*
X25630181Y-12500000D01*
X25611574Y-12382518D01*
X25611571Y-12382513D01*
X25611571Y-12382511D01*
X25557574Y-12276537D01*
X25552992Y-12270230D01*
X25555126Y-12268679D01*
X25532970Y-12225193D01*
X25542541Y-12164761D01*
X25585806Y-12121496D01*
X25615264Y-12111925D01*
X25617482Y-12111574D01*
X25723465Y-12057573D01*
X25789043Y-11991994D01*
X25843558Y-11964219D01*
X25859045Y-11963000D01*
X26063246Y-11963000D01*
X26121437Y-11981907D01*
X26157401Y-12031407D01*
X26157401Y-12092593D01*
X26151456Y-12106945D01*
X26138426Y-12132516D01*
X26138426Y-12132518D01*
X26119819Y-12249999D01*
X26119819Y-12250000D01*
X26138426Y-12367481D01*
X26138428Y-12367488D01*
X26192425Y-12473462D01*
X26192427Y-12473465D01*
X26276535Y-12557573D01*
X26276537Y-12557574D01*
X26382511Y-12611571D01*
X26382513Y-12611571D01*
X26382518Y-12611574D01*
X26500000Y-12630181D01*
X26617482Y-12611574D01*
X26723465Y-12557573D01*
X26781038Y-12500000D01*
X28619819Y-12500000D01*
X28638426Y-12617481D01*
X28638428Y-12617488D01*
X28692425Y-12723462D01*
X28692427Y-12723465D01*
X28776535Y-12807573D01*
X28776537Y-12807574D01*
X28882511Y-12861571D01*
X28882513Y-12861571D01*
X28882518Y-12861574D01*
X29000000Y-12880181D01*
X29117482Y-12861574D01*
X29223465Y-12807573D01*
X29307573Y-12723465D01*
X29361574Y-12617482D01*
X29380181Y-12500000D01*
X29361574Y-12382518D01*
X29361571Y-12382513D01*
X29361571Y-12382511D01*
X29307574Y-12276537D01*
X29307573Y-12276535D01*
X29281038Y-12250000D01*
X29869819Y-12250000D01*
X29888426Y-12367481D01*
X29888428Y-12367488D01*
X29942425Y-12473462D01*
X29942427Y-12473465D01*
X30026535Y-12557573D01*
X30026537Y-12557574D01*
X30132511Y-12611571D01*
X30132513Y-12611571D01*
X30132518Y-12611574D01*
X30250000Y-12630181D01*
X30367482Y-12611574D01*
X30473465Y-12557573D01*
X30557573Y-12473465D01*
X30611574Y-12367482D01*
X30630181Y-12250000D01*
X30611574Y-12132518D01*
X30611571Y-12132513D01*
X30611571Y-12132511D01*
X30557574Y-12026537D01*
X30557573Y-12026535D01*
X30473465Y-11942427D01*
X30473462Y-11942425D01*
X30367488Y-11888428D01*
X30367483Y-11888426D01*
X30367482Y-11888426D01*
X30250000Y-11869819D01*
X30132518Y-11888426D01*
X30132511Y-11888428D01*
X30026537Y-11942425D01*
X29942425Y-12026537D01*
X29888428Y-12132511D01*
X29888426Y-12132518D01*
X29869819Y-12249999D01*
X29869819Y-12250000D01*
X29281038Y-12250000D01*
X29223465Y-12192427D01*
X29223462Y-12192425D01*
X29117488Y-12138428D01*
X29117483Y-12138426D01*
X29117482Y-12138426D01*
X29000000Y-12119819D01*
X28882518Y-12138426D01*
X28882511Y-12138428D01*
X28776537Y-12192425D01*
X28692425Y-12276537D01*
X28638428Y-12382511D01*
X28638426Y-12382518D01*
X28619819Y-12499999D01*
X28619819Y-12500000D01*
X26781038Y-12500000D01*
X26807573Y-12473465D01*
X26861574Y-12367482D01*
X26880181Y-12250000D01*
X26861574Y-12132518D01*
X26848544Y-12106945D01*
X26838973Y-12046512D01*
X26866751Y-11991996D01*
X26921268Y-11964219D01*
X26936754Y-11963000D01*
X27640955Y-11963000D01*
X27699146Y-11981907D01*
X27710952Y-11991990D01*
X27776535Y-12057573D01*
X27776537Y-12057574D01*
X27882511Y-12111571D01*
X27882513Y-12111571D01*
X27882518Y-12111574D01*
X28000000Y-12130181D01*
X28117482Y-12111574D01*
X28223465Y-12057573D01*
X28307573Y-11973465D01*
X28361574Y-11867482D01*
X28380181Y-11750000D01*
X28377276Y-11731662D01*
X28386846Y-11671233D01*
X28405050Y-11646175D01*
X28559231Y-11491996D01*
X28613748Y-11464219D01*
X28629234Y-11463000D01*
X30890955Y-11463000D01*
X30949146Y-11481907D01*
X30960952Y-11491990D01*
X31026535Y-11557573D01*
X31026537Y-11557574D01*
X31132511Y-11611571D01*
X31132513Y-11611571D01*
X31132518Y-11611574D01*
X31250000Y-11630181D01*
X31367482Y-11611574D01*
X31473465Y-11557573D01*
X31557573Y-11473465D01*
X31611574Y-11367482D01*
X31630181Y-11250000D01*
X31869819Y-11250000D01*
X31888426Y-11367481D01*
X31888428Y-11367488D01*
X31942425Y-11473462D01*
X31942427Y-11473465D01*
X32026535Y-11557573D01*
X32026537Y-11557574D01*
X32132511Y-11611571D01*
X32132513Y-11611571D01*
X32132518Y-11611574D01*
X32250000Y-11630181D01*
X32367482Y-11611574D01*
X32473465Y-11557573D01*
X32531038Y-11500000D01*
X33369819Y-11500000D01*
X33388426Y-11617481D01*
X33388428Y-11617488D01*
X33442425Y-11723462D01*
X33442427Y-11723465D01*
X33526535Y-11807573D01*
X33526537Y-11807574D01*
X33632511Y-11861571D01*
X33632513Y-11861571D01*
X33632518Y-11861574D01*
X33750000Y-11880181D01*
X33867482Y-11861574D01*
X33973465Y-11807573D01*
X34057573Y-11723465D01*
X34111574Y-11617482D01*
X34130181Y-11500000D01*
X34111574Y-11382518D01*
X34111571Y-11382513D01*
X34111571Y-11382511D01*
X34057574Y-11276537D01*
X34057573Y-11276535D01*
X33973465Y-11192427D01*
X33973462Y-11192425D01*
X33867488Y-11138428D01*
X33867483Y-11138426D01*
X33867482Y-11138426D01*
X33750000Y-11119819D01*
X33632518Y-11138426D01*
X33632511Y-11138428D01*
X33526537Y-11192425D01*
X33442425Y-11276537D01*
X33388428Y-11382511D01*
X33388426Y-11382518D01*
X33369819Y-11499999D01*
X33369819Y-11500000D01*
X32531038Y-11500000D01*
X32557573Y-11473465D01*
X32611574Y-11367482D01*
X32630181Y-11250000D01*
X32611574Y-11132518D01*
X32611571Y-11132513D01*
X32611571Y-11132511D01*
X32557574Y-11026537D01*
X32557573Y-11026535D01*
X32473465Y-10942427D01*
X32473462Y-10942425D01*
X32367488Y-10888428D01*
X32367483Y-10888426D01*
X32367482Y-10888426D01*
X32250000Y-10869819D01*
X32132518Y-10888426D01*
X32132511Y-10888428D01*
X32026537Y-10942425D01*
X31942425Y-11026537D01*
X31888428Y-11132511D01*
X31888426Y-11132518D01*
X31869819Y-11249999D01*
X31869819Y-11250000D01*
X31630181Y-11250000D01*
X31611574Y-11132518D01*
X31611571Y-11132513D01*
X31611571Y-11132511D01*
X31557574Y-11026537D01*
X31557573Y-11026535D01*
X31473465Y-10942427D01*
X31473462Y-10942425D01*
X31367488Y-10888428D01*
X31367483Y-10888426D01*
X31367482Y-10888426D01*
X31250000Y-10869819D01*
X31132518Y-10888426D01*
X31132511Y-10888428D01*
X31026537Y-10942425D01*
X31026535Y-10942426D01*
X31026535Y-10942427D01*
X30960956Y-11008005D01*
X30906442Y-11035781D01*
X30890955Y-11037000D01*
X29436754Y-11037000D01*
X29378563Y-11018093D01*
X29342599Y-10968593D01*
X29342599Y-10907407D01*
X29348544Y-10893055D01*
X29350901Y-10888428D01*
X29361574Y-10867482D01*
X29380181Y-10750000D01*
X29361574Y-10632518D01*
X29361571Y-10632513D01*
X29361571Y-10632511D01*
X29307574Y-10526537D01*
X29307573Y-10526535D01*
X29223465Y-10442427D01*
X29223462Y-10442425D01*
X29117488Y-10388428D01*
X29117483Y-10388426D01*
X29117482Y-10388426D01*
X29000000Y-10369819D01*
X28981659Y-10372723D01*
X28921227Y-10363149D01*
X28896172Y-10344945D01*
X28138099Y-9586872D01*
X28127856Y-9572434D01*
X28127770Y-9572504D01*
X28120814Y-9563781D01*
X28094329Y-9542660D01*
X28090186Y-9538959D01*
X28083641Y-9532414D01*
X28075808Y-9527492D01*
X28071278Y-9524278D01*
X28044793Y-9503157D01*
X28038238Y-9500000D01*
X31619819Y-9500000D01*
X31626300Y-9540923D01*
X31638426Y-9617481D01*
X31638428Y-9617488D01*
X31671188Y-9681782D01*
X31692427Y-9723465D01*
X31776535Y-9807573D01*
X31776537Y-9807574D01*
X31882511Y-9861571D01*
X31882513Y-9861571D01*
X31882518Y-9861574D01*
X32000000Y-9880181D01*
X32117482Y-9861574D01*
X32223465Y-9807573D01*
X32307573Y-9723465D01*
X32361574Y-9617482D01*
X32380181Y-9500000D01*
X32379914Y-9498317D01*
X32375978Y-9473462D01*
X32361574Y-9382518D01*
X32361571Y-9382513D01*
X32361571Y-9382511D01*
X32307574Y-9276537D01*
X32307573Y-9276535D01*
X32223465Y-9192427D01*
X32223462Y-9192425D01*
X32117488Y-9138428D01*
X32117483Y-9138426D01*
X32117482Y-9138426D01*
X32000000Y-9119819D01*
X31882518Y-9138426D01*
X31882511Y-9138428D01*
X31776537Y-9192425D01*
X31692425Y-9276537D01*
X31638428Y-9382511D01*
X31638426Y-9382518D01*
X31620086Y-9498317D01*
X31619819Y-9500000D01*
X28038238Y-9500000D01*
X28034743Y-9498317D01*
X28034790Y-9498218D01*
X28032722Y-9497361D01*
X28032686Y-9497466D01*
X28022154Y-9493780D01*
X27988493Y-9489988D01*
X27983020Y-9489058D01*
X27974002Y-9487000D01*
X27974001Y-9487000D01*
X27964749Y-9487000D01*
X27959204Y-9486689D01*
X27955665Y-9486290D01*
X27925538Y-9482896D01*
X27925537Y-9482896D01*
X27925535Y-9482896D01*
X27914453Y-9484145D01*
X27914440Y-9484034D01*
X27896989Y-9487000D01*
X26053234Y-9487000D01*
X25995043Y-9468093D01*
X25959079Y-9418593D01*
X25959079Y-9357407D01*
X25983230Y-9317997D01*
X26396172Y-8905054D01*
X26450689Y-8877276D01*
X26481660Y-8877276D01*
X26500000Y-8880181D01*
X26617482Y-8861574D01*
X26723465Y-8807573D01*
X26807573Y-8723465D01*
X26861574Y-8617482D01*
X26880181Y-8500000D01*
X31619819Y-8500000D01*
X31632294Y-8578768D01*
X31638426Y-8617481D01*
X31638428Y-8617488D01*
X31668128Y-8675776D01*
X31692427Y-8723465D01*
X31776535Y-8807573D01*
X31776537Y-8807574D01*
X31882511Y-8861571D01*
X31882513Y-8861571D01*
X31882518Y-8861574D01*
X32000000Y-8880181D01*
X32117482Y-8861574D01*
X32223465Y-8807573D01*
X32307573Y-8723465D01*
X32361574Y-8617482D01*
X32380181Y-8500000D01*
X32361574Y-8382518D01*
X32361571Y-8382513D01*
X32361571Y-8382511D01*
X32307574Y-8276537D01*
X32307573Y-8276535D01*
X32223465Y-8192427D01*
X32223462Y-8192425D01*
X32117488Y-8138428D01*
X32117483Y-8138426D01*
X32117482Y-8138426D01*
X32000000Y-8119819D01*
X31882518Y-8138426D01*
X31882511Y-8138428D01*
X31776537Y-8192425D01*
X31692425Y-8276537D01*
X31638428Y-8382511D01*
X31638426Y-8382518D01*
X31619819Y-8500000D01*
X26880181Y-8500000D01*
X26861574Y-8382518D01*
X26861571Y-8382513D01*
X26861571Y-8382511D01*
X26807574Y-8276537D01*
X26807573Y-8276535D01*
X26723465Y-8192427D01*
X26723462Y-8192425D01*
X26617488Y-8138428D01*
X26617483Y-8138426D01*
X26617482Y-8138426D01*
X26500000Y-8119819D01*
X26382518Y-8138426D01*
X26382511Y-8138428D01*
X26276537Y-8192425D01*
X26192425Y-8276537D01*
X26138428Y-8382511D01*
X26138426Y-8382518D01*
X26119819Y-8499999D01*
X26119819Y-8500000D01*
X26122723Y-8518336D01*
X26113152Y-8578768D01*
X26094946Y-8603826D01*
X25690770Y-9008003D01*
X25636253Y-9035781D01*
X25620766Y-9037000D01*
X20505759Y-9037000D01*
X20447568Y-9018093D01*
X20411604Y-8968593D01*
X20411604Y-8907407D01*
X20416554Y-8895064D01*
X20418899Y-8890192D01*
X20438098Y-8863127D01*
X20600559Y-8700668D01*
X20655076Y-8672891D01*
X20670562Y-8671672D01*
X23738317Y-8671672D01*
X23755768Y-8674637D01*
X23755781Y-8674527D01*
X23766863Y-8675775D01*
X23766866Y-8675776D01*
X23800532Y-8671983D01*
X23806077Y-8671672D01*
X23815326Y-8671672D01*
X23815329Y-8671672D01*
X23824354Y-8669611D01*
X23829806Y-8668683D01*
X23863487Y-8664890D01*
X23863491Y-8664886D01*
X23874016Y-8661205D01*
X23874053Y-8661312D01*
X23876114Y-8660458D01*
X23876066Y-8660357D01*
X23886119Y-8655515D01*
X23886119Y-8655514D01*
X23886122Y-8655514D01*
X23897377Y-8646537D01*
X23954659Y-8625037D01*
X23974586Y-8626155D01*
X24000000Y-8630181D01*
X24117482Y-8611574D01*
X24223465Y-8557573D01*
X24307573Y-8473465D01*
X24361574Y-8367482D01*
X24380181Y-8250000D01*
X24379302Y-8244453D01*
X24371062Y-8192425D01*
X24361574Y-8132518D01*
X24361571Y-8132513D01*
X24361571Y-8132511D01*
X24307574Y-8026537D01*
X24307573Y-8026535D01*
X24223465Y-7942427D01*
X24223462Y-7942425D01*
X24117488Y-7888428D01*
X24117483Y-7888426D01*
X24117482Y-7888426D01*
X24000000Y-7869819D01*
X23882518Y-7888426D01*
X23882511Y-7888428D01*
X23776537Y-7942425D01*
X23692425Y-8026537D01*
X23638427Y-8132514D01*
X23638426Y-8132516D01*
X23633731Y-8162160D01*
X23605953Y-8216676D01*
X23551436Y-8244453D01*
X23535950Y-8245672D01*
X20594339Y-8245672D01*
X20576887Y-8242706D01*
X20576875Y-8242817D01*
X20565792Y-8241568D01*
X20565790Y-8241568D01*
X20540184Y-8244453D01*
X20532124Y-8245361D01*
X20526579Y-8245672D01*
X20517327Y-8245672D01*
X20508292Y-8247733D01*
X20502822Y-8248662D01*
X20469170Y-8252453D01*
X20458643Y-8256137D01*
X20458607Y-8256034D01*
X20456536Y-8256891D01*
X20456584Y-8256990D01*
X20446535Y-8261829D01*
X20420054Y-8282946D01*
X20415529Y-8286157D01*
X20407686Y-8291085D01*
X20401139Y-8297632D01*
X20397003Y-8301328D01*
X20370516Y-8322451D01*
X20363559Y-8331175D01*
X20363473Y-8331106D01*
X20353229Y-8345542D01*
X20190770Y-8508003D01*
X20136254Y-8535781D01*
X20120766Y-8537000D01*
X6435554Y-8537000D01*
X6377363Y-8518093D01*
X6341399Y-8468593D01*
X6341399Y-8407407D01*
X6377363Y-8357907D01*
X6390608Y-8349791D01*
X6427143Y-8331175D01*
X6473465Y-8307573D01*
X6557573Y-8223465D01*
X6611574Y-8117482D01*
X6630181Y-8000000D01*
X6627276Y-7981662D01*
X6636846Y-7921234D01*
X6655054Y-7896172D01*
X7309232Y-7241996D01*
X7363748Y-7214219D01*
X7379235Y-7213000D01*
X8390955Y-7213000D01*
X8449146Y-7231907D01*
X8460952Y-7241990D01*
X8526535Y-7307573D01*
X8526537Y-7307574D01*
X8632511Y-7361571D01*
X8632513Y-7361571D01*
X8632518Y-7361574D01*
X8750000Y-7380181D01*
X8867482Y-7361574D01*
X8973465Y-7307573D01*
X9039043Y-7241994D01*
X9093558Y-7214219D01*
X9109045Y-7213000D01*
X10140955Y-7213000D01*
X10199146Y-7231907D01*
X10210952Y-7241990D01*
X10276535Y-7307573D01*
X10276537Y-7307574D01*
X10382511Y-7361571D01*
X10382513Y-7361571D01*
X10382518Y-7361574D01*
X10500000Y-7380181D01*
X10617482Y-7361574D01*
X10723465Y-7307573D01*
X10789043Y-7241994D01*
X10843558Y-7214219D01*
X10859045Y-7213000D01*
X12640955Y-7213000D01*
X12699146Y-7231907D01*
X12710952Y-7241990D01*
X12776535Y-7307573D01*
X12776537Y-7307574D01*
X12882511Y-7361571D01*
X12882513Y-7361571D01*
X12882518Y-7361574D01*
X13000000Y-7380181D01*
X13117482Y-7361574D01*
X13223465Y-7307573D01*
X13289043Y-7241994D01*
X13343558Y-7214219D01*
X13359045Y-7213000D01*
X15140955Y-7213000D01*
X15199146Y-7231907D01*
X15210952Y-7241990D01*
X15276535Y-7307573D01*
X15276537Y-7307574D01*
X15382511Y-7361571D01*
X15382513Y-7361571D01*
X15382518Y-7361574D01*
X15500000Y-7380181D01*
X15617482Y-7361574D01*
X15723465Y-7307573D01*
X15789043Y-7241994D01*
X15843558Y-7214219D01*
X15859045Y-7213000D01*
X17640955Y-7213000D01*
X17699146Y-7231907D01*
X17710952Y-7241990D01*
X17776535Y-7307573D01*
X17776537Y-7307574D01*
X17882511Y-7361571D01*
X17882513Y-7361571D01*
X17882518Y-7361574D01*
X18000000Y-7380181D01*
X18117482Y-7361574D01*
X18223465Y-7307573D01*
X18289043Y-7241994D01*
X18343558Y-7214219D01*
X18359045Y-7213000D01*
X20140955Y-7213000D01*
X20199146Y-7231907D01*
X20210952Y-7241990D01*
X20276535Y-7307573D01*
X20276537Y-7307574D01*
X20382511Y-7361571D01*
X20382513Y-7361571D01*
X20382518Y-7361574D01*
X20500000Y-7380181D01*
X20617482Y-7361574D01*
X20723465Y-7307573D01*
X20789043Y-7241994D01*
X20843558Y-7214219D01*
X20859045Y-7213000D01*
X22640955Y-7213000D01*
X22699146Y-7231907D01*
X22710952Y-7241990D01*
X22776535Y-7307573D01*
X22776537Y-7307574D01*
X22882511Y-7361571D01*
X22882513Y-7361571D01*
X22882518Y-7361574D01*
X23000000Y-7380181D01*
X23117482Y-7361574D01*
X23223465Y-7307573D01*
X23289043Y-7241994D01*
X23343558Y-7214219D01*
X23359045Y-7213000D01*
X25140955Y-7213000D01*
X25199146Y-7231907D01*
X25210952Y-7241990D01*
X25276535Y-7307573D01*
X25276537Y-7307574D01*
X25382511Y-7361571D01*
X25382513Y-7361571D01*
X25382518Y-7361574D01*
X25500000Y-7380181D01*
X25617482Y-7361574D01*
X25723465Y-7307573D01*
X25789043Y-7241994D01*
X25843558Y-7214219D01*
X25859045Y-7213000D01*
X28640955Y-7213000D01*
X28699146Y-7231907D01*
X28710952Y-7241990D01*
X28776535Y-7307573D01*
X28776537Y-7307574D01*
X28882511Y-7361571D01*
X28882513Y-7361571D01*
X28882518Y-7361574D01*
X29000000Y-7380181D01*
X29117482Y-7361574D01*
X29223465Y-7307573D01*
X29289043Y-7241994D01*
X29343558Y-7214219D01*
X29359045Y-7213000D01*
X30120765Y-7213000D01*
X30178956Y-7231907D01*
X30190769Y-7241996D01*
X30344945Y-7396172D01*
X30372722Y-7450689D01*
X30372723Y-7481659D01*
X30369819Y-7499999D01*
X30369819Y-7500000D01*
X30388426Y-7617481D01*
X30388428Y-7617488D01*
X30421188Y-7681782D01*
X30442427Y-7723465D01*
X30526535Y-7807573D01*
X30526537Y-7807574D01*
X30632511Y-7861571D01*
X30632513Y-7861571D01*
X30632518Y-7861574D01*
X30750000Y-7880181D01*
X30867482Y-7861574D01*
X30973465Y-7807573D01*
X31057573Y-7723465D01*
X31111574Y-7617482D01*
X31130181Y-7500000D01*
X31619819Y-7500000D01*
X31638426Y-7617481D01*
X31638428Y-7617488D01*
X31671188Y-7681782D01*
X31692427Y-7723465D01*
X31776535Y-7807573D01*
X31776537Y-7807574D01*
X31882511Y-7861571D01*
X31882513Y-7861571D01*
X31882518Y-7861574D01*
X32000000Y-7880181D01*
X32117482Y-7861574D01*
X32223465Y-7807573D01*
X32307573Y-7723465D01*
X32361574Y-7617482D01*
X32380181Y-7500000D01*
X32361574Y-7382518D01*
X32361571Y-7382513D01*
X32361571Y-7382511D01*
X32307574Y-7276537D01*
X32307573Y-7276535D01*
X32223465Y-7192427D01*
X32223462Y-7192425D01*
X32117488Y-7138428D01*
X32117483Y-7138426D01*
X32117482Y-7138426D01*
X32000000Y-7119819D01*
X31882518Y-7138426D01*
X31882511Y-7138428D01*
X31776537Y-7192425D01*
X31692425Y-7276537D01*
X31638428Y-7382511D01*
X31638426Y-7382518D01*
X31619819Y-7499999D01*
X31619819Y-7500000D01*
X31130181Y-7500000D01*
X31111574Y-7382518D01*
X31111571Y-7382513D01*
X31111571Y-7382511D01*
X31057574Y-7276537D01*
X31057573Y-7276535D01*
X30973465Y-7192427D01*
X30973462Y-7192425D01*
X30867488Y-7138428D01*
X30867483Y-7138426D01*
X30867482Y-7138426D01*
X30750000Y-7119819D01*
X30731659Y-7122723D01*
X30671227Y-7113149D01*
X30646172Y-7094945D01*
X30438099Y-6886872D01*
X30427856Y-6872434D01*
X30427770Y-6872504D01*
X30420814Y-6863781D01*
X30394329Y-6842660D01*
X30390186Y-6838959D01*
X30383641Y-6832414D01*
X30375808Y-6827492D01*
X30371278Y-6824278D01*
X30344793Y-6803157D01*
X30334743Y-6798317D01*
X30334790Y-6798218D01*
X30332722Y-6797361D01*
X30332686Y-6797466D01*
X30322154Y-6793780D01*
X30288493Y-6789988D01*
X30283020Y-6789058D01*
X30274002Y-6787000D01*
X30274001Y-6787000D01*
X30264749Y-6787000D01*
X30259204Y-6786689D01*
X30251144Y-6785781D01*
X30225538Y-6782896D01*
X30225537Y-6782896D01*
X30225535Y-6782896D01*
X30214453Y-6784145D01*
X30214440Y-6784034D01*
X30196989Y-6787000D01*
X29359045Y-6787000D01*
X29300854Y-6768093D01*
X29289047Y-6758009D01*
X29223465Y-6692427D01*
X29223462Y-6692425D01*
X29117488Y-6638428D01*
X29117483Y-6638426D01*
X29117482Y-6638426D01*
X29000000Y-6619819D01*
X28882518Y-6638426D01*
X28882511Y-6638428D01*
X28776537Y-6692425D01*
X28776535Y-6692426D01*
X28776535Y-6692427D01*
X28710956Y-6758005D01*
X28656442Y-6785781D01*
X28640955Y-6787000D01*
X25859045Y-6787000D01*
X25800854Y-6768093D01*
X25789047Y-6758009D01*
X25723465Y-6692427D01*
X25723462Y-6692425D01*
X25617488Y-6638428D01*
X25617483Y-6638426D01*
X25617482Y-6638426D01*
X25500000Y-6619819D01*
X25382518Y-6638426D01*
X25382511Y-6638428D01*
X25276537Y-6692425D01*
X25276535Y-6692426D01*
X25276535Y-6692427D01*
X25210956Y-6758005D01*
X25156442Y-6785781D01*
X25140955Y-6787000D01*
X23359045Y-6787000D01*
X23300854Y-6768093D01*
X23289047Y-6758009D01*
X23223465Y-6692427D01*
X23223462Y-6692425D01*
X23117488Y-6638428D01*
X23117483Y-6638426D01*
X23117482Y-6638426D01*
X23000000Y-6619819D01*
X22882518Y-6638426D01*
X22882511Y-6638428D01*
X22776537Y-6692425D01*
X22776535Y-6692426D01*
X22776535Y-6692427D01*
X22710956Y-6758005D01*
X22656442Y-6785781D01*
X22640955Y-6787000D01*
X21255759Y-6787000D01*
X21197568Y-6768093D01*
X21161604Y-6718593D01*
X21161604Y-6657407D01*
X21166554Y-6645064D01*
X21168898Y-6640194D01*
X21188096Y-6613129D01*
X21396174Y-6405051D01*
X21450689Y-6377276D01*
X21481660Y-6377276D01*
X21500000Y-6380181D01*
X21617482Y-6361574D01*
X21723465Y-6307573D01*
X21807573Y-6223465D01*
X21861574Y-6117482D01*
X21880181Y-6000000D01*
X21861574Y-5882518D01*
X21861571Y-5882513D01*
X21861571Y-5882511D01*
X21807574Y-5776537D01*
X21807573Y-5776535D01*
X21723465Y-5692427D01*
X21723462Y-5692425D01*
X21617488Y-5638428D01*
X21617483Y-5638426D01*
X21617482Y-5638426D01*
X21500000Y-5619819D01*
X21382518Y-5638426D01*
X21382511Y-5638428D01*
X21276537Y-5692425D01*
X21192425Y-5776537D01*
X21138428Y-5882511D01*
X21138426Y-5882518D01*
X21119819Y-5999999D01*
X21119819Y-6000000D01*
X21122723Y-6018336D01*
X21113152Y-6078768D01*
X21094946Y-6103826D01*
X20940770Y-6258003D01*
X20886253Y-6285781D01*
X20870766Y-6287000D01*
X19436754Y-6287000D01*
X19378563Y-6268093D01*
X19342599Y-6218593D01*
X19342599Y-6157407D01*
X19348544Y-6143055D01*
X19353916Y-6132511D01*
X19361574Y-6117482D01*
X19380181Y-6000000D01*
X19361574Y-5882518D01*
X19361571Y-5882513D01*
X19361571Y-5882511D01*
X19307574Y-5776537D01*
X19307573Y-5776535D01*
X19223465Y-5692427D01*
X19223462Y-5692425D01*
X19117488Y-5638428D01*
X19117483Y-5638426D01*
X19117482Y-5638426D01*
X19000000Y-5619819D01*
X18882518Y-5638426D01*
X18882511Y-5638428D01*
X18776537Y-5692425D01*
X18776535Y-5692426D01*
X18776535Y-5692427D01*
X18710956Y-5758005D01*
X18656442Y-5785781D01*
X18640955Y-5787000D01*
X16936754Y-5787000D01*
X16878563Y-5768093D01*
X16842599Y-5718593D01*
X16842599Y-5657407D01*
X16848544Y-5643055D01*
X16850901Y-5638428D01*
X16861574Y-5617482D01*
X16880181Y-5500000D01*
X16861574Y-5382518D01*
X16861571Y-5382513D01*
X16861571Y-5382511D01*
X16807574Y-5276537D01*
X16807573Y-5276535D01*
X16781038Y-5250000D01*
X26119819Y-5250000D01*
X26138426Y-5367481D01*
X26138428Y-5367488D01*
X26192425Y-5473462D01*
X26192427Y-5473465D01*
X26276535Y-5557573D01*
X26276537Y-5557574D01*
X26382511Y-5611571D01*
X26382513Y-5611571D01*
X26382518Y-5611574D01*
X26500000Y-5630181D01*
X26617482Y-5611574D01*
X26723465Y-5557573D01*
X26807573Y-5473465D01*
X26861574Y-5367482D01*
X26880181Y-5250000D01*
X28619819Y-5250000D01*
X28638426Y-5367481D01*
X28638428Y-5367488D01*
X28692425Y-5473462D01*
X28692427Y-5473465D01*
X28776535Y-5557573D01*
X28776537Y-5557574D01*
X28882511Y-5611571D01*
X28882513Y-5611571D01*
X28882518Y-5611574D01*
X29000000Y-5630181D01*
X29117482Y-5611574D01*
X29223465Y-5557573D01*
X29307573Y-5473465D01*
X29361574Y-5367482D01*
X29380181Y-5250000D01*
X29361574Y-5132518D01*
X29361571Y-5132513D01*
X29361571Y-5132511D01*
X29307574Y-5026537D01*
X29307573Y-5026535D01*
X29223465Y-4942427D01*
X29223462Y-4942425D01*
X29117488Y-4888428D01*
X29117483Y-4888426D01*
X29117482Y-4888426D01*
X29000000Y-4869819D01*
X28882518Y-4888426D01*
X28882511Y-4888428D01*
X28776537Y-4942425D01*
X28692425Y-5026537D01*
X28638428Y-5132511D01*
X28638426Y-5132518D01*
X28619819Y-5249999D01*
X28619819Y-5250000D01*
X26880181Y-5250000D01*
X26861574Y-5132518D01*
X26861571Y-5132513D01*
X26861571Y-5132511D01*
X26807574Y-5026537D01*
X26807573Y-5026535D01*
X26723465Y-4942427D01*
X26723462Y-4942425D01*
X26617488Y-4888428D01*
X26617483Y-4888426D01*
X26617482Y-4888426D01*
X26500000Y-4869819D01*
X26382518Y-4888426D01*
X26382511Y-4888428D01*
X26276537Y-4942425D01*
X26192425Y-5026537D01*
X26138428Y-5132511D01*
X26138426Y-5132518D01*
X26119819Y-5249999D01*
X26119819Y-5250000D01*
X16781038Y-5250000D01*
X16723465Y-5192427D01*
X16723462Y-5192425D01*
X16617488Y-5138428D01*
X16617483Y-5138426D01*
X16617482Y-5138426D01*
X16500000Y-5119819D01*
X16382518Y-5138426D01*
X16382511Y-5138428D01*
X16276537Y-5192425D01*
X16276535Y-5192426D01*
X16276535Y-5192427D01*
X16210956Y-5258005D01*
X16156442Y-5285781D01*
X16140955Y-5287000D01*
X13935554Y-5287000D01*
X13877363Y-5268093D01*
X13841399Y-5218593D01*
X13841399Y-5157407D01*
X13877363Y-5107907D01*
X13890608Y-5099791D01*
X13908354Y-5090748D01*
X13973465Y-5057573D01*
X14057573Y-4973465D01*
X14111574Y-4867482D01*
X14130181Y-4750000D01*
X14111574Y-4632518D01*
X14111571Y-4632513D01*
X14111571Y-4632511D01*
X14057574Y-4526537D01*
X14057573Y-4526535D01*
X13973465Y-4442427D01*
X13973462Y-4442425D01*
X13867488Y-4388428D01*
X13867483Y-4388426D01*
X13867482Y-4388426D01*
X13750000Y-4369819D01*
X13632518Y-4388426D01*
X13632511Y-4388428D01*
X13526537Y-4442425D01*
X13442425Y-4526537D01*
X13388428Y-4632511D01*
X13388426Y-4632518D01*
X13377186Y-4703487D01*
X13349409Y-4758003D01*
X13294892Y-4785781D01*
X13279405Y-4787000D01*
X11435554Y-4787000D01*
X11377363Y-4768093D01*
X11341399Y-4718593D01*
X11341399Y-4657407D01*
X11377363Y-4607907D01*
X11390608Y-4599791D01*
X11408354Y-4590748D01*
X11473465Y-4557573D01*
X11557573Y-4473465D01*
X11611574Y-4367482D01*
X11630181Y-4250000D01*
X15869819Y-4250000D01*
X15888426Y-4367481D01*
X15888428Y-4367488D01*
X15942425Y-4473462D01*
X15942427Y-4473465D01*
X16026535Y-4557573D01*
X16026537Y-4557574D01*
X16132511Y-4611571D01*
X16132513Y-4611571D01*
X16132518Y-4611574D01*
X16250000Y-4630181D01*
X16367482Y-4611574D01*
X16473465Y-4557573D01*
X16557573Y-4473465D01*
X16611574Y-4367482D01*
X16630181Y-4250000D01*
X18369819Y-4250000D01*
X18388426Y-4367481D01*
X18388428Y-4367488D01*
X18442425Y-4473462D01*
X18442427Y-4473465D01*
X18526535Y-4557573D01*
X18526537Y-4557574D01*
X18632511Y-4611571D01*
X18632513Y-4611571D01*
X18632518Y-4611574D01*
X18750000Y-4630181D01*
X18867482Y-4611574D01*
X18973465Y-4557573D01*
X19057573Y-4473465D01*
X19111574Y-4367482D01*
X19130181Y-4250000D01*
X20869819Y-4250000D01*
X20888426Y-4367481D01*
X20888428Y-4367488D01*
X20942425Y-4473462D01*
X20942427Y-4473465D01*
X21026535Y-4557573D01*
X21026537Y-4557574D01*
X21132511Y-4611571D01*
X21132513Y-4611571D01*
X21132518Y-4611574D01*
X21250000Y-4630181D01*
X21367482Y-4611574D01*
X21473465Y-4557573D01*
X21557573Y-4473465D01*
X21611574Y-4367482D01*
X21630181Y-4250000D01*
X23369819Y-4250000D01*
X23388426Y-4367481D01*
X23388428Y-4367488D01*
X23442425Y-4473462D01*
X23442427Y-4473465D01*
X23526535Y-4557573D01*
X23526537Y-4557574D01*
X23632511Y-4611571D01*
X23632513Y-4611571D01*
X23632518Y-4611574D01*
X23750000Y-4630181D01*
X23867482Y-4611574D01*
X23973465Y-4557573D01*
X24031038Y-4500000D01*
X30369819Y-4500000D01*
X30386909Y-4607907D01*
X30388426Y-4617481D01*
X30388428Y-4617488D01*
X30442425Y-4723462D01*
X30442427Y-4723465D01*
X30526535Y-4807573D01*
X30526537Y-4807574D01*
X30632511Y-4861571D01*
X30632513Y-4861571D01*
X30632518Y-4861574D01*
X30750000Y-4880181D01*
X30867482Y-4861574D01*
X30973465Y-4807573D01*
X31057573Y-4723465D01*
X31111574Y-4617482D01*
X31130181Y-4500000D01*
X31111574Y-4382518D01*
X31111571Y-4382513D01*
X31111571Y-4382511D01*
X31057574Y-4276537D01*
X31057573Y-4276535D01*
X30973465Y-4192427D01*
X30973462Y-4192425D01*
X30867488Y-4138428D01*
X30867483Y-4138426D01*
X30867482Y-4138426D01*
X30750000Y-4119819D01*
X30632518Y-4138426D01*
X30632511Y-4138428D01*
X30526537Y-4192425D01*
X30442425Y-4276537D01*
X30388428Y-4382511D01*
X30388426Y-4382518D01*
X30372685Y-4481907D01*
X30369819Y-4500000D01*
X24031038Y-4500000D01*
X24057573Y-4473465D01*
X24111574Y-4367482D01*
X24130181Y-4250000D01*
X24111574Y-4132518D01*
X24111571Y-4132513D01*
X24111571Y-4132511D01*
X24057574Y-4026537D01*
X24057573Y-4026535D01*
X23973465Y-3942427D01*
X23973462Y-3942425D01*
X23867488Y-3888428D01*
X23867483Y-3888426D01*
X23867482Y-3888426D01*
X23750000Y-3869819D01*
X23632518Y-3888426D01*
X23632511Y-3888428D01*
X23526537Y-3942425D01*
X23442425Y-4026537D01*
X23388428Y-4132511D01*
X23388426Y-4132518D01*
X23369819Y-4249999D01*
X23369819Y-4250000D01*
X21630181Y-4250000D01*
X21611574Y-4132518D01*
X21611571Y-4132513D01*
X21611571Y-4132511D01*
X21557574Y-4026537D01*
X21557573Y-4026535D01*
X21473465Y-3942427D01*
X21473462Y-3942425D01*
X21367488Y-3888428D01*
X21367483Y-3888426D01*
X21367482Y-3888426D01*
X21250000Y-3869819D01*
X21132518Y-3888426D01*
X21132511Y-3888428D01*
X21026537Y-3942425D01*
X20942425Y-4026537D01*
X20888428Y-4132511D01*
X20888426Y-4132518D01*
X20869819Y-4249999D01*
X20869819Y-4250000D01*
X19130181Y-4250000D01*
X19111574Y-4132518D01*
X19111571Y-4132513D01*
X19111571Y-4132511D01*
X19057574Y-4026537D01*
X19057573Y-4026535D01*
X18973465Y-3942427D01*
X18973462Y-3942425D01*
X18867488Y-3888428D01*
X18867483Y-3888426D01*
X18867482Y-3888426D01*
X18750000Y-3869819D01*
X18632518Y-3888426D01*
X18632511Y-3888428D01*
X18526537Y-3942425D01*
X18442425Y-4026537D01*
X18388428Y-4132511D01*
X18388426Y-4132518D01*
X18369819Y-4249999D01*
X18369819Y-4250000D01*
X16630181Y-4250000D01*
X16611574Y-4132518D01*
X16611571Y-4132513D01*
X16611571Y-4132511D01*
X16557574Y-4026537D01*
X16557573Y-4026535D01*
X16473465Y-3942427D01*
X16473462Y-3942425D01*
X16367488Y-3888428D01*
X16367483Y-3888426D01*
X16367482Y-3888426D01*
X16250000Y-3869819D01*
X16132518Y-3888426D01*
X16132511Y-3888428D01*
X16026537Y-3942425D01*
X15942425Y-4026537D01*
X15888428Y-4132511D01*
X15888426Y-4132518D01*
X15869819Y-4249999D01*
X15869819Y-4250000D01*
X11630181Y-4250000D01*
X11611574Y-4132518D01*
X11611571Y-4132513D01*
X11611571Y-4132511D01*
X11557574Y-4026537D01*
X11557573Y-4026535D01*
X11473465Y-3942427D01*
X11473462Y-3942425D01*
X11367488Y-3888428D01*
X11367483Y-3888426D01*
X11367482Y-3888426D01*
X11250000Y-3869819D01*
X11132518Y-3888426D01*
X11132511Y-3888428D01*
X11026537Y-3942425D01*
X11026535Y-3942426D01*
X11026535Y-3942427D01*
X10960956Y-4008005D01*
X10906442Y-4035781D01*
X10890955Y-4037000D01*
X10436754Y-4037000D01*
X10378563Y-4018093D01*
X10342599Y-3968593D01*
X10342599Y-3907407D01*
X10348544Y-3893055D01*
X10350901Y-3888428D01*
X10361574Y-3867482D01*
X10380181Y-3750000D01*
X10361574Y-3632518D01*
X10361571Y-3632513D01*
X10361571Y-3632511D01*
X10307574Y-3526537D01*
X10307573Y-3526535D01*
X10223465Y-3442427D01*
X10223462Y-3442425D01*
X10117488Y-3388428D01*
X10117483Y-3388426D01*
X10117482Y-3388426D01*
X10000000Y-3369819D01*
X9882518Y-3388426D01*
X9882511Y-3388428D01*
X9776537Y-3442425D01*
X9776535Y-3442426D01*
X9776535Y-3442427D01*
X9710956Y-3508005D01*
X9656442Y-3535781D01*
X9640955Y-3537000D01*
X8936754Y-3537000D01*
X8878563Y-3518093D01*
X8842599Y-3468593D01*
X8842599Y-3407407D01*
X8848544Y-3393055D01*
X8850901Y-3388428D01*
X8861574Y-3367482D01*
X8880181Y-3250000D01*
X28369819Y-3250000D01*
X28388426Y-3367481D01*
X28388428Y-3367488D01*
X28442425Y-3473462D01*
X28442427Y-3473465D01*
X28526535Y-3557573D01*
X28526537Y-3557574D01*
X28632511Y-3611571D01*
X28632513Y-3611571D01*
X28632518Y-3611574D01*
X28750000Y-3630181D01*
X28867482Y-3611574D01*
X28973465Y-3557573D01*
X29057573Y-3473465D01*
X29111574Y-3367482D01*
X29130181Y-3250000D01*
X29111574Y-3132518D01*
X29111571Y-3132513D01*
X29111571Y-3132511D01*
X29057574Y-3026537D01*
X29057573Y-3026535D01*
X29031038Y-3000000D01*
X29869819Y-3000000D01*
X29884494Y-3092659D01*
X29888426Y-3117481D01*
X29888428Y-3117488D01*
X29942425Y-3223462D01*
X29942427Y-3223465D01*
X30026535Y-3307573D01*
X30026537Y-3307574D01*
X30132511Y-3361571D01*
X30132513Y-3361571D01*
X30132518Y-3361574D01*
X30250000Y-3380181D01*
X30367482Y-3361574D01*
X30473465Y-3307573D01*
X30557573Y-3223465D01*
X30611574Y-3117482D01*
X30630181Y-3000000D01*
X30611574Y-2882518D01*
X30611571Y-2882513D01*
X30611571Y-2882511D01*
X30557574Y-2776537D01*
X30557573Y-2776535D01*
X30531038Y-2750000D01*
X31119819Y-2750000D01*
X31138426Y-2867481D01*
X31138428Y-2867488D01*
X31192425Y-2973462D01*
X31192427Y-2973465D01*
X31276535Y-3057573D01*
X31276537Y-3057574D01*
X31382511Y-3111571D01*
X31382513Y-3111571D01*
X31382518Y-3111574D01*
X31500000Y-3130181D01*
X31617482Y-3111574D01*
X31723465Y-3057573D01*
X31807573Y-2973465D01*
X31861574Y-2867482D01*
X31880181Y-2750000D01*
X31861574Y-2632518D01*
X31861571Y-2632513D01*
X31861571Y-2632511D01*
X31807574Y-2526537D01*
X31807573Y-2526535D01*
X31723465Y-2442427D01*
X31723462Y-2442425D01*
X31617488Y-2388428D01*
X31617483Y-2388426D01*
X31617482Y-2388426D01*
X31500000Y-2369819D01*
X31382518Y-2388426D01*
X31382511Y-2388428D01*
X31276537Y-2442425D01*
X31192425Y-2526537D01*
X31138428Y-2632511D01*
X31138426Y-2632518D01*
X31119819Y-2749999D01*
X31119819Y-2750000D01*
X30531038Y-2750000D01*
X30473465Y-2692427D01*
X30473462Y-2692425D01*
X30367488Y-2638428D01*
X30367483Y-2638426D01*
X30367482Y-2638426D01*
X30250000Y-2619819D01*
X30132518Y-2638426D01*
X30132511Y-2638428D01*
X30026537Y-2692425D01*
X29942425Y-2776537D01*
X29888428Y-2882511D01*
X29888426Y-2882518D01*
X29878938Y-2942427D01*
X29869819Y-3000000D01*
X29031038Y-3000000D01*
X28973465Y-2942427D01*
X28973462Y-2942425D01*
X28867488Y-2888428D01*
X28867483Y-2888426D01*
X28867482Y-2888426D01*
X28750000Y-2869819D01*
X28632518Y-2888426D01*
X28632511Y-2888428D01*
X28526537Y-2942425D01*
X28442425Y-3026537D01*
X28388428Y-3132511D01*
X28388426Y-3132518D01*
X28369819Y-3249999D01*
X28369819Y-3250000D01*
X8880181Y-3250000D01*
X8861574Y-3132518D01*
X8861571Y-3132513D01*
X8861571Y-3132511D01*
X8807574Y-3026537D01*
X8807573Y-3026535D01*
X8723465Y-2942427D01*
X8723462Y-2942425D01*
X8617488Y-2888428D01*
X8617483Y-2888426D01*
X8617482Y-2888426D01*
X8500000Y-2869819D01*
X8382518Y-2888426D01*
X8382511Y-2888428D01*
X8276537Y-2942425D01*
X8276535Y-2942426D01*
X8276535Y-2942427D01*
X8210956Y-3008005D01*
X8156442Y-3035781D01*
X8140955Y-3037000D01*
X6686754Y-3037000D01*
X6628563Y-3018093D01*
X6592599Y-2968593D01*
X6592599Y-2907407D01*
X6598544Y-2893055D01*
X6600901Y-2888428D01*
X6611574Y-2867482D01*
X6630181Y-2750000D01*
X13869819Y-2750000D01*
X13888426Y-2867481D01*
X13888428Y-2867488D01*
X13942425Y-2973462D01*
X13942427Y-2973465D01*
X14026535Y-3057573D01*
X14026537Y-3057574D01*
X14132511Y-3111571D01*
X14132513Y-3111571D01*
X14132518Y-3111574D01*
X14250000Y-3130181D01*
X14367482Y-3111574D01*
X14473465Y-3057573D01*
X14557573Y-2973465D01*
X14611574Y-2867482D01*
X14630181Y-2750000D01*
X14611574Y-2632518D01*
X14611571Y-2632513D01*
X14611571Y-2632511D01*
X14557574Y-2526537D01*
X14557573Y-2526535D01*
X14473465Y-2442427D01*
X14473462Y-2442425D01*
X14367488Y-2388428D01*
X14367483Y-2388426D01*
X14367482Y-2388426D01*
X14250000Y-2369819D01*
X14132518Y-2388426D01*
X14132511Y-2388428D01*
X14026537Y-2442425D01*
X13942425Y-2526537D01*
X13888428Y-2632511D01*
X13888426Y-2632518D01*
X13869819Y-2749999D01*
X13869819Y-2750000D01*
X6630181Y-2750000D01*
X6611574Y-2632518D01*
X6611571Y-2632513D01*
X6611571Y-2632511D01*
X6557574Y-2526537D01*
X6557573Y-2526535D01*
X6473465Y-2442427D01*
X6473462Y-2442425D01*
X6367488Y-2388428D01*
X6367483Y-2388426D01*
X6367482Y-2388426D01*
X6250000Y-2369819D01*
X6132518Y-2388426D01*
X6132511Y-2388428D01*
X6026537Y-2442425D01*
X5942425Y-2526537D01*
X5888428Y-2632511D01*
X5888426Y-2632518D01*
X5869819Y-2749999D01*
X5869819Y-2750000D01*
X5888426Y-2867481D01*
X5888426Y-2867483D01*
X5901456Y-2893055D01*
X5911027Y-2953488D01*
X5883249Y-3008004D01*
X5828732Y-3035781D01*
X5813246Y-3037000D01*
X5803011Y-3037000D01*
X5785559Y-3034034D01*
X5785547Y-3034145D01*
X5774464Y-3032896D01*
X5774462Y-3032896D01*
X5748856Y-3035781D01*
X5740796Y-3036689D01*
X5735251Y-3037000D01*
X5725999Y-3037000D01*
X5716964Y-3039061D01*
X5711494Y-3039990D01*
X5677842Y-3043781D01*
X5667315Y-3047465D01*
X5667279Y-3047362D01*
X5665208Y-3048219D01*
X5665256Y-3048318D01*
X5655205Y-3053158D01*
X5628725Y-3074275D01*
X5624197Y-3077487D01*
X5616364Y-3082409D01*
X5616357Y-3082414D01*
X5609808Y-3088963D01*
X5605671Y-3092659D01*
X5579187Y-3113780D01*
X5572231Y-3122503D01*
X5572144Y-3122434D01*
X5561903Y-3136867D01*
X5026004Y-3672766D01*
X4971487Y-3700543D01*
X4911055Y-3690972D01*
X4867790Y-3647707D01*
X4861843Y-3633348D01*
X4861575Y-3632526D01*
X4861574Y-3632518D01*
X4807573Y-3526535D01*
X4723465Y-3442427D01*
X4723462Y-3442425D01*
X4617488Y-3388428D01*
X4617483Y-3388426D01*
X4617482Y-3388426D01*
X4500000Y-3369819D01*
X4382518Y-3388426D01*
X4382511Y-3388428D01*
X4276537Y-3442425D01*
X4192425Y-3526537D01*
X4138428Y-3632511D01*
X4138426Y-3632518D01*
X4119819Y-3749999D01*
X4119819Y-3750000D01*
X4138426Y-3867481D01*
X4138428Y-3867488D01*
X4192425Y-3973462D01*
X4192427Y-3973465D01*
X4276535Y-4057573D01*
X4382518Y-4111574D01*
X4382528Y-4111575D01*
X4383346Y-4111842D01*
X4384059Y-4112360D01*
X4389460Y-4115112D01*
X4389024Y-4115966D01*
X4432850Y-4147801D01*
X4451763Y-4205990D01*
X4432862Y-4264183D01*
X4422767Y-4276003D01*
X3690770Y-5008003D01*
X3636253Y-5035781D01*
X3620766Y-5037000D01*
X3359045Y-5037000D01*
X3300854Y-5018093D01*
X3289047Y-5008009D01*
X3223465Y-4942427D01*
X3223462Y-4942425D01*
X3117488Y-4888428D01*
X3117483Y-4888426D01*
X3117482Y-4888426D01*
X3000000Y-4869819D01*
X2882518Y-4888426D01*
X2882511Y-4888428D01*
X2776537Y-4942425D01*
X2692425Y-5026537D01*
X2638428Y-5132511D01*
X2638426Y-5132518D01*
X2619819Y-5249999D01*
X2619819Y-5250000D01*
X2638426Y-5367481D01*
X2638428Y-5367488D01*
X2692425Y-5473462D01*
X2692427Y-5473465D01*
X2776535Y-5557573D01*
X2776537Y-5557574D01*
X2882511Y-5611571D01*
X2882513Y-5611571D01*
X2882518Y-5611574D01*
X3000000Y-5630181D01*
X3007782Y-5628948D01*
X3068213Y-5638518D01*
X3111479Y-5681782D01*
X3121052Y-5742211D01*
X3119819Y-5749998D01*
X3119819Y-5750000D01*
X3121052Y-5757787D01*
X3111478Y-5818219D01*
X3068212Y-5861481D01*
X3007787Y-5871052D01*
X3000000Y-5869819D01*
X2882518Y-5888426D01*
X2882511Y-5888428D01*
X2776537Y-5942425D01*
X2692425Y-6026537D01*
X2638428Y-6132511D01*
X2638426Y-6132518D01*
X2619819Y-6249999D01*
X2619819Y-6250000D01*
X2638426Y-6367481D01*
X2638428Y-6367488D01*
X2692425Y-6473462D01*
X2692427Y-6473465D01*
X2776535Y-6557573D01*
X2776537Y-6557574D01*
X2882511Y-6611571D01*
X2882513Y-6611571D01*
X2882518Y-6611574D01*
X3000000Y-6630181D01*
X3007782Y-6628948D01*
X3068213Y-6638518D01*
X3111479Y-6681782D01*
X3121052Y-6742211D01*
X3119819Y-6749998D01*
X3119819Y-6750000D01*
X3121052Y-6757787D01*
X3111478Y-6818219D01*
X3068212Y-6861481D01*
X3007787Y-6871052D01*
X3000000Y-6869819D01*
X2882518Y-6888426D01*
X2882511Y-6888428D01*
X2776537Y-6942425D01*
X2692425Y-7026537D01*
X2638428Y-7132511D01*
X2638426Y-7132518D01*
X2619819Y-7249999D01*
X2619819Y-7250000D01*
X2638426Y-7367481D01*
X2638428Y-7367488D01*
X2692425Y-7473462D01*
X2692427Y-7473465D01*
X2776535Y-7557573D01*
X2776537Y-7557574D01*
X2882511Y-7611571D01*
X2882513Y-7611571D01*
X2882518Y-7611574D01*
X3000000Y-7630181D01*
X3007782Y-7628948D01*
X3068213Y-7638518D01*
X3111479Y-7681782D01*
X3121052Y-7742211D01*
X3119819Y-7749998D01*
X3119819Y-7750000D01*
X3121052Y-7757787D01*
X3111478Y-7818219D01*
X3068212Y-7861481D01*
X3007787Y-7871052D01*
X3000000Y-7869819D01*
X2882518Y-7888426D01*
X2882511Y-7888428D01*
X2776537Y-7942425D01*
X2692425Y-8026537D01*
X2638428Y-8132511D01*
X2638426Y-8132518D01*
X2620698Y-8244453D01*
X2619819Y-8250000D01*
X2636909Y-8357907D01*
X2638426Y-8367481D01*
X2638428Y-8367488D01*
X2692425Y-8473462D01*
X2692427Y-8473465D01*
X2776535Y-8557573D01*
X2776537Y-8557574D01*
X2882511Y-8611571D01*
X2882513Y-8611571D01*
X2882518Y-8611574D01*
X3000000Y-8630181D01*
X3007782Y-8628948D01*
X3068213Y-8638518D01*
X3111479Y-8681782D01*
X3121052Y-8742211D01*
X3119819Y-8749998D01*
X3119819Y-8750000D01*
X3121052Y-8757787D01*
X3111478Y-8818219D01*
X3068212Y-8861481D01*
X3007787Y-8871052D01*
X3000000Y-8869819D01*
X2882518Y-8888426D01*
X2882511Y-8888428D01*
X2776537Y-8942425D01*
X2692425Y-9026537D01*
X2638428Y-9132511D01*
X2638426Y-9132518D01*
X2628938Y-9192427D01*
X2619819Y-9250000D01*
X200500Y-9250000D01*
X200500Y-4250000D01*
X2619819Y-4250000D01*
X2638426Y-4367481D01*
X2638428Y-4367488D01*
X2692425Y-4473462D01*
X2692427Y-4473465D01*
X2776535Y-4557573D01*
X2776537Y-4557574D01*
X2882511Y-4611571D01*
X2882513Y-4611571D01*
X2882518Y-4611574D01*
X3000000Y-4630181D01*
X3117482Y-4611574D01*
X3223465Y-4557573D01*
X3307573Y-4473465D01*
X3361574Y-4367482D01*
X3380181Y-4250000D01*
X3361574Y-4132518D01*
X3361571Y-4132513D01*
X3361571Y-4132511D01*
X3307574Y-4026537D01*
X3307573Y-4026535D01*
X3223465Y-3942427D01*
X3223462Y-3942425D01*
X3117488Y-3888428D01*
X3117483Y-3888426D01*
X3117482Y-3888426D01*
X3000000Y-3869819D01*
X2882518Y-3888426D01*
X2882511Y-3888428D01*
X2776537Y-3942425D01*
X2692425Y-4026537D01*
X2638428Y-4132511D01*
X2638426Y-4132518D01*
X2619819Y-4249999D01*
X2619819Y-4250000D01*
X200500Y-4250000D01*
X200500Y-2624057D01*
X219407Y-2565866D01*
X229496Y-2554053D01*
X533549Y-2250000D01*
X10619819Y-2250000D01*
X10638426Y-2367481D01*
X10638428Y-2367488D01*
X10692425Y-2473462D01*
X10692427Y-2473465D01*
X10776535Y-2557573D01*
X10776537Y-2557574D01*
X10882511Y-2611571D01*
X10882513Y-2611571D01*
X10882518Y-2611574D01*
X11000000Y-2630181D01*
X11117482Y-2611574D01*
X11223465Y-2557573D01*
X11307573Y-2473465D01*
X11361574Y-2367482D01*
X11380181Y-2250000D01*
X11361574Y-2132518D01*
X11361571Y-2132513D01*
X11361571Y-2132511D01*
X11307574Y-2026537D01*
X11307573Y-2026535D01*
X11281038Y-2000000D01*
X15369819Y-2000000D01*
X15388426Y-2117481D01*
X15388428Y-2117488D01*
X15442425Y-2223462D01*
X15442427Y-2223465D01*
X15526535Y-2307573D01*
X15526537Y-2307574D01*
X15632511Y-2361571D01*
X15632513Y-2361571D01*
X15632518Y-2361574D01*
X15750000Y-2380181D01*
X15867482Y-2361574D01*
X15973465Y-2307573D01*
X16057573Y-2223465D01*
X16111574Y-2117482D01*
X16130181Y-2000000D01*
X16111574Y-1882518D01*
X16111571Y-1882513D01*
X16111571Y-1882511D01*
X16057574Y-1776537D01*
X16057573Y-1776535D01*
X15973465Y-1692427D01*
X15973462Y-1692425D01*
X15867488Y-1638428D01*
X15867483Y-1638426D01*
X15867482Y-1638426D01*
X15750000Y-1619819D01*
X15632518Y-1638426D01*
X15632511Y-1638428D01*
X15526537Y-1692425D01*
X15442425Y-1776537D01*
X15388428Y-1882511D01*
X15388426Y-1882518D01*
X15369819Y-1999999D01*
X15369819Y-2000000D01*
X11281038Y-2000000D01*
X11223465Y-1942427D01*
X11223462Y-1942425D01*
X11117488Y-1888428D01*
X11117483Y-1888426D01*
X11117482Y-1888426D01*
X11000000Y-1869819D01*
X10882518Y-1888426D01*
X10882511Y-1888428D01*
X10776537Y-1942425D01*
X10692425Y-2026537D01*
X10638428Y-2132511D01*
X10638426Y-2132518D01*
X10619819Y-2249999D01*
X10619819Y-2250000D01*
X533549Y-2250000D01*
X1283549Y-1500000D01*
X4369819Y-1500000D01*
X4388426Y-1617481D01*
X4388428Y-1617488D01*
X4426611Y-1692425D01*
X4442427Y-1723465D01*
X4526535Y-1807573D01*
X4526537Y-1807574D01*
X4632511Y-1861571D01*
X4632513Y-1861571D01*
X4632518Y-1861574D01*
X4750000Y-1880181D01*
X4867482Y-1861574D01*
X4973465Y-1807573D01*
X5057573Y-1723465D01*
X5111574Y-1617482D01*
X5130181Y-1500000D01*
X5111574Y-1382518D01*
X5111571Y-1382513D01*
X5111571Y-1382511D01*
X5057574Y-1276537D01*
X5057573Y-1276535D01*
X4973465Y-1192427D01*
X4973462Y-1192425D01*
X4867488Y-1138428D01*
X4867483Y-1138426D01*
X4867482Y-1138426D01*
X4750000Y-1119819D01*
X4632518Y-1138426D01*
X4632511Y-1138428D01*
X4526537Y-1192425D01*
X4442425Y-1276537D01*
X4388428Y-1382511D01*
X4388426Y-1382518D01*
X4369819Y-1499999D01*
X4369819Y-1500000D01*
X1283549Y-1500000D01*
X1783549Y-1000000D01*
X13119819Y-1000000D01*
X13138426Y-1117481D01*
X13138428Y-1117488D01*
X13176611Y-1192425D01*
X13192427Y-1223465D01*
X13276535Y-1307573D01*
X13276537Y-1307574D01*
X13382511Y-1361571D01*
X13382513Y-1361571D01*
X13382518Y-1361574D01*
X13500000Y-1380181D01*
X13617482Y-1361574D01*
X13723465Y-1307573D01*
X13807573Y-1223465D01*
X13861574Y-1117482D01*
X13880181Y-1000000D01*
X18119819Y-1000000D01*
X18138426Y-1117481D01*
X18138428Y-1117488D01*
X18176611Y-1192425D01*
X18192427Y-1223465D01*
X18276535Y-1307573D01*
X18276537Y-1307574D01*
X18382511Y-1361571D01*
X18382513Y-1361571D01*
X18382518Y-1361574D01*
X18500000Y-1380181D01*
X18617482Y-1361574D01*
X18723465Y-1307573D01*
X18807573Y-1223465D01*
X18861574Y-1117482D01*
X18879084Y-1006926D01*
X20619819Y-1006926D01*
X20638426Y-1124407D01*
X20638428Y-1124414D01*
X20688898Y-1223465D01*
X20692427Y-1230391D01*
X20776535Y-1314499D01*
X20776537Y-1314500D01*
X20882511Y-1368497D01*
X20882513Y-1368497D01*
X20882518Y-1368500D01*
X21000000Y-1387107D01*
X21117482Y-1368500D01*
X21223465Y-1314499D01*
X21307573Y-1230391D01*
X21361574Y-1124408D01*
X21380181Y-1006926D01*
X21379084Y-1000000D01*
X23119819Y-1000000D01*
X23138426Y-1117481D01*
X23138428Y-1117488D01*
X23176611Y-1192425D01*
X23192427Y-1223465D01*
X23276535Y-1307573D01*
X23276537Y-1307574D01*
X23382511Y-1361571D01*
X23382513Y-1361571D01*
X23382518Y-1361574D01*
X23500000Y-1380181D01*
X23617482Y-1361574D01*
X23723465Y-1307573D01*
X23807573Y-1223465D01*
X23861574Y-1117482D01*
X23880181Y-1000000D01*
X23861574Y-882518D01*
X23861571Y-882513D01*
X23861571Y-882511D01*
X23807574Y-776537D01*
X23807573Y-776535D01*
X23723465Y-692427D01*
X23723462Y-692425D01*
X23617488Y-638428D01*
X23617483Y-638426D01*
X23617482Y-638426D01*
X23500000Y-619819D01*
X23382518Y-638426D01*
X23382511Y-638428D01*
X23276537Y-692425D01*
X23192425Y-776537D01*
X23138428Y-882511D01*
X23138426Y-882518D01*
X23119819Y-999999D01*
X23119819Y-1000000D01*
X21379084Y-1000000D01*
X21361574Y-889444D01*
X21361571Y-889439D01*
X21361571Y-889437D01*
X21307574Y-783463D01*
X21307573Y-783461D01*
X21223465Y-699353D01*
X21223462Y-699351D01*
X21117488Y-645354D01*
X21117483Y-645352D01*
X21117482Y-645352D01*
X21000000Y-626745D01*
X20882518Y-645352D01*
X20882511Y-645354D01*
X20776537Y-699351D01*
X20692425Y-783463D01*
X20638428Y-889437D01*
X20638426Y-889444D01*
X20619819Y-1006925D01*
X20619819Y-1006926D01*
X18879084Y-1006926D01*
X18880181Y-1000000D01*
X18861574Y-882518D01*
X18861571Y-882513D01*
X18861571Y-882511D01*
X18807574Y-776537D01*
X18807573Y-776535D01*
X18723465Y-692427D01*
X18723462Y-692425D01*
X18617488Y-638428D01*
X18617483Y-638426D01*
X18617482Y-638426D01*
X18500000Y-619819D01*
X18382518Y-638426D01*
X18382511Y-638428D01*
X18276537Y-692425D01*
X18192425Y-776537D01*
X18138428Y-882511D01*
X18138426Y-882518D01*
X18119819Y-999999D01*
X18119819Y-1000000D01*
X13880181Y-1000000D01*
X13861574Y-882518D01*
X13861571Y-882513D01*
X13861571Y-882511D01*
X13807574Y-776537D01*
X13807573Y-776535D01*
X13723465Y-692427D01*
X13723462Y-692425D01*
X13617488Y-638428D01*
X13617483Y-638426D01*
X13617482Y-638426D01*
X13500000Y-619819D01*
X13382518Y-638426D01*
X13382511Y-638428D01*
X13276537Y-692425D01*
X13192425Y-776537D01*
X13138428Y-882511D01*
X13138426Y-882518D01*
X13119819Y-999999D01*
X13119819Y-1000000D01*
X1783549Y-1000000D01*
X2554054Y-229496D01*
X2608571Y-201719D01*
X2624058Y-200500D01*
X32375943Y-200500D01*
X32434134Y-219407D01*
G37*
%TD.AperFunction*%
%TD*%
M02*
